# MSMS solvent excluded surface faces for fragments/fragment106.xyzr
#faces  #sphere density probe_r
   1482      34  3.00  1.50
     1    230    229  3      3
   229    230    231  3      3
   229    231      2  3      3
     2    231    232  3      3
   230    233    231  3      3
   231    233    234  3      3
   231    234    232  3      3
   232    234    235  3      3
   233      5    234  3      3
   234      5    236  3      3
   234    236    235  3      3
   235    236      4  3      3
     5      8      6  3      5
     6      8      7  3      5
     8     11    237  3      7
   237     11    239  3      7
   237    239    238  3      7
   238    239    240  3      7
   238    240      9  3      7
     9    240     10  3      7
    11    243    241  3      9
   241    243    244  3      9
   241    244    242  3      9
   242    244    245  3      9
   242    245     12  3      9
    12    245    246  3      9
   243     14    244  3      9
   244     14    247  3      9
   244    247    245  3      9
   245    247    248  3      9
   245    248    246  3      9
   246    248     13  3      9
    14     17    249  3     11
   249     17    250  3     11
   249    250     15  3     11
    15    250     16  3     11
    17    251     18  3     13
    18    251    252  3     13
   251     20    252  3     13
   252     20     19  3     13
    20     23    253  3     15
   253     23    254  3     15
   253    254     21  3     15
    21    254     22  3     15
    23    255     24  3     16
    24    255    256  3     16
   255      1    256  3     16
   256      1      3  3     16
    24    257     22  3     18
    22    257    258  3     18
   257     26    258  3     18
   258     26     25  3     18
    26    259     27  3     19
    27    259    260  3     19
   259      3    260  3     19
   260      3      2  3     19
    27    262    261  3     21
   261    262    263  3     21
   261    263     25  3     21
    25    263    264  3     21
   262     29    263  3     21
   263     29    265  3     21
   263    265    264  3     21
   264    265     28  3     21
    29     32    266  3     23
   266     32    267  3     23
   266    267     30  3     23
    30    267     31  3     23
    32    271    268  3     25
   268    271    272  3     25
   268    272    269  3     25
   269    272    273  3     25
   269    273    270  3     25
   270    273    274  3     25
   270    274     33  3     25
    33    274    275  3     25
   271     35    272  3     25
   272     35    276  3     25
   272    276    273  3     25
   273    276    277  3     25
   273    277    274  3     25
   274    277    278  3     25
   274    278    275  3     25
   275    278     34  3     25
    35     38    279  3     27
   279     38    280  3     27
   279    280     36  3     27
    36    280     37  3     27
    38    283    281  3     29
   281    283    284  3     29
   281    284    282  3     29
   282    284    285  3     29
   282    285     39  3     29
    39    285    286  3     29
   283     41    284  3     29
   284     41    287  3     29
   284    287    285  3     29
   285    287    288  3     29
   285    288    286  3     29
   286    288     40  3     29
    41     44    289  3     31
   289     44    290  3     31
   289    290     42  3     31
    42    290     43  3     31
    44      4     45  3     32
    45      4      6  3     32
    45      7    291  3     33
   291      7    292  3     33
   291    292     43  3     33
    43    292      9  3     33
    42     47     40  3     35
    40     47     46  3     35
    47     50    293  3     37
   293     50    294  3     37
   293    294     48  3     37
    48    294     49  3     37
    50     53    295  3     39
   295     53    296  3     39
   295    296     51  3     39
    51    296     52  3     39
    53    297     54  3     41
    54    297    298  3     41
   297    299    298  3     41
   298    299    300  3     41
   299     56    300  3     41
   300     56     55  3     41
    56     10     57  3     42
    57     10     12  3     42
    57    301     55  3     44
    55    301    302  3     44
   301    303    302  3     44
   302    303    304  3     44
   303    305    304  3     44
   304    305    306  3     44
   305    307    306  3     44
   306    307    308  3     44
   307     59    308  3     44
   308     59     58  3     44
    59     62    309  3     46
   309     62    310  3     46
   309    310     60  3     46
    60    310     61  3     46
    62     13    311  3     47
   311     13    312  3     47
   311    312     63  3     47
    63    312     15  3     47
    63     65    313  3     49
   313     65    314  3     49
   313    314     61  3     49
    61    314     64  3     49
    65     68     66  3     51
    66     68     67  3     51
    68     71    315  3     53
   315     71    316  3     53
   315    316     69  3     53
    69    316     70  3     53
    71     74    317  3     55
   317     74    318  3     55
   317    318     72  3     55
    72    318     73  3     55
    74     16     75  3     56
    75     16     18  3     56
    75     77    319  3     58
   319     77    321  3     58
   319    321    320  3     58
   320    321    322  3     58
   320    322     73  3     58
    73    322     76  3     58
    77    323     78  3     59
    78    323    324  3     59
   323     19    324  3     59
   324     19     21  3     59
    78    327    325  3     61
   325    327    328  3     61
   325    328    326  3     61
   326    328    329  3     61
   326    329     76  3     61
    76    329    330  3     61
   327     80    328  3     61
   328     80    331  3     61
   328    331    329  3     61
   329    331    332  3     61
   329    332    330  3     61
   330    332     79  3     61
    80    336    333  3     63
   333    336    337  3     63
   333    337    334  3     63
   334    337    338  3     63
   334    338    335  3     63
   335    338    339  3     63
   335    339     81  3     63
    81    339    340  3     63
   336     83    337  3     63
   337     83    341  3     63
   337    341    338  3     63
   338    341    342  3     63
   338    342    339  3     63
   339    342    343  3     63
   339    343    340  3     63
   340    343     82  3     63
    83     86    344  3     65
   344     86    347  3     65
   344    347    345  3     65
   345    347    348  3     65
   345    348    346  3     65
   346    348    349  3     65
   346    349     84  3     65
    84    349     85  3     65
    86     89    350  3     67
   350     89    352  3     67
   350    352    351  3     67
   351    352    353  3     67
   351    353     87  3     67
    87    353     88  3     67
    89     28    354  3     68
   354     28    355  3     68
   354    355     90  3     68
    90    355     30  3     68
    90     92    356  3     70
   356     92    357  3     70
   356    357     88  3     70
    88    357     91  3     70
    92     95    358  3     72
   358     95    361  3     72
   358    361    359  3     72
   359    361    362  3     72
   359    362    360  3     72
   360    362    363  3     72
   360    363     93  3     72
    93    363     94  3     72
    95     31    364  3     73
   364     31    365  3     73
   364    365     96  3     73
    96    365     33  3     73
    96     98    366  3     75
   366     98    368  3     75
   366    368    367  3     75
   367    368    369  3     75
   367    369     94  3     75
    94    369     97  3     75
    98    370     99  3     77
    99    370    371  3     77
   370    372    371  3     77
   371    372    373  3     77
   372    374    373  3     77
   373    374    375  3     77
   374    101    375  3     77
   375    101    100  3     77
   101    104    102  3     79
   102    104    103  3     79
   104    107    105  3     81
   105    107    106  3     81
   107    110    376  3     83
   376    110    377  3     83
   376    377    108  3     83
   108    377    109  3     83
   110     34    378  3     84
   378     34    379  3     84
   378    379    111  3     84
   111    379     36  3     84
   111     37    109  3     85
   109     37     39  3     85
   108    381    380  3     86
   380    381    382  3     86
   380    382    106  3     86
   106    382    383  3     86
   381     46    382  3     86
   382     46    384  3     86
   382    384    383  3     86
   383    384     48  3     86
   105    113    103  3     88
   103    113    112  3     88
   113    385    114  3     90
   114    385    386  3     90
   385    116    386  3     90
   386    116    115  3     90
   116    119    117  3     92
   117    119    118  3     92
   119    387    120  3     93
   120    387    388  3     93
   387    389    388  3     93
   388    389    390  3     93
   389     49    390  3     93
   390     49     51  3     93
   120    122    391  3     95
   391    122    392  3     95
   391    392    118  3     95
   118    392    121  3     95
   122    393    123  3     97
   123    393    394  3     97
   393    395    394  3     97
   394    395    396  3     97
   395    397    396  3     97
   396    397    398  3     97
   397    125    398  3     97
   398    125    124  3     97
   125    400    399  3     99
   399    400    401  3     99
   399    401    126  3     99
   126    401    402  3     99
   400    128    401  3     99
   401    128    403  3     99
   401    403    402  3     99
   402    403    127  3     99
   128     52    404  3    100
   404     52    406  3    100
   404    406    405  3    100
   405    406    407  3    100
   405    407    129  3    100
   129    407     54  3    100
   129    131    408  3    102
   408    131    409  3    102
   408    409    127  3    102
   127    409    130  3    102
   131    134    132  3    104
   132    134    133  3    104
   134    137    410  3    106
   410    137    411  3    106
   410    411    135  3    106
   135    411    136  3    106
   137     58    412  3    107
   412     58    413  3    107
   412    413    138  3    107
   138    413     60  3    107
   138    414    136  3    109
   136    414    415  3    109
   414    140    415  3    109
   415    140    139  3    109
   140    143    141  3    111
   141    143    142  3    111
   143     64    144  3    112
   144     64     66  3    112
   144     67    142  3    113
   142     67     69  3    113
   141    416    139  3    115
   139    416    417  3    115
   416    418    417  3    115
   417    418    419  3    115
   418    146    419  3    115
   419    146    145  3    115
   146    420    147  3    117
   147    420    421  3    117
   420    149    421  3    117
   421    149    148  3    117
   149    152    422  3    119
   422    152    424  3    119
   422    424    423  3    119
   423    424    425  3    119
   423    425    150  3    119
   150    425    151  3    119
   152    427    426  3    121
   426    427    428  3    121
   426    428    153  3    121
   153    428    429  3    121
   427    155    428  3    121
   428    155    430  3    121
   428    430    429  3    121
   429    430    154  3    121
   155    432    431  3    123
   431    432    433  3    123
   431    433    156  3    123
   156    433    434  3    123
   432    435    433  3    123
   433    435    436  3    123
   433    436    434  3    123
   434    436    437  3    123
   435    438    436  3    123
   436    438    439  3    123
   436    439    437  3    123
   437    439    440  3    123
   438    441    439  3    123
   439    441    442  3    123
   439    442    440  3    123
   440    442    443  3    123
   441    158    442  3    123
   442    158    444  3    123
   442    444    443  3    123
   443    444    157  3    123
   158    161    445  3    125
   445    161    446  3    125
   445    446    159  3    125
   159    446    160  3    125
   161    448    447  3    127
   447    448    449  3    127
   447    449    162  3    127
   162    449    450  3    127
   448    164    449  3    127
   449    164    451  3    127
   449    451    450  3    127
   450    451    163  3    127
   164    452    165  3    128
   165    452    453  3    128
   452     70    453  3    128
   453     70     72  3    128
   165     79    454  3    129
   454     79    455  3    129
   454    455    163  3    129
   163    455     81  3    129
   162    456    160  3    131
   160    456    457  3    131
   456    458    457  3    131
   457    458    459  3    131
   458    460    459  3    131
   459    460    461  3    131
   460    462    461  3    131
   461    462    463  3    131
   462    167    463  3    131
   463    167    166  3    131
   167    170    464  3    133
   464    170    465  3    133
   464    465    168  3    133
   168    465    169  3    133
   170     82    171  3    134
   171     82     84  3    134
   171    466    169  3    136
   169    466    467  3    136
   466    173    467  3    136
   467    173    172  3    136
   173     85    174  3    137
   174     85     87  3    137
   174     91    468  3    138
   468     91    469  3    138
   468    469    172  3    138
   172    469     93  3    138
   168    470    166  3    140
   166    470    471  3    140
   470    472    471  3    140
   471    472    473  3    140
   472    474    473  3    140
   473    474    475  3    140
   474    476    475  3    140
   475    476    477  3    140
   476    176    477  3    140
   477    176    175  3    140
   176    179    478  3    142
   478    179    480  3    142
   478    480    479  3    142
   479    480    481  3    142
   479    481    177  3    142
   177    481    178  3    142
   179    484    482  3    144
   482    484    485  3    144
   482    485    483  3    144
   483    485    486  3    144
   483    486    180  3    144
   180    486    487  3    144
   484    182    485  3    144
   485    182    488  3    144
   485    488    486  3    144
   486    488    489  3    144
   486    489    487  3    144
   487    489    181  3    144
   182     97    490  3    145
   490     97    492  3    145
   490    492    491  3    145
   491    492    493  3    145
   491    493    183  3    145
   183    493     99  3    145
   183    494    181  3    146
   181    494    495  3    146
   494    178    495  3    146
   495    178    180  3    146
   177    185    496  3    148
   496    185    498  3    148
   496    498    497  3    148
   497    498    499  3    148
   497    499    175  3    148
   175    499    184  3    148
   185    500    186  3    150
   186    500    501  3    150
   500    502    501  3    150
   501    502    503  3    150
   502    188    503  3    150
   503    188    187  3    150
   188    504    189  3    152
   189    504    505  3    152
   504    506    505  3    152
   505    506    507  3    152
   506    508    507  3    152
   507    508    509  3    152
   508    510    509  3    152
   509    510    511  3    152
   510    191    511  3    152
   511    191    190  3    152
   191    512    192  3    154
   192    512    513  3    154
   512    194    513  3    154
   513    194    193  3    154
   194    514    195  3    155
   195    514    515  3    155
   514    516    515  3    155
   515    516    517  3    155
   516    518    517  3    155
   517    518    519  3    155
   518    520    519  3    155
   519    520    521  3    155
   520    100    521  3    155
   521    100    102  3    155
   195    522    193  3    157
   193    522    523  3    157
   522    524    523  3    157
   523    524    525  3    157
   524    526    525  3    157
   525    526    527  3    157
   526    528    527  3    157
   527    528    529  3    157
   528    197    529  3    157
   529    197    196  3    157
   197    200    198  3    159
   198    200    199  3    159
   200    530    201  3    160
   201    530    531  3    160
   530    112    531  3    160
   531    112    114  3    160
   201    115    199  3    161
   199    115    117  3    161
   198    533    532  3    163
   532    533    534  3    163
   532    534    196  3    163
   196    534    535  3    163
   533    203    534  3    163
   534    203    536  3    163
   534    536    535  3    163
   535    536    202  3    163
   203    206    204  3    165
   204    206    205  3    165
   206    209    207  3    167
   207    209    208  3    167
   209    121    210  3    168
   210    121    123  3    168
   210    537    208  3    170
   208    537    538  3    170
   537    212    538  3    170
   538    212    211  3    170
   212    215    213  3    172
   213    215    214  3    172
   215    218    216  3    174
   216    218    217  3    174
   218    539    219  3    176
   219    539    540  3    176
   539    221    540  3    176
   540    221    220  3    176
   221    124    541  3    177
   541    124    542  3    177
   541    542    222  3    177
   222    542    126  3    177
   222    543    220  3    178
   220    543    544  3    178
   543    130    544  3    178
   544    130    132  3    178
   219    224    217  3    180
   217    224    223  3    180
   224    545    225  3    182
   225    545    546  3    182
   545    547    546  3    182
   546    547    548  3    182
   547    227    548  3    182
   548    227    226  3    182
   227    549    228  3    183
   228    549    550  3    183
   549    133    550  3    183
   550    133    135  3    183
   228    551    226  3    184
   226    551    552  3    184
   551    145    552  3    184
   552    145    147  3    184
   225    148    553  3    185
   553    148    554  3    185
   553    554    223  3    185
   223    554    150  3    185
   216    187    214  3    186
   214    187    189  3    186
   213    555    211  3    187
   211    555    556  3    187
   555    205    556  3    187
   556    205    207  3    187
   204    557    202  3    188
   202    557    558  3    188
   557    559    558  3    188
   558    559    560  3    188
   559    561    560  3    188
   560    561    562  3    188
   561    563    562  3    188
   562    563    564  3    188
   563    190    564  3    188
   564    190    192  3    188
   186    151    565  3    189
   565    151    567  3    189
   565    567    566  3    189
   566    567    568  3    189
   566    568    184  3    189
   184    568    153  3    189
   159    154    569  3    190
   569    154    570  3    190
   569    570    157  3    190
   157    570    156  3    190
     3      1    229  2      1
     3    229      2  2      1
     6      4    236  2      2
     6    236      5  2      2
   292      7    237  2      4
   292    237    238  2      4
   292    238      9  2      4
   237      7      8  2      4
    12     10    240  2      6
    12    240    242  2      6
   242    240    239  2      6
   242    239    241  2      6
   241    239     11  2      6
   312     13    248  2      8
   312    248     15  2      8
    15    248    247  2      8
    15    247    249  2      8
   249    247     14  2      8
    18     16    250  2     10
    18    250     17  2     10
    21     19    253  2     12
   253     19     20  2     12
    24     22    254  2     14
    24    254     23  2     14
   261     25     26  2     17
   261     26     27  2     17
   355     28    265  2     20
   355    265    266  2     20
   355    266     30  2     20
   266    265     29  2     20
   365     31    269  2     22
   365    269    270  2     22
   365    270     33  2     22
   269     31    268  2     22
   268     31    267  2     22
   268    267     32  2     22
   379     34    278  2     24
   379    278    277  2     24
   379    277     36  2     24
    36    277    279  2     24
   279    277    276  2     24
   279    276     35  2     24
    39     37    282  2     26
   282     37    280  2     26
   282    280    281  2     26
   281    280     38  2     26
    42     40    288  2     28
    42    288    289  2     28
   289    288    287  2     28
   289    287     41  2     28
   291     43    290  2     30
   291    290     45  2     30
    45    290     44  2     30
   384     46     47  2     34
   384     47    293  2     34
   384    293     48  2     34
    51     49    295  2     36
   295     49    294  2     36
   295    294     50  2     36
   406     52    296  2     38
   406    296    407  2     38
   407    296     53  2     38
   407     53     54  2     38
    57     55     56  2     40
   413     58    309  2     43
   413    309     60  2     43
   309     58     59  2     43
   313     61    310  2     45
   313    310    311  2     45
   313    311     63  2     45
   311    310     62  2     45
    66     64    314  2     48
    66    314     65  2     48
    69     67    315  2     50
   315     67     68  2     50
    72     70    317  2     52
   317     70    316  2     52
   317    316     71  2     52
   320     73    318  2     54
   320    318    319  2     54
   319    318     74  2     54
   319     74     75  2     54
   326     76    322  2     57
   326    322    325  2     57
   325    322    321  2     57
   325    321     78  2     57
    78    321     77  2     57
   455     79    571  2     60
   455    571    335  2     60
   455    335     81  2     60
   335    571    334  2     60
   334    571    332  2     60
   334    332    333  2     60
   333    332    331  2     60
   333    331     80  2     60
   332    571     79  2     60
    84     82    346  2     62
   346     82    343  2     62
   346    343    345  2     62
   345    343    342  2     62
   345    342    344  2     62
   344    342    341  2     62
   344    341     83  2     62
    87     85    349  2     64
    87    349    351  2     64
   351    349    348  2     64
   351    348    350  2     64
   350    348    347  2     64
   350    347     86  2     64
   356     88    353  2     66
   356    353     90  2     66
    90    353    354  2     66
   354    353    352  2     66
   354    352     89  2     66
   469     91    360  2     69
   469    360     93  2     69
   360     91    359  2     69
   359     91    357  2     69
   359    357    358  2     69
   358    357     92  2     69
   367     94    363  2     71
   367    363    572  2     71
   367    572    366  2     71
   366    572     96  2     71
    96    572    364  2     71
   364    572    573  2     71
   364    573    361  2     71
   364    361     95  2     71
   361    573    362  2     71
   362    573    572  2     71
   362    572    363  2     71
   492     97    369  2     74
   492    369    368  2     74
   492    368    493  2     74
   493    368     98  2     74
   493     98     99  2     74
   102    100    101  2     76
   105    103    104  2     78
   380    106    574  2     80
   380    574    376  2     80
   380    376    108  2     80
   376    574    107  2     80
   107    574    106  2     80
   111    109    377  2     82
   111    377    378  2     82
   378    377    110  2     82
   114    112    113  2     87
   117    115    116  2     89
   391    118    119  2     91
   391    119    120  2     91
   123    121    392  2     94
   123    392    122  2     94
   542    124    399  2     96
   542    399    126  2     96
   399    124    125  2     96
   408    127    405  2     98
   408    405    129  2     98
   405    127    404  2     98
   404    127    403  2     98
   404    403    128  2     98
   132    130    409  2    101
   132    409    131  2    101
   135    133    575  2    103
   135    575    410  2    103
   410    575    134  2    103
   134    575    133  2    103
   138    136    412  2    105
   412    136    411  2    105
   412    411    137  2    105
   141    139    140  2    108
   144    142    143  2    110
   147    145    146  2    114
   554    148    422  2    116
   554    422    423  2    116
   554    423    150  2    116
   422    148    149  2    116
   567    151    425  2    118
   567    425    424  2    118
   567    424    568  2    118
   568    424    576  2    118
   568    576    153  2    118
   153    576    426  2    118
   426    576    152  2    118
   152    576    424  2    118
   570    154    430  2    120
   570    430    155  2    120
   570    155    431  2    120
   570    431    156  2    120
   569    157    444  2    122
   569    444    158  2    122
   569    158    445  2    122
   569    445    159  2    122
   162    160    447  2    124
   447    160    446  2    124
   447    446    161  2    124
   454    163    451  2    126
   454    451    164  2    126
   454    164    165  2    126
   168    166    464  2    130
   464    166    167  2    130
   171    169    465  2    132
   171    465    170  2    132
   468    172    173  2    135
   468    173    174  2    135
   497    175    176  2    139
   497    176    478  2    139
   497    478    496  2    139
   496    478    479  2    139
   496    479    177  2    139
   180    178    481  2    141
   180    481    483  2    141
   483    481    480  2    141
   483    480    482  2    141
   482    480    179  2    141
   183    181    491  2    143
   491    181    489  2    143
   491    489    490  2    143
   490    489    488  2    143
   490    488    182  2    143
   566    184    499  2    147
   566    499    565  2    147
   565    499    498  2    147
   565    498    186  2    147
   186    498    185  2    147
   189    187    188  2    149
   192    190    191  2    151
   195    193    194  2    153
   532    196    197  2    156
   532    197    198  2    156
   201    199    200  2    158
   204    202    536  2    162
   204    536    203  2    162
   207    205    206  2    164
   210    208    209  2    166
   213    211    212  2    169
   216    214    215  2    171
   219    217    218  2    173
   222    220    541  2    175
   541    220    221  2    175
   553    223    224  2    179
   553    224    225  2    179
   228    226    227  2    181
   577    583    578  1    191
   577    578    579  1    191
   579    578    584  1    191
   579    584    585  1    191
   580    586    587  1    191
   581    580    587  1    191
   581    587    588  1    191
   582    581    588  1    191
   582    588    589  1    191
   583    582    589  1    191
   584    583    589  1    191
   578    583    584  1    191
   585    584    590  1    191
   585    590    591  1    191
   587    586    594  1    191
   587    594    595  1    191
   588    587    595  1    191
   589    588    595  1    191
   590    589    595  1    191
   584    589    590  1    191
   591    590    596  1    191
   592    591    596  1    191
   593    592    596  1    191
   594    593    596  1    191
   595    594    596  1    191
   590    595    596  1    191
   594    586    593  1    191
   593    586      1  1    191
   593      1    255  1    191
   593    255    592  1    191
   592    255     23  1    191
   592     23    591  1    191
   591     23     20  1    191
   591     20    585  1    191
   585     20    579  1    191
   579     20    251  1    191
   579    251     17  1    191
   579     17    577  1    191
   577     17     14  1    191
   577     14    243  1    191
   577    243    583  1    191
   583    243    582  1    191
   582    243    581  1    191
   581    243     11  1    191
   581     11    580  1    191
   580     11      5  1    191
   580      5    233  1    191
   580    233    230  1    191
   580    230    586  1    191
   586    230      1  1    191
     5     11      8  1    191
   597    601    602  1    192
   598    597    602  1    192
   598    602    603  1    192
   599    598    603  1    192
   599    603    604  1    192
   600    599    604  1    192
   600    604    605  1    192
   602    601    606  1    192
   602    606    607  1    192
   603    602    607  1    192
   603    607    608  1    192
   604    603    608  1    192
   605    604    608  1    192
   605    608    609  1    192
   607    606    610  1    192
   607    610    608  1    192
   608    610      2  1    192
   608      2    232  1    192
   608    232    609  1    192
   609    232    235  1    192
   609    235    605  1    192
   605    235     41  1    192
   605     41    283  1    192
   605    283    600  1    192
   600    283     38  1    192
   600     38    599  1    192
   599     38     35  1    192
   599     35    271  1    192
   599    271    598  1    192
   598    271     32  1    192
   598     32    597  1    192
   597     32     29  1    192
   597     29    262  1    192
   597    262    601  1    192
   601    262    606  1    192
   606    262     27  1    192
   606     27    610  1    192
   610     27    260  1    192
   610    260      2  1    192
    41    235      4  1    192
    41      4     44  1    192
     7     45      6  1    193
    10     56      9  1    194
     9     56     43  1    194
    43     56     42  1    194
    42     56    299  1    194
    42    299     47  1    194
    47    299     50  1    194
    50    299    297  1    194
    50    297     53  1    194
    13     62    612  1    195
    13    612    246  1    195
   246    612    613  1    195
   246    613    301  1    195
   246    301     57  1    195
   246     57     12  1    195
   301    613    303  1    195
   303    613    305  1    195
   305    613    611  1    195
   305    611    307  1    195
   307    611     59  1    195
    59    611     62  1    195
    62    611    612  1    195
   612    611    613  1    195
    16     74     71  1    196
    16     71     68  1    196
    16     68     65  1    196
    16     65     63  1    196
    16     63     15  1    196
   323     77     75  1    197
   323     75    252  1    197
   323    252     19  1    197
   252     75     18  1    197
   614    619    620  1    198
   615    614    620  1    198
   615    620    621  1    198
   616    615    621  1    198
   616    621    622  1    198
   617    616    622  1    198
   618    617    622  1    198
   618    622    623  1    198
   620    619    624  1    198
   621    620    624  1    198
   621    624    625  1    198
   622    621    625  1    198
   623    622    625  1    198
   623    625    258  1    198
   623    258     25  1    198
   623     25    264  1    198
   623    264    618  1    198
   618    264     83  1    198
   618     83    617  1    198
   617     83    336  1    198
   617    336    616  1    198
   616    336     80  1    198
   616     80    615  1    198
   615     80    614  1    198
   614     80    327  1    198
   614    327    324  1    198
   614    324    619  1    198
   619    324     21  1    198
   619     21    624  1    198
   624     21     22  1    198
   624     22    625  1    198
   625     22    258  1    198
   324    327     78  1    198
    83    264     86  1    198
    86    264     28  1    198
    86     28     89  1    198
   259     26    257  1    199
   259    257    256  1    199
   259    256      3  1    199
   256    257     24  1    199
    31     95     92  1    200
    31     92     30  1    200
    30     92     90  1    200
    34    110    374  1    201
    34    374    275  1    201
   275    374    372  1    201
   275    372    370  1    201
   275    370     33  1    201
    33    370     98  1    201
    33     98     96  1    201
   374    110    101  1    201
   101    110    107  1    201
   101    107    104  1    201
    37    111     36  1    202
    40     46    381  1    203
    40    381    286  1    203
   286    381    108  1    203
   286    108     39  1    203
    39    108    109  1    203
   387    119    116  1    204
   387    116    626  1    204
   387    626    627  1    204
   387    627    389  1    204
   389    627     48  1    204
   389     48     49  1    204
    48    627    383  1    204
   383    627    628  1    204
   383    628    106  1    204
   106    628    105  1    204
   105    628    113  1    204
   113    628    385  1    204
   385    628    626  1    204
   385    626    116  1    204
   626    628    627  1    204
   629    630    631  1    205
   629    631    632  1    205
   630    633    634  1    205
   631    630    634  1    205
   631    634    635  1    205
   632    631    635  1    205
   632    635    636  1    205
   634    633    637  1    205
   634    637    638  1    205
   635    634    638  1    205
   638    637    639  1    205
   638    639     52  1    205
   638     52    128  1    205
   638    128    636  1    205
   638    636    635  1    205
   636    128    400  1    205
   636    400    632  1    205
   632    400    125  1    205
   632    125    397  1    205
   632    397    629  1    205
   629    397    395  1    205
   629    395    393  1    205
   629    393    630  1    205
   630    393    122  1    205
   630    122    633  1    205
   633    122    120  1    205
   633    120    388  1    205
   633    388    637  1    205
   637    388    390  1    205
   637    390    639  1    205
   639    390     51  1    205
   639     51     52  1    205
   640    642    643  1    206
   640    643    308  1    206
   640    308    131  1    206
   640    131    129  1    206
   640    129    642  1    206
   642    129    641  1    206
   642    641    644  1    206
   642    644    304  1    206
   642    304    643  1    206
   643    304    306  1    206
   643    306    308  1    206
   304    644    302  1    206
   302    644    300  1    206
   302    300     55  1    206
   300    644    298  1    206
   298    644    641  1    206
   298    641     54  1    206
    54    641    129  1    206
   131    308    134  1    206
   134    308    137  1    206
   137    308     58  1    206
    61     64    645  1    207
    61    645     60  1    207
    60    645    138  1    207
   138    645    414  1    207
   414    645    140  1    207
   140    645    143  1    207
   143    645     64  1    207
    67    144     66  1    208
   646    647    648  1    209
   648    647    650  1    209
   648    650    651  1    209
   649    648    651  1    209
   649    651    652  1    209
   649    652    448  1    209
   649    448    441  1    209
   649    441    648  1    209
   648    441    438  1    209
   648    438    646  1    209
   646    438    416  1    209
   646    416    141  1    209
   646    141    647  1    209
   647    141    142  1    209
   647    142    650  1    209
   650    142    452  1    209
   650    452    651  1    209
   651    452    652  1    209
   652    452    164  1    209
   652    164    448  1    209
   452    142     69  1    209
   452     69     70  1    209
   416    438    418  1    209
   418    438    435  1    209
   418    435    146  1    209
   146    435    432  1    209
   146    432    420  1    209
   420    432    427  1    209
   420    427    149  1    209
   149    427    152  1    209
   427    432    155  1    209
   441    448    161  1    209
   441    161    158  1    209
    73     76     72  1    210
   330     79    165  1    210
   330    165    453  1    210
   330    453     76  1    210
    76    453     72  1    210
   653    656    657  1    211
   654    653    657  1    211
   654    657    658  1    211
   655    654    658  1    211
   655    658    659  1    211
   656    660    661  1    211
   657    656    661  1    211
   657    661    662  1    211
   658    657    662  1    211
   658    662    663  1    211
   659    658    663  1    211
   661    660    664  1    211
   662    661    664  1    211
   662    664    665  1    211
   663    662    665  1    211
   663    665    666  1    211
   663    666    170  1    211
   663    170    167  1    211
   663    167    659  1    211
   659    167    462  1    211
   659    462    655  1    211
   655    462    460  1    211
   655    460    458  1    211
   655    458    654  1    211
   654    458    456  1    211
   654    456    653  1    211
   653    456    162  1    211
   653    162    450  1    211
   653    450    656  1    211
   656    450    163  1    211
   656    163    660  1    211
   660    163     81  1    211
   660     81    664  1    211
   664     81    340  1    211
   664    340    665  1    211
   665    340    666  1    211
   666    340     82  1    211
   666     82    170  1    211
    85    173    466  1    212
    85    466     84  1    212
    84    466    171  1    212
    88     91    174  1    213
    88    174     87  1    213
   668    670    671  1    214
   669    668    671  1    214
   669    671    672  1    214
   670    673    674  1    214
   671    670    674  1    214
   671    674    675  1    214
   672    671    675  1    214
   674    673    676  1    214
   674    676    677  1    214
   675    674    677  1    214
   675    677    678  1    214
   678    677    680  1    214
   678    680    681  1    214
   679    678    681  1    214
   679    681     97  1    214
   679     97    182  1    214
   679    182    678  1    214
   678    182    675  1    214
   675    182    484  1    214
   675    484    672  1    214
   672    484    669  1    214
   669    484    179  1    214
   669    179    667  1    214
   669    667    668  1    214
   668    667    474  1    214
   668    474    472  1    214
   668    472    670  1    214
   670    472    470  1    214
   670    470    673  1    214
   673    470    168  1    214
   673    168    676  1    214
   676    168    169  1    214
   676    169    680  1    214
   676    680    677  1    214
   680    169    467  1    214
   680    467    681  1    214
   681    467    172  1    214
   681    172     97  1    214
    97    172     93  1    214
    97     93     94  1    214
   474    667    476  1    214
   476    667    176  1    214
   176    667    179  1    214
   682    684    685  1    215
   683    682    685  1    215
   683    685    686  1    215
   690    689    692  1    215
   691    690    692  1    215
   691    692    373  1    215
   691    373    375  1    215
   691    375    520  1    215
   691    520    518  1    215
   691    518    516  1    215
   691    516    690  1    215
   690    516    688  1    215
   690    688    689  1    215
   689    688    183  1    215
   689    183     99  1    215
   689     99    371  1    215
   689    371    692  1    215
   692    371    373  1    215
   183    688    687  1    215
   183    687    494  1    215
   494    687    194  1    215
   494    194    512  1    215
   494    512    191  1    215
   494    191    686  1    215
   494    686    178  1    215
   178    686    685  1    215
   178    685    177  1    215
   177    685    684  1    215
   177    684    185  1    215
   185    684    500  1    215
   500    684    682  1    215
   500    682    502  1    215
   502    682    504  1    215
   502    504    188  1    215
   504    682    506  1    215
   506    682    683  1    215
   506    683    508  1    215
   508    683    686  1    215
   508    686    510  1    215
   510    686    191  1    215
   194    687    514  1    215
   514    687    688  1    215
   514    688    516  1    215
   520    375    100  1    215
   693    695    696  1    216
   694    693    696  1    216
   694    696    112  1    216
   694    112    530  1    216
   694    530    200  1    216
   694    200    528  1    216
   694    528    526  1    216
   694    526    693  1    216
   693    526    524  1    216
   693    524    695  1    216
   695    524    517  1    216
   695    517    519  1    216
   695    519    696  1    216
   696    519    521  1    216
   696    521    112  1    216
   112    521    102  1    216
   112    102    103  1    216
   517    524    522  1    216
   517    522    515  1    216
   515    522    195  1    216
   528    200    197  1    216
   115    201    531  1    217
   115    531    386  1    217
   386    531    114  1    217
   697    698    699  1    218
   699    698    700  1    218
   699    700    118  1    218
   699    118    121  1    218
   699    121    697  1    218
   697    121    209  1    218
   697    209    206  1    218
   697    206    203  1    218
   697    203    698  1    218
   698    203    533  1    218
   698    533    198  1    218
   698    198    700  1    218
   700    198    199  1    218
   700    199    117  1    218
   700    117    118  1    218
   702    701    704  1    219
   702    704    705  1    219
   702    705    215  1    219
   702    215    212  1    219
   702    212    537  1    219
   702    537    701  1    219
   701    537    703  1    219
   701    703    396  1    219
   701    396    398  1    219
   701    398    704  1    219
   704    398    221  1    219
   704    221    539  1    219
   704    539    705  1    219
   705    539    218  1    219
   705    218    215  1    219
   221    398    124  1    219
   396    703    394  1    219
   394    703    210  1    219
   394    210    123  1    219
   210    703    537  1    219
   127    130    706  1    220
   127    706    402  1    220
   402    706    126  1    220
   126    706    543  1    220
   126    543    222  1    220
   543    706    130  1    220
   549    227    709  1    221
   549    709    133  1    221
   133    709    132  1    221
   132    709    544  1    221
   544    709    227  1    221
   544    227    547  1    221
   544    547    707  1    221
   544    707    220  1    221
   220    707    540  1    221
   540    707    708  1    221
   540    708    219  1    221
   219    708    224  1    221
   224    708    545  1    221
   545    708    547  1    221
   547    708    707  1    221
   415    139    417  1    222
   415    417    711  1    222
   415    711    710  1    222
   415    710    550  1    222
   415    550    135  1    222
   415    135    136  1    222
   550    710    228  1    222
   228    710    551  1    222
   551    710    711  1    222
   551    711    419  1    222
   551    419    145  1    222
   419    711    417  1    222
   148    225    421  1    223
   421    225    712  1    223
   421    712    147  1    223
   147    712    552  1    223
   552    712    548  1    223
   552    548    226  1    223
   548    712    546  1    223
   546    712    225  1    223
   151    186    501  1    224
   151    501    713  1    224
   151    713    150  1    224
   150    713    223  1    224
   223    713    217  1    224
   217    713    503  1    224
   217    503    187  1    224
   217    187    216  1    224
   503    713    501  1    224
   714    715    716  1    225
   715    717    718  1    225
   716    715    718  1    225
   716    718    719  1    225
   718    720    721  1    225
   719    718    721  1    225
   719    721    475  1    225
   719    475    477  1    225
   719    477    716  1    225
   716    477    714  1    225
   714    477    184  1    225
   714    184    153  1    225
   714    153    429  1    225
   714    429    715  1    225
   715    429    154  1    225
   715    154    717  1    225
   717    154    159  1    225
   717    159    457  1    225
   717    457    720  1    225
   717    720    718  1    225
   720    457    459  1    225
   720    459    461  1    225
   720    461    721  1    225
   721    461    473  1    225
   721    473    475  1    225
   473    461    471  1    225
   471    461    463  1    225
   471    463    166  1    225
   457    159    160  1    225
   184    477    175  1    225
   722    723    724  1    226
   722    724    157  1    226
   722    157    156  1    226
   722    156    434  1    226
   722    434    437  1    226
   722    437    723  1    226
   723    437    440  1    226
   723    440    443  1    226
   723    443    724  1    226
   724    443    157  1    226
   495    180    487  1    227
   495    487    181  1    227
   725    726    727  1    228
   725    727    559  1    228
   725    559    557  1    228
   725    557    205  1    228
   725    205    555  1    228
   725    555    726  1    228
   726    555    213  1    228
   726    213    189  1    228
   726    189    505  1    228
   726    505    507  1    228
   726    507    727  1    228
   727    507    728  1    228
   727    728    561  1    228
   727    561    559  1    228
   561    728    563  1    228
   563    728    509  1    228
   563    509    511  1    228
   563    511    190  1    228
   509    728    507  1    228
   189    213    214  1    228
   205    557    204  1    228
   729    732    733  1    229
   730    729    733  1    229
   730    733    734  1    229
   732    731    735  1    229
   732    735    736  1    229
   733    732    736  1    229
   733    736    737  1    229
   734    733    737  1    229
   734    737    738  1    229
   735    739    740  1    229
   736    735    740  1    229
   736    740    741  1    229
   737    736    741  1    229
   737    741    742  1    229
   738    737    742  1    229
   741    740    743  1    229
   741    743    527  1    229
   741    527    742  1    229
   742    527    529  1    229
   742    529    196  1    229
   742    196    738  1    229
   738    196    535  1    229
   738    535    734  1    229
   734    535    202  1    229
   734    202    730  1    229
   730    202    558  1    229
   730    558    560  1    229
   730    560    729  1    229
   729    560    562  1    229
   729    562    731  1    229
   729    731    732  1    229
   731    562    564  1    229
   731    564    192  1    229
   731    192    735  1    229
   735    192    513  1    229
   735    513    739  1    229
   739    513    193  1    229
   739    193    523  1    229
   739    523    740  1    229
   740    523    743  1    229
   743    523    525  1    229
   743    525    527  1    229
   538    211    556  1    230
   538    556    208  1    230
   208    556    207  1    230
