# MSMS solvent excluded surface faces for fragments/fragment174.xyzr
#faces  #sphere density probe_r
   1938      43  3.00  1.50
     1      5      2  3      3
     2      5      4  3      3
     5    292    291  3      5
   291    292    293  3      5
   291    293      6  3      5
     6    293    294  3      5
   292    295    293  3      5
   293    295    296  3      5
   293    296    294  3      5
   294    296    297  3      5
   295      8    296  3      5
   296      8    298  3      5
   296    298    297  3      5
   297    298      7  3      5
     8     11    299  3      7
   299     11    300  3      7
   299    300      9  3      7
     9    300     10  3      7
    11    301     12  3      9
    12    301    302  3      9
   301     14    302  3      9
   302     14     13  3      9
    14    303     15  3     10
    15    303    304  3     10
   303    305    304  3     10
   304    305    306  3     10
   305    307    306  3     10
   306    307    308  3     10
   307    309    308  3     10
   308    309    310  3     10
   309      1    310  3     10
   310      1      3  3     10
    15     17     13  3     12
    13     17     16  3     12
    17    312    311  3     14
   311    312    313  3     14
   311    313     18  3     14
    18    313    314  3     14
   312     20    313  3     14
   313     20    315  3     14
   313    315    314  3     14
   314    315     19  3     14
    20     23    316  3     16
   316     23    318  3     16
   316    318    317  3     16
   317    318    319  3     16
   317    319     21  3     16
    21    319     22  3     16
    23    322    320  3     18
   320    322    323  3     18
   320    323    321  3     18
   321    323    324  3     18
   321    324     24  3     18
    24    324    325  3     18
   322     26    323  3     18
   323     26    326  3     18
   323    326    324  3     18
   324    326    327  3     18
   324    327    325  3     18
   325    327     25  3     18
    26      3    328  3     19
   328      3    329  3     19
   328    329     27  3     19
    27    329      2  3     19
    27     29     25  3     21
    25     29     28  3     21
    29     32    330  3     23
   330     32    331  3     23
   330    331     30  3     23
    30    331     31  3     23
    32     35     33  3     25
    33     35     34  3     25
    35      4    332  3     26
   332      4    333  3     26
   332    333     36  3     26
    36    333      6  3     26
    36    335    334  3     28
   334    335    336  3     28
   334    336     34  3     28
    34    336    337  3     28
   335     38    336  3     28
   336     38    338  3     28
   336    338    337  3     28
   337    338     37  3     28
    38    339     39  3     30
    39    339    340  3     30
   339    341    340  3     30
   340    341    342  3     30
   341    343    342  3     30
   342    343    344  3     30
   343     41    344  3     30
   344     41     40  3     30
    41      7     42  3     31
    42      7      9  3     31
    42    345     40  3     33
    40    345    346  3     33
   345    347    346  3     33
   346    347    348  3     33
   347    349    348  3     33
   348    349    350  3     33
   349     44    350  3     33
   350     44     43  3     33
    44     47     45  3     35
    45     47     46  3     35
    47     50    351  3     37
   351     50    352  3     37
   351    352     48  3     37
    48    352     49  3     37
    50     53    353  3     39
   353     53    355  3     39
   353    355    354  3     39
   354    355    356  3     39
   354    356     51  3     39
    51    356     52  3     39
    53    357     54  3     41
    54    357    358  3     41
   357    359    358  3     41
   358    359    360  3     41
   359     56    360  3     41
   360     56     55  3     41
    56     59    361  3     43
   361     59    363  3     43
   361    363    362  3     43
   362    363    364  3     43
   362    364     57  3     43
    57    364     58  3     43
    59    365     60  3     44
    60    365    366  3     44
   365     10    366  3     44
   366     10     12  3     44
    60     62    367  3     46
   367     62    370  3     46
   367    370    368  3     46
   368    370    371  3     46
   368    371    369  3     46
   369    371    372  3     46
   369    372     58  3     46
    58    372     61  3     46
    62     65     63  3     48
    63     65     64  3     48
    65     16    373  3     49
   373     16    374  3     49
   373    374     66  3     49
    66    374     18  3     49
    66     68    375  3     51
   375     68    376  3     51
   375    376     64  3     51
    64    376     67  3     51
    68    377     69  3     53
    69    377    378  3     53
   377     71    378  3     53
   378     71     70  3     53
    71    381    379  3     55
   379    381    382  3     55
   379    382    380  3     55
   380    382    383  3     55
   380    383     72  3     55
    72    383    384  3     55
   381     74    382  3     55
   382     74    385  3     55
   382    385    383  3     55
   383    385    386  3     55
   383    386    384  3     55
   384    386     73  3     55
    74     77    387  3     57
   387     77    388  3     57
   387    388     75  3     57
    75    388     76  3     57
    77     80     78  3     59
    78     80     79  3     59
    80     83     81  3     61
    81     83     82  3     61
    83    389     84  3     63
    84    389    390  3     63
   389    391    390  3     63
   390    391    392  3     63
   391    393    392  3     63
   392    393    394  3     63
   393    395    394  3     63
   394    395    396  3     63
   395    397    396  3     63
   396    397    398  3     63
   397    399    398  3     63
   398    399    400  3     63
   399    401    400  3     63
   400    401    402  3     63
   401     86    402  3     63
   402     86     85  3     63
    86     19     87  3     64
    87     19     21  3     64
    87    403     85  3     66
    85    403    404  3     66
   403     89    404  3     66
   404     89     88  3     66
    89     92     90  3     68
    90     92     91  3     68
    92    405     93  3     70
    93    405    406  3     70
   405    407    406  3     70
   406    407    408  3     70
   407     95    408  3     70
   408     95     94  3     70
    95     98    409  3     72
   409     98    410  3     72
   409    410     96  3     72
    96    410     97  3     72
    98     22     99  3     73
    99     22     24  3     73
    99    101     97  3     75
    97    101    100  3     75
   101     28    102  3     76
   102     28     30  3     76
   102    411    100  3     78
   100    411    412  3     78
   411    413    412  3     78
   412    413    414  3     78
   413    415    414  3     78
   414    415    416  3     78
   415    417    416  3     78
   416    417    418  3     78
   417    419    418  3     78
   418    419    420  3     78
   419    421    420  3     78
   420    421    422  3     78
   421    423    422  3     78
   422    423    424  3     78
   423    104    424  3     78
   424    104    103  3     78
   104    107    105  3     80
   105    107    106  3     80
   107    426    425  3     82
   425    426    427  3     82
   425    427    108  3     82
   108    427    428  3     82
   426    110    427  3     82
   427    110    429  3     82
   427    429    428  3     82
   428    429    109  3     82
   110    431    430  3     83
   430    431    432  3     83
   430    432    111  3     83
   111    432    433  3     83
   431     31    432  3     83
   432     31    434  3     83
   432    434    433  3     83
   433    434     33  3     83
   111    113    109  3     85
   109    113    112  3     85
   113     37    435  3     86
   435     37    436  3     86
   435    436    114  3     86
   114    436     39  3     86
   114    116    437  3     88
   437    116    438  3     88
   437    438    112  3     88
   112    438    115  3     88
   116    119    117  3     90
   117    119    118  3     90
   119    122    439  3     92
   439    122    440  3     92
   439    440    120  3     92
   120    440    121  3     92
   122     43    123  3     93
   123     43     45  3     93
   123    125    121  3     95
   121    125    124  3     95
   125     46    126  3     96
   126     46     48  3     96
   126    128    441  3     98
   441    128    442  3     98
   441    442    124  3     98
   124    442    127  3     98
   128    131    129  3    100
   129    131    130  3    100
   131    443    132  3    102
   132    443    444  3    102
   443    134    444  3    102
   444    134    133  3    102
   134    137    445  3    104
   445    137    446  3    104
   445    446    135  3    104
   135    446    136  3    104
   137    140    138  3    106
   138    140    139  3    106
   140    448    447  3    108
   447    448    449  3    108
   447    449    141  3    108
   141    449    450  3    108
   448    451    449  3    108
   449    451    452  3    108
   449    452    450  3    108
   450    452    453  3    108
   451    143    452  3    108
   452    143    454  3    108
   452    454    453  3    108
   453    454    142  3    108
   143     49    144  3    109
   144     49     51  3    109
   144    455    142  3    111
   142    455    456  3    111
   455    146    456  3    111
   456    146    145  3    111
   146    149    147  3    113
   147    149    148  3    113
   149     52    457  3    114
   457     52    459  3    114
   457    459    458  3    114
   458    459    460  3    114
   458    460    150  3    114
   150    460     54  3    114
   150     55    461  3    115
   461     55    463  3    115
   461    463    462  3    115
   462    463    464  3    115
   462    464    148  3    115
   148    464     57  3    115
   147    152    465  3    117
   465    152    466  3    117
   465    466    145  3    117
   145    466    151  3    117
   152    155    153  3    119
   153    155    154  3    119
   155    158    467  3    121
   467    158    471  3    121
   467    471    468  3    121
   468    471    472  3    121
   468    472    469  3    121
   469    472    473  3    121
   469    473    470  3    121
   470    473    474  3    121
   470    474    156  3    121
   156    474    157  3    121
   158    476    475  3    123
   475    476    477  3    123
   475    477    159  3    123
   159    477    478  3    123
   476    479    477  3    123
   477    479    480  3    123
   477    480    478  3    123
   478    480    481  3    123
   479    482    480  3    123
   480    482    483  3    123
   480    483    481  3    123
   481    483    484  3    123
   482    161    483  3    123
   483    161    485  3    123
   483    485    484  3    123
   484    485    160  3    123
   161    164    486  3    125
   486    164    487  3    125
   486    487    162  3    125
   162    487    163  3    125
   164     61    488  3    126
   488     61    491  3    126
   488    491    489  3    126
   489    491    492  3    126
   489    492    490  3    126
   490    492    493  3    126
   490    493    165  3    126
   165    493     63  3    126
   165    167    494  3    128
   494    167    495  3    128
   494    495    163  3    128
   163    495    166  3    128
   167     67    496  3    129
   496     67    497  3    129
   496    497    168  3    129
   168    497     69  3    129
   168    170    498  3    131
   498    170    500  3    131
   498    500    499  3    131
   499    500    501  3    131
   499    501    166  3    131
   166    501    169  3    131
   170     70    502  3    132
   502     70    504  3    132
   502    504    503  3    132
   503    504    505  3    132
   503    505    171  3    132
   171    505     72  3    132
   171    173    169  3    134
   169    173    172  3    134
   173    176    506  3    136
   506    176    508  3    136
   506    508    507  3    136
   507    508    509  3    136
   507    509    174  3    136
   174    509    175  3    136
   176    179    510  3    138
   510    179    512  3    138
   510    512    511  3    138
   511    512    513  3    138
   511    513    177  3    138
   177    513    178  3    138
   179    182    514  3    140
   514    182    517  3    140
   514    517    515  3    140
   515    517    518  3    140
   515    518    516  3    140
   516    518    519  3    140
   516    519    180  3    140
   180    519    181  3    140
   182    185    520  3    142
   520    185    521  3    142
   520    521    183  3    142
   183    521    184  3    142
   185    523    522  3    144
   522    523    524  3    144
   522    524    186  3    144
   186    524    525  3    144
   523    526    524  3    144
   524    526    527  3    144
   524    527    525  3    144
   525    527    528  3    144
   526    529    527  3    144
   527    529    530  3    144
   527    530    528  3    144
   528    530    531  3    144
   529    532    530  3    144
   530    532    533  3    144
   530    533    531  3    144
   531    533    534  3    144
   532    188    533  3    144
   533    188    535  3    144
   533    535    534  3    144
   534    535    187  3    144
   188    133    536  3    145
   536    133    537  3    145
   536    537    189  3    145
   189    537    135  3    145
   189    184    538  3    146
   538    184    539  3    146
   538    539    187  3    146
   187    539    186  3    146
   183    541    540  3    148
   540    541    542  3    148
   540    542    181  3    148
   181    542    543  3    148
   541    544    542  3    148
   542    544    545  3    148
   542    545    543  3    148
   543    545    546  3    148
   544    191    545  3    148
   545    191    547  3    148
   545    547    546  3    148
   546    547    190  3    148
   191    194    192  3    150
   192    194    193  3    150
   194    197    548  3    152
   548    197    549  3    152
   548    549    195  3    152
   195    549    196  3    152
   197    200    550  3    154
   550    200    551  3    154
   550    551    198  3    154
   198    551    199  3    154
   200    136    201  3    155
   201    136    138  3    155
   201    139    199  3    156
   199    139    141  3    156
   198    553    552  3    158
   552    553    554  3    158
   552    554    196  3    158
   196    554    555  3    158
   553    556    554  3    158
   554    556    557  3    158
   554    557    555  3    158
   555    557    558  3    158
   556    203    557  3    158
   557    203    559  3    158
   557    559    558  3    158
   558    559    202  3    158
   203    206    560  3    160
   560    206    562  3    160
   560    562    561  3    160
   561    562    563  3    160
   561    563    204  3    160
   204    563    205  3    160
   206    209    564  3    162
   564    209    567  3    162
   564    567    565  3    162
   565    567    568  3    162
   565    568    566  3    162
   566    568    569  3    162
   566    569    207  3    162
   207    569    208  3    162
   209    151    210  3    163
   210    151    153  3    163
   210    154    570  3    164
   570    154    573  3    164
   570    573    571  3    164
   571    573    574  3    164
   571    574    572  3    164
   572    574    575  3    164
   572    575    208  3    164
   208    575    156  3    164
   207    576    205  3    166
   205    576    577  3    166
   576    212    577  3    166
   577    212    211  3    166
   212    579    578  3    168
   578    579    580  3    168
   578    580    213  3    168
   213    580    581  3    168
   579    215    580  3    168
   580    215    582  3    168
   580    582    581  3    168
   581    582    214  3    168
   215    583    216  3    170
   216    583    584  3    170
   583    218    584  3    170
   584    218    217  3    170
   218    586    585  3    172
   585    586    587  3    172
   585    587    219  3    172
   219    587    588  3    172
   586    221    587  3    172
   587    221    589  3    172
   587    589    588  3    172
   588    589    220  3    172
   221    592    590  3    173
   590    592    593  3    173
   590    593    591  3    173
   591    593    594  3    173
   591    594    222  3    173
   222    594    595  3    173
   592    157    593  3    173
   593    157    596  3    173
   593    596    594  3    173
   594    596    597  3    173
   594    597    595  3    173
   595    597    159  3    173
   222    224    598  3    175
   598    224    600  3    175
   598    600    599  3    175
   599    600    601  3    175
   599    601    220  3    175
   220    601    223  3    175
   224    602    225  3    176
   225    602    603  3    176
   602    604    603  3    176
   603    604    605  3    176
   604    175    605  3    176
   605    175    177  3    176
   225    227    606  3    178
   606    227    607  3    178
   606    607    223  3    178
   223    607    226  3    178
   227    608    228  3    179
   228    608    609  3    179
   608    610    609  3    179
   609    610    611  3    179
   610    178    611  3    179
   611    178    180  3    179
   228    613    612  3    181
   612    613    614  3    181
   612    614    226  3    181
   226    614    615  3    181
   613    616    614  3    181
   614    616    617  3    181
   614    617    615  3    181
   615    617    618  3    181
   616    619    617  3    181
   617    619    620  3    181
   617    620    618  3    181
   618    620    621  3    181
   619    230    620  3    181
   620    230    622  3    181
   620    622    621  3    181
   621    622    229  3    181
   230    233    623  3    183
   623    233    626  3    183
   623    626    624  3    183
   624    626    627  3    183
   624    627    625  3    183
   625    627    628  3    183
   625    628    231  3    183
   231    628    232  3    183
   233    236    629  3    185
   629    236    630  3    185
   629    630    234  3    185
   234    630    235  3    185
   236    190    237  3    186
   237    190    192  3    186
   237    193    235  3    187
   235    193    195  3    187
   234    632    631  3    189
   631    632    633  3    189
   631    633    232  3    189
   232    633    634  3    189
   632    635    633  3    189
   633    635    636  3    189
   633    636    634  3    189
   634    636    637  3    189
   635    239    636  3    189
   636    239    638  3    189
   636    638    637  3    189
   637    638    238  3    189
   239    202    240  3    190
   240    202    204  3    190
   240    639    238  3    191
   238    639    640  3    191
   639    211    640  3    191
   640    211    213  3    191
   231    642    641  3    193
   641    642    643  3    193
   641    643    229  3    193
   229    643    644  3    193
   642    645    643  3    193
   643    645    646  3    193
   643    646    644  3    193
   644    646    647  3    193
   645    242    646  3    193
   646    242    648  3    193
   646    648    647  3    193
   647    648    241  3    193
   242    214    243  3    194
   243    214    216  3    194
   243    217    241  3    195
   241    217    219  3    195
   174    160    649  3    196
   649    160    651  3    196
   649    651    650  3    196
   650    651    652  3    196
   650    652    172  3    196
   172    652    162  3    196
   132    653    130  3    198
   130    653    654  3    198
   653    655    654  3    198
   654    655    656  3    198
   655    657    656  3    198
   656    657    658  3    198
   657    245    658  3    198
   658    245    244  3    198
   245     73    659  3    199
   659     73    660  3    199
   659    660    246  3    199
   246    660     75  3    199
   246    661    244  3    201
   244    661    662  3    201
   661    248    662  3    201
   662    248    247  3    201
   248    251    249  3    203
   249    251    250  3    203
   251     76    663  3    204
   663     76    664  3    204
   663    664    252  3    204
   252    664     78  3    204
   252    106    250  3    205
   250    106    108  3    205
   249    665    247  3    206
   247    665    666  3    206
   665    115    666  3    206
   666    115    117  3    206
   129    667    127  3    207
   127    667    668  3    207
   667    669    668  3    207
   668    669    670  3    207
   669    118    670  3    207
   670    118    120  3    207
   105    254    103  3    209
   103    254    253  3    209
   254    671    255  3    210
   255    671    672  3    210
   671     79    672  3    210
   672     79     81  3    210
   255    257    673  3    212
   673    257    674  3    212
   673    674    253  3    212
   253    674    256  3    212
   257    675    258  3    214
   258    675    676  3    214
   675    677    676  3    214
   676    677    678  3    214
   677    260    678  3    214
   678    260    259  3    214
   260    263    261  3    216
   261    263    262  3    216
   263    679    264  3    217
   264    679    680  3    217
   679     82    680  3    217
   680     82     84  3    217
   264    266    681  3    219
   681    266    682  3    219
   681    682    262  3    219
   262    682    265  3    219
   266    684    683  3    221
   683    684    685  3    221
   683    685    267  3    221
   267    685    686  3    221
   684    687    685  3    221
   685    687    688  3    221
   685    688    686  3    221
   686    688    689  3    221
   687    690    688  3    221
   688    690    691  3    221
   688    691    689  3    221
   689    691    692  3    221
   690    269    691  3    221
   691    269    693  3    221
   691    693    692  3    221
   692    693    268  3    221
   269     88    694  3    222
   694     88    695  3    222
   694    695    270  3    222
   270    695     90  3    222
   270    696    268  3    223
   268    696    697  3    223
   696    698    697  3    223
   697    698    699  3    223
   698    700    699  3    223
   699    700    701  3    223
   700    702    701  3    223
   701    702    703  3    223
   702    704    703  3    223
   703    704    705  3    223
   704    265    705  3    223
   705    265    267  3    223
   261    706    259  3    225
   259    706    707  3    225
   706    708    707  3    225
   707    708    709  3    225
   708    710    709  3    225
   709    710    711  3    225
   710    272    711  3    225
   711    272    271  3    225
   272    712    273  3    227
   273    712    713  3    227
   712    714    713  3    227
   713    714    715  3    227
   714    716    715  3    227
   715    716    717  3    227
   716    718    717  3    227
   717    718    719  3    227
   718    720    719  3    227
   719    720    721  3    227
   720    275    721  3    227
   721    275    274  3    227
   275    722    276  3    228
   276    722    723  3    228
   722    724    723  3    228
   723    724    725  3    228
   724    726    725  3    228
   725    726    727  3    228
   726     91    727  3    228
   727     91     93  3    228
   276    278    274  3    230
   274    278    277  3    230
   278    728    279  3    232
   279    728    729  3    232
   728    281    729  3    232
   729    281    280  3    232
   281     94    282  3    233
   282     94     96  3    233
   282    730    280  3    235
   280    730    731  3    235
   730    732    731  3    235
   731    732    733  3    235
   732    734    733  3    235
   733    734    735  3    235
   734    736    735  3    235
   735    736    737  3    235
   736    738    737  3    235
   737    738    739  3    235
   738    740    739  3    235
   739    740    741  3    235
   740    742    741  3    235
   741    742    743  3    235
   742    284    743  3    235
   743    284    283  3    235
   284    256    285  3    236
   285    256    258  3    236
   285    744    283  3    238
   283    744    745  3    238
   744    287    745  3    238
   745    287    286  3    238
   287    271    288  3    239
   288    271    273  3    239
   288    747    746  3    240
   746    747    748  3    240
   746    748    286  3    240
   286    748    749  3    240
   747    750    748  3    240
   748    750    751  3    240
   748    751    749  3    240
   749    751    752  3    240
   750    277    751  3    240
   751    277    753  3    240
   751    753    752  3    240
   752    753    279  3    240
   289    754    290  3    241
   290    754    755  3    241
   754    756    755  3    241
   755    756    757  3    241
   756    758    757  3    241
   757    758    759  3    241
   758    760    759  3    241
   759    760    761  3    241
   760    762    761  3    241
   761    762    763  3    241
   762    289    763  3    241
   763    289    290  3    241
     3      1    329  2      1
   329      1      2  2      1
   333      4      5  2      2
   333      5    291  2      2
   333    291      6  2      2
     9      7    298  2      4
     9    298    299  2      4
   299    298      8  2      4
    12     10    300  2      6
    12    300     11  2      6
    15     13     14  2      8
   374     16    311  2     11
   374    311     18  2     11
   311     16     17  2     11
    21     19    317  2     13
   317     19    315  2     13
   317    315    316  2     13
   316    315     20  2     13
    24     22    319  2     15
    24    319    321  2     15
   321    319    318  2     15
   321    318    320  2     15
   320    318     23  2     15
    27     25    327  2     17
    27    327    328  2     17
   328    327    326  2     17
   328    326     26  2     17
    30     28    330  2     20
   330     28     29  2     20
   434     31    331  2     22
   434    331     33  2     22
    33    331     32  2     22
   334     34     35  2     24
   334     35    332  2     24
   334    332     36  2     24
   436     37    338  2     27
   436    338     38  2     27
   436     38     39  2     27
    42     40     41  2     29
    45     43     44  2     32
    48     46    351  2     34
   351     46     47  2     34
    51     49    354  2     36
   354     49    352  2     36
   354    352    353  2     36
   353    352     50  2     36
   459     52    356  2     38
   459    356    460  2     38
   460    356    355  2     38
   460    355     54  2     38
    54    355     53  2     38
   463     55    361  2     40
   463    361    362  2     40
   463    362    464  2     40
   464    362     57  2     40
   361     55     56  2     40
   369     58    364  2     42
   369    364    368  2     42
   368    364    363  2     42
   368    363    367  2     42
   367    363     59  2     42
   367     59     60  2     42
   491     61    372  2     45
   491    372    371  2     45
   491    371    492  2     45
   492    371    370  2     45
   492    370    493  2     45
   493    370     62  2     45
   493     62     63  2     45
   375     64    373  2     47
   375    373     66  2     47
   373     64     65  2     47
   497     67    376  2     50
   497    376     69  2     50
    69    376     68  2     50
   504     70     71  2     52
   504     71    379  2     52
   504    379    505  2     52
   505    379    380  2     52
   505    380     72  2     52
   660     73    386  2     54
   660    386     75  2     54
    75    386    387  2     54
   387    386    385  2     54
   387    385     74  2     54
   664     76    388  2     56
   664    388     77  2     56
   664     77     78  2     56
    81     79     80  2     58
    84     82     83  2     60
    87     85     86  2     62
   695     88     89  2     65
   695     89     90  2     65
    93     91     92  2     67
    96     94    409  2     69
   409     94     95  2     69
    99     97    410  2     71
    99    410     98  2     71
   102    100    101  2     74
   105    103    104  2     77
   108    106    425  2     79
   425    106    107  2     79
   111    109    429  2     81
   111    429    430  2     81
   430    429    110  2     81
   437    112    435  2     84
   437    435    114  2     84
   435    112    113  2     84
   117    115    438  2     87
   117    438    116  2     87
   120    118    439  2     89
   439    118    119  2     89
   123    121    440  2     91
   123    440    122  2     91
   441    124    125  2     94
   441    125    126  2     94
   129    127    442  2     97
   129    442    128  2     97
   132    130    131  2     99
   537    133    134  2    101
   537    134    445  2    101
   537    445    135  2    101
   138    136    446  2    103
   138    446    137  2    103
   141    139    447  2    105
   447    139    140  2    105
   144    142    454  2    107
   144    454    143  2    107
   465    145    146  2    110
   465    146    147  2    110
   462    148    149  2    112
   462    149    457  2    112
   462    457    461  2    112
   461    457    458  2    112
   461    458    150  2    112
   153    151    466  2    116
   153    466    152  2    116
   573    154    764  2    118
   573    764    467  2    118
   573    467    468  2    118
   573    468    574  2    118
   574    468    469  2    118
   574    469    575  2    118
   575    469    470  2    118
   575    470    156  2    118
   467    764    155  2    118
   155    764    154  2    118
   596    157    474  2    120
   596    474    473  2    120
   596    473    597  2    120
   597    473    472  2    120
   597    472    159  2    120
   159    472    475  2    120
   475    472    471  2    120
   475    471    158  2    120
   651    160    485  2    122
   651    485    161  2    122
   651    161    652  2    122
   652    161    486  2    122
   652    486    162  2    122
   494    163    489  2    124
   494    489    490  2    124
   494    490    165  2    124
   489    163    487  2    124
   489    487    488  2    124
   488    487    164  2    124
   499    166    495  2    127
   499    495    498  2    127
   498    495    167  2    127
   498    167    496  2    127
   498    496    168  2    127
   171    169    503  2    130
   503    169    501  2    130
   503    501    502  2    130
   502    501    500  2    130
   502    500    170  2    130
   650    172    173  2    133
   650    173    506  2    133
   650    506    649  2    133
   649    506    507  2    133
   649    507    174  2    133
   177    175    509  2    135
   177    509    511  2    135
   511    509    508  2    135
   511    508    510  2    135
   510    508    176  2    135
   180    178    516  2    137
   516    178    513  2    137
   516    513    515  2    137
   515    513    512  2    137
   515    512    514  2    137
   514    512    179  2    137
   540    181    519  2    139
   540    519    183  2    139
   183    519    518  2    139
   183    518    520  2    139
   520    518    517  2    139
   520    517    182  2    139
   539    184    521  2    141
   539    521    185  2    141
   539    185    522  2    141
   539    522    186  2    141
   538    187    535  2    143
   538    535    188  2    143
   538    188    536  2    143
   538    536    189  2    143
   192    190    547  2    147
   192    547    191  2    147
   195    193    548  2    149
   548    193    194  2    149
   552    196    549  2    151
   552    549    550  2    151
   552    550    198  2    151
   550    549    197  2    151
   201    199    551  2    153
   201    551    200  2    153
   204    202    561  2    157
   561    202    559  2    157
   561    559    560  2    157
   560    559    203  2    157
   207    205    566  2    159
   566    205    563  2    159
   566    563    565  2    159
   565    563    562  2    159
   565    562    564  2    159
   564    562    206  2    159
   572    208    569  2    161
   572    569    571  2    161
   571    569    568  2    161
   571    568    570  2    161
   570    568    567  2    161
   570    567    210  2    161
   210    567    209  2    161
   213    211    578  2    165
   578    211    212  2    165
   216    214    582  2    167
   216    582    215  2    167
   219    217    585  2    169
   585    217    218  2    169
   599    220    589  2    171
   599    589    590  2    171
   599    590    591  2    171
   599    591    598  2    171
   598    591    222  2    171
   590    589    221  2    171
   606    223    601  2    174
   606    601    600  2    174
   606    600    225  2    174
   225    600    224  2    174
   612    226    607  2    177
   612    607    227  2    177
   612    227    228  2    177
   641    229    624  2    180
   641    624    625  2    180
   641    625    231  2    180
   624    229    622  2    180
   624    622    623  2    180
   623    622    230  2    180
   631    232    628  2    182
   631    628    627  2    182
   631    627    234  2    182
   234    627    629  2    182
   629    627    626  2    182
   629    626    233  2    182
   237    235    630  2    184
   237    630    236  2    184
   240    238    638  2    188
   240    638    239  2    188
   243    241    648  2    192
   243    648    242  2    192
   246    244    659  2    197
   659    244    245  2    197
   249    247    248  2    200
   252    250    663  2    202
   663    250    251  2    202
   673    253    254  2    208
   673    254    255  2    208
   258    256    674  2    211
   258    674    257  2    211
   261    259    260  2    213
   681    262    263  2    215
   681    263    264  2    215
   267    265    682  2    218
   267    682    683  2    218
   683    682    266  2    218
   270    268    694  2    220
   694    268    693  2    220
   694    693    269  2    220
   273    271    272  2    224
   276    274    275  2    226
   753    277    278  2    229
   753    278    279  2    229
   282    280    281  2    231
   285    283    284  2    234
   746    286    287  2    237
   746    287    288  2    237
   765    766    767  1    242
   767    766    769  1    242
   767    769    305  1    242
   767    305    303  1    242
   767    303    765  1    242
   765    303    301  1    242
   765    301     11  1    242
   765     11    766  1    242
   766     11      8  1    242
   766      8    295  1    242
   766    295    769  1    242
   769    295    768  1    242
   769    768    307  1    242
   769    307    305  1    242
   307    768    309  1    242
   309    768    292  1    242
   309    292      5  1    242
   309      5      1  1    242
   292    768    295  1    242
   301    303     14  1    242
    29     27     32  1    243
     4     35     32  1    243
     4     32      2  1    243
     2     32     27  1    243
     7     41    297  1    244
   297     41    343  1    244
   297    343    771  1    244
   297    771    294  1    244
   294    771     36  1    244
   294     36      6  1    244
    36    771    770  1    244
    36    770    335  1    244
   335    770    339  1    244
   335    339     38  1    244
   339    770    341  1    244
   341    770    771  1    244
   341    771    343  1    244
   365     59     56  1    245
   365     56    359  1    245
   365    359     10  1    245
    10    359    774  1    245
    10    774      9  1    245
     9    774     42  1    245
    42    774    773  1    245
    42    773    345  1    245
   345    773    357  1    245
   345    357    347  1    245
   347    357    772  1    245
   347    772    349  1    245
   349    772     50  1    245
   349     50     47  1    245
   349     47     44  1    245
    50    772     53  1    245
    53    772    357  1    245
   357    773    774  1    245
   357    774    359  1    245
    13     16     65  1    246
    13     65    775  1    246
    13    775    302  1    246
   302    775    366  1    246
   302    366     12  1    246
   366    775     60  1    246
    60    775     62  1    246
    62    775     65  1    246
   777    776    778  1    247
   777    778    779  1    247
   777    779     23  1    247
   777     23     20  1    247
   777     20    312  1    247
   777    312    776  1    247
   776    312     17  1    247
   776     17     15  1    247
   776     15    304  1    247
   776    304    778  1    247
   778    304    306  1    247
   778    306    308  1    247
   778    308    779  1    247
   779    308    310  1    247
   779    310    322  1    247
   779    322     23  1    247
   322    310     26  1    247
    26    310      3  1    247
    19     86    314  1    248
   314     86    787  1    248
   314    787     18  1    248
    18    787    786  1    248
    18    786     66  1    248
    66    786    785  1    248
    66    785     68  1    248
    68    785    377  1    248
   377    785    784  1    248
   377    784    395  1    248
   377    395    783  1    248
   377    783     71  1    248
    71    783    782  1    248
    71    782    381  1    248
   381    782    781  1    248
   381    781    780  1    248
   381    780     74  1    248
    74    780     80  1    248
    74     80     77  1    248
    80    780     83  1    248
    83    780    389  1    248
   389    780    781  1    248
   389    781    391  1    248
   391    781    782  1    248
   391    782    783  1    248
   391    783    393  1    248
   393    783    395  1    248
   395    784    397  1    248
   397    784    785  1    248
   397    785    399  1    248
   399    785    786  1    248
   399    786    401  1    248
   401    786    787  1    248
   401    787     86  1    248
    98     95     22  1    249
    22     95    407  1    249
    22    407     21  1    249
    21    407     87  1    249
    87    407    405  1    249
    87    405    403  1    249
   403    405     92  1    249
   403     92     89  1    249
    25     28    325  1    250
    28    101    325  1    250
   325    101     99  1    250
   325     99     24  1    250
   431    110    417  1    251
   431    417    415  1    251
   431    415    788  1    251
   431    788     31  1    251
    31    788    413  1    251
    31    413    411  1    251
    31    411     30  1    251
    30    411    102  1    251
   413    788    415  1    251
   417    110    419  1    251
   419    110    426  1    251
   419    426    421  1    251
   421    426    423  1    251
   423    426    107  1    251
   423    107    104  1    251
   337     37    433  1    252
   337    433     33  1    252
   337     33     34  1    252
   433     37    111  1    252
   111     37    113  1    252
   791    790    793  1    253
   791    793    794  1    253
   790    792    793  1    253
   793    792    342  1    253
   793    342    344  1    253
   793    344    794  1    253
   794    344    346  1    253
   794    346    348  1    253
   794    348    791  1    253
   791    348    350  1    253
   791    350     43  1    253
   791     43    790  1    253
   790     43    122  1    253
   790    122    789  1    253
   790    789    792  1    253
   792    789    340  1    253
   792    340    342  1    253
   340    789    114  1    253
   340    114     39  1    253
   114    789    116  1    253
   116    789    119  1    253
   119    789    122  1    253
   346    344     40  1    253
    46    125     45  1    254
    45    125    123  1    254
    49    143     48  1    255
    48    143    451  1    255
    48    451    126  1    255
   126    451    448  1    255
   126    448    128  1    255
   128    448    131  1    255
   131    448    140  1    255
   131    140    443  1    255
   443    140    137  1    255
   443    137    134  1    255
    52    149    455  1    256
    52    455    144  1    256
    52    144     51  1    256
   455    149    146  1    256
    55    150    360  1    257
   360    150    795  1    257
   360    795    358  1    257
   358    795     54  1    257
    54    795    150  1    257
   796    799    800  1    258
   797    796    800  1    258
   798    797    800  1    258
   798    800    801  1    258
   798    801     61  1    258
   798     61    482  1    258
   798    482    479  1    258
   798    479    797  1    258
   797    479    476  1    258
   797    476    796  1    258
   796    476    158  1    258
   796    158    152  1    258
   796    152    147  1    258
   796    147    799  1    258
   799    147    148  1    258
   799    148     57  1    258
   799     57    800  1    258
   800     57    801  1    258
   801     57     58  1    258
   801     58     61  1    258
   152    158    155  1    258
   482     61    164  1    258
   482    164    161  1    258
    64     67     63  1    259
    63     67    165  1    259
   165     67    167  1    259
    70    170    378  1    260
   378    170    802  1    260
   378    802     69  1    260
    69    802    168  1    260
   168    802    170  1    260
    73    245    526  1    261
    73    526    523  1    261
    73    523    384  1    261
   384    523    804  1    261
   384    804     72  1    261
    72    804    176  1    261
    72    176    173  1    261
    72    173    171  1    261
   176    804    179  1    261
   179    804    523  1    261
   179    523    182  1    261
   182    523    185  1    261
   526    245    529  1    261
   529    245    657  1    261
   529    657    532  1    261
   532    657    655  1    261
   532    655    803  1    261
   532    803    188  1    261
   188    803    133  1    261
   133    803    444  1    261
   444    803    653  1    261
   444    653    132  1    261
   653    803    655  1    261
    76    251    805  1    262
    76    805     75  1    262
    75    805    246  1    262
   246    805    806  1    262
   246    806    661  1    262
   661    806    248  1    262
   248    806    251  1    262
   251    806    805  1    262
   671    254    105  1    263
   671    105     78  1    263
   671     78     79  1    263
    78    105    252  1    263
   252    105    106  1    263
   679    263    260  1    264
   679    260    677  1    264
   679    677    807  1    264
   679    807     82  1    264
    82    807     81  1    264
    81    807    672  1    264
   672    807    675  1    264
   672    675    257  1    264
   672    257    255  1    264
   675    807    677  1    264
   404     88    814  1    265
   404    814     85  1    265
    85    814    402  1    265
   402    814    400  1    265
   400    814    813  1    265
   400    813    812  1    265
   400    812    398  1    265
   398    812    811  1    265
   398    811    396  1    265
   396    811    810  1    265
   396    810    394  1    265
   394    810    809  1    265
   394    809    392  1    265
   392    809    808  1    265
   392    808    390  1    265
   390    808    680  1    265
   390    680     84  1    265
   680    808    264  1    265
   264    808    266  1    265
   266    808    809  1    265
   266    809    684  1    265
   684    809    810  1    265
   684    810    687  1    265
   687    810    811  1    265
   687    811    690  1    265
   690    811    812  1    265
   690    812    813  1    265
   690    813    269  1    265
   269    813     88  1    265
    88    813    814  1    265
   815    816    817  1    266
   817    816    818  1    266
   820    821    822  1    266
   820    822    718  1    266
   820    718    698  1    266
   820    698    696  1    266
   820    696    821  1    266
   821    696     91  1    266
   821     91    726  1    266
   821    726    724  1    266
   821    724    822  1    266
   822    724    722  1    266
   822    722    720  1    266
   822    720    718  1    266
   720    722    275  1    266
    91    696     90  1    266
    90    696    270  1    266
   698    718    716  1    266
   698    716    700  1    266
   700    716    819  1    266
   700    819    702  1    266
   702    819    818  1    266
   702    818    816  1    266
   702    816    704  1    266
   704    816    815  1    266
   704    815    261  1    266
   704    261    262  1    266
   704    262    265  1    266
   261    815    706  1    266
   706    815    708  1    266
   708    815    817  1    266
   708    817    710  1    266
   710    817    712  1    266
   710    712    272  1    266
   712    817    818  1    266
   712    818    714  1    266
   714    818    819  1    266
   714    819    716  1    266
    94    281    823  1    267
    94    823    408  1    267
   408    823    406  1    267
   406    823    727  1    267
   406    727     93  1    267
   727    823    725  1    267
   725    823    723  1    267
   723    823    728  1    267
   723    728    276  1    267
   276    728    278  1    267
   728    823    281  1    267
    96     97    282  1    268
   825    826    827  1    268
   825    827    828  1    268
   824    825    828  1    268
   826    829    830  1    268
   827    826    830  1    268
   827    830    831  1    268
   828    827    831  1    268
   828    831    832  1    268
   838    837    844  1    268
   838    844    845  1    268
   839    838    845  1    268
   840    839    845  1    268
   841    840    845  1    268
   836    840    841  1    268
   843    842    846  1    268
   844    843    846  1    268
   845    844    846  1    268
   841    845    846  1    268
   846    842    412  1    268
   846    412    841  1    268
   841    412    414  1    268
   841    414    836  1    268
   836    414    416  1    268
   836    416    840  1    268
   840    416    756  1    268
   840    756    839  1    268
   839    756    754  1    268
   839    754    838  1    268
   838    754    734  1    268
   838    734    732  1    268
   838    732    837  1    268
   837    732    730  1    268
   837    730    844  1    268
   844    730    843  1    268
   843    730    282  1    268
   843    282     97  1    268
   843     97    842  1    268
   842     97    100  1    268
   842    100    412  1    268
   734    754    289  1    268
   734    289    736  1    268
   736    289    833  1    268
   736    833    738  1    268
   738    833    740  1    268
   740    833    829  1    268
   740    829    826  1    268
   740    826    742  1    268
   742    826    825  1    268
   742    825    284  1    268
   284    825    256  1    268
   256    825    824  1    268
   256    824    253  1    268
   253    824    103  1    268
   103    824    424  1    268
   424    824    828  1    268
   424    828    832  1    268
   424    832    422  1    268
   422    832    834  1    268
   422    834    420  1    268
   420    834    835  1    268
   420    835    418  1    268
   418    835    758  1    268
   418    758    416  1    268
   416    758    756  1    268
   758    835    760  1    268
   760    835    834  1    268
   760    834    832  1    268
   760    832    831  1    268
   760    831    762  1    268
   762    831    830  1    268
   762    830    829  1    268
   762    829    833  1    268
   762    833    289  1    268
   109    112    115  1    269
   109    115    665  1    269
   109    665    428  1    269
   428    665    249  1    269
   428    249    108  1    269
   108    249    250  1    269
   667    129    130  1    270
   667    130    654  1    270
   667    654    656  1    270
   667    656    847  1    270
   667    847    848  1    270
   667    848    669  1    270
   669    848    666  1    270
   669    666    117  1    270
   669    117    118  1    270
   666    848    247  1    270
   247    848    662  1    270
   662    848    847  1    270
   662    847    244  1    270
   244    847    658  1    270
   658    847    656  1    270
   849    851    850  1    271
   849    850    124  1    271
   849    124    127  1    271
   849    127    668  1    271
   849    668    851  1    271
   851    668    670  1    271
   851    670    120  1    271
   851    120    121  1    271
   851    121    850  1    271
   850    121    124  1    271
   136    200    853  1    272
   136    853    135  1    272
   135    853    189  1    272
   189    853    544  1    272
   189    544    541  1    272
   189    541    184  1    272
   184    541    183  1    272
   544    853    852  1    272
   544    852    191  1    272
   191    852    194  1    272
   194    852    197  1    272
   197    852    200  1    272
   200    852    853  1    272
   139    201    138  1    273
   854    855    859  1    274
   854    859    856  1    274
   854    856    857  1    274
   857    856    861  1    274
   857    861    862  1    274
   858    857    862  1    274
   856    859    863  1    274
   856    863    860  1    274
   856    860    861  1    274
   861    860    864  1    274
   861    864    865  1    274
   862    861    865  1    274
   862    865    866  1    274
   864    863    868  1    274
   860    863    864  1    274
   865    864    869  1    274
   865    869    870  1    274
   866    865    870  1    274
   867    866    870  1    274
   864    868    869  1    274
   869    868    142  1    274
   869    142    456  1    274
   869    456    870  1    274
   870    456    145  1    274
   870    145    867  1    274
   867    145    151  1    274
   867    151    206  1    274
   867    206    866  1    274
   866    206    203  1    274
   866    203    862  1    274
   862    203    858  1    274
   858    203    556  1    274
   858    556    857  1    274
   857    556    553  1    274
   857    553    854  1    274
   854    553    198  1    274
   854    198    199  1    274
   854    199    855  1    274
   855    199    141  1    274
   855    141    859  1    274
   859    141    450  1    274
   859    450    863  1    274
   863    450    453  1    274
   863    453    868  1    274
   868    453    142  1    274
   206    151    209  1    274
   154    210    153  1    275
   871    875    876  1    276
   872    871    876  1    276
   872    876    877  1    276
   873    872    877  1    276
   873    877    878  1    276
   874    880    881  1    276
   875    874    881  1    276
   875    881    882  1    276
   876    875    882  1    276
   876    882    883  1    276
   877    876    883  1    276
   878    877    883  1    276
   878    883    884  1    276
   879    878    884  1    276
   880    885    886  1    276
   881    880    886  1    276
   882    881    886  1    276
   882    886    887  1    276
   883    882    887  1    276
   884    883    887  1    276
   884    887    888  1    276
   886    885    889  1    276
   887    886    889  1    276
   888    887    889  1    276
   888    889    157  1    276
   888    157    592  1    276
   888    592    884  1    276
   884    592    879  1    276
   879    592    221  1    276
   879    221    586  1    276
   879    586    878  1    276
   878    586    873  1    276
   873    586    218  1    276
   873    218    583  1    276
   873    583    872  1    276
   872    583    215  1    276
   872    215    871  1    276
   871    215    579  1    276
   871    579    875  1    276
   875    579    874  1    276
   874    579    212  1    276
   874    212    880  1    276
   880    212    576  1    276
   880    576    885  1    276
   885    576    207  1    276
   885    207    208  1    276
   885    208    156  1    276
   885    156    889  1    276
   889    156    157  1    276
   890    894    895  1    277
   891    890    895  1    277
   891    895    896  1    277
   892    891    896  1    277
   894    897    898  1    277
   895    894    898  1    277
   895    898    899  1    277
   896    895    899  1    277
   896    899    160  1    277
   896    160    174  1    277
   896    174    893  1    277
   896    893    892  1    277
   892    893    604  1    277
   892    604    602  1    277
   892    602    891  1    277
   891    602    224  1    277
   891    224    890  1    277
   890    224    222  1    277
   890    222    894  1    277
   894    222    897  1    277
   897    222    595  1    277
   897    595    478  1    277
   897    478    481  1    277
   897    481    898  1    277
   898    481    899  1    277
   899    481    484  1    277
   899    484    160  1    277
   478    595    159  1    277
   604    893    175  1    277
   175    893    174  1    277
   163    166    162  1    278
   162    166    169  1    278
   162    169    172  1    278
   608    227    603  1    279
   608    603    605  1    279
   608    605    610  1    279
   610    605    177  1    279
   610    177    178  1    279
   603    227    225  1    279
   900    902    903  1    280
   900    903    904  1    280
   900    904    901  1    280
   903    902    906  1    280
   903    906    907  1    280
   903    907    908  1    280
   904    903    908  1    280
   904    908    909  1    280
   904    909    910  1    280
   901    904    910  1    280
   901    910    905  1    280
   906    911    912  1    280
   907    906    912  1    280
   907    912    913  1    280
   907    913    914  1    280
   908    907    914  1    280
   908    914    543  1    280
   908    543    909  1    280
   909    543    546  1    280
   909    546    910  1    280
   910    546    190  1    280
   910    190    905  1    280
   905    190    236  1    280
   905    236    233  1    280
   905    233    230  1    280
   905    230    901  1    280
   901    230    619  1    280
   901    619    900  1    280
   900    619    616  1    280
   900    616    902  1    280
   902    616    613  1    280
   902    613    906  1    280
   906    613    911  1    280
   911    613    228  1    280
   911    228    609  1    280
   911    609    912  1    280
   912    609    611  1    280
   912    611    913  1    280
   913    611    180  1    280
   913    180    914  1    280
   914    180    181  1    280
   914    181    543  1    280
   187    186    915  1    281
   187    915    916  1    281
   187    916    534  1    281
   534    916    531  1    281
   531    916    915  1    281
   531    915    528  1    281
   528    915    525  1    281
   525    915    186  1    281
   193    237    192  1    282
   558    202    239  1    283
   558    239    635  1    283
   558    635    555  1    283
   555    635    632  1    283
   555    632    196  1    283
   196    632    195  1    283
   195    632    235  1    283
   235    632    234  1    283
   577    211    639  1    284
   577    639    204  1    284
   577    204    205  1    284
   204    639    240  1    284
   917    918    919  1    285
   917    919    920  1    285
   917    921    918  1    285
   919    918    923  1    285
   919    923    924  1    285
   919    924    925  1    285
   920    919    925  1    285
   921    926    927  1    285
   918    921    927  1    285
   918    927    922  1    285
   918    922    923  1    285
   923    922    929  1    285
   923    929    930  1    285
   924    923    930  1    285
   924    930    931  1    285
   925    924    931  1    285
   925    931    932  1    285
   922    927    933  1    285
   922    933    928  1    285
   922    928    929  1    285
   929    928    935  1    285
   929    935    936  1    285
   930    929    936  1    285
   930    936    937  1    285
   931    930    937  1    285
   928    933    938  1    285
   928    938    934  1    285
   928    934    935  1    285
   935    934    939  1    285
   935    939    940  1    285
   936    935    940  1    285
   934    938    939  1    285
   939    938    238  1    285
   939    238    640  1    285
   939    640    940  1    285
   940    640    213  1    285
   940    213    581  1    285
   940    581    936  1    285
   936    581    937  1    285
   937    581    214  1    285
   937    214    932  1    285
   937    932    931  1    285
   932    214    242  1    285
   932    242    925  1    285
   925    242    920  1    285
   920    242    645  1    285
   920    645    917  1    285
   917    645    642  1    285
   917    642    921  1    285
   921    642    231  1    285
   921    231    926  1    285
   926    231    232  1    285
   926    232    634  1    285
   926    634    927  1    285
   927    634    933  1    285
   933    634    637  1    285
   933    637    938  1    285
   938    637    238  1    285
   217    243    584  1    286
   584    243    216  1    286
   941    942    943  1    287
   942    944    945  1    287
   942    945    946  1    287
   943    942    946  1    287
   943    946    947  1    287
   945    948    949  1    287
   946    945    949  1    287
   946    949    950  1    287
   947    946    950  1    287
   949    948    951  1    287
   949    951    952  1    287
   950    949    952  1    287
   950    952    223  1    287
   950    223    226  1    287
   950    226    947  1    287
   947    226    615  1    287
   947    615    618  1    287
   947    618    943  1    287
   943    618    941  1    287
   941    618    621  1    287
   941    621    644  1    287
   941    644    647  1    287
   941    647    942  1    287
   942    647    944  1    287
   944    647    241  1    287
   944    241    219  1    287
   944    219    948  1    287
   944    948    945  1    287
   948    219    588  1    287
   948    588    951  1    287
   951    588    220  1    287
   951    220    952  1    287
   952    220    223  1    287
   644    621    229  1    287
   711    271    744  1    288
   711    744    954  1    288
   711    954    709  1    288
   709    954    953  1    288
   709    953    707  1    288
   707    953    678  1    288
   707    678    259  1    288
   678    953    676  1    288
   676    953    954  1    288
   676    954    258  1    288
   258    954    285  1    288
   285    954    744  1    288
   744    271    287  1    288
   955    956    957  1    289
   955    957    701  1    289
   955    701    703  1    289
   955    703    705  1    289
   955    705    686  1    289
   955    686    689  1    289
   955    689    956  1    289
   956    689    692  1    289
   956    692    697  1    289
   956    697    957  1    289
   957    697    699  1    289
   957    699    701  1    289
   697    692    268  1    289
   686    705    267  1    289
   288    273    747  1    290
   958    960    961  1    290
   959    958    961  1    290
   961    960    962  1    290
   961    962    750  1    290
   961    750    747  1    290
   961    747    959  1    290
   959    747    273  1    290
   959    273    713  1    290
   959    713    958  1    290
   958    713    715  1    290
   958    715    717  1    290
   958    717    960  1    290
   960    717    719  1    290
   960    719    962  1    290
   962    719    721  1    290
   962    721    274  1    290
   962    274    277  1    290
   962    277    750  1    290
   743    283    745  1    291
   743    745    963  1    291
   743    963    741  1    291
   741    963    964  1    291
   741    964    739  1    291
   739    964    965  1    291
   739    965    737  1    291
   737    965    966  1    291
   737    966    735  1    291
   735    966    967  1    291
   735    967    733  1    291
   733    967    968  1    291
   733    968    731  1    291
   731    968    729  1    291
   731    729    280  1    291
   729    968    279  1    291
   279    968    967  1    291
   279    967    752  1    291
   752    967    966  1    291
   752    966    965  1    291
   752    965    749  1    291
   749    965    964  1    291
   749    964    286  1    291
   286    964    963  1    291
   286    963    745  1    291
   969    970    971  1    292
   969    971    759  1    292
   969    759    761  1    292
   969    761    763  1    292
   969    763    290  1    292
   969    290    970  1    292
   970    290    755  1    292
   970    755    757  1    292
   970    757    971  1    292
   971    757    759  1    292
