# MSMS solvent excluded surface faces for fragments/fragment170.xyzr
#faces  #sphere density probe_r
   1525      35  3.00  1.50
     1    249      2  3      3
     2    249    250  3      3
   249    251    250  3      3
   250    251    252  3      3
   251    253    252  3      3
   252    253    254  3      3
   253    255    254  3      3
   254    255    256  3      3
   255    257    256  3      3
   256    257    258  3      3
   257      5    258  3      3
   258      5      4  3      3
     5    259      6  3      5
     6    259    260  3      5
   259    261    260  3      5
   260    261    262  3      5
   261    263    262  3      5
   262    263    264  3      5
   263      8    264  3      5
   264      8      7  3      5
     8     11    265  3      7
   265     11    266  3      7
   265    266      9  3      7
     9    266     10  3      7
    11     14    267  3      9
   267     14    270  3      9
   267    270    268  3      9
   268    270    271  3      9
   268    271    269  3      9
   269    271    272  3      9
   269    272     12  3      9
    12    272     13  3      9
    14    273     15  3     10
    15    273    274  3     10
   273    275    274  3     10
   274    275    276  3     10
   275    277    276  3     10
   276    277    278  3     10
   277    279    278  3     10
   278    279    280  3     10
   279    281    280  3     10
   280    281    282  3     10
   281      1    282  3     10
   282      1      3  3     10
    13    283     18  3     12
    18    283    284  3     12
   284    283     17  3     12
    15     19    285  3     13
   285     19    286  3     13
   285    286     16  3     13
    19     22    287  3     15
   287     22    288  3     15
   287    288     20  3     15
    20    288     21  3     15
    22    290    289  3     17
   289    290    291  3     17
   289    291     23  3     17
    23    291    292  3     17
   290     25    291  3     17
   291     25    293  3     17
   291    293    292  3     17
   292    293     24  3     17
    25     28     26  3     19
    26     28     27  3     19
    28      3    294  3     20
   294      3    295  3     20
   294    295     29  3     20
    29    295      2  3     20
    29     31     27  3     22
    27     31     30  3     22
    31     34    296  3     24
   296     34    297  3     24
   296    297     32  3     24
    32    297     33  3     24
    34     37    298  3     26
   298     37    300  3     26
   298    300    299  3     26
   299    300    301  3     26
   299    301     35  3     26
    35    301     36  3     26
    37    303    302  3     28
   302    303    304  3     28
   302    304     38  3     28
    38    304    305  3     28
   303     40    304  3     28
   304     40    306  3     28
   304    306    305  3     28
   305    306     39  3     28
    40      4    307  3     29
   307      4    308  3     29
   307    308     41  3     29
    41    308      6  3     29
    41     43     39  3     31
    39     43     42  3     31
    43    309     44  3     33
    44    309    310  3     33
   309    311    310  3     33
   310    311    312  3     33
   311     46    312  3     33
   312     46     45  3     33
    46    314    313  3     35
   313    314    315  3     35
   313    315     47  3     35
    47    315    316  3     35
   314     49    315  3     35
   315     49    317  3     35
   315    317    316  3     35
   316    317     48  3     35
    49      7     50  3     36
    50      7      9  3     36
    50     52    318  3     38
   318     52    319  3     38
   318    319     48  3     38
    48    319     51  3     38
    52     55    320  3     40
   320     55    322  3     40
   320    322    321  3     40
   321    322    323  3     40
   321    323     53  3     40
    53    323     54  3     40
    55     10    324  3     41
   324     10    326  3     41
   324    326    325  3     41
   325    326    327  3     41
   325    327     56  3     41
    56    327     12  3     41
    56     58     54  3     43
    54     58     57  3     43
    58     18    328  3     44
   328     18    330  3     44
   328    330    329  3     44
   329    330    331  3     44
   329    331     59  3     44
    59    331     20  3     44
    59    334    332  3     46
   332    334    335  3     46
   332    335    333  3     46
   333    335    336  3     46
   333    336     57  3     46
    57    336    337  3     46
   334     61    335  3     46
   335     61    338  3     46
   335    338    336  3     46
   336    338    339  3     46
   336    339    337  3     46
   337    339     60  3     46
    61     64    340  3     48
   340     64    341  3     48
   340    341     62  3     48
    62    341     63  3     48
    64     21     65  3     49
    65     21     23  3     49
    65     67    342  3     51
   342     67    343  3     51
   342    343     63  3     51
    63    343     66  3     51
    67    344     68  3     53
    68    344    345  3     53
   344     70    345  3     53
   345     70     69  3     53
    70     73    346  3     55
   346     73    347  3     55
   346    347     71  3     55
    71    347     72  3     55
    73    348     74  3     56
    74    348    349  3     56
   348     33    349  3     56
   349     33     35  3     56
    74    351    350  3     58
   350    351    352  3     58
   350    352     72  3     58
    72    352    353  3     58
   351     76    352  3     58
   352     76    354  3     58
   352    354    353  3     58
   353    354     75  3     58
    76     36     77  3     59
    77     36     38  3     59
    77     79    355  3     61
   355     79    356  3     61
   355    356     75  3     61
    75    356     78  3     61
    79     82     80  3     63
    80     82     81  3     63
    82     85     83  3     65
    83     85     84  3     65
    85     42     86  3     66
    86     42     44  3     66
    86    357     84  3     68
    84    357    358  3     68
   357     88    358  3     68
   358     88     87  3     68
    88     91    359  3     70
   359     91    360  3     70
   359    360     89  3     70
    89    360     90  3     70
    91     94    361  3     72
   361     94    362  3     72
   361    362     92  3     72
    92    362     93  3     72
    94    363     95  3     74
    95    363    364  3     74
   363     97    364  3     74
   364     97     96  3     74
    97     45     98  3     75
    98     45     47  3     75
    98    365     96  3     77
    96    365    366  3     77
   365    100    366  3     77
   366    100     99  3     77
   100     51    367  3     78
   367     51    368  3     78
   367    368    101  3     78
   101    368     53  3     78
   101    369     99  3     80
    99    369    370  3     80
   369    103    370  3     80
   370    103    102  3     80
   103    106    104  3     82
   104    106    105  3     82
   106    109    107  3     84
   107    109    108  3     84
   109    371    110  3     86
   110    371    372  3     86
   371    373    372  3     86
   372    373    374  3     86
   373    375    374  3     86
   374    375    376  3     86
   375    377    376  3     86
   376    377    378  3     86
   377    379    378  3     86
   378    379    380  3     86
   379    381    380  3     86
   380    381    382  3     86
   381    383    382  3     86
   382    383    384  3     86
   383    385    384  3     86
   384    385    386  3     86
   385    112    386  3     86
   386    112    111  3     86
   112    115    113  3     88
   113    115    114  3     88
   115    118    116  3     90
   116    118    117  3     90
   118    121    387  3     92
   387    121    389  3     92
   387    389    388  3     92
   388    389    390  3     92
   388    390    119  3     92
   119    390    120  3     92
   121    393    391  3     93
   391    393    394  3     93
   391    394    392  3     93
   392    394    395  3     93
   392    395    122  3     93
   122    395    396  3     93
   393     60    394  3     93
   394     60    397  3     93
   394    397    395  3     93
   395    397    398  3     93
   395    398    396  3     93
   396    398     62  3     93
   122    399    120  3     94
   120    399    400  3     94
   399    401    400  3     94
   400    401    402  3     94
   401     66    402  3     94
   402     66     68  3     94
   119    124    403  3     96
   403    124    405  3     96
   403    405    404  3     96
   404    405    406  3     96
   404    406    117  3     96
   117    406    123  3     96
   124    407    125  3     98
   125    407    408  3     98
   407    127    408  3     98
   408    127    126  3     98
   127    409    128  3    100
   128    409    410  3    100
   409    411    410  3    100
   410    411    412  3    100
   411    130    412  3    100
   412    130    129  3    100
   130     69    131  3    101
   131     69     71  3    101
   131    413    129  3    103
   129    413    414  3    103
   413    415    414  3    103
   414    415    416  3    103
   415    417    416  3    103
   416    417    418  3    103
   417    133    418  3    103
   418    133    132  3    103
   133    420    419  3    105
   419    420    421  3    105
   419    421    134  3    105
   134    421    422  3    105
   420    136    421  3    105
   421    136    423  3    105
   421    423    422  3    105
   422    423    135  3    105
   136    139    424  3    107
   424    139    425  3    107
   424    425    137  3    107
   137    425    138  3    107
   139     78    140  3    108
   140     78     80  3    108
   140     81    138  3    109
   138     81     83  3    109
   137     87    426  3    110
   426     87    427  3    110
   426    427    135  3    110
   135    427     89  3    110
   134    142    428  3    112
   428    142    429  3    112
   428    429    132  3    112
   132    429    141  3    112
   142    145    143  3    114
   143    145    144  3    114
   145    430    146  3    115
   146    430    431  3    115
   430    432    431  3    115
   431    432    433  3    115
   432    434    433  3    115
   433    434    435  3    115
   434    436    435  3    115
   435    436    437  3    115
   436     90    437  3    115
   437     90     92  3    115
   146    438    144  3    117
   144    438    439  3    117
   438    148    439  3    117
   439    148    147  3    117
   148    151    440  3    119
   440    151    442  3    119
   440    442    441  3    119
   441    442    443  3    119
   441    443    149  3    119
   149    443    150  3    119
   151    445    444  3    121
   444    445    446  3    121
   444    446    152  3    121
   152    446    447  3    121
   445    154    446  3    121
   446    154    448  3    121
   446    448    447  3    121
   447    448    153  3    121
   154     93    155  3    122
   155     93     95  3    122
   155    449    153  3    124
   153    449    450  3    124
   449    157    450  3    124
   450    157    156  3    124
   157    102    158  3    125
   158    102    104  3    125
   158    160    451  3    127
   451    160    452  3    127
   451    452    156  3    127
   156    452    159  3    127
   160    163    161  3    129
   161    163    162  3    129
   163    166    164  3    131
   164    166    165  3    131
   166    169    167  3    133
   167    169    168  3    133
   169    453    170  3    134
   170    453    454  3    134
   453    105    454  3    134
   454    105    107  3    134
   170    455    168  3    136
   168    455    456  3    136
   455    457    456  3    136
   456    457    458  3    136
   457    172    458  3    136
   458    172    171  3    136
   172    459    173  3    137
   173    459    460  3    137
   459    108    460  3    137
   460    108    110  3    137
   173    175    461  3    139
   461    175    462  3    139
   461    462    171  3    139
   171    462    174  3    139
   175    464    463  3    141
   463    464    465  3    141
   463    465    176  3    141
   176    465    466  3    141
   464    178    465  3    141
   465    178    467  3    141
   465    467    466  3    141
   466    467    177  3    141
   178    181    468  3    143
   468    181    469  3    143
   468    469    179  3    143
   179    469    180  3    143
   181    470    182  3    144
   182    470    471  3    144
   470    111    471  3    144
   471    111    113  3    144
   182    472    180  3    146
   180    472    473  3    146
   472    474    473  3    146
   473    474    475  3    146
   474    184    475  3    146
   475    184    183  3    146
   184    187    476  3    148
   476    187    477  3    148
   476    477    185  3    148
   185    477    186  3    148
   187    478    188  3    149
   188    478    479  3    149
   478    114    479  3    149
   479    114    116  3    149
   188    190    186  3    151
   186    190    189  3    151
   190    193    191  3    153
   191    193    192  3    153
   193    196    480  3    155
   480    196    481  3    155
   480    481    194  3    155
   194    481    195  3    155
   196    123    482  3    156
   482    123    483  3    156
   482    483    197  3    156
   197    483    125  3    156
   197    484    195  3    158
   195    484    485  3    158
   484    486    485  3    158
   485    486    487  3    158
   486    199    487  3    158
   487    199    198  3    158
   199    147    488  3    159
   488    147    489  3    159
   488    489    200  3    159
   200    489    149  3    159
   200    491    490  3    160
   490    491    492  3    160
   490    492    198  3    160
   198    492    493  3    160
   491    192    492  3    160
   492    192    494  3    160
   492    494    493  3    160
   493    494    194  3    160
   191    495    189  3    162
   189    495    496  3    162
   495    202    496  3    162
   496    202    201  3    162
   202    498    497  3    164
   497    498    499  3    164
   497    499    203  3    164
   203    499    500  3    164
   498    501    499  3    164
   499    501    502  3    164
   499    502    500  3    164
   500    502    503  3    164
   501    205    502  3    164
   502    205    504  3    164
   502    504    503  3    164
   503    504    204  3    164
   205    505    206  3    165
   206    505    506  3    165
   505    162    506  3    165
   506    162    164  3    165
   206    208    204  3    167
   204    208    207  3    167
   208    507    209  3    169
   209    507    508  3    169
   507    509    508  3    169
   508    509    510  3    169
   509    511    510  3    169
   510    511    512  3    169
   511    211    512  3    169
   512    211    210  3    169
   211    513    212  3    171
   212    513    514  3    171
   513    214    514  3    171
   514    214    213  3    171
   214    165    215  3    172
   215    165    167  3    172
   215    515    213  3    174
   213    515    516  3    174
   515    217    516  3    174
   516    217    216  3    174
   217    220    218  3    176
   218    220    219  3    176
   220    517    221  3    177
   221    517    518  3    177
   517    519    518  3    177
   518    519    520  3    177
   519    521    520  3    177
   520    521    522  3    177
   521    174    522  3    177
   522    174    176  3    177
   221    223    523  3    179
   523    223    524  3    179
   523    524    219  3    179
   219    524    222  3    179
   223    525    224  3    180
   224    525    526  3    180
   525    527    526  3    180
   526    527    528  3    180
   527    529    528  3    180
   528    529    530  3    180
   529    177    530  3    180
   530    177    179  3    180
   224    226    222  3    182
   222    226    225  3    182
   226    531    227  3    184
   227    531    532  3    184
   531    229    532  3    184
   532    229    228  3    184
   229    183    230  3    185
   230    183    185  3    185
   230    533    228  3    187
   228    533    534  3    187
   533    232    534  3    187
   534    232    231  3    187
   232    535    233  3    189
   233    535    536  3    189
   535    537    536  3    189
   536    537    538  3    189
   537    539    538  3    189
   538    539    540  3    189
   539    235    540  3    189
   540    235    234  3    189
   235    201    236  3    190
   236    201    203  3    190
   236    541    234  3    191
   234    541    542  3    191
   541    543    542  3    191
   542    543    544  3    191
   543    545    544  3    191
   544    545    546  3    191
   545    547    546  3    191
   546    547    548  3    191
   547    549    548  3    191
   548    549    550  3    191
   549    207    550  3    191
   550    207    209  3    191
   233    238    231  3    193
   231    238    237  3    193
   238    241    551  3    195
   551    241    552  3    195
   551    552    239  3    195
   239    552    240  3    195
   241    554    553  3    197
   553    554    555  3    197
   553    555    242  3    197
   242    555    556  3    197
   554    557    555  3    197
   555    557    558  3    197
   555    558    556  3    197
   556    558    559  3    197
   557    560    558  3    197
   558    560    561  3    197
   558    561    559  3    197
   559    561    562  3    197
   560    563    561  3    197
   561    563    564  3    197
   561    564    562  3    197
   562    564    565  3    197
   563    566    564  3    197
   564    566    567  3    197
   564    567    565  3    197
   565    567    568  3    197
   566    244    567  3    197
   567    244    569  3    197
   567    569    568  3    197
   568    569    243  3    197
   244    247    570  3    199
   570    247    571  3    199
   570    571    245  3    199
   245    571    246  3    199
   247    210    248  3    200
   248    210    212  3    200
   248    216    246  3    201
   246    216    218  3    201
   245    573    572  3    202
   572    573    574  3    202
   572    574    243  3    202
   243    574    575  3    202
   573    576    574  3    202
   574    576    577  3    202
   574    577    575  3    202
   575    577    578  3    202
   576    240    577  3    202
   577    240    579  3    202
   577    579    578  3    202
   578    579    242  3    202
   239    225    237  3    203
   237    225    227  3    203
   161    581    580  3    204
   580    581    582  3    204
   580    582    159  3    204
   159    582    583  3    204
   581    150    582  3    204
   582    150    584  3    204
   582    584    583  3    204
   583    584    152  3    204
   143    586    585  3    205
   585    586    587  3    205
   585    587    141  3    205
   141    587    588  3    205
   586    126    587  3    205
   587    126    589  3    205
   587    589    588  3    205
   588    589    128  3    205
    32     24    590  3    206
   590     24    591  3    206
   590    591     30  3    206
    30    591     26  3    206
     3      1    295  2      1
   295      1      2  2      1
   308      4      5  2      2
   308      5      6  2      2
     9      7    265  2      4
   265      7      8  2      4
   326     10    268  2      6
   326    268    269  2      6
   326    269    327  2      6
   327    269     12  2      6
   268     10    267  2      6
   267     10    266  2      6
   267    266     11  2      6
   283     13    272  2      8
   283    272     17  2      8
    17    272    271  2      8
    17    271    592  2      8
   592    271     16  2      8
    16    271    270  2      8
    16    270    285  2      8
   285    270    593  2      8
   285    593     15  2      8
    15    593     14  2      8
    14    593    270  2      8
   330     18    284  2     11
   330    284     17  2     11
   330     17    331  2     11
   331     17    592  2     11
   331    592     20  2     11
    20    592     16  2     11
    20     16    287  2     11
   287     16    286  2     11
   287    286     19  2     11
    23     21    288  2     14
    23    288    289  2     14
   289    288     22  2     14
   591     24    293  2     16
   591    293     26  2     16
    26    293     25  2     16
    29     27    294  2     18
   294     27     28  2     18
   590     30    296  2     21
   590    296     32  2     21
   296     30     31  2     21
    35     33    299  2     23
   299     33    297  2     23
   299    297    298  2     23
   298    297     34  2     23
    38     36    301  2     25
    38    301    302  2     25
   302    301    300  2     25
   302    300     37  2     25
    41     39    306  2     27
    41    306    307  2     27
   307    306     40  2     27
    44     42     43  2     30
    47     45    313  2     32
   313     45     46  2     32
   318     48    317  2     34
   318    317     50  2     34
    50    317     49  2     34
   368     51    321  2     37
   368    321     53  2     37
   321     51    320  2     37
   320     51    319  2     37
   320    319     52  2     37
    56     54    323  2     39
    56    323    325  2     39
   325    323    322  2     39
   325    322    324  2     39
   324    322     55  2     39
   333     57     58  2     42
   333     58    328  2     42
   333    328    332  2     42
   332    328    329  2     42
   332    329     59  2     42
   397     60    339  2     45
   397    339    594  2     45
   397    594    398  2     45
   398    594    340  2     45
   398    340     62  2     45
   340    594    338  2     45
   340    338     61  2     45
   338    594    339  2     45
   342     63    341  2     47
   342    341     65  2     47
    65    341     64  2     47
    68     66    343  2     50
    68    343     67  2     50
    71     69    346  2     52
   346     69     70  2     52
   350     72    347  2     54
   350    347     73  2     54
   350     73     74  2     54
   355     75    354  2     57
   355    354     77  2     57
    77    354     76  2     57
    80     78    356  2     60
    80    356     79  2     60
    83     81     82  2     62
    86     84     85  2     64
   427     87     88  2     67
   427     88    359  2     67
   427    359     89  2     67
    92     90    361  2     69
   361     90    360  2     69
   361    360     91  2     69
    95     93    362  2     71
    95    362     94  2     71
    98     96     97  2     73
   101     99    367  2     76
   367     99    100  2     76
   104    102    103  2     79
   107    105    106  2     81
   110    108    109  2     83
   113    111    112  2     85
   116    114    115  2     87
   404    117    118  2     89
   404    118    387  2     89
   404    387    403  2     89
   403    387    388  2     89
   403    388    119  2     89
   122    120    392  2     91
   392    120    390  2     91
   392    390    391  2     91
   391    390    389  2     91
   391    389    121  2     91
   483    123    406  2     95
   483    406    405  2     95
   483    405    125  2     95
   125    405    124  2     95
   589    126    127  2     97
   589    127    128  2     97
   131    129    130  2     99
   428    132    133  2    102
   428    133    419  2    102
   428    419    134  2    102
   426    135    423  2    104
   426    423    595  2    104
   426    595    424  2    104
   426    424    137  2    104
   424    595    136  2    104
   136    595    423  2    104
   140    138    425  2    106
   140    425    139  2    106
   585    141    429  2    111
   585    429    143  2    111
   143    429    142  2    111
   146    144    145  2    113
   489    147    440  2    116
   489    440    441  2    116
   489    441    149  2    116
   440    147    148  2    116
   584    150    443  2    118
   584    443    596  2    118
   584    596    152  2    118
   152    596    444  2    118
   444    596    442  2    118
   444    442    151  2    118
   442    596    443  2    118
   155    153    448  2    120
   155    448    154  2    120
   451    156    157  2    123
   451    157    158  2    123
   580    159    452  2    126
   580    452    160  2    126
   580    160    161  2    126
   164    162    163  2    128
   167    165    166  2    130
   170    168    169  2    132
   461    171    172  2    135
   461    172    173  2    135
   176    174    463  2    138
   463    174    462  2    138
   463    462    175  2    138
   179    177    467  2    140
   179    467    468  2    140
   468    467    178  2    140
   182    180    469  2    142
   182    469    181  2    142
   185    183    476  2    145
   476    183    184  2    145
   188    186    477  2    147
   188    477    187  2    147
   191    189    190  2    150
   494    192    193  2    152
   494    193    480  2    152
   494    480    194  2    152
   197    195    481  2    154
   197    481    482  2    154
   482    481    196  2    154
   490    198    488  2    157
   490    488    200  2    157
   488    198    199  2    157
   203    201    497  2    161
   497    201    202  2    161
   206    204    504  2    163
   206    504    205  2    163
   209    207    208  2    166
   212    210    211  2    168
   215    213    214  2    170
   218    216    217  2    173
   523    219    220  2    175
   523    220    221  2    175
   224    222    524  2    178
   224    524    223  2    178
   227    225    226  2    181
   230    228    229  2    183
   233    231    232  2    186
   236    234    235  2    188
   239    237    551  2    192
   551    237    238  2    192
   579    240    552  2    194
   579    552    553  2    194
   579    553    242  2    194
   553    552    241  2    194
   572    243    569  2    196
   572    569    570  2    196
   572    570    245  2    196
   570    569    244  2    196
   248    246    571  2    198
   248    571    247  2    198
   597    601    602  1    207
   598    597    602  1    207
   598    602    603  1    207
   599    605    606  1    207
   600    599    606  1    207
   601    600    606  1    207
   601    606    607  1    207
   602    601    607  1    207
   603    602    607  1    207
   603    607    608  1    207
   606    605    610  1    207
   607    606    610  1    207
   608    607    610  1    207
   609    608    610  1    207
   609    610    253  1    207
   609    253    251  1    207
   609    251    604  1    207
   609    604    277  1    207
   609    277    608  1    207
   608    277    603  1    207
   603    277    275  1    207
   603    275    598  1    207
   598    275    273  1    207
   598    273     14  1    207
   598     14     11  1    207
   598     11    597  1    207
   597     11      8  1    207
   597      8    263  1    207
   597    263    601  1    207
   601    263    261  1    207
   601    261    600  1    207
   600    261    599  1    207
   599    261    259  1    207
   599    259    257  1    207
   599    257    255  1    207
   599    255    605  1    207
   605    255    253  1    207
   605    253    610  1    207
   257    259      5  1    207
   277    604    279  1    207
   279    604    281  1    207
   281    604    249  1    207
   281    249      1  1    207
   249    604    251  1    207
   611    615    616  1    208
   612    611    616  1    208
   612    616    617  1    208
   613    612    617  1    208
   613    617    618  1    208
   615    621    622  1    208
   616    615    622  1    208
   616    622    623  1    208
   617    616    623  1    208
   617    623    624  1    208
   618    617    624  1    208
   614    618    624  1    208
   614    624    619  1    208
   614    619    620  1    208
   620    619    625  1    208
   622    621    626  1    208
   622    626    627  1    208
   623    622    627  1    208
   623    627    628  1    208
   624    623    628  1    208
   625    624    628  1    208
   619    624    625  1    208
   627    626    630  1    208
   628    627    630  1    208
   629    628    630  1    208
   625    628    629  1    208
   629    630    254  1    208
   629    254    256  1    208
   629    256    625  1    208
   625    256    258  1    208
   625    258    620  1    208
   620    258      4  1    208
   620      4     40  1    208
   620     40    614  1    208
   614     40    303  1    208
   614    303    613  1    208
   614    613    618  1    208
   613    303     37  1    208
   613     37    612  1    208
   612     37     34  1    208
   612     34    611  1    208
   611     34     31  1    208
   611     31     29  1    208
   611     29    615  1    208
   615     29      2  1    208
   615      2    621  1    208
   621      2    250  1    208
   621    250    626  1    208
   626    250    252  1    208
   626    252    630  1    208
   630    252    254  1    208
     7     49    264  1    209
   264     49    314  1    209
   264    314    262  1    209
   262    314     46  1    209
   262     46    311  1    209
   262    311    260  1    209
   260    311    309  1    209
   260    309      6  1    209
     6    309     43  1    209
     6     43     41  1    209
    10     55      9  1    210
     9     55     52  1    210
     9     52     50  1    210
    13     18     58  1    211
    13     58     18  1    211
    58     56     13  1    211
    13     56     18  1    211
    18     56     58  1    211
    56     12     13  1    211
   631    635    636  1    212
   632    631    636  1    212
   632    636    637  1    212
   632    637    638  1    212
   633    632    638  1    212
   634    639    640  1    212
   635    634    640  1    212
   635    640    641  1    212
   636    635    641  1    212
   636    641    642  1    212
   637    636    642  1    212
   637    642    643  1    212
   638    637    643  1    212
   640    639    644  1    212
   640    644    645  1    212
   641    640    645  1    212
   641    645    646  1    212
   642    641    646  1    212
   643    642    646  1    212
   643    646    282  1    212
   643    282      3  1    212
   643      3    638  1    212
   638      3     28  1    212
   638     28    633  1    212
   633     28     25  1    212
   633     25    290  1    212
   633    290    632  1    212
   632    290    631  1    212
   631    290     22  1    212
   631     22    635  1    212
   635     22    634  1    212
   634     22     19  1    212
   634     19    639  1    212
   639     19     15  1    212
   639     15    274  1    212
   639    274    644  1    212
   644    274    276  1    212
   644    276    278  1    212
   644    278    645  1    212
   645    278    646  1    212
   646    278    280  1    212
   646    280    282  1    212
    21     64    334  1    213
    21    334     59  1    213
    21     59     20  1    213
   334     64     61  1    213
    24     32    348  1    214
    24    348    292  1    214
   292    348    647  1    214
   292    647     23  1    214
    23    647     67  1    214
    23     67     65  1    214
    67    647    344  1    214
   344    647    348  1    214
   344    348     70  1    214
    70    348     73  1    214
   348     32     33  1    214
    27     30     26  1    215
    36     76    649  1    216
    36    649     35  1    216
    35    649    648  1    216
    35    648    349  1    216
   349    648     74  1    216
    74    648    351  1    216
   351    648    649  1    216
   351    649     76  1    216
    42     85     39  1    217
    39     85     82  1    217
    39     82    305  1    217
   305     82     79  1    217
   305     79     77  1    217
   305     77     38  1    217
    86     44    357  1    218
    45     97    312  1    218
   312     97    650  1    218
   312    650    310  1    218
   310    650    357  1    218
   310    357     44  1    218
   357    650     94  1    218
   357     94     91  1    218
   357     91     88  1    218
    94    650    363  1    218
   363    650     97  1    218
    48     51    316  1    219
    51    100    316  1    219
   316    100    365  1    219
   316    365     47  1    219
    47    365     98  1    219
   657    661    662  1    220
   659    658    664  1    220
   660    659    664  1    220
   661    660    664  1    220
   662    661    664  1    220
   663    662    664  1    220
   658    663    664  1    220
   663    658     53  1    220
   663     53     54  1    220
   663     54    662  1    220
   662     54    655  1    220
   662    655    657  1    220
   657    655    377  1    220
   657    377    375  1    220
   657    375    661  1    220
   661    375    373  1    220
   661    373    660  1    220
   660    373    371  1    220
   660    371    659  1    220
   659    371    656  1    220
   659    656    369  1    220
   659    369    658  1    220
   658    369    101  1    220
   658    101     53  1    220
   369    656    103  1    220
   103    656    106  1    220
   106    656    109  1    220
   109    656    371  1    220
   377    655    379  1    220
   379    655    654  1    220
   379    654    381  1    220
   381    654    653  1    220
   381    653    383  1    220
   383    653    652  1    220
   383    652    385  1    220
   385    652    651  1    220
   385    651    112  1    220
   112    651    115  1    220
   115    651    393  1    220
   115    393    121  1    220
   115    121    118  1    220
   393    651     60  1    220
    60    651    652  1    220
    60    652    337  1    220
   337    652    653  1    220
   337    653    654  1    220
   337    654     57  1    220
    57    654    655  1    220
    57    655     54  1    220
    63     66    665  1    221
    63    665    396  1    221
    63    396     62  1    221
   396    665    122  1    221
   122    665    399  1    221
   399    665    401  1    221
   401    665     66  1    221
    69    130    345  1    222
   345    130    402  1    222
   345    402     68  1    222
   402    130    411  1    222
   402    411    409  1    222
   402    409    400  1    222
   400    409    407  1    222
   400    407    124  1    222
   400    124    120  1    222
   120    124    119  1    222
   407    409    127  1    222
   353     75    667  1    223
   353    667    666  1    223
   353    666     72  1    223
    72    666     71  1    223
    71    666    131  1    223
   131    666    413  1    223
   413    666    667  1    223
   413    667    415  1    223
   415    667    668  1    223
   415    668    417  1    223
   417    668    669  1    223
   417    669    420  1    223
   417    420    133  1    223
   420    669    139  1    223
   420    139    136  1    223
   139    669     78  1    223
    78    669    668  1    223
    78    668     75  1    223
    75    668    667  1    223
    81    140     80  1    224
   358     87    671  1    225
   358    671     84  1    225
    84    671    670  1    225
    84    670     83  1    225
    83    670    138  1    225
   138    670    137  1    225
   137    670     87  1    225
    87    670    671  1    225
   673    675    674  1    226
   673    674    434  1    226
   673    434    432  1    226
   673    432    672  1    226
   673    672    134  1    226
   673    134    422  1    226
   673    422    675  1    226
   675    422    135  1    226
   675    135     89  1    226
   675     89    674  1    226
   674     89    436  1    226
   674    436    434  1    226
   436     89     90  1    226
   134    672    142  1    226
   142    672    145  1    226
   145    672    430  1    226
   430    672    432  1    226
    93    154    437  1    227
    93    437     92  1    227
   437    154    679  1    227
   437    679    435  1    227
   435    679    678  1    227
   435    678    433  1    227
   433    678    677  1    227
   433    677    431  1    227
   431    677    676  1    227
   431    676    146  1    227
   146    676    438  1    227
   438    676    677  1    227
   438    677    148  1    227
   148    677    678  1    227
   148    678    151  1    227
   151    678    680  1    227
   151    680    445  1    227
   445    680    154  1    227
   154    680    679  1    227
   679    680    678  1    227
   682    681    683  1    228
   682    683    370  1    228
   682    370    102  1    228
   682    102    157  1    228
   682    157    449  1    228
   682    449    681  1    228
   681    449    364  1    228
   681    364     96  1    228
   681     96    366  1    228
   681    366    683  1    228
   683    366     99  1    228
   683     99    370  1    228
   364    449    155  1    228
   364    155     95  1    228
   453    169    684  1    229
   453    684    104  1    229
   453    104    105  1    229
   104    684    158  1    229
   158    684    160  1    229
   160    684    163  1    229
   163    684    169  1    229
   163    169    166  1    229
   459    172    457  1    230
   459    457    108  1    230
   108    457    685  1    230
   108    685    107  1    230
   107    685    454  1    230
   454    685    455  1    230
   454    455    170  1    230
   455    685    457  1    230
   687    689    690  1    231
   688    687    690  1    231
   690    689    692  1    231
   690    692    693  1    231
   691    695    696  1    231
   692    691    696  1    231
   693    692    696  1    231
   695    694    697  1    231
   695    697    698  1    231
   696    695    698  1    231
   696    698    376  1    231
   696    376    378  1    231
   696    378    693  1    231
   693    378    380  1    231
   693    380    382  1    231
   693    382    690  1    231
   690    382    688  1    231
   688    382    384  1    231
   688    384    686  1    231
   688    686    181  1    231
   688    181    687  1    231
   687    181    178  1    231
   687    178    689  1    231
   689    178    464  1    231
   689    464    691  1    231
   689    691    692  1    231
   691    464    175  1    231
   691    175    695  1    231
   695    175    694  1    231
   694    175    173  1    231
   694    173    460  1    231
   694    460    697  1    231
   697    460    372  1    231
   697    372    374  1    231
   697    374    698  1    231
   698    374    376  1    231
   372    460    110  1    231
   181    686    470  1    231
   470    686    111  1    231
   111    686    386  1    231
   386    686    384  1    231
   478    187    184  1    232
   478    184    474  1    232
   478    474    113  1    232
   478    113    114  1    232
   113    474    472  1    232
   113    472    471  1    232
   471    472    182  1    232
   117    123    116  1    233
   116    123    479  1    233
   479    123    196  1    233
   479    196    188  1    233
   188    196    190  1    233
   190    196    193  1    233
   586    143    144  1    234
   586    144    486  1    234
   586    486    484  1    234
   586    484    126  1    234
   126    484    408  1    234
   408    484    197  1    234
   408    197    125  1    234
   486    144    439  1    234
   486    439    199  1    234
   199    439    147  1    234
   699    700    701  1    235
   699    702    703  1    235
   699    703    704  1    235
   699    704    700  1    235
   703    705    706  1    235
   704    703    706  1    235
   704    706    416  1    235
   704    416    418  1    235
   704    418    700  1    235
   700    418    132  1    235
   700    132    141  1    235
   700    141    701  1    235
   701    141    588  1    235
   701    588    699  1    235
   699    588    702  1    235
   702    588    128  1    235
   702    128    410  1    235
   702    410    705  1    235
   702    705    703  1    235
   705    410    412  1    235
   705    412    129  1    235
   705    129    706  1    235
   706    129    414  1    235
   706    414    416  1    235
   581    161    505  1    236
   581    505    707  1    236
   581    707    150  1    236
   150    707    501  1    236
   150    501    149  1    236
   149    501    498  1    236
   149    498    200  1    236
   200    498    202  1    236
   200    202    491  1    236
   491    202    495  1    236
   491    495    192  1    236
   192    495    191  1    236
   501    707    205  1    236
   205    707    505  1    236
   505    161    162  1    236
   450    156    709  1    237
   450    709    708  1    237
   450    708    153  1    237
   153    708    447  1    237
   447    708    583  1    237
   447    583    152  1    237
   583    708    709  1    237
   583    709    159  1    237
   159    709    156  1    237
   711    710    712  1    238
   711    712    214  1    238
   711    214    513  1    238
   711    513    511  1    238
   711    511    509  1    238
   711    509    710  1    238
   710    509    507  1    238
   710    507    506  1    238
   710    506    164  1    238
   710    164    712  1    238
   712    164    165  1    238
   712    165    214  1    238
   506    507    208  1    238
   506    208    206  1    238
   511    513    211  1    238
   713    715    716  1    239
   714    713    716  1    239
   714    716    519  1    239
   714    519    517  1    239
   714    517    515  1    239
   714    515    713  1    239
   713    515    215  1    239
   713    215    168  1    239
   713    168    715  1    239
   715    168    456  1    239
   715    456    458  1    239
   715    458    716  1    239
   716    458    717  1    239
   716    717    521  1    239
   716    521    519  1    239
   521    717    171  1    239
   521    171    174  1    239
   171    717    458  1    239
   168    215    167  1    239
   515    517    217  1    239
   217    517    220  1    239
   718    720    721  1    240
   719    724    725  1    240
   720    719    725  1    240
   720    725    726  1    240
   721    720    726  1    240
   721    726    727  1    240
   722    721    727  1    240
   724    723    728  1    240
   725    724    728  1    240
   725    728    729  1    240
   726    725    729  1    240
   726    729    730  1    240
   727    726    730  1    240
   729    728    731  1    240
   729    731    732  1    240
   730    729    732  1    240
   730    732    466  1    240
   730    466    727  1    240
   727    466    177  1    240
   727    177    722  1    240
   722    177    529  1    240
   722    529    527  1    240
   722    527    721  1    240
   721    527    718  1    240
   718    527    525  1    240
   718    525    223  1    240
   718    223    719  1    240
   718    719    720  1    240
   719    223    221  1    240
   719    221    723  1    240
   719    723    724  1    240
   723    221    518  1    240
   723    518    520  1    240
   723    520    728  1    240
   728    520    731  1    240
   731    520    522  1    240
   731    522    732  1    240
   732    522    176  1    240
   732    176    466  1    240
   734    733    736  1    241
   734    736    737  1    241
   735    734    737  1    241
   735    737    475  1    241
   735    475    183  1    241
   735    183    229  1    241
   735    229    734  1    241
   734    229    531  1    241
   734    531    733  1    241
   733    531    226  1    241
   733    226    526  1    241
   733    526    528  1    241
   733    528    736  1    241
   736    528    530  1    241
   736    530    737  1    241
   737    530    473  1    241
   737    473    475  1    241
   473    530    180  1    241
   180    530    179  1    241
   526    226    224  1    241
   186    189    739  1    242
   186    739    185  1    242
   185    739    230  1    242
   230    739    738  1    242
   230    738    533  1    242
   533    738    535  1    242
   533    535    232  1    242
   535    738    537  1    242
   537    738    739  1    242
   537    739    740  1    242
   537    740    539  1    242
   539    740    496  1    242
   539    496    235  1    242
   235    496    201  1    242
   496    740    189  1    242
   189    740    739  1    242
   487    198    493  1    243
   487    493    741  1    243
   487    741    485  1    243
   485    741    195  1    243
   195    741    194  1    243
   194    741    493  1    243
   236    203    541  1    244
   742    745    743  1    244
   742    743    744  1    244
   744    743    747  1    244
   743    746    747  1    244
   747    746    549  1    244
   747    549    547  1    244
   747    547    744  1    244
   744    547    545  1    244
   744    545    742  1    244
   742    545    543  1    244
   742    543    541  1    244
   742    541    745  1    244
   745    541    203  1    244
   745    203    500  1    244
   745    500    746  1    244
   745    746    743  1    244
   746    500    503  1    244
   746    503    204  1    244
   746    204    207  1    244
   746    207    549  1    244
   241    238    554  1    245
   748    750    751  1    245
   748    751    752  1    245
   754    755    756  1    245
   754    756    566  1    245
   754    566    563  1    245
   754    563    753  1    245
   754    753    548  1    245
   754    548    550  1    245
   754    550    755  1    245
   755    550    508  1    245
   755    508    510  1    245
   755    510    756  1    245
   756    510    512  1    245
   756    512    566  1    245
   566    512    210  1    245
   566    210    244  1    245
   244    210    247  1    245
   508    550    209  1    245
   548    753    546  1    245
   546    753    560  1    245
   546    560    749  1    245
   546    749    544  1    245
   544    749    748  1    245
   544    748    752  1    245
   544    752    542  1    245
   542    752    540  1    245
   542    540    234  1    245
   540    752    751  1    245
   540    751    538  1    245
   538    751    536  1    245
   536    751    750  1    245
   536    750    554  1    245
   536    554    233  1    245
   233    554    238  1    245
   554    750    557  1    245
   557    750    748  1    245
   557    748    749  1    245
   557    749    560  1    245
   560    753    563  1    245
   516    216    212  1    246
   516    212    514  1    246
   516    514    213  1    246
   212    216    248  1    246
   239    240    225  1    247
   219    222    757  1    247
   219    757    758  1    247
   219    758    218  1    247
   218    758    245  1    247
   218    245    246  1    247
   245    758    573  1    247
   573    758    757  1    247
   573    757    576  1    247
   576    757    225  1    247
   576    225    240  1    247
   225    757    222  1    247
   534    231    532  1    248
   534    532    228  1    248
   532    231    227  1    248
   227    231    237  1    248
   759    760    761  1    249
   760    762    763  1    249
   761    760    763  1    249
   761    763    575  1    249
   761    575    578  1    249
   761    578    556  1    249
   761    556    759  1    249
   759    556    559  1    249
   759    559    562  1    249
   759    562    760  1    249
   760    562    565  1    249
   760    565    762  1    249
   762    565    568  1    249
   762    568    763  1    249
   763    568    243  1    249
   763    243    575  1    249
   556    578    242  1    249
