# MSMS solvent excluded surface faces for fragments/fragment78.xyzr
#faces  #sphere density probe_r
   1782      39  3.00  1.50
     1      5      2  3      3
     2      5      4  3      3
     5    262    261  3      5
   261    262    263  3      5
   261    263      6  3      5
     6    263    264  3      5
   262    265    263  3      5
   263    265    266  3      5
   263    266    264  3      5
   264    266    267  3      5
   265    268    266  3      5
   266    268    269  3      5
   266    269    267  3      5
   267    269    270  3      5
   268      8    269  3      5
   269      8    271  3      5
   269    271    270  3      5
   270    271      7  3      5
     8    274    272  3      7
   272    274    275  3      7
   272    275    273  3      7
   273    275    276  3      7
   273    276      9  3      7
     9    276    277  3      7
   274     11    275  3      7
   275     11    278  3      7
   275    278    276  3      7
   276    278    279  3      7
   276    279    277  3      7
   277    279     10  3      7
    11    281    280  3      9
   280    281    282  3      9
   280    282     12  3      9
    12    282    283  3      9
   281     14    282  3      9
   282     14    284  3      9
   282    284    283  3      9
   283    284     13  3      9
    14    285     15  3     11
    15    285    286  3     11
   285     17    286  3     11
   286     17     16  3     11
    17    288    287  3     12
   287    288    289  3     12
   287    289     18  3     12
    18    289    290  3     12
   288    291    289  3     12
   289    291    292  3     12
   289    292    290  3     12
   290    292    293  3     12
   291      1    292  3     12
   292      1    294  3     12
   292    294    293  3     12
   293    294      3  3     12
    18     20     16  3     14
    16     20     19  3     14
    20    296    295  3     16
   295    296    297  3     16
   295    297     21  3     16
    21    297    298  3     16
   296    299    297  3     16
   297    299    300  3     16
   297    300    298  3     16
   298    300    301  3     16
   299     23    300  3     16
   300     23    302  3     16
   300    302    301  3     16
   301    302     22  3     16
    23     26     24  3     18
    24     26     25  3     18
    26    304    303  3     20
   303    304    305  3     20
   303    305     27  3     20
    27    305    306  3     20
   304    307    305  3     20
   305    307    308  3     20
   305    308    306  3     20
   306    308    309  3     20
   307     29    308  3     20
   308     29    310  3     20
   308    310    309  3     20
   309    310     28  3     20
    29      3     30  3     21
    30      3      2  3     21
    30     32     28  3     23
    28     32     31  3     23
    32     35    311  3     25
   311     35    312  3     25
   311    312     33  3     25
    33    312     34  3     25
    35      4    313  3     26
   313      4    314  3     26
   313    314     36  3     26
    36    314      6  3     26
    36     38     34  3     28
    34     38     37  3     28
    38     41    315  3     30
   315     41    317  3     30
   315    317    316  3     30
   316    317    318  3     30
   316    318     39  3     30
    39    318     40  3     30
    41    322    319  3     32
   319    322    323  3     32
   319    323    320  3     32
   320    323    324  3     32
   320    324    321  3     32
   321    324    325  3     32
   321    325     42  3     32
    42    325    326  3     32
   322     44    323  3     32
   323     44    327  3     32
   323    327    324  3     32
   324    327    328  3     32
   324    328    325  3     32
   325    328    329  3     32
   325    329    326  3     32
   326    329     43  3     32
    44     47    330  3     34
   330     47    333  3     34
   330    333    331  3     34
   331    333    334  3     34
   331    334    332  3     34
   332    334    335  3     34
   332    335     45  3     34
    45    335     46  3     34
    47     50     48  3     36
    48     50     49  3     36
    50    337    336  3     37
   336    337    338  3     37
   336    338     51  3     37
    51    338    339  3     37
   337      7    338  3     37
   338      7    340  3     37
   338    340    339  3     37
   339    340      9  3     37
    51     53     49  3     39
    49     53     52  3     39
    53     56    341  3     41
   341     56    343  3     41
   341    343    342  3     41
   342    343    344  3     41
   342    344     54  3     41
    54    344     55  3     41
    56    347    345  3     43
   345    347    348  3     43
   345    348    346  3     43
   346    348    349  3     43
   346    349     57  3     43
    57    349    350  3     43
   347     59    348  3     43
   348     59    351  3     43
   348    351    349  3     43
   349    351    352  3     43
   349    352    350  3     43
   350    352     58  3     43
    59     62    353  3     45
   353     62    355  3     45
   353    355    354  3     45
   354    355    356  3     45
   354    356     60  3     45
    60    356     61  3     45
    62     65    357  3     47
   357     65    358  3     47
   357    358     63  3     47
    63    358     64  3     47
    65    360    359  3     49
   359    360    361  3     49
   359    361     66  3     49
    66    361    362  3     49
   360     68    361  3     49
   361     68    363  3     49
   361    363    362  3     49
   362    363     67  3     49
    68    366    364  3     50
   364    366    367  3     50
   364    367    365  3     50
   365    367    368  3     50
   365    368     69  3     50
    69    368    369  3     50
   366    370    367  3     50
   367    370    371  3     50
   367    371    368  3     50
   368    371    372  3     50
   368    372    369  3     50
   369    372    373  3     50
   370     10    371  3     50
   371     10    374  3     50
   371    374    372  3     50
   372    374    375  3     50
   372    375    373  3     50
   373    375     12  3     50
    69     71    376  3     52
   376     71    379  3     52
   376    379    377  3     52
   377    379    380  3     52
   377    380    378  3     52
   378    380    381  3     52
   378    381     67  3     52
    67    381     70  3     52
    71     74    382  3     54
   382     74    385  3     54
   382    385    383  3     54
   383    385    386  3     54
   383    386    384  3     54
   384    386    387  3     54
   384    387     72  3     54
    72    387     73  3     54
    74     77    388  3     56
   388     77    389  3     56
   388    389     75  3     56
    75    389     76  3     56
    77     22     78  3     57
    78     22     24  3     57
    78     25     76  3     58
    76     25     27  3     58
    75     80    390  3     60
   390     80    391  3     60
   390    391     73  3     60
    73    391     79  3     60
    80     83    392  3     62
   392     83    393  3     62
   392    393     81  3     62
    81    393     82  3     62
    83     86    394  3     64
   394     86    395  3     64
   394    395     84  3     64
    84    395     85  3     64
    86     89    396  3     66
   396     89    400  3     66
   396    400    397  3     66
   397    400    401  3     66
   397    401    398  3     66
   398    401    402  3     66
   398    402    399  3     66
   399    402    403  3     66
   399    403     87  3     66
    87    403     88  3     66
    89     92    404  3     68
   404     92    407  3     68
   404    407    405  3     68
   405    407    408  3     68
   405    408    406  3     68
   406    408    409  3     68
   406    409     90  3     68
    90    409     91  3     68
    92     31     93  3     69
    93     31     33  3     69
    93     37    410  3     70
   410     37    412  3     70
   410    412    411  3     70
   411    412    413  3     70
   411    413     91  3     70
    91    413     39  3     70
    90     40     88  3     71
    88     40     42  3     71
    87    416    414  3     73
   414    416    417  3     73
   414    417    415  3     73
   415    417    418  3     73
   415    418     85  3     73
    85    418    419  3     73
   416     95    417  3     73
   417     95    420  3     73
   417    420    418  3     73
   418    420    421  3     73
   418    421    419  3     73
   419    421     94  3     73
    95     98    422  3     75
   422     98    423  3     75
   422    423     96  3     75
    96    423     97  3     75
    98    101     99  3     77
    99    101    100  3     77
   101    104    102  3     79
   102    104    103  3     79
   104    424    105  3     81
   105    424    425  3     81
   424    426    425  3     81
   425    426    427  3     81
   426    428    427  3     81
   427    428    429  3     81
   428    430    429  3     81
   429    430    431  3     81
   430    432    431  3     81
   431    432    433  3     81
   432    434    433  3     81
   433    434    435  3     81
   434    436    435  3     81
   435    436    437  3     81
   436    438    437  3     81
   437    438    439  3     81
   438    107    439  3     81
   439    107    106  3     81
   107    110    108  3     83
   108    110    109  3     83
   110    113    111  3     85
   111    113    112  3     85
   113    116    440  3     87
   440    116    441  3     87
   440    441    114  3     87
   114    441    115  3     87
   116     43    442  3     88
   442     43    443  3     88
   442    443    117  3     88
   117    443     45  3     88
   117    444    115  3     90
   115    444    445  3     90
   444    119    445  3     90
   445    119    118  3     90
   119     46    446  3     91
   446     46    448  3     91
   446    448    447  3     91
   447    448    449  3     91
   447    449    120  3     91
   120    449     48  3     91
   120    122    450  3     93
   450    122    452  3     93
   450    452    451  3     93
   451    452    453  3     93
   451    453    118  3     93
   118    453    121  3     93
   122     52    454  3     94
   454     52    456  3     94
   454    456    455  3     94
   455    456    457  3     94
   455    457    123  3     94
   123    457     54  3     94
   123    458    121  3     96
   121    458    459  3     96
   458    125    459  3     96
   459    125    124  3     96
   125    128    460  3     98
   460    128    461  3     98
   460    461    126  3     98
   126    461    127  3     98
   128    462    129  3    100
   129    462    463  3    100
   462    464    463  3    100
   463    464    465  3    100
   464    131    465  3    100
   465    131    130  3    100
   131    466    132  3    102
   132    466    467  3    102
   466    134    467  3    102
   467    134    133  3    102
   134    137    135  3    104
   135    137    136  3    104
   137     61    468  3    105
   468     61    469  3    105
   468    469    138  3    105
   138    469     63  3    105
   138    140    136  3    107
   136    140    139  3    107
   140    470    141  3    109
   141    470    471  3    109
   470    143    471  3    109
   471    143    142  3    109
   143    472    144  3    111
   144    472    473  3    111
   472    474    473  3    111
   473    474    475  3    111
   474    146    475  3    111
   475    146    145  3    111
   146     94    476  3    112
   476     94    477  3    112
   476    477    147  3    112
   147    477     96  3    112
   147    478    145  3    114
   145    478    479  3    114
   478    480    479  3    114
   479    480    481  3    114
   480    149    481  3    114
   481    149    148  3    114
   149    482    150  3    116
   150    482    483  3    116
   482    484    483  3    116
   483    484    485  3    116
   484    152    485  3    116
   485    152    151  3    116
   152     97    486  3    117
   486     97    487  3    117
   486    487    153  3    117
   153    487     99  3    117
   153    488    151  3    119
   151    488    489  3    119
   488    155    489  3    119
   489    155    154  3    119
   155    158    156  3    121
   156    158    157  3    121
   158    161    159  3    123
   159    161    160  3    123
   161    164    162  3    125
   162    164    163  3    125
   164    490    165  3    126
   165    490    491  3    126
   490    100    491  3    126
   491    100    102  3    126
   165    492    163  3    128
   163    492    493  3    128
   492    494    493  3    128
   493    494    495  3    128
   494    167    495  3    128
   495    167    166  3    128
   167    170    168  3    130
   168    170    169  3    130
   170    496    171  3    131
   171    496    497  3    131
   496    103    497  3    131
   497    103    105  3    131
   171    173    498  3    133
   498    173    499  3    133
   498    499    169  3    133
   169    499    172  3    133
   173    501    500  3    135
   500    501    502  3    135
   500    502    174  3    135
   174    502    503  3    135
   501    504    502  3    135
   502    504    505  3    135
   502    505    503  3    135
   503    505    506  3    135
   504    507    505  3    135
   505    507    508  3    135
   505    508    506  3    135
   506    508    509  3    135
   507    176    508  3    135
   508    176    510  3    135
   508    510    509  3    135
   509    510    175  3    135
   176    179    511  3    137
   511    179    512  3    137
   511    512    177  3    137
   177    512    178  3    137
   179    106    180  3    138
   180    106    108  3    138
   180    182    178  3    140
   178    182    181  3    140
   182    513    183  3    142
   183    513    514  3    142
   513    515    514  3    142
   514    515    516  3    142
   515    185    516  3    142
   516    185    184  3    142
   185    517    186  3    143
   186    517    518  3    143
   517    109    518  3    143
   518    109    111  3    143
   186    188    184  3    145
   184    188    187  3    145
   188    191    189  3    147
   189    191    190  3    147
   191    194    192  3    149
   192    194    193  3    149
   194    521    519  3    151
   519    521    522  3    151
   519    522    520  3    151
   520    522    523  3    151
   520    523    195  3    151
   195    523    524  3    151
   521    197    522  3    151
   522    197    525  3    151
   522    525    523  3    151
   523    525    526  3    151
   523    526    524  3    151
   524    526    196  3    151
   197    112    527  3    152
   527    112    528  3    152
   527    528    198  3    152
   198    528    114  3    152
   198    529    196  3    154
   196    529    530  3    154
   529    531    530  3    154
   530    531    532  3    154
   531    533    532  3    154
   532    533    534  3    154
   533    200    534  3    154
   534    200    199  3    154
   200    124    201  3    155
   201    124    126  3    155
   201    535    199  3    157
   199    535    536  3    157
   535    537    536  3    157
   536    537    538  3    157
   537    539    538  3    157
   538    539    540  3    157
   539    541    540  3    157
   540    541    542  3    157
   541    203    542  3    157
   542    203    202  3    157
   203    206    543  3    159
   543    206    546  3    159
   543    546    544  3    159
   544    546    547  3    159
   544    547    545  3    159
   545    547    548  3    159
   545    548    204  3    159
   204    548    205  3    159
   206    209    549  3    161
   549    209    550  3    161
   549    550    207  3    161
   207    550    208  3    161
   209    212    551  3    163
   551    212    552  3    163
   551    552    210  3    163
   210    552    211  3    163
   212    215    213  3    165
   213    215    214  3    165
   215    218    553  3    167
   553    218    554  3    167
   553    554    216  3    167
   216    554    217  3    167
   218    556    555  3    168
   555    556    557  3    168
   555    557    219  3    168
   219    557    558  3    168
   556    559    557  3    168
   557    559    560  3    168
   557    560    558  3    168
   558    560    561  3    168
   559    127    560  3    168
   560    127    562  3    168
   560    562    561  3    168
   561    562    129  3    168
   219    563    217  3    169
   217    563    564  3    169
   563    565    564  3    169
   564    565    566  3    169
   565    567    566  3    169
   566    567    568  3    169
   567    130    568  3    169
   568    130    132  3    169
   216    221    569  3    171
   569    221    570  3    171
   569    570    214  3    171
   214    570    220  3    171
   221    224    571  3    173
   571    224    572  3    173
   571    572    222  3    173
   222    572    223  3    173
   224    227    225  3    175
   225    227    226  3    175
   227    574    573  3    177
   573    574    575  3    177
   573    575    228  3    177
   228    575    576  3    177
   574    230    575  3    177
   575    230    577  3    177
   575    577    576  3    177
   576    577    229  3    177
   230    233    578  3    179
   578    233    579  3    179
   578    579    231  3    179
   231    579    232  3    179
   233    133    580  3    180
   580    133    581  3    180
   580    581    234  3    180
   234    581    135  3    180
   234    139    232  3    181
   232    139    141  3    181
   231    582    229  3    182
   229    582    583  3    182
   582    142    583  3    182
   583    142    144  3    182
   228    236    226  3    184
   226    236    235  3    184
   236    148    237  3    185
   237    148    150  3    185
   237    223    235  3    186
   235    223    225  3    186
   222    211    220  3    187
   220    211    213  3    187
   210    239    208  3    189
   208    239    238  3    189
   239    585    584  3    190
   584    585    586  3    190
   584    586    240  3    190
   240    586    587  3    190
   585    154    586  3    190
   586    154    588  3    190
   586    588    587  3    190
   587    588    156  3    190
   240    590    589  3    191
   589    590    591  3    191
   589    591    238  3    191
   238    591    592  3    191
   590    205    591  3    191
   591    205    593  3    191
   591    593    592  3    191
   592    593    207  3    191
   204    193    594  3    192
   594    193    596  3    192
   594    596    595  3    192
   595    596    597  3    192
   595    597    202  3    192
   202    597    195  3    192
   192    598    190  3    193
   190    598    599  3    193
   598    600    599  3    193
   599    600    601  3    193
   600    602    601  3    193
   601    602    603  3    193
   602    604    603  3    193
   603    604    605  3    193
   604    606    605  3    193
   605    606    607  3    193
   606    608    607  3    193
   607    608    609  3    193
   608    610    609  3    193
   609    610    611  3    193
   610    612    611  3    193
   611    612    613  3    193
   612    157    613  3    193
   613    157    159  3    193
   189    242    187  3    195
   187    242    241  3    195
   242    614    243  3    197
   243    614    615  3    197
   614    616    615  3    197
   615    616    617  3    197
   616    618    617  3    197
   617    618    619  3    197
   618    620    619  3    197
   619    620    621  3    197
   620    622    621  3    197
   621    622    623  3    197
   622    624    623  3    197
   623    624    625  3    197
   624    626    625  3    197
   625    626    627  3    197
   626    628    627  3    197
   627    628    629  3    197
   628    245    629  3    197
   629    245    244  3    197
   245    160    246  3    198
   246    160    162  3    198
   246    630    244  3    200
   244    630    631  3    200
   630    248    631  3    200
   631    248    247  3    200
   248    251    249  3    202
   249    251    250  3    202
   251    632    252  3    203
   252    632    633  3    203
   632    634    633  3    203
   633    634    635  3    203
   634    636    635  3    203
   635    636    637  3    203
   636    166    637  3    203
   637    166    168  3    203
   252    638    250  3    205
   250    638    639  3    205
   638    640    639  3    205
   639    640    641  3    205
   640    642    641  3    205
   641    642    643  3    205
   642    644    643  3    205
   643    644    645  3    205
   644    646    645  3    205
   645    646    647  3    205
   646    254    647  3    205
   647    254    253  3    205
   254    257    648  3    207
   648    257    649  3    207
   648    649    255  3    207
   255    649    256  3    207
   257    650    258  3    208
   258    650    651  3    208
   650    652    651  3    208
   651    652    653  3    208
   652    654    653  3    208
   653    654    655  3    208
   654    181    655  3    208
   655    181    183  3    208
   258    656    256  3    209
   256    656    657  3    209
   656    241    657  3    209
   657    241    243  3    209
   255    659    658  3    210
   658    659    660  3    210
   658    660    253  3    210
   253    660    661  3    210
   659    662    660  3    210
   660    662    663  3    210
   660    663    661  3    210
   661    663    664  3    210
   662    247    663  3    210
   663    247    665  3    210
   663    665    664  3    210
   664    665    249  3    210
   177    666    175  3    211
   175    666    667  3    211
   666    668    667  3    211
   667    668    669  3    211
   668    670    669  3    211
   669    670    671  3    211
   670    672    671  3    211
   671    672    673  3    211
   672    674    673  3    211
   673    674    675  3    211
   674    172    675  3    211
   675    172    174  3    211
    84    676     82  3    212
    82    676    677  3    212
   676    678    677  3    212
   677    678    679  3    212
   678    680    679  3    212
   679    680    681  3    212
   680     79    681  3    212
   681     79     81  3    212
    72    682     70  3    213
    70    682    683  3    213
   682    684    683  3    213
   683    684    685  3    213
   684     64    685  3    213
   685     64     66  3    213
    60    686     58  3    214
    58    686    687  3    214
   686    688    687  3    214
   687    688    689  3    214
   688     55    689  3    214
   689     55     57  3    214
    21     13     19  3    215
    19     13     15  3    215
   259    690    260  3    216
   260    690    691  3    216
   690    692    691  3    216
   691    692    693  3    216
   692    694    693  3    216
   693    694    695  3    216
   694    696    695  3    216
   695    696    697  3    216
   696    698    697  3    216
   697    698    699  3    216
   698    259    699  3    216
   699    259    260  3    216
   294      1      2  2      1
   294      2      3  2      1
   314      4      5  2      2
   314      5    261  2      2
   314    261      6  2      2
   340      7    271  2      4
   340    271    273  2      4
   340    273      9  2      4
   273    271    272  2      4
   272    271      8  2      4
   374     10    279  2      6
   374    279    700  2      6
   374    700    375  2      6
   375    700    280  2      6
   375    280     12  2      6
   280    700    278  2      6
   280    278     11  2      6
   278    700    279  2      6
    15     13    284  2      8
    15    284     14  2      8
    18     16    287  2     10
   287     16     17  2     10
    21     19    295  2     13
   295     19     20  2     13
    24     22    302  2     15
    24    302     23  2     15
    27     25    303  2     17
   303     25     26  2     17
    30     28    310  2     19
    30    310     29  2     19
    33     31    311  2     22
   311     31     32  2     22
    36     34    313  2     24
   313     34    312  2     24
   313    312     35  2     24
   412     37    315  2     27
   412    315    316  2     27
   412    316    413  2     27
   413    316     39  2     27
   315     37     38  2     27
    42     40    321  2     29
   321     40    318  2     29
   321    318    320  2     29
   320    318    317  2     29
   320    317    319  2     29
   319    317     41  2     29
   702    701    703  2     31
   443     43    702  2     31
   443    702    703  2     31
   443    703     45  2     31
    45    703    332  2     31
   332    703    701  2     31
   332    701    331  2     31
   331    701    330  2     31
   330    701    327  2     31
   330    327     44  2     31
   327    701    328  2     31
   328    701    702  2     31
   328    702    329  2     31
   329    702     43  2     31
   448     46    335  2     33
   448    335    334  2     33
   448    334    449  2     33
   449    334    333  2     33
   449    333     48  2     33
    48    333     47  2     33
    51     49    336  2     35
   336     49     50  2     35
   456     52    341  2     38
   456    341    342  2     38
   456    342    457  2     38
   457    342     54  2     38
   341     52     53  2     38
    57     55    344  2     40
    57    344    346  2     40
   346    344    343  2     40
   346    343    345  2     40
   345    343     56  2     40
    60     58    354  2     42
   354     58    352  2     42
   354    352    353  2     42
   353    352    351  2     42
   353    351     59  2     42
   469     61    356  2     44
   469    356     63  2     44
    63    356    355  2     44
    63    355    357  2     44
   357    355     62  2     44
    66     64    358  2     46
    66    358    359  2     46
   359    358     65  2     46
   378     67    363  2     48
   378    363    705  2     48
   378    705    377  2     48
   377    705    704  2     48
   377    704    376  2     48
   376    704    365  2     48
   376    365     69  2     48
   365    704    364  2     48
   364    704     68  2     48
    68    704    705  2     48
    68    705    363  2     48
    72     70    381  2     51
    72    381    384  2     51
   384    381    380  2     51
   384    380    383  2     51
   383    380    379  2     51
   383    379    382  2     51
   382    379     71  2     51
   390     73    387  2     53
   390    387    386  2     53
   390    386     75  2     53
    75    386    385  2     53
    75    385    388  2     53
   388    385     74  2     53
    78     76    389  2     55
    78    389     77  2     55
    81     79    392  2     59
   392     79    391  2     59
   392    391     80  2     59
    84     82    393  2     61
    84    393    394  2     61
   394    393     83  2     61
   415     85    397  2     63
   415    397    398  2     63
   415    398    414  2     63
   414    398    399  2     63
   414    399     87  2     63
   397     85    395  2     63
   397    395    396  2     63
   396    395     86  2     63
    90     88    403  2     65
    90    403    406  2     65
   406    403    402  2     65
   406    402    405  2     65
   405    402    401  2     65
   405    401    404  2     65
   404    401    400  2     65
   404    400     89  2     65
   411     91    409  2     67
   411    409    408  2     67
   411    408    410  2     67
   410    408    407  2     67
   410    407     93  2     67
    93    407     92  2     67
   477     94    421  2     72
   477    421    422  2     72
   477    422     96  2     72
   422    421    420  2     72
   422    420     95  2     72
   487     97    423  2     74
   487    423     98  2     74
   487     98     99  2     74
   102    100    101  2     76
   105    103    104  2     78
   108    106    107  2     80
   111    109    110  2     82
   528    112    113  2     84
   528    113    440  2     84
   528    440    114  2     84
   117    115    442  2     86
   442    115    441  2     86
   442    441    116  2     86
   451    118    119  2     89
   451    119    446  2     89
   451    446    450  2     89
   450    446    447  2     89
   450    447    120  2     89
   123    121    453  2     92
   123    453    455  2     92
   455    453    452  2     92
   455    452    454  2     92
   454    452    122  2     92
   126    124    460  2     95
   460    124    125  2     95
   562    127    461  2     97
   562    461    128  2     97
   562    128    129  2     97
   132    130    131  2     99
   581    133    134  2    101
   581    134    135  2    101
   138    136    468  2    103
   468    136    137  2    103
   141    139    140  2    106
   144    142    143  2    108
   147    145    476  2    110
   476    145    146  2    110
   150    148    149  2    113
   153    151    486  2    115
   486    151    152  2    115
   588    154    155  2    118
   588    155    156  2    118
   159    157    158  2    120
   162    160    161  2    122
   165    163    164  2    124
   168    166    167  2    127
   498    169    170  2    129
   498    170    171  2    129
   174    172    499  2    132
   174    499    500  2    132
   500    499    173  2    132
   177    175    511  2    134
   511    175    510  2    134
   511    510    176  2    134
   180    178    512  2    136
   180    512    179  2    136
   183    181    182  2    139
   186    184    185  2    141
   189    187    188  2    144
   192    190    191  2    146
   596    193    194  2    148
   596    194    519  2    148
   596    519    597  2    148
   597    519    520  2    148
   597    520    195  2    148
   198    196    526  2    150
   198    526    527  2    150
   527    526    525  2    150
   527    525    197  2    150
   201    199    200  2    153
   595    202    543  2    156
   595    543    544  2    156
   595    544    594  2    156
   594    544    545  2    156
   594    545    204  2    156
   543    202    203  2    156
   593    205    548  2    158
   593    548    207  2    158
   207    548    547  2    158
   207    547    549  2    158
   549    547    546  2    158
   549    546    206  2    158
   210    208    550  2    160
   210    550    551  2    160
   551    550    209  2    160
   213    211    552  2    162
   213    552    212  2    162
   569    214    553  2    164
   569    553    216  2    164
   553    214    215  2    164
   219    217    554  2    166
   219    554    555  2    166
   555    554    218  2    166
   222    220    571  2    170
   571    220    570  2    170
   571    570    221  2    170
   225    223    572  2    172
   225    572    224  2    172
   228    226    573  2    174
   573    226    227  2    174
   231    229    578  2    176
   578    229    577  2    176
   578    577    230  2    176
   234    232    579  2    178
   234    579    580  2    178
   580    579    233  2    178
   237    235    236  2    183
   589    238    584  2    188
   589    584    240  2    188
   584    238    239  2    188
   243    241    242  2    194
   246    244    245  2    196
   665    247    248  2    199
   665    248    249  2    199
   252    250    251  2    201
   658    253    254  2    204
   658    254    648  2    204
   658    648    255  2    204
   258    256    649  2    206
   258    649    257  2    206
   706    707    708  1    217
   706    708    709  1    217
   706    709    710  1    217
   706    710    711  1    217
   706    711    712  1    217
   706    712    707  1    217
   708    707    714  1    217
   709    708    715  1    217
   709    715    716  1    217
   707    712    717  1    217
   707    717    713  1    217
   707    713    714  1    217
   714    713      8  1    217
   714      8    268  1    217
   714    268    708  1    217
   708    268    265  1    217
   708    265    715  1    217
   715    265    262  1    217
   715    262    716  1    217
   716    262    291  1    217
   716    291    288  1    217
   716    288    710  1    217
   716    710    709  1    217
   710    288     17  1    217
   710     17    285  1    217
   710    285    711  1    217
   711    285     14  1    217
   711     14    712  1    217
   712     14    281  1    217
   712    281    717  1    217
   717    281     11  1    217
   717     11    274  1    217
   717    274    713  1    217
   713    274      8  1    217
   291    262      1  1    217
     1    262      5  1    217
     4     35      2  1    218
     2     35     30  1    218
    30     35     32  1    218
   718    719    720  1    219
   718    720    721  1    219
   719    723    724  1    219
   720    719    724  1    219
   720    724    725  1    219
   721    720    725  1    219
   721    725    726  1    219
   722    721    726  1    219
   722    726    727  1    219
   722    727    728  1    219
   722    728    264  1    219
   722    264    267  1    219
   722    267    721  1    219
   721    267    718  1    219
   718    267    270  1    219
   718    270    719  1    219
   719    270      7  1    219
   719      7    337  1    219
   719    337    723  1    219
   723    337     50  1    219
   723     50     47  1    219
   723     47    724  1    219
   724     47     44  1    219
   724     44    725  1    219
   725     44    322  1    219
   725    322    726  1    219
   726    322    727  1    219
   727    322     41  1    219
   727     41    728  1    219
   728     41     36  1    219
   728     36      6  1    219
   728      6    264  1    219
    36     41     38  1    219
   729    733    730  1    220
   729    730    731  1    220
   731    730    735  1    220
   732    736    737  1    220
   733    732    737  1    220
   733    737    738  1    220
   730    733    738  1    220
   730    738    734  1    220
   730    734    735  1    220
   737    736    739  1    220
   737    739    740  1    220
   738    737    740  1    220
   734    738    740  1    220
   734    740    347  1    220
   734    347    735  1    220
   735    347     56  1    220
   735     56     51  1    220
   735     51    731  1    220
   731     51    339  1    220
   731    339    729  1    220
   729    339      9  1    220
   729      9    277  1    220
   729    277    733  1    220
   733    277    732  1    220
   732    277     10  1    220
   732     10    370  1    220
   732    370    736  1    220
   736    370    366  1    220
   736    366    360  1    220
   736    360    739  1    220
   739    360     65  1    220
   739     65    740  1    220
   740     65     59  1    220
   740     59    347  1    220
    59     65     62  1    220
   360    366     68  1    220
    51     56     53  1    220
   741    743    744  1    221
   742    741    744  1    221
   742    744    745  1    221
   742    745    746  1    221
   743    747    748  1    221
   744    743    748  1    221
   744    748    749  1    221
   745    744    749  1    221
   745    749    750  1    221
   746    745    750  1    221
   746    750    751  1    221
   747    752    753  1    221
   748    747    753  1    221
   748    753    754  1    221
   749    748    754  1    221
   749    754    755  1    221
   750    749    755  1    221
   753    752    756  1    221
   753    756    757  1    221
   754    753    757  1    221
   754    757    758  1    221
   755    754    758  1    221
   755    758    759  1    221
   757    756    760  1    221
   757    760    758  1    221
   758    760     74  1    221
   758     74    759  1    221
   759     74     71  1    221
   759     71     69  1    221
   759     69    369  1    221
   759    369    755  1    221
   755    369    751  1    221
   755    751    750  1    221
   751    369    373  1    221
   751    373     12  1    221
   751     12    746  1    221
   746     12    283  1    221
   746    283    742  1    221
   742    283     13  1    221
   742     13    741  1    221
   741     13     21  1    221
   741     21    743  1    221
   743     21    298  1    221
   743    298    747  1    221
   747    298    752  1    221
   752    298    301  1    221
   752    301    756  1    221
   756    301     22  1    221
   756     22    760  1    221
   760     22     77  1    221
   760     77     74  1    221
    16     19    286  1    222
   286     19     15  1    222
   761    763    764  1    223
   762    766    767  1    223
   762    767    768  1    223
   763    762    768  1    223
   763    768    769  1    223
   764    763    769  1    223
   764    769    770  1    223
   765    764    770  1    223
   765    770    771  1    223
   766    772    773  1    223
   767    766    773  1    223
   767    773    774  1    223
   768    767    774  1    223
   768    774    775  1    223
   769    768    775  1    223
   769    775    776  1    223
   770    769    776  1    223
   770    776    777  1    223
   771    770    777  1    223
   773    772    778  1    223
   774    773    778  1    223
   774    778    779  1    223
   775    774    779  1    223
   775    779    780  1    223
   776    775    780  1    223
   776    780    781  1    223
   777    776    781  1    223
   780    779    782  1    223
   780    782    781  1    223
   781    782     26  1    223
   781     26     23  1    223
   781     23    299  1    223
   781    299    777  1    223
   777    299    771  1    223
   771    299    296  1    223
   771    296    765  1    223
   765    296     20  1    223
   765     20    761  1    223
   765    761    764  1    223
   761     20     18  1    223
   761     18    290  1    223
   761    290    762  1    223
   761    762    763  1    223
   762    290    293  1    223
   762    293    766  1    223
   766    293      3  1    223
   766      3    772  1    223
   772      3     29  1    223
   772     29    307  1    223
   772    307    778  1    223
   778    307    304  1    223
   778    304    782  1    223
   778    782    779  1    223
   782    304     26  1    223
    25     78     24  1    224
    28     31     92  1    225
    28     92    309  1    225
   309     92     89  1    225
   309     89     86  1    225
   309     86     83  1    225
   309     83    306  1    225
   306     83     27  1    225
    27     83     80  1    225
    27     80     76  1    225
    76     80     75  1    225
    34     37     33  1    226
    33     37     93  1    226
    40     90     91  1    227
    40     91     39  1    227
   788    789    790  1    228
   790    789    791  1    228
   790    791    792  1    228
   792    791    793  1    228
   792    793     95  1    228
   792     95    416  1    228
   792    416    790  1    228
   790    416     87  1    228
   790     87    788  1    228
   788     87     88  1    228
   788     88    787  1    228
   788    787    428  1    228
   788    428    426  1    228
   788    426    789  1    228
   789    426    424  1    228
   789    424    791  1    228
   791    424    104  1    228
   791    104    793  1    228
   793    104    101  1    228
   793    101     98  1    228
   793     98     95  1    228
   428    787    430  1    228
   430    787    785  1    228
   430    785    432  1    228
   432    785    783  1    228
   432    783    434  1    228
   434    783    436  1    228
   436    783    784  1    228
   436    784    438  1    228
   438    784    786  1    228
   438    786    107  1    228
   107    786    110  1    228
   110    786    113  1    228
   113    786    116  1    228
   116    786    784  1    228
   116    784     43  1    228
    43    784    326  1    228
   326    784    783  1    228
   326    783     42  1    228
    42    783    785  1    228
    42    785    787  1    228
    42    787     88  1    228
    46    119    444  1    229
    46    444     45  1    229
    45    444    117  1    229
    49     52    122  1    230
    49    122    120  1    230
    49    120     48  1    230
   686     60    794  1    231
   686    794    131  1    231
   686    131    464  1    231
   686    464    688  1    231
   688    464    462  1    231
   688    462    128  1    231
   688    128    125  1    231
   688    125    458  1    231
   688    458     55  1    231
    55    458    123  1    231
    55    123     54  1    231
   131    794    466  1    231
   466    794    137  1    231
   466    137    134  1    231
   137    794     61  1    231
    61    794     60  1    231
   689     57    350  1    232
   689    350    687  1    232
   687    350     58  1    232
   796    795    797  1    233
   796    797    798  1    233
   796    798    682  1    233
   796    682     72  1    233
   796     72     73  1    233
   796     73    795  1    233
   795     73     79  1    233
   795     79    680  1    233
   795    680    797  1    233
   797    680    472  1    233
   797    472    143  1    233
   797    143    798  1    233
   798    143    470  1    233
   798    470    682  1    233
   682    470    140  1    233
   682    140    684  1    233
   684    140    138  1    233
   684    138     64  1    233
    64    138     63  1    233
   472    680    474  1    233
   474    680    678  1    233
   474    678    146  1    233
   146    678    676  1    233
   146    676     94  1    233
    94    676    419  1    233
   419    676     84  1    233
   419     84     85  1    233
    67     70    683  1    234
    67    683    362  1    234
   362    683    799  1    234
   362    799     66  1    234
    66    799    685  1    234
   685    799    683  1    234
   681     81    800  1    235
   681    800    679  1    235
   679    800    677  1    235
   677    800     82  1    235
    82    800     81  1    235
    97    152    801  1    236
    97    801     96  1    236
    96    801    147  1    236
   147    801    478  1    236
   478    801    802  1    236
   478    802    480  1    236
   480    802    482  1    236
   480    482    149  1    236
   482    802    484  1    236
   484    802    801  1    236
   484    801    152  1    236
   164    161    490  1    237
   490    161    803  1    237
   490    803    100  1    237
   100    803    153  1    237
   100    153     99  1    237
   153    803    488  1    237
   488    803    158  1    237
   488    158    155  1    237
   158    803    161  1    237
   496    170    167  1    238
   496    167    494  1    238
   496    494    103  1    238
   103    494    492  1    238
   103    492    491  1    238
   103    491    102  1    238
   491    492    165  1    238
   808    807    809  1    239
   808    809    429  1    239
   808    429    431  1    239
   808    431    806  1    239
   808    806    807  1    239
   807    806    504  1    239
   807    504    501  1    239
   807    501    809  1    239
   809    501    173  1    239
   809    173    810  1    239
   809    810    427  1    239
   809    427    429  1    239
   427    810    425  1    239
   425    810    497  1    239
   425    497    105  1    239
   497    810    171  1    239
   171    810    173  1    239
   504    806    805  1    239
   504    805    507  1    239
   507    805    804  1    239
   507    804    176  1    239
   176    804    179  1    239
   179    804    439  1    239
   179    439    106  1    239
   439    804    437  1    239
   437    804    435  1    239
   435    804    805  1    239
   435    805    433  1    239
   433    805    806  1    239
   433    806    431  1    239
   517    185    515  1    240
   517    515    811  1    240
   517    811    109  1    240
   109    811    108  1    240
   108    811    513  1    240
   108    513    182  1    240
   108    182    180  1    240
   513    811    515  1    240
   112    197    111  1    241
   111    197    518  1    241
   518    197    521  1    241
   518    521    186  1    241
   186    521    191  1    241
   186    191    188  1    241
   191    521    194  1    241
   445    118    533  1    242
   445    533    531  1    242
   445    531    529  1    242
   445    529    115  1    242
   115    529    114  1    242
   114    529    198  1    242
   533    118    459  1    242
   533    459    200  1    242
   200    459    124  1    242
   459    118    121  1    242
   201    126    535  1    243
   556    218    814  1    243
   556    814    813  1    243
   556    813    812  1    243
   556    812    559  1    243
   559    812    535  1    243
   559    535    127  1    243
   127    535    126  1    243
   535    812    537  1    243
   537    812    539  1    243
   539    812    813  1    243
   539    813    541  1    243
   541    813    814  1    243
   541    814    203  1    243
   203    814    206  1    243
   206    814    209  1    243
   209    814    218  1    243
   209    218    212  1    243
   212    218    215  1    243
   815    816    818  1    244
   815    818    817  1    244
   817    818    819  1    244
   819    818    565  1    244
   819    565    563  1    244
   819    563    558  1    244
   819    558    817  1    244
   817    558    561  1    244
   817    561    815  1    244
   815    561    129  1    244
   815    129    463  1    244
   815    463    465  1    244
   815    465    816  1    244
   816    465    130  1    244
   816    130    567  1    244
   816    567    818  1    244
   818    567    565  1    244
   558    563    219  1    244
   221    216    224  1    245
   821    820    822  1    245
   821    822    823  1    245
   823    822    825  1    245
   824    823    825  1    245
   824    825    826  1    245
   826    825    574  1    245
   826    574    227  1    245
   826    227    224  1    245
   826    224    216  1    245
   826    216    217  1    245
   826    217    824  1    245
   824    217    564  1    245
   824    564    823  1    245
   823    564    566  1    245
   823    566    821  1    245
   821    566    568  1    245
   821    568    467  1    245
   821    467    820  1    245
   820    467    133  1    245
   820    133    233  1    245
   820    233    230  1    245
   820    230    822  1    245
   822    230    574  1    245
   822    574    825  1    245
   467    568    132  1    245
   136    139    135  1    246
   135    139    234  1    246
   582    231    828  1    247
   582    828    827  1    247
   582    827    142  1    247
   142    827    471  1    247
   471    827    828  1    247
   471    828    141  1    247
   141    828    232  1    247
   232    828    231  1    247
   481    148    831  1    248
   481    831    583  1    248
   481    583    830  1    248
   481    830    479  1    248
   479    830    829  1    248
   479    829    475  1    248
   479    475    145  1    248
   475    829    473  1    248
   473    829    830  1    248
   473    830    144  1    248
   144    830    583  1    248
   583    831    576  1    248
   583    576    229  1    248
   576    831    228  1    248
   228    831    148  1    248
   228    148    236  1    248
   489    154    485  1    249
   489    485    151  1    249
   485    154    483  1    249
   483    154    585  1    249
   483    585    150  1    249
   150    585    239  1    249
   150    239    223  1    249
   150    223    237  1    249
   223    239    222  1    249
   222    239    210  1    249
   222    210    211  1    249
   598    192    193  1    250
   598    193    204  1    250
   598    204    600  1    250
   600    204    832  1    250
   600    832    602  1    250
   602    832    604  1    250
   604    832    833  1    250
   604    833    606  1    250
   606    833    240  1    250
   606    240    608  1    250
   608    240    587  1    250
   608    587    610  1    250
   610    587    612  1    250
   612    587    156  1    250
   612    156    157  1    250
   240    833    590  1    250
   590    833    205  1    250
   205    833    832  1    250
   205    832    204  1    250
   834    836    837  1    251
   835    838    839  1    251
   836    835    839  1    251
   836    839    840  1    251
   837    836    840  1    251
   837    840    841  1    251
   838    842    843  1    251
   839    838    843  1    251
   839    843    844  1    251
   840    839    844  1    251
   840    844    845  1    251
   841    840    845  1    251
   841    845    846  1    251
   847    851    852  1    251
   848    847    852  1    251
   848    852    853  1    251
   849    848    853  1    251
   849    853    854  1    251
   852    851    856  1    251
   852    856    857  1    251
   853    852    857  1    251
   854    853    857  1    251
   854    857    692  1    251
   854    692    855  1    251
   854    855    609  1    251
   854    609    611  1    251
   854    611    849  1    251
   849    611    613  1    251
   849    613    159  1    251
   849    159    848  1    251
   848    159    160  1    251
   848    160    245  1    251
   848    245    847  1    251
   847    245    628  1    251
   847    628    851  1    251
   851    628    626  1    251
   851    626    624  1    251
   851    624    856  1    251
   856    624    850  1    251
   856    850    694  1    251
   856    694    857  1    251
   857    694    692  1    251
   694    850    696  1    251
   696    850    622  1    251
   696    622    620  1    251
   696    620    846  1    251
   696    846    698  1    251
   698    846    845  1    251
   698    845    844  1    251
   698    844    259  1    251
   259    844    843  1    251
   259    843    842  1    251
   259    842    690  1    251
   690    842    605  1    251
   690    605    607  1    251
   690    607    855  1    251
   690    855    692  1    251
   855    607    609  1    251
   605    842    603  1    251
   603    842    601  1    251
   601    842    838  1    251
   601    838    835  1    251
   601    835    599  1    251
   599    835    190  1    251
   190    835    836  1    251
   190    836    834  1    251
   190    834    189  1    251
   189    834    242  1    251
   242    834    837  1    251
   242    837    614  1    251
   614    837    841  1    251
   614    841    616  1    251
   616    841    846  1    251
   616    846    618  1    251
   618    846    620  1    251
   622    850    624  1    251
   162    163    246  1    252
   495    166    636  1    252
   495    636    858  1    252
   495    858    859  1    252
   495    859    493  1    252
   493    859    163  1    252
   163    859    246  1    252
   246    859    858  1    252
   246    858    630  1    252
   630    858    632  1    252
   630    632    251  1    252
   630    251    248  1    252
   632    858    634  1    252
   634    858    636  1    252
   866    865    867  1    253
   866    867    635  1    253
   866    635    637  1    253
   866    637    168  1    253
   866    168    169  1    253
   866    169    172  1    253
   866    172    674  1    253
   866    674    865  1    253
   865    674    672  1    253
   865    672    640  1    253
   865    640    638  1    253
   865    638    867  1    253
   867    638    633  1    253
   867    633    635  1    253
   633    638    252  1    253
   640    672    642  1    253
   642    672    670  1    253
   642    670    863  1    253
   642    863    644  1    253
   644    863    862  1    253
   644    862    646  1    253
   646    862    861  1    253
   646    861    864  1    253
   646    864    257  1    253
   646    257    254  1    253
   257    864    650  1    253
   650    864    652  1    253
   652    864    861  1    253
   652    861    654  1    253
   654    861    860  1    253
   654    860    181  1    253
   181    860    178  1    253
   178    860    177  1    253
   177    860    666  1    253
   666    860    862  1    253
   666    862    668  1    253
   668    862    863  1    253
   668    863    670  1    253
   862    860    861  1    253
   869    868    870  1    254
   869    870    871  1    254
   869    871    506  1    254
   869    506    509  1    254
   869    509    868  1    254
   868    509    667  1    254
   868    667    669  1    254
   868    669    671  1    254
   868    671    870  1    254
   870    671    673  1    254
   870    673    871  1    254
   871    673    675  1    254
   871    675    503  1    254
   871    503    506  1    254
   503    675    174  1    254
   667    509    175  1    254
   184    187    241  1    255
   184    241    516  1    255
   516    241    872  1    255
   516    872    514  1    255
   514    872    655  1    255
   514    655    183  1    255
   655    872    653  1    255
   653    872    873  1    255
   653    873    651  1    255
   651    873    656  1    255
   651    656    258  1    255
   656    873    241  1    255
   241    873    872  1    255
   875    874    876  1    256
   875    876    877  1    256
   877    876    878  1    256
   877    878    524  1    256
   877    524    196  1    256
   877    196    530  1    256
   877    530    875  1    256
   875    530    532  1    256
   875    532    874  1    256
   874    532    534  1    256
   874    534    536  1    256
   874    536    538  1    256
   874    538    876  1    256
   876    538    540  1    256
   876    540    878  1    256
   878    540    542  1    256
   878    542    195  1    256
   878    195    524  1    256
   195    542    202  1    256
   536    534    199  1    256
   208    238    592  1    257
   208    592    207  1    257
   214    220    213  1    258
   226    235    225  1    259
   882    881    883  1    260
   882    883    884  1    260
   882    884    662  1    260
   882    662    659  1    260
   882    659    881  1    260
   881    659    880  1    260
   881    880    619  1    260
   881    619    621  1    260
   881    621    883  1    260
   883    621    623  1    260
   883    623    884  1    260
   884    623    625  1    260
   884    625    885  1    260
   884    885    662  1    260
   662    885    247  1    260
   247    885    631  1    260
   631    885    629  1    260
   631    629    244  1    260
   629    885    627  1    260
   627    885    625  1    260
   619    880    617  1    260
   617    880    879  1    260
   617    879    615  1    260
   615    879    657  1    260
   615    657    243  1    260
   657    879    256  1    260
   256    879    880  1    260
   256    880    255  1    260
   255    880    659  1    260
   249    250    664  1    261
   887    886    889  1    261
   887    889    890  1    261
   888    887    890  1    261
   888    890    891  1    261
   888    891    641  1    261
   888    641    643  1    261
   888    643    887  1    261
   887    643    645  1    261
   887    645    886  1    261
   886    645    647  1    261
   886    647    253  1    261
   886    253    661  1    261
   886    661    889  1    261
   889    661    664  1    261
   889    664    890  1    261
   890    664    891  1    261
   891    664    250  1    261
   891    250    639  1    261
   891    639    641  1    261
   699    260    892  1    262
   699    892    893  1    262
   699    893    697  1    262
   697    893    695  1    262
   695    893    892  1    262
   695    892    693  1    262
   693    892    691  1    262
   691    892    260  1    262
