# MSMS solvent excluded surface faces for fragments/fragment76.xyzr
#faces  #sphere density probe_r
   1452      34  3.00  1.50
     1      5      2  3      3
     2      5      4  3      3
     5    216    215  3      5
   215    216    217  3      5
   215    217      6  3      5
     6    217    218  3      5
   216    219    217  3      5
   217    219    220  3      5
   217    220    218  3      5
   218    220    221  3      5
   219      8    220  3      5
   220      8    222  3      5
   220    222    221  3      5
   221    222      7  3      5
     8     11      9  3      7
     9     11     10  3      7
    11    223     12  3      8
    12    223    224  3      8
   223    225    224  3      8
   224    225    226  3      8
   225    227    226  3      8
   226    227    228  3      8
   227    229    228  3      8
   228    229    230  3      8
   229    231    230  3      8
   230    231    232  3      8
   231      1    232  3      8
   232      1      3  3      8
    12    233     10  3     10
    10    233    234  3     10
   233    235    234  3     10
   234    235    236  3     10
   235    237    236  3     10
   236    237    238  3     10
   237     14    238  3     10
   238     14     13  3     10
    14     17     15  3     12
    15     17     16  3     12
    17     20    239  3     14
   239     20    240  3     14
   239    240     18  3     14
    18    240     19  3     14
    20    242    241  3     16
   241    242    243  3     16
   241    243     21  3     16
    21    243    244  3     16
   242    245    243  3     16
   243    245    246  3     16
   243    246    244  3     16
   244    246    247  3     16
   245    248    246  3     16
   246    248    249  3     16
   246    249    247  3     16
   247    249    250  3     16
   248    251    249  3     16
   249    251    252  3     16
   249    252    250  3     16
   250    252    253  3     16
   251    254    252  3     16
   252    254    255  3     16
   252    255    253  3     16
   253    255    256  3     16
   254     23    255  3     16
   255     23    257  3     16
   255    257    256  3     16
   256    257     22  3     16
    23     26    258  3     18
   258     26    259  3     18
   258    259     24  3     18
    24    259     25  3     18
    26     29     27  3     20
    27     29     28  3     20
    29    260     30  3     21
    30    260    261  3     21
   260    262    261  3     21
   261    262    263  3     21
   262    264    263  3     21
   263    264    265  3     21
   264      3    265  3     21
   265      3      2  3     21
    30    266     28  3     23
    28    266    267  3     23
   266    268    267  3     23
   267    268    269  3     23
   268     32    269  3     23
   269     32     31  3     23
    32     35     33  3     25
    33     35     34  3     25
    35    270     36  3     26
    36    270    271  3     26
   270      4    271  3     26
   271      4      6  3     26
    36    272     34  3     28
    34    272    273  3     28
   272    274    273  3     28
   273    274    275  3     28
   274    276    275  3     28
   275    276    277  3     28
   276    278    277  3     28
   277    278    279  3     28
   278    280    279  3     28
   279    280    281  3     28
   280    282    281  3     28
   281    282    283  3     28
   282    284    283  3     28
   283    284    285  3     28
   284     38    285  3     28
   285     38     37  3     28
    38    286     39  3     29
    39    286    287  3     29
   286      7    287  3     29
   287      7      9  3     29
    39     41     37  3     31
    37     41     40  3     31
    41    288     42  3     32
    42    288    289  3     32
   288    290    289  3     32
   289    290    291  3     32
   290     13    291  3     32
   291     13     15  3     32
    42     44    292  3     34
   292     44    293  3     34
   292    293     40  3     34
    40    293     43  3     34
    44    294     45  3     36
    45    294    295  3     36
   294     47    295  3     36
   295     47     46  3     36
    47     50     48  3     38
    48     50     49  3     38
    50    296     51  3     39
    51    296    297  3     39
   296     16    297  3     39
   297     16     18  3     39
    51    298     49  3     41
    49    298    299  3     41
   298    300    299  3     41
   299    300    301  3     41
   300    302    301  3     41
   301    302    303  3     41
   302    304    303  3     41
   303    304    305  3     41
   304    306    305  3     41
   305    306    307  3     41
   306    308    307  3     41
   307    308    309  3     41
   308    310    309  3     41
   309    310    311  3     41
   310    312    311  3     41
   311    312    313  3     41
   312     53    313  3     41
   313     53     52  3     41
    53    314     54  3     42
    54    314    315  3     42
   314     25    315  3     42
   315     25     27  3     42
    54     56     52  3     44
    52     56     55  3     44
    56    316     57  3     46
    57    316    317  3     46
   316     59    317  3     46
   317     59     58  3     46
    59     31    318  3     47
   318     31    319  3     47
   318    319     60  3     47
    60    319     33  3     47
    60     62     58  3     49
    58     62     61  3     49
    62    320     63  3     51
    63    320    321  3     51
   320    322    321  3     51
   321    322    323  3     51
   322    324    323  3     51
   323    324    325  3     51
   324    326    325  3     51
   325    326    327  3     51
   326    328    327  3     51
   327    328    329  3     51
   328    330    329  3     51
   329    330    331  3     51
   330    332    331  3     51
   331    332    333  3     51
   332     65    333  3     51
   333     65     64  3     51
    65     43     66  3     52
    66     43     45  3     52
    66     68     64  3     54
    64     68     67  3     54
    68     71    334  3     56
   334     71    335  3     56
   334    335     69  3     56
    69    335     70  3     56
    71     74     72  3     58
    72     74     73  3     58
    74     46     75  3     59
    75     46     48  3     59
    75     77     73  3     61
    73     77     76  3     61
    77    337    336  3     63
   336    337    338  3     63
   336    338     78  3     63
    78    338    339  3     63
   337    340    338  3     63
   338    340    341  3     63
   338    341    339  3     63
   339    341    342  3     63
   340    343    341  3     63
   341    343    344  3     63
   341    344    342  3     63
   342    344    345  3     63
   343     80    344  3     63
   344     80    346  3     63
   344    346    345  3     63
   345    346     79  3     63
    80     83     81  3     65
    81     83     82  3     65
    83    349    347  3     67
   347    349    350  3     67
   347    350    348  3     67
   348    350    351  3     67
   348    351     84  3     67
    84    351    352  3     67
   349    353    350  3     67
   350    353    354  3     67
   350    354    351  3     67
   351    354    355  3     67
   351    355    352  3     67
   352    355    356  3     67
   353     86    354  3     67
   354     86    357  3     67
   354    357    355  3     67
   355    357    358  3     67
   355    358    356  3     67
   356    358     85  3     67
    86     89    359  3     69
   359     89    362  3     69
   359    362    360  3     69
   360    362    363  3     69
   360    363    361  3     69
   361    363    364  3     69
   361    364     87  3     69
    87    364     88  3     69
    89     55     90  3     70
    90     55     57  3     70
    90     92    365  3     72
   365     92    368  3     72
   365    368    366  3     72
   366    368    369  3     72
   366    369    367  3     72
   367    369    370  3     72
   367    370     88  3     72
    88    370     91  3     72
    92     95    371  3     74
   371     95    372  3     74
   371    372     93  3     74
    93    372     94  3     74
    95     61     96  3     75
    96     61     63  3     75
    96    375    373  3     77
   373    375    376  3     77
   373    376    374  3     77
   374    376    377  3     77
   374    377     94  3     77
    94    377    378  3     77
   375     98    376  3     77
   376     98    379  3     77
   376    379    377  3     77
   377    379    380  3     77
   377    380    378  3     77
   378    380     97  3     77
    98    382    381  3     79
   381    382    383  3     79
   381    383     99  3     79
    99    383    384  3     79
   382    101    383  3     79
   383    101    385  3     79
   383    385    384  3     79
   384    385    100  3     79
   101    387    386  3     80
   386    387    388  3     80
   386    388    102  3     80
   102    388    389  3     80
   387     67    388  3     80
   388     67    390  3     80
   388    390    389  3     80
   389    390     69  3     80
   102    104    100  3     82
   100    104    103  3     82
   104    107    391  3     84
   391    107    392  3     84
   391    392    105  3     84
   105    392    106  3     84
   107    110    393  3     86
   393    110    395  3     86
   393    395    394  3     86
   394    395    396  3     86
   394    396    108  3     86
   108    396    109  3     86
   110    113    397  3     88
   397    113    398  3     88
   397    398    111  3     88
   111    398    112  3     88
   113     70    114  3     89
   114     70     72  3     89
   114    116    399  3     91
   399    116    400  3     91
   399    400    112  3     91
   112    400    115  3     91
   116     76    401  3     92
   401     76    402  3     92
   401    402    117  3     92
   117    402     78  3     92
   117    403    115  3     94
   115    403    404  3     94
   403    405    404  3     94
   404    405    406  3     94
   405    407    406  3     94
   406    407    408  3     94
   407    409    408  3     94
   408    409    410  3     94
   409    119    410  3     94
   410    119    118  3     94
   119    122    411  3     96
   411    122    412  3     96
   411    412    120  3     96
   120    412    121  3     96
   122    413    123  3     98
   123    413    414  3     98
   413    415    414  3     98
   414    415    416  3     98
   415    125    416  3     98
   416    125    124  3     98
   125     79    417  3     99
   417     79    418  3     99
   417    418    126  3     99
   126    418     81  3     99
   126    128    419  3    101
   419    128    420  3    101
   419    420    124  3    101
   124    420    127  3    101
   128    131    421  3    103
   421    131    422  3    103
   421    422    129  3    103
   129    422    130  3    103
   131     82    423  3    104
   423     82    425  3    104
   423    425    424  3    104
   424    425    426  3    104
   424    426    132  3    104
   132    426     84  3    104
   132    134    427  3    106
   427    134    429  3    106
   427    429    428  3    106
   428    429    430  3    106
   428    430    130  3    106
   130    430    133  3    106
   134    137    431  3    108
   431    137    432  3    108
   431    432    135  3    108
   135    432    136  3    108
   137    140    138  3    110
   138    140    139  3    110
   140    143    433  3    112
   433    143    434  3    112
   433    434    141  3    112
   141    434    142  3    112
   143    435    144  3    113
   144    435    436  3    113
   435    437    436  3    113
   436    437    438  3    113
   437    439    438  3    113
   438    439    440  3    113
   439     85    440  3    113
   440     85     87  3    113
   144    441    142  3    115
   142    441    442  3    115
   441    443    442  3    115
   442    443    444  3    115
   443    445    444  3    115
   444    445    446  3    115
   445    447    446  3    115
   446    447    448  3    115
   447    449    448  3    115
   448    449    450  3    115
   449    146    450  3    115
   450    146    145  3    115
   146    451    147  3    117
   147    451    452  3    117
   451    453    452  3    117
   452    453    454  3    117
   453    149    454  3    117
   454    149    148  3    117
   149     91    455  3    118
   455     91    457  3    118
   455    457    456  3    118
   456    457    458  3    118
   456    458    150  3    118
   150    458     93  3    118
   150    152    459  3    120
   459    152    460  3    120
   459    460    148  3    120
   148    460    151  3    120
   152    461    153  3    122
   153    461    462  3    122
   461    155    462  3    122
   462    155    154  3    122
   155     97    156  3    123
   156     97     99  3    123
   156    463    154  3    125
   154    463    464  3    125
   463    158    464  3    125
   464    158    157  3    125
   158    103    465  3    126
   465    103    466  3    126
   465    466    159  3    126
   159    466    105  3    126
   159    161    467  3    128
   467    161    468  3    128
   467    468    157  3    128
   157    468    160  3    128
   161    164    469  3    130
   469    164    470  3    130
   469    470    162  3    130
   162    470    163  3    130
   164    167    471  3    132
   471    167    472  3    132
   471    472    165  3    132
   165    472    166  3    132
   167    473    168  3    134
   168    473    474  3    134
   473    170    474  3    134
   474    170    169  3    134
   170    475    171  3    135
   171    475    476  3    135
   475    477    476  3    135
   476    477    478  3    135
   477    479    478  3    135
   478    479    480  3    135
   479    481    480  3    135
   480    481    482  3    135
   481    106    482  3    135
   482    106    108  3    135
   171    483    169  3    137
   169    483    484  3    137
   483    485    484  3    137
   484    485    486  3    137
   485    173    486  3    137
   486    173    172  3    137
   173    488    487  3    138
   487    488    489  3    138
   487    489    174  3    138
   174    489    490  3    138
   488    491    489  3    138
   489    491    492  3    138
   489    492    490  3    138
   490    492    493  3    138
   491    109    492  3    138
   492    109    494  3    138
   492    494    493  3    138
   493    494    111  3    138
   174    118    495  3    139
   495    118    496  3    139
   495    496    172  3    139
   172    496    120  3    139
   168    497    166  3    141
   166    497    498  3    141
   497    176    498  3    141
   498    176    175  3    141
   176    179    177  3    143
   177    179    178  3    143
   179    499    180  3    145
   180    499    500  3    145
   499    501    500  3    145
   500    501    502  3    145
   501    503    502  3    145
   502    503    504  3    145
   503    182    504  3    145
   504    182    181  3    145
   182    185    505  3    147
   505    185    506  3    147
   505    506    183  3    147
   183    506    184  3    147
   185    507    186  3    148
   186    507    508  3    148
   507    509    508  3    148
   508    509    510  3    148
   509    121    510  3    148
   510    121    123  3    148
   186    188    511  3    150
   511    188    512  3    150
   511    512    184  3    150
   184    512    187  3    150
   188    127    189  3    151
   189    127    129  3    151
   189    133    513  3    152
   513    133    514  3    152
   513    514    187  3    152
   187    514    135  3    152
   183    191    515  3    154
   515    191    516  3    154
   515    516    181  3    154
   181    516    190  3    154
   191    194    192  3    156
   192    194    193  3    156
   194    136    517  3    157
   517    136    518  3    157
   517    518    195  3    157
   195    518    138  3    157
   195    197    519  3    159
   519    197    520  3    159
   519    520    193  3    159
   193    520    196  3    159
   197    139    198  3    160
   198    139    141  3    160
   198    522    521  3    162
   521    522    523  3    162
   521    523    196  3    162
   196    523    524  3    162
   522    525    523  3    162
   523    525    526  3    162
   523    526    524  3    162
   524    526    527  3    162
   525    528    526  3    162
   526    528    529  3    162
   526    529    527  3    162
   527    529    530  3    162
   528    531    529  3    162
   529    531    532  3    162
   529    532    530  3    162
   530    532    533  3    162
   531    200    532  3    162
   532    200    534  3    162
   532    534    533  3    162
   533    534    199  3    162
   200    145    535  3    163
   535    145    536  3    163
   535    536    201  3    163
   201    536    147  3    163
   201    537    199  3    165
   199    537    538  3    165
   537    203    538  3    165
   538    203    202  3    165
   203    151    204  3    166
   204    151    153  3    166
   204    539    202  3    168
   202    539    540  3    168
   539    206    540  3    168
   540    206    205  3    168
   206    541    207  3    169
   207    541    542  3    169
   541    543    542  3    169
   542    543    544  3    169
   543    160    544  3    169
   544    160    162  3    169
   207    209    205  3    171
   205    209    208  3    171
   209    163    210  3    172
   210    163    165  3    172
   210    545    208  3    173
   208    545    546  3    173
   545    175    546  3    173
   546    175    177  3    173
   192    548    547  3    174
   547    548    549  3    174
   547    549    190  3    174
   190    549    550  3    174
   548    178    549  3    174
   549    178    551  3    174
   549    551    550  3    174
   550    551    180  3    174
    24    553    552  3    175
   552    553    554  3    175
   552    554     22  3    175
    22    554    555  3    175
   553    556    554  3    175
   554    556    557  3    175
   554    557    555  3    175
   555    557    558  3    175
   556    559    557  3    175
   557    559    560  3    175
   557    560    558  3    175
   558    560    561  3    175
   559     19    560  3    175
   560     19    562  3    175
   560    562    561  3    175
   561    562     21  3    175
   211    563    212  3    176
   212    563    564  3    176
   563    565    564  3    176
   564    565    566  3    176
   565    567    566  3    176
   566    567    568  3    176
   567    569    568  3    176
   568    569    570  3    176
   569    571    570  3    176
   570    571    572  3    176
   571    211    572  3    176
   572    211    212  3    176
   213    573    214  3    177
   214    573    574  3    177
   573    575    574  3    177
   574    575    576  3    177
   575    577    576  3    177
   576    577    578  3    177
   577    579    578  3    177
   578    579    580  3    177
   579    581    580  3    177
   580    581    582  3    177
   581    213    582  3    177
   582    213    214  3    177
     3      1      2  2      1
     6      4    215  2      2
   215      4      5  2      2
     9      7    222  2      4
     9    222      8  2      4
    12     10     11  2      6
    15     13     14  2      9
    18     16    239  2     11
   239     16     17  2     11
   562     19    240  2     13
   562    240    241  2     13
   562    241     21  2     13
   241    240     20  2     13
   552     22    257  2     15
   552    257    258  2     15
   552    258     24  2     15
   258    257     23  2     15
    27     25    259  2     17
    27    259     26  2     17
    30     28     29  2     19
   319     31     32  2     22
   319     32     33  2     22
    36     34     35  2     24
    39     37     38  2     27
   292     40     41  2     30
   292     41     42  2     30
    45     43    293  2     33
    45    293     44  2     33
    48     46     47  2     35
    51     49     50  2     37
    54     52     53  2     40
    57     55     56  2     43
    60     58    318  2     45
   318     58     59  2     45
    63     61     62  2     48
    66     64     65  2     50
   390     67     68  2     53
   390     68    334  2     53
   390    334     69  2     53
    72     70    335  2     55
    72    335     71  2     55
    75     73     74  2     57
   402     76    336  2     60
   402    336     78  2     60
   336     76     77  2     60
   418     79    346  2     62
   418    346     80  2     62
   418     80     81  2     62
   425     82     83  2     64
   425     83    347  2     64
   425    347    426  2     64
   426    347    348  2     64
   426    348     84  2     64
    87     85    361  2     66
   361     85    358  2     66
   361    358    360  2     66
   360    358    357  2     66
   360    357    359  2     66
   359    357     86  2     66
   367     88    364  2     68
   367    364    363  2     68
   367    363    366  2     68
   366    363    362  2     68
   366    362    365  2     68
   365    362     89  2     68
   365     89     90  2     68
   457     91    370  2     71
   457    370    458  2     71
   458    370    369  2     71
   458    369     93  2     71
    93    369    371  2     71
   371    369    368  2     71
   371    368     92  2     71
   374     94    372  2     73
   374    372    373  2     73
   373    372     95  2     73
   373     95     96  2     73
    99     97    380  2     76
    99    380    381  2     76
   381    380    379  2     76
   381    379     98  2     76
   102    100    386  2     78
   386    100    385  2     78
   386    385    101  2     78
   466    103    391  2     81
   466    391    105  2     81
   391    103    104  2     81
   108    106    394  2     83
   394    106    392  2     83
   394    392    393  2     83
   393    392    107  2     83
   494    109    583  2     85
   494    583    111  2     85
   111    583    397  2     85
   397    583    395  2     85
   397    395    110  2     85
   395    583    396  2     85
   396    583    109  2     85
   399    112    398  2     87
   399    398    114  2     87
   114    398    113  2     87
   117    115    400  2     90
   117    400    401  2     90
   401    400    116  2     90
   496    118    411  2     93
   496    411    120  2     93
   411    118    119  2     93
   123    121    412  2     95
   123    412    122  2     95
   419    124    417  2     97
   419    417    126  2     97
   417    124    125  2     97
   129    127    421  2    100
   421    127    420  2    100
   421    420    128  2    100
   428    130    584  2    102
   428    584    424  2    102
   428    424    427  2    102
   427    424    132  2    102
   424    584    423  2    102
   423    584    131  2    102
   131    584    422  2    102
   422    584    130  2    102
   514    133    430  2    105
   514    430    429  2    105
   514    429    431  2    105
   514    431    135  2    105
   431    429    134  2    105
   518    136    432  2    107
   518    432    138  2    107
   138    432    137  2    107
   141    139    433  2    109
   433    139    140  2    109
   144    142    434  2    111
   144    434    143  2    111
   536    145    146  2    114
   536    146    147  2    114
   459    148    455  2    116
   459    455    456  2    116
   459    456    150  2    116
   455    148    149  2    116
   153    151    460  2    119
   153    460    152  2    119
   156    154    155  2    121
   467    157    465  2    124
   467    465    159  2    124
   465    157    158  2    124
   162    160    469  2    127
   469    160    468  2    127
   469    468    161  2    127
   165    163    470  2    129
   165    470    471  2    129
   471    470    164  2    129
   168    166    472  2    131
   168    472    167  2    131
   171    169    170  2    133
   495    172    487  2    136
   495    487    174  2    136
   487    172    173  2    136
   177    175    176  2    140
   551    178    179  2    142
   551    179    180  2    142
   515    181    182  2    144
   515    182    505  2    144
   515    505    183  2    144
   511    184    506  2    146
   511    506    185  2    146
   511    185    186  2    146
   513    187    512  2    149
   513    512    188  2    149
   513    188    189  2    149
   547    190    516  2    153
   547    516    192  2    153
   192    516    191  2    153
   519    193    517  2    155
   519    517    195  2    155
   517    193    194  2    155
   521    196    520  2    158
   521    520    197  2    158
   521    197    198  2    158
   201    199    534  2    161
   201    534    535  2    161
   535    534    200  2    161
   204    202    203  2    164
   207    205    206  2    167
   210    208    209  2    170
     5      1    216  1    178
    11      8    223  1    178
   585    586    587  1    178
   587    586    589  1    178
   588    587    589  1    178
   588    589    590  1    178
   590    589    591  1    178
   590    591    231  1    178
   590    231    229  1    178
   590    229    588  1    178
   588    229    227  1    178
   588    227    225  1    178
   588    225    587  1    178
   587    225    585  1    178
   585    225    223  1    178
   585    223      8  1    178
   585      8    586  1    178
   586      8    219  1    178
   586    219    216  1    178
   586    216    589  1    178
   589    216    591  1    178
   591    216      1  1    178
   591      1    231  1    178
   270     35    592  1    179
   270    592    265  1    179
   270    265      2  1    179
   270      2      4  1    179
   265    592    263  1    179
   263    592    261  1    179
   261    592    268  1    179
   261    268    266  1    179
   261    266     30  1    179
   268    592     32  1    179
    32    592     35  1    179
   596    597    598  1    180
   598    597    599  1    180
   598    599      6  1    180
   598      6    218  1    180
   598    218    596  1    180
   596    218    221  1    180
   596    221    595  1    180
   596    595    278  1    180
   596    278    276  1    180
   596    276    597  1    180
   597    276    274  1    180
   597    274    599  1    180
   599    274    272  1    180
   599    272    271  1    180
   599    271      6  1    180
   271    272     36  1    180
   278    595    280  1    180
   280    595    594  1    180
   280    594    282  1    180
   282    594    593  1    180
   282    593    284  1    180
   284    593    286  1    180
   284    286     38  1    180
   286    593      7  1    180
     7    593    594  1    180
     7    594    221  1    180
   221    594    595  1    180
     9     10    287  1    181
   238     13    290  1    181
   238    290    600  1    181
   238    600    236  1    181
   236    600    287  1    181
   236    287    234  1    181
   234    287     10  1    181
   287    600     39  1    181
    39    600     41  1    181
    41    600    288  1    181
   288    600    290  1    181
   602    601    603  1    182
   602    603    604  1    182
   602    604    242  1    182
   602    242     14  1    182
   602     14    237  1    182
   602    237    601  1    182
   601    237    235  1    182
   601    235    233  1    182
   601    233    603  1    182
   603    233    224  1    182
   603    224    226  1    182
   603    226    604  1    182
   604    226    605  1    182
   604    605    245  1    182
   604    245    242  1    182
   245    605    248  1    182
   248    605    228  1    182
   248    228    251  1    182
   251    228    230  1    182
   251    230    607  1    182
   251    607    254  1    182
   254    607    608  1    182
   254    608    606  1    182
   254    606     23  1    182
    23    606     26  1    182
    26    606     29  1    182
    29    606    260  1    182
   260    606    608  1    182
   260    608    262  1    182
   262    608    264  1    182
   264    608    232  1    182
   264    232      3  1    182
   232    608    607  1    182
   232    607    230  1    182
   228    605    226  1    182
   224    233     12  1    182
    14    242     17  1    182
    17    242     20  1    182
   296     50    291  1    183
   296    291     15  1    183
   296     15     16  1    183
   291     50    289  1    183
   289     50    294  1    183
   289    294     42  1    183
    42    294     44  1    183
   294     50     47  1    183
   612    611    613  1    184
   612    613    306  1    184
   612    306    304  1    184
   612    304    611  1    184
   611    304    302  1    184
   611    302    610  1    184
   611    610    559  1    184
   611    559    556  1    184
   611    556    613  1    184
   613    556    553  1    184
   613    553    615  1    184
   613    615    614  1    184
   613    614    306  1    184
   306    614    308  1    184
   308    614    310  1    184
   310    614    615  1    184
   310    615    312  1    184
   312    615    314  1    184
   312    314     53  1    184
   314    615     25  1    184
    25    615     24  1    184
    24    615    553  1    184
   559    610     19  1    184
    19    610    609  1    184
    19    609     18  1    184
    18    609    297  1    184
   297    609    298  1    184
   297    298     51  1    184
   298    609    300  1    184
   300    609    610  1    184
   300    610    302  1    184
   616    617    618  1    185
   616    618    558  1    185
   616    558    561  1    185
   616    561    244  1    185
   616    244    247  1    185
   616    247    617  1    185
   617    247    250  1    185
   617    250    253  1    185
   617    253    618  1    185
   618    253    256  1    185
   618    256    555  1    185
   618    555    558  1    185
   555    256     22  1    185
   244    561     21  1    185
    31     59    269  1    186
   269     59    316  1    186
   269    316     54  1    186
   269     54    267  1    186
   267     54    315  1    186
   267    315     28  1    186
    28    315     27  1    186
    54    316     56  1    186
    60     33     62  1    187
   619    620    621  1    187
   619    621    622  1    187
   620    624    625  1    187
   621    620    625  1    187
   621    625    626  1    187
   622    621    626  1    187
   626    625    627  1    187
   626    627    628  1    187
   628    627    630  1    187
   633    632    636  1    187
   633    636    637  1    187
   634    633    637  1    187
   635    634    637  1    187
   631    634    635  1    187
   637    636    640  1    187
   638    637    640  1    187
   635    637    638  1    187
   638    640    275  1    187
   638    275    639  1    187
   638    639    563  1    187
   638    563    635  1    187
   635    563    631  1    187
   631    563    211  1    187
   631    211    629  1    187
   631    629    634  1    187
   634    629    322  1    187
   634    322    320  1    187
   634    320    633  1    187
   633    320     62  1    187
   633     62    632  1    187
   632     62     33  1    187
   632     33     34  1    187
   632     34    636  1    187
   636     34    640  1    187
   640     34    273  1    187
   640    273    275  1    187
   322    629    324  1    187
   324    629    326  1    187
   326    629    211  1    187
   326    211    571  1    187
   326    571    328  1    187
   328    571    623  1    187
   328    623    330  1    187
   330    623    624  1    187
   330    624    620  1    187
   330    620    332  1    187
   332    620    619  1    187
   332    619     65  1    187
    65    619     43  1    187
    43    619    622  1    187
    43    622     40  1    187
    40    622     37  1    187
    37    622    285  1    187
   285    622    626  1    187
   285    626    628  1    187
   285    628    283  1    187
   283    628    630  1    187
   283    630    281  1    187
   281    630    567  1    187
   281    567    279  1    187
   279    567    565  1    187
   279    565    277  1    187
   277    565    639  1    187
   277    639    275  1    187
   639    565    563  1    187
   567    630    627  1    187
   567    627    569  1    187
   569    627    625  1    187
   569    625    624  1    187
   569    624    623  1    187
   569    623    571  1    187
    46     74    295  1    188
   295     74     71  1    188
   295     71     66  1    188
   295     66     45  1    188
    66     71     68  1    188
   641    644    645  1    189
   641    645    646  1    189
   641    646     80  1    189
   641     80    343  1    189
   641    343    340  1    189
   641    340    644  1    189
   644    340    643  1    189
   644    643    299  1    189
   644    299    301  1    189
   644    301    645  1    189
   645    301    303  1    189
   645    303    646  1    189
   646    303    647  1    189
   646    647     83  1    189
   646     83     80  1    189
    83    647    648  1    189
    83    648    349  1    189
   349    648    309  1    189
   349    309    311  1    189
   349    311    353  1    189
   353    311    313  1    189
   353    313     86  1    189
    86    313     52  1    189
    86     52     55  1    189
    86     55     89  1    189
   309    648    307  1    189
   307    648    647  1    189
   307    647    305  1    189
   305    647    303  1    189
   299    643     49  1    189
    49    643    642  1    189
    49    642     48  1    189
    48    642     77  1    189
    48     77     75  1    189
    77    642    337  1    189
   337    642    643  1    189
   337    643    340  1    189
    58     61    317  1    190
   317     61     92  1    190
   317     92     90  1    190
   317     90     57  1    190
    92     61     95  1    190
    64     67    333  1    191
   333     67    387  1    191
   333    387    331  1    191
   331    387    329  1    191
   329    387    101  1    191
   329    101    649  1    191
   329    649    327  1    191
   327    649    650  1    191
   327    650    325  1    191
   325    650    323  1    191
   323    650    375  1    191
   323    375    321  1    191
   321    375     96  1    191
   321     96     63  1    191
   375    650     98  1    191
    98    650    382  1    191
   382    650    649  1    191
   382    649    101  1    191
    70    113     69  1    192
    69    113    107  1    192
    69    107    389  1    192
   389    107    104  1    192
   389    104    102  1    192
   107    113    110  1    192
    73     76    116  1    193
    73    116     72  1    193
    72    116    114  1    193
   122    119    413  1    194
    79    125    415  1    194
    79    415    652  1    194
    79    652    345  1    194
   345    652    651  1    194
   345    651    342  1    194
   342    651    405  1    194
   342    405    339  1    194
   339    405    403  1    194
   339    403     78  1    194
    78    403    117  1    194
   405    651    407  1    194
   407    651    652  1    194
   407    652    409  1    194
   409    652    653  1    194
   409    653    413  1    194
   409    413    119  1    194
   413    653    415  1    194
   415    653    652  1    194
    82    131    654  1    195
   654    131    128  1    195
   654    128    126  1    195
   654    126     81  1    195
    81     82    654  1    195
   656    655    658  1    196
   656    658    659  1    196
   658    660    661  1    196
   659    658    661  1    196
   659    661    143  1    196
   659    143    657  1    196
   659    657    656  1    196
   656    657    134  1    196
   656    134    655  1    196
   655    134    132  1    196
   655    132     84  1    196
   655     84    658  1    196
   658     84    352  1    196
   658    352    660  1    196
   660    352    662  1    196
   660    662    661  1    196
   661    662    437  1    196
   661    437    435  1    196
   661    435    143  1    196
   437    662    439  1    196
   439    662    356  1    196
   439    356     85  1    196
   356    662    352  1    196
   134    657    137  1    196
   137    657    140  1    196
   140    657    143  1    196
   665    671    672  1    197
   666    665    672  1    197
   667    666    672  1    197
   667    672    673  1    197
   668    667    673  1    197
   669    668    673  1    197
   669    673    674  1    197
   671    670    675  1    197
   672    671    675  1    197
   673    672    675  1    197
   674    673    675  1    197
   674    675    447  1    197
   674    447    445  1    197
   674    445    443  1    197
   674    443    669  1    197
   669    443    663  1    197
   669    663    438  1    197
   669    438    668  1    197
   668    438    440  1    197
   668    440    667  1    197
   667    440     87  1    197
   667     87    666  1    197
   666     87     88  1    197
   666     88     91  1    197
   666     91    665  1    197
   665     91    149  1    197
   665    149    453  1    197
   665    453    671  1    197
   671    453    451  1    197
   671    451    664  1    197
   671    664    670  1    197
   670    664    447  1    197
   670    447    675  1    197
   447    664    449  1    197
   449    664    451  1    197
   449    451    146  1    197
   438    663    436  1    197
   436    663    441  1    197
   436    441    144  1    197
   441    663    443  1    197
   378     97    461  1    198
   378    461    152  1    198
   378    152     94  1    198
    94    152    150  1    198
    94    150     93  1    198
   461     97    155  1    198
   100    103    158  1    199
   100    158    384  1    199
   384    158    463  1    199
   384    463    156  1    199
   384    156     99  1    199
   677    676    679  1    200
   677    679    680  1    200
   678    677    680  1    200
   678    680    481  1    200
   678    481    479  1    200
   678    479    477  1    200
   678    477    677  1    200
   677    477    475  1    200
   677    475    676  1    200
   676    475    473  1    200
   676    473    167  1    200
   676    167    164  1    200
   676    164    679  1    200
   679    164    161  1    200
   679    161    680  1    200
   680    161    159  1    200
   680    159    105  1    200
   680    105    481  1    200
   481    105    106  1    200
   473    475    170  1    200
   681    682    683  1    201
   683    684    685  1    201
   683    685    488  1    201
   683    488    681  1    201
   681    488    173  1    201
   681    173    485  1    201
   681    485    483  1    201
   681    483    682  1    201
   682    483    171  1    201
   682    171    476  1    201
   682    476    478  1    201
   682    478    683  1    201
   683    478    684  1    201
   684    478    480  1    201
   684    480    482  1    201
   684    482    685  1    201
   685    482    108  1    201
   685    108    109  1    201
   685    109    491  1    201
   685    491    488  1    201
   112    115    688  1    202
   112    688    493  1    202
   112    493    111  1    202
   493    688    687  1    202
   493    687    490  1    202
   490    687    686  1    202
   490    686    174  1    202
   174    686    410  1    202
   174    410    118  1    202
   410    686    408  1    202
   408    686    687  1    202
   408    687    406  1    202
   406    687    688  1    202
   406    688    404  1    202
   404    688    115  1    202
   507    185    182  1    203
   507    182    503  1    203
   507    503    509  1    203
   509    503    121  1    203
   121    503    501  1    203
   121    501    120  1    203
   120    501    172  1    203
   172    501    486  1    203
   486    501    484  1    203
   484    501    499  1    203
   484    499    169  1    203
   169    499    689  1    203
   169    689    474  1    203
   474    689    497  1    203
   474    497    168  1    203
   497    689    176  1    203
   176    689    179  1    203
   179    689    499  1    203
   124    127    416  1    204
   416    127    690  1    204
   416    690    414  1    204
   414    690    510  1    204
   414    510    123  1    204
   510    690    508  1    204
   508    690    186  1    204
   186    690    188  1    204
   188    690    127  1    204
   130    133    129  1    205
   129    133    189  1    205
   136    194    183  1    206
   136    183    184  1    206
   136    184    187  1    206
   136    187    135  1    206
   183    194    191  1    206
   139    197    195  1    207
   139    195    138  1    207
   691    694    695  1    208
   692    691    695  1    208
   692    695    696  1    208
   693    692    696  1    208
   693    696    697  1    208
   694    700    701  1    208
   695    694    701  1    208
   695    701    702  1    208
   696    695    702  1    208
   696    702    703  1    208
   697    696    703  1    208
   697    703    704  1    208
   698    697    704  1    208
   701    700    706  1    208
   701    706    707  1    208
   702    701    707  1    208
   702    707    708  1    208
   703    702    708  1    208
   703    708    709  1    208
   704    703    709  1    208
   705    704    709  1    208
   699    704    705  1    208
   708    707    710  1    208
   709    708    710  1    208
   709    710    705  1    208
   705    710    450  1    208
   705    450    145  1    208
   705    145    699  1    208
   699    145    200  1    208
   699    200    531  1    208
   699    531    698  1    208
   699    698    704  1    208
   698    531    528  1    208
   698    528    693  1    208
   698    693    697  1    208
   693    528    525  1    208
   693    525    522  1    208
   693    522    692  1    208
   692    522    198  1    208
   692    198    691  1    208
   691    198    141  1    208
   691    141    142  1    208
   691    142    694  1    208
   694    142    700  1    208
   700    142    442  1    208
   700    442    706  1    208
   706    442    444  1    208
   706    444    446  1    208
   706    446    707  1    208
   707    446    710  1    208
   710    446    448  1    208
   710    448    450  1    208
   148    151    454  1    209
   454    151    203  1    209
   454    203    452  1    209
   452    203    711  1    209
   452    711    147  1    209
   147    711    537  1    209
   147    537    201  1    209
   537    711    203  1    209
   464    157    712  1    210
   464    712    154  1    210
   154    712    713  1    210
   154    713    462  1    210
   462    713    714  1    210
   462    714    153  1    210
   153    714    204  1    210
   204    714    541  1    210
   204    541    539  1    210
   539    541    206  1    210
   541    714    713  1    210
   541    713    543  1    210
   543    713    712  1    210
   543    712    160  1    210
   160    712    157  1    210
   163    209    715  1    211
   163    715    716  1    211
   163    716    162  1    211
   162    716    544  1    211
   544    716    542  1    211
   542    716    715  1    211
   542    715    207  1    211
   207    715    209  1    211
   498    175    545  1    212
   498    545    166  1    212
   166    545    165  1    212
   165    545    210  1    212
   717    719    720  1    213
   718    717    720  1    213
   718    720    581  1    213
   718    581    178  1    213
   718    178    548  1    213
   718    548    717  1    213
   717    548    192  1    213
   717    192    719  1    213
   719    192    193  1    213
   719    193    196  1    213
   719    196    524  1    213
   719    524    527  1    213
   719    527    720  1    213
   720    527    213  1    213
   720    213    581  1    213
   213    527    530  1    213
   213    530    573  1    213
   573    530    533  1    213
   573    533    199  1    213
   573    199    575  1    213
   575    199    722  1    213
   575    722    721  1    213
   575    721    208  1    213
   575    208    577  1    213
   577    208    546  1    213
   577    546    579  1    213
   579    546    177  1    213
   579    177    178  1    213
   579    178    581  1    213
   208    721    205  1    213
   205    721    540  1    213
   540    721    722  1    213
   540    722    202  1    213
   202    722    538  1    213
   538    722    199  1    213
   181    190    504  1    214
   504    190    723  1    214
   504    723    502  1    214
   502    723    724  1    214
   502    724    500  1    214
   500    724    180  1    214
   180    724    550  1    214
   550    724    723  1    214
   550    723    190  1    214
   572    212    725  1    215
   572    725    570  1    215
   570    725    726  1    215
   570    726    568  1    215
   568    726    566  1    215
   566    726    725  1    215
   566    725    564  1    215
   564    725    212  1    215
   582    214    727  1    216
   582    727    580  1    216
   580    727    578  1    216
   578    727    728  1    216
   578    728    576  1    216
   576    728    574  1    216
   574    728    214  1    216
   214    728    727  1    216
