# MSMS solvent excluded surface faces for fragments/fragment167.xyzr
#faces  #sphere density probe_r
   1420      34  3.00  1.50
     1    211      2  3      3
     2    211    212  3      3
   211    213    212  3      3
   212    213    214  3      3
   213    215    214  3      3
   214    215    216  3      3
   215      5    216  3      3
   216      5      4  3      3
     5    217      6  3      5
     6    217    218  3      5
   217    219    218  3      5
   218    219    220  3      5
   219      8    220  3      5
   220      8      7  3      5
     8    222    221  3      7
   221    222    223  3      7
   221    223      9  3      7
     9    223    224  3      7
   222     11    223  3      7
   223     11    225  3      7
   223    225    224  3      7
   224    225     10  3      7
    11      1    226  3      8
   226      1    227  3      8
   226    227     12  3      8
    12    227      3  3      8
    12     14     10  3     10
    10     14     13  3     10
    14    228     15  3     12
    15    228    229  3     12
   228    230    229  3     12
   229    230    231  3     12
   230    232    231  3     12
   231    232    233  3     12
   232    234    233  3     12
   233    234    235  3     12
   234     17    235  3     12
   235     17     16  3     12
    17     20    236  3     14
   236     20    237  3     14
   236    237     18  3     14
    18    237     19  3     14
    20     23    238  3     16
   238     23    239  3     16
   238    239     21  3     16
    21    239     22  3     16
    23    241    240  3     17
   240    241    242  3     17
   240    242     24  3     17
    24    242    243  3     17
   241      3    242  3     17
   242      3    244  3     17
   242    244    243  3     17
   243    244      2  3     17
    24     26    245  3     19
   245     26    246  3     19
   245    246     22  3     19
    22    246     25  3     19
    26     29    247  3     21
   247     29    248  3     21
   247    248     27  3     21
    27    248     28  3     21
    29    250    249  3     23
   249    250    251  3     23
   249    251     30  3     23
    30    251    252  3     23
   250     32    251  3     23
   251     32    253  3     23
   251    253    252  3     23
   252    253     31  3     23
    32     35    254  3     25
   254     35    255  3     25
   254    255     33  3     25
    33    255     34  3     25
    35      4     36  3     26
    36      4      6  3     26
    36     38     34  3     28
    34     38     37  3     28
    38    256     39  3     30
    39    256    257  3     30
   256     41    257  3     30
   257     41     40  3     30
    41     44    258  3     32
   258     44    259  3     32
   258    259     42  3     32
    42    259     43  3     32
    44      7     45  3     33
    45      7      9  3     33
    45     47    260  3     35
   260     47    261  3     35
   260    261     43  3     35
    43    261     46  3     35
    47    262     48  3     37
    48    262    263  3     37
   262     50    263  3     37
   263     50     49  3     37
    50     53    264  3     39
   264     53    265  3     39
   264    265     51  3     39
    51    265     52  3     39
    53    267    266  3     41
   266    267    268  3     41
   266    268     54  3     41
    54    268    269  3     41
   267     56    268  3     41
   268     56    270  3     41
   268    270    269  3     41
   269    270     55  3     41
    56     59     57  3     43
    57     59     58  3     43
    59    271     60  3     44
    60    271    272  3     44
   271    273    272  3     44
   272    273    274  3     44
   273     13    274  3     44
   274     13     15  3     44
    60     62     58  3     46
    58     62     61  3     46
    62     65    275  3     48
   275     65    276  3     48
   275    276     63  3     48
    63    276     64  3     48
    65     68     66  3     50
    66     68     67  3     50
    68     71    277  3     52
   277     71    278  3     52
   277    278     69  3     52
    69    278     70  3     52
    71     16    279  3     53
   279     16    280  3     53
   279    280     72  3     53
    72    280     18  3     53
    72    281     70  3     55
    70    281    282  3     55
   281     74    282  3     55
   282     74     73  3     55
    74     77     75  3     57
    75     77     76  3     57
    77     19     78  3     58
    78     19     21  3     58
    78     25     76  3     59
    76     25     27  3     59
    75     80     73  3     61
    73     80     79  3     61
    80    283     81  3     63
    81    283    284  3     63
   283     83    284  3     63
   284     83     82  3     63
    83    286    285  3     65
   285    286    287  3     65
   285    287     84  3     65
    84    287    288  3     65
   286    289    287  3     65
   287    289    290  3     65
   287    290    288  3     65
   288    290    291  3     65
   289    292    290  3     65
   290    292    293  3     65
   290    293    291  3     65
   291    293    294  3     65
   292     86    293  3     65
   293     86    295  3     65
   293    295    294  3     65
   294    295     85  3     65
    86     89    296  3     67
   296     89    297  3     67
   296    297     87  3     67
    87    297     88  3     67
    89     92     90  3     69
    90     92     91  3     69
    92     37    298  3     70
   298     37    299  3     70
   298    299     93  3     70
    93    299     39  3     70
    93     95    300  3     72
   300     95    301  3     72
   300    301     91  3     72
    91    301     94  3     72
    95     98    302  3     74
   302     98    304  3     74
   302    304    303  3     74
   303    304    305  3     74
   303    305     96  3     74
    96    305     97  3     74
    98    307    306  3     75
   306    307    308  3     75
   306    308     99  3     75
    99    308    309  3     75
   307     40    308  3     75
   308     40    310  3     75
   308    310    309  3     75
   309    310     42  3     75
    99    101     97  3     77
    97    101    100  3     77
   101    104    102  3     79
   102    104    103  3     79
   104    311    105  3     81
   105    311    312  3     81
   311    313    312  3     81
   312    313    314  3     81
   313    315    314  3     81
   314    315    316  3     81
   315    317    316  3     81
   316    317    318  3     81
   317    319    318  3     81
   318    319    320  3     81
   319    321    320  3     81
   320    321    322  3     81
   321    323    322  3     81
   322    323    324  3     81
   323    325    324  3     81
   324    325    326  3     81
   325    107    326  3     81
   326    107    106  3     81
   107    110    108  3     83
   108    110    109  3     83
   110    113    111  3     85
   111    113    112  3     85
   113    327    114  3     86
   114    327    328  3     86
   327     55    328  3     86
   328     55     57  3     86
   114    329    112  3     88
   112    329    330  3     88
   329    116    330  3     88
   330    116    115  3     88
   116    332    331  3     90
   331    332    333  3     90
   331    333    117  3     90
   117    333    334  3     90
   332    119    333  3     90
   333    119    335  3     90
   333    335    334  3     90
   334    335    118  3     90
   119    122    120  3     92
   120    122    121  3     92
   122    336    123  3     93
   123    336    337  3     93
   336     67    337  3     93
   337     67     69  3     93
   123    125    121  3     95
   121    125    124  3     95
   125    339    338  3     96
   338    339    340  3     96
   338    340    126  3     96
   126    340    341  3     96
   339     79    340  3     96
   340     79    342  3     96
   340    342    341  3     96
   341    342     81  3     96
   126    128    343  3     98
   343    128    344  3     98
   343    344    124  3     98
   124    344    127  3     98
   128    131    345  3    100
   345    131    346  3    100
   345    346    129  3    100
   129    346    130  3    100
   131    347    132  3    102
   132    347    348  3    102
   347    134    348  3    102
   348    134    133  3    102
   134     82    349  3    103
   349     82    350  3    103
   349    350    135  3    103
   135    350     84  3    103
   135    351    133  3    105
   133    351    352  3    105
   351    137    352  3    105
   352    137    136  3    105
   137    140    353  3    107
   353    140    354  3    107
   353    354    138  3    107
   138    354    139  3    107
   140    355    141  3    108
   141    355    356  3    108
   355    357    356  3    108
   356    357    358  3    108
   357    359    358  3    108
   358    359    360  3    108
   359    361    360  3    108
   360    361    362  3    108
   361     85    362  3    108
   362     85     87  3    108
   141    363    139  3    110
   139    363    364  3    110
   363    365    364  3    110
   364    365    366  3    110
   365    367    366  3    110
   366    367    368  3    110
   367    143    368  3    110
   368    143    142  3    110
   143    146    369  3    112
   369    146    372  3    112
   369    372    370  3    112
   370    372    373  3    112
   370    373    371  3    112
   371    373    374  3    112
   371    374    144  3    112
   144    374    145  3    112
   146    149    375  3    114
   375    149    378  3    114
   375    378    376  3    114
   376    378    379  3    114
   376    379    377  3    114
   377    379    380  3    114
   377    380    147  3    114
   147    380    148  3    114
   149    382    381  3    115
   381    382    383  3    115
   381    383    150  3    115
   150    383    384  3    115
   382     88    383  3    115
   383     88    385  3    115
   383    385    384  3    115
   384    385     90  3    115
   150     94    386  3    116
   386     94    388  3    116
   386    388    387  3    116
   387    388    389  3    116
   387    389    148  3    116
   148    389     96  3    116
   147    152    145  3    118
   145    152    151  3    118
   152    390    153  3    119
   153    390    391  3    119
   390    100    391  3    119
   391    100    102  3    119
   153    155    392  3    121
   392    155    393  3    121
   392    393    151  3    121
   151    393    154  3    121
   155    394    156  3    123
   156    394    395  3    123
   394    396    395  3    123
   395    396    397  3    123
   396    158    397  3    123
   397    158    157  3    123
   158    161    159  3    125
   159    161    160  3    125
   161    398    162  3    126
   162    398    399  3    126
   398    103    399  3    126
   399    103    105  3    126
   162    164    400  3    128
   400    164    401  3    128
   400    401    160  3    128
   160    401    163  3    128
   164    403    402  3    130
   402    403    404  3    130
   402    404    165  3    130
   165    404    405  3    130
   403    406    404  3    130
   404    406    407  3    130
   404    407    405  3    130
   405    407    408  3    130
   406    409    407  3    130
   407    409    410  3    130
   407    410    408  3    130
   408    410    411  3    130
   409    167    410  3    130
   410    167    412  3    130
   410    412    411  3    130
   411    412    166  3    130
   167    170    413  3    132
   413    170    414  3    132
   413    414    168  3    132
   168    414    169  3    132
   170    415    171  3    133
   171    415    416  3    133
   415    106    416  3    133
   416    106    108  3    133
   171    173    169  3    135
   169    173    172  3    135
   173    417    174  3    137
   174    417    418  3    137
   417    419    418  3    137
   418    419    420  3    137
   419    176    420  3    137
   420    176    175  3    137
   176    179    421  3    139
   421    179    422  3    139
   421    422    177  3    139
   177    422    178  3    139
   179    423    180  3    140
   180    423    424  3    140
   423    109    424  3    140
   424    109    111  3    140
   180    182    178  3    142
   178    182    181  3    142
   182    115    183  3    143
   183    115    117  3    143
   183    425    181  3    145
   181    425    426  3    145
   425    427    426  3    145
   426    427    428  3    145
   427    429    428  3    145
   428    429    430  3    145
   429    185    430  3    145
   430    185    184  3    145
   185    188    431  3    147
   431    188    434  3    147
   431    434    432  3    147
   432    434    435  3    147
   432    435    433  3    147
   433    435    436  3    147
   433    436    186  3    147
   186    436    187  3    147
   188    118    437  3    148
   437    118    438  3    148
   437    438    189  3    148
   189    438    120  3    148
   189    127    439  3    149
   439    127    442  3    149
   439    442    440  3    149
   440    442    443  3    149
   440    443    441  3    149
   441    443    444  3    149
   441    444    187  3    149
   187    444    129  3    149
   186    448    445  3    150
   445    448    449  3    150
   445    449    446  3    150
   446    449    450  3    150
   446    450    447  3    150
   447    450    451  3    150
   447    451    184  3    150
   184    451    452  3    150
   448    453    449  3    150
   449    453    454  3    150
   449    454    450  3    150
   450    454    455  3    150
   450    455    451  3    150
   451    455    456  3    150
   451    456    452  3    150
   452    456    457  3    150
   453    142    454  3    150
   454    142    458  3    150
   454    458    455  3    150
   455    458    459  3    150
   455    459    456  3    150
   456    459    460  3    150
   456    460    457  3    150
   457    460    144  3    150
   177    191    175  3    152
   175    191    190  3    152
   191    461    192  3    154
   192    461    462  3    154
   461    463    462  3    154
   462    463    464  3    154
   463    465    464  3    154
   464    465    466  3    154
   465    467    466  3    154
   466    467    468  3    154
   467    469    468  3    154
   468    469    470  3    154
   469    471    470  3    154
   470    471    472  3    154
   471    473    472  3    154
   472    473    474  3    154
   473    194    474  3    154
   474    194    193  3    154
   194    154    195  3    155
   195    154    156  3    155
   195    475    193  3    157
   193    475    476  3    157
   475    197    476  3    157
   476    197    196  3    157
   197    477    198  3    158
   198    477    478  3    158
   477    479    478  3    158
   478    479    480  3    158
   479    481    480  3    158
   480    481    482  3    158
   481    157    482  3    158
   482    157    159  3    158
   198    200    196  3    160
   196    200    199  3    160
   200    484    483  3    162
   483    484    485  3    162
   483    485    201  3    162
   201    485    486  3    162
   484    487    485  3    162
   485    487    488  3    162
   485    488    486  3    162
   486    488    489  3    162
   487    490    488  3    162
   488    490    491  3    162
   488    491    489  3    162
   489    491    492  3    162
   490    493    491  3    162
   491    493    494  3    162
   491    494    492  3    162
   492    494    495  3    162
   493    496    494  3    162
   494    496    497  3    162
   494    497    495  3    162
   495    497    498  3    162
   496    203    497  3    162
   497    203    499  3    162
   497    499    498  3    162
   498    499    202  3    162
   203    206    204  3    164
   204    206    205  3    164
   206    500    207  3    165
   207    500    501  3    165
   500    502    501  3    165
   501    502    503  3    165
   502    504    503  3    165
   503    504    505  3    165
   504    172    505  3    165
   505    172    174  3    165
   207    506    205  3    166
   205    506    507  3    166
   506    190    507  3    166
   507    190    192  3    166
   204    509    508  3    167
   508    509    510  3    167
   508    510    202  3    167
   202    510    511  3    167
   509    512    510  3    167
   510    512    513  3    167
   510    513    511  3    167
   511    513    514  3    167
   512    199    513  3    167
   513    199    515  3    167
   513    515    514  3    167
   514    515    201  3    167
   168    516    166  3    168
   166    516    517  3    168
   516    518    517  3    168
   517    518    519  3    168
   518    520    519  3    168
   519    520    521  3    168
   520    522    521  3    168
   521    522    523  3    168
   522    524    523  3    168
   523    524    525  3    168
   524    163    525  3    168
   525    163    165  3    168
   138    526    136  3    169
   136    526    527  3    169
   526    130    527  3    169
   527    130    132  3    169
    66    528     64  3    170
    64    528    529  3    170
   528    530    529  3    170
   529    530    531  3    170
   530    532    531  3    170
   531    532    533  3    170
   532    534    533  3    170
   533    534    535  3    170
   534     61    535  3    170
   535     61     63  3    170
    54    536     52  3    172
    52    536    537  3    172
   536    209    537  3    172
   537    209    208  3    172
   209     46    538  3    173
   538     46    539  3    173
   538    539    210  3    173
   210    539     48  3    173
   210    540    208  3    174
   208    540    541  3    174
   540     49    541  3    174
   541     49     51  3    174
    33    542     31  3    175
    31    542    543  3    175
   542    544    543  3    175
   543    544    545  3    175
   544    546    545  3    175
   545    546    547  3    175
   546     28    547  3    175
   547     28     30  3    175
   227      1      2  2      1
   227      2    244  2      1
   227    244      3  2      1
     6      4      5  2      2
     9      7    221  2      4
   221      7      8  2      4
    12     10    226  2      6
   226     10    225  2      6
   226    225     11  2      6
    15     13     14  2      9
   280     16    236  2     11
   280    236     18  2     11
   236     16     17  2     11
    21     19    237  2     13
    21    237    238  2     13
   238    237     20  2     13
   245     22    239  2     15
   245    239    240  2     15
   245    240     24  2     15
   240    239     23  2     15
    27     25    247  2     18
   247     25    246  2     18
   247    246     26  2     18
    30     28    249  2     20
   249     28    248  2     20
   249    248     29  2     20
    33     31    253  2     22
    33    253    254  2     22
   254    253     32  2     22
    36     34    255  2     24
    36    255     35  2     24
   299     37     38  2     27
   299     38     39  2     27
   310     40     41  2     29
   310     41    258  2     29
   310    258     42  2     29
   260     43    259  2     31
   260    259     45  2     31
    45    259     44  2     31
   539     46    261  2     34
   539    261     48  2     34
    48    261     47  2     34
    51     49    264  2     36
   264     49     50  2     36
    54     52    266  2     38
   266     52    265  2     38
   266    265     53  2     38
    57     55    270  2     40
    57    270     56  2     40
    60     58     59  2     42
    63     61    275  2     45
   275     61     62  2     45
    66     64    276  2     47
    66    276     65  2     47
    69     67    277  2     49
   277     67     68  2     49
    72     70    279  2     51
   279     70    278  2     51
   279    278     71  2     51
    75     73     74  2     54
    78     76     77  2     56
   342     79     80  2     60
   342     80     81  2     60
   350     82    285  2     62
   350    285     84  2     62
   285     82     83  2     62
    87     85    295  2     64
    87    295    296  2     64
   296    295     86  2     64
   385     88    297  2     66
   385    297     89  2     66
   385     89     90  2     66
   300     91     92  2     68
   300     92    298  2     68
   300    298     93  2     68
   388     94    549  2     71
   388    549    548  2     71
   388    548    389  2     71
   389    548    303  2     71
   389    303     96  2     71
   303    548    302  2     71
   302    548    549  2     71
   302    549     95  2     71
    95    549    301  2     71
   301    549     94  2     71
    99     97    305  2     73
    99    305    306  2     73
   306    305    304  2     73
   306    304     98  2     73
   102    100    101  2     76
   105    103    104  2     78
   108    106    107  2     80
   111    109    110  2     82
   114    112    113  2     84
   117    115    331  2     87
   331    115    116  2     87
   438    118    335  2     89
   438    335    119  2     89
   438    119    120  2     89
   123    121    122  2     91
   343    124    125  2     94
   343    125    338  2     94
   343    338    126  2     94
   442    127    344  2     97
   442    344    443  2     97
   443    344    128  2     97
   443    128    345  2     97
   443    345    444  2     97
   444    345    129  2     97
   132    130    346  2     99
   132    346    131  2     99
   135    133    349  2    101
   349    133    134  2    101
   138    136    353  2    104
   353    136    137  2    104
   141    139    354  2    106
   141    354    140  2    106
   458    142    369  2    109
   458    369    370  2    109
   458    370    459  2    109
   459    370    371  2    109
   459    371    460  2    109
   460    371    144  2    109
   369    142    143  2    109
   147    145    550  2    111
   147    550    377  2    111
   377    550    374  2    111
   377    374    551  2    111
   377    551    376  2    111
   376    551    375  2    111
   375    551    372  2    111
   375    372    146  2    111
   372    551    373  2    111
   373    551    374  2    111
   374    550    145  2    111
   552    553    554  2    113
   387    148    380  2    113
   387    380    552  2    113
   387    552    386  2    113
   386    552    554  2    113
   386    554    150  2    113
   150    554    381  2    113
   381    554    553  2    113
   381    553    378  2    113
   381    378    149  2    113
   378    553    379  2    113
   379    553    552  2    113
   379    552    380  2    113
   392    151    152  2    117
   392    152    153  2    117
   156    154    393  2    120
   156    393    155  2    120
   159    157    158  2    122
   400    160    161  2    124
   400    161    162  2    124
   165    163    401  2    127
   165    401    402  2    127
   402    401    164  2    127
   168    166    413  2    129
   413    166    412  2    129
   413    412    167  2    129
   171    169    414  2    131
   171    414    170  2    131
   174    172    173  2    134
   177    175    421  2    136
   421    175    176  2    136
   180    178    422  2    138
   180    422    179  2    138
   183    181    182  2    141
   447    184    185  2    144
   447    185    431  2    144
   447    431    446  2    144
   446    431    432  2    144
   446    432    445  2    144
   445    432    433  2    144
   445    433    186  2    144
   441    187    436  2    146
   441    436    440  2    146
   440    436    435  2    146
   440    435    556  2    146
   440    556    439  2    146
   439    556    437  2    146
   439    437    189  2    146
   437    556    555  2    146
   437    555    188  2    146
   188    555    434  2    146
   434    555    435  2    146
   435    555    556  2    146
   192    190    191  2    151
   195    193    194  2    153
   198    196    197  2    156
   515    199    200  2    159
   515    200    483  2    159
   515    483    201  2    159
   508    202    499  2    161
   508    499    203  2    161
   508    203    204  2    161
   207    205    206  2    163
   210    208    538  2    171
   538    208    209  2    171
   559    558    562  1    176
   560    559    562  1    176
   557    559    560  1    176
   561    560    563  1    176
   560    562    563  1    176
   563    562    213  1    176
   563    213    211  1    176
   563    211    561  1    176
   561    211      1  1    176
   561      1     11  1    176
   561     11    560  1    176
   560     11    557  1    176
   557     11    222  1    176
   557    222      8  1    176
   557      8    559  1    176
   559      8    219  1    176
   559    219    558  1    176
   558    219    217  1    176
   558    217      5  1    176
   558      5    215  1    176
   558    215    562  1    176
   562    215    213  1    176
   565    564    567  1    177
   565    567    566  1    177
   565    566    250  1    177
   565    250     29  1    177
   565     29    564  1    177
   564     29     26  1    177
   564     26     24  1    177
   564     24    243  1    177
   564    243    567  1    177
   567    243    212  1    177
   567    212    214  1    177
   567    214    566  1    177
   566    214    216  1    177
   566    216     32  1    177
   566     32    250  1    177
    32    216     35  1    177
    35    216      4  1    177
   212    243      2  1    177
     7     44    220  1    178
   220     44     41  1    178
   220     41    256  1    178
   220    256    218  1    178
   218    256      6  1    178
     6    256     38  1    178
     6     38     36  1    178
    53     50    267  1    179
    10     13    262  1    179
    10    262    224  1    179
   224    262      9  1    179
     9    262     47  1    179
     9     47     45  1    179
   262     13    273  1    179
   262    273     50  1    179
    50    273    267  1    179
   267    273    271  1    179
   267    271     56  1    179
    56    271     59  1    179
    23     20    241  1    180
   569    568    571  1    180
   569    571    241  1    180
   569    241     20  1    180
   569     20     17  1    180
   569     17    234  1    180
   569    234    568  1    180
   568    234    232  1    180
   568    232    571  1    180
   571    232    230  1    180
   571    230    570  1    180
   571    570      3  1    180
   571      3    241  1    180
     3    570     12  1    180
    12    570     14  1    180
    14    570    228  1    180
   228    570    230  1    180
   572    576    577  1    181
   573    572    577  1    181
   573    577    574  1    181
   573    574     65  1    181
   573     65     62  1    181
   573     62    572  1    181
   572     62     60  1    181
   572     60    272  1    181
   572    272    575  1    181
   572    575    576  1    181
   576    575    231  1    181
   576    231    577  1    181
   577    231    233  1    181
   577    233    235  1    181
   577    235    574  1    181
   574    235     71  1    181
   574     71     68  1    181
   574     68     65  1    181
    71    235     16  1    181
   231    575    229  1    181
   229    575    274  1    181
   229    274     15  1    181
   274    575    272  1    181
    19     77    578  1    182
    19    578     18  1    182
    18    578     72  1    182
    72    578    281  1    182
   281    578     74  1    182
    74    578     77  1    182
    22     25     78  1    183
    22     78     21  1    183
   542     33    582  1    184
   542    582    579  1    184
   542    579    292  1    184
   542    292    289  1    184
   542    289    544  1    184
   544    289    286  1    184
   544    286    546  1    184
   546    286     83  1    184
   546     83    581  1    184
   546    581     76  1    184
   546     76     27  1    184
   546     27     28  1    184
    76    581     75  1    184
    75    581    283  1    184
    75    283     80  1    184
   283    581     83  1    184
   292    579     86  1    184
    86    579    580  1    184
    86    580     89  1    184
    89    580     92  1    184
    92    580     37  1    184
    37    580    582  1    184
    37    582     34  1    184
    34    582     33  1    184
   582    580    579  1    184
   547     30    583  1    185
   547    583    545  1    185
   545    583    584  1    185
   545    584    543  1    185
   543    584     31  1    185
    31    584    252  1    185
   252    584    583  1    185
   252    583     30  1    185
   307     98     93  1    186
   307     93    585  1    186
   307    585     40  1    186
    40    585    257  1    186
   257    585     39  1    186
    39    585     93  1    186
    93     98     95  1    186
   586    589    590  1    187
   587    586    590  1    187
   588    591    592  1    187
   589    588    592  1    187
   589    592    593  1    187
   590    589    593  1    187
   595    594    597  1    187
   595    597    596  1    187
   595    596    315  1    187
   595    315    313  1    187
   595    313    594  1    187
   594    313    311  1    187
   594    311    309  1    187
   594    309     42  1    187
   594     42    597  1    187
   597     42     43  1    187
   597     43     46  1    187
   597     46    209  1    187
   597    209    596  1    187
   596    209    536  1    187
   596    536    319  1    187
   596    319    317  1    187
   596    317    315  1    187
   319    536    591  1    187
   319    591    321  1    187
   321    591    588  1    187
   321    588    323  1    187
   323    588    325  1    187
   325    588    589  1    187
   325    589    586  1    187
   325    586    107  1    187
   107    586    587  1    187
   107    587    110  1    187
   110    587    113  1    187
   113    587    327  1    187
   327    587    590  1    187
   327    590     55  1    187
    55    590    593  1    187
    55    593    269  1    187
   269    593     54  1    187
    54    593    592  1    187
    54    592    536  1    187
   536    592    591  1    187
   309    311    104  1    187
   309    104    101  1    187
   309    101     99  1    187
   540    210    263  1    188
   540    263     49  1    188
   263    210     48  1    188
    51     52    541  1    189
   537    208    541  1    189
   537    541     52  1    189
    58     61    534  1    190
    58    534    328  1    190
    58    328     57  1    190
   328    534    114  1    190
   114    534    329  1    190
   329    534    532  1    190
   329    532    116  1    190
   116    532    530  1    190
   116    530    332  1    190
   332    530    528  1    190
   332    528    119  1    190
   119    528    122  1    190
   122    528    336  1    190
   336    528     67  1    190
    67    528     66  1    190
   598    599    600  1    191
   598    600    529  1    191
   598    529    531  1    191
   598    531    533  1    191
   598    533    535  1    191
   598    535    599  1    191
   599    535     63  1    191
   599     63     64  1    191
   599     64    600  1    191
   600     64    529  1    191
   282     73     79  1    192
   282     79    339  1    192
   282    339    601  1    192
   282    601    337  1    192
   282    337     69  1    192
   282     69     70  1    192
   337    601    123  1    192
   123    601    125  1    192
   125    601    339  1    192
    82    134    284  1    193
   284    134    347  1    193
   284    347     81  1    193
    81    347    602  1    193
    81    602    341  1    193
   341    602    126  1    193
   126    602    131  1    193
   126    131    128  1    193
   131    602    347  1    193
   603    606    607  1    194
   604    603    607  1    194
   604    607    608  1    194
   604    608    609  1    194
   605    610    611  1    194
   606    605    611  1    194
   606    611    612  1    194
   607    606    612  1    194
   607    612    613  1    194
   608    607    613  1    194
   608    613    614  1    194
   609    608    614  1    194
   609    614    615  1    194
   611    610    616  1    194
   611    616    617  1    194
   612    611    617  1    194
   612    617    618  1    194
   613    612    618  1    194
   614    613    618  1    194
   614    618    619  1    194
   615    614    619  1    194
   615    619    620  1    194
   617    616    621  1    194
   617    621    622  1    194
   618    617    622  1    194
   619    618    622  1    194
   619    622    620  1    194
   620    622    294  1    194
   620    294     85  1    194
   620     85    361  1    194
   620    361    615  1    194
   615    361    359  1    194
   615    359    609  1    194
   609    359    357  1    194
   609    357    604  1    194
   604    357    355  1    194
   604    355    140  1    194
   604    140    603  1    194
   603    140    137  1    194
   603    137    606  1    194
   606    137    605  1    194
   605    137    351  1    194
   605    351    610  1    194
   610    351    135  1    194
   610    135    616  1    194
   616    135     84  1    194
   616     84    621  1    194
   621     84    288  1    194
   621    288    291  1    194
   621    291    622  1    194
   622    291    294  1    194
   624    623    626  1    195
   624    626    627  1    195
   625    624    627  1    195
   627    626    628  1    195
   627    628    382  1    195
   627    382    625  1    195
   625    382    146  1    195
   625    146    143  1    195
   625    143    367  1    195
   625    367    624  1    195
   624    367    365  1    195
   624    365    623  1    195
   623    365    363  1    195
   623    363    356  1    195
   623    356    358  1    195
   623    358    626  1    195
   626    358    360  1    195
   626    360    362  1    195
   626    362    628  1    195
   628    362     87  1    195
   628     87     88  1    195
   628     88    382  1    195
   356    363    141  1    195
   146    382    149  1    195
    91     94    629  1    196
    91    629     90  1    196
    90    629    384  1    196
   384    629     94  1    196
   384     94    150  1    196
    97    100     96  1    197
    96    100    390  1    197
    96    390    148  1    197
   148    390    152  1    197
   148    152    147  1    197
   398    161    158  1    198
   398    158    396  1    198
   398    396    103  1    198
   103    396    394  1    198
   103    394    391  1    198
   103    391    102  1    198
   391    394    155  1    198
   391    155    153  1    198
   634    633    636  1    199
   634    636    635  1    199
   634    635    406  1    199
   634    406    403  1    199
   634    403    633  1    199
   633    403    164  1    199
   633    164    162  1    199
   633    162    399  1    199
   633    399    312  1    199
   633    312    314  1    199
   633    314    636  1    199
   636    314    316  1    199
   636    316    318  1    199
   636    318    635  1    199
   635    318    632  1    199
   635    632    406  1    199
   406    632    409  1    199
   409    632    630  1    199
   409    630    167  1    199
   167    630    631  1    199
   167    631    170  1    199
   170    631    415  1    199
   415    631    326  1    199
   415    326    106  1    199
   326    631    324  1    199
   324    631    630  1    199
   324    630    322  1    199
   322    630    632  1    199
   322    632    320  1    199
   320    632    318  1    199
   312    399    105  1    199
   179    176    423  1    200
   423    176    419  1    200
   423    419    637  1    200
   423    637    109  1    200
   109    637    108  1    200
   108    637    416  1    200
   416    637    417  1    200
   416    417    173  1    200
   416    173    171  1    200
   417    637    419  1    200
   330    115    182  1    201
   330    182    638  1    201
   330    638    112  1    201
   112    638    111  1    201
   111    638    424  1    201
   424    638    180  1    201
   180    638    182  1    201
   118    188    429  1    202
   118    429    640  1    202
   118    640    334  1    202
   334    640    639  1    202
   334    639    117  1    202
   117    639    425  1    202
   117    425    183  1    202
   425    639    427  1    202
   427    639    640  1    202
   427    640    429  1    202
   429    188    185  1    202
   121    124    120  1    203
   120    124    127  1    203
   120    127    189  1    203
   641    642    643  1    204
   641    643    644  1    204
   641    644    645  1    204
   642    646    647  1    204
   642    647    648  1    204
   643    642    648  1    204
   643    648    649  1    204
   644    643    649  1    204
   644    649    650  1    204
   644    650    651  1    204
   645    644    651  1    204
   647    646    652  1    204
   647    652    653  1    204
   647    653    654  1    204
   648    647    654  1    204
   648    654    655  1    204
   649    648    655  1    204
   649    655    139  1    204
   649    139    650  1    204
   650    139    364  1    204
   650    364    651  1    204
   651    364    366  1    204
   651    366    368  1    204
   651    368    645  1    204
   645    368    453  1    204
   645    453    641  1    204
   641    453    448  1    204
   641    448    642  1    204
   642    448    646  1    204
   646    448    186  1    204
   646    186    652  1    204
   652    186    187  1    204
   652    187    129  1    204
   652    129    130  1    204
   652    130    653  1    204
   653    130    526  1    204
   653    526    654  1    204
   654    526    138  1    204
   654    138    655  1    204
   655    138    139  1    204
   453    368    142  1    204
   352    136    527  1    205
   352    527    348  1    205
   352    348    133  1    205
   348    527    132  1    205
   177    178    191  1    206
   656    658    659  1    206
   656    659    660  1    206
   657    656    660  1    206
   657    660    661  1    206
   657    661    662  1    206
   658    663    664  1    206
   658    664    665  1    206
   659    658    665  1    206
   659    665    666  1    206
   660    659    666  1    206
   660    666    667  1    206
   661    660    667  1    206
   661    667    668  1    206
   661    668    669  1    206
   662    661    669  1    206
   662    669    670  1    206
   664    663    671  1    206
   664    671    672  1    206
   665    664    672  1    206
   665    672    673  1    206
   665    673    674  1    206
   666    665    674  1    206
   666    674    675  1    206
   667    666    675  1    206
   667    675    676  1    206
   668    667    676  1    206
   678    677    679  1    206
   678    679    680  1    206
   678    680    473  1    206
   678    473    471  1    206
   678    471    670  1    206
   678    670    677  1    206
   677    670    669  1    206
   677    669    457  1    206
   677    457    679  1    206
   679    457    144  1    206
   679    144    680  1    206
   680    144    145  1    206
   680    145    151  1    206
   680    151    154  1    206
   680    154    194  1    206
   680    194    473  1    206
   457    669    452  1    206
   452    669    668  1    206
   452    668    676  1    206
   452    676    184  1    206
   184    676    675  1    206
   184    675    430  1    206
   430    675    674  1    206
   430    674    428  1    206
   428    674    673  1    206
   428    673    426  1    206
   426    673    672  1    206
   426    672    181  1    206
   181    672    671  1    206
   181    671    178  1    206
   178    671    191  1    206
   191    671    663  1    206
   191    663    461  1    206
   461    663    658  1    206
   461    658    463  1    206
   463    658    656  1    206
   463    656    465  1    206
   465    656    657  1    206
   465    657    467  1    206
   467    657    662  1    206
   467    662    469  1    206
   469    662    670  1    206
   469    670    471  1    206
   681    682    683  1    207
   681    683    479  1    207
   681    479    477  1    207
   681    477    475  1    207
   681    475    195  1    207
   681    195    682  1    207
   682    195    156  1    207
   682    156    395  1    207
   682    395    683  1    207
   683    395    397  1    207
   683    397    481  1    207
   683    481    479  1    207
   481    397    157  1    207
   475    477    197  1    207
   686    685    687  1    208
   689    688    691  1    208
   689    691    692  1    208
   690    689    692  1    208
   690    692    522  1    208
   690    522    487  1    208
   690    487    689  1    208
   689    487    484  1    208
   689    484    688  1    208
   688    484    198  1    208
   688    198    478  1    208
   688    478    480  1    208
   688    480    691  1    208
   691    480    482  1    208
   691    482    524  1    208
   691    524    692  1    208
   692    524    522  1    208
   524    482    159  1    208
   524    159    160  1    208
   524    160    163  1    208
   198    484    200  1    208
   487    522    490  1    208
   490    522    520  1    208
   490    520    684  1    208
   490    684    493  1    208
   493    684    685  1    208
   493    685    496  1    208
   496    685    686  1    208
   496    686    500  1    208
   496    500    206  1    208
   496    206    203  1    208
   500    686    502  1    208
   502    686    504  1    208
   504    686    687  1    208
   504    687    172  1    208
   172    687    169  1    208
   169    687    168  1    208
   168    687    516  1    208
   516    687    685  1    208
   516    685    518  1    208
   518    685    684  1    208
   518    684    520  1    208
   525    165    405  1    209
   525    405    696  1    209
   525    696    523  1    209
   523    696    695  1    209
   523    695    521  1    209
   521    695    693  1    209
   521    693    519  1    209
   519    693    694  1    209
   519    694    517  1    209
   517    694    166  1    209
   166    694    411  1    209
   411    694    693  1    209
   411    693    408  1    209
   408    693    696  1    209
   408    696    405  1    209
   696    693    695  1    209
   697    698    699  1    210
   697    699    190  1    210
   697    190    506  1    210
   697    506    501  1    210
   697    501    503  1    210
   697    503    698  1    210
   698    503    505  1    210
   698    505    418  1    210
   698    418    420  1    210
   698    420    699  1    210
   699    420    175  1    210
   699    175    190  1    210
   418    505    174  1    210
   501    506    207  1    210
   476    196    706  1    211
   476    706    474  1    211
   476    474    193  1    211
   474    706    472  1    211
   472    706    705  1    211
   472    705    704  1    211
   472    704    470  1    211
   470    704    702  1    211
   470    702    468  1    211
   468    702    466  1    211
   466    702    700  1    211
   466    700    701  1    211
   466    701    464  1    211
   464    701    703  1    211
   464    703    462  1    211
   462    703    507  1    211
   462    507    192  1    211
   507    703    205  1    211
   205    703    701  1    211
   205    701    204  1    211
   204    701    509  1    211
   509    701    700  1    211
   509    700    702  1    211
   509    702    512  1    211
   512    702    704  1    211
   512    704    705  1    211
   512    705    199  1    211
   199    705    196  1    211
   196    705    706  1    211
   707    709    710  1    212
   707    710    708  1    212
   710    709    711  1    212
   710    711    712  1    212
   710    712    492  1    212
   710    492    708  1    212
   708    492    495  1    212
   708    495    498  1    212
   708    498    707  1    212
   707    498    202  1    212
   707    202    511  1    212
   707    511    709  1    212
   709    511    514  1    212
   709    514    711  1    212
   711    514    201  1    212
   711    201    486  1    212
   711    486    712  1    212
   712    486    489  1    212
   712    489    492  1    212
