# MSMS solvent excluded surface faces for fragments/fragment80.xyzr
#faces  #sphere density probe_r
   1754      39  3.00  1.50
     1      5      2  3      3
     2      5      4  3      3
     5      8    255  3      5
   255      8    256  3      5
   255    256      6  3      5
     6    256      7  3      5
     8     11      9  3      7
     9     11     10  3      7
    11    257     12  3      9
    12    257    258  3      9
   257    259    258  3      9
   258    259    260  3      9
   259    261    260  3      9
   260    261    262  3      9
   261    263    262  3      9
   262    263    264  3      9
   263    265    264  3      9
   264    265    266  3      9
   265    267    266  3      9
   266    267    268  3      9
   267    269    268  3      9
   268    269    270  3      9
   269     14    270  3      9
   270     14     13  3      9
    14     17     15  3     11
    15     17     16  3     11
    17     20    271  3     13
   271     20    272  3     13
   271    272     18  3     13
    18    272     19  3     13
    20     23     21  3     15
    21     23     22  3     15
    23    273     24  3     16
    24    273    274  3     16
   273    275    274  3     16
   274    275    276  3     16
   275    277    276  3     16
   276    277    278  3     16
   277    279    278  3     16
   278    279    280  3     16
   279    281    280  3     16
   280    281    282  3     16
   281    283    282  3     16
   282    283    284  3     16
   283    285    284  3     16
   284    285    286  3     16
   285      1    286  3     16
   286      1      3  3     16
    24    287     22  3     18
    22    287    288  3     18
   287     26    288  3     18
   288     26     25  3     18
    26    290    289  3     20
   289    290    291  3     20
   289    291     27  3     20
    27    291    292  3     20
   290    293    291  3     20
   291    293    294  3     20
   291    294    292  3     20
   292    294    295  3     20
   293     29    294  3     20
   294     29    296  3     20
   294    296    295  3     20
   295    296     28  3     20
    29    297     30  3     21
    30    297    298  3     21
   297      3    298  3     21
   298      3      2  3     21
    30     32     28  3     23
    28     32     31  3     23
    32    299     33  3     25
    33    299    300  3     25
   299    301    300  3     25
   300    301    302  3     25
   301    303    302  3     25
   302    303    304  3     25
   303     35    304  3     25
   304     35     34  3     25
    35    305     36  3     26
    36    305    306  3     26
   305    307    306  3     26
   306    307    308  3     26
   307      4    308  3     26
   308      4      6  3     26
    36     38     34  3     28
    34     38     37  3     28
    38    309     39  3     30
    39    309    310  3     30
   309     41    310  3     30
   310     41     40  3     30
    41     44     42  3     32
    42     44     43  3     32
    44    311     45  3     33
    45    311    312  3     33
   311      7    312  3     33
   312      7      9  3     33
    45     47     43  3     35
    43     47     46  3     35
    47    314    313  3     37
   313    314    315  3     37
   313    315     48  3     37
    48    315    316  3     37
   314     50    315  3     37
   315     50    317  3     37
   315    317    316  3     37
   316    317     49  3     37
    50     53     51  3     39
    51     53     52  3     39
    53     10     54  3     40
    54     10     12  3     40
    54    319    318  3     42
   318    319    320  3     42
   318    320     52  3     42
    52    320    321  3     42
   319     56    320  3     42
   320     56    322  3     42
   320    322    321  3     42
   321    322     55  3     42
    56    324    323  3     44
   323    324    325  3     44
   323    325     57  3     44
    57    325    326  3     44
   324     59    325  3     44
   325     59    327  3     44
   325    327    326  3     44
   326    327     58  3     44
    59     62    328  3     46
   328     62    329  3     46
   328    329     60  3     46
    60    329     61  3     46
    62     13     63  3     47
    63     13     15  3     47
    63     65     61  3     49
    61     65     64  3     49
    65    332    330  3     51
   330    332    333  3     51
   330    333    331  3     51
   331    333    334  3     51
   331    334     66  3     51
    66    334    335  3     51
   332     68    333  3     51
   333     68    336  3     51
   333    336    334  3     51
   334    336    337  3     51
   334    337    335  3     51
   335    337     67  3     51
    68     71    338  3     53
   338     71    339  3     53
   338    339     69  3     53
    69    339     70  3     53
    71     74     72  3     55
    72     74     73  3     55
    74    340     75  3     56
    75    340    341  3     56
   340     16    341  3     56
   341     16     18  3     56
    75     77     73  3     58
    73     77     76  3     58
    77    342     78  3     60
    78    342    343  3     60
   342     80    343  3     60
   343     80     79  3     60
    80     83     81  3     62
    81     83     82  3     62
    83    344     84  3     63
    84    344    345  3     63
   344    346    345  3     63
   345    346    347  3     63
   346     19    347  3     63
   347     19     21  3     63
    84    348     82  3     65
    82    348    349  3     65
   348    350    349  3     65
   349    350    351  3     65
   350    352    351  3     65
   351    352    353  3     65
   352     86    353  3     65
   353     86     85  3     65
    86     25     87  3     66
    87     25     27  3     66
    87    354     85  3     67
    85    354    355  3     67
   354    356    355  3     67
   355    356    357  3     67
   356    358    357  3     67
   357    358    359  3     67
   358    360    359  3     67
   359    360    361  3     67
   360    362    361  3     67
   361    362    363  3     67
   362     31    363  3     67
   363     31     33  3     67
    81     89    364  3     69
   364     89    365  3     69
   364    365     79  3     69
    79    365     88  3     69
    89    367    366  3     71
   366    367    368  3     71
   366    368     90  3     71
    90    368    369  3     71
   367    370    368  3     71
   368    370    371  3     71
   368    371    369  3     71
   369    371    372  3     71
   370    373    371  3     71
   371    373    374  3     71
   371    374    372  3     71
   372    374    375  3     71
   373    376    374  3     71
   374    376    377  3     71
   374    377    375  3     71
   375    377    378  3     71
   376    379    377  3     71
   377    379    380  3     71
   377    380    378  3     71
   378    380    381  3     71
   379     92    380  3     71
   380     92    382  3     71
   380    382    381  3     71
   381    382     91  3     71
    92     37    383  3     72
   383     37    384  3     72
   383    384     93  3     72
    93    384     39  3     72
    93    386    385  3     73
   385    386    387  3     73
   385    387     91  3     73
    91    387    388  3     73
   386    389    387  3     73
   387    389    390  3     73
   387    390    388  3     73
   388    390    391  3     73
   389    392    390  3     73
   390    392    393  3     73
   390    393    391  3     73
   391    393    394  3     73
   392     88    393  3     73
   393     88    395  3     73
   393    395    394  3     73
   394    395     90  3     73
    78    396     76  3     74
    76    396    397  3     74
   396    398    397  3     74
   397    398    399  3     74
   398    400    399  3     74
   399    400    401  3     74
   400    402    401  3     74
   401    402    403  3     74
   402    404    403  3     74
   403    404    405  3     74
   404    406    405  3     74
   405    406    407  3     74
   406    408    407  3     74
   407    408    409  3     74
   408    410    409  3     74
   409    410    411  3     74
   410     40    411  3     74
   411     40     42  3     74
    72    413    412  3     76
   412    413    414  3     76
   412    414     70  3     76
    70    414    415  3     76
   413     95    414  3     76
   414     95    416  3     76
   414    416    415  3     76
   415    416     94  3     76
    95    418    417  3     78
   417    418    419  3     78
   417    419     96  3     78
    96    419    420  3     78
   418     98    419  3     78
   419     98    421  3     78
   419    421    420  3     78
   420    421     97  3     78
    98    101     99  3     80
    99    101    100  3     80
   101    425    422  3     82
   422    425    426  3     82
   422    426    423  3     82
   423    426    427  3     82
   423    427    424  3     82
   424    427    428  3     82
   424    428    102  3     82
   102    428    429  3     82
   425    104    426  3     82
   426    104    430  3     82
   426    430    427  3     82
   427    430    431  3     82
   427    431    428  3     82
   428    431    432  3     82
   428    432    429  3     82
   429    432    103  3     82
   104    107    433  3     84
   433    107    435  3     84
   433    435    434  3     84
   434    435    436  3     84
   434    436    105  3     84
   105    436    106  3     84
   107    439    437  3     86
   437    439    440  3     86
   437    440    438  3     86
   438    440    441  3     86
   438    441    108  3     86
   108    441    442  3     86
   439    110    440  3     86
   440    110    443  3     86
   440    443    441  3     86
   441    443    444  3     86
   441    444    442  3     86
   442    444    109  3     86
   110     46    445  3     87
   445     46    446  3     87
   445    446    111  3     87
   111    446     48  3     87
   111    113    447  3     89
   447    113    448  3     89
   447    448    109  3     89
   109    448    112  3     89
   113    449    114  3     91
   114    449    450  3     91
   449    116    450  3     91
   450    116    115  3     91
   116    451    117  3     92
   117    451    452  3     92
   451     49    452  3     92
   452     49     51  3     92
   117    453    115  3     94
   115    453    454  3     94
   453    119    454  3     94
   454    119    118  3     94
   119    122    455  3     96
   455    122    456  3     96
   455    456    120  3     96
   120    456    121  3     96
   122     55    123  3     97
   123     55     57  3     97
   123    125    457  3     99
   457    125    458  3     99
   457    458    121  3     99
   121    458    124  3     99
   125    128    459  3    101
   459    128    460  3    101
   459    460    126  3    101
   126    460    127  3    101
   128    131    461  3    103
   461    131    462  3    103
   461    462    129  3    103
   129    462    130  3    103
   131     58    132  3    104
   132     58     60  3    104
   132     64    463  3    105
   463     64    464  3    105
   463    464    130  3    105
   130    464     66  3    105
   129    465    127  3    107
   127    465    466  3    107
   465    467    466  3    107
   466    467    468  3    107
   467    469    468  3    107
   468    469    470  3    107
   469    134    470  3    107
   470    134    133  3    107
   134    137    471  3    109
   471    137    472  3    109
   471    472    135  3    109
   135    472    136  3    109
   137    140    473  3    111
   473    140    474  3    111
   473    474    138  3    111
   138    474    139  3    111
   140    475    141  3    112
   141    475    476  3    112
   475    477    476  3    112
   476    477    478  3    112
   477    479    478  3    112
   478    479    480  3    112
   479     67    480  3    112
   480     67     69  3    112
   141    481    139  3    114
   139    481    482  3    114
   481    483    482  3    114
   482    483    484  3    114
   483    143    484  3    114
   484    143    142  3    114
   143    146    485  3    116
   485    146    487  3    116
   485    487    486  3    116
   486    487    488  3    116
   486    488    144  3    116
   144    488    145  3    116
   146    149    489  3    118
   489    149    492  3    118
   489    492    490  3    118
   490    492    493  3    118
   490    493    491  3    118
   491    493    494  3    118
   491    494    147  3    118
   147    494    148  3    118
   149     94    150  3    119
   150     94     96  3    119
   150    152    495  3    121
   495    152    498  3    121
   495    498    496  3    121
   496    498    499  3    121
   496    499    497  3    121
   497    499    500  3    121
   497    500    148  3    121
   148    500    151  3    121
   152     97    501  3    122
   501     97    502  3    122
   501    502    153  3    122
   153    502     99  3    122
   153    100    503  3    123
   503    100    505  3    123
   503    505    504  3    123
   504    505    506  3    123
   504    506    151  3    123
   151    506    102  3    123
   147    155    145  3    125
   145    155    154  3    125
   155    158    507  3    127
   507    158    508  3    127
   507    508    156  3    127
   156    508    157  3    127
   158    161    159  3    129
   159    161    160  3    129
   161    510    509  3    131
   509    510    511  3    131
   509    511    162  3    131
   162    511    512  3    131
   510    513    511  3    131
   511    513    514  3    131
   511    514    512  3    131
   512    514    515  3    131
   513    516    514  3    131
   514    516    517  3    131
   514    517    515  3    131
   515    517    518  3    131
   516    164    517  3    131
   517    164    519  3    131
   517    519    518  3    131
   518    519    163  3    131
   164    522    520  3    133
   520    522    523  3    133
   520    523    521  3    133
   521    523    524  3    133
   521    524    165  3    133
   165    524    525  3    133
   522    167    523  3    133
   523    167    526  3    133
   523    526    524  3    133
   524    526    527  3    133
   524    527    525  3    133
   525    527    166  3    133
   167    170    168  3    135
   168    170    169  3    135
   170    103    528  3    136
   528    103    529  3    136
   528    529    171  3    136
   171    529    105  3    136
   171    173    169  3    138
   169    173    172  3    138
   173    176    530  3    140
   530    176    533  3    140
   530    533    531  3    140
   531    533    534  3    140
   531    534    532  3    140
   532    534    535  3    140
   532    535    174  3    140
   174    535    175  3    140
   176    106    177  3    141
   177    106    108  3    141
   177    179    536  3    143
   536    179    539  3    143
   536    539    537  3    143
   537    539    540  3    143
   537    540    538  3    143
   538    540    541  3    143
   538    541    175  3    143
   175    541    178  3    143
   179    543    542  3    145
   542    543    544  3    145
   542    544    180  3    145
   180    544    545  3    145
   543    546    544  3    145
   544    546    547  3    145
   544    547    545  3    145
   545    547    548  3    145
   546    182    547  3    145
   547    182    549  3    145
   547    549    548  3    145
   548    549    181  3    145
   182    550    183  3    147
   183    550    551  3    147
   550    552    551  3    147
   551    552    553  3    147
   552    185    553  3    147
   553    185    184  3    147
   185    188    554  3    149
   554    188    555  3    149
   554    555    186  3    149
   186    555    187  3    149
   188    191    189  3    151
   189    191    190  3    151
   191    556    192  3    152
   192    556    557  3    152
   556    558    557  3    152
   557    558    559  3    152
   558    560    559  3    152
   559    560    561  3    152
   560    562    561  3    152
   561    562    563  3    152
   562    564    563  3    152
   563    564    565  3    152
   564    566    565  3    152
   565    566    567  3    152
   566    112    567  3    152
   567    112    114  3    152
   192    194    190  3    154
   190    194    193  3    154
   194    197    195  3    156
   195    197    196  3    156
   197    568    198  3    158
   198    568    569  3    158
   568    570    569  3    158
   569    570    571  3    158
   570    572    571  3    158
   571    572    573  3    158
   572    200    573  3    158
   573    200    199  3    158
   200    118    574  3    159
   574    118    575  3    159
   574    575    201  3    159
   201    575    120  3    159
   201    577    576  3    161
   576    577    578  3    161
   576    578    199  3    161
   199    578    579  3    161
   577    203    578  3    161
   578    203    580  3    161
   578    580    579  3    161
   579    580    202  3    161
   203    581    204  3    163
   204    581    582  3    163
   581    583    582  3    163
   582    583    584  3    163
   583    206    584  3    163
   584    206    205  3    163
   206    586    585  3    164
   585    586    587  3    164
   585    587    207  3    164
   207    587    588  3    164
   586    124    587  3    164
   587    124    589  3    164
   587    589    588  3    164
   588    589    126  3    164
   207    591    590  3    165
   590    591    592  3    165
   590    592    205  3    165
   205    592    593  3    165
   591    133    592  3    165
   592    133    594  3    165
   592    594    593  3    165
   593    594    135  3    165
   204    196    595  3    166
   595    196    596  3    166
   595    596    202  3    166
   202    596    198  3    166
   195    597    193  3    167
   193    597    598  3    167
   597    599    598  3    167
   598    599    600  3    167
   599    601    600  3    167
   600    601    602  3    167
   601    136    602  3    167
   602    136    138  3    167
   189    605    603  3    169
   603    605    606  3    169
   603    606    604  3    169
   604    606    607  3    169
   604    607    187  3    169
   187    607    608  3    169
   605    609    606  3    169
   606    609    610  3    169
   606    610    607  3    169
   607    610    611  3    169
   607    611    608  3    169
   608    611    612  3    169
   609    209    610  3    169
   610    209    613  3    169
   610    613    611  3    169
   611    613    614  3    169
   611    614    612  3    169
   612    614    208  3    169
   209    212    210  3    171
   210    212    211  3    171
   212    142    615  3    172
   615    142    616  3    172
   615    616    213  3    172
   213    616    144  3    172
   213    215    617  3    174
   617    215    618  3    174
   617    618    211  3    174
   211    618    214  3    174
   215    154    216  3    175
   216    154    156  3    175
   216    208    619  3    176
   619    208    620  3    176
   619    620    214  3    176
   214    620    210  3    176
   186    218    621  3    178
   621    218    622  3    178
   621    622    184  3    178
   184    622    217  3    178
   218    221    623  3    180
   623    221    624  3    180
   623    624    219  3    180
   219    624    220  3    180
   221    224    625  3    182
   625    224    628  3    182
   625    628    626  3    182
   626    628    629  3    182
   626    629    627  3    182
   627    629    630  3    182
   627    630    222  3    182
   222    630    223  3    182
   224    227    631  3    184
   631    227    633  3    184
   631    633    632  3    184
   632    633    634  3    184
   632    634    225  3    184
   225    634    226  3    184
   227    637    635  3    186
   635    637    638  3    186
   635    638    636  3    186
   636    638    639  3    186
   636    639    228  3    186
   228    639    640  3    186
   637    230    638  3    186
   638    230    641  3    186
   638    641    639  3    186
   639    641    642  3    186
   639    642    640  3    186
   640    642    229  3    186
   230    157    231  3    187
   231    157    159  3    187
   231    160    643  3    188
   643    160    644  3    188
   643    644    229  3    188
   229    644    162  3    188
   228    233    226  3    190
   226    233    232  3    190
   233    646    645  3    192
   645    646    647  3    192
   645    647    234  3    192
   234    647    648  3    192
   646    236    647  3    192
   647    236    649  3    192
   647    649    648  3    192
   648    649    235  3    192
   236    650    237  3    194
   237    650    651  3    194
   650    239    651  3    194
   651    239    238  3    194
   239    163    652  3    195
   652    163    653  3    195
   652    653    240  3    195
   240    653    165  3    195
   240    654    238  3    197
   238    654    655  3    197
   654    242    655  3    197
   655    242    241  3    197
   242    657    656  3    199
   656    657    658  3    199
   656    658    243  3    199
   243    658    659  3    199
   657    245    658  3    199
   658    245    660  3    199
   658    660    659  3    199
   659    660    244  3    199
   245    248    246  3    201
   246    248    247  3    201
   248    178    661  3    202
   661    178    662  3    202
   661    662    249  3    202
   249    662    180  3    202
   249    251    247  3    204
   247    251    250  3    204
   251    664    663  3    205
   663    664    665  3    205
   663    665    252  3    205
   252    665    666  3    205
   664    667    665  3    205
   665    667    668  3    205
   665    668    666  3    205
   666    668    669  3    205
   667    220    668  3    205
   668    220    670  3    205
   668    670    669  3    205
   669    670    222  3    205
   252    244    250  3    206
   250    244    246  3    206
   243    671    241  3    207
   241    671    672  3    207
   671    235    672  3    207
   672    235    237  3    207
   234    223    232  3    208
   232    223    225  3    208
   219    181    673  3    209
   673    181    674  3    209
   673    674    217  3    209
   217    674    183  3    209
   174    166    675  3    210
   675    166    677  3    210
   675    677    676  3    210
   676    677    678  3    210
   676    678    172  3    210
   172    678    168  3    210
   253    679    254  3    211
   254    679    680  3    211
   679    681    680  3    211
   680    681    682  3    211
   681    683    682  3    211
   682    683    684  3    211
   683    685    684  3    211
   684    685    686  3    211
   685    687    686  3    211
   686    687    688  3    211
   687    253    688  3    211
   688    253    254  3    211
     3      1      2  2      1
     6      4    255  2      2
   255      4      5  2      2
     9      7    256  2      4
     9    256      8  2      4
    12     10     11  2      6
    15     13     14  2      8
    18     16    271  2     10
   271     16     17  2     10
    21     19    272  2     12
    21    272     20  2     12
    24     22     23  2     14
    27     25    289  2     17
   289     25     26  2     17
    30     28    296  2     19
    30    296     29  2     19
    33     31     32  2     22
    36     34     35  2     24
   384     37     38  2     27
   384     38     39  2     27
    42     40     41  2     29
    45     43     44  2     31
   446     46    313  2     34
   446    313     48  2     34
   313     46     47  2     34
    51     49    317  2     36
    51    317     50  2     36
   318     52     53  2     38
   318     53     54  2     38
    57     55    322  2     41
    57    322    323  2     41
   323    322     56  2     41
    60     58    328  2     43
   328     58    327  2     43
   328    327     59  2     43
    63     61    329  2     45
    63    329     62  2     45
   464     64    331  2     48
   464    331     66  2     48
   331     64    330  2     48
   330     64     65  2     48
    69     67    337  2     50
    69    337    338  2     50
   338    337    336  2     50
   338    336     68  2     50
   412     70    339  2     52
   412    339     72  2     52
    72    339     71  2     52
    75     73     74  2     54
    78     76     77  2     57
   364     79     80  2     59
   364     80     81  2     59
    84     82     83  2     61
    87     85     86  2     64
   395     88    365  2     68
   395    365    366  2     68
   395    366     90  2     68
   366    365     89  2     68
   385     91    382  2     70
   385    382    383  2     70
   385    383     93  2     70
   383    382     92  2     70
    96     94    416  2     75
    96    416    417  2     75
   417    416     95  2     75
   502     97    421  2     77
   502    421     98  2     77
   502     98     99  2     77
   505    100    422  2     79
   505    422    423  2     79
   505    423    506  2     79
   506    423    424  2     79
   506    424    102  2     79
   422    100    101  2     79
   529    103    432  2     81
   529    432    431  2     81
   529    431    434  2     81
   529    434    105  2     81
   434    431    430  2     81
   434    430    433  2     81
   433    430    104  2     81
   108    106    438  2     83
   438    106    436  2     83
   438    436    437  2     83
   437    436    435  2     83
   437    435    107  2     83
   447    109    444  2     85
   447    444    111  2     85
   111    444    445  2     85
   445    444    443  2     85
   445    443    110  2     85
   114    112    448  2     88
   114    448    113  2     88
   117    115    116  2     90
   575    118    455  2     93
   575    455    120  2     93
   455    118    119  2     93
   457    121    456  2     95
   457    456    122  2     95
   457    122    123  2     95
   589    124    458  2     98
   589    458    459  2     98
   589    459    126  2     98
   459    458    125  2     98
   129    127    460  2    100
   129    460    461  2    100
   461    460    128  2    100
   463    130    462  2    102
   463    462    132  2    102
   132    462    131  2    102
   594    133    471  2    106
   594    471    135  2    106
   471    133    134  2    106
   138    136    472  2    108
   138    472    473  2    108
   473    472    137  2    108
   141    139    474  2    110
   141    474    140  2    110
   616    142    485  2    113
   616    485    486  2    113
   616    486    144  2    113
   485    142    143  2    113
   147    145    491  2    115
   491    145    488  2    115
   491    488    490  2    115
   490    488    487  2    115
   490    487    489  2    115
   489    487    146  2    115
   497    148    494  2    117
   497    494    493  2    117
   497    493    496  2    117
   496    493    492  2    117
   496    492    495  2    117
   495    492    149  2    117
   495    149    150  2    117
   504    151    500  2    120
   504    500    689  2    120
   504    689    503  2    120
   503    689    690  2    120
   503    690    153  2    120
   153    690    501  2    120
   501    690    498  2    120
   501    498    152  2    120
   498    690    499  2    120
   499    690    689  2    120
   499    689    500  2    120
   156    154    507  2    124
   507    154    155  2    124
   159    157    508  2    126
   159    508    158  2    126
   644    160    161  2    128
   644    161    509  2    128
   644    509    162  2    128
   653    163    519  2    130
   653    519    520  2    130
   653    520    521  2    130
   653    521    165  2    130
   520    519    164  2    130
   677    166    527  2    132
   677    527    678  2    132
   678    527    526  2    132
   678    526    168  2    132
   168    526    167  2    132
   171    169    528  2    134
   528    169    170  2    134
   676    172    531  2    137
   676    531    532  2    137
   676    532    675  2    137
   675    532    174  2    137
   531    172    530  2    137
   530    172    173  2    137
   538    175    535  2    139
   538    535    534  2    139
   538    534    537  2    139
   537    534    533  2    139
   537    533    536  2    139
   536    533    176  2    139
   536    176    177  2    139
   662    178    541  2    142
   662    541    180  2    142
   180    541    540  2    142
   180    540    542  2    142
   542    540    539  2    142
   542    539    179  2    142
   674    181    549  2    144
   674    549    182  2    144
   674    182    183  2    144
   621    184    185  2    146
   621    185    554  2    146
   621    554    186  2    146
   604    187    555  2    148
   604    555    603  2    148
   603    555    188  2    148
   603    188    189  2    148
   192    190    191  2    150
   195    193    194  2    153
   596    196    197  2    155
   596    197    198  2    155
   576    199    200  2    157
   576    200    574  2    157
   576    574    201  2    157
   595    202    580  2    160
   595    580    203  2    160
   595    203    204  2    160
   590    205    585  2    162
   590    585    207  2    162
   585    205    206  2    162
   620    208    614  2    168
   620    614    613  2    168
   620    613    210  2    168
   210    613    209  2    168
   617    211    615  2    170
   617    615    213  2    170
   615    211    212  2    170
   619    214    618  2    173
   619    618    216  2    173
   216    618    215  2    173
   673    217    691  2    177
   673    691    623  2    177
   673    623    219  2    177
   623    691    218  2    177
   218    691    622  2    177
   622    691    217  2    177
   670    220    626  2    179
   670    626    627  2    179
   670    627    222  2    179
   626    220    624  2    179
   626    624    625  2    179
   625    624    221  2    179
   225    223    630  2    181
   225    630    632  2    181
   632    630    629  2    181
   632    629    631  2    181
   631    629    628  2    181
   631    628    224  2    181
   228    226    636  2    183
   636    226    634  2    183
   636    634    635  2    183
   635    634    633  2    183
   635    633    227  2    183
   643    229    642  2    185
   643    642    641  2    185
   643    641    231  2    185
   231    641    230  2    185
   234    232    645  2    189
   645    232    233  2    189
   237    235    649  2    191
   237    649    236  2    191
   240    238    652  2    193
   652    238    239  2    193
   243    241    656  2    196
   656    241    242  2    196
   246    244    660  2    198
   246    660    245  2    198
   249    247    661  2    200
   661    247    248  2    200
   252    250    663  2    203
   663    250    251  2    203
   692    693    694  1    212
   692    694    695  1    212
   693    696    697  1    212
   694    693    697  1    212
   694    697    698  1    212
   695    694    698  1    212
   695    698    699  1    212
   699    698    701  1    212
   704    708    709  1    212
   705    704    709  1    212
   705    709    710  1    212
   708    712    713  1    212
   709    708    713  1    212
   710    709    713  1    212
   711    710    713  1    212
   706    710    711  1    212
   711    713    253  1    212
   711    253    687  1    212
   711    687    706  1    212
   706    687    261  1    212
   706    261    259  1    212
   706    259    257  1    212
   706    257    710  1    212
   710    257    705  1    212
   705    257     11  1    212
   705     11      8  1    212
   705      8    704  1    212
   704      8      5  1    212
   704      5      1  1    212
   704      1    285  1    212
   704    285    708  1    212
   708    285    283  1    212
   708    283    712  1    212
   712    283    281  1    212
   712    281    707  1    212
   712    707    253  1    212
   712    253    713  1    212
   253    707    679  1    212
   679    707    279  1    212
   679    279    703  1    212
   679    703    681  1    212
   681    703    701  1    212
   681    701    683  1    212
   683    701    698  1    212
   683    698    697  1    212
   683    697    696  1    212
   683    696    700  1    212
   683    700    685  1    212
   685    700    263  1    212
   685    263    702  1    212
   685    702    687  1    212
   687    702    261  1    212
   261    702    263  1    212
   263    700    265  1    212
   265    700    696  1    212
   265    696    267  1    212
   267    696    693  1    212
   267    693    269  1    212
   269    693     14  1    212
    14    693    692  1    212
    14    692     17  1    212
    17    692     20  1    212
    20    692     23  1    212
    23    692    695  1    212
    23    695    273  1    212
   273    695    699  1    212
   273    699    275  1    212
   275    699    701  1    212
   275    701    277  1    212
   277    701    703  1    212
   277    703    279  1    212
   279    707    281  1    212
   305     35    303  1    213
   305    303    714  1    213
   305    714    307  1    213
   307    714      4  1    213
     4    714      2  1    213
     2    714    298  1    213
   298    714    299  1    213
   298    299     32  1    213
   298     32     30  1    213
   299    714    301  1    213
   301    714    303  1    213
   311     44     41  1    214
   311     41    715  1    214
   311    715    308  1    214
   311    308      6  1    214
   311      6      7  1    214
   308    715    306  1    214
   306    715     36  1    214
    36    715    309  1    214
    36    309     38  1    214
   309    715     41  1    214
    10     53     50  1    215
    10     50    314  1    215
    10    314    312  1    215
    10    312      9  1    215
   312    314     47  1    215
   312     47     45  1    215
    13     62    270  1    216
   270     62    716  1    216
   270    716    268  1    216
   268    716    324  1    216
   268    324    266  1    216
   266    324    717  1    216
   266    717    264  1    216
   264    717    262  1    216
   262    717     56  1    216
   262     56    319  1    216
   262    319    260  1    216
   260    319    258  1    216
   258    319     54  1    216
   258     54     12  1    216
    56    717    324  1    216
   324    716     59  1    216
    59    716     62  1    216
   340     74     68  1    217
   340     68    332  1    217
   340    332     15  1    217
   340     15     16  1    217
    15    332     65  1    217
    15     65     63  1    217
    68     74     71  1    217
   344     83    342  1    218
   344    342     77  1    218
   344     77    346  1    218
   346     77    341  1    218
   346    341     19  1    218
    19    341     18  1    218
   341     77     75  1    218
   342     83     80  1    218
   288     25     86  1    219
   288     86    352  1    219
   288    352    719  1    219
   288    719     22  1    219
    22    719    347  1    219
    22    347     21  1    219
   347    719    718  1    219
   347    718    345  1    219
   345    718    348  1    219
   345    348     84  1    219
   348    718    350  1    219
   350    718    719  1    219
   350    719    352  1    219
   297     29    725  1    220
   297    725    286  1    220
   297    286      3  1    220
   286    725    284  1    220
   284    725    724  1    220
   284    724    282  1    220
   282    724    723  1    220
   282    723    280  1    220
   280    723    722  1    220
   280    722    278  1    220
   278    722    721  1    220
   278    721    276  1    220
   276    721    720  1    220
   276    720    274  1    220
   274    720    287  1    220
   274    287     24  1    220
   287    720     26  1    220
    26    720    721  1    220
    26    721    290  1    220
   290    721    722  1    220
   290    722    293  1    220
   293    722    723  1    220
   293    723    724  1    220
   293    724     29  1    220
    29    724    725  1    220
   726    728    729  1    221
   727    726    729  1    221
   730    729    731  1    221
   730    731    362  1    221
   730    362    360  1    221
   730    360    358  1    221
   730    358    727  1    221
   730    727    729  1    221
   727    358    356  1    221
   727    356    726  1    221
   726    356    354  1    221
   726    354     87  1    221
   726     87     27  1    221
   726     27    728  1    221
   728     27    292  1    221
   728    292    295  1    221
   728    295    729  1    221
   729    295    731  1    221
   731    295     28  1    221
   731     28     31  1    221
   731     31    362  1    221
   732    733    734  1    222
   737    736    738  1    222
   737    738    739  1    222
   737    739    304  1    222
   737    304     34  1    222
   737     34    379  1    222
   737    379    736  1    222
   736    379    376  1    222
   736    376    361  1    222
   736    361    738  1    222
   738    361    363  1    222
   738    363    300  1    222
   738    300    302  1    222
   738    302    739  1    222
   739    302    304  1    222
   300    363     33  1    222
   361    376    359  1    222
   359    376    373  1    222
   359    373    735  1    222
   359    735    357  1    222
   357    735    734  1    222
   357    734    355  1    222
   355    734    733  1    222
   355    733    353  1    222
   355    353     85  1    222
   353    733    351  1    222
   351    733    349  1    222
   349    733    732  1    222
   349    732     82  1    222
    82    732    367  1    222
    82    367     81  1    222
    81    367     89  1    222
   367    732    370  1    222
   370    732    735  1    222
   370    735    373  1    222
   735    732    734  1    222
   379     34     37  1    222
   379     37     92  1    222
   396     78    343  1    223
   396    343    740  1    223
   396    740    398  1    223
   398    740    741  1    223
   398    741    400  1    223
   400    741    742  1    223
   400    742    402  1    223
   402    742    404  1    223
   404    742    744  1    223
   404    744    406  1    223
   406    744    745  1    223
   406    745    408  1    223
   408    745    746  1    223
   408    746    410  1    223
   410    746    310  1    223
   410    310     40  1    223
   310    746     39  1    223
    39    746     93  1    223
    93    746    386  1    223
   386    746    745  1    223
   386    745    744  1    223
   386    744    743  1    223
   386    743    389  1    223
   389    743    742  1    223
   389    742    392  1    223
   392    742    741  1    223
   392    741     88  1    223
    88    741    740  1    223
    88    740     79  1    223
    79    740    343  1    223
   742    743    744  1    223
    43     46    755  1    224
    43    755     42  1    224
    42    755    754  1    224
    42    754    411  1    224
   411    754    753  1    224
   411    753    409  1    224
   409    753    752  1    224
   409    752    407  1    224
   407    752    751  1    224
   407    751    405  1    224
   405    751    403  1    224
   403    751    101  1    224
   403    101    748  1    224
   403    748    401  1    224
   401    748    747  1    224
   401    747    399  1    224
   399    747    749  1    224
   399    749    397  1    224
   397    749    750  1    224
   397    750     76  1    224
    76    750     73  1    224
    73    750    413  1    224
    73    413     72  1    224
   413    750     95  1    224
    95    750    749  1    224
    95    749    418  1    224
   418    749    747  1    224
   418    747     98  1    224
    98    747    748  1    224
    98    748    101  1    224
   101    751    425  1    224
   425    751    752  1    224
   425    752    104  1    224
   104    752    753  1    224
   104    753    107  1    224
   107    753    439  1    224
   439    753    754  1    224
   439    754    755  1    224
   439    755    110  1    224
   110    755     46  1    224
   451    116    449  1    225
   451    449     49  1    225
    49    449    113  1    225
    49    113    316  1    225
   316    113    756  1    225
   316    756     48  1    225
    48    756    111  1    225
   111    756    113  1    225
   321     55    117  1    226
   321    117    452  1    226
   321    452     52  1    226
    52    452     51  1    226
   117     55    453  1    226
   453     55    119  1    226
   119     55    122  1    226
    58    131    128  1    227
    58    128    326  1    227
   326    128    125  1    227
   326    125    123  1    227
   326    123     57  1    227
    61     64    132  1    228
    61    132     60  1    228
   137    134    140  1    229
   757    758    759  1    229
   757    759    760  1    229
   759    761    762  1    229
   760    759    762  1    229
   761    763    764  1    229
   762    761    764  1    229
   762    764    335  1    229
   762    335     67  1    229
   762     67    479  1    229
   762    479    760  1    229
   760    479    477  1    229
   760    477    757  1    229
   757    477    475  1    229
   757    475    140  1    229
   757    140    469  1    229
   757    469    758  1    229
   758    469    467  1    229
   758    467    761  1    229
   758    761    759  1    229
   761    467    763  1    229
   763    467    465  1    229
   763    465    130  1    229
   763    130     66  1    229
   763     66    764  1    229
   764     66    335  1    229
   130    465    129  1    229
   469    140    134  1    229
   415     94    480  1    230
   415    480     70  1    230
    70    480     69  1    230
   480     94    478  1    230
   478     94    766  1    230
   478    766    476  1    230
   476    766    481  1    230
   476    481    141  1    230
   481    766    483  1    230
   483    766    765  1    230
   483    765    143  1    230
   143    765    146  1    230
   146    765    149  1    230
   149    765     94  1    230
    94    765    766  1    230
   767    768    769  1    231
   767    769    391  1    231
   767    391    394  1    231
   767    394    369  1    231
   767    369    372  1    231
   767    372    768  1    231
   768    372    375  1    231
   768    375    378  1    231
   768    378    769  1    231
   769    378    381  1    231
   769    381    388  1    231
   769    388    391  1    231
   388    381     91  1    231
   369    394     90  1    231
    97    152    150  1    232
    97    150    420  1    232
   420    150     96  1    232
   100    153     99  1    233
   770    772    773  1    234
   771    770    773  1    234
   771    773    774  1    234
   774    773    775  1    234
   774    775    776  1    234
   774    776    516  1    234
   774    516    513  1    234
   774    513    771  1    234
   771    513    510  1    234
   771    510    770  1    234
   770    510    158  1    234
   770    158    155  1    234
   770    155    772  1    234
   772    155    147  1    234
   772    147    148  1    234
   772    148    151  1    234
   772    151    773  1    234
   773    151    775  1    234
   775    151    102  1    234
   775    102    776  1    234
   776    102    429  1    234
   776    429    522  1    234
   776    522    164  1    234
   776    164    516  1    234
   522    429    103  1    234
   522    103    167  1    234
   167    103    170  1    234
   158    510    161  1    234
   106    176    173  1    235
   106    173    171  1    235
   106    171    105  1    235
   778    784    785  1    236
   779    778    785  1    236
   780    779    785  1    236
   782    781    786  1    236
   783    782    786  1    236
   783    786    787  1    236
   784    783    787  1    236
   784    787    788  1    236
   785    784    788  1    236
   785    788    780  1    236
   780    788    562  1    236
   780    562    560  1    236
   780    560    558  1    236
   780    558    550  1    236
   780    550    779  1    236
   779    550    182  1    236
   779    182    546  1    236
   779    546    778  1    236
   778    546    543  1    236
   778    543    784  1    236
   784    543    783  1    236
   783    543    179  1    236
   783    179    782  1    236
   782    179    777  1    236
   782    777    781  1    236
   781    777    442  1    236
   781    442    109  1    236
   781    109    112  1    236
   781    112    786  1    236
   786    112    566  1    236
   786    566    787  1    236
   787    566    788  1    236
   788    566    564  1    236
   788    564    562  1    236
   442    777    108  1    236
   108    777    177  1    236
   177    777    179  1    236
   550    558    552  1    236
   552    558    556  1    236
   552    556    191  1    236
   552    191    185  1    236
   185    191    188  1    236
   454    118    200  1    237
   454    200    572  1    237
   454    572    115  1    237
   115    572    789  1    237
   115    789    450  1    237
   450    789    790  1    237
   450    790    114  1    237
   114    790    567  1    237
   567    790    565  1    237
   565    790    789  1    237
   565    789    570  1    237
   565    570    563  1    237
   563    570    561  1    237
   561    570    568  1    237
   561    568    559  1    237
   559    568    557  1    237
   557    568    197  1    237
   557    197    194  1    237
   557    194    192  1    237
   570    789    572  1    237
   792    791    793  1    238
   792    793    586  1    238
   792    586    206  1    238
   792    206    583  1    238
   792    583    791  1    238
   791    583    581  1    238
   791    581    203  1    238
   791    203    577  1    238
   791    577    793  1    238
   793    577    201  1    238
   793    201    120  1    238
   793    120    121  1    238
   793    121    124  1    238
   793    124    586  1    238
   470    133    591  1    239
   470    591    794  1    239
   470    794    468  1    239
   468    794    795  1    239
   468    795    466  1    239
   466    795    127  1    239
   127    795    126  1    239
   126    795    588  1    239
   588    795    794  1    239
   588    794    207  1    239
   207    794    591  1    239
   135    136    593  1    240
   796    798    799  1    240
   797    796    799  1    240
   797    799    800  1    240
   797    800    593  1    240
   797    593    136  1    240
   797    136    601  1    240
   797    601    796  1    240
   796    601    599  1    240
   796    599    597  1    240
   796    597    798  1    240
   798    597    195  1    240
   798    195    582  1    240
   798    582    799  1    240
   799    582    584  1    240
   799    584    800  1    240
   800    584    205  1    240
   800    205    593  1    240
   582    195    196  1    240
   582    196    204  1    240
   484    142    212  1    241
   484    212    209  1    241
   484    209    482  1    241
   482    209    801  1    241
   482    801    139  1    241
   139    801    138  1    241
   138    801    602  1    241
   602    801    209  1    241
   602    209    609  1    241
   602    609    600  1    241
   600    609    605  1    241
   600    605    598  1    241
   598    605    189  1    241
   598    189    190  1    241
   598    190    193  1    241
   145    154    144  1    242
   144    154    213  1    242
   213    154    215  1    242
   802    803    804  1    243
   802    804    805  1    243
   804    803    807  1    243
   804    807    808  1    243
   804    808    809  1    243
   805    804    809  1    243
   805    809    810  1    243
   803    806    807  1    243
   807    806    812  1    243
   807    812    813  1    243
   808    807    813  1    243
   806    811    812  1    243
   812    811    815  1    243
   811    814    815  1    243
   815    814    218  1    243
   815    218    186  1    243
   815    186    187  1    243
   815    187    608  1    243
   815    608    813  1    243
   815    813    812  1    243
   813    608    612  1    243
   813    612    808  1    243
   808    612    809  1    243
   809    612    208  1    243
   809    208    810  1    243
   810    208    216  1    243
   810    216    156  1    243
   810    156    805  1    243
   805    156    157  1    243
   805    157    802  1    243
   802    157    230  1    243
   802    230    637  1    243
   802    637    803  1    243
   803    637    227  1    243
   803    227    806  1    243
   806    227    224  1    243
   806    224    811  1    243
   811    224    221  1    243
   811    221    814  1    243
   814    221    218  1    243
   160    231    159  1    244
   816    817    818  1    245
   816    818    819  1    245
   816    819    820  1    245
   816    820    821  1    245
   816    821    822  1    245
   816    822    817  1    245
   818    817    823  1    245
   821    820    824  1    245
   821    824    825  1    245
   821    825    826  1    245
   822    821    826  1    245
   822    826    827  1    245
   825    824    828  1    245
   825    828    239  1    245
   825    239    826  1    245
   826    239    650  1    245
   826    650    827  1    245
   827    650    236  1    245
   827    236    822  1    245
   822    236    646  1    245
   822    646    817  1    245
   817    646    823  1    245
   823    646    233  1    245
   823    233    228  1    245
   823    228    640  1    245
   823    640    818  1    245
   818    640    229  1    245
   818    229    819  1    245
   819    229    162  1    245
   819    162    512  1    245
   819    512    820  1    245
   820    512    515  1    245
   820    515    824  1    245
   824    515    518  1    245
   824    518    828  1    245
   828    518    163  1    245
   828    163    239  1    245
   829    831    832  1    246
   829    832    833  1    246
   830    829    833  1    246
   830    833    834  1    246
   831    836    837  1    246
   832    831    837  1    246
   832    837    838  1    246
   833    832    838  1    246
   833    838    839  1    246
   834    833    839  1    246
   835    840    841  1    246
   836    835    841  1    246
   836    841    842  1    246
   837    836    842  1    246
   838    837    842  1    246
   838    842    843  1    246
   839    838    843  1    246
   839    843    844  1    246
   841    840    845  1    246
   841    845    846  1    246
   842    841    846  1    246
   843    842    846  1    246
   843    846    847  1    246
   844    843    847  1    246
   846    845    848  1    246
   847    846    848  1    246
   847    848    248  1    246
   847    248    245  1    246
   847    245    844  1    246
   844    245    657  1    246
   844    657    839  1    246
   839    657    242  1    246
   839    242    834  1    246
   834    242    654  1    246
   834    654    830  1    246
   830    654    240  1    246
   830    240    829  1    246
   829    240    165  1    246
   829    165    831  1    246
   831    165    525  1    246
   831    525    835  1    246
   831    835    836  1    246
   835    525    166  1    246
   835    166    840  1    246
   840    166    174  1    246
   840    174    175  1    246
   840    175    845  1    246
   845    175    178  1    246
   845    178    848  1    246
   848    178    248  1    246
   169    172    168  1    247
   181    219    667  1    248
   181    667    664  1    248
   181    664    548  1    248
   548    664    251  1    248
   548    251    545  1    248
   545    251    249  1    248
   545    249    180  1    248
   667    219    220  1    248
   184    217    850  1    249
   184    850    553  1    249
   553    850    551  1    249
   551    850    849  1    249
   551    849    183  1    249
   183    849    217  1    249
   217    849    850  1    249
   579    202    852  1    250
   579    852    199  1    250
   199    852    573  1    250
   573    852    851  1    250
   573    851    571  1    250
   571    851    569  1    250
   569    851    852  1    250
   569    852    202  1    250
   569    202    198  1    250
   211    214    210  1    251
   854    857    858  1    252
   853    854    858  1    252
   853    858    855  1    252
   853    855    856  1    252
   856    855    860  1    252
   856    860    861  1    252
   857    862    863  1    252
   858    857    863  1    252
   858    863    864  1    252
   855    858    864  1    252
   855    864    859  1    252
   855    859    860  1    252
   860    859    866  1    252
   862    867    868  1    252
   863    862    868  1    252
   863    868    869  1    252
   864    863    869  1    252
   859    864    869  1    252
   859    869    865  1    252
   859    865    866  1    252
   866    865    870  1    252
   866    870    871  1    252
   868    867    872  1    252
   868    872    873  1    252
   869    868    873  1    252
   870    869    873  1    252
   865    869    870  1    252
   871    870    874  1    252
   873    872    875  1    252
   874    873    875  1    252
   870    873    874  1    252
   874    875    252  1    252
   874    252    666  1    252
   874    666    871  1    252
   871    666    669  1    252
   871    669    866  1    252
   866    669    861  1    252
   866    861    860  1    252
   861    669    222  1    252
   861    222    223  1    252
   861    223    856  1    252
   856    223    234  1    252
   856    234    648  1    252
   856    648    853  1    252
   853    648    854  1    252
   854    648    235  1    252
   854    235    857  1    252
   857    235    671  1    252
   857    671    862  1    252
   862    671    243  1    252
   862    243    867  1    252
   867    243    659  1    252
   867    659    872  1    252
   872    659    244  1    252
   872    244    875  1    252
   875    244    252  1    252
   226    232    225  1    253
   655    241    672  1    254
   655    672    876  1    254
   655    876    651  1    254
   655    651    238  1    254
   651    876    672  1    254
   651    672    237  1    254
   247    250    246  1    255
   877    878    879  1    256
   877    879    682  1    256
   877    682    684  1    256
   877    684    686  1    256
   877    686    878  1    256
   878    686    688  1    256
   878    688    254  1    256
   878    254    879  1    256
   879    254    680  1    256
   879    680    682  1    256
