# MSMS solvent excluded surface faces for fragments/fragment240.xyzr
#faces  #sphere density probe_r
   1558      38  3.00  1.50
     1    256    255  3      3
   255    256    257  3      3
   255    257      2  3      3
     2    257    258  3      3
   256    259    257  3      3
   257    259    260  3      3
   257    260    258  3      3
   258    260    261  3      3
   259    262    260  3      3
   260    262    263  3      3
   260    263    261  3      3
   261    263    264  3      3
   262    265    263  3      3
   263    265    266  3      3
   263    266    264  3      3
   264    266    267  3      3
   265    268    266  3      3
   266    268    269  3      3
   266    269    267  3      3
   267    269    270  3      3
   268      5    269  3      3
   269      5    271  3      3
   269    271    270  3      3
   270    271      4  3      3
     5    273    272  3      4
   272    273    274  3      4
   272    274      6  3      4
     6    274    275  3      4
   273    276    274  3      4
   274    276    277  3      4
   274    277    275  3      4
   275    277    278  3      4
   276    279    277  3      4
   277    279    280  3      4
   277    280    278  3      4
   278    280    281  3      4
   279      1    280  3      4
   280      1    282  3      4
   280    282    281  3      4
   281    282      3  3      4
     6      8    283  3      6
   283      8    284  3      6
   283    284      4  3      6
     4    284      7  3      6
     8    285      9  3      8
     9    285    286  3      8
   285     11    286  3      8
   286     11     10  3      8
    11    287     12  3     10
    12    287    288  3     10
   287     14    288  3     10
   288     14     13  3     10
    14    291    289  3     12
   289    291    292  3     12
   289    292    290  3     12
   290    292    293  3     12
   290    293     15  3     12
    15    293    294  3     12
   291    295    292  3     12
   292    295    296  3     12
   292    296    293  3     12
   293    296    297  3     12
   293    297    294  3     12
   294    297    298  3     12
   295     17    296  3     12
   296     17    299  3     12
   296    299    297  3     12
   297    299    300  3     12
   297    300    298  3     12
   298    300     16  3     12
    17    301     18  3     14
    18    301    302  3     14
   301     20    302  3     14
   302     20     19  3     14
    20    303     21  3     16
    21    303    304  3     16
   303     23    304  3     16
   304     23     22  3     16
    23      3    305  3     17
   305      3    306  3     17
   305    306     24  3     17
    24    306      2  3     17
    24     26     22  3     19
    22     26     25  3     19
    26    307     27  3     21
    27    307    308  3     21
   307    309    308  3     21
   308    309    310  3     21
   309    311    310  3     21
   310    311    312  3     21
   311     29    312  3     21
   312     29     28  3     21
    29     32     30  3     23
    30     32     31  3     23
    32    314    313  3     25
   313    314    315  3     25
   313    315     33  3     25
    33    315    316  3     25
   314    317    315  3     25
   315    317    318  3     25
   315    318    316  3     25
   316    318    319  3     25
   317    320    318  3     25
   318    320    321  3     25
   318    321    319  3     25
   319    321    322  3     25
   320    323    321  3     25
   321    323    324  3     25
   321    324    322  3     25
   322    324    325  3     25
   323    326    324  3     25
   324    326    327  3     25
   324    327    325  3     25
   325    327    328  3     25
   326     35    327  3     25
   327     35    329  3     25
   327    329    328  3     25
   328    329     34  3     25
    35     38     36  3     27
    36     38     37  3     27
    38    330     39  3     29
    39    330    331  3     29
   330    332    331  3     29
   331    332    333  3     29
   332    334    333  3     29
   333    334    335  3     29
   334     41    335  3     29
   335     41     40  3     29
    41      7     42  3     30
    42      7      9  3     30
    42    336     40  3     32
    40    336    337  3     32
   336    338    337  3     32
   337    338    339  3     32
   338     44    339  3     32
   339     44     43  3     32
    44    340     45  3     34
    45    340    341  3     34
   340     47    341  3     34
   341     47     46  3     34
    47     10     48  3     35
    48     10     12  3     35
    48     50     46  3     37
    46     50     49  3     37
    50     53    342  3     39
   342     53    343  3     39
   342    343     51  3     39
    51    343     52  3     39
    53     56    344  3     41
   344     56    345  3     41
   344    345     54  3     41
    54    345     55  3     41
    56     59    346  3     43
   346     59    347  3     43
   346    347     57  3     43
    57    347     58  3     43
    59     62    348  3     45
   348     62    349  3     45
   348    349     60  3     45
    60    349     61  3     45
    62     65    350  3     47
   350     65    351  3     47
   350    351     63  3     47
    63    351     64  3     47
    65     13    352  3     48
   352     13    353  3     48
   352    353     66  3     48
    66    353     15  3     48
    66     68    354  3     50
   354     68    355  3     50
   354    355     64  3     50
    64    355     67  3     50
    68     71     69  3     52
    69     71     70  3     52
    71    357    356  3     54
   356    357    358  3     54
   356    358     72  3     54
    72    358    359  3     54
   357    360    358  3     54
   358    360    361  3     54
   358    361    359  3     54
   359    361    362  3     54
   360     74    361  3     54
   361     74    363  3     54
   361    363    362  3     54
   362    363     73  3     54
    74    364     75  3     56
    75    364    365  3     56
   364     77    365  3     56
   365     77     76  3     56
    77     80    366  3     58
   366     80    367  3     58
   366    367     78  3     58
    78    367     79  3     58
    80     83     81  3     60
    81     83     82  3     60
    83     16    368  3     61
   368     16    369  3     61
   368    369     84  3     61
    84    369     18  3     61
    84     86    370  3     63
   370     86    372  3     63
   370    372    371  3     63
   371    372    373  3     63
   371    373     82  3     63
    82    373     85  3     63
    86     89    374  3     65
   374     89    376  3     65
   374    376    375  3     65
   375    376    377  3     65
   375    377     87  3     65
    87    377     88  3     65
    89     92    378  3     67
   378     92    379  3     67
   378    379     90  3     67
    90    379     91  3     67
    92     95    380  3     69
   380     95    381  3     69
   380    381     93  3     69
    93    381     94  3     69
    95     98    382  3     71
   382     98    383  3     71
   382    383     96  3     71
    96    383     97  3     71
    98    101     99  3     73
    99    101    100  3     73
   101     19    102  3     74
   102     19     21  3     74
   102    384    100  3     76
   100    384    385  3     76
   384    104    385  3     76
   385    104    103  3     76
   104    386    105  3     77
   105    386    387  3     77
   386    388    387  3     77
   387    388    389  3     77
   388     25    389  3     77
   389     25     27  3     77
   105    107    103  3     79
   103    107    106  3     79
   107    110    108  3     81
   108    110    109  3     81
   110    390    111  3     82
   111    390    391  3     82
   390     28    391  3     82
   391     28     30  3     82
   111    392    109  3     84
   109    392    393  3     84
   392    394    393  3     84
   393    394    395  3     84
   394    396    395  3     84
   395    396    397  3     84
   396    398    397  3     84
   397    398    399  3     84
   398    400    399  3     84
   399    400    401  3     84
   400    402    401  3     84
   401    402    403  3     84
   402    404    403  3     84
   403    404    405  3     84
   404    113    405  3     84
   405    113    112  3     84
   113    406    114  3     85
   114    406    407  3     85
   406     37    407  3     85
   407     37     39  3     85
   114    116    112  3     87
   112    116    115  3     87
   116     43    117  3     88
   117     43     45  3     88
   117    119    115  3     90
   115    119    118  3     90
   119    122    120  3     92
   120    122    121  3     92
   122    409    408  3     93
   408    409    410  3     93
   408    410    123  3     93
   123    410    411  3     93
   409     49    410  3     93
   410     49    412  3     93
   410    412    411  3     93
   411    412     51  3     93
   123    125    413  3     95
   413    125    415  3     95
   413    415    414  3     95
   414    415    416  3     95
   414    416    121  3     95
   121    416    124  3     95
   125    417    126  3     96
   126    417    418  3     96
   417    419    418  3     96
   418    419    420  3     96
   419     52    420  3     96
   420     52     54  3     96
   126    422    421  3     98
   421    422    423  3     98
   421    423    124  3     98
   124    423    424  3     98
   422    128    423  3     98
   423    128    425  3     98
   423    425    424  3     98
   424    425    127  3     98
   128    426    129  3    100
   129    426    427  3    100
   426    428    427  3    100
   427    428    429  3    100
   428    430    429  3    100
   429    430    431  3    100
   430    131    431  3    100
   431    131    130  3    100
   131    134    432  3    102
   432    134    434  3    102
   432    434    433  3    102
   433    434    435  3    102
   433    435    132  3    102
   132    435    133  3    102
   134    137    436  3    104
   436    137    437  3    104
   436    437    135  3    104
   135    437    136  3    104
   137    438    138  3    105
   138    438    439  3    105
   438    440    439  3    105
   439    440    441  3    105
   440     55    441  3    105
   441     55     57  3    105
   138    442    136  3    107
   136    442    443  3    107
   442    444    443  3    107
   443    444    445  3    107
   444    446    445  3    107
   445    446    447  3    107
   446    140    447  3    107
   447    140    139  3    107
   140    143    141  3    109
   141    143    142  3    109
   143    146    448  3    111
   448    146    449  3    111
   448    449    144  3    111
   144    449    145  3    111
   146    450    147  3    112
   147    450    451  3    112
   450     58    451  3    112
   451     58     60  3    112
   147     61    452  3    113
   452     61    453  3    113
   452    453    145  3    113
   145    453     63  3    113
   144    149    142  3    115
   142    149    148  3    115
   149    152    454  3    117
   454    152    455  3    117
   454    455    150  3    117
   150    455    151  3    117
   152     67    153  3    118
   153     67     69  3    118
   153     70    151  3    119
   151     70     72  3    119
   150    155    456  3    121
   456    155    457  3    121
   456    457    148  3    121
   148    457    154  3    121
   155    158    458  3    123
   458    158    459  3    123
   458    459    156  3    123
   156    459    157  3    123
   158    161    460  3    125
   460    161    461  3    125
   460    461    159  3    125
   159    461    160  3    125
   161    463    462  3    127
   462    463    464  3    127
   462    464    162  3    127
   162    464    465  3    127
   463    164    464  3    127
   464    164    466  3    127
   464    466    465  3    127
   465    466    163  3    127
   164    467    165  3    128
   165    467    468  3    128
   467     73    468  3    128
   468     73     75  3    128
   165    469    163  3    129
   163    469    470  3    129
   469     76    470  3    129
   470     76     78  3    129
   162    167    471  3    131
   471    167    472  3    131
   471    472    160  3    131
   160    472    166  3    131
   167    474    473  3    133
   473    474    475  3    133
   473    475    168  3    133
   168    475    476  3    133
   474    170    475  3    133
   475    170    477  3    133
   475    477    476  3    133
   476    477    169  3    133
   170     88    478  3    134
   478     88    479  3    134
   478    479    171  3    134
   171    479     90  3    134
   171    480    169  3    135
   169    480    481  3    135
   480    482    481  3    135
   481    482    483  3    135
   482    166    483  3    135
   483    166    168  3    135
   159    173    157  3    137
   157    173    172  3    137
   173    485    484  3    139
   484    485    486  3    139
   484    486    174  3    139
   174    486    487  3    139
   485    176    486  3    139
   486    176    488  3    139
   486    488    487  3    139
   487    488    175  3    139
   176    489    177  3    141
   177    489    490  3    141
   489    491    490  3    141
   490    491    492  3    141
   491    179    492  3    141
   492    179    178  3    141
   179    493    180  3    142
   180    493    494  3    142
   493     91    494  3    142
   494     91     93  3    142
   180    495    178  3    144
   178    495    496  3    144
   495    182    496  3    144
   496    182    181  3    144
   182    497    183  3    145
   183    497    498  3    145
   497    499    498  3    145
   498    499    500  3    145
   499     94    500  3    145
   500     94     96  3    145
   183    185    181  3    147
   181    185    184  3    147
   185    188    501  3    149
   501    188    502  3    149
   501    502    186  3    149
   186    502    187  3    149
   188    191    189  3    151
   189    191    190  3    151
   191    503    192  3    153
   192    503    504  3    153
   503    194    504  3    153
   504    194    193  3    153
   194    197    505  3    155
   505    197    506  3    155
   505    506    195  3    155
   195    506    196  3    155
   197    507    198  3    156
   198    507    508  3    156
   507     97    508  3    156
   508     97     99  3    156
   198    200    196  3    158
   196    200    199  3    158
   200    106    201  3    159
   201    106    108  3    159
   201    509    199  3    160
   199    509    510  3    160
   509    511    510  3    160
   510    511    512  3    160
   511    513    512  3    160
   512    513    514  3    160
   513    515    514  3    160
   514    515    516  3    160
   515    517    516  3    160
   516    517    518  3    160
   517    519    518  3    160
   518    519    520  3    160
   519    521    520  3    160
   520    521    522  3    160
   521    118    522  3    160
   522    118    120  3    160
   195    524    523  3    162
   523    524    525  3    162
   523    525    193  3    162
   193    525    526  3    162
   524    203    525  3    162
   525    203    527  3    162
   525    527    526  3    162
   526    527    202  3    162
   203    206    528  3    164
   528    206    529  3    164
   528    529    204  3    164
   204    529    205  3    164
   206    127    530  3    165
   530    127    532  3    165
   530    532    531  3    165
   531    532    533  3    165
   531    533    207  3    165
   207    533    129  3    165
   207    209    205  3    167
   205    209    208  3    167
   209    190    534  3    168
   534    190    535  3    168
   534    535    210  3    168
   210    535    192  3    168
   210    202    208  3    169
   208    202    204  3    169
   189    536    187  3    171
   187    536    537  3    171
   536    212    537  3    171
   537    212    211  3    171
   212    539    538  3    173
   538    539    540  3    173
   538    540    213  3    173
   213    540    541  3    173
   539    215    540  3    173
   540    215    542  3    173
   540    542    541  3    173
   541    542    214  3    173
   215    130    543  3    174
   543    130    545  3    174
   543    545    544  3    174
   544    545    546  3    174
   544    546    216  3    174
   216    546    132  3    174
   216    548    547  3    176
   547    548    549  3    176
   547    549    214  3    176
   214    549    550  3    176
   548    551    549  3    176
   549    551    552  3    176
   549    552    550  3    176
   550    552    553  3    176
   551    218    552  3    176
   552    218    554  3    176
   552    554    553  3    176
   553    554    217  3    176
   218    555    219  3    178
   219    555    556  3    178
   555    221    556  3    178
   556    221    220  3    178
   221    224    557  3    180
   557    224    558  3    180
   557    558    222  3    180
   222    558    223  3    180
   224    559    225  3    182
   225    559    560  3    182
   559    227    560  3    182
   560    227    226  3    182
   227    562    561  3    183
   561    562    563  3    183
   561    563    228  3    183
   228    563    564  3    183
   562    565    563  3    183
   563    565    566  3    183
   563    566    564  3    183
   564    566    567  3    183
   565    133    566  3    183
   566    133    568  3    183
   566    568    567  3    183
   567    568    135  3    183
   228    230    226  3    185
   226    230    229  3    185
   230    233    569  3    187
   569    233    570  3    187
   569    570    231  3    187
   231    570    232  3    187
   233    139    571  3    188
   571    139    572  3    188
   571    572    234  3    188
   234    572    141  3    188
   234    236    573  3    190
   573    236    574  3    190
   573    574    232  3    190
   232    574    235  3    190
   236    154    237  3    191
   237    154    156  3    191
   237    576    575  3    192
   575    576    577  3    192
   575    577    235  3    192
   235    577    578  3    192
   576    172    577  3    192
   577    172    579  3    192
   577    579    578  3    192
   578    579    174  3    192
   231    580    229  3    193
   229    580    581  3    193
   580    223    581  3    193
   581    223    225  3    193
   222    582    220  3    195
   220    582    583  3    195
   582    239    583  3    195
   583    239    238  3    195
   239    242    584  3    197
   584    242    585  3    197
   584    585    240  3    197
   240    585    241  3    197
   242    245    586  3    199
   586    245    587  3    199
   586    587    243  3    199
   243    587    244  3    199
   245    175    588  3    200
   588    175    589  3    200
   588    589    246  3    200
   246    589    177  3    200
   246    248    244  3    202
   244    248    247  3    202
   248    251    590  3    204
   590    251    591  3    204
   590    591    249  3    204
   249    591    250  3    204
   251    184    592  3    205
   592    184    593  3    205
   592    593    252  3    205
   252    593    186  3    205
   252    594    250  3    206
   250    594    595  3    206
   594    211    595  3    206
   595    211    213  3    206
   249    241    596  3    207
   596    241    597  3    207
   596    597    247  3    207
   247    597    243  3    207
   240    598    238  3    208
   238    598    599  3    208
   598    217    599  3    208
   599    217    219  3    208
    87     79     85  3    209
    85     79     81  3    209
    36    601    600  3    210
   600    601    602  3    210
   600    602     34  3    210
    34    602    603  3    210
   601    604    602  3    210
   602    604    605  3    210
   602    605    603  3    210
   603    605    606  3    210
   604     31    605  3    210
   605     31    607  3    210
   605    607    606  3    210
   606    607     33  3    210
   253    608    254  3    211
   254    608    609  3    211
   608    610    609  3    211
   609    610    611  3    211
   610    612    611  3    211
   611    612    613  3    211
   612    614    613  3    211
   613    614    615  3    211
   614    616    615  3    211
   615    616    617  3    211
   616    253    617  3    211
   617    253    254  3    211
   282      1    255  2      1
   282    255    306  2      1
   282    306      3  2      1
   306    255      2  2      1
   283      4    271  2      2
   283    271    272  2      2
   283    272      6  2      2
   272    271      5  2      2
     9      7    284  2      5
     9    284      8  2      5
    12     10     11  2      7
   353     13    289  2      9
   353    289    290  2      9
   353    290     15  2      9
   289     13     14  2      9
   369     16    300  2     11
   369    300    299  2     11
   369    299     18  2     11
    18    299     17  2     11
    21     19     20  2     13
    24     22    305  2     15
   305     22     23  2     15
    27     25     26  2     18
    30     28     29  2     20
   607     31     32  2     22
   607     32    313  2     22
   607    313     33  2     22
   600     34    329  2     24
   600    329     35  2     24
   600     35     36  2     24
    39     37     38  2     26
    42     40     41  2     28
    45     43     44  2     31
    48     46     47  2     33
   412     49    342  2     36
   412    342     51  2     36
   342     49     50  2     36
    54     52    343  2     38
    54    343    344  2     38
   344    343     53  2     38
    57     55    346  2     40
   346     55    345  2     40
   346    345     56  2     40
    60     58    347  2     42
    60    347    348  2     42
   348    347     59  2     42
   453     61    349  2     44
   453    349    350  2     44
   453    350     63  2     44
   350    349     62  2     44
   354     64    351  2     46
   354    351    352  2     46
   354    352     66  2     46
   352    351     65  2     46
    69     67    355  2     49
    69    355     68  2     49
    72     70    356  2     51
   356     70     71  2     51
    75     73    363  2     53
    75    363     74  2     53
    78     76    366  2     55
   366     76     77  2     55
    81     79    367  2     57
    81    367     80  2     57
   371     82     83  2     59
   371     83    368  2     59
   371    368    370  2     59
   370    368     84  2     59
    87     85    375  2     62
   375     85    373  2     62
   375    373    374  2     62
   374    373    372  2     62
   374    372     86  2     62
   479     88    377  2     64
   479    377    618  2     64
   479    618     90  2     64
    90    618    378  2     64
   378    618    376  2     64
   378    376     89  2     64
   376    618    377  2     64
    93     91    379  2     66
    93    379    380  2     66
   380    379     92  2     66
    96     94    381  2     68
    96    381    382  2     68
   382    381     95  2     68
    99     97    383  2     70
    99    383     98  2     70
   102    100    101  2     72
   105    103    104  2     75
   108    106    107  2     78
   111    109    110  2     80
   114    112    113  2     83
   117    115    116  2     86
   120    118    119  2     89
   414    121    122  2     91
   414    122    408  2     91
   414    408    413  2     91
   413    408    123  2     91
   421    124    416  2     94
   421    416    415  2     94
   421    415    126  2     94
   126    415    125  2     94
   532    127    425  2     97
   532    425    533  2     97
   533    425    128  2     97
   533    128    129  2     97
   545    130    432  2     99
   545    432    433  2     99
   545    433    546  2     99
   546    433    132  2     99
   432    130    131  2     99
   568    133    435  2    101
   568    435    135  2    101
   135    435    434  2    101
   135    434    436  2    101
   436    434    134  2    101
   138    136    437  2    103
   138    437    137  2    103
   572    139    140  2    106
   572    140    141  2    106
   144    142    448  2    108
   448    142    143  2    108
   452    145    449  2    110
   452    449    147  2    110
   147    449    146  2    110
   456    148    149  2    114
   456    149    454  2    114
   456    454    150  2    114
   153    151    455  2    116
   153    455    152  2    116
   156    154    458  2    120
   458    154    457  2    120
   458    457    155  2    120
   159    157    459  2    122
   159    459    460  2    122
   460    459    158  2    122
   471    160    461  2    124
   471    461    462  2    124
   471    462    162  2    124
   462    461    161  2    124
   165    163    466  2    126
   165    466    164  2    126
   168    166    472  2    130
   168    472    473  2    130
   473    472    167  2    130
   171    169    478  2    132
   478    169    477  2    132
   478    477    170  2    132
   579    172    484  2    136
   579    484    174  2    136
   484    172    173  2    136
   589    175    488  2    138
   589    488    177  2    138
   177    488    176  2    138
   180    178    179  2    140
   183    181    182  2    143
   593    184    185  2    146
   593    185    501  2    146
   593    501    186  2    146
   189    187    502  2    148
   189    502    188  2    148
   535    190    191  2    150
   535    191    192  2    150
   523    193    505  2    152
   523    505    195  2    152
   505    193    194  2    152
   198    196    506  2    154
   198    506    197  2    154
   201    199    200  2    157
   204    202    528  2    161
   528    202    527  2    161
   528    527    203  2    161
   207    205    531  2    163
   531    205    530  2    163
   530    205    529  2    163
   530    529    206  2    163
   210    208    534  2    166
   534    208    209  2    166
   213    211    538  2    170
   538    211    212  2    170
   547    214    544  2    172
   547    544    216  2    172
   544    214    543  2    172
   543    214    542  2    172
   543    542    215  2    172
   219    217    554  2    175
   219    554    218  2    175
   222    220    557  2    177
   557    220    221  2    177
   225    223    558  2    179
   225    558    224  2    179
   228    226    561  2    181
   561    226    227  2    181
   231    229    569  2    184
   569    229    230  2    184
   573    232    570  2    186
   573    570    571  2    186
   573    571    234  2    186
   571    570    233  2    186
   575    235    574  2    189
   575    574    237  2    189
   237    574    236  2    189
   240    238    584  2    194
   584    238    239  2    194
   597    241    585  2    196
   597    585    586  2    196
   597    586    243  2    196
   586    585    242  2    196
   246    244    588  2    198
   588    244    587  2    198
   588    587    245  2    198
   596    247    590  2    201
   596    590    249  2    201
   590    247    248  2    201
   252    250    591  2    203
   252    591    592  2    203
   592    591    251  2    203
   273      5    268  1    212
   273    268    619  1    212
   273    619    276  1    212
   276    619    620  1    212
   276    620    279  1    212
   279    620    256  1    212
   279    256      1  1    212
   256    620    259  1    212
   259    620    262  1    212
   262    620    619  1    212
   262    619    265  1    212
   265    619    268  1    212
   622    621    623  1    213
   622    623    624  1    213
   624    623    627  1    213
   626    625    628  1    213
   626    628    317  1    213
   626    317    314  1    213
   626    314    311  1    213
   626    311    309  1    213
   626    309    625  1    213
   625    309    307  1    213
   625    307    258  1    213
   625    258    628  1    213
   628    258    261  1    213
   628    261    629  1    213
   628    629    317  1    213
   317    629    320  1    213
   320    629    264  1    213
   320    264    267  1    213
   320    267    627  1    213
   320    627    323  1    213
   323    627    623  1    213
   323    623    326  1    213
   326    623    621  1    213
   326    621     38  1    213
   326     38     35  1    213
    38    621    330  1    213
   330    621    332  1    213
   332    621    622  1    213
   332    622    334  1    213
   334    622    624  1    213
   334    624    270  1    213
   334    270     41  1    213
    41    270      7  1    213
     7    270      4  1    213
   270    624    267  1    213
   267    624    627  1    213
   264    629    261  1    213
   258    307     26  1    213
   258     26     24  1    213
   258     24      2  1    213
   311    314     29  1    213
    29    314     32  1    213
     3     23    631  1    214
     3    631    633  1    214
     3    633    281  1    214
   281    633    295  1    214
   281    295    278  1    214
   278    295    291  1    214
   278    291    275  1    214
   275    291    632  1    214
   275    632      6  1    214
     6    632    630  1    214
     6    630      8  1    214
     8    630    285  1    214
   285    630    287  1    214
   285    287     11  1    214
   287    630     14  1    214
    14    630    632  1    214
    14    632    291  1    214
   295    633     17  1    214
    17    633    631  1    214
    17    631    301  1    214
   301    631    303  1    214
   301    303     20  1    214
   303    631     23  1    214
    10     47    634  1    215
    10    634    336  1    215
    10    336    286  1    215
   286    336     42  1    215
   286     42      9  1    215
   336    634    338  1    215
   338    634    340  1    215
   338    340     44  1    215
   340    634     47  1    215
    13     65    635  1    216
    13    635    288  1    216
   288    635     12  1    216
    12    635     59  1    216
    12     59     56  1    216
    12     56     48  1    216
    48     56     53  1    216
    48     53     50  1    216
    59    635     62  1    216
    62    635     65  1    216
   636    637    638  1    217
   637    642    643  1    217
   638    637    643  1    217
   640    639    646  1    217
   641    640    646  1    217
   642    641    647  1    217
   643    642    647  1    217
   644    643    647  1    217
   645    644    647  1    217
   646    645    647  1    217
   641    646    647  1    217
   640    641    298  1    217
   640    298     16  1    217
   640     16     80  1    217
   640     80    639  1    217
   639     80     77  1    217
   639     77    645  1    217
   639    645    646  1    217
   645     77    364  1    217
   645    364     74  1    217
   645     74    644  1    217
   644     74    360  1    217
   644    360    638  1    217
   644    638    643  1    217
   638    360    357  1    217
   638    357    636  1    217
   636    357     71  1    217
   636     71     68  1    217
   636     68     66  1    217
   636     66     15  1    217
   636     15    637  1    217
   637     15    294  1    217
   637    294    642  1    217
   642    294    641  1    217
   641    294    298  1    217
    80     16     83  1    217
    19    101    648  1    218
    19    648    649  1    218
    19    649    302  1    218
   302    649     84  1    218
   302     84     18  1    218
    84    649     86  1    218
    86    649     89  1    218
    89    649    648  1    218
    89    648     92  1    218
    92    648     95  1    218
    95    648     98  1    218
    98    648    101  1    218
    22     25    304  1    219
   304     25    388  1    219
   304    388    651  1    219
   304    651     21  1    219
    21    651    650  1    219
    21    650    102  1    219
   102    650    384  1    219
   384    650    386  1    219
   384    386    104  1    219
   386    650    651  1    219
   386    651    388  1    219
   107    105    110  1    220
   390    110    653  1    220
   390    653    312  1    220
   390    312     28  1    220
   312    653    310  1    220
   310    653    652  1    220
   310    652    308  1    220
   308    652    389  1    220
   308    389     27  1    220
   389    652    387  1    220
   387    652    105  1    220
   105    652    653  1    220
   105    653    110  1    220
   601     36    657  1    221
   601    657    656  1    221
   601    656    655  1    221
   601    655    604  1    221
   604    655    654  1    221
   604    654    659  1    221
   604    659     31  1    221
    31    659     30  1    221
    30    659    391  1    221
   391    659    392  1    221
   391    392    111  1    221
   392    659    394  1    221
   394    659    654  1    221
   394    654    396  1    221
   396    654    655  1    221
   396    655    398  1    221
   398    655    656  1    221
   398    656    400  1    221
   400    656    657  1    221
   400    657    402  1    221
   402    657    658  1    221
   402    658    404  1    221
   404    658    406  1    221
   404    406    113  1    221
   406    658     37  1    221
    37    658    657  1    221
    37    657     36  1    221
   661    660    663  1    222
   661    663    664  1    222
   662    661    664  1    222
   662    664    325  1    222
   662    325    328  1    222
   662    328     34  1    222
   662     34    603  1    222
   662    603    661  1    222
   661    603    606  1    222
   661    606    660  1    222
   660    606     33  1    222
   660     33    316  1    222
   660    316    319  1    222
   660    319    663  1    222
   663    319    322  1    222
   663    322    664  1    222
   664    322    325  1    222
   339     43    665  1    223
   339    665    337  1    223
   337    665    335  1    223
   337    335     40  1    223
   335    665    333  1    223
   333    665    331  1    223
   331    665    407  1    223
   331    407     39  1    223
   407    665    114  1    223
   114    665    116  1    223
   116    665     43  1    223
    46     49    341  1    224
   341     49    409  1    224
   341    409     45  1    224
    45    409    117  1    224
   117    409    119  1    224
   119    409    122  1    224
   417    125    666  1    225
   417    666    419  1    225
   419    666    667  1    225
   419    667     52  1    225
    52    667     51  1    225
    51    667    411  1    225
   411    667    666  1    225
   411    666    123  1    225
   123    666    125  1    225
   438    137    420  1    226
   438    420    440  1    226
   440    420     54  1    226
   440     54     55  1    226
   420    137    418  1    226
   418    137    670  1    226
   418    670    669  1    226
   418    669    668  1    226
   418    668    126  1    226
   126    668    422  1    226
   422    668    426  1    226
   422    426    128  1    226
   426    668    428  1    226
   428    668    669  1    226
   428    669    430  1    226
   430    669    670  1    226
   430    670    131  1    226
   131    670    134  1    226
   134    670    137  1    226
   450    146    446  1    227
   450    446    444  1    227
   450    444    442  1    227
   450    442    441  1    227
   450    441     58  1    227
    58    441     57  1    227
   441    442    439  1    227
   439    442    138  1    227
   446    146    143  1    227
   446    143    140  1    227
    61    147    451  1    228
    61    451     60  1    228
    64     67     63  1    229
    63     67    152  1    229
    63    152    145  1    229
   145    152    149  1    229
   145    149    144  1    229
    70    153     69  1    230
   671    676    677  1    231
   672    671    677  1    231
   672    677    678  1    231
   673    672    678  1    231
   673    678    679  1    231
   674    680    681  1    231
   675    674    681  1    231
   675    681    682  1    231
   676    675    682  1    231
   676    682    683  1    231
   677    676    683  1    231
   677    683    684  1    231
   678    677    684  1    231
   678    684    685  1    231
   679    678    685  1    231
   681    680    686  1    231
   682    681    686  1    231
   682    686    687  1    231
   683    682    687  1    231
   683    687    688  1    231
   684    683    688  1    231
   684    688    689  1    231
   685    684    689  1    231
   688    687    690  1    231
   688    690    689  1    231
   689    690     73  1    231
   689     73    467  1    231
   689    467    164  1    231
   689    164    685  1    231
   685    164    463  1    231
   685    463    679  1    231
   679    463    161  1    231
   679    161    673  1    231
   673    161    158  1    231
   673    158    672  1    231
   672    158    671  1    231
   671    158    155  1    231
   671    155    675  1    231
   671    675    676  1    231
   675    155    674  1    231
   674    155    150  1    231
   674    150    151  1    231
   674    151    680  1    231
   680    151     72  1    231
   680     72    359  1    231
   680    359    686  1    231
   686    359    362  1    231
   686    362    690  1    231
   686    690    687  1    231
   690    362     73  1    231
   469    165    468  1    232
   469    468    365  1    232
   469    365     76  1    232
   365    468     75  1    232
   691    693    694  1    233
   692    691    694  1    233
   692    694    695  1    233
   693    698    699  1    233
   694    693    699  1    233
   694    699    700  1    233
   695    694    700  1    233
   695    700    701  1    233
   696    695    701  1    233
   696    701    702  1    233
   697    696    702  1    233
   699    698    703  1    233
   699    703    704  1    233
   700    699    704  1    233
   700    704    705  1    233
   701    700    705  1    233
   701    705    706  1    233
   702    701    706  1    233
   702    706     79  1    233
   702     79     87  1    233
   702     87     88  1    233
   702     88    697  1    233
   697     88    170  1    233
   697    170    696  1    233
   696    170    474  1    233
   696    474    695  1    233
   695    474    692  1    233
   692    474    167  1    233
   692    167    691  1    233
   691    167    162  1    233
   691    162    693  1    233
   693    162    465  1    233
   693    465    698  1    233
   698    465    163  1    233
   698    163    703  1    233
   703    163    470  1    233
   703    470    704  1    233
   704    470     78  1    233
   704     78    705  1    233
   705     78    706  1    233
   706     78     79  1    233
    82     85     81  1    234
   493    179    171  1    235
   493    171     91  1    235
    91    171     90  1    235
   171    179    480  1    235
   480    179    491  1    235
   480    491    482  1    235
   482    491    489  1    235
   482    489    707  1    235
   482    707    166  1    235
   166    707    708  1    235
   166    708    160  1    235
   160    708    159  1    235
   159    708    173  1    235
   173    708    485  1    235
   485    708    707  1    235
   485    707    176  1    235
   176    707    489  1    235
   497    182    495  1    236
   497    495    180  1    236
   497    180    499  1    236
   499    180    494  1    236
   499    494     94  1    236
    94    494     93  1    236
   507    197    711  1    237
   507    711     97  1    237
    97    711    500  1    237
    97    500     96  1    237
   500    711    710  1    237
   500    710    498  1    237
   498    710    503  1    237
   498    503    709  1    237
   498    709    183  1    237
   183    709    185  1    237
   185    709    188  1    237
   188    709    503  1    237
   188    503    191  1    237
   503    710    194  1    237
   194    710    711  1    237
   194    711    197  1    237
   103    106    385  1    238
   385    106    712  1    238
   385    712    100  1    238
   100    712     99  1    238
    99    712    508  1    238
   508    712    200  1    238
   508    200    198  1    238
   200    712    106  1    238
   713    715    716  1    239
   716    715    718  1    239
   716    718    719  1    239
   717    721    722  1    239
   718    725    726  1    239
   719    718    726  1    239
   719    726    727  1    239
   720    719    727  1    239
   720    727    728  1    239
   721    729    730  1    239
   722    721    730  1    239
   722    730    731  1    239
   723    722    731  1    239
   723    731    732  1    239
   723    732    610  1    239
   723    610    608  1    239
   723    608    717  1    239
   723    717    722  1    239
   717    608    714  1    239
   717    714    511  1    239
   717    511    509  1    239
   717    509    721  1    239
   721    509    201  1    239
   721    201    729  1    239
   729    201    108  1    239
   729    108    109  1    239
   729    109    730  1    239
   730    109    393  1    239
   730    393    731  1    239
   731    393    395  1    239
   731    395    732  1    239
   732    395    397  1    239
   732    397    612  1    239
   732    612    610  1    239
   612    397    399  1    239
   612    399    614  1    239
   614    399    401  1    239
   614    401    724  1    239
   614    724    718  1    239
   614    718    616  1    239
   616    718    715  1    239
   616    715    253  1    239
   253    715    713  1    239
   253    713    517  1    239
   253    517    515  1    239
   253    515    714  1    239
   253    714    608  1    239
   714    515    513  1    239
   714    513    511  1    239
   517    713    519  1    239
   519    713    716  1    239
   519    716    521  1    239
   521    716    720  1    239
   521    720    118  1    239
   118    720    728  1    239
   118    728    115  1    239
   115    728    112  1    239
   112    728    727  1    239
   112    727    405  1    239
   405    727    726  1    239
   405    726    725  1    239
   405    725    403  1    239
   403    725    724  1    239
   403    724    401  1    239
   724    725    718  1    239
   720    716    719  1    239
   121    124    522  1    240
   121    522    120  1    240
   522    124    424  1    240
   522    424    520  1    240
   520    424    518  1    240
   518    424    734  1    240
   518    734    516  1    240
   516    734    733  1    240
   516    733    514  1    240
   514    733    524  1    240
   514    524    512  1    240
   512    524    195  1    240
   512    195    510  1    240
   510    195    196  1    240
   510    196    199  1    240
   524    733    203  1    240
   203    733    734  1    240
   203    734    206  1    240
   206    734    127  1    240
   127    734    424  1    240
   130    215    431  1    241
   431    215    737  1    241
   431    737    429  1    241
   429    737    427  1    241
   427    737    736  1    241
   427    736    129  1    241
   129    736    735  1    241
   129    735    209  1    241
   129    209    207  1    241
   209    735    190  1    241
   190    735    536  1    241
   190    536    189  1    241
   536    735    212  1    241
   212    735    736  1    241
   212    736    539  1    241
   539    736    737  1    241
   539    737    215  1    241
   738    739    740  1    242
   738    740    741  1    242
   739    742    743  1    242
   740    739    743  1    242
   740    743    744  1    242
   740    744    745  1    242
   741    740    745  1    242
   741    745    746  1    242
   742    747    748  1    242
   743    742    748  1    242
   743    748    749  1    242
   744    743    749  1    242
   744    749    750  1    242
   744    750    751  1    242
   745    744    751  1    242
   745    751    752  1    242
   746    745    752  1    242
   748    747    753  1    242
   748    753    754  1    242
   749    748    754  1    242
   749    754    755  1    242
   750    749    755  1    242
   750    755    756  1    242
   751    750    756  1    242
   755    754    757  1    242
   756    755    757  1    242
   756    757    227  1    242
   756    227    559  1    242
   756    559    224  1    242
   756    224    752  1    242
   756    752    751  1    242
   752    224    221  1    242
   752    221    746  1    242
   746    221    555  1    242
   746    555    741  1    242
   741    555    738  1    242
   738    555    218  1    242
   738    218    551  1    242
   738    551    739  1    242
   739    551    548  1    242
   739    548    742  1    242
   742    548    747  1    242
   747    548    216  1    242
   747    216    132  1    242
   747    132    133  1    242
   747    133    753  1    242
   753    133    565  1    242
   753    565    754  1    242
   754    565    562  1    242
   754    562    757  1    242
   757    562    227  1    242
   447    139    228  1    243
   447    228    445  1    243
   445    228    564  1    243
   445    564    758  1    243
   445    758    443  1    243
   443    758    136  1    243
   136    758    567  1    243
   136    567    135  1    243
   567    758    564  1    243
   228    139    230  1    243
   230    139    233  1    243
   142    148    141  1    244
   141    148    154  1    244
   141    154    236  1    244
   141    236    234  1    244
   157    172    576  1    245
   157    576    156  1    245
   156    576    237  1    245
   483    168    476  1    246
   483    476    481  1    246
   481    476    169  1    246
   759    760    761  1    247
   759    761    762  1    247
   760    763    764  1    247
   761    760    764  1    247
   761    764    765  1    247
   761    765    766  1    247
   762    761    766  1    247
   763    767    768  1    247
   764    763    768  1    247
   764    768    765  1    247
   765    768    174  1    247
   765    174    766  1    247
   766    174    487  1    247
   766    487    175  1    247
   766    175    245  1    247
   766    245    762  1    247
   762    245    242  1    247
   762    242    239  1    247
   762    239    759  1    247
   759    239    582  1    247
   759    582    760  1    247
   760    582    222  1    247
   760    222    763  1    247
   763    222    223  1    247
   763    223    767  1    247
   767    223    580  1    247
   767    580    235  1    247
   767    235    578  1    247
   767    578    768  1    247
   768    578    174  1    247
   235    580    231  1    247
   235    231    232  1    247
   496    181    769  1    248
   496    769    492  1    248
   496    492    178  1    248
   492    769    490  1    248
   490    769    248  1    248
   490    248    246  1    248
   490    246    177  1    248
   248    769    251  1    248
   251    769    181  1    248
   251    181    184  1    248
   537    211    594  1    249
   537    594    187  1    249
   187    594    186  1    249
   186    594    252  1    249
   526    202    210  1    250
   526    210    192  1    250
   526    192    770  1    250
   526    770    193  1    250
   193    770    504  1    250
   504    770    192  1    250
   205    208    204  1    251
   771    772    773  1    252
   771    774    775  1    252
   771    775    772  1    252
   775    774    777  1    252
   775    777    778  1    252
   775    778    779  1    252
   772    775    779  1    252
   772    779    213  1    252
   772    213    773  1    252
   773    213    541  1    252
   773    541    776  1    252
   773    776    553  1    252
   773    553    771  1    252
   771    553    217  1    252
   771    217    774  1    252
   774    217    598  1    252
   774    598    240  1    252
   774    240    777  1    252
   777    240    241  1    252
   777    241    249  1    252
   777    249    778  1    252
   778    249    250  1    252
   778    250    779  1    252
   779    250    595  1    252
   779    595    213  1    252
   553    776    550  1    252
   550    776    214  1    252
   214    776    541  1    252
   583    238    599  1    253
   583    599    556  1    253
   583    556    220  1    253
   556    599    219  1    253
   226    229    581  1    254
   226    581    560  1    254
   560    581    225  1    254
   244    247    243  1    255
   617    254    781  1    256
   617    781    615  1    256
   615    781    613  1    256
   613    781    780  1    256
   613    780    611  1    256
   611    780    609  1    256
   609    780    254  1    256
   254    780    781  1    256
