# MSMS solvent excluded surface faces for fragments/fragment129.xyzr
#faces  #sphere density probe_r
   2200      61  3.00  1.50
     1    375      2  3      3
     2    375    376  3      3
   375    377    376  3      3
   376    377    378  3      3
   377    379    378  3      3
   378    379    380  3      3
   379    381    380  3      3
   380    381    382  3      3
   381      5    382  3      3
   382      5      4  3      3
     5      8      6  3      5
     6      8      7  3      5
     8     11    383  3      7
   383     11    385  3      7
   383    385    384  3      7
   384    385    386  3      7
   384    386      9  3      7
     9    386     10  3      7
    11     14    387  3      9
   387     14    388  3      9
   387    388     12  3      9
    12    388     13  3      9
    14    391    389  3     11
   389    391    392  3     11
   389    392    390  3     11
   390    392    393  3     11
   390    393     15  3     11
    15    393    394  3     11
   391    395    392  3     11
   392    395    396  3     11
   392    396    393  3     11
   393    396    397  3     11
   393    397    394  3     11
   394    397    398  3     11
   395     17    396  3     11
   396     17    399  3     11
   396    399    397  3     11
   397    399    400  3     11
   397    400    398  3     11
   398    400     16  3     11
    17     20    401  3     13
   401     20    403  3     13
   401    403    402  3     13
   402    403    404  3     13
   402    404     18  3     13
    18    404     19  3     13
    20     23     21  3     15
    21     23     22  3     15
    23    406    405  3     16
   405    406    407  3     16
   405    407     24  3     16
    24    407    408  3     16
   406      1    407  3     16
   407      1    409  3     16
   407    409    408  3     16
   408    409      3  3     16
    24     26     22  3     18
    22     26     25  3     18
    26     29    410  3     20
   410     29    412  3     20
   410    412    411  3     20
   411    412    413  3     20
   411    413     27  3     20
    27    413     28  3     20
    29     32     30  3     22
    30     32     31  3     22
    32     35     33  3     24
    33     35     34  3     24
    35     38    414  3     26
   414     38    415  3     26
   414    415     36  3     26
    36    415     37  3     26
    38     41     39  3     28
    39     41     40  3     28
    41     44     42  3     30
    42     44     43  3     30
    44      3     45  3     31
    45      3      2  3     31
    45    416     43  3     33
    43    416    417  3     33
   416     47    417  3     33
   417     47     46  3     33
    47     50     48  3     35
    48     50     49  3     35
    50     53     51  3     37
    51     53     52  3     37
    53    418     54  3     38
    54    418    419  3     38
   418    420    419  3     38
   419    420    421  3     38
   420    422    421  3     38
   421    422    423  3     38
   422      4    423  3     38
   423      4      6  3     38
    54    424     52  3     40
    52    424    425  3     40
   424    426    425  3     40
   425    426    427  3     40
   426    428    427  3     40
   427    428    429  3     40
   428     56    429  3     40
   429     56     55  3     40
    56     59    430  3     42
   430     59    433  3     42
   430    433    431  3     42
   431    433    434  3     42
   431    434    432  3     42
   432    434    435  3     42
   432    435     57  3     42
    57    435     58  3     42
    59     62     60  3     44
    60     62     61  3     44
    62      7    436  3     45
   436      7    438  3     45
   436    438    437  3     45
   437    438    439  3     45
   437    439     63  3     45
    63    439      9  3     45
    63     65    440  3     47
   440     65    442  3     47
   440    442    441  3     47
   441    442    443  3     47
   441    443     61  3     47
    61    443     64  3     47
    65     68     66  3     49
    66     68     67  3     49
    68    446    444  3     51
   444    446    447  3     51
   444    447    445  3     51
   445    447    448  3     51
   445    448     69  3     51
    69    448    449  3     51
   446     71    447  3     51
   447     71    450  3     51
   447    450    448  3     51
   448    450    451  3     51
   448    451    449  3     51
   449    451     70  3     51
    71    453    452  3     53
   452    453    454  3     53
   452    454     72  3     53
    72    454    455  3     53
   453     74    454  3     53
   454     74    456  3     53
   454    456    455  3     53
   455    456     73  3     53
    74     77    457  3     55
   457     77    459  3     55
   457    459    458  3     55
   458    459    460  3     55
   458    460     75  3     55
    75    460     76  3     55
    77     80    461  3     57
   461     80    463  3     57
   461    463    462  3     57
   462    463    464  3     57
   462    464     78  3     57
    78    464     79  3     57
    80    465     81  3     59
    81    465    466  3     59
   465    467    466  3     59
   466    467    468  3     59
   467    469    468  3     59
   468    469    470  3     59
   469     83    470  3     59
   470     83     82  3     59
    83    471     84  3     61
    84    471    472  3     61
   471    473    472  3     61
   472    473    474  3     61
   473    475    474  3     61
   474    475    476  3     61
   475     86    476  3     61
   476     86     85  3     61
    86    477     87  3     63
    87    477    478  3     63
   477     89    478  3     63
   478     89     88  3     63
    89    479     90  3     64
    90    479    480  3     64
   479     10    480  3     64
   480     10     12  3     64
    90    481     88  3     65
    88    481    482  3     65
   481     13    482  3     65
   482     13     15  3     65
    87    483     85  3     67
    85    483    484  3     67
   483    485    484  3     67
   484    485    486  3     67
   485    487    486  3     67
   486    487    488  3     67
   487    489    488  3     67
   488    489    490  3     67
   489     92    490  3     67
   490     92     91  3     67
    92     16    491  3     68
   491     16    492  3     68
   491    492     93  3     68
    93    492     18  3     68
    93     95     91  3     70
    91     95     94  3     70
    95     98     96  3     72
    96     98     97  3     72
    98    101     99  3     74
    99    101    100  3     74
   101    104    493  3     76
   493    104    494  3     76
   493    494    102  3     76
   102    494    103  3     76
   104    107    495  3     78
   495    107    497  3     78
   495    497    496  3     78
   496    497    498  3     78
   496    498    105  3     78
   105    498    106  3     78
   107     28    499  3     79
   499     28    501  3     79
   499    501    500  3     79
   500    501    502  3     79
   500    502    108  3     79
   108    502     30  3     79
   108     31    106  3     80
   106     31     33  3     80
   105    505    503  3     82
   503    505    506  3     82
   503    506    504  3     82
   504    506    507  3     82
   504    507    103  3     82
   103    507    508  3     82
   505    110    506  3     82
   506    110    509  3     82
   506    509    507  3     82
   507    509    510  3     82
   507    510    508  3     82
   508    510    109  3     82
   110    113    111  3     84
   111    113    112  3     84
   113    116    511  3     86
   511    116    512  3     86
   511    512    114  3     86
   114    512    115  3     86
   116    513    117  3     87
   117    513    514  3     87
   513    515    514  3     87
   514    515    516  3     87
   515     34    516  3     87
   516     34     36  3     87
   117    518    517  3     89
   517    518    519  3     89
   517    519    115  3     89
   115    519    520  3     89
   518    119    519  3     89
   519    119    521  3     89
   519    521    520  3     89
   520    521    118  3     89
   119    122    522  3     91
   522    122    523  3     91
   522    523    120  3     91
   120    523    121  3     91
   122    125    524  3     93
   524    125    526  3     93
   524    526    525  3     93
   525    526    527  3     93
   525    527    123  3     93
   123    527    124  3     93
   125    529    528  3     95
   528    529    530  3     95
   528    530    126  3     95
   126    530    531  3     95
   529    128    530  3     95
   530    128    532  3     95
   530    532    531  3     95
   531    532    127  3     95
   128    533    129  3     96
   129    533    534  3     96
   533    535    534  3     96
   534    535    536  3     96
   535     37    536  3     96
   536     37     39  3     96
   129    131    537  3     98
   537    131    538  3     98
   537    538    127  3     98
   127    538    130  3     98
   131    540    539  3    100
   539    540    541  3    100
   539    541    132  3    100
   132    541    542  3    100
   540    134    541  3    100
   541    134    543  3    100
   541    543    542  3    100
   542    543    133  3    100
   134     49    135  3    101
   135     49     51  3    101
   135    137    544  3    103
   544    137    545  3    103
   544    545    133  3    103
   133    545    136  3    103
   137    140    546  3    105
   546    140    547  3    105
   546    547    138  3    105
   138    547    139  3    105
   140    143    548  3    107
   548    143    549  3    107
   548    549    141  3    107
   141    549    142  3    107
   143    146    550  3    109
   550    146    551  3    109
   550    551    144  3    109
   144    551    145  3    109
   146     55    552  3    110
   552     55    554  3    110
   552    554    553  3    110
   553    554    555  3    110
   553    555    147  3    110
   147    555     57  3    110
   147    149    556  3    112
   556    149    559  3    112
   556    559    557  3    112
   557    559    560  3    112
   557    560    558  3    112
   558    560    561  3    112
   558    561    145  3    112
   145    561    148  3    112
   149    562    150  3    114
   150    562    563  3    114
   562    564    563  3    114
   563    564    565  3    114
   564    152    565  3    114
   565    152    151  3    114
   152    155    566  3    116
   566    155    567  3    116
   566    567    153  3    116
   153    567    154  3    116
   155    158    156  3    118
   156    158    157  3    118
   158    161    568  3    120
   568    161    570  3    120
   568    570    569  3    120
   569    570    571  3    120
   569    571    159  3    120
   159    571    160  3    120
   161    575    572  3    122
   572    575    576  3    122
   572    576    573  3    122
   573    576    577  3    122
   573    577    574  3    122
   574    577    578  3    122
   574    578    162  3    122
   162    578    579  3    122
   575    164    576  3    122
   576    164    580  3    122
   576    580    577  3    122
   577    580    581  3    122
   577    581    578  3    122
   578    581    582  3    122
   578    582    579  3    122
   579    582    163  3    122
   164    167    583  3    124
   583    167    586  3    124
   583    586    584  3    124
   584    586    587  3    124
   584    587    585  3    124
   585    587    588  3    124
   585    588    165  3    124
   165    588    166  3    124
   168    589    171  3    126
   171    589    590  3    126
   590    589    170  3    126
   167    172    591  3    127
   591    172    592  3    127
   591    592    169  3    127
   172    175    593  3    129
   593    175    594  3    129
   593    594    173  3    129
   173    594    174  3    129
   175     58    595  3    130
   595     58    598  3    130
   595    598    596  3    130
   596    598    599  3    130
   596    599    597  3    130
   597    599    600  3    130
   597    600    176  3    130
   176    600     60  3    130
   176    178    601  3    132
   601    178    603  3    132
   601    603    602  3    132
   602    603    604  3    132
   602    604    174  3    132
   174    604    177  3    132
   178     64    605  3    133
   605     64    607  3    133
   605    607    606  3    133
   606    607    608  3    133
   606    608    179  3    133
   179    608     66  3    133
   179    181    609  3    135
   609    181    610  3    135
   609    610    177  3    135
   177    610    180  3    135
   181     67    611  3    136
   611     67    613  3    136
   611    613    612  3    136
   612    613    614  3    136
   612    614    182  3    136
   182    614     69  3    136
   182    171    615  3    137
   615    171    618  3    137
   615    618    616  3    137
   616    618    619  3    137
   616    619    617  3    137
   617    619    620  3    137
   617    620    180  3    137
   180    620    173  3    137
   168    184    166  3    139
   166    184    183  3    139
   184    187    621  3    141
   621    187    622  3    141
   621    622    185  3    141
   185    622    186  3    141
   187    623    188  3    142
   188    623    624  3    142
   623    625    624  3    142
   624    625    626  3    142
   625    627    626  3    142
   626    627    628  3    142
   627    629    628  3    142
   628    629    630  3    142
   629     76    630  3    142
   630     76     78  3    142
   188    631    186  3    144
   186    631    632  3    144
   631    633    632  3    144
   632    633    634  3    144
   633    635    634  3    144
   634    635    636  3    144
   635    190    636  3    144
   636    190    189  3    144
   190    638    637  3    146
   637    638    639  3    146
   637    639    191  3    146
   191    639    640  3    146
   638    641    639  3    146
   639    641    642  3    146
   639    642    640  3    146
   640    642    643  3    146
   641    644    642  3    146
   642    644    645  3    146
   642    645    643  3    146
   643    645    646  3    146
   644    193    645  3    146
   645    193    647  3    146
   645    647    646  3    146
   646    647    192  3    146
   193     79    648  3    147
   648     79    650  3    147
   648    650    649  3    147
   649    650    651  3    147
   649    651    194  3    147
   194    651     81  3    147
   194    196    652  3    149
   652    196    654  3    149
   652    654    653  3    149
   653    654    655  3    149
   653    655    192  3    149
   192    655    195  3    149
   196    199    656  3    151
   656    199    657  3    151
   656    657    197  3    151
   197    657    198  3    151
   199    202    200  3    153
   200    202    201  3    153
   202    205    203  3    155
   203    205    204  3    155
   205     82    206  3    156
   206     82     84  3    156
   206    208    204  3    158
   204    208    207  3    158
   208    658    209  3    159
   209    658    659  3    159
   658     94    659  3    159
   659     94     96  3    159
   209    660    207  3    160
   207    660    661  3    160
   660     97    661  3    160
   661     97     99  3    160
   203    662    201  3    162
   201    662    663  3    162
   662    211    663  3    162
   663    211    210  3    162
   211    214    664  3    164
   664    214    665  3    164
   664    665    212  3    164
   212    665    213  3    164
   214    666    215  3    165
   215    666    667  3    165
   666    668    667  3    165
   667    668    669  3    165
   668    100    669  3    165
   669    100    102  3    165
   215    217    670  3    167
   670    217    671  3    167
   670    671    213  3    167
   213    671    216  3    167
   217    220    672  3    169
   672    220    673  3    169
   672    673    218  3    169
   218    673    219  3    169
   220    223    674  3    171
   674    223    676  3    171
   674    676    675  3    171
   675    676    677  3    171
   675    677    221  3    171
   221    677    222  3    171
   223    226    678  3    173
   678    226    679  3    173
   678    679    224  3    173
   224    679    225  3    173
   226    229    680  3    175
   680    229    683  3    175
   680    683    681  3    175
   681    683    684  3    175
   681    684    682  3    175
   682    684    685  3    175
   682    685    227  3    175
   227    685    228  3    175
   229    109    686  3    176
   686    109    688  3    176
   686    688    687  3    176
   687    688    689  3    176
   687    689    230  3    176
   230    689    111  3    176
   230    690    228  3    178
   228    690    691  3    178
   690    232    691  3    178
   691    232    231  3    178
   232    692    233  3    180
   233    692    693  3    180
   692    235    693  3    180
   693    235    234  3    180
   235    238    236  3    182
   236    238    237  3    182
   238    694    239  3    183
   239    694    695  3    183
   694    112    695  3    183
   695    112    114  3    183
   239    241    696  3    185
   696    241    697  3    185
   696    697    237  3    185
   237    697    240  3    185
   241    118    242  3    186
   242    118    120  3    186
   242    121    240  3    187
   240    121    123  3    187
   236    244    698  3    189
   698    244    699  3    189
   698    699    234  3    189
   234    699    243  3    189
   244    700    245  3    191
   245    700    701  3    191
   700    702    701  3    191
   701    702    703  3    191
   702    704    703  3    191
   703    704    705  3    191
   704    706    705  3    191
   705    706    707  3    191
   706    247    707  3    191
   707    247    246  3    191
   247    250    708  3    193
   708    250    709  3    193
   708    709    248  3    193
   248    709    249  3    193
   250    710    251  3    194
   251    710    711  3    194
   710    712    711  3    194
   711    712    713  3    194
   712    714    713  3    194
   713    714    715  3    194
   714    124    715  3    194
   715    124    126  3    194
   251    717    716  3    196
   716    717    718  3    196
   716    718    249  3    196
   249    718    719  3    196
   717    720    718  3    196
   718    720    721  3    196
   718    721    719  3    196
   719    721    722  3    196
   720    253    721  3    196
   721    253    723  3    196
   721    723    722  3    196
   722    723    252  3    196
   253    724    254  3    197
   254    724    725  3    197
   724    139    725  3    197
   725    139    141  3    197
   254    726    252  3    199
   252    726    727  3    199
   726    728    727  3    199
   727    728    729  3    199
   728    256    729  3    199
   729    256    255  3    199
   256    259    257  3    201
   257    259    258  3    201
   259    262    260  3    203
   260    262    261  3    203
   262    265    730  3    205
   730    265    732  3    205
   730    732    731  3    205
   731    732    733  3    205
   731    733    263  3    205
   263    733    264  3    205
   265    734    266  3    206
   266    734    735  3    206
   734    142    735  3    206
   735    142    144  3    206
   266    148    736  3    207
   736    148    738  3    207
   736    738    737  3    207
   737    738    739  3    207
   737    739    264  3    207
   264    739    150  3    207
   263    268    740  3    209
   740    268    741  3    209
   740    741    261  3    209
   261    741    267  3    209
   268    742    269  3    210
   269    742    743  3    210
   742    151    743  3    210
   743    151    153  3    210
   269    271    744  3    212
   744    271    745  3    212
   744    745    267  3    212
   267    745    270  3    212
   271    747    746  3    214
   746    747    748  3    214
   746    748    272  3    214
   272    748    749  3    214
   747    274    748  3    214
   748    274    750  3    214
   748    750    749  3    214
   749    750    273  3    214
   274    752    751  3    216
   751    752    753  3    216
   751    753    275  3    216
   275    753    754  3    216
   752    277    753  3    216
   753    277    755  3    216
   753    755    754  3    216
   754    755    276  3    216
   277    757    756  3    218
   756    757    758  3    218
   756    758    278  3    218
   278    758    759  3    218
   757    280    758  3    218
   758    280    760  3    218
   758    760    759  3    218
   759    760    279  3    218
   280    761    281  3    219
   281    761    762  3    219
   761    154    762  3    219
   762    154    156  3    219
   281    283    279  3    221
   279    283    282  3    221
   283    157    763  3    222
   763    157    765  3    222
   763    765    764  3    222
   764    765    766  3    222
   764    766    284  3    222
   284    766    159  3    222
   284    286    767  3    224
   767    286    768  3    224
   767    768    282  3    224
   282    768    285  3    224
   286    769    287  3    226
   287    769    770  3    226
   769    289    770  3    226
   770    289    288  3    226
   289    772    771  3    227
   771    772    773  3    227
   771    773    290  3    227
   290    773    774  3    227
   772    160    773  3    227
   773    160    775  3    227
   773    775    774  3    227
   774    775    162  3    227
   290    777    776  3    228
   776    777    778  3    228
   776    778    288  3    228
   288    778    779  3    228
   777    189    778  3    228
   778    189    780  3    228
   778    780    779  3    228
   779    780    191  3    228
   287    292    781  3    230
   781    292    782  3    230
   781    782    285  3    230
   285    782    291  3    230
   292    295    293  3    232
   293    295    294  3    232
   295    298    296  3    234
   296    298    297  3    234
   298    783    299  3    236
   299    783    784  3    236
   783    785    784  3    236
   784    785    786  3    236
   785    301    786  3    236
   786    301    300  3    236
   301    195    302  3    237
   302    195    197  3    237
   302    787    300  3    239
   300    787    788  3    239
   787    304    788  3    239
   788    304    303  3    239
   304    789    305  3    240
   305    789    790  3    240
   789    198    790  3    240
   790    198    200  3    240
   305    307    303  3    242
   303    307    306  3    242
   307    310    308  3    244
   308    310    309  3    244
   310    791    311  3    245
   311    791    792  3    245
   791    210    792  3    245
   792    210    212  3    245
   311    313    793  3    247
   793    313    794  3    247
   793    794    309  3    247
   309    794    312  3    247
   313    216    314  3    248
   314    216    218  3    248
   314    219    312  3    249
   312    219    221  3    249
   308    316    795  3    251
   795    316    796  3    251
   795    796    306  3    251
   306    796    315  3    251
   316    797    317  3    253
   317    797    798  3    253
   797    799    798  3    253
   798    799    800  3    253
   799    319    800  3    253
   800    319    318  3    253
   319    322    801  3    255
   801    322    802  3    255
   801    802    320  3    255
   320    802    321  3    255
   322    325    803  3    257
   803    325    804  3    257
   803    804    323  3    257
   323    804    324  3    257
   325    328    805  3    259
   805    328    807  3    259
   805    807    806  3    259
   806    807    808  3    259
   806    808    326  3    259
   326    808    327  3    259
   328    331    809  3    261
   809    331    811  3    261
   809    811    810  3    261
   810    811    812  3    261
   810    812    329  3    261
   329    812    330  3    261
   331    222    332  3    262
   332    222    224  3    262
   332    225    813  3    263
   813    225    815  3    263
   813    815    814  3    263
   814    815    816  3    263
   814    816    330  3    263
   330    816    227  3    263
   329    231    327  3    264
   327    231    233  3    264
   326    817    324  3    266
   324    817    818  3    266
   817    334    818  3    266
   818    334    333  3    266
   334    819    335  3    268
   335    819    820  3    268
   819    337    820  3    268
   820    337    336  3    268
   337    243    821  3    269
   821    243    822  3    269
   821    822    338  3    269
   338    822    245  3    269
   338    824    823  3    271
   823    824    825  3    271
   823    825    336  3    271
   336    825    826  3    271
   824    340    825  3    271
   825    340    827  3    271
   825    827    826  3    271
   826    827    339  3    271
   340    829    828  3    273
   828    829    830  3    273
   828    830    341  3    273
   341    830    831  3    273
   829    343    830  3    273
   830    343    832  3    273
   830    832    831  3    273
   831    832    342  3    273
   343    246    833  3    274
   833    246    834  3    274
   833    834    344  3    274
   344    834    248  3    274
   344    835    342  3    275
   342    835    836  3    275
   835    837    836  3    275
   836    837    838  3    275
   837    839    838  3    275
   838    839    840  3    275
   839    255    840  3    275
   840    255    257  3    275
   341    346    841  3    277
   841    346    842  3    277
   841    842    339  3    277
   339    842    345  3    277
   346    349    347  3    279
   347    349    348  3    279
   349    352    843  3    281
   843    352    844  3    281
   843    844    350  3    281
   350    844    351  3    281
   352    355    845  3    283
   845    355    846  3    283
   845    846    353  3    283
   353    846    354  3    283
   355    258    847  3    284
   847    258    848  3    284
   847    848    356  3    284
   356    848    260  3    284
   356    270    354  3    285
   354    270    272  3    285
   353    849    351  3    286
   351    849    850  3    286
   849    273    850  3    286
   850    273    275  3    286
   350    358    348  3    288
   348    358    357  3    288
   358    333    359  3    289
   359    333    335  3    289
   359    345    357  3    290
   357    345    347  3    290
   323    361    321  3    292
   321    361    360  3    292
   361    364    851  3    294
   851    364    852  3    294
   851    852    362  3    294
   362    852    363  3    294
   364    276    853  3    295
   853    276    854  3    295
   853    854    365  3    295
   365    854    278  3    295
   365    367    855  3    297
   855    367    856  3    297
   855    856    363  3    297
   363    856    366  3    297
   367    370    857  3    299
   857    370    858  3    299
   857    858    368  3    299
   368    858    369  3    299
   370    291    371  3    300
   371    291    293  3    300
   371    294    369  3    301
   369    294    296  3    301
   368    373    859  3    303
   859    373    860  3    303
   859    860    366  3    303
   366    860    372  3    303
   373    861    374  3    304
   374    861    862  3    304
   861    297    862  3    304
   862    297    299  3    304
   374    315    863  3    305
   863    315    864  3    305
   863    864    372  3    305
   372    864    317  3    305
   362    318    865  3    306
   865    318    866  3    306
   865    866    360  3    306
   360    866    320  3    306
   185    163    183  3    307
   183    163    165  3    307
   138    867    136  3    308
   136    867    868  3    308
   867    869    868  3    308
   868    869    870  3    308
   869    871    870  3    308
   870    871    872  3    308
   871    130    872  3    308
   872    130    132  3    308
    75    875    873  3    309
   873    875    876  3    309
   873    876    874  3    309
   874    876    877  3    309
   874    877     73  3    309
    73    877    878  3    309
   875     70    876  3    309
   876     70    879  3    309
   876    879    877  3    309
   877    879    880  3    309
   877    880    878  3    309
   878    880     72  3    309
    48    881     46  3    310
    46    881    882  3    310
   881     40    882  3    310
   882     40     42  3    310
    27     19    883  3    311
   883     19    884  3    311
   883    884     25  3    311
    25    884     21  3    311
   409      1      2  2      1
   409      2      3  2      1
     6      4      5  2      2
   438      7    383  2      4
   438    383    384  2      4
   438    384    439  2      4
   439    384      9  2      4
   383      7      8  2      4
    12     10    386  2      6
    12    386    387  2      6
   387    386    385  2      6
   387    385     11  2      6
    15     13    390  2      8
   390     13    388  2      8
   390    388    389  2      8
   389    388     14  2      8
   492     16    886  2     10
   492    886    402  2     10
   492    402     18  2     10
   402    886    401  2     10
   401    886    399  2     10
   401    399     17  2     10
   399    886    400  2     10
   400    886     16  2     10
   884     19    404  2     12
   884    404    403  2     12
   884    403     21  2     12
    21    403     20  2     12
    24     22    405  2     14
   405     22     23  2     14
   883     25    410  2     17
   883    410    411  2     17
   883    411     27  2     17
   410     25     26  2     17
   501     28    413  2     19
   501    413    502  2     19
   502    413    412  2     19
   502    412     30  2     19
    30    412     29  2     19
    33     31     32  2     21
    36     34    414  2     23
   414     34     35  2     23
    39     37    415  2     25
    39    415     38  2     25
    42     40     41  2     27
    45     43     44  2     29
    48     46     47  2     32
    51     49     50  2     34
    54     52     53  2     36
   554     55    430  2     39
   554    430    431  2     39
   554    431    555  2     39
   555    431    432  2     39
   555    432     57  2     39
   430     55     56  2     39
   598     58    435  2     41
   598    435    434  2     41
   598    434    599  2     41
   599    434    433  2     41
   599    433    600  2     41
   600    433     59  2     41
   600     59     60  2     41
   441     61    436  2     43
   441    436    437  2     43
   441    437    440  2     43
   440    437     63  2     43
   436     61     62  2     43
   607     64    443  2     46
   607    443    608  2     46
   608    443    442  2     46
   608    442     66  2     46
    66    442     65  2     46
   613     67    444  2     48
   613    444    445  2     48
   613    445    614  2     48
   614    445     69  2     48
   444     67     68  2     48
   879     70    451  2     50
   879    451    450  2     50
   879    450    880  2     50
   880    450     71  2     50
   880     71    452  2     50
   880    452     72  2     50
   874     73    456  2     52
   874    456     74  2     52
   874     74    457  2     52
   874    457    873  2     52
   873    457    458  2     52
   873    458     75  2     52
    78     76    462  2     54
   462     76    460  2     54
   462    460    461  2     54
   461    460    459  2     54
   461    459     77  2     54
   650     79    464  2     56
   650    464    651  2     56
   651    464    463  2     56
   651    463     81  2     56
    81    463     80  2     56
    84     82     83  2     58
    87     85     86  2     60
    90     88     89  2     62
    93     91    491  2     66
   491     91     92  2     66
    96     94     95  2     69
    99     97     98  2     71
   102    100    493  2     73
   493    100    101  2     73
   504    103    494  2     75
   504    494    495  2     75
   504    495    496  2     75
   504    496    503  2     75
   503    496    105  2     75
   495    494    104  2     75
   108    106    498  2     77
   108    498    500  2     77
   500    498    497  2     77
   500    497    499  2     77
   499    497    107  2     77
   688    109    510  2     81
   688    510    887  2     81
   688    887    689  2     81
   689    887    509  2     81
   689    509    110  2     81
   689    110    111  2     81
   509    887    510  2     81
   114    112    511  2     83
   511    112    113  2     83
   517    115    512  2     85
   517    512    116  2     85
   517    116    117  2     85
   120    118    522  2     88
   522    118    521  2     88
   522    521    119  2     88
   123    121    525  2     90
   525    121    524  2     90
   524    121    523  2     90
   524    523    122  2     90
   126    124    527  2     92
   126    527    528  2     92
   528    527    526  2     92
   528    526    125  2     92
   537    127    532  2     94
   537    532    129  2     94
   129    532    128  2     94
   132    130    539  2     97
   539    130    538  2     97
   539    538    131  2     97
   544    133    543  2     99
   544    543    134  2     99
   544    134    135  2     99
   138    136    545  2    102
   138    545    546  2    102
   546    545    137  2    102
   141    139    548  2    104
   548    139    547  2    104
   548    547    140  2    104
   144    142    549  2    106
   144    549    550  2    106
   550    549    143  2    106
   889    888    890  2    108
   558    145    890  2    108
   558    890    888  2    108
   558    888    557  2    108
   557    888    556  2    108
   556    888    553  2    108
   556    553    147  2    108
   553    888    552  2    108
   552    888    889  2    108
   552    889    146  2    108
   146    889    551  2    108
   551    889    890  2    108
   551    890    145  2    108
   738    148    561  2    111
   738    561    560  2    111
   738    560    739  2    111
   739    560    559  2    111
   739    559    150  2    111
   150    559    149  2    111
   153    151    566  2    113
   566    151    152  2    113
   156    154    567  2    115
   156    567    155  2    115
   765    157    568  2    117
   765    568    569  2    117
   765    569    766  2    117
   766    569    159  2    117
   568    157    158  2    117
   775    160    891  2    119
   775    891    574  2    119
   775    574    162  2    119
   574    891    573  2    119
   573    891    570  2    119
   573    570    572  2    119
   572    570    161  2    119
   570    891    571  2    119
   571    891    160  2    119
   165    163    585  2    121
   585    163    582  2    121
   585    582    584  2    121
   584    582    581  2    121
   584    581    583  2    121
   583    581    580  2    121
   583    580    164  2    121
   168    166    589  2    123
   589    166    170  2    123
   170    166    588  2    123
   170    588    885  2    123
   885    588    587  2    123
   885    587    169  2    123
   169    587    586  2    123
   169    586    591  2    123
   591    586    167  2    123
   893    892    894  2    125
   618    171    590  2    125
   618    590    170  2    125
   618    170    619  2    125
   619    170    892  2    125
   619    892    620  2    125
   620    892    893  2    125
   620    893    173  2    125
   173    893    593  2    125
   593    893    894  2    125
   593    894    592  2    125
   593    592    172  2    125
   592    894    169  2    125
   169    894    892  2    125
   169    892    885  2    125
   885    892    170  2    125
   602    174    895  2    128
   602    895    896  2    128
   602    896    601  2    128
   601    896    597  2    128
   601    597    176  2    128
   597    896    596  2    128
   596    896    895  2    128
   596    895    595  2    128
   595    895    594  2    128
   595    594    175  2    128
   594    895    174  2    128
   609    177    604  2    131
   609    604    898  2    131
   609    898    897  2    131
   609    897    179  2    131
   179    897    606  2    131
   606    897    898  2    131
   606    898    899  2    131
   606    899    605  2    131
   605    899    178  2    131
   178    899    603  2    131
   603    899    898  2    131
   603    898    604  2    131
   617    180    610  2    134
   617    610    901  2    134
   617    901    616  2    134
   616    901    900  2    134
   616    900    615  2    134
   615    900    612  2    134
   615    612    182  2    134
   612    900    611  2    134
   611    900    901  2    134
   611    901    181  2    134
   181    901    610  2    134
   185    183    621  2    138
   621    183    184  2    138
   188    186    622  2    140
   188    622    187  2    140
   780    189    190  2    143
   780    190    637  2    143
   780    637    191  2    143
   653    192    647  2    145
   653    647    648  2    145
   653    648    649  2    145
   653    649    652  2    145
   652    649    194  2    145
   648    647    193  2    145
   197    195    655  2    148
   197    655    656  2    148
   656    655    654  2    148
   656    654    196  2    148
   200    198    657  2    150
   200    657    199  2    150
   203    201    202  2    152
   206    204    205  2    154
   209    207    208  2    157
   212    210    664  2    161
   664    210    211  2    161
   670    213    665  2    163
   670    665    214  2    163
   670    214    215  2    163
   218    216    671  2    166
   218    671    672  2    166
   672    671    217  2    166
   221    219    675  2    168
   675    219    674  2    168
   674    219    673  2    168
   674    673    220  2    168
   224    222    677  2    170
   224    677    678  2    170
   678    677    676  2    170
   678    676    223  2    170
   815    225    902  2    172
   815    902    816  2    172
   816    902    682  2    172
   816    682    227  2    172
   682    902    681  2    172
   681    902    680  2    172
   680    902    679  2    172
   680    679    226  2    172
   679    902    225  2    172
   230    228    685  2    174
   230    685    687  2    174
   687    685    684  2    174
   687    684    686  2    174
   686    684    683  2    174
   686    683    229  2    174
   233    231    232  2    177
   698    234    235  2    179
   698    235    236  2    179
   696    237    238  2    181
   696    238    239  2    181
   242    240    697  2    184
   242    697    241  2    184
   822    243    699  2    188
   822    699    245  2    188
   245    699    244  2    188
   834    246    708  2    190
   834    708    248  2    190
   708    246    247  2    190
   716    249    709  2    192
   716    709    251  2    192
   251    709    250  2    192
   254    252    723  2    195
   254    723    253  2    195
   257    255    256  2    198
   848    258    259  2    200
   848    259    260  2    200
   740    261    731  2    202
   740    731    263  2    202
   731    261    730  2    202
   730    261    262  2    202
   737    264    733  2    204
   737    733    732  2    204
   737    732    736  2    204
   736    732    265  2    204
   736    265    266  2    204
   744    267    741  2    208
   744    741    268  2    208
   744    268    269  2    208
   272    270    746  2    211
   746    270    745  2    211
   746    745    271  2    211
   275    273    750  2    213
   275    750    751  2    213
   751    750    274  2    213
   854    276    755  2    215
   854    755    756  2    215
   854    756    278  2    215
   756    755    277  2    215
   281    279    760  2    217
   281    760    280  2    217
   767    282    763  2    220
   767    763    764  2    220
   767    764    284  2    220
   763    282    283  2    220
   781    285    768  2    223
   781    768    287  2    223
   287    768    286  2    223
   776    288    771  2    225
   776    771    290  2    225
   771    288    289  2    225
   293    291    782  2    229
   293    782    292  2    229
   296    294    295  2    231
   299    297    298  2    233
   302    300    301  2    235
   305    303    304  2    238
   795    306    307  2    241
   795    307    308  2    241
   793    309    310  2    243
   793    310    311  2    243
   314    312    794  2    246
   314    794    313  2    246
   864    315    796  2    250
   864    796    317  2    250
   317    796    316  2    250
   866    318    801  2    252
   866    801    320  2    252
   801    318    319  2    252
   323    321    803  2    254
   803    321    802  2    254
   803    802    322  2    254
   326    324    806  2    256
   806    324    804  2    256
   806    804    805  2    256
   805    804    325  2    256
   329    327    808  2    258
   329    808    810  2    258
   810    808    807  2    258
   810    807    809  2    258
   809    807    328  2    258
   814    330    812  2    260
   814    812    813  2    260
   813    812    811  2    260
   813    811    332  2    260
   332    811    331  2    260
   335    333    334  2    265
   823    336    337  2    267
   823    337    821  2    267
   823    821    338  2    267
   841    339    827  2    270
   841    827    828  2    270
   841    828    341  2    270
   828    827    340  2    270
   344    342    833  2    272
   833    342    832  2    272
   833    832    343  2    272
   347    345    842  2    276
   347    842    346  2    276
   350    348    843  2    278
   843    348    349  2    278
   353    351    845  2    280
   845    351    844  2    280
   845    844    352  2    280
   356    354    846  2    282
   356    846    847  2    282
   847    846    355  2    282
   359    357    358  2    287
   865    360    851  2    291
   865    851    362  2    291
   851    360    361  2    291
   855    363    852  2    293
   855    852    853  2    293
   855    853    365  2    293
   853    852    364  2    293
   859    366    856  2    296
   859    856    857  2    296
   859    857    368  2    296
   857    856    367  2    296
   371    369    858  2    298
   371    858    370  2    298
   863    372    860  2    302
   863    860    374  2    302
   374    860    373  2    302
   905    904    908  1    312
   903    904    905  1    312
   906    905    909  1    312
   907    906    909  1    312
   905    908    909  1    312
   909    908    377  1    312
   909    377    375  1    312
   909    375      1  1    312
   909      1    907  1    312
   907      1    406  1    312
   907    406    395  1    312
   907    395    906  1    312
   906    395    391  1    312
   906    391    905  1    312
   905    391    903  1    312
   903    391     14  1    312
   903     14     11  1    312
   903     11      5  1    312
   903      5    904  1    312
   904      5    381  1    312
   904    381    379  1    312
   904    379    908  1    312
   908    379    377  1    312
     5     11      8  1    312
   395    406     23  1    312
   395     23     17  1    312
    17     23     20  1    312
   418     53    910  1    313
   418    910    420  1    313
   420    910    911  1    313
   420    911    380  1    313
   420    380    382  1    313
   420    382    422  1    313
   422    382      4  1    313
   380    911    378  1    313
   378    911    416  1    313
   378    416    376  1    313
   376    416     45  1    313
   376     45      2  1    313
   416    911     47  1    313
    47    911    910  1    313
    47    910     50  1    313
    50    910     53  1    313
   912    914    915  1    314
   913    912    915  1    314
   913    915    916  1    314
   913    916     62  1    314
   913     62     59  1    314
   913     59    912  1    314
   912     59     56  1    314
   912     56    428  1    314
   912    428    426  1    314
   912    426    914  1    314
   914    426    424  1    314
   914    424    419  1    314
   914    419    421  1    314
   914    421    915  1    314
   915    421    423  1    314
   915    423    916  1    314
   916    423      6  1    314
   916      6     62  1    314
    62      6      7  1    314
   419    424     54  1    314
   918    917    920  1    315
   918    920    921  1    315
   919    918    921  1    315
   919    921    473  1    315
   919    473    471  1    315
   919    471    469  1    315
   919    469    467  1    315
   919    467    918  1    315
   918    467    465  1    315
   918    465    917  1    315
   917    465     80  1    315
   917     80     77  1    315
   917     77     74  1    315
   917     74    453  1    315
   917    453    920  1    315
   920    453     86  1    315
   920     86    475  1    315
   920    475    921  1    315
   921    475    473  1    315
    86    453    477  1    315
   477    453     89  1    315
    89    453     71  1    315
    89     71    922  1    315
    89    922    479  1    315
   479    922     10  1    315
    10    922    446  1    315
    10    446     63  1    315
    10     63      9  1    315
    63    446     68  1    315
    63     68     65  1    315
   446    922     71  1    315
   469    471     83  1    315
   481     90    480  1    316
   481    480     13  1    316
    13    480     12  1    316
   923    927    928  1    317
   924    923    928  1    317
   924    928    929  1    317
   925    924    929  1    317
   925    929    930  1    317
   927    926    931  1    317
   927    931    932  1    317
   928    927    932  1    317
   929    928    932  1    317
   929    932    933  1    317
   930    929    933  1    317
   932    931    934  1    317
   933    932    934  1    317
   933    934    398  1    317
   933    398    930  1    317
   930    398     16  1    317
   930     16     92  1    317
   930     92    489  1    317
   930    489    925  1    317
   925    489    487  1    317
   925    487    924  1    317
   924    487    485  1    317
   924    485    483  1    317
   924    483    923  1    317
   923    483     87  1    317
   923     87    478  1    317
   923    478    927  1    317
   927    478    926  1    317
   926    478     88  1    317
   926     88    482  1    317
   926    482    931  1    317
   931    482     15  1    317
   931     15    394  1    317
   931    394    934  1    317
   934    394    398  1    317
    19     27    936  1    318
    19    936     93  1    318
    19     93     18  1    318
    93    936     95  1    318
    95    936    935  1    318
    95    935     98  1    318
    98    935    101  1    318
   101    935    107  1    318
   101    107    104  1    318
   107    935     28  1    318
    28    935    936  1    318
    28    936     27  1    318
    22     25     21  1    319
   937    938    939  1    320
   939    938    940  1    320
   941    940    942  1    320
   941    942     41  1    320
   941     41     38  1    320
   941     38    939  1    320
   941    939    940  1    320
   939     38     35  1    320
   939     35    937  1    320
   937     35     32  1    320
   937     32     29  1    320
   937     29     26  1    320
   937     26    938  1    320
   938     26     24  1    320
   938     24    408  1    320
   938    408    940  1    320
   940    408      3  1    320
   940      3    942  1    320
   942      3     44  1    320
   942     44     41  1    320
    31    108     30  1    321
   513    116    113  1    322
   513    113    505  1    322
   513    505    105  1    322
   513    105    515  1    322
   515    105    106  1    322
   515    106     33  1    322
   515     33     34  1    322
   505    113    110  1    322
   122    119    125  1    323
   943    946    947  1    323
   944    943    947  1    323
   944    947    948  1    323
   945    944    948  1    323
   945    948    949  1    323
   947    946    950  1    323
   947    950    951  1    323
   948    947    951  1    323
   948    951    952  1    323
   949    948    952  1    323
   949    952    953  1    323
   952    951    954  1    323
   952    954    533  1    323
   952    533    953  1    323
   953    533    128  1    323
   953    128    529  1    323
   953    529    949  1    323
   949    529    125  1    323
   949    125    119  1    323
   949    119    945  1    323
   945    119    518  1    323
   945    518    944  1    323
   944    518    117  1    323
   944    117    943  1    323
   943    117    514  1    323
   943    514    516  1    323
   943    516    946  1    323
   946    516     36  1    323
   946     36    950  1    323
   950     36     37  1    323
   950     37    954  1    323
   950    954    951  1    323
   954     37    535  1    323
   954    535    533  1    323
   881     48    956  1    324
   881    956    955  1    324
   881    955     40  1    324
    40    955    536  1    324
    40    536     39  1    324
   536    955    534  1    324
   534    955    131  1    324
   534    131    129  1    324
   131    955    540  1    324
   540    955    956  1    324
   540    956     49  1    324
   540     49    134  1    324
    49    956     48  1    324
   417     46    882  1    325
   417    882     43  1    325
    43    882     42  1    325
   429     55    146  1    326
   429    146    143  1    326
   429    143    427  1    326
   427    143    425  1    326
   425    143    140  1    326
   425    140    137  1    326
   425    137     52  1    326
    52    137    135  1    326
    52    135     51  1    326
   957    959    960  1    327
   959    958    962  1    327
   959    962    963  1    327
   960    959    963  1    327
   961    960    963  1    327
   963    962    965  1    327
   964    963    965  1    327
   961    963    964  1    327
   964    965     57  1    327
   964     57     58  1    327
   964     58    167  1    327
   964    167    961  1    327
   961    167    164  1    327
   961    164    960  1    327
   960    164    575  1    327
   960    575    957  1    327
   957    575    155  1    327
   957    155    152  1    327
   957    152    959  1    327
   959    152    958  1    327
   958    152    564  1    327
   958    564    962  1    327
   962    564    562  1    327
   962    562    965  1    327
   965    562    149  1    327
   965    149     57  1    327
    57    149    147  1    327
   155    575    161  1    327
   155    161    158  1    327
   167     58    172  1    327
   172     58    175  1    327
    61     64     60  1    328
    60     64    176  1    328
   176     64    178  1    328
    67    181    179  1    329
    67    179     66  1    329
   967    966    970  1    330
   967    970    971  1    330
   968    967    971  1    330
   968    971    972  1    330
   970    969    976  1    330
   966    969    970  1    330
   971    970    977  1    330
   971    977    978  1    330
   972    971    978  1    330
   974    973    979  1    330
   974    979    980  1    330
   975    974    980  1    330
   976    975    980  1    330
   977    976    980  1    330
   970    976    977  1    330
   978    977    981  1    330
   980    979    981  1    330
   977    980    981  1    330
   981    979    449  1    330
   981    449     70  1    330
   981     70    978  1    330
   978     70    875  1    330
   978    875    972  1    330
   972    875     75  1    330
   972     75    968  1    330
   968     75    629  1    330
   968    629    627  1    330
   968    627    967  1    330
   967    627    625  1    330
   967    625    966  1    330
   966    625    623  1    330
   966    623    969  1    330
   969    623    187  1    330
   969    187    976  1    330
   976    187    975  1    330
   975    187    184  1    330
   975    184    974  1    330
   974    184    168  1    330
   974    168    973  1    330
   973    168    171  1    330
   973    171     69  1    330
   973     69    449  1    330
   973    449    979  1    330
    69    171    182  1    330
   629     75     76  1    330
   878     72    982  1    331
   878    982    455  1    331
   878    455     73  1    331
   455    982     72  1    331
   983    984    985  1    332
   984    988    989  1    332
   985    984    989  1    332
   985    989    990  1    332
   986    985    990  1    332
   986    990    991  1    332
   986    991    644  1    332
   986    644    641  1    332
   986    641    985  1    332
   985    641    983  1    332
   983    641    638  1    332
   983    638    190  1    332
   983    190    635  1    332
   983    635    984  1    332
   984    635    633  1    332
   984    633    987  1    332
   984    987    988  1    332
   988    987    626  1    332
   988    626    628  1    332
   988    628    989  1    332
   989    628    630  1    332
   989    630    990  1    332
   990    630    991  1    332
   991    630     79  1    332
   991     79    193  1    332
   991    193    644  1    332
    79    630     78  1    332
   626    987    624  1    332
   624    987    631  1    332
   624    631    188  1    332
   631    987    633  1    332
    82    205    202  1    333
    82    202    470  1    333
   470    202    994  1    333
   470    994    993  1    333
   470    993    468  1    333
   468    993    992  1    333
   468    992    466  1    333
   466    992    194  1    333
   466    194     81  1    333
   194    992    196  1    333
   196    992    993  1    333
   196    993    199  1    333
   199    993    994  1    333
   199    994    202  1    333
   490     91     94  1    334
   490     94    658  1    334
   490    658    996  1    334
   490    996    488  1    334
   488    996    995  1    334
   488    995    486  1    334
   486    995    474  1    334
   486    474    484  1    334
   484    474    476  1    334
   484    476     85  1    334
   474    995    472  1    334
   472    995     84  1    334
    84    995    208  1    334
    84    208    206  1    334
   208    995    658  1    334
   658    995    996  1    334
   660    209    659  1    335
   660    659     96  1    335
   660     96     97  1    335
   997    998    999  1    336
   997    999    666  1    336
   997    666    214  1    336
   997    214    211  1    336
   997    211    662  1    336
   997    662    998  1    336
   998    662    203  1    336
   998    203    204  1    336
   998    204    207  1    336
   998    207    661  1    336
   998    661    999  1    336
   999    661   1000  1    336
   999   1000    666  1    336
   666   1000    668  1    336
   668   1000     99  1    336
   668     99    100  1    336
    99   1000    661  1    336
  1001   1003   1004  1    337
  1002   1001   1004  1    337
  1002   1004   1005  1    337
  1004   1003   1006  1    337
  1004   1006   1005  1    337
  1005   1006    508  1    337
  1005    508    109  1    337
  1005    109    229  1    337
  1005    229    223  1    337
  1005    223   1002  1    337
  1002    223    220  1    337
  1002    220    217  1    337
  1002    217   1001  1    337
  1001    217    215  1    337
  1001    215    667  1    337
  1001    667   1003  1    337
  1003    667    669  1    337
  1003    669   1006  1    337
  1006    669    102  1    337
  1006    102    103  1    337
  1006    103    508  1    337
   223    229    226  1    337
   694    238   1009  1    338
   694   1009   1008  1    338
   694   1008    112  1    338
   112   1008   1007  1    338
   112   1007    111  1    338
   111   1007    230  1    338
   230   1007    690  1    338
   690   1007   1008  1    338
   690   1008    232  1    338
   232   1008   1009  1    338
   232   1009    692  1    338
   692   1009    235  1    338
   235   1009    238  1    338
   118    241    520  1    339
   520    241    239  1    339
   520    239    695  1    339
   520    695    115  1    339
   115    695    114  1    339
   120    121    242  1    340
   240    123    237  1    341
  1010   1011   1012  1    341
  1012   1011   1014  1    341
  1012   1014   1015  1    341
  1013   1012   1015  1    341
  1013   1015   1016  1    341
  1013   1016    706  1    341
  1013    706    704  1    341
  1013    704   1012  1    341
  1012    704    702  1    341
  1012    702   1010  1    341
  1010    702    700  1    341
  1010    700    237  1    341
  1010    237   1011  1    341
  1011    237    123  1    341
  1011    123    124  1    341
  1011    124   1014  1    341
  1014    124    714  1    341
  1014    714    712  1    341
  1014    712   1015  1    341
  1015    712   1016  1    341
  1016    712    710  1    341
  1016    710    250  1    341
  1016    250    247  1    341
  1016    247    706  1    341
   237    700    236  1    341
   236    700    244  1    341
   127    130   1017  1    342
   127   1017    531  1    342
   531   1017    715  1    342
   531    715    126  1    342
   715   1017    713  1    342
   713   1017    871  1    342
   713    871    711  1    342
   711    871    869  1    342
   711    869    717  1    342
   711    717    251  1    342
   717    869    720  1    342
   720    869    253  1    342
   253    869    867  1    342
   253    867    724  1    342
   724    867    138  1    342
   724    138    139  1    342
   871   1017    130  1    342
   133    136   1019  1    343
   133   1019    542  1    343
   542   1019   1018  1    343
   542   1018    132  1    343
   132   1018    872  1    343
   872   1018    870  1    343
   870   1018   1019  1    343
   870   1019    868  1    343
   868   1019    136  1    343
   734    265    728  1    344
   734    728    726  1    344
   734    726    142  1    344
   142    726    725  1    344
   142    725    141  1    344
   725    726    254  1    344
   728    265    256  1    344
   256    265    262  1    344
   256    262    259  1    344
   145    148   1020  1    345
   145   1020    144  1    345
   144   1020    735  1    345
   735   1020    266  1    345
   266   1020    148  1    345
   742    268    263  1    346
   742    263    264  1    346
   742    264    563  1    346
   742    563    565  1    346
   742    565    151  1    346
   563    264    150  1    346
  1021   1023   1024  1    347
  1021   1024   1022  1    347
  1024   1023   1026  1    347
  1024   1026   1027  1    347
  1024   1027   1028  1    347
  1022   1024   1028  1    347
  1022   1028   1025  1    347
  1026   1029   1030  1    347
  1027   1026   1030  1    347
  1027   1030   1031  1    347
  1028   1027   1031  1    347
  1028   1031   1032  1    347
  1025   1028   1032  1    347
  1029   1033   1034  1    347
  1030   1029   1034  1    347
  1030   1034   1035  1    347
  1031   1030   1035  1    347
  1034   1033   1036  1    347
  1034   1036    743  1    347
  1034    743   1035  1    347
  1035    743    153  1    347
  1035    153    154  1    347
  1035    154   1032  1    347
  1035   1032   1031  1    347
  1032    154    761  1    347
  1032    761   1025  1    347
  1025    761    280  1    347
  1025    280   1022  1    347
  1022    280    757  1    347
  1022    757   1021  1    347
  1021    757    277  1    347
  1021    277    752  1    347
  1021    752   1023  1    347
  1023    752    274  1    347
  1023    274   1026  1    347
  1026    274    747  1    347
  1026    747   1029  1    347
  1029    747   1033  1    347
  1033    747    271  1    347
  1033    271   1036  1    347
  1036    271    269  1    347
  1036    269    743  1    347
   157    283    762  1    348
   157    762    156  1    348
   762    283    281  1    348
   772    289    769  1    349
   772    769    284  1    349
   772    284    159  1    349
   772    159    160  1    349
   284    769    286  1    349
  1038   1040   1041  1    350
  1038   1041   1042  1    350
  1037   1038   1042  1    350
  1037   1042   1039  1    350
  1040   1044   1045  1    350
  1041   1040   1045  1    350
  1041   1045   1046  1    350
  1042   1041   1046  1    350
  1042   1046   1047  1    350
  1039   1042   1047  1    350
  1039   1047   1043  1    350
  1045   1044   1048  1    350
  1045   1048   1049  1    350
  1046   1045   1049  1    350
  1046   1049   1050  1    350
  1047   1046   1050  1    350
  1043   1047   1050  1    350
  1049   1048   1051  1    350
  1049   1051    186  1    350
  1049    186   1050  1    350
  1050    186    632  1    350
  1050    632   1043  1    350
  1043    632    634  1    350
  1043    634    636  1    350
  1043    636   1039  1    350
  1039    636   1037  1    350
  1037    636    189  1    350
  1037    189    777  1    350
  1037    777   1038  1    350
  1038    777    290  1    350
  1038    290   1040  1    350
  1040    290    774  1    350
  1040    774   1044  1    350
  1044    774    162  1    350
  1044    162    579  1    350
  1044    579   1048  1    350
  1048    579   1051  1    350
  1051    579    185  1    350
  1051    185    186  1    350
   185    579    163  1    350
   166    183    165  1    351
   174    177    180  1    352
   174    180    173  1    352
  1052   1053   1054  1    353
  1052   1055   1053  1    353
  1054   1053   1057  1    353
  1054   1057   1058  1    353
  1054   1058   1059  1    353
  1053   1055   1060  1    353
  1053   1060   1056  1    353
  1053   1056   1057  1    353
  1057   1056   1061  1    353
  1057   1061   1062  1    353
  1058   1057   1062  1    353
  1058   1062   1063  1    353
  1059   1058   1063  1    353
  1063   1062   1064  1    353
  1063   1064   1065  1    353
  1063   1065    301  1    353
  1063    301   1059  1    353
  1059    301    785  1    353
  1059    785    783  1    353
  1059    783   1054  1    353
  1054    783   1052  1    353
  1052    783    298  1    353
  1052    298   1055  1    353
  1055    298    295  1    353
  1055    295    770  1    353
  1055    770   1060  1    353
  1060    770    288  1    353
  1060    288    779  1    353
  1060    779   1056  1    353
  1056    779    191  1    353
  1056    191   1061  1    353
  1061    191    640  1    353
  1061    640   1062  1    353
  1062    640    643  1    353
  1062    643   1064  1    353
  1064    643    646  1    353
  1064    646   1065  1    353
  1065    646    195  1    353
  1065    195    301  1    353
   195    646    192  1    353
   770    295    292  1    353
   770    292    287  1    353
   789    304    787  1    354
   789    787    302  1    354
   789    302    198  1    354
   198    302    197  1    354
  1066   1067   1068  1    355
  1066   1068    791  1    355
  1066    791    305  1    355
  1066    305    790  1    355
  1066    790   1067  1    355
  1067    790    200  1    355
  1067    200    201  1    355
  1067    201   1068  1    355
  1068    201    663  1    355
  1068    663    210  1    355
  1068    210    791  1    355
   305    791    307  1    355
   307    791    310  1    355
   213    216   1069  1    356
   213   1069    212  1    356
   212   1069    792  1    356
   792   1069    311  1    356
   311   1069    313  1    356
   313   1069    216  1    356
   219    314    218  1    357
  1071   1070   1072  1    358
  1071   1072    328  1    358
  1071    328    325  1    358
  1071    325    322  1    358
  1071    322    319  1    358
  1071    319    799  1    358
  1071    799    797  1    358
  1071    797   1070  1    358
  1070    797    308  1    358
  1070    308    309  1    358
  1070    309    312  1    358
  1070    312   1072  1    358
  1072    312    221  1    358
  1072    221    222  1    358
  1072    222    331  1    358
  1072    331    328  1    358
   308    797    316  1    358
   225    332    224  1    359
   691    231    329  1    360
   691    329    330  1    360
   691    330    228  1    360
   228    330    227  1    360
   234    243    693  1    361
   693    243    337  1    361
   693    337    819  1    361
   693    819   1074  1    361
   693   1074    233  1    361
   233   1074    327  1    361
   327   1074    326  1    361
   326   1074   1073  1    361
   326   1073    817  1    361
   817   1073    819  1    361
   817    819    334  1    361
   819   1073   1074  1    361
  1076   1075   1077  1    362
  1076   1077    829  1    362
  1076    829    340  1    362
  1076    340    824  1    362
  1076    824   1075  1    362
  1075    824    338  1    362
  1075    338    701  1    362
  1075    701    703  1    362
  1075    703    705  1    362
  1075    705   1077  1    362
  1077    705    707  1    362
  1077    707    343  1    362
  1077    343    829  1    362
   343    707    246  1    362
   701    338    245  1    362
  1078   1081   1082  1    363
  1079   1078   1082  1    363
  1079   1082   1083  1    363
  1080   1079   1083  1    363
  1080   1083   1084  1    363
  1082   1081   1085  1    363
  1082   1085   1086  1    363
  1083   1082   1086  1    363
  1084   1083   1086  1    363
  1084   1086    727  1    363
  1084    727    729  1    363
  1084    729   1080  1    363
  1080    729    255  1    363
  1080    255    839  1    363
  1080    839   1079  1    363
  1079    839    837  1    363
  1079    837   1078  1    363
  1078    837    835  1    363
  1078    835   1081  1    363
  1081    835    344  1    363
  1081    344    248  1    363
  1081    248    249  1    363
  1081    249    719  1    363
  1081    719   1085  1    363
  1085    719    722  1    363
  1085    722   1086  1    363
  1086    722    252  1    363
  1086    252    727  1    363
   258    355    840  1    364
   258    840    257  1    364
   840    355   1088  1    364
   840   1088    838  1    364
   838   1088    836  1    364
   836   1088   1087  1    364
   836   1087    831  1    364
   836    831    342  1    364
   831   1087    341  1    364
   341   1087    346  1    364
   346   1087    349  1    364
   349   1087    352  1    364
   352   1087   1088  1    364
   352   1088    355  1    364
   261    267    260  1    365
   260    267    270  1    365
   260    270    356  1    365
   849    353   1089  1    366
   849   1089    273  1    366
   273   1089    749  1    366
   749   1089    354  1    366
   749    354    272  1    366
   354   1089    353  1    366
  1090   1091   1092  1    367
  1091   1093   1094  1    367
  1092   1091   1094  1    367
  1092   1094    850  1    367
  1092    850    275  1    367
  1092    275    754  1    367
  1092    754   1090  1    367
  1090    754    276  1    367
  1090    276    364  1    367
  1090    364    361  1    367
  1090    361   1091  1    367
  1091    361    323  1    367
  1091    323    818  1    367
  1091    818   1093  1    367
  1093    818    333  1    367
  1093    333   1094  1    367
  1094    333    358  1    367
  1094    358   1095  1    367
  1094   1095    850  1    367
   850   1095    350  1    367
   850    350    351  1    367
   350   1095    358  1    367
   818    323    324  1    367
   279    282    285  1    368
   279    285    291  1    368
   279    291    759  1    368
   759    291    370  1    368
   759    370    367  1    368
   759    367    278  1    368
   278    367    365  1    368
   294    371    293  1    369
   861    373   1096  1    370
   861   1096    297  1    370
   297   1096    296  1    370
   296   1096   1097  1    370
   296   1097    369  1    370
   369   1097    368  1    370
   368   1097    373  1    370
   373   1097   1096  1    370
   788    303   1098  1    371
   788   1098    786  1    371
   788    786    300  1    371
   786   1098    784  1    371
   784   1098    862  1    371
   784    862    299  1    371
   862   1098   1099  1    371
   862   1099    315  1    371
   862    315    374  1    371
   315   1099    306  1    371
   306   1099    303  1    371
   303   1099   1098  1    371
   318    362   1100  1    372
   318   1100    800  1    372
   800   1100    798  1    372
   798   1100    372  1    372
   798    372    317  1    372
   372   1100   1101  1    372
   372   1101    366  1    372
   366   1101    363  1    372
   363   1101    362  1    372
   362   1101   1100  1    372
   321    360    320  1    373
   826    339   1102  1    374
   826   1102    335  1    374
   826    335    820  1    374
   826    820    336  1    374
   335   1102    359  1    374
   359   1102    345  1    374
   345   1102    339  1    374
   348    357    347  1    375
