# MSMS solvent excluded surface faces for fragments/fragment34.xyzr
#faces  #sphere density probe_r
   1522      35  3.00  1.50
     1      5    231  3      3
   231      5    232  3      3
   231    232      2  3      3
     2    232      4  3      3
     5      8      6  3      5
     6      8      7  3      5
     8    234    233  3      7
   233    234    235  3      7
   233    235      9  3      7
     9    235    236  3      7
   234     11    235  3      7
   235     11    237  3      7
   235    237    236  3      7
   236    237     10  3      7
    11     14    238  3      9
   238     14    239  3      9
   238    239     12  3      9
    12    239     13  3      9
    14    240     15  3     10
    15    240    241  3     10
   240    242    241  3     10
   241    242    243  3     10
   242      1    243  3     10
   243      1      3  3     10
    15    244     13  3     12
    13    244    245  3     12
   244     17    245  3     12
   245     17     16  3     12
    17     20     18  3     14
    18     20     19  3     14
    20    246     21  3     16
    21    246    247  3     16
   246    248    247  3     16
   247    248    249  3     16
   248     23    249  3     16
   249     23     22  3     16
    23    250     24  3     18
    24    250    251  3     18
   250     26    251  3     18
   251     26     25  3     18
    26      3     27  3     19
    27      3      2  3     19
    27     29    252  3     21
   252     29    253  3     21
   252    253     25  3     21
    25    253     28  3     21
    29    254     30  3     23
    30    254    255  3     23
   254    256    255  3     23
   255    256    257  3     23
   256    258    257  3     23
   257    258    259  3     23
   258    260    259  3     23
   259    260    261  3     23
   260     32    261  3     23
   261     32     31  3     23
    32    262     33  3     25
    33    262    263  3     25
   262     35    263  3     25
   263     35     34  3     25
    35     38    264  3     27
   264     38    266  3     27
   264    266    265  3     27
   265    266    267  3     27
   265    267     36  3     27
    36    267     37  3     27
    38      4     39  3     28
    39      4      6  3     28
    39      7    268  3     29
   268      7    269  3     29
   268    269     37  3     29
    37    269      9  3     29
    36     41    270  3     31
   270     41    271  3     31
   270    271     34  3     31
    34    271     40  3     31
    41     44    272  3     33
   272     44    273  3     33
   272    273     42  3     33
    42    273     43  3     33
    44     47     45  3     35
    45     47     46  3     35
    47    274     48  3     37
    48    274    275  3     37
   274    276    275  3     37
   275    276    277  3     37
   276    278    277  3     37
   277    278    279  3     37
   278    280    279  3     37
   279    280    281  3     37
   280    282    281  3     37
   281    282    283  3     37
   282    284    283  3     37
   283    284    285  3     37
   284    286    285  3     37
   285    286    287  3     37
   286    288    287  3     37
   287    288    289  3     37
   288     50    289  3     37
   289     50     49  3     37
    50     10     51  3     38
    51     10     12  3     38
    51     53     49  3     40
    49     53     52  3     40
    53    290     54  3     42
    54    290    291  3     42
   290     56    291  3     42
   291     56     55  3     42
    56     16     57  3     43
    57     16     18  3     43
    57     59     55  3     45
    55     59     58  3     45
    59    292     60  3     47
    60    292    293  3     47
   292    294    293  3     47
   293    294    295  3     47
   294    296    295  3     47
   295    296    297  3     47
   296    298    297  3     47
   297    298    299  3     47
   298    300    299  3     47
   299    300    301  3     47
   300    302    301  3     47
   301    302    303  3     47
   302    304    303  3     47
   303    304    305  3     47
   304    306    305  3     47
   305    306    307  3     47
   306     62    307  3     47
   307     62     61  3     47
    62     65     63  3     49
    63     65     64  3     49
    65     68     66  3     51
    66     68     67  3     51
    68     71    308  3     53
   308     71    309  3     53
   308    309     69  3     53
    69    309     70  3     53
    71     74    310  3     55
   310     74    311  3     55
   310    311     72  3     55
    72    311     73  3     55
    74     77    312  3     57
   312     77    313  3     57
   312    313     75  3     57
    75    313     76  3     57
    77    317    314  3     59
   314    317    318  3     59
   314    318    315  3     59
   315    318    319  3     59
   315    319    316  3     59
   316    319    320  3     59
   316    320     78  3     59
    78    320    321  3     59
   317     80    318  3     59
   318     80    322  3     59
   318    322    319  3     59
   319    322    323  3     59
   319    323    320  3     59
   320    323    324  3     59
   320    324    321  3     59
   321    324     79  3     59
    80     83    325  3     61
   325     83    327  3     61
   325    327    326  3     61
   326    327    328  3     61
   326    328     81  3     61
    81    328     82  3     61
    83    332    329  3     63
   329    332    333  3     63
   329    333    330  3     63
   330    333    334  3     63
   330    334    331  3     63
   331    334    335  3     63
   331    335     84  3     63
    84    335    336  3     63
   332    337    333  3     63
   333    337    338  3     63
   333    338    334  3     63
   334    338    339  3     63
   334    339    335  3     63
   335    339    340  3     63
   335    340    336  3     63
   336    340    341  3     63
   337    342    338  3     63
   338    342    343  3     63
   338    343    339  3     63
   339    343    344  3     63
   339    344    340  3     63
   340    344    345  3     63
   340    345    341  3     63
   341    345    346  3     63
   342     86    343  3     63
   343     86    347  3     63
   343    347    344  3     63
   344    347    348  3     63
   344    348    345  3     63
   345    348    349  3     63
   345    349    346  3     63
   346    349     85  3     63
    86     89    350  3     65
   350     89    351  3     65
   350    351     87  3     65
    87    351     88  3     65
    89     19    352  3     66
   352     19    353  3     66
   352    353     90  3     66
    90    353     21  3     66
    90     92    354  3     68
   354     92    355  3     68
   354    355     88  3     68
    88    355     91  3     68
    92     95    356  3     70
   356     95    357  3     70
   356    357     93  3     70
    93    357     94  3     70
    95    358     96  3     71
    96    358    359  3     71
   358     22    359  3     71
   359     22     24  3     71
    96    360     94  3     73
    94    360    361  3     73
   360    362    361  3     73
   361    362    363  3     73
   362     98    363  3     73
   363     98     97  3     73
    98    364     99  3     75
    99    364    365  3     75
   364    366    365  3     75
   365    366    367  3     75
   366    101    367  3     75
   367    101    100  3     75
   101     28    368  3     76
   368     28    369  3     76
   368    369    102  3     76
   102    369     30  3     76
   102    104    370  3     78
   370    104    372  3     78
   370    372    371  3     78
   371    372    373  3     78
   371    373    100  3     78
   100    373    103  3     78
   104    107    374  3     80
   374    107    375  3     80
   374    375    105  3     80
   105    375    106  3     80
   107    377    376  3     82
   376    377    378  3     82
   376    378    108  3     82
   108    378    379  3     82
   377    110    378  3     82
   378    110    380  3     82
   378    380    379  3     82
   379    380    109  3     82
   110    382    381  3     84
   381    382    383  3     84
   381    383    111  3     84
   111    383    384  3     84
   382    113    383  3     84
   383    113    385  3     84
   383    385    384  3     84
   384    385    112  3     84
   113     31    114  3     85
   114     31     33  3     85
   114    387    386  3     87
   386    387    388  3     87
   386    388    112  3     87
   112    388    389  3     87
   387    116    388  3     87
   388    116    390  3     87
   388    390    389  3     87
   389    390    115  3     87
   116    391    117  3     88
   117    391    392  3     88
   391     70    392  3     88
   392     70     72  3     88
   117    393    115  3     90
   115    393    394  3     90
   393    395    394  3     90
   394    395    396  3     90
   395    119    396  3     90
   396    119    118  3     90
   119    122    120  3     92
   120    122    121  3     92
   122    125    397  3     94
   397    125    398  3     94
   397    398    123  3     94
   123    398    124  3     94
   125    399    126  3     95
   126    399    400  3     95
   399     73    400  3     95
   400     73     75  3     95
   126    128    401  3     97
   401    128    402  3     97
   401    402    124  3     97
   124    402    127  3     97
   128     76    403  3     98
   403     76    406  3     98
   403    406    404  3     98
   404    406    407  3     98
   404    407    405  3     98
   405    407    408  3     98
   405    408    129  3     98
   129    408     78  3     98
   129    410    409  3    100
   409    410    411  3    100
   409    411    127  3    100
   127    411    412  3    100
   410    131    411  3    100
   411    131    413  3    100
   411    413    412  3    100
   412    413    130  3    100
   131    134    414  3    102
   414    134    415  3    102
   414    415    132  3    102
   132    415    133  3    102
   134    417    416  3    104
   416    417    418  3    104
   416    418    135  3    104
   135    418    419  3    104
   417    137    418  3    104
   418    137    420  3    104
   418    420    419  3    104
   419    420    136  3    104
   137    421    138  3    106
   138    421    422  3    106
   421    140    422  3    106
   422    140    139  3    106
   140    424    423  3    108
   423    424    425  3    108
   423    425    141  3    108
   141    425    426  3    108
   424    143    425  3    108
   425    143    427  3    108
   425    427    426  3    108
   426    427    142  3    108
   143     79    144  3    109
   144     79     81  3    109
   144     82    142  3    110
   142     82     84  3    110
   141    428    139  3    112
   139    428    429  3    112
   428    146    429  3    112
   429    146    145  3    112
   146    431    430  3    114
   430    431    432  3    114
   430    432    147  3    114
   147    432    433  3    114
   431    149    432  3    114
   432    149    434  3    114
   432    434    433  3    114
   433    434    148  3    114
   149    152    150  3    116
   150    152    151  3    116
   152     85    435  3    117
   435     85    436  3    117
   435    436    153  3    117
   153    436     87  3    117
   153    155    151  3    119
   151    155    154  3    119
   155     91    156  3    120
   156     91     93  3    120
   156    158    437  3    122
   437    158    438  3    122
   437    438    154  3    122
   154    438    157  3    122
   158    161    439  3    124
   439    161    440  3    124
   439    440    159  3    124
   159    440    160  3    124
   161    442    441  3    126
   441    442    443  3    126
   441    443    162  3    126
   162    443    444  3    126
   442    445    443  3    126
   443    445    446  3    126
   443    446    444  3    126
   444    446    447  3    126
   445    448    446  3    126
   446    448    449  3    126
   446    449    447  3    126
   447    449    450  3    126
   448    164    449  3    126
   449    164    451  3    126
   449    451    450  3    126
   450    451    163  3    126
   164    453    452  3    127
   452    453    454  3    127
   452    454    165  3    127
   165    454    455  3    127
   453    133    454  3    127
   454    133    456  3    127
   454    456    455  3    127
   455    456    135  3    127
   165    458    457  3    128
   457    458    459  3    128
   457    459    163  3    128
   163    459    460  3    128
   458    160    459  3    128
   459    160    461  3    128
   459    461    460  3    128
   460    461    162  3    128
   159    148    157  3    129
   157    148    150  3    129
   147    462    145  3    130
   145    462    463  3    130
   462    136    463  3    130
   463    136    138  3    130
   132    167    130  3    132
   130    167    166  3    132
   167    465    464  3    134
   464    465    466  3    134
   464    466    168  3    134
   168    466    467  3    134
   465    170    466  3    134
   466    170    468  3    134
   466    468    467  3    134
   467    468    169  3    134
   170    173    171  3    136
   171    173    172  3    136
   173     97    174  3    137
   174     97     99  3    137
   174    176    172  3    139
   172    176    175  3    139
   176    179    469  3    141
   469    179    470  3    141
   469    470    177  3    141
   177    470    178  3    141
   179    103    180  3    142
   180    103    105  3    142
   180    106    471  3    143
   471    106    472  3    143
   471    472    178  3    143
   178    472    108  3    143
   177    169    473  3    144
   473    169    474  3    144
   473    474    175  3    144
   175    474    171  3    144
   168    121    475  3    145
   475    121    476  3    145
   475    476    166  3    145
   166    476    123  3    145
   120    477    118  3    146
   118    477    478  3    146
   477    479    478  3    146
   478    479    480  3    146
   479    481    480  3    146
   480    481    482  3    146
   481    109    482  3    146
   482    109    111  3    146
    69    182    483  3    148
   483    182    484  3    148
   483    484     67  3    148
    67    484    181  3    148
   182    485    183  3    149
   183    485    486  3    149
   485    487    486  3    149
   486    487    488  3    149
   487     40    488  3    149
   488     40     42  3    149
   183    490    489  3    150
   489    490    491  3    150
   489    491    181  3    150
   181    491    492  3    150
   490     43    491  3    150
   491     43    493  3    150
   491    493    492  3    150
   492    493     45  3    150
    66    494     64  3    152
    64    494    495  3    152
   494    185    495  3    152
   495    185    184  3    152
   185     46    186  3    153
   186     46     48  3    153
   186    188    496  3    155
   496    188    497  3    155
   496    497    184  3    155
   184    497    187  3    155
   188    191    189  3    157
   189    191    190  3    157
   191    498    192  3    159
   192    498    499  3    159
   498    500    499  3    159
   499    500    501  3    159
   500    502    501  3    159
   501    502    503  3    159
   502    504    503  3    159
   503    504    505  3    159
   504    506    505  3    159
   505    506    507  3    159
   506    508    507  3    159
   507    508    509  3    159
   508    510    509  3    159
   509    510    511  3    159
   510    194    511  3    159
   511    194    193  3    159
   194    197    195  3    161
   195    197    196  3    161
   197     52    512  3    162
   512     52    513  3    162
   512    513    198  3    162
   198    513     54  3    162
   198    514    196  3    164
   196    514    515  3    164
   514    516    515  3    164
   515    516    517  3    164
   516    200    517  3    164
   517    200    199  3    164
   200    203    201  3    166
   201    203    202  3    166
   203    518    204  3    167
   204    518    519  3    167
   518     58    519  3    167
   519     58     60  3    167
   204    206    520  3    169
   520    206    521  3    169
   520    521    202  3    169
   202    521    205  3    169
   206    523    522  3    171
   522    523    524  3    171
   522    524    207  3    171
   207    524    525  3    171
   523    526    524  3    171
   524    526    527  3    171
   524    527    525  3    171
   525    527    528  3    171
   526    529    527  3    171
   527    529    530  3    171
   527    530    528  3    171
   528    530    531  3    171
   529    209    530  3    171
   530    209    532  3    171
   530    532    531  3    171
   531    532    208  3    171
   209    212    533  3    173
   533    212    534  3    173
   533    534    210  3    173
   210    534    211  3    173
   212    535    213  3    174
   213    535    536  3    174
   535     61    536  3    174
   536     61     63  3    174
   213    215    211  3    176
   211    215    214  3    176
   215    537    216  3    177
   216    537    538  3    177
   537    539    538  3    177
   538    539    540  3    177
   539    187    540  3    177
   540    187    189  3    177
   216    541    214  3    179
   214    541    542  3    179
   541    543    542  3    179
   542    543    544  3    179
   543    545    544  3    179
   544    545    546  3    179
   545    218    546  3    179
   546    218    217  3    179
   218    221    219  3    181
   219    221    220  3    181
   221    547    222  3    182
   222    547    548  3    182
   547    190    548  3    182
   548    190    192  3    182
   222    550    549  3    184
   549    550    551  3    184
   549    551    220  3    184
   220    551    552  3    184
   550    553    551  3    184
   551    553    554  3    184
   551    554    552  3    184
   552    554    555  3    184
   553    224    554  3    184
   554    224    556  3    184
   554    556    555  3    184
   555    556    223  3    184
   224    557    225  3    185
   225    557    558  3    185
   557    193    558  3    185
   558    193    195  3    185
   225    227    223  3    187
   223    227    226  3    187
   227    559    228  3    188
   228    559    560  3    188
   559    561    560  3    188
   560    561    562  3    188
   561    563    562  3    188
   562    563    564  3    188
   563    199    564  3    188
   564    199    201  3    188
   228    565    226  3    189
   226    565    566  3    189
   565    567    566  3    189
   566    567    568  3    189
   567    569    568  3    189
   568    569    570  3    189
   569    571    570  3    189
   570    571    572  3    189
   571    573    572  3    189
   572    573    574  3    189
   573    217    574  3    189
   574    217    219  3    189
   210    575    208  3    190
   208    575    576  3    190
   575    577    576  3    190
   576    577    578  3    190
   577    579    578  3    190
   578    579    580  3    190
   579    581    580  3    190
   580    581    582  3    190
   581    583    582  3    190
   582    583    584  3    190
   583    205    584  3    190
   584    205    207  3    190
   229    585    230  3    191
   230    585    586  3    191
   585    587    586  3    191
   586    587    588  3    191
   587    589    588  3    191
   588    589    590  3    191
   589    591    590  3    191
   590    591    592  3    191
   591    593    592  3    191
   592    593    594  3    191
   593    229    594  3    191
   594    229    230  3    191
     3      1    231  2      1
     3    231      2  2      1
     6      4    232  2      2
     6    232      5  2      2
   269      7    233  2      4
   269    233      9  2      4
   233      7      8  2      4
    12     10    237  2      6
    12    237    238  2      6
   238    237     11  2      6
    15     13    239  2      8
    15    239     14  2      8
    18     16     17  2     11
   353     19     20  2     13
   353     20     21  2     13
    24     22     23  2     15
   252     25     26  2     17
   252     26     27  2     17
   369     28    253  2     20
   369    253     29  2     20
   369     29     30  2     20
    33     31     32  2     22
   270     34    264  2     24
   270    264    265  2     24
   270    265     36  2     24
   264     34     35  2     24
   268     37    267  2     26
   268    267    595  2     26
   268    595     39  2     26
    39    595     38  2     26
    38    595    266  2     26
   266    595    267  2     26
    42     40    272  2     30
   272     40    271  2     30
   272    271     41  2     30
   493     43    273  2     32
   493    273     45  2     32
    45    273     44  2     32
    48     46     47  2     34
    51     49     50  2     36
   513     52     53  2     39
   513     53     54  2     39
    57     55     56  2     41
    60     58     59  2     44
    63     61     62  2     46
    66     64     65  2     48
   483     67    596  2     50
   483    596    308  2     50
   483    308     69  2     50
   308    596     68  2     50
    68    596     67  2     50
    72     70    310  2     52
   310     70    309  2     52
   310    309     71  2     52
    75     73    312  2     54
   312     73    311  2     54
   312    311     74  2     54
   597    598    600  2     56
   598    599    600  2     56
   406     76    599  2     56
   406    599    598  2     56
   406    598    407  2     56
   407    598    597  2     56
   407    597    408  2     56
   408    597    316  2     56
   408    316     78  2     56
   316    597    315  2     56
   315    597    600  2     56
   315    600    314  2     56
   314    600     77  2     56
    77    600    313  2     56
   313    600    599  2     56
   313    599     76  2     56
    81     79    324  2     58
    81    324    326  2     58
   326    324    323  2     58
   326    323    325  2     58
   325    323    322  2     58
   325    322     80  2     58
    84     82    331  2     60
   331     82    328  2     60
   331    328    330  2     60
   330    328    327  2     60
   330    327    329  2     60
   329    327     83  2     60
   436     85    349  2     62
   436    349    348  2     62
   436    348     87  2     62
    87    348    350  2     62
   350    348    347  2     62
   350    347     86  2     62
   354     88    601  2     64
   354    601     90  2     64
    90    601    352  2     64
   352    601    351  2     64
   352    351     89  2     64
   351    601     88  2     64
    93     91    355  2     67
    93    355    356  2     67
   356    355     92  2     67
    96     94    357  2     69
    96    357     95  2     69
    99     97     98  2     72
   371    100    101  2     74
   371    101    368  2     74
   371    368    370  2     74
   370    368    102  2     74
   105    103    373  2     77
   105    373    374  2     77
   374    373    372  2     77
   374    372    104  2     77
   472    106    375  2     79
   472    375    602  2     79
   472    602    108  2     79
   108    602    376  2     79
   376    602    375  2     79
   376    375    107  2     79
   111    109    381  2     81
   381    109    380  2     81
   381    380    110  2     81
   386    112    385  2     83
   386    385    113  2     83
   386    113    114  2     83
   117    115    390  2     86
   117    390    116  2     86
   120    118    119  2     89
   476    121    122  2     91
   476    122    397  2     91
   476    397    123  2     91
   401    124    398  2     93
   401    398    125  2     93
   401    125    126  2     93
   409    127    404  2     96
   409    404    405  2     96
   409    405    129  2     96
   404    127    403  2     96
   403    127    402  2     96
   403    402    128  2     96
   132    130    413  2     99
   132    413    414  2     99
   414    413    131  2     99
   456    133    415  2    101
   456    415    416  2    101
   456    416    135  2    101
   416    415    134  2    101
   138    136    420  2    103
   138    420    137  2    103
   141    139    423  2    105
   423    139    140  2    105
   144    142    427  2    107
   144    427    143  2    107
   147    145    430  2    111
   430    145    146  2    111
   150    148    434  2    113
   150    434    149  2    113
   153    151    435  2    115
   435    151    152  2    115
   437    154    155  2    118
   437    155    156  2    118
   159    157    439  2    121
   439    157    438  2    121
   439    438    158  2    121
   461    160    440  2    123
   461    440    161  2    123
   461    161    441  2    123
   461    441    162  2    123
   457    163    451  2    125
   457    451    164  2    125
   457    164    452  2    125
   457    452    165  2    125
   475    166    167  2    131
   475    167    464  2    131
   475    464    168  2    131
   474    169    468  2    133
   474    468    171  2    133
   171    468    170  2    133
   174    172    173  2    135
   473    175    469  2    138
   473    469    177  2    138
   469    175    176  2    138
   471    178    470  2    140
   471    470    180  2    140
   180    470    179  2    140
   489    181    484  2    147
   489    484    183  2    147
   183    484    182  2    147
   496    184    185  2    151
   496    185    186  2    151
   189    187    497  2    154
   189    497    188  2    154
   192    190    191  2    156
   195    193    194  2    158
   198    196    512  2    160
   512    196    197  2    160
   201    199    200  2    163
   520    202    203  2    165
   520    203    204  2    165
   207    205    521  2    168
   207    521    522  2    168
   522    521    206  2    168
   210    208    533  2    170
   533    208    532  2    170
   533    532    209  2    170
   213    211    534  2    172
   213    534    212  2    172
   216    214    215  2    175
   219    217    218  2    178
   549    220    221  2    180
   549    221    222  2    180
   225    223    556  2    183
   225    556    224  2    183
   228    226    227  2    186
   604    603    605  1    192
   604    605    240  1    192
   604    240     14  1    192
   604     14     11  1    192
   604     11    234  1    192
   604    234    603  1    192
   603    234      8  1    192
   603      8      5  1    192
   603      5      1  1    192
   603      1    605  1    192
   605      1    242  1    192
   605    242    240  1    192
   608    607    609  1    193
   606    607    608  1    193
   610    609    612  1    193
   608    609    610  1    193
   610    612      2  1    193
   610      2      4  1    193
   610      4    608  1    193
   608      4     38  1    193
   608     38    606  1    193
   606     38     35  1    193
   606     35    262  1    193
   606    262    607  1    193
   607    262    260  1    193
   607    260    258  1    193
   607    258    609  1    193
   609    258    256  1    193
   609    256    612  1    193
   612    256    254  1    193
   612    254    611  1    193
   612    611      2  1    193
     2    611     27  1    193
    27    611     29  1    193
    29    611    254  1    193
   260    262     32  1    193
     7     39      6  1    194
    10     50    288  1    195
    10    288    615  1    195
    10    615    236  1    195
   236    615    614  1    195
   236    614      9  1    195
     9    614    613  1    195
     9    613     37  1    195
    37    613    280  1    195
    37    280     36  1    195
    36    280    278  1    195
    36    278    276  1    195
    36    276     41  1    195
    41    276    274  1    195
    41    274     44  1    195
    44    274     47  1    195
   280    613    282  1    195
   282    613    284  1    195
   284    613    614  1    195
   284    614    286  1    195
   286    614    615  1    195
   286    615    288  1    195
   245     16    617  1    196
   245    617    616  1    196
   245    616     51  1    196
   245     51     13  1    196
    13     51     12  1    196
    51    616     53  1    196
    53    616    290  1    196
   290    616    617  1    196
   290    617     56  1    196
    56    617     16  1    196
     3     26    621  1    197
     3    621    243  1    197
   243    621    620  1    197
   243    620    241  1    197
   241    620    619  1    197
   241    619    618  1    197
   241    618     15  1    197
    15    618    244  1    197
   244    618     17  1    197
    17    618    619  1    197
    17    619     20  1    197
    20    619    246  1    197
   246    619    248  1    197
   248    619    620  1    197
   248    620     23  1    197
    23    620    621  1    197
    23    621    250  1    197
   250    621     26  1    197
    83     80    332  1    198
   624    623    625  1    198
   624    625     19  1    198
   624     19     89  1    198
   624     89     86  1    198
   624     86    342  1    198
   624    342    294  1    198
   624    294    623  1    198
   623    294    292  1    198
   623    292     59  1    198
   623     59     57  1    198
   623     57    625  1    198
   625     57     18  1    198
   625     18     19  1    198
   294    342    337  1    198
   294    337    296  1    198
   296    337    332  1    198
   296    332    298  1    198
   298    332     80  1    198
   298     80    300  1    198
   300     80    302  1    198
   302     80    317  1    198
   302    317    304  1    198
   304    317    622  1    198
   304    622    306  1    198
   306    622     62  1    198
    62    622     74  1    198
    62     74     71  1    198
    62     71     65  1    198
    65     71     68  1    198
    74    622     77  1    198
    77    622    317  1    198
   358     95    626  1    199
   358    626    247  1    199
   358    247    249  1    199
   358    249     22  1    199
   247    626     21  1    199
    21    626     90  1    199
    90    626     92  1    199
    92    626     95  1    199
    25     28    366  1    200
    25    366    251  1    200
   251    366     24  1    200
    24    366    627  1    200
    24    627    359  1    200
   359    627    360  1    200
   359    360     96  1    200
   360    627    362  1    200
   362    627    364  1    200
   362    364     98  1    200
   364    627    366  1    200
   366     28    101  1    200
   107    104    377  1    201
    31    113    382  1    201
    31    382    261  1    201
   261    382    628  1    201
   261    628    259  1    201
   259    628    630  1    201
   259    630    257  1    201
   257    630    629  1    201
   257    629    255  1    201
   255    629    104  1    201
   255    104    102  1    201
   255    102     30  1    201
   104    629    377  1    201
   377    629    110  1    201
   110    629    630  1    201
   110    630    628  1    201
   110    628    382  1    201
    34     40    263  1    202
   263     40    487  1    202
   263    487     33  1    202
    33    487    114  1    202
   114    487    387  1    202
   387    487    116  1    202
   116    487    485  1    202
   116    485    391  1    202
   391    485    182  1    202
   391    182     70  1    202
    70    182     69  1    202
   490    183    631  1    203
   490    631     43  1    203
    43    631    488  1    203
    43    488     42  1    203
   488    631    486  1    203
   486    631    183  1    203
    46    185    492  1    204
    46    492     45  1    204
   492    185    494  1    204
   492    494    181  1    204
   181    494     66  1    204
   181     66     67  1    204
   633    632    635  1    205
   633    635    636  1    205
   634    633    636  1    205
   634    636    637  1    205
   635    639    640  1    205
   636    635    640  1    205
   636    640    641  1    205
   637    636    641  1    205
   637    641    642  1    205
   640    639    644  1    205
   640    644    645  1    205
   641    640    645  1    205
   646    648    649  1    205
   647    646    649  1    205
   647    649    650  1    205
   648    653    654  1    205
   649    648    654  1    205
   650    649    654  1    205
   650    654    655  1    205
   651    650    655  1    205
   654    653    657  1    205
   655    654    657  1    205
   653    656    657  1    205
   657    656    287  1    205
   657    287    289  1    205
   657    289    655  1    205
   655    289     49  1    205
   655     49    651  1    205
   651     49     52  1    205
   651     52    197  1    205
   651    197    194  1    205
   651    194    650  1    205
   650    194    510  1    205
   650    510    647  1    205
   647    510    508  1    205
   647    508    646  1    205
   646    508    506  1    205
   646    506    591  1    205
   646    591    648  1    205
   648    591    589  1    205
   648    589    653  1    205
   653    589    656  1    205
   656    589    652  1    205
   656    652    285  1    205
   656    285    287  1    205
   285    652    283  1    205
   283    652    587  1    205
   283    587    281  1    205
   281    587    279  1    205
   279    587    645  1    205
   279    645    644  1    205
   279    644    277  1    205
   277    644    639  1    205
   277    639    275  1    205
   275    639    635  1    205
   275    635     48  1    205
    48    635    632  1    205
    48    632    186  1    205
   186    632    188  1    205
   188    632    191  1    205
   191    632    633  1    205
   191    633    634  1    205
   191    634    498  1    205
   498    634    637  1    205
   498    637    500  1    205
   500    637    638  1    205
   500    638    502  1    205
   502    638    643  1    205
   502    643    504  1    205
   504    643    506  1    205
   506    643    593  1    205
   506    593    591  1    205
   593    643    638  1    205
   593    638    229  1    205
   229    638    642  1    205
   229    642    641  1    205
   229    641    585  1    205
   585    641    645  1    205
   585    645    587  1    205
   642    638    637  1    205
   587    652    589  1    205
    55     58    658  1    206
    55    658    291  1    206
   291    658    514  1    206
   291    514    198  1    206
   291    198     54  1    206
   514    658    516  1    206
   516    658    518  1    206
   516    518    200  1    206
   200    518    203  1    206
   518    658     58  1    206
   661    662    663  1    207
   663    662    664  1    207
   663    664    299  1    207
   663    299    301  1    207
   663    301    661  1    207
   661    301    303  1    207
   661    303    660  1    207
   661    660    529  1    207
   661    529    526  1    207
   661    526    662  1    207
   662    526    523  1    207
   662    523    664  1    207
   664    523    665  1    207
   664    665    666  1    207
   664    666    297  1    207
   664    297    299  1    207
   297    666    295  1    207
   295    666    293  1    207
   293    666    665  1    207
   293    665    519  1    207
   293    519     60  1    207
   519    665    204  1    207
   204    665    206  1    207
   206    665    523  1    207
   529    660    659  1    207
   529    659    209  1    207
   209    659    212  1    207
   212    659    535  1    207
   535    659    307  1    207
   535    307     61  1    207
   307    659    660  1    207
   307    660    305  1    207
   305    660    303  1    207
   495    184    187  1    208
   495    187    539  1    208
   495    539     63  1    208
   495     63     64  1    208
    63    539    537  1    208
    63    537    536  1    208
   536    537    215  1    208
   536    215    213  1    208
   399    125    395  1    209
   399    395    393  1    209
   399    393    392  1    209
   399    392     73  1    209
    73    392     72  1    209
   392    393    117  1    209
   395    125    119  1    209
   119    125    122  1    209
    76    128    667  1    210
    76    667     75  1    210
    75    667    400  1    210
   400    667    126  1    210
   126    667    128  1    210
    79    143    321  1    211
   668    669    670  1    211
   668    670    671  1    211
   668    671    672  1    211
   668    672    673  1    211
   668    673    674  1    211
   668    674    669  1    211
   670    669    676  1    211
   670    676    677  1    211
   670    677    678  1    211
   671    670    678  1    211
   671    678    679  1    211
   671    679    680  1    211
   672    671    680  1    211
   672    680    681  1    211
   673    672    681  1    211
   673    681    682  1    211
   673    682    683  1    211
   674    673    683  1    211
   669    675    676  1    211
   676    675    321  1    211
   676    321    677  1    211
   677    321    143  1    211
   677    143    424  1    211
   677    424    678  1    211
   678    424    140  1    211
   678    140    679  1    211
   679    140    421  1    211
   679    421    680  1    211
   680    421    137  1    211
   680    137    681  1    211
   681    137    417  1    211
   681    417    682  1    211
   682    417    134  1    211
   682    134    131  1    211
   682    131    683  1    211
   683    131    410  1    211
   683    410    674  1    211
   674    410    129  1    211
   674    129    669  1    211
   669    129    675  1    211
   675    129     78  1    211
   675     78    321  1    211
    81     82    144  1    212
   142     84    426  1    213
   685    684    687  1    213
   685    687    688  1    213
   686    685    688  1    213
   686    688    689  1    213
   686    689    690  1    213
   687    691    692  1    213
   688    687    692  1    213
   688    692    693  1    213
   689    688    693  1    213
   689    693    694  1    213
   690    689    694  1    213
   691    695    696  1    213
   692    691    696  1    213
   692    696    697  1    213
   693    692    697  1    213
   694    693    697  1    213
   694    697    698  1    213
   696    695    699  1    213
   696    699    700  1    213
   697    696    700  1    213
   698    697    700  1    213
   698    700    149  1    213
   698    149    431  1    213
   698    431    694  1    213
   694    431    146  1    213
   694    146    690  1    213
   690    146    428  1    213
   690    428    686  1    213
   686    428    141  1    213
   686    141    685  1    213
   685    141    426  1    213
   685    426    684  1    213
   684    426     84  1    213
   684     84    336  1    213
   684    336    687  1    213
   687    336    341  1    213
   687    341    691  1    213
   691    341    695  1    213
   695    341    346  1    213
   695    346    699  1    213
   699    346     85  1    213
   699     85    152  1    213
   699    152    700  1    213
   700    152    149  1    213
    88     91    153  1    214
    88    153     87  1    214
   153     91    155  1    214
   363     97    442  1    215
   363    442    161  1    215
   363    161    361  1    215
   361    161    158  1    215
   361    158    156  1    215
   361    156     94  1    215
    94    156     93  1    215
   442     97    445  1    215
   445     97    173  1    215
   445    173    448  1    215
   448    173    170  1    215
   448    170    703  1    215
   448    703    702  1    215
   448    702    164  1    215
   164    702    453  1    215
   453    702    701  1    215
   453    701    133  1    215
   133    701    132  1    215
   132    701    167  1    215
   167    701    703  1    215
   167    703    465  1    215
   465    703    170  1    215
   703    701    702  1    215
   103    179    100  1    216
   100    179    704  1    216
   100    704    705  1    216
   100    705    367  1    216
   367    705    365  1    216
   365    705     99  1    216
    99    705    704  1    216
    99    704    174  1    216
   174    704    176  1    216
   176    704    179  1    216
   105    106    180  1    217
   178    108    177  1    218
   707    708    709  1    218
   707    709    479  1    218
   707    479    706  1    218
   707    706    467  1    218
   707    467    708  1    218
   708    467    169  1    218
   708    169    177  1    218
   708    177    709  1    218
   709    177    379  1    218
   709    379    109  1    218
   709    109    481  1    218
   709    481    479  1    218
   379    177    108  1    218
   467    706    168  1    218
   168    706    121  1    218
   121    706    477  1    218
   121    477    120  1    218
   477    706    479  1    218
   712    711    713  1    219
   712    713    714  1    219
   712    714    715  1    219
   710    712    715  1    219
   714    713    716  1    219
   714    716    717  1    219
   715    714    717  1    219
   715    717    384  1    219
   715    384    112  1    219
   715    112    389  1    219
   715    389    710  1    219
   710    389    115  1    219
   710    115    394  1    219
   710    394    396  1    219
   710    396    712  1    219
   712    396    711  1    219
   711    396    118  1    219
   711    118    478  1    219
   711    478    713  1    219
   713    478    480  1    219
   713    480    716  1    219
   716    480    482  1    219
   716    482    111  1    219
   716    111    717  1    219
   717    111    384  1    219
   124    127    412  1    220
   124    412    123  1    220
   123    412    130  1    220
   123    130    166  1    220
   718    721    722  1    221
   719    718    722  1    221
   719    722    723  1    221
   720    724    725  1    221
   721    720    725  1    221
   721    725    726  1    221
   722    721    726  1    221
   722    726    727  1    221
   723    722    727  1    221
   725    724    728  1    221
   725    728    729  1    221
   726    725    729  1    221
   726    729    730  1    221
   727    726    730  1    221
   728    731    732  1    221
   729    728    732  1    221
   729    732    733  1    221
   730    729    733  1    221
   730    733    458  1    221
   730    458    727  1    221
   727    458    165  1    221
   727    165    723  1    221
   723    165    455  1    221
   723    455    719  1    221
   719    455    135  1    221
   719    135    419  1    221
   719    419    718  1    221
   718    419    136  1    221
   718    136    462  1    221
   718    462    721  1    221
   721    462    720  1    221
   720    462    147  1    221
   720    147    724  1    221
   724    147    433  1    221
   724    433    728  1    221
   728    433    731  1    221
   731    433    148  1    221
   731    148    159  1    221
   731    159    732  1    221
   732    159    733  1    221
   733    159    160  1    221
   733    160    458  1    221
   429    145    463  1    222
   429    463    734  1    222
   429    734    422  1    222
   429    422    139  1    222
   422    734    463  1    222
   422    463    138  1    222
   151    154    150  1    223
   150    154    157  1    223
   460    162    735  1    224
   460    735    163  1    224
   163    735    450  1    224
   450    735    447  1    224
   447    735    444  1    224
   444    735    162  1    224
   172    175    171  1    225
   547    221    218  1    226
   547    218    545  1    226
   547    545    737  1    226
   547    737    190  1    226
   190    737    736  1    226
   190    736    189  1    226
   189    736    540  1    226
   540    736    538  1    226
   538    736    541  1    226
   538    541    216  1    226
   541    736    543  1    226
   543    736    737  1    226
   543    737    545  1    226
   557    224    742  1    227
   557    742    511  1    227
   557    511    193  1    227
   511    742    509  1    227
   509    742    507  1    227
   507    742    741  1    227
   507    741    505  1    227
   505    741    740  1    227
   505    740    503  1    227
   503    740    739  1    227
   503    739    501  1    227
   501    739    738  1    227
   501    738    499  1    227
   499    738    548  1    227
   499    548    192  1    227
   548    738    222  1    227
   222    738    550  1    227
   550    738    739  1    227
   550    739    740  1    227
   550    740    553  1    227
   553    740    741  1    227
   553    741    224  1    227
   224    741    742  1    227
   517    199    563  1    228
   517    563    743  1    228
   517    743    515  1    228
   515    743    196  1    228
   196    743    195  1    228
   195    743    558  1    228
   558    743    559  1    228
   558    559    227  1    228
   558    227    225  1    228
   559    743    561  1    228
   561    743    563  1    228
   744    745    746  1    229
   744    747    748  1    229
   744    748    745  1    229
   749    750    751  1    229
   749    751    583  1    229
   749    583    581  1    229
   749    581    567  1    229
   749    567    750  1    229
   750    567    565  1    229
   750    565    560  1    229
   750    560    562  1    229
   750    562    564  1    229
   750    564    751  1    229
   751    564    201  1    229
   751    201    202  1    229
   751    202    583  1    229
   583    202    205  1    229
   560    565    228  1    229
   567    581    569  1    229
   569    581    579  1    229
   569    579    577  1    229
   569    577    571  1    229
   571    577    746  1    229
   571    746    745  1    229
   571    745    573  1    229
   573    745    546  1    229
   573    546    217  1    229
   546    745    544  1    229
   544    745    748  1    229
   544    748    542  1    229
   542    748    747  1    229
   542    747    214  1    229
   214    747    211  1    229
   211    747    210  1    229
   210    747    575  1    229
   575    747    744  1    229
   575    744    577  1    229
   577    744    746  1    229
   584    207    755  1    230
   584    755    582  1    230
   582    755    754  1    230
   582    754    580  1    230
   580    754    752  1    230
   580    752    578  1    230
   578    752    576  1    230
   576    752    753  1    230
   576    753    208  1    230
   208    753    531  1    230
   531    753    528  1    230
   528    753    754  1    230
   528    754    755  1    230
   528    755    525  1    230
   525    755    207  1    230
   754    753    752  1    230
   757    756    759  1    231
   757    759    760  1    231
   758    757    760  1    231
   758    760    568  1    231
   758    568    570  1    231
   758    570    572  1    231
   758    572    757  1    231
   757    572    574  1    231
   757    574    756  1    231
   756    574    219  1    231
   756    219    220  1    231
   756    220    552  1    231
   756    552    759  1    231
   759    552    555  1    231
   759    555    760  1    231
   760    555    223  1    231
   760    223    226  1    231
   760    226    566  1    231
   760    566    568  1    231
   762    761    763  1    232
   762    763    590  1    232
   762    590    592  1    232
   762    592    594  1    232
   762    594    230  1    232
   762    230    761  1    232
   761    230    586  1    232
   761    586    763  1    232
   763    586    588  1    232
   763    588    590  1    232
