# MSMS solvent excluded surface faces for fragments/fragment50.xyzr
#faces  #sphere density probe_r
   2272      67  3.00  1.50
     1    397      2  3      3
     2    397    398  3      3
   397    399    398  3      3
   398    399    400  3      3
   399      5    400  3      3
   400      5      4  3      3
     5      8    401  3      5
   401      8    402  3      5
   401    402      6  3      5
     6    402      7  3      5
     8    403      9  3      7
     9    403    404  3      7
   403    405    404  3      7
   404    405    406  3      7
   405    407    406  3      7
   406    407    408  3      7
   407     11    408  3      7
   408     11     10  3      7
    11     14     12  3      9
    12     14     13  3      9
    14    409     15  3     11
    15    409    410  3     11
   409     17    410  3     11
   410     17     16  3     11
    17      1     18  3     12
    18      1      3  3     12
    18    411     16  3     14
    16    411    412  3     14
   411     20    412  3     14
   412     20     19  3     14
    20    413     21  3     16
    21    413    414  3     16
   413    415    414  3     16
   414    415    416  3     16
   415    417    416  3     16
   416    417    418  3     16
   417     23    418  3     16
   418     23     22  3     16
    23     26    419  3     18
   419     26    421  3     18
   419    421    420  3     18
   420    421    422  3     18
   420    422     24  3     18
    24    422     25  3     18
    26    423     27  3     20
    27    423    424  3     20
   423     29    424  3     20
   424     29     28  3     20
    29     32     30  3     22
    30     32     31  3     22
    32      3    425  3     23
   425      3    426  3     23
   425    426     33  3     23
    33    426      2  3     23
    33    427     31  3     25
    31    427    428  3     25
   427     35    428  3     25
   428     35     34  3     25
    35     38     36  3     27
    36     38     37  3     27
    38    429     39  3     28
    39    429    430  3     28
   429      4    430  3     28
   430      4      6  3     28
    39    431     37  3     30
    37    431    432  3     30
   431    433    432  3     30
   432    433    434  3     30
   433    435    434  3     30
   434    435    436  3     30
   435    437    436  3     30
   436    437    438  3     30
   437    439    438  3     30
   438    439    440  3     30
   439     41    440  3     30
   440     41     40  3     30
    41     44    441  3     32
   441     44    443  3     32
   441    443    442  3     32
   442    443    444  3     32
   442    444     42  3     32
    42    444     43  3     32
    44     47    445  3     34
   445     47    447  3     34
   445    447    446  3     34
   446    447    448  3     34
   446    448     45  3     34
    45    448     46  3     34
    47    450    449  3     35
   449    450    451  3     35
   449    451     48  3     35
    48    451    452  3     35
   450      7    451  3     35
   451      7    453  3     35
   451    453    452  3     35
   452    453      9  3     35
    48     50    454  3     37
   454     50    456  3     37
   454    456    455  3     37
   455    456    457  3     37
   455    457     46  3     37
    46    457     49  3     37
    50     53    458  3     39
   458     53    460  3     39
   458    460    459  3     39
   459    460    461  3     39
   459    461     51  3     39
    51    461     52  3     39
    53    464    462  3     41
   462    464    465  3     41
   462    465    463  3     41
   463    465    466  3     41
   463    466     54  3     41
    54    466    467  3     41
   464     56    465  3     41
   465     56    468  3     41
   465    468    466  3     41
   466    468    469  3     41
   466    469    467  3     41
   467    469     55  3     41
    56     10    470  3     42
   470     10    471  3     42
   470    471     57  3     42
    57    471     12  3     42
    57     59    472  3     44
   472     59    475  3     44
   472    475    473  3     44
   473    475    476  3     44
   473    476    474  3     44
   474    476    477  3     44
   474    477     55  3     44
    55    477     58  3     44
    59     62    478  3     46
   478     62    480  3     46
   478    480    479  3     46
   479    480    481  3     46
   479    481     60  3     46
    60    481     61  3     46
    62     65    482  3     48
   482     65    483  3     48
   482    483     63  3     48
    63    483     64  3     48
    65     68    484  3     50
   484     68    485  3     50
   484    485     66  3     50
    66    485     67  3     50
    68     71    486  3     52
   486     71    487  3     52
   486    487     69  3     52
    69    487     70  3     52
    71     13     72  3     53
    72     13     15  3     53
    72     19     70  3     54
    70     19     21  3     54
    69    488     67  3     56
    67    488    489  3     56
   488    490    489  3     56
   489    490    491  3     56
   490    492    491  3     56
   491    492    493  3     56
   492     74    493  3     56
   493     74     73  3     56
    74     77    494  3     58
   494     77    496  3     58
   494    496    495  3     58
   495    496    497  3     58
   495    497     75  3     58
    75    497     76  3     58
    77     80    498  3     60
   498     80    499  3     60
   498    499     78  3     60
    78    499     79  3     60
    80     83    500  3     62
   500     83    502  3     62
   500    502    501  3     62
   501    502    503  3     62
   501    503     81  3     62
    81    503     82  3     62
    83    504     84  3     64
    84    504    505  3     64
   504    506    505  3     64
   505    506    507  3     64
   506    508    507  3     64
   507    508    509  3     64
   508     86    509  3     64
   509     86     85  3     64
    86     22    510  3     65
   510     22    512  3     65
   510    512    511  3     65
   511    512    513  3     65
   511    513     87  3     65
    87    513     24  3     65
    87     89    514  3     67
   514     89    515  3     67
   514    515     85  3     67
    85    515     88  3     67
    89    516     90  3     69
    90    516    517  3     69
   516    518    517  3     69
   517    518    519  3     69
   518     92    519  3     69
   519     92     91  3     69
    92     95    520  3     71
   520     95    521  3     71
   520    521     93  3     71
    93    521     94  3     71
    95    523    522  3     73
   522    523    524  3     73
   522    524     96  3     73
    96    524    525  3     73
   523     98    524  3     73
   524     98    526  3     73
   524    526    525  3     73
   525    526     97  3     73
    98     25    527  3     74
   527     25    528  3     74
   527    528     99  3     74
    99    528     27  3     74
    99    101    529  3     76
   529    101    530  3     76
   529    530     97  3     76
    97    530    100  3     76
   101    104    531  3     78
   531    104    532  3     78
   531    532    102  3     78
   102    532    103  3     78
   104     28    105  3     79
   105     28     30  3     79
   105    533    103  3     81
   103    533    534  3     81
   533    107    534  3     81
   534    107    106  3     81
   107     34    108  3     82
   108     34     36  3     82
   108    110    106  3     84
   106    110    109  3     84
   110    113    535  3     86
   535    113    536  3     86
   535    536    111  3     86
   111    536    112  3     86
   113    116    114  3     88
   114    116    115  3     88
   116    119    537  3     90
   537    119    538  3     90
   537    538    117  3     90
   117    538    118  3     90
   119    539    120  3     92
   120    539    540  3     92
   539    541    540  3     92
   540    541    542  3     92
   541    122    542  3     92
   542    122    121  3     92
   122    125    543  3     94
   543    125    544  3     94
   543    544    123  3     94
   123    544    124  3     94
   125    128    545  3     96
   545    128    547  3     96
   545    547    546  3     96
   546    547    548  3     96
   546    548    126  3     96
   126    548    127  3     96
   128    131    549  3     98
   549    131    551  3     98
   549    551    550  3     98
   550    551    552  3     98
   550    552    129  3     98
   129    552    130  3     98
   131    555    553  3    100
   553    555    556  3    100
   553    556    554  3    100
   554    556    557  3    100
   554    557    132  3    100
   132    557    558  3    100
   555    134    556  3    100
   556    134    559  3    100
   556    559    557  3    100
   557    559    560  3    100
   557    560    558  3    100
   558    560    133  3    100
   134     40    561  3    101
   561     40    563  3    101
   561    563    562  3    101
   562    563    564  3    101
   562    564    135  3    101
   135    564     42  3    101
   135    137    133  3    103
   133    137    136  3    103
   137    140    138  3    105
   138    140    139  3    105
   140     43    141  3    106
   141     43     45  3    106
   141    143    565  3    108
   565    143    566  3    108
   565    566    139  3    108
   139    566    142  3    108
   143    146    144  3    110
   144    146    145  3    110
   146     49    567  3    111
   567     49    568  3    111
   567    568    147  3    111
   147    568     51  3    111
   147    149    569  3    113
   569    149    570  3    113
   569    570    145  3    113
   145    570    148  3    113
   149    572    571  3    115
   571    572    573  3    115
   571    573    150  3    115
   150    573    574  3    115
   572    575    573  3    115
   573    575    576  3    115
   573    576    574  3    115
   574    576    577  3    115
   575    152    576  3    115
   576    152    578  3    115
   576    578    577  3    115
   577    578    151  3    115
   152    155    579  3    117
   579    155    580  3    117
   579    580    153  3    117
   153    580    154  3    117
   155    158    156  3    119
   156    158    157  3    119
   158    582    581  3    121
   581    582    583  3    121
   581    583    159  3    121
   159    583    584  3    121
   582    585    583  3    121
   583    585    586  3    121
   583    586    584  3    121
   584    586    587  3    121
   585    161    586  3    121
   586    161    588  3    121
   586    588    587  3    121
   587    588    160  3    121
   161     52    162  3    122
   162     52     54  3    122
   162    164    160  3    124
   160    164    163  3    124
   164    589    165  3    126
   165    589    590  3    126
   589    591    590  3    126
   590    591    592  3    126
   591    593    592  3    126
   592    593    594  3    126
   593    167    594  3    126
   594    167    166  3    126
   167    595    168  3    127
   168    595    596  3    127
   595     58    596  3    127
   596     58     60  3    127
   168    170    166  3    129
   166    170    169  3    129
   170    173    171  3    131
   171    173    172  3    131
   173    597    174  3    132
   174    597    598  3    132
   597     61    598  3    132
   598     61     63  3    132
   174    176    172  3    134
   172    176    175  3    134
   176    599    177  3    136
   177    599    600  3    136
   599    179    600  3    136
   600    179    178  3    136
   179     64    601  3    137
   601     64    603  3    137
   601    603    602  3    137
   602    603    604  3    137
   602    604    180  3    137
   180    604     66  3    137
   180    607    605  3    138
   605    607    608  3    138
   605    608    606  3    138
   606    608    609  3    138
   606    609    178  3    138
   178    609    610  3    138
   607     73    608  3    138
   608     73    611  3    138
   608    611    609  3    138
   609    611    612  3    138
   609    612    610  3    138
   610    612     75  3    138
   177    182    613  3    140
   613    182    614  3    140
   613    614    175  3    140
   175    614    181  3    140
   182    615    183  3    142
   183    615    616  3    142
   615    617    616  3    142
   616    617    618  3    142
   617    619    618  3    142
   618    619    620  3    142
   619    185    620  3    142
   620    185    184  3    142
   185     76    621  3    143
   621     76    622  3    143
   621    622    186  3    143
   186    622     78  3    143
   186    188    623  3    145
   623    188    624  3    145
   623    624    184  3    145
   184    624    187  3    145
   188    625    189  3    147
   189    625    626  3    147
   625    191    626  3    147
   626    191    190  3    147
   191    194    192  3    149
   192    194    193  3    149
   194    197    627  3    151
   627    197    630  3    151
   627    630    628  3    151
   628    630    631  3    151
   628    631    629  3    151
   629    631    632  3    151
   629    632    195  3    151
   195    632    196  3    151
   197    635    633  3    152
   633    635    636  3    152
   633    636    634  3    152
   634    636    637  3    152
   634    637    198  3    152
   198    637    638  3    152
   635     79    636  3    152
   636     79    639  3    152
   636    639    637  3    152
   637    639    640  3    152
   637    640    638  3    152
   638    640     81  3    152
   198    200    641  3    154
   641    200    643  3    154
   641    643    642  3    154
   642    643    644  3    154
   642    644    196  3    154
   196    644    199  3    154
   200    646    645  3    156
   645    646    647  3    156
   645    647    201  3    156
   201    647    648  3    156
   646    649    647  3    156
   647    649    650  3    156
   647    650    648  3    156
   648    650    651  3    156
   649    203    650  3    156
   650    203    652  3    156
   650    652    651  3    156
   651    652    202  3    156
   203    206    653  3    158
   653    206    655  3    158
   653    655    654  3    158
   654    655    656  3    158
   654    656    204  3    158
   204    656    205  3    158
   206    209    657  3    160
   657    209    658  3    160
   657    658    207  3    160
   207    658    208  3    160
   209    212    210  3    162
   210    212    211  3    162
   212    215    213  3    164
   213    215    214  3    164
   215    218    216  3    166
   216    218    217  3    166
   218    659    219  3    168
   219    659    660  3    168
   659    661    660  3    168
   660    661    662  3    168
   661    663    662  3    168
   662    663    664  3    168
   663    665    664  3    168
   664    665    666  3    168
   665    221    666  3    168
   666    221    220  3    168
   221     82    667  3    169
   667     82    668  3    169
   667    668    222  3    169
   222    668     84  3    169
   222    670    669  3    170
   669    670    671  3    170
   669    671    220  3    170
   220    671    672  3    170
   670     88    671  3    170
   671     88    673  3    170
   671    673    672  3    170
   672    673     90  3    170
   219     91    674  3    171
   674     91    675  3    171
   674    675    217  3    171
   217    675     93  3    171
   216    676    214  3    173
   214    676    677  3    173
   676    224    677  3    173
   677    224    223  3    173
   224    227    678  3    175
   678    227    679  3    175
   678    679    225  3    175
   225    679    226  3    175
   227    230    680  3    177
   680    230    681  3    177
   680    681    228  3    177
   228    681    229  3    177
   230    233    231  3    179
   231    233    232  3    179
   233     94    234  3    180
   234     94     96  3    180
   234    682    232  3    181
   232    682    683  3    181
   682    100    683  3    181
   683    100    102  3    181
   231    684    229  3    183
   229    684    685  3    183
   684    236    685  3    183
   685    236    235  3    183
   236    686    237  3    184
   237    686    687  3    184
   686    688    687  3    184
   687    688    689  3    184
   688    109    689  3    184
   689    109    111  3    184
   237    239    690  3    186
   690    239    691  3    186
   690    691    235  3    186
   235    691    238  3    186
   239    112    240  3    187
   240    112    114  3    187
   240    242    238  3    189
   238    242    241  3    189
   242    115    243  3    190
   243    115    117  3    190
   243    692    241  3    192
   241    692    693  3    192
   692    694    693  3    192
   693    694    695  3    192
   694    696    695  3    192
   695    696    697  3    192
   696    245    697  3    192
   697    245    244  3    192
   245    248    246  3    194
   246    248    247  3    194
   248    251    698  3    196
   698    251    700  3    196
   698    700    699  3    196
   699    700    701  3    196
   699    701    249  3    196
   249    701    250  3    196
   251    254    702  3    198
   702    254    703  3    198
   702    703    252  3    198
   252    703    253  3    198
   254    257    704  3    200
   704    257    705  3    200
   704    705    255  3    200
   255    705    256  3    200
   257    260    258  3    202
   258    260    259  3    202
   260    118    706  3    203
   706    118    707  3    203
   706    707    261  3    203
   261    707    120  3    203
   261    121    708  3    204
   708    121    709  3    204
   708    709    259  3    204
   259    709    123  3    204
   258    124    710  3    205
   710    124    711  3    205
   710    711    256  3    205
   256    711    126  3    205
   255    127    253  3    206
   253    127    129  3    206
   252    713    712  3    208
   712    713    714  3    208
   712    714    250  3    208
   250    714    715  3    208
   713    263    714  3    208
   714    263    716  3    208
   714    716    715  3    208
   715    716    262  3    208
   263    717    264  3    210
   264    717    718  3    210
   717    266    718  3    210
   718    266    265  3    210
   266    269    719  3    212
   719    269    720  3    212
   719    720    267  3    212
   267    720    268  3    212
   269    272    270  3    214
   270    272    271  3    214
   272    275    273  3    216
   273    275    274  3    216
   275    721    276  3    217
   276    721    722  3    217
   721    130    722  3    217
   722    130    132  3    217
   276    723    274  3    219
   274    723    724  3    219
   723    278    724  3    219
   724    278    277  3    219
   278    281    725  3    221
   725    281    726  3    221
   725    726    279  3    221
   279    726    280  3    221
   281    136    727  3    222
   727    136    728  3    222
   727    728    282  3    222
   282    728    138  3    222
   282    729    280  3    224
   280    729    730  3    224
   729    731    730  3    224
   730    731    732  3    224
   731    733    732  3    224
   732    733    734  3    224
   733    735    734  3    224
   734    735    736  3    224
   735    284    736  3    224
   736    284    283  3    224
   284    737    285  3    226
   285    737    738  3    226
   737    739    738  3    226
   738    739    740  3    226
   739    741    740  3    226
   740    741    742  3    226
   741    287    742  3    226
   742    287    286  3    226
   287    142    288  3    227
   288    142    144  3    227
   288    148    286  3    228
   286    148    150  3    228
   285    290    283  3    230
   283    290    289  3    230
   290    744    743  3    232
   743    744    745  3    232
   743    745    291  3    232
   291    745    746  3    232
   744    747    745  3    232
   745    747    748  3    232
   745    748    746  3    232
   746    748    749  3    232
   747    293    748  3    232
   748    293    750  3    232
   748    750    749  3    232
   749    750    292  3    232
   293    751    294  3    234
   294    751    752  3    234
   751    296    752  3    234
   752    296    295  3    234
   296    299    753  3    236
   753    299    754  3    236
   753    754    297  3    236
   297    754    298  3    236
   299    755    300  3    237
   300    755    756  3    237
   755    757    756  3    237
   756    757    758  3    237
   757    151    758  3    237
   758    151    153  3    237
   300    302    759  3    239
   759    302    760  3    239
   759    760    298  3    239
   298    760    301  3    239
   302    154    761  3    240
   761    154    763  3    240
   761    763    762  3    240
   762    763    764  3    240
   762    764    303  3    240
   303    764    156  3    240
   303    305    301  3    242
   301    305    304  3    242
   305    308    765  3    244
   765    308    766  3    244
   765    766    306  3    244
   306    766    307  3    244
   308    311    309  3    246
   309    311    310  3    246
   311    767    312  3    248
   312    767    768  3    248
   767    314    768  3    248
   768    314    313  3    248
   314    769    315  3    250
   315    769    770  3    250
   769    771    770  3    250
   770    771    772  3    250
   771    773    772  3    250
   772    773    774  3    250
   773    317    774  3    250
   774    317    316  3    250
   317    157    318  3    251
   318    157    159  3    251
   318    775    316  3    252
   316    775    776  3    252
   775    777    776  3    252
   776    777    778  3    252
   777    779    778  3    252
   778    779    780  3    252
   779    781    780  3    252
   780    781    782  3    252
   781    783    782  3    252
   782    783    784  3    252
   783    163    784  3    252
   784    163    165  3    252
   315    320    313  3    254
   313    320    319  3    254
   320    323    785  3    256
   785    323    786  3    256
   785    786    321  3    256
   321    786    322  3    256
   323    788    787  3    258
   787    788    789  3    258
   787    789    324  3    258
   324    789    790  3    258
   788    791    789  3    258
   789    791    792  3    258
   789    792    790  3    258
   790    792    793  3    258
   791    794    792  3    258
   792    794    795  3    258
   792    795    793  3    258
   793    795    796  3    258
   794    797    795  3    258
   795    797    798  3    258
   795    798    796  3    258
   796    798    799  3    258
   797    800    798  3    258
   798    800    801  3    258
   798    801    799  3    258
   799    801    802  3    258
   800    326    801  3    258
   801    326    803  3    258
   801    803    802  3    258
   802    803    325  3    258
   326    169    804  3    259
   804    169    805  3    259
   804    805    327  3    259
   327    805    171  3    259
   327    807    806  3    260
   806    807    808  3    260
   806    808    325  3    260
   325    808    809  3    260
   807    810    808  3    260
   808    810    811  3    260
   808    811    809  3    260
   809    811    812  3    260
   810    322    811  3    260
   811    322    813  3    260
   811    813    812  3    260
   812    813    324  3    260
   321    329    319  3    262
   319    329    328  3    262
   329    181    330  3    263
   330    181    183  3    263
   330    814    328  3    264
   328    814    815  3    264
   814    310    815  3    264
   815    310    312  3    264
   309    816    307  3    265
   307    816    817  3    265
   816    818    817  3    265
   817    818    819  3    265
   818    187    819  3    265
   819    187    189  3    265
   306    820    304  3    267
   304    820    821  3    267
   820    332    821  3    267
   821    332    331  3    267
   332    190    333  3    268
   333    190    192  3    268
   333    335    331  3    270
   331    335    334  3    270
   335    338    822  3    272
   822    338    823  3    272
   822    823    336  3    272
   336    823    337  3    272
   338    341    824  3    274
   824    341    825  3    274
   824    825    339  3    274
   339    825    340  3    274
   341    193    826  3    275
   826    193    828  3    275
   826    828    827  3    275
   827    828    829  3    275
   827    829    342  3    275
   342    829    195  3    275
   342    344    830  3    277
   830    344    833  3    277
   830    833    831  3    277
   831    833    834  3    277
   831    834    832  3    277
   832    834    835  3    277
   832    835    340  3    277
   340    835    343  3    277
   344    836    345  3    279
   345    836    837  3    279
   836    347    837  3    279
   837    347    346  3    279
   347    350    838  3    281
   838    350    839  3    281
   838    839    348  3    281
   348    839    349  3    281
   350    840    351  3    283
   351    840    841  3    283
   840    353    841  3    283
   841    353    352  3    283
   353    205    842  3    284
   842    205    843  3    284
   842    843    354  3    284
   354    843    207  3    284
   354    844    352  3    286
   352    844    845  3    286
   844    356    845  3    286
   845    356    355  3    286
   356    359    846  3    288
   846    359    847  3    288
   846    847    357  3    288
   357    847    358  3    288
   359    849    848  3    290
   848    849    850  3    290
   848    850    360  3    290
   360    850    851  3    290
   849    362    850  3    290
   850    362    852  3    290
   850    852    851  3    290
   851    852    361  3    290
   362    365    853  3    292
   853    365    854  3    292
   853    854    363  3    292
   363    854    364  3    292
   365    208    855  3    293
   855    208    856  3    293
   855    856    366  3    293
   366    856    210  3    293
   366    211    364  3    294
   364    211    213  3    294
   363    858    857  3    295
   857    858    859  3    295
   857    859    361  3    295
   361    859    860  3    295
   858    223    859  3    295
   859    223    861  3    295
   859    861    860  3    295
   860    861    225  3    295
   360    247    862  3    296
   862    247    865  3    296
   862    865    863  3    296
   863    865    866  3    296
   863    866    864  3    296
   864    866    867  3    296
   864    867    358  3    296
   358    867    249  3    296
   357    868    355  3    297
   355    868    869  3    297
   868    349    869  3    297
   869    349    351  3    297
   348    870    346  3    299
   346    870    871  3    299
   870    368    871  3    299
   871    368    367  3    299
   368    371    872  3    301
   872    371    875  3    301
   872    875    873  3    301
   873    875    876  3    301
   873    876    874  3    301
   874    876    877  3    301
   874    877    369  3    301
   369    877    370  3    301
   371    374    878  3    303
   878    374    879  3    303
   878    879    372  3    303
   372    879    373  3    303
   374    881    880  3    304
   880    881    882  3    304
   880    882    375  3    304
   375    882    883  3    304
   881    262    882  3    304
   882    262    884  3    304
   882    884    883  3    304
   883    884    264  3    304
   375    377    373  3    306
   373    377    376  3    306
   377    265    885  3    307
   885    265    886  3    307
   885    886    378  3    307
   378    886    267  3    307
   378    380    887  3    309
   887    380    888  3    309
   887    888    376  3    309
   376    888    379  3    309
   380    383    381  3    311
   381    383    382  3    311
   383    889    384  3    313
   384    889    890  3    313
   889    891    890  3    313
   890    891    892  3    313
   891    893    892  3    313
   892    893    894  3    313
   893    386    894  3    313
   894    386    385  3    313
   386    896    895  3    315
   895    896    897  3    315
   895    897    387  3    315
   387    897    898  3    315
   896    389    897  3    315
   897    389    899  3    315
   897    899    898  3    315
   898    899    388  3    315
   389    392    900  3    317
   900    392    901  3    317
   900    901    390  3    317
   390    901    391  3    317
   392    268    902  3    318
   902    268    903  3    318
   902    903    393  3    318
   393    903    270  3    318
   393    271    391  3    319
   391    271    273  3    319
   390    905    904  3    320
   904    905    906  3    320
   904    906    388  3    320
   388    906    907  3    320
   905    277    906  3    320
   906    277    908  3    320
   906    908    907  3    320
   907    908    279  3    320
   387    289    909  3    321
   909    289    910  3    321
   909    910    385  3    321
   385    910    291  3    321
   384    911    382  3    322
   382    911    912  3    322
   911    913    912  3    322
   912    913    914  3    322
   913    292    914  3    322
   914    292    294  3    322
   381    370    379  3    323
   379    370    372  3    323
   369    395    915  3    325
   915    395    917  3    325
   915    917    916  3    325
   916    917    918  3    325
   916    918    367  3    325
   367    918    394  3    325
   395    919    396  3    326
   396    919    920  3    326
   919    337    920  3    326
   920    337    339  3    326
   396    343    921  3    327
   921    343    923  3    327
   921    923    922  3    327
   922    923    924  3    327
   922    924    394  3    327
   394    924    345  3    327
   336    295    925  3    328
   925    295    927  3    328
   925    927    926  3    328
   926    927    928  3    328
   926    928    334  3    328
   334    928    297  3    328
   246    929    244  3    329
   244    929    930  3    329
   929    931    930  3    329
   930    931    932  3    329
   931    933    932  3    329
   932    933    934  3    329
   933    935    934  3    329
   934    935    936  3    329
   935    226    936  3    329
   936    226    228  3    329
   204    939    937  3    330
   937    939    940  3    330
   937    940    938  3    330
   938    940    941  3    330
   938    941    202  3    330
   202    941    942  3    330
   939    199    940  3    330
   940    199    943  3    330
   940    943    941  3    330
   941    943    944  3    330
   941    944    942  3    330
   942    944    201  3    330
     3      1    426  2      1
   426      1      2  2      1
     6      4    401  2      2
   401      4      5  2      2
   453      7    402  2      4
   453    402      8  2      4
   453      8      9  2      4
   471     10     11  2      6
   471     11     12  2      6
    15     13     14  2      8
    18     16     17  2     10
    21     19     20  2     13
   512     22     23  2     15
   512     23    419  2     15
   512    419    513  2     15
   513    419    420  2     15
   513    420     24  2     15
   528     25    422  2     17
   528    422    421  2     17
   528    421     27  2     17
    27    421     26  2     17
    30     28     29  2     19
    33     31    425  2     21
   425     31     32  2     21
    36     34     35  2     24
    39     37     38  2     26
   563     40     41  2     29
   563     41    441  2     29
   563    441    564  2     29
   564    441    442  2     29
   564    442     42  2     29
    45     43    446  2     31
   446     43    444  2     31
   446    444    445  2     31
   445    444    443  2     31
   445    443     44  2     31
   455     46    448  2     33
   455    448    945  2     33
   455    945    454  2     33
   454    945    946  2     33
   454    946     48  2     33
    48    946    449  2     33
   449    946     47  2     33
    47    946    447  2     33
   447    946    945  2     33
   447    945    448  2     33
   568     49    457  2     36
   568    457    947  2     36
   568    947     51  2     36
    51    947    459  2     36
   459    947    458  2     36
   458    947    456  2     36
   458    456     50  2     36
   456    947    457  2     36
    54     52    463  2     38
   463     52    461  2     38
   463    461    462  2     38
   462    461    460  2     38
   462    460     53  2     38
   474     55    469  2     40
   474    469    948  2     40
   474    948    473  2     40
   473    948    472  2     40
   472    948    949  2     40
   472    949    470  2     40
   472    470     57  2     40
   470    949     56  2     40
    56    949    468  2     40
   468    949    948  2     40
   468    948    469  2     40
    60     58    477  2     43
    60    477    479  2     43
   479    477    476  2     43
   479    476    478  2     43
   478    476    475  2     43
   478    475     59  2     43
    63     61    481  2     45
    63    481    482  2     45
   482    481    480  2     45
   482    480     62  2     45
   603     64    483  2     47
   603    483    604  2     47
   604    483    484  2     47
   604    484     66  2     47
   484    483     65  2     47
    69     67    485  2     49
    69    485    486  2     49
   486    485     68  2     49
    72     70    487  2     51
    72    487     71  2     51
   611     73    494  2     55
   611    494    495  2     55
   611    495    612  2     55
   612    495     75  2     55
   494     73     74  2     55
   622     76    497  2     57
   622    497    950  2     57
   622    950     78  2     57
    78    950    498  2     57
   498    950    496  2     57
   498    496     77  2     57
   496    950    497  2     57
   639     79    499  2     59
   639    499    951  2     59
   639    951    640  2     59
   640    951    501  2     59
   640    501     81  2     59
   501    951    500  2     59
   500    951    499  2     59
   500    499     80  2     59
   668     82    503  2     61
   668    503    502  2     61
   668    502     84  2     61
    84    502     83  2     61
   514     85    510  2     63
   514    510    511  2     63
   514    511     87  2     63
   510     85     86  2     63
   673     88    515  2     66
   673    515     90  2     66
    90    515     89  2     66
   675     91    520  2     68
   675    520     93  2     68
   520     91     92  2     68
    96     94    522  2     70
   522     94    521  2     70
   522    521     95  2     70
   529     97    526  2     72
   529    526    527  2     72
   529    527     99  2     72
   527    526     98  2     72
   102    100    531  2     75
   531    100    530  2     75
   531    530    101  2     75
   105    103    532  2     77
   105    532    104  2     77
   108    106    107  2     80
   111    109    535  2     83
   535    109    110  2     83
   114    112    536  2     85
   114    536    113  2     85
   117    115    537  2     87
   537    115    116  2     87
   707    118    538  2     89
   707    538    119  2     89
   707    119    120  2     89
   709    121    122  2     91
   709    122    543  2     91
   709    543    123  2     91
   711    124    546  2     93
   711    546    126  2     93
   546    124    545  2     93
   545    124    544  2     93
   545    544    125  2     93
   129    127    550  2     95
   550    127    548  2     95
   550    548    549  2     95
   549    548    547  2     95
   549    547    128  2     95
   132    130    552  2     97
   132    552    554  2     97
   554    552    551  2     97
   554    551    553  2     97
   553    551    131  2     97
   135    133    952  2     99
   135    952    562  2     99
   562    952    561  2     99
   561    952    559  2     99
   561    559    134  2     99
   559    952    560  2     99
   560    952    133  2     99
   728    136    137  2    102
   728    137    138  2    102
   565    139    140  2    104
   565    140    141  2    104
   144    142    566  2    107
   144    566    143  2    107
   569    145    567  2    109
   569    567    147  2    109
   567    145    146  2    109
   150    148    571  2    112
   571    148    570  2    112
   571    570    149  2    112
   153    151    578  2    114
   153    578    579  2    114
   579    578    152  2    114
   763    154    580  2    116
   763    580    764  2    116
   764    580    155  2    116
   764    155    156  2    116
   159    157    581  2    118
   581    157    158  2    118
   162    160    588  2    120
   162    588    161  2    120
   165    163    164  2    123
   168    166    167  2    125
   805    169    170  2    128
   805    170    171  2    128
   174    172    173  2    130
   613    175    176  2    133
   613    176    177  2    133
   606    178    179  2    135
   606    179    601  2    135
   606    601    605  2    135
   605    601    602  2    135
   605    602    180  2    135
   183    181    614  2    139
   183    614    182  2    139
   623    184    621  2    141
   623    621    186  2    141
   621    184    185  2    141
   189    187    624  2    144
   189    624    188  2    144
   192    190    191  2    146
   828    193    627  2    148
   828    627    628  2    148
   828    628    829  2    148
   829    628    629  2    148
   829    629    195  2    148
   627    193    194  2    148
   954    953    955  2    150
   642    196    632  2    150
   642    632    953  2    150
   642    953    641  2    150
   641    953    954  2    150
   641    954    198  2    150
   198    954    634  2    150
   634    954    955  2    150
   634    955    633  2    150
   633    955    630  2    150
   633    630    197  2    150
   630    955    631  2    150
   631    955    953  2    150
   631    953    632  2    150
   943    199    644  2    153
   943    644    944  2    153
   944    644    643  2    153
   944    643    201  2    153
   201    643    645  2    153
   645    643    200  2    153
   938    202    653  2    155
   938    653    654  2    155
   938    654    937  2    155
   937    654    204  2    155
   653    202    652  2    155
   653    652    203  2    155
   843    205    656  2    157
   843    656    956  2    157
   843    956    207  2    157
   207    956    657  2    157
   657    956    655  2    157
   657    655    206  2    157
   655    956    656  2    157
   856    208    658  2    159
   856    658    210  2    159
   210    658    209  2    159
   213    211    212  2    161
   216    214    215  2    163
   674    217    218  2    165
   674    218    219  2    165
   669    220    667  2    167
   669    667    222  2    167
   667    220    221  2    167
   861    223    224  2    172
   861    224    678  2    172
   861    678    225  2    172
   228    226    680  2    174
   680    226    679  2    174
   680    679    227  2    174
   231    229    681  2    176
   231    681    230  2    176
   234    232    233  2    178
   690    235    236  2    182
   690    236    237  2    182
   240    238    691  2    185
   240    691    239  2    185
   243    241    242  2    188
   246    244    245  2    191
   865    247    248  2    193
   865    248    698  2    193
   865    698    866  2    193
   866    698    699  2    193
   866    699    867  2    193
   867    699    249  2    193
   712    250    701  2    195
   712    701    957  2    195
   712    957    252  2    195
   252    957    702  2    195
   702    957    700  2    195
   702    700    251  2    195
   700    957    701  2    195
   255    253    703  2    197
   255    703    704  2    197
   704    703    254  2    197
   710    256    705  2    199
   710    705    258  2    199
   258    705    257  2    199
   708    259    260  2    201
   708    260    706  2    201
   708    706    261  2    201
   884    262    716  2    207
   884    716    263  2    207
   884    263    264  2    207
   886    265    266  2    209
   886    266    719  2    209
   886    719    267  2    209
   903    268    720  2    211
   903    720    270  2    211
   270    720    269  2    211
   273    271    272  2    213
   276    274    275  2    215
   908    277    278  2    218
   908    278    725  2    218
   908    725    279  2    218
   282    280    727  2    220
   727    280    726  2    220
   727    726    281  2    220
   285    283    284  2    223
   288    286    287  2    225
   910    289    290  2    229
   910    290    743  2    229
   910    743    291  2    229
   294    292    750  2    231
   294    750    293  2    231
   927    295    296  2    233
   927    296    753  2    233
   927    753    928  2    233
   928    753    297  2    233
   759    298    754  2    235
   759    754    299  2    235
   759    299    300  2    235
   303    301    762  2    238
   762    301    760  2    238
   762    760    761  2    238
   761    760    302  2    238
   306    304    765  2    241
   765    304    305  2    241
   309    307    766  2    243
   309    766    308  2    243
   312    310    311  2    245
   315    313    314  2    247
   318    316    317  2    249
   321    319    785  2    253
   785    319    320  2    253
   813    322    786  2    255
   813    786    787  2    255
   813    787    324  2    255
   787    786    323  2    255
   806    325    803  2    257
   806    803    804  2    257
   806    804    327  2    257
   804    803    326  2    257
   330    328    329  2    261
   333    331    332  2    266
   926    334    335  2    269
   926    335    822  2    269
   926    822    925  2    269
   925    822    336  2    269
   339    337    823  2    271
   339    823    824  2    271
   824    823    338  2    271
   832    340    959  2    273
   832    959    958  2    273
   832    958    831  2    273
   831    958    830  2    273
   830    958    827  2    273
   830    827    342  2    273
   827    958    826  2    273
   826    958    959  2    273
   826    959    341  2    273
   341    959    825  2    273
   825    959    340  2    273
   923    343    835  2    276
   923    835    834  2    276
   923    834    924  2    276
   924    834    833  2    276
   924    833    345  2    276
   345    833    344  2    276
   348    346    838  2    278
   838    346    347  2    278
   351    349    839  2    280
   351    839    350  2    280
   354    352    842  2    282
   842    352    353  2    282
   357    355    846  2    285
   846    355    356  2    285
   864    358    847  2    287
   864    847    863  2    287
   863    847    359  2    287
   863    359    848  2    287
   863    848    862  2    287
   862    848    360  2    287
   857    361    960  2    289
   857    960    853  2    289
   857    853    363  2    289
   853    960    362  2    289
   362    960    852  2    289
   852    960    361  2    289
   366    364    854  2    291
   366    854    855  2    291
   855    854    365  2    291
   916    367    872  2    298
   916    872    873  2    298
   916    873    915  2    298
   915    873    874  2    298
   915    874    369  2    298
   872    367    368  2    298
   372    370    877  2    300
   372    877    876  2    300
   372    876    878  2    300
   878    876    875  2    300
   878    875    371  2    300
   375    373    880  2    302
   880    373    879  2    302
   880    879    374  2    302
   887    376    885  2    305
   887    885    378  2    305
   885    376    377  2    305
   381    379    888  2    308
   381    888    380  2    308
   384    382    383  2    310
   909    385    386  2    312
   909    386    895  2    312
   909    895    387  2    312
   904    388    899  2    314
   904    899    900  2    314
   904    900    390  2    314
   900    899    389  2    314
   393    391    901  2    316
   393    901    902  2    316
   902    901    392  2    316
   922    394    918  2    324
   922    918    921  2    324
   921    918    917  2    324
   921    917    396  2    324
   396    917    395  2    324
   962    961    964  1    331
   963    962    964  1    331
   963    964     17  1    331
   963     17    409  1    331
   963    409    407  1    331
   963    407    405  1    331
   963    405    962  1    331
   962    405    403  1    331
   962    403    961  1    331
   961    403      5  1    331
   961      5    399  1    331
   961    399    397  1    331
   961    397    964  1    331
   964    397      1  1    331
   964      1     17  1    331
     5    403      8  1    331
   407    409     14  1    331
   407     14     11  1    331
    33      2    427  1    332
   429     38    400  1    332
   429    400      4  1    332
   400     38    398  1    332
   398     38     35  1    332
   398     35    427  1    332
   398    427      2  1    332
   965    966    967  1    333
   967    966    968  1    333
   967    968    969  1    333
   969    968    970  1    333
   969    970      7  1    333
   969      7    450  1    333
   969    450    967  1    333
   967    450     47  1    333
   967     47     44  1    333
   967     44    965  1    333
   965     44     41  1    333
   965     41    439  1    333
   965    439    437  1    333
   965    437    966  1    333
   966    437    435  1    333
   966    435    968  1    333
   968    435    433  1    333
   968    433    970  1    333
   970    433    431  1    333
   970    431    430  1    333
   970    430      6  1    333
   970      6      7  1    333
   430    431     39  1    333
   971    972    973  1    334
   972    976    977  1    334
   973    972    977  1    334
   974    973    977  1    334
   974    977    978  1    334
   975    974    978  1    334
   977    976    979  1    334
   978    977    979  1    334
   978    979    408  1    334
   978    408     10  1    334
   978     10    975  1    334
   975     10     56  1    334
   975     56    464  1    334
   975    464    974  1    334
   974    464    973  1    334
   973    464     53  1    334
   973     53    971  1    334
   971     53     50  1    334
   971     50     48  1    334
   971     48    452  1    334
   971    452    972  1    334
   972    452    976  1    334
   976    452      9  1    334
   976      9    404  1    334
   976    404    979  1    334
   979    404    406  1    334
   979    406    408  1    334
    71     68     13  1    335
    13     68    980  1    335
    13    980     12  1    335
    12    980     62  1    335
    12     62     59  1    335
    12     59     57  1    335
    62    980     65  1    335
    65    980     68  1    335
   412     19    410  1    336
   412    410     16  1    336
   410     19     15  1    336
    15     19     72  1    336
     3     32     18  1    337
    32     29    981  1    337
    32    981    983  1    337
    32    983     18  1    337
    18    983    982  1    337
    18    982    411  1    337
   411    982    413  1    337
   411    413     20  1    337
   413    982    415  1    337
   415    982    983  1    337
   415    983    981  1    337
   415    981    417  1    337
   417    981    423  1    337
   417    423     26  1    337
   417     26     23  1    337
   423    981     29  1    337
    22     86    418  1    338
   418     86    508  1    338
   418    508    984  1    338
   418    984    985  1    338
   418    985    416  1    338
   416    985    986  1    338
   416    986    414  1    338
   414    986     21  1    338
    21    986    488  1    338
    21    488     69  1    338
    21     69     70  1    338
   488    986    985  1    338
   488    985    984  1    338
   488    984    490  1    338
   490    984    506  1    338
   490    506    492  1    338
   492    506    504  1    338
   492    504     74  1    338
    74    504     77  1    338
    77    504     83  1    338
    77     83     80  1    338
   506    984    508  1    338
   989    988    990  1    339
   989    990    523  1    339
   989    523     95  1    339
   989     95    987  1    339
   989    987    518  1    339
   989    518    516  1    339
   989    516    988  1    339
   988    516     89  1    339
   988     89     87  1    339
   988     87    990  1    339
   990     87     24  1    339
   990     24     25  1    339
   990     25     98  1    339
   990     98    523  1    339
   518    987     92  1    339
    92    987     95  1    339
    28    104    424  1    340
   424    104    101  1    340
   424    101     99  1    340
   424     99     27  1    340
   428     34    991  1    341
   428    991     30  1    341
   428     30     31  1    341
    30    991    105  1    341
   105    991    533  1    341
   533    991    107  1    341
   107    991     34  1    341
   992    995    996  1    342
   994    993    997  1    342
   994    997    998  1    342
   995    994    998  1    342
   995    998    999  1    342
   996    995    999  1    342
   998    997   1001  1    342
   998   1001   1002  1    342
   999    998   1002  1    342
  1001   1000   1003  1    342
  1002   1001   1003  1    342
  1002   1003     37  1    342
  1002     37    432  1    342
  1002    432    999  1    342
   999    432    434  1    342
   999    434    996  1    342
   996    434    436  1    342
   996    436    992  1    342
   992    436    438  1    342
   992    438    541  1    342
   992    541    539  1    342
   992    539    995  1    342
   995    539    994  1    342
   994    539    993  1    342
   993    539    116  1    342
   993    116    113  1    342
   993    113    110  1    342
   993    110    997  1    342
   997    110   1001  1    342
  1001    110   1000  1    342
  1000    110    108  1    342
  1000    108     36  1    342
  1000     36   1003  1    342
  1003     36     37  1    342
   116    539    119  1    342
   541    438    440  1    342
   541    440    555  1    342
   541    555    131  1    342
   541    131    122  1    342
   122    131    128  1    342
   122    128    125  1    342
   555    440    134  1    342
   134    440     40  1    342
    43    140    137  1    343
    43    137     42  1    343
    42    137    135  1    343
    46     49   1004  1    344
    46   1004     45  1    344
    45   1004    141  1    344
   141   1004    143  1    344
   143   1004     49  1    344
   143     49    146  1    344
    52    161   1005  1    345
    52   1005     51  1    345
    51   1005    147  1    345
   147   1005    585  1    345
   147    585    149  1    345
   149    585    572  1    345
   572    585    582  1    345
   572    582    575  1    345
   575    582    158  1    345
   575    158    152  1    345
   152    158    155  1    345
   585   1005    161  1    345
    55     58    595  1    346
    55    595    593  1    346
    55    593    467  1    346
   467    593    591  1    346
   467    591    589  1    346
   467    589     54  1    346
    54    589    164  1    346
    54    164    162  1    346
   593    595    167  1    346
   597    173    168  1    347
   597    168    596  1    347
   597    596     61  1    347
    61    596     60  1    347
   168    173    170  1    347
    64    179   1006  1    348
    64   1006    598  1    348
    64    598     63  1    348
   598   1006    174  1    348
   174   1006    599  1    348
   174    599    176  1    348
   599   1006    179  1    348
   493     73   1007  1    349
   493   1007    491  1    349
   491   1007   1009  1    349
   491   1009    489  1    349
   489   1009   1008  1    349
   489   1008     67  1    349
    67   1008     66  1    349
    66   1008    180  1    349
   180   1008    607  1    349
   607   1008   1009  1    349
   607   1009   1007  1    349
   607   1007     73  1    349
  1011   1010   1014  1    350
  1012   1015   1016  1    350
  1010   1012   1016  1    350
  1010   1016   1013  1    350
  1010   1013   1014  1    350
  1015   1018   1019  1    350
  1016   1015   1019  1    350
  1013   1016   1019  1    350
  1013   1019   1017  1    350
  1019   1018   1020  1    350
  1019   1020   1017  1    350
  1017   1020    610  1    350
  1017    610     75  1    350
  1017     75   1014  1    350
  1017   1014   1013  1    350
  1014     75     76  1    350
  1014     76    185  1    350
  1014    185   1011  1    350
  1011    185    619  1    350
  1011    619   1010  1    350
  1010    619    617  1    350
  1010    617   1012  1    350
  1012    617    615  1    350
  1012    615   1015  1    350
  1015    615    182  1    350
  1015    182   1018  1    350
  1018    182    177  1    350
  1018    177   1020  1    350
  1020    177    600  1    350
  1020    600    178  1    350
  1020    178    610  1    350
   635    197    188  1    351
   635    188    186  1    351
   635    186     79  1    351
    79    186     78  1    351
   188    197    625  1    351
   625    197    194  1    351
   625    194    191  1    351
  1022   1021   1024  1    352
  1022   1024    665  1    352
  1022    665    663  1    352
  1022    663    646  1    352
  1022    646    200  1    352
  1022    200   1021  1    352
  1021    200    198  1    352
  1021    198    638  1    352
  1021    638     81  1    352
  1021     81   1024  1    352
  1024     81     82  1    352
  1024     82    221  1    352
  1024    221    665  1    352
   646    663    649  1    352
   649    663    661  1    352
   649    661   1023  1    352
   649   1023    212  1    352
   649    212    203  1    352
   203    212    209  1    352
   203    209    206  1    352
   212   1023    659  1    352
   212    659    215  1    352
   215    659    218  1    352
   659   1023    661  1    352
    85     88    509  1    353
   509     88    507  1    353
   507     88   1025  1    353
   507   1025    505  1    353
   505   1025    222  1    353
   505    222     84  1    353
   222   1025    670  1    353
   670   1025     88  1    353
  1027   1026   1030  1    354
  1027   1030   1031  1    354
  1026   1028   1032  1    354
  1026   1032   1029  1    354
  1026   1029   1030  1    354
  1030   1029    517  1    354
  1030    517    519  1    354
  1030    519   1031  1    354
  1031    519     91  1    354
  1031     91    219  1    354
  1031    219    660  1    354
  1031    660   1027  1    354
  1027    660    662  1    354
  1027    662    664  1    354
  1027    664   1026  1    354
  1026    664   1028  1    354
  1028    664    666  1    354
  1028    666    220  1    354
  1028    220    672  1    354
  1028    672   1032  1    354
  1032    672     90  1    354
  1032     90    517  1    354
  1032    517   1029  1    354
    94    233   1033  1    355
    94   1033     93  1    355
    93   1033    676  1    355
    93    676    217  1    355
   217    676    216  1    355
   676   1033    224  1    355
   224   1033    227  1    355
   227   1033    230  1    355
   230   1033    233  1    355
    97    100    525  1    356
   525    100    682  1    356
   525    682     96  1    356
    96    682    234  1    356
   534    106   1035  1    357
   534   1035   1034  1    357
   534   1034    103  1    357
   103   1034    102  1    357
   102   1034    683  1    357
   683   1034    688  1    357
   683    688    686  1    357
   683    686    232  1    357
   232    686    684  1    357
   232    684    231  1    357
   684    686    236  1    357
   688   1034   1035  1    357
   688   1035    109  1    357
   109   1035    106  1    357
  1037   1036   1038  1    358
  1037   1038    112  1    358
  1037    112    239  1    358
  1037    239   1036  1    358
  1036    239    237  1    358
  1036    237    687  1    358
  1036    687   1038  1    358
  1038    687    689  1    358
  1038    689    111  1    358
  1038    111    112  1    358
   115    242    114  1    359
   114    242    240  1    359
   118    260   1040  1    360
   118   1040    692  1    360
   118    692    117  1    360
   117    692    243  1    360
   692   1040    694  1    360
   694   1040   1039  1    360
   694   1039    257  1    360
   694    257    254  1    360
   694    254    696  1    360
   696    254    245  1    360
   245    254    251  1    360
   245    251    248  1    360
   257   1039    260  1    360
   260   1039   1040  1    360
   121    261   1041  1    361
   121   1041    542  1    361
   542   1041    540  1    361
   540   1041    120  1    361
   120   1041    261  1    361
   124    258    123  1    362
   123    258    259  1    362
   127    255    256  1    363
   127    256    126  1    363
   721    275   1045  1    364
   721   1045    129  1    364
   721    129    130  1    364
   129   1045    253  1    364
   253   1045   1044  1    364
   253   1044   1043  1    364
   253   1043    252  1    364
   252   1043    713  1    364
   713   1043    263  1    364
   263   1043    717  1    364
   717   1043   1044  1    364
   717   1044   1042  1    364
   717   1042    269  1    364
   717    269    266  1    364
   269   1042    272  1    364
   272   1042    275  1    364
   275   1042   1044  1    364
   275   1044   1045  1    364
   133    136   1047  1    365
   133   1047    558  1    365
   558   1047   1046  1    365
   558   1046    132  1    365
   132   1046    722  1    365
   722   1046    723  1    365
   722    723    276  1    365
   723   1046   1047  1    365
   723   1047    278  1    365
   278   1047    281  1    365
   281   1047    136  1    365
  1049   1052   1053  1    366
  1050   1049   1053  1    366
  1050   1053    287  1    366
  1050    287    741  1    366
  1050    741    739  1    366
  1050    739   1048  1    366
  1050   1048   1049  1    366
  1049   1048    733  1    366
  1049    733    731  1    366
  1049    731   1052  1    366
  1052    731    729  1    366
  1052    729   1051  1    366
  1052   1051    139  1    366
  1052    139   1053  1    366
  1053    139    142  1    366
  1053    142    287  1    366
   139   1051    138  1    366
   138   1051    282  1    366
   282   1051    729  1    366
   733   1048    735  1    366
   735   1048    737  1    366
   735    737    284  1    366
   737   1048    739  1    366
   145    148    288  1    367
   145    288    144  1    367
   755    299    751  1    368
   755    751    293  1    368
   755    293    747  1    368
   755    747    757  1    368
   757    747    744  1    368
   757    744   1054  1    368
   757   1054    151  1    368
   151   1054    740  1    368
   151    740    577  1    368
   577    740    742  1    368
   577    742    574  1    368
   574    742    286  1    368
   574    286    150  1    368
   740   1054    738  1    368
   738   1054    285  1    368
   285   1054    744  1    368
   285    744    290  1    368
   751    299    296  1    368
   154    302    756  1    369
   154    756    758  1    369
   154    758    153  1    369
   756    302    300  1    369
  1055   1057   1056  1    370
  1056   1057    311  1    370
  1056    311    308  1    370
  1056    308    305  1    370
  1056    305   1055  1    370
  1055    305    303  1    370
  1055    303    156  1    370
  1055    156    773  1    370
  1055    773    771  1    370
  1055    771   1057  1    370
  1057    771    769  1    370
  1057    769    767  1    370
  1057    767    311  1    370
   767    769    314  1    370
   773    156    317  1    370
   317    156    157  1    370
   318    159    775  1    371
   160    163    587  1    371
  1058   1060   1061  1    371
  1059   1058   1061  1    371
  1061   1060   1062  1    371
  1061   1062    781  1    371
  1061    781    779  1    371
  1061    779   1059  1    371
  1059    779    777  1    371
  1059    777    775  1    371
  1059    775   1058  1    371
  1058    775    159  1    371
  1058    159    584  1    371
  1058    584   1060  1    371
  1060    584    587  1    371
  1060    587   1062  1    371
  1062    587    163  1    371
  1062    163    783  1    371
  1062    783    781  1    371
  1064   1063   1065  1    372
  1064   1065    788  1    372
  1064    788    770  1    372
  1064    770    772  1    372
  1064    772   1063  1    372
  1063    772    774  1    372
  1063    774    776  1    372
  1063    776   1065  1    372
  1065    776    778  1    372
  1065    778    791  1    372
  1065    791    788  1    372
   791    778    780  1    372
   791    780    794  1    372
   794    780   1066  1    372
   794   1066    797  1    372
   797   1066   1067  1    372
   797   1067    800  1    372
   800   1067   1068  1    372
   800   1068    594  1    372
   800    594    166  1    372
   800    166    326  1    372
   326    166    169  1    372
   594   1068    592  1    372
   592   1068    590  1    372
   590   1068    784  1    372
   590    784    165  1    372
   784   1068   1067  1    372
   784   1067    782  1    372
   782   1067   1066  1    372
   782   1066    780  1    372
   776    774    316  1    372
   770    788    315  1    372
   315    788    323  1    372
   315    323    320  1    372
   327    171    807  1    373
   321    322    329  1    373
   172    175   1070  1    373
   172   1070    171  1    373
   171   1070    807  1    373
   807   1070   1069  1    373
   807   1069    810  1    373
   810   1069    329  1    373
   810    329    322  1    373
   329   1069    181  1    373
   181   1069    175  1    373
   175   1069   1070  1    373
  1071   1072   1075  1    374
  1071   1075   1073  1    374
  1071   1073   1074  1    374
  1074   1073    620  1    374
  1074    620    187  1    374
  1074    187    818  1    374
  1074    818   1071  1    374
  1071    818    816  1    374
  1071    816   1072  1    374
  1072    816    309  1    374
  1072    309    310  1    374
  1072    310    814  1    374
  1072    814   1075  1    374
  1075    814    616  1    374
  1075    616    618  1    374
  1075    618   1073  1    374
  1073    618    620  1    374
   616    814    330  1    374
   616    330    183  1    374
   187    620    184  1    374
   190    332    817  1    375
   190    817    819  1    375
   190    819    626  1    375
   626    819    189  1    375
   817    332    820  1    375
   817    820    307  1    375
   307    820    306  1    375
   193    341    192  1    376
   192    341    338  1    376
   192    338    333  1    376
   333    338    335  1    376
  1076   1078   1077  1    377
  1078   1081   1082  1    377
  1077   1078   1082  1    377
  1077   1082   1079  1    377
  1077   1079   1080  1    377
  1080   1079   1084  1    377
  1080   1084   1085  1    377
  1082   1081   1086  1    377
  1082   1086   1087  1    377
  1079   1082   1087  1    377
  1079   1087   1083  1    377
  1079   1083   1084  1    377
  1084   1083    939  1    377
  1084    939    204  1    377
  1084    204   1085  1    377
  1085    204    353  1    377
  1085    353    840  1    377
  1085    840    350  1    377
  1085    350   1080  1    377
  1080    350   1077  1    377
  1077    350   1076  1    377
  1076    350    347  1    377
  1076    347    836  1    377
  1076    836   1078  1    377
  1078    836    344  1    377
  1078    344   1081  1    377
  1081    344    342  1    377
  1081    342    195  1    377
  1081    195   1086  1    377
  1086    195    196  1    377
  1086    196    199  1    377
  1086    199   1087  1    377
  1087    199   1083  1    377
  1083    199    939  1    377
   353    204    205  1    377
   942    201    648  1    378
   942    648    651  1    378
   942    651    202  1    378
   208    365    354  1    379
   208    354    207  1    379
   354    365    844  1    379
   844    365    362  1    379
   844    362    849  1    379
   844    849    356  1    379
   356    849    359  1    379
   211    366    210  1    380
   677    223   1089  1    381
   677   1089    214  1    381
   214   1089    213  1    381
   213   1089   1088  1    381
   213   1088    364  1    381
   364   1088    363  1    381
   363   1088    858  1    381
   858   1088   1089  1    381
   858   1089    223  1    381
  1090   1092   1093  1    382
  1091   1090   1093  1    382
  1091   1093    931  1    382
  1091    931    929  1    382
  1091    929    360  1    382
  1091    360   1090  1    382
  1090    360    851  1    382
  1090    851    361  1    382
  1090    361    860  1    382
  1090    860   1092  1    382
  1092    860    225  1    382
  1092    225    935  1    382
  1092    935   1093  1    382
  1093    935    933  1    382
  1093    933    931  1    382
   935    225    226  1    382
   360    929    247  1    382
   247    929    246  1    382
  1095   1098   1099  1    383
  1096   1095   1099  1    383
  1096   1099    693  1    383
  1096    693    695  1    383
  1096    695   1094  1    383
  1096   1094   1095  1    383
  1095   1094    932  1    383
  1095    932    934  1    383
  1095    934   1098  1    383
  1098    934   1097  1    383
  1098   1097    235  1    383
  1098    235   1099  1    383
  1099    235    238  1    383
  1099    238    241  1    383
  1099    241    693  1    383
   235   1097    685  1    383
   685   1097    229  1    383
   229   1097    228  1    383
   228   1097    936  1    383
   936   1097    934  1    383
   932   1094    930  1    383
   930   1094    697  1    383
   930    697    244  1    383
   697   1094    695  1    383
  1100   1101   1102  1    384
  1100   1102   1103  1    384
  1100   1103   1104  1    384
  1100   1104   1105  1    384
  1102   1101   1106  1    384
  1102   1106   1107  1    384
  1102   1107   1108  1    384
  1103   1102   1108  1    384
  1103   1108   1109  1    384
  1107   1106   1110  1    384
  1107   1110   1111  1    384
  1108   1107   1111  1    384
  1108   1111   1112  1    384
  1109   1108   1112  1    384
  1109   1112   1113  1    384
  1112   1111   1114  1    384
  1112   1114   1115  1    384
  1113   1112   1115  1    384
  1113   1115    262  1    384
  1113    262   1109  1    384
  1109    262    881  1    384
  1109    881   1104  1    384
  1109   1104   1103  1    384
  1104    881    374  1    384
  1104    374   1105  1    384
  1105    374    371  1    384
  1105    371    368  1    384
  1105    368    870  1    384
  1105    870   1100  1    384
  1100    870    348  1    384
  1100    348   1101  1    384
  1101    348    349  1    384
  1101    349   1106  1    384
  1106    349    868  1    384
  1106    868   1110  1    384
  1110    868    357  1    384
  1110    357   1111  1    384
  1111    357    358  1    384
  1111    358   1114  1    384
  1114    358    249  1    384
  1114    249   1115  1    384
  1115    249    250  1    384
  1115    250    715  1    384
  1115    715    262  1    384
   265    377    883  1    385
   265    883   1116  1    385
   265   1116    718  1    385
   718   1116    264  1    385
   264   1116    883  1    385
   883    377    375  1    385
  1119   1118   1120  1    386
  1119   1120    896  1    386
  1119    896    893  1    386
  1119    893    891  1    386
  1119    891   1118  1    386
  1118    891   1117  1    386
  1118   1117    267  1    386
  1118    267    268  1    386
  1118    268   1120  1    386
  1120    268    392  1    386
  1120    392    389  1    386
  1120    389    896  1    386
   267   1117    378  1    386
   378   1117    889  1    386
   378    889    380  1    386
   380    889    383  1    386
   889   1117    891  1    386
   893    896    386  1    386
   271    393    270  1    387
   724    277   1121  1    388
   724   1121    274  1    388
   274   1121    273  1    388
   273   1121    391  1    388
   391   1121    390  1    388
   390   1121    905  1    388
   905   1121    277  1    388
   736    283    289  1    389
   736    289    387  1    389
   736    387   1123  1    389
   736   1123    734  1    389
   734   1123    732  1    389
   732   1123   1124  1    389
   732   1124    730  1    389
   730   1124    907  1    389
   730    907    279  1    389
   730    279    280  1    389
   907   1124    388  1    389
   388   1124   1122  1    389
   388   1122    898  1    389
   898   1122    387  1    389
   387   1122   1123  1    389
  1123   1122   1124  1    389
  1125   1126   1127  1    390
  1125   1128   1129  1    390
  1125   1129   1130  1    390
  1125   1130   1126  1    390
  1129   1131   1132  1    390
  1130   1129   1132  1    390
  1130   1132   1133  1    390
  1130   1133    913  1    390
  1130    913   1126  1    390
  1126    913    911  1    390
  1126    911    384  1    390
  1126    384   1127  1    390
  1127    384    890  1    390
  1127    890    892  1    390
  1127    892   1125  1    390
  1125    892   1128  1    390
  1128    892    894  1    390
  1128    894   1131  1    390
  1128   1131   1129  1    390
  1131    894    385  1    390
  1131    385    291  1    390
  1131    291    746  1    390
  1131    746   1132  1    390
  1132    746    749  1    390
  1132    749   1133  1    390
  1133    749    292  1    390
  1133    292    913  1    390
   295    336    337  1    391
   295    337    752  1    391
   752    337    919  1    391
   752    919    914  1    391
   752    914    294  1    391
   914    919    912  1    391
   912    919    395  1    391
   912    395    382  1    391
   382    395    369  1    391
   382    369    370  1    391
   382    370    381  1    391
   298    301    304  1    392
   298    304    821  1    392
   298    821    297  1    392
   297    821    331  1    392
   297    331    334  1    392
   313    319    328  1    393
   313    328    815  1    393
   313    815    768  1    393
   768    815    312  1    393
  1134   1135   1136  1    394
  1135   1137   1138  1    394
  1136   1135   1138  1    394
  1136   1138    809  1    394
  1136    809    812  1    394
  1136    812   1134  1    394
  1134    812    324  1    394
  1134    324    790  1    394
  1134    790    793  1    394
  1134    793   1135  1    394
  1135    793    796  1    394
  1135    796   1137  1    394
  1137    796    799  1    394
  1137    799    802  1    394
  1137    802   1138  1    394
  1138    802    325  1    394
  1138    325    809  1    394
   340    343    920  1    395
   340    920    339  1    395
   920    343    396  1    395
   871    367    394  1    396
   871    394    837  1    396
   871    837    346  1    396
   837    394    345  1    396
   845    355    869  1    397
   845    869    841  1    397
   845    841    352  1    397
   841    869    351  1    397
   373    376    379  1    398
   373    379    372  1    398
