# MSMS solvent excluded surface faces for fragments/fragment169.xyzr
#faces  #sphere density probe_r
   2416      62  3.00  1.50
     1    431      2  3      3
     2    431    432  3      3
   431      5    432  3      3
   432      5      4  3      3
     5    434    433  3      5
   433    434    435  3      5
   433    435      6  3      5
     6    435    436  3      5
   434    437    435  3      5
   435    437    438  3      5
   435    438    436  3      5
   436    438    439  3      5
   437      8    438  3      5
   438      8    440  3      5
   438    440    439  3      5
   439    440      7  3      5
     8     11    441  3      7
   441     11    442  3      7
   441    442      9  3      7
     9    442     10  3      7
    11     14    443  3      9
   443     14    444  3      9
   443    444     12  3      9
    12    444     13  3      9
    14    445     15  3     10
    15    445    446  3     10
   445    447    446  3     10
   446    447    448  3     10
   447    449    448  3     10
   448    449    450  3     10
   449    451    450  3     10
   450    451    452  3     10
   451      1    452  3     10
   452      1      3  3     10
    15     17    453  3     12
   453     17    454  3     12
   453    454     13  3     12
    13    454     16  3     12
    17     20    455  3     14
   455     20    456  3     14
   455    456     18  3     14
    18    456     19  3     14
    20     23    457  3     16
   457     23    458  3     16
   457    458     21  3     16
    21    458     22  3     16
    23     26    459  3     18
   459     26    461  3     18
   459    461    460  3     18
   460    461    462  3     18
   460    462     24  3     18
    24    462     25  3     18
    26     29    463  3     20
   463     29    464  3     20
   463    464     27  3     20
    27    464     28  3     20
    29    465     30  3     22
    30    465    466  3     22
   465    467    466  3     22
   466    467    468  3     22
   467    469    468  3     22
   468    469    470  3     22
   469     32    470  3     22
   470     32     31  3     22
    32      3    471  3     23
   471      3    472  3     23
   471    472     33  3     23
    33    472      2  3     23
    33    473     31  3     25
    31    473    474  3     25
   473    475    474  3     25
   474    475    476  3     25
   475     35    476  3     25
   476     35     34  3     25
    35     38    477  3     27
   477     38    478  3     27
   477    478     36  3     27
    36    478     37  3     27
    38    479     39  3     29
    39    479    480  3     29
   479    481    480  3     29
   480    481    482  3     29
   481     41    482  3     29
   482     41     40  3     29
    41    484    483  3     31
   483    484    485  3     31
   483    485     42  3     31
    42    485    486  3     31
   484     44    485  3     31
   485     44    487  3     31
   485    487    486  3     31
   486    487     43  3     31
    44     47     45  3     33
    45     47     46  3     33
    47    488     48  3     34
    48    488    489  3     34
   488    490    489  3     34
   489    490    491  3     34
   490    492    491  3     34
   491    492    493  3     34
   492      4    493  3     34
   493      4      6  3     34
    48     50     46  3     36
    46     50     49  3     36
    50     53    494  3     38
   494     53    495  3     38
   494    495     51  3     38
    51    495     52  3     38
    53    496     54  3     39
    54    496    497  3     39
   496    498    497  3     39
   497    498    499  3     39
   498    500    499  3     39
   499    500    501  3     39
   500      7    501  3     39
   501      7      9  3     39
    54     56    502  3     41
   502     56    503  3     41
   502    503     52  3     41
    52    503     55  3     41
    56     59    504  3     43
   504     59    505  3     43
   504    505     57  3     43
    57    505     58  3     43
    59     62    506  3     45
   506     62    507  3     45
   506    507     60  3     45
    60    507     61  3     45
    62     10    508  3     46
   508     10    509  3     46
   508    509     63  3     46
    63    509     12  3     46
    63     65     61  3     48
    61     65     64  3     48
    65     68    510  3     50
   510     68    512  3     50
   510    512    511  3     50
   511    512    513  3     50
   511    513     66  3     50
    66    513     67  3     50
    68     71     69  3     52
    69     71     70  3     52
    71     16     72  3     53
    72     16     18  3     53
    72     19     70  3     54
    70     19     21  3     54
    69     74    514  3     56
   514     74    515  3     56
   514    515     67  3     56
    67    515     73  3     56
    74     22     75  3     57
    75     22     24  3     57
    75     77    516  3     59
   516     77    518  3     59
   516    518    517  3     59
   517    518    519  3     59
   517    519     73  3     59
    73    519     76  3     59
    77     80    520  3     61
   520     80    521  3     61
   520    521     78  3     61
    78    521     79  3     61
    80     83    522  3     63
   522     83    523  3     63
   522    523     81  3     63
    81    523     82  3     63
    83     25     84  3     64
    84     25     27  3     64
    84    525    524  3     66
   524    525    526  3     66
   524    526     82  3     66
    82    526    527  3     66
   525    528    526  3     66
   526    528    529  3     66
   526    529    527  3     66
   527    529    530  3     66
   528     86    529  3     66
   529     86    531  3     66
   529    531    530  3     66
   530    531     85  3     66
    86     89    532  3     68
   532     89    534  3     68
   532    534    533  3     68
   533    534    535  3     68
   533    535     87  3     68
    87    535     88  3     68
    90    536     93  3     70
    93    536    537  3     70
   537    536     92  3     70
    89     94    538  3     71
   538     94    539  3     71
   538    539     91  3     71
    94     97    540  3     73
   540     97    543  3     73
   540    543    541  3     73
   541    543    544  3     73
   541    544    542  3     73
   542    544    545  3     73
   542    545     95  3     73
    95    545     96  3     73
    97    546     98  3     75
    98    546    547  3     75
   546    100    547  3     75
   547    100     99  3     75
   100    103    548  3     77
   548    103    549  3     77
   548    549    101  3     77
   101    549    102  3     77
   103    551    550  3     78
   550    551    552  3     78
   550    552    104  3     78
   104    552    553  3     78
   551     28    552  3     78
   552     28    554  3     78
   552    554    553  3     78
   553    554     30  3     78
   104    555    102  3     80
   102    555    556  3     80
   555    106    556  3     80
   556    106    105  3     80
   106     34    557  3     81
   557     34    559  3     81
   557    559    558  3     81
   558    559    560  3     81
   558    560    107  3     81
   107    560     36  3     81
   107    109    561  3     83
   561    109    563  3     83
   561    563    562  3     83
   562    563    564  3     83
   562    564    105  3     83
   105    564    108  3     83
   109    112    110  3     85
   110    112    111  3     85
   112    115    113  3     87
   113    115    114  3     87
   115    565    116  3     89
   116    565    566  3     89
   565    118    566  3     89
   566    118    117  3     89
   118    121    119  3     91
   119    121    120  3     91
   121    567    122  3     93
   122    567    568  3     93
   567    124    568  3     93
   568    124    123  3     93
   124     37    569  3     94
   569     37    570  3     94
   569    570    125  3     94
   125    570     39  3     94
   125     40    571  3     95
   571     40    572  3     95
   571    572    123  3     95
   123    572     42  3     95
   122    127    573  3     97
   573    127    574  3     97
   573    574    120  3     97
   120    574    126  3     97
   127    575    128  3     99
   128    575    576  3     99
   575    577    576  3     99
   576    577    578  3     99
   577    130    578  3     99
   578    130    129  3     99
   130    133    579  3    101
   579    133    580  3    101
   579    580    131  3    101
   131    580    132  3    101
   133     43    581  3    102
   581     43    582  3    102
   581    582    134  3    102
   134    582     45  3    102
   134     49    132  3    103
   132     49     51  3    103
   131    136    583  3    105
   583    136    584  3    105
   583    584    129  3    105
   129    584    135  3    105
   136    585    137  3    106
   137    585    586  3    106
   585     55    586  3    106
   586     55     57  3    106
   137    139    135  3    108
   135    139    138  3    108
   139    587    140  3    110
   140    587    588  3    110
   587    142    588  3    110
   588    142    141  3    110
   142    145    589  3    112
   589    145    592  3    112
   589    592    590  3    112
   590    592    593  3    112
   590    593    591  3    112
   591    593    594  3    112
   591    594    143  3    112
   143    594    144  3    112
   145    595    146  3    114
   146    595    596  3    114
   595    148    596  3    114
   596    148    147  3    114
   148     58    149  3    115
   149     58     60  3    115
   149    151    147  3    117
   147    151    150  3    117
   151    154    597  3    119
   597    154    598  3    119
   597    598    152  3    119
   152    598    153  3    119
   154     64    599  3    120
   599     64    601  3    120
   599    601    600  3    120
   600    601    602  3    120
   600    602    155  3    120
   155    602     66  3    120
   155    157    603  3    122
   603    157    604  3    122
   603    604    153  3    122
   153    604    156  3    122
   157    160    158  3    124
   158    160    159  3    124
   160    163    605  3    126
   605    163    608  3    126
   605    608    606  3    126
   606    608    609  3    126
   606    609    607  3    126
   607    609    610  3    126
   607    610    161  3    126
   161    610    162  3    126
   163    612    611  3    128
   611    612    613  3    128
   611    613    164  3    128
   164    613    614  3    128
   612    166    613  3    128
   613    166    615  3    128
   613    615    614  3    128
   614    615    165  3    128
   166    616    167  3    130
   167    616    617  3    130
   616    169    617  3    130
   617    169    168  3    130
   169    172    618  3    132
   618    172    619  3    132
   618    619    170  3    132
   170    619    171  3    132
   172     76    173  3    133
   173     76     78  3    133
   173     79    171  3    134
   171     79     81  3    134
   170    620    168  3    136
   168    620    621  3    136
   620    175    621  3    136
   621    175    174  3    136
   175    178    622  3    138
   622    178    624  3    138
   622    624    623  3    138
   623    624    625  3    138
   623    625    176  3    138
   176    625    177  3    138
   178    628    626  3    140
   626    628    629  3    140
   626    629    627  3    140
   627    629    630  3    140
   627    630    179  3    140
   179    630    631  3    140
   628    181    629  3    140
   629    181    632  3    140
   629    632    630  3    140
   630    632    633  3    140
   630    633    631  3    140
   631    633    180  3    140
   181    184    634  3    142
   634    184    636  3    142
   634    636    635  3    142
   635    636    637  3    142
   635    637    182  3    142
   182    637    183  3    142
   184     85    638  3    143
   638     85    639  3    143
   638    639    185  3    143
   185    639     87  3    143
   185    187    640  3    145
   640    187    641  3    145
   640    641    183  3    145
   183    641    186  3    145
   187     88    642  3    146
   642     88    643  3    146
   642    643    188  3    146
   188    643     90  3    146
   188    190    644  3    148
   644    190    646  3    148
   644    646    645  3    148
   645    646    647  3    148
   645    647    186  3    148
   186    647    189  3    148
   190    193    648  3    150
   648    193    649  3    150
   648    649    191  3    150
   191    649    192  3    150
   193    650    194  3    152
   194    650    651  3    152
   650    652    651  3    152
   651    652    653  3    152
   652    196    653  3    152
   653    196    195  3    152
   196    199    197  3    154
   197    199    198  3    154
   199     93    200  3    155
   200     93     95  3    155
   200    202    198  3    157
   198    202    201  3    157
   202     96    654  3    158
   654     96    657  3    158
   654    657    655  3    158
   655    657    658  3    158
   655    658    656  3    158
   656    658    659  3    158
   656    659    203  3    158
   203    659     98  3    158
   206    201    205  3    160
   203    207    204  3    161
   207    210    660  3    163
   660    210    662  3    163
   660    662    661  3    163
   661    662    663  3    163
   661    663    208  3    163
   208    663    209  3    163
   210     99    664  3    164
   664     99    665  3    164
   664    665    211  3    164
   211    665    101  3    164
   211    667    666  3    165
   666    667    668  3    165
   666    668    209  3    165
   209    668    669  3    165
   667    108    668  3    165
   668    108    670  3    165
   668    670    669  3    165
   669    670    110  3    165
   208    213    671  3    167
   671    213    674  3    167
   671    674    672  3    167
   672    674    675  3    167
   672    675    673  3    167
   673    675    676  3    167
   673    676    206  3    167
   206    676    212  3    167
   213    677    214  3    169
   214    677    678  3    169
   677    679    678  3    169
   678    679    680  3    169
   679    681    680  3    169
   680    681    682  3    169
   681    216    682  3    169
   682    216    215  3    169
   216    111    217  3    170
   217    111    113  3    170
   217    683    215  3    172
   215    683    684  3    172
   683    685    684  3    172
   684    685    686  3    172
   685    687    686  3    172
   686    687    688  3    172
   687    219    688  3    172
   688    219    218  3    172
   219    222    689  3    174
   689    222    692  3    174
   689    692    690  3    174
   690    692    693  3    174
   690    693    691  3    174
   691    693    694  3    174
   691    694    220  3    174
   220    694    221  3    174
   222    695    223  3    176
   223    695    696  3    176
   695    697    696  3    176
   696    697    698  3    176
   697    699    698  3    176
   698    699    700  3    176
   699    225    700  3    176
   700    225    224  3    176
   225    228    226  3    178
   226    228    227  3    178
   228    701    229  3    179
   229    701    702  3    179
   701    114    702  3    179
   702    114    116  3    179
   229    117    227  3    180
   227    117    119  3    180
   226    704    703  3    182
   703    704    705  3    182
   703    705    224  3    182
   224    705    706  3    182
   704    231    705  3    182
   705    231    707  3    182
   705    707    706  3    182
   706    707    230  3    182
   231    234    232  3    184
   232    234    233  3    184
   234    237    235  3    186
   235    237    236  3    186
   237    126    238  3    187
   238    126    128  3    187
   238    708    236  3    189
   236    708    709  3    189
   708    240    709  3    189
   709    240    239  3    189
   240    243    241  3    191
   241    243    242  3    191
   243    138    244  3    192
   244    138    140  3    192
   244    246    242  3    194
   242    246    245  3    194
   246    249    247  3    196
   247    249    248  3    196
   249    711    710  3    198
   710    711    712  3    198
   710    712    250  3    198
   250    712    713  3    198
   711    252    712  3    198
   712    252    714  3    198
   712    714    713  3    198
   713    714    251  3    198
   252    141    715  3    199
   715    141    718  3    199
   715    718    716  3    199
   716    718    719  3    199
   716    719    717  3    199
   717    719    720  3    199
   717    720    253  3    199
   253    720    143  3    199
   253    722    721  3    201
   721    722    723  3    201
   721    723    251  3    201
   251    723    724  3    201
   722    255    723  3    201
   723    255    725  3    201
   723    725    724  3    201
   724    725    254  3    201
   255    258    256  3    203
   256    258    257  3    203
   258    726    259  3    205
   259    726    727  3    205
   726    728    727  3    205
   727    728    729  3    205
   728    261    729  3    205
   729    261    260  3    205
   261    264    730  3    207
   730    264    731  3    207
   730    731    262  3    207
   262    731    263  3    207
   264    144    732  3    208
   732    144    735  3    208
   732    735    733  3    208
   733    735    736  3    208
   733    736    734  3    208
   734    736    737  3    208
   734    737    265  3    208
   265    737    146  3    208
   265    150    738  3    209
   738    150    739  3    209
   738    739    263  3    209
   263    739    152  3    209
   262    267    740  3    211
   740    267    742  3    211
   740    742    741  3    211
   741    742    743  3    211
   741    743    260  3    211
   260    743    266  3    211
   267    156    268  3    212
   268    156    158  3    212
   268    270    744  3    214
   744    270    746  3    214
   744    746    745  3    214
   745    746    747  3    214
   745    747    266  3    214
   266    747    269  3    214
   270    159    748  3    215
   748    159    750  3    215
   748    750    749  3    215
   749    750    751  3    215
   749    751    271  3    215
   271    751    161  3    215
   271    752    269  3    217
   269    752    753  3    217
   752    754    753  3    217
   753    754    755  3    217
   754    756    755  3    217
   755    756    757  3    217
   756    273    757  3    217
   757    273    272  3    217
   273    276    758  3    219
   758    276    759  3    219
   758    759    274  3    219
   274    759    275  3    219
   276    761    760  3    221
   760    761    762  3    221
   760    762    277  3    221
   277    762    763  3    221
   761    279    762  3    221
   762    279    764  3    221
   762    764    763  3    221
   763    764    278  3    221
   279    162    765  3    222
   765    162    766  3    222
   765    766    280  3    222
   280    766    164  3    222
   280    282    767  3    224
   767    282    768  3    224
   767    768    278  3    224
   278    768    281  3    224
   282    285    769  3    226
   769    285    770  3    226
   769    770    283  3    226
   283    770    284  3    226
   285    288    771  3    228
   771    288    772  3    228
   771    772    286  3    228
   286    772    287  3    228
   288    291    773  3    230
   773    291    775  3    230
   773    775    774  3    230
   774    775    776  3    230
   774    776    289  3    230
   289    776    290  3    230
   291    165    292  3    231
   292    165    167  3    231
   292    174    777  3    232
   777    174    779  3    232
   777    779    778  3    232
   778    779    780  3    232
   778    780    290  3    232
   290    780    176  3    232
   289    781    287  3    233
   287    781    782  3    233
   781    783    782  3    233
   782    783    784  3    233
   783    785    784  3    233
   784    785    786  3    233
   785    177    786  3    233
   786    177    179  3    233
   286    294    284  3    235
   284    294    293  3    235
   294    297    295  3    237
   295    297    296  3    237
   297    300    298  3    239
   298    300    299  3    239
   300    787    301  3    241
   301    787    788  3    241
   787    789    788  3    241
   788    789    790  3    241
   789    303    790  3    241
   790    303    302  3    241
   303    792    791  3    243
   791    792    793  3    243
   791    793    304  3    243
   304    793    794  3    243
   792    795    793  3    243
   793    795    796  3    243
   793    796    794  3    243
   794    796    797  3    243
   795    306    796  3    243
   796    306    798  3    243
   796    798    797  3    243
   797    798    305  3    243
   306    309    799  3    245
   799    309    800  3    245
   799    800    307  3    245
   307    800    308  3    245
   309    312    801  3    247
   801    312    802  3    247
   801    802    310  3    247
   310    802    311  3    247
   312    180    313  3    248
   313    180    182  3    248
   313    189    803  3    249
   803    189    804  3    249
   803    804    311  3    249
   311    804    191  3    249
   310    315    308  3    251
   308    315    314  3    251
   315    318    805  3    253
   805    318    806  3    253
   805    806    316  3    253
   316    806    317  3    253
   318    807    319  3    255
   319    807    808  3    255
   807    809    808  3    255
   808    809    810  3    255
   809    321    810  3    255
   810    321    320  3    255
   321    324    811  3    257
   811    324    812  3    257
   811    812    322  3    257
   322    812    323  3    257
   324    327    813  3    259
   813    327    814  3    259
   813    814    325  3    259
   325    814    326  3    259
   327    330    815  3    261
   815    330    817  3    261
   815    817    816  3    261
   816    817    818  3    261
   816    818    328  3    261
   328    818    329  3    261
   330    820    819  3    262
   819    820    821  3    262
   819    821    331  3    262
   331    821    822  3    262
   820    192    821  3    262
   821    192    823  3    262
   821    823    822  3    262
   822    823    194  3    262
   331    333    329  3    264
   329    333    332  3    264
   333    336    824  3    266
   824    336    825  3    266
   824    825    334  3    266
   334    825    335  3    266
   336    339    337  3    268
   337    339    338  3    268
   339    826    340  3    269
   340    826    827  3    269
   826    828    827  3    269
   827    828    829  3    269
   828    195    829  3    269
   829    195    197  3    269
   340    830    338  3    271
   338    830    831  3    271
   830    342    831  3    271
   831    342    341  3    271
   342    212    832  3    272
   832    212    834  3    272
   832    834    833  3    272
   833    834    835  3    272
   833    835    343  3    272
   343    835    214  3    272
   343    345    836  3    274
   836    345    838  3    274
   836    838    837  3    274
   837    838    839  3    274
   837    839    341  3    274
   341    839    344  3    274
   345    218    840  3    275
   840    218    842  3    275
   840    842    841  3    275
   841    842    843  3    275
   841    843    346  3    275
   346    843    220  3    275
   346    844    344  3    277
   344    844    845  3    277
   844    846    845  3    277
   845    846    847  3    277
   846    848    847  3    277
   847    848    849  3    277
   848    850    849  3    277
   849    850    851  3    277
   850    348    851  3    277
   851    348    347  3    277
   348    351    852  3    279
   852    351    853  3    279
   852    853    349  3    279
   349    853    350  3    279
   351    354    854  3    281
   854    354    856  3    281
   854    856    855  3    281
   855    856    857  3    281
   855    857    352  3    281
   352    857    353  3    281
   354    861    858  3    282
   858    861    862  3    282
   858    862    859  3    282
   859    862    863  3    282
   859    863    860  3    282
   860    863    864  3    282
   860    864    355  3    282
   355    864    865  3    282
   861    221    862  3    282
   862    221    866  3    282
   862    866    863  3    282
   863    866    867  3    282
   863    867    864  3    282
   864    867    868  3    282
   864    868    865  3    282
   865    868    223  3    282
   355    357    353  3    284
   353    357    356  3    284
   357    869    358  3    285
   358    869    870  3    285
   869    871    870  3    285
   870    871    872  3    285
   871    873    872  3    285
   872    873    874  3    285
   873    875    874  3    285
   874    875    876  3    285
   875    230    876  3    285
   876    230    232  3    285
   358    877    356  3    286
   356    877    878  3    286
   877    879    878  3    286
   878    879    880  3    286
   879    881    880  3    286
   880    881    882  3    286
   881    883    882  3    286
   882    883    884  3    286
   883    245    884  3    286
   884    245    247  3    286
   352    886    885  3    288
   885    886    887  3    288
   885    887    350  3    288
   350    887    888  3    288
   886    360    887  3    288
   887    360    889  3    288
   887    889    888  3    288
   888    889    359  3    288
   360    363    890  3    290
   890    363    892  3    290
   890    892    891  3    290
   891    892    893  3    290
   891    893    361  3    290
   361    893    362  3    290
   363    248    894  3    291
   894    248    896  3    291
   894    896    895  3    291
   895    896    897  3    291
   895    897    364  3    291
   364    897    250  3    291
   364    898    362  3    293
   362    898    899  3    293
   898    900    899  3    293
   899    900    901  3    293
   900    366    901  3    293
   901    366    365  3    293
   366    369    902  3    295
   902    369    903  3    295
   902    903    367  3    295
   367    903    368  3    295
   369    254    904  3    296
   904    254    905  3    296
   904    905    370  3    296
   370    905    256  3    296
   370    372    368  3    298
   368    372    371  3    298
   372    257    373  3    299
   373    257    259  3    299
   373    375    906  3    301
   906    375    907  3    301
   906    907    371  3    301
   371    907    374  3    301
   375    378    376  3    303
   376    378    377  3    303
   378    272    908  3    304
   908    272    909  3    304
   908    909    379  3    304
   379    909    274  3    304
   379    381    377  3    306
   377    381    380  3    306
   381    384    382  3    308
   382    384    383  3    308
   384    910    385  3    309
   385    910    911  3    309
   910    299    911  3    309
   911    299    301  3    309
   385    387    912  3    311
   912    387    913  3    311
   912    913    383  3    311
   383    913    386  3    311
   387    914    388  3    313
   388    914    915  3    313
   914    916    915  3    313
   915    916    917  3    313
   916    390    917  3    313
   917    390    389  3    313
   390    302    918  3    314
   918    302    919  3    314
   918    919    391  3    314
   391    919    304  3    314
   391    920    389  3    315
   389    920    921  3    315
   920    922    921  3    315
   921    922    923  3    315
   922    924    923  3    315
   923    924    925  3    315
   924    926    925  3    315
   925    926    927  3    315
   926    928    927  3    315
   927    928    929  3    315
   928    317    929  3    315
   929    317    319  3    315
   388    393    930  3    317
   930    393    931  3    317
   930    931    386  3    317
   386    931    392  3    317
   393    934    932  3    318
   932    934    935  3    318
   932    935    933  3    318
   933    935    936  3    318
   933    936    394  3    318
   394    936    937  3    318
   934    320    935  3    318
   935    320    938  3    318
   935    938    936  3    318
   936    938    939  3    318
   936    939    937  3    318
   937    939    322  3    318
   394    396    940  3    320
   940    396    941  3    320
   940    941    392  3    320
   392    941    395  3    320
   396    942    397  3    322
   397    942    943  3    322
   942    399    943  3    322
   943    399    398  3    322
   399    402    400  3    324
   400    402    401  3    324
   402    405    403  3    326
   403    405    404  3    326
   405    408    406  3    328
   406    408    407  3    328
   408    944    409  3    329
   409    944    945  3    329
   944    946    945  3    329
   945    946    947  3    329
   946    948    947  3    329
   947    948    949  3    329
   948    323    949  3    329
   949    323    325  3    329
   409    950    407  3    331
   407    950    951  3    331
   950    952    951  3    331
   951    952    953  3    331
   952    411    953  3    331
   953    411    410  3    331
   411    414    412  3    333
   412    414    413  3    333
   414    417    954  3    335
   954    417    955  3    335
   954    955    415  3    335
   415    955    416  3    335
   417    326    418  3    336
   418    326    328  3    336
   418    332    956  3    337
   956    332    957  3    337
   956    957    416  3    337
   416    957    334  3    337
   415    958    413  3    338
   413    958    959  3    338
   958    960    959  3    338
   959    960    961  3    338
   960    962    961  3    338
   961    962    963  3    338
   962    964    963  3    338
   963    964    965  3    338
   964    966    965  3    338
   965    966    967  3    338
   966    335    967  3    338
   967    335    337  3    338
   412    968    410  3    340
   410    968    969  3    340
   968    970    969  3    340
   969    970    971  3    340
   970    972    971  3    340
   971    972    973  3    340
   972    420    973  3    340
   973    420    419  3    340
   420    347    421  3    341
   421    347    349  3    341
   421    974    419  3    343
   419    974    975  3    343
   974    423    975  3    343
   975    423    422  3    343
   423    976    424  3    344
   424    976    977  3    344
   976    359    977  3    344
   977    359    361  3    344
   424    404    422  3    345
   422    404    406  3    345
   403    426    401  3    347
   401    426    425  3    347
   426    429    427  3    349
   427    429    428  3    349
   429    365    978  3    350
   978    365    979  3    350
   978    979    430  3    350
   430    979    367  3    350
   430    980    428  3    351
   428    980    981  3    351
   980    982    981  3    351
   981    982    983  3    351
   982    374    983  3    351
   983    374    376  3    351
   427    398    425  3    352
   425    398    400  3    352
   397    984    395  3    353
   395    984    985  3    353
   984    380    985  3    353
   985    380    382  3    353
   316    305    314  3    354
   314    305    307  3    354
   298    986    296  3    355
   296    986    987  3    355
   986    275    987  3    355
   987    275    277  3    355
   295    281    293  3    356
   293    281    283  3    356
   241    988    239  3    357
   239    988    989  3    357
   988    233    989  3    357
   989    233    235  3    357
     3      1    472  2      1
   472      1      2  2      1
     6      4    433  2      2
   433      4      5  2      2
     9      7    441  2      4
   441      7    440  2      4
   441    440      8  2      4
   509     10    442  2      6
   509    442    443  2      6
   509    443     12  2      6
   443    442     11  2      6
   453     13    444  2      8
   453    444     15  2      8
    15    444     14  2      8
    18     16    454  2     11
    18    454    455  2     11
   455    454     17  2     11
    21     19    457  2     13
   457     19    456  2     13
   457    456     20  2     13
    24     22    460  2     15
   460     22    458  2     15
   460    458    459  2     15
   459    458     23  2     15
    27     25    462  2     17
    27    462    463  2     17
   463    462    461  2     17
   463    461     26  2     17
   554     28    464  2     19
   554    464     30  2     19
    30    464     29  2     19
    33     31    471  2     21
   471     31     32  2     21
   559     34     35  2     24
   559     35    477  2     24
   559    477    560  2     24
   560    477     36  2     24
   570     37    478  2     26
   570    478     39  2     26
    39    478     38  2     26
   572     40    483  2     28
   572    483     42  2     28
   483     40     41  2     28
   582     43    487  2     30
   582    487     45  2     30
    45    487     44  2     30
    48     46     47  2     32
    51     49    494  2     35
   494     49     50  2     35
   502     52    495  2     37
   502    495     54  2     37
    54    495     53  2     37
    57     55    503  2     40
    57    503    504  2     40
   504    503     56  2     40
    60     58    506  2     42
   506     58    505  2     42
   506    505     59  2     42
    63     61    508  2     44
   508     61    507  2     44
   508    507     62  2     44
   601     64    510  2     47
   601    510    511  2     47
   601    511    602  2     47
   602    511     66  2     47
   510     64     65  2     47
   514     67    513  2     49
   514    513    512  2     49
   514    512     69  2     49
    69    512     68  2     49
    72     70     71  2     51
   517     73    515  2     55
   517    515    516  2     55
   516    515     74  2     55
   516     74     75  2     55
    78     76    519  2     58
    78    519    520  2     58
   520    519    518  2     58
   520    518     77  2     58
    81     79    522  2     60
   522     79    521  2     60
   522    521     80  2     60
   524     82    523  2     62
   524    523     84  2     62
    84    523     83  2     62
   639     85    531  2     65
   639    531    532  2     65
   639    532    533  2     65
   639    533     87  2     65
   532    531     86  2     65
   643     88    993  2     67
   643    993     92  2     67
   643     92    536  2     67
   643    536     90  2     67
    92    993    990  2     67
   990    993     91  2     67
    91    993    535  2     67
    91    535    538  2     67
   538    535    534  2     67
   538    534     89  2     67
   535    993     88  2     67
    95     93    537  2     69
    95    537     92  2     69
    95     92    542  2     69
   542     92    990  2     69
   542    990    541  2     69
   541    990     91  2     69
   541     91    539  2     69
   541    539    540  2     69
   540    539     94  2     69
   657     96    545  2     72
   657    545    544  2     72
   657    544    658  2     72
   658    544    543  2     72
   658    543    659  2     72
   659    543     97  2     72
   659     97     98  2     72
   665     99    100  2     74
   665    100    548  2     74
   665    548    101  2     74
   104    102    549  2     76
   104    549    550  2     76
   550    549    103  2     76
   562    105    106  2     79
   562    106    557  2     79
   562    557    561  2     79
   561    557    558  2     79
   561    558    107  2     79
   670    108    564  2     82
   670    564    563  2     82
   670    563    110  2     82
   110    563    109  2     82
   113    111    112  2     84
   116    114    115  2     86
   119    117    118  2     88
   573    120    121  2     90
   573    121    122  2     90
   571    123    124  2     92
   571    124    569  2     92
   571    569    125  2     92
   128    126    574  2     96
   128    574    127  2     96
   583    129    579  2     98
   583    579    131  2     98
   579    129    130  2     98
   134    132    580  2    100
   134    580    581  2    100
   581    580    133  2    100
   137    135    584  2    104
   137    584    136  2    104
   140    138    139  2    107
   718    141    589  2    109
   718    589    590  2    109
   718    590    994  2    109
   718    994    719  2    109
   719    994    591  2    109
   719    591    720  2    109
   720    591    143  2    109
   591    994    590  2    109
   589    141    142  2    109
   735    144    594  2    111
   735    594    736  2    111
   736    594    593  2    111
   736    593    737  2    111
   737    593    592  2    111
   737    592    146  2    111
   146    592    145  2    111
   149    147    148  2    113
   739    150    151  2    116
   739    151    597  2    116
   739    597    152  2    116
   603    153    600  2    118
   603    600    155  2    118
   600    153    599  2    118
   599    153    598  2    118
   599    598    154  2    118
   158    156    604  2    121
   158    604    157  2    121
   750    159    605  2    123
   750    605    606  2    123
   750    606    751  2    123
   751    606    607  2    123
   751    607    161  2    123
   605    159    160  2    123
   766    162    610  2    125
   766    610    609  2    125
   766    609    164  2    125
   164    609    611  2    125
   611    609    608  2    125
   611    608    163  2    125
   167    165    615  2    127
   167    615    166  2    127
   170    168    618  2    129
   618    168    169  2    129
   173    171    619  2    131
   173    619    172  2    131
   779    174    622  2    135
   779    622    623  2    135
   779    623    780  2    135
   780    623    176  2    135
   622    174    175  2    135
   179    177    625  2    137
   179    625    627  2    137
   627    625    624  2    137
   627    624    626  2    137
   626    624    178  2    137
   182    180    635  2    139
   635    180    633  2    139
   635    633    634  2    139
   634    633    632  2    139
   634    632    181  2    139
   640    183    637  2    141
   640    637    995  2    141
   640    995    185  2    141
   185    995    638  2    141
   638    995    636  2    141
   638    636    184  2    141
   636    995    637  2    141
   645    186    641  2    144
   645    641    996  2    144
   645    996    644  2    144
   644    996    642  2    144
   644    642    188  2    144
   642    996    187  2    144
   187    996    641  2    144
   804    189    647  2    147
   804    647    648  2    147
   804    648    191  2    147
   648    647    646  2    147
   648    646    190  2    147
   823    192    649  2    149
   823    649    193  2    149
   823    193    194  2    149
   197    195    196  2    151
   200    198    199  2    153
   205    201    202  2    156
   205    202    992  2    156
   992    202    654  2    156
   992    654    991  2    156
   991    654    655  2    156
   991    655    656  2    156
   991    656    204  2    156
   204    656    203  2    156
   673    206    205  2    159
   673    205    997  2    159
   673    997    672  2    159
   672    997    671  2    159
   671    997    998  2    159
   671    998    208  2    159
   208    998    999  2    159
   208    999    661  2    159
   661    999   1000  2    159
   661   1000    660  2    159
   660   1000    204  2    159
   660    204    207  2    159
   204   1000    991  2    159
   991   1000    999  2    159
   991    999    998  2    159
   991    998    992  2    159
   992    998    997  2    159
   992    997    205  2    159
   666    209    663  2    162
   666    663   1001  2    162
   666   1001   1002  2    162
   666   1002    211  2    162
   211   1002    664  2    162
   664   1002   1001  2    162
   664   1001    662  2    162
   664    662    210  2    162
   662   1001    663  2    162
   834    212    676  2    166
   834    676    675  2    166
   834    675    835  2    166
   835    675    674  2    166
   835    674    214  2    166
   214    674    213  2    166
   217    215    216  2    168
   842    218    689  2    171
   842    689    690  2    171
   842    690    843  2    171
   843    690    691  2    171
   843    691    220  2    171
   689    218    219  2    171
   866    221    694  2    173
   866    694    693  2    173
   866    693    867  2    173
   867    693    692  2    173
   867    692    868  2    173
   868    692    222  2    173
   868    222    223  2    173
   703    224    225  2    175
   703    225    226  2    175
   229    227    228  2    177
   232    230    707  2    181
   232    707    231  2    181
   235    233    234  2    183
   238    236    237  2    185
   241    239    240  2    188
   244    242    243  2    190
   247    245    246  2    193
   896    248    249  2    195
   896    249    710  2    195
   896    710    897  2    195
   897    710    250  2    195
   721    251    716  2    197
   721    716    717  2    197
   721    717    253  2    197
   716    251    714  2    197
   716    714    715  2    197
   715    714    252  2    197
   905    254    725  2    200
   905    725    256  2    200
   256    725    255  2    200
   259    257    258  2    202
   741    260    261  2    204
   741    261    730  2    204
   741    730    740  2    204
   740    730    262  2    204
   738    263   1003  2    206
   738   1003    734  2    206
   738    734    265  2    206
   734   1003    733  2    206
   733   1003    731  2    206
   733    731    732  2    206
   732    731    264  2    206
   731   1003    263  2    206
   745    266    743  2    210
   745    743    744  2    210
   744    743    742  2    210
   744    742    268  2    210
   268    742    267  2    210
   271    269    747  2    213
   271    747    749  2    213
   749    747    746  2    213
   749    746    748  2    213
   748    746    270  2    213
   909    272    273  2    216
   909    273    758  2    216
   909    758    274  2    216
   277    275    760  2    218
   760    275    759  2    218
   760    759    276  2    218
   767    278    764  2    220
   767    764   1004  2    220
   767   1004    280  2    220
   280   1004    765  2    220
   765   1004    279  2    220
   279   1004    764  2    220
   283    281    768  2    223
   283    768    769  2    223
   769    768    282  2    223
   286    284    771  2    225
   771    284    770  2    225
   771    770    285  2    225
   289    287    774  2    227
   774    287    772  2    227
   774    772    773  2    227
   773    772    288  2    227
   778    290    776  2    229
   778    776    775  2    229
   778    775    777  2    229
   777    775    291  2    229
   777    291    292  2    229
   295    293    294  2    234
   298    296    297  2    236
   301    299    300  2    238
   919    302    791  2    240
   919    791    304  2    240
   791    302    303  2    240
   307    305    798  2    242
   307    798    799  2    242
   799    798    306  2    242
   310    308    801  2    244
   801    308    800  2    244
   801    800    309  2    244
   803    311    802  2    246
   803    802    313  2    246
   313    802    312  2    246
   316    314    805  2    250
   805    314    315  2    250
   319    317    806  2    252
   319    806    318  2    252
   938    320    321  2    254
   938    321    811  2    254
   938    811    939  2    254
   939    811    322  2    254
   325    323    813  2    256
   813    323    812  2    256
   813    812    324  2    256
   328    326    816  2    258
   816    326    814  2    258
   816    814    815  2    258
   815    814    327  2    258
   331    329    818  2    260
   331    818    819  2    260
   819    818    817  2    260
   819    817    330  2    260
   957    332    333  2    263
   957    333    824  2    263
   957    824    334  2    263
   337    335    825  2    265
   337    825    336  2    265
   340    338    339  2    267
   837    341    342  2    270
   837    342    832  2    270
   837    832    836  2    270
   836    832    833  2    270
   836    833    343  2    270
   346    344    839  2    273
   346    839    841  2    273
   841    839    838  2    273
   841    838    840  2    273
   840    838    345  2    273
   349    347    852  2    276
   852    347    348  2    276
   885    350    854  2    278
   885    854    855  2    278
   885    855    352  2    278
   854    350    853  2    278
   854    853    351  2    278
   355    353    860  2    280
   860    353   1005  2    280
   860   1005    859  2    280
   859   1005    856  2    280
   859    856    858  2    280
   858    856    354  2    280
   856   1005    857  2    280
   857   1005    353  2    280
   358    356    357  2    283
   361    359    891  2    287
   891    359    889  2    287
   891    889    890  2    287
   890    889    360  2    287
   364    362    895  2    289
   895    362    893  2    289
   895    893    894  2    289
   894    893    892  2    289
   894    892    363  2    289
   979    365    902  2    292
   979    902    367  2    292
   902    365    366  2    292
   370    368    903  2    294
   370    903    904  2    294
   904    903    369  2    294
   906    371    372  2    297
   906    372    373  2    297
   376    374    907  2    300
   376    907    375  2    300
   379    377    908  2    302
   908    377    378  2    302
   382    380    381  2    305
   912    383    384  2    307
   912    384    385  2    307
   930    386    913  2    310
   930    913    387  2    310
   930    387    388  2    310
   391    389    918  2    312
   918    389    390  2    312
   940    392    931  2    316
   940    931    933  2    316
   940    933    394  2    316
   933    931    932  2    316
   932    931    393  2    316
   397    395    941  2    319
   397    941    396  2    319
   400    398    399  2    321
   403    401    402  2    323
   406    404    405  2    325
   409    407    408  2    327
   412    410    411  2    330
   415    413    954  2    332
   954    413    414  2    332
   956    416    955  2    334
   956    955    417  2    334
   956    417    418  2    334
   421    419    420  2    339
   424    422    423  2    342
   427    425    426  2    346
   430    428    978  2    348
   978    428    429  2    348
  1008   1009   1010  1    358
  1010   1009    431  1    358
  1010    431    451  1    358
  1010    451    449  1    358
  1010    449   1008  1    358
  1008    449    447  1    358
  1008    447   1007  1    358
  1008   1007   1009  1    358
  1009   1007    434  1    358
  1009    434      5  1    358
  1009      5    431  1    358
   434   1007    437  1    358
   437   1007   1006  1    358
   437   1006      8  1    358
     8   1006     11  1    358
    11   1006     14  1    358
    14   1006    445  1    358
   445   1006   1007  1    358
   445   1007    447  1    358
   451    431      1  1    358
   488     47     44  1    359
   488     44    484  1    359
   488    484    490  1    359
   490    484     41  1    359
   490     41    492  1    359
   492     41    481  1    359
   492    481    432  1    359
   492    432      4  1    359
   432    481      2  1    359
     2    481    479  1    359
     2    479     33  1    359
    33    479    473  1    359
   473    479    475  1    359
   475    479     38  1    359
   475     38     35  1    359
  1011   1012   1013  1    360
  1013   1012   1015  1    360
  1014   1013   1015  1    360
  1014   1015    436  1    360
  1014    436    439  1    360
  1014    439    500  1    360
  1014    500    498  1    360
  1014    498   1013  1    360
  1013    498   1011  1    360
  1011    498    496  1    360
  1011    496     50  1    360
  1011     50     48  1    360
  1011     48    489  1    360
  1011    489   1012  1    360
  1012    489    491  1    360
  1012    491    493  1    360
  1012    493   1015  1    360
  1015    493      6  1    360
  1015      6    436  1    360
    50    496     53  1    360
   500    439      7  1    360
    10     62   1018  1    361
    10   1018      9  1    361
     9   1018    501  1    361
   501   1018   1019  1    361
   501   1019    499  1    361
   499   1019    497  1    361
   497   1019   1016  1    361
   497   1016     54  1    361
    54   1016     56  1    361
    56   1016   1017  1    361
    56   1017     59  1    361
    59   1017     62  1    361
    62   1017   1018  1    361
  1018   1017   1019  1    361
  1019   1017   1016  1    361
    13     16     71  1    362
    13     71     68  1    362
    13     68     12  1    362
    12     68     65  1    362
    12     65     63  1    362
  1021   1020   1022  1    363
  1021   1022   1023  1    363
  1021   1023    465  1    363
  1021    465     29  1    363
  1021     29     26  1    363
  1021     26   1020  1    363
  1020     26     23  1    363
  1020     23    446  1    363
  1020    446    448  1    363
  1020    448   1022  1    363
  1022    448    450  1    363
  1022    450   1024  1    363
  1022   1024   1023  1    363
  1023   1024    467  1    363
  1023    467    465  1    363
   467   1024    469  1    363
   469   1024   1025  1    363
   469   1025     32  1    363
    32   1025      3  1    363
     3   1025    452  1    363
   452   1025   1024  1    363
   452   1024    450  1    363
   446     23     20  1    363
   446     20     17  1    363
   446     17     15  1    363
    19     72     18  1    364
    22     74     21  1    365
    21     74     70  1    365
    70     74     69  1    365
    25     83   1026  1    366
    25   1026     24  1    366
    24   1026     75  1    366
    75   1026     77  1    366
    77   1026     80  1    366
    80   1026     83  1    366
   551    103   1028  1    367
   551   1028     28  1    367
    28   1028     84  1    367
    28     84     27  1    367
    84   1028    525  1    367
   525   1028   1027  1    367
   525   1027    528  1    367
   528   1027    546  1    367
   528    546     86  1    367
    86    546     97  1    367
    86     97     89  1    367
    89     97     94  1    367
   546   1027    103  1    367
   546    103    100  1    367
   103   1027   1028  1    367
   476     34    555  1    368
   476    555   1029  1    368
   476   1029    474  1    368
   474   1029    470  1    368
   474    470     31  1    368
   470   1029    468  1    368
   468   1029    555  1    368
   468    555    466  1    368
   466    555    104  1    368
   466    104    553  1    368
   466    553     30  1    368
   555     34    106  1    368
    37    124   1030  1    369
    37   1030     36  1    369
    36   1030    115  1    369
    36    115    107  1    369
   107    115    112  1    369
   107    112    109  1    369
   115   1030    565  1    369
   565   1030    124  1    369
   565    124    567  1    369
   565    567    118  1    369
   118    567    121  1    369
    40    125    482  1    370
   482    125   1031  1    370
   482   1031    480  1    370
   480   1031     39  1    370
    39   1031    125  1    370
  1032   1034   1035  1    371
  1033   1036   1037  1    371
  1034   1033   1037  1    371
  1034   1037   1038  1    371
  1035   1034   1038  1    371
  1037   1036   1039  1    371
  1037   1039   1040  1    371
  1038   1037   1040  1    371
  1038   1040    486  1    371
  1038    486   1035  1    371
  1035    486     43  1    371
  1035     43    133  1    371
  1035    133   1032  1    371
  1032    133    130  1    371
  1032    130    577  1    371
  1032    577    575  1    371
  1032    575   1033  1    371
  1032   1033   1034  1    371
  1033    575    127  1    371
  1033    127   1036  1    371
  1036    127    122  1    371
  1036    122   1039  1    371
  1039    122    568  1    371
  1039    568    123  1    371
  1039    123     42  1    371
  1039     42   1040  1    371
  1040     42    486  1    371
    46     49    134  1    372
    46    134     45  1    372
    52     55   1041  1    373
    52   1041    131  1    373
    52    131    132  1    373
    52    132     51  1    373
   131   1041    136  1    373
   136   1041    585  1    373
   585   1041     55  1    373
   145    142    595  1    374
  1042   1043   1044  1    374
  1042   1044    595  1    374
  1042    595    142  1    374
  1042    142    587  1    374
  1042    587   1043  1    374
  1043    587    139  1    374
  1043    139    137  1    374
  1043    137    586  1    374
  1043    586   1044  1    374
  1044    586    595  1    374
   595    586    148  1    374
   148    586     57  1    374
   148     57     58  1    374
    61     64   1045  1    375
    61   1045     60  1    375
    60   1045    149  1    375
   149   1045    151  1    375
   151   1045    154  1    375
   154   1045     64  1    375
  1047   1046   1050  1    376
  1047   1050   1051  1    376
  1048   1053   1054  1    376
  1046   1048   1054  1    376
  1046   1054   1049  1    376
  1046   1049   1050  1    376
  1050   1049   1056  1    376
  1050   1056   1057  1    376
  1051   1050   1057  1    376
  1053   1052   1058  1    376
  1053   1058   1059  1    376
  1054   1053   1059  1    376
  1049   1054   1059  1    376
  1049   1059   1055  1    376
  1049   1055   1056  1    376
  1056   1055   1060  1    376
  1056   1060   1061  1    376
  1057   1056   1061  1    376
  1059   1058   1062  1    376
  1060   1059   1062  1    376
  1055   1059   1060  1    376
  1061   1060   1063  1    376
  1060   1062   1063  1    376
  1063   1062     67  1    376
  1063     67     73  1    376
  1063     73   1061  1    376
  1061     73     76  1    376
  1061     76    172  1    376
  1061    172   1057  1    376
  1057    172    169  1    376
  1057    169   1051  1    376
  1051    169    616  1    376
  1051    616   1047  1    376
  1047    616    166  1    376
  1047    166    612  1    376
  1047    612   1046  1    376
  1046    612   1048  1    376
  1048    612    163  1    376
  1048    163   1053  1    376
  1053    163   1052  1    376
  1052    163    160  1    376
  1052    160    157  1    376
  1052    157    155  1    376
  1052    155     66  1    376
  1052     66   1058  1    376
  1058     66   1062  1    376
  1062     66     67  1    376
    79    173     78  1    377
  1064   1066   1067  1    378
  1065   1064   1067  1    378
  1065   1067   1068  1    378
  1066   1070   1071  1    378
  1067   1066   1071  1    378
  1067   1071   1072  1    378
  1068   1067   1072  1    378
  1068   1072   1073  1    378
  1069   1068   1073  1    378
  1069   1073    530  1    378
  1069    530    184  1    378
  1069    184    181  1    378
  1069    181   1068  1    378
  1068    181    628  1    378
  1068    628   1065  1    378
  1065    628    178  1    378
  1065    178   1064  1    378
  1064    178    175  1    378
  1064    175    620  1    378
  1064    620    170  1    378
  1064    170   1066  1    378
  1066    170   1070  1    378
  1070    170    171  1    378
  1070    171     81  1    378
  1070     81     82  1    378
  1070     82   1071  1    378
  1071     82   1072  1    378
  1072     82   1073  1    378
  1073     82    527  1    378
  1073    527    530  1    378
   184    530     85  1    378
    88    187     87  1    379
    87    187    185  1    379
    93    199    196  1    380
    93    196     90  1    380
    90    196    652  1    380
    90    652    188  1    380
   188    652    650  1    380
   188    650    190  1    380
   190    650    193  1    380
    96    202    200  1    381
    96    200     95  1    381
    99    210   1074  1    382
    99   1074    547  1    382
   547   1074     98  1    382
    98   1074    203  1    382
   203   1074    207  1    382
   207   1074    210  1    382
   556    105    108  1    383
   556    108    667  1    383
   556    667    101  1    383
   556    101    102  1    383
   101    667    211  1    383
   111    216    110  1    384
   677    213    208  1    384
   677    208    209  1    384
   677    209    679  1    384
   679    209    669  1    384
   679    669    681  1    384
   681    669    110  1    384
   681    110    216  1    384
   217    113    683  1    385
  1075   1076   1077  1    385
  1075   1077    697  1    385
  1075    697    695  1    385
  1075    695    687  1    385
  1075    687    685  1    385
  1075    685    683  1    385
  1075    683   1076  1    385
  1076    683    113  1    385
  1076    113    114  1    385
  1076    114   1077  1    385
  1077    114    701  1    385
  1077    701   1078  1    385
  1077   1078    697  1    385
   697   1078    699  1    385
   699   1078    228  1    385
   699    228    225  1    385
   228   1078    701  1    385
   687    695    219  1    385
   219    695    222  1    385
   117    229    702  1    386
   117    702    566  1    386
   566    702    116  1    386
  1079   1081   1082  1    387
  1080   1079   1082  1    387
  1081   1083   1084  1    387
  1082   1081   1084  1    387
  1082   1084    126  1    387
  1082    126   1080  1    387
  1080    126    237  1    387
  1080    237    234  1    387
  1080    234   1079  1    387
  1079    234    231  1    387
  1079    231    704  1    387
  1079    704   1081  1    387
  1081    704    226  1    387
  1081    226    227  1    387
  1081    227   1083  1    387
  1083    227    119  1    387
  1083    119   1084  1    387
  1084    119    120  1    387
  1084    120    126  1    387
  1085   1086   1087  1    388
  1085   1087    138  1    388
  1085    138    243  1    388
  1085    243    240  1    388
  1085    240   1086  1    388
  1086    240    708  1    388
  1086    708   1088  1    388
  1086   1088    578  1    388
  1086    578   1087  1    388
  1087    578    129  1    388
  1087    129    135  1    388
  1087    135    138  1    388
   578   1088    576  1    388
   576   1088    238  1    388
   576    238    128  1    388
   238   1088    708  1    388
   141    252    588  1    389
   588    252    711  1    389
   588    711    140  1    389
   140    711    249  1    389
   140    249    246  1    389
   140    246    244  1    389
   143    144    253  1    390
   144    264    728  1    390
   144    728    253  1    390
   253    728    726  1    390
   253    726    722  1    390
   722    726    255  1    390
   255    726    258  1    390
   728    264    261  1    390
   147    150    596  1    391
   596    150    265  1    391
   596    265    146  1    391
   153    156    152  1    392
   152    156    267  1    392
   152    267    262  1    392
   152    262    263  1    392
   159    270    158  1    393
   158    270    268  1    393
  1089   1090   1091  1    394
  1089   1091    162  1    394
  1089    162    279  1    394
  1089    279    761  1    394
  1089    761    276  1    394
  1089    276   1090  1    394
  1090    276    756  1    394
  1090    756    754  1    394
  1090    754   1091  1    394
  1091    754    752  1    394
  1091    752    161  1    394
  1091    161    162  1    394
   161    752    271  1    394
   756    276    273  1    394
   165    291    288  1    395
   165    288    285  1    395
   165    285    614  1    395
   614    285    282  1    395
   614    282    280  1    395
   614    280    164  1    395
   621    174    617  1    396
   621    617    168  1    396
   617    174    292  1    396
   617    292    167  1    396
   781    289   1092  1    397
   781   1092   1093  1    397
   781   1093    783  1    397
   783   1093    785  1    397
   785   1093   1094  1    397
   785   1094    177  1    397
   177   1094    176  1    397
   176   1094    290  1    397
   290   1094   1092  1    397
   290   1092    289  1    397
  1092   1094   1093  1    397
  1098   1100   1101  1    398
  1099   1098   1101  1    398
  1099   1101    312  1    398
  1099    312    309  1    398
  1099    309    306  1    398
  1099    306    795  1    398
  1099    795   1098  1    398
  1098    795   1097  1    398
  1098   1097    786  1    398
  1098    786   1100  1    398
  1100    786    179  1    398
  1100    179    631  1    398
  1100    631   1101  1    398
  1101    631    180  1    398
  1101    180    312  1    398
   786   1097    784  1    398
   784   1097   1096  1    398
   784   1096    789  1    398
   784    789    782  1    398
   782    789   1095  1    398
   782   1095    294  1    398
   782    294    286  1    398
   782    286    287  1    398
   294   1095    297  1    398
   297   1095    787  1    398
   297    787    300  1    398
   787   1095    789  1    398
   789   1096    303  1    398
   303   1096    792  1    398
   792   1096   1097  1    398
   792   1097    795  1    398
   183    186    189  1    399
   183    189    182  1    399
   182    189    313  1    399
   820    330   1103  1    400
   820   1103    192  1    400
   192   1103    311  1    400
   192    311    191  1    400
   311   1103    315  1    400
   311    315    310  1    400
   315   1103   1102  1    400
   315   1102    318  1    400
   318   1102    807  1    400
   807   1102    327  1    400
   807    327    809  1    400
   809    327    324  1    400
   809    324    321  1    400
   327   1102    330  1    400
   330   1102   1103  1    400
  1104   1106   1107  1    401
  1105   1104   1107  1    401
  1105   1107    336  1    401
  1105    336    333  1    401
  1105    333    331  1    401
  1105    331    822  1    401
  1105    822   1104  1    401
  1104    822    194  1    401
  1104    194    651  1    401
  1104    651   1106  1    401
  1106    651    653  1    401
  1106    653    828  1    401
  1106    828    826  1    401
  1106    826   1107  1    401
  1107    826    339  1    401
  1107    339    336  1    401
   828    653    195  1    401
   198    201    197  1    402
   197    201    829  1    402
   829    201   1108  1    402
   829   1108    827  1    402
   827   1108    830  1    402
   827    830    340  1    402
   830   1108    342  1    402
   342   1108    212  1    402
   212   1108    206  1    402
   206   1108    201  1    402
   688    218    345  1    403
   688    345   1110  1    403
   688   1110    686  1    403
   686   1110    684  1    403
   684   1110    682  1    403
   684    682    215  1    403
   682   1110    680  1    403
   680   1110   1109  1    403
   680   1109    678  1    403
   678   1109    214  1    403
   214   1109    343  1    403
   343   1109   1110  1    403
   343   1110    345  1    403
   354    351    861  1    404
   861    351   1111  1    404
   861   1111   1112  1    404
   861   1112    221  1    404
   221   1112   1113  1    404
   221   1113    220  1    404
   220   1113    844  1    404
   220    844    346  1    404
   844   1113    846  1    404
   846   1113   1112  1    404
   846   1112    848  1    404
   848   1112   1111  1    404
   848   1111    850  1    404
   850   1111    348  1    404
   348   1111    351  1    404
  1114   1115   1116  1    405
  1115   1118   1119  1    405
  1116   1115   1119  1    405
  1116   1119   1120  1    405
  1117   1116   1120  1    405
  1117   1120   1121  1    405
  1118   1123   1124  1    405
  1119   1118   1124  1    405
  1119   1124   1125  1    405
  1120   1119   1125  1    405
  1120   1125   1126  1    405
  1121   1120   1126  1    405
  1124   1123   1127  1    405
  1124   1127   1128  1    405
  1125   1124   1128  1    405
  1125   1128    706  1    405
  1125    706   1126  1    405
  1126    706    230  1    405
  1126    230   1121  1    405
  1121    230    875  1    405
  1121    875    873  1    405
  1121    873   1117  1    405
  1117    873    871  1    405
  1117    871   1116  1    405
  1116    871   1114  1    405
  1114    871    869  1    405
  1114    869    357  1    405
  1114    357    355  1    405
  1114    355   1115  1    405
  1115    355    865  1    405
  1115    865   1118  1    405
  1118    865   1122  1    405
  1118   1122   1123  1    405
  1123   1122   1127  1    405
  1127   1122    698  1    405
  1127    698    700  1    405
  1127    700   1128  1    405
  1128    700    224  1    405
  1128    224    706  1    405
   698   1122    696  1    405
   696   1122    223  1    405
   223   1122    865  1    405
  1130   1129   1131  1    406
  1130   1131   1132  1    406
  1130   1132    883  1    406
  1130    883    881  1    406
  1130    881   1129  1    406
  1129    881    879  1    406
  1129    879    872  1    406
  1129    872    874  1    406
  1129    874   1131  1    406
  1131    874   1133  1    406
  1131   1133    988  1    406
  1131    988   1132  1    406
  1132    988    241  1    406
  1132    241    883  1    406
   883    241    245  1    406
   245    241    242  1    406
   988   1133    233  1    406
   233   1133    876  1    406
   233    876    232  1    406
   876   1133    874  1    406
   872    879    870  1    406
   870    879    877  1    406
   870    877    358  1    406
   709    239    989  1    407
   709    989    236  1    407
   236    989    235  1    407
   248    363    884  1    408
   248    884    247  1    408
   884    363    882  1    408
   882    363    880  1    408
   880    363    360  1    408
   880    360    886  1    408
   880    886    878  1    408
   878    886    356  1    408
   356    886    352  1    408
   356    352    353  1    408
  1134   1135   1136  1    409
  1134   1136    369  1    409
  1134    369    366  1    409
  1134    366    900  1    409
  1134    900    898  1    409
  1134    898   1135  1    409
  1135    898    364  1    409
  1135    364    250  1    409
  1135    250   1136  1    409
  1136    250    713  1    409
  1136    713    724  1    409
  1136    724    254  1    409
  1136    254    369  1    409
   724    713    251  1    409
   257    372    370  1    410
   257    370    256  1    410
  1137   1138   1139  1    411
  1138   1140   1141  1    411
  1139   1138   1141  1    411
  1141   1140   1142  1    411
  1141   1142    753  1    411
  1141    753    755  1    411
  1141    755   1139  1    411
  1139    755    757  1    411
  1139    757   1137  1    411
  1137    757    272  1    411
  1137    272    378  1    411
  1137    378    375  1    411
  1137    375   1138  1    411
  1138    375    373  1    411
  1138    373   1140  1    411
  1140    373    259  1    411
  1140    259    727  1    411
  1140    727   1142  1    411
  1142    727    729  1    411
  1142    729   1143  1    411
  1142   1143    753  1    411
   753   1143    269  1    411
   269   1143    266  1    411
   266   1143    260  1    411
   260   1143    729  1    411
   986    298    299  1    412
   986    299    910  1    412
   986    910   1144  1    412
   986   1144   1145  1    412
   986   1145    275  1    412
   275   1145    274  1    412
   274   1145    379  1    412
   379   1145    381  1    412
   381   1145   1144  1    412
   381   1144    384  1    412
   384   1144    910  1    412
   278    281   1146  1    413
   278   1146    763  1    413
   763   1146    987  1    413
   763    987    277  1    413
   987   1146    296  1    413
   296   1146    295  1    413
   295   1146    281  1    413
   284    293    283  1    414
   302    390    790  1    415
   790    390    788  1    415
   788    390    916  1    415
   788    916    301  1    415
   301    916    911  1    415
   911    916    914  1    415
   911    914    385  1    415
   385    914    387  1    415
  1147   1148   1149  1    416
  1147   1149   1150  1    416
  1149   1148   1152  1    416
  1149   1152   1153  1    416
  1149   1153   1154  1    416
  1150   1149   1154  1    416
  1150   1154   1155  1    416
  1150   1155   1156  1    416
  1148   1151   1152  1    416
  1152   1151   1157  1    416
  1152   1157   1158  1    416
  1153   1152   1158  1    416
  1153   1158   1159  1    416
  1154   1153   1159  1    416
  1154   1159   1160  1    416
  1155   1154   1160  1    416
  1155   1160   1161  1    416
  1155   1161   1162  1    416
  1156   1155   1162  1    416
  1157   1163   1164  1    416
  1158   1157   1164  1    416
  1158   1164   1165  1    416
  1159   1158   1165  1    416
  1159   1165   1166  1    416
  1160   1159   1166  1    416
  1160   1166   1167  1    416
  1161   1160   1167  1    416
  1165   1164   1168  1    416
  1165   1168   1169  1    416
  1166   1165   1169  1    416
  1166   1169   1170  1    416
  1167   1166   1170  1    416
  1167   1170    317  1    416
  1167    317   1162  1    416
  1167   1162   1161  1    416
  1162    317    928  1    416
  1162    928    926  1    416
  1162    926   1156  1    416
  1156    926    924  1    416
  1156    924   1150  1    416
  1150    924   1147  1    416
  1147    924    922  1    416
  1147    922   1148  1    416
  1148    922    920  1    416
  1148    920   1151  1    416
  1151    920    391  1    416
  1151    391   1157  1    416
  1157    391    304  1    416
  1157    304   1163  1    416
  1163    304    794  1    416
  1163    794   1164  1    416
  1164    794    797  1    416
  1164    797   1168  1    416
  1168    797    305  1    416
  1168    305   1169  1    416
  1169    305    316  1    416
  1169    316   1170  1    416
  1170    316    317  1    416
   308    314    307  1    417
  1171   1173   1174  1    418
  1171   1174   1175  1    418
  1171   1175   1172  1    418
  1173   1176   1177  1    418
  1174   1173   1177  1    418
  1174   1177   1178  1    418
  1174   1178   1179  1    418
  1175   1174   1179  1    418
  1176   1180   1181  1    418
  1177   1176   1181  1    418
  1177   1181    934  1    418
  1177    934   1178  1    418
  1178    934    393  1    418
  1178    393   1179  1    418
  1179    393    388  1    418
  1179    388    915  1    418
  1179    915   1175  1    418
  1175    915    917  1    418
  1175    917   1172  1    418
  1172    917    921  1    418
  1172    921    923  1    418
  1172    923   1171  1    418
  1171    923   1173  1    418
  1173    923    925  1    418
  1173    925   1176  1    418
  1176    925    927  1    418
  1176    927   1180  1    418
  1180    927    810  1    418
  1180    810    320  1    418
  1180    320   1181  1    418
  1181    320    934  1    418
   810    927    929  1    418
   810    929    808  1    418
   808    929    319  1    418
   921    917    389  1    418
   402    399    405  1    419
   944    408    399  1    419
   944    399    942  1    419
   944    942   1182  1    419
   944   1182    946  1    419
   946   1182    948  1    419
   948   1182    322  1    419
   948    322    323  1    419
   322   1182    937  1    419
   937   1182    396  1    419
   937    396    394  1    419
   396   1182    942  1    419
   399    408    405  1    419
  1184   1183   1186  1    420
  1184   1186    411  1    420
  1184    411    952  1    420
  1184    952   1185  1    420
  1184   1185    947  1    420
  1184    947    949  1    420
  1184    949   1183  1    420
  1183    949    325  1    420
  1183    325    326  1    420
  1183    326   1186  1    420
  1186    326    417  1    420
  1186    417    414  1    420
  1186    414    411  1    420
   947   1185    945  1    420
   945   1185    950  1    420
   945    950    409  1    420
   950   1185    952  1    420
   329    332   1187  1    421
   329   1187    328  1    421
   328   1187    418  1    421
   418   1187    332  1    421
  1188   1189   1190  1    422
  1189   1191   1192  1    422
  1190   1189   1192  1    422
  1190   1192    962  1    422
  1190    962    960  1    422
  1190    960    958  1    422
  1190    958   1188  1    422
  1188    958    415  1    422
  1188    415    416  1    422
  1188    416   1189  1    422
  1189    416    334  1    422
  1189    334   1191  1    422
  1191    334    335  1    422
  1191    335    966  1    422
  1191    966   1192  1    422
  1192    966    964  1    422
  1192    964    962  1    422
   831    341   1198  1    423
   831   1198   1197  1    423
   831   1197    338  1    423
   338   1197    967  1    423
   338    967    337  1    423
   967   1197   1199  1    423
   967   1199    965  1    423
   965   1199    845  1    423
   965    845    847  1    423
   965    847    963  1    423
   963    847    849  1    423
   963    849    961  1    423
   961    849   1196  1    423
   961   1196   1194  1    423
   961   1194    959  1    423
   959   1194   1193  1    423
   959   1193    413  1    423
   413   1193    412  1    423
   412   1193    968  1    423
   968   1193   1194  1    423
   968   1194    970  1    423
   970   1194   1195  1    423
   970   1195    972  1    423
   972   1195    851  1    423
   972    851    420  1    423
   420    851    347  1    423
   851   1195   1194  1    423
   851   1194   1196  1    423
   851   1196    849  1    423
   845   1199    344  1    423
   344   1199   1198  1    423
   344   1198    341  1    423
  1198   1199   1197  1    423
   888    359   1200  1    424
   888   1200    349  1    424
   888    349    350  1    424
   349   1200    421  1    424
   421   1200    974  1    424
   974   1200    976  1    424
   974    976    423  1    424
   976   1200    359  1    424
   426    403    429  1    425
  1202   1201   1203  1    425
  1202   1203   1204  1    425
  1202   1204    901  1    425
  1202    901    365  1    425
  1202    365    429  1    425
  1202    429    403  1    425
  1202    403   1201  1    425
  1201    403    404  1    425
  1201    404    424  1    425
  1201    424   1203  1    425
  1203    424    977  1    425
  1203    977    899  1    425
  1203    899   1204  1    425
  1204    899    901  1    425
   899    977    361  1    425
   899    361    362  1    425
   368    371   1206  1    426
   368   1206    367  1    426
   367   1206    430  1    426
   430   1206   1205  1    426
   430   1205    980  1    426
   980   1205    982  1    426
   982   1205   1206  1    426
   982   1206    374  1    426
   374   1206    371  1    426
   398    427    943  1    427
   377    380   1208  1    427
   377   1208    983  1    427
   377    983    376  1    427
   983   1208    981  1    427
   981   1208   1207  1    427
   981   1207    943  1    427
   981    943    427  1    427
   981    427    428  1    427
   943   1207    397  1    427
   397   1207    984  1    427
   984   1207   1208  1    427
   984   1208    380  1    427
   383    386    985  1    428
   383    985    382  1    428
   985    386    392  1    428
   985    392    395  1    428
   400    401    425  1    429
   953    410    969  1    430
   953    969   1209  1    430
   953   1209    951  1    430
   951   1209    407  1    430
   407   1209    422  1    430
   407    422    406  1    430
   422   1209   1210  1    430
   422   1210    975  1    430
   975   1210    973  1    430
   975    973    419  1    430
   973   1210    971  1    430
   971   1210   1209  1    430
   971   1209    969  1    430
