# MSMS solvent excluded surface faces for fragments/fragment190.xyzr
#faces  #sphere density probe_r
   2140      62  3.00  1.50
     1    352    351  3      3
   351    352    353  3      3
   351    353      2  3      3
     2    353    354  3      3
   352      5    353  3      3
   353      5    355  3      3
   353    355    354  3      3
   354    355      4  3      3
     5      8    356  3      5
   356      8    357  3      5
   356    357      6  3      5
     6    357      7  3      5
     8    358      9  3      7
     9    358    359  3      7
   358    360    359  3      7
   359    360    361  3      7
   360    362    361  3      7
   361    362    363  3      7
   362    364    363  3      7
   363    364    365  3      7
   364    366    365  3      7
   365    366    367  3      7
   366    368    367  3      7
   367    368    369  3      7
   368    370    369  3      7
   369    370    371  3      7
   370     11    371  3      7
   371     11     10  3      7
    11    373    372  3      9
   372    373    374  3      9
   372    374     12  3      9
    12    374    375  3      9
   373     14    374  3      9
   374     14    376  3      9
   374    376    375  3      9
   375    376     13  3      9
    14      1    377  3     10
   377      1    379  3     10
   377    379    378  3     10
   378    379    380  3     10
   378    380     15  3     10
    15    380      3  3     10
    15     17    381  3     12
   381     17    382  3     12
   381    382     13  3     12
    13    382     16  3     12
    17     20    383  3     14
   383     20    384  3     14
   383    384     18  3     14
    18    384     19  3     14
    20     23    385  3     16
   385     23    386  3     16
   385    386     21  3     16
    21    386     22  3     16
    23     26    387  3     18
   387     26    388  3     18
   387    388     24  3     18
    24    388     25  3     18
    26    389     27  3     20
    27    389    390  3     20
   389    391    390  3     20
   390    391    392  3     20
   391    393    392  3     20
   392    393    394  3     20
   393    395    394  3     20
   394    395    396  3     20
   395     29    396  3     20
   396     29     28  3     20
    29    397     30  3     21
    30    397    398  3     21
   397      3    398  3     21
   398      3      2  3     21
    30     32     28  3     23
    28     32     31  3     23
    32    400    399  3     25
   399    400    401  3     25
   399    401     33  3     25
    33    401    402  3     25
   400     35    401  3     25
   401     35    403  3     25
   401    403    402  3     25
   402    403     34  3     25
    35    404     36  3     27
    36    404    405  3     27
   404     38    405  3     27
   405     38     37  3     27
    38     41    406  3     29
   406     41    407  3     29
   406    407     39  3     29
    39    407     40  3     29
    41     44    408  3     31
   408     44    409  3     31
   408    409     42  3     31
    42    409     43  3     31
    44    410     45  3     32
    45    410    411  3     32
   410    412    411  3     32
   411    412    413  3     32
   412      4    413  3     32
   413      4      6  3     32
    45    415    414  3     33
   414    415    416  3     33
   414    416     43  3     33
    43    416    417  3     33
   415      7    416  3     33
   416      7    418  3     33
   416    418    417  3     33
   417    418      9  3     33
    42     47     40  3     35
    40     47     46  3     35
    47     50     48  3     37
    48     50     49  3     37
    50    419     51  3     39
    51    419    420  3     39
   419    421    420  3     39
   420    421    422  3     39
   421    423    422  3     39
   422    423    424  3     39
   423    425    424  3     39
   424    425    426  3     39
   425    427    426  3     39
   426    427    428  3     39
   427    429    428  3     39
   428    429    430  3     39
   429     53    430  3     39
   430     53     52  3     39
    53     56    431  3     41
   431     56    433  3     41
   431    433    432  3     41
   432    433    434  3     41
   432    434     54  3     41
    54    434     55  3     41
    56     59    435  3     43
   435     59    437  3     43
   435    437    436  3     43
   436    437    438  3     43
   436    438     57  3     43
    57    438     58  3     43
    59     62     60  3     45
    60     62     61  3     45
    62     10    439  3     46
   439     10    440  3     46
   439    440     63  3     46
    63    440     12  3     46
    63    441     61  3     47
    61    441    442  3     47
   441     16    442  3     47
   442     16     18  3     47
    60    445    443  3     49
   443    445    446  3     49
   443    446    444  3     49
   444    446    447  3     49
   444    447     58  3     49
    58    447    448  3     49
   445     65    446  3     49
   446     65    449  3     49
   446    449    447  3     49
   447    449    450  3     49
   447    450    448  3     49
   448    450     64  3     49
    65     68     66  3     51
    66     68     67  3     51
    68    451     69  3     52
    69    451    452  3     52
   451     19    452  3     52
   452     19     21  3     52
    69     71     67  3     54
    67     71     70  3     54
    71     74    453  3     56
   453     74    455  3     56
   453    455    454  3     56
   454    455    456  3     56
   454    456     72  3     56
    72    456     73  3     56
    74    457     75  3     58
    75    457    458  3     58
   457     77    458  3     58
   458     77     76  3     58
    77    459     78  3     59
    78    459    460  3     59
   459     22    460  3     59
   460     22     24  3     59
    78     80     76  3     61
    76     80     79  3     61
    80     83     81  3     63
    81     83     82  3     63
    83     86    461  3     65
   461     86    462  3     65
   461    462     84  3     65
    84    462     85  3     65
    86     25    463  3     66
   463     25    464  3     66
   463    464     87  3     66
    87    464     27  3     66
    87    466    465  3     68
   465    466    467  3     68
   465    467     85  3     68
    85    467    468  3     68
   466     89    467  3     68
   467     89    469  3     68
   467    469    468  3     68
   468    469     88  3     68
    89     31    470  3     69
   470     31    471  3     69
   470    471     90  3     69
    90    471     33  3     69
    90    472     88  3     71
    88    472    473  3     71
   472    474    473  3     71
   473    474    475  3     71
   474    476    475  3     71
   475    476    477  3     71
   476     92    477  3     71
   477     92     91  3     71
    92    478     93  3     72
    93    478    479  3     72
   478    480    479  3     72
   479    480    481  3     72
   480     34    481  3     72
   481     34     36  3     72
    93     95     91  3     74
    91     95     94  3     74
    95     98     96  3     76
    96     98     97  3     76
    98    101    482  3     78
   482    101    485  3     78
   482    485    483  3     78
   483    485    486  3     78
   483    486    484  3     78
   484    486    487  3     78
   484    487     99  3     78
    99    487    100  3     78
   101    104    488  3     80
   488    104    490  3     80
   488    490    489  3     80
   489    490    491  3     80
   489    491    102  3     80
   102    491    103  3     80
   104    492    105  3     82
   105    492    493  3     82
   492    107    493  3     82
   493    107    106  3     82
   107     37    494  3     83
   494     37    495  3     83
   494    495    108  3     83
   108    495     39  3     83
   108    110    496  3     85
   496    110    497  3     85
   496    497    106  3     85
   106    497    109  3     85
   110    113    498  3     87
   498    113    500  3     87
   498    500    499  3     87
   499    500    501  3     87
   499    501    111  3     87
   111    501    112  3     87
   113    502    114  3     89
   114    502    503  3     89
   502    116    503  3     89
   503    116    115  3     89
   116     46    117  3     90
   117     46     48  3     90
   117    504    115  3     92
   115    504    505  3     92
   504    506    505  3     92
   505    506    507  3     92
   506    119    507  3     92
   507    119    118  3     92
   119    508    120  3     94
   120    508    509  3     94
   508    510    509  3     94
   509    510    511  3     94
   510    512    511  3     94
   511    512    513  3     94
   512    122    513  3     94
   513    122    121  3     94
   122    514    123  3     95
   123    514    515  3     95
   514     49    515  3     95
   515     49     51  3     95
   123    125    121  3     97
   121    125    124  3     97
   125    517    516  3     99
   516    517    518  3     99
   516    518    126  3     99
   126    518    519  3     99
   517    520    518  3     99
   518    520    521  3     99
   518    521    519  3     99
   519    521    522  3     99
   520    128    521  3     99
   521    128    523  3     99
   521    523    522  3     99
   522    523    127  3     99
   128    131    129  3    101
   129    131    130  3    101
   131    134    132  3    103
   132    134    133  3    103
   134     52    524  3    104
   524     52    526  3    104
   524    526    525  3    104
   525    526    527  3    104
   525    527    135  3    104
   135    527     54  3    104
   135    137    528  3    106
   528    137    529  3    106
   528    529    133  3    106
   133    529    136  3    106
   137    140    530  3    108
   530    140    531  3    108
   530    531    138  3    108
   138    531    139  3    108
   140    143    141  3    110
   141    143    142  3    110
   143    146    144  3    112
   144    146    145  3    112
   146    149    147  3    114
   147    149    148  3    114
   149     55    532  3    115
   532     55    533  3    115
   532    533    150  3    115
   150    533     57  3    115
   150    534    148  3    117
   148    534    535  3    117
   534    536    535  3    117
   535    536    537  3    117
   536    152    537  3    117
   537    152    151  3    117
   152    539    538  3    119
   538    539    540  3    119
   538    540    153  3    119
   153    540    541  3    119
   539    155    540  3    119
   540    155    542  3    119
   540    542    541  3    119
   541    542    154  3    119
   155    158    543  3    121
   543    158    544  3    121
   543    544    156  3    121
   156    544    157  3    121
   158    161    545  3    123
   545    161    547  3    123
   545    547    546  3    123
   546    547    548  3    123
   546    548    159  3    123
   159    548    160  3    123
   161     64    549  3    124
   549     64    551  3    124
   549    551    550  3    124
   550    551    552  3    124
   550    552    162  3    124
   162    552     66  3    124
   162     70    553  3    125
   553     70    555  3    125
   553    555    554  3    125
   554    555    556  3    125
   554    556    160  3    125
   160    556     72  3    125
   159    164    157  3    127
   157    164    163  3    127
   164    167    557  3    129
   557    167    558  3    129
   557    558    165  3    129
   165    558    166  3    129
   167    170    168  3    131
   168    170    169  3    131
   170    173    559  3    133
   559    173    560  3    133
   559    560    171  3    133
   171    560    172  3    133
   173    561    174  3    135
   174    561    562  3    135
   561    563    562  3    135
   562    563    564  3    135
   563    176    564  3    135
   564    176    175  3    135
   176     73    565  3    136
   565     73    566  3    136
   565    566    177  3    136
   177    566     75  3    136
   177    568    567  3    138
   567    568    569  3    138
   567    569    175  3    138
   175    569    570  3    138
   568    179    569  3    138
   569    179    571  3    138
   569    571    570  3    138
   570    571    178  3    138
   179    182    572  3    140
   572    182    573  3    140
   572    573    180  3    140
   180    573    181  3    140
   182    185    574  3    142
   574    185    575  3    142
   574    575    183  3    142
   183    575    184  3    142
   185    576    186  3    144
   186    576    577  3    144
   576    188    577  3    144
   577    188    187  3    144
   188    191    578  3    146
   578    191    579  3    146
   578    579    189  3    146
   189    579    190  3    146
   191     79    192  3    147
   192     79     81  3    147
   192     82    190  3    148
   190     82     84  3    148
   189    194    580  3    150
   580    194    581  3    150
   580    581    187  3    150
   187    581    193  3    150
   194     94    582  3    151
   582     94    583  3    151
   582    583    195  3    151
   195    583     96  3    151
   195    197    193  3    153
   193    197    196  3    153
   197     97    584  3    154
   584     97    585  3    154
   584    585    198  3    154
   198    585     99  3    154
   198    587    586  3    155
   586    587    588  3    155
   586    588    196  3    155
   196    588    589  3    155
   587    184    588  3    155
   588    184    590  3    155
   588    590    589  3    155
   589    590    186  3    155
   183    592    591  3    157
   591    592    593  3    157
   591    593    181  3    157
   181    593    594  3    157
   592    200    593  3    157
   593    200    595  3    157
   593    595    594  3    157
   594    595    199  3    157
   200    596    201  3    159
   201    596    597  3    159
   596    203    597  3    159
   597    203    202  3    159
   203    206    598  3    161
   598    206    599  3    161
   598    599    204  3    161
   204    599    205  3    161
   206    600    207  3    162
   207    600    601  3    162
   600    100    601  3    162
   601    100    102  3    162
   207    602    205  3    164
   205    602    603  3    164
   602    209    603  3    164
   603    209    208  3    164
   209    103    604  3    165
   604    103    606  3    165
   604    606    605  3    165
   605    606    607  3    165
   605    607    210  3    165
   210    607    105  3    165
   210    109    608  3    166
   608    109    611  3    166
   608    611    609  3    166
   609    611    612  3    166
   609    612    610  3    166
   610    612    613  3    166
   610    613    208  3    166
   208    613    111  3    166
   204    212    202  3    168
   202    212    211  3    168
   212    215    614  3    170
   614    215    617  3    170
   614    617    615  3    170
   615    617    618  3    170
   615    618    616  3    170
   616    618    619  3    170
   616    619    213  3    170
   213    619    214  3    170
   215    218    620  3    172
   620    218    623  3    172
   620    623    621  3    172
   621    623    624  3    172
   621    624    622  3    172
   622    624    625  3    172
   622    625    216  3    172
   216    625    217  3    172
   218    221    626  3    174
   626    221    629  3    174
   626    629    627  3    174
   627    629    630  3    174
   627    630    628  3    174
   628    630    631  3    174
   628    631    219  3    174
   219    631    220  3    174
   221    224    632  3    176
   632    224    634  3    176
   632    634    633  3    176
   633    634    635  3    176
   633    635    222  3    176
   222    635    223  3    176
   224    638    636  3    177
   636    638    639  3    177
   636    639    637  3    177
   637    639    640  3    177
   637    640    225  3    177
   225    640    641  3    177
   638    112    639  3    177
   639    112    642  3    177
   639    642    640  3    177
   640    642    643  3    177
   640    643    641  3    177
   641    643    114  3    177
   225    227    223  3    179
   223    227    226  3    179
   227    230    644  3    181
   644    230    645  3    181
   644    645    228  3    181
   228    645    229  3    181
   230    118    231  3    182
   231    118    120  3    182
   231    646    229  3    184
   229    646    647  3    184
   646    648    647  3    184
   647    648    649  3    184
   648    233    649  3    184
   649    233    232  3    184
   233    236    650  3    186
   650    236    651  3    186
   650    651    234  3    186
   234    651    235  3    186
   236    652    237  3    187
   237    652    653  3    187
   652    654    653  3    187
   653    654    655  3    187
   654    656    655  3    187
   655    656    657  3    187
   656    124    657  3    187
   657    124    126  3    187
   237    660    658  3    189
   658    660    661  3    189
   658    661    659  3    189
   659    661    662  3    189
   659    662    235  3    189
   235    662    663  3    189
   660    239    661  3    189
   661    239    664  3    189
   661    664    662  3    189
   662    664    665  3    189
   662    665    663  3    189
   663    665    238  3    189
   239    127    240  3    190
   240    127    129  3    190
   240    242    666  3    192
   666    242    667  3    192
   666    667    238  3    192
   238    667    241  3    192
   242    130    243  3    193
   243    130    132  3    193
   243    136    668  3    194
   668    136    670  3    194
   668    670    669  3    194
   669    670    671  3    194
   669    671    241  3    194
   241    671    138  3    194
   234    245    672  3    196
   672    245    673  3    196
   672    673    232  3    196
   232    673    244  3    196
   245    248    246  3    198
   246    248    247  3    198
   248    674    249  3    200
   249    674    675  3    200
   674    251    675  3    200
   675    251    250  3    200
   251    676    252  3    201
   252    676    677  3    201
   676    678    677  3    201
   677    678    679  3    201
   678    680    679  3    201
   679    680    681  3    201
   680    682    681  3    201
   681    682    683  3    201
   682    139    683  3    201
   683    139    141  3    201
   252    684    250  3    203
   250    684    685  3    203
   684    686    685  3    203
   685    686    687  3    203
   686    688    687  3    203
   687    688    689  3    203
   688    690    689  3    203
   689    690    691  3    203
   690    254    691  3    203
   691    254    253  3    203
   254    257    255  3    205
   255    257    256  3    205
   257    260    258  3    207
   258    260    259  3    207
   260    692    261  3    208
   261    692    693  3    208
   692    142    693  3    208
   693    142    144  3    208
   261    694    259  3    209
   259    694    695  3    209
   694    145    695  3    209
   695    145    147  3    209
   258    263    256  3    211
   256    263    262  3    211
   263    266    264  3    213
   264    266    265  3    213
   266    696    267  3    215
   267    696    697  3    215
   696    269    697  3    215
   697    269    268  3    215
   269    151    698  3    216
   698    151    699  3    216
   698    699    270  3    216
   270    699    153  3    216
   270    700    268  3    217
   268    700    701  3    217
   700    166    701  3    217
   701    166    168  3    217
   267    272    265  3    219
   265    272    271  3    219
   272    275    273  3    221
   273    275    274  3    221
   275    702    276  3    223
   276    702    703  3    223
   702    278    703  3    223
   703    278    277  3    223
   278    704    279  3    224
   279    704    705  3    224
   704    169    705  3    224
   705    169    171  3    224
   279    706    277  3    226
   277    706    707  3    226
   706    281    707  3    226
   707    281    280  3    226
   281    708    282  3    228
   282    708    709  3    228
   708    710    709  3    228
   709    710    711  3    228
   710    284    711  3    228
   711    284    283  3    228
   284    712    285  3    230
   285    712    713  3    230
   712    287    713  3    230
   713    287    286  3    230
   287    172    714  3    231
   714    172    715  3    231
   714    715    288  3    231
   288    715    174  3    231
   288    717    716  3    233
   716    717    718  3    233
   716    718    286  3    233
   286    718    719  3    233
   717    290    718  3    233
   718    290    720  3    233
   718    720    719  3    233
   719    720    289  3    233
   290    178    721  3    234
   721    178    722  3    234
   721    722    291  3    234
   291    722    180  3    234
   291    293    723  3    236
   723    293    724  3    236
   723    724    289  3    236
   289    724    292  3    236
   293    296    294  3    238
   294    296    295  3    238
   296    299    725  3    240
   725    299    726  3    240
   725    726    297  3    240
   297    726    298  3    240
   299    302    727  3    242
   727    302    728  3    242
   727    728    300  3    242
   300    728    301  3    242
   302    199    303  3    243
   303    199    201  3    243
   303    305    729  3    245
   729    305    731  3    245
   729    731    730  3    245
   730    731    732  3    245
   730    732    301  3    245
   301    732    304  3    245
   305    211    733  3    246
   733    211    737  3    246
   733    737    734  3    246
   734    737    738  3    246
   734    738    735  3    246
   735    738    739  3    246
   735    739    736  3    246
   736    739    740  3    246
   736    740    306  3    246
   306    740    213  3    246
   306    742    741  3    248
   741    742    743  3    248
   741    743    304  3    248
   304    743    744  3    248
   742    308    743  3    248
   743    308    745  3    248
   743    745    744  3    248
   744    745    307  3    248
   308    747    746  3    250
   746    747    748  3    250
   746    748    309  3    250
   309    748    749  3    250
   747    311    748  3    250
   748    311    750  3    250
   748    750    749  3    250
   749    750    310  3    250
   311    751    312  3    252
   312    751    752  3    252
   751    753    752  3    252
   752    753    754  3    252
   753    755    754  3    252
   754    755    756  3    252
   755    757    756  3    252
   756    757    758  3    252
   757    314    758  3    252
   758    314    313  3    252
   314    317    759  3    254
   759    317    760  3    254
   759    760    315  3    254
   315    760    316  3    254
   317    214    318  3    255
   318    214    216  3    255
   318    217    316  3    256
   316    217    219  3    256
   315    761    313  3    258
   313    761    762  3    258
   761    763    762  3    258
   762    763    764  3    258
   763    765    764  3    258
   764    765    766  3    258
   765    767    766  3    258
   766    767    768  3    258
   767    320    768  3    258
   768    320    319  3    258
   320    323    769  3    260
   769    323    771  3    260
   769    771    770  3    260
   770    771    772  3    260
   770    772    321  3    260
   321    772    322  3    260
   323    326    773  3    262
   773    326    776  3    262
   773    776    774  3    262
   774    776    777  3    262
   774    777    775  3    262
   775    777    778  3    262
   775    778    324  3    262
   324    778    325  3    262
   326    781    779  3    264
   779    781    782  3    264
   779    782    780  3    264
   780    782    783  3    264
   780    783    327  3    264
   327    783    784  3    264
   781    329    782  3    264
   782    329    785  3    264
   782    785    783  3    264
   783    785    786  3    264
   783    786    784  3    264
   784    786    328  3    264
   222    330    332  3    265
   329    220    331  3    266
   330    334    787  3    268
   787    334    788  3    268
   787    788    328  3    268
   328    788    333  3    268
   334    226    789  3    269
   789    226    790  3    269
   789    790    335  3    269
   335    790    228  3    269
   335    793    791  3    271
   791    793    794  3    271
   791    794    792  3    271
   792    794    795  3    271
   792    795    333  3    271
   333    795    796  3    271
   793    337    794  3    271
   794    337    797  3    271
   794    797    795  3    271
   795    797    798  3    271
   795    798    796  3    271
   796    798    336  3    271
   337    244    799  3    272
   799    244    800  3    272
   799    800    338  3    272
   338    800    246  3    272
   338    247    336  3    273
   336    247    249  3    273
   327    801    325  3    274
   325    801    802  3    274
   801    803    802  3    274
   802    803    804  3    274
   803    322    804  3    274
   804    322    324  3    274
   321    340    805  3    276
   805    340    808  3    276
   805    808    806  3    276
   806    808    809  3    276
   806    809    807  3    276
   807    809    810  3    276
   807    810    319  3    276
   319    810    339  3    276
   340    811    341  3    277
   341    811    812  3    277
   811    813    812  3    277
   812    813    814  3    277
   813    815    814  3    277
   814    815    816  3    277
   815    817    816  3    277
   816    817    818  3    277
   817    253    818  3    277
   818    253    255  3    277
   341    343    819  3    279
   819    343    821  3    279
   819    821    820  3    279
   820    821    822  3    279
   820    822    339  3    279
   339    822    342  3    279
   343    346    823  3    281
   823    346    825  3    281
   823    825    824  3    281
   824    825    826  3    281
   824    826    344  3    281
   344    826    345  3    281
   346    274    827  3    282
   827    274    828  3    282
   827    828    347  3    282
   347    828    276  3    282
   347    280    345  3    283
   345    280    282  3    283
   344    830    829  3    284
   829    830    831  3    284
   829    831    342  3    284
   342    831    832  3    284
   830    833    831  3    284
   831    833    834  3    284
   831    834    832  3    284
   832    834    835  3    284
   833    836    834  3    284
   834    836    837  3    284
   834    837    835  3    284
   835    837    838  3    284
   836    310    837  3    284
   837    310    839  3    284
   837    839    838  3    284
   838    839    312  3    284
   309    840    307  3    285
   307    840    841  3    285
   840    298    841  3    285
   841    298    300  3    285
   297    349    295  3    287
   295    349    348  3    287
   349    283    350  3    288
   350    283    285  3    288
   350    292    348  3    289
   348    292    294  3    289
   273    262    271  3    290
   271    262    264  3    290
   165    154    163  3    291
   163    154    156  3    291
   379      1    351  2      1
   379    351    380  2      1
   380    351      2  2      1
   380      2      3  2      1
     6      4    356  2      2
   356      4    355  2      2
   356    355      5  2      2
   418      7    357  2      4
   418    357      9  2      4
     9    357      8  2      4
   440     10    372  2      6
   440    372     12  2      6
   372     10     11  2      6
   381     13    844  2      8
   381    844    378  2      8
   381    378     15  2      8
   378    844    377  2      8
   377    844    376  2      8
   377    376     14  2      8
   376    844     13  2      8
    18     16    382  2     11
    18    382    383  2     11
   383    382     17  2     11
    21     19    385  2     13
   385     19    384  2     13
   385    384     20  2     13
    24     22    387  2     15
   387     22    386  2     15
   387    386     23  2     15
   464     25    388  2     17
   464    388     26  2     17
   464     26     27  2     17
    30     28     29  2     19
   471     31     32  2     22
   471     32    399  2     22
   471    399     33  2     22
    36     34    403  2     24
    36    403     35  2     24
   495     37     38  2     26
   495     38    406  2     26
   495    406     39  2     26
    42     40    407  2     28
    42    407    408  2     28
   408    407     41  2     28
   414     43    409  2     30
   414    409     44  2     30
   414     44     45  2     30
    48     46     47  2     34
    51     49     50  2     36
   526     52    431  2     38
   526    431    432  2     38
   526    432    527  2     38
   527    432     54  2     38
   431     52     53  2     38
   533     55    845  2     40
   533    845    436  2     40
   533    436     57  2     40
   436    845    846  2     40
   436    846    435  2     40
   435    846    433  2     40
   435    433     56  2     40
   433    846    434  2     40
   434    846    845  2     40
   434    845     55  2     40
   444     58    438  2     42
   444    438    847  2     42
   444    847    443  2     42
   443    847    848  2     42
   443    848     60  2     42
    60    848     59  2     42
    59    848    437  2     42
   437    848    847  2     42
   437    847    438  2     42
    63     61    439  2     44
   439     61     62  2     44
   551     64    450  2     48
   551    450    449  2     48
   551    449    552  2     48
   552    449     65  2     48
   552     65     66  2     48
    69     67     68  2     50
   555     70    453  2     53
   555    453    454  2     53
   555    454    556  2     53
   556    454     72  2     53
   453     70     71  2     53
   566     73    456  2     55
   566    456    455  2     55
   566    455     75  2     55
    75    455     74  2     55
    78     76     77  2     57
    81     79     80  2     60
    84     82    461  2     62
   461     82     83  2     62
   465     85    462  2     64
   465    462    463  2     64
   465    463     87  2     64
   463    462     86  2     64
    90     88    470  2     67
   470     88    469  2     67
   470    469     89  2     67
    93     91     92  2     70
   583     94     95  2     73
   583     95     96  2     73
   585     97    483  2     75
   585    483    484  2     75
   585    484     99  2     75
   483     97    482  2     75
   482     97     98  2     75
   102    100    487  2     77
   102    487    489  2     77
   489    487    486  2     77
   489    486    488  2     77
   488    486    485  2     77
   488    485    101  2     77
   606    103    491  2     79
   606    491    607  2     79
   607    491    490  2     79
   607    490    105  2     79
   105    490    104  2     79
   496    106    107  2     81
   496    107    494  2     81
   496    494    108  2     81
   611    109    497  2     84
   611    497    850  2     84
   611    850    612  2     84
   612    850    849  2     84
   612    849    613  2     84
   613    849    499  2     84
   613    499    111  2     84
   499    849    498  2     84
   498    849    850  2     84
   498    850    110  2     84
   110    850    497  2     84
   642    112    501  2     86
   642    501    500  2     86
   642    500    643  2     86
   643    500    113  2     86
   643    113    114  2     86
   117    115    116  2     88
   120    118    119  2     91
   123    121    122  2     93
   126    124    516  2     96
   516    124    125  2     96
   129    127    523  2     98
   129    523    128  2     98
   132    130    131  2    100
   528    133    524  2    102
   528    524    525  2    102
   528    525    135  2    102
   524    133    134  2    102
   670    136    529  2    105
   670    529    671  2    105
   671    529    530  2    105
   671    530    138  2    105
   530    529    137  2    105
   141    139    531  2    107
   141    531    140  2    107
   144    142    143  2    109
   147    145    146  2    111
   150    148    532  2    113
   532    148    149  2    113
   699    151    538  2    116
   699    538    153  2    116
   538    151    152  2    116
   156    154    542  2    118
   156    542    543  2    118
   543    542    155  2    118
   159    157    546  2    120
   546    157    545  2    120
   545    157    544  2    120
   545    544    158  2    120
   852    851    853  2    122
   554    160    851  2    122
   554    851    852  2    122
   554    852    553  2    122
   553    852    162  2    122
   162    852    550  2    122
   550    852    853  2    122
   550    853    549  2    122
   549    853    547  2    122
   549    547    161  2    122
   547    853    851  2    122
   547    851    548  2    122
   548    851    160  2    122
   165    163    557  2    126
   557    163    164  2    126
   168    166    558  2    128
   168    558    167  2    128
   171    169    559  2    130
   559    169    170  2    130
   715    172    560  2    132
   715    560    174  2    132
   174    560    173  2    132
   567    175    565  2    134
   567    565    177  2    134
   565    175    176  2    134
   722    178    571  2    137
   722    571    572  2    137
   722    572    180  2    137
   572    571    179  2    137
   591    181    573  2    139
   591    573    574  2    139
   591    574    183  2    139
   574    573    182  2    139
   590    184    575  2    141
   590    575    185  2    141
   590    185    186  2    141
   580    187    188  2    143
   580    188    578  2    143
   580    578    189  2    143
   192    190    579  2    145
   192    579    191  2    145
   195    193    581  2    149
   195    581    582  2    149
   582    581    194  2    149
   586    196    197  2    152
   586    197    584  2    152
   586    584    198  2    152
   201    199    595  2    156
   201    595    200  2    156
   204    202    598  2    158
   598    202    203  2    158
   207    205    599  2    160
   207    599    206  2    160
   610    208    209  2    163
   610    209    604  2    163
   610    604    609  2    163
   609    604    605  2    163
   609    605    608  2    163
   608    605    210  2    163
   737    211    854  2    167
   737    854    738  2    167
   738    854    614  2    167
   738    614    615  2    167
   738    615    739  2    167
   739    615    616  2    167
   739    616    740  2    167
   740    616    213  2    167
   614    854    212  2    167
   212    854    211  2    167
   216    214    619  2    169
   216    619    622  2    169
   622    619    618  2    169
   622    618    621  2    169
   621    618    617  2    169
   621    617    620  2    169
   620    617    215  2    169
   219    217    628  2    171
   628    217    625  2    171
   628    625    627  2    171
   627    625    624  2    171
   627    624    626  2    171
   626    624    623  2    171
   626    623    218  2    171
   855    856    859  2    173
   859    856    860  2    173
   857    855    861  2    173
   861    855    858  2    173
   858    855    859  2    173
   858    859    863  2    173
   863    859    864  2    173
   859    860    864  2    173
   861    858    865  2    173
   865    858    862  2    173
   862    858    863  2    173
   862    863    866  2    173
   866    863    867  2    173
   863    864    867  2    173
   867    864    868  2    173
   865    862    866  2    173
   866    867    869  2    173
   331    220    857  2    173
   331    857    861  2    173
   331    861    842  2    173
   842    861    865  2    173
   842    865    843  2    173
   843    865    866  2    173
   843    866    332  2    173
   332    866    869  2    173
   332    869    222  2    173
   222    869    633  2    173
   633    869    867  2    173
   633    867    868  2    173
   633    868    632  2    173
   632    868    221  2    173
   221    868    864  2    173
   221    864    860  2    173
   221    860    629  2    173
   629    860    630  2    173
   630    860    856  2    173
   630    856    631  2    173
   631    856    855  2    173
   631    855    857  2    173
   631    857    220  2    173
   225    223    635  2    175
   225    635    637  2    175
   637    635    634  2    175
   637    634    636  2    175
   636    634    224  2    175
   790    226    227  2    178
   790    227    644  2    178
   790    644    228  2    178
   231    229    645  2    180
   231    645    230  2    180
   672    232    233  2    183
   672    233    650  2    183
   672    650    234  2    183
   659    235    651  2    185
   659    651    658  2    185
   658    651    236  2    185
   658    236    237  2    185
   666    238    665  2    188
   666    665    664  2    188
   666    664    240  2    188
   240    664    239  2    188
   669    241    667  2    191
   669    667    668  2    191
   668    667    242  2    191
   668    242    243  2    191
   800    244    673  2    195
   800    673    246  2    195
   246    673    245  2    195
   249    247    248  2    197
   252    250    251  2    199
   255    253    254  2    202
   258    256    257  2    204
   261    259    260  2    206
   264    262    263  2    210
   267    265    266  2    212
   270    268    698  2    214
   698    268    269  2    214
   273    271    272  2    218
   828    274    275  2    220
   828    275    276  2    220
   279    277    278  2    222
   282    280    281  2    225
   285    283    284  2    227
   716    286    287  2    229
   716    287    714  2    229
   716    714    288  2    229
   723    289    720  2    232
   723    720    721  2    232
   723    721    291  2    232
   721    720    290  2    232
   294    292    724  2    235
   294    724    293  2    235
   297    295    725  2    237
   725    295    296  2    237
   300    298    727  2    239
   727    298    726  2    239
   727    726    299  2    239
   730    301    728  2    241
   730    728    729  2    241
   729    728    302  2    241
   729    302    303  2    241
   741    304    870  2    244
   741    870    736  2    244
   741    736    306  2    244
   736    870    735  2    244
   735    870    871  2    244
   735    871    734  2    244
   734    871    732  2    244
   734    732    731  2    244
   734    731    733  2    244
   733    731    305  2    244
   732    871    304  2    244
   304    871    870  2    244
   309    307    745  2    247
   309    745    746  2    247
   746    745    308  2    247
   839    310    750  2    249
   839    750    312  2    249
   312    750    311  2    249
   315    313    759  2    251
   759    313    314  2    251
   318    316    760  2    253
   318    760    317  2    253
   807    319    320  2    257
   807    320    769  2    257
   807    769    806  2    257
   806    769    770  2    257
   806    770    805  2    257
   805    770    321  2    257
   324    322    775  2    259
   775    322    772  2    259
   775    772    774  2    259
   774    772    771  2    259
   774    771    773  2    259
   773    771    323  2    259
   327    325    778  2    261
   327    778    780  2    261
   780    778    777  2    261
   780    777    779  2    261
   779    777    776  2    261
   779    776    326  2    261
   787    328    873  2    263
   787    873    332  2    263
   787    332    330  2    263
   332    873    843  2    263
   843    873    872  2    263
   843    872    842  2    263
   842    872    786  2    263
   842    786    785  2    263
   842    785    331  2    263
   331    785    329  2    263
   786    872    328  2    263
   328    872    873  2    263
   792    333    788  2    267
   792    788    874  2    267
   792    874    791  2    267
   791    874    789  2    267
   791    789    335  2    267
   789    874    334  2    267
   334    874    788  2    267
   338    336    798  2    270
   338    798    799  2    270
   799    798    797  2    270
   799    797    337  2    270
   820    339    810  2    275
   820    810    809  2    275
   820    809    819  2    275
   819    809    808  2    275
   819    808    341  2    275
   341    808    340  2    275
   829    342    822  2    278
   829    822    824  2    278
   829    824    344  2    278
   824    822    821  2    278
   824    821    823  2    278
   823    821    343  2    278
   347    345    826  2    280
   347    826    827  2    280
   827    826    825  2    280
   827    825    346  2    280
   350    348    349  2    286
   877    876    883  1    292
   878    877    883  1    292
   875    877    878  1    292
   879    878    884  1    292
   880    879    884  1    292
   881    880    884  1    292
   882    881    884  1    292
   883    882    884  1    292
   878    883    884  1    292
   883    876    364  1    292
   883    364    882  1    292
   882    364    362  1    292
   882    362    360  1    292
   882    360    881  1    292
   881    360    358  1    292
   881    358      5  1    292
   881      5    880  1    292
   880      5    352  1    292
   880    352      1  1    292
   880      1    879  1    292
   879      1     14  1    292
   879     14    878  1    292
   878     14    875  1    292
   875     14    373  1    292
   875    373     11  1    292
   875     11    370  1    292
   875    370    877  1    292
   877    370    368  1    292
   877    368    876  1    292
   876    368    366  1    292
   876    366    364  1    292
     5    358      8  1    292
   410     44    404  1    293
   410    404     35  1    293
   410     35    400  1    293
   410    400    412  1    293
   412    400     32  1    293
   412     32     30  1    293
   412     30    398  1    293
   412    398      4  1    293
     4    398    354  1    293
   354    398      2  1    293
   404     44     38  1    293
    38     44     41  1    293
   415     45    411  1    294
   415    411    413  1    294
   415    413      7  1    294
     7    413      6  1    294
    10     62    886  1    295
    10    886    371  1    295
   371    886    885  1    295
   371    885    369  1    295
   369    885    429  1    295
   369    429    367  1    295
   367    429    427  1    295
   367    427    365  1    295
   365    427    425  1    295
   365    425    363  1    295
   363    425    423  1    295
   363    423    361  1    295
   361    423    421  1    295
   361    421    888  1    295
   361    888    359  1    295
   359    888    887  1    295
   359    887      9  1    295
     9    887    417  1    295
   417    887    419  1    295
   417    419     50  1    295
   417     50     43  1    295
    43     50     47  1    295
    43     47     42  1    295
   419    887    888  1    295
   419    888    421  1    295
   429    885     53  1    295
    53    885     56  1    295
    56    885    886  1    295
    56    886     59  1    295
    59    886     62  1    295
    13     16    375  1    296
   375     16    889  1    296
   375    889     12  1    296
    12    889    441  1    296
    12    441     63  1    296
   441    889     16  1    296
   891    893    894  1    297
   894    893      3  1    297
   894      3    892  1    297
   894    892    395  1    297
   894    395    393  1    297
   894    393    891  1    297
   891    393    391  1    297
   891    391    890  1    297
   891    890    893  1    297
   893    890     15  1    297
   893     15      3  1    297
    15    890     17  1    297
    17    890     20  1    297
    20    890    389  1    297
    20    389     23  1    297
    23    389     26  1    297
   389    890    391  1    297
   395    892     29  1    297
    29    892    397  1    297
   397    892      3  1    297
   451     68    895  1    298
   451    895     19  1    298
    19    895     18  1    298
    18    895    442  1    298
   442    895     68  1    298
   442     68     65  1    298
   442     65    445  1    298
   442    445     61  1    298
    61    445     60  1    298
   459     77    457  1    299
   459    457     74  1    299
   459     74    896  1    299
   459    896    452  1    299
   459    452     21  1    299
   459     21     22  1    299
   452    896     69  1    299
    69    896     71  1    299
    71    896     74  1    299
    25     86    898  1    300
    25    898     24  1    300
    24    898    460  1    300
   460    898    897  1    300
   460    897     78  1    300
    78    897     80  1    300
    80    897     83  1    300
    83    897     86  1    300
    86    897    898  1    300
    28     31    902  1    301
    28    902    396  1    301
   396    902    394  1    301
   394    902    900  1    301
   394    900    392  1    301
   392    900    390  1    301
   390    900    899  1    301
   390    899     27  1    301
    27    899     87  1    301
    87    899    466  1    301
   466    899    900  1    301
   466    900    901  1    301
   466    901     89  1    301
    89    901     31  1    301
    31    901    902  1    301
   902    901    900  1    301
   903    905    906  1    302
   904    907    908  1    302
   905    904    908  1    302
   905    908    909  1    302
   906    905    909  1    302
   906    909     34  1    302
   906     34    480  1    302
   906    480    903  1    302
   903    480    478  1    302
   903    478     92  1    302
   903     92    476  1    302
   903    476    905  1    302
   905    476    904  1    302
   904    476    474  1    302
   904    474    472  1    302
   904    472    907  1    302
   907    472     90  1    302
   907     90     33  1    302
   907     33    908  1    302
   908     33    909  1    302
   909     33    402  1    302
   909    402     34  1    302
    37    107    405  1    303
   405    107    492  1    303
   405    492    481  1    303
   405    481     36  1    303
   481    492    479  1    303
   479    492    104  1    303
   479    104     93  1    303
    93    104    101  1    303
    93    101     98  1    303
    93     98     95  1    303
    40     46    116  1    304
    40    116     39  1    304
    39    116    108  1    304
   108    116    502  1    304
   108    502    110  1    304
   110    502    113  1    304
   514    122    512  1    305
   514    512    911  1    305
   514    911     49  1    305
    49    911     48  1    305
    48    911    117  1    305
   117    911    504  1    305
   504    911    910  1    305
   504    910    506  1    305
   506    910    508  1    305
   506    508    119  1    305
   508    910    510  1    305
   510    910    911  1    305
   510    911    512  1    305
    52    134    913  1    306
    52    913    430  1    306
   430    913    428  1    306
   428    913    916  1    306
   428    916    426  1    306
   426    916    915  1    306
   426    915    424  1    306
   424    915    914  1    306
   424    914    422  1    306
   422    914    912  1    306
   422    912    420  1    306
   420    912    515  1    306
   420    515     51  1    306
   515    912    123  1    306
   123    912    125  1    306
   125    912    517  1    306
   517    912    914  1    306
   517    914    915  1    306
   517    915    520  1    306
   520    915    916  1    306
   520    916    913  1    306
   520    913    128  1    306
   128    913    131  1    306
   131    913    134  1    306
    55    149    918  1    307
    55    918     54  1    307
    54    918    135  1    307
   135    918    140  1    307
   135    140    137  1    307
   140    918    143  1    307
   143    918    917  1    307
   143    917    146  1    307
   146    917    149  1    307
   149    917    918  1    307
   158    155    161  1    308
   920    919    921  1    308
   920    921    922  1    308
   922    921    924  1    308
   921    923    924  1    308
   924    923    150  1    308
   924    150     57  1    308
   924     57     58  1    308
   924     58    448  1    308
   924    448    922  1    308
   922    448     64  1    308
   922     64    920  1    308
   920     64    155  1    308
   920    155    539  1    308
   920    539    919  1    308
   919    539    152  1    308
   919    152    536  1    308
   919    536    923  1    308
   919    923    921  1    308
   923    536    534  1    308
   923    534    150  1    308
   155     64    161  1    308
    67     70     66  1    309
    66     70    162  1    309
   164    159    167  1    310
   926    925    927  1    310
   926    927     73  1    310
   926     73    176  1    310
   926    176    563  1    310
   926    563    561  1    310
   926    561    925  1    310
   925    561    167  1    310
   925    167    159  1    310
   925    159    927  1    310
   927    159    160  1    310
   927    160     72  1    310
   927     72     73  1    310
   167    561    170  1    310
   170    561    173  1    310
   928    929    930  1    311
   929    932    933  1    311
   930    929    933  1    311
   930    933    576  1    311
   930    576    185  1    311
   930    185    928  1    311
   928    185    182  1    311
   928    182    179  1    311
   928    179    568  1    311
   928    568    929  1    311
   929    568    931  1    311
   929    931    932  1    311
   932    931    458  1    311
   932    458     76  1    311
   932     76    933  1    311
   933     76     79  1    311
   933     79    576  1    311
   576     79    191  1    311
   576    191    188  1    311
   458    931     75  1    311
    75    931    177  1    311
   177    931    568  1    311
    82    192     81  1    312
   468     88    937  1    313
   468    937    936  1    313
   468    936     85  1    313
    85    936     84  1    313
    84    936    934  1    313
    84    934    190  1    313
   190    934    189  1    313
   189    934    194  1    313
   194    934    935  1    313
   194    935    477  1    313
   194    477     94  1    313
    94    477     91  1    313
   477    935    475  1    313
   475    935    473  1    313
   473    935    937  1    313
   473    937     88  1    313
   937    935    934  1    313
   937    934    936  1    313
    97    197     96  1    314
    96    197    195  1    314
   938    939    940  1    315
   938    940    941  1    315
   939    942    943  1    315
   939    943    944  1    315
   940    939    944  1    315
   940    944    945  1    315
   940    945    946  1    315
   941    940    946  1    315
   943    942    947  1    315
   943    947    948  1    315
   944    943    948  1    315
   944    948    949  1    315
   945    944    949  1    315
   945    949    950  1    315
   945    950    951  1    315
   946    945    951  1    315
   949    948    952  1    315
   949    952    953  1    315
   950    949    953  1    315
   950    953    954  1    315
   951    950    954  1    315
   951    954    206  1    315
   951    206    946  1    315
   946    206    203  1    315
   946    203    941  1    315
   941    203    596  1    315
   941    596    938  1    315
   938    596    200  1    315
   938    200    939  1    315
   939    200    592  1    315
   939    592    942  1    315
   942    592    183  1    315
   942    183    947  1    315
   947    183    184  1    315
   947    184    948  1    315
   948    184    587  1    315
   948    587    952  1    315
   952    587    198  1    315
   952    198    953  1    315
   953    198     99  1    315
   953     99    954  1    315
   954     99    100  1    315
   954    100    600  1    315
   954    600    206  1    315
   103    209    602  1    316
   103    602    601  1    316
   103    601    102  1    316
   601    602    207  1    316
   106    109    493  1    317
   493    109    210  1    317
   493    210    105  1    317
   955    957    958  1    318
   956    955    958  1    318
   956    958    959  1    318
   957    960    961  1    318
   958    957    961  1    318
   958    961    962  1    318
   959    958    962  1    318
   959    962    224  1    318
   959    224    218  1    318
   959    218    956  1    318
   956    218    215  1    318
   956    215    955  1    318
   955    215    212  1    318
   955    212    204  1    318
   955    204    957  1    318
   957    204    205  1    318
   957    205    960  1    318
   960    205    603  1    318
   960    603    208  1    318
   960    208    961  1    318
   961    208    112  1    318
   961    112    638  1    318
   961    638    962  1    318
   962    638    224  1    318
   112    208    111  1    318
   218    224    221  1    318
   965    964    966  1    319
   965    966    507  1    319
   965    507    118  1    319
   965    118    230  1    319
   965    230    963  1    319
   965    963    641  1    319
   965    641    964  1    319
   964    641    114  1    319
   964    114    503  1    319
   964    503    966  1    319
   966    503    505  1    319
   966    505    507  1    319
   505    503    115  1    319
   641    963    225  1    319
   225    963    227  1    319
   227    963    230  1    319
   967    970    971  1    320
   968    967    971  1    320
   968    971    654  1    320
   968    654    969  1    320
   968    969    646  1    320
   968    646    967  1    320
   967    646    231  1    320
   967    231    120  1    320
   967    120    509  1    320
   967    509    970  1    320
   970    509    511  1    320
   970    511    513  1    320
   970    513    656  1    320
   970    656    971  1    320
   971    656    654  1    320
   656    513    121  1    320
   656    121    124  1    320
   646    969    648  1    320
   648    969    652  1    320
   648    652    233  1    320
   233    652    236  1    320
   652    969    654  1    320
   972    974    975  1    321
   974    973    976  1    321
   975    974    976  1    321
   975    976    522  1    321
   975    522    239  1    321
   975    239    660  1    321
   975    660    237  1    321
   975    237    972  1    321
   972    237    653  1    321
   972    653    655  1    321
   972    655    974  1    321
   974    655    973  1    321
   973    655    657  1    321
   973    657    126  1    321
   973    126    519  1    321
   973    519    976  1    321
   976    519    522  1    321
   239    522    127  1    321
   130    242    240  1    322
   130    240    129  1    322
   133    136    243  1    323
   133    243    132  1    323
   977    980    981  1    324
   978    977    981  1    324
   978    981    982  1    324
   979    978    982  1    324
   982    981    983  1    324
   982    983    984  1    324
   982    984    680  1    324
   982    680    678  1    324
   982    678    979  1    324
   979    678    676  1    324
   979    676    978  1    324
   978    676    251  1    324
   978    251    977  1    324
   977    251    674  1    324
   977    674    248  1    324
   977    248    234  1    324
   977    234    980  1    324
   980    234    235  1    324
   980    235    663  1    324
   980    663    983  1    324
   980    983    981  1    324
   983    663    238  1    324
   983    238    984  1    324
   984    238    139  1    324
   984    139    682  1    324
   984    682    680  1    324
   139    238    138  1    324
   138    238    241  1    324
   234    248    245  1    324
   257    254    260  1    325
   692    260    987  1    325
   692    987    986  1    325
   692    986    681  1    325
   692    681    683  1    325
   692    683    142  1    325
   142    683    141  1    325
   681    986    679  1    325
   679    986    985  1    325
   679    985    686  1    325
   679    686    677  1    325
   677    686    684  1    325
   677    684    252  1    325
   686    985    688  1    325
   688    985    690  1    325
   690    985    987  1    325
   690    987    254  1    325
   254    987    260  1    325
   987    985    986  1    325
   694    261    693  1    326
   694    693    145  1    326
   145    693    144  1    326
   266    263    696  1    327
   537    151    990  1    327
   537    990    991  1    327
   537    991    535  1    327
   535    991    147  1    327
   535    147    148  1    327
   147    991    695  1    327
   695    991    989  1    327
   695    989    259  1    327
   259    989    988  1    327
   259    988    258  1    327
   258    988    263  1    327
   263    988    696  1    327
   696    988    990  1    327
   696    990    269  1    327
   269    990    151  1    327
   990    988    989  1    327
   990    989    991  1    327
   154    165    541  1    328
   165    166    541  1    328
   541    166    992  1    328
   541    992    153  1    328
   153    992    270  1    328
   270    992    700  1    328
   700    992    166  1    328
   157    163    156  1    329
   272    267    275  1    330
   995    994    996  1    330
   995    996    701  1    330
   995    701    993  1    330
   995    993    702  1    330
   995    702    994  1    330
   994    702    275  1    330
   994    275    267  1    330
   994    267    697  1    330
   994    697    996  1    330
   996    697    268  1    330
   996    268    701  1    330
   702    993    278  1    330
   278    993    704  1    330
   704    993    168  1    330
   704    168    169  1    330
   168    993    701  1    330
   172    287    705  1    331
   172    705    171  1    331
   705    287    712  1    331
   705    712    997  1    331
   705    997    279  1    331
   279    997    706  1    331
   706    997    708  1    331
   706    708    281  1    331
   708    997    710  1    331
   710    997    712  1    331
   710    712    284  1    331
   570    178    999  1    332
   570    999    998  1    332
   570    998    564  1    332
   570    564    175  1    332
   564    998    562  1    332
   562    998    288  1    332
   562    288    174  1    332
   288    998    717  1    332
   717    998    999  1    332
   717    999    290  1    332
   290    999    178  1    332
   594    199    299  1    333
   594    299    296  1    333
   594    296    293  1    333
   594    293    181  1    333
   181    293    291  1    333
   181    291    180  1    333
   299    199    302  1    333
   187    193   1000  1    334
   187   1000    577  1    334
   577   1000    186  1    334
   186   1000    589  1    334
   589   1000    193  1    334
   589    193    196  1    334
   202    211    597  1    335
   597    211    305  1    335
   597    305    303  1    335
   597    303    201  1    335
  1001   1002   1003  1    336
  1001   1003   1004  1    336
  1001   1004   1005  1    336
  1003   1006   1007  1    336
  1004   1003   1007  1    336
  1004   1007   1008  1    336
  1004   1008   1009  1    336
  1005   1004   1009  1    336
  1005   1009   1010  1    336
  1008   1007   1011  1    336
  1008   1011   1012  1    336
  1008   1012   1013  1    336
  1009   1008   1013  1    336
  1009   1013   1014  1    336
  1010   1009   1014  1    336
  1012   1011   1015  1    336
  1012   1015   1016  1    336
  1013   1012   1016  1    336
  1013   1016   1014  1    336
  1014   1016    317  1    336
  1014    317    314  1    336
  1014    314   1010  1    336
  1010    314    757  1    336
  1010    757    755  1    336
  1010    755   1005  1    336
  1005    755    753  1    336
  1005    753   1001  1    336
  1001    753    751  1    336
  1001    751   1002  1    336
  1002    751    311  1    336
  1002    311    747  1    336
  1002    747   1003  1    336
  1003    747   1006  1    336
  1006    747    308  1    336
  1006    308    742  1    336
  1006    742   1007  1    336
  1007    742   1011  1    336
  1011    742    306  1    336
  1011    306    213  1    336
  1011    213   1015  1    336
  1015    213    214  1    336
  1015    214   1016  1    336
  1016    214    317  1    336
   217    318    216  1    337
  1017   1019   1020  1    338
  1018   1017   1020  1    338
  1018   1020   1021  1    338
  1018   1021   1022  1    338
  1019   1025   1026  1    338
  1020   1019   1026  1    338
  1020   1026   1027  1    338
  1021   1020   1027  1    338
  1025   1024   1028  1    338
  1025   1028   1029  1    338
  1026   1025   1029  1    338
  1026   1029   1027  1    338
  1027   1029    326  1    338
  1027    326   1022  1    338
  1027   1022   1021  1    338
  1022    326    323  1    338
  1022    323   1023  1    338
  1022   1023    765  1    338
  1022    765   1018  1    338
  1018    765    763  1    338
  1018    763   1017  1    338
  1017    763    761  1    338
  1017    761    315  1    338
  1017    315   1019  1    338
  1019    315   1024  1    338
  1019   1024   1025  1    338
  1024    315    316  1    338
  1024    316    219  1    338
  1024    219   1028  1    338
  1028    219    220  1    338
  1028    220    329  1    338
  1028    329   1029  1    338
  1029    329    781  1    338
  1029    781    326  1    338
   765   1023    767  1    338
   767   1023    323  1    338
   767    323    320  1    338
   223    226    330  1    339
   223    330    222  1    339
   330    226    334  1    339
   649    232   1032  1    340
   649   1032   1031  1    340
   649   1031    647  1    340
   647   1031    229  1    340
   229   1031   1030  1    340
   229   1030    228  1    340
   228   1030    335  1    340
   335   1030    793  1    340
   793   1030   1031  1    340
   793   1031   1032  1    340
   793   1032    337  1    340
   337   1032    244  1    340
   244   1032    232  1    340
   247    338    246  1    341
  1033   1035   1036  1    342
  1034   1037   1038  1    342
  1035   1034   1038  1    342
  1035   1038   1039  1    342
  1036   1035   1039  1    342
  1036   1039   1040  1    342
  1036   1040    815  1    342
  1036    815    813  1    342
  1036    813   1033  1    342
  1033    813    811  1    342
  1033    811    321  1    342
  1033    321    322  1    342
  1033    322   1034  1    342
  1033   1034   1035  1    342
  1034    322    803  1    342
  1034    803   1037  1    342
  1037    803    250  1    342
  1037    250    685  1    342
  1037    685   1038  1    342
  1038    685    687  1    342
  1038    687   1039  1    342
  1039    687    689  1    342
  1039    689   1040  1    342
  1040    689    691  1    342
  1040    691    817  1    342
  1040    817    815  1    342
   817    691    253  1    342
   250    803    801  1    342
   250    801    675  1    342
   675    801    249  1    342
   249    801    336  1    342
   336    801    796  1    342
   796    801    327  1    342
   796    327    784  1    342
   796    784    333  1    342
   333    784    328  1    342
   321    811    340  1    342
   255    256    818  1    343
   262    273    256  1    343
   256    273    818  1    343
   818    273   1043  1    343
   818   1043    816  1    343
   816   1043   1042  1    343
   816   1042    814  1    343
   814   1042   1041  1    343
   814   1041    812  1    343
   812   1041    343  1    343
   812    343    341  1    343
   343   1041    346  1    343
   346   1041   1042  1    343
   346   1042    274  1    343
   274   1042   1043  1    343
   274   1043    273  1    343
   264    265    271  1    344
   707    280    703  1    345
   707    703    277  1    345
   703    280    276  1    345
   276    280    347  1    345
  1045   1044   1047  1    346
  1045   1047   1048  1    346
  1044   1050   1046  1    346
  1044   1046   1047  1    346
  1047   1046   1052  1    346
  1047   1052   1053  1    346
  1048   1047   1053  1    346
  1050   1049   1054  1    346
  1050   1054   1055  1    346
  1046   1050   1055  1    346
  1046   1055   1051  1    346
  1046   1051   1052  1    346
  1054   1056   1057  1    346
  1055   1054   1057  1    346
  1055   1057    709  1    346
  1055    709   1051  1    346
  1051    709    711  1    346
  1051    711   1052  1    346
  1052    711    283  1    346
  1052    283   1053  1    346
  1053    283    349  1    346
  1053    349    840  1    346
  1053    840   1048  1    346
  1048    840    309  1    346
  1048    309   1045  1    346
  1045    309    749  1    346
  1045    749    310  1    346
  1045    310   1044  1    346
  1044    310    836  1    346
  1044    836   1050  1    346
  1050    836   1049  1    346
  1049    836    833  1    346
  1049    833   1054  1    346
  1054    833    830  1    346
  1054    830   1056  1    346
  1056    830    344  1    346
  1056    344    345  1    346
  1056    345   1057  1    346
  1057    345    282  1    346
  1057    282    709  1    346
   840    349    297  1    346
   840    297    298  1    346
   719    289   1059  1    347
   719   1059   1058  1    347
   719   1058    286  1    347
   286   1058    713  1    347
   713   1058    285  1    347
   285   1058   1059  1    347
   285   1059    350  1    347
   350   1059    292  1    347
   292   1059    289  1    347
   295    348    294  1    348
   301    304    744  1    349
   301    744   1060  1    349
   301   1060    300  1    349
   300   1060    841  1    349
   841   1060    307  1    349
   307   1060    744  1    349
  1061   1063   1064  1    350
  1061   1064   1065  1    350
  1062   1061   1065  1    350
  1062   1065   1066  1    350
  1062   1066   1067  1    350
  1065   1068   1069  1    350
  1066   1065   1069  1    350
  1066   1069   1070  1    350
  1067   1066   1070  1    350
  1070   1069   1071  1    350
  1070   1071    832  1    350
  1070    832    835  1    350
  1070    835   1067  1    350
  1067    835    838  1    350
  1067    838    752  1    350
  1067    752   1062  1    350
  1062    752    754  1    350
  1062    754   1061  1    350
  1061    754    756  1    350
  1061    756   1063  1    350
  1063    756    758  1    350
  1063    758    762  1    350
  1063    762    764  1    350
  1063    764   1064  1    350
  1064    764    766  1    350
  1064    766   1065  1    350
  1065    766   1068  1    350
  1068    766    768  1    350
  1068    768   1069  1    350
  1069    768   1071  1    350
  1071    768    339  1    350
  1071    339    342  1    350
  1071    342    832  1    350
   339    768    319  1    350
   762    758    313  1    350
   752    838    312  1    350
   804    324   1072  1    351
   804   1072    802  1    351
   802   1072    325  1    351
   325   1072    324  1    351
