# MSMS solvent excluded surface faces for fragments/fragment97.xyzr
#faces  #sphere density probe_r
   1288      32  3.00  1.50
     1      5    217  3      3
   217      5    218  3      3
   217    218      2  3      3
     2    218      4  3      3
     5    219      6  3      5
     6    219    220  3      5
   219    221    220  3      5
   220    221    222  3      5
   221      8    222  3      5
   222      8      7  3      5
     8    224    223  3      7
   223    224    225  3      7
   223    225      9  3      7
     9    225    226  3      7
   224     11    225  3      7
   225     11    227  3      7
   225    227    226  3      7
   226    227     10  3      7
    11     14    228  3      9
   228     14    229  3      9
   228    229     12  3      9
    12    229     13  3      9
    14     17    230  3     11
   230     17    232  3     11
   230    232    231  3     11
   231    232    233  3     11
   231    233     15  3     11
    15    233     16  3     11
    17    235    234  3     13
   234    235    236  3     13
   234    236     18  3     13
    18    236    237  3     13
   235     20    236  3     13
   236     20    238  3     13
   236    238    237  3     13
   237    238     19  3     13
    20     23    239  3     15
   239     23    240  3     15
   239    240     21  3     15
    21    240     22  3     15
    23    241     24  3     16
    24    241    242  3     16
   241    243    242  3     16
   242    243    244  3     16
   243      1    244  3     16
   244      1      3  3     16
    24    246    245  3     18
   245    246    247  3     18
   245    247     22  3     18
    22    247    248  3     18
   246     26    247  3     18
   247     26    249  3     18
   247    249    248  3     18
   248    249     25  3     18
    26     29    250  3     20
   250     29    251  3     20
   250    251     27  3     20
    27    251     28  3     20
    29     32     30  3     22
    30     32     31  3     22
    32     35     33  3     24
    33     35     34  3     24
    35    252     36  3     26
    36    252    253  3     26
   252     38    253  3     26
   253     38     37  3     26
    38      3     39  3     27
    39      3      2  3     27
    39     41     37  3     29
    37     41     40  3     29
    41     44     42  3     31
    42     44     43  3     31
    44     47    254  3     33
   254     47    255  3     33
   254    255     45  3     33
    45    255     46  3     33
    47     50     48  3     35
    48     50     49  3     35
    50     53     51  3     37
    51     53     52  3     37
    53      4     54  3     38
    54      4      6  3     38
    54    256     52  3     40
    52    256    257  3     40
   256     56    257  3     40
   257     56     55  3     40
    56     59     57  3     42
    57     59     58  3     42
    59     62     60  3     44
    60     62     61  3     44
    62    258     63  3     46
    63    258    259  3     46
   258     65    259  3     46
   259     65     64  3     46
    65      7    260  3     47
   260      7    261  3     47
   260    261     66  3     47
    66    261      9  3     47
    66    262     64  3     49
    64    262    263  3     49
   262     68    263  3     49
   263     68     67  3     49
    68     71    264  3     51
   264     71    265  3     51
   264    265     69  3     51
    69    265     70  3     51
    71     74    266  3     53
   266     74    267  3     53
   266    267     72  3     53
    72    267     73  3     53
    74     10     75  3     54
    75     10     12  3     54
    75     13     73  3     55
    73     13     15  3     55
    72    268     70  3     57
    70    268    269  3     57
   268    270    269  3     57
   269    270    271  3     57
   270    272    271  3     57
   271    272    273  3     57
   272     77    273  3     57
   273     77     76  3     57
    77    275    274  3     59
   274    275    276  3     59
   274    276     78  3     59
    78    276    277  3     59
   275    278    276  3     59
   276    278    279  3     59
   276    279    277  3     59
   277    279    280  3     59
   278     80    279  3     59
   279     80    281  3     59
   279    281    280  3     59
   280    281     79  3     59
    80    282     81  3     60
    81    282    283  3     60
   282    284    283  3     60
   283    284    285  3     60
   284     16    285  3     60
   285     16     18  3     60
    81     83    286  3     62
   286     83    287  3     62
   286    287     79  3     62
    79    287     82  3     62
    83     86    288  3     64
   288     86    289  3     64
   288    289     84  3     64
    84    289     85  3     64
    86    290     87  3     66
    87    290    291  3     66
   290    292    291  3     66
   291    292    293  3     66
   292     89    293  3     66
   293     89     88  3     66
    89     28    294  3     67
   294     28    295  3     67
   294    295     90  3     67
    90    295     30  3     67
    90     92    296  3     69
   296     92    297  3     69
   296    297     88  3     69
    88    297     91  3     69
    92     95    298  3     71
   298     95    299  3     71
   298    299     93  3     71
    93    299     94  3     71
    95     98    300  3     73
   300     98    302  3     73
   300    302    301  3     73
   301    302    303  3     73
   301    303     96  3     73
    96    303     97  3     73
    98    304     99  3     75
    99    304    305  3     75
   304    306    305  3     75
   305    306    307  3     75
   306    101    307  3     75
   307    101    100  3     75
   101     31    102  3     76
   102     31     33  3     76
   102    308    100  3     78
   100    308    309  3     78
   308    310    309  3     78
   309    310    311  3     78
   310    312    311  3     78
   311    312    313  3     78
   312    314    313  3     78
   313    314    315  3     78
   314    104    315  3     78
   315    104    103  3     78
   104    316    105  3     79
   105    316    317  3     79
   316    318    317  3     79
   317    318    319  3     79
   318    320    319  3     79
   319    320    321  3     79
   320    322    321  3     79
   321    322    323  3     79
   322     43    323  3     79
   323     43     45  3     79
   105    324    103  3     81
   103    324    325  3     81
   324    107    325  3     81
   325    107    106  3     81
   107    326    108  3     82
   108    326    327  3     82
   326    328    327  3     82
   327    328    329  3     82
   328    330    329  3     82
   329    330    331  3     82
   330    332    331  3     82
   331    332    333  3     82
   332     46    333  3     82
   333     46     48  3     82
   108    334    106  3     84
   106    334    335  3     84
   334    336    335  3     84
   335    336    337  3     84
   336    338    337  3     84
   337    338    339  3     84
   338    340    339  3     84
   339    340    341  3     84
   340    110    341  3     84
   341    110    109  3     84
   110     58    111  3     85
   111     58     60  3     85
   111    342    109  3     87
   109    342    343  3     87
   342    344    343  3     87
   343    344    345  3     87
   344    113    345  3     87
   345    113    112  3     87
   113    116    346  3     89
   346    116    348  3     89
   346    348    347  3     89
   347    348    349  3     89
   347    349    114  3     89
   114    349    115  3     89
   116    119    350  3     91
   350    119    352  3     91
   350    352    351  3     91
   351    352    353  3     91
   351    353    117  3     91
   117    353    118  3     91
   119    122    354  3     93
   354    122    355  3     93
   354    355    120  3     93
   120    355    121  3     93
   122     61    123  3     94
   123     61     63  3     94
   123    356    121  3     96
   121    356    357  3     96
   356    125    357  3     96
   357    125    124  3     96
   125    128    126  3     98
   126    128    127  3     98
   128     67    129  3     99
   129     67     69  3     99
   129    131    358  3    101
   358    131    359  3    101
   358    359    127  3    101
   127    359    130  3    101
   131    134    360  3    103
   360    134    361  3    103
   360    361    132  3    103
   132    361    133  3    103
   134     76    362  3    104
   362     76    363  3    104
   362    363    135  3    104
   135    363     78  3    104
   135    137    364  3    106
   364    137    365  3    106
   364    365    133  3    106
   133    365    136  3    106
   137    366    138  3    107
   138    366    367  3    107
   366    368    367  3    107
   367    368    369  3    107
   368    370    369  3    107
   369    370    371  3    107
   370    372    371  3    107
   371    372    373  3    107
   372     82    373  3    107
   373     82     84  3    107
   138    140    374  3    109
   374    140    375  3    109
   374    375    136  3    109
   136    375    139  3    109
   140    143    376  3    111
   376    143    377  3    111
   376    377    141  3    111
   141    377    142  3    111
   143    146    378  3    113
   378    146    379  3    113
   378    379    144  3    113
   144    379    145  3    113
   146    381    380  3    115
   380    381    382  3    115
   380    382    147  3    115
   147    382    383  3    115
   381    149    382  3    115
   382    149    384  3    115
   382    384    383  3    115
   383    384    148  3    115
   149    385    150  3    116
   150    385    386  3    116
   385    387    386  3    116
   386    387    388  3    116
   387    389    388  3    116
   388    389    390  3    116
   389     85    390  3    116
   390     85     87  3    116
   150    152    391  3    118
   391    152    392  3    118
   391    392    148  3    118
   148    392    151  3    118
   152    155    153  3    120
   153    155    154  3    120
   155    158    393  3    122
   393    158    396  3    122
   393    396    394  3    122
   394    396    397  3    122
   394    397    395  3    122
   395    397    398  3    122
   395    398    156  3    122
   156    398    157  3    122
   158    399    159  3    123
   159    399    400  3    123
   399     91    400  3    123
   400     91     93  3    123
   159     94    401  3    124
   401     94    404  3    124
   401    404    402  3    124
   402    404    405  3    124
   402    405    403  3    124
   403    405    406  3    124
   403    406    157  3    124
   157    406     96  3    124
   156    161    407  3    126
   407    161    409  3    126
   407    409    408  3    126
   408    409    410  3    126
   408    410    154  3    126
   154    410    160  3    126
   161    164    162  3    128
   162    164    163  3    128
   164    412    411  3    130
   411    412    413  3    130
   411    413    165  3    130
   165    413    414  3    130
   412    415    413  3    130
   413    415    416  3    130
   413    416    414  3    130
   414    416    417  3    130
   415    167    416  3    130
   416    167    418  3    130
   416    418    417  3    130
   417    418    166  3    130
   167    170    168  3    132
   168    170    169  3    132
   170    420    419  3    134
   419    420    421  3    134
   419    421    171  3    134
   171    421    422  3    134
   420    173    421  3    134
   421    173    423  3    134
   421    423    422  3    134
   422    423    172  3    134
   173    176    424  3    136
   424    176    427  3    136
   424    427    425  3    136
   425    427    428  3    136
   425    428    426  3    136
   426    428    429  3    136
   426    429    174  3    136
   174    429    175  3    136
   176    433    430  3    137
   430    433    434  3    137
   430    434    431  3    137
   431    434    435  3    137
   431    435    432  3    137
   432    435    436  3    137
   432    436    177  3    137
   177    436    437  3    137
   433     97    434  3    137
   434     97    438  3    137
   434    438    435  3    137
   435    438    439  3    137
   435    439    436  3    137
   436    439    440  3    137
   436    440    437  3    137
   437    440     99  3    137
   177    441    175  3    139
   175    441    442  3    139
   441    179    442  3    139
   442    179    178  3    139
   179    112    443  3    140
   443    112    445  3    140
   443    445    444  3    140
   444    445    446  3    140
   444    446    180  3    140
   180    446    114  3    140
   180    172    447  3    141
   447    172    450  3    141
   447    450    448  3    141
   448    450    451  3    141
   448    451    449  3    141
   449    451    452  3    141
   449    452    178  3    141
   178    452    174  3    141
   171    453    169  3    143
   169    453    454  3    143
   453    182    454  3    143
   454    182    181  3    143
   182    185    455  3    145
   455    185    456  3    145
   455    456    183  3    145
   183    456    184  3    145
   185    188    186  3    147
   186    188    187  3    147
   188    115    457  3    148
   457    115    459  3    148
   457    459    458  3    148
   458    459    460  3    148
   458    460    189  3    148
   189    460    117  3    148
   189    191    461  3    150
   461    191    462  3    150
   461    462    187  3    150
   187    462    190  3    150
   191    463    192  3    152
   192    463    464  3    152
   463    465    464  3    152
   464    465    466  3    152
   465    467    466  3    152
   466    467    468  3    152
   467    194    468  3    152
   468    194    193  3    152
   194    470    469  3    154
   469    470    471  3    154
   469    471    195  3    154
   195    471    472  3    154
   470    197    471  3    154
   471    197    473  3    154
   471    473    472  3    154
   472    473    196  3    154
   197    145    198  3    155
   198    145    147  3    155
   198    200    474  3    157
   474    200    475  3    157
   474    475    196  3    157
   196    475    199  3    157
   200    151    201  3    158
   201    151    153  3    158
   201    203    476  3    160
   476    203    477  3    160
   476    477    199  3    160
   199    477    202  3    160
   203    160    478  3    161
   478    160    479  3    161
   478    479    204  3    161
   204    479    162  3    161
   204    163    202  3    162
   202    163    165  3    162
   195    206    480  3    164
   480    206    481  3    164
   480    481    193  3    164
   193    481    205  3    164
   206    184    207  3    165
   207    184    186  3    165
   207    190    482  3    166
   482    190    483  3    166
   482    483    205  3    166
   205    483    192  3    166
   183    484    181  3    167
   181    484    485  3    167
   484    166    485  3    167
   485    166    168  3    167
   144    209    142  3    169
   142    209    208  3    169
   209    212    210  3    171
   210    212    211  3    171
   212    486    213  3    173
   213    486    487  3    173
   486    488    487  3    173
   487    488    489  3    173
   488    215    489  3    173
   489    215    214  3    173
   215    118    216  3    174
   216    118    120  3    174
   216    490    214  3    175
   214    490    491  3    175
   490    124    491  3    175
   491    124    126  3    175
   213    130    211  3    176
   211    130    132  3    176
   210    139    208  3    177
   208    139    141  3    177
    57    492     55  3    178
    55    492    493  3    178
   492     49    493  3    178
   493     49     51  3    178
    42    494     40  3    179
    40    494    495  3    179
   494     34    495  3    179
   495     34     36  3    179
    27    496     25  3    180
    25    496    497  3    180
   496    498    497  3    180
   497    498    499  3    180
   498     19    499  3    180
   499     19     21  3    180
     3      1    217  2      1
     3    217      2  2      1
     6      4    218  2      2
     6    218      5  2      2
   261      7    223  2      4
   261    223      9  2      4
   223      7      8  2      4
    12     10    227  2      6
    12    227    228  2      6
   228    227     11  2      6
    15     13    231  2      8
   231     13    230  2      8
   230     13    229  2      8
   230    229     14  2      8
    18     16    233  2     10
    18    233    234  2     10
   234    233    232  2     10
   234    232     17  2     10
    21     19    239  2     12
   239     19    238  2     12
   239    238     20  2     12
   245     22    240  2     14
   245    240     24  2     14
    24    240     23  2     14
    27     25    249  2     17
    27    249    250  2     17
   250    249     26  2     17
   295     28    251  2     19
   295    251     29  2     19
   295     29     30  2     19
    33     31     32  2     21
    36     34     35  2     23
    39     37     38  2     25
    42     40     41  2     28
    45     43    254  2     30
   254     43     44  2     30
    48     46    255  2     32
    48    255     47  2     32
    51     49     50  2     34
    54     52     53  2     36
    57     55     56  2     39
    60     58     59  2     41
    63     61     62  2     43
    66     64    260  2     45
   260     64     65  2     45
    69     67    264  2     48
   264     67     68  2     48
    72     70    266  2     50
   266     70    265  2     50
   266    265     71  2     50
    75     73    267  2     52
    75    267     74  2     52
   363     76     77  2     56
   363     77    274  2     56
   363    274     78  2     56
   286     79    281  2     58
   286    281     81  2     58
    81    281     80  2     58
    84     82    288  2     61
   288     82    287  2     61
   288    287     83  2     61
    87     85    289  2     63
    87    289     86  2     63
   296     88     89  2     65
   296     89    294  2     65
   296    294     90  2     65
    93     91    298  2     68
   298     91    297  2     68
   298    297     92  2     68
   501    500    502  2     70
   404     94    502  2     70
   404    502    405  2     70
   405    502    500  2     70
   405    500    406  2     70
   406    500    301  2     70
   406    301     96  2     70
   301    500    300  2     70
   300    500    501  2     70
   300    501     95  2     70
    95    501    299  2     70
   299    501    502  2     70
   299    502     94  2     70
   438     97    303  2     72
   438    303    439  2     72
   439    303    302  2     72
   439    302    440  2     72
   440    302     98  2     72
   440     98     99  2     72
   102    100    101  2     74
   105    103    104  2     77
   108    106    107  2     80
   111    109    110  2     83
   445    112    113  2     86
   445    113    346  2     86
   445    346    446  2     86
   446    346    347  2     86
   446    347    114  2     86
   459    115    349  2     88
   459    349    503  2     88
   459    503    460  2     88
   460    503    117  2     88
   117    503    351  2     88
   351    503    350  2     88
   350    503    348  2     88
   350    348    116  2     88
   348    503    349  2     88
   120    118    353  2     90
   120    353    354  2     90
   354    353    352  2     90
   354    352    119  2     90
   123    121    355  2     92
   123    355    122  2     92
   126    124    125  2     95
   358    127    128  2     97
   358    128    129  2     97
   132    130    360  2    100
   360    130    359  2    100
   360    359    131  2    100
   364    133    361  2    102
   364    361    362  2    102
   364    362    135  2    102
   362    361    134  2    102
   374    136    365  2    105
   374    365    138  2    105
   138    365    137  2    105
   141    139    375  2    108
   141    375    376  2    108
   376    375    140  2    108
   144    142    378  2    110
   378    142    377  2    110
   378    377    143  2    110
   147    145    380  2    112
   380    145    379  2    112
   380    379    146  2    112
   391    148    384  2    114
   391    384    150  2    114
   150    384    149  2    114
   153    151    392  2    117
   153    392    152  2    117
   408    154    394  2    119
   408    394    395  2    119
   408    395    407  2    119
   407    395    156  2    119
   394    154    393  2    119
   393    154    155  2    119
   403    157    398  2    121
   403    398    402  2    121
   402    398    397  2    121
   402    397    401  2    121
   401    397    396  2    121
   401    396    159  2    121
   159    396    158  2    121
   479    160    410  2    125
   479    410    162  2    125
   162    410    409  2    125
   162    409    161  2    125
   165    163    411  2    127
   411    163    164  2    127
   168    166    418  2    129
   168    418    167  2    129
   171    169    419  2    131
   419    169    170  2    131
   450    172    504  2    133
   450    504    451  2    133
   451    504    425  2    133
   451    425    426  2    133
   451    426    452  2    133
   452    426    174  2    133
   425    504    505  2    133
   425    505    424  2    133
   424    505    173  2    133
   173    505    423  2    133
   423    505    172  2    133
   172    505    504  2    133
   177    175    429  2    135
   177    429    432  2    135
   432    429    428  2    135
   432    428    431  2    135
   431    428    427  2    135
   431    427    430  2    135
   430    427    176  2    135
   449    178    179  2    138
   449    179    443  2    138
   449    443    448  2    138
   448    443    444  2    138
   448    444    447  2    138
   447    444    180  2    138
   183    181    455  2    142
   455    181    182  2    142
   186    184    456  2    144
   186    456    185  2    144
   461    187    458  2    146
   461    458    189  2    146
   458    187    457  2    146
   457    187    188  2    146
   483    190    462  2    149
   483    462    191  2    149
   483    191    192  2    149
   480    193    194  2    151
   480    194    469  2    151
   480    469    195  2    151
   474    196    473  2    153
   474    473    197  2    153
   474    197    198  2    153
   476    199    475  2    156
   476    475    201  2    156
   201    475    200  2    156
   204    202    477  2    159
   204    477    478  2    159
   478    477    203  2    159
   482    205    481  2    163
   482    481    207  2    163
   207    481    206  2    163
   210    208    209  2    168
   213    211    212  2    170
   216    214    215  2    172
   507    506    510  1    181
   507    510    511  1    181
   508    507    511  1    181
   509    508    511  1    181
   511    510    515  1    181
   512    511    515  1    181
   509    511    512  1    181
   513    512    516  1    181
   515    514    516  1    181
   512    515    516  1    181
   516    514    243  1    181
   516    243    241  1    181
   516    241    513  1    181
   513    241     23  1    181
   513     23     20  1    181
   513     20    235  1    181
   513    235    512  1    181
   512    235    509  1    181
   509    235     17  1    181
   509     17     14  1    181
   509     14    508  1    181
   508     14     11  1    181
   508     11    224  1    181
   508    224    507  1    181
   507    224      8  1    181
   507      8    221  1    181
   507    221    506  1    181
   506    221    219  1    181
   506    219      5  1    181
   506      5    510  1    181
   510      5    514  1    181
   510    514    515  1    181
   514      5      1  1    181
   514      1    243  1    181
   518    517    520  1    182
   518    520      4  1    182
   518      4     53  1    182
   518     53     50  1    182
   518     50     47  1    182
   518     47    517  1    182
   517     47     44  1    182
   517     44    520  1    182
   520     44    519  1    182
   520    519     39  1    182
   520     39      2  1    182
   520      2      4  1    182
    39    519     41  1    182
    41    519     44  1    182
   521    522    523  1    183
   521    523    258  1    183
   521    258     62  1    183
   521     62     59  1    183
   521     59     56  1    183
   521     56    522  1    183
   522     56    256  1    183
   522    256    524  1    183
   522    524    222  1    183
   522    222    523  1    183
   523    222      7  1    183
   523      7     65  1    183
   523     65    258  1    183
   222    524    220  1    183
   220    524     54  1    183
   220     54      6  1    183
    54    524    256  1    183
    10     74     71  1    184
    10     71    226  1    184
   226     71    525  1    184
   226    525      9  1    184
     9    525     66  1    184
    66    525    262  1    184
   262    525     68  1    184
    68    525     71  1    184
    13     75     12  1    185
   527    526    530  1    186
   529    528    531  1    186
   530    529    531  1    186
   526    529    530  1    186
   530    531    284  1    186
   530    284    282  1    186
   530    282     80  1    186
   530     80    527  1    186
   527     80    278  1    186
   527    278    275  1    186
   527    275    272  1    186
   527    272    526  1    186
   526    272    270  1    186
   526    270    529  1    186
   529    270    268  1    186
   529    268    528  1    186
   528    268     72  1    186
   528     72     73  1    186
   528     73     15  1    186
   528     15     16  1    186
   528     16    531  1    186
   531     16    284  1    186
   272    275     77  1    186
   496     27    292  1    187
   496    292    290  1    187
   496    290    532  1    187
   496    532    498  1    187
   498    532    533  1    187
   498    533     19  1    187
    19    533    283  1    187
    19    283    285  1    187
    19    285    237  1    187
   237    285     18  1    187
   283    533     81  1    187
    81    533    532  1    187
    81    532     83  1    187
    83    532     86  1    187
    86    532    290  1    187
   292     27     89  1    187
    89     27     28  1    187
   248     25    497  1    188
   248    497    499  1    188
   248    499     22  1    188
    22    499     21  1    188
     3     38    244  1    189
   244     38    535  1    189
   244    535    242  1    189
   242    535     24  1    189
    24    535    246  1    189
   246    535    534  1    189
   246    534     26  1    189
    26    534     35  1    189
    26     35     32  1    189
    26     32     29  1    189
    35    534    252  1    189
   252    534    535  1    189
   252    535     38  1    189
    31    101     30  1    190
    30    101     90  1    190
    90    101    306  1    190
    90    306     92  1    190
    92    306    304  1    190
    92    304     95  1    190
    95    304     98  1    190
   538    537    539  1    191
   538    539    540  1    191
   538    540    320  1    191
   538    320    318  1    191
   538    318    536  1    191
   538    536    310  1    191
   538    310    537  1    191
   537    310    308  1    191
   537    308     34  1    191
   537     34    539  1    191
   539     34    494  1    191
   539    494    540  1    191
   540    494     42  1    191
   540     42    322  1    191
   540    322    320  1    191
   322     42     43  1    191
    34    308    102  1    191
    34    102     33  1    191
   310    536    312  1    191
   312    536    316  1    191
   312    316    314  1    191
   314    316    104  1    191
   316    536    318  1    191
    37     40    495  1    192
    37    495    253  1    192
   253    495     36  1    192
   541    544    545  1    193
   542    541    545  1    193
   542    545    546  1    193
   542    546    547  1    193
   543    548    549  1    193
   544    543    549  1    193
   544    549    550  1    193
   545    544    550  1    193
   545    550    551  1    193
   546    545    551  1    193
   546    551    552  1    193
   547    546    552  1    193
   549    548    553  1    193
   549    553    554  1    193
   550    549    554  1    193
   550    554    555  1    193
   551    550    555  1    193
   552    551    555  1    193
   554    553    556  1    193
   554    556    555  1    193
   555    556     45  1    193
   555     45     46  1    193
   555     46    552  1    193
   552     46    332  1    193
   552    332    547  1    193
   547    332    330  1    193
   547    330    328  1    193
   547    328    542  1    193
   542    328    326  1    193
   542    326    541  1    193
   541    326    107  1    193
   541    107    324  1    193
   541    324    544  1    193
   544    324    543  1    193
   543    324    105  1    193
   543    105    317  1    193
   543    317    548  1    193
   548    317    319  1    193
   548    319    553  1    193
   553    319    321  1    193
   553    321    556  1    193
   556    321    323  1    193
   556    323     45  1    193
   557    558    559  1    194
   557    559    340  1    194
   557    340    338  1    194
   557    338    336  1    194
   557    336    329  1    194
   557    329    558  1    194
   558    329    331  1    194
   558    331    333  1    194
   558    333     49  1    194
   558     49    492  1    194
   558    492    559  1    194
   559    492     57  1    194
   559     57    340  1    194
   340     57    110  1    194
   110     57     58  1    194
    49    333     48  1    194
   329    336    327  1    194
   327    336    334  1    194
   327    334    108  1    194
   257     55    560  1    195
   257    560     52  1    195
    52    560     51  1    195
    51    560    493  1    195
   493    560     55  1    195
    61    122    562  1    196
    61    562    111  1    196
    61    111     60  1    196
   111    562    342  1    196
   342    562    344  1    196
   344    562    561  1    196
   344    561    113  1    196
   113    561    116  1    196
   116    561    119  1    196
   119    561    122  1    196
   122    561    562  1    196
   263     67    564  1    197
   263    564    563  1    197
   263    563    259  1    197
   263    259     64  1    197
   259    563     63  1    197
    63    563    123  1    197
   123    563    356  1    197
   356    563    564  1    197
   356    564    125  1    197
   125    564     67  1    197
   125     67    128  1    197
   565    566    568  1    198
   565    568    567  1    198
   565    567    134  1    198
   565    134    131  1    198
   565    131    566  1    198
   566    131    129  1    198
   566    129     69  1    198
   566     69    568  1    198
   568     69    269  1    198
   568    269    271  1    198
   568    271    567  1    198
   567    271    273  1    198
   567    273     76  1    198
   567     76    134  1    198
   269     69     70  1    198
   571    570    572  1    199
   571    572    372  1    199
   571    372    370  1    199
   571    370    368  1    199
   571    368    570  1    199
   570    368    569  1    199
   570    569    277  1    199
   570    277    280  1    199
   570    280    572  1    199
   572    280     79  1    199
   572     79     82  1    199
   572     82    372  1    199
   277    569     78  1    199
    78    569    135  1    199
   135    569    137  1    199
   137    569    366  1    199
   366    569    368  1    199
   140    138    143  1    200
   573    575    576  1    200
   574    573    576  1    200
   576    575    577  1    200
   576    577    387  1    200
   576    387    385  1    200
   576    385    574  1    200
   574    385    149  1    200
   574    149    381  1    200
   574    381    573  1    200
   573    381    146  1    200
   573    146    367  1    200
   573    367    369  1    200
   573    369    575  1    200
   575    369    371  1    200
   575    371    577  1    200
   577    371    373  1    200
   577    373    389  1    200
   577    389    387  1    200
   389    373     85  1    200
    85    373     84  1    200
   367    146    143  1    200
   367    143    138  1    200
    88     91    293  1    201
   293     91    399  1    201
   293    399    578  1    201
   293    578    291  1    201
   291    578    390  1    201
   291    390     87  1    201
   390    578    388  1    201
   388    578    399  1    201
   388    399    386  1    201
   386    399    158  1    201
   386    158    155  1    201
   386    155    152  1    201
   386    152    150  1    201
    94    159    400  1    202
    94    400     93  1    202
   579    581    582  1    203
   579    582    583  1    203
   580    579    583  1    203
   580    583    584  1    203
   581    586    587  1    203
   582    581    587  1    203
   582    587    588  1    203
   583    582    588  1    203
   583    588    589  1    203
   584    583    589  1    203
   586    585    590  1    203
   586    590    591  1    203
   587    586    591  1    203
   588    587    591  1    203
   588    591    592  1    203
   589    588    592  1    203
   591    590    593  1    203
   592    591    593  1    203
   592    593    594  1    203
   592    594    433  1    203
   592    433    589  1    203
   589    433    176  1    203
   589    176    584  1    203
   584    176    173  1    203
   584    173    420  1    203
   584    420    580  1    203
   580    420    170  1    203
   580    170    167  1    203
   580    167    579  1    203
   579    167    415  1    203
   579    415    581  1    203
   581    415    412  1    203
   581    412    586  1    203
   586    412    585  1    203
   585    412    164  1    203
   585    164    161  1    203
   585    161    590  1    203
   590    161    156  1    203
   590    156    157  1    203
   590    157    593  1    203
   593    157     96  1    203
   593     96    594  1    203
   594     96     97  1    203
   594     97    433  1    203
   315    103    598  1    204
   315    598    597  1    204
   315    597    600  1    204
   315    600    313  1    204
   313    600    311  1    204
   311    600    599  1    204
   311    599    309  1    204
   309    599    307  1    204
   309    307    100  1    204
   307    599    305  1    204
   305    599     99  1    204
    99    599    437  1    204
   437    599    600  1    204
   437    600    597  1    204
   437    597    177  1    204
   177    597    598  1    204
   177    598    441  1    204
   441    598    103  1    204
   441    103    325  1    204
   441    325    106  1    204
   441    106    179  1    204
   179    106    595  1    204
   179    595    112  1    204
   112    595    596  1    204
   112    596    345  1    204
   345    596    343  1    204
   343    596    339  1    204
   343    339    341  1    204
   343    341    109  1    204
   339    596    337  1    204
   337    596    595  1    204
   337    595    335  1    204
   335    595    106  1    204
   601    602    603  1    205
   601    603    604  1    205
   602    605    606  1    205
   603    602    606  1    205
   603    606    607  1    205
   603    607    608  1    205
   604    603    608  1    205
   604    608    609  1    205
   604    609    610  1    205
   606    605    611  1    205
   606    611    612  1    205
   607    606    612  1    205
   607    612    613  1    205
   607    613    614  1    205
   608    607    614  1    205
   608    614    615  1    205
   609    608    615  1    205
   609    615    616  1    205
   610    609    616  1    205
   610    616    188  1    205
   610    188    185  1    205
   610    185    604  1    205
   604    185    601  1    205
   601    185    182  1    205
   601    182    602  1    205
   602    182    453  1    205
   602    453    605  1    205
   605    453    171  1    205
   605    171    611  1    205
   611    171    422  1    205
   611    422    172  1    205
   611    172    612  1    205
   612    172    180  1    205
   612    180    613  1    205
   613    180    614  1    205
   614    180    114  1    205
   614    114    615  1    205
   615    114    115  1    205
   615    115    616  1    205
   616    115    188  1    205
   617    619    620  1    206
   618    617    620  1    206
   618    620    197  1    206
   618    197    470  1    206
   618    470    617  1    206
   617    470    194  1    206
   617    194    467  1    206
   617    467    619  1    206
   619    467    212  1    206
   619    212    209  1    206
   619    209    620  1    206
   620    209    144  1    206
   620    144    145  1    206
   620    145    197  1    206
   212    467    486  1    206
   486    467    465  1    206
   486    465    488  1    206
   488    465    463  1    206
   488    463    215  1    206
   215    463    118  1    206
   118    463    117  1    206
   117    463    189  1    206
   189    463    191  1    206
   357    124    490  1    207
   357    490    216  1    207
   357    216    121  1    207
   121    216    120  1    207
   622    621    623  1    208
   622    623    130  1    208
   622    130    213  1    208
   622    213    487  1    208
   622    487    489  1    208
   622    489    621  1    208
   621    489    491  1    208
   621    491    623  1    208
   623    491    126  1    208
   623    126    127  1    208
   623    127    130  1    208
   491    489    214  1    208
   136    139    133  1    209
   133    139    625  1    209
   133    625    132  1    209
   132    625    624  1    209
   132    624    211  1    209
   211    624    210  1    209
   210    624    625  1    209
   210    625    139  1    209
   142    208    141  1    210
   148    151    383  1    211
   151    200    627  1    211
   151    627    383  1    211
   383    627    626  1    211
   383    626    147  1    211
   147    626    198  1    211
   198    626    627  1    211
   198    627    200  1    211
   154    160    153  1    212
   153    160    201  1    212
   201    160    203  1    212
   163    204    162  1    213
   628    629    630  1    214
   628    630    631  1    214
   628    632    629  1    214
   630    629    634  1    214
   630    634    635  1    214
   630    635    636  1    214
   631    630    636  1    214
   631    636    637  1    214
   629    633    634  1    214
   635    634    638  1    214
   635    638    639  1    214
   636    635    639  1    214
   636    639    640  1    214
   637    636    640  1    214
   639    638    641  1    214
   639    641    642  1    214
   640    639    642  1    214
   640    642    417  1    214
   640    417    637  1    214
   637    417    166  1    214
   637    166    484  1    214
   637    484    631  1    214
   631    484    183  1    214
   631    183    628  1    214
   628    183    632  1    214
   632    183    184  1    214
   632    184    206  1    214
   632    206    195  1    214
   632    195    633  1    214
   632    633    629  1    214
   633    195    472  1    214
   633    472    634  1    214
   634    472    638  1    214
   638    472    196  1    214
   638    196    641  1    214
   641    196    199  1    214
   641    199    642  1    214
   642    199    165  1    214
   642    165    414  1    214
   642    414    417  1    214
   165    199    202  1    214
   454    181    485  1    215
   454    485    168  1    215
   454    168    169  1    215
   442    178    643  1    216
   442    643    175  1    216
   175    643    174  1    216
   174    643    178  1    216
   187    190    186  1    217
   186    190    207  1    217
   644    645    646  1    218
   644    646    468  1    218
   644    468    193  1    218
   644    193    205  1    218
   644    205    645  1    218
   645    205    192  1    218
   645    192    464  1    218
   645    464    646  1    218
   646    464    466  1    218
   646    466    468  1    218
