# MSMS solvent excluded surface faces for fragments/fragment226.xyzr
#faces  #sphere density probe_r
   1136      19  3.00  1.50
     1    116    115  3      3
   115    116    117  3      3
   115    117      2  3      3
     2    117    118  3      3
   116    119    117  3      3
   117    119    120  3      3
   117    120    118  3      3
   118    120    121  3      3
   119    122    120  3      3
   120    122    123  3      3
   120    123    121  3      3
   121    123    124  3      3
   122    125    123  3      3
   123    125    126  3      3
   123    126    124  3      3
   124    126    127  3      3
   125    128    126  3      3
   126    128    129  3      3
   126    129    127  3      3
   127    129    130  3      3
   128    131    129  3      3
   129    131    132  3      3
   129    132    130  3      3
   130    132    133  3      3
   131    134    132  3      3
   132    134    135  3      3
   132    135    133  3      3
   133    135    136  3      3
   134    137    135  3      3
   135    137    138  3      3
   135    138    136  3      3
   136    138    139  3      3
   137    140    138  3      3
   138    140    141  3      3
   138    141    139  3      3
   139    141    142  3      3
   140    143    141  3      3
   141    143    144  3      3
   141    144    142  3      3
   142    144    145  3      3
   143      5    144  3      3
   144      5    146  3      3
   144    146    145  3      3
   145    146      4  3      3
     5    148    147  3      4
   147    148    149  3      4
   147    149      6  3      4
     6    149    150  3      4
   148      1    149  3      4
   149      1    151  3      4
   149    151    150  3      4
   150    151      3  3      4
     6      8    152  3      6
   152      8    153  3      6
   152    153      4  3      6
     4    153      7  3      6
     8    154      9  3      8
     9    154    155  3      8
   154     11    155  3      8
   155     11     10  3      8
    11    156     12  3     10
    12    156    157  3     10
   156    158    157  3     10
   157    158    159  3     10
   158    160    159  3     10
   159    160    161  3     10
   160    162    161  3     10
   161    162    163  3     10
   162    164    163  3     10
   163    164    165  3     10
   164    166    165  3     10
   165    166    167  3     10
   166    168    167  3     10
   167    168    169  3     10
   168    170    169  3     10
   169    170    171  3     10
   170     14    171  3     10
   171     14     13  3     10
    14    172     15  3     12
    15    172    173  3     12
   172     17    173  3     12
   173     17     16  3     12
    17      3    174  3     13
   174      3    175  3     13
   174    175     18  3     13
    18    175      2  3     13
    18    176     16  3     15
    16    176    177  3     15
   176    178    177  3     15
   177    178    179  3     15
   178     20    179  3     15
   179     20     19  3     15
    20     23     21  3     17
    21     23     22  3     17
    23    180     24  3     19
    24    180    181  3     19
   180    182    181  3     19
   181    182    183  3     19
   182    184    183  3     19
   183    184    185  3     19
   184    186    185  3     19
   185    186    187  3     19
   186    188    187  3     19
   187    188    189  3     19
   188    190    189  3     19
   189    190    191  3     19
   190    192    191  3     19
   191    192    193  3     19
   192    194    193  3     19
   193    194    195  3     19
   194     26    195  3     19
   195     26     25  3     19
    26     29     27  3     21
    27     29     28  3     21
    29    196     30  3     22
    30    196    197  3     22
   196    198    197  3     22
   197    198    199  3     22
   198      7    199  3     22
   199      7      9  3     22
    30     32    200  3     24
   200     32    201  3     24
   200    201     28  3     24
    28    201     31  3     24
    32    202     33  3     26
    33    202    203  3     26
   202     35    203  3     26
   203     35     34  3     26
    35     10     36  3     27
    36     10     12  3     27
    36     38     34  3     29
    34     38     37  3     29
    38    205    204  3     31
   204    205    206  3     31
   204    206     39  3     31
    39    206    207  3     31
   205    208    206  3     31
   206    208    209  3     31
   206    209    207  3     31
   207    209    210  3     31
   208     41    209  3     31
   209     41    211  3     31
   209    211    210  3     31
   210    211     40  3     31
    41    213    212  3     33
   212    213    214  3     33
   212    214     42  3     33
    42    214    215  3     33
   213    216    214  3     33
   214    216    217  3     33
   214    217    215  3     33
   215    217    218  3     33
   216    219    217  3     33
   217    219    220  3     33
   217    220    218  3     33
   218    220    221  3     33
   219     44    220  3     33
   220     44    222  3     33
   220    222    221  3     33
   221    222     43  3     33
    44    224    223  3     35
   223    224    225  3     35
   223    225     45  3     35
    45    225    226  3     35
   224     47    225  3     35
   225     47    227  3     35
   225    227    226  3     35
   226    227     46  3     35
    47     50    228  3     37
   228     50    229  3     37
   228    229     48  3     37
    48    229     49  3     37
    50     53     51  3     39
    51     53     52  3     39
    53     13     54  3     40
    54     13     15  3     40
    54    230     52  3     42
    52    230    231  3     42
   230     56    231  3     42
   231     56     55  3     42
    56     19    232  3     43
   232     19    233  3     43
   232    233     57  3     43
    57    233     21  3     43
    57     59     55  3     45
    55     59     58  3     45
    59    234     60  3     47
    60    234    235  3     47
   234     62    235  3     47
   235     62     61  3     47
    62    236     63  3     49
    63    236    237  3     49
   236    238    237  3     49
   237    238    239  3     49
   238    240    239  3     49
   239    240    241  3     49
   240     65    241  3     49
   241     65     64  3     49
    65    242     66  3     50
    66    242    243  3     50
   242     22    243  3     50
   243     22     24  3     50
    66    244     64  3     52
    64    244    245  3     52
   244    246    245  3     52
   245    246    247  3     52
   246    248    247  3     52
   247    248    249  3     52
   248     68    249  3     52
   249     68     67  3     52
    68    250     69  3     53
    69    250    251  3     53
   250     25    251  3     53
   251     25     27  3     53
    69    252     67  3     55
    67    252    253  3     55
   252    254    253  3     55
   253    254    255  3     55
   254    256    255  3     55
   255    256    257  3     55
   256     71    257  3     55
   257     71     70  3     55
    71    258     72  3     57
    72    258    259  3     57
   258     74    259  3     57
   259     74     73  3     57
    74     31     75  3     58
    75     31     33  3     58
    75     77     73  3     60
    73     77     76  3     60
    77    261    260  3     61
   260    261    262  3     61
   260    262     78  3     61
    78    262    263  3     61
   261     37    262  3     61
   262     37    264  3     61
   262    264    263  3     61
   263    264     39  3     61
    78     80    265  3     63
   265     80    267  3     63
   265    267    266  3     63
   266    267    268  3     63
   266    268     76  3     63
    76    268     79  3     63
    80    269     81  3     65
    81    269    270  3     65
   269     83    270  3     65
   270     83     82  3     65
    83    272    271  3     67
   271    272    273  3     67
   271    273     84  3     67
    84    273    274  3     67
   272     86    273  3     67
   273     86    275  3     67
   273    275    274  3     67
   274    275     85  3     67
    86    276     87  3     69
    87    276    277  3     69
   276    278    277  3     69
   277    278    279  3     69
   278    280    279  3     69
   279    280    281  3     69
   280    282    281  3     69
   281    282    283  3     69
   282     89    283  3     69
   283     89     88  3     69
    89     40    284  3     70
   284     40    285  3     70
   284    285     90  3     70
    90    285     42  3     70
    90     92    286  3     72
   286     92    287  3     72
   286    287     88  3     72
    88    287     91  3     72
    92    288     93  3     73
    93    288    289  3     73
   288    290    289  3     73
   289    290    291  3     73
   290    292    291  3     73
   291    292    293  3     73
   292    294    293  3     73
   293    294    295  3     73
   294    296    295  3     73
   295    296    297  3     73
   296     43    297  3     73
   297     43     45  3     73
    93    298     91  3     75
    91    298    299  3     75
   298    300    299  3     75
   299    300    301  3     75
   300    302    301  3     75
   301    302    303  3     75
   302     95    303  3     75
   303     95     94  3     75
    95    304     96  3     77
    96    304    305  3     77
   304    306    305  3     77
   305    306    307  3     77
   306    308    307  3     77
   307    308    309  3     77
   308    310    309  3     77
   309    310    311  3     77
   310    312    311  3     77
   311    312    313  3     77
   312    314    313  3     77
   313    314    315  3     77
   314     98    315  3     77
   315     98     97  3     77
    98     46     99  3     78
    99     46     48  3     78
    99    316     97  3     80
    97    316    317  3     80
   316    318    317  3     80
   317    318    319  3     80
   318    101    319  3     80
   319    101    100  3     80
   101    320    102  3     82
   102    320    321  3     82
   320    104    321  3     82
   321    104    103  3     82
   104     49    322  3     83
   322     49    323  3     83
   322    323    105  3     83
   105    323     51  3     83
   105    107    103  3     85
   103    107    106  3     85
   107     58    108  3     86
   108     58     60  3     86
   108    325    324  3     87
   324    325    326  3     87
   324    326    106  3     87
   106    326    327  3     87
   325    328    326  3     87
   326    328    329  3     87
   326    329    327  3     87
   327    329    330  3     87
   328    331    329  3     87
   329    331    332  3     87
   329    332    330  3     87
   330    332    333  3     87
   331    334    332  3     87
   332    334    335  3     87
   332    335    333  3     87
   333    335    336  3     87
   334    337    335  3     87
   335    337    338  3     87
   335    338    336  3     87
   336    338    339  3     87
   337     79    338  3     87
   338     79    340  3     87
   338    340    339  3     87
   339    340     81  3     87
   102    110    100  3     89
   100    110    109  3     89
   110    342    341  3     90
   341    342    343  3     90
   341    343    111  3     90
   111    343    344  3     90
   342     82    343  3     90
   343     82    345  3     90
   343    345    344  3     90
   344    345     84  3     90
   111    347    346  3     92
   346    347    348  3     92
   346    348    109  3     92
   109    348    349  3     92
   347    350    348  3     92
   348    350    351  3     92
   348    351    349  3     92
   349    351    352  3     92
   350    113    351  3     92
   351    113    353  3     92
   351    353    352  3     92
   352    353    112  3     92
   113    354    114  3     93
   114    354    355  3     93
   354    356    355  3     93
   355    356    357  3     93
   356    358    357  3     93
   357    358    359  3     93
   358    360    359  3     93
   359    360    361  3     93
   360     85    361  3     93
   361     85     87  3     93
   114    362    112  3     94
   112    362    363  3     94
   362     94    363  3     94
   363     94     96  3     94
    72    364     70  3     95
    70    364    365  3     95
   364    366    365  3     95
   365    366    367  3     95
   366    368    367  3     95
   367    368    369  3     95
   368     61    369  3     95
   369     61     63  3     95
   151      1    115  2      1
   151    115      2  2      1
   151      2    175  2      1
   151    175      3  2      1
   152      4    147  2      2
   152    147      6  2      2
   147      4    146  2      2
   147    146      5  2      2
     9      7    153  2      5
     9    153      8  2      5
    12     10     11  2      7
    15     13     14  2      9
    18     16    174  2     11
   174     16     17  2     11
   233     19     20  2     14
   233     20     21  2     14
    24     22     23  2     16
    27     25     26  2     18
   200     28     29  2     20
   200     29     30  2     20
    33     31    201  2     23
    33    201     32  2     23
    36     34     35  2     25
   264     37     38  2     28
   264     38    204  2     28
   264    204     39  2     28
   285     40    211  2     30
   285    211    212  2     30
   285    212     42  2     30
   212    211     41  2     30
    45     43    223  2     32
   223     43    222  2     32
   223    222     44  2     32
    48     46    370  2     34
    48    370    228  2     34
   228    370    227  2     34
   228    227     47  2     34
   227    370     46  2     34
   323     49    229  2     36
   323    229     50  2     36
   323     50     51  2     36
    54     52     53  2     38
    57     55    232  2     41
   232     55     56  2     41
    60     58     59  2     44
    63     61     62  2     46
    66     64     65  2     48
    69     67     68  2     51
    72     70     71  2     54
    75     73     74  2     56
   266     76     77  2     59
   266     77    260  2     59
   266    260    265  2     59
   265    260     78  2     59
   340     79    268  2     62
   340    268    267  2     62
   340    267     81  2     62
    81    267     80  2     62
   345     82     83  2     64
   345     83    271  2     64
   345    271     84  2     64
    87     85    275  2     66
    87    275     86  2     66
   286     88     89  2     68
   286     89    284  2     68
   286    284     90  2     68
    93     91    287  2     71
    93    287     92  2     71
    96     94     95  2     74
    99     97     98  2     76
   102    100    101  2     79
   105    103    322  2     81
   322    103    104  2     81
   324    106    107  2     84
   324    107    108  2     84
   346    109    341  2     88
   346    341    111  2     88
   341    109    110  2     88
   114    112    353  2     91
   114    353    113  2     91
   372    377    378  1     96
   373    372    378  1     96
   371    373    378  1     96
   371    378    374  1     96
   371    374    375  1     96
   375    374    379  1     96
   375    379    380  1     96
   377    376    381  1     96
   377    381    382  1     96
   378    377    382  1     96
   379    378    382  1     96
   374    378    379  1     96
   380    379    383  1     96
   382    381    384  1     96
   383    382    384  1     96
   379    382    383  1     96
   383    384    122  1     96
   383    122    119  1     96
   383    119    116  1     96
   383    116    380  1     96
   380    116      1  1     96
   380      1    375  1     96
   375      1    148  1     96
   375    148      5  1     96
   375      5    371  1     96
   371      5    143  1     96
   371    143    373  1     96
   373    143    140  1     96
   373    140    372  1     96
   372    140    137  1     96
   372    137    134  1     96
   372    134    376  1     96
   372    376    377  1     96
   376    134    131  1     96
   376    131    128  1     96
   376    128    381  1     96
   381    128    125  1     96
   381    125    384  1     96
   384    125    122  1     96
   385    387    388  1     97
   386    385    388  1     97
   386    388    389  1     97
   391    392    393  1     97
   391    393     23  1     97
   391     23     20  1     97
   391     20    178  1     97
   391    178    392  1     97
   392    178    176  1     97
   392    176    390  1     97
   392    390    121  1     97
   392    121    124  1     97
   392    124    393  1     97
   393    124    394  1     97
   393    394    180  1     97
   393    180     23  1     97
   180    394    182  1     97
   182    394    127  1     97
   182    127    184  1     97
   184    127    130  1     97
   184    130    186  1     97
   186    130    133  1     97
   186    133    188  1     97
   188    133    190  1     97
   190    133    136  1     97
   190    136    192  1     97
   192    136    139  1     97
   192    139    387  1     97
   192    387    194  1     97
   194    387     26  1     97
    26    387    385  1     97
    26    385     29  1     97
    29    385    196  1     97
   196    385    386  1     97
   196    386    198  1     97
   198    386    389  1     97
   198    389      7  1     97
     7    389    145  1     97
     7    145      4  1     97
   145    389    142  1     97
   142    389    388  1     97
   142    388    139  1     97
   139    388    387  1     97
   127    394    124  1     97
   121    390    118  1     97
   118    390     18  1     97
   118     18      2  1     97
    18    390    176  1     97
   395    396    398  1     98
   395    398    397  1     98
   397    399    400  1     98
   400    399    401  1     98
   400    401    402  1     98
   400    402    164  1     98
   400    164    162  1     98
   400    162    397  1     98
   397    162    160  1     98
   397    160    395  1     98
   395    160    158  1     98
   395    158    156  1     98
   395    156    396  1     98
   396    156    154  1     98
   396    154      8  1     98
   396      8    398  1     98
   398      8      6  1     98
   398      6    399  1     98
   398    399    397  1     98
   399      6    150  1     98
   399    150    401  1     98
   401    150      3  1     98
   401      3    403  1     98
   401    403    402  1     98
   402    403    166  1     98
   402    166    164  1     98
   166    403    168  1     98
   168    403    404  1     98
   168    404    170  1     98
   170    404    172  1     98
   170    172     14  1     98
   172    404     17  1     98
    17    404    403  1     98
    17    403      3  1     98
   154    156     11  1     98
    32     30    202  1     99
    10     35    405  1     99
    10    405    155  1     99
   155    405    199  1     99
   155    199      9  1     99
   199    405    197  1     99
   197    405    202  1     99
   197    202     30  1     99
   202    405     35  1     99
   406    408    409  1    100
   409    408    410  1    100
   414    413    415  1    100
   414    415     53  1    100
   414     53     50  1    100
   414     50     47  1    100
   414     47    224  1    100
   414    224    413  1    100
   413    224     44  1    100
   413     44    169  1    100
   413    169    171  1    100
   413    171    415  1    100
   415    171     13  1    100
   415     13     53  1    100
   169     44    167  1    100
   167     44    219  1    100
   167    219    412  1    100
   167    412    165  1    100
   165    412    411  1    100
   165    411    163  1    100
   163    411    410  1    100
   163    410    161  1    100
   161    410    159  1    100
   159    410    408  1    100
   159    408    157  1    100
   157    408    407  1    100
   157    407     12  1    100
    12    407     36  1    100
    36    407    205  1    100
    36    205     38  1    100
   205    407    208  1    100
   208    407    406  1    100
   208    406     41  1    100
    41    406    409  1    100
    41    409    213  1    100
   213    409    410  1    100
   213    410    216  1    100
   216    410    411  1    100
   216    411    412  1    100
   216    412    219  1    100
   406    407    408  1    100
    19     56    179  1    101
   179     56    230  1    101
   179    230    416  1    101
   179    416    177  1    101
   177    416     15  1    101
   177     15    173  1    101
   177    173     16  1    101
    15    416     54  1    101
    54    416    230  1    101
    57     21     59  1    102
   418    417    419  1    102
   418    419    420  1    102
   418    420    238  1    102
   418    238    236  1    102
   418    236    234  1    102
   418    234     59  1    102
   418     59    417  1    102
   417     59     21  1    102
   417     21    419  1    102
   419     21     22  1    102
   419     22    242  1    102
   419    242    420  1    102
   420    242    240  1    102
   420    240    238  1    102
   240    242     65  1    102
   234    236     62  1    102
   250     68    421  1    103
   250    421    193  1    103
   250    193    195  1    103
   250    195     25  1    103
   193    421    191  1    103
   191    421    422  1    103
   191    422    189  1    103
   189    422    423  1    103
   189    423    187  1    103
   187    423    424  1    103
   187    424    185  1    103
   185    424    425  1    103
   185    425    183  1    103
   183    425    181  1    103
   181    425    243  1    103
   181    243     24  1    103
   243    425     66  1    103
    66    425    424  1    103
    66    424    244  1    103
   244    424    246  1    103
   246    424    423  1    103
   246    423    422  1    103
   246    422    248  1    103
   248    422    421  1    103
   248    421     68  1    103
    28     31     27  1    104
   426    427    428  1    104
   426    428     74  1    104
   426     74    258  1    104
   426    258    256  1    104
   426    256    254  1    104
   426    254    427  1    104
   427    254    252  1    104
   427    252    251  1    104
   427    251     27  1    104
   427     27    428  1    104
   428     27     31  1    104
   428     31     74  1    104
   251    252     69  1    104
   256    258     71  1    104
    34     37    203  1    105
   203     37    429  1    105
   203    429     33  1    105
    33    429     75  1    105
    75    429    261  1    105
    75    261     77  1    105
   261    429     37  1    105
   431    434    435  1    106
   432    431    435  1    106
   432    435    436  1    106
   432    436    437  1    106
   430    432    437  1    106
   430    437    433  1    106
   434    440    441  1    106
   435    434    441  1    106
   435    441    442  1    106
   435    442    443  1    106
   436    435    443  1    106
   436    443    444  1    106
   437    436    444  1    106
   437    444    445  1    106
   433    437    445  1    106
   433    445    438  1    106
   433    438    439  1    106
   439    438     40  1    106
   439     40     89  1    106
   439     89    282  1    106
   439    282    280  1    106
   439    280    433  1    106
   433    280    430  1    106
   430    280    278  1    106
   430    278    432  1    106
   432    278    276  1    106
   432    276    431  1    106
   431    276     86  1    106
   431     86    434  1    106
   434     86    272  1    106
   434    272    440  1    106
   440    272     83  1    106
   440     83    269  1    106
   440    269    441  1    106
   441    269     80  1    106
   441     80    442  1    106
   442     80     78  1    106
   442     78    263  1    106
   442    263    443  1    106
   443    263     39  1    106
   443     39    444  1    106
   444     39    207  1    106
   444    207    445  1    106
   445    207    210  1    106
   445    210    438  1    106
   438    210     40  1    106
   446    447    448  1    107
   448    447    449  1    107
   448    449    292  1    107
   448    292    290  1    107
   448    290    288  1    107
   448    288    446  1    107
   446    288     90  1    107
   446     90     42  1    107
   446     42    215  1    107
   446    215    447  1    107
   447    215    218  1    107
   447    218    449  1    107
   449    218    221  1    107
   449    221    296  1    107
   449    296    294  1    107
   449    294    292  1    107
   296    221     43  1    107
    90    288     92  1    107
   451    450    452  1    108
   451    452    453  1    108
   452    456    457  1    108
   453    452    457  1    108
   453    457    458  1    108
   454    453    458  1    108
   454    458    459  1    108
   455    454    459  1    108
   455    459    460  1    108
   457    456    461  1    108
   457    461    462  1    108
   458    457    462  1    108
   458    462    463  1    108
   459    458    463  1    108
   459    463    464  1    108
   460    459    464  1    108
   460    464    465  1    108
   461    466    467  1    108
   462    461    467  1    108
   462    467    468  1    108
   463    462    468  1    108
   463    468    469  1    108
   464    463    469  1    108
   464    469    470  1    108
   465    464    470  1    108
   465    470    471  1    108
   467    466    472  1    108
   467    472    473  1    108
   468    467    473  1    108
   468    473    474  1    108
   469    468    474  1    108
   469    474    475  1    108
   470    469    475  1    108
   471    470    475  1    108
   471    475    476  1    108
   472    477    478  1    108
   473    472    478  1    108
   473    478    479  1    108
   474    473    479  1    108
   475    474    479  1    108
   475    479    480  1    108
   476    475    480  1    108
   476    480    481  1    108
   477    482    483  1    108
   478    477    483  1    108
   479    478    483  1    108
   479    483    484  1    108
   480    479    484  1    108
   481    480    484  1    108
   481    484    485  1    108
   483    482    486  1    108
   484    483    486  1    108
   485    484    486  1    108
   485    486     98  1    108
   485     98    314  1    108
   485    314    481  1    108
   481    314    312  1    108
   481    312    476  1    108
   476    312    310  1    108
   476    310    471  1    108
   471    310    308  1    108
   471    308    306  1    108
   471    306    465  1    108
   465    306    460  1    108
   460    306    304  1    108
   460    304    455  1    108
   455    304     95  1    108
   455     95    302  1    108
   455    302    454  1    108
   454    302    300  1    108
   454    300    451  1    108
   454    451    453  1    108
   451    300    298  1    108
   451    298    450  1    108
   450    298     93  1    108
   450     93    289  1    108
   450    289    452  1    108
   452    289    291  1    108
   452    291    456  1    108
   456    291    293  1    108
   456    293    461  1    108
   461    293    466  1    108
   466    293    295  1    108
   466    295    472  1    108
   472    295    297  1    108
   472    297    477  1    108
   477    297     45  1    108
   477     45    482  1    108
   482     45    226  1    108
   482    226    486  1    108
   486    226     46  1    108
   486     46     98  1    108
    49    104    487  1    109
    49    487     99  1    109
    49     99     48  1    109
    99    487    316  1    109
   316    487    318  1    109
   318    487    320  1    109
   318    320    101  1    109
   320    487    104  1    109
   231     55    489  1    110
   231    489    488  1    110
   231    488     52  1    110
    52    488     51  1    110
    51    488    105  1    110
   105    488    489  1    110
   105    489     58  1    110
   105     58    107  1    110
    58    489     55  1    110
   364     72    491  1    111
   364    491    334  1    111
   364    334    366  1    111
   366    334    331  1    111
   366    331    368  1    111
   368    331    328  1    111
   368    328     61  1    111
    61    328    325  1    111
    61    325    235  1    111
   235    325    108  1    111
   235    108     60  1    111
   334    491    337  1    111
   337    491    490  1    111
   337    490     79  1    111
    79    490     76  1    111
    76    490    259  1    111
    76    259     73  1    111
   259    490     72  1    111
    72    490    491  1    111
   493    492    494  1    112
   493    494    495  1    112
   493    495    496  1    112
   494    498    499  1    112
   494    499    500  1    112
   495    494    500  1    112
   495    500    501  1    112
   496    495    501  1    112
   496    501    502  1    112
   496    502    503  1    112
   497    496    503  1    112
   498    504    505  1    112
   499    498    505  1    112
   499    505    506  1    112
   500    499    506  1    112
   500    506    507  1    112
   501    500    507  1    112
   501    507    508  1    112
   502    501    508  1    112
   502    508    509  1    112
   503    502    509  1    112
   503    509    510  1    112
   504    511    512  1    112
   504    512    513  1    112
   505    504    513  1    112
   505    513    514  1    112
   506    505    514  1    112
   506    514    515  1    112
   507    506    515  1    112
   507    515    516  1    112
   508    507    516  1    112
   508    516    517  1    112
   509    508    517  1    112
   512    511    518  1    112
   512    518    519  1    112
   513    512    519  1    112
   514    513    519  1    112
   514    519    520  1    112
   515    514    520  1    112
   515    520    521  1    112
   516    515    521  1    112
   516    521    522  1    112
   517    516    522  1    112
   517    522    523  1    112
   518    524    525  1    112
   519    518    525  1    112
   520    519    525  1    112
   520    525    526  1    112
   521    520    526  1    112
   521    526    527  1    112
   522    521    527  1    112
   523    522    527  1    112
   525    524    528  1    112
   525    528    529  1    112
   526    525    529  1    112
   527    526    529  1    112
   527    529    245  1    112
   527    245    523  1    112
   523    245    247  1    112
   523    247    249  1    112
   523    249    517  1    112
   517    249    510  1    112
   517    510    509  1    112
   510    249     67  1    112
   510     67    503  1    112
   503     67    253  1    112
   503    253    497  1    112
   497    253    255  1    112
   497    255    496  1    112
   496    255    493  1    112
   493    255    257  1    112
   493    257    492  1    112
   492    257     70  1    112
   492     70    365  1    112
   492    365    494  1    112
   494    365    498  1    112
   498    365    367  1    112
   498    367    369  1    112
   498    369    504  1    112
   504    369    511  1    112
   511    369     63  1    112
   511     63    237  1    112
   511    237    518  1    112
   518    237    524  1    112
   524    237    239  1    112
   524    239    528  1    112
   528    239    241  1    112
   528    241    529  1    112
   529    241     64  1    112
   529     64    245  1    112
   342    110    531  1    113
   342    531    530  1    113
   342    530     82  1    113
    82    530    336  1    113
    82    336    270  1    113
   270    336    339  1    113
   270    339     81  1    113
   336    530    333  1    113
   333    530    531  1    113
   333    531    330  1    113
   330    531    532  1    113
   330    532    327  1    113
   327    532    321  1    113
   327    321    106  1    113
   106    321    103  1    113
   321    532    102  1    113
   102    532    110  1    113
   110    532    531  1    113
   533    536    537  1    114
   534    533    537  1    114
   534    537    538  1    114
   535    534    538  1    114
   535    538    539  1    114
   536    540    541  1    114
   537    536    541  1    114
   537    541    542  1    114
   538    537    542  1    114
   538    542    543  1    114
   539    538    543  1    114
   539    543    544  1    114
   541    540    545  1    114
   541    545    546  1    114
   542    541    546  1    114
   542    546    547  1    114
   543    542    547  1    114
   543    547    544  1    114
   544    547    344  1    114
   544    344     84  1    114
   544     84    274  1    114
   544    274    539  1    114
   539    274    535  1    114
   535    274     85  1    114
   535     85    360  1    114
   535    360    534  1    114
   534    360    533  1    114
   533    360    358  1    114
   533    358    356  1    114
   533    356    536  1    114
   536    356    354  1    114
   536    354    540  1    114
   540    354    113  1    114
   540    113    545  1    114
   545    113    350  1    114
   545    350    347  1    114
   545    347    546  1    114
   546    347    111  1    114
   546    111    547  1    114
   547    111    344  1    114
   548    549    550  1    115
   548    550    551  1    115
   550    549    552  1    115
   550    552    553  1    115
   550    553    554  1    115
   551    550    554  1    115
   553    552    555  1    115
   553    555    556  1    115
   554    553    556  1    115
   554    556    557  1    115
   554    557    558  1    115
   554    558    357  1    115
   554    357    551  1    115
   551    357    359  1    115
   551    359    548  1    115
   548    359    361  1    115
   548    361    277  1    115
   548    277    279  1    115
   548    279    549  1    115
   549    279    281  1    115
   549    281    552  1    115
   552    281    283  1    115
   552    283    555  1    115
   555    283    299  1    115
   555    299    301  1    115
   555    301    556  1    115
   556    301    303  1    115
   556    303    557  1    115
   557    303    559  1    115
   557    559    558  1    115
   558    559    355  1    115
   558    355    357  1    115
   355    559    362  1    115
   355    362    114  1    115
   362    559     94  1    115
    94    559    303  1    115
   299    283     91  1    115
    91    283     88  1    115
   277    361     87  1    115
   561    563    564  1    116
   562    561    564  1    116
   562    564    565  1    116
   564    563    567  1    116
   564    567    568  1    116
   565    564    568  1    116
   565    568    569  1    116
   566    565    569  1    116
   568    567    570  1    116
   568    570    569  1    116
   569    570    317  1    116
   569    317    319  1    116
   569    319    566  1    116
   566    319    100  1    116
   566    100    109  1    116
   566    109    349  1    116
   566    349    565  1    116
   565    349    352  1    116
   565    352    562  1    116
   562    352    112  1    116
   562    112    560  1    116
   562    560    561  1    116
   561    560    307  1    116
   561    307    309  1    116
   561    309    563  1    116
   563    309    311  1    116
   563    311    567  1    116
   567    311    313  1    116
   567    313    570  1    116
   570    313    315  1    116
   570    315    317  1    116
   317    315     97  1    116
   307    560    305  1    116
   305    560    363  1    116
   305    363     96  1    116
   363    560    112  1    116
