# MSMS solvent excluded surface faces for fragments/fragment252.xyzr
#faces  #sphere density probe_r
   1734      39  3.00  1.50
     1    267      2  3      3
     2    267    268  3      3
   267      5    268  3      3
   268      5      4  3      3
     5      8      6  3      5
     6      8      7  3      5
     8     11      9  3      7
     9     11     10  3      7
    11     14    269  3      9
   269     14    270  3      9
   269    270     12  3      9
    12    270     13  3      9
    14    272    271  3     10
   271    272    273  3     10
   271    273     15  3     10
    15    273    274  3     10
   272      1    273  3     10
   273      1    275  3     10
   273    275    274  3     10
   274    275      3  3     10
    15    277    276  3     12
   276    277    278  3     12
   276    278     13  3     12
    13    278    279  3     12
   277     17    278  3     12
   278     17    280  3     12
   278    280    279  3     12
   279    280     16  3     12
    17     20    281  3     14
   281     20    282  3     14
   281    282     18  3     14
    18    282     19  3     14
    20    283     21  3     16
    21    283    284  3     16
   283    285    284  3     16
   284    285    286  3     16
   285    287    286  3     16
   286    287    288  3     16
   287     23    288  3     16
   288     23     22  3     16
    23      3    289  3     17
   289      3    290  3     17
   289    290     24  3     17
    24    290      2  3     17
    24     26    291  3     19
   291     26    292  3     19
   291    292     22  3     19
    22    292     25  3     19
    26     29     27  3     21
    27     29     28  3     21
    29    293     30  3     23
    30    293    294  3     23
   293     32    294  3     23
   294     32     31  3     23
    32    295     33  3     24
    33    295    296  3     24
   295    297    296  3     24
   296    297    298  3     24
   297      4    298  3     24
   298      4      6  3     24
    33     35    299  3     26
   299     35    300  3     26
   299    300     31  3     26
    31    300     34  3     26
    35     38    301  3     28
   301     38    303  3     28
   301    303    302  3     28
   302    303    304  3     28
   302    304     36  3     28
    36    304     37  3     28
    38     41    305  3     30
   305     41    306  3     30
   305    306     39  3     30
    39    306     40  3     30
    41    308    307  3     32
   307    308    309  3     32
   307    309     42  3     32
    42    309    310  3     32
   308    311    309  3     32
   309    311    312  3     32
   309    312    310  3     32
   310    312    313  3     32
   311    314    312  3     32
   312    314    315  3     32
   312    315    313  3     32
   313    315    316  3     32
   314     44    315  3     32
   315     44    317  3     32
   315    317    316  3     32
   316    317     43  3     32
    44     47    318  3     34
   318     47    319  3     34
   318    319     45  3     34
    45    319     46  3     34
    47     50    320  3     36
   320     50    323  3     36
   320    323    321  3     36
   321    323    324  3     36
   321    324    322  3     36
   322    324    325  3     36
   322    325     48  3     36
    48    325     49  3     36
    50    326     51  3     38
    51    326    327  3     38
   326     53    327  3     38
   327     53     52  3     38
    53     56    328  3     40
   328     56    329  3     40
   328    329     54  3     40
    54    329     55  3     40
    56      7     57  3     41
    57      7      9  3     41
    57     10    330  3     42
   330     10    331  3     42
   330    331     55  3     42
    55    331     12  3     42
    54     59    332  3     44
   332     59    334  3     44
   332    334    333  3     44
   333    334    335  3     44
   333    335     52  3     44
    52    335     58  3     44
    59     62    336  3     46
   336     62    337  3     46
   336    337     60  3     46
    60    337     61  3     46
    62     65    338  3     48
   338     65    341  3     48
   338    341    339  3     48
   339    341    342  3     48
   339    342    340  3     48
   340    342    343  3     48
   340    343     63  3     48
    63    343     64  3     48
    65     68     66  3     50
    66     68     67  3     50
    68    344     69  3     51
    69    344    345  3     51
   344    346    345  3     51
   345    346    347  3     51
   346    348    347  3     51
   347    348    349  3     51
   348     16    349  3     51
   349     16     18  3     51
    69    350     67  3     53
    67    350    351  3     53
   350    352    351  3     53
   351    352    353  3     53
   352     71    353  3     53
   353     71     70  3     53
    71    355    354  3     55
   354    355    356  3     55
   354    356     72  3     55
    72    356    357  3     55
   355    358    356  3     55
   356    358    359  3     55
   356    359    357  3     55
   357    359    360  3     55
   358     74    359  3     55
   359     74    361  3     55
   359    361    360  3     55
   360    361     73  3     55
    74     19    362  3     56
   362     19    363  3     56
   362    363     75  3     56
    75    363     21  3     56
    75    364     73  3     58
    73    364    365  3     58
   364    366    365  3     58
   365    366    367  3     58
   366    368    367  3     58
   367    368    369  3     58
   368     77    369  3     58
   369     77     76  3     58
    77     80     78  3     60
    78     80     79  3     60
    80     83    370  3     62
   370     83    371  3     62
   370    371     81  3     62
    81    371     82  3     62
    83     25     84  3     63
    84     25     27  3     63
    84    372     82  3     65
    82    372    373  3     65
   372    374    373  3     65
   373    374    375  3     65
   374     86    375  3     65
   375     86     85  3     65
    86    376     87  3     67
    87    376    377  3     67
   376     89    377  3     67
   377     89     88  3     67
    89     92     90  3     69
    90     92     91  3     69
    92    378     93  3     70
    93    378    379  3     70
   378    380    379  3     70
   379    380    381  3     70
   380     28    381  3     70
   381     28     30  3     70
    93     34    382  3     71
   382     34    383  3     71
   382    383     91  3     71
    91    383     36  3     71
    90     95     88  3     73
    88     95     94  3     73
    95     98     96  3     75
    96     98     97  3     75
    98    384     99  3     77
    99    384    385  3     77
   384    386    385  3     77
   385    386    387  3     77
   386    388    387  3     77
   387    388    389  3     77
   388    101    389  3     77
   389    101    100  3     77
   101    104    390  3     79
   390    104    392  3     79
   390    392    391  3     79
   391    392    393  3     79
   391    393    102  3     79
   102    393    103  3     79
   104    107    394  3     81
   394    107    396  3     81
   394    396    395  3     81
   395    396    397  3     81
   395    397    105  3     81
   105    397    106  3     81
   107     37    398  3     82
   398     37    401  3     82
   398    401    399  3     82
   399    401    402  3     82
   399    402    400  3     82
   400    402    403  3     82
   400    403    108  3     82
   108    403     39  3     82
   108    110    106  3     84
   106    110    109  3     84
   110    113    404  3     86
   404    113    405  3     86
   404    405    111  3     86
   111    405    112  3     86
   113    116    114  3     88
   114    116    115  3     88
   116    407    406  3     90
   406    407    408  3     90
   406    408    117  3     90
   117    408    409  3     90
   407    410    408  3     90
   408    410    411  3     90
   408    411    409  3     90
   409    411    412  3     90
   410    119    411  3     90
   411    119    413  3     90
   411    413    412  3     90
   412    413    118  3     90
   119    122    414  3     92
   414    122    416  3     92
   414    416    415  3     92
   415    416    417  3     92
   415    417    120  3     92
   120    417    121  3     92
   122     46    418  3     93
   418     46    421  3     93
   418    421    419  3     93
   419    421    422  3     93
   419    422    420  3     93
   420    422    423  3     93
   420    423    123  3     93
   123    423     48  3     93
   123    125    121  3     95
   121    125    124  3     95
   125    425    424  3     97
   424    425    426  3     97
   424    426    126  3     97
   126    426    427  3     97
   425    128    426  3     97
   426    128    428  3     97
   426    428    427  3     97
   427    428    127  3     97
   128    429    129  3     99
   129    429    430  3     99
   429    131    430  3     99
   430    131    130  3     99
   131    432    431  3    101
   431    432    433  3    101
   431    433    132  3    101
   132    433    434  3    101
   432    134    433  3    101
   433    134    435  3    101
   433    435    434  3    101
   434    435    133  3    101
   134    137    135  3    103
   135    137    136  3    103
   137    140    436  3    105
   436    140    437  3    105
   436    437    138  3    105
   138    437    139  3    105
   140     49    438  3    106
   438     49    441  3    106
   438    441    439  3    106
   439    441    442  3    106
   439    442    440  3    106
   440    442    443  3    106
   440    443    141  3    106
   141    443     51  3    106
   141    143    444  3    108
   444    143    445  3    108
   444    445    139  3    108
   139    445    142  3    108
   143     58    144  3    109
   144     58     60  3    109
   144     61    446  3    110
   446     61    447  3    110
   446    447    142  3    110
   142    447     63  3    110
   138    146    136  3    112
   136    146    145  3    112
   146    449    448  3    114
   448    449    450  3    114
   448    450    147  3    114
   147    450    451  3    114
   449    149    450  3    114
   450    149    452  3    114
   450    452    451  3    114
   451    452    148  3    114
   149    152    150  3    116
   150    152    151  3    116
   152     64    453  3    117
   453     64    455  3    117
   453    455    454  3    117
   454    455    456  3    117
   454    456    153  3    117
   153    456     66  3    117
   153    155    457  3    119
   457    155    459  3    119
   457    459    458  3    119
   458    459    460  3    119
   458    460    151  3    119
   151    460    154  3    119
   155    461    156  3    121
   156    461    462  3    121
   461    158    462  3    121
   462    158    157  3    121
   158    161    463  3    123
   463    161    464  3    123
   463    464    159  3    123
   159    464    160  3    123
   161    465    162  3    124
   162    465    466  3    124
   465     70    466  3    124
   466     70     72  3    124
   162    164    467  3    126
   467    164    468  3    126
   467    468    160  3    126
   160    468    163  3    126
   164    167    469  3    128
   469    167    470  3    128
   469    470    165  3    128
   165    470    166  3    128
   167    471    168  3    130
   168    471    472  3    130
   471    473    472  3    130
   472    473    474  3    130
   473    170    474  3    130
   474    170    169  3    130
   170    476    475  3    132
   475    476    477  3    132
   475    477    171  3    132
   171    477    478  3    132
   476    173    477  3    132
   477    173    479  3    132
   477    479    478  3    132
   478    479    172  3    132
   173     76    174  3    133
   174     76     78  3    133
   174    176    480  3    135
   480    176    481  3    135
   480    481    172  3    135
   172    481    175  3    135
   176     79    177  3    136
   177     79     81  3    136
   177    483    482  3    138
   482    483    484  3    138
   482    484    175  3    138
   175    484    485  3    138
   483    179    484  3    138
   484    179    486  3    138
   484    486    485  3    138
   485    486    178  3    138
   179     85    487  3    139
   487     85    488  3    139
   487    488    180  3    139
   180    488     87  3    139
   180    182    178  3    141
   178    182    181  3    141
   182    185    183  3    143
   183    185    184  3    143
   185    489    186  3    144
   186    489    490  3    144
   489     94    490  3    144
   490     94     96  3    144
   186    188    491  3    146
   491    188    492  3    146
   491    492    184  3    146
   184    492    187  3    146
   188    493    189  3    148
   189    493    494  3    148
   493    495    494  3    148
   494    495    496  3    148
   495    191    496  3    148
   496    191    190  3    148
   191    194    192  3    150
   192    194    193  3    150
   194    497    195  3    151
   195    497    498  3    151
   497     97    498  3    151
   498     97     99  3    151
   195    197    499  3    153
   499    197    500  3    153
   499    500    193  3    153
   193    500    196  3    153
   197    502    501  3    155
   501    502    503  3    155
   501    503    198  3    155
   198    503    504  3    155
   502    505    503  3    155
   503    505    506  3    155
   503    506    504  3    155
   504    506    507  3    155
   505    508    506  3    155
   506    508    509  3    155
   506    509    507  3    155
   507    509    510  3    155
   508    200    509  3    155
   509    200    511  3    155
   509    511    510  3    155
   510    511    199  3    155
   200    203    512  3    157
   512    203    513  3    157
   512    513    201  3    157
   201    513    202  3    157
   203    514    204  3    159
   204    514    515  3    159
   514    206    515  3    159
   515    206    205  3    159
   206    516    207  3    161
   207    516    517  3    161
   516    209    517  3    161
   517    209    208  3    161
   209    100    518  3    162
   518    100    521  3    162
   518    521    519  3    162
   519    521    522  3    162
   519    522    520  3    162
   520    522    523  3    162
   520    523    210  3    162
   210    523    102  3    162
   210    212    524  3    164
   524    212    526  3    164
   524    526    525  3    164
   525    526    527  3    164
   525    527    208  3    164
   208    527    211  3    164
   212    215    528  3    166
   528    215    531  3    166
   528    531    529  3    166
   529    531    532  3    166
   529    532    530  3    166
   530    532    533  3    166
   530    533    213  3    166
   213    533    214  3    166
   215    218    216  3    168
   216    218    217  3    168
   218    536    534  3    170
   534    536    537  3    170
   534    537    535  3    170
   535    537    538  3    170
   535    538    219  3    170
   219    538    539  3    170
   536    540    537  3    170
   537    540    541  3    170
   537    541    538  3    170
   538    541    542  3    170
   538    542    539  3    170
   539    542    543  3    170
   540    221    541  3    170
   541    221    544  3    170
   541    544    542  3    170
   542    544    545  3    170
   542    545    543  3    170
   543    545    220  3    170
   221    548    546  3    172
   546    548    549  3    172
   546    549    547  3    172
   547    549    550  3    172
   547    550    222  3    172
   222    550    551  3    172
   548    224    549  3    172
   549    224    552  3    172
   549    552    550  3    172
   550    552    553  3    172
   550    553    551  3    172
   551    553    223  3    172
   224    112    225  3    173
   225    112    114  3    173
   225    115    554  3    174
   554    115    555  3    174
   554    555    223  3    174
   223    555    117  3    174
   222    557    556  3    176
   556    557    558  3    176
   556    558    220  3    176
   220    558    559  3    176
   557    227    558  3    176
   558    227    560  3    176
   558    560    559  3    176
   559    560    226  3    176
   227    561    228  3    177
   228    561    562  3    177
   561    563    562  3    177
   562    563    564  3    177
   563    127    564  3    177
   564    127    129  3    177
   228    565    226  3    178
   226    565    566  3    178
   565    567    566  3    178
   566    567    568  3    178
   567    130    568  3    178
   568    130    132  3    178
   219    148    569  3    179
   569    148    571  3    179
   569    571    570  3    179
   570    571    572  3    179
   570    572    217  3    179
   217    572    150  3    179
   216    154    573  3    180
   573    154    575  3    180
   573    575    574  3    180
   574    575    576  3    180
   574    576    214  3    180
   214    576    156  3    180
   213    157    577  3    181
   577    157    578  3    181
   577    578    211  3    181
   211    578    159  3    181
   207    230    205  3    183
   205    230    229  3    183
   230    163    231  3    184
   231    163    165  3    184
   231    579    229  3    186
   229    579    580  3    186
   579    233    580  3    186
   580    233    232  3    186
   233    236    234  3    188
   234    236    235  3    188
   236    239    237  3    190
   237    239    238  3    190
   239    166    581  3    191
   581    166    582  3    191
   581    582    240  3    191
   240    582    168  3    191
   240    169    583  3    192
   583    169    584  3    192
   583    584    238  3    192
   238    584    171  3    192
   237    585    235  3    193
   235    585    586  3    193
   585    587    586  3    193
   586    587    588  3    193
   587    589    588  3    193
   588    589    590  3    193
   589    591    590  3    193
   590    591    592  3    193
   591    593    592  3    193
   592    593    594  3    193
   593    595    594  3    193
   594    595    596  3    193
   595    597    596  3    193
   596    597    598  3    193
   597    181    598  3    193
   598    181    183  3    193
   234    242    599  3    195
   599    242    600  3    195
   599    600    232  3    195
   232    600    241  3    195
   242    245    243  3    197
   243    245    244  3    197
   245    601    246  3    199
   246    601    602  3    199
   601    603    602  3    199
   602    603    604  3    199
   603    605    604  3    199
   604    605    606  3    199
   605    607    606  3    199
   606    607    608  3    199
   607    609    608  3    199
   608    609    610  3    199
   609    611    610  3    199
   610    611    612  3    199
   611    613    612  3    199
   612    613    614  3    199
   613    248    614  3    199
   614    248    247  3    199
   248    187    249  3    200
   249    187    189  3    200
   249    615    247  3    202
   247    615    616  3    202
   615    251    616  3    202
   616    251    250  3    202
   251    254    252  3    204
   252    254    253  3    204
   254    617    255  3    205
   255    617    618  3    205
   617    619    618  3    205
   618    619    620  3    205
   619    621    620  3    205
   620    621    622  3    205
   621    190    622  3    205
   622    190    192  3    205
   255    623    253  3    207
   253    623    624  3    207
   623    625    624  3    207
   624    625    626  3    207
   625    627    626  3    207
   626    627    628  3    207
   627    629    628  3    207
   628    629    630  3    207
   629    631    630  3    207
   630    631    632  3    207
   631    257    632  3    207
   632    257    256  3    207
   257    633    258  3    209
   258    633    634  3    209
   633    635    634  3    209
   634    635    636  3    209
   635    637    636  3    209
   636    637    638  3    209
   637    260    638  3    209
   638    260    259  3    209
   260    202    261  3    210
   261    202    204  3    210
   261    639    259  3    211
   259    639    640  3    211
   639    641    640  3    211
   640    641    642  3    211
   641    241    642  3    211
   642    241    243  3    211
   258    263    256  3    213
   256    263    262  3    213
   263    643    264  3    214
   264    643    644  3    214
   643    244    644  3    214
   644    244    246  3    214
   264    646    645  3    215
   645    646    647  3    215
   645    647    262  3    215
   262    647    648  3    215
   646    649    647  3    215
   647    649    650  3    215
   647    650    648  3    215
   648    650    651  3    215
   649    250    650  3    215
   650    250    652  3    215
   650    652    651  3    215
   651    652    252  3    215
   201    653    199  3    216
   199    653    654  3    216
   653    655    654  3    216
   654    655    656  3    216
   655    657    656  3    216
   656    657    658  3    216
   657    659    658  3    216
   658    659    660  3    216
   659    661    660  3    216
   660    661    662  3    216
   661    196    662  3    216
   662    196    198  3    216
   147    133    145  3    217
   145    133    135  3    217
   126    118    124  3    218
   124    118    120  3    218
   111    103    109  3    219
   109    103    105  3    219
    45    664    663  3    220
   663    664    665  3    220
   663    665     43  3    220
    43    665    666  3    220
   664     40    665  3    220
   665     40    667  3    220
   665    667    666  3    220
   666    667     42  3    220
   265    668    266  3    221
   266    668    669  3    221
   668    670    669  3    221
   669    670    671  3    221
   670    672    671  3    221
   671    672    673  3    221
   672    674    673  3    221
   673    674    675  3    221
   674    676    675  3    221
   675    676    677  3    221
   676    265    677  3    221
   677    265    266  3    221
   275      1      2  2      1
   275      2    290  2      1
   275    290      3  2      1
     6      4      5  2      2
     9      7      8  2      4
   331     10    269  2      6
   331    269     12  2      6
   269     10     11  2      6
   276     13    270  2      8
   276    270    271  2      8
   276    271     15  2      8
   271    270     14  2      8
    18     16    281  2     11
   281     16    280  2     11
   281    280     17  2     11
   363     19    282  2     13
   363    282     20  2     13
   363     20     21  2     13
   291     22     23  2     15
   291     23    289  2     15
   291    289     24  2     15
    27     25    292  2     18
    27    292     26  2     18
    30     28     29  2     20
   299     31     32  2     22
   299     32     33  2     22
   383     34    301  2     25
   383    301    302  2     25
   383    302     36  2     25
   301     34    300  2     25
   301    300     35  2     25
   401     37    304  2     27
   401    304    303  2     27
   401    303    402  2     27
   402    303    678  2     27
   402    678    403  2     27
   403    678    305  2     27
   403    305     39  2     27
   305    678     38  2     27
    38    678    303  2     27
   667     40    306  2     29
   667    306     41  2     29
   667     41    307  2     29
   667    307     42  2     29
   663     43    317  2     31
   663    317     44  2     31
   663     44    318  2     31
   663    318     45  2     31
   421     46    680  2     33
   421    680    422  2     33
   422    680    679  2     33
   422    679    423  2     33
   423    679    322  2     33
   423    322     48  2     33
   322    679    321  2     33
   321    679    680  2     33
   321    680    320  2     33
   320    680    681  2     33
   320    681     47  2     33
    47    681    319  2     33
   319    681     46  2     33
    46    681    680  2     33
   441     49    325  2     35
   441    325    442  2     35
   442    325    324  2     35
   442    324    443  2     35
   443    324    323  2     35
   443    323     51  2     35
    51    323     50  2     35
   333     52     53  2     37
   333     53    328  2     37
   333    328    332  2     37
   332    328     54  2     37
   330     55    329  2     39
   330    329     57  2     39
    57    329     56  2     39
    60     58    335  2     43
    60    335    336  2     43
   336    335    334  2     43
   336    334     59  2     43
   447     61    340  2     45
   447    340     63  2     45
   340     61    339  2     45
   339     61    337  2     45
   339    337    338  2     45
   338    337     62  2     45
   455     64    343  2     47
   455    343    342  2     47
   455    342    456  2     47
   456    342    341  2     47
   456    341     66  2     47
    66    341     65  2     47
    69     67     68  2     49
    72     70    354  2     52
   354     70     71  2     52
    75     73    362  2     54
   362     73    361  2     54
   362    361     74  2     54
    78     76     77  2     57
    81     79    370  2     59
   370     79     80  2     59
    84     82    371  2     61
    84    371     83  2     61
   488     85     86  2     64
   488     86     87  2     64
    90     88     89  2     66
   382     91     92  2     68
   382     92     93  2     68
    96     94     95  2     72
    99     97     98  2     74
   521    100    101  2     76
   521    101    390  2     76
   521    390    522  2     76
   522    390    391  2     76
   522    391    523  2     76
   523    391    102  2     76
   105    103    393  2     78
   105    393    395  2     78
   395    393    392  2     78
   395    392    394  2     78
   394    392    104  2     78
   108    106    400  2     80
   400    106    397  2     80
   400    397    399  2     80
   399    397    396  2     80
   399    396    398  2     80
   398    396    107  2     80
   111    109    404  2     83
   404    109    110  2     83
   114    112    405  2     85
   114    405    113  2     85
   555    115    406  2     87
   555    406    117  2     87
   406    115    116  2     87
   120    118    415  2     89
   415    118    413  2     89
   415    413    414  2     89
   414    413    119  2     89
   123    121    420  2     91
   420    121    419  2     91
   419    121    417  2     91
   419    417    418  2     91
   418    417    416  2     91
   418    416    122  2     91
   126    124    424  2     94
   424    124    125  2     94
   129    127    428  2     96
   129    428    128  2     96
   132    130    431  2     98
   431    130    131  2     98
   135    133    435  2    100
   135    435    134  2    100
   138    136    436  2    102
   436    136    137  2    102
   444    139    439  2    104
   444    439    440  2    104
   444    440    141  2    104
   439    139    437  2    104
   439    437    438  2    104
   438    437    140  2    104
   446    142    445  2    107
   446    445    144  2    107
   144    445    143  2    107
   147    145    448  2    111
   448    145    146  2    111
   571    148    452  2    113
   571    452    572  2    113
   572    452    149  2    113
   572    149    150  2    113
   458    151    453  2    115
   458    453    454  2    115
   458    454    457  2    115
   457    454    153  2    115
   453    151    152  2    115
   575    154    460  2    118
   575    460    576  2    118
   576    460    459  2    118
   576    459    156  2    118
   156    459    155  2    118
   578    157    463  2    120
   578    463    159  2    120
   463    157    158  2    120
   467    160    464  2    122
   467    464    162  2    122
   162    464    161  2    122
   165    163    468  2    125
   165    468    469  2    125
   469    468    164  2    125
   582    166    470  2    127
   582    470    167  2    127
   582    167    168  2    127
   584    169    170  2    129
   584    170    475  2    129
   584    475    171  2    129
   480    172    479  2    131
   480    479    174  2    131
   174    479    173  2    131
   482    175    481  2    134
   482    481    176  2    134
   482    176    177  2    134
   180    178    486  2    137
   180    486    487  2    137
   487    486    179  2    137
   183    181    182  2    140
   491    184    185  2    142
   491    185    186  2    142
   189    187    492  2    145
   189    492    188  2    145
   192    190    191  2    147
   499    193    194  2    149
   499    194    195  2    149
   198    196    500  2    152
   198    500    501  2    152
   501    500    197  2    152
   201    199    512  2    154
   512    199    511  2    154
   512    511    200  2    154
   204    202    513  2    156
   204    513    203  2    156
   207    205    206  2    158
   525    208    518  2    160
   525    518    519  2    160
   525    519    524  2    160
   524    519    520  2    160
   524    520    210  2    160
   518    208    209  2    160
   577    211    682  2    163
   577    682    684  2    163
   577    684    213  2    163
   213    684    530  2    163
   530    684    529  2    163
   529    684    683  2    163
   529    683    528  2    163
   528    683    526  2    163
   528    526    212  2    163
   526    683    527  2    163
   527    683    682  2    163
   527    682    211  2    163
   682    683    684  2    163
   574    214    533  2    165
   574    533    532  2    165
   574    532    573  2    165
   573    532    531  2    165
   573    531    216  2    165
   216    531    215  2    165
   570    217    534  2    167
   570    534    535  2    167
   570    535    569  2    167
   569    535    219  2    167
   534    217    218  2    167
   556    220    545  2    169
   556    545    685  2    169
   556    685    222  2    169
   222    685    547  2    169
   547    685    546  2    169
   546    685    544  2    169
   546    544    221  2    169
   544    685    545  2    169
   554    223    553  2    171
   554    553    552  2    171
   554    552    225  2    171
   225    552    224  2    171
   228    226    560  2    175
   228    560    227  2    175
   231    229    230  2    182
   599    232    233  2    185
   599    233    234  2    185
   237    235    236  2    187
   583    238    239  2    189
   583    239    581  2    189
   583    581    240  2    189
   243    241    600  2    194
   243    600    242  2    194
   246    244    245  2    196
   249    247    248  2    198
   652    250    251  2    201
   652    251    252  2    201
   255    253    254  2    203
   258    256    257  2    206
   261    259    260  2    208
   645    262    263  2    212
   645    263    264  2    212
   272     14    686  1    222
   272    686    687  1    222
   272    687      1  1    222
     1    687    267  1    222
   267    687      5  1    222
     5    687    686  1    222
     5    686      8  1    222
     8    686     11  1    222
    11    686     14  1    222
   295     32    293  1    223
   295    293    268  1    223
   295    268    297  1    223
   297    268      4  1    223
   268    293     29  1    223
   268     29     24  1    223
   268     24      2  1    223
    24     29     26  1    223
     7     56    326  1    224
     7    326      6  1    224
     6    326    691  1    224
     6    691    298  1    224
   298    691    690  1    224
   298    690    296  1    224
   296    690    314  1    224
   296    314    311  1    224
   296    311     33  1    224
    33    311    308  1    224
    33    308     35  1    224
    35    308     41  1    224
    35     41     38  1    224
   314    690    691  1    224
   314    691    689  1    224
   314    689    688  1    224
   314    688     44  1    224
    44    688     47  1    224
    47    688     50  1    224
    50    688    689  1    224
    50    689    326  1    224
   326    689    691  1    224
   326     56     53  1    224
    10     57      9  1    225
   693    694    695  1    226
   695    694     54  1    226
   695     54     55  1    226
   695     55     12  1    226
   695     12     13  1    226
   695     13    279  1    226
   695    279    696  1    226
   695    696    693  1    226
   693    696    348  1    226
   693    348    346  1    226
   693    346    344  1    226
   693    344    692  1    226
   693    692    694  1    226
   694    692     59  1    226
   694     59     54  1    226
    59    692     62  1    226
    62    692     65  1    226
    65    692    344  1    226
    65    344     68  1    226
   348    696     16  1    226
    16    696    279  1    226
   697    698    699  1    227
   699    698    700  1    227
   699    700    287  1    227
   699    287    285  1    227
   699    285    283  1    227
   699    283    697  1    227
   697    283     17  1    227
   697     17    277  1    227
   697    277    698  1    227
   698    277     15  1    227
   698     15    274  1    227
   698    274    700  1    227
   700    274      3  1    227
   700      3    287  1    227
   287      3     23  1    227
    17    283     20  1    227
   702    701    704  1    228
   702    704    705  1    228
   701    703    704  1    228
   704    703    706  1    228
   704    706    707  1    228
   705    704    707  1    228
   705    707    708  1    228
   705    708    358  1    228
   705    358    355  1    228
   705    355    702  1    228
   702    355     71  1    228
   702     71    352  1    228
   702    352    701  1    228
   701    352    350  1    228
   701    350     69  1    228
   701     69    703  1    228
   703     69    345  1    228
   703    345    347  1    228
   703    347    706  1    228
   706    347    349  1    228
   706    349    707  1    228
   707    349     18  1    228
   707     18     19  1    228
   707     19    708  1    228
   708     19     74  1    228
   708     74    358  1    228
   710    709    712  1    229
   710    712    713  1    229
   711    710    713  1    229
   713    712    714  1    229
   713    714    715  1    229
   713    715     83  1    229
   713     83     80  1    229
   713     80    711  1    229
   711     80     77  1    229
   711     77    368  1    229
   711    368    710  1    229
   710    368    366  1    229
   710    366    709  1    229
   709    366    364  1    229
   709    364     75  1    229
   709     75     21  1    229
   709     21    284  1    229
   709    284    712  1    229
   712    284    286  1    229
   712    286    714  1    229
   714    286    288  1    229
   714    288    715  1    229
   715    288     22  1    229
   715     22     25  1    229
   715     25     83  1    229
   378     92    716  1    230
   378    716    717  1    230
   378    717    380  1    230
   380    717    718  1    230
   380    718     28  1    230
    28    718    372  1    230
    28    372     27  1    230
    27    372     84  1    230
   372    718    374  1    230
   374    718    717  1    230
   374    717    376  1    230
   374    376     86  1    230
   376    717    716  1    230
   376    716     89  1    230
    89    716     92  1    230
    31     34    719  1    231
    31    719    294  1    231
   294    719    381  1    231
   294    381     30  1    231
   381    719    379  1    231
   379    719     93  1    231
    93    719     34  1    231
   720    723    724  1    232
   721    720    724  1    232
   722    725    726  1    232
   723    722    726  1    232
   723    726    727  1    232
   724    723    727  1    232
   724    727     37  1    232
   724     37    721  1    232
   721     37    107  1    232
   721    107    104  1    232
   721    104    388  1    232
   721    388    386  1    232
   721    386    720  1    232
   720    386    384  1    232
   720    384    723  1    232
   723    384    722  1    232
   722    384     98  1    232
   722     98     95  1    232
   722     95    725  1    232
   725     95     90  1    232
   725     90     91  1    232
   725     91    726  1    232
   726     91    727  1    232
   727     91     36  1    232
   727     36     37  1    232
   388    104    101  1    232
   728    729    730  1    233
   728    730    731  1    233
   729    733    734  1    233
   730    729    734  1    233
   730    734    735  1    233
   731    730    735  1    233
   734    733    736  1    233
   735    734    736  1    233
   735    736    737  1    233
   737    736    739  1    233
   737    739    740  1    233
   738    737    740  1    233
   738    740    122  1    233
   738    122    119  1    233
   738    119    410  1    233
   738    410    735  1    233
   738    735    737  1    233
   735    410    731  1    233
   731    410    407  1    233
   731    407    113  1    233
   731    113    728  1    233
   728    113    110  1    233
   728    110    729  1    233
   729    110    108  1    233
   729    108    732  1    233
   729    732    733  1    233
   733    732     40  1    233
   733     40    664  1    233
   733    664    736  1    233
   736    664    739  1    233
   739    664     45  1    233
   739     45    740  1    233
   740     45     46  1    233
   740     46    122  1    233
    40    732     39  1    233
    39    732    108  1    233
   113    407    116  1    233
   666     42    741  1    234
   666    741     43  1    234
    43    741    316  1    234
   316    741    313  1    234
   313    741    310  1    234
   310    741     42  1    234
   743    749    750  1    235
   744    743    750  1    235
   742    744    750  1    235
   742    750    745  1    235
   742    745    746  1    235
   746    745    751  1    235
   746    751    752  1    235
   747    746    752  1    235
   747    752    753  1    235
   748    755    756  1    235
   749    748    756  1    235
   749    756    757  1    235
   750    749    757  1    235
   751    750    757  1    235
   745    750    751  1    235
   752    751    758  1    235
   752    758    759  1    235
   753    752    759  1    235
   755    754    761  1    235
   755    761    762  1    235
   756    755    762  1    235
   757    756    762  1    235
   758    757    762  1    235
   751    757    758  1    235
   759    758    763  1    235
   761    760    763  1    235
   762    761    763  1    235
   758    762    763  1    235
   763    760     49  1    235
   763     49    759  1    235
   759     49    140  1    235
   759    140    753  1    235
   753    140    137  1    235
   753    137    134  1    235
   753    134    747  1    235
   747    134    432  1    235
   747    432    746  1    235
   746    432    742  1    235
   742    432    131  1    235
   742    131    744  1    235
   744    131    429  1    235
   744    429    743  1    235
   743    429    128  1    235
   743    128    748  1    235
   743    748    749  1    235
   748    128    425  1    235
   748    425    755  1    235
   755    425    125  1    235
   755    125    754  1    235
   754    125    123  1    235
   754    123     48  1    235
   754     48    760  1    235
   754    760    761  1    235
   760     48     49  1    235
    52     58    141  1    236
    52    141    327  1    236
   327    141     51  1    236
   141     58    143  1    236
    61    144     60  1    237
    64    152    449  1    238
    64    449    146  1    238
    64    146     63  1    238
    63    146    142  1    238
   142    146    138  1    238
   142    138    139  1    238
   449    152    149  1    238
   353     70    465  1    239
   353    465    158  1    239
   353    158    461  1    239
   353    461    351  1    239
   351    461    155  1    239
   351    155    153  1    239
   351    153     67  1    239
    67    153     66  1    239
   158    465    161  1    239
   369     76    173  1    240
   369    173    476  1    240
   369    476    367  1    240
   367    476    170  1    240
   367    170    473  1    240
   367    473    365  1    240
   365    473    360  1    240
   365    360     73  1    240
   360    473    357  1    240
   357    473    471  1    240
   357    471     72  1    240
    72    471    466  1    240
   466    471    167  1    240
   466    167    164  1    240
   466    164    162  1    240
    79    176     78  1    241
    78    176    174  1    241
   375     85    179  1    242
   375    179    483  1    242
   375    483    373  1    242
   373    483     82  1    242
    82    483     81  1    242
    81    483    177  1    242
    88     94    764  1    243
    88    764    377  1    243
   377    764     87  1    243
    87    764    182  1    243
    87    182    180  1    243
   182    764    185  1    243
   185    764    489  1    243
   489    764     94  1    243
   497    194    191  1    244
   497    191    495  1    244
   497    495     97  1    244
    97    495    493  1    244
    97    493    490  1    244
    97    490     96  1    244
   490    493    188  1    244
   490    188    186  1    244
   100    209    766  1    245
   100    766    768  1    245
   100    768    389  1    245
   389    768    770  1    245
   389    770    387  1    245
   387    770    769  1    245
   387    769    385  1    245
   385    769    498  1    245
   385    498     99  1    245
   498    769    195  1    245
   195    769    197  1    245
   197    769    502  1    245
   502    769    770  1    245
   502    770    768  1    245
   502    768    505  1    245
   505    768    766  1    245
   505    766    508  1    245
   508    766    767  1    245
   508    767    200  1    245
   200    767    765  1    245
   200    765    203  1    245
   203    765    514  1    245
   514    765    516  1    245
   514    516    206  1    245
   516    765    209  1    245
   209    765    767  1    245
   209    767    766  1    245
   771    772    773  1    246
   771    773    774  1    246
   771    774    775  1    246
   771    775    776  1    246
   771    776    777  1    246
   771    777    772  1    246
   776    775    779  1    246
   776    779    780  1    246
   776    780    781  1    246
   777    776    781  1    246
   780    779    782  1    246
   780    782    111  1    246
   780    111    112  1    246
   780    112    781  1    246
   781    112    224  1    246
   781    224    548  1    246
   781    548    777  1    246
   777    548    221  1    246
   777    221    772  1    246
   772    221    540  1    246
   772    540    773  1    246
   773    540    536  1    246
   773    536    778  1    246
   773    778    774  1    246
   774    778    210  1    246
   774    210    775  1    246
   775    210    102  1    246
   775    102    779  1    246
   779    102    782  1    246
   782    102    103  1    246
   782    103    111  1    246
   210    778    212  1    246
   212    778    215  1    246
   215    778    218  1    246
   218    778    536  1    246
   106    109    105  1    247
   115    225    114  1    248
   783    784    785  1    249
   784    786    787  1    249
   785    784    787  1    249
   785    787    788  1    249
   785    788    789  1    249
   786    790    791  1    249
   787    786    791  1    249
   787    791    792  1    249
   788    787    792  1    249
   788    792    793  1    249
   789    788    793  1    249
   791    790    794  1    249
   791    794    795  1    249
   792    791    795  1    249
   792    795    796  1    249
   793    792    796  1    249
   795    794    797  1    249
   795    797    427  1    249
   795    427    796  1    249
   796    427    127  1    249
   796    127    563  1    249
   796    563    793  1    249
   793    563    561  1    249
   793    561    789  1    249
   789    561    227  1    249
   789    227    785  1    249
   785    227    557  1    249
   785    557    783  1    249
   783    557    222  1    249
   783    222    551  1    249
   783    551    784  1    249
   784    551    786  1    249
   786    551    223  1    249
   786    223    117  1    249
   786    117    790  1    249
   790    117    409  1    249
   790    409    794  1    249
   794    409    412  1    249
   794    412    797  1    249
   797    412    126  1    249
   797    126    427  1    249
   126    412    118  1    249
   121    124    120  1    250
   565    228    562  1    251
   565    562    430  1    251
   565    430    567  1    251
   567    430    130  1    251
   430    562    564  1    251
   430    564    129  1    251
   798    799    800  1    252
   798    800    801  1    252
   798    802    799  1    252
   800    799    804  1    252
   800    804    805  1    252
   800    805    806  1    252
   801    800    806  1    252
   799    802    807  1    252
   799    807    803  1    252
   799    803    804  1    252
   804    803    809  1    252
   804    809    810  1    252
   805    804    810  1    252
   805    810    811  1    252
   806    805    811  1    252
   806    811    812  1    252
   803    807    813  1    252
   803    813    808  1    252
   803    808    809  1    252
   809    808    814  1    252
   809    814    815  1    252
   810    809    815  1    252
   810    815    816  1    252
   811    810    816  1    252
   811    816    812  1    252
   812    816    451  1    252
   812    451    148  1    252
   812    148    219  1    252
   812    219    806  1    252
   806    219    539  1    252
   806    539    801  1    252
   801    539    543  1    252
   801    543    798  1    252
   798    543    220  1    252
   798    220    559  1    252
   798    559    802  1    252
   802    559    226  1    252
   802    226    807  1    252
   807    226    566  1    252
   807    566    813  1    252
   813    566    568  1    252
   813    568    132  1    252
   813    132    808  1    252
   808    132    814  1    252
   814    132    434  1    252
   814    434    133  1    252
   814    133    815  1    252
   815    133    816  1    252
   816    133    147  1    252
   816    147    451  1    252
   136    145    135  1    253
   151    154    150  1    254
   150    154    217  1    254
   217    154    216  1    254
   157    213    462  1    255
   462    213    214  1    255
   462    214    156  1    255
   160    163    230  1    256
   160    230    159  1    256
   159    230    207  1    256
   159    207    517  1    256
   159    517    211  1    256
   211    517    208  1    256
   166    239    236  1    257
   166    236    579  1    257
   166    579    231  1    257
   166    231    165  1    257
   579    236    233  1    257
   169    240    474  1    258
   474    240    472  1    258
   472    240    168  1    258
   172    175    591  1    259
   172    591    589  1    259
   172    589    478  1    259
   478    589    587  1    259
   478    587    171  1    259
   171    587    585  1    259
   171    585    238  1    259
   238    585    237  1    259
   591    175    593  1    259
   593    175    485  1    259
   593    485    595  1    259
   595    485    817  1    259
   595    817    597  1    259
   597    817    181  1    259
   181    817    178  1    259
   178    817    485  1    259
   818    821    822  1    260
   819    818    822  1    260
   819    822    823  1    260
   820    819    823  1    260
   821    824    825  1    260
   822    821    825  1    260
   822    825    826  1    260
   823    822    826  1    260
   826    825    829  1    260
   828    827    830  1    260
   828    830    831  1    260
   830    834    835  1    260
   831    830    835  1    260
   831    835    836  1    260
   832    831    836  1    260
   834    838    839  1    260
   835    834    839  1    260
   836    835    839  1    260
   836    839    598  1    260
   836    598    183  1    260
   836    183    832  1    260
   832    183    184  1    260
   832    184    187  1    260
   832    187    248  1    260
   832    248    613  1    260
   832    613    831  1    260
   831    613    828  1    260
   828    613    611  1    260
   828    611    827  1    260
   827    611    609  1    260
   827    609    674  1    260
   827    674    672  1    260
   827    672    830  1    260
   830    672    834  1    260
   834    672    670  1    260
   834    670    838  1    260
   838    670    594  1    260
   838    594    596  1    260
   838    596    839  1    260
   839    596    598  1    260
   594    670    837  1    260
   594    837    592  1    260
   592    837    833  1    260
   592    833    590  1    260
   590    833    829  1    260
   590    829    588  1    260
   588    829    825  1    260
   588    825    824  1    260
   588    824    586  1    260
   586    824    235  1    260
   235    824    821  1    260
   235    821    234  1    260
   234    821    242  1    260
   242    821    818  1    260
   242    818    245  1    260
   245    818    601  1    260
   601    818    819  1    260
   601    819    603  1    260
   603    819    820  1    260
   603    820    605  1    260
   605    820    676  1    260
   605    676    674  1    260
   605    674    607  1    260
   607    674    609  1    260
   676    820    823  1    260
   676    823    826  1    260
   676    826    265  1    260
   265    826    829  1    260
   265    829    833  1    260
   265    833    668  1    260
   668    833    837  1    260
   668    837    670  1    260
   617    254    615  1    261
   617    615    619  1    261
   619    615    840  1    261
   619    840    621  1    261
   621    840    496  1    261
   621    496    190  1    261
   496    840    494  1    261
   494    840    249  1    261
   494    249    189  1    261
   249    840    615  1    261
   615    254    251  1    261
   841    843    844  1    262
   847    848    849  1    262
   847    849    661  1    262
   847    661    659  1    262
   847    659    846  1    262
   847    846    625  1    262
   847    625    623  1    262
   847    623    848  1    262
   848    623    618  1    262
   848    618    620  1    262
   848    620    622  1    262
   848    622    849  1    262
   849    622    192  1    262
   849    192    193  1    262
   849    193    196  1    262
   849    196    661  1    262
   618    623    255  1    262
   625    846    627  1    262
   627    846    657  1    262
   627    657    842  1    262
   627    842    629  1    262
   629    842    655  1    262
   629    655    841  1    262
   629    841    631  1    262
   631    841    844  1    262
   631    844    633  1    262
   631    633    257  1    262
   633    844    635  1    262
   635    844    637  1    262
   637    844    843  1    262
   637    843    845  1    262
   637    845    260  1    262
   260    845    202  1    262
   202    845    201  1    262
   201    845    653  1    262
   653    845    843  1    262
   653    843    841  1    262
   653    841    655  1    262
   655    842    657  1    262
   657    846    659  1    262
   850    851    852  1    263
   850    852    510  1    263
   850    510    654  1    263
   850    654    656  1    263
   850    656    658  1    263
   850    658    851  1    263
   851    658    660  1    263
   851    660    853  1    263
   851    853    504  1    263
   851    504    507  1    263
   851    507    852  1    263
   852    507    510  1    263
   504    853    198  1    263
   198    853    662  1    263
   662    853    660  1    263
   654    510    199  1    263
   205    229    580  1    264
   205    580    641  1    264
   205    641    639  1    264
   205    639    515  1    264
   515    639    261  1    264
   515    261    204  1    264
   641    580    241  1    264
   241    580    232  1    264
   643    263    258  1    265
   643    258    634  1    265
   643    634    855  1    265
   643    855    244  1    265
   244    855    642  1    265
   244    642    243  1    265
   642    855    854  1    265
   642    854    640  1    265
   640    854    638  1    265
   640    638    259  1    265
   638    854    636  1    265
   636    854    855  1    265
   636    855    634  1    265
   616    250    860  1    266
   616    860    614  1    266
   616    614    247  1    266
   614    860    612  1    266
   612    860    610  1    266
   610    860    859  1    266
   610    859    608  1    266
   608    859    858  1    266
   608    858    606  1    266
   606    858    857  1    266
   606    857    604  1    266
   604    857    856  1    266
   604    856    602  1    266
   602    856    644  1    266
   602    644    246  1    266
   644    856    264  1    266
   264    856    857  1    266
   264    857    646  1    266
   646    857    858  1    266
   646    858    859  1    266
   646    859    649  1    266
   649    859    860  1    266
   649    860    250  1    266
   861    863    864  1    267
   861    864    865  1    267
   862    861    865  1    267
   862    865    626  1    267
   862    626    628  1    267
   862    628    630  1    267
   862    630    861  1    267
   861    630    632  1    267
   861    632    863  1    267
   863    632    256  1    267
   863    256    262  1    267
   863    262    648  1    267
   863    648    864  1    267
   864    648    651  1    267
   864    651    865  1    267
   865    651    866  1    267
   865    866    624  1    267
   865    624    626  1    267
   624    866    253  1    267
   253    866    252  1    267
   252    866    651  1    267
   867    868    869  1    268
   867    869    673  1    268
   867    673    675  1    268
   867    675    677  1    268
   867    677    266  1    268
   867    266    868  1    268
   868    266    669  1    268
   868    669    671  1    268
   868    671    869  1    268
   869    671    673  1    268
