# MSMS solvent excluded surface faces for fragments/fragment237.xyzr
#faces  #sphere density probe_r
   2219      59  3.00  1.50
     1      5    367  3      3
   367      5    370  3      3
   367    370    368  3      3
   368    370    371  3      3
   368    371    369  3      3
   369    371    372  3      3
   369    372      2  3      3
     2    372      4  3      3
     5      8    373  3      5
   373      8    375  3      5
   373    375    374  3      5
   374    375    376  3      5
   374    376      6  3      5
     6    376      7  3      5
     8    377      9  3      7
     9    377    378  3      7
   377    379    378  3      7
   378    379    380  3      7
   379    381    380  3      7
   380    381    382  3      7
   381     11    382  3      7
   382     11     10  3      7
    11    384    383  3      9
   383    384    385  3      9
   383    385     12  3      9
    12    385    386  3      9
   384     14    385  3      9
   385     14    387  3      9
   385    387    386  3      9
   386    387     13  3      9
    14    388     15  3     10
    15    388    389  3     10
   388    390    389  3     10
   389    390    391  3     10
   390      1    391  3     10
   391      1      3  3     10
    15     17    392  3     12
   392     17    393  3     12
   392    393     13  3     12
    13    393     16  3     12
    17     20    394  3     14
   394     20    396  3     14
   394    396    395  3     14
   395    396    397  3     14
   395    397     18  3     14
    18    397     19  3     14
    20     23    398  3     16
   398     23    399  3     16
   398    399     21  3     16
    21    399     22  3     16
    23     26    400  3     18
   400     26    403  3     18
   400    403    401  3     18
   401    403    404  3     18
   401    404    402  3     18
   402    404    405  3     18
   402    405     24  3     18
    24    405     25  3     18
    26     29    406  3     20
   406     29    409  3     20
   406    409    407  3     20
   407    409    410  3     20
   407    410    408  3     20
   408    410    411  3     20
   408    411     27  3     20
    27    411     28  3     20
    29      3    412  3     21
   412      3    415  3     21
   412    415    413  3     21
   413    415    416  3     21
   413    416    414  3     21
   414    416    417  3     21
   414    417     30  3     21
    30    417      2  3     21
    30     32     28  3     23
    28     32     31  3     23
    32     35    418  3     25
   418     35    419  3     25
   418    419     33  3     25
    33    419     34  3     25
    35     38     36  3     27
    36     38     37  3     27
    38     41    420  3     29
   420     41    421  3     29
   420    421     39  3     29
    39    421     40  3     29
    41     44    422  3     31
   422     44    423  3     31
   422    423     42  3     31
    42    423     43  3     31
    44     47    424  3     33
   424     47    425  3     33
   424    425     45  3     33
    45    425     46  3     33
    47     50    426  3     35
   426     50    427  3     35
   426    427     48  3     35
    48    427     49  3     35
    50    428     51  3     36
    51    428    429  3     36
   428    430    429  3     36
   429    430    431  3     36
   430      4    431  3     36
   431      4      6  3     36
    51     53    432  3     38
   432     53    433  3     38
   432    433     49  3     38
    49    433     52  3     38
    53     56    434  3     40
   434     56    435  3     40
   434    435     54  3     40
    54    435     55  3     40
    56     59    436  3     42
   436     59    437  3     42
   436    437     57  3     42
    57    437     58  3     42
    59      7    438  3     43
   438      7    440  3     43
   438    440    439  3     43
   439    440    441  3     43
   439    441     60  3     43
    60    441      9  3     43
    60     62    442  3     45
   442     62    443  3     45
   442    443     58  3     45
    58    443     61  3     45
    62     65    444  3     47
   444     65    445  3     47
   444    445     63  3     47
    63    445     64  3     47
    65    446     66  3     49
    66    446    447  3     49
   446    448    447  3     49
   447    448    449  3     49
   448    450    449  3     49
   449    450    451  3     49
   450     68    451  3     49
   451     68     67  3     49
    68     71    452  3     51
   452     71    453  3     51
   452    453     69  3     51
    69    453     70  3     51
    71    454     72  3     53
    72    454    455  3     53
   454    456    455  3     53
   455    456    457  3     53
   456    458    457  3     53
   457    458    459  3     53
   458     74    459  3     53
   459     74     73  3     53
    74     10    460  3     54
   460     10    461  3     54
   460    461     75  3     54
    75    461     12  3     54
    75    462     73  3     56
    73    462    463  3     56
   462    464    463  3     56
   463    464    465  3     56
   464    466    465  3     56
   465    466    467  3     56
   466     77    467  3     56
   467     77     76  3     56
    77    468     78  3     57
    78    468    469  3     57
   468    470    469  3     57
   469    470    471  3     57
   470    472    471  3     57
   471    472    473  3     57
   472    474    473  3     57
   473    474    475  3     57
   474     16    475  3     57
   475     16     18  3     57
    78     80     76  3     59
    76     80     79  3     59
    80    477    476  3     61
   476    477    478  3     61
   476    478     81  3     61
    81    478    479  3     61
   477     83    478  3     61
   478     83    480  3     61
   478    480    479  3     61
   479    480     82  3     61
    83    482    481  3     63
   481    482    483  3     63
   481    483     84  3     63
    84    483    484  3     63
   482     86    483  3     63
   483     86    485  3     63
   483    485    484  3     63
   484    485     85  3     63
    86     19    486  3     64
   486     19    487  3     64
   486    487     87  3     64
    87    487     21  3     64
    87     89    488  3     66
   488     89    489  3     66
   488    489     85  3     66
    85    489     88  3     66
    89     92    490  3     68
   490     92    492  3     68
   490    492    491  3     68
   491    492    493  3     68
   491    493     90  3     68
    90    493     91  3     68
    92     22    494  3     69
   494     22    496  3     69
   494    496    495  3     69
   495    496    497  3     69
   495    497     93  3     69
    93    497     24  3     69
    93    498     91  3     71
    91    498    499  3     71
   498    500    499  3     71
   499    500    501  3     71
   500    502    501  3     71
   501    502    503  3     71
   502    504    503  3     71
   503    504    505  3     71
   504    506    505  3     71
   505    506    507  3     71
   506    508    507  3     71
   507    508    509  3     71
   508    510    509  3     71
   509    510    511  3     71
   510     95    511  3     71
   511     95     94  3     71
    95     98     96  3     73
    96     98     97  3     73
    98    101     99  3     75
    99    101    100  3     75
   101    104    102  3     77
   102    104    103  3     77
   104    512    105  3     79
   105    512    513  3     79
   512    514    513  3     79
   513    514    515  3     79
   514    107    515  3     79
   515    107    106  3     79
   107    110    108  3     81
   108    110    109  3     81
   110    517    516  3     83
   516    517    518  3     83
   516    518    111  3     83
   111    518    519  3     83
   517    113    518  3     83
   518    113    520  3     83
   518    520    519  3     83
   519    520    112  3     83
   113    116    114  3     85
   114    116    115  3     85
   116     25    117  3     86
   117     25     27  3     86
   117     31    115  3     87
   115     31     33  3     87
   114    522    521  3     88
   521    522    523  3     88
   521    523    112  3     88
   112    523    524  3     88
   522    109    523  3     88
   523    109    525  3     88
   523    525    524  3     88
   524    525    111  3     88
   108    526    106  3     89
   106    526    527  3     89
   526     34    527  3     89
   527     34     36  3     89
   105    119    103  3     91
   103    119    118  3     91
   119    122    120  3     93
   120    122    121  3     93
   122    528    123  3     95
   123    528    529  3     95
   528    530    529  3     95
   529    530    531  3     95
   530    125    531  3     95
   531    125    124  3     95
   125    532    126  3     96
   126    532    533  3     96
   532     37    533  3     96
   533     37     39  3     96
   126    128    124  3     98
   124    128    127  3     98
   128    534    129  3    100
   129    534    535  3    100
   534    131    535  3    100
   535    131    130  3    100
   131    134    132  3    102
   132    134    133  3    102
   134    137    135  3    104
   135    137    136  3    104
   137    536    138  3    105
   138    536    537  3    105
   536     40    537  3    105
   537     40     42  3    105
   138    140    136  3    107
   136    140    139  3    107
   140    143    141  3    109
   141    143    142  3    109
   143    146    538  3    111
   538    146    539  3    111
   538    539    144  3    111
   144    539    145  3    111
   146     43    147  3    112
   147     43     45  3    112
   147     46    540  3    113
   540     46    541  3    113
   540    541    145  3    113
   145    541     48  3    113
   144    149    542  3    115
   542    149    543  3    115
   542    543    142  3    115
   142    543    148  3    115
   149    152    544  3    117
   544    152    545  3    117
   544    545    150  3    117
   150    545    151  3    117
   152    155    546  3    119
   546    155    547  3    119
   546    547    153  3    119
   153    547    154  3    119
   155    158    548  3    121
   548    158    549  3    121
   548    549    156  3    121
   156    549    157  3    121
   158    161    159  3    123
   159    161    160  3    123
   161    551    550  3    125
   550    551    552  3    125
   550    552    162  3    125
   162    552    553  3    125
   551    554    552  3    125
   552    554    555  3    125
   552    555    553  3    125
   553    555    556  3    125
   554    164    555  3    125
   555    164    557  3    125
   555    557    556  3    125
   556    557    163  3    125
   164     52    165  3    126
   165     52     54  3    126
   165    167    163  3    128
   163    167    166  3    128
   167     55    168  3    129
   168     55     57  3    129
   168    559    558  3    131
   558    559    560  3    131
   558    560    166  3    131
   166    560    561  3    131
   559    170    560  3    131
   560    170    562  3    131
   560    562    561  3    131
   561    562    169  3    131
   170    563    171  3    132
   171    563    564  3    132
   563     61    564  3    132
   564     61     63  3    132
   171    173    565  3    134
   565    173    567  3    134
   565    567    566  3    134
   566    567    568  3    134
   566    568    169  3    134
   169    568    172  3    134
   173    176    569  3    136
   569    176    570  3    136
   569    570    174  3    136
   174    570    175  3    136
   176    572    571  3    138
   571    572    573  3    138
   571    573    177  3    138
   177    573    574  3    138
   572    179    573  3    138
   573    179    575  3    138
   573    575    574  3    138
   574    575    178  3    138
   179    182    180  3    140
   180    182    181  3    140
   182    578    576  3    142
   576    578    579  3    142
   576    579    577  3    142
   577    579    580  3    142
   577    580    183  3    142
   183    580    581  3    142
   578    185    579  3    142
   579    185    582  3    142
   579    582    580  3    142
   580    582    583  3    142
   580    583    581  3    142
   581    583    184  3    142
   185    188    584  3    144
   584    188    586  3    144
   584    586    585  3    144
   585    586    587  3    144
   585    587    186  3    144
   186    587    187  3    144
   188    191    588  3    146
   588    191    589  3    146
   588    589    189  3    146
   189    589    190  3    146
   191    590    192  3    148
   192    590    591  3    148
   590    592    591  3    148
   591    592    593  3    148
   592    194    593  3    148
   593    194    193  3    148
   194     64    594  3    149
   594     64    595  3    149
   594    595    195  3    149
   195    595     66  3    149
   195     67    596  3    150
   596     67    597  3    150
   596    597    193  3    150
   193    597     69  3    150
   192    197    598  3    152
   598    197    600  3    152
   598    600    599  3    152
   599    600    601  3    152
   599    601    190  3    152
   190    601    196  3    152
   197     70    602  3    153
   602     70    603  3    153
   602    603    198  3    153
   198    603     72  3    153
   198    604    196  3    155
   196    604    605  3    155
   604    200    605  3    155
   605    200    199  3    155
   200    203    606  3    157
   606    203    607  3    157
   606    607    201  3    157
   201    607    202  3    157
   203     79    608  3    158
   608     79    609  3    158
   608    609    204  3    158
   204    609     81  3    158
   204    206    202  3    160
   202    206    205  3    160
   206    209    207  3    162
   207    209    208  3    162
   209    610    210  3    164
   210    610    611  3    164
   610    212    611  3    164
   611    212    211  3    164
   212    215    213  3    166
   213    215    214  3    166
   215    612    216  3    167
   216    612    613  3    167
   612     82    613  3    167
   613     82     84  3    167
   216    218    614  3    169
   614    218    615  3    169
   614    615    214  3    169
   214    615    217  3    169
   218    221    219  3    171
   219    221    220  3    171
   221    224    616  3    173
   616    224    618  3    173
   616    618    617  3    173
   617    618    619  3    173
   617    619    222  3    173
   222    619    223  3    173
   224    227    620  3    175
   620    227    623  3    175
   620    623    621  3    175
   621    623    624  3    175
   621    624    622  3    175
   622    624    625  3    175
   622    625    225  3    175
   225    625    226  3    175
   227     88    626  3    176
   626     88    628  3    176
   626    628    627  3    176
   627    628    629  3    176
   627    629    228  3    176
   228    629     90  3    176
   228    630    226  3    177
   226    630    631  3    177
   630    632    631  3    177
   631    632    633  3    177
   632    634    633  3    177
   633    634    635  3    177
   634    636    635  3    177
   635    636    637  3    177
   636    223    637  3    177
   637    223    225  3    177
   222    230    638  3    179
   638    230    640  3    179
   638    640    639  3    179
   639    640    641  3    179
   639    641    220  3    179
   220    641    229  3    179
   230    642    231  3    181
   231    642    643  3    181
   642    233    643  3    181
   643    233    232  3    181
   233    644    234  3    182
   234    644    645  3    182
   644    646    645  3    182
   645    646    647  3    182
   646    648    647  3    182
   647    648    649  3    182
   648    650    649  3    182
   649    650    651  3    182
   650     94    651  3    182
   651     94     96  3    182
   234    652    232  3    184
   232    652    653  3    184
   652    654    653  3    184
   653    654    655  3    184
   654    656    655  3    184
   655    656    657  3    184
   656    658    657  3    184
   657    658    659  3    184
   658    236    659  3    184
   659    236    235  3    184
   236    239    237  3    186
   237    239    238  3    186
   239    660    240  3    188
   240    660    661  3    188
   660    242    661  3    188
   661    242    241  3    188
   242     97    243  3    189
   243     97     99  3    189
   243    662    241  3    191
   241    662    663  3    191
   662    245    663  3    191
   663    245    244  3    191
   245    248    246  3    193
   246    248    247  3    193
   248    664    249  3    195
   249    664    665  3    195
   664    251    665  3    195
   665    251    250  3    195
   251    254    666  3    197
   666    254    668  3    197
   666    668    667  3    197
   667    668    669  3    197
   667    669    252  3    197
   252    669    253  3    197
   254    257    670  3    199
   670    257    672  3    199
   670    672    671  3    199
   671    672    673  3    199
   671    673    255  3    199
   255    673    256  3    199
   257    121    674  3    200
   674    121    675  3    200
   674    675    258  3    200
   258    675    123  3    200
   258    260    256  3    202
   256    260    259  3    202
   260    677    676  3    203
   676    677    678  3    203
   676    678    261  3    203
   261    678    679  3    203
   677    680    678  3    203
   678    680    681  3    203
   678    681    679  3    203
   679    681    682  3    203
   680    127    681  3    203
   681    127    683  3    203
   681    683    682  3    203
   682    683    129  3    203
   261    263    259  3    205
   259    263    262  3    205
   263    684    264  3    206
   264    684    685  3    206
   684    686    685  3    206
   685    686    687  3    206
   686    688    687  3    206
   687    688    689  3    206
   688    690    689  3    206
   689    690    691  3    206
   690    130    691  3    206
   691    130    132  3    206
   264    692    262  3    207
   262    692    693  3    207
   692    694    693  3    207
   693    694    695  3    207
   694    696    695  3    207
   695    696    697  3    207
   696    698    697  3    207
   697    698    699  3    207
   698    700    699  3    207
   699    700    701  3    207
   700    702    701  3    207
   701    702    703  3    207
   702    704    703  3    207
   703    704    705  3    207
   704    133    705  3    207
   705    133    135  3    207
   255    706    253  3    209
   253    706    707  3    209
   706    708    707  3    209
   707    708    709  3    209
   708    266    709  3    209
   709    266    265  3    209
   266    269    710  3    211
   710    269    712  3    211
   710    712    711  3    211
   711    712    713  3    211
   711    713    267  3    211
   267    713    268  3    211
   269    272    714  3    213
   714    272    715  3    213
   714    715    270  3    213
   270    715    271  3    213
   272    275    716  3    215
   716    275    717  3    215
   716    717    273  3    215
   273    717    274  3    215
   275    278    718  3    217
   718    278    721  3    217
   718    721    719  3    217
   719    721    722  3    217
   719    722    720  3    217
   720    722    723  3    217
   720    723    276  3    217
   276    723    277  3    217
   278    281    724  3    219
   724    281    725  3    219
   724    725    279  3    219
   279    725    280  3    219
   281    157    726  3    220
   726    157    728  3    220
   726    728    727  3    220
   727    728    729  3    220
   727    729    282  3    220
   282    729    159  3    220
   282    284    730  3    222
   730    284    731  3    222
   730    731    280  3    222
   280    731    283  3    222
   284    732    285  3    224
   285    732    733  3    224
   732    287    733  3    224
   733    287    286  3    224
   287    734    288  3    225
   288    734    735  3    225
   734    160    735  3    225
   735    160    162  3    225
   288    290    736  3    227
   736    290    737  3    227
   736    737    286  3    227
   286    737    289  3    227
   290    172    291  3    228
   291    172    174  3    228
   291    175    289  3    229
   289    175    177  3    229
   285    277    738  3    230
   738    277    739  3    230
   738    739    283  3    230
   283    739    279  3    230
   276    293    740  3    232
   740    293    741  3    232
   740    741    274  3    232
   274    741    292  3    232
   293    296    742  3    234
   742    296    743  3    234
   742    743    294  3    234
   294    743    295  3    234
   296    746    744  3    236
   744    746    747  3    236
   744    747    745  3    236
   745    747    748  3    236
   745    748    297  3    236
   297    748    749  3    236
   746    299    747  3    236
   747    299    750  3    236
   747    750    748  3    236
   748    750    751  3    236
   748    751    749  3    236
   749    751    298  3    236
   299    302    752  3    238
   752    302    755  3    238
   752    755    753  3    238
   753    755    756  3    238
   753    756    754  3    238
   754    756    757  3    238
   754    757    300  3    238
   300    757    301  3    238
   302    178    758  3    239
   758    178    759  3    239
   758    759    303  3    239
   303    759    180  3    239
   303    305    760  3    241
   760    305    762  3    241
   760    762    761  3    241
   761    762    763  3    241
   761    763    301  3    241
   301    763    304  3    241
   305    308    764  3    243
   764    308    766  3    243
   764    766    765  3    243
   765    766    767  3    243
   765    767    306  3    243
   306    767    307  3    243
   308    181    768  3    244
   768    181    770  3    244
   768    770    769  3    244
   769    770    771  3    244
   769    771    309  3    244
   309    771    183  3    244
   309    184    307  3    245
   307    184    186  3    245
   306    311    772  3    247
   772    311    775  3    247
   772    775    773  3    247
   773    775    776  3    247
   773    776    774  3    247
   774    776    777  3    247
   774    777    304  3    247
   304    777    310  3    247
   311    314    778  3    249
   778    314    781  3    249
   778    781    779  3    249
   779    781    782  3    249
   779    782    780  3    249
   780    782    783  3    249
   780    783    312  3    249
   312    783    313  3    249
   314    317    784  3    251
   784    317    787  3    251
   784    787    785  3    251
   785    787    788  3    251
   785    788    786  3    251
   786    788    789  3    251
   786    789    315  3    251
   315    789    316  3    251
   317    790    318  3    253
   318    790    791  3    253
   790    792    791  3    253
   791    792    793  3    253
   792    794    793  3    253
   793    794    795  3    253
   794    796    795  3    253
   795    796    797  3    253
   796    798    797  3    253
   797    798    799  3    253
   798    800    799  3    253
   799    800    801  3    253
   800    802    801  3    253
   801    802    803  3    253
   802    804    803  3    253
   803    804    805  3    253
   804    320    805  3    253
   805    320    319  3    253
   320    205    321  3    254
   321    205    207  3    254
   321    806    319  3    256
   319    806    807  3    256
   806    808    807  3    256
   807    808    809  3    256
   808    810    809  3    256
   809    810    811  3    256
   810    812    811  3    256
   811    812    813  3    256
   812    323    813  3    256
   813    323    322  3    256
   323    814    324  3    258
   324    814    815  3    258
   814    816    815  3    258
   815    816    817  3    258
   816    818    817  3    258
   817    818    819  3    258
   818    820    819  3    258
   819    820    821  3    258
   820    326    821  3    258
   821    326    325  3    258
   326    329    327  3    260
   327    329    328  3    260
   329    822    330  3    261
   330    822    823  3    261
   822    208    823  3    261
   823    208    210  3    261
   330    211    328  3    262
   328    211    213  3    262
   327    825    824  3    264
   824    825    826  3    264
   824    826    325  3    264
   325    826    827  3    264
   825    332    826  3    264
   826    332    828  3    264
   826    828    827  3    264
   827    828    331  3    264
   332    335    333  3    266
   333    335    334  3    266
   335    338    336  3    268
   336    338    337  3    268
   338    217    339  3    269
   339    217    219  3    269
   339    341    337  3    271
   337    341    340  3    271
   341    229    829  3    272
   829    229    831  3    272
   829    831    830  3    272
   830    831    832  3    272
   830    832    342  3    272
   342    832    231  3    272
   342    344    833  3    274
   833    344    836  3    274
   833    836    834  3    274
   834    836    837  3    274
   834    837    835  3    274
   835    837    838  3    274
   835    838    340  3    274
   340    838    343  3    274
   344    842    839  3    276
   839    842    843  3    276
   839    843    840  3    276
   840    843    844  3    276
   840    844    841  3    276
   841    844    845  3    276
   841    845    345  3    276
   345    845    846  3    276
   842    347    843  3    276
   843    347    847  3    276
   843    847    844  3    276
   844    847    848  3    276
   844    848    845  3    276
   845    848    849  3    276
   845    849    846  3    276
   846    849    346  3    276
   347    350    850  3    278
   850    350    853  3    278
   850    853    851  3    278
   851    853    854  3    278
   851    854    852  3    278
   852    854    855  3    278
   852    855    348  3    278
   348    855    349  3    278
   350    353    351  3    280
   351    353    352  3    280
   353    235    856  3    281
   856    235    857  3    281
   856    857    354  3    281
   354    857    237  3    281
   354    356    352  3    283
   352    356    355  3    283
   356    316    858  3    284
   858    316    861  3    284
   858    861    859  3    284
   859    861    862  3    284
   859    862    860  3    284
   860    862    863  3    284
   860    863    357  3    284
   357    863    318  3    284
   357    349    864  3    285
   864    349    867  3    285
   864    867    865  3    285
   865    867    868  3    285
   865    868    866  3    285
   866    868    869  3    285
   866    869    355  3    285
   355    869    351  3    285
   348    870    346  3    287
   346    870    871  3    287
   870    872    871  3    287
   871    872    873  3    287
   872    359    873  3    287
   873    359    358  3    287
   359    874    360  3    288
   360    874    875  3    288
   874    322    875  3    288
   875    322    324  3    288
   360    876    358  3    289
   358    876    877  3    289
   876    878    877  3    289
   877    878    879  3    289
   878    880    879  3    289
   879    880    881  3    289
   880    882    881  3    289
   881    882    883  3    289
   882    331    883  3    289
   883    331    333  3    289
   345    334    343  3    290
   343    334    336  3    290
   315    362    313  3    292
   313    362    361  3    292
   362    365    363  3    294
   363    365    364  3    294
   365    885    884  3    295
   884    885    886  3    295
   884    886    366  3    295
   366    886    887  3    295
   885    247    886  3    295
   886    247    888  3    295
   886    888    887  3    295
   887    888    249  3    295
   366    298    364  3    296
   364    298    300  3    296
   363    310    361  3    297
   361    310    312  3    297
   297    268    889  3    298
   889    268    890  3    298
   889    890    295  3    298
   295    890    270  3    298
   294    271    292  3    299
   292    271    273  3    299
   267    893    891  3    300
   891    893    894  3    300
   891    894    892  3    300
   892    894    895  3    300
   892    895    265  3    300
   265    895    896  3    300
   893    250    894  3    300
   894    250    897  3    300
   894    897    895  3    300
   895    897    898  3    300
   895    898    896  3    300
   896    898    252  3    300
   246    238    244  3    301
   244    238    240  3    301
   201    900    899  3    302
   899    900    901  3    302
   899    901    199  3    302
   199    901    902  3    302
   900    187    901  3    302
   901    187    903  3    302
   901    903    902  3    302
   902    903    189  3    302
   156    904    154  3    303
   154    904    905  3    303
   904    906    905  3    303
   905    906    907  3    303
   906    908    907  3    303
   907    908    909  3    303
   908    151    909  3    303
   909    151    153  3    303
   150    139    148  3    304
   148    139    141  3    304
   120    100    118  3    305
   118    100    102  3    305
     3      1    367  2      1
     3    367    415  2      1
   415    367    368  2      1
   415    368    416  2      1
   416    368    369  2      1
   416    369    417  2      1
   417    369      2  2      1
     6      4    372  2      2
     6    372    374  2      2
   374    372    371  2      2
   374    371    373  2      2
   373    371    370  2      2
   373    370      5  2      2
   440      7    376  2      4
   440    376    441  2      4
   441    376    375  2      4
   441    375      9  2      4
     9    375      8  2      4
   461     10    383  2      6
   461    383     12  2      6
   383     10     11  2      6
   392     13    387  2      8
   392    387     14  2      8
   392     14     15  2      8
    18     16    395  2     11
   395     16    393  2     11
   395    393    394  2     11
   394    393     17  2     11
   487     19    397  2     13
   487    397    398  2     13
   487    398     21  2     13
   398    397    396  2     13
   398    396     20  2     13
   496     22    910  2     15
   496    910    401  2     15
   496    401    497  2     15
   497    401    402  2     15
   497    402     24  2     15
   401    910    400  2     15
   400    910    399  2     15
   400    399     23  2     15
   399    910     22  2     15
    27     25    911  2     17
    27    911    408  2     17
   408    911    407  2     17
   407    911    912  2     17
   407    912    406  2     17
   406    912    404  2     17
   406    404    403  2     17
   406    403     26  2     17
   404    912    405  2     17
   405    912    911  2     17
   405    911     25  2     17
    30     28    913  2     19
    30    913    414  2     19
   414    913    914  2     19
   414    914    413  2     19
   413    914    410  2     19
   413    410    409  2     19
   413    409    412  2     19
   412    409     29  2     19
   410    914    411  2     19
   411    914    913  2     19
   411    913     28  2     19
    33     31    418  2     22
   418     31     32  2     22
    36     34    419  2     24
    36    419     35  2     24
    39     37    420  2     26
   420     37     38  2     26
    42     40    422  2     28
   422     40    421  2     28
   422    421     41  2     28
    45     43    423  2     30
    45    423    424  2     30
   424    423     44  2     30
   541     46    425  2     32
   541    425    426  2     32
   541    426     48  2     32
   426    425     47  2     32
   432     49    427  2     34
   432    427     51  2     34
    51    427     50  2     34
    54     52    434  2     37
   434     52    433  2     37
   434    433     53  2     37
    57     55    435  2     39
    57    435    436  2     39
   436    435     56  2     39
   442     58    915  2     41
   442    915    439  2     41
   442    439     60  2     41
   439    915    438  2     41
   438    915    437  2     41
   438    437     59  2     41
   437    915     58  2     41
    63     61    443  2     44
    63    443    444  2     44
   444    443     62  2     44
   595     64    445  2     46
   595    445     65  2     46
   595     65     66  2     46
   597     67     68  2     48
   597     68    452  2     48
   597    452     69  2     48
   603     70    453  2     50
   603    453     71  2     50
   603     71     72  2     50
    75     73    460  2     52
   460     73     74  2     52
    78     76     77  2     55
   609     79     80  2     58
   609     80    476  2     58
   609    476     81  2     58
    84     82    481  2     60
   481     82    480  2     60
   481    480     83  2     60
   488     85    485  2     62
   488    485    486  2     62
   488    486     87  2     62
   486    485     86  2     62
   628     88    489  2     65
   628    489    490  2     65
   628    490    629  2     65
   629    490    491  2     65
   629    491     90  2     65
   490    489     89  2     65
    93     91    495  2     67
   495     91    493  2     67
   495    493    494  2     67
   494    493    492  2     67
   494    492     92  2     67
    96     94     95  2     70
    99     97     98  2     72
   102    100    101  2     74
   105    103    104  2     76
   108    106    107  2     78
   525    109    110  2     80
   525    110    516  2     80
   525    516    111  2     80
   521    112    520  2     82
   521    520    113  2     82
   521    113    114  2     82
   117    115    116  2     84
   120    118    119  2     90
   675    121    122  2     92
   675    122    123  2     92
   126    124    125  2     94
   683    127    128  2     97
   683    128    129  2     97
   132    130    131  2     99
   135    133    134  2    101
   138    136    137  2    103
   141    139    140  2    106
   542    142    538  2    108
   542    538    144  2    108
   538    142    143  2    108
   540    145    539  2    110
   540    539    147  2    110
   147    539    146  2    110
   150    148    544  2    114
   544    148    543  2    114
   544    543    149  2    114
   153    151    546  2    116
   546    151    545  2    116
   546    545    152  2    116
   156    154    547  2    118
   156    547    548  2    118
   548    547    155  2    118
   728    157    549  2    120
   728    549    729  2    120
   729    549    158  2    120
   729    158    159  2    120
   162    160    550  2    122
   550    160    161  2    122
   165    163    557  2    124
   165    557    164  2    124
   558    166    167  2    127
   558    167    168  2    127
   566    169    562  2    130
   566    562    565  2    130
   565    562    170  2    130
   565    170    171  2    130
   174    172    568  2    133
   174    568    567  2    133
   174    567    569  2    133
   569    567    173  2    133
   177    175    571  2    135
   571    175    570  2    135
   571    570    176  2    135
   759    178    575  2    137
   759    575    180  2    137
   180    575    179  2    137
   770    181    182  2    139
   770    182    576  2    139
   770    576    771  2    139
   771    576    577  2    139
   771    577    183  2    139
   186    184    585  2    141
   585    184    583  2    141
   585    583    584  2    141
   584    583    582  2    141
   584    582    185  2    141
   903    187    587  2    143
   903    587    916  2    143
   903    916    189  2    143
   189    916    588  2    143
   588    916    586  2    143
   588    586    188  2    143
   586    916    587  2    143
   599    190    589  2    145
   599    589    598  2    145
   598    589    191  2    145
   598    191    192  2    145
   596    193    194  2    147
   596    194    594  2    147
   596    594    195  2    147
   198    196    601  2    151
   198    601    602  2    151
   602    601    600  2    151
   602    600    197  2    151
   899    199    200  2    154
   899    200    606  2    154
   899    606    201  2    154
   204    202    608  2    156
   608    202    607  2    156
   608    607    203  2    156
   207    205    206  2    159
   210    208    209  2    161
   213    211    212  2    163
   614    214    215  2    165
   614    215    216  2    165
   219    217    615  2    168
   219    615    218  2    168
   639    220    616  2    170
   639    616    617  2    170
   639    617    638  2    170
   638    617    222  2    170
   616    220    221  2    170
   225    223    622  2    172
   622    223    619  2    172
   622    619    621  2    172
   621    619    618  2    172
   621    618    620  2    172
   620    618    224  2    172
   228    226    625  2    174
   228    625    627  2    174
   627    625    624  2    174
   627    624    626  2    174
   626    624    623  2    174
   626    623    227  2    174
   831    229    641  2    178
   831    641    640  2    178
   831    640    917  2    178
   831    917    832  2    178
   832    917    231  2    178
   231    917    230  2    178
   230    917    640  2    178
   234    232    233  2    180
   857    235    236  2    183
   857    236    237  2    183
   240    238    239  2    185
   243    241    242  2    187
   246    244    245  2    190
   888    247    248  2    192
   888    248    249  2    192
   897    250    666  2    194
   897    666    667  2    194
   897    667    898  2    194
   898    667    252  2    194
   666    250    251  2    194
   255    253    671  2    196
   671    253    669  2    196
   671    669    670  2    196
   670    669    668  2    196
   670    668    254  2    196
   258    256    673  2    198
   258    673    674  2    198
   674    673    672  2    198
   674    672    257  2    198
   261    259    676  2    201
   676    259    260  2    201
   264    262    263  2    204
   892    265    710  2    208
   892    710    711  2    208
   892    711    891  2    208
   891    711    267  2    208
   710    265    266  2    208
   890    268    713  2    210
   890    713    714  2    210
   890    714    270  2    210
   714    713    712  2    210
   714    712    269  2    210
   273    271    715  2    212
   273    715    716  2    212
   716    715    272  2    212
   740    274    719  2    214
   740    719    720  2    214
   740    720    276  2    214
   719    274    718  2    214
   718    274    717  2    214
   718    717    275  2    214
   739    277    723  2    216
   739    723    722  2    216
   739    722    279  2    216
   279    722    721  2    216
   279    721    724  2    216
   724    721    278  2    216
   730    280    727  2    218
   730    727    282  2    218
   727    280    726  2    218
   726    280    725  2    218
   726    725    281  2    218
   738    283    731  2    221
   738    731    284  2    221
   738    284    285  2    221
   736    286    287  2    223
   736    287    288  2    223
   291    289    737  2    226
   291    737    290  2    226
   294    292    741  2    231
   294    741    742  2    231
   742    741    293  2    231
   889    295    745  2    233
   889    745    297  2    233
   745    295    744  2    233
   744    295    743  2    233
   744    743    296  2    233
   300    298    754  2    235
   754    298    751  2    235
   754    751    753  2    235
   753    751    750  2    235
   753    750    752  2    235
   752    750    299  2    235
   761    301    757  2    237
   761    757    756  2    237
   761    756    760  2    237
   760    756    918  2    237
   760    918    303  2    237
   303    918    758  2    237
   758    918    302  2    237
   302    918    755  2    237
   755    918    756  2    237
   919    920    924  2    240
   920    921    924  2    240
   921    922    924  2    240
   923    919    924  2    240
   774    304    763  2    240
   774    763    920  2    240
   774    920    773  2    240
   773    920    919  2    240
   773    919    772  2    240
   772    919    923  2    240
   772    923    765  2    240
   772    765    306  2    240
   765    923    764  2    240
   764    923    924  2    240
   764    924    922  2    240
   764    922    305  2    240
   305    922    762  2    240
   762    922    921  2    240
   762    921    763  2    240
   763    921    920  2    240
   309    307    767  2    242
   309    767    769  2    242
   769    767    766  2    242
   769    766    768  2    242
   768    766    308  2    242
   312    310    777  2    246
   312    777    780  2    246
   780    777    776  2    246
   780    776    779  2    246
   779    776    775  2    246
   779    775    778  2    246
   778    775    311  2    246
   315    313    786  2    248
   786    313    783  2    248
   786    783    785  2    248
   785    783    782  2    248
   785    782    784  2    248
   784    782    781  2    248
   784    781    314  2    248
   861    316    789  2    250
   861    789    788  2    250
   861    788    862  2    250
   862    788    787  2    250
   862    787    863  2    250
   863    787    317  2    250
   863    317    318  2    250
   321    319    320  2    252
   324    322    323  2    255
   824    325    326  2    257
   824    326    327  2    257
   330    328    329  2    259
   333    331    828  2    263
   333    828    332  2    263
   336    334    335  2    265
   339    337    338  2    267
   835    340    341  2    270
   835    341    829  2    270
   835    829    834  2    270
   834    829    830  2    270
   834    830    833  2    270
   833    830    342  2    270
   345    343    841  2    273
   841    343    838  2    273
   841    838    840  2    273
   840    838    837  2    273
   840    837    839  2    273
   839    837    836  2    273
   839    836    344  2    273
   348    346    852  2    275
   852    346    849  2    275
   852    849    851  2    275
   851    849    848  2    275
   851    848    850  2    275
   850    848    847  2    275
   850    847    347  2    275
   867    349    855  2    277
   867    855    868  2    277
   868    855    854  2    277
   868    854    869  2    277
   869    854    853  2    277
   869    853    351  2    277
   351    853    350  2    277
   354    352    856  2    279
   856    352    353  2    279
   866    355    858  2    282
   866    858    859  2    282
   866    859    865  2    282
   865    859    860  2    282
   865    860    864  2    282
   864    860    357  2    282
   858    355    356  2    282
   360    358    359  2    286
   363    361    362  2    291
   366    364    884  2    293
   884    364    365  2    293
   926    925    927  1    306
   926    927    928  1    306
   928    927    930  1    306
   929    928    930  1    306
   929    930    388  1    306
   929    388    384  1    306
   929    384     11  1    306
   929     11    928  1    306
   928     11    381  1    306
   928    381    379  1    306
   928    379    926  1    306
   926    379    377  1    306
   926    377    925  1    306
   925    377      8  1    306
   925      8      5  1    306
   925      5    390  1    306
   925    390    927  1    306
   927    390    930  1    306
   930    390    388  1    306
   390      5      1  1    306
   384    388     14  1    306
   932    931    933  1    307
   932    933    430  1    307
   932    430    428  1    307
   932    428     44  1    307
   932     44     41  1    307
   932     41    931  1    307
   931     41     38  1    307
   931     38    933  1    307
   933     38     35  1    307
   933     35    934  1    307
   933    934    430  1    307
   430    934      4  1    307
     4    934      2  1    307
     2    934     32  1    307
     2     32     30  1    307
    32    934     35  1    307
    44    428     50  1    307
    44     50     47  1    307
     7     59    935  1    308
     7    935    431  1    308
     7    431      6  1    308
   431    935    429  1    308
   429    935     51  1    308
    51    935     53  1    308
    53    935     56  1    308
    56    935     59  1    308
    10     74    937  1    309
    10    937    382  1    309
   382    937    380  1    309
   380    937    936  1    309
   380    936    378  1    309
   378    936     62  1    309
   378     62     60  1    309
   378     60      9  1    309
    62    936    446  1    309
    62    446     65  1    309
   446    936    448  1    309
   448    936    937  1    309
   448    937    458  1    309
   448    458    450  1    309
   450    458    456  1    309
   450    456    454  1    309
   450    454     68  1    309
    68    454     71  1    309
   458    937     74  1    309
   939    938    940  1    310
   939    940    941  1    310
   940    942    943  1    310
   941    940    943  1    310
   943    942    944  1    310
   943    944    474  1    310
   943    474    472  1    310
   943    472    941  1    310
   941    472    470  1    310
   941    470    939  1    310
   939    470    468  1    310
   939    468    466  1    310
   939    466    464  1    310
   939    464    938  1    310
   938    464    462  1    310
   938    462     75  1    310
   938     75    940  1    310
   940     75    942  1    310
   942     75     12  1    310
   942     12    386  1    310
   942    386    944  1    310
   944    386    474  1    310
   474    386     13  1    310
   474     13     16  1    310
   466    468     77  1    310
     3     29    391  1    311
   391     29    945  1    311
   391    945    389  1    311
   389    945     20  1    311
   389     20     17  1    311
   389     17     15  1    311
    20    945     23  1    311
    23    945     26  1    311
    26    945     29  1    311
    19     86     18  1    312
    18     86    482  1    312
    18    482    475  1    312
   475    482    947  1    312
   475    947    473  1    312
   473    947    946  1    312
   473    946    471  1    312
   471    946    469  1    312
   469    946    477  1    312
   469    477     78  1    312
    78    477     80  1    312
   477    946     83  1    312
    83    946    947  1    312
    83    947    482  1    312
    22     92     87  1    313
    22     87     21  1    313
    87     92     89  1    313
   948    949    950  1    314
   949    951    952  1    314
   950    949    952  1    314
   950    952    514  1    314
   950    514    512  1    314
   950    512    948  1    314
   948    512    104  1    314
   948    104    101  1    314
   948    101    510  1    314
   948    510    508  1    314
   948    508    949  1    314
   949    508    506  1    314
   949    506    951  1    314
   951    506    504  1    314
   951    504    953  1    314
   951    953    952  1    314
   952    953    110  1    314
   952    110    107  1    314
   952    107    514  1    314
   110    953    517  1    314
   517    953    502  1    314
   517    502    500  1    314
   517    500    498  1    314
   517    498     24  1    314
   517     24    113  1    314
   113     24     25  1    314
   113     25    116  1    314
    24    498     93  1    314
   502    953    504  1    314
   510    101     95  1    314
    95    101     98  1    314
    28     31    117  1    315
    28    117     27  1    315
   526    108    109  1    316
   526    109    954  1    316
   526    954     34  1    316
    34    954     33  1    316
    33    954    114  1    316
    33    114    115  1    316
   114    954    522  1    316
   522    954    109  1    316
   532    125    527  1    317
   532    527     37  1    317
    37    527     36  1    317
   527    125    955  1    317
   527    955    106  1    317
   106    955    515  1    317
   515    955    530  1    317
   515    530    528  1    317
   515    528    513  1    317
   513    528    105  1    317
   105    528    122  1    317
   105    122    119  1    317
   530    955    125  1    317
   536    137    134  1    318
   536    134    131  1    318
   536    131    534  1    318
   536    534    533  1    318
   536    533     39  1    318
   536     39     40  1    318
   533    534    126  1    318
   126    534    128  1    318
    43    146    957  1    319
    43    957     42  1    319
    42    957    956  1    319
    42    956    537  1    319
   537    956    138  1    319
   138    956    140  1    319
   140    956    957  1    319
   140    957    143  1    319
   143    957    146  1    319
    46    147     45  1    320
    49     52    164  1    321
    49    164    554  1    321
    49    554    144  1    321
    49    144    145  1    321
    49    145     48  1    321
   144    554    149  1    321
   149    554    551  1    321
   149    551    152  1    321
   152    551    161  1    321
   152    161    155  1    321
   155    161    158  1    321
    55    167    165  1    322
    55    165     54  1    322
    58     61    168  1    323
    58    168     57  1    323
   168     61    559  1    323
   559     61    563  1    323
   559    563    170  1    323
    64    194    564  1    324
    64    564     63  1    324
   564    194    171  1    324
   171    194    592  1    324
   171    592    173  1    324
   173    592    590  1    324
   173    590    176  1    324
   176    590    958  1    324
   176    958    572  1    324
   572    958    179  1    324
   179    958    578  1    324
   179    578    182  1    324
   578    958    185  1    324
   185    958    590  1    324
   185    590    191  1    324
   185    191    188  1    324
    67    195    960  1    325
    67    960    451  1    325
   451    960    449  1    325
   449    960    959  1    325
   449    959    447  1    325
   447    959     66  1    325
    66    959    195  1    325
   195    959    960  1    325
    70    197    961  1    326
    70    961    962  1    326
    70    962     69  1    326
    69    962    193  1    326
   193    962    593  1    326
   593    962    961  1    326
   593    961    591  1    326
   591    961    192  1    326
   192    961    197  1    326
   467     76    200  1    327
   467    200    604  1    327
   467    604    465  1    327
   465    604    963  1    327
   465    963    463  1    327
   463    963    459  1    327
   463    459     73  1    327
   459    963    457  1    327
   457    963    455  1    327
   455    963    604  1    327
   455    604    198  1    327
   455    198     72  1    327
   200     76    203  1    327
   203     76     79  1    327
   612    215    212  1    328
   612    212    964  1    328
   612    964     82  1    328
    82    964    479  1    328
   479    964    610  1    328
   479    610    209  1    328
   479    209     81  1    328
    81    209    206  1    328
    81    206    204  1    328
   610    964    212  1    328
   966    965    968  1    329
   966    968    969  1    329
   967    966    969  1    329
   969    968    971  1    329
   970    969    971  1    329
   970    971     85  1    329
   970     85     88  1    329
   970     88    227  1    329
   970    227    967  1    329
   970    967    969  1    329
   967    227    224  1    329
   967    224    966  1    329
   966    224    218  1    329
   966    218    965  1    329
   965    218    216  1    329
   965    216    613  1    329
   965    613    968  1    329
   968    613     84  1    329
   968     84    484  1    329
   968    484    971  1    329
   971    484     85  1    329
   218    224    221  1    329
   972    974    975  1    330
   973    972    975  1    330
   973    975    976  1    330
   976    975    977  1    330
   976    977    507  1    330
   976    507    509  1    330
   976    509    973  1    330
   973    509    511  1    330
   973    511    650  1    330
   973    650    648  1    330
   973    648    972  1    330
   972    648    646  1    330
   972    646    644  1    330
   972    644    974  1    330
   974    644    233  1    330
   974    233    634  1    330
   974    634    632  1    330
   974    632    977  1    330
   974    977    975  1    330
   977    632    978  1    330
   977    978    505  1    330
   977    505    507  1    330
   505    978    503  1    330
   503    978    632  1    330
   503    632    630  1    330
   503    630    501  1    330
   501    630    499  1    330
   499    630    228  1    330
   499    228     90  1    330
   499     90     91  1    330
   634    233    636  1    330
   636    233    642  1    330
   636    642    230  1    330
   636    230    222  1    330
   636    222    223  1    330
   650    511     94  1    330
   979    980    981  1    331
   979    981    660  1    331
   979    660    239  1    331
   979    239    658  1    331
   979    658    656  1    331
   979    656    980  1    331
   980    656    654  1    331
   980    654    982  1    331
   980    982    649  1    331
   980    649    981  1    331
   981    649    651  1    331
   981    651    242  1    331
   981    242    660  1    331
   242    651     96  1    331
   242     96     97  1    331
   649    982    647  1    331
   647    982    652  1    331
   647    652    645  1    331
   645    652    234  1    331
   652    982    654  1    331
   658    239    236  1    331
   983    984    985  1    332
   985    984    986  1    332
   985    986    257  1    332
   985    257    254  1    332
   985    254    983  1    332
   983    254    251  1    332
   983    251    664  1    332
   983    664    245  1    332
   983    245    662  1    332
   983    662    984  1    332
   984    662    243  1    332
   984    243     99  1    332
   984     99    986  1    332
   986     99    100  1    332
   986    100    121  1    332
   986    121    257  1    332
   121    100    120  1    332
   245    664    248  1    332
   103    118    102  1    333
   524    111    987  1    334
   524    987    112  1    334
   112    987    519  1    334
   519    987    111  1    334
   124    127    531  1    335
   531    127    680  1    335
   531    680    529  1    335
   529    680    677  1    335
   529    677    123  1    335
   123    677    260  1    335
   123    260    258  1    335
   990    989    991  1    336
   990    991    992  1    336
   990    992    690  1    336
   990    690    688  1    336
   990    688    686  1    336
   990    686    989  1    336
   989    686    988  1    336
   989    988    679  1    336
   989    679    682  1    336
   989    682    991  1    336
   991    682    129  1    336
   991    129    992  1    336
   992    129    535  1    336
   992    535    130  1    336
   992    130    690  1    336
   679    988    261  1    336
   261    988    263  1    336
   263    988    684  1    336
   684    988    686  1    336
   994    993    995  1    337
   994    995    996  1    337
   997    996    998  1    337
   997    998    999  1    337
   997    999    700  1    337
   997    700    698  1    337
   997    698    994  1    337
   997    994    996  1    337
   994    698    696  1    337
   994    696    694  1    337
   994    694    993  1    337
   993    694    692  1    337
   993    692    685  1    337
   993    685    995  1    337
   995    685    687  1    337
   995    687    996  1    337
   996    687    689  1    337
   996    689    998  1    337
   998    689    691  1    337
   998    691   1000  1    337
   998   1000    999  1    337
   999   1000    704  1    337
   999    704    702  1    337
   999    702    700  1    337
   704   1000    133  1    337
   133   1000    132  1    337
   132   1000    691  1    337
   685    692    264  1    337
  1001   1002   1003  1    338
  1001   1003   1004  1    338
  1002   1006   1007  1    338
  1002   1007   1008  1    338
  1003   1002   1008  1    338
  1008   1007   1011  1    338
  1008   1011    906  1    338
  1008    906    904  1    338
  1008    904   1003  1    338
  1003    904   1004  1    338
  1004    904   1009  1    338
  1004   1009    275  1    338
  1004    275    272  1    338
  1004    272    266  1    338
  1004    266    708  1    338
  1004    708   1001  1    338
  1001    708   1002  1    338
  1002    708   1005  1    338
  1002   1005   1006  1    338
  1006   1005    695  1    338
  1006    695    697  1    338
  1006    697   1007  1    338
  1007    697   1011  1    338
  1011    697    699  1    338
  1011    699   1013  1    338
  1011   1013    906  1    338
   906   1013    908  1    338
   908   1013    703  1    338
   908    703   1014  1    338
   908   1014    139  1    338
   908    139    150  1    338
   908    150    151  1    338
   139   1014    705  1    338
   139    705    136  1    338
   136    705    135  1    338
   705   1014    703  1    338
   703   1013    701  1    338
   701   1013    699  1    338
   695   1005   1010  1    338
   695   1010    693  1    338
   693   1010   1012  1    338
   693   1012    262  1    338
   262   1012    259  1    338
   259   1012    256  1    338
   256   1012    255  1    338
   255   1012   1010  1    338
   255   1010    706  1    338
   706   1010   1005  1    338
   706   1005    708  1    338
   266    272    269  1    338
   275   1009    278  1    338
   278   1009    281  1    338
   281   1009    157  1    338
   157   1009    904  1    338
   157    904    156  1    338
   142    148    141  1    339
   909    153   1016  1    340
   909   1016    907  1    340
   907   1016   1015  1    340
   907   1015    905  1    340
   905   1015    154  1    340
   154   1015   1016  1    340
   154   1016    153  1    340
   734    287    732  1    341
   734    732    159  1    341
   734    159    160  1    341
   159    732    282  1    341
   282    732    284  1    341
  1017   1020   1021  1    342
  1018   1017   1021  1    342
  1018   1021   1022  1    342
  1018   1022   1023  1    342
  1020   1019   1024  1    342
  1020   1024   1025  1    342
  1021   1020   1025  1    342
  1021   1025   1026  1    342
  1022   1021   1026  1    342
  1022   1026   1027  1    342
  1022   1027   1028  1    342
  1023   1022   1028  1    342
  1024   1029   1030  1    342
  1025   1024   1030  1    342
  1025   1030   1031  1    342
  1026   1025   1031  1    342
  1026   1031   1032  1    342
  1027   1026   1032  1    342
  1027   1032   1033  1    342
  1028   1027   1033  1    342
  1030   1029   1034  1    342
  1030   1034   1035  1    342
  1031   1030   1035  1    342
  1031   1035   1036  1    342
  1032   1031   1036  1    342
  1033   1032   1036  1    342
  1035   1034   1037  1    342
  1035   1037   1036  1    342
  1036   1037    561  1    342
  1036    561    169  1    342
  1036    169   1033  1    342
  1033    169    172  1    342
  1033    172   1028  1    342
  1028    172   1023  1    342
  1023    172    290  1    342
  1023    290   1018  1    342
  1018    290    288  1    342
  1018    288   1017  1    342
  1017    288    735  1    342
  1017    735   1019  1    342
  1017   1019   1020  1    342
  1019    735    162  1    342
  1019    162   1024  1    342
  1024    162    553  1    342
  1024    553   1029  1    342
  1029    553    556  1    342
  1029    556   1034  1    342
  1034    556    163  1    342
  1034    163   1037  1    342
  1037    163    166  1    342
  1037    166    561  1    342
   175    291    174  1    343
  1038   1039   1040  1    344
  1038   1040   1041  1    344
  1038   1041   1042  1    344
  1038   1042   1043  1    344
  1038   1043   1044  1    344
  1038   1044   1039  1    344
  1044   1043   1045  1    344
  1044   1045   1046  1    344
  1044   1046    178  1    344
  1044    178   1039  1    344
  1039    178    299  1    344
  1039    299    746  1    344
  1039    746   1040  1    344
  1040    746    296  1    344
  1040    296    293  1    344
  1040    293   1041  1    344
  1041    293    276  1    344
  1041    276    277  1    344
  1041    277    733  1    344
  1041    733   1042  1    344
  1042    733    286  1    344
  1042    286   1043  1    344
  1043    286    289  1    344
  1043    289   1045  1    344
  1045    289    177  1    344
  1045    177    574  1    344
  1045    574   1046  1    344
  1046    574    178  1    344
   733    277    285  1    344
   299    178    302  1    344
   181    308    180  1    345
   180    308    303  1    345
   303    308    305  1    345
   184    309    581  1    346
   581    309    184  1    346
   309    183    581  1    346
   900    201    802  1    347
   900    802    800  1    347
   900    800    798  1    347
   900    798    186  1    347
   900    186    187  1    347
   186    798    796  1    347
   186    796    794  1    347
   186    794    307  1    347
   307    794    792  1    347
   307    792   1047  1    347
   307   1047    306  1    347
   306   1047    311  1    347
   311   1047    790  1    347
   311    790    314  1    347
   314    790    317  1    347
   790   1047    792  1    347
   802    201    804  1    347
   804    201    202  1    347
   804    202    320  1    347
   320    202    205  1    347
   190    196   1048  1    348
   190   1048    902  1    348
   190    902    189  1    348
   902   1048    199  1    348
   199   1048    605  1    348
   605   1048    196  1    348
  1049   1050   1051  1    349
  1049   1051    818  1    349
  1049    818    816  1    349
  1049    816    810  1    349
  1049    810    808  1    349
  1049    808   1050  1    349
  1050    808    806  1    349
  1050    806    208  1    349
  1050    208    822  1    349
  1050    822   1051  1    349
  1051    822    329  1    349
  1051    329    820  1    349
  1051    820    818  1    349
   820    329    326  1    349
   208    806    321  1    349
   208    321    207  1    349
   810    816    814  1    349
   810    814    812  1    349
   812    814    323  1    349
   211    330    823  1    350
   211    823    611  1    350
   611    823    210  1    350
  1052   1053   1054  1    351
  1052   1054    338  1    351
  1052    338    335  1    351
  1052    335    332  1    351
  1052    332    825  1    351
  1052    825   1053  1    351
  1053    825    327  1    351
  1053    327   1055  1    351
  1053   1055    214  1    351
  1053    214   1054  1    351
  1054    214    217  1    351
  1054    217    338  1    351
   214   1055    213  1    351
   213   1055    328  1    351
   328   1055    327  1    351
   220    229    339  1    352
   220    339    219  1    352
   339    229    341  1    352
   637    225   1056  1    353
   637   1056    635  1    353
   635   1056    633  1    353
   633   1056   1057  1    353
   633   1057    631  1    353
   631   1057    226  1    353
   226   1057   1056  1    353
   226   1056    225  1    353
  1058   1060   1061  1    354
  1061   1060   1063  1    354
  1060   1062   1063  1    354
  1063   1062   1065  1    354
  1062   1064   1065  1    354
  1065   1064    643  1    354
  1065    643    232  1    354
  1065    232    653  1    354
  1065    653   1063  1    354
  1063    653    655  1    354
  1063    655   1061  1    354
  1061    655    657  1    354
  1061    657    659  1    354
  1061    659   1058  1    354
  1058    659    235  1    354
  1058    235   1059  1    354
  1058   1059    842  1    354
  1058    842   1060  1    354
  1060    842   1062  1    354
  1062    842    344  1    354
  1062    344   1064  1    354
  1064    344    342  1    354
  1064    342    643  1    354
   643    342    231  1    354
   842   1059    347  1    354
   347   1059    353  1    354
   347    353    350  1    354
   353   1059    235  1    354
  1066   1067   1068  1    355
  1066   1069   1070  1    355
  1066   1070   1067  1    355
  1067   1070    354  1    355
  1067    354    237  1    355
  1067    237   1068  1    355
  1068    237    238  1    355
  1068    238    246  1    355
  1068    246    247  1    355
  1068    247   1066  1    355
  1066    247    885  1    355
  1066    885   1069  1    355
  1069    885    365  1    355
  1069    365    362  1    355
  1069    362    316  1    355
  1069    316   1070  1    355
  1070    316    356  1    355
  1070    356    354  1    355
   316    362    315  1    355
   663    244    661  1    356
   663    661    241  1    356
   661    244    240  1    356
   893    267   1072  1    357
   893   1072   1071  1    357
   893   1071    665  1    357
   893    665    250  1    357
   665   1071    249  1    357
   249   1071    887  1    357
   887   1071    366  1    357
   366   1071    749  1    357
   366    749    298  1    357
   749   1071   1072  1    357
   749   1072    297  1    357
   297   1072    267  1    357
   297    267    268  1    357
   709    265    896  1    358
   709    896    707  1    358
   707    896    252  1    358
   707    252    253  1    358
   271    294    295  1    359
   271    295    270  1    359
   274    292    273  1    360
   280    283    279  1    361
   301    304    363  1    362
   301    363    300  1    362
   300    363    364  1    362
   363    304    310  1    362
   313    361    312  1    363
  1073   1074   1075  1    364
  1073   1075   1076  1    364
  1073   1076   1077  1    364
  1073   1077   1078  1    364
  1073   1078   1079  1    364
  1073   1079   1074  1    364
  1076   1075   1080  1    364
  1076   1080   1081  1    364
  1076   1081   1082  1    364
  1077   1076   1082  1    364
  1077   1082   1083  1    364
  1077   1083   1084  1    364
  1078   1077   1084  1    364
  1078   1084   1085  1    364
  1078   1085   1086  1    364
  1079   1078   1086  1    364
  1079   1086   1087  1    364
  1085   1084   1088  1    364
  1085   1088   1089  1    364
  1086   1085   1089  1    364
  1086   1089   1090  1    364
  1086   1090   1091  1    364
  1087   1086   1091  1    364
  1089   1092   1093  1    364
  1090   1089   1093  1    364
  1090   1093   1094  1    364
  1091   1090   1094  1    364
  1093   1092   1095  1    364
  1093   1095   1096  1    364
  1094   1093   1096  1    364
  1094   1096    811  1    364
  1094    811    813  1    364
  1094    813   1091  1    364
  1091    813    322  1    364
  1091    322   1087  1    364
  1087    322    874  1    364
  1087    874   1079  1    364
  1079    874   1074  1    364
  1074    874    359  1    364
  1074    359   1075  1    364
  1075    359    872  1    364
  1075    872   1080  1    364
  1080    872    870  1    364
  1080    870    349  1    364
  1080    349    357  1    364
  1080    357   1081  1    364
  1081    357    318  1    364
  1081    318    791  1    364
  1081    791   1082  1    364
  1082    791    793  1    364
  1082    793   1083  1    364
  1083    793    795  1    364
  1083    795   1084  1    364
  1084    795    797  1    364
  1084    797   1088  1    364
  1088    797    799  1    364
  1088    799   1089  1    364
  1089    799   1092  1    364
  1092    799    801  1    364
  1092    801   1095  1    364
  1095    801    803  1    364
  1095    803   1096  1    364
  1096    803    805  1    364
  1096    805    807  1    364
  1096    807    809  1    364
  1096    809    811  1    364
   807    805    319  1    364
   349    870    348  1    364
  1098   1097   1101  1    365
  1099   1102   1103  1    365
  1097   1099   1103  1    365
  1097   1103   1100  1    365
  1097   1100   1101  1    365
  1101   1100   1105  1    365
  1103   1102   1106  1    365
  1103   1106   1107  1    365
  1100   1103   1107  1    365
  1100   1107   1104  1    365
  1100   1104   1105  1    365
  1105   1104   1109  1    365
  1106   1110   1111  1    365
  1107   1106   1111  1    365
  1104   1107   1111  1    365
  1104   1111   1108  1    365
  1104   1108   1109  1    365
  1109   1108    827  1    365
  1109    827    331  1    365
  1109    331    882  1    365
  1109    882   1105  1    365
  1105    882    880  1    365
  1105    880   1101  1    365
  1101    880    878  1    365
  1101    878   1098  1    365
  1098    878    876  1    365
  1098    876    360  1    365
  1098    360   1097  1    365
  1097    360   1099  1    365
  1099    360    875  1    365
  1099    875    324  1    365
  1099    324   1102  1    365
  1102    324    815  1    365
  1102    815   1106  1    365
  1106    815    817  1    365
  1106    817   1110  1    365
  1110    817    819  1    365
  1110    819    821  1    365
  1110    821   1111  1    365
  1111    821    325  1    365
  1111    325   1108  1    365
  1108    325    827  1    365
   334    345    883  1    366
   334    883    333  1    366
   883    345    881  1    366
   881    345    846  1    366
   881    846    879  1    366
   879    846    346  1    366
   879    346    871  1    366
   879    871    877  1    366
   877    871    873  1    366
   877    873    358  1    366
   337    340    336  1    367
   336    340    343  1    367
   352    355    351  1    368
