# MSMS solvent excluded surface faces for fragments/fragment165.xyzr
#faces  #sphere density probe_r
   2890      67  3.00  1.50
     1      5      2  3      3
     2      5      4  3      3
     5      8    457  3      5
   457      8    460  3      5
   457    460    458  3      5
   458    460    461  3      5
   458    461    459  3      5
   459    461    462  3      5
   459    462      6  3      5
     6    462      7  3      5
     8    463      9  3      7
     9    463    464  3      7
   463     11    464  3      7
   464     11     10  3      7
    11    466    465  3      9
   465    466    467  3      9
   465    467     12  3      9
    12    467    468  3      9
   466     14    467  3      9
   467     14    469  3      9
   467    469    468  3      9
   468    469     13  3      9
    14    471    470  3     11
   470    471    472  3     11
   470    472     15  3     11
    15    472    473  3     11
   471     17    472  3     11
   472     17    474  3     11
   472    474    473  3     11
   473    474     16  3     11
    17    475     18  3     12
    18    475    476  3     12
   475    477    476  3     12
   476    477    478  3     12
   477    479    478  3     12
   478    479    480  3     12
   479      1    480  3     12
   480      1      3  3     12
    18    482    481  3     14
   481    482    483  3     14
   481    483     16  3     14
    16    483    484  3     14
   482     20    483  3     14
   483     20    485  3     14
   483    485    484  3     14
   484    485     19  3     14
    20     23    486  3     16
   486     23    487  3     16
   486    487     21  3     16
    21    487     22  3     16
    23     26    488  3     18
   488     26    489  3     18
   488    489     24  3     18
    24    489     25  3     18
    26     29    490  3     20
   490     29    491  3     20
   490    491     27  3     20
    27    491     28  3     20
    29     32    492  3     22
   492     32    494  3     22
   492    494    493  3     22
   493    494    495  3     22
   493    495     30  3     22
    30    495     31  3     22
    32     35    496  3     24
   496     35    499  3     24
   496    499    497  3     24
   497    499    500  3     24
   497    500    498  3     24
   498    500    501  3     24
   498    501     33  3     24
    33    501     34  3     24
    35     38    502  3     26
   502     38    504  3     26
   502    504    503  3     26
   503    504    505  3     26
   503    505     36  3     26
    36    505     37  3     26
    38     41     39  3     28
    39     41     40  3     28
    41     44    506  3     30
   506     44    508  3     30
   506    508    507  3     30
   507    508    509  3     30
   507    509     42  3     30
    42    509     43  3     30
    44      3     45  3     31
    45      3      2  3     31
    45      4    510  3     32
   510      4    511  3     32
   510    511     43  3     32
    43    511      6  3     32
    42     47    512  3     34
   512     47    513  3     34
   512    513     40  3     34
    40    513     46  3     34
    47     50     48  3     36
    48     50     49  3     36
    50     53    514  3     38
   514     53    515  3     38
   514    515     51  3     38
    51    515     52  3     38
    53    516     54  3     40
    54    516    517  3     40
   516     56    517  3     40
   517     56     55  3     40
    56    519    518  3     42
   518    519    520  3     42
   518    520     57  3     42
    57    520    521  3     42
   519     59    520  3     42
   520     59    522  3     42
   520    522    521  3     42
   521    522     58  3     42
    59     62    523  3     44
   523     62    525  3     44
   523    525    524  3     44
   524    525    526  3     44
   524    526     60  3     44
    60    526     61  3     44
    62     65    527  3     46
   527     65    529  3     46
   527    529    528  3     46
   528    529    530  3     46
   528    530     63  3     46
    63    530     64  3     46
    65     68    531  3     48
   531     68    535  3     48
   531    535    532  3     48
   532    535    536  3     48
   532    536    533  3     48
   533    536    537  3     48
   533    537    534  3     48
   534    537    538  3     48
   534    538     66  3     48
    66    538     67  3     48
    68     71    539  3     50
   539     71    543  3     50
   539    543    540  3     50
   540    543    544  3     50
   540    544    541  3     50
   541    544    545  3     50
   541    545    542  3     50
   542    545    546  3     50
   542    546     69  3     50
    69    546     70  3     50
    71    548    547  3     51
   547    548    549  3     51
   547    549     72  3     51
    72    549    550  3     51
   548    551    549  3     51
   549    551    552  3     51
   549    552    550  3     51
   550    552    553  3     51
   551      7    552  3     51
   552      7    554  3     51
   552    554    553  3     51
   553    554      9  3     51
    72     74    555  3     53
   555     74    557  3     53
   555    557    556  3     53
   556    557    558  3     53
   556    558     70  3     53
    70    558     73  3     53
    74    559     75  3     54
    75    559    560  3     54
   559     10    560  3     54
   560     10     12  3     54
    75     77    561  3     56
   561     77    562  3     56
   561    562     73  3     56
    73    562     76  3     56
    77    563     78  3     58
    78    563    564  3     58
   563     80    564  3     58
   564     80     79  3     58
    80     83    565  3     60
   565     83    566  3     60
   565    566     81  3     60
    81    566     82  3     60
    83     86     84  3     62
    84     86     85  3     62
    86     13     87  3     63
    87     13     15  3     63
    87    567     85  3     65
    85    567    568  3     65
   567    569    568  3     65
   568    569    570  3     65
   569    571    570  3     65
   570    571    572  3     65
   571    573    572  3     65
   572    573    574  3     65
   573     89    574  3     65
   574     89     88  3     65
    89     19    575  3     66
   575     19    577  3     66
   575    577    576  3     66
   576    577    578  3     66
   576    578     90  3     66
    90    578     21  3     66
    90     92    579  3     68
   579     92    580  3     68
   579    580     88  3     68
    88    580     91  3     68
    92    581     93  3     70
    93    581    582  3     70
   581     95    582  3     70
   582     95     94  3     70
    95     98     96  3     72
    96     98     97  3     72
    98     22     99  3     73
    99     22     24  3     73
    99     25     97  3     74
    97     25     27  3     74
    96    583     94  3     76
    94    583    584  3     76
   583    585    584  3     76
   584    585    586  3     76
   585    101    586  3     76
   586    101    100  3     76
   101    104    102  3     78
   102    104    103  3     78
   104    107    587  3     80
   587    107    590  3     80
   587    590    588  3     80
   588    590    591  3     80
   588    591    589  3     80
   589    591    592  3     80
   589    592    105  3     80
   105    592    106  3     80
   107    110    593  3     82
   593    110    596  3     82
   593    596    594  3     82
   594    596    597  3     82
   594    597    595  3     82
   595    597    598  3     82
   595    598    108  3     82
   108    598    109  3     82
   110    599    111  3     84
   111    599    600  3     84
   599    601    600  3     84
   600    601    602  3     84
   601    113    602  3     84
   602    113    112  3     84
   113    116    603  3     86
   603    116    605  3     86
   603    605    604  3     86
   604    605    606  3     86
   604    606    114  3     86
   114    606    115  3     86
   116    119    607  3     88
   607    119    608  3     88
   607    608    117  3     88
   117    608    118  3     88
   119    609    120  3     89
   120    609    610  3     89
   609     28    610  3     89
   610     28     30  3     89
   120    612    611  3     90
   611    612    613  3     90
   611    613    118  3     90
   118    613    614  3     90
   612     31    613  3     90
   613     31    615  3     90
   613    615    614  3     90
   614    615     33  3     90
   117    122    616  3     92
   616    122    618  3     92
   616    618    617  3     92
   617    618    619  3     92
   617    619    115  3     92
   115    619    121  3     92
   122    621    620  3     94
   620    621    622  3     94
   620    622    123  3     94
   123    622    623  3     94
   621    624    622  3     94
   622    624    625  3     94
   622    625    623  3     94
   623    625    626  3     94
   624    125    625  3     94
   625    125    627  3     94
   625    627    626  3     94
   626    627    124  3     94
   125    128    628  3     96
   628    128    629  3     96
   628    629    126  3     96
   126    629    127  3     96
   128    630    129  3     97
   129    630    631  3     97
   630     52    631  3     97
   631     52     54  3     97
   129     55    127  3     98
   127     55     57  3     98
   126    131    632  3    100
   632    131    633  3    100
   632    633    124  3    100
   124    633    130  3    100
   131    134    132  3    102
   132    134    133  3    102
   134    137    634  3    104
   634    137    635  3    104
   634    635    135  3    104
   135    635    136  3    104
   137    140    138  3    106
   138    140    139  3    106
   140    143    636  3    108
   636    143    637  3    108
   636    637    141  3    108
   141    637    142  3    108
   143    146    638  3    110
   638    146    640  3    110
   638    640    639  3    110
   639    640    641  3    110
   639    641    144  3    110
   144    641    145  3    110
   146    643    642  3    112
   642    643    644  3    112
   642    644    147  3    112
   147    644    645  3    112
   643    149    644  3    112
   644    149    646  3    112
   644    646    645  3    112
   645    646    148  3    112
   149     58    150  3    113
   150     58     60  3    113
   150    152    148  3    115
   148    152    151  3    115
   152    155    647  3    117
   647    155    648  3    117
   647    648    153  3    117
   153    648    154  3    117
   155     61    649  3    118
   649     61    651  3    118
   649    651    650  3    118
   650    651    652  3    118
   650    652    156  3    118
   156    652     63  3    118
   156    158    653  3    120
   653    158    656  3    120
   653    656    654  3    120
   654    656    657  3    120
   654    657    655  3    120
   655    657    658  3    120
   655    658    154  3    120
   154    658    157  3    120
   158    161    159  3    122
   159    161    160  3    122
   161     64    162  3    123
   162     64     66  3    123
   162    164    160  3    125
   160    164    163  3    125
   164    167    659  3    127
   659    167    661  3    127
   659    661    660  3    127
   660    661    662  3    127
   660    662    165  3    127
   165    662    166  3    127
   167    663    168  3    129
   168    663    664  3    129
   663    170    664  3    129
   664    170    169  3    129
   170    173    665  3    131
   665    173    666  3    131
   665    666    171  3    131
   171    666    172  3    131
   173    667    174  3    132
   174    667    668  3    132
   667     67    668  3    132
   668     67     69  3    132
   174    176    172  3    134
   172    176    175  3    134
   176     76    669  3    135
   669     76    670  3    135
   669    670    177  3    135
   177    670     78  3    135
   177    179    671  3    137
   671    179    673  3    137
   671    673    672  3    137
   672    673    674  3    137
   672    674    175  3    137
   175    674    178  3    137
   179     79    675  3    138
   675     79    676  3    138
   675    676    180  3    138
   180    676     81  3    138
   180    677    178  3    140
   178    677    678  3    140
   677    679    678  3    140
   678    679    680  3    140
   679    681    680  3    140
   680    681    682  3    140
   681    683    682  3    140
   682    683    684  3    140
   683    685    684  3    140
   684    685    686  3    140
   685    687    686  3    140
   686    687    688  3    140
   687    182    688  3    140
   688    182    181  3    140
   182    185    183  3    142
   183    185    184  3    142
   185    188    689  3    144
   689    188    690  3    144
   689    690    186  3    144
   186    690    187  3    144
   188    191    691  3    146
   691    191    692  3    146
   691    692    189  3    146
   189    692    190  3    146
   191     82    693  3    147
   693     82    695  3    147
   693    695    694  3    147
   694    695    696  3    147
   694    696    192  3    147
   192    696     84  3    147
   192    194    190  3    149
   190    194    193  3    149
   194    197    697  3    151
   697    197    698  3    151
   697    698    195  3    151
   195    698    196  3    151
   197    200    198  3    153
   198    200    199  3    153
   200     91    699  3    154
   699     91    700  3    154
   699    700    201  3    154
   201    700     93  3    154
   201    701    199  3    156
   199    701    702  3    156
   701    203    702  3    156
   702    203    202  3    156
   203    703    204  3    157
   204    703    704  3    157
   703    100    704  3    157
   704    100    102  3    157
   204    705    202  3    159
   202    705    706  3    159
   705    206    706  3    159
   706    206    205  3    159
   206    209    707  3    161
   707    209    708  3    161
   707    708    207  3    161
   207    708    208  3    161
   209    103    709  3    162
   709    103    712  3    162
   709    712    710  3    162
   710    712    713  3    162
   710    713    711  3    162
   711    713    714  3    162
   711    714    210  3    162
   210    714    105  3    162
   210    212    715  3    164
   715    212    718  3    164
   715    718    716  3    164
   716    718    719  3    164
   716    719    717  3    164
   717    719    720  3    164
   717    720    208  3    164
   208    720    211  3    164
   212    106    213  3    165
   213    106    108  3    165
   213    724    721  3    167
   721    724    725  3    167
   721    725    722  3    167
   722    725    726  3    167
   722    726    723  3    167
   723    726    727  3    167
   723    727    211  3    167
   211    727    728  3    167
   724    729    725  3    167
   725    729    730  3    167
   725    730    726  3    167
   726    730    731  3    167
   726    731    727  3    167
   727    731    732  3    167
   727    732    728  3    167
   728    732    733  3    167
   729    215    730  3    167
   730    215    734  3    167
   730    734    731  3    167
   731    734    735  3    167
   731    735    732  3    167
   732    735    736  3    167
   732    736    733  3    167
   733    736    214  3    167
   215    218    737  3    169
   737    218    740  3    169
   737    740    738  3    169
   738    740    741  3    169
   738    741    739  3    169
   739    741    742  3    169
   739    742    216  3    169
   216    742    217  3    169
   219    743    222  3    171
   222    743    744  3    171
   744    743    221  3    171
   218    223    745  3    172
   745    223    746  3    172
   745    746    220  3    172
   223    226    747  3    174
   747    226    750  3    174
   747    750    748  3    174
   748    750    751  3    174
   748    751    749  3    174
   749    751    752  3    174
   749    752    224  3    174
   224    752    225  3    174
   226    229    753  3    176
   753    229    754  3    176
   753    754    227  3    176
   227    754    228  3    176
   229    232    230  3    178
   230    232    231  3    178
   232    235    233  3    180
   233    235    234  3    180
   235    755    236  3    182
   236    755    756  3    182
   755    757    756  3    182
   756    757    758  3    182
   757    759    758  3    182
   758    759    760  3    182
   759    761    760  3    182
   760    761    762  3    182
   761    763    762  3    182
   762    763    764  3    182
   763    765    764  3    182
   764    765    766  3    182
   765    767    766  3    182
   766    767    768  3    182
   767    769    768  3    182
   768    769    770  3    182
   769    238    770  3    182
   770    238    237  3    182
   238    241    239  3    184
   239    241    240  3    184
   241    244    242  3    186
   242    244    243  3    186
   244    247    245  3    188
   245    247    246  3    188
   247    250    771  3    190
   771    250    773  3    190
   771    773    772  3    190
   772    773    774  3    190
   772    774    248  3    190
   248    774    249  3    190
   250    253    775  3    192
   775    253    776  3    192
   775    776    251  3    192
   251    776    252  3    192
   253    109    777  3    193
   777    109    780  3    193
   777    780    778  3    193
   778    780    781  3    193
   778    781    779  3    193
   779    781    782  3    193
   779    782    254  3    193
   254    782    111  3    193
   254    256    783  3    195
   783    256    785  3    195
   783    785    784  3    195
   784    785    786  3    195
   784    786    252  3    195
   252    786    255  3    195
   256    112    787  3    196
   787    112    789  3    196
   787    789    788  3    196
   788    789    790  3    196
   788    790    257  3    196
   257    790    114  3    196
   257    249    255  3    197
   255    249    251  3    197
   248    259    791  3    199
   791    259    792  3    199
   791    792    246  3    199
   246    792    258  3    199
   259    794    793  3    201
   793    794    795  3    201
   793    795    260  3    201
   260    795    796  3    201
   794    262    795  3    201
   795    262    797  3    201
   795    797    796  3    201
   796    797    261  3    201
   262    798    263  3    202
   263    798    799  3    202
   798    121    799  3    202
   799    121    123  3    202
   263    265    800  3    204
   800    265    801  3    204
   800    801    261  3    204
   261    801    264  3    204
   265    268    266  3    206
   266    268    267  3    206
   268    271    802  3    208
   802    271    803  3    208
   802    803    269  3    208
   269    803    270  3    208
   271    274    804  3    210
   804    274    806  3    210
   804    806    805  3    210
   805    806    807  3    210
   805    807    272  3    210
   272    807    273  3    210
   274    130    808  3    211
   808    130    809  3    211
   808    809    275  3    211
   275    809    132  3    211
   275    133    273  3    212
   273    133    135  3    212
   272    810    270  3    214
   270    810    811  3    214
   810    277    811  3    214
   811    277    276  3    214
   277    280    278  3    216
   278    280    279  3    216
   280    136    281  3    217
   281    136    138  3    217
   281    139    279  3    218
   279    139    141  3    218
   278    812    276  3    220
   276    812    813  3    220
   812    814    813  3    220
   813    814    815  3    220
   814    283    815  3    220
   815    283    282  3    220
   283    286    816  3    222
   816    286    817  3    222
   816    817    284  3    222
   284    817    285  3    222
   286    818    287  3    224
   287    818    819  3    224
   818    289    819  3    224
   819    289    288  3    224
   289    821    820  3    226
   820    821    822  3    226
   820    822    290  3    226
   290    822    823  3    226
   821    824    822  3    226
   822    824    825  3    226
   822    825    823  3    226
   823    825    826  3    226
   824    827    825  3    226
   825    827    828  3    226
   825    828    826  3    226
   826    828    829  3    226
   827    292    828  3    226
   828    292    830  3    226
   828    830    829  3    226
   829    830    291  3    226
   292    295    831  3    228
   831    295    832  3    228
   831    832    293  3    228
   293    832    294  3    228
   295    298    833  3    230
   833    298    835  3    230
   833    835    834  3    230
   834    835    836  3    230
   834    836    296  3    230
   296    836    297  3    230
   298    151    299  3    231
   299    151    153  3    231
   299    301    837  3    233
   837    301    838  3    233
   837    838    297  3    233
   297    838    300  3    233
   301    157    839  3    234
   839    157    841  3    234
   839    841    840  3    234
   840    841    842  3    234
   840    842    302  3    234
   302    842    159  3    234
   302    163    843  3    235
   843    163    845  3    235
   843    845    844  3    235
   844    845    846  3    235
   844    846    300  3    235
   300    846    165  3    235
   296    847    294  3    237
   294    847    848  3    237
   847    304    848  3    237
   848    304    303  3    237
   304    307    849  3    239
   849    307    850  3    239
   849    850    305  3    239
   305    850    306  3    239
   307    851    308  3    241
   308    851    852  3    241
   851    853    852  3    241
   852    853    854  3    241
   853    855    854  3    241
   854    855    856  3    241
   855    310    856  3    241
   856    310    309  3    241
   310    313    857  3    243
   857    313    859  3    243
   857    859    858  3    243
   858    859    860  3    243
   858    860    311  3    243
   311    860    312  3    243
   313    863    861  3    245
   861    863    864  3    245
   861    864    862  3    245
   862    864    865  3    245
   862    865    314  3    245
   314    865    866  3    245
   863    867    864  3    245
   864    867    868  3    245
   864    868    865  3    245
   865    868    869  3    245
   865    869    866  3    245
   866    869    870  3    245
   867    316    868  3    245
   868    316    871  3    245
   868    871    869  3    245
   869    871    872  3    245
   869    872    870  3    245
   870    872    315  3    245
   316    875    873  3    247
   873    875    876  3    247
   873    876    874  3    247
   874    876    877  3    247
   874    877    317  3    247
   317    877    878  3    247
   875    319    876  3    247
   876    319    879  3    247
   876    879    877  3    247
   877    879    880  3    247
   877    880    878  3    247
   878    880    318  3    247
   319    166    881  3    248
   881    166    884  3    248
   881    884    882  3    248
   882    884    885  3    248
   882    885    883  3    248
   883    885    886  3    248
   883    886    320  3    248
   320    886    168  3    248
   320    887    318  3    250
   318    887    888  3    250
   887    889    888  3    250
   888    889    890  3    250
   889    322    890  3    250
   890    322    321  3    250
   322    891    323  3    252
   323    891    892  3    252
   891    325    892  3    252
   892    325    324  3    252
   325    169    326  3    253
   326    169    171  3    253
   326    893    324  3    255
   324    893    894  3    255
   893    895    894  3    255
   894    895    896  3    255
   895    897    896  3    255
   896    897    898  3    255
   897    899    898  3    255
   898    899    900  3    255
   899    901    900  3    255
   900    901    902  3    255
   901    903    902  3    255
   902    903    904  3    255
   903    905    904  3    255
   904    905    906  3    255
   905    328    906  3    255
   906    328    327  3    255
   328    331    329  3    257
   329    331    330  3    257
   331    334    907  3    259
   907    334    908  3    259
   907    908    332  3    259
   332    908    333  3    259
   334    181    335  3    260
   335    181    183  3    260
   335    909    333  3    262
   333    909    910  3    262
   909    337    910  3    262
   910    337    336  3    262
   337    340    338  3    264
   338    340    339  3    264
   340    343    341  3    266
   341    343    342  3    266
   343    184    911  3    267
   911    184    912  3    267
   911    912    344  3    267
   344    912    186  3    267
   344    913    342  3    268
   342    913    914  3    268
   913    915    914  3    268
   914    915    916  3    268
   915    196    916  3    268
   916    196    198  3    268
   341    917    339  3    269
   339    917    918  3    269
   917    205    918  3    269
   918    205    207  3    269
   338    346    336  3    271
   336    346    345  3    271
   346    919    347  3    273
   347    919    920  3    273
   919    921    920  3    273
   920    921    922  3    273
   921    349    922  3    273
   922    349    348  3    273
   349    352    923  3    275
   923    352    926  3    275
   923    926    924  3    275
   924    926    927  3    275
   924    927    925  3    275
   925    927    928  3    275
   925    928    350  3    275
   350    928    351  3    275
   352    214    929  3    276
   929    214    932  3    276
   929    932    930  3    276
   930    932    933  3    276
   930    933    931  3    276
   931    933    934  3    276
   931    934    353  3    276
   353    934    216  3    276
   353    217    351  3    277
   351    217    219  3    277
   350    937    935  3    278
   935    937    938  3    278
   935    938    936  3    278
   936    938    939  3    278
   936    939    348  3    278
   348    939    940  3    278
   937    309    938  3    278
   938    309    941  3    278
   938    941    939  3    278
   939    941    942  3    278
   939    942    940  3    278
   940    942    311  3    278
   347    943    345  3    280
   345    943    944  3    280
   943    355    944  3    280
   944    355    354  3    280
   355    358    945  3    282
   945    358    946  3    282
   945    946    356  3    282
   356    946    357  3    282
   358    312    947  3    283
   947    312    948  3    283
   947    948    359  3    283
   359    948    314  3    283
   359    949    357  3    284
   357    949    950  3    284
   949    951    950  3    284
   950    951    952  3    284
   951    953    952  3    284
   952    953    954  3    284
   953    315    954  3    284
   954    315    317  3    284
   356    361    354  3    286
   354    361    360  3    286
   361    955    362  3    288
   362    955    956  3    288
   955    957    956  3    288
   956    957    958  3    288
   957    959    958  3    288
   958    959    960  3    288
   959    364    960  3    288
   960    364    363  3    288
   364    367    365  3    290
   365    367    366  3    290
   367    962    961  3    292
   961    962    963  3    292
   961    963    368  3    292
   368    963    964  3    292
   962    965    963  3    292
   963    965    966  3    292
   963    966    964  3    292
   964    966    967  3    292
   965    968    966  3    292
   966    968    969  3    292
   966    969    967  3    292
   967    969    970  3    292
   968    971    969  3    292
   969    971    972  3    292
   969    972    970  3    292
   970    972    973  3    292
   971    974    972  3    292
   972    974    975  3    292
   972    975    973  3    292
   973    975    976  3    292
   974    370    975  3    292
   975    370    977  3    292
   975    977    976  3    292
   976    977    369  3    292
   370    321    371  3    293
   371    321    323  3    293
   371    979    978  3    294
   978    979    980  3    294
   978    980    369  3    294
   369    980    981  3    294
   979    982    980  3    294
   980    982    983  3    294
   980    983    981  3    294
   981    983    984  3    294
   982    366    983  3    294
   983    366    985  3    294
   983    985    984  3    294
   984    985    368  3    294
   365    986    363  3    295
   363    986    987  3    295
   986    327    987  3    295
   987    327    329  3    295
   362    988    360  3    296
   360    988    989  3    296
   988    990    989  3    296
   989    990    991  3    296
   990    330    991  3    296
   991    330    332  3    296
   308    992    306  3    298
   306    992    993  3    298
   992    994    993  3    298
   993    994    995  3    298
   994    996    995  3    298
   995    996    997  3    298
   996    998    997  3    298
   997    998    999  3    298
   998    373    999  3    298
   999    373    372  3    298
   373    376   1000  3    300
  1000    376   1001  3    300
  1000   1001    374  3    300
   374   1001    375  3    300
   376   1003   1002  3    301
  1002   1003   1004  3    301
  1002   1004    377  3    301
   377   1004   1005  3    301
  1003    222   1004  3    301
  1004    222   1006  3    301
  1004   1006   1005  3    301
  1005   1006    224  3    301
   377    379    375  3    303
   375    379    378  3    303
   379   1008   1007  3    304
  1007   1008   1009  3    304
  1007   1009    380  3    304
   380   1009   1010  3    304
  1008    225   1009  3    304
  1009    225   1011  3    304
  1009   1011   1010  3    304
  1010   1011    227  3    304
   380    285   1012  3    305
  1012    285   1013  3    305
  1012   1013    378  3    305
   378   1013    287  3    305
   374   1015   1014  3    306
  1014   1015   1016  3    306
  1014   1016    372  3    306
   372   1016   1017  3    306
  1015    288   1016  3    306
  1016    288   1018  3    306
  1016   1018   1017  3    306
  1017   1018    290  3    306
   305    291    303  3    307
   303    291    293  3    307
   284    382    282  3    309
   282    382    381  3    309
   382    385    383  3    311
   383    385    384  3    311
   385   1020   1019  3    313
  1019   1020   1021  3    313
  1019   1021    386  3    313
   386   1021   1022  3    313
  1020    388   1021  3    313
  1021    388   1023  3    313
  1021   1023   1022  3    313
  1022   1023    387  3    313
   388   1025   1024  3    314
  1024   1025   1026  3    314
  1024   1026    389  3    314
   389   1026   1027  3    314
  1025    228   1026  3    314
  1026    228   1028  3    314
  1026   1028   1027  3    314
  1027   1028    230  3    314
   389    391    387  3    316
   387    391    390  3    316
   391    394    392  3    318
   392    394    393  3    318
   394   1029    395  3    319
   395   1029   1030  3    319
  1029    231   1030  3    319
  1030    231    233  3    319
   395    397   1031  3    321
  1031    397   1032  3    321
  1031   1032    393  3    321
   393   1032    396  3    321
   397   1033    398  3    323
   398   1033   1034  3    323
  1033   1035   1034  3    323
  1034   1035   1036  3    323
  1035    400   1036  3    323
  1036    400    399  3    323
   400    403    401  3    325
   401    403    402  3    325
   403   1037    404  3    326
   404   1037   1038  3    326
  1037    234   1038  3    326
  1038    234    236  3    326
   404    406   1039  3    328
  1039    406   1040  3    328
  1039   1040    402  3    328
   402   1040    405  3    328
   406   1042   1041  3    330
  1041   1042   1043  3    330
  1041   1043    407  3    330
   407   1043   1044  3    330
  1042   1045   1043  3    330
  1043   1045   1046  3    330
  1043   1046   1044  3    330
  1044   1046   1047  3    330
  1045   1048   1046  3    330
  1046   1048   1049  3    330
  1046   1049   1047  3    330
  1047   1049   1050  3    330
  1048    409   1049  3    330
  1049    409   1051  3    330
  1049   1051   1050  3    330
  1050   1051    408  3    330
   409    412   1052  3    332
  1052    412   1053  3    332
  1052   1053    410  3    332
   410   1053    411  3    332
   412   1054    413  3    333
   413   1054   1055  3    333
  1054    237   1055  3    333
  1055    237    239  3    333
   413    415    411  3    335
   411    415    414  3    335
   415   1056    416  3    337
   416   1056   1057  3    337
  1056   1058   1057  3    337
  1057   1058   1059  3    337
  1058    418   1059  3    337
  1059    418    417  3    337
   418    421   1060  3    339
  1060    421   1061  3    339
  1060   1061    419  3    339
   419   1061    420  3    339
   421   1062    422  3    340
   422   1062   1063  3    340
  1062    240   1063  3    340
  1063    240    242  3    340
   422    424    420  3    342
   420    424    423  3    342
   424    427    425  3    344
   425    427    426  3    344
   427    430   1064  3    346
  1064    430   1065  3    346
  1064   1065    428  3    346
   428   1065    429  3    346
   430    243    431  3    347
   431    243    245  3    347
   431    258    429  3    348
   429    258    260  3    348
   428   1067   1066  3    350
  1066   1067   1068  3    350
  1066   1068    426  3    350
   426   1068   1069  3    350
  1067    433   1068  3    350
  1068    433   1070  3    350
  1068   1070   1069  3    350
  1069   1070    432  3    350
   433    264    434  3    351
   434    264    266  3    351
   434    384   1071  3    352
  1071    384   1072  3    352
  1071   1072    432  3    352
   432   1072    386  3    352
   425   1073    423  3    353
   423   1073   1074  3    353
  1073   1075   1074  3    353
  1074   1075   1076  3    353
  1075   1077   1076  3    353
  1076   1077   1078  3    353
  1077   1079   1078  3    353
  1078   1079   1080  3    353
  1079   1081   1080  3    353
  1080   1081   1082  3    353
  1081   1083   1082  3    353
  1082   1083   1084  3    353
  1083   1085   1084  3    353
  1084   1085   1086  3    353
  1085   1087   1086  3    353
  1086   1087   1088  3    353
  1087    390   1088  3    353
  1088    390    392  3    353
   419    436    417  3    355
   417    436    435  3    355
   436   1089    437  3    357
   437   1089   1090  3    357
  1089   1091   1090  3    357
  1090   1091   1092  3    357
  1091   1093   1092  3    357
  1092   1093   1094  3    357
  1093   1095   1094  3    357
  1094   1095   1096  3    357
  1095   1097   1096  3    357
  1096   1097   1098  3    357
  1097   1099   1098  3    357
  1098   1099   1100  3    357
  1099   1101   1100  3    357
  1100   1101   1102  3    357
  1101    439   1102  3    357
  1102    439    438  3    357
   439    396    440  3    358
   440    396    398  3    358
   440   1103    438  3    360
   438   1103   1104  3    360
  1103    442   1104  3    360
  1104    442    441  3    360
   442   1105    443  3    361
   443   1105   1106  3    361
  1105   1107   1106  3    361
  1106   1107   1108  3    361
  1107   1109   1108  3    361
  1108   1109   1110  3    361
  1109    399   1110  3    361
  1110    399    401  3    361
   443    445    441  3    363
   441    445    444  3    363
   445   1112   1111  3    365
  1111   1112   1113  3    365
  1111   1113    446  3    365
   446   1113   1114  3    365
  1112   1115   1113  3    365
  1113   1115   1116  3    365
  1113   1116   1114  3    365
  1114   1116   1117  3    365
  1115   1118   1116  3    365
  1116   1118   1119  3    365
  1116   1119   1117  3    365
  1117   1119   1120  3    365
  1118   1121   1119  3    365
  1119   1121   1122  3    365
  1119   1122   1120  3    365
  1120   1122   1123  3    365
  1121   1124   1122  3    365
  1122   1124   1125  3    365
  1122   1125   1123  3    365
  1123   1125   1126  3    365
  1124    448   1125  3    365
  1125    448   1127  3    365
  1125   1127   1126  3    365
  1126   1127    447  3    365
   448    451    449  3    367
   449    451    450  3    367
   451   1128    452  3    368
   452   1128   1129  3    368
  1128   1130   1129  3    368
  1129   1130   1131  3    368
  1130   1132   1131  3    368
  1131   1132   1133  3    368
  1132    414   1133  3    368
  1133    414    416  3    368
   452   1134    450  3    369
   450   1134   1135  3    369
  1134    435   1135  3    369
  1135    435    437  3    369
   449   1137   1136  3    370
  1136   1137   1138  3    370
  1136   1138    447  3    370
   447   1138   1139  3    370
  1137   1140   1138  3    370
  1138   1140   1141  3    370
  1138   1141   1139  3    370
  1139   1141   1142  3    370
  1140    444   1141  3    370
  1141    444   1143  3    370
  1141   1143   1142  3    370
  1142   1143    446  3    370
   410   1144    408  3    371
   408   1144   1145  3    371
  1144   1146   1145  3    371
  1145   1146   1147  3    371
  1146   1148   1147  3    371
  1147   1148   1149  3    371
  1148   1150   1149  3    371
  1149   1150   1151  3    371
  1150   1152   1151  3    371
  1151   1152   1153  3    371
  1152    405   1153  3    371
  1153    405    407  3    371
   383   1154    381  3    372
   381   1154   1155  3    372
  1154   1156   1155  3    372
  1155   1156   1157  3    372
  1156    267   1157  3    372
  1157    267    269  3    372
   195    187    193  3    373
   193    187    189  3    373
   147   1158    145  3    374
   145   1158   1159  3    374
  1158   1160   1159  3    374
  1159   1160   1161  3    374
  1160   1162   1161  3    374
  1161   1162   1163  3    374
  1162   1164   1163  3    374
  1163   1164   1165  3    374
  1164    142   1165  3    374
  1165    142    144  3    374
    51     34     49  3    375
    49     34     36  3    375
    48     37   1166  3    376
  1166     37   1167  3    376
  1166   1167     46  3    376
    46   1167     39  3    376
   453   1168    454  3    377
   454   1168   1169  3    377
  1168   1170   1169  3    377
  1169   1170   1171  3    377
  1170   1172   1171  3    377
  1171   1172   1173  3    377
  1172   1174   1173  3    377
  1173   1174   1175  3    377
  1174   1176   1175  3    377
  1175   1176   1177  3    377
  1176    453   1177  3    377
  1177    453    454  3    377
   455   1178    456  3    378
   456   1178   1179  3    378
  1178   1180   1179  3    378
  1179   1180   1181  3    378
  1180   1182   1181  3    378
  1181   1182   1183  3    378
  1182   1184   1183  3    378
  1183   1184   1185  3    378
  1184   1186   1185  3    378
  1185   1186   1187  3    378
  1186    455   1187  3    378
  1187    455    456  3    378
     3      1      2  2      1
   511      4    458  2      2
   511    458    459  2      2
   511    459      6  2      2
   458      4    457  2      2
   457      4      5  2      2
   554      7    462  2      4
   554    462    461  2      4
   554    461      9  2      4
     9    461    460  2      4
     9    460      8  2      4
    12     10    465  2      6
   465     10     11  2      6
    15     13    470  2      8
   470     13    469  2      8
   470    469     14  2      8
   481     16    474  2     10
   481    474     18  2     10
    18    474     17  2     10
   577     19    485  2     13
   577    485    486  2     13
   577    486    578  2     13
   578    486     21  2     13
   486    485     20  2     13
    24     22    487  2     15
    24    487    488  2     15
   488    487     23  2     15
    27     25    490  2     17
   490     25    489  2     17
   490    489     26  2     17
    30     28    493  2     19
   493     28    491  2     19
   493    491    492  2     19
   492    491     29  2     19
   615     31    498  2     21
   615    498     33  2     21
   498     31    497  2     21
   497     31    495  2     21
   497    495    496  2     21
   496    495    494  2     21
   496    494     32  2     21
    36     34    501  2     23
    36    501    503  2     23
   503    501    500  2     23
   503    500    502  2     23
   502    500    499  2     23
   502    499     35  2     23
  1167     37    505  2     25
  1167    505    504  2     25
  1167    504     39  2     25
    39    504     38  2     25
   512     40    506  2     27
   512    506    507  2     27
   512    507     42  2     27
   506     40     41  2     27
   510     43    509  2     29
   510    509    508  2     29
   510    508     45  2     29
    45    508     44  2     29
  1166     46    513  2     33
  1166    513     47  2     33
  1166     47     48  2     33
    51     49    514  2     35
   514     49     50  2     35
    54     52    515  2     37
    54    515     53  2     37
    57     55    518  2     39
   518     55     56  2     39
    60     58    524  2     41
   524     58    522  2     41
   524    522    523  2     41
   523    522     59  2     41
   651     61    526  2     43
   651    526   1190  2     43
   651   1190    652  2     43
   652   1190   1189  2     43
   652   1189     63  2     43
    63   1189    528  2     43
   528   1189   1190  2     43
   528   1190    527  2     43
   527   1190   1191  2     43
   527   1191     62  2     43
    62   1191    525  2     43
   525   1191    526  2     43
   526   1191   1190  2     43
    66     64    534  2     45
   534     64    533  2     45
   533     64    530  2     45
   533    530    532  2     45
   532    530    529  2     45
   532    529    531  2     45
   531    529     65  2     45
    69     67    538  2     47
    69    538    542  2     47
   542    538    537  2     47
   542    537    541  2     47
   541    537    536  2     47
   541    536    540  2     47
   540    536    535  2     47
   540    535    539  2     47
   539    535     68  2     47
   556     70    546  2     49
   556    546    545  2     49
   556    545    555  2     49
   555    545   1192  2     49
   555   1192     72  2     49
    72   1192    547  2     49
   547   1192    544  2     49
   547    544    543  2     49
   547    543     71  2     49
   544   1192    545  2     49
   561     73    558  2     52
   561    558    557  2     52
   561    557     75  2     52
    75    557     74  2     52
   670     76    562  2     55
   670    562     78  2     55
    78    562     77  2     55
   676     79    565  2     57
   676    565     81  2     57
   565     79     80  2     57
   695     82    566  2     59
   695    566    696  2     59
   696    566     83  2     59
   696     83     84  2     59
    87     85     86  2     61
   579     88    575  2     64
   579    575    576  2     64
   579    576     90  2     64
   575     88     89  2     64
   700     91    580  2     67
   700    580     93  2     67
    93    580     92  2     67
    96     94     95  2     69
    99     97     98  2     71
   102    100    101  2     75
   712    103    104  2     77
   712    104   1193  2     77
   712   1193    713  2     77
   713   1193    587  2     77
   713    587    588  2     77
   713    588    714  2     77
   714    588    589  2     77
   714    589    105  2     77
   587   1193    104  2     77
   108    106    595  2     79
   595    106    592  2     79
   595    592    594  2     79
   594    592    591  2     79
   594    591    593  2     79
   593    591    590  2     79
   593    590    107  2     79
   780    109    598  2     81
   780    598    781  2     81
   781    598    597  2     81
   781    597    782  2     81
   782    597    596  2     81
   782    596    111  2     81
   111    596    110  2     81
   789    112    113  2     83
   789    113    603  2     83
   789    603    790  2     83
   790    603    604  2     83
   790    604    114  2     83
   617    115    606  2     85
   617    606   1194  2     85
   617   1194    616  2     85
   616   1194    117  2     85
   117   1194    607  2     85
   607   1194   1195  2     85
   607   1195    116  2     85
   116   1195    605  2     85
   605   1195   1194  2     85
   605   1194    606  2     85
   611    118    608  2     87
   611    608    120  2     87
   120    608    119  2     87
   123    121    619  2     91
   123    619    620  2     91
   620    619    618  2     91
   620    618    122  2     91
   632    124    627  2     93
   632    627    628  2     93
   632    628    126  2     93
   628    627    125  2     93
   129    127    629  2     95
   129    629    128  2     95
   809    130    633  2     99
   809    633    131  2     99
   809    131    132  2     99
   135    133    634  2    101
   634    133    134  2    101
   138    136    635  2    103
   138    635    137  2    103
   141    139    636  2    105
   636    139    140  2    105
   144    142    639  2    107
   639    142    637  2    107
   639    637    638  2    107
   638    637    143  2    107
   147    145    641  2    109
   147    641    642  2    109
   642    641    640  2    109
   642    640    146  2    109
   150    148    646  2    111
   150    646    149  2    111
   153    151    647  2    114
   647    151    152  2    114
   655    154    648  2    116
   655    648   1197  2    116
   655   1197    654  2    116
   654   1197   1196  2    116
   654   1196    653  2    116
   653   1196    650  2    116
   653    650    156  2    116
   650   1196    649  2    116
   649   1196   1197  2    116
   649   1197    155  2    116
   155   1197    648  2    116
   841    157    658  2    119
   841    658    657  2    119
   841    657    842  2    119
   842    657    656  2    119
   842    656    159  2    119
   159    656    158  2    119
   162    160    161  2    121
   845    163    659  2    124
   845    659    660  2    124
   845    660    846  2    124
   846    660    165  2    124
   659    163    164  2    124
   884    166    662  2    126
   884    662    885  2    126
   885    662    661  2    126
   885    661    886  2    126
   886    661    167  2    126
   886    167    168  2    126
   171    169    665  2    128
   665    169    170  2    128
   174    172    666  2    130
   174    666    173  2    130
   672    175    176  2    133
   672    176    669  2    133
   672    669    671  2    133
   671    669    177  2    133
   180    178    674  2    136
   180    674    675  2    136
   675    674    673  2    136
   675    673    179  2    136
   183    181    182  2    139
   912    184    689  2    141
   912    689    186  2    141
   689    184    185  2    141
   189    187    690  2    143
   189    690    691  2    143
   691    690    188  2    143
   192    190    694  2    145
   694    190   1198  2    145
   694   1198    693  2    145
   693   1198    692  2    145
   693    692    191  2    145
   692   1198    190  2    145
   195    193    697  2    148
   697    193    194  2    148
   198    196    698  2    150
   198    698    197  2    150
   201    199    699  2    152
   699    199    200  2    152
   204    202    203  2    155
   207    205    707  2    158
   707    205    206  2    158
   717    208   1200  2    160
   717   1200   1199  2    160
   717   1199    716  2    160
   716   1199    711  2    160
   716    711    715  2    160
   715    711    210  2    160
   711   1199    710  2    160
   710   1199    709  2    160
   709   1199   1200  2    160
   709   1200    708  2    160
   709    708    209  2    160
   708   1200    208  2    160
   723    211    720  2    163
   723    720    719  2    163
   723    719    722  2    163
   722    719    718  2    163
   722    718    721  2    163
   721    718    212  2    163
   721    212    213  2    163
  1201   1202   1205  2    166
  1205   1202   1206  2    166
  1202   1203   1206  2    166
  1204   1205   1208  2    166
  1204   1201   1205  2    166
  1205   1206   1209  2    166
  1206   1207   1209  2    166
  1208   1205   1209  2    166
   932    214   1204  2    166
   932   1204   1208  2    166
   932   1208    933  2    166
   933   1208   1209  2    166
   933   1209    934  2    166
   934   1209   1207  2    166
   934   1207    216  2    166
   216   1207    739  2    166
   739   1207    738  2    166
   738   1207   1206  2    166
   738   1206   1203  2    166
   738   1203    737  2    166
   737   1203   1202  2    166
   737   1202    734  2    166
   737    734    215  2    166
   734   1202    735  2    166
   735   1202   1201  2    166
   735   1201    736  2    166
   736   1201   1204  2    166
   736   1204    214  2    166
   219    217    743  2    168
   743    217    221  2    168
   221    217    742  2    168
   221    742   1188  2    168
  1188    742    741  2    168
  1188    741    220  2    168
   220    741    740  2    168
   220    740    745  2    168
   745    740    218  2    168
  1006    222    744  2    170
  1006    744   1210  2    170
  1006   1210    224  2    170
   224   1210    749  2    170
   749   1210   1188  2    170
   749   1188    748  2    170
   748   1188    220  2    170
   748    220    747  2    170
   747    220    746  2    170
   747    746    223  2    170
  1188   1210    221  2    170
   221   1210    744  2    170
  1011    225    752  2    173
  1011    752    227  2    173
   227    752    751  2    173
   227    751    753  2    173
   753    751    750  2    173
   753    750    226  2    173
  1028    228    754  2    175
  1028    754    230  2    175
   230    754    229  2    175
   233    231    232  2    177
   236    234    235  2    179
   239    237    238  2    181
   242    240    241  2    183
   245    243    244  2    185
   791    246    772  2    187
   791    772    248  2    187
   772    246    771  2    187
   771    246    247  2    187
   251    249    774  2    189
   251    774    773  2    189
   251    773    775  2    189
   775    773    250  2    189
   784    252   1211  2    191
   784   1211    778  2    191
   784    778    779  2    191
   784    779    783  2    191
   783    779    254  2    191
   778   1211    777  2    191
   777   1211    776  2    191
   777    776    253  2    191
   776   1211    252  2    191
   257    255    788  2    194
   788    255    786  2    194
   788    786    787  2    194
   787    786    785  2    194
   787    785    256  2    194
   260    258    793  2    198
   793    258    792  2    198
   793    792    259  2    198
   800    261    797  2    200
   800    797    263  2    200
   263    797    262  2    200
   266    264    801  2    203
   266    801    265  2    203
   269    267    802  2    205
   802    267    268  2    205
   272    270    805  2    207
   805    270    803  2    207
   805    803    804  2    207
   804    803    271  2    207
   275    273    807  2    209
   275    807    808  2    209
   808    807    806  2    209
   808    806    274  2    209
   278    276    277  2    213
   281    279    280  2    215
   284    282    816  2    219
   816    282    283  2    219
  1013    285    817  2    221
  1013    817    286  2    221
  1013    286    287  2    221
  1018    288    289  2    223
  1018    289    820  2    223
  1018    820    290  2    223
   293    291    830  2    225
   293    830    831  2    225
   831    830    292  2    225
   296    294    834  2    227
   834    294    833  2    227
   833    294    832  2    227
   833    832    295  2    227
   837    297    836  2    229
   837    836    835  2    229
   837    835    299  2    229
   299    835    298  2    229
   844    300   1213  2    232
   844   1213   1212  2    232
   844   1212    843  2    232
   843   1212    840  2    232
   843    840    302  2    232
   840   1212    839  2    232
   839   1212   1213  2    232
   839   1213    301  2    232
   301   1213    838  2    232
   838   1213    300  2    232
   305    303    849  2    236
   849    303    304  2    236
   308    306    850  2    238
   308    850    307  2    238
   941    309    310  2    240
   941    310    857  2    240
   941    857    942  2    240
   942    857    858  2    240
   942    858    311  2    240
   948    312   1214  2    242
   948   1214    862  2    242
   948    862    314  2    242
   862   1214    861  2    242
   861   1214    859  2    242
   861    859    313  2    242
   859   1214    860  2    242
   860   1214    312  2    242
   317    315    874  2    244
   874    315    872  2    244
   874    872    873  2    244
   873    872    871  2    244
   873    871    316  2    244
   320    318    883  2    246
   883    318    880  2    246
   883    880    882  2    246
   882    880    879  2    246
   882    879    881  2    246
   881    879    319  2    246
   323    321    322  2    249
   326    324    325  2    251
   329    327    328  2    254
   332    330    907  2    256
   907    330    331  2    256
   335    333    908  2    258
   335    908    334  2    258
   338    336    337  2    261
   341    339    340  2    263
   344    342    911  2    265
   911    342    343  2    265
   347    345    346  2    270
   936    348    923  2    272
   936    923    924  2    272
   936    924    935  2    272
   935    924    925  2    272
   935    925    350  2    272
   923    348    349  2    272
   353    351    928  2    274
   353    928    931  2    274
   931    928    927  2    274
   931    927    930  2    274
   930    927    926  2    274
   930    926    929  2    274
   929    926    352  2    274
   356    354    945  2    279
   945    354    355  2    279
   359    357    946  2    281
   359    946    947  2    281
   947    946    358  2    281
   362    360    361  2    285
   365    363    364  2    287
   985    366    367  2    289
   985    367    961  2    289
   985    961    368  2    289
   978    369    977  2    291
   978    977    370  2    291
   978    370    371  2    291
  1014    372    373  2    297
  1014    373   1000  2    297
  1014   1000    374  2    297
   377    375   1001  2    299
   377   1001   1002  2    299
  1002   1001    376  2    299
  1012    378    379  2    302
  1012    379   1007  2    302
  1012   1007    380  2    302
   383    381    382  2    308
  1072    384   1019  2    310
  1072   1019    386  2    310
  1019    384    385  2    310
   389    387   1023  2    312
   389   1023   1024  2    312
  1024   1023    388  2    312
   392    390    391  2    315
  1031    393    394  2    317
  1031    394    395  2    317
   398    396   1032  2    320
   398   1032    397  2    320
   401    399    400  2    322
  1039    402    403  2    324
  1039    403    404  2    324
   407    405   1040  2    327
   407   1040   1041  2    327
  1041   1040    406  2    327
   410    408   1052  2    329
  1052    408   1051  2    329
  1052   1051    409  2    329
   413    411   1053  2    331
   413   1053    412  2    331
   416    414    415  2    334
   419    417   1060  2    336
  1060    417    418  2    336
   422    420   1061  2    338
   422   1061    421  2    338
   425    423    424  2    341
  1066    426    427  2    343
  1066    427   1064  2    343
  1066   1064    428  2    343
   431    429   1065  2    345
   431   1065    430  2    345
  1071    432   1070  2    349
  1071   1070    434  2    349
   434   1070    433  2    349
   437    435    436  2    354
   440    438    439  2    356
   443    441    442  2    359
  1143    444    445  2    362
  1143    445   1111  2    362
  1143   1111    446  2    362
  1136    447   1127  2    364
  1136   1127    448  2    364
  1136    448    449  2    364
   452    450    451  2    366
  1216   1215   1218  1    379
  1216   1218   1219  1    379
  1218   1217   1220  1    379
  1219   1218   1220  1    379
  1219   1220    477  1    379
  1219    477    475  1    379
  1219    475     17  1    379
  1219     17    471  1    379
  1219    471   1216  1    379
  1216    471     14  1    379
  1216     14    466  1    379
  1216    466   1215  1    379
  1215    466     11  1    379
  1215     11    463  1    379
  1215    463   1217  1    379
  1215   1217   1218  1    379
  1217    463      8  1    379
  1217      8      5  1    379
  1217      5      1  1    379
  1217      1    479  1    379
  1217    479   1220  1    379
  1220    479    477  1    379
     4     45      2  1    380
  1221   1223   1224  1    381
  1222   1225   1226  1    381
  1223   1222   1226  1    381
  1223   1226   1227  1    381
  1224   1223   1227  1    381
  1226   1225   1229  1    381
  1226   1229   1230  1    381
  1227   1226   1230  1    381
  1228   1227   1230  1    381
  1228   1230   1231  1    381
  1230   1229   1232  1    381
  1231   1230   1232  1    381
  1231   1232     50  1    381
  1231     50     43  1    381
  1231     43      6  1    381
  1231      6      7  1    381
  1231      7   1228  1    381
  1228      7    551  1    381
  1228    551    548  1    381
  1228    548   1224  1    381
  1228   1224   1227  1    381
  1224    548     71  1    381
  1224     71     68  1    381
  1224     68     65  1    381
  1224     65   1221  1    381
  1221     65     62  1    381
  1221     62     59  1    381
  1221     59    519  1    381
  1221    519   1222  1    381
  1221   1222   1223  1    381
  1222    519     56  1    381
  1222     56   1225  1    381
  1225     56    516  1    381
  1225    516   1229  1    381
  1229    516     53  1    381
  1229     53   1232  1    381
  1232     53     50  1    381
    43     50     42  1    381
    42     50     47  1    381
   559     74    550  1    382
   559    550    464  1    382
   559    464     10  1    382
   464    550    553  1    382
   464    553      9  1    382
   550     74     72  1    382
    13     86     80  1    383
    13     80    468  1    383
   468     80    563  1    383
   468    563     12  1    383
    12    563    560  1    383
   560    563     77  1    383
   560     77     75  1    383
    80     86     83  1    383
   484     19   1233  1    384
   484   1233     16  1    384
    16   1233   1236  1    384
    16   1236    473  1    384
   473   1236   1235  1    384
   473   1235   1234  1    384
   473   1234     15  1    384
    15   1234     87  1    384
    87   1234    567  1    384
   567   1234   1235  1    384
   567   1235    569  1    384
   569   1235   1236  1    384
   569   1236    571  1    384
   571   1236   1233  1    384
   571   1233    573  1    384
   573   1233     19  1    384
   573     19     89  1    384
     3     44    480  1    385
   480     44     41  1    385
   480     41     35  1    385
   480     35     32  1    385
   480     32   1239  1    385
   480   1239    478  1    385
   478   1239   1238  1    385
   478   1238   1237  1    385
   478   1237    476  1    385
   476   1237     18  1    385
    18   1237    482  1    385
   482   1237     23  1    385
   482     23     20  1    385
    23   1237   1238  1    385
    23   1238     26  1    385
    26   1238     29  1    385
    29   1238   1239  1    385
    29   1239     32  1    385
    35     41     38  1    385
    22     98   1241  1    386
    22   1241     21  1    386
    21   1241     90  1    386
    90   1241   1240  1    386
    90   1240     92  1    386
    92   1240    581  1    386
   581   1240     95  1    386
    95   1240   1241  1    386
    95   1241     98  1    386
    25     99     24  1    387
  1243   1242   1245  1    388
  1243   1245   1246  1    388
  1244   1243   1246  1    388
  1244   1246   1247  1    388
  1244   1247    113  1    388
  1244    113    601  1    388
  1244    601   1243  1    388
  1243    601   1242  1    388
  1242    601    583  1    388
  1242    583     96  1    388
  1242     96   1245  1    388
  1245     96     97  1    388
  1245     97    609  1    388
  1245    609   1246  1    388
  1246    609   1247  1    388
  1247    609    119  1    388
  1247    119    116  1    388
  1247    116    113  1    388
   609     97     27  1    388
   609     27     28  1    388
   583    601    599  1    388
   583    599    585  1    388
   585    599    110  1    388
   585    110    101  1    388
   101    110    107  1    388
   101    107    104  1    388
   612    120    610  1    389
   612    610     30  1    389
   612     30     31  1    389
  1248   1252   1253  1    390
  1249   1248   1253  1    390
  1250   1249   1253  1    390
  1250   1253   1254  1    390
  1251   1250   1254  1    390
  1253   1252   1257  1    390
  1254   1253   1257  1    390
  1255   1254   1257  1    390
  1252   1256   1257  1    390
  1257   1256     52  1    390
  1257     52   1255  1    390
  1255     52    630  1    390
  1255    630   1251  1    390
  1255   1251   1254  1    390
  1251    630    128  1    390
  1251    128    125  1    390
  1251    125    624  1    390
  1251    624   1250  1    390
  1250    624    621  1    390
  1250    621   1249  1    390
  1249    621    122  1    390
  1249    122   1248  1    390
  1248    122    118  1    390
  1248    118    614  1    390
  1248    614   1252  1    390
  1252    614     33  1    390
  1252     33   1256  1    390
  1256     33     34  1    390
  1256     34     51  1    390
  1256     51     52  1    390
   118    122    117  1    390
    37     48     49  1    391
    37     49     36  1    391
    40     46     39  1    392
    55    129    631  1    393
    55    631    517  1    393
   517    631     54  1    393
    58    149    521  1    394
   521    149    643  1    394
   521    643    146  1    394
   521    146     57  1    394
    57    146    143  1    394
    57    143    140  1    394
    57    140    137  1    394
    57    137    127  1    394
   127    137    134  1    394
   127    134    126  1    394
   126    134    131  1    394
    61    155    152  1    395
    61    152     60  1    395
    60    152    150  1    395
    64    161     63  1    396
    63    161    158  1    396
    63    158    156  1    396
   173    170    667  1    397
   667    170    663  1    397
   667    663   1258  1    397
   667   1258     67  1    397
    67   1258     66  1    397
    66   1258    162  1    397
   162   1258    164  1    397
   164   1258    167  1    397
   167   1258    663  1    397
    70     73    668  1    398
    70    668     69  1    398
   668     73     76  1    398
   668     76    174  1    398
   174     76    176  1    398
    79    179    564  1    399
   564    179    177  1    399
   564    177     78  1    399
    82    191   1260  1    400
    82   1260    681  1    400
    82    681    679  1    400
    82    679     81  1    400
    81    679    677  1    400
    81    677    180  1    400
   681   1260    683  1    400
   683   1260    685  1    400
   685   1260   1259  1    400
   685   1259    687  1    400
   687   1259    185  1    400
   687    185    182  1    400
   185   1259    188  1    400
   188   1259   1260  1    400
   188   1260    191  1    400
  1261   1264   1265  1    401
  1262   1261   1265  1    401
  1262   1265   1266  1    401
  1262   1266   1263  1    401
  1262   1263    197  1    401
  1262    197    194  1    401
  1262    194   1261  1    401
  1261    194    192  1    401
  1261    192   1264  1    401
  1264    192     84  1    401
  1264     84    568  1    401
  1264    568    570  1    401
  1264    570   1265  1    401
  1265    570    572  1    401
  1265    572   1266  1    401
  1266    572   1263  1    401
  1263    572    574  1    401
  1263    574     91  1    401
  1263     91    200  1    401
  1263    200    197  1    401
    91    574     88  1    401
   568     84     85  1    401
   586    100    703  1    402
   586    703   1268  1    402
   586   1268    584  1    402
   584   1268    582  1    402
   584    582     94  1    402
   582   1268   1267  1    402
   582   1267    701  1    402
   582    701    201  1    402
   582    201     93  1    402
   701   1267    203  1    402
   203   1267    703  1    402
   703   1267   1268  1    402
   103    209    206  1    403
   103    206    705  1    403
   103    705    102  1    403
   102    705    704  1    403
   704    705    204  1    403
   106    212    105  1    404
   105    212    210  1    404
  1270   1269   1271  1    405
  1270   1271    729  1    405
  1270    729    724  1    405
  1270    724    757  1    405
  1270    757    755  1    405
  1270    755   1269  1    405
  1269    755    235  1    405
  1269    235    232  1    405
  1269    232    223  1    405
  1269    223   1271  1    405
  1271    223    218  1    405
  1271    218    215  1    405
  1271    215    729  1    405
   223    232    229  1    405
   223    229    226  1    405
   757    724    759  1    405
   759    724    761  1    405
   761    724   1272  1    405
   761   1272    763  1    405
   763   1272   1273  1    405
   763   1273    765  1    405
   765   1273   1274  1    405
   765   1274    767  1    405
   767   1274   1275  1    405
   767   1275    769  1    405
   769   1275   1276  1    405
   769   1276    238  1    405
   238   1276    241  1    405
   241   1276    247  1    405
   241    247    244  1    405
   247   1276    250  1    405
   250   1276   1275  1    405
   250   1275    253  1    405
   253   1275    109  1    405
   109   1275   1274  1    405
   109   1274   1273  1    405
   109   1273    108  1    405
   108   1273    213  1    405
   213   1273   1272  1    405
   213   1272    724  1    405
   112    256   1277  1    406
   112   1277    602  1    406
   602   1277    600  1    406
   600   1277    111  1    406
   111   1277    254  1    406
   254   1277    256  1    406
  1279   1278   1280  1    407
  1279   1280   1281  1    407
  1279   1281    794  1    407
  1279    794    259  1    407
  1279    259    248  1    407
  1279    248   1278  1    407
  1278    248    249  1    407
  1278    249    114  1    407
  1278    114   1280  1    407
  1280    114    115  1    407
  1280    115    121  1    407
  1280    121   1281  1    407
  1281    121    798  1    407
  1281    798    262  1    407
  1281    262    794  1    407
   114    249    257  1    407
   124    130    274  1    408
   124    274    626  1    408
   626    274    271  1    408
   626    271    799  1    408
   626    799    623  1    408
   623    799    123  1    408
   799    271    265  1    408
   799    265    263  1    408
   265    271    268  1    408
   133    275    132  1    409
   136    280   1282  1    410
   136   1282    135  1    410
   135   1282    273  1    410
   273   1282    272  1    410
   272   1282    810  1    410
   810   1282    277  1    410
   277   1282    280  1    410
   139    281    138  1    411
  1284   1283   1285  1    412
  1284   1285   1162  1    412
  1284   1162    824  1    412
  1284    824    821  1    412
  1284    821    289  1    412
  1284    289   1283  1    412
  1283    289    818  1    412
  1283    818    812  1    412
  1283    812   1285  1    412
  1285    812    278  1    412
  1285    278   1164  1    412
  1285   1164   1162  1    412
  1164    278    279  1    412
  1164    279    141  1    412
  1164    141    142  1    412
   812    818    814  1    412
   814    818    283  1    412
   283    818    286  1    412
   824   1162   1160  1    412
   824   1160    827  1    412
   827   1160    292  1    412
   292   1160   1158  1    412
   292   1158    295  1    412
   295   1158    645  1    412
   295    645    298  1    412
   298    645    148  1    412
   298    148    151  1    412
   645   1158    147  1    412
  1286   1287   1288  1    413
  1286   1288   1159  1    413
  1286   1159   1161  1    413
  1286   1161   1163  1    413
  1286   1163   1287  1    413
  1287   1163   1165  1    413
  1287   1165    144  1    413
  1287    144   1288  1    413
  1288    144    145  1    413
  1288    145   1159  1    413
   154    157    301  1    414
   154    301    153  1    414
   153    301    299  1    414
   160    163    302  1    415
   160    302    159  1    415
  1290   1291   1292  1    416
  1292   1291   1293  1    416
  1292   1293    319  1    416
  1292    319    875  1    416
  1292    875   1290  1    416
  1290    875    316  1    416
  1290    316   1289  1    416
  1290   1289    307  1    416
  1290    307    304  1    416
  1290    304   1291  1    416
  1291    304    847  1    416
  1291    847   1293  1    416
  1293    847    296  1    416
  1293    296    297  1    416
  1293    297    165  1    416
  1293    165    166  1    416
  1293    166    319  1    416
   165    297    300  1    416
   307   1289    851  1    416
   851   1289    867  1    416
   851    867    853  1    416
   853    867    863  1    416
   853    863    855  1    416
   855    863    313  1    416
   855    313    310  1    416
   867   1289    316  1    416
  1295   1294   1296  1    417
  1295   1296    325  1    417
  1295    325    891  1    417
  1295    891    889  1    417
  1295    889    887  1    417
  1295    887   1294  1    417
  1294    887    320  1    417
  1294    320    168  1    417
  1294    168    664  1    417
  1294    664   1296  1    417
  1296    664    169  1    417
  1296    169    325  1    417
   889    891    322  1    417
   171    172    326  1    418
   334    331    181  1    418
  1298   1299   1300  1    418
  1298   1300   1301  1    418
  1297   1298   1301  1    418
  1299   1302   1303  1    418
  1300   1299   1303  1    418
  1300   1303   1304  1    418
  1301   1300   1304  1    418
  1301   1304   1305  1    418
  1305   1304   1306  1    418
  1309   1313   1314  1    418
  1310   1309   1314  1    418
  1310   1314   1315  1    418
  1313   1312   1317  1    418
  1313   1317   1318  1    418
  1314   1313   1318  1    418
  1315   1314   1318  1    418
  1315   1318   1319  1    418
  1316   1315   1319  1    418
  1316   1319    678  1    418
  1316    678   1311  1    418
  1316   1311   1170  1    418
  1316   1170   1315  1    418
  1315   1170   1168  1    418
  1315   1168   1310  1    418
  1310   1168    453  1    418
  1310    453    897  1    418
  1310    897   1309  1    418
  1309    897    895  1    418
  1309    895    893  1    418
  1309    893   1313  1    418
  1313    893   1312  1    418
  1312    893    326  1    418
  1312    326    172  1    418
  1312    172   1317  1    418
  1317    172    175  1    418
  1317    175    178  1    418
  1317    178   1318  1    418
  1318    178   1319  1    418
  1319    178    678  1    418
   897    453    899  1    418
   899    453   1176  1    418
   899   1176    901  1    418
   901   1176   1302  1    418
   901   1302    903  1    418
   903   1302   1299  1    418
   903   1299    905  1    418
   905   1299   1298  1    418
   905   1298    328  1    418
   328   1298   1297  1    418
   328   1297    331  1    418
   331   1297    181  1    418
   181   1297   1301  1    418
   181   1301    688  1    418
   688   1301   1305  1    418
   688   1305    686  1    418
   686   1305   1306  1    418
   686   1306    684  1    418
   684   1306   1307  1    418
   684   1307    682  1    418
   682   1307   1308  1    418
   682   1308    680  1    418
   680   1308   1311  1    418
   680   1311    678  1    418
  1311   1308   1172  1    418
  1311   1172   1170  1    418
  1172   1308   1307  1    418
  1172   1307   1174  1    418
  1174   1307   1306  1    418
  1174   1306   1304  1    418
  1174   1304   1303  1    418
  1174   1303   1176  1    418
  1176   1303   1302  1    418
   184    343    183  1    419
   183    343   1320  1    419
   183   1320    335  1    419
   335   1320    909  1    419
   909   1320    337  1    419
   337   1320    340  1    419
   340   1320    343  1    419
   187    195   1321  1    420
   187   1321    186  1    420
   186   1321    344  1    420
   344   1321    913  1    420
   913   1321    915  1    420
   915   1321    196  1    420
   196   1321    195  1    420
   190    193    189  1    421
   702    202   1324  1    422
   702   1324    199  1    422
   199   1324    198  1    422
   198   1324    916  1    422
   916   1324    202  1    422
   916    202    706  1    422
   916    706   1323  1    422
   916   1323    914  1    422
   914   1323   1322  1    422
   914   1322    341  1    422
   914    341    342  1    422
   341   1322    917  1    422
   917   1322   1323  1    422
   917   1323    205  1    422
   205   1323    706  1    422
  1326   1325   1328  1    423
  1325   1327   1328  1    423
  1328   1327    918  1    423
  1328    918    207  1    423
  1328    207    211  1    423
  1328    211    728  1    423
  1328    728   1326  1    423
  1326    728    733  1    423
  1326    733    921  1    423
  1326    921    919  1    423
  1326    919   1325  1    423
  1325    919    346  1    423
  1325    346    338  1    423
  1325    338   1327  1    423
  1327    338    339  1    423
  1327    339    918  1    423
   921    733    349  1    423
   349    733    214  1    423
   349    214    352  1    423
   211    207    208  1    423
   217    353    216  1    424
  1329   1330   1331  1    425
  1329   1331   1332  1    425
  1329   1332   1333  1    425
  1329   1333   1334  1    425
  1329   1334   1335  1    425
  1329   1335   1330  1    425
  1331   1330   1337  1    425
  1331   1337   1338  1    425
  1331   1338   1339  1    425
  1332   1331   1339  1    425
  1334   1333   1340  1    425
  1330   1336   1337  1    425
  1337   1336    219  1    425
  1337    219    222  1    425
  1337    222   1338  1    425
  1338    222   1003  1    425
  1338   1003   1339  1    425
  1339   1003    376  1    425
  1339    376    373  1    425
  1339    373    998  1    425
  1339    998   1332  1    425
  1332    998    996  1    425
  1332    996   1333  1    425
  1333    996    994  1    425
  1333    994   1340  1    425
  1340    994    992  1    425
  1340    992    852  1    425
  1340    852    854  1    425
  1340    854   1334  1    425
  1334    854    856  1    425
  1334    856   1335  1    425
  1335    856    309  1    425
  1335    309    937  1    425
  1335    937   1330  1    425
  1330    937   1336  1    425
  1336    937    350  1    425
  1336    350    219  1    425
   219    350    351  1    425
   852    992    308  1    425
  1008    379    377  1    426
  1008    377   1005  1    426
  1008   1005    225  1    426
   225   1005    224  1    426
  1025    388   1010  1    427
  1025   1010    228  1    427
   228   1010    227  1    427
  1010    388    380  1    427
   380    388   1020  1    427
   380   1020    285  1    427
   285   1020    284  1    427
   284   1020    385  1    427
   284    385    382  1    427
  1029    394   1341  1    428
  1029   1341    231  1    428
   231   1341    230  1    428
   230   1341   1027  1    428
  1027   1341    391  1    428
  1027    391    389  1    428
   391   1341    394  1    428
   397    395   1033  1    429
  1037    403    400  1    429
  1037    400   1035  1    429
  1037   1035    234  1    429
   234   1035   1033  1    429
   234   1033   1030  1    429
   234   1030    233  1    429
  1030   1033    395  1    429
  1054    412   1345  1    430
  1054   1345    770  1    430
  1054    770    237  1    430
   770   1345    768  1    430
   768   1345   1346  1    430
   768   1346    766  1    430
   766   1346    764  1    430
   764   1346   1344  1    430
   764   1344    762  1    430
   762   1344   1343  1    430
   762   1343    760  1    430
   760   1343   1342  1    430
   760   1342    758  1    430
   758   1342    756  1    430
   756   1342   1038  1    430
   756   1038    236  1    430
  1038   1342    404  1    430
   404   1342    406  1    430
   406   1342   1042  1    430
  1042   1342   1343  1    430
  1042   1343   1045  1    430
  1045   1343   1344  1    430
  1045   1344   1048  1    430
  1048   1344   1346  1    430
  1048   1346   1345  1    430
  1048   1345    409  1    430
   409   1345    412  1    430
   421    418   1062  1    431
  1062    418   1058  1    431
  1062   1058   1347  1    431
  1062   1347    240  1    431
   240   1347    239  1    431
   239   1347   1055  1    431
  1055   1347   1056  1    431
  1055   1056    415  1    431
  1055    415    413  1    431
  1056   1347   1058  1    431
   243    430   1063  1    432
   243   1063    242  1    432
  1063    430    424  1    432
  1063    424    422  1    432
   424    430    427  1    432
   246    258    245  1    433
   245    258    431  1    433
   252    255    251  1    434
   261    264   1348  1    435
   261   1348    796  1    435
   796   1348   1067  1    435
   796   1067    428  1    435
   796    428    260  1    435
   260    428    429  1    435
  1067   1348    433  1    435
   433   1348    264  1    435
  1154    383    434  1    436
  1154    434   1156  1    436
  1156    434    266  1    436
  1156    266    267  1    436
   434    383    384  1    436
   811    276    813  1    437
   811    813    381  1    437
   811    381   1155  1    437
   811   1155   1157  1    437
   811   1157    269  1    437
   811    269    270  1    437
   381    813    815  1    437
   381    815    282  1    437
  1015    374   1349  1    438
  1015   1349    288  1    438
   288   1349    819  1    438
   819   1349    287  1    438
   287   1349    378  1    438
   378   1349    374  1    438
   378    374    375  1    438
  1351   1354   1355  1    439
  1352   1351   1355  1    439
  1352   1355   1356  1    439
  1353   1352   1356  1    439
  1353   1356   1357  1    439
  1354   1358   1359  1    439
  1355   1354   1359  1    439
  1355   1359   1360  1    439
  1356   1355   1360  1    439
  1356   1360   1361  1    439
  1357   1356   1361  1    439
  1360   1359   1362  1    439
  1360   1362   1363  1    439
  1361   1360   1363  1    439
  1361   1363    305  1    439
  1361    305    306  1    439
  1361    306   1357  1    439
  1357    306    993  1    439
  1357    993   1353  1    439
  1353    993    995  1    439
  1353    995   1352  1    439
  1352    995    997  1    439
  1352    997   1351  1    439
  1351    997    999  1    439
  1351    999   1350  1    439
  1351   1350   1354  1    439
  1354   1350   1017  1    439
  1354   1017    290  1    439
  1354    290   1358  1    439
  1358    290    823  1    439
  1358    823   1359  1    439
  1359    823   1362  1    439
  1362    823    826  1    439
  1362    826    829  1    439
  1362    829   1363  1    439
  1363    829    291  1    439
  1363    291    305  1    439
  1017   1350    372  1    439
   372   1350    999  1    439
   848    303    293  1    440
   848    293    294  1    440
   312    358   1364  1    441
   312   1364    311  1    441
   311   1364    940  1    441
   940   1364    922  1    441
   940    922    348  1    441
   922   1364    920  1    441
   920   1364    943  1    441
   920    943    347  1    441
   943   1364    355  1    441
   355   1364    358  1    441
   949    359   1365  1    442
   949   1365    951  1    442
   951   1365    866  1    442
   951    866    870  1    442
   951    870    953  1    442
   953    870    315  1    442
   866   1365    314  1    442
   314   1365    359  1    442
  1366   1368   1369  1    443
  1372   1373   1374  1    443
  1372   1374    974  1    443
  1372    974    971  1    443
  1372    971   1371  1    443
  1372   1371    878  1    443
  1372    878   1373  1    443
  1373    878    318  1    443
  1373    318    888  1    443
  1373    888   1374  1    443
  1374    888    890  1    443
  1374    890    974  1    443
   974    890    321  1    443
   974    321    370  1    443
   878   1371    317  1    443
   317   1371   1370  1    443
   317   1370    954  1    443
   954   1370    968  1    443
   954    968    965  1    443
   954    965    952  1    443
   952    965   1368  1    443
   952   1368    950  1    443
   950   1368   1366  1    443
   950   1366   1367  1    443
   950   1367    357  1    443
   357   1367    356  1    443
   356   1367    361  1    443
   361   1367    955  1    443
   955   1367   1366  1    443
   955   1366    957  1    443
   957   1366   1369  1    443
   957   1369    959  1    443
   959   1369    962  1    443
   959    962    364  1    443
   364    962    367  1    443
   962   1369    965  1    443
   965   1369   1368  1    443
   968   1370    971  1    443
   971   1370   1371  1    443
   906    327    986  1    444
   906    986   1375  1    444
   906   1375    904  1    444
   904   1375   1376  1    444
   904   1376    902  1    444
   902   1376   1377  1    444
   902   1377    900  1    444
   900   1377   1378  1    444
   900   1378    898  1    444
   898   1378   1379  1    444
   898   1379    896  1    444
   896   1379    894  1    444
   894   1379    892  1    444
   894    892    324  1    444
   892   1379    323  1    444
   323   1379    371  1    444
   371   1379    979  1    444
   979   1379   1378  1    444
   979   1378   1377  1    444
   979   1377    982  1    444
   982   1377   1376  1    444
   982   1376    366  1    444
   366   1376   1375  1    444
   366   1375    365  1    444
   365   1375    986  1    444
   988    362    956  1    445
   988    956   1380  1    445
   988   1380    990  1    445
   990   1380    329  1    445
   990    329    330  1    445
   329   1380   1381  1    445
   329   1381    987  1    445
   987   1381    960  1    445
   987    960    363  1    445
   960   1381    958  1    445
   958   1381   1380  1    445
   958   1380    956  1    445
   332    333    991  1    446
   910    336   1382  1    446
   910   1382    991  1    446
   910    991    333  1    446
   991   1382    989  1    446
   989   1382    944  1    446
   989    944    360  1    446
   360    944    354  1    446
   944   1382    345  1    446
   345   1382    336  1    446
  1383   1386   1387  1    447
  1384   1383   1387  1    447
  1384   1387    984  1    447
  1384    984   1385  1    447
  1384   1385    964  1    447
  1384    964    967  1    447
  1384    967   1383  1    447
  1383    967    970  1    447
  1383    970   1386  1    447
  1386    970    973  1    447
  1386    973    976  1    447
  1386    976   1388  1    447
  1386   1388   1387  1    447
  1387   1388    981  1    447
  1387    981    984  1    447
   981   1388    369  1    447
   369   1388    976  1    447
   964   1385    368  1    447
   368   1385    984  1    447
   387    390   1087  1    448
   387   1087   1022  1    448
  1022   1087   1085  1    448
  1022   1085   1083  1    448
  1022   1083    386  1    448
   386   1083   1081  1    448
   386   1081   1391  1    448
   386   1391    432  1    448
   432   1391   1390  1    448
   432   1390   1069  1    448
  1069   1390   1389  1    448
  1069   1389    426  1    448
   426   1389   1073  1    448
   426   1073    425  1    448
  1073   1389   1075  1    448
  1075   1389   1390  1    448
  1075   1390   1077  1    448
  1077   1390   1079  1    448
  1079   1390   1391  1    448
  1079   1391   1081  1    448
   419    420    436  1    449
   393    396    392  1    449
  1394   1393   1398  1    449
  1394   1398   1399  1    449
  1395   1394   1399  1    449
  1395   1399   1400  1    449
  1396   1395   1400  1    449
  1396   1400   1401  1    449
  1400   1399   1404  1    449
  1400   1404   1405  1    449
  1402   1407   1408  1    449
  1403   1402   1408  1    449
  1403   1408   1409  1    449
  1408   1407   1411  1    449
  1408   1411   1412  1    449
  1409   1408   1412  1    449
  1409   1412   1413  1    449
  1409   1413   1178  1    449
  1409   1178    455  1    449
  1409    455   1403  1    449
  1403    455   1397  1    449
  1403   1397   1091  1    449
  1403   1091   1402  1    449
  1402   1091   1089  1    449
  1402   1089   1407  1    449
  1407   1089    436  1    449
  1407    436   1406  1    449
  1407   1406   1411  1    449
  1411   1406    423  1    449
  1411    423   1074  1    449
  1411   1074   1412  1    449
  1412   1074   1076  1    449
  1412   1076   1413  1    449
  1413   1076   1078  1    449
  1413   1078   1178  1    449
  1178   1078   1080  1    449
  1178   1080   1180  1    449
  1180   1080   1082  1    449
  1180   1082   1410  1    449
  1180   1410   1182  1    449
  1182   1410   1404  1    449
  1182   1404   1398  1    449
  1182   1398   1184  1    449
  1184   1398   1393  1    449
  1184   1393   1392  1    449
  1184   1392   1186  1    449
  1186   1392   1095  1    449
  1186   1095   1093  1    449
  1186   1093   1397  1    449
  1186   1397    455  1    449
  1397   1093   1091  1    449
  1095   1392   1097  1    449
  1097   1392   1393  1    449
  1097   1393   1099  1    449
  1099   1393   1394  1    449
  1099   1394   1395  1    449
  1099   1395   1101  1    449
  1101   1395   1396  1    449
  1101   1396    439  1    449
   439   1396    396  1    449
   396   1396   1401  1    449
   396   1401    392  1    449
   392   1401   1088  1    449
  1088   1401   1405  1    449
  1088   1405   1086  1    449
  1086   1405   1404  1    449
  1086   1404   1410  1    449
  1086   1410   1084  1    449
  1084   1410   1082  1    449
  1405   1401   1400  1    449
  1398   1404   1399  1    449
   423   1406    420  1    449
   420   1406    436  1    449
  1105    442   1103  1    450
  1105   1103   1414  1    450
  1105   1414   1107  1    450
  1107   1414   1109  1    450
  1109   1414   1036  1    450
  1109   1036    399  1    450
  1036   1414   1034  1    450
  1034   1414    440  1    450
  1034    440    398  1    450
   440   1414   1103  1    450
   445    443   1112  1    451
  1415   1417   1418  1    451
  1419   1421   1422  1    451
  1422   1421   1424  1    451
  1421   1423   1424  1    451
  1424   1423   1132  1    451
  1424   1132   1130  1    451
  1424   1130   1128  1    451
  1424   1128   1422  1    451
  1422   1128   1124  1    451
  1422   1124   1121  1    451
  1422   1121   1419  1    451
  1419   1121   1118  1    451
  1419   1118   1148  1    451
  1419   1148   1146  1    451
  1419   1146   1421  1    451
  1421   1146   1144  1    451
  1421   1144   1423  1    451
  1423   1144    410  1    451
  1423    410    411  1    451
  1423    411    414  1    451
  1423    414   1132  1    451
  1148   1118   1416  1    451
  1148   1416   1150  1    451
  1150   1416   1415  1    451
  1150   1415   1418  1    451
  1150   1418   1152  1    451
  1152   1418   1420  1    451
  1152   1420    405  1    451
   405   1420    402  1    451
   402   1420    401  1    451
   401   1420   1110  1    451
  1110   1420   1418  1    451
  1110   1418   1108  1    451
  1108   1418   1417  1    451
  1108   1417   1106  1    451
  1106   1417   1112  1    451
  1106   1112    443  1    451
  1112   1417   1415  1    451
  1112   1415   1115  1    451
  1115   1415   1416  1    451
  1115   1416   1118  1    451
  1124   1128    451  1    451
  1124    451    448  1    451
  1153    407   1425  1    452
  1153   1425   1151  1    452
  1151   1425   1426  1    452
  1151   1426   1149  1    452
  1149   1426   1427  1    452
  1149   1427   1147  1    452
  1147   1427   1428  1    452
  1147   1428   1145  1    452
  1145   1428    408  1    452
   408   1428   1050  1    452
  1050   1428   1047  1    452
  1047   1428   1427  1    452
  1047   1427   1426  1    452
  1047   1426   1044  1    452
  1044   1426   1425  1    452
  1044   1425    407  1    452
   417    435   1430  1    453
   417   1430   1059  1    453
  1059   1430   1429  1    453
  1059   1429   1057  1    453
  1057   1429   1133  1    453
  1057   1133    416  1    453
  1133   1429   1131  1    453
  1131   1429   1430  1    453
  1131   1430   1129  1    453
  1129   1430   1134  1    453
  1129   1134    452  1    453
  1134   1430    435  1    453
   441    444   1104  1    454
  1431   1434   1435  1    454
  1431   1435   1098  1    454
  1431   1098   1432  1    454
  1431   1432   1140  1    454
  1431   1140   1137  1    454
  1431   1137   1434  1    454
  1434   1137    449  1    454
  1434    449   1437  1    454
  1434   1437   1094  1    454
  1434   1094   1435  1    454
  1435   1094   1096  1    454
  1435   1096   1098  1    454
  1094   1437   1092  1    454
  1092   1437   1090  1    454
  1090   1437   1436  1    454
  1090   1436   1135  1    454
  1090   1135    437  1    454
  1135   1436    450  1    454
   450   1436    449  1    454
   449   1436   1437  1    454
  1140   1432    444  1    454
   444   1432   1433  1    454
   444   1433   1104  1    454
  1104   1433   1102  1    454
  1104   1102    438  1    454
  1102   1433   1100  1    454
  1100   1433   1432  1    454
  1100   1432   1098  1    454
  1438   1439   1440  1    455
  1439   1441   1442  1    455
  1439   1442   1443  1    455
  1440   1439   1443  1    455
  1440   1443   1142  1    455
  1440   1142    446  1    455
  1440    446   1114  1    455
  1440   1114   1438  1    455
  1438   1114   1117  1    455
  1438   1117   1120  1    455
  1438   1120   1439  1    455
  1439   1120   1123  1    455
  1439   1123   1441  1    455
  1441   1123   1126  1    455
  1441   1126   1442  1    455
  1442   1126    447  1    455
  1442    447   1139  1    455
  1442   1139   1443  1    455
  1443   1139   1142  1    455
  1177    454   1444  1    456
  1177   1444   1175  1    456
  1175   1444   1173  1    456
  1173   1444   1445  1    456
  1173   1445   1171  1    456
  1171   1445   1169  1    456
  1169   1445   1444  1    456
  1169   1444    454  1    456
  1187    456   1446  1    457
  1187   1446   1185  1    457
  1185   1446   1447  1    457
  1185   1447   1183  1    457
  1183   1447   1181  1    457
  1181   1447   1446  1    457
  1181   1446   1179  1    457
  1179   1446    456  1    457
