# MSMS solvent excluded surface faces for fragments/fragment205.xyzr
#faces  #sphere density probe_r
   1454      34  3.00  1.50
     1    225      2  3      3
     2    225    226  3      3
   225    227    226  3      3
   226    227    228  3      3
   227    229    228  3      3
   228    229    230  3      3
   229    231    230  3      3
   230    231    232  3      3
   231    233    232  3      3
   232    233    234  3      3
   233    235    234  3      3
   234    235    236  3      3
   235      5    236  3      3
   236      5      4  3      3
     5      8      6  3      5
     6      8      7  3      5
     8    238    237  3      7
   237    238    239  3      7
   237    239      9  3      7
     9    239    240  3      7
   238     11    239  3      7
   239     11    241  3      7
   239    241    240  3      7
   240    241     10  3      7
    11     14    242  3      9
   242     14    243  3      9
   242    243     12  3      9
    12    243     13  3      9
    14     17    244  3     11
   244     17    245  3     11
   244    245     15  3     11
    15    245     16  3     11
    17    246     18  3     12
    18    246    247  3     12
   246    248    247  3     12
   247    248    249  3     12
   248    250    249  3     12
   249    250    251  3     12
   250    252    251  3     12
   251    252    253  3     12
   252      1    253  3     12
   253      1      3  3     12
    18     20    254  3     14
   254     20    255  3     14
   254    255     16  3     14
    16    255     19  3     14
    20    259    256  3     16
   256    259    260  3     16
   256    260    257  3     16
   257    260    261  3     16
   257    261    258  3     16
   258    261    262  3     16
   258    262     21  3     16
    21    262    263  3     16
   259     23    260  3     16
   260     23    264  3     16
   260    264    261  3     16
   261    264    265  3     16
   261    265    262  3     16
   262    265    266  3     16
   262    266    263  3     16
   263    266     22  3     16
    23     26    267  3     18
   267     26    268  3     18
   267    268     24  3     18
    24    268     25  3     18
    26     29    269  3     20
   269     29    270  3     20
   269    270     27  3     20
    27    270     28  3     20
    29    271     30  3     22
    30    271    272  3     22
   271     32    272  3     22
   272     32     31  3     22
    32      3    273  3     23
   273      3    274  3     23
   273    274     33  3     23
    33    274      2  3     23
    33    275     31  3     25
    31    275    276  3     25
   275     35    276  3     25
   276     35     34  3     25
    35    278    277  3     26
   277    278    279  3     26
   277    279     36  3     26
    36    279    280  3     26
   278    281    279  3     26
   279    281    282  3     26
   279    282    280  3     26
   280    282    283  3     26
   281      4    282  3     26
   282      4    284  3     26
   282    284    283  3     26
   283    284      6  3     26
    36     38     34  3     28
    34     38     37  3     28
    38     41     39  3     30
    39     41     40  3     30
    41     44    285  3     32
   285     44    286  3     32
   285    286     42  3     32
    42    286     43  3     32
    44    289    287  3     34
   287    289    290  3     34
   287    290    288  3     34
   288    290    291  3     34
   288    291     45  3     34
    45    291    292  3     34
   289     47    290  3     34
   290     47    293  3     34
   290    293    291  3     34
   291    293    294  3     34
   291    294    292  3     34
   292    294     46  3     34
    47     50    295  3     36
   295     50    296  3     36
   295    296     48  3     36
    48    296     49  3     36
    50     53    297  3     38
   297     53    298  3     38
   297    298     51  3     38
    51    298     52  3     38
    53     56    299  3     40
   299     56    300  3     40
   299    300     54  3     40
    54    300     55  3     40
    56      7     57  3     41
    57      7      9  3     41
    57    301     55  3     43
    55    301    302  3     43
   301    303    302  3     43
   302    303    304  3     43
   303    305    304  3     43
   304    305    306  3     43
   305     59    306  3     43
   306     59     58  3     43
    59     62     60  3     45
    60     62     61  3     45
    62     10     63  3     46
    63     10     12  3     46
    63     65    307  3     48
   307     65    308  3     48
   307    308     61  3     48
    61    308     64  3     48
    65     68    309  3     50
   309     68    310  3     50
   309    310     66  3     50
    66    310     67  3     50
    68     13     69  3     51
    69     13     15  3     51
    69    312    311  3     52
   311    312    313  3     52
   311    313     67  3     52
    67    313    314  3     52
   312     19    313  3     52
   313     19    315  3     52
   313    315    314  3     52
   314    315     21  3     52
    66     71    316  3     54
   316     71    317  3     54
   316    317     64  3     54
    64    317     70  3     54
    71     74    318  3     56
   318     74    319  3     56
   318    319     72  3     56
    72    319     73  3     56
    74     77     75  3     58
    75     77     76  3     58
    77     80     78  3     60
    78     80     79  3     60
    80    320     81  3     62
    81    320    321  3     62
   320    322    321  3     62
   321    322    323  3     62
   322    324    323  3     62
   323    324    325  3     62
   324    326    325  3     62
   325    326    327  3     62
   326    328    327  3     62
   327    328    329  3     62
   328    330    329  3     62
   329    330    331  3     62
   330    332    331  3     62
   331    332    333  3     62
   332    334    333  3     62
   333    334    335  3     62
   334     83    335  3     62
   335     83     82  3     62
    83     86     84  3     64
    84     86     85  3     64
    86     89     87  3     66
    87     89     88  3     66
    89     92    336  3     68
   336     92    337  3     68
   336    337     90  3     68
    90    337     91  3     68
    92    339    338  3     70
   338    339    340  3     70
   338    340     93  3     70
    93    340    341  3     70
   339     95    340  3     70
   340     95    342  3     70
   340    342    341  3     70
   341    342     94  3     70
    95     22    343  3     71
   343     22    344  3     71
   343    344     96  3     71
    96    344     24  3     71
    96     98    345  3     73
   345     98    346  3     73
   345    346     94  3     73
    94    346     97  3     73
    98     25     99  3     74
    99     25     27  3     74
    99    101    347  3     76
   347    101    348  3     76
   347    348     97  3     76
    97    348    100  3     76
   101     40    102  3     77
   102     40     42  3     77
   102    349    100  3     78
   100    349    350  3     78
   349     91    350  3     78
   350     91     93  3     78
    90    104    351  3     80
   351    104    353  3     80
   351    353    352  3     80
   352    353    354  3     80
   352    354     88  3     80
    88    354    103  3     80
   104    355    105  3     82
   105    355    356  3     82
   355    107    356  3     82
   356    107    106  3     82
   107    357    108  3     84
   108    357    358  3     84
   357    110    358  3     84
   358    110    109  3     84
   110     43    111  3     85
   111     43     45  3     85
   111    359    109  3     87
   109    359    360  3     87
   359    361    360  3     87
   360    361    362  3     87
   361    363    362  3     87
   362    363    364  3     87
   363    113    364  3     87
   364    113    112  3     87
   113    366    365  3     89
   365    366    367  3     89
   365    367    114  3     89
   114    367    368  3     89
   366    116    367  3     89
   367    116    369  3     89
   367    369    368  3     89
   368    369    115  3     89
   116    119    370  3     91
   370    119    371  3     91
   370    371    117  3     91
   117    371    118  3     91
   119     46    372  3     92
   372     46    373  3     92
   372    373    120  3     92
   120    373     48  3     92
   120     49    118  3     93
   118     49     51  3     93
   117    122    374  3     95
   374    122    376  3     95
   374    376    375  3     95
   375    376    377  3     95
   375    377    115  3     95
   115    377    121  3     95
   122    378    123  3     96
   123    378    379  3     96
   378    380    379  3     96
   379    380    381  3     96
   380     52    381  3     96
   381     52     54  3     96
   123    125    382  3     98
   382    125    383  3     98
   382    383    121  3     98
   121    383    124  3     98
   125    128    384  3    100
   384    128    385  3    100
   384    385    126  3    100
   126    385    127  3    100
   128    131    129  3    102
   129    131    130  3    102
   131    386    132  3    103
   132    386    387  3    103
   386     58    387  3    103
   387     58     60  3    103
   132    388    130  3    104
   130    388    389  3    104
   388    390    389  3    104
   389    390    391  3    104
   390     70    391  3    104
   391     70     72  3    104
   129    392    127  3    106
   127    392    393  3    106
   392    134    393  3    106
   393    134    133  3    106
   134    394    135  3    108
   135    394    395  3    108
   394    137    395  3    108
   395    137    136  3    108
   137    396    138  3    109
   138    396    397  3    109
   396     73    397  3    109
   397     73     75  3    109
   138    140    398  3    111
   398    140    399  3    111
   398    399    136  3    111
   136    399    139  3    111
   140    143    141  3    113
   141    143    142  3    113
   143    146    144  3    115
   144    146    145  3    115
   146    149    147  3    117
   147    149    148  3    117
   149    400    150  3    118
   150    400    401  3    118
   400     76    401  3    118
   401     76     78  3    118
   150    402    148  3    120
   148    402    403  3    120
   402    404    403  3    120
   403    404    405  3    120
   404    152    405  3    120
   405    152    151  3    120
   152    155    153  3    122
   153    155    154  3    122
   155    406    156  3    123
   156    406    407  3    123
   406     79    407  3    123
   407     79     81  3    123
   156    158    408  3    125
   408    158    409  3    125
   408    409    154  3    125
   154    409    157  3    125
   158    411    410  3    127
   410    411    412  3    127
   410    412    159  3    127
   159    412    413  3    127
   411    414    412  3    127
   412    414    415  3    127
   412    415    413  3    127
   413    415    416  3    127
   414    417    415  3    127
   415    417    418  3    127
   415    418    416  3    127
   416    418    419  3    127
   417    161    418  3    127
   418    161    420  3    127
   418    420    419  3    127
   419    420    160  3    127
   161    164    421  3    129
   421    164    422  3    129
   421    422    162  3    129
   162    422    163  3    129
   164    423    165  3    130
   165    423    424  3    130
   423     82    424  3    130
   424     82     84  3    130
   165    167    163  3    132
   163    167    166  3    132
   167    425    168  3    134
   168    425    426  3    134
   425    427    426  3    134
   426    427    428  3    134
   427    170    428  3    134
   428    170    169  3    134
   170    173    429  3    136
   429    173    430  3    136
   429    430    171  3    136
   171    430    172  3    136
   173    431    174  3    137
   174    431    432  3    137
   431     85    432  3    137
   432     85     87  3    137
   174    176    172  3    139
   172    176    175  3    139
   176    179    433  3    141
   433    179    434  3    141
   433    434    177  3    141
   177    434    178  3    141
   179    103    435  3    142
   435    103    436  3    142
   435    436    180  3    142
   180    436    105  3    142
   180    437    178  3    144
   178    437    438  3    144
   437    439    438  3    144
   438    439    440  3    144
   439    182    440  3    144
   440    182    181  3    144
   182    442    441  3    146
   441    442    443  3    146
   441    443    183  3    146
   183    443    444  3    146
   442    445    443  3    146
   443    445    446  3    146
   443    446    444  3    146
   444    446    447  3    146
   445    185    446  3    146
   446    185    448  3    146
   446    448    447  3    146
   447    448    184  3    146
   185    188    186  3    148
   186    188    187  3    148
   188    449    189  3    150
   189    449    450  3    150
   449    451    450  3    150
   450    451    452  3    150
   451    191    452  3    150
   452    191    190  3    150
   191    194    192  3    152
   192    194    193  3    152
   194    454    453  3    153
   453    454    455  3    153
   453    455    195  3    153
   195    455    456  3    153
   454    106    455  3    153
   455    106    457  3    153
   455    457    456  3    153
   456    457    108  3    153
   195    459    458  3    154
   458    459    460  3    154
   458    460    193  3    154
   193    460    461  3    154
   459    112    460  3    154
   460    112    462  3    154
   460    462    461  3    154
   461    462    114  3    154
   192    463    190  3    155
   190    463    464  3    155
   463    465    464  3    155
   464    465    466  3    155
   465    467    466  3    155
   466    467    468  3    155
   467    469    468  3    155
   468    469    470  3    155
   469    124    470  3    155
   470    124    126  3    155
   189    197    187  3    157
   187    197    196  3    157
   197    133    471  3    158
   471    133    472  3    158
   471    472    198  3    158
   198    472    135  3    158
   198    200    196  3    160
   196    200    199  3    160
   200    474    473  3    161
   473    474    475  3    161
   473    475    201  3    161
   201    475    476  3    161
   474    139    475  3    161
   475    139    477  3    161
   475    477    476  3    161
   476    477    141  3    161
   201    184    478  3    162
   478    184    479  3    162
   478    479    199  3    162
   199    479    186  3    162
   183    203    480  3    164
   480    203    481  3    164
   480    481    181  3    164
   181    481    202  3    164
   203    482    204  3    165
   204    482    483  3    165
   482    484    483  3    165
   483    484    485  3    165
   484    486    485  3    165
   485    486    487  3    165
   486    488    487  3    165
   487    488    489  3    165
   488    490    489  3    165
   489    490    491  3    165
   490    492    491  3    165
   491    492    493  3    165
   492    494    493  3    165
   493    494    495  3    165
   494    142    495  3    165
   495    142    144  3    165
   204    175    496  3    166
   496    175    498  3    166
   496    498    497  3    166
   497    498    499  3    166
   497    499    202  3    166
   202    499    177  3    166
   171    206    169  3    168
   169    206    205  3    168
   206    500    207  3    170
   207    500    501  3    170
   500    502    501  3    170
   501    502    503  3    170
   502    504    503  3    170
   503    504    505  3    170
   504    506    505  3    170
   505    506    507  3    170
   506    508    507  3    170
   507    508    509  3    170
   508    510    509  3    170
   509    510    511  3    170
   510    512    511  3    170
   511    512    513  3    170
   512    209    513  3    170
   513    209    208  3    170
   209    145    210  3    171
   210    145    147  3    171
   210    514    208  3    173
   208    514    515  3    173
   514    212    515  3    173
   515    212    211  3    173
   212    516    213  3    174
   213    516    517  3    174
   516    518    517  3    174
   517    518    519  3    174
   518    520    519  3    174
   519    520    521  3    174
   520    151    521  3    174
   521    151    153  3    174
   213    215    211  3    176
   211    215    214  3    176
   215    523    522  3    178
   522    523    524  3    178
   522    524    216  3    178
   216    524    525  3    178
   523    526    524  3    178
   524    526    527  3    178
   524    527    525  3    178
   525    527    528  3    178
   526    529    527  3    178
   527    529    530  3    178
   527    530    528  3    178
   528    530    531  3    178
   529    532    530  3    178
   530    532    533  3    178
   530    533    531  3    178
   531    533    534  3    178
   532    535    533  3    178
   533    535    536  3    178
   533    536    534  3    178
   534    536    537  3    178
   535    218    536  3    178
   536    218    538  3    178
   536    538    537  3    178
   537    538    217  3    178
   218    221    219  3    180
   219    221    220  3    180
   221    539    222  3    181
   222    539    540  3    181
   539    541    540  3    181
   540    541    542  3    181
   541    543    542  3    181
   542    543    544  3    181
   543    166    544  3    181
   544    166    168  3    181
   222    545    220  3    182
   220    545    546  3    182
   545    205    546  3    182
   546    205    207  3    182
   219    548    547  3    183
   547    548    549  3    183
   547    549    217  3    183
   217    549    550  3    183
   548    551    549  3    183
   549    551    552  3    183
   549    552    550  3    183
   550    552    553  3    183
   551    214    552  3    183
   552    214    554  3    183
   552    554    553  3    183
   553    554    216  3    183
   162    555    160  3    184
   160    555    556  3    184
   555    557    556  3    184
   556    557    558  3    184
   557    559    558  3    184
   558    559    560  3    184
   559    561    560  3    184
   560    561    562  3    184
   561    563    562  3    184
   562    563    564  3    184
   563    157    564  3    184
   564    157    159  3    184
    39     28    565  3    185
   565     28    566  3    185
   565    566     37  3    185
    37    566     30  3    185
   223    567    224  3    186
   224    567    568  3    186
   567    569    568  3    186
   568    569    570  3    186
   569    571    570  3    186
   570    571    572  3    186
   571    573    572  3    186
   572    573    574  3    186
   573    575    574  3    186
   574    575    576  3    186
   575    223    576  3    186
   576    223    224  3    186
     3      1    274  2      1
   274      1      2  2      1
   284      4      5  2      2
   284      5      6  2      2
     9      7    237  2      4
   237      7      8  2      4
    12     10    242  2      6
   242     10    241  2      6
   242    241     11  2      6
    15     13    243  2      8
    15    243    244  2      8
   244    243     14  2      8
   254     16    245  2     10
   254    245     17  2     10
   254     17     18  2     10
   315     19    257  2     13
   315    257    258  2     13
   315    258     21  2     13
   257     19    255  2     13
   257    255    256  2     13
   256    255     20  2     13
   344     22    266  2     15
   344    266     24  2     15
    24    266    265  2     15
    24    265    267  2     15
   267    265    264  2     15
   267    264     23  2     15
    27     25    268  2     17
    27    268    269  2     17
   269    268     26  2     17
   566     28    270  2     19
   566    270     30  2     19
    30    270     29  2     19
    33     31    273  2     21
   273     31     32  2     21
    36     34    277  2     24
   277     34     35  2     24
   565     37     38  2     27
   565     38     39  2     27
    42     40    285  2     29
   285     40     41  2     29
    45     43    288  2     31
   288     43    286  2     31
   288    286    287  2     31
   287    286     44  2     31
   373     46    294  2     33
   373    294     48  2     33
    48    294    293  2     33
    48    293    295  2     33
   295    293     47  2     33
    51     49    297  2     35
   297     49    296  2     35
   297    296     50  2     35
    54     52    298  2     37
    54    298    299  2     37
   299    298     53  2     37
    57     55    300  2     39
    57    300     56  2     39
    60     58     59  2     42
   307     61     62  2     44
   307     62     63  2     44
   316     64    308  2     47
   316    308    309  2     47
   316    309     66  2     47
   309    308     65  2     47
   311     67    310  2     49
   311    310     69  2     49
    69    310     68  2     49
    72     70    317  2     53
    72    317    318  2     53
   318    317     71  2     53
    75     73    319  2     55
    75    319     74  2     55
    78     76     77  2     57
    81     79     80  2     59
    84     82     83  2     61
    87     85     86  2     63
   352     88     89  2     65
   352     89    336  2     65
   352    336    351  2     65
   351    336     90  2     65
    93     91    337  2     67
    93    337    338  2     67
   338    337     92  2     67
   345     94    577  2     69
   345    577     96  2     69
    96    577    343  2     69
   343    577    342  2     69
   343    342     95  2     69
   342    577     94  2     69
   347     97    346  2     72
   347    346     99  2     72
    99    346     98  2     72
   102    100    348  2     75
   102    348    101  2     75
   436    103    354  2     79
   436    354    353  2     79
   436    353    105  2     79
   105    353    104  2     79
   457    106    107  2     81
   457    107    108  2     81
   111    109    110  2     83
   462    112    113  2     86
   462    113    365  2     86
   462    365    114  2     86
   375    115    369  2     88
   375    369    370  2     88
   375    370    374  2     88
   374    370    117  2     88
   370    369    116  2     88
   120    118    371  2     90
   120    371    372  2     90
   372    371    119  2     90
   382    121    377  2     94
   382    377    376  2     94
   382    376    123  2     94
   123    376    122  2     94
   126    124    383  2     97
   126    383    384  2     97
   384    383    125  2     97
   129    127    385  2     99
   129    385    128  2     99
   132    130    131  2    101
   472    133    134  2    105
   472    134    135  2    105
   398    136    137  2    107
   398    137    138  2    107
   477    139    399  2    110
   477    399    140  2    110
   477    140    141  2    110
   144    142    143  2    112
   147    145    146  2    114
   150    148    149  2    116
   153    151    152  2    119
   408    154    155  2    121
   408    155    156  2    121
   159    157    409  2    124
   159    409    410  2    124
   410    409    158  2    124
   162    160    421  2    126
   421    160    420  2    126
   421    420    161  2    126
   165    163    422  2    128
   165    422    164  2    128
   168    166    167  2    131
   171    169    429  2    133
   429    169    170  2    133
   174    172    430  2    135
   174    430    173  2    135
   498    175    176  2    138
   498    176    433  2    138
   498    433    499  2    138
   499    433    177  2    138
   180    178    434  2    140
   180    434    435  2    140
   435    434    179  2    140
   480    181    182  2    143
   480    182    441  2    143
   480    441    183  2    143
   479    184    448  2    145
   479    448    186  2    145
   186    448    185  2    145
   189    187    188  2    147
   192    190    191  2    149
   458    193    194  2    151
   458    194    453  2    151
   458    453    195  2    151
   198    196    471  2    156
   471    196    197  2    156
   478    199    473  2    159
   478    473    201  2    159
   473    199    200  2    159
   497    202    481  2    163
   497    481    496  2    163
   496    481    203  2    163
   496    203    204  2    163
   207    205    206  2    167
   210    208    209  2    169
   213    211    212  2    172
   554    214    215  2    175
   554    215    522  2    175
   554    522    216  2    175
   547    217    538  2    177
   547    538    218  2    177
   547    218    219  2    177
   222    220    221  2    179
   579    578    584  1    187
   579    584    585  1    187
   580    585    586  1    187
   581    580    586  1    187
   582    581    586  1    187
   582    586    587  1    187
   583    582    587  1    187
   585    584    588  1    187
   586    585    588  1    187
   587    586    588  1    187
   587    588    229  1    187
   587    229    227  1    187
   587    227    583  1    187
   583    227    250  1    187
   583    250    248  1    187
   583    248    582  1    187
   582    248    246  1    187
   582    246    581  1    187
   581    246     14  1    187
   581     14    580  1    187
   580     14     11  1    187
   580     11    585  1    187
   585     11    579  1    187
   579     11    238  1    187
   579    238    578  1    187
   578    238      8  1    187
   578      8    235  1    187
   578    235    233  1    187
   578    233    584  1    187
   584    233    231  1    187
   584    231    588  1    187
   588    231    229  1    187
   235      8      5  1    187
    14    246     17  1    187
   250    227    225  1    187
   250    225    252  1    187
   252    225      1  1    187
   589    592    593  1    188
   590    589    593  1    188
   590    593    594  1    188
   591    590    594  1    188
   591    594    595  1    188
   592    598    599  1    188
   593    592    599  1    188
   593    599    600  1    188
   594    593    600  1    188
   594    600    601  1    188
   595    594    601  1    188
   595    601    602  1    188
   596    595    602  1    188
   597    603    604  1    188
   598    597    604  1    188
   599    598    604  1    188
   599    604    605  1    188
   600    599    605  1    188
   600    605    606  1    188
   601    600    606  1    188
   601    606    607  1    188
   602    601    607  1    188
   604    603    608  1    188
   605    604    608  1    188
   605    608    609  1    188
   606    605    609  1    188
   607    606    609  1    188
   607    609    234  1    188
   607    234    236  1    188
   607    236    602  1    188
   602    236      4  1    188
   602      4    281  1    188
   602    281    596  1    188
   596    281    278  1    188
   596    278    595  1    188
   595    278    591  1    188
   591    278     35  1    188
   591     35    590  1    188
   590     35    275  1    188
   590    275    589  1    188
   589    275     33  1    188
   589     33    592  1    188
   592     33      2  1    188
   592      2    597  1    188
   592    597    598  1    188
   597      2    226  1    188
   597    226    603  1    188
   603    226    228  1    188
   603    228    608  1    188
   608    228    230  1    188
   608    230    232  1    188
   608    232    609  1    188
   609    232    234  1    188
     7     56      6  1    189
     6     56     53  1    189
     6     53     50  1    189
     6     50    283  1    189
   283     50     47  1    189
   283     47    280  1    189
   280     47    289  1    189
   280    289     36  1    189
    36    289     44  1    189
    36     44     41  1    189
    36     41     38  1    189
    10     62    305  1    190
    10    305    240  1    190
   240    305    303  1    190
   240    303    301  1    190
   240    301      9  1    190
     9    301     57  1    190
   305     62     59  1    190
    13     68    611  1    191
    13    611     12  1    191
    12    611    610  1    191
    12    610     63  1    191
    63    610     65  1    191
    65    610    611  1    191
    65    611     68  1    191
    16     19    312  1    192
    16    312     15  1    192
    15    312     69  1    192
   612    614    615  1    193
   613    612    615  1    193
   613    615    616  1    193
   614    618    619  1    193
   615    614    619  1    193
   615    619    620  1    193
   616    615    620  1    193
   616    620    621  1    193
   617    622    623  1    193
   618    617    623  1    193
   618    623    624  1    193
   619    618    624  1    193
   619    624    625  1    193
   620    619    625  1    193
   623    622    626  1    193
   623    626    627  1    193
   624    623    627  1    193
   624    627    628  1    193
   625    624    628  1    193
   625    628    253  1    193
   625    253      3  1    193
   625      3    621  1    193
   625    621    620  1    193
   621      3     32  1    193
   621     32    616  1    193
   616     32    271  1    193
   616    271    613  1    193
   613    271     29  1    193
   613     29     26  1    193
   613     26    612  1    193
   612     26     23  1    193
   612     23    614  1    193
   614     23    259  1    193
   614    259    617  1    193
   614    617    618  1    193
   617    259     20  1    193
   617     20    622  1    193
   622     20     18  1    193
   622     18    626  1    193
   626     18    247  1    193
   626    247    249  1    193
   626    249    627  1    193
   627    249    251  1    193
   627    251    628  1    193
   628    251    253  1    193
   633    632    636  1    194
   634    633    636  1    194
   634    636    314  1    194
   634    314    635  1    194
   634    635    324  1    194
   634    324    322  1    194
   634    322    633  1    194
   633    322    320  1    194
   633    320    630  1    194
   633    630    632  1    194
   632    630    631  1    194
   632    631    636  1    194
   636    631     66  1    194
   636     66     67  1    194
   636     67    314  1    194
    66    631     71  1    194
    71    631     74  1    194
    74    631    630  1    194
    74    630     77  1    194
    77    630     80  1    194
    80    630    320  1    194
   324    635    326  1    194
   326    635     21  1    194
   326     21    263  1    194
   326    263    328  1    194
   328    263    330  1    194
   330    263     22  1    194
   330     22    629  1    194
   330    629    332  1    194
   332    629    334  1    194
   334    629    339  1    194
   334    339     83  1    194
    83    339     92  1    194
    83     92     86  1    194
    86     92     89  1    194
   339    629     95  1    194
    95    629     22  1    194
    21    635    314  1    194
    25     98     96  1    195
    25     96     24  1    195
    28     39    101  1    196
    28    101     27  1    196
    27    101     99  1    196
   101     39     40  1    196
   276     34     37  1    197
   276     37    272  1    197
   276    272     31  1    197
   272     37     30  1    197
    43    110    637  1    198
    43    637     42  1    198
    42    637    102  1    198
   102    637    349  1    198
   349    637    110  1    198
   349    110    357  1    198
   349    357    355  1    198
   349    355     91  1    198
    91    355    104  1    198
    91    104     90  1    198
   355    357    107  1    198
    46    119    639  1    199
    46    639    638  1    199
    46    638    292  1    199
   292    638     45  1    199
    45    638    359  1    199
    45    359    111  1    199
   359    638    361  1    199
   361    638    639  1    199
   361    639    363  1    199
   363    639    640  1    199
   363    640    113  1    199
   113    640    366  1    199
   366    640    116  1    199
   116    640    119  1    199
   119    640    639  1    199
    49    120     48  1    200
   378    122    641  1    201
   378    641    380  1    201
   380    641     52  1    201
    52    641     51  1    201
    51    641    118  1    201
   118    641    117  1    201
   117    641    122  1    201
   306     58    643  1    202
   306    643    642  1    202
   306    642    304  1    202
   304    642    381  1    202
   304    381    302  1    202
   302    381     55  1    202
    55    381     54  1    202
   381    642    379  1    202
   379    642    131  1    202
   379    131    128  1    202
   379    128    125  1    202
   379    125    123  1    202
   131    642    643  1    202
   131    643    386  1    202
   386    643     58  1    202
    61     64    644  1    203
    61    644     60  1    203
    60    644    387  1    203
   387    644    388  1    203
   387    388    132  1    203
   388    644    390  1    203
   390    644     70  1    203
    70    644     64  1    203
   396    137    647  1    204
   396    647    648  1    204
   396    648     73  1    204
    73    648     72  1    204
    72    648    391  1    204
   391    648    647  1    204
   391    647    389  1    204
   389    647    394  1    204
   389    394    646  1    204
   389    646    645  1    204
   389    645    130  1    204
   130    645    129  1    204
   129    645    392  1    204
   392    645    646  1    204
   392    646    134  1    204
   134    646    394  1    204
   394    647    137  1    204
   149    146    400  1    205
   400    146    649  1    205
   400    649     76  1    205
    76    649     75  1    205
    75    649    397  1    205
   397    649    138  1    205
   138    649    143  1    205
   138    143    140  1    205
   143    649    146  1    205
   406    155    152  1    206
   406    152    404  1    206
   406    404     79  1    206
    79    404    402  1    206
    79    402    401  1    206
    79    401     78  1    206
   401    402    150  1    206
   423    164    650  1    207
   423    650    335  1    207
   423    335     82  1    207
   335    650    333  1    207
   333    650    651  1    207
   333    651    331  1    207
   331    651    652  1    207
   331    652    329  1    207
   329    652    655  1    207
   329    655    327  1    207
   327    655    325  1    207
   325    655    654  1    207
   325    654    653  1    207
   325    653    323  1    207
   323    653    321  1    207
   321    653    407  1    207
   321    407     81  1    207
   407    653    156  1    207
   156    653    158  1    207
   158    653    411  1    207
   411    653    654  1    207
   411    654    414  1    207
   414    654    652  1    207
   414    652    417  1    207
   417    652    651  1    207
   417    651    650  1    207
   417    650    161  1    207
   161    650    164  1    207
   652    654    655  1    207
   173    170    431  1    208
   431    170    427  1    208
   431    427    656  1    208
   431    656     85  1    208
    85    656     84  1    208
    84    656    424  1    208
   424    656    425  1    208
   424    425    167  1    208
   424    167    165  1    208
   425    656    427  1    208
    88    103     87  1    209
    87    103    432  1    209
   432    103    179  1    209
   432    179    174  1    209
   174    179    176  1    209
    94     97    657  1    210
    94    657    341  1    210
   341    657     93  1    210
    93    657    350  1    210
   350    657    100  1    210
   100    657     97  1    210
   454    194    439  1    211
   454    439    437  1    211
   454    437    106  1    211
   106    437    356  1    211
   356    437    180  1    211
   356    180    105  1    211
   439    194    191  1    211
   439    191    658  1    211
   439    658    182  1    211
   182    658    442  1    211
   442    658    451  1    211
   442    451    449  1    211
   442    449    445  1    211
   445    449    185  1    211
   185    449    188  1    211
   451    658    191  1    211
   659    661    662  1    212
   659    662    663  1    212
   659    663    660  1    212
   662    664    665  1    212
   663    662    665  1    212
   663    665    666  1    212
   663    666    667  1    212
   660    663    667  1    212
   660    667    459  1    212
   660    459    195  1    212
   660    195    456  1    212
   660    456    659  1    212
   659    456    108  1    212
   659    108    661  1    212
   661    108    358  1    212
   661    358    664  1    212
   661    664    662  1    212
   664    358    109  1    212
   664    109    360  1    212
   664    360    665  1    212
   665    360    362  1    212
   665    362    666  1    212
   666    362    364  1    212
   666    364    667  1    212
   667    364    112  1    212
   667    112    459  1    212
   115    121    670  1    213
   115    670    368  1    213
   368    670    669  1    213
   368    669    114  1    213
   114    669    668  1    213
   114    668    461  1    213
   461    668    192  1    213
   461    192    193  1    213
   192    668    463  1    213
   463    668    465  1    213
   465    668    669  1    213
   465    669    467  1    213
   467    669    670  1    213
   467    670    469  1    213
   469    670    124  1    213
   124    670    121  1    213
   671    672    673  1    214
   671    673    450  1    214
   671    450    452  1    214
   671    452    464  1    214
   671    464    466  1    214
   671    466    672  1    214
   672    466    468  1    214
   672    468    674  1    214
   672    674    673  1    214
   673    674    133  1    214
   673    133    197  1    214
   673    197    189  1    214
   673    189    450  1    214
   133    674    393  1    214
   393    674    675  1    214
   393    675    127  1    214
   127    675    126  1    214
   126    675    470  1    214
   470    675    468  1    214
   468    675    674  1    214
   464    452    190  1    214
   136    139    395  1    215
   395    139    474  1    215
   395    474    676  1    215
   395    676    135  1    215
   135    676    198  1    215
   198    676    200  1    215
   200    676    474  1    215
   482    203    183  1    216
   482    183    484  1    216
   484    183    444  1    216
   484    444    486  1    216
   486    444    447  1    216
   486    447    677  1    216
   486    677    488  1    216
   488    677    201  1    216
   488    201    490  1    216
   490    201    476  1    216
   490    476    492  1    216
   492    476    494  1    216
   494    476    141  1    216
   494    141    142  1    216
   201    677    184  1    216
   184    677    447  1    216
   171    172    206  1    217
   678    679    680  1    217
   678    681    682  1    217
   678    682    679  1    217
   682    681    683  1    217
   682    683    684  1    217
   682    684    685  1    217
   679    682    685  1    217
   683    686    687  1    217
   684    683    687  1    217
   684    687    688  1    217
   685    684    688  1    217
   685    688    689  1    217
   690    693    694  1    217
   692    695    696  1    217
   693    692    696  1    217
   693    696    697  1    217
   694    693    697  1    217
   696    695    698  1    217
   696    698    699  1    217
   697    696    699  1    217
   697    699    700  1    217
   697    700    512  1    217
   697    512    694  1    217
   694    512    510  1    217
   694    510    690  1    217
   690    510    508  1    217
   690    508    575  1    217
   690    575    573  1    217
   690    573    693  1    217
   693    573    692  1    217
   692    573    571  1    217
   692    571    695  1    217
   695    571    691  1    217
   695    691    491  1    217
   695    491    493  1    217
   695    493    698  1    217
   698    493    495  1    217
   698    495    144  1    217
   698    144    699  1    217
   699    144    700  1    217
   700    144    145  1    217
   700    145    209  1    217
   700    209    512  1    217
   491    691    489  1    217
   489    691    569  1    217
   489    569    487  1    217
   487    569    689  1    217
   487    689    485  1    217
   485    689    688  1    217
   485    688    483  1    217
   483    688    687  1    217
   483    687    204  1    217
   204    687    686  1    217
   204    686    175  1    217
   175    686    172  1    217
   172    686    206  1    217
   206    686    683  1    217
   206    683    681  1    217
   206    681    500  1    217
   500    681    502  1    217
   502    681    678  1    217
   502    678    504  1    217
   504    678    680  1    217
   504    680    223  1    217
   504    223    506  1    217
   506    223    575  1    217
   506    575    508  1    217
   223    680    679  1    217
   223    679    567  1    217
   567    679    685  1    217
   567    685    689  1    217
   567    689    569  1    217
   569    691    571  1    217
   147    148    210  1    218
   405    151    520  1    218
   405    520    701  1    218
   405    701    403  1    218
   403    701    148  1    218
   148    701    210  1    218
   210    701    514  1    218
   514    701    516  1    218
   514    516    212  1    218
   516    701    518  1    218
   518    701    520  1    218
   703    705    706  1    219
   704    703    706  1    219
   704    706    707  1    219
   704    707    541  1    219
   704    541    702  1    219
   704    702    535  1    219
   704    535    703  1    219
   703    535    532  1    219
   703    532    705  1    219
   705    532    529  1    219
   705    529    557  1    219
   705    557    706  1    219
   706    557    555  1    219
   706    555    707  1    219
   707    555    166  1    219
   707    166    543  1    219
   707    543    541  1    219
   166    555    163  1    219
   163    555    162  1    219
   557    529    559  1    219
   559    529    561  1    219
   561    529    526  1    219
   561    526    709  1    219
   561    709    563  1    219
   563    709    521  1    219
   563    521    153  1    219
   563    153    154  1    219
   563    154    157  1    219
   521    709    708  1    219
   521    708    519  1    219
   519    708    517  1    219
   517    708    523  1    219
   517    523    213  1    219
   213    523    215  1    219
   523    708    709  1    219
   523    709    526  1    219
   535    702    221  1    219
   535    221    218  1    219
   221    702    539  1    219
   539    702    541  1    219
   711    710    713  1    220
   711    713    416  1    220
   711    416    419  1    220
   711    419    160  1    220
   711    160    556  1    220
   711    556    710  1    220
   710    556    558  1    220
   710    558    560  1    220
   710    560    712  1    220
   710    712    713  1    220
   713    712    413  1    220
   713    413    416  1    220
   413    712    564  1    220
   413    564    159  1    220
   564    712    562  1    220
   562    712    560  1    220
   715    714    716  1    221
   715    716    428  1    221
   715    428    169  1    221
   715    169    205  1    221
   715    205    545  1    221
   715    545    714  1    221
   714    545    540  1    221
   714    540    542  1    221
   714    542    716  1    221
   716    542    544  1    221
   716    544    426  1    221
   716    426    428  1    221
   426    544    168  1    221
   540    545    222  1    221
   440    181    717  1    222
   440    717    438  1    222
   438    717    177  1    222
   438    177    178  1    222
   177    717    202  1    222
   202    717    181  1    222
   187    196    199  1    223
   187    199    186  1    223
   515    211    723  1    224
   515    723    513  1    224
   515    513    208  1    224
   513    723    511  1    224
   511    723    509  1    224
   509    723    722  1    224
   509    722    507  1    224
   507    722    721  1    224
   507    721    505  1    224
   505    721    718  1    224
   505    718    503  1    224
   503    718    719  1    224
   503    719    720  1    224
   503    720    501  1    224
   501    720    546  1    224
   501    546    207  1    224
   546    720    719  1    224
   546    719    220  1    224
   220    719    219  1    224
   219    719    548  1    224
   548    719    718  1    224
   548    718    721  1    224
   548    721    551  1    224
   551    721    722  1    224
   551    722    723  1    224
   551    723    214  1    224
   214    723    211  1    224
   724    726    727  1    225
   727    726    728  1    225
   727    728    528  1    225
   727    528    531  1    225
   727    531    534  1    225
   727    534    725  1    225
   727    725    724  1    225
   724    725    217  1    225
   724    217    550  1    225
   724    550    726  1    225
   726    550    553  1    225
   726    553    216  1    225
   726    216    728  1    225
   728    216    525  1    225
   728    525    528  1    225
   217    725    537  1    225
   537    725    534  1    225
   576    224    729  1    226
   576    729    574  1    226
   574    729    572  1    226
   572    729    570  1    226
   570    729    568  1    226
   568    729    224  1    226
