# MSMS solvent excluded surface faces for fragments/fragment37.xyzr
#faces  #sphere density probe_r
   1418      35  3.00  1.50
     1    219      2  3      3
     2    219    220  3      3
   219    221    220  3      3
   220    221    222  3      3
   221    223    222  3      3
   222    223    224  3      3
   223      5    224  3      3
   224      5      4  3      3
     5    225      6  3      5
     6    225    226  3      5
   225    227    226  3      5
   226    227    228  3      5
   227      8    228  3      5
   228      8      7  3      5
     8    230    229  3      7
   229    230    231  3      7
   229    231      9  3      7
     9    231    232  3      7
   230     11    231  3      7
   231     11    233  3      7
   231    233    232  3      7
   232    233     10  3      7
    11    235    234  3      8
   234    235    236  3      8
   234    236     12  3      8
    12    236    237  3      8
   235      1    236  3      8
   236      1    238  3      8
   236    238    237  3      8
   237    238      3  3      8
    12     14     10  3     10
    10     14     13  3     10
    14    239     15  3     12
    15    239    240  3     12
   239    241    240  3     12
   240    241    242  3     12
   241    243    242  3     12
   242    243    244  3     12
   243    245    244  3     12
   244    245    246  3     12
   245     17    246  3     12
   246     17     16  3     12
    17     20    247  3     14
   247     20    248  3     14
   247    248     18  3     14
    18    248     19  3     14
    20     23    249  3     16
   249     23    250  3     16
   249    250     21  3     16
    21    250     22  3     16
    23    252    251  3     17
   251    252    253  3     17
   251    253     24  3     17
    24    253    254  3     17
   252      3    253  3     17
   253      3    255  3     17
   253    255    254  3     17
   254    255      2  3     17
    24     26    256  3     19
   256     26    257  3     19
   256    257     22  3     19
    22    257     25  3     19
    26     29     27  3     21
    27     29     28  3     21
    29    259    258  3     23
   258    259    260  3     23
   258    260     30  3     23
    30    260    261  3     23
   259     32    260  3     23
   260     32    262  3     23
   260    262    261  3     23
   261    262     31  3     23
    32      4     33  3     24
    33      4      6  3     24
    33     35     31  3     26
    31     35     34  3     26
    35     38    263  3     28
   263     38    264  3     28
   263    264     36  3     28
    36    264     37  3     28
    38    265     39  3     30
    39    265    266  3     30
   265     41    266  3     30
   266     41     40  3     30
    41     44    267  3     32
   267     44    268  3     32
   267    268     42  3     32
    42    268     43  3     32
    44    269     45  3     33
    45    269    270  3     33
   269      7    270  3     33
   270      7      9  3     33
    45     47    271  3     35
   271     47    272  3     35
   271    272     43  3     35
    43    272     46  3     35
    47     50    273  3     37
   273     50    274  3     37
   273    274     48  3     37
    48    274     49  3     37
    50    275     51  3     39
    51    275    276  3     39
   275    277    276  3     39
   276    277    278  3     39
   277     53    278  3     39
   278     53     52  3     39
    53     56    279  3     41
   279     56    280  3     41
   279    280     54  3     41
    54    280     55  3     41
    56    281     57  3     42
    57    281    282  3     42
   281    283    282  3     42
   282    283    284  3     42
   283     13    284  3     42
   284     13     15  3     42
    57     59    285  3     44
   285     59    287  3     44
   285    287    286  3     44
   286    287    288  3     44
   286    288     55  3     44
    55    288     58  3     44
    59     62     60  3     46
    60     62     61  3     46
    62     65    289  3     48
   289     65    290  3     48
   289    290     63  3     48
    63    290     64  3     48
    65     68     66  3     50
    66     68     67  3     50
    68     16    291  3     51
   291     16    292  3     51
   291    292     69  3     51
    69    292     18  3     51
    69     71     67  3     53
    67     71     70  3     53
    71    293     72  3     55
    72    293    294  3     55
   293     74    294  3     55
   294     74     73  3     55
    74    295     75  3     57
    75    295    296  3     57
   295    297    296  3     57
   296    297    298  3     57
   297    299    298  3     57
   298    299    300  3     57
   299     77    300  3     57
   300     77     76  3     57
    77    301     78  3     58
    78    301    302  3     58
   301     19    302  3     58
   302     19     21  3     58
    78     80     76  3     60
    76     80     79  3     60
    80     25     81  3     61
    81     25     27  3     61
    81     28     79  3     62
    79     28     30  3     62
    75     83    303  3     64
   303     83    304  3     64
   303    304     73  3     64
    73    304     82  3     64
    83     86     84  3     66
    84     86     85  3     66
    86     89    305  3     68
   305     89    306  3     68
   305    306     87  3     68
    87    306     88  3     68
    89    308    307  3     70
   307    308    309  3     70
   307    309     90  3     70
    90    309    310  3     70
   308    311    309  3     70
   309    311    312  3     70
   309    312    310  3     70
   310    312    313  3     70
   311    314    312  3     70
   312    314    315  3     70
   312    315    313  3     70
   313    315    316  3     70
   314     92    315  3     70
   315     92    317  3     70
   315    317    316  3     70
   316    317     91  3     70
    92    319    318  3     72
   318    319    320  3     72
   318    320     93  3     72
    93    320    321  3     72
   319     95    320  3     72
   320     95    322  3     72
   320    322    321  3     72
   321    322     94  3     72
    95     98    323  3     74
   323     98    324  3     74
   323    324     96  3     74
    96    324     97  3     74
    98     34     99  3     75
    99     34     36  3     75
    99    101    325  3     77
   325    101    326  3     77
   325    326     97  3     77
    97    326    100  3     77
   101     37    327  3     78
   327     37    328  3     78
   327    328    102  3     78
   102    328     39  3     78
   102    104    329  3     80
   329    104    331  3     80
   329    331    330  3     80
   330    331    332  3     80
   330    332    100  3     80
   100    332    103  3     80
   104     40    333  3     81
   333     40    334  3     81
   333    334    105  3     81
   105    334     42  3     81
   105    337    335  3     83
   335    337    338  3     83
   335    338    336  3     83
   336    338    339  3     83
   336    339    103  3     83
   103    339    340  3     83
   337    341    338  3     83
   338    341    342  3     83
   338    342    339  3     83
   339    342    343  3     83
   339    343    340  3     83
   340    343    344  3     83
   341    107    342  3     83
   342    107    345  3     83
   342    345    343  3     83
   343    345    346  3     83
   343    346    344  3     83
   344    346    106  3     83
   107    349    347  3     85
   347    349    350  3     85
   347    350    348  3     85
   348    350    351  3     85
   348    351    108  3     85
   108    351    352  3     85
   349    353    350  3     85
   350    353    354  3     85
   350    354    351  3     85
   351    354    355  3     85
   351    355    352  3     85
   352    355    356  3     85
   353    357    354  3     85
   354    357    358  3     85
   354    358    355  3     85
   355    358    359  3     85
   355    359    356  3     85
   356    359    360  3     85
   357    110    358  3     85
   358    110    361  3     85
   358    361    359  3     85
   359    361    362  3     85
   359    362    360  3     85
   360    362    109  3     85
   110    113    363  3     87
   363    113    364  3     87
   363    364    111  3     87
   111    364    112  3     87
   113    116    365  3     89
   365    116    366  3     89
   365    366    114  3     89
   114    366    115  3     89
   116    119    117  3     91
   117    119    118  3     91
   119    122    120  3     93
   120    122    121  3     93
   122    125    123  3     95
   123    125    124  3     95
   125    367    126  3     97
   126    367    368  3     97
   367    369    368  3     97
   368    369    370  3     97
   369    371    370  3     97
   370    371    372  3     97
   371    373    372  3     97
   372    373    374  3     97
   373    375    374  3     97
   374    375    376  3     97
   375    377    376  3     97
   376    377    378  3     97
   377    379    378  3     97
   378    379    380  3     97
   379    381    380  3     97
   380    381    382  3     97
   381    128    382  3     97
   382    128    127  3     97
   128    131    129  3     99
   129    131    130  3     99
   131     46    132  3    100
   132     46     48  3    100
   132    383    130  3    102
   130    383    384  3    102
   383    134    384  3    102
   384    134    133  3    102
   134    137    135  3    104
   135    137    136  3    104
   137    140    138  3    106
   138    140    139  3    106
   140    386    385  3    107
   385    386    387  3    107
   385    387    141  3    107
   141    387    388  3    107
   386     49    387  3    107
   387     49    389  3    107
   387    389    388  3    107
   388    389     51  3    107
   141     52    390  3    108
   390     52    391  3    108
   390    391    139  3    108
   139    391     54  3    108
   138    392    136  3    110
   136    392    393  3    110
   392    394    393  3    110
   393    394    395  3    110
   394    396    395  3    110
   395    396    397  3    110
   396    398    397  3    110
   397    398    399  3    110
   398    400    399  3    110
   399    400    401  3    110
   400    402    401  3    110
   401    402    403  3    110
   402    404    403  3    110
   403    404    405  3    110
   404    143    405  3    110
   405    143    142  3    110
   143    146    144  3    112
   144    146    145  3    112
   146    407    406  3    114
   406    407    408  3    114
   406    408    147  3    114
   147    408    409  3    114
   407    149    408  3    114
   408    149    410  3    114
   408    410    409  3    114
   409    410    148  3    114
   149     58    411  3    115
   411     58    412  3    115
   411    412    150  3    115
   150    412     60  3    115
   150     61    148  3    116
   148     61     63  3    116
   147    152    413  3    118
   413    152    414  3    118
   413    414    145  3    118
   145    414    151  3    118
   152    415    153  3    119
   153    415    416  3    119
   415    417    416  3    119
   416    417    418  3    119
   417     64    418  3    119
   418     64     66  3    119
   153    419    151  3    120
   151    419    420  3    120
   419    118    420  3    120
   420    118    120  3    120
   144    155    142  3    122
   142    155    154  3    122
   155    421    156  3    123
   156    421    422  3    123
   421    121    422  3    123
   422    121    123  3    123
   156    158    423  3    125
   423    158    424  3    125
   423    424    154  3    125
   154    424    157  3    125
   158    425    159  3    127
   159    425    426  3    127
   425    427    426  3    127
   426    427    428  3    127
   427    161    428  3    127
   428    161    160  3    127
   161    164    162  3    129
   162    164    163  3    129
   164    429    165  3    130
   165    429    430  3    130
   429    124    430  3    130
   430    124    126  3    130
   165    167    431  3    132
   431    167    432  3    132
   431    432    163  3    132
   163    432    166  3    132
   167    434    433  3    134
   433    434    435  3    134
   433    435    168  3    134
   168    435    436  3    134
   434    437    435  3    134
   435    437    438  3    134
   435    438    436  3    134
   436    438    439  3    134
   437    440    438  3    134
   438    440    441  3    134
   438    441    439  3    134
   439    441    442  3    134
   440    170    441  3    134
   441    170    443  3    134
   441    443    442  3    134
   442    443    169  3    134
   170    173    444  3    136
   444    173    445  3    136
   444    445    171  3    136
   171    445    172  3    136
   173    446    174  3    137
   174    446    447  3    137
   446    127    447  3    137
   447    127    129  3    137
   174    176    172  3    139
   172    176    175  3    139
   176    448    177  3    141
   177    448    449  3    141
   448    450    449  3    141
   449    450    451  3    141
   450    179    451  3    141
   451    179    178  3    141
   179    133    452  3    142
   452    133    453  3    142
   452    453    180  3    142
   180    453    135  3    142
   180    182    178  3    144
   178    182    181  3    144
   182    454    183  3    146
   183    454    455  3    146
   454    456    455  3    146
   455    456    457  3    146
   456    458    457  3    146
   457    458    459  3    146
   458    460    459  3    146
   459    460    461  3    146
   460    462    461  3    146
   461    462    463  3    146
   462    464    463  3    146
   463    464    465  3    146
   464    466    465  3    146
   465    466    467  3    146
   466    185    467  3    146
   467    185    184  3    146
   185    157    186  3    147
   186    157    159  3    147
   186    468    184  3    149
   184    468    469  3    149
   468    188    469  3    149
   469    188    187  3    149
   188    191    189  3    151
   189    191    190  3    151
   191    470    192  3    152
   192    470    471  3    152
   470    472    471  3    152
   471    472    473  3    152
   472    474    473  3    152
   473    474    475  3    152
   474    160    475  3    152
   475    160    162  3    152
   192    476    190  3    154
   190    476    477  3    154
   476    478    477  3    154
   477    478    479  3    154
   478    480    479  3    154
   479    480    481  3    154
   480    482    481  3    154
   481    482    483  3    154
   482    484    483  3    154
   483    484    485  3    154
   484    194    485  3    154
   485    194    193  3    154
   194    486    195  3    155
   195    486    487  3    155
   486    488    487  3    155
   487    488    489  3    155
   488    490    489  3    155
   489    490    491  3    155
   490    175    491  3    155
   491    175    177  3    155
   195    197    193  3    157
   193    197    196  3    157
   197    492    198  3    158
   198    492    493  3    158
   492    181    493  3    158
   493    181    183  3    158
   198    495    494  3    159
   494    495    496  3    159
   494    496    196  3    159
   196    496    497  3    159
   495    498    496  3    159
   496    498    499  3    159
   496    499    497  3    159
   497    499    500  3    159
   498    187    499  3    159
   499    187    501  3    159
   499    501    500  3    159
   500    501    189  3    159
   171    502    169  3    160
   169    502    503  3    160
   502    504    503  3    160
   503    504    505  3    160
   504    506    505  3    160
   505    506    507  3    160
   506    508    507  3    160
   507    508    509  3    160
   508    510    509  3    160
   509    510    511  3    160
   510    166    511  3    160
   511    166    168  3    160
   117    512    115  3    161
   115    512    513  3    161
   512    514    513  3    161
   513    514    515  3    161
   514     70    515  3    161
   515     70     72  3    161
   114     82    516  3    162
   516     82    517  3    162
   516    517    112  3    162
   112    517     84  3    162
   111    200    518  3    164
   518    200    519  3    164
   518    519    109  3    164
   109    519    199  3    164
   200    203    201  3    166
   201    203    202  3    166
   203     85    520  3    167
   520     85    521  3    167
   520    521    204  3    167
   204    521     87  3    167
   204    206    202  3    169
   202    206    205  3    169
   206    523    522  3    171
   522    523    524  3    171
   522    524    207  3    171
   207    524    525  3    171
   523    209    524  3    171
   524    209    526  3    171
   524    526    525  3    171
   525    526    208  3    171
   209    527    210  3    173
   210    527    528  3    173
   527    212    528  3    173
   528    212    211  3    173
   212    530    529  3    174
   529    530    531  3    174
   529    531    213  3    174
   213    531    532  3    174
   530     94    531  3    174
   531     94    533  3    174
   531    533    532  3    174
   532    533     96  3    174
   213    534    211  3    176
   211    534    535  3    176
   534    536    535  3    176
   535    536    537  3    176
   536    215    537  3    176
   537    215    214  3    176
   215    106    538  3    177
   538    106    539  3    177
   538    539    216  3    177
   216    539    108  3    177
   216    540    214  3    178
   214    540    541  3    178
   540    208    541  3    178
   541    208    210  3    178
   207    199    205  3    179
   205    199    201  3    179
    93     88    542  3    180
   542     88    543  3    180
   542    543     91  3    180
    91    543     90  3    180
   217    544    218  3    181
   218    544    545  3    181
   544    546    545  3    181
   545    546    547  3    181
   546    548    547  3    181
   547    548    549  3    181
   548    550    549  3    181
   549    550    551  3    181
   550    552    551  3    181
   551    552    553  3    181
   552    217    553  3    181
   553    217    218  3    181
   238      1      2  2      1
   238      2    255  2      1
   238    255      3  2      1
     6      4      5  2      2
     9      7    229  2      4
   229      7      8  2      4
    12     10    234  2      6
   234     10    233  2      6
   234    233     11  2      6
    15     13     14  2      9
   292     16     17  2     11
   292     17    247  2     11
   292    247     18  2     11
    21     19    249  2     13
   249     19    248  2     13
   249    248     20  2     13
   256     22    250  2     15
   256    250    251  2     15
   256    251     24  2     15
   251    250     23  2     15
    27     25    257  2     18
    27    257     26  2     18
    30     28    258  2     20
   258     28     29  2     20
    33     31    262  2     22
    33    262     32  2     22
    36     34    263  2     25
   263     34     35  2     25
   328     37    264  2     27
   328    264     38  2     27
   328     38     39  2     27
   334     40     41  2     29
   334     41    267  2     29
   334    267     42  2     29
   271     43    268  2     31
   271    268     45  2     31
    45    268     44  2     31
    48     46    272  2     34
    48    272    273  2     34
   273    272     47  2     34
   389     49    274  2     36
   389    274     51  2     36
    51    274     50  2     36
   391     52     53  2     38
   391     53    279  2     38
   391    279     54  2     38
   286     55    280  2     40
   286    280    285  2     40
   285    280     56  2     40
   285     56     57  2     40
   412     58    288  2     43
   412    288     60  2     43
    60    288    287  2     43
    60    287     59  2     43
    63     61    289  2     45
   289     61     62  2     45
    66     64    290  2     47
    66    290     65  2     47
    69     67    291  2     49
   291     67     68  2     49
    72     70     71  2     52
   303     73     74  2     54
   303     74     75  2     54
    78     76     77  2     56
    81     79     80  2     59
   517     82    304  2     63
   517    304     83  2     63
   517     83     84  2     63
   521     85    305  2     65
   521    305     87  2     65
   305     85     86  2     65
   543     88    306  2     67
   543    306     89  2     67
   543     89    307  2     67
   543    307     90  2     67
   542     91    317  2     69
   542    317     92  2     69
   542     92    318  2     69
   542    318     93  2     69
   533     94    322  2     71
   533    322    554  2     71
   533    554     96  2     71
    96    554    323  2     71
   323    554    322  2     71
   323    322     95  2     71
   325     97    324  2     73
   325    324     98  2     73
   325     98     99  2     73
   330    100    326  2     76
   330    326    101  2     76
   330    101    329  2     76
   329    101    327  2     76
   329    327    102  2     76
   555    556    557  2     79
   336    103    332  2     79
   336    332    556  2     79
   336    556    335  2     79
   335    556    555  2     79
   335    555    105  2     79
   105    555    333  2     79
   333    555    557  2     79
   333    557    104  2     79
   104    557    331  2     79
   331    557    332  2     79
   332    557    556  2     79
   539    106    346  2     82
   539    346    558  2     82
   539    558    348  2     82
   539    348    108  2     82
   348    558    347  2     82
   347    558    345  2     82
   347    345    107  2     82
   345    558    346  2     82
   518    109    559  2     84
   518    559    111  2     84
   111    559    363  2     84
   363    559    361  2     84
   363    361    110  2     84
   361    559    362  2     84
   362    559    109  2     84
   516    112    364  2     86
   516    364    365  2     86
   516    365    114  2     86
   365    364    113  2     86
   117    115    366  2     88
   117    366    116  2     88
   120    118    119  2     90
   123    121    122  2     92
   126    124    125  2     94
   129    127    128  2     96
   132    130    131  2     98
   453    133    134  2    101
   453    134    135  2    101
   138    136    137  2    103
   390    139    140  2    105
   390    140    385  2    105
   390    385    141  2    105
   144    142    143  2    109
   413    145    406  2    111
   413    406    147  2    111
   406    145    146  2    111
   150    148    410  2    113
   150    410    411  2    113
   411    410    149  2    113
   153    151    414  2    117
   153    414    152  2    117
   423    154    155  2    121
   423    155    156  2    121
   159    157    424  2    124
   159    424    158  2    124
   162    160    161  2    126
   431    163    164  2    128
   431    164    165  2    128
   168    166    432  2    131
   168    432    433  2    131
   433    432    167  2    131
   171    169    444  2    133
   444    169    443  2    133
   444    443    170  2    133
   174    172    445  2    135
   174    445    173  2    135
   177    175    176  2    138
   180    178    452  2    140
   452    178    179  2    140
   183    181    182  2    143
   186    184    185  2    145
   501    187    188  2    148
   501    188    189  2    148
   192    190    191  2    150
   195    193    194  2    153
   494    196    197  2    156
   494    197    198  2    156
   201    199    519  2    163
   201    519    200  2    163
   204    202    520  2    165
   520    202    203  2    165
   207    205    522  2    168
   522    205    206  2    168
   210    208    526  2    170
   210    526    209  2    170
   213    211    529  2    172
   529    211    212  2    172
   216    214    538  2    175
   538    214    215  2    175
   560    563    564  1    182
   561    560    564  1    182
   562    561    564  1    182
   562    564    565  1    182
   564    563    566  1    182
   565    564    566  1    182
   565    566    235  1    182
   565    235     11  1    182
   565     11    562  1    182
   562     11    230  1    182
   562    230      8  1    182
   562      8    561  1    182
   561      8    227  1    182
   561    227    560  1    182
   560    227    225  1    182
   560    225      5  1    182
   560      5    223  1    182
   560    223    563  1    182
   563    223    221  1    182
   563    221    566  1    182
   566    221    219  1    182
   566    219      1  1    182
   566      1    235  1    182
   568    567    570  1    183
   567    569    570  1    183
   570    569    220  1    183
   570    220    222  1    183
   570    222    568  1    183
   568    222    224  1    183
   568    224     32  1    183
   568     32    259  1    183
   568    259    567  1    183
   567    259     29  1    183
   567     29    569  1    183
   569     29     26  1    183
   569     26     24  1    183
   569     24    254  1    183
   569    254    220  1    183
   220    254      2  1    183
    32    224      4  1    183
   269     44     41  1    184
   269     41    265  1    184
   269    265    228  1    184
   269    228      7  1    184
   228    265    226  1    184
   226    265     38  1    184
   226     38      6  1    184
     6     38     35  1    184
     6     35     33  1    184
    10     13    232  1    185
   232     13    283  1    185
   232    283    277  1    185
   232    277      9  1    185
     9    277    275  1    185
     9    275    270  1    185
   270    275     50  1    185
   270     50     45  1    185
    45     50     47  1    185
   277    283     53  1    185
    53    283    281  1    185
    53    281     56  1    185
   572    571    574  1    186
   572    574    252  1    186
   572    252     23  1    186
   572     23     20  1    186
   572     20    571  1    186
   571     20    245  1    186
   571    245    243  1    186
   571    243    574  1    186
   574    243    573  1    186
   574    573      3  1    186
   574      3    252  1    186
     3    573    237  1    186
   237    573    239  1    186
   237    239     14  1    186
   237     14     12  1    186
   239    573    241  1    186
   241    573    243  1    186
   245     20     17  1    186
   575    578    579  1    187
   576    575    579  1    187
   577    576    579  1    187
   577    579    244  1    187
   577    244    246  1    187
   577    246     65  1    187
   577     65     62  1    187
   577     62    576  1    187
   576     62     59  1    187
   576     59    575  1    187
   575     59     57  1    187
   575     57    282  1    187
   575    282    578  1    187
   578    282    284  1    187
   578    284    240  1    187
   578    240    242  1    187
   578    242    579  1    187
   579    242    244  1    187
   240    284     15  1    187
    65    246     68  1    187
    68    246     16  1    187
   301     77    299  1    188
   301    299    297  1    188
   301    297    580  1    188
   301    580     71  1    188
   301     71     69  1    188
   301     69     18  1    188
   301     18     19  1    188
    71    580    293  1    188
   293    580    295  1    188
   293    295     74  1    188
   295    580    297  1    188
    22     25    581  1    189
    22    581     21  1    189
    21    581    302  1    189
   302    581    582  1    189
   302    582     78  1    189
    78    582     80  1    189
    80    582     25  1    189
    25    582    581  1    189
    28     81     27  1    190
   585    584    586  1    191
   585    586    587  1    191
   585    587     98  1    191
   585     98     95  1    191
   585     95    319  1    191
   585    319    584  1    191
   584    319     92  1    191
   584     92    314  1    191
   584    314    586  1    191
   586    314     30  1    191
   586     30    261  1    191
   586    261    587  1    191
   587    261     31  1    191
   587     31     34  1    191
   587     34     98  1    191
    30    314    311  1    191
    30    311     79  1    191
    79    311     76  1    191
    76    311    308  1    191
    76    308    300  1    191
   300    308    298  1    191
   298    308    583  1    191
   298    583    296  1    191
   296    583     86  1    191
   296     86     75  1    191
    75     86     83  1    191
    86    583     89  1    191
    89    583    308  1    191
    37    101     99  1    192
    37     99     36  1    192
    40    104    588  1    193
    40    588    266  1    193
   266    588    102  1    193
   266    102     39  1    193
   102    588    104  1    193
    43     46    131  1    194
    43    131    128  1    194
    43    128     42  1    194
    42    128    381  1    194
    42    381    105  1    194
   105    381    337  1    194
   337    381    379  1    194
   337    379    377  1    194
   337    377    341  1    194
   341    377    375  1    194
   341    375    107  1    194
   107    375    373  1    194
   107    373    349  1    194
   349    373    371  1    194
   349    371    353  1    194
   353    371    369  1    194
   353    369    367  1    194
   353    367    357  1    194
   357    367    589  1    194
   357    589    590  1    194
   357    590    110  1    194
   110    590    116  1    194
   110    116    113  1    194
   116    590    119  1    194
   119    590    122  1    194
   122    590    589  1    194
   122    589    125  1    194
   125    589    367  1    194
   386    140    137  1    195
   386    137    134  1    195
   386    134    383  1    195
   386    383     49  1    195
    49    383    132  1    195
    49    132     48  1    195
    52    141    278  1    196
   278    141    388  1    196
   278    388    276  1    196
   276    388     51  1    196
    55     58    398  1    197
    55    398    396  1    197
    55    396    394  1    197
    55    394     54  1    197
    54    394    392  1    197
    54    392    139  1    197
   139    392    138  1    197
   398     58    592  1    197
   398    592    400  1    197
   400    592    591  1    197
   400    591    402  1    197
   402    591    407  1    197
   402    407    404  1    197
   404    407    146  1    197
   404    146    143  1    197
   407    591    149  1    197
   149    591    592  1    197
   149    592     58  1    197
    61    150     60  1    198
   415    152    147  1    199
   415    147    593  1    199
   415    593    594  1    199
   415    594    417  1    199
   417    594     64  1    199
    64    594    593  1    199
    64    593     63  1    199
    63    593    148  1    199
   148    593    409  1    199
   409    593    147  1    199
   596    595    597  1    200
   596    597    512  1    200
   596    512    117  1    200
   596    117    118  1    200
   596    118    595  1    200
   595    118    419  1    200
   595    419    416  1    200
   595    416    597  1    200
   597    416    514  1    200
   597    514    512  1    200
   514    416    598  1    200
   514    598     70  1    200
    70    598     67  1    200
    67    598    418  1    200
    67    418     66  1    200
   418    598    416  1    200
   416    419    153  1    200
    73     82    513  1    201
    73    513    294  1    201
   294    513    515  1    201
   294    515     72  1    201
   513     82    114  1    201
   513    114    115  1    201
    85    203     84  1    202
    84    203    200  1    202
    84    200    112  1    202
   112    200    111  1    202
   600    599    603  1    203
   600    603    604  1    203
   601    605    606  1    203
   599    601    606  1    203
   599    606    602  1    203
   599    602    603  1    203
   603    602    608  1    203
   603    608    609  1    203
   604    603    609  1    203
   605    610    611  1    203
   606    605    611  1    203
   602    606    611  1    203
   602    611    607  1    203
   602    607    608  1    203
   608    607    612  1    203
   608    612    613  1    203
   609    608    613  1    203
   609    613    614  1    203
   607    611    612  1    203
   612    611     93  1    203
   612     93    613  1    203
   613     93    321  1    203
   613    321    614  1    203
   614    321     94  1    203
   614     94    530  1    203
   614    530    609  1    203
   609    530    212  1    203
   609    212    604  1    203
   604    212    527  1    203
   604    527    600  1    203
   600    527    209  1    203
   600    209    599  1    203
   599    209    523  1    203
   599    523    601  1    203
   601    523    206  1    203
   601    206    605  1    203
   605    206    204  1    203
   605    204     87  1    203
   605     87    610  1    203
   610     87     88  1    203
   610     88     93  1    203
   610     93    611  1    203
   616    615    617  1    204
   616    617    316  1    204
   616    316     91  1    204
   616     91    615  1    204
   615     91     90  1    204
   615     90    310  1    204
   615    310    617  1    204
   617    310    313  1    204
   617    313    316  1    204
   618    621    622  1    205
   619    618    622  1    205
   619    622    623  1    205
   620    624    625  1    205
   621    620    625  1    205
   621    625    626  1    205
   622    621    626  1    205
   622    626    627  1    205
   623    622    627  1    205
   625    624    628  1    205
   625    628    629  1    205
   626    625    629  1    205
   626    629    630  1    205
   627    626    630  1    205
   627    630    103  1    205
   627    103    340  1    205
   627    340    623  1    205
   623    340    344  1    205
   623    344    619  1    205
   619    344    106  1    205
   619    106    215  1    205
   619    215    618  1    205
   618    215    536  1    205
   618    536    621  1    205
   621    536    620  1    205
   620    536    534  1    205
   620    534    213  1    205
   620    213    624  1    205
   624    213    532  1    205
   624    532    628  1    205
   628    532     96  1    205
   628     96     97  1    205
   628     97    629  1    205
   629     97    100  1    205
   629    100    630  1    205
   630    100    103  1    205
   631    632    633  1    206
   631    633    634  1    206
   631    634    635  1    206
   631    635    636  1    206
   631    636    637  1    206
   631    637    632  1    206
   633    632    639  1    206
   633    639    640  1    206
   633    640    641  1    206
   634    633    641  1    206
   634    641    642  1    206
   636    643    644  1    206
   637    636    644  1    206
   637    644    645  1    206
   637    645    646  1    206
   632    637    646  1    206
   632    646    638  1    206
   632    638    639  1    206
   644    643    647  1    206
   644    647    648  1    206
   645    644    648  1    206
   645    648    649  1    206
   646    645    649  1    206
   646    649    525  1    206
   646    525    638  1    206
   638    525    208  1    206
   638    208    639  1    206
   639    208    540  1    206
   639    540    640  1    206
   640    540    216  1    206
   640    216    641  1    206
   641    216    642  1    206
   642    216    108  1    206
   642    108    352  1    206
   642    352    635  1    206
   642    635    634  1    206
   635    352    356  1    206
   635    356    643  1    206
   635    643    636  1    206
   643    356    360  1    206
   643    360    647  1    206
   647    360    109  1    206
   647    109    199  1    206
   647    199    648  1    206
   648    199    649  1    206
   649    199    207  1    206
   649    207    525  1    206
   421    155    144  1    207
   421    144    420  1    207
   421    420    120  1    207
   421    120    121  1    207
   420    144    151  1    207
   151    144    145  1    207
   429    164    161  1    208
   429    161    427  1    208
   429    427    650  1    208
   429    650    124  1    208
   124    650    123  1    208
   123    650    422  1    208
   422    650    425  1    208
   422    425    158  1    208
   422    158    156  1    208
   425    650    427  1    208
   652    651    654  1    209
   652    654    655  1    209
   656    657    658  1    209
   658    657    659  1    209
   658    659    170  1    209
   658    170    440  1    209
   658    440    656  1    209
   656    440    437  1    209
   656    437    655  1    209
   656    655    374  1    209
   656    374    376  1    209
   656    376    657  1    209
   657    376    378  1    209
   657    378    659  1    209
   659    378    380  1    209
   659    380    382  1    209
   659    382    446  1    209
   659    446    173  1    209
   659    173    170  1    209
   446    382    127  1    209
   374    655    654  1    209
   374    654    372  1    209
   372    654    651  1    209
   372    651    370  1    209
   370    651    368  1    209
   368    651    653  1    209
   368    653    126  1    209
   126    653    430  1    209
   430    653    165  1    209
   165    653    167  1    209
   167    653    651  1    209
   167    651    652  1    209
   167    652    434  1    209
   434    652    655  1    209
   434    655    437  1    209
   384    133    179  1    210
   384    179    450  1    210
   384    450    660  1    210
   384    660    130  1    210
   130    660    129  1    210
   129    660    447  1    210
   447    660    448  1    210
   447    448    176  1    210
   447    176    174  1    210
   448    660    450  1    210
   661    663    664  1    211
   661    664    665  1    211
   662    666    667  1    211
   663    662    667  1    211
   663    667    668  1    211
   663    668    669  1    211
   664    663    669  1    211
   669    668    670  1    211
   669    670    671  1    211
   671    670    673  1    211
   674    677    678  1    211
   675    674    678  1    211
   675    678    679  1    211
   676    675    679  1    211
   676    679    680  1    211
   678    677    681  1    211
   679    678    681  1    211
   679    681    682  1    211
   680    679    682  1    211
   680    682    544  1    211
   680    544    676  1    211
   676    544    217  1    211
   676    217    672  1    211
   676    672    456  1    211
   676    456    675  1    211
   675    456    454  1    211
   675    454    674  1    211
   674    454    182  1    211
   674    182    180  1    211
   674    180    677  1    211
   677    180    135  1    211
   677    135    136  1    211
   677    136    393  1    211
   677    393    681  1    211
   681    393    395  1    211
   681    395    682  1    211
   682    395    683  1    211
   682    683    544  1    211
   544    683    546  1    211
   546    683    397  1    211
   546    397    399  1    211
   546    399    548  1    211
   548    399    673  1    211
   548    673    670  1    211
   548    670    550  1    211
   550    670    668  1    211
   550    668    667  1    211
   550    667    666  1    211
   550    666    552  1    211
   552    666    462  1    211
   552    462    460  1    211
   552    460    217  1    211
   217    460    458  1    211
   217    458    672  1    211
   672    458    456  1    211
   462    666    464  1    211
   464    666    662  1    211
   464    662    466  1    211
   466    662    663  1    211
   466    663    661  1    211
   466    661    185  1    211
   185    661    157  1    211
   157    661    665  1    211
   157    665    154  1    211
   154    665    142  1    211
   142    665    405  1    211
   405    665    664  1    211
   405    664    669  1    211
   405    669    671  1    211
   405    671    403  1    211
   403    671    401  1    211
   401    671    673  1    211
   401    673    399  1    211
   397    683    395  1    211
   470    191    468  1    212
   470    468    684  1    212
   470    684    472  1    212
   472    684    474  1    212
   474    684    428  1    212
   474    428    160  1    212
   428    684    426  1    212
   426    684    186  1    212
   426    186    159  1    212
   186    684    468  1    212
   468    191    188  1    212
   685    687    688  1    213
   690    691    692  1    213
   690    692    484  1    213
   690    484    482  1    213
   690    482    689  1    213
   690    689    504  1    213
   690    504    502  1    213
   690    502    691  1    213
   691    502    175  1    213
   691    175    490  1    213
   691    490    488  1    213
   691    488    692  1    213
   692    488    486  1    213
   692    486    484  1    213
   484    486    194  1    213
   175    502    172  1    213
   172    502    171  1    213
   504    689    506  1    213
   506    689    480  1    213
   506    480    686  1    213
   506    686    508  1    213
   508    686    685  1    213
   508    685    510  1    213
   510    685    688  1    213
   510    688    162  1    213
   510    162    163  1    213
   510    163    166  1    213
   162    688    475  1    213
   475    688    473  1    213
   473    688    687  1    213
   473    687    471  1    213
   471    687    476  1    213
   471    476    192  1    213
   476    687    478  1    213
   478    687    685  1    213
   478    685    686  1    213
   478    686    480  1    213
   480    689    482  1    213
   511    168    693  1    214
   511    693    694  1    214
   511    694    509  1    214
   509    694    507  1    214
   507    694    695  1    214
   507    695    505  1    214
   505    695    503  1    214
   503    695    442  1    214
   503    442    169  1    214
   442    695    439  1    214
   439    695    694  1    214
   439    694    436  1    214
   436    694    693  1    214
   436    693    168  1    214
   178    181    451  1    215
   451    181    696  1    215
   451    696    449  1    215
   449    696    491  1    215
   449    491    177  1    215
   491    696    489  1    215
   489    696    487  1    215
   487    696    492  1    215
   487    492    195  1    215
   195    492    197  1    215
   492    696    181  1    215
   699    701    702  1    216
   699    702    700  1    216
   699    700    698  1    216
   699    698    498  1    216
   699    498    495  1    216
   699    495    701  1    216
   701    495    198  1    216
   701    198    493  1    216
   701    493    455  1    216
   701    455    457  1    216
   701    457    702  1    216
   702    457    459  1    216
   702    459    461  1    216
   702    461    700  1    216
   700    461    463  1    216
   700    463    698  1    216
   698    463    465  1    216
   698    465    697  1    216
   698    697    187  1    216
   698    187    498  1    216
   187    697    469  1    216
   469    697    467  1    216
   469    467    184  1    216
   467    697    465  1    216
   455    493    183  1    216
   703    705    706  1    217
   705    704    707  1    217
   705    707    708  1    217
   705    708    706  1    217
   706    708    500  1    217
   706    500    189  1    217
   706    189    190  1    217
   706    190    477  1    217
   706    477    703  1    217
   703    477    479  1    217
   703    479    704  1    217
   703    704    705  1    217
   704    479    481  1    217
   704    481    483  1    217
   704    483    707  1    217
   707    483    485  1    217
   707    485    193  1    217
   707    193    708  1    217
   708    193    196  1    217
   708    196    497  1    217
   708    497    500  1    217
   202    205    201  1    218
   537    214    541  1    219
   537    541    535  1    219
   535    541    528  1    219
   535    528    211  1    219
   528    541    210  1    219
   709    710    711  1    220
   709    711    549  1    220
   709    549    551  1    220
   709    551    553  1    220
   709    553    710  1    220
   710    553    218  1    220
   710    218    545  1    220
   710    545    711  1    220
   711    545    547  1    220
   711    547    549  1    220
