# MSMS solvent excluded surface faces for fragments/fragment211.xyzr
#faces  #sphere density probe_r
   2374      66  3.00  1.50
     1      5    399  3      3
   399      5    400  3      3
   399    400      2  3      3
     2    400      4  3      3
     5      8    401  3      5
   401      8    402  3      5
   401    402      6  3      5
     6    402      7  3      5
     8     11    403  3      7
   403     11    404  3      7
   403    404      9  3      7
     9    404     10  3      7
    11     14    405  3      9
   405     14    406  3      9
   405    406     12  3      9
    12    406     13  3      9
    14     17    407  3     11
   407     17    408  3     11
   407    408     15  3     11
    15    408     16  3     11
    17    409     18  3     12
    18    409    410  3     12
   409    411    410  3     12
   410    411    412  3     12
   411    413    412  3     12
   412    413    414  3     12
   413      1    414  3     12
   414      1      3  3     12
    18    416    415  3     14
   415    416    417  3     14
   415    417     16  3     14
    16    417    418  3     14
   416    419    417  3     14
   417    419    420  3     14
   417    420    418  3     14
   418    420    421  3     14
   419     20    420  3     14
   420     20    422  3     14
   420    422    421  3     14
   421    422     19  3     14
    20    423     21  3     16
    21    423    424  3     16
   423    425    424  3     16
   424    425    426  3     16
   425    427    426  3     16
   426    427    428  3     16
   427     23    428  3     16
   428     23     22  3     16
    23     26     24  3     18
    24     26     25  3     18
    26      3    429  3     19
   429      3    430  3     19
   429    430     27  3     19
    27    430      2  3     19
    27     29     25  3     21
    25     29     28  3     21
    29     32    431  3     23
   431     32    432  3     23
   431    432     30  3     23
    30    432     31  3     23
    32     35    433  3     25
   433     35    435  3     25
   433    435    434  3     25
   434    435    436  3     25
   434    436     33  3     25
    33    436     34  3     25
    35     38    437  3     27
   437     38    439  3     27
   437    439    438  3     27
   438    439    440  3     27
   438    440     36  3     27
    36    440     37  3     27
    38      4     39  3     28
    39      4      6  3     28
    39     41    441  3     30
   441     41    443  3     30
   441    443    442  3     30
   442    443    444  3     30
   442    444     37  3     30
    37    444     40  3     30
    41     44    445  3     32
   445     44    447  3     32
   445    447    446  3     32
   446    447    448  3     32
   446    448     42  3     32
    42    448     43  3     32
    44     47    449  3     34
   449     47    451  3     34
   449    451    450  3     34
   450    451    452  3     34
   450    452     45  3     34
    45    452     46  3     34
    47     50    453  3     36
   453     50    455  3     36
   453    455    454  3     36
   454    455    456  3     36
   454    456     48  3     36
    48    456     49  3     36
    50     53     51  3     38
    51     53     52  3     38
    53      7     54  3     39
    54      7      9  3     39
    54     56     52  3     41
    52     56     55  3     41
    56     59    457  3     43
   457     59    459  3     43
   457    459    458  3     43
   458    459    460  3     43
   458    460     57  3     43
    57    460     58  3     43
    59     62    461  3     45
   461     62    463  3     45
   461    463    462  3     45
   462    463    464  3     45
   462    464     60  3     45
    60    464     61  3     45
    62    465     63  3     47
    63    465    466  3     47
   465     65    466  3     47
   466     65     64  3     47
    65     10     66  3     48
    66     10     12  3     48
    66     68     64  3     50
    64     68     67  3     50
    68     71     69  3     52
    69     71     70  3     52
    71     13    467  3     53
   467     13    468  3     53
   467    468     72  3     53
    72    468     15  3     53
    72     74    469  3     55
   469     74    470  3     55
   469    470     70  3     55
    70    470     73  3     55
    74    471     75  3     57
    75    471    472  3     57
   471    473    472  3     57
   472    473    474  3     57
   473    475    474  3     57
   474    475    476  3     57
   475    477    476  3     57
   476    477    478  3     57
   477     77    478  3     57
   478     77     76  3     57
    77     19    479  3     58
   479     19    480  3     58
   479    480     78  3     58
    78    480     21  3     58
    78     80    481  3     60
   481     80    482  3     60
   481    482     76  3     60
    76    482     79  3     60
    80    483     81  3     62
    81    483    484  3     62
   483    485    484  3     62
   484    485    486  3     62
   485     83    486  3     62
   486     83     82  3     62
    83     86    487  3     64
   487     86    488  3     64
   487    488     84  3     64
    84    488     85  3     64
    86    489     87  3     66
    87    489    490  3     66
   489    491    490  3     66
   490    491    492  3     66
   491     89    492  3     66
   492     89     88  3     66
    89    494    493  3     68
   493    494    495  3     68
   493    495     90  3     68
    90    495    496  3     68
   494     92    495  3     68
   495     92    497  3     68
   495    497    496  3     68
   496    497     91  3     68
    92     22     93  3     69
    93     22     24  3     69
    93     28    498  3     70
   498     28    499  3     70
   498    499     91  3     70
    91    499     30  3     70
    90     95    500  3     72
   500     95    501  3     72
   500    501     88  3     72
    88    501     94  3     72
    95    502     96  3     74
    96    502    503  3     74
   502    504    503  3     74
   503    504    505  3     74
   504    506    505  3     74
   505    506    507  3     74
   506     98    507  3     74
   507     98     97  3     74
    98    101    508  3     76
   508    101    510  3     76
   508    510    509  3     76
   509    510    511  3     76
   509    511     99  3     76
    99    511    100  3     76
   101     31    512  3     77
   512     31    514  3     77
   512    514    513  3     77
   513    514    515  3     77
   513    515    102  3     77
   102    515     33  3     77
   102    516    100  3     79
   100    516    517  3     79
   516    518    517  3     79
   517    518    519  3     79
   518    520    519  3     79
   519    520    521  3     79
   520    104    521  3     79
   521    104    103  3     79
   104    107    522  3     81
   522    107    523  3     81
   522    523    105  3     81
   105    523    106  3     81
   107    110    108  3     83
   108    110    109  3     83
   110    524    111  3     85
   111    524    525  3     85
   524    526    525  3     85
   525    526    527  3     85
   526    528    527  3     85
   527    528    529  3     85
   528    113    529  3     85
   529    113    112  3     85
   113    530    114  3     86
   114    530    531  3     86
   530    532    531  3     86
   531    532    533  3     86
   532    534    533  3     86
   533    534    535  3     86
   534     34    535  3     86
   535     34     36  3     86
   114    116    112  3     88
   112    116    115  3     88
   116    537    536  3     89
   536    537    538  3     89
   536    538    117  3     89
   117    538    539  3     89
   537     40    538  3     89
   538     40    540  3     89
   538    540    539  3     89
   539    540     42  3     89
   117    541    115  3     91
   115    541    542  3     91
   541    119    542  3     91
   542    119    118  3     91
   119    122    120  3     93
   120    122    121  3     93
   122    544    543  3     95
   543    544    545  3     95
   543    545    123  3     95
   123    545    546  3     95
   544    125    545  3     95
   545    125    547  3     95
   545    547    546  3     95
   546    547    124  3     95
   125    128    548  3     97
   548    128    549  3     97
   548    549    126  3     97
   126    549    127  3     97
   128    131    550  3     99
   550    131    552  3     99
   550    552    551  3     99
   551    552    553  3     99
   551    553    129  3     99
   129    553    130  3     99
   131     43    554  3    100
   554     43    555  3    100
   554    555    132  3    100
   132    555     45  3    100
   132     46    130  3    101
   130     46     48  3    101
   129    134    127  3    103
   127    134    133  3    103
   134    137    556  3    105
   556    137    557  3    105
   556    557    135  3    105
   135    557    136  3    105
   137    140    138  3    107
   138    140    139  3    107
   140    143    558  3    109
   558    143    559  3    109
   558    559    141  3    109
   141    559    142  3    109
   143    146    560  3    111
   560    146    561  3    111
   560    561    144  3    111
   144    561    145  3    111
   146    562    147  3    112
   147    562    563  3    112
   562    564    563  3    112
   563    564    565  3    112
   564     58    565  3    112
   565     58     60  3    112
   147    149    566  3    114
   566    149    567  3    114
   566    567    145  3    114
   145    567    148  3    114
   149    152    568  3    116
   568    152    569  3    116
   568    569    150  3    116
   150    569    151  3    116
   152    571    570  3    118
   570    571    572  3    118
   570    572    153  3    118
   153    572    573  3    118
   571    155    572  3    118
   572    155    574  3    118
   572    574    573  3    118
   573    574    154  3    118
   155     61    575  3    119
   575     61    576  3    119
   575    576    156  3    119
   156    576     63  3    119
   156    577    154  3    121
   154    577    578  3    121
   577    158    578  3    121
   578    158    157  3    121
   158    161    579  3    123
   579    161    580  3    123
   579    580    159  3    123
   159    580    160  3    123
   161    582    581  3    125
   581    582    583  3    125
   581    583    162  3    125
   162    583    584  3    125
   582    164    583  3    125
   583    164    585  3    125
   583    585    584  3    125
   584    585    163  3    125
   164    586    165  3    127
   165    586    587  3    127
   586    167    587  3    127
   587    167    166  3    127
   167    170    588  3    129
   588    170    589  3    129
   588    589    168  3    129
   168    589    169  3    129
   170     67    171  3    130
   171     67     69  3    130
   171     73    590  3    131
   590     73    591  3    131
   590    591    169  3    131
   169    591     75  3    131
   168    173    592  3    133
   592    173    593  3    133
   592    593    166  3    133
   166    593    172  3    133
   173    176    594  3    135
   594    176    595  3    135
   594    595    174  3    135
   174    595    175  3    135
   176    596    177  3    136
   177    596    597  3    136
   596    598    597  3    136
   597    598    599  3    136
   598    600    599  3    136
   599    600    601  3    136
   600     79    601  3    136
   601     79     81  3    136
   177    179    175  3    138
   175    179    178  3    138
   179    182    602  3    140
   602    182    603  3    140
   602    603    180  3    140
   180    603    181  3    140
   182    604    183  3    142
   183    604    605  3    142
   604    185    605  3    142
   605    185    184  3    142
   185    188    606  3    144
   606    188    607  3    144
   606    607    186  3    144
   186    607    187  3    144
   188     82    608  3    145
   608     82    610  3    145
   608    610    609  3    145
   609    610    611  3    145
   609    611    189  3    145
   189    611     84  3    145
   189    191    187  3    147
   187    191    190  3    147
   191    194    192  3    149
   192    194    193  3    149
   194    612    195  3    151
   195    612    613  3    151
   612    614    613  3    151
   613    614    615  3    151
   614    616    615  3    151
   615    616    617  3    151
   616    618    617  3    151
   617    618    619  3    151
   618    197    619  3    151
   619    197    196  3    151
   197     97    620  3    152
   620     97    622  3    152
   620    622    621  3    152
   621    622    623  3    152
   621    623    198  3    152
   198    623     99  3    152
   198    200    624  3    154
   624    200    626  3    154
   624    626    625  3    154
   625    626    627  3    154
   625    627    196  3    154
   196    627    199  3    154
   200    629    628  3    155
   628    629    630  3    155
   628    630    201  3    155
   201    630    631  3    155
   629    632    630  3    155
   630    632    633  3    155
   630    633    631  3    155
   631    633    634  3    155
   632    103    633  3    155
   633    103    635  3    155
   633    635    634  3    155
   634    635    105  3    155
   201    203    636  3    157
   636    203    638  3    157
   636    638    637  3    157
   637    638    639  3    157
   637    639    199  3    157
   199    639    202  3    157
   203    206    640  3    159
   640    206    642  3    159
   640    642    641  3    159
   641    642    643  3    159
   641    643    204  3    159
   204    643    205  3    159
   206    209    207  3    161
   207    209    208  3    161
   209    212    644  3    163
   644    212    645  3    163
   644    645    210  3    163
   210    645    211  3    163
   212    215    213  3    165
   213    215    214  3    165
   215    106    216  3    166
   216    106    108  3    166
   216    646    214  3    168
   214    646    647  3    168
   646    218    647  3    168
   647    218    217  3    168
   218    648    219  3    169
   219    648    649  3    169
   648    109    649  3    169
   649    109    111  3    169
   219    221    217  3    171
   217    221    220  3    171
   221    224    650  3    173
   650    224    651  3    173
   650    651    222  3    173
   222    651    223  3    173
   224    118    225  3    174
   225    118    120  3    174
   225    652    223  3    176
   223    652    653  3    176
   652    227    653  3    176
   653    227    226  3    176
   227    230    228  3    178
   228    230    229  3    178
   230    233    231  3    180
   231    233    232  3    180
   233    121    654  3    181
   654    121    655  3    181
   654    655    234  3    181
   234    655    123  3    181
   234    656    232  3    182
   232    656    657  3    182
   656    136    657  3    182
   657    136    138  3    182
   231    236    229  3    184
   229    236    235  3    184
   236    658    237  3    186
   237    658    659  3    186
   658    239    659  3    186
   659    239    238  3    186
   239    660    240  3    187
   240    660    661  3    187
   660    139    661  3    187
   661    139    141  3    187
   240    242    238  3    189
   238    242    241  3    189
   242    662    243  3    191
   243    662    663  3    191
   662    664    663  3    191
   663    664    665  3    191
   664    245    665  3    191
   665    245    244  3    191
   245    666    246  3    192
   246    666    667  3    192
   666    142    667  3    192
   667    142    144  3    192
   246    248    244  3    194
   244    248    247  3    194
   248    251    249  3    196
   249    251    250  3    196
   251    148    668  3    197
   668    148    669  3    197
   668    669    252  3    197
   252    669    150  3    197
   252    254    250  3    199
   250    254    253  3    199
   254    257    670  3    201
   670    257    671  3    201
   670    671    255  3    201
   255    671    256  3    201
   257    260    672  3    203
   672    260    673  3    203
   672    673    258  3    203
   258    673    259  3    203
   260    675    674  3    204
   674    675    676  3    204
   674    676    261  3    204
   261    676    677  3    204
   675    160    676  3    204
   676    160    678  3    204
   676    678    677  3    204
   677    678    162  3    204
   261    263    679  3    206
   679    263    682  3    206
   679    682    680  3    206
   680    682    683  3    206
   680    683    681  3    206
   681    683    684  3    206
   681    684    259  3    206
   259    684    262  3    206
   263    266    264  3    208
   264    266    265  3    208
   266    269    685  3    210
   685    269    686  3    210
   685    686    267  3    210
   267    686    268  3    210
   269    687    270  3    212
   270    687    688  3    212
   687    272    688  3    212
   688    272    271  3    212
   272    275    689  3    214
   689    275    690  3    214
   689    690    273  3    214
   273    690    274  3    214
   275    692    691  3    215
   691    692    693  3    215
   691    693    276  3    215
   276    693    694  3    215
   692    163    693  3    215
   693    163    695  3    215
   693    695    694  3    215
   694    695    165  3    215
   276    172    274  3    216
   274    172    174  3    216
   273    278    696  3    218
   696    278    697  3    218
   696    697    271  3    218
   271    697    277  3    218
   278    178    279  3    219
   279    178    180  3    219
   279    281    277  3    221
   277    281    280  3    221
   281    284    698  3    223
   698    284    699  3    223
   698    699    282  3    223
   282    699    283  3    223
   284    287    700  3    225
   700    287    701  3    225
   700    701    285  3    225
   285    701    286  3    225
   287    181    702  3    226
   702    181    703  3    226
   702    703    288  3    226
   288    703    183  3    226
   288    705    704  3    227
   704    705    706  3    227
   704    706    286  3    227
   286    706    707  3    227
   705    184    706  3    227
   706    184    708  3    227
   706    708    707  3    227
   707    708    186  3    227
   285    290    709  3    229
   709    290    711  3    229
   709    711    710  3    229
   710    711    712  3    229
   710    712    283  3    229
   283    712    289  3    229
   290    713    291  3    231
   291    713    714  3    231
   713    715    714  3    231
   714    715    716  3    231
   715    293    716  3    231
   716    293    292  3    231
   293    190    294  3    232
   294    190    192  3    232
   294    717    292  3    234
   292    717    718  3    234
   717    719    718  3    234
   718    719    720  3    234
   719    296    720  3    234
   720    296    295  3    234
   296    721    297  3    236
   297    721    722  3    236
   721    723    722  3    236
   722    723    724  3    236
   723    725    724  3    236
   724    725    726  3    236
   725    299    726  3    236
   726    299    298  3    236
   299    727    300  3    237
   300    727    728  3    237
   727    193    728  3    237
   728    193    195  3    237
   300    302    298  3    239
   298    302    301  3    239
   302    730    729  3    240
   729    730    731  3    240
   729    731    303  3    240
   303    731    732  3    240
   730    202    731  3    240
   731    202    733  3    240
   731    733    732  3    240
   732    733    204  3    240
   303    734    301  3    242
   301    734    735  3    242
   734    736    735  3    242
   735    736    737  3    242
   736    305    737  3    242
   737    305    304  3    242
   305    739    738  3    244
   738    739    740  3    244
   738    740    306  3    244
   306    740    741  3    244
   739    308    740  3    244
   740    308    742  3    244
   740    742    741  3    244
   741    742    307  3    244
   308    205    743  3    245
   743    205    744  3    245
   743    744    309  3    245
   309    744    207  3    245
   309    208    307  3    246
   307    208    210  3    246
   306    311    745  3    248
   745    311    746  3    248
   745    746    304  3    248
   304    746    310  3    248
   311    314    747  3    250
   747    314    749  3    250
   747    749    748  3    250
   748    749    750  3    250
   748    750    312  3    250
   312    750    313  3    250
   314    752    751  3    252
   751    752    753  3    252
   751    753    315  3    252
   315    753    754  3    252
   752    317    753  3    252
   753    317    755  3    252
   753    755    754  3    252
   754    755    316  3    252
   317    756    318  3    253
   318    756    757  3    253
   756    758    757  3    253
   757    758    759  3    253
   758    760    759  3    253
   759    760    761  3    253
   760    211    761  3    253
   761    211    213  3    253
   318    320    762  3    255
   762    320    763  3    255
   762    763    316  3    255
   316    763    319  3    255
   320    764    321  3    256
   321    764    765  3    256
   764    766    765  3    256
   765    766    767  3    256
   766    220    767  3    256
   767    220    222  3    256
   321    768    319  3    258
   319    768    769  3    258
   768    323    769  3    258
   769    323    322  3    258
   323    226    324  3    259
   324    226    228  3    259
   324    770    322  3    261
   322    770    771  3    261
   770    772    771  3    261
   771    772    773  3    261
   772    774    773  3    261
   773    774    775  3    261
   774    776    775  3    261
   775    776    777  3    261
   776    778    777  3    261
   777    778    779  3    261
   778    780    779  3    261
   779    780    781  3    261
   780    326    781  3    261
   781    326    325  3    261
   326    329    782  3    263
   782    329    784  3    263
   782    784    783  3    263
   783    784    785  3    263
   783    785    327  3    263
   327    785    328  3    263
   329    332    786  3    265
   786    332    788  3    265
   786    788    787  3    265
   787    788    789  3    265
   787    789    330  3    265
   330    789    331  3    265
   332    335    790  3    267
   790    335    793  3    267
   790    793    791  3    267
   791    793    794  3    267
   791    794    792  3    267
   792    794    795  3    267
   792    795    333  3    267
   333    795    334  3    267
   335    338    796  3    269
   796    338    797  3    269
   796    797    336  3    269
   336    797    337  3    269
   338    801    798  3    271
   798    801    802  3    271
   798    802    799  3    271
   799    802    803  3    271
   799    803    800  3    271
   800    803    804  3    271
   800    804    339  3    271
   339    804    805  3    271
   801    806    802  3    271
   802    806    807  3    271
   802    807    803  3    271
   803    807    808  3    271
   803    808    804  3    271
   804    808    809  3    271
   804    809    805  3    271
   805    809    810  3    271
   806    811    807  3    271
   807    811    812  3    271
   807    812    808  3    271
   808    812    813  3    271
   808    813    809  3    271
   809    813    814  3    271
   809    814    810  3    271
   810    814    815  3    271
   811    341    812  3    271
   812    341    816  3    271
   812    816    813  3    271
   813    816    817  3    271
   813    817    814  3    271
   814    817    818  3    271
   814    818    815  3    271
   815    818    340  3    271
   341    344    819  3    273
   819    344    821  3    273
   819    821    820  3    273
   820    821    822  3    273
   820    822    342  3    273
   342    822    343  3    273
   344    347    823  3    275
   823    347    825  3    275
   823    825    824  3    275
   824    825    826  3    275
   824    826    345  3    275
   345    826    346  3    275
   347    235    827  3    276
   827    235    828  3    276
   827    828    348  3    276
   348    828    237  3    276
   348    241    346  3    277
   346    241    243  3    277
   345    830    829  3    279
   829    830    831  3    279
   829    831    343  3    279
   343    831    832  3    279
   830    350    831  3    279
   831    350    833  3    279
   831    833    832  3    279
   832    833    349  3    279
   350    835    834  3    281
   834    835    836  3    281
   834    836    351  3    281
   351    836    837  3    281
   835    838    836  3    281
   836    838    839  3    281
   836    839    837  3    281
   837    839    840  3    281
   838    841    839  3    281
   839    841    842  3    281
   839    842    840  3    281
   840    842    843  3    281
   841    844    842  3    281
   842    844    845  3    281
   842    845    843  3    281
   843    845    846  3    281
   844    353    845  3    281
   845    353    847  3    281
   845    847    846  3    281
   846    847    352  3    281
   353    356    848  3    283
   848    356    849  3    283
   848    849    354  3    283
   354    849    355  3    283
   356    851    850  3    285
   850    851    852  3    285
   850    852    357  3    285
   357    852    853  3    285
   851    359    852  3    285
   852    359    854  3    285
   852    854    853  3    285
   853    854    358  3    285
   359    855    360  3    286
   360    855    856  3    286
   855    256    856  3    286
   856    256    258  3    286
   360    858    857  3    288
   857    858    859  3    288
   857    859    358  3    288
   358    859    860  3    288
   858    362    859  3    288
   859    362    861  3    288
   859    861    860  3    288
   860    861    361  3    288
   362    365    363  3    290
   363    365    364  3    290
   365    262    862  3    291
   862    262    864  3    291
   862    864    863  3    291
   863    864    865  3    291
   863    865    366  3    291
   366    865    264  3    291
   366    368    866  3    293
   866    368    868  3    293
   866    868    867  3    293
   867    868    869  3    293
   867    869    364  3    293
   364    869    367  3    293
   372    369    371  3    295
   368    373    870  3    296
   870    373    871  3    296
   870    871    370  3    296
   373    265    374  3    297
   374    265    267  3    297
   374    376    872  3    299
   872    376    875  3    299
   872    875    873  3    299
   873    875    876  3    299
   873    876    874  3    299
   874    876    877  3    299
   874    877    372  3    299
   372    877    375  3    299
   376    379    878  3    301
   878    379    881  3    301
   878    881    879  3    301
   879    881    882  3    301
   879    882    880  3    301
   880    882    883  3    301
   880    883    377  3    301
   377    883    378  3    301
   379    382    884  3    303
   884    382    888  3    303
   884    888    885  3    303
   885    888    889  3    303
   885    889    886  3    303
   886    889    890  3    303
   886    890    887  3    303
   887    890    891  3    303
   887    891    380  3    303
   380    891    381  3    303
   382    334    892  3    304
   892    334    893  3    304
   892    893    383  3    304
   383    893    336  3    304
   383    337    894  3    305
   894    337    897  3    305
   894    897    895  3    305
   895    897    898  3    305
   895    898    896  3    305
   896    898    899  3    305
   896    899    381  3    305
   381    899    339  3    305
   380    385    378  3    307
   378    385    384  3    307
   385    388    900  3    309
   900    388    901  3    309
   900    901    386  3    309
   386    901    387  3    309
   388    902    389  3    310
   389    902    903  3    310
   902    904    903  3    310
   903    904    905  3    310
   904    906    905  3    310
   905    906    907  3    310
   906    908    907  3    310
   907    908    909  3    310
   908    340    909  3    310
   909    340    342  3    310
   389    910    387  3    311
   387    910    911  3    311
   910    912    911  3    311
   911    912    913  3    311
   912    914    913  3    311
   913    914    915  3    311
   914    916    915  3    311
   915    916    917  3    311
   916    355    917  3    311
   917    355    357  3    311
   386    375    384  3    312
   384    375    377  3    312
   369    361    918  3    313
   918    361    919  3    313
   918    919    367  3    313
   367    919    363  3    313
   354    349    920  3    314
   920    349    921  3    314
   920    921    352  3    314
   352    921    351  3    314
   333    391    922  3    316
   922    391    924  3    316
   922    924    923  3    316
   923    924    925  3    316
   923    925    331  3    316
   331    925    390  3    316
   391    928    926  3    317
   926    928    929  3    317
   926    929    927  3    317
   927    929    930  3    317
   927    930    392  3    317
   392    930    931  3    317
   928    289    929  3    317
   929    289    932  3    317
   929    932    930  3    317
   930    932    933  3    317
   930    933    931  3    317
   931    933    291  3    317
   392    394    390  3    319
   390    394    393  3    319
   394    397    934  3    321
   934    397    935  3    321
   934    935    395  3    321
   395    935    396  3    321
   397    295    398  3    322
   398    295    297  3    322
   398    936    396  3    323
   396    936    937  3    323
   936    938    937  3    323
   937    938    939  3    323
   938    940    939  3    323
   939    940    941  3    323
   940    310    941  3    323
   941    310    312  3    323
   395    328    942  3    324
   942    328    943  3    324
   942    943    393  3    324
   393    943    330  3    324
   327    946    944  3    325
   944    946    947  3    325
   944    947    945  3    325
   945    947    948  3    325
   945    948    325  3    325
   325    948    949  3    325
   946    313    947  3    325
   947    313    950  3    325
   947    950    948  3    325
   948    950    951  3    325
   948    951    949  3    325
   949    951    315  3    325
   282    952    280  3    326
   280    952    953  3    326
   952    268    953  3    326
   953    268    270  3    326
   255    247    253  3    327
   253    247    249  3    327
   159    151    954  3    328
   954    151    955  3    328
   954    955    157  3    328
   157    955    153  3    328
   135    124    133  3    329
   133    124    126  3    329
    96    957    956  3    330
   956    957    958  3    330
   956    958     94  3    330
    94    958    959  3    330
   957     85    958  3    330
   958     85    960  3    330
   958    960    959  3    330
   959    960     87  3    330
    57     49    961  3    331
   961     49    963  3    331
   961    963    962  3    331
   962    963    964  3    331
   962    964     55  3    331
    55    964     51  3    331
     3      1    430  2      1
   430      1    399  2      1
   430    399      2  2      1
     6      4    400  2      2
     6    400    401  2      2
   401    400      5  2      2
     9      7    403  2      4
   403      7    402  2      4
   403    402      8  2      4
    12     10    405  2      6
   405     10    404  2      6
   405    404     11  2      6
   468     13    406  2      8
   468    406    407  2      8
   468    407     15  2      8
   407    406     14  2      8
   415     16    408  2     10
   415    408     18  2     10
    18    408     17  2     10
   480     19    422  2     13
   480    422     21  2     13
    21    422     20  2     13
    24     22     23  2     15
    27     25    429  2     17
   429     25     26  2     17
   499     28    431  2     20
   499    431     30  2     20
   431     28     29  2     20
   514     31    966  2     22
   514    966    434  2     22
   514    434    515  2     22
   515    434     33  2     22
   434    966    433  2     22
   433    966    432  2     22
   433    432     32  2     22
   432    966     31  2     22
    36     34    436  2     24
    36    436    438  2     24
   438    436    435  2     24
   438    435    437  2     24
   437    435     35  2     24
   442     37    440  2     26
   442    440    439  2     26
   442    439    441  2     26
   441    439     38  2     26
   441     38     39  2     26
   540     40    967  2     29
   540    967    446  2     29
   540    446     42  2     29
   446    967    443  2     29
   446    443    445  2     29
   445    443     41  2     29
   443    967    444  2     29
   444    967     40  2     29
   555     43    448  2     31
   555    448    968  2     31
   555    968     45  2     31
    45    968    450  2     31
   450    968    969  2     31
   450    969    449  2     31
   449    969     44  2     31
    44    969    447  2     31
   447    969    448  2     31
   448    969    968  2     31
    48     46    454  2     33
   454     46    452  2     33
   454    452    453  2     33
   453    452    451  2     33
   453    451     47  2     33
   963     49    456  2     35
   963    456    964  2     35
   964    456    455  2     35
   964    455     51  2     35
    51    455     50  2     35
    54     52     53  2     37
   962     55    457  2     40
   962    457    458  2     40
   962    458    961  2     40
   961    458     57  2     40
   457     55     56  2     40
    60     58    460  2     42
    60    460    462  2     42
   462    460    459  2     42
   462    459    461  2     42
   461    459     59  2     42
   576     61    464  2     44
   576    464    463  2     44
   576    463     63  2     44
    63    463     62  2     44
    66     64     65  2     46
    69     67     68  2     49
   469     70    467  2     51
   469    467     72  2     51
   467     70     71  2     51
   591     73    470  2     54
   591    470     75  2     54
    75    470     74  2     54
   481     76     77  2     56
   481     77    479  2     56
   481    479     78  2     56
    81     79    482  2     59
    81    482     80  2     59
   610     82     83  2     61
   610     83    487  2     61
   610    487    611  2     61
   611    487     84  2     61
   960     85    488  2     63
   960    488     86  2     63
   960     86     87  2     63
   500     88     89  2     65
   500     89    493  2     65
   500    493     90  2     65
   498     91    497  2     67
   498    497     93  2     67
    93    497     92  2     67
   956     94    501  2     71
   956    501     96  2     71
    96    501     95  2     71
   622     97    508  2     73
   622    508    509  2     73
   622    509    623  2     73
   623    509     99  2     73
   508     97     98  2     73
   102    100    511  2     75
   102    511    513  2     75
   513    511    510  2     75
   513    510    512  2     75
   512    510    101  2     75
   635    103    104  2     78
   635    104    522  2     78
   635    522    105  2     78
   108    106    523  2     80
   108    523    107  2     80
   111    109    110  2     82
   114    112    113  2     84
   117    115    536  2     87
   536    115    116  2     87
   120    118    119  2     90
   655    121    543  2     92
   655    543    123  2     92
   543    121    122  2     92
   126    124    547  2     94
   126    547    548  2     94
   548    547    125  2     94
   129    127    551  2     96
   551    127    550  2     96
   550    127    549  2     96
   550    549    128  2     96
   132    130    553  2     98
   132    553    554  2     98
   554    553    552  2     98
   554    552    131  2     98
   135    133    556  2    102
   556    133    134  2    102
   138    136    557  2    104
   138    557    137  2    104
   141    139    558  2    106
   558    139    140  2    106
   144    142    560  2    108
   560    142    559  2    108
   560    559    143  2    108
   566    145    561  2    110
   566    561    146  2    110
   566    146    147  2    110
   669    148    567  2    113
   669    567    568  2    113
   669    568    150  2    113
   568    567    149  2    113
   955    151    569  2    115
   955    569    570  2    115
   955    570    153  2    115
   570    569    152  2    115
   156    154    575  2    117
   575    154    574  2    117
   575    574    155  2    117
   954    157    158  2    120
   954    158    579  2    120
   954    579    159  2    120
   678    160    580  2    122
   678    580    581  2    122
   678    581    162  2    122
   581    580    161  2    122
   695    163    585  2    124
   695    585    164  2    124
   695    164    165  2    124
   592    166    167  2    126
   592    167    588  2    126
   592    588    168  2    126
   590    169    589  2    128
   590    589    171  2    128
   171    589    170  2    128
   174    172    593  2    132
   174    593    594  2    132
   594    593    173  2    132
   177    175    595  2    134
   177    595    176  2    134
   180    178    602  2    137
   602    178    179  2    137
   703    181    603  2    139
   703    603    182  2    139
   703    182    183  2    139
   708    184    606  2    141
   708    606    186  2    141
   606    184    185  2    141
   189    187    609  2    143
   609    187    607  2    143
   609    607    608  2    143
   608    607    188  2    143
   192    190    191  2    146
   195    193    194  2    148
   625    196    197  2    150
   625    197    620  2    150
   625    620    624  2    150
   624    620    621  2    150
   624    621    198  2    150
   637    199    627  2    153
   637    627    970  2    153
   637    970    636  2    153
   636    970    201  2    153
   201    970    628  2    153
   628    970    626  2    153
   628    626    200  2    153
   626    970    627  2    153
   733    202    639  2    156
   733    639    641  2    156
   733    641    204  2    156
   641    639    640  2    156
   640    639    638  2    156
   640    638    203  2    156
   744    205    643  2    158
   744    643    642  2    158
   744    642    207  2    158
   207    642    206  2    158
   210    208    644  2    160
   644    208    209  2    160
   213    211    645  2    162
   213    645    212  2    162
   216    214    215  2    164
   219    217    218  2    167
   222    220    650  2    170
   650    220    221  2    170
   225    223    651  2    172
   225    651    224  2    172
   228    226    227  2    175
   231    229    230  2    177
   234    232    654  2    179
   654    232    233  2    179
   828    235    236  2    183
   828    236    237  2    183
   240    238    239  2    185
   243    241    242  2    188
   246    244    245  2    190
   249    247    248  2    193
   252    250    668  2    195
   668    250    251  2    195
   255    253    670  2    198
   670    253    254  2    198
   258    256    672  2    200
   672    256    671  2    200
   672    671    257  2    200
   681    259    673  2    202
   681    673    680  2    202
   680    673    260  2    202
   680    260    679  2    202
   679    260    674  2    202
   679    674    261  2    202
   864    262    684  2    205
   864    684    683  2    205
   864    683    865  2    205
   865    683    682  2    205
   865    682    264  2    205
   264    682    263  2    205
   267    265    685  2    207
   685    265    266  2    207
   270    268    686  2    209
   270    686    269  2    209
   696    271    689  2    211
   696    689    273  2    211
   689    271    272  2    211
   276    274    691  2    213
   691    274    690  2    213
   691    690    275  2    213
   279    277    697  2    217
   279    697    278  2    217
   282    280    698  2    220
   698    280    281  2    220
   710    283    699  2    222
   710    699    971  2    222
   710    971    709  2    222
   709    971    700  2    222
   709    700    285  2    222
   700    971    284  2    222
   284    971    699  2    222
   704    286    972  2    224
   704    972    702  2    224
   704    702    288  2    224
   702    972    701  2    224
   702    701    287  2    224
   701    972    286  2    224
   932    289    712  2    228
   932    712    711  2    228
   932    711    933  2    228
   933    711    290  2    228
   933    290    291  2    228
   294    292    293  2    230
   297    295    296  2    233
   300    298    299  2    235
   303    301    729  2    238
   729    301    302  2    238
   745    304    738  2    241
   745    738    306  2    241
   738    304    305  2    241
   309    307    742  2    243
   309    742    743  2    243
   743    742    308  2    243
   312    310    748  2    247
   748    310    746  2    247
   748    746    747  2    247
   747    746    311  2    247
   950    313    750  2    249
   950    750    973  2    249
   950    973    951  2    249
   951    973    315  2    249
   315    973    751  2    249
   751    973    749  2    249
   751    749    314  2    249
   749    973    750  2    249
   762    316    755  2    251
   762    755    318  2    251
   318    755    317  2    251
   321    319    763  2    254
   321    763    320  2    254
   324    322    323  2    257
   945    325    782  2    260
   945    782    783  2    260
   945    783    944  2    260
   944    783    327  2    260
   782    325    326  2    260
   943    328    974  2    262
   943    974    330  2    262
   330    974    975  2    262
   330    975    787  2    262
   787    975    786  2    262
   786    975    784  2    262
   786    784    329  2    262
   784    975    785  2    262
   785    975    974  2    262
   785    974    328  2    262
   923    331    977  2    264
   923    977    976  2    264
   923    976    922  2    264
   922    976    792  2    264
   922    792    333  2    264
   792    976    791  2    264
   791    976    977  2    264
   791    977    790  2    264
   790    977    788  2    264
   790    788    332  2    264
   788    977    789  2    264
   789    977    331  2    264
   893    334    795  2    266
   893    795    336  2    266
   336    795    794  2    266
   336    794    796  2    266
   796    794    793  2    266
   796    793    335  2    266
   897    337    980  2    268
   897    980    979  2    268
   897    979    898  2    268
   898    979    978  2    268
   898    978    899  2    268
   899    978    800  2    268
   899    800    339  2    268
   800    978    799  2    268
   799    978    798  2    268
   798    978    979  2    268
   798    979    338  2    268
   338    979    980  2    268
   338    980    797  2    268
   797    980    337  2    268
   342    340    818  2    270
   342    818    820  2    270
   820    818    817  2    270
   820    817    819  2    270
   819    817    816  2    270
   819    816    341  2    270
   829    343    822  2    272
   829    822    981  2    272
   829    981    345  2    272
   345    981    824  2    272
   824    981    823  2    272
   823    981    821  2    272
   823    821    344  2    272
   821    981    822  2    272
   348    346    826  2    274
   348    826    827  2    274
   827    826    825  2    274
   827    825    347  2    274
   921    349    833  2    278
   921    833    350  2    278
   921    350    834  2    278
   921    834    351  2    278
   920    352    847  2    280
   920    847    353  2    280
   920    353    848  2    280
   920    848    354  2    280
   357    355    850  2    282
   850    355    849  2    282
   850    849    356  2    282
   857    358    854  2    284
   857    854    359  2    284
   857    359    360  2    284
   919    361    861  2    287
   919    861    363  2    287
   363    861    362  2    287
   867    364    862  2    289
   867    862    863  2    289
   867    863    866  2    289
   866    863    366  2    289
   862    364    365  2    289
   918    367    371  2    292
   918    371    369  2    292
   371    367    965  2    292
   965    367    869  2    292
   965    869    370  2    292
   370    869    868  2    292
   370    868    870  2    292
   870    868    368  2    292
   874    372    371  2    294
   874    371    873  2    294
   873    371    965  2    294
   873    965    872  2    294
   872    965    370  2    294
   872    370    982  2    294
   872    982    374  2    294
   374    982    871  2    294
   374    871    373  2    294
   871    982    370  2    294
   377    375    877  2    298
   377    877    880  2    298
   880    877    876  2    298
   880    876    879  2    298
   879    876    875  2    298
   879    875    878  2    298
   878    875    376  2    298
   380    378    887  2    300
   887    378    883  2    300
   887    883    886  2    300
   886    883    882  2    300
   886    882    885  2    300
   885    882    881  2    300
   885    881    884  2    300
   884    881    379  2    300
   896    381    891  2    302
   896    891    983  2    302
   896    983    895  2    302
   895    983    984  2    302
   895    984    894  2    302
   894    984    985  2    302
   894    985    383  2    302
   383    985    892  2    302
   892    985    888  2    302
   892    888    382  2    302
   888    985    889  2    302
   889    985    984  2    302
   889    984    983  2    302
   889    983    890  2    302
   890    983    891  2    302
   386    384    900  2    306
   900    384    385  2    306
   389    387    901  2    308
   389    901    388  2    308
   392    390    927  2    315
   927    390    925  2    315
   927    925    926  2    315
   926    925    924  2    315
   926    924    391  2    315
   942    393    394  2    318
   942    394    934  2    318
   942    934    395  2    318
   398    396    935  2    320
   398    935    397  2    320
   987    986    990  1    332
   988    987    990  1    332
   989    988    990  1    332
   989    990      8  1    332
   989      8      5  1    332
   989      5      1  1    332
   989      1    413  1    332
   989    413    988  1    332
   988    413    411  1    332
   988    411    987  1    332
   987    411    409  1    332
   987    409    986  1    332
   986    409     17  1    332
   986     17     14  1    332
   986     14     11  1    332
   986     11    990  1    332
   990     11      8  1    332
     4     38     35  1    333
     4     35      2  1    333
     2     35     27  1    333
    27     35     29  1    333
    29     35     32  1    333
    47     44     50  1    334
     7     53    991  1    334
     7    991      6  1    334
     6    991     39  1    334
    39    991     41  1    334
    41    991     50  1    334
    41     50     44  1    334
    50    991     53  1    334
    10     65    465  1    335
    10    465    992  1    335
    10    992      9  1    335
     9    992     54  1    335
    54    992     56  1    335
    56    992     59  1    335
    59    992     62  1    335
    62    992    465  1    335
    13     71    993  1    336
    13    993    994  1    336
    13    994     12  1    336
    12    994     66  1    336
    66    994     68  1    336
    68    994    993  1    336
    68    993     71  1    336
   421     19    996  1    337
   421    996    998  1    337
   421    998    418  1    337
   418    998     16  1    337
    16    998    997  1    337
    16    997     15  1    337
    15    997     72  1    337
    72    997    471  1    337
    72    471     74  1    337
   471    997    473  1    337
   473    997    995  1    337
   473    995    475  1    337
   475    995    477  1    337
   477    995    996  1    337
   477    996     77  1    337
    77    996     19  1    337
   996    995    998  1    337
   998    995    997  1    337
   999   1002   1003  1    338
  1000    999   1003  1    338
  1000   1003   1004  1    338
  1001   1000   1004  1    338
  1001   1004    427  1    338
  1001    427    425  1    338
  1001    425   1000  1    338
  1000    425    423  1    338
  1000    423    999  1    338
   999    423     20  1    338
   999     20    419  1    338
   999    419    416  1    338
   999    416   1002  1    338
  1002    416    410  1    338
  1002    410    412  1    338
  1002    412   1003  1    338
  1003    412   1004  1    338
  1004    412    414  1    338
  1004    414     26  1    338
  1004     26     23  1    338
  1004     23    427  1    338
    26    414      3  1    338
   410    416     18  1    338
    22     92    428  1    339
   428     92    494  1    339
   428    494    426  1    339
   426    494     89  1    339
   426     89    491  1    339
   426    491    424  1    339
   424    491   1005  1    339
   424   1005     21  1    339
    21   1005     78  1    339
    78   1005     80  1    339
    80   1005    489  1    339
    80    489    483  1    339
   483    489    485  1    339
   485    489     86  1    339
   485     86     83  1    339
   489   1005    491  1    339
    25     28     24  1    340
    24     28     93  1    340
  1006   1008   1009  1    341
  1007   1006   1009  1    341
  1007   1009   1010  1    341
  1008   1011   1012  1    341
  1009   1008   1012  1    341
  1010   1009   1012  1    341
  1012   1011   1013  1    341
  1012   1013    101  1    341
  1012    101   1010  1    341
  1010    101     98  1    341
  1010     98    506  1    341
  1010    506   1007  1    341
  1007    506    504  1    341
  1007    504    502  1    341
  1007    502   1006  1    341
  1006    502     95  1    341
  1006     95     90  1    341
  1006     90   1008  1    341
  1008     90    496  1    341
  1008    496   1011  1    341
  1011    496     91  1    341
  1011     91     30  1    341
  1011     30   1013  1    341
  1013     30     31  1    341
  1013     31    101  1    341
   107    104    110  1    342
  1014   1016   1017  1    342
  1014   1017    526  1    342
  1014    526    524  1    342
  1014    524    520  1    342
  1014    520   1016  1    342
  1016    520    518  1    342
  1016    518    532  1    342
  1016    532    530  1    342
  1016    530   1017  1    342
  1017    530   1015  1    342
  1017   1015    528  1    342
  1017    528    526  1    342
   528   1015    113  1    342
   113   1015    530  1    342
   532    518    516  1    342
   532    516    534  1    342
   534    516    102  1    342
   534    102     33  1    342
   534     33     34  1    342
   520    524    110  1    342
   520    110    104  1    342
   116    114    537  1    343
  1019   1018   1021  1    343
  1020   1019   1021  1    343
  1020   1021    533  1    343
  1020    533    535  1    343
  1020    535     36  1    343
  1020     36     37  1    343
  1020     37   1019  1    343
  1019     37     40  1    343
  1019     40   1018  1    343
  1018     40    537  1    343
  1018    537    114  1    343
  1018    114    531  1    343
  1018    531   1021  1    343
  1021    531    533  1    343
    43    131     42  1    344
    42    131    539  1    344
   539    131    128  1    344
   539    128    125  1    344
   539    125    544  1    344
   539    544    117  1    344
   117    544    541  1    344
   541    544    122  1    344
   541    122    119  1    344
    45     46    132  1    345
   130     48    129  1    346
  1023   1022   1026  1    346
  1025   1024   1026  1    346
  1022   1025   1026  1    346
  1026   1024    564  1    346
  1026    564   1023  1    346
  1023    564    562  1    346
  1023    562    143  1    346
  1023    143   1022  1    346
  1022    143    140  1    346
  1022    140    137  1    346
  1022    137   1025  1    346
  1025    137    134  1    346
  1025    134   1024  1    346
  1024    134    129  1    346
  1024    129     48  1    346
  1024     48     49  1    346
  1024     49     57  1    346
  1024     57    564  1    346
   564     57     58  1    346
   143    562    146  1    346
    52     55     51  1    347
    61    155    565  1    348
    61    565     60  1    348
   565    155    571  1    348
   565    571    563  1    348
   563    571    147  1    348
   147    571    149  1    348
   149    571    152  1    348
  1028   1027   1029  1    349
  1028   1029     64  1    349
  1028     64     67  1    349
  1028     67    586  1    349
  1028    586   1027  1    349
  1027    586    164  1    349
  1027    164    582  1    349
  1027    582    577  1    349
  1027    577   1029  1    349
  1029    577    466  1    349
  1029    466     64  1    349
   466    577    156  1    349
   466    156     63  1    349
   577    582    158  1    349
   158    582    161  1    349
   586     67    170  1    349
   586    170    167  1    349
    70     73     69  1    350
    69     73    171  1    350
  1031   1030   1034  1    351
  1031   1034   1035  1    351
  1031   1035    476  1    351
  1031    476   1032  1    351
  1031   1032    598  1    351
  1031    598    596  1    351
  1031    596   1030  1    351
  1030    596    176  1    351
  1030    176    173  1    351
  1030    173   1034  1    351
  1034    173    168  1    351
  1034    168   1036  1    351
  1034   1036   1035  1    351
  1035   1036    474  1    351
  1035    474    476  1    351
   474   1036    472  1    351
   472   1036    169  1    351
   472    169     75  1    351
   169   1036    168  1    351
   598   1032    600  1    351
   600   1032   1033  1    351
   600   1033     79  1    351
    79   1033     76  1    351
    76   1033    478  1    351
   478   1033   1032  1    351
   478   1032    476  1    351
    82    188    185  1    352
    82    185    486  1    352
   486    185   1037  1    352
   486   1037    484  1    352
   484   1037    601  1    352
   484    601     81  1    352
   601   1037    599  1    352
   599   1037    604  1    352
   599    604    597  1    352
   597    604    182  1    352
   597    182    179  1    352
   597    179    177  1    352
   604   1037    185  1    352
   957     96    503  1    353
   957    503   1038  1    353
   957   1038     85  1    353
    85   1038    194  1    353
    85    194    191  1    353
    85    191     84  1    353
    84    191    189  1    353
   194   1038    612  1    353
   612   1038    503  1    353
   612    503    614  1    353
   614    503    505  1    353
   614    505    616  1    353
   616    505    507  1    353
   616    507    618  1    353
   618    507     97  1    353
   618     97    197  1    353
    88     94    492  1    354
   492     94    959  1    354
   492    959    490  1    354
   490    959     87  1    354
  1040   1039   1041  1    355
  1040   1041   1042  1    355
  1040   1042    632  1    355
  1040    632    629  1    355
  1040    629   1039  1    355
  1039    629     99  1    355
  1039     99    100  1    355
  1039    100   1041  1    355
  1041    100    517  1    355
  1041    517    519  1    355
  1041    519   1042  1    355
  1042    519    521  1    355
  1042    521    632  1    355
   632    521    103  1    355
    99    629    198  1    355
   198    629    200  1    355
   105    106    634  1    356
   106    215   1045  1    356
   106   1045    634  1    356
   634   1045   1044  1    356
   634   1044    631  1    356
   631   1044   1043  1    356
   631   1043    201  1    356
   201   1043    203  1    356
   203   1043    206  1    356
   206   1043    209  1    356
   209   1043    212  1    356
   212   1043   1044  1    356
   212   1044   1045  1    356
   212   1045    215  1    356
   648    218    646  1    357
   648    646    109  1    357
   109    646    216  1    357
   109    216    108  1    357
  1047   1046   1048  1    358
  1047   1048    118  1    358
  1047    118    224  1    358
  1047    224    221  1    358
  1047    221    219  1    358
  1047    219   1046  1    358
  1046    219    649  1    358
  1046    649    525  1    358
  1046    525    527  1    358
  1046    527   1048  1    358
  1048    527    529  1    358
  1048    529    542  1    358
  1048    542    118  1    358
   542    529    112  1    358
   542    112    115  1    358
   525    649    111  1    358
   121    233    120  1    359
   120    233   1049  1    359
   120   1049    225  1    359
   225   1049    652  1    359
   652   1049    227  1    359
   227   1049    230  1    359
   230   1049    233  1    359
   124    135    546  1    360
   546    135    136  1    360
   546    136   1050  1    360
   546   1050    123  1    360
   123   1050    234  1    360
   234   1050    656  1    360
   656   1050    136  1    360
   127    133    126  1    361
  1052   1051   1053  1    362
  1052   1053    657  1    362
  1052    657   1054  1    362
  1052   1054    239  1    362
  1052    239    658  1    362
  1052    658   1051  1    362
  1051    658    236  1    362
  1051    236    231  1    362
  1051    231   1053  1    362
  1053    231    232  1    362
  1053    232    657  1    362
   239   1054    660  1    362
   660   1054    139  1    362
   139   1054    138  1    362
   138   1054    657  1    362
   666    245    664  1    363
   666    664   1056  1    363
   666   1056    661  1    363
   666    661    141  1    363
   666    141    142  1    363
   661   1056    240  1    363
   240   1056   1055  1    363
   240   1055    242  1    363
   242   1055    662  1    363
   662   1055    664  1    363
   664   1055   1056  1    363
   145    148   1057  1    364
   145   1057   1058  1    364
   145   1058    144  1    364
   144   1058    667  1    364
   667   1058    246  1    364
   246   1058   1057  1    364
   246   1057    248  1    364
   248   1057    251  1    364
   251   1057    148  1    364
   151    159    252  1    365
   151    252    150  1    365
   252    159    160  1    365
   252    160    675  1    365
   252    675    254  1    365
   254    675    257  1    365
   257    675    260  1    365
   578    157    153  1    366
   578    153    573  1    366
   578    573    154  1    366
  1059   1061   1062  1    367
  1059   1062   1063  1    367
  1060   1064   1065  1    367
  1061   1060   1065  1    367
  1061   1065   1066  1    367
  1062   1061   1066  1    367
  1062   1066   1067  1    367
  1062   1067   1068  1    367
  1063   1062   1068  1    367
  1064   1069   1070  1    367
  1065   1064   1070  1    367
  1065   1070   1071  1    367
  1066   1065   1071  1    367
  1066   1071   1072  1    367
  1067   1066   1072  1    367
  1070   1069   1073  1    367
  1070   1073   1074  1    367
  1071   1070   1074  1    367
  1071   1074   1072  1    367
  1072   1074    163  1    367
  1072    163    692  1    367
  1072    692   1067  1    367
  1067    692   1068  1    367
  1068    692    275  1    367
  1068    275   1063  1    367
  1063    275    272  1    367
  1063    272    687  1    367
  1063    687   1059  1    367
  1059    687    269  1    367
  1059    269    266  1    367
  1059    266   1060  1    367
  1059   1060   1061  1    367
  1060    266    263  1    367
  1060    263   1064  1    367
  1064    263    261  1    367
  1064    261   1069  1    367
  1069    261    677  1    367
  1069    677   1073  1    367
  1073    677    162  1    367
  1073    162    584  1    367
  1073    584   1074  1    367
  1074    584    163  1    367
   166    172   1075  1    368
   166   1075    587  1    368
   587   1075    165  1    368
   165   1075    694  1    368
   694   1075    172  1    368
   694    172    276  1    368
   175    178    278  1    369
   175    278    273  1    369
   175    273    274  1    369
   175    274    174  1    369
   181    287    281  1    370
   181    281    279  1    370
   181    279    180  1    370
   281    287    284  1    370
   705    288    605  1    371
   705    605    184  1    371
   605    288    183  1    371
   187    190    293  1    372
   187    293    186  1    372
   186    293    715  1    372
   186    715    707  1    372
   707    715    713  1    372
   707    713    286  1    372
   286    713    290  1    372
   286    290    285  1    372
   727    299    725  1    373
   727    725   1077  1    373
   727   1077    193  1    373
   193   1077   1076  1    373
   193   1076    294  1    373
   193    294    192  1    373
   294   1076    717  1    373
   717   1076    719  1    373
   719   1076    721  1    373
   719    721    296  1    373
   721   1076    723  1    373
   723   1076   1077  1    373
   723   1077    725  1    373
   196    199    619  1    374
   619    199   1080  1    374
   619   1080   1079  1    374
   619   1079    617  1    374
   617   1079    615  1    374
   615   1079   1078  1    374
   615   1078    613  1    374
   613   1078    728  1    374
   613    728    195  1    374
   728   1078    300  1    374
   300   1078    302  1    374
   302   1078    730  1    374
   730   1078   1079  1    374
   730   1079   1080  1    374
   730   1080    202  1    374
   202   1080    199  1    374
  1082   1081   1083  1    375
  1082   1083    739  1    375
  1082    739    305  1    375
  1082    305    736  1    375
  1082    736   1081  1    375
  1081    736    734  1    375
  1081    734    303  1    375
  1081    303    732  1    375
  1081    732   1083  1    375
  1083    732    204  1    375
  1083    204    205  1    375
  1083    205    308  1    375
  1083    308    739  1    375
   208    309    207  1    376
  1086   1085   1087  1    377
  1086   1087   1088  1    377
  1086   1088   1089  1    377
  1084   1086   1089  1    377
  1087   1091   1092  1    377
  1088   1087   1092  1    377
  1088   1092   1093  1    377
  1089   1088   1093  1    377
  1089   1093   1094  1    377
  1089   1094    317  1    377
  1089    317    752  1    377
  1089    752   1084  1    377
  1084    752    314  1    377
  1084    314    311  1    377
  1084    311   1086  1    377
  1086    311    306  1    377
  1086    306   1085  1    377
  1085    306    741  1    377
  1085    741   1087  1    377
  1087    741   1090  1    377
  1087   1090   1091  1    377
  1091   1090    211  1    377
  1091    211   1092  1    377
  1092    211    760  1    377
  1092    760   1093  1    377
  1093    760    758  1    377
  1093    758   1094  1    377
  1094    758    756  1    377
  1094    756    317  1    377
   211   1090    210  1    377
   210   1090    307  1    377
   307   1090    741  1    377
   647    217   1097  1    378
   647   1097   1096  1    378
   647   1096    214  1    378
   214   1096    761  1    378
   214    761    213  1    378
   761   1096    759  1    378
   759   1096   1097  1    378
   759   1097   1095  1    378
   759   1095    757  1    378
   757   1095    764  1    378
   757    764    320  1    378
   757    320    318  1    378
   764   1095   1097  1    378
   764   1097    766  1    378
   766   1097    217  1    378
   766    217    220  1    378
   653    226   1098  1    379
   653   1098    767  1    379
   653    767    222  1    379
   653    222    223  1    379
   767   1098    765  1    379
   765   1098    768  1    379
   765    768    321  1    379
   768   1098    323  1    379
   323   1098    226  1    379
   338    335    801  1    380
  1100   1103   1101  1    380
  1100   1101   1102  1    380
  1102   1101   1104  1    380
  1104   1103   1105  1    380
  1101   1103   1104  1    380
  1104   1105   1106  1    380
  1104   1106    235  1    380
  1104    235    347  1    380
  1104    347   1102  1    380
  1102    347    344  1    380
  1102    344   1100  1    380
  1100    344    341  1    380
  1100    341   1099  1    380
  1100   1099    772  1    380
  1100    772   1103  1    380
  1103    772    770  1    380
  1103    770   1105  1    380
  1105    770    324  1    380
  1105    324    228  1    380
  1105    228   1106  1    380
  1106    228    229  1    380
  1106    229    235  1    380
   772   1099    774  1    380
   774   1099    776  1    380
   776   1099    811  1    380
   776    811    778  1    380
   778    811    806  1    380
   778    806    780  1    380
   780    806    801  1    380
   780    801    326  1    380
   326    801    329  1    380
   329    801    332  1    380
   332    801    335  1    380
   811   1099    341  1    380
   238    241    659  1    381
   659    241    237  1    381
   237    241    348  1    381
  1109   1108   1110  1    382
  1109   1110   1111  1    382
  1109   1111    855  1    382
  1109    855    359  1    382
  1109    359    851  1    382
  1109    851   1108  1    382
  1108    851    844  1    382
  1108    844    841  1    382
  1108    841   1110  1    382
  1110    841    244  1    382
  1110    244   1111  1    382
  1111    244    247  1    382
  1111    247    855  1    382
   855    247    255  1    382
   855    255    256  1    382
   244    841    665  1    382
   665    841    663  1    382
   663    841    838  1    382
   663    838    243  1    382
   243    838    835  1    382
   243    835    346  1    382
   346    835   1107  1    382
   346   1107    345  1    382
   345   1107    830  1    382
   830   1107    835  1    382
   830    835    350  1    382
   844    851    356  1    382
   844    356    353  1    382
   250    253    249  1    383
   365    362    262  1    384
   259    262   1112  1    384
   259   1112    258  1    384
   258   1112    856  1    384
   856   1112    360  1    384
   360   1112    858  1    384
   858   1112    262  1    384
   858    262    362  1    384
   265    373    366  1    385
   265    366    264  1    385
   366    373    368  1    385
   334    382    333  1    386
  1113   1114   1115  1    386
  1113   1115   1116  1    386
  1113   1116   1117  1    386
  1113   1117   1118  1    386
  1116   1115   1120  1    386
  1116   1120   1121  1    386
  1117   1116   1121  1    386
  1117   1121    928  1    386
  1117    928    391  1    386
  1117    391   1118  1    386
  1118    391    333  1    386
  1118    333    382  1    386
  1118    382    379  1    386
  1118    379   1113  1    386
  1113    379   1114  1    386
  1114    379    376  1    386
  1114    376   1119  1    386
  1114   1119   1115  1    386
  1115   1119    268  1    386
  1115    268   1120  1    386
  1120    268    952  1    386
  1120    952    282  1    386
  1120    282   1121  1    386
  1121    282    289  1    386
  1121    289    928  1    386
   289    282    283  1    386
   268   1119    267  1    386
   267   1119    374  1    386
   374   1119    376  1    386
   271    277    688  1    387
   688    277    953  1    387
   688    953    270  1    387
   953    277    280  1    387
  1122   1123   1124  1    388
  1124   1123   1125  1    388
  1124   1125   1126  1    388
  1124   1126    720  1    388
  1124    720    295  1    388
  1124    295   1122  1    388
  1122    295    397  1    388
  1122    397    394  1    388
  1122    394    392  1    388
  1122    392   1123  1    388
  1123    392    931  1    388
  1123    931   1125  1    388
  1125    931    291  1    388
  1125    291    714  1    388
  1125    714   1126  1    388
  1126    714    716  1    388
  1126    716    718  1    388
  1126    718    720  1    388
   718    716    292  1    388
  1127   1130   1131  1    389
  1128   1127   1131  1    389
  1128   1131    735  1    389
  1128    735    737  1    389
  1128    737    940  1    389
  1128    940    938  1    389
  1128    938   1127  1    389
  1127    938    936  1    389
  1127    936   1129  1    389
  1127   1129   1130  1    389
  1130   1129    722  1    389
  1130    722    724  1    389
  1130    724   1131  1    389
  1131    724    726  1    389
  1131    726    735  1    389
   735    726    298  1    389
   735    298    301  1    389
   722   1129    297  1    389
   297   1129    398  1    389
   398   1129    936  1    389
   940    737    304  1    389
   940    304    310  1    389
   946    327   1133  1    390
   946   1133   1132  1    390
   946   1132    313  1    390
   313   1132    312  1    390
   312   1132    941  1    390
   941   1132    939  1    390
   939   1132   1133  1    390
   939   1133    937  1    390
   937   1133    396  1    390
   396   1133    395  1    390
   395   1133    327  1    390
   395    327    328  1    390
  1134   1136   1135  1    391
  1135   1136   1138  1    391
  1135   1138   1137  1    391
  1138   1139   1140  1    391
  1137   1138   1140  1    391
  1140   1139   1141  1    391
  1140   1141   1142  1    391
  1140   1142    773  1    391
  1140    773    775  1    391
  1140    775   1137  1    391
  1137    775    777  1    391
  1137    777   1135  1    391
  1135    777    779  1    391
  1135    779   1134  1    391
  1134    779    781  1    391
  1134    781    949  1    391
  1134    949    315  1    391
  1134    315   1136  1    391
  1136    315    754  1    391
  1136    754   1138  1    391
  1138    754   1139  1    391
  1139    754    316  1    391
  1139    316   1141  1    391
  1141    316    319  1    391
  1141    319    769  1    391
  1141    769   1142  1    391
  1142    769    771  1    391
  1142    771    773  1    391
   771    769    322  1    391
   949    781    325  1    391
   331    390    393  1    392
   331    393    330  1    392
   336    337    383  1    393
   381    339    380  1    394
  1143   1144   1145  1    394
  1143   1145   1146  1    394
  1143   1146   1147  1    394
  1143   1147   1148  1    394
  1143   1148   1149  1    394
  1143   1149   1144  1    394
  1147   1146   1151  1    394
  1147   1151   1152  1    394
  1148   1147   1152  1    394
  1148   1152   1153  1    394
  1148   1153   1154  1    394
  1149   1148   1154  1    394
  1149   1154   1155  1    394
  1149   1155   1156  1    394
  1144   1149   1156  1    394
  1144   1156   1150  1    394
  1153   1152   1157  1    394
  1155   1154   1158  1    394
  1155   1158   1159  1    394
  1156   1155   1159  1    394
  1156   1159    906  1    394
  1156    906   1150  1    394
  1150    906    904  1    394
  1150    904   1144  1    394
  1144    904    902  1    394
  1144    902   1145  1    394
  1145    902    388  1    394
  1145    388   1146  1    394
  1146    388    385  1    394
  1146    385   1151  1    394
  1151    385    380  1    394
  1151    380   1157  1    394
  1151   1157   1152  1    394
  1157    380    339  1    394
  1157    339    805  1    394
  1157    805   1153  1    394
  1153    805    810  1    394
  1153    810   1154  1    394
  1154    810   1158  1    394
  1158    810    815  1    394
  1158    815   1159  1    394
  1159    815    340  1    394
  1159    340    908  1    394
  1159    908    906  1    394
  1162   1161   1164  1    395
  1161   1165   1163  1    395
  1161   1163   1164  1    395
  1164   1163   1167  1    395
  1163   1165   1169  1    395
  1163   1169   1166  1    395
  1163   1166   1167  1    395
  1167   1166    354  1    395
  1167    354    355  1    395
  1167    355    916  1    395
  1167    916   1164  1    395
  1164    916    914  1    395
  1164    914   1162  1    395
  1162    914    912  1    395
  1162    912   1160  1    395
  1162   1160    905  1    395
  1162    905   1161  1    395
  1161    905    907  1    395
  1161    907   1165  1    395
  1165    907    909  1    395
  1165    909   1168  1    395
  1165   1168   1169  1    395
  1169   1168    832  1    395
  1169    832    349  1    395
  1169    349   1166  1    395
  1166    349    354  1    395
   832   1168    343  1    395
   343   1168    342  1    395
   342   1168    909  1    395
   905   1160    903  1    395
   903   1160    910  1    395
   903    910    389  1    395
   910   1160    912  1    395
   352    351   1170  1    396
   352   1170    846  1    396
   846   1170   1171  1    396
   846   1171    843  1    396
   843   1171    840  1    396
   840   1171    837  1    396
   837   1171   1170  1    396
   837   1170    351  1    396
   361    369    860  1    397
  1172   1174   1175  1    397
  1172   1175   1176  1    397
  1173   1172   1176  1    397
  1173   1176   1177  1    397
  1173   1177   1178  1    397
  1174   1179   1180  1    397
  1175   1174   1180  1    397
  1175   1180   1181  1    397
  1176   1175   1181  1    397
  1176   1181   1182  1    397
  1177   1176   1182  1    397
  1177   1182   1183  1    397
  1177   1183   1184  1    397
  1178   1177   1184  1    397
  1179   1185   1186  1    397
  1180   1179   1186  1    397
  1180   1186   1187  1    397
  1181   1180   1187  1    397
  1181   1187   1188  1    397
  1182   1181   1188  1    397
  1182   1188   1189  1    397
  1183   1182   1189  1    397
  1183   1189   1184  1    397
  1184   1189    369  1    397
  1184    369    372  1    397
  1184    372    375  1    397
  1184    375   1178  1    397
  1178    375    386  1    397
  1178    386   1173  1    397
  1173    386    387  1    397
  1173    387   1172  1    397
  1172    387    911  1    397
  1172    911   1174  1    397
  1174    911    913  1    397
  1174    913    915  1    397
  1174    915   1179  1    397
  1179    915    917  1    397
  1179    917   1185  1    397
  1185    917    357  1    397
  1185    357    853  1    397
  1185    853   1186  1    397
  1186    853   1187  1    397
  1187    853    358  1    397
  1187    358   1188  1    397
  1188    358    860  1    397
  1188    860   1189  1    397
  1189    860    369  1    397
   363    364    367  1    398
   378    384    377  1    399
