# MSMS solvent excluded surface faces for fragments/fragment19.xyzr
#faces  #sphere density probe_r
   1450      35  3.00  1.50
     1    231      2  3      3
     2    231    232  3      3
   231    233    232  3      3
   232    233    234  3      3
   233    235    234  3      3
   234    235    236  3      3
   235      5    236  3      3
   236      5      4  3      3
     5    237      6  3      5
     6    237    238  3      5
   237    239    238  3      5
   238    239    240  3      5
   239      8    240  3      5
   240      8      7  3      5
     8    242    241  3      7
   241    242    243  3      7
   241    243      9  3      7
     9    243    244  3      7
   242     11    243  3      7
   243     11    245  3      7
   243    245    244  3      7
   244    245     10  3      7
    11    247    246  3      8
   246    247    248  3      8
   246    248     12  3      8
    12    248    249  3      8
   247      1    248  3      8
   248      1    250  3      8
   248    250    249  3      8
   249    250      3  3      8
    12     14     10  3     10
    10     14     13  3     10
    14    251     15  3     12
    15    251    252  3     12
   251    253    252  3     12
   252    253    254  3     12
   253    255    254  3     12
   254    255    256  3     12
   255    257    256  3     12
   256    257    258  3     12
   257     17    258  3     12
   258     17     16  3     12
    17     20    259  3     14
   259     20    260  3     14
   259    260     18  3     14
    18    260     19  3     14
    20     23    261  3     16
   261     23    262  3     16
   261    262     21  3     16
    21    262     22  3     16
    23    264    263  3     17
   263    264    265  3     17
   263    265     24  3     17
    24    265    266  3     17
   264      3    265  3     17
   265      3    267  3     17
   265    267    266  3     17
   266    267      2  3     17
    24     26    268  3     19
   268     26    269  3     19
   268    269     22  3     19
    22    269     25  3     19
    26     29    270  3     21
   270     29    271  3     21
   270    271     27  3     21
    27    271     28  3     21
    29     32    272  3     23
   272     32    273  3     23
   272    273     30  3     23
    30    273     31  3     23
    32    275    274  3     25
   274    275    276  3     25
   274    276     33  3     25
    33    276    277  3     25
   275     35    276  3     25
   276     35    278  3     25
   276    278    277  3     25
   277    278     34  3     25
    35      4     36  3     26
    36      4      6  3     26
    36     38    279  3     28
   279     38    280  3     28
   279    280     34  3     28
    34    280     37  3     28
    38     41     39  3     30
    39     41     40  3     30
    41    281     42  3     32
    42    281    282  3     32
   281     44    282  3     32
   282     44     43  3     32
    44     47    283  3     34
   283     47    284  3     34
   283    284     45  3     34
    45    284     46  3     34
    47    285     48  3     35
    48    285    286  3     35
   285      7    286  3     35
   286      7      9  3     35
    48     50    287  3     37
   287     50    288  3     37
   287    288     46  3     37
    46    288     49  3     37
    50     53    289  3     39
   289     53    290  3     39
   289    290     51  3     39
    51    290     52  3     39
    53    291     54  3     41
    54    291    292  3     41
   291    293    292  3     41
   292    293    294  3     41
   293     56    294  3     41
   294     56     55  3     41
    56    296    295  3     43
   295    296    297  3     43
   295    297     57  3     43
    57    297    298  3     43
   296     59    297  3     43
   297     59    299  3     43
   297    299    298  3     43
   298    299     58  3     43
    59    300     60  3     44
    60    300    301  3     44
   300    302    301  3     44
   301    302    303  3     44
   302     13    303  3     44
   303     13     15  3     44
    60     62    304  3     46
   304     62    306  3     46
   304    306    305  3     46
   305    306    307  3     46
   305    307     58  3     46
    58    307     61  3     46
    62     65     63  3     48
    63     65     64  3     48
    65     68    308  3     50
   308     68    309  3     50
   308    309     66  3     50
    66    309     67  3     50
    68     71     69  3     52
    69     71     70  3     52
    71     16    310  3     53
   310     16    311  3     53
   310    311     72  3     53
    72    311     18  3     53
    72    312     70  3     55
    70    312    313  3     55
   312     74    313  3     55
   313     74     73  3     55
    74    314     75  3     57
    75    314    315  3     57
   314     77    315  3     57
   315     77     76  3     57
    77    316     78  3     59
    78    316    317  3     59
   316    318    317  3     59
   317    318    319  3     59
   318     80    319  3     59
   319     80     79  3     59
    80    320     81  3     60
    81    320    321  3     60
   320     19    321  3     60
   321     19     21  3     60
    81     83     79  3     62
    79     83     82  3     62
    83     25     84  3     63
    84     25     27  3     63
    84     28     82  3     64
    82     28     30  3     64
    78     86    322  3     66
   322     86    323  3     66
   322    323     76  3     66
    76    323     85  3     66
    86     89    324  3     68
   324     89    325  3     68
   324    325     87  3     68
    87    325     88  3     68
    89    326     90  3     70
    90    326    327  3     70
   326    328    327  3     70
   327    328    329  3     70
   328     92    329  3     70
   329     92     91  3     70
    92    331    330  3     72
   330    331    332  3     72
   330    332     93  3     72
    93    332    333  3     72
   331     95    332  3     72
   332     95    334  3     72
   332    334    333  3     72
   333    334     94  3     72
    95    335     96  3     73
    96    335    336  3     73
   335     31    336  3     73
   336     31     33  3     73
    96     98    337  3     75
   337     98    338  3     75
   337    338     94  3     75
    94    338     97  3     75
    98     37     99  3     76
    99     37     39  3     76
    99    101    339  3     78
   339    101    340  3     78
   339    340     97  3     78
    97    340    100  3     78
   101    104    341  3     80
   341    104    342  3     80
   341    342    102  3     80
   102    342    103  3     80
   104    107    105  3     82
   105    107    106  3     82
   107     40    343  3     83
   343     40    344  3     83
   343    344    108  3     83
   108    344     42  3     83
   108    110    345  3     85
   345    110    346  3     85
   345    346    106  3     85
   106    346    109  3     85
   110     43    347  3     86
   347     43    348  3     86
   347    348    111  3     86
   111    348     45  3     86
   111    113    349  3     88
   349    113    350  3     88
   349    350    109  3     88
   109    350    112  3     88
   113    353    351  3     90
   351    353    354  3     90
   351    354    352  3     90
   352    354    355  3     90
   352    355    114  3     90
   114    355    356  3     90
   353    116    354  3     90
   354    116    357  3     90
   354    357    355  3     90
   355    357    358  3     90
   355    358    356  3     90
   356    358    115  3     90
   116    359    117  3     92
   117    359    360  3     92
   359    361    360  3     92
   360    361    362  3     92
   361    119    362  3     92
   362    119    118  3     92
   119    122    120  3     94
   120    122    121  3     94
   122     49    123  3     95
   123     49     51  3     95
   123    363    121  3     97
   121    363    364  3     97
   363    125    364  3     97
   364    125    124  3     97
   125    128    126  3     99
   126    128    127  3     99
   128     52    365  3    100
   365     52    366  3    100
   365    366    129  3    100
   129    366     54  3    100
   129    131    367  3    102
   367    131    369  3    102
   367    369    368  3    102
   368    369    370  3    102
   368    370    127  3    102
   127    370    130  3    102
   131     55    371  3    103
   371     55    372  3    103
   371    372    132  3    103
   132    372     57  3    103
   132    373    130  3    105
   130    373    374  3    105
   373    375    374  3    105
   374    375    376  3    105
   375    377    376  3    105
   376    377    378  3    105
   377    379    378  3    105
   378    379    380  3    105
   379    381    380  3    105
   380    381    382  3    105
   381    383    382  3    105
   382    383    384  3    105
   383    385    384  3    105
   384    385    386  3    105
   385    134    386  3    105
   386    134    133  3    105
   134    137    135  3    107
   135    137    136  3    107
   137    388    387  3    109
   387    388    389  3    109
   387    389    138  3    109
   138    389    390  3    109
   388    140    389  3    109
   389    140    391  3    109
   389    391    390  3    109
   390    391    139  3    109
   140     61    392  3    110
   392     61    393  3    110
   392    393    141  3    110
   141    393     63  3    110
   141     64    139  3    111
   139     64     66  3    111
   138    143    394  3    113
   394    143    395  3    113
   394    395    136  3    113
   136    395    142  3    113
   143    396    144  3    114
   144    396    397  3    114
   396    398    397  3    114
   397    398    399  3    114
   398     67    399  3    114
   399     67     69  3    114
   144    400    142  3    116
   142    400    401  3    116
   400    146    401  3    116
   401    146    145  3    116
   146    149    147  3    118
   147    149    148  3    118
   149    402    150  3    119
   150    402    403  3    119
   402    404    403  3    119
   403    404    405  3    119
   404     73    405  3    119
   405     73     75  3    119
   150    152    406  3    121
   406    152    407  3    121
   406    407    148  3    121
   148    407    151  3    121
   152     85    408  3    122
   408     85    410  3    122
   408    410    409  3    122
   409    410    411  3    122
   409    411    153  3    122
   153    411     87  3    122
   153    414    412  3    124
   412    414    415  3    124
   412    415    413  3    124
   413    415    416  3    124
   413    416    151  3    124
   151    416    417  3    124
   414    418    415  3    124
   415    418    419  3    124
   415    419    416  3    124
   416    419    420  3    124
   416    420    417  3    124
   417    420    421  3    124
   418    155    419  3    124
   419    155    422  3    124
   419    422    420  3    124
   420    422    423  3    124
   420    423    421  3    124
   421    423    154  3    124
   155    425    424  3    126
   424    425    426  3    126
   424    426    156  3    126
   156    426    427  3    126
   425    158    426  3    126
   426    158    428  3    126
   426    428    427  3    126
   427    428    157  3    126
   158    429    159  3    128
   159    429    430  3    128
   429    161    430  3    128
   430    161    160  3    128
   161    432    431  3    130
   431    432    433  3    130
   431    433    162  3    130
   162    433    434  3    130
   432    164    433  3    130
   433    164    435  3    130
   433    435    434  3    130
   434    435    163  3    130
   164     88    436  3    131
   436     88    437  3    131
   436    437    165  3    131
   165    437     90  3    131
   165     91    438  3    132
   438     91    439  3    132
   438    439    163  3    132
   163    439     93  3    132
   162    440    160  3    134
   160    440    441  3    134
   440    167    441  3    134
   441    167    166  3    134
   167    443    442  3    136
   442    443    444  3    136
   442    444    168  3    136
   168    444    445  3    136
   443    170    444  3    136
   444    170    446  3    136
   444    446    445  3    136
   445    446    169  3    136
   170    100    171  3    137
   171    100    102  3    137
   171    173    169  3    139
   169    173    172  3    139
   173    103    174  3    140
   174    103    105  3    140
   174    112    447  3    141
   447    112    448  3    141
   447    448    172  3    141
   172    448    114  3    141
   168    449    166  3    142
   166    449    450  3    142
   449    157    450  3    142
   450    157    159  3    142
   156    176    451  3    144
   451    176    453  3    144
   451    453    452  3    144
   452    453    454  3    144
   452    454    154  3    144
   154    454    175  3    144
   176    115    455  3    145
   455    115    458  3    145
   455    458    456  3    145
   456    458    459  3    145
   456    459    457  3    145
   457    459    460  3    145
   457    460    177  3    145
   177    460    117  3    145
   177    461    175  3    147
   175    461    462  3    147
   461    463    462  3    147
   462    463    464  3    147
   463    465    464  3    147
   464    465    466  3    147
   465    179    466  3    147
   466    179    178  3    147
   179    467    180  3    149
   180    467    468  3    149
   467    182    468  3    149
   468    182    181  3    149
   182    185    469  3    151
   469    185    470  3    151
   469    470    183  3    151
   183    470    184  3    151
   185    472    471  3    153
   471    472    473  3    153
   471    473    186  3    153
   186    473    474  3    153
   472    475    473  3    153
   473    475    476  3    153
   473    476    474  3    153
   474    476    477  3    153
   475    478    476  3    153
   476    478    479  3    153
   476    479    477  3    153
   477    479    480  3    153
   478    188    479  3    153
   479    188    481  3    153
   479    481    480  3    153
   480    481    187  3    153
   188    191    482  3    155
   482    191    483  3    155
   482    483    189  3    155
   189    483    190  3    155
   191    484    192  3    156
   192    484    485  3    156
   484    118    485  3    156
   485    118    120  3    156
   192    194    190  3    158
   190    194    193  3    158
   194    486    195  3    160
   195    486    487  3    160
   486    488    487  3    160
   487    488    489  3    160
   488    197    489  3    160
   489    197    196  3    160
   197    124    490  3    161
   490    124    491  3    161
   490    491    198  3    161
   198    491    126  3    161
   198    200    196  3    163
   196    200    199  3    163
   200    492    201  3    165
   201    492    493  3    165
   492    494    493  3    165
   493    494    495  3    165
   494    496    495  3    165
   495    496    497  3    165
   496    498    497  3    165
   497    498    499  3    165
   498    500    499  3    165
   499    500    501  3    165
   500    502    501  3    165
   501    502    503  3    165
   502    504    503  3    165
   503    504    505  3    165
   504    203    505  3    165
   505    203    202  3    165
   203    206    204  3    167
   204    206    205  3    167
   206    209    506  3    169
   506    209    507  3    169
   506    507    207  3    169
   207    507    208  3    169
   209    133    210  3    170
   210    133    135  3    170
   210    508    208  3    172
   208    508    509  3    172
   508    212    509  3    172
   509    212    211  3    172
   212    145    213  3    173
   213    145    147  3    173
   213    178    211  3    174
   211    178    180  3    174
   207    510    205  3    176
   205    510    511  3    176
   510    512    511  3    176
   511    512    513  3    176
   512    215    513  3    176
   513    215    214  3    176
   215    181    216  3    177
   216    181    183  3    177
   216    514    214  3    179
   214    514    515  3    179
   514    516    515  3    179
   515    516    517  3    179
   516    518    517  3    179
   517    518    519  3    179
   518    218    519  3    179
   519    218    217  3    179
   218    520    219  3    181
   219    520    521  3    181
   520    522    521  3    181
   521    522    523  3    181
   522    524    523  3    181
   523    524    525  3    181
   524    526    525  3    181
   525    526    527  3    181
   526    528    527  3    181
   527    528    529  3    181
   528    221    529  3    181
   529    221    220  3    181
   221    530    222  3    182
   222    530    531  3    182
   530    532    531  3    182
   531    532    533  3    182
   532    534    533  3    182
   533    534    535  3    182
   534    193    535  3    182
   535    193    195  3    182
   222    224    220  3    184
   220    224    223  3    184
   224    536    225  3    185
   225    536    537  3    185
   536    199    537  3    185
   537    199    201  3    185
   225    539    538  3    187
   538    539    540  3    187
   538    540    223  3    187
   223    540    541  3    187
   539    542    540  3    187
   540    542    543  3    187
   540    543    541  3    187
   541    543    544  3    187
   542    227    543  3    187
   543    227    545  3    187
   543    545    544  3    187
   544    545    226  3    187
   227    546    228  3    188
   228    546    547  3    188
   546    202    547  3    188
   547    202    204  3    188
   228    217    226  3    189
   226    217    219  3    189
   189    548    187  3    190
   187    548    549  3    190
   548    550    549  3    190
   549    550    551  3    190
   550    552    551  3    190
   551    552    553  3    190
   552    554    553  3    190
   553    554    555  3    190
   554    556    555  3    190
   555    556    557  3    190
   556    184    557  3    190
   557    184    186  3    190
   229    558    230  3    191
   230    558    559  3    191
   558    560    559  3    191
   559    560    561  3    191
   560    562    561  3    191
   561    562    563  3    191
   562    564    563  3    191
   563    564    565  3    191
   564    566    565  3    191
   565    566    567  3    191
   566    229    567  3    191
   567    229    230  3    191
   250      1      2  2      1
   250      2    267  2      1
   250    267      3  2      1
     6      4      5  2      2
     9      7    241  2      4
   241      7      8  2      4
    12     10    246  2      6
   246     10    245  2      6
   246    245     11  2      6
    15     13     14  2      9
   311     16     17  2     11
   311     17    259  2     11
   311    259     18  2     11
    21     19    261  2     13
   261     19    260  2     13
   261    260     20  2     13
   268     22    262  2     15
   268    262    263  2     15
   268    263     24  2     15
   263    262     23  2     15
    27     25    269  2     18
    27    269    270  2     18
   270    269     26  2     18
    30     28    272  2     20
   272     28    271  2     20
   272    271     29  2     20
    33     31    274  2     22
   274     31    273  2     22
   274    273     32  2     22
   279     34    278  2     24
   279    278     36  2     24
    36    278     35  2     24
    39     37    280  2     27
    39    280     38  2     27
   344     40     41  2     29
   344     41     42  2     29
   348     43     44  2     31
   348     44    283  2     31
   348    283     45  2     31
   287     46    284  2     33
   287    284     48  2     33
    48    284     47  2     33
    51     49    288  2     36
    51    288    289  2     36
   289    288     50  2     36
   366     52    290  2     38
   366    290     54  2     38
    54    290     53  2     38
   372     55    295  2     40
   372    295     57  2     40
   295     55     56  2     40
   305     58    299  2     42
   305    299    304  2     42
   304    299     59  2     42
   304     59     60  2     42
   393     61    307  2     45
   393    307     63  2     45
    63    307    306  2     45
    63    306     62  2     45
    66     64    308  2     47
   308     64     65  2     47
    69     67    309  2     49
    69    309     68  2     49
    72     70    310  2     51
   310     70     71  2     51
    75     73     74  2     54
   322     76     77  2     56
   322     77     78  2     56
    81     79     80  2     58
    84     82     83  2     61
   410     85    323  2     65
   410    323     86  2     65
   410     86    324  2     65
   410    324    411  2     65
   411    324     87  2     65
   437     88    325  2     67
   437    325     89  2     67
   437     89     90  2     67
   439     91     92  2     69
   439     92    330  2     69
   439    330     93  2     69
   337     94    334  2     71
   337    334     95  2     71
   337     95     96  2     71
   339     97    338  2     74
   339    338     99  2     74
    99    338     98  2     74
   102    100    340  2     77
   102    340    341  2     77
   341    340    101  2     77
   105    103    342  2     79
   105    342    104  2     79
   345    106    107  2     81
   345    107    343  2     81
   345    343    108  2     81
   349    109    346  2     84
   349    346    568  2     84
   349    568    347  2     84
   349    347    111  2     84
   347    568    110  2     84
   110    568    346  2     84
   448    112    352  2     87
   448    352    114  2     87
   352    112    350  2     87
   352    350    351  2     87
   351    350    113  2     87
   458    115    358  2     89
   458    358    459  2     89
   459    358    357  2     89
   459    357    460  2     89
   460    357    116  2     89
   460    116    117  2     89
   120    118    119  2     91
   123    121    122  2     93
   491    124    125  2     96
   491    125    126  2     96
   368    127    128  2     98
   368    128    367  2     98
   367    128    365  2     98
   367    365    129  2     98
   132    130    370  2    101
   132    370    371  2    101
   371    370    369  2    101
   371    369    131  2    101
   135    133    134  2    104
   394    136    387  2    106
   394    387    138  2    106
   387    136    137  2    106
   141    139    391  2    108
   141    391    392  2    108
   392    391    140  2    108
   144    142    395  2    112
   144    395    143  2    112
   147    145    146  2    115
   406    148    149  2    117
   406    149    150  2    117
   413    151    569  2    120
   413    569    409  2    120
   413    409    412  2    120
   412    409    153  2    120
   409    569    408  2    120
   408    569    152  2    120
   152    569    407  2    120
   407    569    151  2    120
   452    154    423  2    123
   452    423    570  2    123
   452    570    451  2    123
   451    570    571  2    123
   451    571    156  2    123
   156    571    424  2    123
   424    571    422  2    123
   424    422    155  2    123
   422    571    570  2    123
   422    570    423  2    123
   159    157    428  2    125
   159    428    158  2    125
   162    160    431  2    127
   431    160    161  2    127
   438    163    572  2    129
   438    572    436  2    129
   438    436    165  2    129
   436    572    164  2    129
   164    572    435  2    129
   435    572    163  2    129
   168    166    442  2    133
   442    166    167  2    133
   171    169    446  2    135
   171    446    170  2    135
   447    172    173  2    138
   447    173    174  2    138
   177    175    457  2    143
   457    175    454  2    143
   457    454    456  2    143
   456    454    453  2    143
   456    453    455  2    143
   455    453    176  2    143
   180    178    179  2    146
   183    181    469  2    148
   469    181    182  2    148
   186    184    470  2    150
   186    470    471  2    150
   471    470    185  2    150
   189    187    482  2    152
   482    187    481  2    152
   482    481    188  2    152
   192    190    483  2    154
   192    483    191  2    154
   195    193    194  2    157
   198    196    490  2    159
   490    196    197  2    159
   201    199    200  2    162
   204    202    203  2    164
   207    205    506  2    166
   506    205    206  2    166
   210    208    507  2    168
   210    507    209  2    168
   213    211    212  2    171
   216    214    215  2    175
   219    217    218  2    178
   222    220    221  2    180
   538    223    224  2    183
   538    224    225  2    183
   228    226    545  2    186
   228    545    227  2    186
   573    577    578  1    192
   574    573    578  1    192
   575    574    578  1    192
   576    575    578  1    192
   578    577    579  1    192
   576    578    579  1    192
   579    577    231  1    192
   579    231      1  1    192
   579      1    247  1    192
   579    247    576  1    192
   576    247     11  1    192
   576     11    575  1    192
   575     11    242  1    192
   575    242      8  1    192
   575      8    574  1    192
   574      8    239  1    192
   574    239    237  1    192
   574    237    573  1    192
   573    237      5  1    192
   573      5    235  1    192
   573    235    577  1    192
   577    235    233  1    192
   577    233    231  1    192
   581    580    583  1    193
   581    583    584  1    193
   582    581    584  1    193
   582    584    234  1    193
   582    234    236  1    193
   582    236    275  1    193
   582    275     32  1    193
   582     32    581  1    193
   581     32     29  1    193
   581     29     26  1    193
   581     26    580  1    193
   580     26     24  1    193
   580     24    266  1    193
   580    266    583  1    193
   583    266      2  1    193
   583      2    232  1    193
   583    232    584  1    193
   584    232    234  1    193
   275    236     35  1    193
    35    236      4  1    193
   285     47     44  1    194
   285     44    281  1    194
   285    281    240  1    194
   285    240      7  1    194
   240    281    238  1    194
   238    281      6  1    194
     6    281     41  1    194
     6     41     38  1    194
     6     38     36  1    194
    10     13    244  1    195
   300     59    296  1    195
   300    296     56  1    195
   300     56    302  1    195
   302     56    293  1    195
   302    293    244  1    195
   302    244     13  1    195
   244    293    291  1    195
   244    291      9  1    195
     9    291    286  1    195
   286    291     53  1    195
   286     53     48  1    195
    48     53     50  1    195
    14     12    251  1    196
   585    587    588  1    196
   586    585    588  1    196
   586    588    264  1    196
   586    264     23  1    196
   586     23     20  1    196
   586     20    257  1    196
   586    257    585  1    196
   585    257    255  1    196
   585    255    587  1    196
   587    255    253  1    196
   587    253    251  1    196
   587    251    249  1    196
   587    249      3  1    196
   587      3    588  1    196
   588      3    264  1    196
   249    251     12  1    196
   257     20     17  1    196
   589    592    593  1    197
   590    589    593  1    197
   590    593    256  1    197
   590    256    591  1    197
   590    591     65  1    197
   590     65     62  1    197
   590     62    589  1    197
   589     62     60  1    197
   589     60    301  1    197
   589    301    592  1    197
   592    301    303  1    197
   592    303    252  1    197
   592    252    593  1    197
   593    252    254  1    197
   593    254    256  1    197
   252    303     15  1    197
    65    591     68  1    197
    68    591    258  1    197
    68    258     71  1    197
    71    258     16  1    197
   258    591    256  1    197
   320     80    318  1    198
   320    318    594  1    198
   320    594     74  1    198
   320     74    312  1    198
   320    312     18  1    198
   320     18     19  1    198
    18    312     72  1    198
    74    594    314  1    198
   314    594    316  1    198
   314    316     77  1    198
   316    594    318  1    198
    22     25    596  1    199
    22    596    595  1    199
    22    595     21  1    199
    21    595    321  1    199
   321    595    596  1    199
   321    596     81  1    199
    81    596     83  1    199
    83    596     25  1    199
    28     84     27  1    200
   598    597    600  1    201
   598    600    601  1    201
   599    598    601  1    201
   601    600    602  1    201
   601    602    335  1    201
   601    335    599  1    201
   599    335    331  1    201
   599    331     92  1    201
   599     92    598  1    201
   598     92    328  1    201
   598    328    597  1    201
   597    328    319  1    201
   597    319     79  1    201
   597     79    600  1    201
   600     79     82  1    201
   600     82    602  1    201
   602     82     30  1    201
   602     30     31  1    201
   602     31    335  1    201
   319    328    326  1    201
   319    326    317  1    201
   317    326     89  1    201
   317     89     78  1    201
    78     89     86  1    201
   331    335     95  1    201
    34     37     98  1    202
    34     98    277  1    202
   277     98     96  1    202
   277     96    603  1    202
   277    603     33  1    202
    33    603    336  1    202
   336    603     96  1    202
    40    107    104  1    203
    40    104    101  1    203
    40    101     39  1    203
    39    101     99  1    203
    43    110    604  1    204
    43    604    282  1    204
   282    604     42  1    204
    42    604    108  1    204
   108    604    110  1    204
    46     49    122  1    205
    46    122    119  1    205
    46    119     45  1    205
    45    119    361  1    205
    45    361    605  1    205
    45    605    111  1    205
   111    605    113  1    205
   113    605    353  1    205
   353    605    359  1    205
   353    359    116  1    205
   359    605    361  1    205
    52    128    363  1    206
    52    363    123  1    206
    52    123     51  1    206
   363    128    125  1    206
    55    131    606  1    207
    55    606    294  1    207
   294    606    292  1    207
   292    606    129  1    207
   292    129     54  1    207
   129    606    131  1    207
    58     61    377  1    208
    58    377    375  1    208
    58    375    298  1    208
   298    375    373  1    208
   298    373     57  1    208
    57    373    132  1    208
   377     61    379  1    208
   379     61    140  1    208
   379    140    381  1    208
   381    140    388  1    208
   381    388    383  1    208
   383    388    385  1    208
   385    388    137  1    208
   385    137    134  1    208
    64    141     63  1    209
   396    143    138  1    210
   396    138    607  1    210
   396    607    398  1    210
   398    607     67  1    210
    67    607     66  1    210
    66    607    390  1    210
    66    390    139  1    210
   390    607    138  1    210
   313     73    399  1    211
   313    399     70  1    211
    70    399     69  1    211
   399     73    404  1    211
   399    404    397  1    211
   397    404    609  1    211
   397    609    608  1    211
   397    608    400  1    211
   397    400    144  1    211
   400    608    146  1    211
   146    608    149  1    211
   149    608    402  1    211
   402    608    609  1    211
   402    609    404  1    211
    76     85    403  1    212
    76    403    315  1    212
   315    403    405  1    212
   315    405     75  1    212
   403     85    152  1    212
   403    152    150  1    212
   610    611    612  1    213
   610    612    613  1    213
   610    613    614  1    213
   610    614    615  1    213
   610    615    616  1    213
   610    616    611  1    213
   612    617    618  1    213
   613    612    618  1    213
   613    618    619  1    213
   613    619    620  1    213
   614    613    620  1    213
   614    620    621  1    213
   615    614    621  1    213
   618    617    622  1    213
   618    622    623  1    213
   619    618    623  1    213
   619    623    624  1    213
   619    624    625  1    213
   620    619    625  1    213
   620    625    161  1    213
   620    161    621  1    213
   621    161    429  1    213
   621    429    615  1    213
   615    429    158  1    213
   615    158    616  1    213
   616    158    425  1    213
   616    425    155  1    213
   616    155    611  1    213
   611    155    418  1    213
   611    418    414  1    213
   611    414    612  1    213
   612    414    617  1    213
   617    414    153  1    213
   617    153    622  1    213
   622    153     87  1    213
   622     87     88  1    213
   622     88    623  1    213
   623     88    624  1    213
   624     88    164  1    213
   624    164    625  1    213
   625    164    432  1    213
   625    432    161  1    213
    91    165    626  1    214
    91    626    329  1    214
   329    626    327  1    214
   327    626     90  1    214
    90    626    165  1    214
   627    630    631  1    215
   628    627    631  1    215
   628    631    632  1    215
   630    629    634  1    215
   630    634    635  1    215
   631    630    635  1    215
   631    635    636  1    215
   632    631    636  1    215
   632    636    637  1    215
   633    632    637  1    215
   633    637    638  1    215
   635    634    639  1    215
   635    639    640  1    215
   636    635    640  1    215
   636    640    641  1    215
   637    636    641  1    215
   638    637    641  1    215
   638    641    642  1    215
   638    642    170  1    215
   638    170    443  1    215
   638    443    633  1    215
   633    443    167  1    215
   633    167    440  1    215
   633    440    628  1    215
   633    628    632  1    215
   628    440    162  1    215
   628    162    627  1    215
   627    162    434  1    215
   627    434    630  1    215
   630    434    629  1    215
   629    434    163  1    215
   629    163     93  1    215
   629     93    634  1    215
   634     93    333  1    215
   634    333    639  1    215
   639    333     94  1    215
   639     94    640  1    215
   640     94    641  1    215
   641     94     97  1    215
   641     97    642  1    215
   642     97    100  1    215
   642    100    170  1    215
   103    173    171  1    216
   103    171    102  1    216
   106    109    112  1    217
   106    112    174  1    217
   106    174    105  1    217
   644    646    647  1    218
   645    644    647  1    218
   645    647    648  1    218
   645    648    649  1    218
   643    645    649  1    218
   646    650    651  1    218
   647    646    651  1    218
   647    651    652  1    218
   648    647    652  1    218
   648    652    653  1    218
   649    648    653  1    218
   650    654    655  1    218
   651    650    655  1    218
   651    655    656  1    218
   652    651    656  1    218
   652    656    657  1    218
   653    652    657  1    218
   656    655    658  1    218
   656    658    659  1    218
   657    656    659  1    218
   657    659    356  1    218
   657    356    115  1    218
   657    115    653  1    218
   653    115    649  1    218
   649    115    176  1    218
   649    176    643  1    218
   643    176    156  1    218
   643    156    427  1    218
   643    427    645  1    218
   645    427    157  1    218
   645    157    644  1    218
   644    157    449  1    218
   644    449    646  1    218
   646    449    168  1    218
   646    168    650  1    218
   650    168    654  1    218
   654    168    445  1    218
   654    445    658  1    218
   654    658    655  1    218
   658    445    169  1    218
   658    169    172  1    218
   658    172    659  1    218
   659    172    114  1    218
   659    114    356  1    218
   484    191    666  1    219
   484    666    362  1    219
   484    362    118  1    219
   362    666    360  1    219
   360    666    665  1    219
   360    665    117  1    219
   117    665    664  1    219
   117    664    177  1    219
   177    664    663  1    219
   177    663    461  1    219
   461    663    661  1    219
   461    661    463  1    219
   463    661    465  1    219
   465    661    660  1    219
   465    660    179  1    219
   179    660    467  1    219
   467    660    182  1    219
   182    660    185  1    219
   185    660    661  1    219
   185    661    662  1    219
   185    662    472  1    219
   472    662    663  1    219
   472    663    475  1    219
   475    663    664  1    219
   475    664    478  1    219
   478    664    665  1    219
   478    665    666  1    219
   478    666    188  1    219
   188    666    191  1    219
   663    662    661  1    219
   364    124    197  1    220
   364    197    488  1    220
   364    488    667  1    220
   364    667    121  1    220
   121    667    120  1    220
   120    667    485  1    220
   485    667    486  1    220
   485    486    194  1    220
   485    194    192  1    220
   486    667    488  1    220
   668    670    671  1    221
   669    673    674  1    221
   670    669    674  1    221
   670    674    675  1    221
   671    670    675  1    221
   671    675    676  1    221
   676    675    678  1    221
   680    684    685  1    221
   681    680    685  1    221
   681    685    686  1    221
   682    681    686  1    221
   683    682    686  1    221
   685    684    689  1    221
   686    685    689  1    221
   687    686    689  1    221
   683    686    687  1    221
   687    689    376  1    221
   687    376    688  1    221
   687    688    558  1    221
   687    558    683  1    221
   683    558    682  1    221
   682    558    229  1    221
   682    229    679  1    221
   682    679    494  1    221
   682    494    681  1    221
   681    494    492  1    221
   681    492    680  1    221
   680    492    200  1    221
   680    200    198  1    221
   680    198    684  1    221
   684    198    126  1    221
   684    126    127  1    221
   684    127    130  1    221
   684    130    689  1    221
   689    130    374  1    221
   689    374    376  1    221
   494    679    496  1    221
   496    679    677  1    221
   496    677    498  1    221
   498    677    672  1    221
   498    672    500  1    221
   500    672    502  1    221
   502    672    673  1    221
   502    673    669  1    221
   502    669    504  1    221
   504    669    670  1    221
   504    670    668  1    221
   504    668    203  1    221
   203    668    206  1    221
   206    668    209  1    221
   209    668    133  1    221
   133    668    671  1    221
   133    671    386  1    221
   386    671    676  1    221
   386    676    384  1    221
   384    676    678  1    221
   384    678    382  1    221
   382    678    562  1    221
   382    562    380  1    221
   380    562    560  1    221
   380    560    378  1    221
   378    560    688  1    221
   378    688    376  1    221
   688    560    558  1    221
   562    678    564  1    221
   564    678    675  1    221
   564    675    674  1    221
   564    674    673  1    221
   564    673    566  1    221
   566    673    672  1    221
   566    672    677  1    221
   566    677    229  1    221
   229    677    679  1    221
   136    142    135  1    222
   135    142    690  1    222
   135    690    210  1    222
   210    690    508  1    222
   508    690    212  1    222
   212    690    145  1    222
   145    690    401  1    222
   401    690    142  1    222
   692    691    693  1    223
   692    693    417  1    223
   692    417    421  1    223
   692    421    466  1    223
   692    466    691  1    223
   691    466    178  1    223
   691    178    213  1    223
   691    213    147  1    223
   691    147    693  1    223
   693    147    148  1    223
   693    148    151  1    223
   693    151    417  1    223
   466    421    464  1    223
   464    421    462  1    223
   462    421    154  1    223
   462    154    175  1    223
   441    166    450  1    224
   441    450    694  1    224
   441    694    430  1    224
   441    430    160  1    224
   430    694    159  1    224
   159    694    450  1    224
   181    215    468  1    225
   468    215    512  1    225
   468    512    180  1    225
   180    512    510  1    225
   180    510    509  1    225
   180    509    211  1    225
   509    510    207  1    225
   509    207    208  1    225
   695    696    697  1    226
   700    702    703  1    226
   701    700    703  1    226
   701    703    704  1    226
   701    704    528  1    226
   701    528    526  1    226
   701    526    700  1    226
   700    526    550  1    226
   700    550    548  1    226
   700    548    702  1    226
   702    548    193  1    226
   702    193    534  1    226
   702    534    703  1    226
   703    534    532  1    226
   703    532    704  1    226
   704    532    530  1    226
   704    530    221  1    226
   704    221    528  1    226
   193    548    190  1    226
   190    548    189  1    226
   550    526    699  1    226
   550    699    552  1    226
   552    699    524  1    226
   552    524    698  1    226
   552    698    554  1    226
   554    698    695  1    226
   554    695    556  1    226
   556    695    697  1    226
   556    697    216  1    226
   556    216    183  1    226
   556    183    184  1    226
   216    697    514  1    226
   514    697    516  1    226
   516    697    696  1    226
   516    696    518  1    226
   518    696    520  1    226
   518    520    218  1    226
   520    696    522  1    226
   522    696    695  1    226
   522    695    698  1    226
   522    698    524  1    226
   524    699    526  1    226
   706    707    708  1    227
   708    707    709  1    227
   708    709    551  1    227
   708    551    553  1    227
   708    553    706  1    227
   706    553    555  1    227
   706    555    557  1    227
   706    557    705  1    227
   706    705    707  1    227
   707    705    474  1    227
   707    474    477  1    227
   707    477    480  1    227
   707    480    709  1    227
   709    480    187  1    227
   709    187    549  1    227
   709    549    551  1    227
   474    705    186  1    227
   186    705    557  1    227
   196    199    489  1    228
   489    199    711  1    228
   489    711    710  1    228
   489    710    487  1    228
   487    710    535  1    228
   487    535    195  1    228
   535    710    533  1    228
   533    710    711  1    228
   533    711    531  1    228
   531    711    536  1    228
   531    536    222  1    228
   222    536    224  1    228
   536    711    199  1    228
   546    227    712  1    229
   546    712    505  1    229
   546    505    202  1    229
   505    712    503  1    229
   503    712    714  1    229
   503    714    501  1    229
   501    714    715  1    229
   501    715    499  1    229
   499    715    497  1    229
   497    715    717  1    229
   497    717    495  1    229
   495    717    716  1    229
   495    716    718  1    229
   495    718    493  1    229
   493    718    537  1    229
   493    537    201  1    229
   537    718    716  1    229
   537    716    225  1    229
   225    716    539  1    229
   539    716    717  1    229
   539    717    715  1    229
   539    715    542  1    229
   542    715    713  1    229
   542    713    227  1    229
   227    713    712  1    229
   712    713    714  1    229
   714    713    715  1    229
   513    214    515  1    230
   513    515    719  1    230
   513    719    511  1    230
   511    719    204  1    230
   511    204    205  1    230
   204    719    547  1    230
   547    719    519  1    230
   547    519    217  1    230
   547    217    228  1    230
   519    719    517  1    230
   517    719    515  1    230
   720    723    721  1    231
   720    721    722  1    231
   721    723    725  1    231
   721    725    724  1    231
   721    724    544  1    231
   721    544    722  1    231
   722    544    226  1    231
   722    226    219  1    231
   722    219    521  1    231
   722    521    720  1    231
   720    521    523  1    231
   720    523    723  1    231
   723    523    525  1    231
   723    525    527  1    231
   723    527    725  1    231
   725    527    529  1    231
   725    529    220  1    231
   725    220    223  1    231
   725    223    541  1    231
   725    541    724  1    231
   724    541    544  1    231
   567    230    726  1    232
   567    726    565  1    232
   565    726    727  1    232
   565    727    563  1    232
   563    727    561  1    232
   561    727    559  1    232
   559    727    230  1    232
   230    727    726  1    232
