# MSMS solvent excluded surface faces for fragments/fragment47.xyzr
#faces  #sphere density probe_r
   1450      35  3.00  1.50
     1    225      2  3      3
     2    225    226  3      3
   225    227    226  3      3
   226    227    228  3      3
   227      5    228  3      3
   228      5      4  3      3
     5      8    229  3      5
   229      8    230  3      5
   229    230      6  3      5
     6    230      7  3      5
     8     11      9  3      7
     9     11     10  3      7
    11    232    231  3      9
   231    232    233  3      9
   231    233     12  3      9
    12    233    234  3      9
   232     14    233  3      9
   233     14    235  3      9
   233    235    234  3      9
   234    235     13  3      9
    14      1    236  3     10
   236      1    237  3     10
   236    237     15  3     10
    15    237      3  3     10
    15     17     13  3     12
    13     17     16  3     12
    17     20     18  3     14
    18     20     19  3     14
    20    238     21  3     16
    21    238    239  3     16
   238     23    239  3     16
   239     23     22  3     16
    23     26     24  3     18
    24     26     25  3     18
    26    240     27  3     19
    27    240    241  3     19
   240      3    241  3     19
   241      3      2  3     19
    27     29     25  3     21
    25     29     28  3     21
    29    242     30  3     23
    30    242    243  3     23
   242    244    243  3     23
   243    244    245  3     23
   244     32    245  3     23
   245     32     31  3     23
    32    246     33  3     25
    33    246    247  3     25
   246     35    247  3     25
   247     35     34  3     25
    35      4     36  3     26
    36      4      6  3     26
    36     38    248  3     28
   248     38    249  3     28
   248    249     34  3     28
    34    249     37  3     28
    38    250     39  3     30
    39    250    251  3     30
   250    252    251  3     30
   251    252    253  3     30
   252    254    253  3     30
   253    254    255  3     30
   254    256    255  3     30
   255    256    257  3     30
   256     41    257  3     30
   257     41     40  3     30
    41    258     42  3     32
    42    258    259  3     32
   258     44    259  3     32
   259     44     43  3     32
    44     47    260  3     34
   260     47    262  3     34
   260    262    261  3     34
   261    262    263  3     34
   261    263     45  3     34
    45    263     46  3     34
    47      7     48  3     35
    48      7      9  3     35
    48     10    264  3     36
   264     10    265  3     36
   264    265     46  3     36
    46    265     12  3     36
    45     50    266  3     38
   266     50    267  3     38
   266    267     43  3     38
    43    267     49  3     38
    50     53    268  3     40
   268     53    269  3     40
   268    269     51  3     40
    51    269     52  3     40
    53    270     54  3     41
    54    270    271  3     41
   270    272    271  3     41
   271    272    273  3     41
   272    274    273  3     41
   273    274    275  3     41
   274    276    275  3     41
   275    276    277  3     41
   276    278    277  3     41
   277    278    279  3     41
   278    280    279  3     41
   279    280    281  3     41
   280    282    281  3     41
   281    282    283  3     41
   282     16    283  3     41
   283     16     18  3     41
    54     56    284  3     43
   284     56    286  3     43
   284    286    285  3     43
   285    286    287  3     43
   285    287     52  3     43
    52    287     55  3     43
    56     59     57  3     45
    57     59     58  3     45
    59     62    288  3     47
   288     62    289  3     47
   288    289     60  3     47
    60    289     61  3     47
    62     65     63  3     49
    63     65     64  3     49
    65    290     66  3     51
    66    290    291  3     51
   290    292    291  3     51
   291    292    293  3     51
   292    294    293  3     51
   293    294    295  3     51
   294    296    295  3     51
   295    296    297  3     51
   296    298    297  3     51
   297    298    299  3     51
   298    300    299  3     51
   299    300    301  3     51
   300    302    301  3     51
   301    302    303  3     51
   302     68    303  3     51
   303     68     67  3     51
    68     71     69  3     53
    69     71     70  3     53
    71     19    304  3     54
   304     19    305  3     54
   304    305     72  3     54
    72    305     21  3     54
    72    306     70  3     56
    70    306    307  3     56
   306    308    307  3     56
   307    308    309  3     56
   308     74    309  3     56
   309     74     73  3     56
    74     77     75  3     58
    75     77     76  3     58
    77    310     78  3     60
    78    310    311  3     60
   310     80    311  3     60
   311     80     79  3     60
    80     22     81  3     61
    81     22     24  3     61
    81    312     79  3     63
    79    312    313  3     63
   312    314    313  3     63
   313    314    315  3     63
   314     83    315  3     63
   315     83     82  3     63
    83     86    316  3     65
   316     86    318  3     65
   316    318    317  3     65
   317    318    319  3     65
   317    319     84  3     65
    84    319     85  3     65
    86    322    320  3     67
   320    322    323  3     67
   320    323    321  3     67
   321    323    324  3     67
   321    324     87  3     67
    87    324    325  3     67
   322     89    323  3     67
   323     89    326  3     67
   323    326    324  3     67
   324    326    327  3     67
   324    327    325  3     67
   325    327     88  3     67
    89     28    328  3     68
   328     28    329  3     68
   328    329     90  3     68
    90    329     30  3     68
    90     92    330  3     70
   330     92    332  3     70
   330    332    331  3     70
   331    332    333  3     70
   331    333     88  3     70
    88    333     91  3     70
    92     31     93  3     71
    93     31     33  3     71
    93     95    334  3     73
   334     95    336  3     73
   334    336    335  3     73
   335    336    337  3     73
   335    337     91  3     73
    91    337     94  3     73
    95    338     96  3     75
    96    338    339  3     75
   338    340    339  3     75
   339    340    341  3     75
   340     98    341  3     75
   341     98     97  3     75
    98    342     99  3     77
    99    342    343  3     77
   342    101    343  3     77
   343    101    100  3     77
   101     37    344  3     78
   344     37    345  3     78
   344    345    102  3     78
   102    345     39  3     78
   102    104    346  3     80
   346    104    348  3     80
   346    348    347  3     80
   347    348    349  3     80
   347    349    100  3     80
   100    349    103  3     80
   104    351    350  3     82
   350    351    352  3     82
   350    352    105  3     82
   105    352    353  3     82
   351    107    352  3     82
   352    107    354  3     82
   352    354    353  3     82
   353    354    106  3     82
   107    356    355  3     84
   355    356    357  3     84
   355    357    108  3     84
   108    357    358  3     84
   356    110    357  3     84
   357    110    359  3     84
   357    359    358  3     84
   358    359    109  3     84
   110     40    111  3     85
   111     40     42  3     85
   111    361    360  3     87
   360    361    362  3     87
   360    362    109  3     87
   109    362    363  3     87
   361    113    362  3     87
   362    113    364  3     87
   362    364    363  3     87
   363    364    112  3     87
   113    365    114  3     89
   114    365    366  3     89
   365    116    366  3     89
   366    116    115  3     89
   116    119    367  3     91
   367    119    368  3     91
   367    368    117  3     91
   117    368    118  3     91
   119    122    369  3     93
   369    122    370  3     93
   369    370    120  3     93
   120    370    121  3     93
   122    371    123  3     94
   123    371    372  3     94
   371    373    372  3     94
   372    373    374  3     94
   373     49    374  3     94
   374     49     51  3     94
   123     55    375  3     95
   375     55    376  3     95
   375    376    121  3     95
   121    376     57  3     95
   120    125    118  3     97
   118    125    124  3     97
   125    377    126  3     98
   126    377    378  3     98
   377     58    378  3     98
   378     58     60  3     98
   126    128    124  3    100
   124    128    127  3    100
   128    379    129  3    102
   129    379    380  3    102
   379    131    380  3    102
   380    131    130  3    102
   131    134    132  3    104
   132    134    133  3    104
   134    381    135  3    105
   135    381    382  3    105
   381    383    382  3    105
   382    383    384  3    105
   383     61    384  3    105
   384     61     63  3    105
   135    385    133  3    107
   133    385    386  3    107
   385    387    386  3    107
   386    387    388  3    107
   387    389    388  3    107
   388    389    390  3    107
   389    137    390  3    107
   390    137    136  3    107
   137    140    138  3    109
   138    140    139  3    109
   140    391    141  3    110
   141    391    392  3    110
   391     64    392  3    110
   392     64     66  3    110
   141    394    393  3    112
   393    394    395  3    112
   393    395    139  3    112
   139    395    396  3    112
   394    397    395  3    112
   395    397    398  3    112
   395    398    396  3    112
   396    398    399  3    112
   397    143    398  3    112
   398    143    400  3    112
   398    400    399  3    112
   399    400    142  3    112
   143    401    144  3    113
   144    401    402  3    113
   401     67    402  3    113
   402     67     69  3    113
   144    146    142  3    115
   142    146    145  3    115
   146    403    147  3    116
   147    403    404  3    116
   403    405    404  3    116
   404    405    406  3    116
   405    407    406  3    116
   406    407    408  3    116
   407     73    408  3    116
   408     73     75  3    116
   147    409    145  3    117
   145    409    410  3    117
   409    411    410  3    117
   410    411    412  3    117
   411    413    412  3    117
   412    413    414  3    117
   413    415    414  3    117
   414    415    416  3    117
   415    417    416  3    117
   416    417    418  3    117
   417    136    418  3    117
   418    136    138  3    117
   132    149    419  3    119
   419    149    420  3    119
   419    420    130  3    119
   130    420    148  3    119
   149    422    421  3    121
   421    422    423  3    121
   421    423    150  3    121
   150    423    424  3    121
   422    425    423  3    121
   423    425    426  3    121
   423    426    424  3    121
   424    426    427  3    121
   425    428    426  3    121
   426    428    429  3    121
   426    429    427  3    121
   427    429    430  3    121
   428    431    429  3    121
   429    431    432  3    121
   429    432    430  3    121
   430    432    433  3    121
   431    434    432  3    121
   432    434    435  3    121
   432    435    433  3    121
   433    435    436  3    121
   434    152    435  3    121
   435    152    437  3    121
   435    437    436  3    121
   436    437    151  3    121
   152     76    438  3    122
   438     76    439  3    122
   438    439    153  3    122
   153    439     78  3    122
   153    441    440  3    123
   440    441    442  3    123
   440    442    151  3    123
   151    442    443  3    123
   441    444    442  3    123
   442    444    445  3    123
   442    445    443  3    123
   443    445    446  3    123
   444    447    445  3    123
   445    447    448  3    123
   445    448    446  3    123
   446    448    449  3    123
   447    148    448  3    123
   448    148    450  3    123
   448    450    449  3    123
   449    450    150  3    123
   129    451    127  3    125
   127    451    452  3    125
   451    453    452  3    125
   452    453    454  3    125
   453    155    454  3    125
   454    155    154  3    125
   155    458    455  3    126
   455    458    459  3    126
   455    459    456  3    126
   456    459    460  3    126
   456    460    457  3    126
   457    460    461  3    126
   457    461    156  3    126
   156    461    462  3    126
   458     82    459  3    126
   459     82    463  3    126
   459    463    460  3    126
   460    463    464  3    126
   460    464    461  3    126
   461    464    465  3    126
   461    465    462  3    126
   462    465     84  3    126
   156    158    466  3    128
   466    158    468  3    128
   466    468    467  3    128
   467    468    469  3    128
   467    469    154  3    128
   154    469    157  3    128
   158    161    470  3    130
   470    161    471  3    130
   470    471    159  3    130
   159    471    160  3    130
   161    164    162  3    132
   162    164    163  3    132
   164    473    472  3    134
   472    473    474  3    134
   472    474    165  3    134
   165    474    475  3    134
   473    167    474  3    134
   474    167    476  3    134
   474    476    475  3    134
   475    476    166  3    134
   167    477    168  3    136
   168    477    478  3    136
   477    170    478  3    136
   478    170    169  3    136
   170     85    479  3    137
   479     85    480  3    137
   479    480    171  3    137
   171    480     87  3    137
   171    481    169  3    139
   169    481    482  3    139
   481    173    482  3    139
   482    173    172  3    139
   173    484    483  3    141
   483    484    485  3    141
   483    485    174  3    141
   174    485    486  3    141
   484    176    485  3    141
   485    176    487  3    141
   485    487    486  3    141
   486    487    175  3    141
   176    179    488  3    143
   488    179    489  3    143
   488    489    177  3    143
   177    489    178  3    143
   179     94    490  3    144
   490     94    491  3    144
   490    491    180  3    144
   180    491     96  3    144
   180    492    178  3    146
   178    492    493  3    146
   492    494    493  3    146
   493    494    495  3    146
   494    182    495  3    146
   495    182    181  3    146
   182    497    496  3    148
   496    497    498  3    148
   496    498    183  3    148
   183    498    499  3    148
   497    500    498  3    148
   498    500    501  3    148
   498    501    499  3    148
   499    501    502  3    148
   500    503    501  3    148
   501    503    504  3    148
   501    504    502  3    148
   502    504    505  3    148
   503    185    504  3    148
   504    185    506  3    148
   504    506    505  3    148
   505    506    184  3    148
   185    188    507  3    150
   507    188    508  3    150
   507    508    186  3    150
   186    508    187  3    150
   188    191    189  3    152
   189    191    190  3    152
   191    194    509  3    154
   509    194    510  3    154
   509    510    192  3    154
   192    510    193  3    154
   194    197    195  3    156
   195    197    196  3    156
   197    511    198  3    158
   198    511    512  3    158
   511    513    512  3    158
   512    513    514  3    158
   513    515    514  3    158
   514    515    516  3    158
   515    200    516  3    158
   516    200    199  3    158
   200    203    517  3    160
   517    203    518  3    160
   517    518    201  3    160
   201    518    202  3    160
   203    206    204  3    162
   204    206    205  3    162
   206     97    207  3    163
   207     97     99  3    163
   207    209    205  3    165
   205    209    208  3    165
   209    103    519  3    166
   519    103    520  3    166
   519    520    210  3    166
   210    520    105  3    166
   210    202    521  3    167
   521    202    522  3    167
   521    522    208  3    167
   208    522    204  3    167
   201    212    523  3    169
   523    212    524  3    169
   523    524    199  3    169
   199    524    211  3    169
   212    215    213  3    171
   213    215    214  3    171
   215    525    216  3    172
   216    525    526  3    172
   525    527    526  3    172
   526    527    528  3    172
   527    529    528  3    172
   528    529    530  3    172
   529    106    530  3    172
   530    106    108  3    172
   216    531    214  3    173
   214    531    532  3    173
   531    533    532  3    173
   532    533    534  3    173
   533    112    534  3    173
   534    112    114  3    173
   213    196    535  3    174
   535    196    536  3    174
   535    536    211  3    174
   211    536    198  3    174
   195    537    193  3    176
   193    537    538  3    176
   537    218    538  3    176
   538    218    217  3    176
   218    115    539  3    177
   539    115    540  3    177
   539    540    219  3    177
   219    540    117  3    177
   219    221    541  3    179
   541    221    542  3    179
   541    542    217  3    179
   217    542    220  3    179
   221    157    543  3    180
   543    157    544  3    180
   543    544    222  3    180
   222    544    159  3    180
   222    190    545  3    181
   545    190    546  3    181
   545    546    220  3    181
   220    546    192  3    181
   189    160    187  3    182
   187    160    162  3    182
   186    163    184  3    183
   184    163    165  3    183
   183    175    547  3    184
   547    175    548  3    184
   547    548    181  3    184
   181    548    177  3    184
   174    549    172  3    185
   172    549    550  3    185
   549    166    550  3    185
   550    166    168  3    185
   223    551    224  3    186
   224    551    552  3    186
   551    553    552  3    186
   552    553    554  3    186
   553    555    554  3    186
   554    555    556  3    186
   555    557    556  3    186
   556    557    558  3    186
   557    559    558  3    186
   558    559    560  3    186
   559    223    560  3    186
   560    223    224  3    186
   237      1      2  2      1
   237      2      3  2      1
     6      4    229  2      2
   229      4      5  2      2
     9      7    230  2      4
     9    230      8  2      4
   265     10    231  2      6
   265    231     12  2      6
   231     10     11  2      6
    15     13    235  2      8
    15    235    236  2      8
   236    235     14  2      8
    18     16     17  2     11
   305     19     20  2     13
   305     20     21  2     13
    24     22     23  2     15
    27     25     26  2     17
   329     28     29  2     20
   329     29     30  2     20
    33     31     32  2     22
   248     34     35  2     24
   248     35     36  2     24
   345     37    249  2     27
   345    249     38  2     27
   345     38     39  2     27
    42     40     41  2     29
   266     43    260  2     31
   266    260    261  2     31
   266    261     45  2     31
   260     43     44  2     31
   264     46    263  2     33
   264    263    262  2     33
   264    262     48  2     33
    48    262     47  2     33
    51     49    267  2     37
    51    267    268  2     37
   268    267     50  2     37
   285     52    269  2     39
   285    269    284  2     39
   284    269     53  2     39
   284     53     54  2     39
   376     55    287  2     42
   376    287     57  2     42
    57    287    286  2     42
    57    286     56  2     42
    60     58    288  2     44
   288     58     59  2     44
    63     61    289  2     46
    63    289     62  2     46
    66     64     65  2     48
    69     67     68  2     50
    72     70    304  2     52
   304     70     71  2     52
    75     73     74  2     55
   439     76     77  2     57
   439     77     78  2     57
    81     79     80  2     59
   463     82     83  2     62
   463     83    316  2     62
   463    316    464  2     62
   464    316    317  2     62
   464    317    465  2     62
   465    317     84  2     62
   480     85    561  2     64
   480    561    321  2     64
   480    321     87  2     64
   321    561    562  2     64
   321    562    320  2     64
   320    562    318  2     64
   320    318     86  2     64
   318    562    319  2     64
   319    562    561  2     64
   319    561     85  2     64
   331     88    327  2     66
   331    327    330  2     66
   330    327    326  2     66
   330    326    563  2     66
   330    563     90  2     66
    90    563    328  2     66
   328    563    326  2     66
   328    326     89  2     66
   335     91    333  2     69
   335    333    334  2     69
   334    333    332  2     69
   334    332     93  2     69
    93    332     92  2     69
   491     94    337  2     72
   491    337    336  2     72
   491    336     96  2     72
    96    336     95  2     72
    99     97     98  2     74
   347    100    101  2     76
   347    101    344  2     76
   347    344    346  2     76
   346    344    102  2     76
   520    103    349  2     79
   520    349    348  2     79
   520    348    350  2     79
   520    350    105  2     79
   350    348    104  2     79
   108    106    355  2     81
   355    106    354  2     81
   355    354    107  2     81
   360    109    359  2     83
   360    359    110  2     83
   360    110    111  2     83
   114    112    364  2     86
   114    364    113  2     86
   540    115    116  2     88
   540    116    367  2     88
   540    367    117  2     88
   120    118    564  2     90
   120    564    369  2     90
   369    564    368  2     90
   369    368    119  2     90
   368    564    118  2     90
   375    121    370  2     92
   375    370    123  2     92
   123    370    122  2     92
   126    124    125  2     96
   129    127    128  2     99
   419    130    131  2    101
   419    131    132  2    101
   135    133    134  2    103
   138    136    137  2    106
   393    139    140  2    108
   393    140    141  2    108
   144    142    400  2    111
   144    400    143  2    111
   147    145    146  2    114
   450    148    420  2    118
   450    420    421  2    118
   450    421    150  2    118
   421    420    149  2    118
   440    151    437  2    120
   440    437    438  2    120
   440    438    153  2    120
   438    437    152  2    120
   467    154    455  2    124
   467    455    456  2    124
   467    456    466  2    124
   466    456    457  2    124
   466    457    156  2    124
   455    154    155  2    124
   544    157    469  2    127
   544    469    468  2    127
   544    468    470  2    127
   544    470    159  2    127
   470    468    158  2    127
   162    160    471  2    129
   162    471    161  2    129
   165    163    472  2    131
   472    163    164  2    131
   168    166    476  2    133
   168    476    167  2    133
   171    169    479  2    135
   479    169    170  2    135
   174    172    483  2    138
   483    172    173  2    138
   548    175    565  2    140
   548    565    488  2    140
   548    488    177  2    140
   488    565    487  2    140
   488    487    176  2    140
   487    565    175  2    140
   180    178    489  2    142
   180    489    490  2    142
   490    489    179  2    142
   547    181    182  2    145
   547    182    496  2    145
   547    496    183  2    145
   186    184    506  2    147
   186    506    507  2    147
   507    506    185  2    147
   189    187    508  2    149
   189    508    188  2    149
   546    190    191  2    151
   546    191    509  2    151
   546    509    192  2    151
   195    193    510  2    153
   195    510    194  2    153
   536    196    197  2    155
   536    197    198  2    155
   523    199    200  2    157
   523    200    517  2    157
   523    517    201  2    157
   522    202    518  2    159
   522    518    204  2    159
   204    518    203  2    159
   207    205    206  2    161
   521    208    519  2    164
   521    519    210  2    164
   519    208    209  2    164
   535    211    524  2    168
   535    524    213  2    168
   213    524    212  2    168
   216    214    215  2    170
   541    217    218  2    175
   541    218    539  2    175
   541    539    219  2    175
   545    220    542  2    178
   545    542    566  2    178
   545    566    222  2    178
   222    566    543  2    178
   543    566    221  2    178
   221    566    542  2    178
   568    567    569  1    187
   568    569    225  1    187
   568    225      1  1    187
   568      1     14  1    187
   568     14    567  1    187
   567     14    232  1    187
   567    232     11  1    187
   567     11      8  1    187
   567      8      5  1    187
   567      5    569  1    187
   569      5    227  1    187
   569    227    225  1    187
     4     35    228  1    188
   228     35    246  1    188
   228    246    572  1    188
   228    572    226  1    188
   226    572    571  1    188
   226    571    570  1    188
   226    570      2  1    188
     2    570    241  1    188
   241    570     27  1    188
    27    570    571  1    188
    27    571     29  1    188
    29    571    242  1    188
   242    571    244  1    188
   244    571    572  1    188
   244    572     32  1    188
    32    572    246  1    188
   574    576    577  1    189
   574    577      7  1    189
   574      7     47  1    189
   574     47     44  1    189
   574     44    573  1    189
   574    573    254  1    189
   574    254    252  1    189
   574    252    576  1    189
   576    252    250  1    189
   576    250    575  1    189
   576    575      6  1    189
   576      6    577  1    189
   577      6      7  1    189
     6    575     36  1    189
    36    575     38  1    189
    38    575    250  1    189
   254    573    256  1    189
   256    573    258  1    189
   256    258     41  1    189
   258    573     44  1    189
    10     48      9  1    190
    13     16    282  1    191
    13    282    579  1    191
    13    579    234  1    191
   234    579    578  1    191
   234    578     12  1    191
    12    578    278  1    191
    12    278     46  1    191
    46    278    276  1    191
    46    276     45  1    191
    45    276    274  1    191
    45    274    272  1    191
    45    272     50  1    191
    50    272    270  1    191
    50    270     53  1    191
   278    578    280  1    191
   280    578    579  1    191
   280    579    282  1    191
   240     26    580  1    192
   240    580     17  1    192
   240     17      3  1    192
     3     17     15  1    192
    17    580     20  1    192
    20    580    238  1    192
   238    580     23  1    192
    23    580     26  1    192
   581    583    584  1    193
   582    581    584  1    193
   582    584    585  1    193
   584    587    588  1    193
   585    584    588  1    193
   585    588    589  1    193
   586    585    589  1    193
   586    589    590  1    193
   588    587    591  1    193
   593    595    596  1    193
   596    595    598  1    193
   596    598    599  1    193
   598    602    603  1    193
   599    598    603  1    193
   600    599    603  1    193
   600    603    604  1    193
   602    601    605  1    193
   603    602    605  1    193
   604    603    605  1    193
   604    605    283  1    193
   604    283     18  1    193
   604     18    600  1    193
   600     18     19  1    193
   600     19     71  1    193
   600     71     68  1    193
   600     68    302  1    193
   600    302    599  1    193
   599    302    596  1    193
   596    302    300  1    193
   596    300    593  1    193
   593    300    298  1    193
   593    298    553  1    193
   593    553    551  1    193
   593    551    595  1    193
   595    551    598  1    193
   598    551    602  1    193
   602    551    223  1    193
   602    223    601  1    193
   601    223    597  1    193
   601    597    279  1    193
   601    279    281  1    193
   601    281    605  1    193
   605    281    283  1    193
   279    597    277  1    193
   277    597    594  1    193
   277    594    275  1    193
   275    594    592  1    193
   275    592    273  1    193
   273    592    591  1    193
   273    591    587  1    193
   273    587    271  1    193
   271    587    583  1    193
   271    583     54  1    193
    54    583     56  1    193
    56    583    581  1    193
    56    581     59  1    193
    59    581     62  1    193
    62    581     65  1    193
    65    581    582  1    193
    65    582    290  1    193
   290    582    585  1    193
   290    585    586  1    193
   290    586    292  1    193
   292    586    590  1    193
   292    590    294  1    193
   294    590    296  1    193
   296    590    553  1    193
   296    553    298  1    193
   553    590    555  1    193
   555    590    589  1    193
   555    589    557  1    193
   557    589    588  1    193
   557    588    591  1    193
   557    591    592  1    193
   557    592    559  1    193
   559    592    594  1    193
   559    594    597  1    193
   559    597    223  1    193
   583    587    584  1    193
    22     80    239  1    194
   239     80    306  1    194
   239    306     72  1    194
   239     72     21  1    194
   306     80    308  1    194
   308     80    310  1    194
   308    310     74  1    194
    74    310     77  1    194
   606    607    608  1    195
   606    608    322  1    195
   606    322     86  1    195
   606     86    314  1    195
   606    314    312  1    195
   606    312     81  1    195
   606     81    607  1    195
   607     81     24  1    195
   607     24     25  1    195
   607     25    608  1    195
   608     25     28  1    195
   608     28     89  1    195
   608     89    322  1    195
   314     86     83  1    195
    31     92    245  1    196
   245     92    243  1    196
   243     92     90  1    196
   243     90     30  1    196
    34     37    342  1    197
    34    342    247  1    197
   247    342     33  1    197
    33    342    609  1    197
    33    609     93  1    197
    93    609     95  1    197
    95    609    338  1    197
   338    609    340  1    197
   340    609    342  1    197
   340    342     98  1    197
   342     37    101  1    197
   102     39    104  1    198
    40    110    611  1    198
    40    611    257  1    198
   257    611    255  1    198
   255    611    610  1    198
   255    610    613  1    198
   255    613    253  1    198
   253    613    251  1    198
   251    613    612  1    198
   251    612     39  1    198
    39    612    104  1    198
   104    612    351  1    198
   351    612    107  1    198
   107    612    613  1    198
   107    613    610  1    198
   107    610    356  1    198
   356    610    611  1    198
   356    611    110  1    198
    43     49    259  1    199
   259     49    614  1    199
   259    614     42  1    199
    42    614    111  1    199
   111    614    373  1    199
   111    373    361  1    199
   361    373    113  1    199
   113    373    371  1    199
   113    371    365  1    199
   365    371    122  1    199
   365    122    116  1    199
   116    122    119  1    199
   373    614     49  1    199
    52     55    374  1    200
    52    374     51  1    200
   374     55    372  1    200
   372     55    123  1    200
   377    125    121  1    201
   377    121     57  1    201
   377     57     58  1    201
   121    125    120  1    201
   381    134    379  1    202
   381    379    128  1    202
   381    128    615  1    202
   381    615    383  1    202
   383    615    378  1    202
   383    378     61  1    202
    61    378     60  1    202
   378    615    126  1    202
   126    615    128  1    202
   379    134    131  1    202
   391    140    137  1    203
   391    137    389  1    203
   391    389    616  1    203
   391    616     64  1    203
    64    616     63  1    203
    63    616    384  1    203
   384    616    382  1    203
   382    616    385  1    203
   382    385    135  1    203
   385    616    387  1    203
   387    616    389  1    203
   401    143    621  1    204
   401    621    303  1    204
   401    303     67  1    204
   303    621    301  1    204
   301    621    620  1    204
   301    620    299  1    204
   299    620    297  1    204
   297    620    619  1    204
   297    619    295  1    204
   295    619    618  1    204
   295    618    293  1    204
   293    618    617  1    204
   293    617    291  1    204
   291    617    392  1    204
   291    392     66  1    204
   392    617    141  1    204
   141    617    618  1    204
   141    618    394  1    204
   394    618    619  1    204
   394    619    397  1    204
   397    619    620  1    204
   397    620    143  1    204
   143    620    621  1    204
   309     73    407  1    205
   309    407    622  1    205
   309    622    307  1    205
   307    622     70  1    205
    70    622     69  1    205
    69    622    402  1    205
   402    622    405  1    205
   402    405    403  1    205
   402    403    146  1    205
   402    146    144  1    205
   405    622    407  1    205
   623    624    625  1    206
   623    625    626  1    206
   623    626    627  1    206
   630    631    632  1    206
   630    632    434  1    206
   630    434    431  1    206
   630    431    629  1    206
   630    629    411  1    206
   630    411    409  1    206
   630    409    631  1    206
   631    409    404  1    206
   631    404    406  1    206
   631    406    632  1    206
   632    406    408  1    206
   632    408     75  1    206
   632     75    434  1    206
   434     75     76  1    206
   434     76    152  1    206
   404    409    147  1    206
   411    629    413  1    206
   413    629    428  1    206
   413    428    628  1    206
   413    628    415  1    206
   415    628    627  1    206
   415    627    626  1    206
   415    626    417  1    206
   417    626    625  1    206
   417    625    390  1    206
   417    390    136  1    206
   390    625    388  1    206
   388    625    386  1    206
   386    625    624  1    206
   386    624    133  1    206
   133    624    132  1    206
   132    624    422  1    206
   132    422    149  1    206
   422    624    623  1    206
   422    623    425  1    206
   425    623    627  1    206
   425    627    628  1    206
   425    628    428  1    206
   428    629    431  1    206
   633    635    634  1    207
   634    635    636  1    207
   634    636    155  1    207
   634    155    453  1    207
   634    453    451  1    207
   634    451    633  1    207
   633    451    380  1    207
   633    380    130  1    207
   633    130    148  1    207
   633    148    635  1    207
   635    148    447  1    207
   635    447    636  1    207
   636    447    444  1    207
   636    444    637  1    207
   636    637    458  1    207
   636    458    155  1    207
   458    637     82  1    207
    82    637    638  1    207
    82    638    639  1    207
    82    639    315  1    207
   315    639    640  1    207
   315    640    313  1    207
   313    640     79  1    207
    79    640    311  1    207
   311    640     78  1    207
    78    640    153  1    207
   153    640    639  1    207
   153    639    441  1    207
   441    639    638  1    207
   441    638    444  1    207
   444    638    637  1    207
   380    451    129  1    207
   641    643    644  1    208
   641    644    645  1    208
   641    645    646  1    208
   641    646    642  1    208
   645    647    648  1    208
   646    645    648  1    208
   646    648    649  1    208
   646    649    650  1    208
   642    646    650  1    208
   648    647    651  1    208
   648    651    652  1    208
   649    648    652  1    208
   649    652    653  1    208
   650    649    653  1    208
   651    654    655  1    208
   652    651    655  1    208
   652    655    656  1    208
   653    652    656  1    208
   653    656    477  1    208
   653    477    167  1    208
   653    167    650  1    208
   650    167    473  1    208
   650    473    642  1    208
   642    473    164  1    208
   642    164    641  1    208
   641    164    643  1    208
   643    164    161  1    208
   643    161    158  1    208
   643    158    644  1    208
   644    158    156  1    208
   644    156    645  1    208
   645    156    647  1    208
   647    156    462  1    208
   647    462    651  1    208
   651    462     84  1    208
   651     84    654  1    208
   654     84     85  1    208
   654     85    170  1    208
   654    170    655  1    208
   655    170    656  1    208
   656    170    477  1    208
   657    663    664  1    209
   658    657    664  1    209
   658    664    665  1    209
   659    658    665  1    209
   659    665    666  1    209
   660    659    666  1    209
   661    660    666  1    209
   662    661    667  1    209
   662    667    668  1    209
   664    663    669  1    209
   664    669    670  1    209
   665    664    670  1    209
   666    665    670  1    209
   667    666    670  1    209
   661    666    667  1    209
   668    667    671  1    209
   670    669    671  1    209
   667    670    671  1    209
   671    669     91  1    209
   671     91    668  1    209
   668     91     94  1    209
   668     94    179  1    209
   668    179    662  1    209
   662    179    176  1    209
   662    176    484  1    209
   662    484    661  1    209
   661    484    173  1    209
   661    173    660  1    209
   660    173    481  1    209
   660    481    659  1    209
   659    481    171  1    209
   659    171    658  1    209
   658    171    657  1    209
   657    171     87  1    209
   657     87    325  1    209
   657    325    663  1    209
   663    325     88  1    209
   663     88    669  1    209
   669     88     91  1    209
   673    672    675  1    210
   673    675    676  1    210
   674    673    676  1    210
   674    676    203  1    210
   674    203    200  1    210
   674    200    515  1    210
   674    515    673  1    210
   673    515    672  1    210
   672    515    513  1    210
   672    513    500  1    210
   672    500    497  1    210
   672    497    182  1    210
   672    182    675  1    210
   675    182    494  1    210
   675    494    676  1    210
   676    494     97  1    210
   676     97    206  1    210
   676    206    203  1    210
    97    494    492  1    210
    97    492    341  1    210
   341    492    339  1    210
   339    492    180  1    210
   339    180     96  1    210
   500    513    503  1    210
   503    513    511  1    210
   503    511    185  1    210
   185    511    188  1    210
   188    511    194  1    210
   188    194    191  1    210
   194    511    197  1    210
   100    103    677  1    211
   100    677    678  1    211
   100    678    343  1    211
   343    678     99  1    211
    99    678    677  1    211
    99    677    207  1    211
   207    677    209  1    211
   209    677    103  1    211
   680    681    682  1    212
   682    681    683  1    212
   682    683    353  1    212
   682    353    106  1    212
   682    106    529  1    212
   682    529    527  1    212
   682    527    680  1    212
   680    527    679  1    212
   680    679    201  1    212
   680    201    681  1    212
   681    201    202  1    212
   681    202    210  1    212
   681    210    683  1    212
   683    210    105  1    212
   683    105    353  1    212
   201    679    212  1    212
   212    679    525  1    212
   212    525    215  1    212
   525    679    527  1    212
   685    684    687  1    213
   685    687    688  1    213
   685    688    689  1    213
   686    685    689  1    213
   688    687    690  1    213
   688    690    358  1    213
   688    358    109  1    213
   688    109    689  1    213
   689    109    363  1    213
   689    363    112  1    213
   689    112    686  1    213
   686    112    533  1    213
   686    533    531  1    213
   686    531    685  1    213
   685    531    684  1    213
   684    531    216  1    213
   684    216    526  1    213
   684    526    528  1    213
   684    528    687  1    213
   687    528    530  1    213
   687    530    690  1    213
   690    530    108  1    213
   690    108    358  1    213
   115    218    366  1    214
   366    218    537  1    214
   366    537    534  1    214
   366    534    114  1    214
   534    537    532  1    214
   532    537    214  1    214
   214    537    195  1    214
   214    195    196  1    214
   214    196    213  1    214
   118    124    117  1    215
   117    124    219  1    215
   219    124    127  1    215
   219    127    691  1    215
   219    691    221  1    215
   221    691    157  1    215
   157    691    454  1    215
   157    454    154  1    215
   454    691    452  1    215
   452    691    127  1    215
   692    694    695  1    216
   693    692    695  1    216
   693    695    696  1    216
   696    695    697  1    216
   696    697    410  1    216
   696    410    412  1    216
   696    412    414  1    216
   696    414    693  1    216
   693    414    416  1    216
   693    416    692  1    216
   692    416    418  1    216
   692    418    138  1    216
   692    138    139  1    216
   692    139    396  1    216
   692    396    694  1    216
   694    396    399  1    216
   694    399    695  1    216
   695    399    697  1    216
   697    399    142  1    216
   697    142    145  1    216
   697    145    410  1    216
   699    700    701  1    217
   698    699    701  1    217
   701    700    702  1    217
   701    702    443  1    217
   701    443    446  1    217
   701    446    449  1    217
   701    449    698  1    217
   698    449    150  1    217
   698    150    424  1    217
   698    424    699  1    217
   699    424    427  1    217
   699    427    430  1    217
   699    430    700  1    217
   700    430    433  1    217
   700    433    702  1    217
   702    433    436  1    217
   702    436    151  1    217
   702    151    443  1    217
   160    189    190  1    218
   160    190    159  1    218
   159    190    222  1    218
   163    186    187  1    219
   163    187    162  1    219
   703    704    705  1    220
   705    704    707  1    220
   705    707    708  1    220
   704    709    706  1    220
   704    706    707  1    220
   707    706    711  1    220
   707    711    712  1    220
   708    707    712  1    220
   709    713    714  1    220
   706    709    714  1    220
   706    714    710  1    220
   706    710    711  1    220
   711    710    716  1    220
   711    716    717  1    220
   712    711    717  1    220
   714    713    718  1    220
   710    714    718  1    220
   710    718    715  1    220
   710    715    716  1    220
   716    715    719  1    220
   716    719    720  1    220
   717    716    720  1    220
   715    718    719  1    220
   719    718    174  1    220
   719    174    486  1    220
   719    486    720  1    220
   720    486    175  1    220
   720    175    183  1    220
   720    183    717  1    220
   717    183    499  1    220
   717    499    712  1    220
   712    499    502  1    220
   712    502    708  1    220
   708    502    505  1    220
   708    505    705  1    220
   705    505    184  1    220
   705    184    703  1    220
   703    184    165  1    220
   703    165    475  1    220
   703    475    704  1    220
   704    475    709  1    220
   709    475    166  1    220
   709    166    713  1    220
   713    166    549  1    220
   713    549    718  1    220
   718    549    174  1    220
   482    172    550  1    221
   482    550    478  1    221
   482    478    169  1    221
   478    550    168  1    221
   495    181    177  1    222
   495    177    721  1    222
   495    721    493  1    222
   493    721    178  1    222
   178    721    177  1    222
   538    217    722  1    223
   538    722    193  1    223
   193    722    192  1    223
   192    722    220  1    223
   220    722    217  1    223
   199    211    724  1    224
   199    724    516  1    224
   516    724    514  1    224
   514    724    723  1    224
   514    723    512  1    224
   512    723    198  1    224
   198    723    211  1    224
   211    723    724  1    224
   205    208    204  1    225
   560    224    726  1    226
   560    726    558  1    226
   558    726    725  1    226
   558    725    556  1    226
   556    725    554  1    226
   554    725    727  1    226
   554    727    552  1    226
   552    727    224  1    226
   224    727    726  1    226
   726    727    725  1    226
