# MSMS solvent excluded surface faces for fragments/fragment238.xyzr
#faces  #sphere density probe_r
   2270      61  3.00  1.50
     1      5    355  3      3
   355      5    358  3      3
   355    358    356  3      3
   356    358    359  3      3
   356    359    357  3      3
   357    359    360  3      3
   357    360      2  3      3
     2    360      4  3      3
     5      8    361  3      5
   361      8    364  3      5
   361    364    362  3      5
   362    364    365  3      5
   362    365    363  3      5
   363    365    366  3      5
   363    366      6  3      5
     6    366      7  3      5
     8     11    367  3      7
   367     11    368  3      7
   367    368      9  3      7
     9    368     10  3      7
    11    370    369  3      9
   369    370    371  3      9
   369    371     12  3      9
    12    371    372  3      9
   370    373    371  3      9
   371    373    374  3      9
   371    374    372  3      9
   372    374    375  3      9
   373     14    374  3      9
   374     14    376  3      9
   374    376    375  3      9
   375    376     13  3      9
    14    377     15  3     11
    15    377    378  3     11
   377     17    378  3     11
   378     17     16  3     11
    17    380    379  3     13
   379    380    381  3     13
   379    381     18  3     13
    18    381    382  3     13
   380     20    381  3     13
   381     20    383  3     13
   381    383    382  3     13
   382    383     19  3     13
    20    384     21  3     14
    21    384    385  3     14
   384      1    385  3     14
   385      1      3  3     14
    21     23     19  3     16
    19     23     22  3     16
    23     26     24  3     18
    24     26     25  3     18
    26     29    386  3     20
   386     29    388  3     20
   386    388    387  3     20
   387    388    389  3     20
   387    389     27  3     20
    27    389     28  3     20
    29      3    390  3     21
   390      3    392  3     21
   390    392    391  3     21
   391    392    393  3     21
   391    393     30  3     21
    30    393      2  3     21
    30    394     28  3     23
    28    394    395  3     23
   394    396    395  3     23
   395    396    397  3     23
   396    398    397  3     23
   397    398    399  3     23
   398    400    399  3     23
   399    400    401  3     23
   400    402    401  3     23
   401    402    403  3     23
   402    404    403  3     23
   403    404    405  3     23
   404    406    405  3     23
   405    406    407  3     23
   406    408    407  3     23
   407    408    409  3     23
   408     32    409  3     23
   409     32     31  3     23
    32     35     33  3     25
    33     35     34  3     25
    35     38     36  3     27
    36     38     37  3     27
    38     41    410  3     29
   410     41    413  3     29
   410    413    411  3     29
   411    413    414  3     29
   411    414    412  3     29
   412    414    415  3     29
   412    415     39  3     29
    39    415     40  3     29
    41    416     42  3     31
    42    416    417  3     31
   416     44    417  3     31
   417     44     43  3     31
    44     47    418  3     33
   418     47    419  3     33
   418    419     45  3     33
    45    419     46  3     33
    47    420     48  3     35
    48    420    421  3     35
   420     50    421  3     35
   421     50     49  3     35
    50     53     51  3     37
    51     53     52  3     37
    53    423    422  3     38
   422    423    424  3     38
   422    424     54  3     38
    54    424    425  3     38
   423      4    424  3     38
   424      4    426  3     38
   424    426    425  3     38
   425    426      6  3     38
    54     56     52  3     40
    52     56     55  3     40
    56    427     57  3     42
    57    427    428  3     42
   427    429    428  3     42
   428    429    430  3     42
   429     59    430  3     42
   430     59     58  3     42
    59     62     60  3     44
    60     62     61  3     44
    62     65    431  3     46
   431     65    433  3     46
   431    433    432  3     46
   432    433    434  3     46
   432    434     63  3     46
    63    434     64  3     46
    65     68    435  3     48
   435     68    437  3     48
   435    437    436  3     48
   436    437    438  3     48
   436    438     66  3     48
    66    438     67  3     48
    68    441    439  3     49
   439    441    442  3     49
   439    442    440  3     49
   440    442    443  3     49
   440    443     69  3     49
    69    443    444  3     49
   441      7    442  3     49
   442      7    445  3     49
   442    445    443  3     49
   443    445    446  3     49
   443    446    444  3     49
   444    446      9  3     49
    69     71     67  3     51
    67     71     70  3     51
    71     74    447  3     53
   447     74    449  3     53
   447    449    448  3     53
   448    449    450  3     53
   448    450     72  3     53
    72    450     73  3     53
    74     10    451  3     54
   451     10    452  3     54
   451    452     75  3     54
    75    452     12  3     54
    75     77    453  3     56
   453     77    454  3     56
   453    454     73  3     56
    73    454     76  3     56
    77    455     78  3     58
    78    455    456  3     58
   455    457    456  3     58
   456    457    458  3     58
   457    459    458  3     58
   458    459    460  3     58
   459     80    460  3     58
   460     80     79  3     58
    80     13    461  3     59
   461     13    462  3     59
   461    462     81  3     59
    81    462     15  3     59
    81     83    463  3     61
   463     83    464  3     61
   463    464     79  3     61
    79    464     82  3     61
    83     86    465  3     63
   465     86    466  3     63
   465    466     84  3     63
    84    466     85  3     63
    86     89     87  3     65
    87     89     88  3     65
    89     92     90  3     67
    90     92     91  3     67
    92    467     93  3     69
    93    467    468  3     69
   467     95    468  3     69
   468     95     94  3     69
    95     16     96  3     70
    96     16     18  3     70
    96     98     94  3     72
    94     98     97  3     72
    98    101     99  3     74
    99    101    100  3     74
   101    470    469  3     76
   469    470    471  3     76
   469    471    102  3     76
   102    471    472  3     76
   470    104    471  3     76
   471    104    473  3     76
   471    473    472  3     76
   472    473    103  3     76
   104    107    105  3     78
   105    107    106  3     78
   107     22    108  3     79
   108     22     24  3     79
   108    110    106  3     81
   106    110    109  3     81
   110     25    474  3     82
   474     25    476  3     82
   474    476    475  3     82
   475    476    477  3     82
   475    477    111  3     82
   111    477     27  3     82
   111    113    478  3     84
   478    113    480  3     84
   478    480    479  3     84
   479    480    481  3     84
   479    481    109  3     84
   109    481    112  3     84
   113    116    114  3     86
   114    116    115  3     86
   116    482    117  3     88
   117    482    483  3     88
   482    119    483  3     88
   483    119    118  3     88
   119    484    120  3     89
   120    484    485  3     89
   484    486    485  3     89
   485    486    487  3     89
   486    488    487  3     89
   487    488    489  3     89
   488    490    489  3     89
   489    490    491  3     89
   490     31    491  3     89
   491     31     33  3     89
   120    492    118  3     91
   118    492    493  3     91
   492    494    493  3     91
   493    494    495  3     91
   494    496    495  3     91
   495    496    497  3     91
   496    498    497  3     91
   497    498    499  3     91
   498    122    499  3     91
   499    122    121  3     91
   122    125    123  3     93
   123    125    124  3     93
   125    500    126  3     95
   126    500    501  3     95
   500    128    501  3     95
   501    128    127  3     95
   128     34    129  3     96
   129     34     36  3     96
   129    502    127  3     98
   127    502    503  3     98
   502    131    503  3     98
   503    131    130  3     98
   131    134    132  3    100
   132    134    133  3    100
   134    137    135  3    102
   135    137    136  3    102
   137    140    504  3    104
   504    140    506  3    104
   504    506    505  3    104
   505    506    507  3    104
   505    507    138  3    104
   138    507    139  3    104
   140    510    508  3    105
   508    510    511  3    105
   508    511    509  3    105
   509    511    512  3    105
   509    512    141  3    105
   141    512    513  3    105
   510     37    511  3    105
   511     37    514  3    105
   511    514    512  3    105
   512    514    515  3    105
   512    515    513  3    105
   513    515     39  3    105
   141    143    516  3    107
   516    143    517  3    107
   516    517    139  3    107
   139    517    142  3    107
   143    518    144  3    109
   144    518    519  3    109
   518    520    519  3    109
   519    520    521  3    109
   520    522    521  3    109
   521    522    523  3    109
   522    524    523  3    109
   523    524    525  3    109
   524    526    525  3    109
   525    526    527  3    109
   526    146    527  3    109
   527    146    145  3    109
   146    149    528  3    111
   528    149    529  3    111
   528    529    147  3    111
   147    529    148  3    111
   149    152    530  3    113
   530    152    532  3    113
   530    532    531  3    113
   531    532    533  3    113
   531    533    150  3    113
   150    533    151  3    113
   152    155    534  3    115
   534    155    535  3    115
   534    535    153  3    115
   153    535    154  3    115
   155     40    536  3    116
   536     40    538  3    116
   536    538    537  3    116
   537    538    539  3    116
   537    539    156  3    116
   156    539     42  3    116
   156    158    154  3    118
   154    158    157  3    118
   158    540    159  3    120
   159    540    541  3    120
   540    161    541  3    120
   541    161    160  3    120
   161    164    162  3    122
   162    164    163  3    122
   164    542    165  3    123
   165    542    543  3    123
   542     43    543  3    123
   543     43     45  3    123
   165    545    544  3    125
   544    545    546  3    125
   544    546    163  3    125
   163    546    547  3    125
   545    167    546  3    125
   546    167    548  3    125
   546    548    547  3    125
   547    548    166  3    125
   167    170    168  3    127
   168    170    169  3    127
   170     46    549  3    128
   549     46    550  3    128
   549    550    171  3    128
   171    550     48  3    128
   171     49    551  3    129
   551     49    552  3    129
   551    552    169  3    129
   169    552     51  3    129
   168     55    166  3    130
   166     55     57  3    130
   162    173    553  3    132
   553    173    554  3    132
   553    554    160  3    132
   160    554    172  3    132
   173    176    555  3    134
   555    176    556  3    134
   555    556    174  3    134
   174    556    175  3    134
   176    557    177  3    135
   177    557    558  3    135
   557    559    558  3    135
   558    559    560  3    135
   559    561    560  3    135
   560    561    562  3    135
   561    563    562  3    135
   562    563    564  3    135
   563     58    564  3    135
   564     58     60  3    135
   177    179    565  3    137
   565    179    567  3    137
   565    567    566  3    137
   566    567    568  3    137
   566    568    175  3    137
   175    568    178  3    137
   179    570    569  3    139
   569    570    571  3    139
   569    571    180  3    139
   180    571    572  3    139
   570    182    571  3    139
   571    182    573  3    139
   571    573    572  3    139
   572    573    181  3    139
   182    185    574  3    141
   574    185    577  3    141
   574    577    575  3    141
   575    577    578  3    141
   575    578    576  3    141
   576    578    579  3    141
   576    579    183  3    141
   183    579    184  3    141
   185    188    580  3    143
   580    188    582  3    143
   580    582    581  3    143
   581    582    583  3    143
   581    583    186  3    143
   186    583    187  3    143
   188     61    584  3    144
   584     61    587  3    144
   584    587    585  3    144
   585    587    588  3    144
   585    588    586  3    144
   586    588    589  3    144
   586    589    189  3    144
   189    589     63  3    144
   189    191    187  3    146
   187    191    190  3    146
   191    194    590  3    148
   590    194    591  3    148
   590    591    192  3    148
   192    591    193  3    148
   194     64    195  3    149
   195     64     66  3    149
   195    197    592  3    151
   592    197    593  3    151
   592    593    193  3    151
   193    593    196  3    151
   197     70    594  3    152
   594     70    595  3    152
   594    595    198  3    152
   198    595     72  3    152
   198    596    196  3    154
   196    596    597  3    154
   596    598    597  3    154
   597    598    599  3    154
   598    600    599  3    154
   599    600    601  3    154
   600    602    601  3    154
   601    602    603  3    154
   602    200    603  3    154
   603    200    199  3    154
   200    203    201  3    156
   201    203    202  3    156
   203    604    204  3    157
   204    604    605  3    157
   604    606    605  3    157
   605    606    607  3    157
   606     76    607  3    157
   607     76     78  3    157
   204    206    608  3    159
   608    206    609  3    159
   608    609    202  3    159
   202    609    205  3    159
   206    610    207  3    160
   207    610    611  3    160
   610    612    611  3    160
   611    612    613  3    160
   612     82    613  3    160
   613     82     84  3    160
   207    614    205  3    162
   205    614    615  3    162
   614    616    615  3    162
   615    616    617  3    162
   616    618    617  3    162
   617    618    619  3    162
   618    620    619  3    162
   619    620    621  3    162
   620    209    621  3    162
   621    209    208  3    162
   209    212    622  3    164
   622    212    623  3    164
   622    623    210  3    164
   210    623    211  3    164
   212    215    624  3    166
   624    215    625  3    166
   624    625    213  3    166
   213    625    214  3    166
   215    627    626  3    168
   626    627    628  3    168
   626    628    216  3    168
   216    628    629  3    168
   627    630    628  3    168
   628    630    631  3    168
   628    631    629  3    168
   629    631    632  3    168
   630    218    631  3    168
   631    218    633  3    168
   631    633    632  3    168
   632    633    217  3    168
   218     85    634  3    169
   634     85    635  3    169
   634    635    219  3    169
   219    635     87  3    169
   219    637    636  3    170
   636    637    638  3    170
   636    638    217  3    170
   217    638    639  3    170
   637    214    638  3    170
   638    214    640  3    170
   638    640    639  3    170
   639    640    216  3    170
   213    221    641  3    172
   641    221    643  3    172
   641    643    642  3    172
   642    643    644  3    172
   642    644    211  3    172
   211    644    220  3    172
   221    224    645  3    174
   645    224    647  3    174
   645    647    646  3    174
   646    647    648  3    174
   646    648    222  3    174
   222    648    223  3    174
   224    227    225  3    176
   225    227    226  3    176
   227    230    649  3    178
   649    230    651  3    178
   649    651    650  3    178
   650    651    652  3    178
   650    652    228  3    178
   228    652    229  3    178
   230    233    653  3    180
   653    233    655  3    180
   653    655    654  3    180
   654    655    656  3    180
   654    656    231  3    180
   231    656    232  3    180
   233    657    234  3    182
   234    657    658  3    182
   657    659    658  3    182
   658    659    660  3    182
   659    661    660  3    182
   660    661    662  3    182
   661    663    662  3    182
   662    663    664  3    182
   663    665    664  3    182
   664    665    666  3    182
   665    667    666  3    182
   666    667    668  3    182
   667    236    668  3    182
   668    236    235  3    182
   236     88    237  3    183
   237     88     90  3    183
   237    669    235  3    185
   235    669    670  3    185
   669    671    670  3    185
   670    671    672  3    185
   671    673    672  3    185
   672    673    674  3    185
   673    675    674  3    185
   674    675    676  3    185
   675    239    676  3    185
   676    239    238  3    185
   239    677    240  3    186
   240    677    678  3    186
   677    679    678  3    186
   678    679    680  3    186
   679    681    680  3    186
   680    681    682  3    186
   681    683    682  3    186
   682    683    684  3    186
   683    100    684  3    186
   684    100    102  3    186
   240    685    238  3    188
   238    685    686  3    188
   685    242    686  3    188
   686    242    241  3    188
   242    245    243  3    190
   243    245    244  3    190
   245    689    687  3    192
   687    689    690  3    192
   687    690    688  3    192
   688    690    691  3    192
   688    691    246  3    192
   246    691    692  3    192
   689    693    690  3    192
   690    693    694  3    192
   690    694    691  3    192
   691    694    695  3    192
   691    695    692  3    192
   692    695    696  3    192
   693    248    694  3    192
   694    248    697  3    192
   694    697    695  3    192
   695    697    698  3    192
   695    698    696  3    192
   696    698    247  3    192
   248    103    249  3    193
   249    103    105  3    193
   249    251    699  3    195
   699    251    701  3    195
   699    701    700  3    195
   700    701    702  3    195
   700    702    247  3    195
   247    702    250  3    195
   251    112    703  3    196
   703    112    705  3    196
   703    705    704  3    196
   704    705    706  3    196
   704    706    252  3    196
   252    706    114  3    196
   252    115    250  3    197
   250    115    117  3    197
   246    254    707  3    199
   707    254    709  3    199
   707    709    708  3    199
   708    709    710  3    199
   708    710    244  3    199
   244    710    253  3    199
   254    257    711  3    201
   711    257    713  3    201
   711    713    712  3    201
   712    713    714  3    201
   712    714    255  3    201
   255    714    256  3    201
   257    121    715  3    202
   715    121    716  3    202
   715    716    258  3    202
   258    716    123  3    202
   258    719    717  3    203
   717    719    720  3    203
   717    720    718  3    203
   718    720    721  3    203
   718    721    256  3    203
   256    721    722  3    203
   719    232    720  3    203
   720    232    723  3    203
   720    723    721  3    203
   721    723    724  3    203
   721    724    722  3    203
   722    724    234  3    203
   255    241    253  3    204
   253    241    243  3    204
   231    133    725  3    205
   725    133    726  3    205
   725    726    229  3    205
   229    726    135  3    205
   228    260    727  3    207
   727    260    729  3    207
   727    729    728  3    207
   728    729    730  3    207
   728    730    226  3    207
   226    730    259  3    207
   260    263    731  3    209
   731    263    734  3    209
   731    734    732  3    209
   732    734    735  3    209
   732    735    733  3    209
   733    735    736  3    209
   733    736    261  3    209
   261    736    262  3    209
   263    266    737  3    211
   737    266    738  3    211
   737    738    264  3    211
   264    738    265  3    211
   266    741    739  3    212
   739    741    742  3    212
   739    742    740  3    212
   740    742    743  3    212
   740    743    267  3    212
   267    743    744  3    212
   741    136    742  3    212
   742    136    745  3    212
   742    745    743  3    212
   743    745    746  3    212
   743    746    744  3    212
   744    746    138  3    212
   267    269    747  3    214
   747    269    748  3    214
   747    748    265  3    214
   265    748    268  3    214
   269    750    749  3    216
   749    750    751  3    216
   749    751    270  3    216
   270    751    752  3    216
   750    272    751  3    216
   751    272    753  3    216
   751    753    752  3    216
   752    753    271  3    216
   272    754    273  3    217
   273    754    755  3    217
   754    756    755  3    217
   755    756    757  3    217
   756    758    757  3    217
   757    758    759  3    217
   758    760    759  3    217
   759    760    761  3    217
   760    762    761  3    217
   761    762    763  3    217
   762    142    763  3    217
   763    142    144  3    217
   273    275    764  3    219
   764    275    765  3    219
   764    765    271  3    219
   271    765    274  3    219
   275    766    276  3    220
   276    766    767  3    220
   766    768    767  3    220
   767    768    769  3    220
   768    770    769  3    220
   769    770    771  3    220
   770    145    771  3    220
   771    145    147  3    220
   276    772    274  3    222
   274    772    773  3    222
   772    774    773  3    222
   773    774    775  3    222
   774    278    775  3    222
   775    278    277  3    222
   278    777    776  3    223
   776    777    778  3    223
   776    778    279  3    223
   279    778    779  3    223
   777    148    778  3    223
   778    148    780  3    223
   778    780    779  3    223
   779    780    150  3    223
   279    281    277  3    225
   277    281    280  3    225
   281    781    282  3    226
   282    781    782  3    226
   781    172    782  3    226
   782    172    174  3    226
   282    284    280  3    228
   280    284    283  3    228
   284    287    285  3    230
   285    287    286  3    230
   287    290    783  3    232
   783    290    785  3    232
   783    785    784  3    232
   784    785    786  3    232
   784    786    288  3    232
   288    786    289  3    232
   290    178    787  3    233
   787    178    788  3    233
   787    788    291  3    233
   291    788    180  3    233
   291    293    789  3    235
   789    293    790  3    235
   789    790    289  3    235
   289    790    292  3    235
   293    296    294  3    237
   294    296    295  3    237
   296    181    791  3    238
   791    181    792  3    238
   791    792    297  3    238
   297    792    183  3    238
   297    793    295  3    240
   295    793    794  3    240
   793    299    794  3    240
   794    299    298  3    240
   299    796    795  3    242
   795    796    797  3    242
   795    797    300  3    242
   300    797    798  3    242
   796    302    797  3    242
   797    302    799  3    242
   797    799    798  3    242
   798    799    301  3    242
   302    305    303  3    244
   303    305    304  3    244
   305    308    800  3    246
   800    308    801  3    246
   800    801    306  3    246
   306    801    307  3    246
   308    311    802  3    248
   802    311    803  3    248
   802    803    309  3    248
   309    803    310  3    248
   311    314    804  3    250
   804    314    806  3    250
   804    806    805  3    250
   805    806    807  3    250
   805    807    312  3    250
   312    807    313  3    250
   314    810    808  3    252
   808    810    811  3    252
   808    811    809  3    252
   809    811    812  3    252
   809    812    315  3    252
   315    812    813  3    252
   810    814    811  3    252
   811    814    815  3    252
   811    815    812  3    252
   812    815    816  3    252
   812    816    813  3    252
   813    816    817  3    252
   814    317    815  3    252
   815    317    818  3    252
   815    818    816  3    252
   816    818    819  3    252
   816    819    817  3    252
   817    819    316  3    252
   317    184    820  3    253
   820    184    821  3    253
   820    821    318  3    253
   318    821    186  3    253
   318    190    822  3    254
   822    190    823  3    254
   822    823    316  3    254
   316    823    192  3    254
   315    824    313  3    255
   313    824    825  3    255
   824    826    825  3    255
   825    826    827  3    255
   826    199    827  3    255
   827    199    201  3    255
   312    320    828  3    257
   828    320    829  3    257
   828    829    310  3    257
   310    829    319  3    257
   320    830    321  3    259
   321    830    831  3    259
   830    832    831  3    259
   831    832    833  3    259
   832    834    833  3    259
   833    834    835  3    259
   834    323    835  3    259
   835    323    322  3    259
   323    208    836  3    260
   836    208    837  3    260
   836    837    324  3    260
   324    837    210  3    260
   324    326    838  3    262
   838    326    839  3    262
   838    839    322  3    262
   322    839    325  3    262
   326    840    327  3    263
   327    840    841  3    263
   840    307    841  3    263
   841    307    309  3    263
   327    319    842  3    264
   842    319    843  3    264
   842    843    325  3    264
   325    843    321  3    264
   306    329    844  3    266
   844    329    845  3    266
   844    845    304  3    266
   304    845    328  3    266
   329    846    330  3    268
   330    846    847  3    268
   846    848    847  3    268
   847    848    849  3    268
   848    332    849  3    268
   849    332    331  3    268
   332    335    850  3    270
   850    335    852  3    270
   850    852    851  3    270
   851    852    853  3    270
   851    853    333  3    270
   333    853    334  3    270
   335    262    854  3    271
   854    262    856  3    271
   854    856    855  3    271
   855    856    857  3    271
   855    857    336  3    271
   336    857    264  3    271
   336    268    334  3    272
   334    268    270  3    272
   333    860    858  3    274
   858    860    861  3    274
   858    861    859  3    274
   859    861    862  3    274
   859    862    331  3    274
   331    862    863  3    274
   860    338    861  3    274
   861    338    864  3    274
   861    864    862  3    274
   862    864    865  3    274
   862    865    863  3    274
   863    865    337  3    274
   338    341    866  3    276
   866    341    867  3    276
   866    867    339  3    276
   339    867    340  3    276
   341    344    868  3    278
   868    344    869  3    278
   868    869    342  3    278
   342    869    343  3    278
   344    871    870  3    280
   870    871    872  3    280
   870    872    345  3    280
   345    872    873  3    280
   871    347    872  3    280
   872    347    874  3    280
   872    874    873  3    280
   873    874    346  3    280
   347    283    348  3    281
   348    283    285  3    281
   348    286    875  3    282
   875    286    876  3    282
   875    876    346  3    282
   346    876    288  3    282
   345    878    877  3    283
   877    878    879  3    283
   877    879    343  3    283
   343    879    880  3    283
   878    340    879  3    283
   879    340    881  3    283
   879    881    880  3    283
   880    881    342  3    283
   339    350    882  3    285
   882    350    883  3    285
   882    883    337  3    285
   337    883    349  3    285
   350    884    351  3    286
   351    884    885  3    286
   884    301    885  3    286
   885    301    303  3    286
   351    328    349  3    287
   349    328    330  3    287
   300    886    298  3    288
   298    886    887  3    288
   886    292    887  3    288
   887    292    294  3    288
   261    353    888  3    290
   888    353    890  3    290
   888    890    889  3    290
   889    890    891  3    290
   889    891    259  3    290
   259    891    352  3    290
   353    892    354  3    291
   354    892    893  3    291
   892    894    893  3    291
   893    894    895  3    291
   894    220    895  3    291
   895    220    222  3    291
   354    898    896  3    292
   896    898    899  3    292
   896    899    897  3    292
   897    899    900  3    292
   897    900    352  3    292
   352    900    901  3    292
   898    223    899  3    292
   899    223    902  3    292
   899    902    900  3    292
   900    902    903  3    292
   900    903    901  3    292
   901    903    225  3    292
   159    151    157  3    293
   157    151    153  3    293
   132    124    130  3    294
   130    124    126  3    294
    99    904     97  3    295
    97    904    905  3    295
   904     91    905  3    295
   905     91     93  3    295
     3      1    355  2      1
     3    355    392  2      1
   392    355    356  2      1
   392    356    393  2      1
   393    356    357  2      1
   393    357      2  2      1
   907    906    908  2      2
   908    906    909  2      2
   909    906    910  2      2
   426      4    909  2      2
   426    909    910  2      2
   426    910      6  2      2
     6    910    363  2      2
   363    910    906  2      2
   363    906    362  2      2
   362    906    907  2      2
   362    907    361  2      2
   361    907    358  2      2
   361    358      5  2      2
   358    907    359  2      2
   359    907    908  2      2
   359    908    360  2      2
   360    908    909  2      2
   360    909      4  2      2
   445      7    366  2      4
   445    366    446  2      4
   446    366    365  2      4
   446    365      9  2      4
     9    365    364  2      4
     9    364    367  2      4
   367    364      8  2      4
   452     10    368  2      6
   452    368    369  2      6
   452    369     12  2      6
   369    368     11  2      6
   462     13    376  2      8
   462    376     14  2      8
   462     14     15  2      8
    18     16    379  2     10
   379     16     17  2     10
    21     19    383  2     12
    21    383     20  2     12
    24     22     23  2     15
   476     25     26  2     17
   476     26    386  2     17
   476    386    477  2     17
   477    386    387  2     17
   477    387     27  2     17
    30     28    391  2     19
   391     28    389  2     19
   391    389    390  2     19
   390    389    388  2     19
   390    388     29  2     19
    33     31     32  2     22
    36     34     35  2     24
   514     37    410  2     26
   514    410    411  2     26
   514    411    515  2     26
   515    411    412  2     26
   515    412     39  2     26
   410     37     38  2     26
   538     40    415  2     28
   538    415    414  2     28
   538    414    539  2     28
   539    414    911  2     28
   539    911     42  2     28
    42    911     41  2     28
    41    911    413  2     28
   413    911    414  2     28
    45     43    418  2     30
   418     43     44  2     30
   550     46    419  2     32
   550    419     47  2     32
   550     47     48  2     32
   552     49     50  2     34
   552     50     51  2     34
    54     52    422  2     36
   422     52     53  2     36
    57     55     56  2     39
    60     58     59  2     41
   587     61     62  2     43
   587     62    431  2     43
   587    431    588  2     43
   588    431    432  2     43
   588    432    589  2     43
   589    432     63  2     43
    66     64    436  2     45
   436     64    434  2     45
   436    434    435  2     45
   435    434    433  2     45
   435    433     65  2     45
    69     67    440  2     47
   440     67    438  2     47
   440    438    439  2     47
   439    438    437  2     47
   439    437     68  2     47
   595     70    447  2     50
   595    447    448  2     50
   595    448     72  2     50
   447     70     71  2     50
   453     73    450  2     52
   453    450    449  2     52
   453    449    451  2     52
   453    451     75  2     52
   451    449     74  2     52
    78     76    454  2     55
    78    454     77  2     55
   463     79     80  2     57
   463     80    461  2     57
   463    461     81  2     57
    84     82    464  2     60
    84    464    465  2     60
   465    464     83  2     60
   635     85    466  2     62
   635    466     86  2     62
   635     86     87  2     62
    90     88     89  2     64
    93     91     92  2     66
    96     94     95  2     68
    99     97     98  2     71
   102    100    469  2     73
   469    100    101  2     73
   105    103    473  2     75
   105    473    104  2     75
   108    106    107  2     77
   479    109    474  2     80
   479    474    475  2     80
   479    475    478  2     80
   478    475    111  2     80
   474    109    110  2     80
   705    112    481  2     83
   705    481    706  2     83
   706    481    480  2     83
   706    480    114  2     83
   114    480    113  2     83
   117    115    116  2     85
   120    118    119  2     87
   716    121    122  2     90
   716    122    123  2     90
   126    124    125  2     92
   129    127    128  2     94
   132    130    131  2     97
   726    133    134  2     99
   726    134    135  2     99
   745    136    504  2    101
   745    504    505  2    101
   745    505    746  2    101
   746    505    138  2    101
   504    136    137  2    101
   516    139    912  2    103
   516    912    913  2    103
   516    913    509  2    103
   516    509    141  2    103
   509    913    508  2    103
   508    913    506  2    103
   508    506    140  2    103
   506    913    507  2    103
   507    913    912  2    103
   507    912    139  2    103
   144    142    517  2    106
   144    517    143  2    106
   147    145    528  2    108
   528    145    146  2    108
   780    148    531  2    110
   780    531    150  2    110
   531    148    529  2    110
   531    529    530  2    110
   530    529    149  2    110
   153    151    533  2    112
   153    533    534  2    112
   534    533    532  2    112
   534    532    152  2    112
   156    154    537  2    114
   537    154    535  2    114
   537    535    536  2    114
   536    535    155  2    114
   159    157    158  2    117
   553    160    161  2    119
   553    161    162  2    119
   544    163    164  2    121
   544    164    165  2    121
   168    166    548  2    124
   168    548    167  2    124
   551    169    549  2    126
   551    549    171  2    126
   549    169    170  2    126
   174    172    555  2    131
   555    172    554  2    131
   555    554    173  2    131
   566    175    556  2    133
   566    556    565  2    133
   565    556    176  2    133
   565    176    177  2    133
   788    178    568  2    136
   788    568    567  2    136
   788    567    569  2    136
   788    569    180  2    136
   569    567    179  2    136
   792    181    575  2    138
   792    575    576  2    138
   792    576    183  2    138
   575    181    574  2    138
   574    181    573  2    138
   574    573    182  2    138
   821    184    579  2    140
   821    579    914  2    140
   821    914    186  2    140
   186    914    581  2    140
   581    914    915  2    140
   581    915    580  2    140
   580    915    577  2    140
   580    577    185  2    140
   577    915    578  2    140
   578    915    914  2    140
   578    914    579  2    140
   189    187    586  2    142
   586    187    583  2    142
   586    583    585  2    142
   585    583    582  2    142
   585    582    584  2    142
   584    582    188  2    142
   823    190    191  2    145
   823    191    590  2    145
   823    590    192  2    145
   592    193    591  2    147
   592    591    194  2    147
   592    194    195  2    147
   198    196    593  2    150
   198    593    594  2    150
   594    593    197  2    150
   201    199    200  2    153
   608    202    203  2    155
   608    203    204  2    155
   207    205    609  2    158
   207    609    206  2    158
   837    208    622  2    161
   837    622    210  2    161
   622    208    209  2    161
   642    211    623  2    163
   642    623    916  2    163
   642    916    641  2    163
   641    916    624  2    163
   641    624    213  2    163
   624    916    212  2    163
   212    916    623  2    163
   640    214    625  2    165
   640    625    215  2    165
   640    215    626  2    165
   640    626    216  2    165
   636    217    633  2    167
   636    633    218  2    167
   636    218    634  2    167
   636    634    219  2    167
   222    220    644  2    171
   222    644    646  2    171
   646    644    643  2    171
   646    643    645  2    171
   645    643    221  2    171
   902    223    648  2    173
   902    648    903  2    173
   903    648    647  2    173
   903    647    225  2    173
   225    647    224  2    173
   728    226    227  2    175
   728    227    649  2    175
   728    649    727  2    175
   727    649    650  2    175
   727    650    228  2    175
   725    229    652  2    177
   725    652    917  2    177
   725    917    654  2    177
   725    654    231  2    177
   654    917    653  2    177
   653    917    651  2    177
   653    651    230  2    177
   651    917    652  2    177
   723    232    656  2    179
   723    656    724  2    179
   724    656    655  2    179
   724    655    234  2    179
   234    655    233  2    179
   237    235    236  2    181
   240    238    239  2    184
   243    241    242  2    187
   708    244    687  2    189
   708    687    688  2    189
   708    688    707  2    189
   707    688    246  2    189
   687    244    245  2    189
   700    247    698  2    191
   700    698    699  2    191
   699    698    697  2    191
   699    697    249  2    191
   249    697    248  2    191
   252    250    702  2    194
   252    702    704  2    194
   704    702    701  2    194
   704    701    703  2    194
   703    701    251  2    194
   255    253    712  2    198
   712    253    710  2    198
   712    710    711  2    198
   711    710    709  2    198
   711    709    254  2    198
   718    256    714  2    200
   718    714    918  2    200
   718    918    717  2    200
   717    918    715  2    200
   717    715    258  2    200
   715    918    713  2    200
   715    713    257  2    200
   713    918    714  2    200
   919    920    922  2    206
   921    919    922  2    206
   889    259    920  2    206
   889    920    888  2    206
   888    920    919  2    206
   888    919    733  2    206
   888    733    261  2    206
   733    919    732  2    206
   732    919    921  2    206
   732    921    731  2    206
   731    921    729  2    206
   731    729    260  2    206
   729    921    922  2    206
   729    922    730  2    206
   730    922    920  2    206
   730    920    259  2    206
   856    262    736  2    208
   856    736    735  2    208
   856    735    924  2    208
   856    924    857  2    208
   857    924    923  2    208
   857    923    264  2    208
   264    923    737  2    208
   737    923    924  2    208
   737    924    734  2    208
   737    734    263  2    208
   734    924    735  2    208
   747    265    738  2    210
   747    738    740  2    210
   747    740    267  2    210
   740    738    739  2    210
   739    738    266  2    210
   270    268    749  2    213
   749    268    748  2    213
   749    748    269  2    213
   764    271    753  2    215
   764    753    273  2    215
   273    753    272  2    215
   276    274    765  2    218
   276    765    275  2    218
   279    277    776  2    221
   776    277    278  2    221
   282    280    281  2    224
   285    283    284  2    227
   876    286    783  2    229
   876    783    784  2    229
   876    784    288  2    229
   783    286    287  2    229
   789    289    786  2    231
   789    786    787  2    231
   789    787    291  2    231
   787    786    785  2    231
   787    785    290  2    231
   294    292    790  2    234
   294    790    293  2    234
   297    295    791  2    236
   791    295    296  2    236
   300    298    795  2    239
   795    298    299  2    239
   303    301    799  2    241
   303    799    302  2    241
   844    304    800  2    243
   844    800    306  2    243
   800    304    305  2    243
   309    307    802  2    245
   802    307    801  2    245
   802    801    308  2    245
   828    310    803  2    247
   828    803    805  2    247
   828    805    312  2    247
   805    803    804  2    247
   804    803    311  2    247
   315    313    809  2    249
   809    313    807  2    249
   809    807    808  2    249
   808    807    806  2    249
   808    806    314  2    249
   822    316    819  2    251
   822    819    318  2    251
   318    819    818  2    251
   318    818    820  2    251
   820    818    317  2    251
   843    319    829  2    256
   843    829    320  2    256
   843    320    321  2    256
   838    322    323  2    258
   838    323    836  2    258
   838    836    324  2    258
   842    325    839  2    261
   842    839    326  2    261
   842    326    327  2    261
   330    328    845  2    265
   330    845    329  2    265
   859    331    850  2    267
   859    850    851  2    267
   859    851    858  2    267
   858    851    333  2    267
   850    331    332  2    267
   336    334    855  2    269
   855    334    853  2    269
   855    853    854  2    269
   854    853    852  2    269
   854    852    335  2    269
   882    337    925  2    273
   882    925    339  2    273
   339    925    866  2    273
   866    925    864  2    273
   866    864    338  2    273
   864    925    865  2    273
   865    925    337  2    273
   881    340    867  2    275
   881    867    342  2    275
   342    867    868  2    275
   868    867    341  2    275
   877    343    870  2    277
   877    870    345  2    277
   870    343    869  2    277
   870    869    344  2    277
   875    346    874  2    279
   875    874    347  2    279
   875    347    348  2    279
   351    349    883  2    284
   351    883    350  2    284
   897    352    891  2    289
   897    891    896  2    289
   896    891    890  2    289
   896    890    354  2    289
   354    890    353  2    289
   926    932    933  1    296
   927    926    933  1    296
   929    928    934  1    296
   930    929    934  1    296
   931    930    934  1    296
   932    931    934  1    296
   933    932    934  1    296
   928    933    934  1    296
   933    928     11  1    296
   933     11    927  1    296
   927     11      8  1    296
   927      8      5  1    296
   927      5      1  1    296
   927      1    926  1    296
   926      1    384  1    296
   926    384    932  1    296
   932    384     20  1    296
   932     20    931  1    296
   931     20    380  1    296
   931    380    930  1    296
   930    380     17  1    296
   930     17    377  1    296
   930    377    373  1    296
   930    373    929  1    296
   929    373    370  1    296
   929    370    928  1    296
   928    370     11  1    296
   373    377     14  1    296
   935    936    937  1    297
   937    936    938  1    297
   937    938     44  1    297
   937     44    416  1    297
   937    416    935  1    297
   935    416     41  1    297
   935     41     38  1    297
   935     38    408  1    297
   935    408    406  1    297
   935    406    936  1    297
   936    406    404  1    297
   936    404    938  1    297
   938    404    402  1    297
   938    402    400  1    297
   938    400     47  1    297
   938     47     44  1    297
    47    400    420  1    297
   420    400    398  1    297
   420    398    396  1    297
   420    396    939  1    297
   420    939     50  1    297
    50    939     53  1    297
    53    939    423  1    297
   423    939      2  1    297
   423      2      4  1    297
     2    939    394  1    297
     2    394     30  1    297
   394    939    396  1    297
   408     38     32  1    297
    32     38     35  1    297
   441     68     59  1    298
   441     59    429  1    298
   441    429      7  1    298
     7    429    427  1    298
     7    427    425  1    298
     7    425      6  1    298
   425    427     54  1    298
    54    427     56  1    298
    59     68     62  1    298
    62     68     65  1    298
    10     74    444  1    299
    10    444      9  1    299
   444     74     71  1    299
   444     71     69  1    299
    13     80    459  1    300
    13    459    457  1    300
    13    457    375  1    300
   375    457    455  1    300
   375    455    372  1    300
   372    455     77  1    300
   372     77     12  1    300
    12     77     75  1    300
    16     95    378  1    301
   378     95    467  1    301
   378    467    940  1    301
   378    940     15  1    301
    15    940     81  1    301
    81    940     83  1    301
    83    940     92  1    301
    83     92     86  1    301
    86     92     89  1    301
    92    940    467  1    301
    19     22    944  1    302
    19    944    382  1    302
   382    944    943  1    302
   382    943    942  1    302
   382    942     18  1    302
    18    942     96  1    302
    96    942    941  1    302
    96    941     98  1    302
    98    941    101  1    302
   101    941    470  1    302
   470    941    943  1    302
   470    943    104  1    302
   104    943    944  1    302
   104    944    107  1    302
   107    944     22  1    302
   943    941    942  1    302
     3     29    385  1    303
   385     29     26  1    303
   385     26     23  1    303
   385     23     21  1    303
    25    110    108  1    304
    25    108     24  1    304
   946    949    950  1    305
   947    946    950  1    305
   947    950    951  1    305
   948    954    955  1    305
   949    948    955  1    305
   949    955    956  1    305
   950    949    956  1    305
   950    956    957  1    305
   951    950    957  1    305
   952    958    959  1    305
   953    952    959  1    305
   953    959    960  1    305
   954    953    960  1    305
   955    954    960  1    305
   955    960    961  1    305
   956    955    961  1    305
   956    961    962  1    305
   957    956    962  1    305
   959    958    963  1    305
   959    963    964  1    305
   960    959    964  1    305
   961    960    964  1    305
   961    964    965  1    305
   962    961    965  1    305
   964    963    966  1    305
   965    964    966  1    305
   965    966    399  1    305
   965    399    962  1    305
   962    399    401  1    305
   962    401    957  1    305
   957    401    403  1    305
   957    403    951  1    305
   951    403    405  1    305
   951    405    947  1    305
   947    405    407  1    305
   947    407    945  1    305
   947    945    488  1    305
   947    488    946  1    305
   946    488    486  1    305
   946    486    484  1    305
   946    484    949  1    305
   949    484    119  1    305
   949    119    948  1    305
   948    119    482  1    305
   948    482    954  1    305
   954    482    953  1    305
   953    482    116  1    305
   953    116    952  1    305
   952    116    113  1    305
   952    113    111  1    305
   952    111    958  1    305
   958    111     27  1    305
   958     27    963  1    305
   963     27    395  1    305
   963    395    966  1    305
   966    395    397  1    305
   966    397    399  1    305
   395     27     28  1    305
   488    945    490  1    305
   490    945    409  1    305
   490    409     31  1    305
   409    945    407  1    305
   968    967    969  1    306
   968    969    970  1    306
   968    970    491  1    306
   968    491    128  1    306
   968    128    500  1    306
   968    500    967  1    306
   967    500    498  1    306
   967    498    496  1    306
   967    496    969  1    306
   969    496    494  1    306
   969    494    487  1    306
   969    487    489  1    306
   969    489    970  1    306
   970    489    491  1    306
   487    494    492  1    306
   487    492    485  1    306
   485    492    120  1    306
   498    500    125  1    306
   498    125    122  1    306
   128    491     33  1    306
   128     33     34  1    306
   510    140    502  1    307
   510    502    129  1    307
   510    129     36  1    307
   510     36     37  1    307
   502    140    131  1    307
   131    140    137  1    307
   131    137    134  1    307
   971    975    976  1    308
   972    971    976  1    308
   972    976    977  1    308
   973    972    977  1    308
   973    977    978  1    308
   974    973    978  1    308
   974    978    979  1    308
   976    975    980  1    308
   976    980    981  1    308
   977    976    981  1    308
   978    977    981  1    308
   978    981    982  1    308
   979    978    982  1    308
   979    982    983  1    308
   979    983    526  1    308
   979    526    524  1    308
   979    524    974  1    308
   974    524    522  1    308
   974    522    973  1    308
   973    522    520  1    308
   973    520    972  1    308
   972    520    518  1    308
   972    518    971  1    308
   971    518    143  1    308
   971    143    513  1    308
   971    513    975  1    308
   975    513     39  1    308
   975     39    980  1    308
   980     39     40  1    308
   980     40    981  1    308
   981     40    982  1    308
   982     40    155  1    308
   982    155    983  1    308
   983    155    152  1    308
   983    152    149  1    308
   983    149    146  1    308
   983    146    526  1    308
   513    143    141  1    308
   542    164    540  1    309
   542    540    158  1    309
   542    158    984  1    309
   542    984     43  1    309
    43    984    417  1    309
   417    984     42  1    309
    42    984    156  1    309
   156    984    158  1    309
   540    164    161  1    309
    46    170    545  1    310
    46    545    543  1    310
    46    543     45  1    310
   543    545    165  1    310
   545    170    167  1    310
    49    171    985  1    311
    49    985    421  1    311
   421    985     48  1    311
    48    985    171  1    311
    52     55     51  1    312
    51     55    168  1    312
    51    168    169  1    312
   988    987    989  1    313
   988    989    561  1    313
   988    561    559  1    313
   988    559    986  1    313
   988    986    547  1    313
   988    547    987  1    313
   987    547    166  1    313
   987    166     57  1    313
   987     57    428  1    313
   987    428    989  1    313
   989    428    430  1    313
   989    430    563  1    313
   989    563    561  1    313
   563    430     58  1    313
   547    986    163  1    313
   163    986    162  1    313
   162    986    557  1    313
   162    557    173  1    313
   173    557    176  1    313
   557    986    559  1    313
   991    990    994  1    314
   992    991    995  1    314
   991    994    995  1    314
   995    994    560  1    314
   995    560    562  1    314
   995    562    564  1    314
   995    564    992  1    314
   992    564    993  1    314
   992    993    185  1    314
   992    185    182  1    314
   992    182    991  1    314
   991    182    570  1    314
   991    570    990  1    314
   990    570    179  1    314
   990    179    177  1    314
   990    177    558  1    314
   990    558    994  1    314
   994    558    560  1    314
   185    993    188  1    314
   188    993     61  1    314
    61    993     60  1    314
    60    993    564  1    314
    64    194     63  1    315
    63    194    191  1    315
    63    191    189  1    315
    67     70    197  1    316
    67    197     66  1    316
    66    197    195  1    316
    73     76    999  1    317
    73    999     72  1    317
    72    999    596  1    317
    72    596    198  1    317
   596    999    598  1    317
   598    999    997  1    317
   598    997    600  1    317
   600    997    998  1    317
   600    998    996  1    317
   600    996    602  1    317
   602    996    200  1    317
   200    996    203  1    317
   203    996    604  1    317
   604    996    998  1    317
   604    998    606  1    317
   606    998    997  1    317
   606    997     76  1    317
    76    997    999  1    317
  1000   1002   1003  1    318
  1001   1000   1003  1    318
  1001   1003    460  1    318
  1001    460     79  1    318
  1001     79    612  1    318
  1001    612    610  1    318
  1001    610   1000  1    318
  1000    610    206  1    318
  1000    206    204  1    318
  1000    204    605  1    318
  1000    605   1002  1    318
  1002    605    607  1    318
  1002    607    456  1    318
  1002    456    458  1    318
  1002    458   1003  1    318
  1003    458    460  1    318
   456    607     78  1    318
   612     79     82  1    318
    85    218    613  1    319
    85    613     84  1    319
   613    218    630  1    319
   613    630   1004  1    319
   613   1004    611  1    319
   611   1004    614  1    319
   611    614    207  1    319
   614   1004    616  1    319
   616   1004    630  1    319
   616    630    627  1    319
   616    627    618  1    319
   618    627    620  1    319
   620    627    215  1    319
   620    215    209  1    319
   209    215    212  1    319
    88    236     87  1    320
   657    233    230  1    320
   657    230    227  1    320
   657    227    659  1    320
   659    227    224  1    320
   659    224    661  1    320
   661    224    663  1    320
   663    224    214  1    320
   663    214    637  1    320
   663    637    665  1    320
   665    637    667  1    320
   667    637    219  1    320
   667    219    236  1    320
   236    219     87  1    320
   214    224    221  1    320
   214    221    213  1    320
   237     90    669  1    321
  1007   1006   1008  1    321
  1007   1008    681  1    321
  1007    681    679  1    321
  1007    679   1005  1    321
  1007   1005    671  1    321
  1007    671   1006  1    321
  1006    671    669  1    321
  1006    669     90  1    321
  1006     90     91  1    321
  1006     91   1008  1    321
  1008     91    904  1    321
  1008    904    683  1    321
  1008    683    681  1    321
   683    904     99  1    321
   683     99    100  1    321
   671   1005    673  1    321
   673   1005    677  1    321
   673    677    675  1    321
   675    677    239  1    321
   677   1005    679  1    321
    94     97    905  1    322
    94    905    468  1    322
   468    905     93  1    322
  1009   1012   1013  1    323
  1010   1009   1013  1    323
  1010   1013   1014  1    323
  1011   1010   1014  1    323
  1011   1014   1015  1    323
  1012   1016   1017  1    323
  1013   1012   1017  1    323
  1013   1017   1018  1    323
  1014   1013   1018  1    323
  1014   1018   1019  1    323
  1015   1014   1019  1    323
  1017   1016   1020  1    323
  1017   1020   1021  1    323
  1018   1017   1021  1    323
  1018   1021   1022  1    323
  1019   1018   1022  1    323
  1019   1022    248  1    323
  1019    248    693  1    323
  1019    693   1015  1    323
  1015    693    689  1    323
  1015    689   1011  1    323
  1011    689    245  1    323
  1011    245    242  1    323
  1011    242    685  1    323
  1011    685   1010  1    323
  1010    685    240  1    323
  1010    240   1009  1    323
  1009    240    678  1    323
  1009    678   1012  1    323
  1012    678    680  1    323
  1012    680   1016  1    323
  1016    680    682  1    323
  1016    682    684  1    323
  1016    684   1020  1    323
  1020    684    102  1    323
  1020    102   1021  1    323
  1021    102    472  1    323
  1021    472   1022  1    323
  1022    472    103  1    323
  1022    103    248  1    323
   106    109    112  1    324
   106    112    251  1    324
   106    251    105  1    324
   105    251    249  1    324
   115    252    114  1    325
  1023   1024   1025  1    326
  1024   1026   1027  1    326
  1025   1024   1027  1    326
  1025   1027   1028  1    326
  1027   1026   1029  1    326
  1027   1029   1030  1    326
  1028   1027   1030  1    326
  1028   1030    493  1    326
  1028    493    495  1    326
  1028    495    497  1    326
  1028    497   1025  1    326
  1025    497    499  1    326
  1025    499   1023  1    326
  1023    499    121  1    326
  1023    121    257  1    326
  1023    257   1024  1    326
  1024    257    254  1    326
  1024    254    246  1    326
  1024    246   1026  1    326
  1026    246    692  1    326
  1026    692    696  1    326
  1026    696   1029  1    326
  1029    696   1031  1    326
  1029   1031    483  1    326
  1029    483   1030  1    326
  1030    483    118  1    326
  1030    118    493  1    326
   483   1031    117  1    326
   117   1031    247  1    326
   117    247    250  1    326
   247   1031    696  1    326
   124    132   1032  1    327
   124   1032    123  1    327
   123   1032    258  1    327
   258   1032    719  1    327
   719   1032    133  1    327
   719    133    232  1    327
   232    133    231  1    327
   133   1032    132  1    327
   503    130    501  1    328
   503    501    127  1    328
   501    130    126  1    328
   741    266    228  1    329
   741    228    229  1    329
   741    229    135  1    329
   741    135    136  1    329
   228    266    263  1    329
   228    263    260  1    329
  1033   1034   1035  1    330
  1033   1035   1036  1    330
  1033   1036   1037  1    330
  1035   1038   1039  1    330
  1036   1035   1039  1    330
  1036   1039   1040  1    330
  1036   1040   1041  1    330
  1037   1036   1041  1    330
  1037   1041   1042  1    330
  1040   1039   1043  1    330
  1040   1043   1044  1    330
  1040   1044   1045  1    330
  1041   1040   1045  1    330
  1041   1045   1046  1    330
  1042   1041   1046  1    330
  1042   1046    762  1    330
  1042    762    760  1    330
  1042    760    758  1    330
  1042    758   1037  1    330
  1037    758   1033  1    330
  1033    758    756  1    330
  1033    756   1034  1    330
  1034    756    754  1    330
  1034    754    272  1    330
  1034    272    750  1    330
  1034    750   1035  1    330
  1035    750   1038  1    330
  1038    750    269  1    330
  1038    269   1039  1    330
  1039    269   1043  1    330
  1043    269    267  1    330
  1043    267    744  1    330
  1043    744   1044  1    330
  1044    744    138  1    330
  1044    138   1045  1    330
  1045    138    139  1    330
  1045    139   1046  1    330
  1046    139    142  1    330
  1046    142    762  1    330
  1047   1050   1051  1    331
  1047   1051   1052  1    331
  1048   1047   1052  1    331
  1048   1052   1053  1    331
  1048   1053   1054  1    331
  1050   1055   1056  1    331
  1051   1050   1056  1    331
  1051   1056   1057  1    331
  1052   1051   1057  1    331
  1052   1057   1058  1    331
  1052   1058   1059  1    331
  1053   1052   1059  1    331
  1053   1059   1060  1    331
  1054   1053   1060  1    331
  1059   1058   1061  1    331
  1059   1061   1062  1    331
  1060   1059   1062  1    331
  1060   1062    768  1    331
  1060    768    766  1    331
  1060    766   1054  1    331
  1054    766   1049  1    331
  1054   1049    755  1    331
  1054    755   1048  1    331
  1048    755    757  1    331
  1048    757   1047  1    331
  1047    757    759  1    331
  1047    759   1050  1    331
  1050    759    761  1    331
  1050    761   1055  1    331
  1055    761    763  1    331
  1055    763    519  1    331
  1055    519    521  1    331
  1055    521   1056  1    331
  1056    521    523  1    331
  1056    523   1057  1    331
  1057    523   1058  1    331
  1058    523    525  1    331
  1058    525   1061  1    331
  1061    525    527  1    331
  1061    527   1062  1    331
  1062    527    770  1    331
  1062    770    768  1    331
   770    527    145  1    331
   519    763    144  1    331
   755   1049    273  1    331
   273   1049    275  1    331
   275   1049    766  1    331
   777    278   1064  1    332
   777   1064    771  1    332
   777    771    147  1    332
   777    147    148  1    332
   771   1064   1063  1    332
   771   1063    769  1    332
   769   1063    767  1    332
   767   1063    772  1    332
   767    772    276  1    332
   772   1063    774  1    332
   774   1063   1064  1    332
   774   1064    278  1    332
   151    159   1065  1    333
   151   1065    150  1    333
   150   1065    779  1    333
   779   1065    781  1    333
   779    781    279  1    333
   279    781    281  1    333
   781   1065    541  1    333
   781    541    160  1    333
   781    160    172  1    333
   541   1065    159  1    333
   154    157    153  1    334
   287    284    290  1    335
  1067   1066   1068  1    335
  1067   1068    290  1    335
  1067    290    284  1    335
  1067    284    282  1    335
  1067    282   1066  1    335
  1066    282    782  1    335
  1066    782   1068  1    335
  1068    782    174  1    335
  1068    174    175  1    335
  1068    175    178  1    335
  1068    178    290  1    335
   181    296    572  1    336
   572    296    293  1    336
   572    293    180  1    336
   180    293    291  1    336
  1069   1071   1072  1    337
  1071   1070   1074  1    337
  1071   1074   1075  1    337
  1072   1071   1075  1    337
  1070   1076   1073  1    337
  1070   1073   1074  1    337
  1074   1073   1077  1    337
  1074   1077   1078  1    337
  1075   1074   1078  1    337
  1077   1076   1079  1    337
  1073   1076   1077  1    337
  1078   1077   1080  1    337
  1077   1079   1080  1    337
  1080   1079    183  1    337
  1080    183    184  1    337
  1080    184    317  1    337
  1080    317    814  1    337
  1080    814   1078  1    337
  1078    814    810  1    337
  1078    810   1075  1    337
  1075    810    314  1    337
  1075    314   1072  1    337
  1072    314    311  1    337
  1072    311    308  1    337
  1072    308   1069  1    337
  1069    308    305  1    337
  1069    305    302  1    337
  1069    302   1070  1    337
  1069   1070   1071  1    337
  1070    302    796  1    337
  1070    796   1076  1    337
  1076    796    299  1    337
  1076    299    793  1    337
  1076    793   1079  1    337
  1079    793    297  1    337
  1079    297    183  1    337
   187    190    186  1    338
   190    318    186  1    338
  1081   1083   1084  1    339
  1081   1084    826  1    339
  1081    826    824  1    339
  1081    824    315  1    339
  1081    315    813  1    339
  1081    813   1082  1    339
  1081   1082   1083  1    339
  1083   1082    601  1    339
  1083    601    603  1    339
  1083    603   1084  1    339
  1084    603    199  1    339
  1084    199    826  1    339
   601   1082    599  1    339
   599   1082   1085  1    339
   599   1085    597  1    339
   597   1085    316  1    339
   597    316    192  1    339
   597    192    193  1    339
   597    193    196  1    339
   316   1085    817  1    339
   817   1085   1082  1    339
   817   1082    813  1    339
   202    205    201  1    340
   201    205   1088  1    340
   201   1088    827  1    340
   827   1088   1087  1    340
   827   1087    825  1    340
   825   1087    830  1    340
   825    830   1086  1    340
   825   1086    313  1    340
   313   1086    312  1    340
   312   1086    320  1    340
   320   1086    830  1    340
   830   1087   1088  1    340
   830   1088    832  1    340
   832   1088    615  1    340
   832    615    617  1    340
   832    617    834  1    340
   834    617    619  1    340
   834    619    621  1    340
   834    621    323  1    340
   323    621    208  1    340
   615   1088    205  1    340
  1089   1090   1091  1    341
  1089   1091   1092  1    341
  1091   1090   1095  1    341
  1091   1095   1096  1    341
  1091   1096   1097  1    341
  1092   1091   1097  1    341
  1090   1094   1095  1    341
  1095   1094    306  1    341
  1095    306    840  1    341
  1095    840   1096  1    341
  1096    840    326  1    341
  1096    326   1098  1    341
  1096   1098   1097  1    341
  1097   1098    894  1    341
  1097    894   1092  1    341
  1092    894    892  1    341
  1092    892   1089  1    341
  1089    892   1093  1    341
  1089   1093    846  1    341
  1089    846   1090  1    341
  1090    846   1094  1    341
  1094    846    329  1    341
  1094    329    306  1    341
   846   1093    848  1    341
   848   1093    332  1    341
   332   1093    892  1    341
   332    892    335  1    341
   335    892    262  1    341
   262    892    353  1    341
   262    353    261  1    341
   894   1098    324  1    341
   894    324    210  1    341
   894    210    220  1    341
   220    210    211  1    341
   324   1098    326  1    341
   840    306    307  1    341
   639    216   1099  1    342
   639   1099    632  1    342
   639    632    217  1    342
   632   1099    629  1    342
   629   1099    216  1    342
   898    354    893  1    343
   898    893    895  1    343
   898    895    223  1    343
   223    895    222  1    343
   226    259    352  1    344
   226    352    901  1    344
   901    225    226  1    344
  1100   1101   1102  1    345
  1100   1102   1103  1    345
  1101   1104   1105  1    345
  1101   1105   1106  1    345
  1102   1101   1106  1    345
  1102   1106   1107  1    345
  1102   1107   1108  1    345
  1103   1102   1108  1    345
  1104   1109   1110  1    345
  1105   1104   1110  1    345
  1105   1110   1111  1    345
  1106   1105   1111  1    345
  1106   1111   1112  1    345
  1107   1106   1112  1    345
  1107   1112   1113  1    345
  1107   1113   1114  1    345
  1108   1107   1114  1    345
  1110   1109   1115  1    345
  1110   1115   1116  1    345
  1110   1116   1111  1    345
  1111   1116    676  1    345
  1111    676    238  1    345
  1111    238   1112  1    345
  1112    238    686  1    345
  1112    686   1113  1    345
  1113    686    241  1    345
  1113    241   1114  1    345
  1114    241    255  1    345
  1114    255    256  1    345
  1114    256   1108  1    345
  1108    256    722  1    345
  1108    722   1103  1    345
  1103    722    234  1    345
  1103    234    658  1    345
  1103    658   1100  1    345
  1100    658    660  1    345
  1100    660   1101  1    345
  1101    660    662  1    345
  1101    662   1104  1    345
  1104    662    664  1    345
  1104    664   1109  1    345
  1109    664    666  1    345
  1109    666   1115  1    345
  1115    666   1117  1    345
  1115   1117    672  1    345
  1115    672   1116  1    345
  1116    672    674  1    345
  1116    674    676  1    345
   672   1117    670  1    345
   670   1117    668  1    345
   670    668    235  1    345
   668   1117    666  1    345
   244    253    243  1    346
   265    268    336  1    347
   265    336    264  1    347
   283    347    280  1    348
   271    274   1118  1    348
   271   1118    752  1    348
   752   1118   1119  1    348
   752   1119   1120  1    348
   752   1120    270  1    348
   270   1120    333  1    348
   270    333    334  1    348
   333   1120    860  1    348
   860   1120   1119  1    348
   860   1119    338  1    348
   338   1119    341  1    348
   341   1119   1118  1    348
   341   1118   1121  1    348
   341   1121    344  1    348
   344   1121    773  1    348
   344    773    775  1    348
   344    775    871  1    348
   871    775   1122  1    348
   871   1122    347  1    348
   347   1122    280  1    348
   280   1122    775  1    348
   280    775    277  1    348
   773   1121    274  1    348
   274   1121   1118  1    348
   285    286    348  1    349
   346    288    873  1    350
  1123   1124   1125  1    350
  1123   1126   1124  1    350
  1125   1124   1128  1    350
  1126   1129   1130  1    350
  1124   1126   1130  1    350
  1124   1130   1127  1    350
  1124   1127   1128  1    350
  1130   1129   1132  1    350
  1130   1132   1133  1    350
  1127   1130   1133  1    350
  1127   1133   1131  1    350
  1132   1134   1135  1    350
  1133   1132   1135  1    350
  1131   1133   1135  1    350
  1131   1135    300  1    350
  1131    300    798  1    350
  1131    798    301  1    350
  1131    301   1128  1    350
  1131   1128   1127  1    350
  1128    301    884  1    350
  1128    884   1125  1    350
  1125    884    350  1    350
  1125    350    339  1    350
  1125    339   1123  1    350
  1123    339    340  1    350
  1123    340    878  1    350
  1123    878   1126  1    350
  1126    878   1129  1    350
  1129    878    345  1    350
  1129    345    873  1    350
  1129    873   1132  1    350
  1132    873   1134  1    350
  1134    873    288  1    350
  1134    288    289  1    350
  1134    289    292  1    350
  1134    292    886  1    350
  1134    886   1135  1    350
  1135    886    300  1    350
   794    298    887  1    351
   794    887    295  1    351
   295    887    294  1    351
   304    328    885  1    352
   304    885    303  1    352
   885    328    351  1    352
   310    319   1136  1    353
   310   1136    309  1    353
   309   1136    841  1    353
   841   1136    327  1    353
   327   1136    319  1    353
   322    325   1137  1    354
   322   1137    835  1    354
   835   1137    833  1    354
   833   1137    831  1    354
   831   1137    321  1    354
   321   1137    325  1    354
   863    337    849  1    355
   863    849    331  1    355
   849    337    847  1    355
   847    337    349  1    355
   847    349    330  1    355
   880    342    343  1    356
