# MSMS solvent excluded surface faces for fragments/fragment155.xyzr
#faces  #sphere density probe_r
   2534      64  3.00  1.50
     1    433      2  3      3
     2    433    434  3      3
   433    435    434  3      3
   434    435    436  3      3
   435    437    436  3      3
   436    437    438  3      3
   437    439    438  3      3
   438    439    440  3      3
   439    441    440  3      3
   440    441    442  3      3
   441    443    442  3      3
   442    443    444  3      3
   443    445    444  3      3
   444    445    446  3      3
   445      5    446  3      3
   446      5      4  3      3
     5      8      6  3      5
     6      8      7  3      5
     8     11      9  3      7
     9     11     10  3      7
    11    447     12  3      9
    12    447    448  3      9
   447    449    448  3      9
   448    449    450  3      9
   449    451    450  3      9
   450    451    452  3      9
   451    453    452  3      9
   452    453    454  3      9
   453    455    454  3      9
   454    455    456  3      9
   455    457    456  3      9
   456    457    458  3      9
   457    459    458  3      9
   458    459    460  3      9
   459    461    460  3      9
   460    461    462  3      9
   461     14    462  3      9
   462     14     13  3      9
    14     17     15  3     11
    15     17     16  3     11
    17      1     18  3     12
    18      1      3  3     12
    18     20     16  3     14
    16     20     19  3     14
    20    463     21  3     16
    21    463    464  3     16
   463    465    464  3     16
   464    465    466  3     16
   465     23    466  3     16
   466     23     22  3     16
    23    467     24  3     18
    24    467    468  3     18
   467    469    468  3     18
   468    469    470  3     18
   469    471    470  3     18
   470    471    472  3     18
   471     26    472  3     18
   472     26     25  3     18
    26    473     27  3     19
    27    473    474  3     19
   473      3    474  3     19
   474      3      2  3     19
    27     29     25  3     21
    25     29     28  3     21
    29    476    475  3     23
   475    476    477  3     23
   475    477     30  3     23
    30    477    478  3     23
   476    479    477  3     23
   477    479    480  3     23
   477    480    478  3     23
   478    480    481  3     23
   479     32    480  3     23
   480     32    482  3     23
   480    482    481  3     23
   481    482     31  3     23
    32     35     33  3     25
    33     35     34  3     25
    35    483     36  3     26
    36    483    484  3     26
   483      4    484  3     26
   484      4      6  3     26
    36    485     34  3     28
    34    485    486  3     28
   485    487    486  3     28
   486    487    488  3     28
   487     38    488  3     28
   488     38     37  3     28
    38     41    489  3     30
   489     41    491  3     30
   489    491    490  3     30
   490    491    492  3     30
   490    492     39  3     30
    39    492     40  3     30
    41    493     42  3     32
    42    493    494  3     32
   493     44    494  3     32
   494     44     43  3     32
    44      7     45  3     33
    45      7      9  3     33
    45     47     43  3     35
    43     47     46  3     35
    47     50    495  3     37
   495     50    498  3     37
   495    498    496  3     37
   496    498    499  3     37
   496    499    497  3     37
   497    499    500  3     37
   497    500     48  3     37
    48    500     49  3     37
    50     53     51  3     39
    51     53     52  3     39
    53     56     54  3     41
    54     56     55  3     41
    56    501     57  3     43
    57    501    502  3     43
   501     59    502  3     43
   502     59     58  3     43
    59     10     60  3     44
    60     10     12  3     44
    60     62    503  3     46
   503     62    504  3     46
   503    504     58  3     46
    58    504     61  3     46
    62    506    505  3     48
   505    506    507  3     48
   505    507     63  3     48
    63    507    508  3     48
   506     65    507  3     48
   507     65    509  3     48
   507    509    508  3     48
   508    509     64  3     48
    65     68    510  3     50
   510     68    511  3     50
   510    511     66  3     50
    66    511     67  3     50
    68     71    512  3     52
   512     71    514  3     52
   512    514    513  3     52
   513    514    515  3     52
   513    515     69  3     52
    69    515     70  3     52
    71     74    516  3     54
   516     74    518  3     54
   516    518    517  3     54
   517    518    519  3     54
   517    519     72  3     54
    72    519     73  3     54
    74     13     75  3     55
    75     13     15  3     55
    75     77    520  3     57
   520     77    522  3     57
   520    522    521  3     57
   521    522    523  3     57
   521    523     73  3     57
    73    523     76  3     57
    77     80    524  3     59
   524     80    525  3     59
   524    525     78  3     59
    78    525     79  3     59
    80     83     81  3     61
    81     83     82  3     61
    83    526     84  3     62
    84    526    527  3     62
   526     19    527  3     62
   527     19     21  3     62
    84     86     82  3     64
    82     86     85  3     64
    86    528     87  3     66
    87    528    529  3     66
   528     89    529  3     66
   529     89     88  3     66
    89     22     90  3     67
    90     22     24  3     67
    90     92    530  3     69
   530     92    531  3     69
   530    531     88  3     69
    88    531     91  3     69
    92    532     93  3     71
    93    532    533  3     71
   532     95    533  3     71
   533     95     94  3     71
    95    536    534  3     73
   534    536    537  3     73
   534    537    535  3     73
   535    537    538  3     73
   535    538     96  3     73
    96    538    539  3     73
   536    540    537  3     73
   537    540    541  3     73
   537    541    538  3     73
   538    541    542  3     73
   538    542    539  3     73
   539    542    543  3     73
   540     98    541  3     73
   541     98    544  3     73
   541    544    542  3     73
   542    544    545  3     73
   542    545    543  3     73
   543    545     97  3     73
    98     37    546  3     74
   546     37    548  3     74
   546    548    547  3     74
   547    548    549  3     74
   547    549     99  3     74
    99    549     39  3     74
    99    101    550  3     76
   550    101    551  3     76
   550    551     97  3     76
    97    551    100  3     76
   101    104    102  3     78
   102    104    103  3     78
   104    552    105  3     80
   105    552    553  3     80
   552    107    553  3     80
   553    107    106  3     80
   107    554    108  3     82
   108    554    555  3     82
   554    556    555  3     82
   555    556    557  3     82
   556    558    557  3     82
   557    558    559  3     82
   558    560    559  3     82
   559    560    561  3     82
   560    110    561  3     82
   561    110    109  3     82
   110     40    562  3     83
   562     40    564  3     83
   562    564    563  3     83
   563    564    565  3     83
   563    565    111  3     83
   111    565     42  3     83
   111    113    566  3     85
   566    113    568  3     85
   566    568    567  3     85
   567    568    569  3     85
   567    569    109  3     85
   109    569    112  3     85
   113     46    570  3     86
   570     46    573  3     86
   570    573    571  3     86
   571    573    574  3     86
   571    574    572  3     86
   572    574    575  3     86
   572    575    114  3     86
   114    575     48  3     86
   114    576    112  3     88
   112    576    577  3     88
   576    578    577  3     88
   577    578    579  3     88
   578    580    579  3     88
   579    580    581  3     88
   580    582    581  3     88
   581    582    583  3     88
   582    116    583  3     88
   583    116    115  3     88
   116    119    584  3     90
   584    119    585  3     90
   584    585    117  3     90
   117    585    118  3     90
   119    122    586  3     92
   586    122    587  3     92
   586    587    120  3     92
   120    587    121  3     92
   122    125    588  3     94
   588    125    590  3     94
   588    590    589  3     94
   589    590    591  3     94
   589    591    123  3     94
   123    591    124  3     94
   125    128    592  3     96
   592    128    593  3     96
   592    593    126  3     96
   126    593    127  3     96
   129    594    132  3     98
   132    594    595  3     98
   595    594    131  3     98
   128    133    596  3     99
   596    133    597  3     99
   596    597    130  3     99
   133     49    598  3    100
   598     49    600  3    100
   598    600    599  3    100
   599    600    601  3    100
   599    601    134  3    100
   134    601     51  3    100
   134    136    602  3    102
   602    136    603  3    102
   602    603    132  3    102
   132    603    135  3    102
   136    139    137  3    104
   137    139    138  3    104
   139     52    140  3    105
   140     52     54  3    105
   140     55    138  3    106
   138     55     57  3    106
   137    604    135  3    108
   135    604    605  3    108
   604    142    605  3    108
   605    142    141  3    108
   142    606    143  3    110
   143    606    607  3    110
   606    145    607  3    110
   607    145    144  3    110
   145    148    608  3    112
   608    148    609  3    112
   608    609    146  3    112
   146    609    147  3    112
   148     61    149  3    113
   149     61     63  3    113
   149    611    610  3    115
   610    611    612  3    115
   610    612    147  3    115
   147    612    613  3    115
   611    151    612  3    115
   612    151    614  3    115
   612    614    613  3    115
   613    614    150  3    115
   151     64    152  3    116
   152     64     66  3    116
   152    154    615  3    118
   615    154    616  3    118
   615    616    150  3    118
   150    616    153  3    118
   154     67    155  3    119
   155     67     69  3    119
   155    157    617  3    121
   617    157    618  3    121
   617    618    153  3    121
   153    618    156  3    121
   157    160    619  3    123
   619    160    620  3    123
   619    620    158  3    123
   158    620    159  3    123
   160     70    161  3    124
   161     70     72  3    124
   161    163    621  3    126
   621    163    622  3    126
   621    622    159  3    126
   159    622    162  3    126
   163    623    164  3    127
   164    623    624  3    127
   623    625    624  3    127
   624    625    626  3    127
   625     76    626  3    127
   626     76     78  3    127
   164    166    627  3    129
   627    166    628  3    129
   627    628    162  3    129
   162    628    165  3    129
   166    629    167  3    131
   167    629    630  3    131
   629    631    630  3    131
   630    631    632  3    131
   631    169    632  3    131
   632    169    168  3    131
   169    634    633  3    133
   633    634    635  3    133
   633    635    170  3    133
   170    635    636  3    133
   634    637    635  3    133
   635    637    638  3    133
   635    638    636  3    133
   636    638    639  3    133
   637    172    638  3    133
   638    172    640  3    133
   638    640    639  3    133
   639    640    171  3    133
   172    175    173  3    135
   173    175    174  3    135
   175    642    641  3    136
   641    642    643  3    136
   641    643    176  3    136
   176    643    644  3    136
   642     79    643  3    136
   643     79    645  3    136
   643    645    644  3    136
   644    645     81  3    136
   176    178    646  3    138
   646    178    647  3    138
   646    647    174  3    138
   174    647    177  3    138
   178    181    648  3    140
   648    181    650  3    140
   648    650    649  3    140
   649    650    651  3    140
   649    651    179  3    140
   179    651    180  3    140
   181    184    652  3    142
   652    184    654  3    142
   652    654    653  3    142
   653    654    655  3    142
   653    655    182  3    142
   182    655    183  3    142
   184    187    656  3    144
   656    187    658  3    144
   656    658    657  3    144
   657    658    659  3    144
   657    659    185  3    144
   185    659    186  3    144
   187    660    188  3    145
   188    660    661  3    145
   660     85    661  3    145
   661     85     87  3    145
   188    190    662  3    147
   662    190    664  3    147
   662    664    663  3    147
   663    664    665  3    147
   663    665    186  3    147
   186    665    189  3    147
   190    193    666  3    149
   666    193    667  3    149
   666    667    191  3    149
   191    667    192  3    149
   193    196    668  3    151
   668    196    670  3    151
   668    670    669  3    151
   669    670    671  3    151
   669    671    194  3    151
   194    671    195  3    151
   196     91    672  3    152
   672     91    673  3    152
   672    673    197  3    152
   197    673     93  3    152
   197    675    674  3    154
   674    675    676  3    154
   674    676    195  3    154
   195    676    677  3    154
   675    199    676  3    154
   676    199    678  3    154
   676    678    677  3    154
   677    678    198  3    154
   199     94    679  3    155
   679     94    680  3    155
   679    680    200  3    155
   200    680     96  3    155
   200    681    198  3    156
   198    681    682  3    156
   681    683    682  3    156
   682    683    684  3    156
   683    685    684  3    156
   684    685    686  3    156
   685    100    686  3    156
   686    100    102  3    156
   194    202    192  3    158
   192    202    201  3    158
   202    205    203  3    160
   203    205    204  3    160
   205    687    206  3    162
   206    687    688  3    162
   687    689    688  3    162
   688    689    690  3    162
   689    691    690  3    162
   690    691    692  3    162
   691    693    692  3    162
   692    693    694  3    162
   693    695    694  3    162
   694    695    696  3    162
   695    208    696  3    162
   696    208    207  3    162
   208    211    209  3    164
   209    211    210  3    164
   211    697    212  3    165
   212    697    698  3    165
   697    699    698  3    165
   698    699    700  3    165
   699    701    700  3    165
   700    701    702  3    165
   701    103    702  3    165
   702    103    105  3    165
   212    703    210  3    167
   210    703    704  3    167
   703    705    704  3    167
   704    705    706  3    167
   705    214    706  3    167
   706    214    213  3    167
   214    217    215  3    169
   215    217    216  3    169
   217    106    218  3    170
   218    106    108  3    170
   218    220    216  3    172
   216    220    219  3    172
   220    223    221  3    174
   221    223    222  3    174
   223    226    224  3    176
   224    226    225  3    176
   226    115    707  3    177
   707    115    708  3    177
   707    708    227  3    177
   227    708    117  3    177
   227    709    225  3    179
   225    709    710  3    179
   709    229    710  3    179
   710    229    228  3    179
   229    232    711  3    181
   711    232    712  3    181
   711    712    230  3    181
   230    712    231  3    181
   232    118    233  3    182
   233    118    120  3    182
   233    121    231  3    183
   231    121    123  3    183
   230    235    228  3    185
   228    235    234  3    185
   235    238    713  3    187
   713    238    714  3    187
   713    714    236  3    187
   236    714    237  3    187
   238    241    715  3    189
   715    241    716  3    189
   715    716    239  3    189
   239    716    240  3    189
   241    717    242  3    191
   242    717    718  3    191
   717    719    718  3    191
   718    719    720  3    191
   719    244    720  3    191
   720    244    243  3    191
   244    247    721  3    193
   721    247    723  3    193
   721    723    722  3    193
   722    723    724  3    193
   722    724    245  3    193
   245    724    246  3    193
   247    250    725  3    195
   725    250    727  3    195
   725    727    726  3    195
   726    727    728  3    195
   726    728    248  3    195
   248    728    249  3    195
   250    124    251  3    196
   251    124    126  3    196
   251    253    729  3    198
   729    253    731  3    198
   729    731    730  3    198
   730    731    732  3    198
   730    732    249  3    198
   249    732    252  3    198
   253    127    733  3    199
   733    127    735  3    199
   733    735    734  3    199
   734    735    736  3    199
   734    736    254  3    199
   254    736    129  3    199
   254    256    737  3    201
   737    256    738  3    201
   737    738    252  3    201
   252    738    255  3    201
   256    739    257  3    202
   257    739    740  3    202
   739    141    740  3    202
   740    141    143  3    202
   257    741    255  3    204
   255    741    742  3    204
   741    743    742  3    204
   742    743    744  3    204
   743    745    744  3    204
   744    745    746  3    204
   745    259    746  3    204
   746    259    258  3    204
   259    747    260  3    206
   260    747    748  3    206
   747    262    748  3    206
   748    262    261  3    206
   262    144    749  3    207
   749    144    750  3    207
   749    750    263  3    207
   263    750    146  3    207
   263    752    751  3    209
   751    752    753  3    209
   751    753    261  3    209
   261    753    754  3    209
   752    265    753  3    209
   753    265    755  3    209
   753    755    754  3    209
   754    755    264  3    209
   265    756    266  3    210
   266    756    757  3    210
   756    758    757  3    210
   757    758    759  3    210
   758    760    759  3    210
   759    760    761  3    210
   760    156    761  3    210
   761    156    158  3    210
   266    268    762  3    212
   762    268    763  3    212
   762    763    264  3    212
   264    763    267  3    212
   268    271    764  3    214
   764    271    765  3    214
   764    765    269  3    214
   269    765    270  3    214
   271    766    272  3    215
   272    766    767  3    215
   766    768    767  3    215
   767    768    769  3    215
   768    770    769  3    215
   769    770    771  3    215
   770    772    771  3    215
   771    772    773  3    215
   772    165    773  3    215
   773    165    167  3    215
   272    274    270  3    217
   270    274    273  3    217
   274    277    275  3    219
   275    277    276  3    219
   277    280    774  3    221
   774    280    775  3    221
   774    775    278  3    221
   278    775    279  3    221
   280    776    281  3    223
   281    776    777  3    223
   776    283    777  3    223
   777    283    282  3    223
   283    168    778  3    224
   778    168    780  3    224
   778    780    779  3    224
   779    780    781  3    224
   779    781    284  3    224
   284    781    170  3    224
   284    286    782  3    226
   782    286    784  3    226
   782    784    783  3    226
   783    784    785  3    226
   783    785    282  3    226
   282    785    285  3    226
   286    289    786  3    228
   786    289    787  3    228
   786    787    287  3    228
   287    787    288  3    228
   289    788    290  3    230
   290    788    789  3    230
   788    292    789  3    230
   789    292    291  3    230
   292    295    790  3    232
   790    295    793  3    232
   790    793    791  3    232
   791    793    794  3    232
   791    794    792  3    232
   792    794    795  3    232
   792    795    293  3    232
   293    795    294  3    232
   296    796    299  3    234
   299    796    797  3    234
   797    796    298  3    234
   295    300    798  3    235
   798    300    799  3    235
   798    799    297  3    235
   300    303    800  3    237
   800    303    803  3    237
   800    803    801  3    237
   801    803    804  3    237
   801    804    802  3    237
   802    804    805  3    237
   802    805    301  3    237
   301    805    302  3    237
   303    306    806  3    239
   806    306    807  3    239
   806    807    304  3    239
   304    807    305  3    239
   306    180    808  3    240
   808    180    811  3    240
   808    811    809  3    240
   809    811    812  3    240
   809    812    810  3    240
   810    812    813  3    240
   810    813    307  3    240
   307    813    182  3    240
   307    309    814  3    242
   814    309    815  3    242
   814    815    305  3    242
   305    815    308  3    242
   309    312    816  3    244
   816    312    818  3    244
   816    818    817  3    244
   817    818    819  3    244
   817    819    310  3    244
   310    819    311  3    244
   312    183    313  3    245
   313    183    185  3    245
   313    822    820  3    247
   820    822    823  3    247
   820    823    821  3    247
   821    823    824  3    247
   821    824    311  3    247
   311    824    825  3    247
   822    315    823  3    247
   823    315    826  3    247
   823    826    824  3    247
   824    826    827  3    247
   824    827    825  3    247
   825    827    314  3    247
   315    318    316  3    249
   316    318    317  3    249
   318    204    828  3    250
   828    204    829  3    250
   828    829    319  3    250
   319    829    206  3    250
   319    321    830  3    252
   830    321    831  3    252
   830    831    317  3    252
   317    831    320  3    252
   321    207    832  3    253
   832    207    833  3    253
   832    833    322  3    253
   322    833    209  3    253
   322    324    320  3    255
   320    324    323  3    255
   324    327    834  3    257
   834    327    836  3    257
   834    836    835  3    257
   835    836    837  3    257
   835    837    325  3    257
   325    837    326  3    257
   327    330    838  3    259
   838    330    841  3    259
   838    841    839  3    259
   839    841    842  3    259
   839    842    840  3    259
   840    842    843  3    259
   840    843    328  3    259
   328    843    329  3    259
   330    844    331  3    260
   331    844    845  3    260
   844    846    845  3    260
   845    846    847  3    260
   846    848    847  3    260
   847    848    849  3    260
   848    850    849  3    260
   849    850    851  3    260
   850    213    851  3    260
   851    213    215  3    260
   331    333    852  3    262
   852    333    854  3    262
   852    854    853  3    262
   853    854    855  3    262
   853    855    329  3    262
   329    855    332  3    262
   333    336    856  3    264
   856    336    858  3    264
   856    858    857  3    264
   857    858    859  3    264
   857    859    334  3    264
   334    859    335  3    264
   336    339    860  3    266
   860    339    861  3    266
   860    861    337  3    266
   337    861    338  3    266
   339    342    340  3    268
   340    342    341  3    268
   342    219    343  3    269
   343    219    221  3    269
   343    222    341  3    270
   341    222    224  3    270
   340    862    338  3    272
   338    862    863  3    272
   862    864    863  3    272
   863    864    865  3    272
   864    345    865  3    272
   865    345    344  3    272
   345    234    346  3    273
   346    234    236  3    273
   346    866    344  3    275
   344    866    867  3    275
   866    348    867  3    275
   867    348    347  3    275
   348    868    349  3    277
   349    868    869  3    277
   868    870    869  3    277
   869    870    871  3    277
   870    351    871  3    277
   871    351    350  3    277
   351    872    352  3    278
   352    872    873  3    278
   872    237    873  3    278
   873    237    239  3    278
   352    354    350  3    280
   350    354    353  3    280
   354    357    355  3    282
   355    357    356  3    282
   357    360    874  3    284
   874    360    875  3    284
   874    875    358  3    284
   358    875    359  3    284
   360    240    876  3    285
   876    240    877  3    285
   876    877    361  3    285
   361    877    242  3    285
   361    363    878  3    287
   878    363    879  3    287
   878    879    359  3    287
   359    879    362  3    287
   363    366    880  3    289
   880    366    881  3    289
   880    881    364  3    289
   364    881    365  3    289
   366    883    882  3    291
   882    883    884  3    291
   882    884    367  3    291
   367    884    885  3    291
   883    369    884  3    291
   884    369    886  3    291
   884    886    885  3    291
   885    886    368  3    291
   369    243    887  3    292
   887    243    889  3    292
   887    889    888  3    292
   888    889    890  3    292
   888    890    370  3    292
   370    890    245  3    292
   370    891    368  3    293
   368    891    892  3    293
   891    893    892  3    293
   892    893    894  3    293
   893    895    894  3    293
   894    895    896  3    293
   895    246    896  3    293
   896    246    248  3    293
   367    372    897  3    295
   897    372    898  3    295
   897    898    365  3    295
   365    898    371  3    295
   372    900    899  3    297
   899    900    901  3    297
   899    901    373  3    297
   373    901    902  3    297
   900    375    901  3    297
   901    375    903  3    297
   901    903    902  3    297
   902    903    374  3    297
   375    904    376  3    298
   376    904    905  3    298
   904    276    905  3    298
   905    276    278  3    298
   376    907    906  3    300
   906    907    908  3    300
   906    908    374  3    300
   374    908    909  3    300
   907    378    908  3    300
   908    378    910  3    300
   908    910    909  3    300
   909    910    377  3    300
   378    279    911  3    301
   911    279    912  3    301
   911    912    379  3    301
   379    912    281  3    301
   379    915    913  3    302
   913    915    916  3    302
   913    916    914  3    302
   914    916    917  3    302
   914    917    377  3    302
   377    917    918  3    302
   915    285    916  3    302
   916    285    919  3    302
   916    919    917  3    302
   917    919    920  3    302
   917    920    918  3    302
   918    920    287  3    302
   373    381    371  3    304
   371    381    380  3    304
   381    922    921  3    306
   921    922    923  3    306
   921    923    382  3    306
   382    923    924  3    306
   922    925    923  3    306
   923    925    926  3    306
   923    926    924  3    306
   924    926    927  3    306
   925    384    926  3    306
   926    384    928  3    306
   926    928    927  3    306
   927    928    383  3    306
   384    929    385  3    307
   385    929    930  3    307
   929    288    930  3    307
   930    288    290  3    307
   385    387    383  3    309
   383    387    386  3    309
   387    291    931  3    310
   931    291    933  3    310
   931    933    932  3    310
   932    933    934  3    310
   932    934    388  3    310
   388    934    293  3    310
   388    390    935  3    312
   935    390    936  3    312
   935    936    386  3    312
   386    936    389  3    312
   390    393    391  3    314
   391    393    392  3    314
   393    396    937  3    316
   937    396    938  3    316
   937    938    394  3    316
   394    938    395  3    316
   396    294    939  3    317
   939    294    940  3    317
   939    940    397  3    317
   397    940    296  3    317
   397    941    395  3    319
   395    941    942  3    319
   941    399    942  3    319
   942    399    398  3    319
   399    943    400  3    321
   400    943    944  3    321
   943    402    944  3    321
   944    402    401  3    321
   402    299    403  3    322
   403    299    301  3    322
   403    405    945  3    324
   945    405    946  3    324
   945    946    401  3    324
   401    946    404  3    324
   405    302    947  3    325
   947    302    948  3    325
   947    948    406  3    325
   406    948    304  3    325
   406    308    949  3    326
   949    308    952  3    326
   949    952    950  3    326
   950    952    953  3    326
   950    953    951  3    326
   951    953    954  3    326
   951    954    404  3    326
   404    954    310  3    326
   400    408    955  3    328
   955    408    956  3    328
   955    956    398  3    328
   398    956    407  3    328
   408    957    409  3    329
   409    957    958  3    329
   957    959    958  3    329
   958    959    960  3    329
   959    961    960  3    329
   960    961    962  3    329
   961    963    962  3    329
   962    963    964  3    329
   963    326    964  3    329
   964    326    328  3    329
   409    965    407  3    331
   407    965    966  3    331
   965    967    966  3    331
   966    967    968  3    331
   967    969    968  3    331
   968    969    970  3    331
   969    971    970  3    331
   970    971    972  3    331
   971    411    972  3    331
   972    411    410  3    331
   411    414    973  3    333
   973    414    974  3    333
   973    974    412  3    333
   412    974    413  3    333
   414    417    975  3    335
   975    417    976  3    335
   975    976    415  3    335
   415    976    416  3    335
   417    332    977  3    336
   977    332    978  3    336
   977    978    418  3    336
   418    978    334  3    336
   418    979    416  3    337
   416    979    980  3    337
   979    981    980  3    337
   980    981    982  3    337
   981    983    982  3    337
   982    983    984  3    337
   983    985    984  3    337
   984    985    986  3    337
   985    413    986  3    337
   986    413    415  3    337
   412    988    987  3    339
   987    988    989  3    339
   987    989    410  3    339
   410    989    990  3    339
   988    420    989  3    339
   989    420    991  3    339
   989    991    990  3    339
   990    991    419  3    339
   420    992    421  3    341
   421    992    993  3    341
   992    423    993  3    341
   993    423    422  3    341
   423    426    994  3    343
   994    426    995  3    343
   994    995    424  3    343
   424    995    425  3    343
   426    353    427  3    344
   427    353    355  3    344
   427    356    996  3    345
   996    356    997  3    345
   996    997    425  3    345
   425    997    358  3    345
   424    389    998  3    346
   998    389    999  3    346
   998    999    422  3    346
   422    999    391  3    346
   421   1001   1000  3    347
  1000   1001   1002  3    347
  1000   1002    419  3    347
   419   1002   1003  3    347
  1001    392   1002  3    347
  1002    392   1004  3    347
  1002   1004   1003  3    347
  1003   1004    394  3    347
   382    362    380  3    348
   380    362    364  3    348
   349    335   1005  3    349
  1005    335   1006  3    349
  1005   1006    347  3    349
   347   1006    337  3    349
   325   1009   1007  3    350
  1007   1009   1010  3    350
  1007   1010   1008  3    350
  1008   1010   1011  3    350
  1008   1011    323  3    350
   323   1011   1012  3    350
  1009    314   1010  3    350
  1010    314   1013  3    350
  1010   1013   1011  3    350
  1011   1013   1014  3    350
  1011   1014   1012  3    350
  1012   1014    316  3    350
   275   1015    273  3    352
   273   1015   1016  3    352
  1015    429   1016  3    352
  1016    429    428  3    352
   429    258    430  3    353
   430    258    260  3    353
   430    267    428  3    354
   428    267    269  3    354
   203    189    201  3    355
   201    189    191  3    355
   179    171   1017  3    356
  1017    171   1018  3    356
  1017   1018    177  3    356
   177   1018    173  3    356
    33   1019     31  3    357
    31   1019   1020  3    357
  1019   1021   1020  3    357
  1020   1021   1022  3    357
  1021   1023   1022  3    357
  1022   1023   1024  3    357
  1023   1025   1024  3    357
  1024   1025   1026  3    357
  1025   1027   1026  3    357
  1026   1027   1028  3    357
  1027     28   1028  3    357
  1028     28     30  3    357
   431   1029    432  3    358
   432   1029   1030  3    358
  1029   1031   1030  3    358
  1030   1031   1032  3    358
  1031   1033   1032  3    358
  1032   1033   1034  3    358
  1033   1035   1034  3    358
  1034   1035   1036  3    358
  1035   1037   1036  3    358
  1036   1037   1038  3    358
  1037    431   1038  3    358
  1038    431    432  3    358
     3      1      2  2      1
     6      4      5  2      2
     9      7      8  2      4
    12     10     11  2      6
    15     13     14  2      8
    18     16     17  2     10
    21     19     20  2     13
    24     22     23  2     15
    27     25     26  2     17
    30     28    475  2     20
   475     28     29  2     20
    33     31    482  2     22
    33    482     32  2     22
    36     34     35  2     24
   548     37    489  2     27
   548    489    490  2     27
   548    490    549  2     27
   549    490     39  2     27
   489     37     38  2     27
   564     40    492  2     29
   564    492    565  2     29
   565    492    491  2     29
   565    491     42  2     29
    42    491     41  2     29
    45     43     44  2     31
   573     46    495  2     34
   573    495    496  2     34
   573    496    574  2     34
   574    496    497  2     34
   574    497    575  2     34
   575    497     48  2     34
   495     46     47  2     34
   600     49    500  2     36
   600    500    601  2     36
   601    500    499  2     36
   601    499     51  2     36
    51    499    498  2     36
    51    498     50  2     36
    54     52     53  2     38
    57     55     56  2     40
   503     58     59  2     42
   503     59     60  2     42
    63     61    504  2     45
    63    504    505  2     45
   505    504     62  2     45
    66     64    510  2     47
   510     64    509  2     47
   510    509     65  2     47
    69     67    513  2     49
   513     67    511  2     49
   513    511    512  2     49
   512    511     68  2     49
    72     70    517  2     51
   517     70    515  2     51
   517    515    516  2     51
   516    515    514  2     51
   516    514     71  2     51
   521     73    519  2     53
   521    519    520  2     53
   520    519    518  2     53
   520    518     75  2     53
    75    518     74  2     53
    78     76    523  2     56
    78    523    524  2     56
   524    523    522  2     56
   524    522     77  2     56
   645     79    525  2     58
   645    525     81  2     58
    81    525     80  2     58
    84     82     83  2     60
    87     85     86  2     63
   530     88     89  2     65
   530     89     90  2     65
   673     91    531  2     68
   673    531     93  2     68
    93    531     92  2     68
   680     94    534  2     70
   680    534    535  2     70
   680    535     96  2     70
   534     94     95  2     70
   550     97   1041  2     72
   550   1041    547  2     72
   550    547     99  2     72
   547   1041    546  2     72
   546   1041    545  2     72
   546    545    544  2     72
   546    544     98  2     72
   545   1041     97  2     72
   102    100    551  2     75
   102    551    101  2     75
   105    103    104  2     77
   108    106    107  2     79
   567    109    110  2     81
   567    110    562  2     81
   567    562    566  2     81
   566    562    563  2     81
   566    563    111  2     81
   114    112    572  2     84
   572    112    569  2     84
   572    569    571  2     84
   571    569    568  2     84
   571    568    570  2     84
   570    568    113  2     84
   708    115    584  2     87
   708    584    117  2     87
   584    115    116  2     87
   120    118    585  2     89
   120    585    586  2     89
   586    585    119  2     89
   123    121    589  2     91
   589    121    588  2     91
   588    121    587  2     91
   588    587    122  2     91
   126    124    591  2     93
   126    591    592  2     93
   592    591    590  2     93
   592    590    125  2     93
   735    127   1042  2     95
   735   1042   1043  2     95
   735   1043    736  2     95
   736   1043    594  2     95
   736    594    129  2     95
   594   1043    131  2     95
   131   1043   1039  2     95
  1039   1043   1042  2     95
  1039   1042    130  2     95
   130   1042    596  2     95
   596   1042    593  2     95
   596    593    128  2     95
   593   1042    127  2     95
   602    132    595  2     97
   602    595   1044  2     97
   602   1044    134  2     97
   134   1044    599  2     97
   599   1044   1039  2     97
   599   1039    130  2     97
   599    130    598  2     97
   598    130    597  2     97
   598    597    133  2     97
  1039   1044    131  2     97
   131   1044    595  2     97
   137    135    603  2    101
   137    603    136  2    101
   140    138    139  2    103
   143    141    142  2    107
   750    144    608  2    109
   750    608    146  2    109
   608    144    145  2    109
   610    147    609  2    111
   610    609    148  2    111
   610    148    149  2    111
   615    150    614  2    114
   615    614    152  2    114
   152    614    151  2    114
   617    153    616  2    117
   617    616    155  2    117
   155    616    154  2    117
   158    156    618  2    120
   158    618    619  2    120
   619    618    157  2    120
   621    159    620  2    122
   621    620    160  2    122
   621    160    161  2    122
   627    162    622  2    125
   627    622    164  2    125
   164    622    163  2    125
   167    165    628  2    128
   167    628    166  2    128
   780    168    169  2    130
   780    169    633  2    130
   780    633    781  2    130
   781    633    170  2    130
  1018    171    640  2    132
  1018    640    173  2    132
   173    640    172  2    132
   646    174    641  2    134
   646    641    176  2    134
   641    174    175  2    134
  1017    177    647  2    137
  1017    647    649  2    137
  1017    649    179  2    137
   649    647    648  2    137
   648    647    178  2    137
   811    180    651  2    139
   811    651   1047  2    139
   811   1047    812  2    139
   812   1047   1045  2    139
   812   1045    813  2    139
   813   1045    653  2    139
   813    653    182  2    139
   653   1045   1046  2    139
   653   1046    652  2    139
   652   1046    181  2    139
   181   1046    650  2    139
   650   1046   1047  2    139
   650   1047    651  2    139
  1047   1046   1045  2    139
   185    183    657  2    141
   657    183    655  2    141
   657    655    656  2    141
   656    655    654  2    141
   656    654    184  2    141
   663    186    659  2    143
   663    659    662  2    143
   662    659    658  2    143
   662    658    188  2    143
   188    658    187  2    143
   191    189    665  2    146
   191    665    666  2    146
   666    665    664  2    146
   666    664    190  2    146
   194    192    669  2    148
   669    192    667  2    148
   669    667    668  2    148
   668    667    193  2    148
   674    195    671  2    150
   674    671    670  2    150
   674    670    672  2    150
   674    672    197  2    150
   672    670    196  2    150
   200    198    678  2    153
   200    678    679  2    153
   679    678    199  2    153
   203    201    202  2    157
   829    204    205  2    159
   829    205    206  2    159
   833    207    208  2    161
   833    208    209  2    161
   212    210    211  2    163
   215    213    214  2    166
   218    216    217  2    168
   221    219    220  2    171
   224    222    223  2    173
   227    225    707  2    175
   707    225    226  2    175
   230    228    711  2    178
   711    228    229  2    178
   233    231    712  2    180
   233    712    232  2    180
   236    234    713  2    184
   713    234    235  2    184
   239    237    715  2    186
   715    237    714  2    186
   715    714    238  2    186
   877    240    716  2    188
   877    716    241  2    188
   877    241    242  2    188
   889    243    721  2    190
   889    721    722  2    190
   889    722    890  2    190
   890    722    245  2    190
   721    243    244  2    190
   248    246    724  2    192
   248    724    726  2    192
   726    724    723  2    192
   726    723    725  2    192
   725    723    247  2    192
   730    249    728  2    194
   730    728    729  2    194
   729    728    727  2    194
   729    727    251  2    194
   251    727    250  2    194
   737    252   1048  2    197
   737   1048    254  2    197
   254   1048    734  2    197
   734   1048    732  2    197
   734    732    733  2    197
   733    732    731  2    197
   733    731    253  2    197
   732   1048    252  2    197
   257    255    738  2    200
   257    738    256  2    200
   260    258    259  2    203
   751    261    262  2    205
   751    262    749  2    205
   751    749    263  2    205
   762    264    755  2    208
   762    755    265  2    208
   762    265    266  2    208
   269    267    763  2    211
   269    763    764  2    211
   764    763    268  2    211
   272    270    765  2    213
   272    765    271  2    213
   275    273    274  2    216
   278    276    774  2    218
   774    276    277  2    218
   912    279    775  2    220
   912    775    280  2    220
   912    280    281  2    220
   783    282    283  2    222
   783    283    778  2    222
   783    778    782  2    222
   782    778    779  2    222
   782    779    284  2    222
   919    285    785  2    225
   919    785   1049  2    225
   919   1049    920  2    225
   920   1049    786  2    225
   920    786    287  2    225
   786   1049    784  2    225
   786    784    286  2    225
   784   1049    785  2    225
   290    288    787  2    227
   290    787    289  2    227
   933    291    790  2    229
   933    790    791  2    229
   933    791    934  2    229
   934    791    792  2    229
   934    792    293  2    229
   790    291    292  2    229
   940    294   1050  2    231
   940   1050    796  2    231
   940    796    296  2    231
   796   1050    298  2    231
   298   1050   1040  2    231
  1040   1050    795  2    231
  1040    795    794  2    231
  1040    794    297  2    231
   297    794    793  2    231
   297    793    798  2    231
   798    793    295  2    231
   795   1050    294  2    231
   301    299    797  2    233
   301    797    298  2    233
   301    298    802  2    233
   802    298   1040  2    233
   802   1040    801  2    233
   801   1040    297  2    233
   801    297    800  2    233
   800    297    799  2    233
   800    799    300  2    233
   948    302    805  2    236
   948    805    804  2    236
   948    804    304  2    236
   304    804    806  2    236
   806    804    803  2    236
   806    803    303  2    236
   814    305    809  2    238
   814    809    810  2    238
   814    810    307  2    238
   809    305    808  2    238
   808    305    807  2    238
   808    807    306  2    238
   952    308    815  2    241
   952    815   1052  2    241
   952   1052   1051  2    241
   952   1051    953  2    241
   953   1051   1053  2    241
   953   1053    954  2    241
   954   1053    817  2    241
   954    817    310  2    241
   817   1053    816  2    241
   816   1053   1052  2    241
   816   1052    309  2    241
   309   1052    815  2    241
  1052   1053   1051  2    241
   821    311    819  2    243
   821    819    818  2    243
   821    818    820  2    243
   820    818    312  2    243
   820    312    313  2    243
  1013    314    827  2    246
  1013    827    826  2    246
  1013    826   1014  2    246
  1014    826    315  2    246
  1014    315    316  2    246
   830    317    318  2    248
   830    318    828  2    248
   830    828    319  2    248
   322    320    831  2    251
   322    831    832  2    251
   832    831    321  2    251
  1008    323    324  2    254
  1008    324    834  2    254
  1008    834   1007  2    254
  1007    834    835  2    254
  1007    835    325  2    254
   328    326    840  2    256
   840    326    837  2    256
   840    837    839  2    256
   839    837    836  2    256
   839    836    838  2    256
   838    836    327  2    256
   853    329    843  2    258
   853    843    842  2    258
   853    842    852  2    258
   852    842    841  2    258
   852    841    331  2    258
   331    841    330  2    258
   978    332    855  2    261
   978    855   1054  2    261
   978   1054    334  2    261
   334   1054    857  2    261
   857   1054    854  2    261
   857    854    856  2    261
   856    854    333  2    261
   854   1054    855  2    261
  1006    335    859  2    263
  1006    859    337  2    263
   337    859    860  2    263
   860    859    858  2    263
   860    858    336  2    263
   340    338    861  2    265
   340    861    339  2    265
   343    341    342  2    267
   346    344    345  2    271
  1005    347    348  2    274
  1005    348    349  2    274
   352    350    351  2    276
   355    353    354  2    279
   997    356    874  2    281
   997    874    358  2    281
   874    356    357  2    281
   878    359   1055  2    283
   878   1055    876  2    283
   878    876    361  2    283
   876   1055    875  2    283
   876    875    360  2    283
   875   1055    359  2    283
   364    362    880  2    286
   880    362    879  2    286
   880    879    363  2    286
   897    365    881  2    288
   897    881    882  2    288
   897    882    367  2    288
   882    881    366  2    288
   370    368    888  2    290
   888    368    886  2    290
   888    886    887  2    290
   887    886    369  2    290
   373    371    899  2    294
   899    371    898  2    294
   899    898    372  2    294
   906    374    903  2    296
   906    903    376  2    296
   376    903    375  2    296
   914    377    910  2    299
   914    910    913  2    299
   913    910    911  2    299
   913    911    379  2    299
   911    910    378  2    299
   382    380    921  2    303
   921    380    381  2    303
   385    383    928  2    305
   385    928    384  2    305
   935    386    931  2    308
   935    931    932  2    308
   935    932    388  2    308
   931    386    387  2    308
   999    389    936  2    311
   999    936    390  2    311
   999    390    391  2    311
  1004    392    393  2    313
  1004    393    937  2    313
  1004    937    394  2    313
   397    395    938  2    315
   397    938    939  2    315
   939    938    396  2    315
   955    398    399  2    318
   955    399    400  2    318
   945    401    402  2    320
   945    402    403  2    320
   951    404    946  2    323
   951    946    405  2    323
   951    405    950  2    323
   950    405    947  2    323
   950    947    949  2    323
   949    947    406  2    323
   409    407    956  2    327
   409    956    408  2    327
   987    410    411  2    330
   987    411    973  2    330
   987    973    412  2    330
   415    413    975  2    332
   975    413    974  2    332
   975    974    414  2    332
   418    416    976  2    334
   418    976    977  2    334
   977    976    417  2    334
  1000    419    991  2    338
  1000    991    420  2    338
  1000    420    421  2    338
   998    422    423  2    340
   998    423    994  2    340
   998    994    424  2    340
   996    425    995  2    342
   996    995    427  2    342
   427    995    426  2    342
   430    428    429  2    351
  1056   1058   1059  1    359
  1057   1056   1059  1    359
  1057   1059   1060  1    359
  1057   1060   1061  1    359
  1059   1058   1062  1    359
  1059   1062   1063  1    359
  1059   1063   1064  1    359
  1060   1059   1064  1    359
  1060   1064   1065  1    359
  1061   1060   1065  1    359
  1063   1062   1066  1    359
  1070   1069   1075  1    359
  1071   1070   1076  1    359
  1071   1076   1077  1    359
  1072   1071   1077  1    359
  1075   1074   1079  1    359
  1076   1075   1079  1    359
  1070   1075   1076  1    359
  1077   1076   1080  1    359
  1079   1078   1080  1    359
  1076   1079   1080  1    359
  1080   1078    435  1    359
  1080    435    433  1    359
  1080    433   1077  1    359
  1077    433      1  1    359
  1077      1   1072  1    359
  1072      1     17  1    359
  1072     17     14  1    359
  1072     14   1071  1    359
  1071     14    461  1    359
  1071    461   1070  1    359
  1070    461    459  1    359
  1070    459   1069  1    359
  1069    459    457  1    359
  1069    457   1068  1    359
  1069   1068   1035  1    359
  1069   1035   1075  1    359
  1075   1035   1074  1    359
  1074   1035   1033  1    359
  1074   1033   1079  1    359
  1079   1033   1078  1    359
  1078   1033   1073  1    359
  1078   1073    435  1    359
   435   1073    437  1    359
   437   1073   1031  1    359
   437   1031    439  1    359
   439   1031   1029  1    359
   439   1029    441  1    359
   441   1029   1066  1    359
   441   1066    443  1    359
   443   1066   1062  1    359
   443   1062    445  1    359
   445   1062   1058  1    359
   445   1058      5  1    359
     5   1058   1056  1    359
     5   1056      8  1    359
     8   1056     11  1    359
    11   1056   1057  1    359
    11   1057    447  1    359
   447   1057   1061  1    359
   447   1061    449  1    359
   449   1061    451  1    359
   451   1061   1065  1    359
   451   1065   1067  1    359
   451   1067    453  1    359
   453   1067    455  1    359
   455   1067   1068  1    359
   455   1068    457  1    359
  1068   1067   1037  1    359
  1068   1037   1035  1    359
  1037   1067   1065  1    359
  1037   1065    431  1    359
   431   1065   1064  1    359
   431   1064   1029  1    359
  1029   1064   1063  1    359
  1029   1063   1066  1    359
  1031   1073   1033  1    359
  1081   1082   1083  1    360
  1083   1082   1084  1    360
  1083   1084    440  1    360
  1083    440    442  1    360
  1083    442    444  1    360
  1083    444   1081  1    360
  1081    444    446  1    360
  1081    446    483  1    360
  1081    483     35  1    360
  1081     35     32  1    360
  1081     32    479  1    360
  1081    479   1082  1    360
  1082    479   1084  1    360
  1084    479    476  1    360
  1084    476   1085  1    360
  1084   1085    440  1    360
   440   1085    438  1    360
   438   1085    436  1    360
   436   1085   1086  1    360
   436   1086    434  1    360
   434   1086    474  1    360
   434    474      2  1    360
   474   1086     27  1    360
    27   1086     29  1    360
    29   1086    476  1    360
   476   1086   1085  1    360
   483    446      4  1    360
     7     44      6  1    361
  1088   1087   1089  1    361
  1088   1089      6  1    361
  1088      6     44  1    361
  1088     44    493  1    361
  1088    493   1087  1    361
  1087    493     41  1    361
  1087     41     38  1    361
  1087     38    487  1    361
  1087    487   1089  1    361
  1089    487    485  1    361
  1089    485    484  1    361
  1089    484      6  1    361
   484    485     36  1    361
    45      9     47  1    362
    10     59    501  1    362
    10    501   1091  1    362
    10   1091      9  1    362
     9   1091     47  1    362
    47   1091   1090  1    362
    47   1090     50  1    362
    50   1090     53  1    362
    53   1090     56  1    362
    56   1090    501  1    362
   501   1090   1091  1    362
    13     74    462  1    363
   462     74     71  1    363
   462     71    460  1    363
   460     71     68  1    363
   460     68   1093  1    363
   460   1093    458  1    363
   458   1093   1092  1    363
   458   1092    456  1    363
   456   1092    454  1    363
   454   1092    506  1    363
   454    506    452  1    363
   452    506     62  1    363
   452     62    450  1    363
   450     62     60  1    363
   450     60    448  1    363
   448     60     12  1    363
   506   1092     65  1    363
    65   1092   1093  1    363
    65   1093     68  1    363
    16     19     15  1    364
   526     83     80  1    364
   526     80     77  1    364
   526     77     15  1    364
   526     15     19  1    364
    15     77     75  1    364
    20     18    463  1    365
   473     26    471  1    365
   473    471   1094  1    365
   473   1094      3  1    365
     3   1094     18  1    365
    18   1094    463  1    365
   463   1094    465  1    365
   465   1094    467  1    365
   465    467     23  1    365
   467   1094    469  1    365
   469   1094    471  1    365
    22     89    528  1    366
    22    528    466  1    366
   466    528   1095  1    366
   466   1095    464  1    366
   464   1095    527  1    366
   464    527     21  1    366
   527   1095     84  1    366
    84   1095     86  1    366
    86   1095    528  1    366
  1100   1099   1101  1    367
  1100   1101   1027  1    367
  1100   1027   1025  1    367
  1100   1025   1098  1    367
  1100   1098    532  1    367
  1100    532   1099  1    367
  1099    532     92  1    367
  1099     92     24  1    367
  1099     24    468  1    367
  1099    468    470  1    367
  1099    470   1101  1    367
  1101    470    472  1    367
  1101    472   1027  1    367
  1027    472     25  1    367
  1027     25     28  1    367
    24     92     90  1    367
   532   1098     95  1    367
    95   1098   1023  1    367
    95   1023    536  1    367
   536   1023   1021  1    367
   536   1021    540  1    367
   540   1021   1097  1    367
   540   1097   1096  1    367
   540   1096     98  1    367
    98   1096     37  1    367
    37   1096    488  1    367
   488   1096    486  1    367
   486   1096   1019  1    367
   486   1019     34  1    367
    34   1019     33  1    367
  1019   1096   1097  1    367
  1019   1097   1021  1    367
  1023   1098   1025  1    367
  1103   1102   1105  1    368
  1103   1105   1106  1    368
  1105   1104   1107  1    368
  1105   1107   1106  1    368
  1106   1107    478  1    368
  1106    478    481  1    368
  1106    481   1103  1    368
  1103    481     31  1    368
  1103     31   1020  1    368
  1103   1020   1102  1    368
  1102   1020   1022  1    368
  1102   1022   1024  1    368
  1102   1024   1104  1    368
  1102   1104   1105  1    368
  1104   1024   1026  1    368
  1104   1026   1107  1    368
  1107   1026   1028  1    368
  1107   1028     30  1    368
  1107     30    478  1    368
    40    110    560  1    369
    40    560     39  1    369
    39    560   1110  1    369
    39   1110     99  1    369
    99   1110   1109  1    369
    99   1109    101  1    369
   101   1109    104  1    369
   104   1109   1108  1    369
   104   1108    552  1    369
   552   1108    107  1    369
   107   1108    554  1    369
   554   1108    556  1    369
   556   1108   1109  1    369
   556   1109   1110  1    369
   556   1110    558  1    369
   558   1110    560  1    369
    43     46    494  1    370
   494     46    113  1    370
   494    113    111  1    370
   494    111     42  1    370
  1111   1113   1114  1    371
  1112   1111   1114  1    371
  1112   1114   1115  1    371
  1113   1116   1117  1    371
  1114   1113   1117  1    371
  1114   1117   1118  1    371
  1115   1114   1118  1    371
  1115   1118   1119  1    371
  1115   1119    125  1    371
  1115    125   1112  1    371
  1112    125    122  1    371
  1112    122    119  1    371
  1112    119    116  1    371
  1112    116   1111  1    371
  1111    116    582  1    371
  1111    582   1113  1    371
  1113    582    580  1    371
  1113    580    578  1    371
  1113    578   1116  1    371
  1116    578    576  1    371
  1116    576   1117  1    371
  1117    576    114  1    371
  1117    114     48  1    371
  1117     48   1118  1    371
  1118     48     49  1    371
  1118     49    133  1    371
  1118    133   1119  1    371
  1119    133    128  1    371
  1119    128    125  1    371
    52    139    136  1    372
    52    136     51  1    372
    51    136    134  1    372
    55    140     54  1    373
    58     61   1120  1    374
    58   1120    502  1    374
   502   1120    604  1    374
   502    604     57  1    374
    57    604    137  1    374
    57    137    138  1    374
   604   1120    142  1    374
   142   1120     61  1    374
   142     61    606  1    374
   606     61    148  1    374
   606    148    145  1    374
    64    151    508  1    375
   508    151    611  1    375
   508    611    149  1    375
   508    149     63  1    375
    67    154     66  1    376
    66    154    152  1    376
    70    160    157  1    377
    70    157     69  1    377
    69    157    155  1    377
  1121   1122   1123  1    378
  1123   1122     73  1    378
  1123     73     76  1    378
  1123     76    625  1    378
  1123    625    623  1    378
  1123    623   1121  1    378
  1121    623    163  1    378
  1121    163   1122  1    378
  1122    163    161  1    378
  1122    161     72  1    378
  1122     72     73  1    378
  1124   1125   1126  1    379
  1124   1126    637  1    379
  1124    637    634  1    379
  1124    634    169  1    379
  1124    169    631  1    379
  1124    631   1125  1    379
  1125    631    629  1    379
  1125    629    624  1    379
  1125    624    626  1    379
  1125    626   1126  1    379
  1126    626   1127  1    379
  1126   1127    637  1    379
   637   1127    172  1    379
   172   1127    642  1    379
   172    642    175  1    379
   642   1127     79  1    379
    79   1127    626  1    379
    79    626     78  1    379
   624    629    166  1    379
   624    166    164  1    379
    82     85    644  1    380
    82    644     81  1    380
   644     85    660  1    380
   644    660   1128  1    380
   644   1128    176  1    380
   176   1128    178  1    380
   178   1128    181  1    380
   181   1128    184  1    380
   184   1128    187  1    380
   187   1128    660  1    380
    88     91   1129  1    381
    88   1129    529  1    381
   529   1129    661  1    381
   529    661     87  1    381
   661   1129    190  1    381
   661    190    188  1    381
   190   1129    193  1    381
   193   1129     91  1    381
   193     91    196  1    381
    94    199    533  1    382
   675    197    533  1    382
   675    533    199  1    382
   533    197     93  1    382
   200     96    681  1    383
    97    100    543  1    383
   543    100    685  1    383
   543    685    683  1    383
   543    683    539  1    383
   539    683    681  1    383
   539    681     96  1    383
   697    211    695  1    384
   697    695   1132  1    384
   697   1132   1130  1    384
   697   1130    699  1    384
   699   1130   1131  1    384
   699   1131    701  1    384
   701   1131    686  1    384
   701    686    103  1    384
   103    686    102  1    384
   686   1131   1132  1    384
   686   1132    684  1    384
   684   1132   1133  1    384
   684   1133    682  1    384
   682   1133    693  1    384
   682    693    691  1    384
   682    691    198  1    384
   198    691    689  1    384
   198    689    677  1    384
   677    689    687  1    384
   677    687    195  1    384
   195    687    194  1    384
   194    687    202  1    384
   202    687    205  1    384
   693   1133    695  1    384
   695   1133   1132  1    384
  1132   1131   1130  1    384
   695    211    208  1    384
   106    217    214  1    385
   106    214    705  1    385
   106    705   1134  1    385
   106   1134    553  1    385
   553   1134    702  1    385
   553    702    105  1    385
   702   1134    700  1    385
   700   1134    698  1    385
   698   1134    703  1    385
   698    703    212  1    385
   703   1134    705  1    385
  1135   1136   1137  1    386
  1135   1137   1138  1    386
  1135   1138    583  1    386
  1135    583    226  1    386
  1135    226    223  1    386
  1135    223   1136  1    386
  1136    223    220  1    386
  1136    220    218  1    386
  1136    218    108  1    386
  1136    108   1137  1    386
  1137    108    555  1    386
  1137    555   1138  1    386
  1138    555    557  1    386
  1138    557    581  1    386
  1138    581    583  1    386
   581    557    579  1    386
   579    557    559  1    386
   579    559    577  1    386
   577    559    561  1    386
   577    561    109  1    386
   577    109    112  1    386
   226    583    115  1    386
   118    232   1139  1    387
   118   1139    117  1    387
   117   1139    227  1    387
   227   1139    709  1    387
   709   1139    229  1    387
   229   1139    232  1    387
   121    233    120  1    388
  1140   1141   1142  1    389
  1142   1141   1143  1    389
  1142   1143   1144  1    389
  1142   1144    719  1    389
  1142    719    717  1    389
  1142    717   1140  1    389
  1140    717    238  1    389
  1140    238    235  1    389
  1140    235    230  1    389
  1140    230   1141  1    389
  1141    230    231  1    389
  1141    231   1143  1    389
  1143    231    123  1    389
  1143    123    124  1    389
  1143    124    250  1    389
  1143    250    247  1    389
  1143    247   1144  1    389
  1144    247    244  1    389
  1144    244    719  1    389
   238    717    241  1    389
   127    253    126  1    390
   126    253    251  1    390
   132    135   1145  1    391
   132   1145    129  1    391
   129   1145    256  1    391
   129    256    254  1    391
   256   1145    739  1    391
   739   1145    605  1    391
   739    605    141  1    391
   605   1145    135  1    391
   144    262    607  1    392
   607    262    747  1    392
   607    747    143  1    392
   143    747   1146  1    392
   143   1146    740  1    392
   740   1146    741  1    392
   740    741    257  1    392
   741   1146    743  1    392
   743   1146    747  1    392
   743    747    745  1    392
   745    747    259  1    392
  1147   1149   1150  1    393
  1148   1147   1150  1    393
  1148   1150    758  1    393
  1148    758    756  1    393
  1148    756    752  1    393
  1148    752   1147  1    393
  1147    752    263  1    393
  1147    263    147  1    393
  1147    147    613  1    393
  1147    613   1149  1    393
  1149    613    150  1    393
  1149    150    153  1    393
  1149    153    760  1    393
  1149    760   1150  1    393
  1150    760    758  1    393
   760    153    156  1    393
   147    263    146  1    393
   752    756    265  1    393
  1151   1152   1154  1    394
  1151   1154   1153  1    394
  1155   1154   1156  1    394
  1153   1154   1155  1    394
  1157   1156   1158  1    394
  1155   1156   1157  1    394
  1157   1158    162  1    394
  1157    162    165  1    394
  1157    165    772  1    394
  1157    772   1155  1    394
  1155    772    770  1    394
  1155    770   1153  1    394
  1153    770    768  1    394
  1153    768   1151  1    394
  1151    768    766  1    394
  1151    766    271  1    394
  1151    271   1152  1    394
  1152    271    268  1    394
  1152    268    266  1    394
  1152    266    757  1    394
  1152    757   1154  1    394
  1154    757    759  1    394
  1154    759   1156  1    394
  1156    759    761  1    394
  1156    761   1158  1    394
  1158    761    158  1    394
  1158    158    159  1    394
  1158    159    162  1    394
   168    283    632  1    395
   632    283    776  1    395
   632    776   1159  1    395
   632   1159    630  1    395
   630   1159    167  1    395
   167   1159    773  1    395
   773   1159    771  1    395
   771   1159    776  1    395
   771    776    769  1    395
   769    776    280  1    395
   769    280    767  1    395
   767    280    277  1    395
   767    277    274  1    395
   767    274    272  1    395
  1161   1160   1163  1    396
  1161   1163   1164  1    396
  1162   1161   1164  1    396
  1162   1164    179  1    396
  1162    179    180  1    396
  1162    180    306  1    396
  1162    306    303  1    396
  1162    303    300  1    396
  1162    300   1161  1    396
  1161    300    295  1    396
  1161    295   1160  1    396
  1160    295    788  1    396
  1160    788    289  1    396
  1160    289   1163  1    396
  1163    289    170  1    396
  1163    170    636  1    396
  1163    636    639  1    396
  1163    639   1164  1    396
  1164    639    171  1    396
  1164    171    179  1    396
   170    289    284  1    396
   284    289    286  1    396
   788    295    292  1    396
   174    177    173  1    397
   183    312    307  1    398
   183    307    182  1    398
   307    312    309  1    398
   186    189   1165  1    399
   186   1165    822  1    399
   186    822    313  1    399
   186    313    185  1    399
   822   1165   1166  1    399
   822   1166    315  1    399
   315   1166    318  1    399
   318   1166    204  1    399
   204   1166   1165  1    399
   204   1165    203  1    399
   203   1165    189  1    399
   192    201    191  1    400
  1167   1168   1169  1    401
  1169   1168   1171  1    401
  1169   1171    692  1    401
  1169    692    694  1    401
  1169    694    696  1    401
  1169    696   1167  1    401
  1167    696    207  1    401
  1167    207    321  1    401
  1167    321   1168  1    401
  1168    321    319  1    401
  1168    319   1171  1    401
  1171    319   1170  1    401
  1171   1170    688  1    401
  1171    688    690  1    401
  1171    690    692  1    401
   688   1170    206  1    401
   206   1170    319  1    401
  1175   1174   1176  1    402
  1175   1176   1177  1    402
  1175   1177    210  1    402
  1175    210    704  1    402
  1175    704   1172  1    402
  1175   1172   1174  1    402
  1174   1172    848  1    402
  1174    848    846  1    402
  1174    846   1173  1    402
  1174   1173   1176  1    402
  1176   1173    324  1    402
  1176    324    322  1    402
  1176    322    209  1    402
  1176    209   1177  1    402
  1177    209    210  1    402
   324   1173    327  1    402
   327   1173    330  1    402
   330   1173    844  1    402
   844   1173    846  1    402
   848   1172    850  1    402
   850   1172    706  1    402
   850    706    213  1    402
   706   1172    704  1    402
   216    219    215  1    403
   215    219    851  1    403
   851    219    342  1    403
   851    342    339  1    403
   851    339   1179  1    403
   851   1179    849  1    403
   849   1179    847  1    403
   847   1179   1180  1    403
   847   1180    845  1    403
   845   1180    331  1    403
   331   1180    333  1    403
   333   1180   1178  1    403
   333   1178    336  1    403
   336   1178    339  1    403
   339   1178   1179  1    403
  1179   1178   1180  1    403
   222    343    221  1    404
   710    228   1181  1    405
   710   1181   1182  1    405
   710   1182    225  1    405
   225   1182   1183  1    405
   225   1183    224  1    405
   224   1183    341  1    405
   341   1183    340  1    405
   340   1183    862  1    405
   862   1183   1182  1    405
   862   1182    864  1    405
   864   1182   1181  1    405
   864   1181    345  1    405
   345   1181    234  1    405
   234   1181    228  1    405
   872    351    870  1    406
   872    870   1184  1    406
   872   1184    346  1    406
   872    346    236  1    406
   872    236    237  1    406
   346   1184    866  1    406
   866   1184    868  1    406
   866    868    348  1    406
   868   1184    870  1    406
   240    360   1185  1    407
   240   1185    239  1    407
   239   1185    873  1    407
   873   1185    352  1    407
   352   1185    354  1    407
   354   1185   1186  1    407
   354   1186    357  1    407
   357   1186    360  1    407
   360   1186   1185  1    407
   243    369    720  1    408
   720    369   1187  1    408
   720   1187    718  1    408
   718   1187    242  1    408
   242   1187    361  1    408
   361   1187    883  1    408
   361    883    363  1    408
   363    883    366  1    408
   883   1187    369  1    408
   891    370   1189  1    409
   891   1189    893  1    409
   893   1189   1188  1    409
   893   1188    895  1    409
   895   1188    246  1    409
   246   1188    245  1    409
   245   1188    370  1    409
   370   1188   1189  1    409
  1191   1190   1193  1    410
  1190   1195   1192  1    410
  1190   1192   1193  1    410
  1195   1194   1196  1    410
  1195   1196   1197  1    410
  1192   1195   1197  1    410
  1192   1197    904  1    410
  1192    904   1193  1    410
  1193    904    375  1    410
  1193    375    900  1    410
  1193    900   1191  1    410
  1191    900    372  1    410
  1191    372    885  1    410
  1191    885    892  1    410
  1191    892   1190  1    410
  1190    892   1195  1    410
  1195    892   1194  1    410
  1194    892    894  1    410
  1194    894    258  1    410
  1194    258    429  1    410
  1194    429   1196  1    410
  1196    429   1015  1    410
  1196   1015   1197  1    410
  1197   1015    275  1    410
  1197    275    904  1    410
   904    275    276  1    410
   258    894    746  1    410
   746    894    744  1    410
   744    894    896  1    410
   744    896    742  1    410
   742    896    248  1    410
   742    248    255  1    410
   255    248    249  1    410
   255    249    252  1    410
   892    885    368  1    410
   885    372    367  1    410
   264    267    754  1    411
   754    267   1198  1    411
   754   1198    261  1    411
   261   1198    748  1    411
   748   1198    260  1    411
   260   1198    430  1    411
   430   1198    267  1    411
   270    273   1016  1    412
   270   1016    269  1    412
   269   1016    428  1    412
   279    378    278  1    413
   907    376    905  1    413
   907    905   1199  1    413
   907   1199    378  1    413
   378   1199    278  1    413
   278   1199    905  1    413
   379    281    915  1    414
   282    285    777  1    414
   777    285    915  1    414
   777    915    281  1    414
  1201   1200   1204  1    415
  1201   1204   1205  1    415
  1202   1201   1205  1    415
  1202   1205   1206  1    415
  1200   1203   1204  1    415
  1204   1203   1208  1    415
  1204   1208   1209  1    415
  1205   1204   1209  1    415
  1205   1209   1210  1    415
  1206   1205   1210  1    415
  1203   1207   1208  1    415
  1208   1207   1211  1    415
  1208   1211   1212  1    415
  1209   1208   1212  1    415
  1209   1212   1213  1    415
  1210   1209   1213  1    415
  1210   1213    929  1    415
  1210    929    384  1    415
  1210    384   1206  1    415
  1206    384    925  1    415
  1206    925   1202  1    415
  1202    925    922  1    415
  1202    922   1201  1    415
  1201    922    902  1    415
  1201    902   1200  1    415
  1200    902    374  1    415
  1200    374    909  1    415
  1200    909   1203  1    415
  1203    909   1207  1    415
  1207    909    377  1    415
  1207    377   1211  1    415
  1211    377    918  1    415
  1211    918   1212  1    415
  1212    918    287  1    415
  1212    287    288  1    415
  1212    288   1213  1    415
  1213    288    929  1    415
   902    922    381  1    415
   902    381    373  1    415
   291    387    930  1    416
   291    930    789  1    416
   789    930    290  1    416
   930    387    385  1    416
   294    396    293  1    417
   293    396    393  1    417
   293    393    388  1    417
   388    393    390  1    417
   299    402    943  1    418
   299    943    296  1    418
   296    943    941  1    418
   296    941    397  1    418
   941    943    399  1    418
   302    405    403  1    419
   302    403    301  1    419
   305    308    406  1    420
   305    406    304  1    420
  1215   1214   1217  1    421
  1215   1217   1218  1    421
  1216   1221   1222  1    421
  1217   1216   1222  1    421
  1218   1217   1222  1    421
  1218   1222   1223  1    421
  1221   1220   1226  1    421
  1222   1221   1226  1    421
  1223   1222   1226  1    421
  1224   1223   1226  1    421
  1225   1224   1226  1    421
  1220   1225   1226  1    421
  1225   1220    944  1    421
  1225    944   1219  1    421
  1225   1219    825  1    421
  1225    825   1224  1    421
  1224    825    314  1    421
  1224    314   1223  1    421
  1223    314   1218  1    421
  1218    314   1009  1    421
  1218   1009   1215  1    421
  1215   1009    325  1    421
  1215    325    963  1    421
  1215    963    961  1    421
  1215    961   1214  1    421
  1214    961    959  1    421
  1214    959   1216  1    421
  1214   1216   1217  1    421
  1216    959    957  1    421
  1216    957    408  1    421
  1216    408   1221  1    421
  1221    408    400  1    421
  1221    400   1220  1    421
  1220    400    944  1    421
   963    325    326  1    421
   825   1219    311  1    421
   311   1219    404  1    421
   311    404    310  1    421
   404   1219    401  1    421
   401   1219    944  1    421
   317    320   1227  1    422
   317   1227   1012  1    422
   317   1012    316  1    422
  1012   1227    323  1    422
   323   1227    320  1    422
  1228   1231   1232  1    423
  1229   1228   1232  1    423
  1229   1232   1233  1    423
  1230   1229   1233  1    423
  1230   1233   1234  1    423
  1232   1231   1235  1    423
  1232   1235   1233  1    423
  1233   1235    962  1    423
  1233    962    964  1    423
  1233    964   1234  1    423
  1234    964    328  1    423
  1234    328    329  1    423
  1234    329   1230  1    423
  1230    329    332  1    423
  1230    332    417  1    423
  1230    417   1229  1    423
  1229    417    414  1    423
  1229    414   1228  1    423
  1228    414    971  1    423
  1228    971   1231  1    423
  1231    971    969  1    423
  1231    969    967  1    423
  1231    967   1235  1    423
  1235    967    960  1    423
  1235    960    962  1    423
   960    967    958  1    423
   958    967    965  1    423
   958    965    409  1    423
   971    414    411  1    423
  1236   1238   1239  1    424
  1237   1236   1239  1    424
  1237   1239   1240  1    424
  1240   1239   1241  1    424
  1240   1241   1242  1    424
  1240   1242    985  1    424
  1240    985   1237  1    424
  1237    985    983  1    424
  1237    983    871  1    424
  1237    871    350  1    424
  1237    350   1236  1    424
  1236    350    353  1    424
  1236    353   1238  1    424
  1238    353    992  1    424
  1238    992   1239  1    424
  1239    992   1241  1    424
  1241    992    420  1    424
  1241    420    988  1    424
  1241    988   1242  1    424
  1242    988    412  1    424
  1242    412    985  1    424
   985    412    413  1    424
   992    353    426  1    424
   992    426    423  1    424
   871    983    869  1    424
   869    983    981  1    424
   869    981    349  1    424
   349    981    979  1    424
   349    979    335  1    424
   335    979    334  1    424
   334    979    418  1    424
   865    344    867  1    425
   865    867   1243  1    425
   865   1243    863  1    425
   863   1243    338  1    425
   338   1243    337  1    425
   337   1243    347  1    425
   347   1243    867  1    425
   356    427    355  1    426
   359    362    382  1    427
   359    382    358  1    427
   358    382    924  1    427
   358    924    425  1    427
   425    924    927  1    427
   425    927    424  1    427
   424    927    383  1    427
   424    383    389  1    427
   389    383    386  1    427
   365    371    364  1    428
   364    371    380  1    428
  1001    421   1244  1    429
  1001   1244    391  1    429
  1001    391    392  1    429
   391   1244    422  1    429
   422   1244    993  1    429
   993   1244    421  1    429
  1245   1248   1249  1    430
  1246   1245   1249  1    430
  1246   1249   1250  1    430
  1248   1247   1252  1    430
  1248   1252   1253  1    430
  1249   1248   1253  1    430
  1249   1253   1254  1    430
  1250   1249   1254  1    430
  1250   1254   1255  1    430
  1247   1256   1251  1    430
  1247   1251   1252  1    430
  1252   1251   1257  1    430
  1252   1257   1258  1    430
  1253   1252   1258  1    430
  1253   1258   1259  1    430
  1254   1253   1259  1    430
  1254   1259   1260  1    430
  1255   1254   1260  1    430
  1257   1256   1261  1    430
  1251   1256   1257  1    430
  1258   1257   1262  1    430
  1258   1262   1263  1    430
  1259   1258   1263  1    430
  1260   1259   1263  1    430
  1257   1261   1262  1    430
  1262   1261    942  1    430
  1262    942    398  1    430
  1262    398   1263  1    430
  1263    398    407  1    430
  1263    407   1260  1    430
  1260    407    966  1    430
  1260    966   1255  1    430
  1255    966    968  1    430
  1255    968    970  1    430
  1255    970   1250  1    430
  1250    970    972  1    430
  1250    972   1246  1    430
  1246    972    410  1    430
  1246    410    990  1    430
  1246    990   1245  1    430
  1245    990    419  1    430
  1245    419   1248  1    430
  1248    419   1247  1    430
  1247    419   1003  1    430
  1247   1003    394  1    430
  1247    394   1256  1    430
  1256    394    395  1    430
  1256    395   1261  1    430
  1261    395    942  1    430
  1264   1265   1266  1    431
  1264   1266    982  1    431
  1264    982    984  1    431
  1264    984   1265  1    431
  1265    984    986  1    431
  1265    986    415  1    431
  1265    415   1266  1    431
  1266    415    416  1    431
  1266    416    980  1    431
  1266    980    982  1    431
  1267   1268   1269  1    432
  1267   1269   1038  1    432
  1267   1038    432  1    432
  1267    432   1030  1    432
  1267   1030   1268  1    432
  1268   1030   1032  1    432
  1268   1032   1034  1    432
  1268   1034   1269  1    432
  1269   1034   1036  1    432
  1269   1036   1038  1    432
