# MSMS solvent excluded surface faces for fragments/fragment114.xyzr
#faces  #sphere density probe_r
   1814      39  3.00  1.50
     1    274    273  3      3
   273    274    275  3      3
   273    275      2  3      3
     2    275    276  3      3
   274    277    275  3      3
   275    277    278  3      3
   275    278    276  3      3
   276    278    279  3      3
   277    280    278  3      3
   278    280    281  3      3
   278    281    279  3      3
   279    281    282  3      3
   280    283    281  3      3
   281    283    284  3      3
   281    284    282  3      3
   282    284    285  3      3
   283    286    284  3      3
   284    286    287  3      3
   284    287    285  3      3
   285    287    288  3      3
   286      5    287  3      3
   287      5    289  3      3
   287    289    288  3      3
   288    289      4  3      3
     5    291    290  3      4
   290    291    292  3      4
   290    292      6  3      4
     6    292    293  3      4
   291    294    292  3      4
   292    294    295  3      4
   292    295    293  3      4
   293    295    296  3      4
   294    297    295  3      4
   295    297    298  3      4
   295    298    296  3      4
   296    298    299  3      4
   297      1    298  3      4
   298      1    300  3      4
   298    300    299  3      4
   299    300      3  3      4
     6      8    301  3      6
   301      8    302  3      6
   301    302      4  3      6
     4    302      7  3      6
     8    303      9  3      8
     9    303    304  3      8
   303     11    304  3      8
   304     11     10  3      8
    11    305     12  3     10
    12    305    306  3     10
   305    307    306  3     10
   306    307    308  3     10
   307    309    308  3     10
   308    309    310  3     10
   309    311    310  3     10
   310    311    312  3     10
   311    313    312  3     10
   312    313    314  3     10
   313    315    314  3     10
   314    315    316  3     10
   315    317    316  3     10
   316    317    318  3     10
   317    319    318  3     10
   318    319    320  3     10
   319     14    320  3     10
   320     14     13  3     10
    14    321     15  3     12
    15    321    322  3     12
   321     17    322  3     12
   322     17     16  3     12
    17      3    323  3     13
   323      3    324  3     13
   323    324     18  3     13
    18    324      2  3     13
    18     20     16  3     15
    16     20     19  3     15
    20    325     21  3     17
    21    325    326  3     17
   325    327    326  3     17
   326    327    328  3     17
   327    329    328  3     17
   328    329    330  3     17
   329     23    330  3     17
   330     23     22  3     17
    23    331     24  3     19
    24    331    332  3     19
   331    333    332  3     19
   332    333    334  3     19
   333    335    334  3     19
   334    335    336  3     19
   335    337    336  3     19
   336    337    338  3     19
   337    339    338  3     19
   338    339    340  3     19
   339     26    340  3     19
   340     26     25  3     19
    26    341     27  3     21
    27    341    342  3     21
   341    343    342  3     21
   342    343    344  3     21
   343    345    344  3     21
   344    345    346  3     21
   345     29    346  3     21
   346     29     28  3     21
    29      7     30  3     22
    30      7      9  3     22
    30    347     28  3     24
    28    347    348  3     24
   347    349    348  3     24
   348    349    350  3     24
   349     32    350  3     24
   350     32     31  3     24
    32    351     33  3     26
    33    351    352  3     26
   351     35    352  3     26
   352     35     34  3     26
    35     10     36  3     27
    36     10     12  3     27
    36     38     34  3     29
    34     38     37  3     29
    38     41    353  3     31
   353     41    354  3     31
   353    354     39  3     31
    39    354     40  3     31
    41     44    355  3     33
   355     44    356  3     33
   355    356     42  3     33
    42    356     43  3     33
    44     47    357  3     35
   357     47    358  3     35
   357    358     45  3     35
    45    358     46  3     35
    47     50    359  3     37
   359     50    361  3     37
   359    361    360  3     37
   360    361    362  3     37
   360    362     48  3     37
    48    362     49  3     37
    50    366    363  3     39
   363    366    367  3     39
   363    367    364  3     39
   364    367    368  3     39
   364    368    365  3     39
   365    368    369  3     39
   365    369     51  3     39
    51    369    370  3     39
   366    371    367  3     39
   367    371    372  3     39
   367    372    368  3     39
   368    372    373  3     39
   368    373    369  3     39
   369    373    374  3     39
   369    374    370  3     39
   370    374    375  3     39
   371    376    372  3     39
   372    376    377  3     39
   372    377    373  3     39
   373    377    378  3     39
   373    378    374  3     39
   374    378    379  3     39
   374    379    375  3     39
   375    379    380  3     39
   376     53    377  3     39
   377     53    381  3     39
   377    381    378  3     39
   378    381    382  3     39
   378    382    379  3     39
   379    382    383  3     39
   379    383    380  3     39
   380    383     52  3     39
    53     56     54  3     41
    54     56     55  3     41
    56     59    384  3     43
   384     59    386  3     43
   384    386    385  3     43
   385    386    387  3     43
   385    387     57  3     43
    57    387     58  3     43
    59     62    388  3     45
   388     62    390  3     45
   388    390    389  3     45
   389    390    391  3     45
   389    391     60  3     45
    60    391     61  3     45
    62     65    392  3     47
   392     65    393  3     47
   392    393     63  3     47
    63    393     64  3     47
    65     68     66  3     49
    66     68     67  3     49
    68     71     69  3     51
    69     71     70  3     51
    71     13     72  3     52
    72     13     15  3     52
    72    394     70  3     54
    70    394    395  3     54
   394     74    395  3     54
   395     74     73  3     54
    74     77    396  3     56
   396     77    397  3     56
   396    397     75  3     56
    75    397     76  3     56
    77    398     78  3     57
    78    398    399  3     57
   398    400    399  3     57
   399    400    401  3     57
   400     19    401  3     57
   401     19     21  3     57
    78     80     76  3     59
    76     80     79  3     59
    80    402     81  3     61
    81    402    403  3     61
   402     83    403  3     61
   403     83     82  3     61
    83     22     84  3     62
    84     22     24  3     62
    84    405    404  3     64
   404    405    406  3     64
   404    406     82  3     64
    82    406    407  3     64
   405    408    406  3     64
   406    408    409  3     64
   406    409    407  3     64
   407    409    410  3     64
   408     86    409  3     64
   409     86    411  3     64
   409    411    410  3     64
   410    411     85  3     64
    86     25     87  3     65
    87     25     27  3     65
    87    412     85  3     67
    85    412    413  3     67
   412     89    413  3     67
   413     89     88  3     67
    89     92     90  3     69
    90     92     91  3     69
    92     31     93  3     70
    93     31     33  3     70
    93     95     91  3     72
    91     95     94  3     72
    95     98    414  3     74
   414     98    415  3     74
   414    415     96  3     74
    96    415     97  3     74
    98     37    416  3     75
   416     37    417  3     75
   416    417     99  3     75
    99    417     39  3     75
    99    418     97  3     77
    97    418    419  3     77
   418    420    419  3     77
   419    420    421  3     77
   420    101    421  3     77
   421    101    100  3     77
   101    423    422  3     79
   422    423    424  3     79
   422    424    102  3     79
   102    424    425  3     79
   423    104    424  3     79
   424    104    426  3     79
   424    426    425  3     79
   425    426    103  3     79
   104    427    105  3     81
   105    427    428  3     81
   427    429    428  3     81
   428    429    430  3     81
   429    107    430  3     81
   430    107    106  3     81
   107    432    431  3     83
   431    432    433  3     83
   431    433    108  3     83
   108    433    434  3     83
   432    435    433  3     83
   433    435    436  3     83
   433    436    434  3     83
   434    436    437  3     83
   435    110    436  3     83
   436    110    438  3     83
   436    438    437  3     83
   437    438    109  3     83
   110    439    111  3     84
   111    439    440  3     84
   439     40    440  3     84
   440     40     42  3     84
   111    441    109  3     86
   109    441    442  3     86
   441    443    442  3     86
   442    443    444  3     86
   443    113    444  3     86
   444    113    112  3     86
   113    116    114  3     88
   114    116    115  3     88
   116    119    445  3     90
   445    119    447  3     90
   445    447    446  3     90
   446    447    448  3     90
   446    448    117  3     90
   117    448    118  3     90
   119    449    120  3     91
   120    449    450  3     91
   449     43    450  3     91
   450     43     45  3     91
   120    122    451  3     93
   451    122    454  3     93
   451    454    452  3     93
   452    454    455  3     93
   452    455    453  3     93
   453    455    456  3     93
   453    456    118  3     93
   118    456    121  3     93
   122    125    457  3     95
   457    125    459  3     95
   457    459    458  3     95
   458    459    460  3     95
   458    460    123  3     95
   123    460    124  3     95
   125     46    461  3     96
   461     46    462  3     96
   461    462    126  3     96
   126    462     48  3     96
   126    128    124  3     98
   124    128    127  3     98
   128     49    463  3     99
   463     49    464  3     99
   463    464    129  3     99
   129    464     51  3     99
   129    131    127  3    101
   127    131    130  3    101
   131    134    465  3    103
   465    134    467  3    103
   465    467    466  3    103
   466    467    468  3    103
   466    468    132  3    103
   132    468    133  3    103
   134    137    469  3    105
   469    137    471  3    105
   469    471    470  3    105
   470    471    472  3    105
   470    472    135  3    105
   135    472    136  3    105
   137    475    473  3    107
   473    475    476  3    107
   473    476    474  3    107
   474    476    477  3    107
   474    477    138  3    107
   138    477    478  3    107
   475    479    476  3    107
   476    479    480  3    107
   476    480    477  3    107
   477    480    481  3    107
   477    481    478  3    107
   478    481    482  3    107
   479    140    480  3    107
   480    140    483  3    107
   480    483    481  3    107
   481    483    484  3    107
   481    484    482  3    107
   482    484    139  3    107
   140    486    485  3    109
   485    486    487  3    109
   485    487    141  3    109
   141    487    488  3    109
   486    143    487  3    109
   487    143    489  3    109
   487    489    488  3    109
   488    489    142  3    109
   143    146    144  3    111
   144    146    145  3    111
   146     52    490  3    112
   490     52    492  3    112
   490    492    491  3    112
   491    492    493  3    112
   491    493    147  3    112
   147    493     54  3    112
   147     55    494  3    113
   494     55    496  3    113
   494    496    495  3    113
   495    496    497  3    113
   495    497    145  3    113
   145    497     57  3    113
   144    149    142  3    115
   142    149    148  3    115
   149     58    498  3    116
   498     58    499  3    116
   498    499    150  3    116
   150    499     60  3    116
   150    152    500  3    118
   500    152    501  3    118
   500    501    148  3    118
   148    501    151  3    118
   152    503    502  3    120
   502    503    504  3    120
   502    504    153  3    120
   153    504    505  3    120
   503    506    504  3    120
   504    506    507  3    120
   504    507    505  3    120
   505    507    508  3    120
   506    509    507  3    120
   507    509    510  3    120
   507    510    508  3    120
   508    510    511  3    120
   509    155    510  3    120
   510    155    512  3    120
   510    512    511  3    120
   511    512    154  3    120
   155    158    513  3    122
   513    158    514  3    122
   513    514    156  3    122
   156    514    157  3    122
   158    161    515  3    124
   515    161    518  3    124
   515    518    516  3    124
   516    518    519  3    124
   516    519    517  3    124
   517    519    520  3    124
   517    520    159  3    124
   159    520    160  3    124
   161    521    162  3    126
   162    521    522  3    126
   521    164    522  3    126
   522    164    163  3    126
   164    167    523  3    128
   523    167    524  3    128
   523    524    165  3    128
   165    524    166  3    128
   167    170    168  3    130
   168    170    169  3    130
   170    173    171  3    132
   171    173    172  3    132
   173    525    174  3    134
   174    525    526  3    134
   525    527    526  3    134
   526    527    528  3    134
   527    176    528  3    134
   528    176    175  3    134
   176    529    177  3    135
   177    529    530  3    135
   529     61    530  3    135
   530     61     63  3    135
   177    179    175  3    137
   175    179    178  3    137
   179    531    180  3    138
   180    531    532  3    138
   531     64    532  3    138
   532     64     66  3    138
   180    533    178  3    140
   178    533    534  3    140
   533    182    534  3    140
   534    182    181  3    140
   182    185    183  3    142
   183    185    184  3    142
   185    535    186  3    144
   186    535    536  3    144
   535    188    536  3    144
   536    188    187  3    144
   188    537    189  3    145
   189    537    538  3    145
   537     67    538  3    145
   538     67     69  3    145
   189    191    539  3    147
   539    191    540  3    147
   539    540    187  3    147
   187    540    190  3    147
   191    194    192  3    149
   192    194    193  3    149
   194     73    195  3    150
   195     73     75  3    150
   195    541    193  3    152
   193    541    542  3    152
   541    543    542  3    152
   542    543    544  3    152
   543    545    544  3    152
   544    545    546  3    152
   545    547    546  3    152
   546    547    548  3    152
   547    549    548  3    152
   548    549    550  3    152
   549    551    550  3    152
   550    551    552  3    152
   551    553    552  3    152
   552    553    554  3    152
   553    197    554  3    152
   554    197    196  3    152
   197     94    555  3    153
   555     94    557  3    153
   555    557    556  3    153
   556    557    558  3    153
   556    558    198  3    153
   198    558     96  3    153
   198    100    559  3    154
   559    100    560  3    154
   559    560    196  3    154
   196    560    102  3    154
   192    562    561  3    156
   561    562    563  3    156
   561    563    190  3    156
   190    563    564  3    156
   562    200    563  3    156
   563    200    565  3    156
   563    565    564  3    156
   564    565    199  3    156
   200    203    566  3    158
   566    203    567  3    158
   566    567    201  3    158
   201    567    202  3    158
   203    103    568  3    159
   568    103    570  3    159
   568    570    569  3    159
   569    570    571  3    159
   569    571    204  3    159
   204    571    105  3    159
   204    206    202  3    161
   202    206    205  3    161
   206    184    572  3    162
   572    184    573  3    162
   572    573    207  3    162
   207    573    186  3    162
   207    199    205  3    163
   205    199    201  3    163
   183    209    574  3    165
   574    209    575  3    165
   574    575    181  3    165
   181    575    208  3    165
   209    576    210  3    167
   210    576    577  3    167
   576    578    577  3    167
   577    578    579  3    167
   578    580    579  3    167
   579    580    581  3    167
   580    212    581  3    167
   581    212    211  3    167
   212    106    582  3    168
   582    106    583  3    168
   582    583    213  3    168
   213    583    108  3    168
   213    215    584  3    170
   584    215    585  3    170
   584    585    211  3    170
   211    585    214  3    170
   215    586    216  3    171
   216    586    587  3    171
   586    588    587  3    171
   587    588    589  3    171
   588    590    589  3    171
   589    590    591  3    171
   590    112    591  3    171
   591    112    114  3    171
   216    593    592  3    173
   592    593    594  3    173
   592    594    214  3    173
   214    594    595  3    173
   593    218    594  3    173
   594    218    596  3    173
   594    596    595  3    173
   595    596    217  3    173
   218    221    597  3    175
   597    221    598  3    175
   597    598    219  3    175
   219    598    220  3    175
   221    166    599  3    176
   599    166    600  3    176
   599    600    222  3    176
   222    600    168  3    176
   222    169    220  3    177
   220    169    171  3    177
   219    602    601  3    179
   601    602    603  3    179
   601    603    217  3    179
   217    603    604  3    179
   602    224    603  3    179
   603    224    605  3    179
   603    605    604  3    179
   604    605    223  3    179
   224    606    225  3    180
   225    606    607  3    180
   606    172    607  3    180
   607    172    174  3    180
   225    208    608  3    181
   608    208    609  3    181
   608    609    223  3    181
   223    609    210  3    181
   165    227    610  3    183
   610    227    612  3    183
   610    612    611  3    183
   611    612    613  3    183
   611    613    163  3    183
   163    613    226  3    183
   227    230    614  3    185
   614    230    615  3    185
   614    615    228  3    185
   228    615    229  3    185
   230    115    616  3    186
   616    115    619  3    186
   616    619    617  3    186
   617    619    620  3    186
   617    620    618  3    186
   618    620    621  3    186
   618    621    231  3    186
   231    621    117  3    186
   231    233    622  3    188
   622    233    623  3    188
   622    623    229  3    188
   229    623    232  3    188
   233    236    624  3    190
   624    236    625  3    190
   624    625    234  3    190
   234    625    235  3    190
   236    239    626  3    192
   626    239    627  3    192
   626    627    237  3    192
   237    627    238  3    192
   239    242    240  3    194
   240    242    241  3    194
   242    629    628  3    196
   628    629    630  3    196
   628    630    243  3    196
   243    630    631  3    196
   629    632    630  3    196
   630    632    633  3    196
   630    633    631  3    196
   631    633    634  3    196
   632    245    633  3    196
   633    245    635  3    196
   633    635    634  3    196
   634    635    244  3    196
   245    121    246  3    197
   246    121    123  3    197
   246    130    636  3    198
   636    130    638  3    198
   636    638    637  3    198
   637    638    639  3    198
   637    639    244  3    198
   244    639    132  3    198
   243    248    241  3    200
   241    248    247  3    200
   248    641    640  3    202
   640    641    642  3    202
   640    642    249  3    202
   249    642    643  3    202
   641    644    642  3    202
   642    644    645  3    202
   642    645    643  3    202
   643    645    646  3    202
   644    251    645  3    202
   645    251    647  3    202
   645    647    646  3    202
   646    647    250  3    202
   251    648    252  3    204
   252    648    649  3    204
   648    254    649  3    204
   649    254    253  3    204
   254    651    650  3    206
   650    651    652  3    206
   650    652    255  3    206
   255    652    653  3    206
   651    257    652  3    206
   652    257    654  3    206
   652    654    653  3    206
   653    654    256  3    206
   257    133    258  3    207
   258    133    135  3    207
   258    136    256  3    208
   256    136    138  3    208
   255    655    253  3    210
   253    655    656  3    210
   655    260    656  3    210
   656    260    259  3    210
   260    658    657  3    212
   657    658    659  3    212
   657    659    261  3    212
   261    659    660  3    212
   658    263    659  3    212
   659    263    661  3    212
   659    661    660  3    212
   660    661    262  3    212
   263    266    264  3    214
   264    266    265  3    214
   266    664    662  3    215
   662    664    665  3    215
   662    665    663  3    215
   663    665    666  3    215
   663    666    267  3    215
   267    666    667  3    215
   664    139    665  3    215
   665    139    668  3    215
   665    668    666  3    215
   666    668    669  3    215
   666    669    667  3    215
   667    669    141  3    215
   267    269    670  3    217
   670    269    672  3    217
   670    672    671  3    217
   671    672    673  3    217
   671    673    265  3    217
   265    673    268  3    217
   269    157    674  3    218
   674    157    676  3    218
   674    676    675  3    218
   675    676    677  3    218
   675    677    270  3    218
   270    677    159  3    218
   270    262    268  3    219
   268    262    264  3    219
   261    678    259  3    220
   259    678    679  3    220
   678    250    679  3    220
   679    250    252  3    220
   249    238    247  3    221
   247    238    240  3    221
   237    160    680  3    222
   680    160    683  3    222
   680    683    681  3    222
   681    683    684  3    222
   681    684    682  3    222
   682    684    685  3    222
   682    685    235  3    222
   235    685    162  3    222
   234    226    232  3    223
   232    226    228  3    223
   156    687    686  3    224
   686    687    688  3    224
   686    688    154  3    224
   154    688    689  3    224
   687    151    688  3    224
   688    151    690  3    224
   688    690    689  3    224
   689    690    153  3    224
    90    691     88  3    225
    88    691    692  3    225
   691    693    692  3    225
   692    693    694  3    225
   693    695    694  3    225
   694    695    696  3    225
   695    697    696  3    225
   696    697    698  3    225
   697    699    698  3    225
   698    699    700  3    225
   699    701    700  3    225
   700    701    702  3    225
   701    703    702  3    225
   702    703    704  3    225
   703     79    704  3    225
   704     79     81  3    225
   271    705    272  3    226
   272    705    706  3    226
   705    707    706  3    226
   706    707    708  3    226
   707    709    708  3    226
   708    709    710  3    226
   709    711    710  3    226
   710    711    712  3    226
   711    713    712  3    226
   712    713    714  3    226
   713    271    714  3    226
   714    271    272  3    226
   300      1    273  2      1
   300    273    324  2      1
   300    324      3  2      1
   324    273      2  2      1
   301      4    289  2      2
   301    289    290  2      2
   301    290      6  2      2
   290    289      5  2      2
     9      7    302  2      5
     9    302      8  2      5
    12     10     11  2      7
    15     13     14  2      9
    18     16    323  2     11
   323     16     17  2     11
    21     19     20  2     14
    24     22     23  2     16
    27     25     26  2     18
    30     28     29  2     20
    33     31     32  2     23
    36     34     35  2     25
   417     37    353  2     28
   417    353     39  2     28
   353     37     38  2     28
    42     40    355  2     30
   355     40    354  2     30
   355    354     41  2     30
    45     43    357  2     32
   357     43    356  2     32
   357    356     44  2     32
   462     46    358  2     34
   462    358    360  2     34
   462    360     48  2     34
   360    358    359  2     34
   359    358     47  2     34
   464     49    715  2     36
   464    715    365  2     36
   464    365     51  2     36
   365    715    364  2     36
   364    715    362  2     36
   364    362    363  2     36
   363    362    361  2     36
   363    361     50  2     36
   362    715     49  2     36
   492     52    383  2     38
   492    383    382  2     38
   492    382    493  2     38
   493    382    381  2     38
   493    381     54  2     38
    54    381     53  2     38
   496     55    384  2     40
   496    384    385  2     40
   496    385    497  2     40
   497    385     57  2     40
   384     55     56  2     40
   499     58    387  2     42
   499    387    389  2     42
   499    389     60  2     42
   389    387    386  2     42
   389    386    388  2     42
   388    386     59  2     42
    63     61    391  2     44
    63    391    392  2     44
   392    391    390  2     44
   392    390     62  2     44
    66     64    393  2     46
    66    393     65  2     46
    69     67     68  2     48
    72     70     71  2     50
    75     73    396  2     53
   396     73     74  2     53
    78     76    397  2     55
    78    397     77  2     55
    81     79     80  2     58
   404     82     83  2     60
   404     83     84  2     60
    87     85    411  2     63
    87    411     86  2     63
    90     88     89  2     66
    93     91     92  2     68
   557     94     95  2     71
   557     95    558  2     71
   558     95    414  2     71
   558    414     96  2     71
    99     97    416  2     73
   416     97    415  2     73
   416    415     98  2     73
   560    100    422  2     76
   560    422    102  2     76
   422    100    101  2     76
   570    103    426  2     78
   570    426    571  2     78
   571    426    104  2     78
   571    104    105  2     78
   583    106    107  2     80
   583    107    431  2     80
   583    431    108  2     80
   111    109    438  2     82
   111    438    110  2     82
   114    112    113  2     85
   619    115    116  2     87
   619    116    445  2     87
   619    445    620  2     87
   620    445    446  2     87
   620    446    621  2     87
   621    446    117  2     87
   453    118    448  2     89
   453    448    452  2     89
   452    448    447  2     89
   452    447    451  2     89
   451    447    119  2     89
   451    119    120  2     89
   123    121    456  2     92
   123    456    458  2     92
   458    456    455  2     92
   458    455    457  2     92
   457    455    454  2     92
   457    454    122  2     92
   126    124    460  2     94
   126    460    459  2     94
   126    459    461  2     94
   461    459    125  2     94
   129    127    463  2     97
   463    127    128  2     97
   638    130    465  2    100
   638    465    466  2    100
   638    466    639  2    100
   639    466    132  2    100
   465    130    131  2    100
   135    133    468  2    102
   135    468    470  2    102
   470    468    467  2    102
   470    467    469  2    102
   469    467    134  2    102
   138    136    474  2    104
   474    136    472  2    104
   474    472    473  2    104
   473    472    471  2    104
   473    471    137  2    104
   668    139    484  2    106
   668    484    716  2    106
   668    716    669  2    106
   669    716    141  2    106
   141    716    485  2    106
   485    716    483  2    106
   485    483    140  2    106
   483    716    484  2    106
   144    142    489  2    108
   144    489    143  2    108
   495    145    490  2    110
   495    490    491  2    110
   495    491    494  2    110
   494    491    147  2    110
   490    145    146  2    110
   500    148    149  2    114
   500    149    498  2    114
   500    498    150  2    114
   690    151    501  2    117
   690    501    152  2    117
   690    152    502  2    117
   690    502    153  2    117
   686    154    512  2    119
   686    512    155  2    119
   686    155    513  2    119
   686    513    156  2    119
   676    157    717  2    121
   676    717    718  2    121
   676    718    677  2    121
   677    718    516  2    121
   677    516    517  2    121
   677    517    159  2    121
   516    718    515  2    121
   515    718    717  2    121
   515    717    158  2    121
   158    717    514  2    121
   514    717    157  2    121
   683    160    520  2    123
   683    520    684  2    123
   684    520    519  2    123
   684    519    685  2    123
   685    519    518  2    123
   685    518    162  2    123
   162    518    161  2    123
   611    163    164  2    125
   611    164    523  2    125
   611    523    610  2    125
   610    523    165  2    125
   600    166    524  2    127
   600    524    168  2    127
   168    524    167  2    127
   171    169    170  2    129
   174    172    173  2    131
   177    175    176  2    133
   180    178    179  2    136
   574    181    719  2    139
   574    719    183  2    139
   183    719    182  2    139
   182    719    181  2    139
   573    184    185  2    141
   573    185    186  2    141
   539    187    188  2    143
   539    188    189  2    143
   561    190    540  2    146
   561    540    191  2    146
   561    191    192  2    146
   195    193    194  2    148
   559    196    555  2    151
   559    555    556  2    151
   559    556    198  2    151
   555    196    197  2    151
   201    199    565  2    155
   201    565    566  2    155
   566    565    200  2    155
   204    202    569  2    157
   569    202    568  2    157
   568    202    567  2    157
   568    567    203  2    157
   207    205    572  2    160
   572    205    206  2    160
   609    208    575  2    164
   609    575    210  2    164
   210    575    209  2    164
   584    211    582  2    166
   584    582    213  2    166
   582    211    212  2    166
   592    214    585  2    169
   592    585    216  2    169
   216    585    215  2    169
   601    217    596  2    172
   601    596    597  2    172
   601    597    219  2    172
   597    596    218  2    172
   222    220    598  2    174
   222    598    599  2    174
   599    598    221  2    174
   608    223    605  2    178
   608    605    225  2    178
   225    605    224  2    178
   228    226    613  2    182
   228    613    614  2    182
   614    613    612  2    182
   614    612    227  2    182
   622    229    618  2    184
   622    618    231  2    184
   618    229    617  2    184
   617    229    615  2    184
   617    615    616  2    184
   616    615    230  2    184
   234    232    624  2    187
   624    232    623  2    187
   624    623    233  2    187
   682    235    625  2    189
   682    625    681  2    189
   681    625    236  2    189
   681    236    626  2    189
   681    626    680  2    189
   680    626    237  2    189
   240    238    627  2    191
   240    627    239  2    191
   243    241    628  2    193
   628    241    242  2    193
   637    244    635  2    195
   637    635    245  2    195
   637    245    636  2    195
   636    245    246  2    195
   249    247    640  2    199
   640    247    248  2    199
   252    250    647  2    201
   252    647    251  2    201
   255    253    650  2    203
   650    253    254  2    203
   258    256    654  2    205
   258    654    257  2    205
   261    259    657  2    209
   657    259    260  2    209
   264    262    661  2    211
   264    661    263  2    211
   671    265    662  2    213
   671    662    663  2    213
   671    663    670  2    213
   670    663    267  2    213
   662    265    266  2    213
   270    268    675  2    216
   675    268    673  2    216
   675    673    674  2    216
   674    673    672  2    216
   674    672    269  2    216
   291      5    286  1    227
   291    286    720  1    227
   291    720    294  1    227
   294    720    722  1    227
   294    722    297  1    227
   297    722    723  1    227
   297    723      1  1    227
     1    723    274  1    227
   274    723    277  1    227
   277    723    722  1    227
   277    722    721  1    227
   277    721    280  1    227
   280    721    283  1    227
   283    721    720  1    227
   283    720    286  1    227
   720    721    722  1    227
   725    724    727  1    228
   730    729    734  1    228
   731    730    734  1    228
   732    731    734  1    228
   732    734    279  1    228
   732    279    733  1    228
   732    733    333  1    228
   732    333    731  1    228
   731    333    331  1    228
   731    331    329  1    228
   731    329    327  1    228
   731    327    730  1    228
   730    327    325  1    228
   730    325    729  1    228
   729    325     20  1    228
   729     20     18  1    228
   729     18      2  1    228
   729      2    276  1    228
   729    276    734  1    228
   734    276    279  1    228
   329    331     23  1    228
   333    733    335  1    228
   335    733    282  1    228
   335    282    728  1    228
   335    728    337  1    228
   337    728    727  1    228
   337    727    724  1    228
   337    724    339  1    228
   339    724    341  1    228
   339    341     26  1    228
   341    724    343  1    228
   343    724    725  1    228
   343    725    345  1    228
   345    725    726  1    228
   345    726     29  1    228
    29    726      7  1    228
     7    726      4  1    228
     4    726    288  1    228
   288    726    727  1    228
   288    727    285  1    228
   285    727    728  1    228
   285    728    282  1    228
   727    726    725  1    228
   282    733    279  1    228
   735    736    737  1    229
   737    736    738  1    229
   737    738    739  1    229
   737    739    311  1    229
   737    311    309  1    229
   737    309    735  1    229
   735    309    307  1    229
   735    307    305  1    229
   735    305    303  1    229
   735    303      8  1    229
   735      8      6  1    229
   735      6    736  1    229
   736      6    293  1    229
   736    293    738  1    229
   738    293    296  1    229
   738    296    740  1    229
   738    740    739  1    229
   739    740    313  1    229
   739    313    311  1    229
   313    740    315  1    229
   315    740    741  1    229
   315    741    317  1    229
   317    741    319  1    229
   319    741    742  1    229
   319    742    321  1    229
   319    321     14  1    229
   321    742     17  1    229
    17    742      3  1    229
     3    742    299  1    229
   299    742    741  1    229
   299    741    740  1    229
   299    740    296  1    229
   303    305     11  1    229
    10     35    743  1    230
    10    743    304  1    230
   304    743    347  1    230
   304    347     30  1    230
   304     30      9  1    230
   347    743    349  1    230
   349    743    351  1    230
   349    351     32  1    230
   351    743     35  1    230
   745    749    750  1    231
   746    745    750  1    231
   747    746    750  1    231
   747    750    320  1    231
   747    320     13  1    231
   747     13     71  1    231
   747     71     68  1    231
   747     68     65  1    231
   747     65    746  1    231
   746     65    745  1    231
   745     65     62  1    231
   745     62     59  1    231
   745     59     56  1    231
   745     56    749  1    231
   749     56    748  1    231
   749    748    316  1    231
   749    316    318  1    231
   749    318    750  1    231
   750    318    320  1    231
   316    748    314  1    231
   314    748    376  1    231
   314    376    312  1    231
   312    376    371  1    231
   312    371    310  1    231
   310    371    366  1    231
   310    366    308  1    231
   308    366    306  1    231
   306    366    744  1    231
   306    744     12  1    231
    12    744     44  1    231
    12     44     36  1    231
    36     44     41  1    231
    36     41     38  1    231
    44    744     47  1    231
    47    744     50  1    231
    50    744    366  1    231
   376    748     53  1    231
    53    748     56  1    231
    77     74    398  1    232
    16     19    322  1    232
   322     19    400  1    232
   322    400    751  1    232
   322    751     15  1    232
    15    751     72  1    232
    72    751    394  1    232
   394    751    398  1    232
   394    398     74  1    232
   398    751    400  1    232
    22     83    402  1    233
    22    402    330  1    233
   330    402    753  1    233
   330    753    328  1    233
   328    753    752  1    233
   328    752    326  1    233
   326    752    401  1    233
   326    401     21  1    233
   401    752    399  1    233
   399    752     78  1    233
    78    752     80  1    233
    80    752    753  1    233
    80    753    402  1    233
   754    756    757  1    234
   755    754    757  1    234
   755    757    758  1    234
   755    758    338  1    234
   755    338    340  1    234
   755    340     25  1    234
   755     25     86  1    234
   755     86    408  1    234
   755    408    754  1    234
   754    408    405  1    234
   754    405    756  1    234
   756    405     84  1    234
   756     84     24  1    234
   756     24    332  1    234
   756    332    334  1    234
   756    334    757  1    234
   757    334    336  1    234
   757    336    758  1    234
   758    336    338  1    234
   350     31    759  1    235
   350    759    760  1    235
   350    760    348  1    235
   348    760    346  1    235
   348    346     28  1    235
   346    760    344  1    235
   344    760    759  1    235
   344    759     89  1    235
   344     89    412  1    235
   344    412    342  1    235
   342    412     27  1    235
    27    412     87  1    235
    89    759     92  1    235
    92    759     31  1    235
    34     37     98  1    236
    34     98    352  1    236
   352     98     95  1    236
   352     95     33  1    236
    33     95     93  1    236
   439    110    418  1    237
   439    418     99  1    237
   439     99     39  1    237
   439     39     40  1    237
   418    110    435  1    237
   418    435    420  1    237
   420    435    432  1    237
   420    432    429  1    237
   420    429    101  1    237
   101    429    427  1    237
   101    427    423  1    237
   423    427    104  1    237
   429    432    107  1    237
   449    119    443  1    238
   449    443    441  1    238
   449    441     43  1    238
    43    441    440  1    238
    43    440     42  1    238
   440    441    111  1    238
   443    119    113  1    238
   113    119    116  1    238
    46    125    450  1    239
    46    450     45  1    239
   450    125    122  1    239
   450    122    120  1    239
    48     49    126  1    240
    49    128    126  1    240
   761    763    764  1    241
   762    761    764  1    241
   763    765    766  1    241
   764    763    766  1    241
   764    766    767  1    241
   766    765    769  1    241
   766    769    770  1    241
   767    766    770  1    241
   769    768    773  1    241
   770    769    773  1    241
   771    770    773  1    241
   768    772    773  1    241
   773    772    486  1    241
   773    486    771  1    241
   771    486    140  1    241
   771    140    479  1    241
   771    479    767  1    241
   771    767    770  1    241
   767    479    475  1    241
   767    475    764  1    241
   764    475    137  1    241
   764    137    134  1    241
   764    134    762  1    241
   762    134    131  1    241
   762    131    761  1    241
   761    131    129  1    241
   761    129     51  1    241
   761     51    370  1    241
   761    370    763  1    241
   763    370    375  1    241
   763    375    765  1    241
   765    375    769  1    241
   769    375    380  1    241
   769    380    768  1    241
   768    380     52  1    241
   768     52    772  1    241
   772     52    143  1    241
   772    143    486  1    241
   143     52    146  1    241
    55    147     54  1    242
    58    149     57  1    243
    57    149    144  1    243
    57    144    145  1    243
   774    775    776  1    244
   774    776    777  1    244
   774    777    173  1    244
   774    173    170  1    244
   774    170    521  1    244
   774    521    775  1    244
   775    521    161  1    244
   775    161    158  1    244
   775    158    155  1    244
   775    155    776  1    244
   776    155    509  1    244
   776    509    777  1    244
   777    509    525  1    244
   777    525    173  1    244
   525    509    506  1    244
   525    506    527  1    244
   527    506    176  1    244
   176    506    503  1    244
   176    503    529  1    244
   529    503    152  1    244
   529    152     61  1    244
    61    152    150  1    244
    61    150     60  1    244
   521    170    167  1    244
   521    167    164  1    244
   531    179    177  1    245
   531    177    530  1    245
   531    530     64  1    245
    64    530     63  1    245
   537    188    779  1    246
   537    779     67  1    246
    67    779     66  1    246
    66    779    532  1    246
   532    779    778  1    246
   532    778    180  1    246
   180    778    535  1    246
   180    535    533  1    246
   533    535    185  1    246
   533    185    182  1    246
   535    778    188  1    246
   188    778    779  1    246
   395     73    194  1    247
   395    194    538  1    247
   395    538     69  1    247
   395     69     70  1    247
   538    194    189  1    247
   189    194    191  1    247
    75     76    195  1    248
   780    781    782  1    248
   781    784    785  1    248
   782    781    785  1    248
   782    785    786  1    248
   784    788    789  1    248
   785    784    789  1    248
   785    789    790  1    248
   785    790    791  1    248
   786    785    791  1    248
   788    792    793  1    248
   789    788    793  1    248
   794    796    797  1    248
   796    799    800  1    248
   797    796    800  1    248
   797    800    801  1    248
   798    797    801  1    248
   798    801    802  1    248
   800    799    803  1    248
   800    803    804  1    248
   801    800    804  1    248
   801    804    703  1    248
   801    703    802  1    248
   802    703    701  1    248
   802    701    699  1    248
   802    699    709  1    248
   802    709    798  1    248
   798    709    707  1    248
   798    707    797  1    248
   797    707    794  1    248
   794    707    705  1    248
   794    705    545  1    248
   794    545    543  1    248
   794    543    796  1    248
   796    543    541  1    248
   796    541    799  1    248
   799    541    195  1    248
   799    195    803  1    248
   803    195     76  1    248
   803     76     79  1    248
   803     79    804  1    248
   804     79    703  1    248
   545    705    787  1    248
   545    787    547  1    248
   547    787    783  1    248
   547    783    549  1    248
   549    783    780  1    248
   549    780    551  1    248
   551    780    782  1    248
   551    782    553  1    248
   553    782    786  1    248
   553    786    197  1    248
   197    786    791  1    248
   197    791     94  1    248
    94    791     91  1    248
    91    791     90  1    248
    90    791    790  1    248
    90    790    691  1    248
   691    790    789  1    248
   691    789    793  1    248
   691    793    693  1    248
   693    793    695  1    248
   695    793    792  1    248
   695    792    697  1    248
   697    792    795  1    248
   697    795    699  1    248
   699    795    709  1    248
   709    795    711  1    248
   711    795    792  1    248
   711    792    788  1    248
   711    788    713  1    248
   713    788    784  1    248
   713    784    781  1    248
   713    781    271  1    248
   271    781    780  1    248
   271    780    783  1    248
   271    783    787  1    248
   271    787    705  1    248
   410     85    806  1    249
   410    806    805  1    249
   410    805    807  1    249
   410    807    407  1    249
   407    807    808  1    249
   407    808     82  1    249
    82    808    809  1    249
    82    809    403  1    249
   403    809    704  1    249
   403    704     81  1    249
   704    809    702  1    249
   702    809    808  1    249
   702    808    700  1    249
   700    808    807  1    249
   700    807    698  1    249
   698    807    805  1    249
   698    805    696  1    249
   696    805    694  1    249
   694    805    806  1    249
   694    806    692  1    249
   692    806    413  1    249
   692    413     88  1    249
   413    806     85  1    249
   421    100    198  1    250
   421    198     96  1    250
   421     96    419  1    250
   419     96     97  1    250
   103    203    810  1    251
   103    810    550  1    251
   103    550    552  1    251
   103    552    425  1    251
   425    552    554  1    251
   425    554    102  1    251
   102    554    196  1    251
   550    810    548  1    251
   548    810    546  1    251
   546    810    200  1    251
   546    200    562  1    251
   546    562    544  1    251
   544    562    542  1    251
   542    562    192  1    251
   542    192    193  1    251
   200    810    203  1    251
   812    811    814  1    252
   811    815    813  1    252
   811    813    814  1    252
   815    816    817  1    252
   813    815    817  1    252
   813    817    105  1    252
   813    105    814  1    252
   814    105    428  1    252
   814    428    430  1    252
   814    430    812  1    252
   812    430    106  1    252
   812    106    212  1    252
   812    212    580  1    252
   812    580    811  1    252
   811    580    578  1    252
   811    578    815  1    252
   815    578    576  1    252
   815    576    816  1    252
   816    576    184  1    252
   816    184    206  1    252
   816    206    817  1    252
   817    206    204  1    252
   817    204    105  1    252
   184    576    183  1    252
   183    576    209  1    252
   818    820    821  1    253
   819    818    821  1    253
   819    821    822  1    253
   821    820    823  1    253
   821    823    824  1    253
   822    821    824  1    253
   822    824    825  1    253
   822    825    590  1    253
   822    590    588  1    253
   822    588    819  1    253
   819    588    586  1    253
   819    586    818  1    253
   818    586    215  1    253
   818    215    213  1    253
   818    213    108  1    253
   818    108    434  1    253
   818    434    820  1    253
   820    434    437  1    253
   820    437    823  1    253
   823    437    109  1    253
   823    109    442  1    253
   823    442    824  1    253
   824    442    444  1    253
   824    444    825  1    253
   825    444    112  1    253
   825    112    590  1    253
   826    827    828  1    254
   826    828    218  1    254
   826    218    593  1    254
   826    593    587  1    254
   826    587    589  1    254
   826    589    827  1    254
   827    589    591  1    254
   827    591    227  1    254
   827    227    165  1    254
   827    165    828  1    254
   828    165    166  1    254
   828    166    221  1    254
   828    221    218  1    254
   227    591    230  1    254
   230    591    115  1    254
   115    591    114  1    254
   587    593    216  1    254
   118    121    632  1    255
   118    632    117  1    255
   117    632    629  1    255
   117    629    231  1    255
   231    629    242  1    255
   231    242    233  1    255
   233    242    239  1    255
   233    239    236  1    255
   632    121    245  1    255
   124    127    130  1    256
   124    130    246  1    256
   124    246    123  1    256
   829    830    831  1    257
   829    831    832  1    257
   829    832    833  1    257
   831    830    834  1    257
   831    834    835  1    257
   831    835    836  1    257
   832    831    836  1    257
   832    836    837  1    257
   832    837    838  1    257
   833    832    838  1    257
   835    834    839  1    257
   835    839    840  1    257
   836    835    840  1    257
   836    840    841  1    257
   837    836    841  1    257
   837    841    842  1    257
   837    842    843  1    257
   838    837    843  1    257
   839    844    845  1    257
   840    839    845  1    257
   840    845    846  1    257
   841    840    846  1    257
   841    846    847  1    257
   842    841    847  1    257
   842    847    848  1    257
   843    842    848  1    257
   846    845    849  1    257
   846    849    847  1    257
   847    849    651  1    257
   847    651    254  1    257
   847    254    848  1    257
   848    254    648  1    257
   848    648    843  1    257
   843    648    251  1    257
   843    251    838  1    257
   838    251    644  1    257
   838    644    833  1    257
   833    644    641  1    257
   833    641    829  1    257
   829    641    248  1    257
   829    248    830  1    257
   830    248    243  1    257
   830    243    631  1    257
   830    631    834  1    257
   834    631    634  1    257
   834    634    839  1    257
   839    634    244  1    257
   839    244    844  1    257
   844    244    132  1    257
   844    132    133  1    257
   844    133    845  1    257
   845    133    849  1    257
   849    133    257  1    257
   849    257    651  1    257
   136    258    135  1    258
   851    850    856  1    259
   851    856    857  1    259
   852    851    857  1    259
   852    857    858  1    259
   853    852    858  1    259
   853    858    859  1    259
   854    853    859  1    259
   856    855    860  1    259
   857    856    860  1    259
   857    860    861  1    259
   858    857    861  1    259
   858    861    862  1    259
   859    858    862  1    259
   861    860    863  1    259
   862    861    863  1    259
   862    863    139  1    259
   862    139    664  1    259
   862    664    859  1    259
   859    664    854  1    259
   854    664    263  1    259
   854    263    658  1    259
   854    658    853  1    259
   853    658    260  1    259
   853    260    852  1    259
   852    260    655  1    259
   852    655    851  1    259
   851    655    255  1    259
   851    255    850  1    259
   850    255    653  1    259
   850    653    855  1    259
   850    855    856  1    259
   855    653    256  1    259
   855    256    478  1    259
   855    478    860  1    259
   860    478    482  1    259
   860    482    863  1    259
   863    482    139  1    259
   478    256    138  1    259
   263    664    266  1    259
   864    866    867  1    260
   865    864    867  1    260
   865    867    868  1    260
   867    866    869  1    260
   867    869    870  1    260
   868    867    870  1    260
   868    870    871  1    260
   870    869    875  1    260
   870    875    876  1    260
   871    870    876  1    260
   872    871    876  1    260
   873    872    876  1    260
   875    874    877  1    260
   876    875    877  1    260
   873    876    877  1    260
   877    874    488  1    260
   877    488    142  1    260
   877    142    873  1    260
   873    142    148  1    260
   873    148    872  1    260
   872    148    151  1    260
   872    151    871  1    260
   871    151    868  1    260
   868    151    687  1    260
   868    687    865  1    260
   865    687    156  1    260
   865    156    157  1    260
   865    157    864  1    260
   864    157    269  1    260
   864    269    267  1    260
   864    267    866  1    260
   866    267    667  1    260
   866    667    869  1    260
   869    667    874  1    260
   869    874    875  1    260
   874    667    141  1    260
   874    141    488  1    260
   689    153    878  1    261
   689    878    511  1    261
   689    511    154  1    261
   511    878    508  1    261
   508    878    505  1    261
   505    878    153  1    261
   879    881    882  1    262
   879    882    883  1    262
   879    883    880  1    262
   881    884    885  1    262
   882    881    885  1    262
   882    885    886  1    262
   882    886    887  1    262
   883    882    887  1    262
   883    887    888  1    262
   885    884    889  1    262
   885    889    890  1    262
   886    885    890  1    262
   886    890    891  1    262
   886    891    892  1    262
   887    886    892  1    262
   887    892    893  1    262
   888    887    893  1    262
   889    894    895  1    262
   890    889    895  1    262
   890    895    896  1    262
   891    890    896  1    262
   891    896    897  1    262
   892    891    897  1    262
   892    897    893  1    262
   893    897    159  1    262
   893    159    160  1    262
   893    160    888  1    262
   888    160    237  1    262
   888    237    883  1    262
   883    237    880  1    262
   880    237    238  1    262
   880    238    249  1    262
   880    249    879  1    262
   879    249    643  1    262
   879    643    881  1    262
   881    643    646  1    262
   881    646    884  1    262
   884    646    250  1    262
   884    250    889  1    262
   889    250    678  1    262
   889    678    894  1    262
   894    678    261  1    262
   894    261    895  1    262
   895    261    660  1    262
   895    660    896  1    262
   896    660    897  1    262
   897    660    262  1    262
   897    262    270  1    262
   897    270    159  1    262
   163    226    898  1    263
   163    898    522  1    263
   522    898    162  1    263
   162    898    235  1    263
   235    898    226  1    263
   235    226    234  1    263
   169    222    168  1    264
   606    224    899  1    265
   606    899    172  1    265
   172    899    171  1    265
   171    899    602  1    265
   171    602    220  1    265
   220    602    219  1    265
   602    899    224  1    265
   175    178    901  1    266
   175    901    528  1    266
   528    901    900  1    266
   528    900    526  1    266
   526    900    607  1    266
   526    607    174  1    266
   607    900    901  1    266
   607    901    534  1    266
   607    534    225  1    266
   225    534    208  1    266
   208    534    181  1    266
   534    901    178  1    266
   187    190    902  1    267
   187    902    536  1    267
   536    902    186  1    267
   186    902    564  1    267
   186    564    207  1    267
   207    564    199  1    267
   564    902    190  1    267
   202    205    201  1    268
   903    904    905  1    269
   905    904    906  1    269
   905    906    577  1    269
   905    577    579  1    269
   905    579    581  1    269
   905    581    903  1    269
   903    581    214  1    269
   903    214    595  1    269
   903    595    904  1    269
   904    595    217  1    269
   904    217    604  1    269
   904    604    906  1    269
   906    604    223  1    269
   906    223    577  1    269
   577    223    210  1    269
   214    581    211  1    269
   229    232    228  1    270
   241    247    240  1    271
   656    259    679  1    272
   656    679    649  1    272
   656    649    253  1    272
   649    679    252  1    272
   265    268    264  1    273
   907    909    908  1    274
   907    908    714  1    274
   907    714    272  1    274
   907    272    706  1    274
   907    706    909  1    274
   909    706    708  1    274
   909    708    710  1    274
   909    710    908  1    274
   908    710    712  1    274
   908    712    714  1    274
