# MSMS solvent excluded surface faces for fragments/fragment229.xyzr
#faces  #sphere density probe_r
   2270      64  3.00  1.50
     1      5    385  3      3
   385      5    386  3      3
   385    386      2  3      3
     2    386      4  3      3
     5      8      6  3      5
     6      8      7  3      5
     8    387      9  3      7
     9    387    388  3      7
   387    389    388  3      7
   388    389    390  3      7
   389    391    390  3      7
   390    391    392  3      7
   391    393    392  3      7
   392    393    394  3      7
   393     11    394  3      7
   394     11     10  3      7
    11     14    395  3      9
   395     14    397  3      9
   395    397    396  3      9
   396    397    398  3      9
   396    398     12  3      9
    12    398     13  3      9
    14     17    399  3     11
   399     17    400  3     11
   399    400     15  3     11
    15    400     16  3     11
    17    402    401  3     13
   401    402    403  3     13
   401    403     18  3     13
    18    403    404  3     13
   402    405    403  3     13
   403    405    406  3     13
   403    406    404  3     13
   404    406    407  3     13
   405     20    406  3     13
   406     20    408  3     13
   406    408    407  3     13
   407    408     19  3     13
    20     23    409  3     15
   409     23    410  3     15
   409    410     21  3     15
    21    410     22  3     15
    23    411     24  3     17
    24    411    412  3     17
   411    413    412  3     17
   412    413    414  3     17
   413    415    414  3     17
   414    415    416  3     17
   415    417    416  3     17
   416    417    418  3     17
   417     26    418  3     17
   418     26     25  3     17
    26      1     27  3     18
    27      1      3  3     18
    27    419     25  3     20
    25    419    420  3     20
   419     29    420  3     20
   420     29     28  3     20
    29    421     30  3     22
    30    421    422  3     22
   421    423    422  3     22
   422    423    424  3     22
   423    425    424  3     22
   424    425    426  3     22
   425     32    426  3     22
   426     32     31  3     22
    32    427     33  3     23
    33    427    428  3     23
   427    429    428  3     23
   428    429    430  3     23
   429      3    430  3     23
   430      3      2  3     23
    33     35     31  3     25
    31     35     34  3     25
    35    431     36  3     27
    36    431    432  3     27
   431     38    432  3     27
   432     38     37  3     27
    38     41     39  3     29
    39     41     40  3     29
    41    433     42  3     30
    42    433    434  3     30
   433      4    434  3     30
   434      4      6  3     30
    42     44     40  3     32
    40     44     43  3     32
    44    435     45  3     34
    45    435    436  3     34
   435     47    436  3     34
   436     47     46  3     34
    47      7     48  3     35
    48      7      9  3     35
    48     50    437  3     37
   437     50    438  3     37
   437    438     46  3     37
    46    438     49  3     37
    50    440    439  3     39
   439    440    441  3     39
   439    441     51  3     39
    51    441    442  3     39
   440     53    441  3     39
   441     53    443  3     39
   441    443    442  3     39
   442    443     52  3     39
    53     56    444  3     41
   444     56    445  3     41
   444    445     54  3     41
    54    445     55  3     41
    56     59    446  3     43
   446     59    448  3     43
   446    448    447  3     43
   447    448    449  3     43
   447    449     57  3     43
    57    449     58  3     43
    59     62    450  3     45
   450     62    452  3     45
   450    452    451  3     45
   451    452    453  3     45
   451    453     60  3     45
    60    453     61  3     45
    62     10    454  3     46
   454     10    456  3     46
   454    456    455  3     46
   455    456    457  3     46
   455    457     63  3     46
    63    457     12  3     46
    63     65     61  3     48
    61     65     64  3     48
    65     68    458  3     50
   458     68    459  3     50
   458    459     66  3     50
    66    459     67  3     50
    68     71    460  3     52
   460     71    461  3     52
   460    461     69  3     52
    69    461     70  3     52
    71     74     72  3     54
    72     74     73  3     54
    74     13    462  3     55
   462     13    463  3     55
   462    463     75  3     55
    75    463     15  3     55
    75     77    464  3     57
   464     77    465  3     57
   464    465     73  3     57
    73    465     76  3     57
    77    467    466  3     59
   466    467    468  3     59
   466    468     78  3     59
    78    468    469  3     59
   467     80    468  3     59
   468     80    470  3     59
   468    470    469  3     59
   469    470     79  3     59
    80     83    471  3     61
   471     83    472  3     61
   471    472     81  3     61
    81    472     82  3     61
    83    473     84  3     63
    84    473    474  3     63
   473    475    474  3     63
   474    475    476  3     63
   475     86    476  3     63
   476     86     85  3     63
    86     89    477  3     65
   477     89    478  3     65
   477    478     87  3     65
    87    478     88  3     65
    89     92     90  3     67
    90     92     91  3     67
    92     22    479  3     68
   479     22    481  3     68
   479    481    480  3     68
   480    481    482  3     68
   480    482     93  3     68
    93    482     24  3     68
    93     95    483  3     70
   483     95    484  3     70
   483    484     91  3     70
    91    484     94  3     70
    95     98    485  3     72
   485     98    486  3     72
   485    486     96  3     72
    96    486     97  3     72
    98    488    487  3     74
   487    488    489  3     74
   487    489     99  3     74
    99    489    490  3     74
   488    101    489  3     74
   489    101    491  3     74
   489    491    490  3     74
   490    491    100  3     74
   101     28    102  3     75
   102     28     30  3     75
   102    492    100  3     77
   100    492    493  3     77
   492    494    493  3     77
   493    494    495  3     77
   494    496    495  3     77
   495    496    497  3     77
   496    498    497  3     77
   497    498    499  3     77
   498    104    499  3     77
   499    104    103  3     77
   104    107    500  3     79
   500    107    501  3     79
   500    501    105  3     79
   105    501    106  3     79
   107    502    108  3     81
   108    502    503  3     81
   502    504    503  3     81
   503    504    505  3     81
   504    506    505  3     81
   505    506    507  3     81
   506    110    507  3     81
   507    110    109  3     81
   110     34    508  3     82
   508     34    509  3     82
   508    509    111  3     82
   111    509     36  3     82
   111    511    510  3     84
   510    511    512  3     84
   510    512    109  3     84
   109    512    513  3     84
   511    514    512  3     84
   512    514    515  3     84
   512    515    513  3     84
   513    515    516  3     84
   514    113    515  3     84
   515    113    517  3     84
   515    517    516  3     84
   516    517    112  3     84
   113    116    518  3     86
   518    116    520  3     86
   518    520    519  3     86
   519    520    521  3     86
   519    521    114  3     86
   114    521    115  3     86
   116    119    522  3     88
   522    119    524  3     88
   522    524    523  3     88
   523    524    525  3     88
   523    525    117  3     88
   117    525    118  3     88
   119    122    526  3     90
   526    122    528  3     90
   526    528    527  3     90
   527    528    529  3     90
   527    529    120  3     90
   120    529    121  3     90
   122    530    123  3     91
   123    530    531  3     91
   530    532    531  3     91
   531    532    533  3     91
   532    534    533  3     91
   533    534    535  3     91
   534    536    535  3     91
   535    536    537  3     91
   536    538    537  3     91
   537    538    539  3     91
   538    540    539  3     91
   539    540    541  3     91
   540     37    541  3     91
   541     37     39  3     91
   123    125    542  3     93
   542    125    544  3     93
   542    544    543  3     93
   543    544    545  3     93
   543    545    121  3     93
   121    545    124  3     93
   125    128    546  3     95
   546    128    549  3     95
   546    549    547  3     95
   547    549    550  3     95
   547    550    548  3     95
   548    550    551  3     95
   548    551    126  3     95
   126    551    127  3     95
   128    131    552  3     97
   552    131    553  3     97
   552    553    129  3     97
   129    553    130  3     97
   131    556    554  3     99
   554    556    557  3     99
   554    557    555  3     99
   555    557    558  3     99
   555    558    132  3     99
   132    558    559  3     99
   556    560    557  3     99
   557    560    561  3     99
   557    561    558  3     99
   558    561    562  3     99
   558    562    559  3     99
   559    562    563  3     99
   560    564    561  3     99
   561    564    565  3     99
   561    565    562  3     99
   562    565    566  3     99
   562    566    563  3     99
   563    566    567  3     99
   564    134    565  3     99
   565    134    568  3     99
   565    568    566  3     99
   566    568    569  3     99
   566    569    567  3     99
   567    569    133  3     99
   134    137    570  3    101
   570    137    572  3    101
   570    572    571  3    101
   571    572    573  3    101
   571    573    135  3    101
   135    573    136  3    101
   137    140    574  3    103
   574    140    576  3    103
   574    576    575  3    103
   575    576    577  3    103
   575    577    138  3    103
   138    577    139  3    103
   140    143    578  3    105
   578    143    579  3    105
   578    579    141  3    105
   141    579    142  3    105
   143     43    144  3    106
   144     43     45  3    106
   144    580    142  3    108
   142    580    581  3    108
   580    582    581  3    108
   581    582    583  3    108
   582    146    583  3    108
   583    146    145  3    108
   146    149    147  3    110
   147    149    148  3    110
   149    152    150  3    112
   150    152    151  3    112
   152    584    153  3    113
   153    584    585  3    113
   584     49    585  3    113
   585     49     51  3    113
   153    155    586  3    115
   586    155    587  3    115
   586    587    151  3    115
   151    587    154  3    115
   155     52    156  3    116
   156     52     54  3    116
   156     55    154  3    117
   154     55     57  3    117
   150    158    588  3    119
   588    158    589  3    119
   588    589    148  3    119
   148    589    157  3    119
   158    161    590  3    121
   590    161    591  3    121
   590    591    159  3    121
   159    591    160  3    121
   161    592    162  3    123
   162    592    593  3    123
   592    594    593  3    123
   593    594    595  3    123
   594    164    595  3    123
   595    164    163  3    123
   164    167    596  3    125
   596    167    598  3    125
   596    598    597  3    125
   597    598    599  3    125
   597    599    165  3    125
   165    599    166  3    125
   167     58    600  3    126
   600     58    602  3    126
   600    602    601  3    126
   601    602    603  3    126
   601    603    168  3    126
   168    603     60  3    126
   168    170    166  3    128
   166    170    169  3    128
   170     64    604  3    129
   604     64    605  3    129
   604    605    171  3    129
   171    605     66  3    129
   171    173    606  3    131
   606    173    607  3    131
   606    607    169  3    131
   169    607    172  3    131
   173    176    608  3    133
   608    176    609  3    133
   608    609    174  3    133
   174    609    175  3    133
   176    179    610  3    135
   610    179    611  3    135
   610    611    177  3    135
   177    611    178  3    135
   179    612    180  3    136
   180    612    613  3    136
   612    614    613  3    136
   613    614    615  3    136
   614    616    615  3    136
   615    616    617  3    136
   616     67    617  3    136
   617     67     69  3    136
   180    619    618  3    138
   618    619    620  3    138
   618    620    178  3    138
   178    620    621  3    138
   619    182    620  3    138
   620    182    622  3    138
   620    622    621  3    138
   621    622    181  3    138
   182    623    183  3    140
   183    623    624  3    140
   623    625    624  3    140
   624    625    626  3    140
   625    627    626  3    140
   626    627    628  3    140
   627    185    628  3    140
   628    185    184  3    140
   185     70    186  3    141
   186     70     72  3    141
   186     76    184  3    142
   184     76     78  3    142
   183    188    629  3    144
   629    188    630  3    144
   629    630    181  3    144
   181    630    187  3    144
   188    191    631  3    146
   631    191    632  3    146
   631    632    189  3    146
   189    632    190  3    146
   191    633    192  3    148
   192    633    634  3    148
   633    635    634  3    148
   634    635    636  3    148
   635    194    636  3    148
   636    194    193  3    148
   194    197    637  3    150
   637    197    638  3    150
   637    638    195  3    150
   195    638    196  3    150
   197    200    639  3    152
   639    200    640  3    152
   639    640    198  3    152
   198    640    199  3    152
   200    641    201  3    153
   201    641    642  3    153
   641    643    642  3    153
   642    643    644  3    153
   643     79    644  3    153
   644     79     81  3    153
   201    646    645  3    154
   645    646    647  3    154
   645    647    199  3    154
   199    647    648  3    154
   646     82    647  3    154
   647     82    649  3    154
   647    649    648  3    154
   648    649     84  3    154
   198    203    196  3    156
   196    203    202  3    156
   203    206    204  3    158
   204    206    205  3    158
   206    650    207  3    160
   207    650    651  3    160
   650    209    651  3    160
   651    209    208  3    160
   209     85    210  3    161
   210     85     87  3    161
   210    212    208  3    163
   208    212    211  3    163
   212    215    213  3    165
   213    215    214  3    165
   215    218    652  3    167
   652    218    653  3    167
   652    653    216  3    167
   216    653    217  3    167
   218     97    654  3    168
   654     97    656  3    168
   654    656    655  3    168
   655    656    657  3    168
   655    657    219  3    168
   219    657     99  3    168
   219    103    658  3    169
   658    103    660  3    169
   658    660    659  3    169
   659    660    661  3    169
   659    661    217  3    169
   217    661    105  3    169
   216    662    214  3    171
   214    662    663  3    171
   662    664    663  3    171
   663    664    665  3    171
   664    666    665  3    171
   665    666    667  3    171
   666    668    667  3    171
   667    668    669  3    171
   668    221    669  3    171
   669    221    220  3    171
   221    670    222  3    173
   222    670    671  3    173
   670    224    671  3    173
   671    224    223  3    173
   224    115    225  3    174
   225    115    117  3    174
   225    118    223  3    175
   223    118    120  3    175
   222    672    220  3    177
   220    672    673  3    177
   672    674    673  3    177
   673    674    675  3    177
   674    676    675  3    177
   675    676    677  3    177
   676    678    677  3    177
   677    678    679  3    177
   678    227    679  3    177
   679    227    226  3    177
   227    680    228  3    179
   228    680    681  3    179
   680    682    681  3    179
   681    682    683  3    179
   682    684    683  3    179
   683    684    685  3    179
   684    230    685  3    179
   685    230    229  3    179
   230    233    686  3    181
   686    233    688  3    181
   686    688    687  3    181
   687    688    689  3    181
   687    689    231  3    181
   231    689    232  3    181
   233    691    690  3    183
   690    691    692  3    183
   690    692    234  3    183
   234    692    693  3    183
   691    694    692  3    183
   692    694    695  3    183
   692    695    693  3    183
   693    695    696  3    183
   694    236    695  3    183
   695    236    697  3    183
   695    697    696  3    183
   696    697    235  3    183
   236    124    698  3    184
   698    124    700  3    184
   698    700    699  3    184
   699    700    701  3    184
   699    701    237  3    184
   237    701    126  3    184
   237    232    702  3    185
   702    232    705  3    185
   702    705    703  3    185
   703    705    706  3    185
   703    706    704  3    185
   704    706    707  3    185
   704    707    235  3    185
   235    707    234  3    185
   231    239    708  3    187
   708    239    710  3    187
   708    710    709  3    187
   709    710    711  3    187
   709    711    229  3    187
   229    711    238  3    187
   239    242    712  3    189
   712    242    713  3    189
   712    713    240  3    189
   240    713    241  3    189
   242    245    714  3    191
   714    245    715  3    191
   714    715    243  3    191
   243    715    244  3    191
   245    248    246  3    193
   246    248    247  3    193
   248    251    716  3    195
   716    251    717  3    195
   716    717    249  3    195
   249    717    250  3    195
   251    254    252  3    197
   252    254    253  3    197
   258    255    257  3    199
   254    259    256  3    200
   259    262    718  3    202
   718    262    722  3    202
   718    722    719  3    202
   719    722    723  3    202
   719    723    720  3    202
   720    723    724  3    202
   720    724    721  3    202
   721    724    725  3    202
   721    725    260  3    202
   260    725    261  3    202
   266    263    265  3    204
   262    267    264  3    205
   267    127    726  3    206
   726    127    727  3    206
   726    727    268  3    206
   268    727    129  3    206
   268    130    728  3    207
   728    130    731  3    207
   728    731    729  3    207
   729    731    732  3    207
   729    732    730  3    207
   730    732    733  3    207
   730    733    266  3    207
   266    733    132  3    207
   263    270    261  3    209
   261    270    269  3    209
   270    273    734  3    211
   734    273    735  3    211
   734    735    271  3    211
   271    735    272  3    211
   273    736    274  3    212
   274    736    737  3    212
   736    738    737  3    212
   737    738    739  3    212
   738    740    739  3    212
   739    740    741  3    212
   740    742    741  3    212
   741    742    743  3    212
   742    133    743  3    212
   743    133    135  3    212
   274    744    272  3    214
   272    744    745  3    214
   744    746    745  3    214
   745    746    747  3    214
   746    748    747  3    214
   747    748    749  3    214
   748    750    749  3    214
   749    750    751  3    214
   750    276    751  3    214
   751    276    275  3    214
   276    753    752  3    215
   752    753    754  3    215
   752    754    277  3    215
   277    754    755  3    215
   753    756    754  3    215
   754    756    757  3    215
   754    757    755  3    215
   755    757    758  3    215
   756    759    757  3    215
   757    759    760  3    215
   757    760    758  3    215
   758    760    761  3    215
   759    136    760  3    215
   760    136    762  3    215
   760    762    761  3    215
   761    762    138  3    215
   277    764    763  3    217
   763    764    765  3    217
   763    765    275  3    217
   275    765    766  3    217
   764    279    765  3    217
   765    279    767  3    217
   765    767    766  3    217
   766    767    278  3    217
   279    768    280  3    219
   280    768    769  3    219
   768    282    769  3    219
   769    282    281  3    219
   282    285    770  3    221
   770    285    771  3    221
   770    771    283  3    221
   283    771    284  3    221
   285    288    286  3    223
   286    288    287  3    223
   288    291    289  3    225
   289    291    290  3    225
   291    772    292  3    227
   292    772    773  3    227
   772    774    773  3    227
   773    774    775  3    227
   774    294    775  3    227
   775    294    293  3    227
   294    777    776  3    228
   776    777    778  3    228
   776    778    295  3    228
   295    778    779  3    228
   777    139    778  3    228
   778    139    780  3    228
   778    780    779  3    228
   779    780    141  3    228
   295    781    293  3    229
   293    781    782  3    229
   781    145    782  3    229
   782    145    147  3    229
   292    783    290  3    230
   290    783    784  3    230
   783    157    784  3    230
   784    157    159  3    230
   289    297    287  3    232
   287    297    296  3    232
   297    300    785  3    234
   785    300    786  3    234
   785    786    298  3    234
   298    786    299  3    234
   300    160    787  3    235
   787    160    789  3    235
   787    789    788  3    235
   788    789    790  3    235
   788    790    301  3    235
   301    790    162  3    235
   301    303    791  3    237
   791    303    792  3    237
   791    792    299  3    237
   299    792    302  3    237
   303    306    793  3    239
   793    306    794  3    239
   793    794    304  3    239
   304    794    305  3    239
   306    309    795  3    241
   795    309    796  3    241
   795    796    307  3    241
   307    796    308  3    241
   309    799    797  3    242
   797    799    800  3    242
   797    800    798  3    242
   798    800    801  3    242
   798    801    310  3    242
   310    801    802  3    242
   799    163    800  3    242
   800    163    803  3    242
   800    803    801  3    242
   801    803    804  3    242
   801    804    802  3    242
   802    804    165  3    242
   310    312    308  3    244
   308    312    311  3    244
   312    315    313  3    246
   313    315    314  3    246
   315    172    316  3    247
   316    172    174  3    247
   316    318    314  3    249
   314    318    317  3    249
   318    321    319  3    251
   319    321    320  3    251
   321    324    805  3    253
   805    324    806  3    253
   805    806    322  3    253
   322    806    323  3    253
   324    175    807  3    254
   807    175    808  3    254
   807    808    325  3    254
   325    808    177  3    254
   325    809    323  3    255
   323    809    810  3    255
   809    811    810  3    255
   810    811    812  3    255
   811    813    812  3    255
   812    813    814  3    255
   813    815    814  3    255
   814    815    816  3    255
   815    187    816  3    255
   816    187    189  3    255
   322    327    320  3    257
   320    327    326  3    257
   327    330    817  3    259
   817    330    818  3    259
   817    818    328  3    259
   328    818    329  3    259
   330    333    819  3    261
   819    333    820  3    261
   819    820    331  3    261
   331    820    332  3    261
   333    336    821  3    263
   821    336    822  3    263
   821    822    334  3    263
   334    822    335  3    263
   336    823    337  3    264
   337    823    824  3    264
   823    825    824  3    264
   824    825    826  3    264
   825    827    826  3    264
   826    827    828  3    264
   827    190    828  3    264
   828    190    192  3    264
   337    829    335  3    266
   335    829    830  3    266
   829    339    830  3    266
   830    339    338  3    266
   339    831    340  3    268
   340    831    832  3    268
   831    342    832  3    268
   832    342    341  3    268
   342    193    833  3    269
   833    193    834  3    269
   833    834    343  3    269
   343    834    195  3    269
   343    836    835  3    271
   835    836    837  3    271
   835    837    341  3    271
   341    837    838  3    271
   836    345    837  3    271
   837    345    839  3    271
   837    839    838  3    271
   838    839    344  3    271
   345    238    840  3    272
   840    238    841  3    272
   840    841    346  3    272
   346    841    240  3    272
   346    348    842  3    274
   842    348    843  3    274
   842    843    344  3    274
   344    843    347  3    274
   348    241    349  3    275
   349    241    243  3    275
   349    338    844  3    276
   844    338    845  3    276
   844    845    347  3    276
   347    845    340  3    276
   334    846    332  3    278
   332    846    847  3    278
   846    351    847  3    278
   847    351    350  3    278
   351    849    848  3    280
   848    849    850  3    280
   848    850    352  3    280
   352    850    851  3    280
   849    354    850  3    280
   850    354    852  3    280
   850    852    851  3    280
   851    852    353  3    280
   354    244    853  3    281
   853    244    854  3    281
   853    854    355  3    281
   355    854    246  3    281
   355    247    353  3    282
   353    247    249  3    282
   352    357    855  3    284
   855    357    857  3    284
   855    857    856  3    284
   856    857    858  3    284
   856    858    350  3    284
   350    858    356  3    284
   357    860    859  3    286
   859    860    861  3    286
   859    861    358  3    286
   358    861    862  3    286
   860    360    861  3    286
   861    360    863  3    286
   861    863    862  3    286
   862    863    359  3    286
   360    363    864  3    288
   864    363    865  3    288
   864    865    361  3    288
   361    865    362  3    288
   363    366    364  3    290
   364    366    365  3    290
   366    867    866  3    292
   866    867    868  3    292
   866    868    367  3    292
   367    868    869  3    292
   867    870    868  3    292
   868    870    871  3    292
   868    871    869  3    292
   869    871    872  3    292
   870    369    871  3    292
   871    369    873  3    292
   871    873    872  3    292
   872    873    368  3    292
   369    874    370  3    293
   370    874    875  3    293
   874    250    875  3    293
   875    250    252  3    293
   370    372    368  3    295
   368    372    371  3    295
   372    375    876  3    297
   876    375    878  3    297
   876    878    877  3    297
   877    878    879  3    297
   877    879    373  3    297
   373    879    374  3    297
   255    376    378  3    298
   375    253    377  3    299
   376    380    880  3    301
   880    380    881  3    301
   880    881    374  3    301
   374    881    379  3    301
   380    883    882  3    302
   882    883    884  3    302
   882    884    381  3    302
   381    884    885  3    302
   883    278    884  3    302
   884    278    886  3    302
   884    886    885  3    302
   885    886    280  3    302
   381    383    379  3    304
   379    383    382  3    304
   383    281    887  3    305
   887    281    888  3    305
   887    888    384  3    305
   384    888    283  3    305
   384    371    889  3    306
   889    371    890  3    306
   889    890    382  3    306
   382    890    373  3    306
   367    302    365  3    307
   365    302    304  3    307
   364    305    362  3    308
   362    305    307  3    308
   361    311    359  3    309
   359    311    313  3    309
   358    891    356  3    310
   356    891    892  3    310
   891    329    892  3    310
   892    329    331  3    310
   328    317    326  3    311
   326    317    319  3    311
   298    284    893  3    312
   893    284    894  3    312
   893    894    296  3    312
   296    894    286  3    312
   271    258    269  3    313
   269    258    260  3    313
   228    202    226  3    314
   226    202    204  3    314
   213    895    211  3    315
   211    895    896  3    315
   895    205    896  3    315
   896    205    207  3    315
   114    106    897  3    316
   897    106    899  3    316
   897    899    898  3    316
   898    899    900  3    316
   898    900    112  3    316
   112    900    108  3    316
    96     88     94  3    317
    94     88     90  3    317
    21     16    901  3    318
   901     16    903  3    318
   901    903    902  3    318
   902    903    904  3    318
   902    904     19  3    318
    19    904     18  3    318
     3      1    385  2      1
     3    385      2  2      1
     6      4    386  2      2
     6    386      5  2      2
     9      7      8  2      4
   456     10    395  2      6
   456    395    396  2      6
   456    396    457  2      6
   457    396     12  2      6
   395     10     11  2      6
   463     13    398  2      8
   463    398    399  2      8
   463    399     15  2      8
   399    398    397  2      8
   399    397     14  2      8
   903     16    400  2     10
   903    400    904  2     10
   904    400     17  2     10
   904     17    401  2     10
   904    401     18  2     10
   902     19    408  2     12
   902    408     20  2     12
   902     20    409  2     12
   902    409    901  2     12
   901    409     21  2     12
   481     22    410  2     14
   481    410    482  2     14
   482    410     23  2     14
   482     23     24  2     14
    27     25     26  2     16
    30     28     29  2     19
    33     31     32  2     21
   509     34     35  2     24
   509     35     36  2     24
    39     37     38  2     26
    42     40     41  2     28
    45     43     44  2     31
   437     46     47  2     33
   437     47     48  2     33
    51     49    439  2     36
   439     49    438  2     36
   439    438     50  2     36
    54     52    443  2     38
    54    443    444  2     38
   444    443     53  2     38
    57     55    447  2     40
   447     55    446  2     40
   446     55    445  2     40
   446    445     56  2     40
   602     58    912  2     42
   602    912    910  2     42
   602    910    603  2     42
   603    910     60  2     42
    60    910    451  2     42
   451    910    911  2     42
   451    911    450  2     42
   450    911    448  2     42
   450    448     59  2     42
   448    911    912  2     42
   448    912    449  2     42
   449    912     58  2     42
   912    911    910  2     42
    63     61    455  2     44
   455     61    453  2     44
   455    453    454  2     44
   454    453    452  2     44
   454    452     62  2     44
   605     64    458  2     47
   605    458     66  2     47
   458     64     65  2     47
    69     67    459  2     49
    69    459    460  2     49
   460    459     68  2     49
    72     70    461  2     51
    72    461     71  2     51
   464     73    462  2     53
   464    462     75  2     53
   462     73     74  2     53
    78     76    466  2     56
   466     76    465  2     56
   466    465     77  2     56
    81     79    471  2     58
   471     79    470  2     58
   471    470     80  2     58
   649     82    472  2     60
   649    472     84  2     60
    84    472     83  2     60
    87     85    477  2     62
   477     85     86  2     62
    90     88    478  2     64
    90    478     89  2     64
   483     91    479  2     66
   483    479    480  2     66
   483    480     93  2     66
   479     91     92  2     66
    96     94    484  2     69
    96    484    485  2     69
   485    484     95  2     69
   656     97    486  2     71
   656    486    913  2     71
   656    913    657  2     71
   657    913    487  2     71
   657    487     99  2     71
   487    913     98  2     71
    98    913    486  2     71
   102    100    491  2     73
   102    491    101  2     73
   660    103    104  2     76
   660    104    500  2     76
   660    500    661  2     76
   661    500    105  2     76
   899    106    501  2     78
   899    501    900  2     78
   900    501    107  2     78
   900    107    108  2     78
   510    109    508  2     80
   510    508    111  2     80
   508    109    110  2     80
   898    112    914  2     83
   898    914    897  2     83
   897    914    519  2     83
   897    519    114  2     83
   519    914    518  2     83
   518    914    517  2     83
   518    517    113  2     83
   517    914    112  2     83
   117    115    521  2     85
   117    521    523  2     85
   523    521    520  2     85
   523    520    522  2     85
   522    520    116  2     85
   120    118    525  2     87
   120    525    527  2     87
   527    525    524  2     87
   527    524    526  2     87
   526    524    119  2     87
   543    121    529  2     89
   543    529    528  2     89
   543    528    542  2     89
   542    528    122  2     89
   542    122    123  2     89
   915    916    917  2     92
   917    916    918  2     92
   917    918    919  2     92
   700    124    918  2     92
   700    918    916  2     92
   700    916    701  2     92
   701    916    915  2     92
   701    915    548  2     92
   701    548    126  2     92
   548    915    547  2     92
   547    915    917  2     92
   547    917    546  2     92
   546    917    919  2     92
   546    919    125  2     92
   125    919    544  2     92
   544    919    918  2     92
   544    918    545  2     92
   545    918    124  2     92
   727    127    551  2     94
   727    551    129  2     94
   129    551    550  2     94
   129    550    552  2     94
   552    550    549  2     94
   552    549    128  2     94
   922    920    923  2     96
   731    130    920  2     96
   731    920    922  2     96
   731    922    732  2     96
   732    922    921  2     96
   732    921    733  2     96
   733    921    555  2     96
   733    555    132  2     96
   555    921    554  2     96
   554    921    922  2     96
   554    922    923  2     96
   554    923    131  2     96
   131    923    553  2     96
   553    923    920  2     96
   553    920    130  2     96
   135    133    569  2     98
   135    569    571  2     98
   571    569    568  2     98
   571    568    570  2     98
   570    568    134  2     98
   762    136    924  2    100
   762    924    138  2    100
   138    924    575  2    100
   575    924    573  2    100
   575    573    572  2    100
   575    572    574  2    100
   574    572    137  2    100
   573    924    136  2    100
   780    139    577  2    102
   780    577    141  2    102
   141    577    578  2    102
   578    577    576  2    102
   578    576    140  2    102
   144    142    579  2    104
   144    579    143  2    104
   147    145    146  2    107
   588    148    149  2    109
   588    149    150  2    109
   586    151    152  2    111
   586    152    153  2    111
   156    154    587  2    114
   156    587    155  2    114
   159    157    590  2    118
   590    157    589  2    118
   590    589    158  2    118
   789    160    591  2    120
   789    591    790  2    120
   790    591    161  2    120
   790    161    162  2    120
   803    163    596  2    122
   803    596    597  2    122
   803    597    804  2    122
   804    597    165  2    122
   596    163    164  2    122
   168    166    601  2    124
   601    166    925  2    124
   601    925    600  2    124
   600    925    598  2    124
   600    598    167  2    124
   598    925    599  2    124
   599    925    166  2    124
   606    169    170  2    127
   606    170    604  2    127
   606    604    171  2    127
   174    172    608  2    130
   608    172    607  2    130
   608    607    173  2    130
   808    175    609  2    132
   808    609    610  2    132
   808    610    177  2    132
   610    609    176  2    132
   618    178    611  2    134
   618    611    180  2    134
   180    611    179  2    134
   629    181    622  2    137
   629    622    183  2    137
   183    622    182  2    137
   186    184    185  2    139
   189    187    631  2    143
   631    187    630  2    143
   631    630    188  2    143
   192    190    632  2    145
   192    632    191  2    145
   834    193    194  2    147
   834    194    637  2    147
   834    637    195  2    147
   198    196    638  2    149
   198    638    639  2    149
   639    638    197  2    149
   645    199    640  2    151
   645    640    200  2    151
   645    200    201  2    151
   204    202    203  2    155
   207    205    206  2    157
   210    208    209  2    159
   213    211    212  2    162
   216    214    652  2    164
   652    214    215  2    164
   659    217    926  2    166
   659    926    927  2    166
   659    927    658  2    166
   658    927    655  2    166
   658    655    219  2    166
   655    927    654  2    166
   654    927    926  2    166
   654    926    653  2    166
   654    653    218  2    166
   653    926    217  2    166
   222    220    221  2    170
   225    223    224  2    172
   228    226    227  2    176
   709    229    686  2    178
   709    686    687  2    178
   709    687    708  2    178
   708    687    231  2    178
   686    229    230  2    178
   705    232    689  2    180
   705    689    706  2    180
   706    689    688  2    180
   706    688    707  2    180
   707    688    233  2    180
   707    233    690  2    180
   707    690    234  2    180
   704    235    697  2    182
   704    697    236  2    182
   704    236    698  2    182
   704    698    703  2    182
   703    698    699  2    182
   703    699    702  2    182
   702    699    237  2    182
   841    238    711  2    186
   841    711    710  2    186
   841    710    712  2    186
   841    712    240  2    186
   712    710    239  2    186
   243    241    714  2    188
   714    241    713  2    188
   714    713    242  2    188
   854    244    715  2    190
   854    715    246  2    190
   246    715    245  2    190
   249    247    716  2    192
   716    247    248  2    192
   252    250    717  2    194
   252    717    251  2    194
   377    253    256  2    196
   377    256    905  2    196
   377    905    909  2    196
   909    905    906  2    196
   909    906    378  2    196
   378    906    257  2    196
   378    257    255  2    196
   256    253    254  2    196
   260    258    257  2    198
   260    257    721  2    198
   721    257    906  2    198
   721    906    720  2    198
   720    906    905  2    198
   720    905    719  2    198
   719    905    256  2    198
   719    256    718  2    198
   718    256    259  2    198
   263    261    265  2    201
   265    261    725  2    201
   265    725    908  2    201
   908    725    724  2    201
   908    724    907  2    201
   907    724    723  2    201
   907    723    264  2    201
   264    723    722  2    201
   264    722    262  2    201
   730    266    265  2    203
   730    265    729  2    203
   729    265    908  2    203
   729    908    929  2    203
   729    929    728  2    203
   728    929    928  2    203
   728    928    268  2    203
   268    928    726  2    203
   726    928    264  2    203
   726    264    267  2    203
   264    928    907  2    203
   907    928    929  2    203
   907    929    908  2    203
   271    269    734  2    208
   734    269    270  2    208
   274    272    735  2    210
   274    735    273  2    210
   763    275    276  2    213
   763    276    752  2    213
   763    752    277  2    213
   886    278    767  2    216
   886    767    279  2    216
   886    279    280  2    216
   888    281    282  2    218
   888    282    770  2    218
   888    770    283  2    218
   894    284    771  2    220
   894    771    286  2    220
   286    771    285  2    220
   289    287    288  2    222
   292    290    291  2    224
   295    293    776  2    226
   776    293    294  2    226
   893    296    785  2    231
   893    785    298  2    231
   785    296    297  2    231
   791    299    930  2    233
   791    930    788  2    233
   791    788    301  2    233
   788    930    787  2    233
   787    930    786  2    233
   787    786    300  2    233
   786    930    299  2    233
   304    302    793  2    236
   793    302    792  2    236
   793    792    303  2    236
   307    305    794  2    238
   307    794    795  2    238
   795    794    306  2    238
   310    308    798  2    240
   798    308    796  2    240
   798    796    797  2    240
   797    796    309  2    240
   313    311    312  2    243
   316    314    315  2    245
   319    317    318  2    248
   322    320    805  2    250
   805    320    321  2    250
   325    323    807  2    252
   807    323    806  2    252
   807    806    324  2    252
   328    326    817  2    256
   817    326    327  2    256
   331    329    819  2    258
   819    329    818  2    258
   819    818    330  2    258
   334    332    820  2    260
   334    820    821  2    260
   821    820    333  2    260
   337    335    822  2    262
   337    822    336  2    262
   845    338    339  2    265
   845    339    340  2    265
   835    341    833  2    267
   835    833    343  2    267
   833    341    342  2    267
   842    344    839  2    270
   842    839    840  2    270
   842    840    346  2    270
   840    839    345  2    270
   844    347    843  2    273
   844    843    349  2    273
   349    843    348  2    273
   856    350    351  2    277
   856    351    848  2    277
   856    848    855  2    277
   855    848    352  2    277
   355    353    852  2    279
   355    852    853  2    279
   853    852    354  2    279
   358    356    858  2    283
   358    858    859  2    283
   859    858    857  2    283
   859    857    357  2    283
   361    359    863  2    285
   361    863    864  2    285
   864    863    360  2    285
   364    362    865  2    287
   364    865    363  2    287
   367    365    866  2    289
   866    365    366  2    289
   370    368    873  2    291
   370    873    369  2    291
   890    371    876  2    294
   890    876    877  2    294
   890    877    373  2    294
   876    371    372  2    294
   880    374    378  2    296
   880    378    376  2    296
   378    374    909  2    296
   909    374    879  2    296
   909    879    377  2    296
   377    879    878  2    296
   377    878    375  2    296
   381    379    882  2    300
   882    379    881  2    300
   882    881    380  2    300
   889    382    887  2    303
   889    887    384  2    303
   887    382    383  2    303
     5      1      8  1    319
   932    934    935  1    319
   935    934    938  1    319
   935    938    939  1    319
   936    935    939  1    319
   937    936    939  1    319
   939    938    941  1    319
   938    940    941  1    319
   941    940     26  1    319
   941     26    417  1    319
   941    417    939  1    319
   939    417    937  1    319
   937    417    415  1    319
   937    415    933  1    319
   937    933    405  1    319
   937    405    936  1    319
   936    405    402  1    319
   936    402    932  1    319
   936    932    935  1    319
   932    402    931  1    319
   932    931    391  1    319
   932    391    389  1    319
   932    389    934  1    319
   934    389    387  1    319
   934    387    938  1    319
   938    387    940  1    319
   940    387      8  1    319
   940      8      1  1    319
   940      1     26  1    319
   391    931    393  1    319
   393    931    402  1    319
   393    402     14  1    319
   393     14     11  1    319
    14    402     17  1    319
   405    933     20  1    319
    20    933    411  1    319
    20    411     23  1    319
   411    933    413  1    319
   413    933    415  1    319
     2      4    430  1    320
   433     41     38  1    320
   433     38    430  1    320
   433    430      4  1    320
   430     38    428  1    320
   428     38    431  1    320
   428    431     33  1    320
    33    431     35  1    320
     7     47    435  1    321
     7    435    942  1    321
     7    942      6  1    321
     6    942    434  1    321
   434    942     42  1    321
    42    942     44  1    321
    44    942    435  1    321
    10     62    394  1    322
   394     62     53  1    322
   394     53    440  1    322
   394    440    392  1    322
   392    440    390  1    322
   390    440    943  1    322
   390    943    388  1    322
   388    943     50  1    322
   388     50     48  1    322
   388     48      9  1    322
    50    943    440  1    322
    53     62     56  1    322
    56     62     59  1    322
    13     74     71  1    323
    13     71     68  1    323
    13     68     12  1    323
    12     68     65  1    323
    12     65     63  1    323
   944    947    948  1    324
   945    944    948  1    324
   947    946    949  1    324
   947    949    950  1    324
   948    947    950  1    324
   948    950     86  1    324
   948     86    475  1    324
   948    475    945  1    324
   945    475    473  1    324
   945    473     83  1    324
   945     83     80  1    324
   945     80    944  1    324
   944     80    467  1    324
   944    467    946  1    324
   944    946    947  1    324
   946    467     77  1    324
   946     77     75  1    324
   946     75     16  1    324
   946     16    949  1    324
   949     16     21  1    324
   949     21    950  1    324
   950     21     22  1    324
   950     22     89  1    324
   950     89     86  1    324
    89     22     92  1    324
    16     75     15  1    324
    19     18    951  1    325
    19    951    407  1    325
   407    951    404  1    325
   404    951     18  1    325
   420     28    955  1    326
   420    955    418  1    326
   420    418     25  1    326
   418    955    416  1    326
   416    955    954  1    326
   416    954    953  1    326
   416    953    414  1    326
   414    953    952  1    326
   414    952    412  1    326
   412    952     24  1    326
    24    952     95  1    326
    24     95     93  1    326
    95    952     98  1    326
    98    952    488  1    326
   488    952    953  1    326
   488    953    954  1    326
   488    954    101  1    326
   101    954     28  1    326
    28    954    955  1    326
   427     32    425  1    327
   427    425    956  1    327
   427    956    429  1    327
   429    956    957  1    327
   429    957      3  1    327
     3    957     27  1    327
    27    957    419  1    327
   419    957    421  1    327
   419    421     29  1    327
   421    957    423  1    327
   423    957    956  1    327
   423    956    425  1    327
   958    959    960  1    328
   958    960    506  1    328
   958    506    504  1    328
   958    504    494  1    328
   958    494    959  1    328
   959    494    492  1    328
   959    492    422  1    328
   959    422    424  1    328
   959    424    960  1    328
   960    424    426  1    328
   960    426     31  1    328
   960     31    506  1    328
   506     31    110  1    328
   110     31     34  1    328
   422    492     30  1    328
    30    492    102  1    328
   494    504    496  1    328
   496    504    502  1    328
   496    502    498  1    328
   498    502    107  1    328
   498    107    104  1    328
   962    961    963  1    329
   962    963    532  1    329
   962    532    530  1    329
   962    530    961  1    329
   961    530    122  1    329
   961    122    119  1    329
   961    119    116  1    329
   961    116    113  1    329
   961    113    514  1    329
   961    514    963  1    329
   963    514    964  1    329
   963    964    534  1    329
   963    534    532  1    329
   534    964    536  1    329
   536    964    965  1    329
   536    965    538  1    329
   538    965    966  1    329
   538    966    540  1    329
   540    966    432  1    329
   540    432     37  1    329
   432    966     36  1    329
    36    966    111  1    329
   111    966    965  1    329
   111    965    511  1    329
   511    965    964  1    329
   511    964    514  1    329
   968    969    970  1    330
   970    969    971  1    330
   970    971    972  1    330
   970    972    140  1    330
   970    140    137  1    330
   970    137    968  1    330
   968    137    134  1    330
   968    134    967  1    330
   968    967    539  1    330
   968    539    969  1    330
   969    539    541  1    330
   969    541    971  1    330
   971    541     39  1    330
   971     39     40  1    330
   971     40    972  1    330
   972     40     43  1    330
   972     43    143  1    330
   972    143    140  1    330
   539    967    537  1    330
   537    967    535  1    330
   535    967    564  1    330
   535    564    533  1    330
   533    564    560  1    330
   533    560    531  1    330
   531    560    556  1    330
   531    556    123  1    330
   123    556    125  1    330
   125    556    128  1    330
   128    556    131  1    330
   564    967    134  1    330
    46     49    973  1    331
    46    973    436  1    331
   436    973    974  1    331
   436    974     45  1    331
    45    974    580  1    331
    45    580    144  1    331
   580    974    973  1    331
   580    973    582  1    331
   582    973    584  1    331
   582    584    146  1    331
   146    584    149  1    331
   149    584    152  1    331
   584    973     49  1    331
    52    155    442  1    332
   155    153    975  1    332
   155    975    442  1    332
   442    975     51  1    332
    51    975    585  1    332
   585    975    153  1    332
    55    156     54  1    333
   977    976    979  1    334
   977    979    980  1    334
   978    977    980  1    334
   978    980    154  1    334
   978    154     57  1    334
   978     57     58  1    334
   978     58    167  1    334
   978    167    164  1    334
   978    164    594  1    334
   978    594    977  1    334
   977    594    976  1    334
   976    594    592  1    334
   976    592    158  1    334
   976    158    979  1    334
   979    158    150  1    334
   979    150    151  1    334
   979    151    980  1    334
   980    151    154  1    334
   158    592    161  1    334
    61     64     60  1    335
    60     64    168  1    335
   168     64    170  1    335
   612    179    981  1    336
   612    981    614  1    336
   614    981    983  1    336
   614    983    616  1    336
   616    983     66  1    336
   616     66     67  1    336
    66    983    982  1    336
    66    982    171  1    336
   171    982    173  1    336
   173    982    981  1    336
   173    981    176  1    336
   176    981    179  1    336
   981    982    983  1    336
   984    986    987  1    337
   985    984    987  1    337
   987    986    988  1    337
   987    988    627  1    337
   987    627    625  1    337
   987    625    985  1    337
   985    625    623  1    337
   985    623    182  1    337
   985    182    619  1    337
   985    619    984  1    337
   984    619    613  1    337
   984    613    986  1    337
   986    613    615  1    337
   986    615    617  1    337
   986    617    988  1    337
   988    617     69  1    337
   988     69     70  1    337
   988     70    185  1    337
   988    185    627  1    337
   613    619    180  1    337
    73     76    186  1    338
    73    186     72  1    338
   641    200    635  1    339
   641    635    633  1    339
   641    633    191  1    339
   641    191    989  1    339
   641    989    643  1    339
   643    989    624  1    339
   643    624    626  1    339
   643    626     79  1    339
    79    626    469  1    339
   469    626    628  1    339
   469    628     78  1    339
    78    628    184  1    339
   624    989    183  1    339
   183    989    188  1    339
   188    989    191  1    339
   635    200    194  1    339
   194    200    197  1    339
   646    201    990  1    340
   646    990    991  1    340
   646    991     82  1    340
    82    991     81  1    340
    81    991    644  1    340
   644    991    990  1    340
   644    990    642  1    340
   642    990    201  1    340
    85    209    476  1    341
   476    209    993  1    341
   476    993    474  1    341
   474    993    992  1    341
   474    992     84  1    341
    84    992    648  1    341
   648    992    206  1    341
   648    206    199  1    341
   199    206    203  1    341
   199    203    198  1    341
   206    992    650  1    341
   650    992    993  1    341
   650    993    209  1    341
   994    996    997  1    342
   995    994    997  1    342
   995    997    218  1    342
   995    218    215  1    342
   995    215    212  1    342
   995    212    994  1    342
   994    212    210  1    342
   994    210     87  1    342
   994     87    996  1    342
   996     87     88  1    342
   996     88     96  1    342
   996     96     97  1    342
   996     97    997  1    342
   997     97    218  1    342
    91     94     90  1    343
   998   1000   1001  1    344
   999    998   1001  1    344
   999   1001   1002  1    344
   999   1002    497  1    344
   999    497    499  1    344
   999    499    103  1    344
   999    103    219  1    344
   999    219    998  1    344
   998    219     99  1    344
   998     99    490  1    344
   998    490   1000  1    344
  1000    490    100  1    344
  1000    100    493  1    344
  1000    493   1001  1    344
  1001    493    495  1    344
  1001    495   1002  1    344
  1002    495    497  1    344
  1003   1005   1006  1    345
  1004   1003   1006  1    345
  1004   1006   1007  1    345
  1005   1010   1011  1    345
  1006   1005   1011  1    345
  1006   1011   1007  1    345
  1007   1011    106  1    345
  1007    106   1008  1    345
  1007   1008    221  1    345
  1007    221   1004  1    345
  1004    221    668  1    345
  1004    668    666  1    345
  1004    666   1003  1    345
  1003    666    664  1    345
  1003    664   1005  1    345
  1005    664    662  1    345
  1005    662   1009  1    345
  1005   1009   1010  1    345
  1010   1009    105  1    345
  1010    105   1011  1    345
  1011    105    106  1    345
   105   1009    217  1    345
   217   1009    216  1    345
   216   1009    662  1    345
   221   1008    670  1    345
   670   1008    224  1    345
   224   1008    114  1    345
   224    114    115  1    345
   114   1008    106  1    345
   516    112    108  1    346
   516    108   1013  1    346
   516   1013    513  1    346
   513   1013   1014  1    346
   513   1014    109  1    346
   109   1014    507  1    346
   507   1014    505  1    346
   505   1014   1012  1    346
   505   1012    503  1    346
   503   1012    108  1    346
   108   1012   1013  1    346
  1013   1012   1014  1    346
   118    225    117  1    347
  1015   1017   1018  1    348
  1016   1015   1018  1    348
  1018   1017   1019  1    348
  1018   1019    691  1    348
  1018    691    233  1    348
  1018    233   1016  1    348
  1016    233    230  1    348
  1016    230    684  1    348
  1016    684    682  1    348
  1016    682   1015  1    348
  1015    682    680  1    348
  1015    680    676  1    348
  1015    676   1017  1    348
  1017    676    674  1    348
  1017    674    672  1    348
  1017    672   1019  1    348
  1019    672    222  1    348
  1019    222    691  1    348
   691    222    671  1    348
   691    671    694  1    348
   694    671    223  1    348
   694    223    120  1    348
   694    120    121  1    348
   694    121    236  1    348
   236    121    124  1    348
   676    680    678  1    348
   678    680    227  1    348
   239    231    242  1    349
  1020   1021   1022  1    349
  1023   1022   1024  1    349
  1023   1024   1025  1    349
  1023   1025    251  1    349
  1023    251    248  1    349
  1023    248   1020  1    349
  1023   1020   1022  1    349
  1020    248    245  1    349
  1020    245    242  1    349
  1020    242   1021  1    349
  1021    242    231  1    349
  1021    231    232  1    349
  1021    232   1022  1    349
  1022    232   1024  1    349
  1024    232    237  1    349
  1024    237    267  1    349
  1024    267    262  1    349
  1024    262   1025  1    349
  1025    262    259  1    349
  1025    259    251  1    349
   251    259    254  1    349
   267    237    127  1    349
   127    237    126  1    349
   130    268    129  1    350
  1026   1027   1028  1    351
  1026   1028   1029  1    351
  1027   1030   1031  1    351
  1028   1027   1031  1    351
  1028   1031   1032  1    351
  1029   1028   1032  1    351
  1029   1032   1033  1    351
  1030   1034   1035  1    351
  1031   1030   1035  1    351
  1031   1035   1036  1    351
  1032   1031   1036  1    351
  1032   1036   1037  1    351
  1033   1032   1037  1    351
  1033   1037   1038  1    351
  1035   1034   1039  1    351
  1035   1039   1040  1    351
  1036   1035   1040  1    351
  1036   1040   1041  1    351
  1037   1036   1041  1    351
  1037   1041   1042  1    351
  1038   1037   1042  1    351
  1040   1039   1043  1    351
  1040   1043   1044  1    351
  1041   1040   1044  1    351
  1041   1044    740  1    351
  1041    740   1042  1    351
  1042    740    738  1    351
  1042    738    736  1    351
  1042    736   1038  1    351
  1038    736   1033  1    351
  1033    736    273  1    351
  1033    273   1029  1    351
  1029    273    270  1    351
  1029    270   1026  1    351
  1026    270    263  1    351
  1026    263   1027  1    351
  1027    263    266  1    351
  1027    266   1030  1    351
  1030    266    559  1    351
  1030    559   1034  1    351
  1034    559    563  1    351
  1034    563   1039  1    351
  1039    563    567  1    351
  1039    567   1043  1    351
  1043    567    133  1    351
  1043    133    742  1    351
  1043    742   1044  1    351
  1044    742    740  1    351
   559    266    132  1    351
  1045   1046   1047  1    352
  1046   1049   1050  1    352
  1047   1046   1050  1    352
  1047   1050   1051  1    352
  1048   1047   1051  1    352
  1049   1052   1053  1    352
  1050   1049   1053  1    352
  1051   1050   1053  1    352
  1051   1053    756  1    352
  1051    756    753  1    352
  1051    753    750  1    352
  1051    750   1048  1    352
  1048    750    748  1    352
  1048    748   1047  1    352
  1047    748   1045  1    352
  1045    748    746  1    352
  1045    746    737  1    352
  1045    737    739  1    352
  1045    739   1046  1    352
  1046    739    741  1    352
  1046    741   1049  1    352
  1049    741    743  1    352
  1049    743   1052  1    352
  1052    743    135  1    352
  1052    135    136  1    352
  1052    136    759  1    352
  1052    759   1053  1    352
  1053    759    756  1    352
   737    746    744  1    352
   737    744    274  1    352
   750    753    276  1    352
  1054   1057   1058  1    353
  1055   1054   1058  1    353
  1056   1059   1060  1    353
  1057   1056   1060  1    353
  1057   1060   1061  1    353
  1058   1057   1061  1    353
  1058   1061   1062  1    353
  1060   1059   1063  1    353
  1060   1063   1064  1    353
  1061   1060   1064  1    353
  1061   1064   1065  1    353
  1062   1061   1065  1    353
  1063   1067   1068  1    353
  1064   1063   1068  1    353
  1065   1064   1068  1    353
  1065   1068    294  1    353
  1065    294    774  1    353
  1065    774   1062  1    353
  1062    774    772  1    353
  1062    772    291  1    353
  1062    291   1058  1    353
  1058    291   1055  1    353
  1055    291    288  1    353
  1055    288    768  1    353
  1055    768   1054  1    353
  1054    768    279  1    353
  1054    279    764  1    353
  1054    764   1057  1    353
  1057    764   1056  1    353
  1056    764    277  1    353
  1056    277   1059  1    353
  1059    277    755  1    353
  1059    755   1063  1    353
  1063    755    758  1    353
  1063    758   1067  1    353
  1067    758    761  1    353
  1067    761   1066  1    353
  1067   1066    777  1    353
  1067    777   1068  1    353
  1068    777    294  1    353
   777   1066    139  1    353
   139   1066    138  1    353
   138   1066    761  1    353
   768    288    285  1    353
   768    285    282  1    353
   583    145    781  1    354
   583    781   1069  1    354
   583   1069    581  1    354
   581   1069    779  1    354
   581    779    142  1    354
   142    779    141  1    354
   779   1069    295  1    354
   295   1069    781  1    354
   148    157    783  1    355
   148    783    147  1    355
   147    783    782  1    355
   782    783    775  1    355
   782    775    293  1    355
   775    783    773  1    355
   773    783    292  1    355
   160    300   1070  1    356
   160   1070    159  1    356
   159   1070    784  1    356
   784   1070   1071  1    356
   784   1071    290  1    356
   290   1071    289  1    356
   289   1071    297  1    356
   297   1071   1070  1    356
   297   1070    300  1    356
   799    309    595  1    357
   799    595    163  1    357
   595    309    593  1    357
   593    309    306  1    357
   593    306    303  1    357
   593    303    301  1    357
   593    301    162  1    357
   166    169    165  1    358
   165    169    172  1    358
   165    172    802  1    358
   802    172    315  1    358
   802    315    312  1    358
   802    312    310  1    358
   175    324   1072  1    359
   175   1072   1073  1    359
   175   1073    174  1    359
   174   1073    316  1    359
   316   1073   1072  1    359
   316   1072    318  1    359
   318   1072    321  1    359
   321   1072    324  1    359
   621    181   1076  1    360
   621   1076   1075  1    360
   621   1075    178  1    360
   178   1075   1078  1    360
   178   1078    177  1    360
   177   1078    325  1    360
   325   1078   1074  1    360
   325   1074    809  1    360
   809   1074    811  1    360
   811   1074   1075  1    360
   811   1075    813  1    360
   813   1075   1076  1    360
   813   1076   1077  1    360
   813   1077    815  1    360
   815   1077    187  1    360
   187   1077    181  1    360
   181   1077   1076  1    360
  1075   1074   1078  1    360
  1079   1081   1082  1    361
  1079   1082   1083  1    361
  1079   1083   1084  1    361
  1079   1084   1080  1    361
  1080   1084   1085  1    361
  1080   1085    810  1    361
  1080    810    812  1    361
  1080    812    814  1    361
  1080    814   1079  1    361
  1079    814   1081  1    361
  1081    814    816  1    361
  1081    816    827  1    361
  1081    827    825  1    361
  1081    825   1082  1    361
  1082    825    823  1    361
  1082    823   1083  1    361
  1083    823    336  1    361
  1083    336    333  1    361
  1083    333   1084  1    361
  1084    333    330  1    361
  1084    330   1085  1    361
  1085    330    327  1    361
  1085    327    810  1    361
   810    327    322  1    361
   810    322    323  1    361
   827    816    190  1    361
   190    816    189  1    361
   193    342    636  1    362
   636    342    831  1    362
   636    831   1086  1    362
   636   1086    634  1    362
   634   1086    828  1    362
   634    828    192  1    362
   828   1086    826  1    362
   826   1086    831  1    362
   826    831    824  1    362
   824    831    339  1    362
   824    339    829  1    362
   824    829    337  1    362
   229    238    685  1    363
   196    202    228  1    363
   196    228    195  1    363
   195    228    343  1    363
   343    228    681  1    363
   343    681    836  1    363
   836    681    683  1    363
   836    683    345  1    363
   345    683    685  1    363
   345    685    238  1    363
  1088   1087   1089  1    364
  1088   1089    667  1    364
  1088    667    675  1    364
  1088    675    677  1    364
  1088    677   1087  1    364
  1087    677    679  1    364
  1087    679    226  1    364
  1087    226    205  1    364
  1087    205    895  1    364
  1087    895   1089  1    364
  1089    895    213  1    364
  1089    213    663  1    364
  1089    663    665  1    364
  1089    665    667  1    364
   663    213    214  1    364
   205    226    204  1    364
   675    667    669  1    364
   675    669    673  1    364
   673    669    220  1    364
   208    211   1090  1    365
   208   1090    651  1    365
   651   1090    896  1    365
   651    896    207  1    365
   896   1090    211  1    365
   235    234   1092  1    366
   235   1092    696  1    366
   696   1092   1091  1    366
   696   1091    693  1    366
   693   1091    234  1    366
   234   1091   1092  1    366
   241    348    240  1    367
   240    348    346  1    367
  1093   1094   1095  1    368
  1093   1095    846  1    368
  1093    846    334  1    368
  1093    334    335  1    368
  1093    335    830  1    368
  1093    830   1094  1    368
  1094    830    338  1    368
  1094    338    349  1    368
  1094    349    243  1    368
  1094    243   1095  1    368
  1095    243    244  1    368
  1095    244    354  1    368
  1095    354    849  1    368
  1095    849    846  1    368
   846    849    351  1    368
   247    355    246  1    369
  1096   1098   1099  1    370
  1096   1099   1100  1    370
  1096   1100   1097  1    370
  1099   1102   1103  1    370
  1100   1099   1103  1    370
  1100   1103   1104  1    370
  1100   1104   1105  1    370
  1097   1100   1105  1    370
  1097   1105   1101  1    370
  1102   1107   1108  1    370
  1103   1102   1108  1    370
  1103   1108   1109  1    370
  1104   1103   1109  1    370
  1104   1109   1110  1    370
  1105   1104   1110  1    370
  1105   1110   1111  1    370
  1101   1105   1111  1    370
  1101   1111   1106  1    370
  1108   1113   1114  1    370
  1109   1108   1114  1    370
  1109   1114   1115  1    370
  1110   1109   1115  1    370
  1110   1115   1116  1    370
  1111   1110   1116  1    370
  1106   1111   1116  1    370
  1106   1116   1112  1    370
  1106   1112    363  1    370
  1106    363    360  1    370
  1106    360    860  1    370
  1106    860   1101  1    370
  1101    860    357  1    370
  1101    357   1097  1    370
  1097    357    352  1    370
  1097    352   1096  1    370
  1096    352    851  1    370
  1096    851   1098  1    370
  1098    851    353  1    370
  1098    353    249  1    370
  1098    249   1102  1    370
  1098   1102   1099  1    370
  1102    249    250  1    370
  1102    250   1107  1    370
  1107    250    874  1    370
  1107    874   1108  1    370
  1108    874   1113  1    370
  1113    874    369  1    370
  1113    369   1114  1    370
  1114    369    870  1    370
  1114    870   1115  1    370
  1115    870    867  1    370
  1115    867   1116  1    370
  1116    867    366  1    370
  1116    366   1112  1    370
  1112    366    363  1    370
   253    375    875  1    371
   253    875    252  1    371
   875    375    372  1    371
   875    372    370  1    371
  1117   1119   1120  1    372
  1117   1120   1118  1    372
  1119   1121   1122  1    372
  1120   1119   1122  1    372
  1120   1122   1123  1    372
  1120   1123   1124  1    372
  1118   1120   1124  1    372
  1121   1125   1126  1    372
  1122   1121   1126  1    372
  1122   1126   1127  1    372
  1123   1122   1127  1    372
  1123   1127   1128  1    372
  1124   1123   1128  1    372
  1126   1129   1130  1    372
  1127   1126   1130  1    372
  1127   1130   1131  1    372
  1128   1127   1131  1    372
  1131   1130   1132  1    372
  1131   1132    766  1    372
  1131    766    278  1    372
  1131    278   1128  1    372
  1128    278    883  1    372
  1128    883   1124  1    372
  1124    883   1118  1    372
  1118    883    380  1    372
  1118    380    376  1    372
  1118    376    255  1    372
  1118    255   1117  1    372
  1117    255    258  1    372
  1117    258    271  1    372
  1117    271   1119  1    372
  1119    271    272  1    372
  1119    272   1121  1    372
  1121    272    745  1    372
  1121    745   1125  1    372
  1125    745    747  1    372
  1125    747   1126  1    372
  1126    747   1129  1    372
  1129    747    749  1    372
  1129    749   1130  1    372
  1130    749    751  1    372
  1130    751   1132  1    372
  1132    751    275  1    372
  1132    275    766  1    372
   261    269    260  1    373
   281    383    885  1    374
   281    885   1133  1    374
   281   1133    769  1    374
   769   1133    280  1    374
   280   1133    885  1    374
   885    383    381  1    374
   284    298    869  1    375
   284    869    283  1    375
   283    869    872  1    375
   283    872    384  1    375
   384    872    368  1    375
   384    368    371  1    375
   869    298    367  1    375
   367    298    299  1    375
   367    299    302  1    375
   287    296    286  1    376
   305    364    365  1    377
   305    365    304  1    377
   308    311    307  1    378
   307    311    362  1    378
   362    311    361  1    378
   314    317   1134  1    379
   314   1134    359  1    379
   314    359    313  1    379
   359   1134    862  1    379
   862   1134    891  1    379
   862    891    358  1    379
   891   1134    317  1    379
   891    317    328  1    379
   891    328    329  1    379
   320    326    319  1    380
  1135   1137   1136  1    381
  1136   1137    356  1    381
  1136    356    892  1    381
  1136    892    331  1    381
  1136    331    332  1    381
  1136    332   1135  1    381
  1135    332    847  1    381
  1135    847   1137  1    381
  1137    847    350  1    381
  1137    350    356  1    381
   838    344    347  1    382
   838    347    340  1    382
   838    340    832  1    382
   838    832    341  1    382
   374    379    373  1    383
   373    379    382  1    383
