# MSMS solvent excluded surface faces for fragments/fragment159.xyzr
#faces  #sphere density probe_r
   2352      66  3.00  1.50
     1      5    401  3      3
   401      5    402  3      3
   401    402      2  3      3
     2    402      4  3      3
     5      8      6  3      5
     6      8      7  3      5
     8     11    403  3      7
   403     11    404  3      7
   403    404      9  3      7
     9    404     10  3      7
    11    406    405  3      9
   405    406    407  3      9
   405    407     12  3      9
    12    407    408  3      9
   406     14    407  3      9
   407     14    409  3      9
   407    409    408  3      9
   408    409     13  3      9
    14     17    410  3     11
   410     17    411  3     11
   410    411     15  3     11
    15    411     16  3     11
    17     20    412  3     13
   412     20    414  3     13
   412    414    413  3     13
   413    414    415  3     13
   413    415     18  3     13
    18    415     19  3     13
    20    418    416  3     15
   416    418    419  3     15
   416    419    417  3     15
   417    419    420  3     15
   417    420     21  3     15
    21    420    421  3     15
   418    422    419  3     15
   419    422    423  3     15
   419    423    420  3     15
   420    423    424  3     15
   420    424    421  3     15
   421    424    425  3     15
   422     23    423  3     15
   423     23    426  3     15
   423    426    424  3     15
   424    426    427  3     15
   424    427    425  3     15
   425    427     22  3     15
    23    428     24  3     16
    24    428    429  3     16
   428    430    429  3     16
   429    430    431  3     16
   430    432    431  3     16
   431    432    433  3     16
   432      1    433  3     16
   433      1      3  3     16
    24     26    434  3     18
   434     26    436  3     18
   434    436    435  3     18
   435    436    437  3     18
   435    437     22  3     18
    22    437     25  3     18
    26    440    438  3     20
   438    440    441  3     20
   438    441    439  3     20
   439    441    442  3     20
   439    442     27  3     20
    27    442    443  3     20
   440     29    441  3     20
   441     29    444  3     20
   441    444    442  3     20
   442    444    445  3     20
   442    445    443  3     20
   443    445     28  3     20
    29     32    446  3     22
   446     32    448  3     22
   446    448    447  3     22
   447    448    449  3     22
   447    449     30  3     22
    30    449     31  3     22
    36     33     35  3     24
    32     37     34  3     25
    37     40     38  3     27
    38     40     39  3     27
    40    450     41  3     28
    41    450    451  3     28
   450    452    451  3     28
   451    452    453  3     28
   452    454    453  3     28
   453    454    455  3     28
   454    456    455  3     28
   455    456    457  3     28
   456    458    457  3     28
   457    458    459  3     28
   458      3    459  3     28
   459      3      2  3     28
    41     43    460  3     30
   460     43    461  3     30
   460    461     39  3     30
    39    461     42  3     30
    47     44     46  3     32
    43     48     45  3     33
    48    463    462  3     35
   462    463    464  3     35
   462    464     49  3     35
    49    464    465  3     35
   463    466    464  3     35
   464    466    467  3     35
   464    467    465  3     35
   465    467    468  3     35
   466    469    467  3     35
   467    469    470  3     35
   467    470    468  3     35
   468    470    471  3     35
   469    472    470  3     35
   470    472    473  3     35
   470    473    471  3     35
   471    473    474  3     35
   472     51    473  3     35
   473     51    475  3     35
   473    475    474  3     35
   474    475     50  3     35
    51      4     52  3     36
    52      4      6  3     36
    52      7    476  3     37
   476      7    477  3     37
   476    477     50  3     37
    50    477      9  3     37
    49     54    478  3     39
   478     54    480  3     39
   478    480    479  3     39
   479    480    481  3     39
   479    481     47  3     39
    47    481     53  3     39
    54    482     55  3     41
    55    482    483  3     41
   482    484    483  3     41
   483    484    485  3     41
   484     57    485  3     41
   485     57     56  3     41
    57     60    486  3     43
   486     60    487  3     43
   486    487     58  3     43
    58    487     59  3     43
    60     63     61  3     45
    61     63     62  3     45
    63     66     64  3     47
    64     66     65  3     47
    66    488     67  3     49
    67    488    489  3     49
   488    490    489  3     49
   489    490    491  3     49
   490     69    491  3     49
   491     69     68  3     49
    69     16     70  3     50
    70     16     18  3     50
    70    492     68  3     52
    68    492    493  3     52
   492     72    493  3     52
   493     72     71  3     52
    72    494     73  3     54
    73    494    495  3     54
   494     75    495  3     54
   495     75     74  3     54
    75     19    496  3     55
   496     19    497  3     55
   496    497     76  3     55
    76    497     21  3     55
    76    498     74  3     57
    74    498    499  3     57
   498     78    499  3     57
   499     78     77  3     57
    78     81     79  3     59
    79     81     80  3     59
    81     84     82  3     61
    82     84     83  3     61
    84    500     85  3     62
    85    500    501  3     62
   500    502    501  3     62
   501    502    503  3     62
   502    504    503  3     62
   503    504    505  3     62
   504    506    505  3     62
   505    506    507  3     62
   506     25    507  3     62
   507     25     27  3     62
    85    508     83  3     64
    83    508    509  3     64
   508     87    509  3     64
   509     87     86  3     64
    87     90    510  3     66
   510     90    511  3     66
   510    511     88  3     66
    88    511     89  3     66
    90    513    512  3     68
   512    513    514  3     68
   512    514     91  3     68
    91    514    515  3     68
   513     93    514  3     68
   514     93    516  3     68
   514    516    515  3     68
   515    516     92  3     68
    93     96    517  3     70
   517     96    518  3     70
   517    518     94  3     70
    94    518     95  3     70
    96    521    519  3     72
   519    521    522  3     72
   519    522    520  3     72
   520    522    523  3     72
   520    523     97  3     72
    97    523    524  3     72
   521     99    522  3     72
   522     99    525  3     72
   522    525    523  3     72
   523    525    526  3     72
   523    526    524  3     72
   524    526     98  3     72
    99    102    527  3     74
   527    102    529  3     74
   527    529    528  3     74
   528    529    530  3     74
   528    530    100  3     74
   100    530    101  3     74
   102     28    103  3     75
   103     28     30  3     75
   103     31    531  3     76
   531     31    533  3     76
   531    533    532  3     76
   532    533    534  3     76
   532    534    101  3     76
   101    534     33  3     76
   100    105    535  3     78
   535    105    536  3     78
   535    536     98  3     78
    98    536    104  3     78
   105    108    106  3     80
   106    108    107  3     80
   108    111    537  3     82
   537    111    540  3     82
   537    540    538  3     82
   538    540    541  3     82
   538    541    539  3     82
   539    541    542  3     82
   539    542    109  3     82
   109    542    110  3     82
   111     36    543  3     83
   543     36    546  3     83
   543    546    544  3     83
   544    546    547  3     83
   544    547    545  3     83
   545    547    548  3     83
   545    548    112  3     83
   112    548     38  3     83
   112     42    549  3     84
   549     42    551  3     84
   549    551    550  3     84
   550    551    552  3     84
   550    552    110  3     84
   110    552     44  3     84
   109    555    553  3     86
   553    555    556  3     86
   553    556    554  3     86
   554    556    557  3     86
   554    557    107  3     86
   107    557    558  3     86
   555    114    556  3     86
   556    114    559  3     86
   556    559    557  3     86
   557    559    560  3     86
   557    560    558  3     86
   558    560    113  3     86
   114    117    561  3     88
   561    117    563  3     88
   561    563    562  3     88
   562    563    564  3     88
   562    564    115  3     88
   115    564    116  3     88
   117    120    565  3     90
   565    120    568  3     90
   565    568    566  3     90
   566    568    569  3     90
   566    569    567  3     90
   567    569    570  3     90
   567    570    118  3     90
   118    570    119  3     90
   120    571    121  3     92
   121    571    572  3     92
   571    123    572  3     92
   572    123    122  3     92
   123    126    573  3     94
   573    126    574  3     94
   573    574    124  3     94
   124    574    125  3     94
   126    129    127  3     96
   127    129    128  3     96
   129     53    575  3     97
   575     53    577  3     97
   575    577    576  3     97
   576    577    578  3     97
   576    578    130  3     97
   130    578     55  3     97
   130    132    579  3     99
   579    132    581  3     99
   579    581    580  3     99
   580    581    582  3     99
   580    582    128  3     99
   128    582    131  3     99
   132     56    583  3    100
   583     56    584  3    100
   583    584    133  3    100
   133    584     58  3    100
   133    135    131  3    102
   131    135    134  3    102
   135    586    585  3    104
   585    586    587  3    104
   585    587    136  3    104
   136    587    588  3    104
   586    138    587  3    104
   587    138    589  3    104
   587    589    588  3    104
   588    589    137  3    104
   138    141    590  3    106
   590    141    591  3    106
   590    591    139  3    106
   139    591    140  3    106
   141    144    592  3    108
   592    144    593  3    108
   592    593    142  3    108
   142    593    143  3    108
   144    147    594  3    110
   594    147    595  3    110
   594    595    145  3    110
   145    595    146  3    110
   147     59    148  3    111
   148     59     61  3    111
   148     62    146  3    112
   146     62     64  3    112
   145    150    596  3    114
   596    150    598  3    114
   596    598    597  3    114
   597    598    599  3    114
   597    599    143  3    114
   143    599    149  3    114
   150    153    600  3    116
   600    153    601  3    116
   600    601    151  3    116
   151    601    152  3    116
   153    602    154  3    117
   154    602    603  3    117
   602     65    603  3    117
   603     65     67  3    117
   154    156    604  3    119
   604    156    605  3    119
   604    605    152  3    119
   152    605    155  3    119
   156     71    157  3    120
   157     71     73  3    120
   157    159    155  3    122
   155    159    158  3    122
   159    606    160  3    124
   160    606    607  3    124
   606    608    607  3    124
   607    608    609  3    124
   608    162    609  3    124
   609    162    161  3    124
   162     77    163  3    125
   163     77     79  3    125
   163    165    610  3    127
   610    165    611  3    127
   610    611    161  3    127
   161    611    164  3    127
   165    168    166  3    129
   166    168    167  3    129
   168    171    169  3    131
   169    171    170  3    131
   171    612    172  3    132
   172    612    613  3    132
   612     80    613  3    132
   613     80     82  3    132
   172    174    614  3    134
   614    174    615  3    134
   614    615    170  3    134
   170    615    173  3    134
   174    616    175  3    135
   175    616    617  3    135
   616    618    617  3    135
   617    618    619  3    135
   618     86    619  3    135
   619     86     88  3    135
   175    177    173  3    137
   173    177    176  3    137
   177    620    178  3    139
   178    620    621  3    139
   620    180    621  3    139
   621    180    179  3    139
   180    183    181  3    141
   181    183    182  3    141
   183    622    184  3    142
   184    622    623  3    142
   622    624    623  3    142
   623    624    625  3    142
   624    626    625  3    142
   625    626    627  3    142
   626     89    627  3    142
   627     89     91  3    142
   184    186    628  3    144
   628    186    629  3    144
   628    629    182  3    144
   182    629    185  3    144
   186    189    187  3    146
   187    189    188  3    146
   189    632    630  3    148
   630    632    633  3    148
   630    633    631  3    148
   631    633    634  3    148
   631    634    190  3    148
   190    634    635  3    148
   632    192    633  3    148
   633    192    636  3    148
   633    636    634  3    148
   634    636    637  3    148
   634    637    635  3    148
   635    637    191  3    148
   192    195    638  3    150
   638    195    640  3    150
   638    640    639  3    150
   639    640    641  3    150
   639    641    193  3    150
   193    641    194  3    150
   195    198    642  3    152
   642    198    644  3    152
   642    644    643  3    152
   643    644    645  3    152
   643    645    196  3    152
   196    645    197  3    152
   198     92    199  3    153
   199     92     94  3    153
   199     95    646  3    154
   646     95    648  3    154
   646    648    647  3    154
   647    648    649  3    154
   647    649    197  3    154
   197    649     97  3    154
   196    650    194  3    156
   194    650    651  3    156
   650    652    651  3    156
   651    652    653  3    156
   652    654    653  3    156
   653    654    655  3    156
   654    201    655  3    156
   655    201    200  3    156
   201    104    656  3    157
   656    104    657  3    157
   656    657    202  3    157
   202    657    106  3    157
   202    204    200  3    159
   200    204    203  3    159
   204    658    205  3    161
   205    658    659  3    161
   658    660    659  3    161
   659    660    661  3    161
   660    207    661  3    161
   661    207    206  3    161
   207    662    208  3    162
   208    662    663  3    162
   662    664    663  3    162
   663    664    665  3    162
   664    113    665  3    162
   665    113    115  3    162
   208    210    206  3    164
   206    210    209  3    164
   210    213    211  3    166
   211    213    212  3    166
   213    216    666  3    168
   666    216    667  3    168
   666    667    214  3    168
   214    667    215  3    168
   216    219    668  3    170
   668    219    669  3    170
   668    669    217  3    170
   217    669    218  3    170
   219    116    670  3    171
   670    116    671  3    171
   670    671    220  3    171
   220    671    118  3    171
   220    672    218  3    173
   218    672    673  3    173
   672    222    673  3    173
   673    222    221  3    173
   222    119    674  3    174
   674    119    676  3    174
   674    676    675  3    174
   675    676    677  3    174
   675    677    223  3    174
   223    677    121  3    174
   223    225    678  3    176
   678    225    680  3    176
   678    680    679  3    176
   679    680    681  3    176
   679    681    221  3    176
   221    681    224  3    176
   225    228    682  3    178
   682    228    683  3    178
   682    683    226  3    178
   226    683    227  3    178
   228    684    229  3    179
   229    684    685  3    179
   684    122    685  3    179
   685    122    124  3    179
   229    231    686  3    181
   686    231    687  3    181
   686    687    227  3    181
   227    687    230  3    181
   231    689    688  3    183
   688    689    690  3    183
   688    690    232  3    183
   232    690    691  3    183
   689    234    690  3    183
   690    234    692  3    183
   690    692    691  3    183
   691    692    233  3    183
   234    694    693  3    184
   693    694    695  3    184
   693    695    235  3    184
   235    695    696  3    184
   694    137    695  3    184
   695    137    697  3    184
   695    697    696  3    184
   696    697    139  3    184
   235    698    233  3    186
   233    698    699  3    186
   698    237    699  3    186
   699    237    236  3    186
   237    240    700  3    188
   700    240    701  3    188
   700    701    238  3    188
   238    701    239  3    188
   240    243    241  3    190
   241    243    242  3    190
   243    246    244  3    192
   244    246    245  3    192
   246    702    247  3    194
   247    702    703  3    194
   702    704    703  3    194
   703    704    705  3    194
   704    249    705  3    194
   705    249    248  3    194
   249    252    706  3    196
   706    252    707  3    196
   706    707    250  3    196
   250    707    251  3    196
   252    709    708  3    198
   708    709    710  3    198
   708    710    253  3    198
   253    710    711  3    198
   709    255    710  3    198
   710    255    712  3    198
   710    712    711  3    198
   711    712    254  3    198
   255    140    713  3    199
   713    140    714  3    199
   713    714    256  3    199
   256    714    142  3    199
   256    716    715  3    200
   715    716    717  3    200
   715    717    254  3    200
   254    717    718  3    200
   716    251    717  3    200
   717    251    719  3    200
   717    719    718  3    200
   718    719    253  3    200
   250    258    720  3    202
   720    258    722  3    202
   720    722    721  3    202
   721    722    723  3    202
   721    723    248  3    202
   248    723    257  3    202
   258    724    259  3    203
   259    724    725  3    203
   724    726    725  3    203
   725    726    727  3    203
   726    728    727  3    203
   727    728    729  3    203
   728    149    729  3    203
   729    149    151  3    203
   259    261    730  3    205
   730    261    733  3    205
   730    733    731  3    205
   731    733    734  3    205
   731    734    732  3    205
   732    734    735  3    205
   732    735    257  3    205
   257    735    260  3    205
   261    264    736  3    207
   736    264    738  3    207
   736    738    737  3    207
   737    738    739  3    207
   737    739    262  3    207
   262    739    263  3    207
   264    740    265  3    209
   265    740    741  3    209
   740    267    741  3    209
   741    267    266  3    209
   267    270    268  3    211
   268    270    269  3    211
   270    158    742  3    212
   742    158    743  3    212
   742    743    271  3    212
   271    743    160  3    212
   271    273    269  3    214
   269    273    272  3    214
   273    164    744  3    215
   744    164    745  3    215
   744    745    274  3    215
   274    745    166  3    215
   274    276    746  3    217
   746    276    747  3    217
   746    747    272  3    217
   272    747    275  3    217
   276    749    748  3    219
   748    749    750  3    219
   748    750    277  3    219
   277    750    751  3    219
   749    279    750  3    219
   750    279    752  3    219
   750    752    751  3    219
   751    752    278  3    219
   279    282    753  3    221
   753    282    755  3    221
   753    755    754  3    221
   754    755    756  3    221
   754    756    280  3    221
   280    756    281  3    221
   282    758    757  3    223
   757    758    759  3    223
   757    759    283  3    223
   283    759    760  3    223
   758    285    759  3    223
   759    285    761  3    223
   759    761    760  3    223
   760    761    284  3    223
   285    762    286  3    224
   286    762    763  3    224
   762    167    763  3    224
   763    167    169  3    224
   286    288    284  3    226
   284    288    287  3    226
   288    764    289  3    228
   289    764    765  3    228
   764    766    765  3    228
   765    766    767  3    228
   766    768    767  3    228
   767    768    769  3    228
   768    291    769  3    228
   769    291    290  3    228
   291    770    292  3    229
   292    770    771  3    229
   770    176    771  3    229
   771    176    178  3    229
   292    294    290  3    231
   290    294    293  3    231
   294    179    295  3    232
   295    179    181  3    232
   295    297    772  3    234
   772    297    773  3    234
   772    773    293  3    234
   293    773    296  3    234
   297    775    774  3    236
   774    775    776  3    236
   774    776    298  3    236
   298    776    777  3    236
   775    300    776  3    236
   776    300    778  3    236
   776    778    777  3    236
   777    778    299  3    236
   300    303    779  3    238
   779    303    781  3    238
   779    781    780  3    238
   780    781    782  3    238
   780    782    301  3    238
   301    782    302  3    238
   303    784    783  3    240
   783    784    785  3    240
   783    785    304  3    240
   304    785    786  3    240
   784    306    785  3    240
   785    306    787  3    240
   785    787    786  3    240
   786    787    305  3    240
   306    309    788  3    242
   788    309    790  3    242
   788    790    789  3    242
   789    790    791  3    242
   789    791    307  3    242
   307    791    308  3    242
   309    185    310  3    243
   310    185    187  3    243
   310    188    792  3    244
   792    188    794  3    244
   792    794    793  3    244
   793    794    795  3    244
   793    795    308  3    244
   308    795    190  3    244
   307    797    796  3    246
   796    797    798  3    246
   796    798    305  3    246
   305    798    799  3    246
   797    800    798  3    246
   798    800    801  3    246
   798    801    799  3    246
   799    801    802  3    246
   800    312    801  3    246
   801    312    803  3    246
   801    803    802  3    246
   802    803    311  3    246
   312    804    313  3    247
   313    804    805  3    247
   804    806    805  3    247
   805    806    807  3    247
   806    808    807  3    247
   807    808    809  3    247
   808    191    809  3    247
   809    191    193  3    247
   313    315    311  3    249
   311    315    314  3    249
   315    810    316  3    250
   316    810    811  3    250
   810    812    811  3    250
   811    812    813  3    250
   812    814    813  3    250
   813    814    815  3    250
   814    203    815  3    250
   815    203    205  3    250
   316    816    314  3    252
   314    816    817  3    252
   816    318    817  3    252
   817    318    317  3    252
   318    209    319  3    253
   319    209    211  3    253
   319    818    317  3    254
   317    818    819  3    254
   818    820    819  3    254
   819    820    821  3    254
   820    822    821  3    254
   821    822    823  3    254
   822    824    823  3    254
   823    824    825  3    254
   824    826    825  3    254
   825    826    827  3    254
   826    302    827  3    254
   827    302    304  3    254
   301    321    828  3    256
   828    321    829  3    256
   828    829    299  3    256
   299    829    320  3    256
   321    830    322  3    258
   322    830    831  3    258
   830    832    831  3    258
   831    832    833  3    258
   832    834    833  3    258
   833    834    835  3    258
   834    836    835  3    258
   835    836    837  3    258
   836    324    837  3    258
   837    324    323  3    258
   324    839    838  3    260
   838    839    840  3    260
   838    840    325  3    260
   325    840    841  3    260
   839    327    840  3    260
   840    327    842  3    260
   840    842    841  3    260
   841    842    326  3    260
   327    212    843  3    261
   843    212    844  3    261
   843    844    328  3    261
   328    844    214  3    261
   328    845    326  3    263
   326    845    846  3    263
   845    847    846  3    263
   846    847    848  3    263
   847    330    848  3    263
   848    330    329  3    263
   330    850    849  3    265
   849    850    851  3    265
   849    851    331  3    265
   331    851    852  3    265
   850    333    851  3    265
   851    333    853  3    265
   851    853    852  3    265
   852    853    332  3    265
   333    854    334  3    267
   334    854    855  3    267
   854    856    855  3    267
   855    856    857  3    267
   856    336    857  3    267
   857    336    335  3    267
   336    339    337  3    269
   337    339    338  3    269
   339    859    858  3    271
   858    859    860  3    271
   858    860    340  3    271
   340    860    861  3    271
   859    342    860  3    271
   860    342    862  3    271
   860    862    861  3    271
   861    862    341  3    271
   342    863    343  3    272
   343    863    864  3    272
   863    215    864  3    272
   864    215    217  3    272
   343    865    341  3    274
   341    865    866  3    274
   865    867    866  3    274
   866    867    868  3    274
   867    345    868  3    274
   868    345    344  3    274
   345    348    346  3    276
   346    348    347  3    276
   348    224    349  3    277
   349    224    226  3    277
   349    351    869  3    279
   869    351    870  3    279
   869    870    347  3    279
   347    870    350  3    279
   351    230    352  3    280
   352    230    232  3    280
   352    236    871  3    281
   871    236    872  3    281
   871    872    350  3    281
   350    872    238  3    281
   346    873    344  3    283
   344    873    874  3    283
   873    875    874  3    283
   874    875    876  3    283
   875    877    876  3    283
   876    877    878  3    283
   877    354    878  3    283
   878    354    353  3    283
   354    880    879  3    285
   879    880    881  3    285
   879    881    355  3    285
   355    881    882  3    285
   880    357    881  3    285
   881    357    883  3    285
   881    883    882  3    285
   882    883    356  3    285
   357    360    884  3    287
   884    360    885  3    287
   884    885    358  3    287
   358    885    359  3    287
   360    239    886  3    288
   886    239    887  3    288
   886    887    361  3    288
   361    887    241  3    288
   361    242    359  3    289
   359    242    244  3    289
   358    363    888  3    291
   888    363    889  3    291
   888    889    356  3    291
   356    889    362  3    291
   363    366    890  3    293
   890    366    891  3    293
   890    891    364  3    293
   364    891    365  3    293
   366    892    367  3    294
   367    892    893  3    294
   892    245    893  3    294
   893    245    247  3    294
   367    369    894  3    296
   894    369    895  3    296
   894    895    365  3    296
   365    895    368  3    296
   369    896    370  3    298
   370    896    897  3    298
   896    372    897  3    298
   897    372    371  3    298
   372    260    373  3    299
   373    260    262  3    299
   373    375    371  3    301
   371    375    374  3    301
   375    281    898  3    302
   898    281    900  3    302
   898    900    899  3    302
   899    900    901  3    302
   899    901    376  3    302
   376    901    283  3    302
   376    378    902  3    304
   902    378    903  3    304
   902    903    374  3    304
   374    903    377  3    304
   378    381    904  3    306
   904    381    905  3    306
   904    905    379  3    306
   379    905    380  3    306
   381    906    382  3    307
   382    906    907  3    307
   906    908    907  3    307
   907    908    909  3    307
   908    287    909  3    307
   909    287    289  3    307
   382    384    910  3    309
   910    384    912  3    309
   910    912    911  3    309
   911    912    913  3    309
   911    913    380  3    309
   380    913    383  3    309
   384    387    914  3    311
   914    387    915  3    311
   914    915    385  3    311
   385    915    386  3    311
   387    916    388  3    312
   388    916    917  3    312
   916    918    917  3    312
   917    918    919  3    312
   918    920    919  3    312
   919    920    921  3    312
   920    296    921  3    312
   921    296    298  3    312
   388    923    922  3    313
   922    923    924  3    313
   922    924    386  3    313
   386    924    925  3    313
   923    320    924  3    313
   924    320    926  3    313
   924    926    925  3    313
   925    926    322  3    313
   385    390    927  3    315
   927    390    928  3    315
   927    928    383  3    315
   383    928    389  3    315
   390    393    929  3    317
   929    393    930  3    317
   929    930    391  3    317
   391    930    392  3    317
   393    332    931  3    318
   931    332    933  3    318
   931    933    932  3    318
   932    933    934  3    318
   932    934    394  3    318
   394    934    334  3    318
   394    396    392  3    320
   392    396    395  3    320
   396    399    935  3    322
   935    399    936  3    322
   935    936    397  3    322
   397    936    398  3    322
   399    368    400  3    323
   400    368    370  3    323
   400    377    398  3    324
   398    377    379  3    324
   397    389    395  3    325
   395    389    391  3    325
   364    937    362  3    326
   362    937    938  3    326
   937    939    938  3    326
   938    939    940  3    326
   939    941    940  3    326
   940    941    942  3    326
   941    943    942  3    326
   942    943    944  3    326
   943    335    944  3    326
   944    335    337  3    326
   355    338    945  3    327
   945    338    946  3    327
   945    946    353  3    327
   353    946    340  3    327
   331    323    947  3    328
   947    323    948  3    328
   947    948    329  3    328
   329    948    325  3    328
   280    263    949  3    329
   949    263    951  3    329
   949    951    950  3    329
   950    951    952  3    329
   950    952    278  3    329
   278    952    265  3    329
   277    266    275  3    330
   275    266    268  3    330
   136    953    134  3    331
   134    953    954  3    331
   953    125    954  3    331
   954    125    127  3    331
    15    955     13  3    332
    13    955    956  3    332
   955    957    956  3    332
   956    957    958  3    332
   957     10    958  3    332
   958     10     12  3    332
     3      1    401  2      1
     3    401      2  2      1
     6      4    402  2      2
     6    402      5  2      2
   477      7    403  2      4
   477    403      9  2      4
   403      7      8  2      4
    12     10    404  2      6
    12    404    405  2      6
   405    404     11  2      6
    15     13    410  2      8
   410     13    409  2      8
   410    409     14  2      8
    18     16    413  2     10
   413     16    411  2     10
   413    411    412  2     10
   412    411     17  2     10
   497     19    961  2     12
   497    961    417  2     12
   497    417     21  2     12
   417    961    415  2     12
   417    415    414  2     12
   417    414    416  2     12
   416    414     20  2     12
   415    961     19  2     12
   435     22    427  2     14
   435    427    434  2     14
   434    427    426  2     14
   434    426     24  2     14
    24    426     23  2     14
    27     25    439  2     17
   439     25    437  2     17
   439    437    438  2     17
   438    437    436  2     17
   438    436     26  2     17
    30     28    445  2     19
    30    445    447  2     19
   447    445    444  2     19
   447    444    446  2     19
   446    444     29  2     19
   533     31    963  2     21
   533    963    962  2     21
   533    962    534  2     21
   534    962     35  2     21
   534     35     33  2     21
    35    962    959  2     21
   959    962    963  2     21
   959    963    964  2     21
   959    964     34  2     21
    34    964    448  2     21
    34    448     32  2     21
   448    964    449  2     21
   449    964    963  2     21
   449    963     31  2     21
   546     36     35  2     23
   546     35    547  2     23
   547     35    959  2     23
   547    959    548  2     23
   548    959     34  2     23
   548     34     38  2     23
    38     34     37  2     23
   460     39     40  2     26
   460     40     41  2     26
   551     42    960  2     29
   551    960     46  2     29
   551     46    552  2     29
   552     46     44  2     29
   960     42     45  2     29
    45     42    461  2     29
    45    461     43  2     29
   479     47     46  2     31
   479     46    478  2     31
   478     46    960  2     31
   478    960     49  2     31
    49    960     45  2     31
    49     45    462  2     31
   462     45     48  2     31
   476     50    475  2     34
   476    475     52  2     34
    52    475     51  2     34
   577     53    481  2     38
   577    481    480  2     38
   577    480    578  2     38
   578    480     54  2     38
   578     54     55  2     38
   584     56     57  2     40
   584     57    486  2     40
   584    486     58  2     40
    61     59    487  2     42
    61    487     60  2     42
    64     62     63  2     44
    67     65     66  2     46
    70     68     69  2     48
    73     71     72  2     51
    76     74    496  2     53
   496     74     75  2     53
    79     77     78  2     56
    82     80     81  2     58
    85     83     84  2     60
    88     86    510  2     63
   510     86     87  2     63
    91     89    512  2     65
   512     89    511  2     65
   512    511     90  2     65
    94     92    516  2     67
    94    516    517  2     67
   517    516     93  2     67
   648     95    965  2     69
   648    965    519  2     69
   648    519    520  2     69
   648    520    649  2     69
   649    520     97  2     69
   519    965    518  2     69
   519    518     96  2     69
   518    965     95  2     69
   535     98    526  2     71
   535    526    966  2     71
   535    966    100  2     71
   100    966    528  2     71
   528    966    967  2     71
   528    967    527  2     71
   527    967    525  2     71
   527    525     99  2     71
   525    967    526  2     71
   526    967    966  2     71
   532    101    530  2     73
   532    530    531  2     73
   531    530    529  2     73
   531    529    103  2     73
   103    529    102  2     73
   657    104    536  2     77
   657    536    106  2     77
   106    536    105  2     77
   554    107    537  2     79
   554    537    538  2     79
   554    538    553  2     79
   553    538    539  2     79
   553    539    109  2     79
   537    107    108  2     79
   968    969    971  2     81
   971    969    972  2     81
   550    110    968  2     81
   550    968    971  2     81
   550    971    549  2     81
   549    971    545  2     81
   549    545    112  2     81
   545    971    972  2     81
   545    972    544  2     81
   544    972    543  2     81
   543    972    969  2     81
   543    969    970  2     81
   543    970    111  2     81
   111    970    540  2     81
   540    970    969  2     81
   540    969    541  2     81
   541    969    968  2     81
   541    968    542  2     81
   542    968    110  2     81
   115    113    560  2     85
   115    560    562  2     85
   562    560    559  2     85
   562    559    561  2     85
   561    559    114  2     85
   974    973    975  2     87
   671    116    975  2     87
   671    975    973  2     87
   671    973    567  2     87
   671    567    118  2     87
   567    973    566  2     87
   566    973    974  2     87
   566    974    565  2     87
   565    974    563  2     87
   565    563    117  2     87
   563    974    564  2     87
   564    974    975  2     87
   564    975    116  2     87
   676    119    570  2     89
   676    570    569  2     89
   676    569    677  2     89
   677    569    568  2     89
   677    568    121  2     89
   121    568    120  2     89
   124    122    573  2     91
   573    122    123  2     91
   127    125    574  2     93
   127    574    126  2     93
   580    128    129  2     95
   580    129    575  2     95
   580    575    579  2     95
   579    575    576  2     95
   579    576    130  2     95
   133    131    582  2     98
   133    582    583  2     98
   583    582    581  2     98
   583    581    132  2     98
   136    134    585  2    101
   585    134    135  2    101
   697    137    589  2    103
   697    589    976  2    103
   697    976    590  2    103
   697    590    139  2    103
   590    976    138  2    103
   138    976    589  2    103
   714    140    591  2    105
   714    591    977  2    105
   714    977    142  2    105
   142    977    592  2    105
   592    977    141  2    105
   141    977    591  2    105
   597    143    593  2    107
   597    593    594  2    107
   597    594    596  2    107
   596    594    145  2    107
   594    593    144  2    107
   148    146    595  2    109
   148    595    147  2    109
   151    149    599  2    113
   151    599    600  2    113
   600    599    598  2    113
   600    598    150  2    113
   604    152    601  2    115
   604    601    154  2    115
   154    601    153  2    115
   157    155    978  2    118
   157    978    156  2    118
   156    978    605  2    118
   605    978    155  2    118
   743    158    159  2    121
   743    159    160  2    121
   610    161    162  2    123
   610    162    163  2    123
   745    164    611  2    126
   745    611    165  2    126
   745    165    166  2    126
   169    167    168  2    128
   614    170    171  2    130
   614    171    172  2    130
   175    173    615  2    133
   175    615    174  2    133
   178    176    177  2    136
   181    179    180  2    138
   628    182    183  2    140
   628    183    184  2    140
   187    185    629  2    143
   187    629    186  2    143
   794    188    630  2    145
   794    630    631  2    145
   794    631    795  2    145
   795    631    190  2    145
   630    188    189  2    145
   193    191    637  2    147
   193    637    639  2    147
   639    637    636  2    147
   639    636    638  2    147
   638    636    192  2    147
   196    194    643  2    149
   643    194    641  2    149
   643    641    642  2    149
   642    641    640  2    149
   642    640    195  2    149
   647    197    645  2    151
   647    645    646  2    151
   646    645    644  2    151
   646    644    199  2    151
   199    644    198  2    151
   202    200    656  2    155
   656    200    201  2    155
   205    203    204  2    158
   208    206    207  2    160
   211    209    210  2    163
   844    212    666  2    165
   844    666    214  2    165
   666    212    213  2    165
   217    215    668  2    167
   668    215    667  2    167
   668    667    216  2    167
   220    218    669  2    169
   220    669    670  2    169
   670    669    219  2    169
   679    221    674  2    172
   679    674    675  2    172
   679    675    678  2    172
   678    675    223  2    172
   674    221    222  2    172
   226    224    681  2    175
   226    681    680  2    175
   226    680    682  2    175
   682    680    225  2    175
   686    227    683  2    177
   686    683    228  2    177
   686    228    229  2    177
   232    230    688  2    180
   688    230    687  2    180
   688    687    231  2    180
   235    233    692  2    182
   235    692    693  2    182
   693    692    234  2    182
   872    236    237  2    185
   872    237    700  2    185
   872    700    238  2    185
   887    239    701  2    187
   887    701    241  2    187
   241    701    240  2    187
   244    242    243  2    189
   247    245    246  2    191
   721    248    249  2    193
   721    249    706  2    193
   721    706    720  2    193
   720    706    250  2    193
   719    251    707  2    195
   719    707    253  2    195
   253    707    708  2    195
   708    707    252  2    195
   715    254    713  2    197
   715    713    256  2    197
   713    254    712  2    197
   713    712    255  2    197
   732    257    723  2    201
   732    723    731  2    201
   731    723    722  2    201
   731    722    730  2    201
   730    722    258  2    201
   730    258    259  2    201
   262    260    735  2    204
   262    735    737  2    204
   737    735    734  2    204
   737    734    736  2    204
   736    734    733  2    204
   736    733    261  2    204
   951    263    739  2    206
   951    739    952  2    206
   952    739    738  2    206
   952    738    265  2    206
   265    738    264  2    206
   268    266    267  2    208
   271    269    742  2    210
   742    269    270  2    210
   746    272    744  2    213
   746    744    274  2    213
   744    272    273  2    213
   277    275    748  2    216
   748    275    747  2    216
   748    747    276  2    216
   950    278    980  2    218
   950    980    979  2    218
   950    979    949  2    218
   949    979    754  2    218
   949    754    280  2    218
   754    979    980  2    218
   754    980    753  2    218
   753    980    279  2    218
   279    980    752  2    218
   752    980    278  2    218
   900    281    756  2    220
   900    756    981  2    220
   900    981    901  2    220
   901    981    283  2    220
   283    981    757  2    220
   757    981    282  2    220
   282    981    755  2    220
   755    981    756  2    220
   286    284    761  2    222
   286    761    285  2    222
   289    287    288  2    225
   292    290    291  2    227
   772    293    294  2    230
   772    294    295  2    230
   298    296    774  2    233
   774    296    773  2    233
   774    773    297  2    233
   828    299    982  2    235
   828    982    780  2    235
   828    780    301  2    235
   780    982    779  2    235
   779    982    300  2    235
   300    982    778  2    235
   778    982    299  2    235
   304    302    782  2    237
   304    782    783  2    237
   783    782    781  2    237
   783    781    303  2    237
   796    305    983  2    239
   796    983    789  2    239
   796    789    307  2    239
   789    983    788  2    239
   788    983    787  2    239
   788    787    306  2    239
   787    983    305  2    239
   793    308    791  2    241
   793    791    792  2    241
   792    791    790  2    241
   792    790    310  2    241
   310    790    309  2    241
   313    311    803  2    245
   313    803    312  2    245
   316    314    315  2    248
   319    317    318  2    251
   926    320    829  2    255
   926    829    321  2    255
   926    321    322  2    255
   948    323    324  2    257
   948    324    838  2    257
   948    838    325  2    257
   328    326    842  2    259
   328    842    843  2    259
   843    842    327  2    259
   947    329    330  2    262
   947    330    849  2    262
   947    849    331  2    262
   933    332    853  2    264
   933    853    934  2    264
   934    853    333  2    264
   934    333    334  2    264
   337    335    336  2    266
   946    338    339  2    268
   946    339    858  2    268
   946    858    340  2    268
   343    341    862  2    270
   343    862    342  2    270
   346    344    345  2    273
   869    347    348  2    275
   869    348    349  2    275
   871    350    870  2    278
   871    870    351  2    278
   871    351    352  2    278
   945    353    354  2    282
   945    354    879  2    282
   945    879    355  2    282
   888    356    883  2    284
   888    883    884  2    284
   888    884    358  2    284
   884    883    357  2    284
   361    359    885  2    286
   361    885    886  2    286
   886    885    360  2    286
   364    362    890  2    290
   890    362    889  2    290
   890    889    363  2    290
   894    365    891  2    292
   894    891    367  2    292
   367    891    366  2    292
   370    368    895  2    295
   370    895    369  2    295
   373    371    372  2    297
   902    374    898  2    300
   902    898    899  2    300
   902    899    376  2    300
   898    374    375  2    300
   379    377    903  2    303
   379    903    904  2    303
   904    903    378  2    303
   911    380    905  2    305
   911    905    910  2    305
   910    905    381  2    305
   910    381    382  2    305
   927    383    913  2    308
   927    913    984  2    308
   927    984    385  2    308
   385    984    914  2    308
   914    984    913  2    308
   914    913    912  2    308
   914    912    384  2    308
   922    386    915  2    310
   922    915    387  2    310
   922    387    388  2    310
   391    389    928  2    314
   391    928    929  2    314
   929    928    390  2    314
   394    392    932  2    316
   932    392    931  2    316
   931    392    930  2    316
   931    930    393  2    316
   397    395    935  2    319
   935    395    396  2    319
   400    398    936  2    321
   400    936    399  2    321
   985    988    989  1    333
   986    985    989  1    333
   988    987    992  1    333
   988    992    993  1    333
   989    988    993  1    333
   990    989    993  1    333
   990    993    994  1    333
   991    990    994  1    333
   991    994    995  1    333
   993    992    996  1    333
   994    993    996  1    333
   995    994    996  1    333
   995    996    432  1    333
   995    432    430  1    333
   995    430    428  1    333
   995    428    991  1    333
   991    428     23  1    333
   991     23    422  1    333
   991    422    990  1    333
   990    422    418  1    333
   990    418    989  1    333
   989    418    986  1    333
   986    418     20  1    333
   986     20     17  1    333
   986     17    985  1    333
   985     17     14  1    333
   985     14    406  1    333
   985    406    988  1    333
   988    406    987  1    333
   987    406     11  1    333
   987     11      5  1    333
   987      5    992  1    333
   992      5      1  1    333
   992      1    996  1    333
   996      1    432  1    333
     5     11      8  1    333
   997   1000   1001  1    334
   998    997   1001  1    334
   998   1001   1002  1    334
  1000   1005   1006  1    334
  1001   1000   1006  1    334
  1001   1006   1007  1    334
  1002   1001   1007  1    334
   999   1002   1007  1    334
   999   1007   1003  1    334
   999   1003   1004  1    334
  1004   1003   1008  1    334
  1004   1008   1009  1    334
  1005   1011   1012  1    334
  1006   1005   1012  1    334
  1006   1012   1013  1    334
  1007   1006   1013  1    334
  1008   1007   1013  1    334
  1003   1007   1008  1    334
  1009   1008   1014  1    334
  1009   1014   1015  1    334
  1010   1009   1015  1    334
  1012   1011   1016  1    334
  1013   1012   1016  1    334
  1014   1013   1016  1    334
  1008   1013   1014  1    334
  1015   1014   1017  1    334
  1014   1016   1017  1    334
  1017   1016    459  1    334
  1017    459      2  1    334
  1017      2   1015  1    334
  1015      2   1010  1    334
  1010      2      4  1    334
  1010      4     51  1    334
  1010     51    472  1    334
  1010    472   1009  1    334
  1009    472   1004  1    334
  1004    472    469  1    334
  1004    469    999  1    334
   999    469    466  1    334
   999    466    463  1    334
   999    463    998  1    334
   999    998   1002  1    334
   998    463     48  1    334
   998     48     43  1    334
   998     43    997  1    334
   997     43     41  1    334
   997     41    451  1    334
   997    451   1000  1    334
  1000    451    453  1    334
  1000    453   1005  1    334
  1005    453    455  1    334
  1005    455   1011  1    334
  1011    455    457  1    334
  1011    457   1016  1    334
  1016    457    459  1    334
     7     52      6  1    335
  1019   1018   1020  1    336
  1019   1020   1021  1    336
  1019   1021     66  1    336
  1019     66     63  1    336
  1019     63   1018  1    336
  1018     63    484  1    336
  1018    484   1020  1    336
  1020    484   1022  1    336
  1020   1022    957  1    336
  1020    957   1021  1    336
  1021    957    488  1    336
  1021    488     66  1    336
   488    957    955  1    336
   488    955    490  1    336
   490    955     15  1    336
   490     15     69  1    336
    69     15     16  1    336
   957   1022     50  1    336
   957     50     10  1    336
    10     50      9  1    336
    50   1022    474  1    336
   474   1022    471  1    336
   471   1022    482  1    336
   471    482    468  1    336
   468    482     54  1    336
   468     54    465  1    336
   465     54     49  1    336
   482   1022    484  1    336
   484     63     60  1    336
   484     60     57  1    336
   958     12    408  1    337
   958    408   1023  1    337
   958   1023    956  1    337
   956   1023     13  1    337
    13   1023    408  1    337
    19     75     18  1    338
    18     75     70  1    338
    70     75    494  1    338
    70    494    492  1    338
   492    494     72  1    338
  1024   1026   1027  1    339
  1025   1024   1027  1    339
  1027   1026   1028  1    339
  1027   1028   1029  1    339
  1027   1029    500  1    339
  1027    500   1025  1    339
  1025    500     84  1    339
  1025     84     81  1    339
  1025     81   1024  1    339
  1024     81     78  1    339
  1024     78    498  1    339
  1024    498   1026  1    339
  1026    498     76  1    339
  1026     76     21  1    339
  1026     21    421  1    339
  1026    421   1028  1    339
  1028    421    425  1    339
  1028    425   1029  1    339
  1029    425    504  1    339
  1029    504    502  1    339
  1029    502    500  1    339
   504    425    506  1    339
   506    425     22  1    339
   506     22     25  1    339
  1031   1033   1034  1    340
  1032   1031   1034  1    340
  1034   1033   1035  1    340
  1034   1035    456  1    340
  1034    456    454  1    340
  1034    454   1032  1    340
  1032    454    452  1    340
  1032    452   1030  1    340
  1032   1030   1031  1    340
  1031   1030     29  1    340
  1031     29    440  1    340
  1031    440   1033  1    340
  1033    440     26  1    340
  1033     26    429  1    340
  1033    429   1035  1    340
  1035    429    431  1    340
  1035    431    458  1    340
  1035    458    456  1    340
   458    431    433  1    340
   458    433      3  1    340
   429     26     24  1    340
    29   1030     32  1    340
    32   1030     37  1    340
    37   1030    450  1    340
    37    450     40  1    340
   450   1030    452  1    340
   102     99     28  1    341
  1036   1040   1041  1    341
  1038   1037   1042  1    341
  1038   1042   1043  1    341
  1039   1038   1043  1    341
  1040   1039   1043  1    341
  1040   1043   1044  1    341
  1041   1040   1044  1    341
  1041   1044     27  1    341
  1041     27    443  1    341
  1041    443   1036  1    341
  1036    443    521  1    341
  1036    521     96  1    341
  1036     96     93  1    341
  1036     93   1040  1    341
  1040     93    513  1    341
  1040    513   1039  1    341
  1039    513     90  1    341
  1039     90   1038  1    341
  1038     90     87  1    341
  1038     87   1037  1    341
  1037     87    508  1    341
  1037    508    501  1    341
  1037    501    503  1    341
  1037    503   1042  1    341
  1042    503    505  1    341
  1042    505   1043  1    341
  1043    505    507  1    341
  1043    507   1044  1    341
  1044    507     27  1    341
   501    508     85  1    341
   521    443     28  1    341
   521     28     99  1    341
    31    103     30  1    342
   100    101    105  1    343
    36    111    108  1    343
    36    108    105  1    343
    36    105     33  1    343
    33    105    101  1    343
    39     42    112  1    344
    39    112     38  1    344
  1045   1047   1048  1    345
  1046   1045   1048  1    345
  1046   1048   1049  1    345
  1047   1051   1052  1    345
  1048   1047   1052  1    345
  1048   1052   1053  1    345
  1049   1048   1053  1    345
  1050   1049   1053  1    345
  1050   1053     47  1    345
  1050     47     53  1    345
  1050     53    129  1    345
  1050    129    126  1    345
  1050    126   1049  1    345
  1049    126    123  1    345
  1049    123   1046  1    345
  1046    123    571  1    345
  1046    571   1045  1    345
  1045    571    120  1    345
  1045    120    117  1    345
  1045    117    114  1    345
  1045    114    555  1    345
  1045    555   1047  1    345
  1047    555   1051  1    345
  1051    555    109  1    345
  1051    109    110  1    345
  1051    110     44  1    345
  1051     44   1052  1    345
  1052     44   1053  1    345
  1053     44     47  1    345
    56    132    485  1    346
   132    130   1054  1    346
   132   1054    485  1    346
   485   1054    483  1    346
   483   1054     55  1    346
    55   1054    130  1    346
   133     58    135  1    347
    59    147    135  1    347
    59    135     58  1    347
   135    147    586  1    347
   586    147    144  1    347
   586    144    138  1    347
   138    144    141  1    347
    62    148     61  1    348
  1055   1056   1057  1    349
  1055   1057    153  1    349
  1055    153    150  1    349
  1055    150    145  1    349
  1055    145    146  1    349
  1055    146   1056  1    349
  1056    146     64  1    349
  1056     64     65  1    349
  1056     65   1057  1    349
  1057     65    602  1    349
  1057    602    153  1    349
   493     71   1059  1    350
   493   1059    491  1    350
   493    491     68  1    350
   491   1059    489  1    350
   489   1059    603  1    350
   489    603     67  1    350
   603   1059   1058  1    350
   603   1058    154  1    350
   154   1058    156  1    350
   156   1058     71  1    350
    71   1058   1059  1    350
   499     77    608  1    351
   499    608    495  1    351
   499    495     74  1    351
   495    608    606  1    351
   495    606   1061  1    351
   495   1061     73  1    351
    73   1061   1060  1    351
    73   1060    157  1    351
   157   1060    159  1    351
   159   1060    606  1    351
   606   1060   1061  1    351
   608     77    162  1    351
   612    171    168  1    352
   612    168   1062  1    352
   612   1062     80  1    352
    80   1062     79  1    352
    79   1062    163  1    352
   163   1062    168  1    352
   163    168    165  1    352
   174    172    616  1    353
   509     86    618  1    353
   509    618     83  1    353
    83    618   1063  1    353
    83   1063     82  1    353
    82   1063    613  1    353
   613   1063    616  1    353
   613    616    172  1    353
   616   1063    618  1    353
  1064   1066   1067  1    354
  1065   1064   1067  1    354
  1067   1066   1068  1    354
  1067   1068    624  1    354
  1067    624    622  1    354
  1067    622   1065  1    354
  1065    622    180  1    354
  1065    180    620  1    354
  1065    620   1064  1    354
  1064    620    177  1    354
  1064    177    617  1    354
  1064    617   1066  1    354
  1066    617    619  1    354
  1066    619   1068  1    354
  1068    619     88  1    354
  1068     88    626  1    354
  1068    626    624  1    354
   626     88     89  1    354
   617    177    175  1    354
   180    622    183  1    354
  1069   1072   1073  1    355
  1070   1069   1073  1    355
  1072   1071   1074  1    355
  1072   1074   1075  1    355
  1073   1072   1075  1    355
  1074   1077   1078  1    355
  1075   1074   1078  1    355
  1076   1075   1078  1    355
  1076   1078    195  1    355
  1076    195    192  1    355
  1076    192    632  1    355
  1076    632   1073  1    355
  1076   1073   1075  1    355
  1073    632   1070  1    355
  1070    632    189  1    355
  1070    189    186  1    355
  1070    186    184  1    355
  1070    184   1069  1    355
  1069    184    623  1    355
  1069    623   1071  1    355
  1069   1071   1072  1    355
  1071    623    625  1    355
  1071    625   1074  1    355
  1074    625    627  1    355
  1074    627   1077  1    355
  1077    627     91  1    355
  1077     91    515  1    355
  1077    515   1078  1    355
  1078    515    195  1    355
   195    515     92  1    355
   195     92    198  1    355
    95    199     94  1    356
  1080   1079   1081  1    357
  1080   1081    524  1    357
  1080    524     98  1    357
  1080     98    104  1    357
  1080    104   1079  1    357
  1079    104    201  1    357
  1079    201    654  1    357
  1079    654    652  1    357
  1079    652   1081  1    357
  1081    652    650  1    357
  1081    650     97  1    357
  1081     97    524  1    357
    97    650    196  1    357
    97    196    197  1    357
   558    113   1082  1    358
   558   1082   1083  1    358
   558   1083    107  1    358
   107   1083    106  1    358
   106   1083    202  1    358
   202   1083    204  1    358
   204   1083    658  1    358
   658   1083   1082  1    358
   658   1082    660  1    358
   660   1082    662  1    358
   660    662    207  1    358
   662   1082    664  1    358
   664   1082    113  1    358
   116    219    665  1    359
   116    665    115  1    359
   665    219    663  1    359
   663    219    216  1    359
   663    216    208  1    359
   208    216    213  1    359
   208    213    210  1    359
   119    222    672  1    360
   119    672    118  1    360
   118    672    220  1    360
   684    228    225  1    361
   684    225    572  1    361
   684    572    122  1    361
   572    225    223  1    361
   572    223    121  1    361
  1085   1084   1089  1    362
  1085   1089   1090  1    362
  1086   1085   1090  1    362
  1086   1090   1091  1    362
  1087   1092   1093  1    362
  1084   1087   1093  1    362
  1084   1093   1088  1    362
  1084   1088   1089  1    362
  1089   1088   1095  1    362
  1089   1095   1096  1    362
  1090   1089   1096  1    362
  1090   1096   1097  1    362
  1091   1090   1097  1    362
  1093   1092   1098  1    362
  1088   1093   1098  1    362
  1088   1098   1094  1    362
  1088   1094   1095  1    362
  1095   1094   1099  1    362
  1095   1099   1100  1    362
  1096   1095   1100  1    362
  1094   1098   1099  1    362
  1099   1098    125  1    362
  1099    125    953  1    362
  1099    953   1100  1    362
  1100    953    136  1    362
  1100    136   1096  1    362
  1096    136   1097  1    362
  1097    136    588  1    362
  1097    588   1091  1    362
  1091    588    137  1    362
  1091    137    694  1    362
  1091    694   1086  1    362
  1086    694    234  1    362
  1086    234   1085  1    362
  1085    234    689  1    362
  1085    689   1084  1    362
  1084    689   1087  1    362
  1087    689    231  1    362
  1087    231    229  1    362
  1087    229   1092  1    362
  1092    229    685  1    362
  1092    685    124  1    362
  1092    124   1098  1    362
  1098    124    125  1    362
   128    131    954  1    363
   128    954    127  1    363
   954    131    134  1    363
  1102   1104   1105  1    364
  1103   1102   1105  1    364
  1105   1104   1106  1    364
  1105   1106    255  1    364
  1105    255    709  1    364
  1105    709   1103  1    364
  1103    709    702  1    364
  1103    702    246  1    364
  1103    246   1101  1    364
  1103   1101   1102  1    364
  1102   1101    698  1    364
  1102    698   1104  1    364
  1104    698    235  1    364
  1104    235    696  1    364
  1104    696   1106  1    364
  1106    696    139  1    364
  1106    139    140  1    364
  1106    140    255  1    364
   698   1101    243  1    364
   698    243    240  1    364
   698    240    237  1    364
   243   1101    246  1    364
   702    709    704  1    364
   704    709    252  1    364
   704    252    249  1    364
   258    250    724  1    365
   143    149   1108  1    365
   143   1108    142  1    365
   142   1108    256  1    365
   256   1108   1107  1    365
   256   1107    716  1    365
   716   1107    726  1    365
   716    726    724  1    365
   716    724    251  1    365
   251    724    250  1    365
   726   1107    728  1    365
   728   1107   1108  1    365
   728   1108    149  1    365
  1109   1111   1112  1    366
  1109   1112   1110  1    366
  1109   1110    259  1    366
  1109    259    725  1    366
  1109    725    727  1    366
  1109    727   1111  1    366
  1111    727    729  1    366
  1111    729    155  1    366
  1111    155    158  1    366
  1111    158   1112  1    366
  1112    158    270  1    366
  1112    270   1110  1    366
  1110    270    267  1    366
  1110    267    740  1    366
  1110    740    264  1    366
  1110    264    261  1    366
  1110    261    259  1    366
   155    729    152  1    366
   152    729    151  1    366
  1113   1114   1115  1    367
  1113   1115    164  1    367
  1113    164    273  1    367
  1113    273    271  1    367
  1113    271    160  1    367
  1113    160   1114  1    367
  1114    160    607  1    367
  1114    607    609  1    367
  1114    609   1115  1    367
  1115    609    161  1    367
  1115    161    164  1    367
   762    285    274  1    368
   762    274    166  1    368
   762    166    167  1    368
   274    285    276  1    368
   276    285    758  1    368
   276    758    749  1    368
   749    758    282  1    368
   749    282    279  1    368
   170    173    169  1    369
  1117   1116   1118  1    369
  1117   1118   1119  1    369
  1117   1119    768  1    369
  1117    768    766  1    369
  1117    766    764  1    369
  1117    764   1116  1    369
  1116    764    763  1    369
  1116    763    169  1    369
  1116    169   1118  1    369
  1118    169    173  1    369
  1118    173   1119  1    369
  1119    173    176  1    369
  1119    176    770  1    369
  1119    770    768  1    369
   768    770    291  1    369
   763    764    288  1    369
   763    288    286  1    369
   179    294    292  1    370
   179    292    621  1    370
   621    292    771  1    370
   621    771    178  1    370
   297    295    775  1    371
   182    185   1121  1    371
   182   1121   1120  1    371
   182   1120    181  1    371
   181   1120    295  1    371
   295   1120    775  1    371
   775   1120   1121  1    371
   775   1121    303  1    371
   775    303    300  1    371
   303   1121    784  1    371
   784   1121    185  1    371
   784    185    306  1    371
   306    185    309  1    371
   188    310    187  1    372
  1123   1122   1124  1    373
  1123   1124    806  1    373
  1123    806    804  1    373
  1123    804    312  1    373
  1123    312    800  1    373
  1123    800   1122  1    373
  1122    800    797  1    373
  1122    797    190  1    373
  1122    190    635  1    373
  1122    635   1124  1    373
  1124    635    191  1    373
  1124    191    808  1    373
  1124    808    806  1    373
   190    797    307  1    373
   190    307    308  1    373
  1125   1126   1127  1    374
  1125   1127    814  1    374
  1125    814    812  1    374
  1125    812    810  1    374
  1125    810    805  1    374
  1125    805   1126  1    374
  1126    805    807  1    374
  1126    807   1128  1    374
  1126   1128    655  1    374
  1126    655   1127  1    374
  1127    655    200  1    374
  1127    200    203  1    374
  1127    203    814  1    374
   655   1128    653  1    374
   653   1128   1129  1    374
   653   1129    651  1    374
   651   1129    809  1    374
   651    809    193  1    374
   651    193    194  1    374
   809   1129    807  1    374
   807   1129   1128  1    374
   805    810    315  1    374
   805    315    313  1    374
   206    209   1130  1    375
   206   1130    661  1    375
   661   1130    659  1    375
   659   1130    815  1    375
   659    815    205  1    375
   815   1130    813  1    375
   813   1130    811  1    375
   811   1130    816  1    375
   811    816    316  1    375
   816   1130    318  1    375
   318   1130    209  1    375
   212    327    211  1    376
   211    327    319  1    376
   319    327    839  1    376
   319    839   1131  1    376
   319   1131    818  1    376
   818   1131    820  1    376
   820   1131    836  1    376
   820    836    834  1    376
   820    834    822  1    376
   822    834    832  1    376
   822    832    824  1    376
   824    832    830  1    376
   824    830    826  1    376
   826    830    321  1    376
   826    321    302  1    376
   302    321    301  1    376
   836   1131    324  1    376
   324   1131    839  1    376
   863    342    845  1    377
   863    845    328  1    377
   863    328    214  1    377
   863    214    215  1    377
   845    342    859  1    377
   845    859    847  1    377
   847    859   1132  1    377
   847   1132    330  1    377
   330   1132    856  1    377
   330    856    854  1    377
   330    854    850  1    377
   850    854    333  1    377
   856   1132    336  1    377
   336   1132    339  1    377
   339   1132    859  1    377
   673    221   1134  1    378
   673   1134    867  1    378
   673    867    865  1    378
   673    865   1133  1    378
   673   1133    218  1    378
   218   1133    217  1    378
   217   1133    864  1    378
   864   1133    343  1    378
   343   1133    865  1    378
   867   1134    345  1    378
   345   1134    348  1    378
   348   1134    224  1    378
   224   1134    221  1    378
   227    230    349  1    379
   227    349    226  1    379
   349    230    351  1    379
   699    236   1136  1    380
   699   1136    233  1    380
   233   1136    691  1    380
   691   1136   1135  1    380
   691   1135    232  1    380
   232   1135    352  1    380
   352   1135    236  1    380
   236   1135   1136  1    380
   239    360   1137  1    381
   239   1137    238  1    381
   238   1137    350  1    381
   350   1137    875  1    381
   350    875   1138  1    381
   350   1138    347  1    381
   347   1138    346  1    381
   346   1138    873  1    381
   873   1138    875  1    381
   875   1137    877  1    381
   877   1137    880  1    381
   877    880    354  1    381
   880   1137    360  1    381
   880    360    357  1    381
   242    361    241  1    382
   892    366    363  1    383
   892    363   1139  1    383
   892   1139    245  1    383
   245   1139    244  1    383
   244   1139    359  1    383
   359   1139    358  1    383
   358   1139    363  1    383
   248    257    705  1    384
   257    260   1141  1    384
   257   1141   1140  1    384
   257   1140    705  1    384
   705   1140    703  1    384
   703   1140    893  1    384
   703    893    247  1    384
   893   1140   1141  1    384
   893   1141    896  1    384
   893    896    369  1    384
   893    369    367  1    384
   896   1141    372  1    384
   372   1141    260  1    384
   718    253    711  1    385
   718    711    254  1    385
   263    280    281  1    386
   263    281    375  1    386
   263    375    262  1    386
   262    375    373  1    386
   266    277    741  1    387
   741    277    751  1    387
   741    751    278  1    387
   741    278    265  1    387
   269    272    268  1    388
   268    272    275  1    388
   284    287    760  1    389
   906    381   1142  1    389
   906   1142    908  1    389
   908   1142   1143  1    389
   908   1143    287  1    389
   287   1143    760  1    389
   760   1143    376  1    389
   760    376    283  1    389
   376   1143    378  1    389
   378   1143   1142  1    389
   378   1142    381  1    389
  1145   1146   1147  1    390
  1145   1147    918  1    390
  1145    918    907  1    390
  1145    907    909  1    390
  1145    909   1146  1    390
  1146    909    765  1    390
  1146    765    767  1    390
  1146    767   1147  1    390
  1147    767    769  1    390
  1147    769    920  1    390
  1147    920    918  1    390
   920    769    290  1    390
   920    290    296  1    390
   296    290    293  1    390
   765    909    289  1    390
   907    918    916  1    390
   907    916   1144  1    390
   907   1144    382  1    390
   382   1144    384  1    390
   384   1144    387  1    390
   387   1144    916  1    390
   299    320    777  1    391
   777    320   1148  1    391
   777   1148    921  1    391
   777    921    298  1    391
   921   1148    919  1    391
   919   1148    917  1    391
   917   1148    923  1    391
   917    923    388  1    391
   923   1148    320  1    391
   802    311   1151  1    392
   802   1151   1150  1    392
   802   1150    799  1    392
   799   1150   1149  1    392
   799   1149    786  1    392
   799    786    305  1    392
   786   1149    827  1    392
   786    827    304  1    392
   827   1149    825  1    392
   825   1149   1150  1    392
   825   1150    823  1    392
   823   1150   1151  1    392
   823   1151    821  1    392
   821   1151   1152  1    392
   821   1152    819  1    392
   819   1152    817  1    392
   819    817    317  1    392
   817   1152    314  1    392
   314   1152    311  1    392
   311   1152   1151  1    392
  1153   1155   1156  1    393
  1154   1153   1156  1    393
  1154   1156   1157  1    393
  1154   1157   1158  1    393
  1157   1156   1159  1    393
  1157   1159   1160  1    393
  1157   1160   1158  1    393
  1158   1160    835  1    393
  1158    835    837  1    393
  1158    837    331  1    393
  1158    331    852  1    393
  1158    852   1154  1    393
  1154    852    332  1    393
  1154    332   1153  1    393
  1153    332    393  1    393
  1153    393    390  1    393
  1153    390   1155  1    393
  1155    390    385  1    393
  1155    385    386  1    393
  1155    386    925  1    393
  1155    925   1156  1    393
  1156    925   1159  1    393
  1159    925    322  1    393
  1159    322    831  1    393
  1159    831   1160  1    393
  1160    831    833  1    393
  1160    833    835  1    393
   331    837    323  1    393
   848    329    325  1    394
   848    325   1161  1    394
   848   1161    846  1    394
   846   1161    326  1    394
   326   1161    841  1    394
   841   1161    325  1    394
  1162   1164   1165  1    395
  1162   1165   1166  1    395
  1162   1166    941  1    395
  1162    941    939  1    395
  1162    939   1164  1    395
  1164    939   1163  1    395
  1164   1163    399  1    395
  1164    399    396  1    395
  1164    396   1165  1    395
  1165    396    394  1    395
  1165    394    334  1    395
  1165    334   1166  1    395
  1166    334    855  1    395
  1166    855   1167  1    395
  1166   1167    943  1    395
  1166    943    941  1    395
   943   1167    335  1    395
   335   1167    857  1    395
   857   1167    855  1    395
   399   1163    368  1    395
   368   1163    365  1    395
   365   1163    937  1    395
   365    937    364  1    395
   937   1163    939  1    395
  1168   1169   1170  1    396
  1168   1171   1169  1    396
  1169   1171    355  1    396
  1169    355    882  1    396
  1169    882   1170  1    396
  1170    882    356  1    396
  1170    356    362  1    396
  1170    362    938  1    396
  1170    938    940  1    396
  1170    940   1168  1    396
  1168    940    942  1    396
  1168    942   1171  1    396
  1171    942    944  1    396
  1171    944    337  1    396
  1171    337    338  1    396
  1171    338    355  1    396
  1172   1173   1174  1    397
  1172   1174   1175  1    397
  1174   1173   1176  1    397
  1174   1176   1177  1    397
  1175   1174   1177  1    397
  1175   1177   1178  1    397
  1175   1178    876  1    397
  1175    876    878  1    397
  1175    878   1172  1    397
  1172    878    353  1    397
  1172    353    340  1    397
  1172    340   1173  1    397
  1173    340    861  1    397
  1173    861   1176  1    397
  1176    861    341  1    397
  1176    341    866  1    397
  1176    866   1177  1    397
  1177    866    868  1    397
  1177    868   1178  1    397
  1178    868    344  1    397
  1178    344    874  1    397
  1178    874    876  1    397
   371    374    377  1    398
   371    377    897  1    398
   897    377    400  1    398
   897    400    370  1    398
   380    383    397  1    399
   380    397    398  1    399
   380    398    379  1    399
   397    383    389  1    399
   392    395    391  1    400
