# MSMS solvent excluded surface faces for fragments/fragment128.xyzr
#faces  #sphere density probe_r
   1242      31  3.00  1.50
     1    201      2  3      3
     2    201    202  3      3
   201    203    202  3      3
   202    203    204  3      3
   203      5    204  3      3
   204      5      4  3      3
     5    206    205  3      5
   205    206    207  3      5
   205    207      6  3      5
     6    207    208  3      5
   206      8    207  3      5
   207      8    209  3      5
   207    209    208  3      5
   208    209      7  3      5
     8     11    210  3      7
   210     11    211  3      7
   210    211      9  3      7
     9    211     10  3      7
    11    213    212  3      9
   212    213    214  3      9
   212    214     12  3      9
    12    214    215  3      9
   213     14    214  3      9
   214     14    216  3      9
   214    216    215  3      9
   215    216     13  3      9
    14     17    217  3     11
   217     17    218  3     11
   217    218     15  3     11
    15    218     16  3     11
    17    219     18  3     13
    18    219    220  3     13
   219    221    220  3     13
   220    221    222  3     13
   221     20    222  3     13
   222     20     19  3     13
    20      1    223  3     14
   223      1    224  3     14
   223    224     21  3     14
    21    224      3  3     14
    21     23     19  3     16
    19     23     22  3     16
    23     26     24  3     18
    24     26     25  3     18
    26     29     27  3     20
    27     29     28  3     20
    29    226    225  3     22
   225    226    227  3     22
   225    227     30  3     22
    30    227    228  3     22
   226     32    227  3     22
   227     32    229  3     22
   227    229    228  3     22
   228    229     31  3     22
    32     35     33  3     24
    33     35     34  3     24
    35     38     36  3     26
    36     38     37  3     26
    38      3     39  3     27
    39      3      2  3     27
    39    230     37  3     29
    37    230    231  3     29
   230     41    231  3     29
   231     41     40  3     29
    41     44     42  3     31
    42     44     43  3     31
    44     47    232  3     33
   232     47    233  3     33
   232    233     45  3     33
    45    233     46  3     33
    47     50     48  3     35
    48     50     49  3     35
    50    234     51  3     37
    51    234    235  3     37
   234     53    235  3     37
   235     53     52  3     37
    53      4    236  3     38
   236      4    237  3     38
   236    237     54  3     38
    54    237      6  3     38
    54    238     52  3     40
    52    238    239  3     40
   238     56    239  3     40
   239     56     55  3     40
    56     59    240  3     42
   240     59    241  3     42
   240    241     57  3     42
    57    241     58  3     42
    59      7     60  3     43
    60      7      9  3     43
    60     62     58  3     45
    58     62     61  3     45
    62     10     63  3     46
    63     10     12  3     46
    63    242     61  3     48
    61    242    243  3     48
   242    244    243  3     48
   243    244    245  3     48
   244     65    245  3     48
   245     65     64  3     48
    65     68     66  3     50
    66     68     67  3     50
    68    247    246  3     52
   246    247    248  3     52
   246    248     69  3     52
    69    248    249  3     52
   247    250    248  3     52
   248    250    251  3     52
   248    251    249  3     52
   249    251    252  3     52
   250     71    251  3     52
   251     71    253  3     52
   251    253    252  3     52
   252    253     70  3     52
    71    254     72  3     54
    72    254    255  3     54
   254     74    255  3     54
   255     74     73  3     54
    74     77    256  3     56
   256     77    257  3     56
   256    257     75  3     56
    75    257     76  3     56
    77     80    258  3     58
   258     80    259  3     58
   258    259     78  3     58
    78    259     79  3     58
    80    260     81  3     59
    81    260    261  3     59
   260    262    261  3     59
   261    262    263  3     59
   262     13    263  3     59
   263     13     15  3     59
    81    265    264  3     60
   264    265    266  3     60
   264    266     79  3     60
    79    266    267  3     60
   265     16    266  3     60
   266     16    268  3     60
   266    268    267  3     60
   267    268     18  3     60
    78     83     76  3     62
    76     83     82  3     62
    83     86     84  3     64
    84     86     85  3     64
    86    269     87  3     65
    87    269    270  3     65
   269     22    270  3     65
   270     22     24  3     65
    87    271     85  3     66
    85    271    272  3     66
   271     25    272  3     66
   272     25     27  3     66
    84     89     82  3     68
    82     89     88  3     68
    89    273     90  3     70
    90    273    274  3     70
   273    275    274  3     70
   274    275    276  3     70
   275    277    276  3     70
   276    277    278  3     70
   277    279    278  3     70
   278    279    280  3     70
   279     92    280  3     70
   280     92     91  3     70
    92    281     93  3     71
    93    281    282  3     71
   281    283    282  3     71
   282    283    284  3     71
   283    285    284  3     71
   284    285    286  3     71
   285    287    286  3     71
   286    287    288  3     71
   287     28    288  3     71
   288     28     30  3     71
    93    289     91  3     73
    91    289    290  3     73
   289     95    290  3     73
   290     95     94  3     73
    95    291     96  3     74
    96    291    292  3     74
   291    293    292  3     74
   292    293    294  3     74
   293    295    294  3     74
   294    295    296  3     74
   295    297    296  3     74
   296    297    298  3     74
   297     31    298  3     74
   298     31     33  3     74
    96    299     94  3     75
    94    299    300  3     75
   299    301    300  3     75
   300    301    302  3     75
   301    303    302  3     75
   302    303    304  3     75
   303    305    304  3     75
   304    305    306  3     75
   305     43    306  3     75
   306     43     45  3     75
    90    307     88  3     77
    88    307    308  3     77
   307     98    308  3     77
   308     98     97  3     77
    98    311    309  3     79
   309    311    312  3     79
   309    312    310  3     79
   310    312    313  3     79
   310    313     99  3     79
    99    313    314  3     79
   311    101    312  3     79
   312    101    315  3     79
   312    315    313  3     79
   313    315    316  3     79
   313    316    314  3     79
   314    316    100  3     79
   101    318    317  3     81
   317    318    319  3     81
   317    319    102  3     81
   102    319    320  3     81
   318    104    319  3     81
   319    104    321  3     81
   319    321    320  3     81
   320    321    103  3     81
   104    107    322  3     83
   322    107    324  3     83
   322    324    323  3     83
   323    324    325  3     83
   323    325    105  3     83
   105    325    106  3     83
   107    326    108  3     84
   108    326    327  3     84
   326    328    327  3     84
   327    328    329  3     84
   328    330    329  3     84
   329    330    331  3     84
   330    332    331  3     84
   331    332    333  3     84
   332     46    333  3     84
   333     46     48  3     84
   108    110    334  3     86
   334    110    336  3     86
   334    336    335  3     86
   335    336    337  3     86
   335    337    106  3     86
   106    337    109  3     86
   110    113    338  3     88
   338    113    340  3     88
   338    340    339  3     88
   339    340    341  3     88
   339    341    111  3     88
   111    341    112  3     88
   113    116    342  3     90
   342    116    343  3     90
   342    343    114  3     90
   114    343    115  3     90
   116    119    344  3     92
   344    119    345  3     92
   344    345    117  3     92
   117    345    118  3     92
   119    122    346  3     94
   346    122    347  3     94
   346    347    120  3     94
   120    347    121  3     94
   122     49    123  3     95
   123     49     51  3     95
   123    348    121  3     97
   121    348    349  3     97
   348    350    349  3     97
   349    350    351  3     97
   350    125    351  3     97
   351    125    124  3     97
   125    128    126  3     99
   126    128    127  3     99
   128    352    129  3    100
   129    352    353  3    100
   352     55    353  3    100
   353     55     57  3    100
   129    131    354  3    102
   354    131    355  3    102
   354    355    127  3    102
   127    355    130  3    102
   131    134    356  3    104
   356    134    357  3    104
   356    357    132  3    104
   132    357    133  3    104
   134    358    135  3    105
   135    358    359  3    105
   358    360    359  3    105
   359    360    361  3    105
   360    362    361  3    105
   361    362    363  3    105
   362     64    363  3    105
   363     64     66  3    105
   135    137    364  3    107
   364    137    365  3    107
   364    365    133  3    107
   133    365    136  3    107
   137    366    138  3    109
   138    366    367  3    109
   366    140    367  3    109
   367    140    139  3    109
   140     67    368  3    110
   368     67    369  3    110
   368    369    141  3    110
   141    369     69  3    110
   141    370    139  3    112
   139    370    371  3    112
   370    372    371  3    112
   371    372    373  3    112
   372    374    373  3    112
   373    374    375  3    112
   374    143    375  3    112
   375    143    142  3    112
   143    376    144  3    113
   144    376    377  3    113
   376    378    377  3    113
   377    378    379  3    113
   378     70    379  3    113
   379     70     72  3    113
   144    146    142  3    115
   142    146    145  3    115
   146    149    380  3    117
   380    149    382  3    117
   380    382    381  3    117
   381    382    383  3    117
   381    383    147  3    117
   147    383    148  3    117
   149    384    150  3    119
   150    384    385  3    119
   384    152    385  3    119
   385    152    151  3    119
   152     73    386  3    120
   386     73    387  3    120
   386    387    153  3    120
   153    387     75  3    120
   153    155    388  3    122
   388    155    389  3    122
   388    389    151  3    122
   151    389    154  3    122
   155    158    390  3    124
   390    158    392  3    124
   390    392    391  3    124
   391    392    393  3    124
   391    393    156  3    124
   156    393    157  3    124
   158     97    394  3    125
   394     97    396  3    125
   394    396    395  3    125
   395    396    397  3    125
   395    397    159  3    125
   159    397     99  3    125
   159    398    157  3    127
   157    398    399  3    127
   398    161    399  3    127
   399    161    160  3    127
   161    164    400  3    129
   400    164    401  3    129
   400    401    162  3    129
   162    401    163  3    129
   164    402    165  3    130
   165    402    403  3    130
   402    404    403  3    130
   403    404    405  3    130
   404    406    405  3    130
   405    406    407  3    130
   406    408    407  3    130
   407    408    409  3    130
   408    410    409  3    130
   409    410    411  3    130
   410    109    411  3    130
   411    109    111  3    130
   165    412    163  3    132
   163    412    413  3    132
   412    414    413  3    132
   413    414    415  3    132
   414    416    415  3    132
   415    416    417  3    132
   416    418    417  3    132
   417    418    419  3    132
   418    167    419  3    132
   419    167    166  3    132
   167    421    420  3    134
   420    421    422  3    134
   420    422    168  3    134
   168    422    423  3    134
   421    424    422  3    134
   422    424    425  3    134
   422    425    423  3    134
   423    425    426  3    134
   424    427    425  3    134
   425    427    428  3    134
   425    428    426  3    134
   426    428    429  3    134
   427    430    428  3    134
   428    430    431  3    134
   428    431    429  3    134
   429    431    432  3    134
   430    170    431  3    134
   431    170    433  3    134
   431    433    432  3    134
   432    433    169  3    134
   170    112    171  3    135
   171    112    114  3    135
   171    115    169  3    136
   169    115    117  3    136
   168    173    434  3    138
   434    173    435  3    138
   434    435    166  3    138
   166    435    172  3    138
   173    436    174  3    140
   174    436    437  3    140
   436    176    437  3    140
   437    176    175  3    140
   176    179    438  3    142
   438    179    439  3    142
   438    439    177  3    142
   177    439    178  3    142
   179    182    180  3    144
   180    182    181  3    144
   182    440    183  3    146
   183    440    441  3    146
   440    185    441  3    146
   441    185    184  3    146
   185    442    186  3    148
   186    442    443  3    148
   442    444    443  3    148
   443    444    445  3    148
   444    188    445  3    148
   445    188    187  3    148
   188    118    446  3    149
   446    118    447  3    149
   446    447    189  3    149
   189    447    120  3    149
   189    448    187  3    150
   187    448    449  3    150
   448    124    449  3    150
   449    124    126  3    150
   186    130    184  3    151
   184    130    132  3    151
   183    191    181  3    153
   181    191    190  3    153
   191    136    450  3    154
   450    136    451  3    154
   450    451    192  3    154
   192    451    138  3    154
   192    178    190  3    155
   190    178    180  3    155
   177    194    452  3    157
   452    194    453  3    157
   452    453    175  3    157
   175    453    193  3    157
   194    145    454  3    158
   454    145    457  3    158
   454    457    455  3    158
   455    457    458  3    158
   455    458    456  3    158
   456    458    459  3    158
   456    459    195  3    158
   195    459    147  3    158
   195    461    460  3    159
   460    461    462  3    159
   460    462    193  3    159
   193    462    463  3    159
   461    172    462  3    159
   462    172    464  3    159
   462    464    463  3    159
   463    464    174  3    159
   162    197    160  3    161
   160    197    196  3    161
   197    148    465  3    162
   465    148    467  3    162
   465    467    466  3    162
   466    467    468  3    162
   466    468    198  3    162
   198    468    150  3    162
   198    154    469  3    163
   469    154    471  3    163
   469    471    470  3    163
   470    471    472  3    163
   470    472    196  3    163
   196    472    156  3    163
   105    475    473  3    164
   473    475    476  3    164
   473    476    474  3    164
   474    476    477  3    164
   474    477    103  3    164
   103    477    478  3    164
   475    100    476  3    164
   476    100    479  3    164
   476    479    477  3    164
   477    479    480  3    164
   477    480    478  3    164
   478    480    102  3    164
    42    481     40  3    165
    40    481    482  3    165
   481     34    482  3    165
   482     34     36  3    165
   199    483    200  3    166
   200    483    484  3    166
   483    485    484  3    166
   484    485    486  3    166
   485    487    486  3    166
   486    487    488  3    166
   487    489    488  3    166
   488    489    490  3    166
   489    491    490  3    166
   490    491    492  3    166
   491    199    492  3    166
   492    199    200  3    166
   224      1      2  2      1
   224      2      3  2      1
   237      4    205  2      2
   237    205      6  2      2
   205      4      5  2      2
     9      7    210  2      4
   210      7    209  2      4
   210    209      8  2      4
    12     10    212  2      6
   212     10    211  2      6
   212    211     11  2      6
    15     13    217  2      8
   217     13    216  2      8
   217    216     14  2      8
   268     16    218  2     10
   268    218     18  2     10
    18    218     17  2     10
    21     19    223  2     12
   223     19     20  2     12
    24     22     23  2     15
    27     25     26  2     17
    30     28    225  2     19
   225     28     29  2     19
    33     31    229  2     21
    33    229     32  2     21
    36     34     35  2     23
    39     37     38  2     25
    42     40     41  2     28
    45     43    232  2     30
   232     43     44  2     30
    48     46    233  2     32
    48    233     47  2     32
    51     49     50  2     34
    54     52    236  2     36
   236     52     53  2     36
    57     55    240  2     39
   240     55     56  2     39
    60     58    241  2     41
    60    241     59  2     41
    63     61     62  2     44
    66     64     65  2     47
   369     67     68  2     49
   369     68    246  2     49
   369    246     69  2     49
    72     70    253  2     51
    72    253     71  2     51
   387     73    256  2     53
   387    256     75  2     53
   256     73     74  2     53
    78     76    257  2     55
    78    257    258  2     55
   258    257     77  2     55
   264     79    259  2     57
   264    259     80  2     57
   264     80     81  2     57
    84     82     83  2     61
    87     85     86  2     63
    90     88     89  2     67
    93     91     92  2     69
    96     94     95  2     72
   396     97    309  2     76
   396    309    310  2     76
   396    310    397  2     76
   397    310     99  2     76
   309     97     98  2     76
   479    100    316  2     78
   479    316    315  2     78
   479    315    480  2     78
   480    315    317  2     78
   480    317    102  2     78
   317    315    101  2     78
   474    103    321  2     80
   474    321    322  2     80
   474    322    473  2     80
   473    322    323  2     80
   473    323    105  2     80
   322    321    104  2     80
   335    106    325  2     82
   335    325    334  2     82
   334    325    324  2     82
   334    324    108  2     82
   108    324    107  2     82
   111    109    337  2     85
   111    337    339  2     85
   339    337    336  2     85
   339    336    338  2     85
   338    336    110  2     85
   114    112    341  2     87
   114    341    342  2     87
   342    341    340  2     87
   342    340    113  2     87
   117    115    344  2     89
   344    115    343  2     89
   344    343    116  2     89
   447    118    345  2     91
   447    345    346  2     91
   447    346    120  2     91
   346    345    119  2     91
   123    121    347  2     93
   123    347    122  2     93
   126    124    125  2     96
   354    127    128  2     98
   354    128    129  2     98
   132    130    356  2    101
   356    130    355  2    101
   356    355    131  2    101
   364    133    357  2    103
   364    357    135  2    103
   135    357    134  2    103
   451    136    365  2    106
   451    365    138  2    106
   138    365    137  2    106
   141    139    368  2    108
   368    139    140  2    108
   144    142    143  2    111
   457    145    146  2    114
   457    146    380  2    114
   457    380    458  2    114
   458    380    381  2    114
   458    381    459  2    114
   459    381    147  2    114
   467    148    383  2    116
   467    383    382  2    116
   467    382    468  2    116
   468    382    149  2    116
   468    149    150  2    116
   388    151    386  2    118
   388    386    153  2    118
   386    151    152  2    118
   471    154    493  2    121
   471    493    494  2    121
   471    494    472  2    121
   472    494    391  2    121
   472    391    156  2    121
   391    494    390  2    121
   390    494    389  2    121
   390    389    155  2    121
   389    494    493  2    121
   389    493    154  2    121
   159    157    395  2    123
   395    157    393  2    123
   395    393    394  2    123
   394    393    392  2    123
   394    392    158  2    123
   162    160    400  2    126
   400    160    161  2    126
   165    163    401  2    128
   165    401    164  2    128
   434    166    167  2    131
   434    167    420  2    131
   434    420    168  2    131
   171    169    433  2    133
   171    433    170  2    133
   464    172    435  2    137
   464    435    173  2    137
   464    173    174  2    137
   452    175    176  2    139
   452    176    438  2    139
   452    438    177  2    139
   180    178    439  2    141
   180    439    179  2    141
   183    181    182  2    143
   186    184    185  2    145
   189    187    446  2    147
   446    187    188  2    147
   192    190    450  2    152
   450    190    191  2    152
   460    193    495  2    156
   460    495    456  2    156
   460    456    195  2    156
   456    495    455  2    156
   455    495    453  2    156
   455    453    454  2    156
   454    453    194  2    156
   453    495    193  2    156
   470    196    465  2    160
   470    465    466  2    160
   470    466    469  2    160
   469    466    198  2    160
   465    196    197  2    160
   496    499    500  1    167
   497    496    500  1    167
   497    500    501  1    167
   498    497    501  1    167
   500    499    503  1    167
   500    503    504  1    167
   501    500    504  1    167
   503    502    505  1    167
   504    503    505  1    167
   504    505    201  1    167
   504    201      1  1    167
   504      1    501  1    167
   501      1     20  1    167
   501     20    498  1    167
   498     20    221  1    167
   498    221    497  1    167
   497    221    219  1    167
   497    219     14  1    167
   497     14    496  1    167
   496     14    213  1    167
   496    213    499  1    167
   499    213     11  1    167
   499     11      8  1    167
   499      8    206  1    167
   499    206    503  1    167
   503    206    502  1    167
   502    206      5  1    167
   502      5    203  1    167
   502    203    505  1    167
   505    203    201  1    167
    14    219     17  1    167
    47     44     50  1    168
   506    508    509  1    168
   507    506    509  1    168
   507    509     53  1    168
   507     53    234  1    168
   507    234     50  1    168
   507     50    506  1    168
   506     50     44  1    168
   506     44     41  1    168
   506     41    230  1    168
   506    230    508  1    168
   508    230     39  1    168
   508     39    202  1    168
   508    202    204  1    168
   508    204    509  1    168
   509    204      4  1    168
   509      4     53  1    168
   202     39      2  1    168
     7     59    208  1    169
   208     59     56  1    169
   208     56    238  1    169
   208    238      6  1    169
     6    238     54  1    169
    10     62      9  1    170
     9     62     60  1    170
   260     80    254  1    171
   260    254     71  1    171
   260     71    250  1    171
   260    250    262  1    171
   262    250    247  1    171
   262    247    510  1    171
   262    510    511  1    171
   262    511     13  1    171
    13    511    215  1    171
   215    511    242  1    171
   215    242     12  1    171
    12    242     63  1    171
   242    511    244  1    171
   244    511    510  1    171
   244    510     65  1    171
    65    510    247  1    171
    65    247     68  1    171
   254     80     77  1    171
   254     77     74  1    171
   265     81    512  1    172
   265    512    513  1    172
   265    513     16  1    172
    16    513     15  1    172
    15    513    263  1    172
   263    513    261  1    172
   261    513    512  1    172
   261    512     81  1    172
    19     22    222  1    173
   222     22    515  1    173
   222    515    220  1    173
   220    515    267  1    173
   220    267     18  1    173
   267    515    514  1    173
   267    514     79  1    173
    79    514     86  1    173
    79     86     83  1    173
    79     83     78  1    173
    86    514    269  1    173
   269    514    515  1    173
   269    515     22  1    173
   516    517    518  1    174
   516    518    226  1    174
   516    226     29  1    174
   516     29     26  1    174
   516     26     23  1    174
   516     23     21  1    174
   516     21    517  1    174
   517     21      3  1    174
   517      3    519  1    174
   517    519    518  1    174
   518    519     32  1    174
   518     32    226  1    174
    32    519     35  1    174
    35    519     38  1    174
    38    519      3  1    174
   271     87    270  1    175
   271    270     24  1    175
   271     24     25  1    175
   281     92    279  1    176
   281    279    277  1    176
   281    277    521  1    176
   281    521    283  1    176
   283    521    285  1    176
   285    521    520  1    176
   285    520    522  1    176
   285    522    287  1    176
   287    522    272  1    176
   287    272     27  1    176
   287     27     28  1    176
   272    522     85  1    176
    85    522    273  1    176
    85    273     89  1    176
    85     89     84  1    176
   273    522    520  1    176
   273    520    275  1    176
   275    520    521  1    176
   275    521    277  1    176
   523    526    527  1    177
   524    523    527  1    177
   524    527    528  1    177
   525    524    528  1    177
   525    528    529  1    177
   526    530    531  1    177
   527    526    531  1    177
   527    531    532  1    177
   528    527    532  1    177
   528    532    533  1    177
   529    528    533  1    177
   531    530    534  1    177
   531    534    535  1    177
   532    531    535  1    177
   532    535    536  1    177
   533    532    536  1    177
   533    536    293  1    177
   533    293    291  1    177
   533    291    529  1    177
   529    291     95  1    177
   529     95    289  1    177
   529    289    525  1    177
   525    289     93  1    177
   525     93    524  1    177
   524     93    282  1    177
   524    282    523  1    177
   523    282    284  1    177
   523    284    286  1    177
   523    286    526  1    177
   526    286    288  1    177
   526    288     30  1    177
   526     30    530  1    177
   530     30    228  1    177
   530    228    534  1    177
   534    228     31  1    177
   534     31    297  1    177
   534    297    535  1    177
   535    297    295  1    177
   535    295    536  1    177
   536    295    293  1    177
   537    538    539  1    178
   537    539    303  1    178
   537    303    301  1    178
   537    301    294  1    178
   537    294    296  1    178
   537    296    538  1    178
   538    296    298  1    178
   538    298    481  1    178
   538    481    539  1    178
   539    481     42  1    178
   539     42     43  1    178
   539     43    305  1    178
   539    305    303  1    178
   481    298     34  1    178
    34    298     33  1    178
   294    301    292  1    178
   292    301    299  1    178
   292    299     96  1    178
   231     40    482  1    179
   231    482     37  1    179
    37    482     36  1    179
    45     46    306  1    180
   543    545    546  1    180
   546    545    547  1    180
   546    547    330  1    180
   546    330    328  1    180
   546    328    326  1    180
   546    326    543  1    180
   543    326    107  1    180
   543    107    104  1    180
   543    104    318  1    180
   543    318    542  1    180
   543    542    545  1    180
   545    542    544  1    180
   545    544    547  1    180
   547    544    302  1    180
   547    302    304  1    180
   547    304    306  1    180
   547    306    332  1    180
   547    332    330  1    180
   332    306     46  1    180
   302    544    300  1    180
   300    544    542  1    180
   300    542     94  1    180
    94    542    318  1    180
    94    318    290  1    180
   290    318    101  1    180
   290    101     91  1    180
    91    101    541  1    180
    91    541    280  1    180
   280    541    278  1    180
   278    541    540  1    180
   278    540    276  1    180
   276    540    307  1    180
   276    307    274  1    180
   274    307     90  1    180
   307    540     98  1    180
    98    540    311  1    180
   311    540    541  1    180
   311    541    101  1    180
    49    122    549  1    181
    49    549    333  1    181
    49    333     48  1    181
   333    549    331  1    181
   331    549    548  1    181
   331    548    329  1    181
   329    548    327  1    181
   327    548    116  1    181
   327    116    113  1    181
   327    113    110  1    181
   327    110    108  1    181
   116    548    119  1    181
   119    548    549  1    181
   119    549    122  1    181
   239     55    352  1    182
   239    352    552  1    182
   239    552    551  1    182
   239    551     52  1    182
    52    551    550  1    182
    52    550    235  1    182
   235    550     51  1    182
    51    550    123  1    182
   123    550    348  1    182
   348    550    551  1    182
   348    551    350  1    182
   350    551    552  1    182
   350    552    125  1    182
   125    552    352  1    182
   125    352    128  1    182
    58     61     57  1    183
   555    554    557  1    183
   555    557    558  1    183
   556    555    558  1    183
   556    558    243  1    183
   556    243    553  1    183
   556    553    362  1    183
   556    362    360  1    183
   556    360    555  1    183
   555    360    358  1    183
   555    358    554  1    183
   554    358    134  1    183
   554    134    131  1    183
   554    131    129  1    183
   554    129    353  1    183
   554    353    557  1    183
   557    353     57  1    183
   557     57    558  1    183
   558     57     61  1    183
   558     61    243  1    183
   362    553     64  1    183
    64    553    245  1    183
   245    553    243  1    183
    67    140    561  1    184
    67    561     66  1    184
    66    561    363  1    184
   363    561    361  1    184
   361    561    560  1    184
   361    560    359  1    184
   359    560    559  1    184
   359    559    135  1    184
   135    559    137  1    184
   137    559    366  1    184
   366    559    560  1    184
   366    560    140  1    184
   140    560    561  1    184
   562    563    564  1    185
   563    565    566  1    185
   564    563    566  1    185
   564    566    567  1    185
   565    568    569  1    185
   566    565    569  1    185
   566    569    249  1    185
   566    249    252  1    185
   566    252    567  1    185
   567    252     70  1    185
   567     70    378  1    185
   567    378    564  1    185
   564    378    376  1    185
   564    376    562  1    185
   562    376    143  1    185
   562    143    374  1    185
   562    374    563  1    185
   563    374    372  1    185
   563    372    565  1    185
   565    372    370  1    185
   565    370    568  1    185
   568    370    141  1    185
   568    141     69  1    185
   568     69    569  1    185
   569     69    249  1    185
    73    152    255  1    186
   255    152    384  1    186
   255    384    379  1    186
   255    379     72  1    186
   379    384    377  1    186
   377    384    149  1    186
   377    149    144  1    186
   144    149    146  1    186
    76     82     88  1    187
    76     88     75  1    187
    75     88    153  1    187
   153     88    308  1    187
   153    308    155  1    187
   155    308     97  1    187
   155     97    158  1    187
   570    573    574  1    188
   571    570    574  1    188
   571    574    575  1    188
   571    575    576  1    188
   574    573    577  1    188
   574    577    578  1    188
   575    574    578  1    188
   575    578    579  1    188
   575    579    580  1    188
   576    575    580  1    188
   579    578    581  1    188
   579    581    582  1    188
   580    579    582  1    188
   580    582    408  1    188
   580    408    406  1    188
   580    406    576  1    188
   576    406    404  1    188
   576    404    571  1    188
   571    404    402  1    188
   571    402    570  1    188
   570    402    164  1    188
   570    164    572  1    188
   570    572    573  1    188
   573    572    314  1    188
   573    314    577  1    188
   577    314    100  1    188
   577    100    578  1    188
   578    100    475  1    188
   578    475    581  1    188
   581    475    105  1    188
   581    105    582  1    188
   582    105    410  1    188
   582    410    408  1    188
   410    105    106  1    188
   410    106    109  1    188
   314    572     99  1    188
    99    572    398  1    188
    99    398    159  1    188
   398    572    161  1    188
   161    572    164  1    188
   478    102    583  1    189
   478    583    320  1    189
   478    320    103  1    189
   320    583    102  1    189
   584    585    586  1    190
   586    585    588  1    190
   586    588    589  1    190
   587    586    589  1    190
   587    589    590  1    190
   588    591    592  1    190
   589    588    592  1    190
   589    592    590  1    190
   590    592    424  1    190
   590    424    421  1    190
   590    421    418  1    190
   590    418    587  1    190
   587    418    416  1    190
   587    416    586  1    190
   586    416    414  1    190
   586    414    584  1    190
   584    414    412  1    190
   584    412    403  1    190
   584    403    405  1    190
   584    405    585  1    190
   585    405    407  1    190
   585    407    588  1    190
   588    407    409  1    190
   588    409    591  1    190
   591    409    593  1    190
   591    593    427  1    190
   591    427    592  1    190
   592    427    424  1    190
   427    593    430  1    190
   430    593    170  1    190
   170    593    411  1    190
   170    411    112  1    190
   112    411    111  1    190
   411    593    409  1    190
   403    412    165  1    190
   418    421    167  1    190
   115    171    114  1    191
   597    596    598  1    192
   597    598    595  1    192
   597    595    436  1    192
   597    436    594  1    192
   597    594    596  1    192
   596    594    491  1    192
   596    491    598  1    192
   598    491    489  1    192
   598    489    442  1    192
   598    442    185  1    192
   598    185    595  1    192
   595    185    440  1    192
   595    440    182  1    192
   595    182    436  1    192
   436    182    176  1    192
   176    182    179  1    192
   442    489    444  1    192
   444    489    487  1    192
   444    487    188  1    192
   188    487    485  1    192
   188    485    118  1    192
   118    485    483  1    192
   118    483    117  1    192
   117    483    169  1    192
   169    483    432  1    192
   432    483    429  1    192
   429    483    199  1    192
   429    199    426  1    192
   426    199    491  1    192
   426    491    594  1    192
   426    594    423  1    192
   423    594    168  1    192
   168    594    173  1    192
   173    594    436  1    192
   351    124    448  1    193
   351    448    599  1    193
   351    599    349  1    193
   349    599    121  1    193
   121    599    120  1    193
   120    599    189  1    193
   189    599    448  1    193
   127    130    601  1    194
   127    601    126  1    194
   126    601    449  1    194
   449    601    600  1    194
   449    600    445  1    194
   449    445    187  1    194
   445    600    443  1    194
   443    600    186  1    194
   186    600    130  1    194
   130    600    601  1    194
   133    136    603  1    195
   133    603    132  1    195
   132    603    184  1    195
   184    603    602  1    195
   184    602    441  1    195
   441    602    183  1    195
   183    602    191  1    195
   191    602    136  1    195
   136    602    603  1    195
   604    605    606  1    196
   606    605    367  1    196
   606    367    139  1    196
   606    139    371  1    196
   606    371    373  1    196
   606    373    604  1    196
   604    373    375  1    196
   604    375    194  1    196
   604    194    177  1    196
   604    177    605  1    196
   605    177    178  1    196
   605    178    192  1    196
   605    192    138  1    196
   605    138    367  1    196
   194    375    145  1    196
   145    375    142  1    196
   607    608    609  1    197
   607    609    610  1    197
   607    610    611  1    197
   607    611    612  1    197
   607    612    613  1    197
   607    613    608  1    197
   609    608    615  1    197
   609    615    616  1    197
   609    616    617  1    197
   610    609    617  1    197
   610    617    618  1    197
   608    613    619  1    197
   608    619    614  1    197
   608    614    615  1    197
   614    619    621  1    197
   614    621    620  1    197
   614    620    615  1    197
   615    620    461  1    197
   615    461    195  1    197
   615    195    616  1    197
   616    195    147  1    197
   616    147    617  1    197
   617    147    148  1    197
   617    148    618  1    197
   618    148    197  1    197
   618    197    162  1    197
   618    162    611  1    197
   618    611    610  1    197
   611    162    163  1    197
   611    163    413  1    197
   611    413    612  1    197
   612    413    415  1    197
   612    415    613  1    197
   613    415    417  1    197
   613    417    619  1    197
   619    417    419  1    197
   619    419    621  1    197
   621    419    166  1    197
   621    166    172  1    197
   621    172    620  1    197
   620    172    461  1    197
   151    154    385  1    198
   385    154    198  1    198
   385    198    150  1    198
   399    160    196  1    199
   399    196    156  1    199
   399    156    157  1    199
   175    193    463  1    200
   175    463    622  1    200
   175    622    437  1    200
   437    622    174  1    200
   174    622    463  1    200
   181    190    180  1    201
   492    200    623  1    202
   492    623    490  1    202
   490    623    488  1    202
   488    623    486  1    202
   486    623    484  1    202
   484    623    200  1    202
