# MSMS solvent excluded surface faces for fragments/fragment249.xyzr
#faces  #sphere density probe_r
   1426      35  3.00  1.50
     1      5    241  3      3
   241      5    243  3      3
   241    243    242  3      3
   242    243    244  3      3
   242    244      2  3      3
     2    244      4  3      3
     5      8    245  3      5
   245      8    248  3      5
   245    248    246  3      5
   246    248    249  3      5
   246    249    247  3      5
   247    249    250  3      5
   247    250      6  3      5
     6    250      7  3      5
     8    253    251  3      7
   251    253    254  3      7
   251    254    252  3      7
   252    254    255  3      7
   252    255      9  3      7
     9    255    256  3      7
   253     11    254  3      7
   254     11    257  3      7
   254    257    255  3      7
   255    257    258  3      7
   255    258    256  3      7
   256    258     10  3      7
    11     14    259  3      9
   259     14    260  3      9
   259    260     12  3      9
    12    260     13  3      9
    14    261     15  3     11
    15    261    262  3     11
   261     17    262  3     11
   262     17     16  3     11
    17     20    263  3     13
   263     20    264  3     13
   263    264     18  3     13
    18    264     19  3     13
    20    265     21  3     14
    21    265    266  3     14
   265    267    266  3     14
   266    267    268  3     14
   267    269    268  3     14
   268    269    270  3     14
   269    271    270  3     14
   270    271    272  3     14
   271      1    272  3     14
   272      1      3  3     14
    21    273     19  3     16
    19    273    274  3     16
   273    275    274  3     16
   274    275    276  3     16
   275    277    276  3     16
   276    277    278  3     16
   277    279    278  3     16
   278    279    280  3     16
   279     23    280  3     16
   280     23     22  3     16
    23     26    281  3     18
   281     26    282  3     18
   281    282     24  3     18
    24    282     25  3     18
    26     29    283  3     20
   283     29    284  3     20
   283    284     27  3     20
    27    284     28  3     20
    29    286    285  3     22
   285    286    287  3     22
   285    287     30  3     22
    30    287    288  3     22
   286     32    287  3     22
   287     32    289  3     22
   287    289    288  3     22
   288    289     31  3     22
    32      3    290  3     23
   290      3    292  3     23
   290    292    291  3     23
   291    292    293  3     23
   291    293     33  3     23
    33    293      2  3     23
    33     35    294  3     25
   294     35    296  3     25
   294    296    295  3     25
   295    296    297  3     25
   295    297     31  3     25
    31    297     34  3     25
    35     38    298  3     27
   298     38    299  3     27
   298    299     36  3     27
    36    299     37  3     27
    38     41     39  3     29
    39     41     40  3     29
    41     44     42  3     31
    42     44     43  3     31
    44     47     45  3     33
    45     47     46  3     33
    47    300     48  3     34
    48    300    301  3     34
   300    302    301  3     34
   301    302    303  3     34
   302    304    303  3     34
   303    304    305  3     34
   304      4    305  3     34
   305      4      6  3     34
    48    306     46  3     36
    46    306    307  3     36
   306     50    307  3     36
   307     50     49  3     36
    50     53    308  3     38
   308     53    309  3     38
   308    309     51  3     38
    51    309     52  3     38
    53    311    310  3     40
   310    311    312  3     40
   310    312     54  3     40
    54    312    313  3     40
   311     56    312  3     40
   312     56    314  3     40
   312    314    313  3     40
   313    314     55  3     40
    56     59    315  3     42
   315     59    316  3     42
   315    316     57  3     42
    57    316     58  3     42
    59    317     60  3     44
    60    317    318  3     44
   317     62    318  3     44
   318     62     61  3     44
    62    319     63  3     45
    63    319    320  3     45
   319    321    320  3     45
   320    321    322  3     45
   321      7    322  3     45
   322      7      9  3     45
    63     65     61  3     47
    61     65     64  3     47
    65     68     66  3     49
    66     68     67  3     49
    68     71    323  3     51
   323     71    324  3     51
   323    324     69  3     51
    69    324     70  3     51
    71     74    325  3     53
   325     74    326  3     53
   325    326     72  3     53
    72    326     73  3     53
    74     77    327  3     55
   327     77    328  3     55
   327    328     75  3     55
    75    328     76  3     55
    77     10    329  3     56
   329     10    330  3     56
   329    330     78  3     56
    78    330     12  3     56
    78     80    331  3     58
   331     80    332  3     58
   331    332     76  3     58
    76    332     79  3     58
    80     13     81  3     59
    81     13     15  3     59
    81     83    333  3     61
   333     83    335  3     61
   333    335    334  3     61
   334    335    336  3     61
   334    336     79  3     61
    79    336     82  3     61
    83     86    337  3     63
   337     86    339  3     63
   337    339    338  3     63
   338    339    340  3     63
   338    340     84  3     63
    84    340     85  3     63
    86     89    341  3     65
   341     89    342  3     65
   341    342     87  3     65
    87    342     88  3     65
    89    343     90  3     66
    90    343    344  3     66
   343     16    344  3     66
   344     16     18  3     66
    90     92    345  3     68
   345     92    346  3     68
   345    346     88  3     68
    88    346     91  3     68
    92    348    347  3     70
   347    348    349  3     70
   347    349     93  3     70
    93    349    350  3     70
   348     95    349  3     70
   349     95    351  3     70
   349    351    350  3     70
   350    351     94  3     70
    95    353    352  3     71
   352    353    354  3     71
   352    354     96  3     71
    96    354    355  3     71
   353     22    354  3     71
   354     22    356  3     71
   354    356    355  3     71
   355    356     24  3     71
    96    357     94  3     73
    94    357    358  3     73
   357     98    358  3     73
   358     98     97  3     73
    98    101    359  3     75
   359    101    360  3     75
   359    360     99  3     75
    99    360    100  3     75
   101    104    102  3     77
   102    104    103  3     77
   104    107    105  3     79
   105    107    106  3     79
   107    361    108  3     81
   108    361    362  3     81
   361    363    362  3     81
   362    363    364  3     81
   363    110    364  3     81
   364    110    109  3     81
   110     34    111  3     82
   111     34     36  3     82
   111    365    109  3     84
   109    365    366  3     84
   365    113    366  3     84
   366    113    112  3     84
   113    367    114  3     85
   114    367    368  3     85
   367    369    368  3     85
   368    369    370  3     85
   369     37    370  3     85
   370     37     39  3     85
   114    116    112  3     87
   112    116    115  3     87
   116    119    371  3     89
   371    119    372  3     89
   371    372    117  3     89
   117    372    118  3     89
   119    373    120  3     91
   120    373    374  3     91
   373    122    374  3     91
   374    122    121  3     91
   122    125    375  3     93
   375    125    376  3     93
   375    376    123  3     93
   123    376    124  3     93
   125    377    126  3     94
   126    377    378  3     94
   377     40    378  3     94
   378     40     42  3     94
   126    128    124  3     96
   124    128    127  3     96
   128    131    129  3     98
   129    131    130  3     98
   131    134    132  3    100
   132    134    133  3    100
   134    379    135  3    101
   135    379    380  3    101
   379     43    380  3    101
   380     43     45  3    101
   135    381    133  3    102
   133    381    382  3    102
   381    383    382  3    102
   382    383    384  3    102
   383     49    384  3    102
   384     49     51  3    102
   132    137    130  3    104
   130    137    136  3    104
   137    385    138  3    106
   138    385    386  3    106
   385    140    386  3    106
   386    140    139  3    106
   140    143    141  3    108
   141    143    142  3    108
   143    387    144  3    109
   144    387    388  3    109
   387    389    388  3    109
   388    389    390  3    109
   389    391    390  3    109
   390    391    392  3    109
   391     52    392  3    109
   392     52     54  3    109
   144    146    393  3    111
   393    146    394  3    111
   393    394    142  3    111
   142    394    145  3    111
   146    395    147  3    112
   147    395    396  3    112
   395    397    396  3    112
   396    397    398  3    112
   397    399    398  3    112
   398    399    400  3    112
   399     55    400  3    112
   400     55     57  3    112
   147    149    145  3    114
   145    149    148  3    114
   149    401    150  3    116
   150    401    402  3    116
   401    152    402  3    116
   402    152    151  3    116
   152    155    153  3    118
   153    155    154  3    118
   155    403    156  3    119
   156    403    404  3    119
   403    405    404  3    119
   404    405    406  3    119
   405     58    406  3    119
   406     58     60  3    119
   156    158    407  3    121
   407    158    408  3    121
   407    408    154  3    121
   154    408    157  3    121
   158    409    159  3    122
   159    409    410  3    122
   409     64    410  3    122
   410     64     66  3    122
   159    161    157  3    124
   157    161    160  3    124
   161    164    162  3    126
   162    164    163  3    126
   164    167    411  3    128
   411    167    412  3    128
   411    412    165  3    128
   165    412    166  3    128
   167     67    413  3    129
   413     67    414  3    129
   413    414    168  3    129
   168    414     69  3    129
   168    415    166  3    131
   166    415    416  3    131
   415    417    416  3    131
   416    417    418  3    131
   417    170    418  3    131
   418    170    169  3    131
   170    420    419  3    133
   419    420    421  3    133
   419    421    171  3    133
   171    421    422  3    133
   420    173    421  3    133
   421    173    423  3    133
   421    423    422  3    133
   422    423    172  3    133
   173    424    174  3    135
   174    424    425  3    135
   424    426    425  3    135
   425    426    427  3    135
   426    176    427  3    135
   427    176    175  3    135
   176    179    428  3    137
   428    179    429  3    137
   428    429    177  3    137
   177    429    178  3    137
   179    182    430  3    139
   430    182    431  3    139
   430    431    180  3    139
   180    431    181  3    139
   182    432    183  3    140
   183    432    433  3    140
   432    434    433  3    140
   433    434    435  3    140
   434     70    435  3    140
   435     70     72  3    140
   183    436    181  3    142
   181    436    437  3    142
   436    438    437  3    142
   437    438    439  3    142
   438    440    439  3    142
   439    440    441  3    142
   440    185    441  3    142
   441    185    184  3    142
   185     85    186  3    143
   186     85     87  3    143
   186    188    442  3    145
   442    188    443  3    145
   442    443    184  3    145
   184    443    187  3    145
   188     91    189  3    146
   189     91     93  3    146
   189     97    444  3    147
   444     97    445  3    147
   444    445    187  3    147
   187    445     99  3    147
   180    446    178  3    149
   178    446    447  3    149
   446    448    447  3    149
   447    448    449  3    149
   448    450    449  3    149
   449    450    451  3    149
   450    452    451  3    149
   451    452    453  3    149
   452    191    453  3    149
   453    191    190  3    149
   191    100    192  3    150
   192    100    102  3    150
   192    194    454  3    152
   454    194    455  3    152
   454    455    190  3    152
   190    455    193  3    152
   194    103    195  3    153
   195    103    105  3    153
   195    197    456  3    155
   456    197    457  3    155
   456    457    193  3    155
   193    457    196  3    155
   197    200    458  3    157
   458    200    459  3    157
   458    459    198  3    157
   198    459    199  3    157
   200    106    201  3    158
   201    106    108  3    158
   201    115    460  3    159
   460    115    461  3    159
   460    461    199  3    159
   199    461    117  3    159
   198    203    462  3    161
   462    203    463  3    161
   462    463    196  3    161
   196    463    202  3    161
   203    464    204  3    163
   204    464    465  3    163
   464    466    465  3    163
   465    466    467  3    163
   466    206    467  3    163
   467    206    205  3    163
   206    118    468  3    164
   468    118    469  3    164
   468    469    207  3    164
   207    469    120  3    164
   207    209    470  3    166
   470    209    471  3    166
   470    471    205  3    166
   205    471    208  3    166
   209    473    472  3    167
   472    473    474  3    167
   472    474    210  3    167
   210    474    475  3    167
   473    121    474  3    167
   474    121    476  3    167
   474    476    475  3    167
   475    476    123  3    167
   210    172    477  3    168
   477    172    479  3    168
   477    479    478  3    168
   478    479    480  3    168
   478    480    208  3    168
   208    480    174  3    168
   204    482    481  3    169
   481    482    483  3    169
   481    483    202  3    169
   202    483    484  3    169
   482    175    483  3    169
   483    175    485  3    169
   483    485    484  3    169
   484    485    177  3    169
   171    163    486  3    170
   486    163    488  3    170
   486    488    487  3    170
   487    488    489  3    170
   487    489    169  3    170
   169    489    165  3    170
   162    490    160  3    172
   160    490    491  3    172
   490    212    491  3    172
   491    212    211  3    172
   212    493    492  3    174
   492    493    494  3    174
   492    494    213  3    174
   213    494    495  3    174
   493    496    494  3    174
   494    496    497  3    174
   494    497    495  3    174
   495    497    498  3    174
   496    215    497  3    174
   497    215    499  3    174
   497    499    498  3    174
   498    499    214  3    174
   215    500    216  3    175
   216    500    501  3    175
   500    127    501  3    175
   501    127    129  3    175
   216    218    214  3    177
   214    218    217  3    177
   218    502    219  3    179
   219    502    503  3    179
   502    504    503  3    179
   503    504    505  3    179
   504    506    505  3    179
   505    506    507  3    179
   506    221    507  3    179
   507    221    220  3    179
   221    508    222  3    180
   222    508    509  3    180
   508    136    509  3    180
   509    136    138  3    180
   222    224    220  3    182
   220    224    223  3    182
   224    139    225  3    183
   225    139    141  3    183
   225    227    510  3    185
   510    227    511  3    185
   510    511    223  3    185
   223    511    226  3    185
   227    513    512  3    187
   512    513    514  3    187
   512    514    228  3    187
   228    514    515  3    187
   513    516    514  3    187
   514    516    517  3    187
   514    517    515  3    187
   515    517    518  3    187
   516    230    517  3    187
   517    230    519  3    187
   517    519    518  3    187
   518    519    229  3    187
   230    233    520  3    189
   520    233    521  3    189
   520    521    231  3    189
   231    521    232  3    189
   233    148    234  3    190
   234    148    150  3    190
   234    236    232  3    192
   232    236    235  3    192
   236    522    237  3    193
   237    522    523  3    193
   522    151    523  3    193
   523    151    153  3    193
   237    524    235  3    195
   235    524    525  3    195
   524    526    525  3    195
   525    526    527  3    195
   526    528    527  3    195
   527    528    529  3    195
   528    239    529  3    195
   529    239    238  3    195
   239    211    240  3    196
   240    211    213  3    196
   240    530    238  3    197
   238    530    531  3    197
   530    532    531  3    197
   531    532    533  3    197
   532    534    533  3    197
   533    534    535  3    197
   534    536    535  3    197
   535    536    537  3    197
   536    538    537  3    197
   537    538    539  3    197
   538    217    539  3    197
   539    217    219  3    197
   231    540    229  3    198
   229    540    541  3    198
   540    542    541  3    198
   541    542    543  3    198
   542    544    543  3    198
   543    544    545  3    198
   544    546    545  3    198
   545    546    547  3    198
   546    548    547  3    198
   547    548    549  3    198
   548    226    549  3    198
   549    226    228  3    198
    84    550     82  3    199
    82    550    551  3    199
   550     73    551  3    199
   551     73     75  3    199
    30    552     28  3    200
    28    552    553  3    200
   552    554    553  3    200
   553    554    555  3    200
   554    556    555  3    200
   555    556    557  3    200
   556    558    557  3    200
   557    558    559  3    200
   558     25    559  3    200
   559     25     27  3    200
     3      1    241  2      1
     3    241    292  2      1
   292    241    242  2      1
   292    242    293  2      1
   293    242      2  2      1
     6      4    247  2      2
   247      4    244  2      2
   247    244    246  2      2
   246    244    243  2      2
   246    243    245  2      2
   245    243      5  2      2
     9      7    250  2      4
     9    250    252  2      4
   252    250    249  2      4
   252    249    251  2      4
   251    249    248  2      4
   251    248      8  2      4
   330     10    258  2      6
   330    258    560  2      6
   330    560     12  2      6
    12    560    259  2      6
   259    560    257  2      6
   259    257     11  2      6
   257    560    258  2      6
    15     13    260  2      8
    15    260     14  2      8
    18     16    263  2     10
   263     16     17  2     10
    21     19    264  2     12
    21    264     20  2     12
   356     22     23  2     15
   356     23    281  2     15
   356    281     24  2     15
    27     25    283  2     17
   283     25    282  2     17
   283    282     26  2     17
    30     28    284  2     19
    30    284    285  2     19
   285    284     29  2     19
   295     31    561  2     21
   295    561    291  2     21
   295    291    294  2     21
   294    291     33  2     21
   291    561    290  2     21
   290    561    289  2     21
   290    289     32  2     21
   289    561     31  2     21
    36     34    297  2     24
    36    297    298  2     24
   298    297    296  2     24
   298    296     35  2     24
    39     37    299  2     26
    39    299     38  2     26
    42     40     41  2     28
    45     43     44  2     30
    48     46     47  2     32
    51     49    308  2     35
   308     49     50  2     35
    54     52    310  2     37
   310     52    309  2     37
   310    309     53  2     37
    57     55    314  2     39
    57    314    315  2     39
   315    314     56  2     39
    60     58    316  2     41
    60    316     59  2     41
    63     61     62  2     43
    66     64     65  2     46
   414     67    323  2     48
   414    323     69  2     48
   323     67     68  2     48
    72     70    325  2     50
   325     70    324  2     50
   325    324     71  2     50
    75     73    327  2     52
   327     73    326  2     52
   327    326     74  2     52
   331     76    328  2     54
   331    328    563  2     54
   331    563    562  2     54
   331    562     78  2     54
    78    562    329  2     54
   329    562    563  2     54
   329    563     77  2     54
    77    563    328  2     54
   334     79    332  2     57
   334    332     80  2     57
   334     80    333  2     57
   333     80     81  2     57
    84     82    336  2     60
    84    336    338  2     60
   338    336    335  2     60
   338    335    337  2     60
   337    335     83  2     60
    87     85    340  2     62
    87    340    339  2     62
    87    339    341  2     62
   341    339     86  2     62
   345     88    342  2     64
   345    342     89  2     64
   345     89     90  2     64
    93     91    347  2     67
   347     91    346  2     67
   347    346     92  2     67
    96     94    351  2     69
    96    351    352  2     69
   352    351     95  2     69
   445     97     98  2     72
   445     98    359  2     72
   445    359     99  2     72
   102    100    360  2     74
   102    360    101  2     74
   105    103    104  2     76
   108    106    107  2     78
   111    109    110  2     80
   114    112    113  2     83
   461    115    116  2     86
   461    116    371  2     86
   461    371    117  2     86
   469    118    372  2     88
   469    372    119  2     88
   469    119    120  2     88
   476    121    122  2     90
   476    122    375  2     90
   476    375    123  2     90
   126    124    376  2     92
   126    376    125  2     92
   129    127    128  2     95
   132    130    131  2     97
   135    133    134  2     99
   138    136    137  2    103
   141    139    140  2    105
   393    142    143  2    107
   393    143    144  2    107
   147    145    394  2    110
   147    394    146  2    110
   150    148    149  2    113
   153    151    152  2    115
   407    154    155  2    117
   407    155    156  2    117
   159    157    408  2    120
   159    408    158  2    120
   162    160    161  2    123
   488    163    164  2    125
   488    164    411  2    125
   488    411    489  2    125
   489    411    165  2    125
   168    166    412  2    127
   168    412    413  2    127
   413    412    167  2    127
   487    169    170  2    130
   487    170    419  2    130
   487    419    486  2    130
   486    419    171  2    130
   479    172    423  2    132
   479    423    480  2    132
   480    423    173  2    132
   480    173    174  2    132
   485    175    176  2    134
   485    176    428  2    134
   485    428    177  2    134
   180    178    430  2    136
   430    178    429  2    136
   430    429    179  2    136
   183    181    431  2    138
   183    431    182  2    138
   442    184    185  2    141
   442    185    186  2    141
   444    187    443  2    144
   444    443    188  2    144
   444    188    189  2    144
   454    190    191  2    148
   454    191    192  2    148
   456    193    455  2    151
   456    455    194  2    151
   456    194    195  2    151
   462    196    457  2    154
   462    457    458  2    154
   462    458    198  2    154
   458    457    197  2    154
   460    199    459  2    156
   460    459    201  2    156
   201    459    200  2    156
   481    202    463  2    160
   481    463    204  2    160
   204    463    203  2    160
   470    205    206  2    162
   470    206    468  2    162
   470    468    207  2    162
   478    208    471  2    165
   478    471    209  2    165
   478    209    477  2    165
   477    209    472  2    165
   477    472    210  2    165
   213    211    492  2    171
   492    211    212  2    171
   216    214    499  2    173
   216    499    215  2    173
   219    217    218  2    176
   222    220    221  2    178
   510    223    224  2    181
   510    224    225  2    181
   228    226    512  2    184
   512    226    511  2    184
   512    511    227  2    184
   231    229    519  2    186
   231    519    520  2    186
   520    519    230  2    186
   234    232    521  2    188
   234    521    233  2    188
   237    235    236  2    191
   240    238    239  2    194
   564    566    567  1    201
   565    571    572  1    201
   566    565    572  1    201
   567    566    572  1    201
   567    572    573  1    201
   568    576    577  1    201
   569    568    577  1    201
   570    569    577  1    201
   570    577    578  1    201
   571    570    578  1    201
   571    578    579  1    201
   572    571    579  1    201
   573    572    579  1    201
   573    579    580  1    201
   574    573    580  1    201
   576    575    581  1    201
   577    576    581  1    201
   578    577    581  1    201
   579    578    581  1    201
   580    579    581  1    201
   575    580    581  1    201
   580    575    265  1    201
   580    265    574  1    201
   574    265     20  1    201
   574     20     17  1    201
   574     17    567  1    201
   574    567    573  1    201
   567     17    261  1    201
   567    261    564  1    201
   564    261     14  1    201
   564     14     11  1    201
   564     11    253  1    201
   564    253    565  1    201
   564    565    566  1    201
   565    253      8  1    201
   565      8    571  1    201
   571      8    570  1    201
   570      8      5  1    201
   570      5    569  1    201
   569      5    568  1    201
   568      5      1  1    201
   568      1    271  1    201
   568    271    576  1    201
   576    271    269  1    201
   576    269    267  1    201
   576    267    575  1    201
   575    267    265  1    201
   583    582    585  1    202
   583    585    586  1    202
   584    583    586  1    202
   584    586     47  1    202
   584     47     44  1    202
   584     44     41  1    202
   584     41    583  1    202
   583     41     38  1    202
   583     38    582  1    202
   582     38     35  1    202
   582     35     33  1    202
   582     33    585  1    202
   585     33      2  1    202
   585      2    587  1    202
   585    587    302  1    202
   585    302    586  1    202
   586    302    300  1    202
   586    300     47  1    202
   302    587    304  1    202
   304    587      2  1    202
   304      2      4  1    202
   588    591    592  1    203
   589    588    592  1    203
   592    591    595  1    203
   592    595    596  1    203
   594    593    597  1    203
   596    595    597  1    203
   593    596    597  1    203
   597    595    311  1    203
   597    311     53  1    203
   597     53    594  1    203
   594     53     50  1    203
   594     50    590  1    203
   594    590    303  1    203
   594    303    305  1    203
   594    305    593  1    203
   593    305      6  1    203
   593      6    596  1    203
   596      6      7  1    203
   596      7    592  1    203
   592      7    589  1    203
   589      7    321  1    203
   589    321    319  1    203
   589    319    588  1    203
   588    319    317  1    203
   588    317     59  1    203
   588     59     56  1    203
   588     56    591  1    203
   591     56    311  1    203
   591    311    595  1    203
   317    319     62  1    203
   303    590    301  1    203
   301    590    306  1    203
   301    306     48  1    203
   306    590     50  1    203
    10     77    256  1    204
    77     74    598  1    204
    77    598    320  1    204
    77    320    256  1    204
   256    320    322  1    204
   256    322      9  1    204
   320    598     63  1    204
    63    598     65  1    204
    65    598     71  1    204
    65     71     68  1    204
    71    598     74  1    204
    78     12     80  1    205
    13     80     12  1    205
   343     89     86  1    206
   343     86     83  1    206
   343     83    262  1    206
   343    262     16  1    206
   262     83     81  1    206
   262     81     15  1    206
   599    603    604  1    207
   600    599    604  1    207
   600    604    605  1    207
   601    600    605  1    207
   601    605    606  1    207
   603    608    609  1    207
   604    603    609  1    207
   604    609    610  1    207
   605    604    610  1    207
   605    610    611  1    207
   606    605    611  1    207
   602    606    611  1    207
   602    611    607  1    207
   609    608    613  1    207
   609    613    614  1    207
   610    609    614  1    207
   610    614    615  1    207
   611    610    615  1    207
   612    611    615  1    207
   607    611    612  1    207
   612    615    276  1    207
   612    276    278  1    207
   612    278    607  1    207
   607    278    280  1    207
   607    280    602  1    207
   602    280     22  1    207
   602     22    353  1    207
   602    353     95  1    207
   602     95    601  1    207
   602    601    606  1    207
   601     95    348  1    207
   601    348    600  1    207
   600    348    599  1    207
   599    348     92  1    207
   599     92     90  1    207
   599     90    603  1    207
   603     90    344  1    207
   603    344    608  1    207
   608    344     18  1    207
   608     18    613  1    207
   613     18     19  1    207
   613     19    614  1    207
   614     19    274  1    207
   614    274    615  1    207
   615    274    276  1    207
   616    619    620  1    208
   617    616    620  1    208
   617    620    621  1    208
   618    617    621  1    208
   618    621    622  1    208
   619    623    624  1    208
   620    619    624  1    208
   620    624    625  1    208
   621    620    625  1    208
   621    625    622  1    208
   622    625    272  1    208
   622    272      3  1    208
   622      3     32  1    208
   622     32    618  1    208
   618     32    286  1    208
   618    286    617  1    208
   617    286     29  1    208
   617     29    616  1    208
   616     29     26  1    208
   616     26    279  1    208
   616    279    619  1    208
   619    279    277  1    208
   619    277    623  1    208
   623    277    275  1    208
   623    275    266  1    208
   623    266    268  1    208
   623    268    624  1    208
   624    268    270  1    208
   624    270    625  1    208
   625    270    272  1    208
   266    275    273  1    208
   266    273     21  1    208
   279     26     23  1    208
   552     30    288  1    209
   552    288     34  1    209
   552     34    110  1    209
   552    110    554  1    209
   554    110    363  1    209
   554    363    556  1    209
   556    363    361  1    209
   556    361    107  1    209
   556    107    626  1    209
   556    626    627  1    209
   556    627    558  1    209
   558    627    628  1    209
   558    628     24  1    209
   558     24     25  1    209
    24    628    355  1    209
   355    628     96  1    209
    96    628    627  1    209
    96    627    357  1    209
   357    627    626  1    209
   357    626    104  1    209
   357    104    101  1    209
   357    101     98  1    209
   104    626    107  1    209
    34    288     31  1    209
   630    629    631  1    210
   630    631    632  1    210
   630    632    553  1    210
   630    553    555  1    210
   630    555    557  1    210
   630    557    629  1    210
   629    557    559  1    210
   629    559    631  1    210
   631    559     27  1    210
   631     27     28  1    210
   631     28    632  1    210
   632     28    553  1    210
   367    113    365  1    211
   367    365    633  1    211
   367    633    369  1    211
   369    633     37  1    211
    37    633     36  1    211
    36    633    111  1    211
   111    633    365  1    211
   377    125    635  1    212
   377    635    636  1    212
   377    636     40  1    212
    40    636     39  1    212
    39    636    370  1    212
   370    636    635  1    212
   370    635    368  1    212
   368    635    634  1    212
   368    634    114  1    212
   114    634    116  1    212
   116    634    119  1    212
   119    634    373  1    212
   373    634    635  1    212
   373    635    122  1    212
   122    635    125  1    212
   134    131    379  1    213
   379    131    637  1    213
   379    637     43  1    213
    43    637     42  1    213
    42    637    378  1    213
   378    637    126  1    213
   126    637    128  1    213
   128    637    131  1    213
   307     49    383  1    214
   307    383     46  1    214
    46    383    381  1    214
    46    381     45  1    214
    45    381    380  1    214
   380    381    135  1    214
   132    133    137  1    215
   387    143    140  1    215
   387    140    640  1    215
   387    640    639  1    215
   387    639    389  1    215
   389    639    638  1    215
   389    638    641  1    215
   389    641    391  1    215
   391    641    384  1    215
   391    384     51  1    215
   391     51     52  1    215
   384    641    382  1    215
   382    641    638  1    215
   382    638    133  1    215
   133    638    137  1    215
   137    638    639  1    215
   137    639    385  1    215
   385    639    640  1    215
   385    640    140  1    215
   642    646    647  1    216
   643    642    647  1    216
   643    647    648  1    216
   644    643    648  1    216
   644    648    649  1    216
   645    651    652  1    216
   646    645    652  1    216
   647    646    652  1    216
   647    652    653  1    216
   648    647    653  1    216
   648    653    654  1    216
   649    648    654  1    216
   650    649    654  1    216
   650    654    655  1    216
   652    651    656  1    216
   653    652    656  1    216
   654    653    656  1    216
   655    654    656  1    216
   655    656     54  1    216
   655     54    313  1    216
   655    313     55  1    216
   655     55    650  1    216
   650     55    399  1    216
   650    399    649  1    216
   649    399    397  1    216
   649    397    644  1    216
   644    397    395  1    216
   644    395    643  1    216
   643    395    146  1    216
   643    146    642  1    216
   642    146    144  1    216
   642    144    646  1    216
   646    144    388  1    216
   646    388    645  1    216
   645    388    390  1    216
   645    390    392  1    216
   645    392    651  1    216
   651    392     54  1    216
   651     54    656  1    216
   403    155    657  1    217
   403    657    660  1    217
   403    660    405  1    217
   405    660    661  1    217
   405    661     58  1    217
    58    661    400  1    217
    58    400     57  1    217
   400    661    398  1    217
   398    661    660  1    217
   398    660    659  1    217
   398    659    396  1    217
   396    659    658  1    217
   396    658    149  1    217
   396    149    147  1    217
   149    658    401  1    217
   401    658    659  1    217
   401    659    152  1    217
   152    659    657  1    217
   152    657    155  1    217
   657    659    660  1    217
    61     64    409  1    218
    61    409    404  1    218
    61    404    406  1    218
    61    406    318  1    218
   318    406     60  1    218
   404    409    156  1    218
   156    409    158  1    218
    67    167     66  1    219
    66    167    410  1    219
   410    167    161  1    219
   410    161    159  1    219
   161    167    164  1    219
   432    182    662  1    220
   432    662    417  1    220
   432    417    415  1    220
   432    415    434  1    220
   434    415    168  1    220
   434    168     69  1    220
   434     69     70  1    220
   417    662    426  1    220
   417    426    424  1    220
   417    424    170  1    220
   170    424    420  1    220
   420    424    173  1    220
   426    662    176  1    220
   176    662    179  1    220
   179    662    182  1    220
   550     84    664  1    221
   550    664    438  1    221
   550    438    663  1    221
   550    663    435  1    221
   550    435     73  1    221
    73    435     72  1    221
   435    663    433  1    221
   433    663    436  1    221
   433    436    183  1    221
   436    663    438  1    221
   438    664    440  1    221
   440    664     85  1    221
   440     85    185  1    221
    85    664     84  1    221
    76     79    665  1    222
    76    665     75  1    222
    75    665    551  1    222
   551    665     79  1    222
   551     79     82  1    222
    88     91    186  1    223
    88    186     87  1    223
   186     91    188  1    223
   358     97    666  1    224
   358    666     94  1    224
    94    666    350  1    224
   350    666     97  1    224
   350     97    189  1    224
   350    189     93  1    224
   668    667    671  1    225
   668    671    672  1    225
   669    668    672  1    225
   669    672    670  1    225
   669    670    450  1    225
   669    450    448  1    225
   669    448    668  1    225
   668    448    446  1    225
   668    446    667  1    225
   667    446    181  1    225
   667    181    437  1    225
   667    437    439  1    225
   667    439    671  1    225
   671    439    441  1    225
   671    441    672  1    225
   672    441    184  1    225
   672    184    187  1    225
   672    187    670  1    225
   670    187     99  1    225
   670     99    452  1    225
   670    452    450  1    225
   452     99    100  1    225
   452    100    191  1    225
   181    446    180  1    225
   103    194    192  1    226
   103    192    102  1    226
   106    200    673  1    227
   106    673    105  1    227
   105    673    195  1    227
   195    673    197  1    227
   197    673    200  1    227
   366    112    675  1    228
   366    675    364  1    228
   366    364    109  1    228
   364    675    674  1    228
   364    674    362  1    228
   362    674    108  1    228
   108    674    201  1    228
   201    674    675  1    228
   201    675    115  1    228
   115    675    112  1    228
   677    676    678  1    229
   677    678    679  1    229
   677    679    680  1    229
   677    680    466  1    229
   677    466    464  1    229
   677    464    676  1    229
   676    464    203  1    229
   676    203    198  1    229
   676    198    678  1    229
   678    198    199  1    229
   678    199    117  1    229
   678    117    679  1    229
   679    117    118  1    229
   679    118    680  1    229
   680    118    206  1    229
   680    206    466  1    229
   473    209    207  1    230
   473    207    120  1    230
   473    120    374  1    230
   473    374    121  1    230
   124    127    500  1    231
   124    500    123  1    231
   123    500    475  1    231
   475    500    215  1    231
   475    215    496  1    231
   475    496    210  1    231
   210    496    493  1    231
   210    493    172  1    231
   172    493    422  1    231
   422    493    212  1    231
   422    212    171  1    231
   171    212    490  1    231
   171    490    163  1    231
   163    490    162  1    231
   130    136    682  1    232
   130    682    129  1    232
   129    682    681  1    232
   129    681    501  1    232
   501    681    502  1    232
   501    502    218  1    232
   501    218    216  1    232
   502    681    504  1    232
   504    681    682  1    232
   504    682    506  1    232
   506    682    508  1    232
   506    508    221  1    232
   508    682    136  1    232
   139    224    222  1    233
   139    222    386  1    233
   386    222    509  1    233
   386    509    138  1    233
   227    225    513  1    234
   233    230    148  1    234
   142    145    686  1    234
   142    686    685  1    234
   142    685    141  1    234
   141    685    225  1    234
   225    685    513  1    234
   513    685    683  1    234
   513    683    516  1    234
   516    683    684  1    234
   516    684    230  1    234
   230    684    148  1    234
   148    684    145  1    234
   145    684    686  1    234
   686    684    683  1    234
   686    683    685  1    234
   522    236    402  1    235
   522    402    151  1    235
   402    236    150  1    235
   150    236    234  1    235
   211    239    491  1    236
   154    157    687  1    236
   154    687    153  1    236
   153    687    523  1    236
   523    687    524  1    236
   523    524    237  1    236
   524    687    526  1    236
   526    687    528  1    236
   528    687    491  1    236
   528    491    239  1    236
   491    687    160  1    236
   160    687    157  1    236
   418    169    165  1    237
   418    165    688  1    237
   418    688    416  1    237
   416    688    166  1    237
   166    688    165  1    237
   689    690    691  1    238
   689    691    692  1    238
   690    693    694  1    238
   691    690    694  1    238
   691    694    427  1    238
   691    427    692  1    238
   692    427    175  1    238
   692    175    482  1    238
   692    482    689  1    238
   689    482    204  1    238
   689    204    465  1    238
   689    465    690  1    238
   690    465    467  1    238
   690    467    693  1    238
   693    467    205  1    238
   693    205    208  1    238
   693    208    174  1    238
   693    174    694  1    238
   694    174    425  1    238
   694    425    427  1    238
   453    190    193  1    239
   453    193    695  1    239
   453    695    697  1    239
   453    697    451  1    239
   451    697    449  1    239
   449    697    696  1    239
   449    696    447  1    239
   447    696    177  1    239
   447    177    178  1    239
   177    696    484  1    239
   484    696    697  1    239
   484    697    695  1    239
   484    695    202  1    239
   202    695    196  1    239
   196    695    193  1    239
   240    213    530  1    240
   214    217    498  1    240
   698    699    700  1    240
   698    700    701  1    240
   698    702    703  1    240
   698    703    699  1    240
   699    703    495  1    240
   699    495    498  1    240
   699    498    700  1    240
   700    498    217  1    240
   700    217    538  1    240
   700    538    536  1    240
   700    536    701  1    240
   701    536    534  1    240
   701    534    532  1    240
   701    532    698  1    240
   698    532    702  1    240
   702    532    530  1    240
   702    530    703  1    240
   703    530    213  1    240
   703    213    495  1    240
   220    223    226  1    241
   220    226    548  1    241
   220    548    507  1    241
   507    548    711  1    241
   507    711    505  1    241
   505    711    710  1    241
   505    710    709  1    241
   505    709    503  1    241
   503    709    539  1    241
   503    539    219  1    241
   539    709    710  1    241
   539    710    706  1    241
   539    706    537  1    241
   537    706    546  1    241
   537    546    535  1    241
   535    546    544  1    241
   535    544    704  1    241
   535    704    533  1    241
   533    704    705  1    241
   533    705    531  1    241
   531    705    707  1    241
   531    707    708  1    241
   531    708    529  1    241
   531    529    238  1    241
   529    708    527  1    241
   527    708    525  1    241
   525    708    707  1    241
   525    707    540  1    241
   525    540    235  1    241
   235    540    231  1    241
   235    231    232  1    241
   540    707    542  1    241
   542    707    705  1    241
   542    705    704  1    241
   542    704    544  1    241
   546    706    710  1    241
   546    710    548  1    241
   548    710    711  1    241
   712    713    714  1    242
   712    714    715  1    242
   712    715    543  1    242
   712    543    545  1    242
   712    545    713  1    242
   713    545    547  1    242
   713    547    549  1    242
   713    549    515  1    242
   713    515    714  1    242
   714    515    518  1    242
   714    518    715  1    242
   715    518    229  1    242
   715    229    541  1    242
   715    541    543  1    242
   515    549    228  1    242
