# MSMS solvent excluded surface faces for fragments/fragment113.xyzr
#faces  #sphere density probe_r
   1796      39  3.00  1.50
     1    273      2  3      3
     2    273    274  3      3
   273    275    274  3      3
   274    275    276  3      3
   275    277    276  3      3
   276    277    278  3      3
   277    279    278  3      3
   278    279    280  3      3
   279    281    280  3      3
   280    281    282  3      3
   281    283    282  3      3
   282    283    284  3      3
   283    285    284  3      3
   284    285    286  3      3
   285      5    286  3      3
   286      5      4  3      3
     5      8      6  3      5
     6      8      7  3      5
     8     11      9  3      7
     9     11     10  3      7
    11    287     12  3      9
    12    287    288  3      9
   287    289    288  3      9
   288    289    290  3      9
   289    291    290  3      9
   290    291    292  3      9
   291    293    292  3      9
   292    293    294  3      9
   293    295    294  3      9
   294    295    296  3      9
   295    297    296  3      9
   296    297    298  3      9
   297    299    298  3      9
   298    299    300  3      9
   299     14    300  3      9
   300     14     13  3      9
    14     17     15  3     11
    15     17     16  3     11
    17      1     18  3     12
    18      1      3  3     12
    18     20     16  3     14
    16     20     19  3     14
    20    301     21  3     16
    21    301    302  3     16
   301     23    302  3     16
   302     23     22  3     16
    23     26     24  3     18
    24     26     25  3     18
    26    303     27  3     20
    27    303    304  3     20
   303     29    304  3     20
   304     29     28  3     20
    29     32    305  3     22
   305     32    306  3     22
   305    306     30  3     22
    30    306     31  3     22
    32      3     33  3     23
    33      3      2  3     23
    33    308    307  3     25
   307    308    309  3     25
   307    309     31  3     25
    31    309    310  3     25
   308     35    309  3     25
   309     35    311  3     25
   309    311    310  3     25
   310    311     34  3     25
    35     38    312  3     27
   312     38    313  3     27
   312    313     36  3     27
    36    313     37  3     27
    38     41    314  3     29
   314     41    316  3     29
   314    316    315  3     29
   315    316    317  3     29
   315    317     39  3     29
    39    317     40  3     29
    41    319    318  3     31
   318    319    320  3     31
   318    320     42  3     31
    42    320    321  3     31
   319     44    320  3     31
   320     44    322  3     31
   320    322    321  3     31
   321    322     43  3     31
    44     47    323  3     33
   323     47    324  3     33
   323    324     45  3     33
    45    324     46  3     33
    47      4     48  3     34
    48      4      6  3     34
    48     50    325  3     36
   325     50    326  3     36
   325    326     46  3     36
    46    326     49  3     36
    50     53    327  3     38
   327     53    328  3     38
   327    328     51  3     38
    51    328     52  3     38
    53     56     54  3     40
    54     56     55  3     40
    56    329     57  3     42
    57    329    330  3     42
   329     59    330  3     42
   330     59     58  3     42
    59      7     60  3     43
    60      7      9  3     43
    60    331     58  3     45
    58    331    332  3     45
   331    333    332  3     45
   332    333    334  3     45
   333     62    334  3     45
   334     62     61  3     45
    62    335     63  3     47
    63    335    336  3     47
   335    337    336  3     47
   336    337    338  3     47
   337    339    338  3     47
   338    339    340  3     47
   339     65    340  3     47
   340     65     64  3     47
    65    341     66  3     48
    66    341    342  3     48
   341     10    342  3     48
   342     10     12  3     48
    66     68     64  3     50
    64     68     67  3     50
    68    344    343  3     52
   343    344    345  3     52
   343    345     69  3     52
    69    345    346  3     52
   344    347    345  3     52
   345    347    348  3     52
   345    348    346  3     52
   346    348    349  3     52
   347     71    348  3     52
   348     71    350  3     52
   348    350    349  3     52
   349    350     70  3     52
    71    351     72  3     53
    72    351    352  3     53
   351     13    352  3     53
   352     13     15  3     53
    72     74     70  3     55
    70     74     73  3     55
    74    353     75  3     57
    75    353    354  3     57
   353    355    354  3     57
   354    355    356  3     57
   355    357    356  3     57
   356    357    358  3     57
   357     77    358  3     57
   358     77     76  3     57
    77    359     78  3     58
    78    359    360  3     58
   359    361    360  3     58
   360    361    362  3     58
   361     19    362  3     58
   362     19     21  3     58
    78     80     76  3     60
    76     80     79  3     60
    80    363     81  3     62
    81    363    364  3     62
   363     83    364  3     62
   364     83     82  3     62
    83     22     84  3     63
    84     22     24  3     63
    84    365     82  3     65
    82    365    366  3     65
   365    367    366  3     65
   366    367    368  3     65
   367    369    368  3     65
   368    369    370  3     65
   369    371    370  3     65
   370    371    372  3     65
   371    373    372  3     65
   372    373    374  3     65
   373    375    374  3     65
   374    375    376  3     65
   375    377    376  3     65
   376    377    378  3     65
   377    379    378  3     65
   378    379    380  3     65
   379     86    380  3     65
   380     86     85  3     65
    86     55     87  3     66
    87     55     57  3     66
    87    381     85  3     68
    85    381    382  3     68
   381     89    382  3     68
   382     89     88  3     68
    89     61     90  3     69
    90     61     63  3     69
    90     92    383  3     71
   383     92    384  3     71
   383    384     88  3     71
    88    384     91  3     71
    92    386    385  3     73
   385    386    387  3     73
   385    387     93  3     73
    93    387    388  3     73
   386    389    387  3     73
   387    389    390  3     73
   387    390    388  3     73
   388    390    391  3     73
   389    392    390  3     73
   390    392    393  3     73
   390    393    391  3     73
   391    393    394  3     73
   392    395    393  3     73
   393    395    396  3     73
   393    396    394  3     73
   394    396    397  3     73
   395    398    396  3     73
   396    398    399  3     73
   396    399    397  3     73
   397    399    400  3     73
   398     95    399  3     73
   399     95    401  3     73
   399    401    400  3     73
   400    401     94  3     73
    95     79    402  3     74
   402     79    403  3     74
   402    403     96  3     74
    96    403     81  3     74
    96    405    404  3     75
   404    405    406  3     75
   404    406     94  3     75
    94    406    407  3     75
   405    408    406  3     75
   406    408    409  3     75
   406    409    407  3     75
   407    409    410  3     75
   408    411    409  3     75
   409    411    412  3     75
   409    412    410  3     75
   410    412    413  3     75
   411     91    412  3     75
   412     91    414  3     75
   412    414    413  3     75
   413    414     93  3     75
    75    415     73  3     76
    73    415    416  3     76
   415    417    416  3     76
   416    417    418  3     76
   417    419    418  3     76
   418    419    420  3     76
   419    421    420  3     76
   420    421    422  3     76
   421    423    422  3     76
   422    423    424  3     76
   423     67    424  3     76
   424     67     69  3     76
    54     98    425  3     78
   425     98    426  3     78
   425    426     52  3     78
    52    426     97  3     78
    98    101    427  3     80
   427    101    428  3     80
   427    428     99  3     80
    99    428    100  3     80
   101    104    429  3     82
   429    104    430  3     82
   429    430    102  3     82
   102    430    103  3     82
   104    434    431  3     84
   431    434    435  3     84
   431    435    432  3     84
   432    435    436  3     84
   432    436    433  3     84
   433    436    437  3     84
   433    437    105  3     84
   105    437    438  3     84
   434    439    435  3     84
   435    439    440  3     84
   435    440    436  3     84
   436    440    441  3     84
   436    441    437  3     84
   437    441    442  3     84
   437    442    438  3     84
   438    442    443  3     84
   439    444    440  3     84
   440    444    445  3     84
   440    445    441  3     84
   441    445    446  3     84
   441    446    442  3     84
   442    446    447  3     84
   442    447    443  3     84
   443    447    448  3     84
   444    107    445  3     84
   445    107    449  3     84
   445    449    446  3     84
   446    449    450  3     84
   446    450    447  3     84
   447    450    451  3     84
   447    451    448  3     84
   448    451    106  3     84
   107    110    452  3     86
   452    110    454  3     86
   452    454    453  3     86
   453    454    455  3     86
   453    455    108  3     86
   108    455    109  3     86
   110    113    456  3     88
   456    113    458  3     88
   456    458    457  3     88
   457    458    459  3     88
   457    459    111  3     88
   111    459    112  3     88
   113    116    460  3     90
   460    116    461  3     90
   460    461    114  3     90
   114    461    115  3     90
   116     25    117  3     91
   117     25     27  3     91
   117    462    115  3     93
   115    462    463  3     93
   462    464    463  3     93
   463    464    465  3     93
   464    119    465  3     93
   465    119    118  3     93
   119    122    120  3     95
   120    122    121  3     95
   122    125    123  3     97
   123    125    124  3     97
   125    466    126  3     98
   126    466    467  3     98
   466     28    467  3     98
   467     28     30  3     98
   126    128    468  3    100
   468    128    469  3    100
   468    469    124  3    100
   124    469    127  3    100
   128    131    470  3    102
   470    131    471  3    102
   470    471    129  3    102
   129    471    130  3    102
   131     34    132  3    103
   132     34     36  3    103
   132     37    130  3    104
   130     37     39  3    104
   129    472    127  3    106
   127    472    473  3    106
   472    474    473  3    106
   473    474    475  3    106
   474    476    475  3    106
   475    476    477  3    106
   476    134    477  3    106
   477    134    133  3    106
   134    479    478  3    108
   478    479    480  3    108
   478    480    135  3    108
   135    480    481  3    108
   479    482    480  3    108
   480    482    483  3    108
   480    483    481  3    108
   481    483    484  3    108
   482    137    483  3    108
   483    137    485  3    108
   483    485    484  3    108
   484    485    136  3    108
   137    486    138  3    109
   138    486    487  3    109
   486    488    487  3    109
   487    488    489  3    109
   488     40    489  3    109
   489     40     42  3    109
   138    140    136  3    111
   136    140    139  3    111
   140    143    490  3    113
   490    143    491  3    113
   490    491    141  3    113
   141    491    142  3    113
   143    492    144  3    114
   144    492    493  3    114
   492    494    493  3    114
   493    494    495  3    114
   494     97    495  3    114
   495     97     99  3    114
   144    496    142  3    116
   142    496    497  3    116
   496    498    497  3    116
   497    498    499  3    116
   498    500    499  3    116
   499    500    501  3    116
   500    146    501  3    116
   501    146    145  3    116
   146    149    502  3    118
   502    149    505  3    118
   502    505    503  3    118
   503    505    506  3    118
   503    506    504  3    118
   504    506    507  3    118
   504    507    147  3    118
   147    507    148  3    118
   149    508    150  3    119
   150    508    509  3    119
   508    100    509  3    119
   509    100    102  3    119
   150    152    510  3    121
   510    152    513  3    121
   510    513    511  3    121
   511    513    514  3    121
   511    514    512  3    121
   512    514    515  3    121
   512    515    148  3    121
   148    515    151  3    121
   152    155    516  3    123
   516    155    518  3    123
   516    518    517  3    123
   517    518    519  3    123
   517    519    153  3    123
   153    519    154  3    123
   155    158    520  3    125
   520    158    521  3    125
   520    521    156  3    125
   156    521    157  3    125
   158    103    522  3    126
   522    103    525  3    126
   522    525    523  3    126
   523    525    526  3    126
   523    526    524  3    126
   524    526    527  3    126
   524    527    159  3    126
   159    527    105  3    126
   159    161    528  3    128
   528    161    529  3    128
   528    529    157  3    128
   157    529    160  3    128
   161    164    162  3    130
   162    164    163  3    130
   164    167    530  3    132
   530    167    531  3    132
   530    531    165  3    132
   165    531    166  3    132
   167    534    532  3    134
   532    534    535  3    134
   532    535    533  3    134
   533    535    536  3    134
   533    536    168  3    134
   168    536    537  3    134
   534    170    535  3    134
   535    170    538  3    134
   535    538    536  3    134
   536    538    539  3    134
   536    539    537  3    134
   537    539    169  3    134
   170    173    540  3    136
   540    173    542  3    136
   540    542    541  3    136
   541    542    543  3    136
   541    543    171  3    136
   171    543    172  3    136
   173    546    544  3    138
   544    546    547  3    138
   544    547    545  3    138
   545    547    548  3    138
   545    548    174  3    138
   174    548    549  3    138
   546    176    547  3    138
   547    176    550  3    138
   547    550    548  3    138
   548    550    551  3    138
   548    551    549  3    138
   549    551    175  3    138
   176    179    177  3    140
   177    179    178  3    140
   179    182    552  3    142
   552    182    553  3    142
   552    553    180  3    142
   180    553    181  3    142
   182    106    183  3    143
   183    106    108  3    143
   183    554    181  3    145
   181    554    555  3    145
   554    185    555  3    145
   555    185    184  3    145
   185    109    556  3    146
   556    109    557  3    146
   556    557    186  3    146
   186    557    111  3    146
   186    188    558  3    148
   558    188    559  3    148
   558    559    184  3    148
   184    559    187  3    148
   188    561    560  3    150
   560    561    562  3    150
   560    562    189  3    150
   189    562    563  3    150
   561    564    562  3    150
   562    564    565  3    150
   562    565    563  3    150
   563    565    566  3    150
   564    567    565  3    150
   565    567    568  3    150
   565    568    566  3    150
   566    568    569  3    150
   567    191    568  3    150
   568    191    570  3    150
   568    570    569  3    150
   569    570    190  3    150
   191    194    571  3    152
   571    194    572  3    152
   571    572    192  3    152
   192    572    193  3    152
   194    197    573  3    154
   573    197    576  3    154
   573    576    574  3    154
   574    576    577  3    154
   574    577    575  3    154
   575    577    578  3    154
   575    578    195  3    154
   195    578    196  3    154
   197    579    198  3    156
   198    579    580  3    156
   579    200    580  3    156
   580    200    199  3    156
   200    203    581  3    158
   581    203    582  3    158
   581    582    201  3    158
   201    582    202  3    158
   203    206    204  3    160
   204    206    205  3    160
   206    209    207  3    162
   207    209    208  3    162
   209    583    210  3    164
   210    583    584  3    164
   583    585    584  3    164
   584    585    586  3    164
   585    212    586  3    164
   586    212    211  3    164
   212    587    213  3    165
   213    587    588  3    165
   587    112    588  3    165
   588    112    114  3    165
   213    118    211  3    166
   211    118    120  3    166
   210    215    208  3    168
   208    215    214  3    168
   215    121    589  3    169
   589    121    590  3    169
   589    590    216  3    169
   216    590    123  3    169
   216    218    591  3    171
   591    218    592  3    171
   591    592    214  3    171
   214    592    217  3    171
   218    133    593  3    172
   593    133    594  3    172
   593    594    219  3    172
   219    594    135  3    172
   219    221    595  3    174
   595    221    596  3    174
   595    596    217  3    174
   217    596    220  3    174
   221    597    222  3    175
   222    597    598  3    175
   597    599    598  3    175
   598    599    600  3    175
   599    601    600  3    175
   600    601    602  3    175
   601    603    602  3    175
   602    603    604  3    175
   603    139    604  3    175
   604    139    141  3    175
   222    224    605  3    177
   605    224    606  3    177
   605    606    220  3    177
   220    606    223  3    177
   224    202    225  3    178
   225    202    204  3    178
   225    205    223  3    179
   223    205    207  3    179
   201    227    607  3    181
   607    227    608  3    181
   607    608    199  3    181
   199    608    226  3    181
   227    230    609  3    183
   609    230    610  3    183
   609    610    228  3    183
   228    610    229  3    183
   230    145    611  3    184
   611    145    614  3    184
   611    614    612  3    184
   612    614    615  3    184
   612    615    613  3    184
   613    615    616  3    184
   613    616    231  3    184
   231    616    147  3    184
   231    233    617  3    186
   617    233    618  3    186
   617    618    229  3    186
   229    618    232  3    186
   233    236    619  3    188
   619    236    620  3    188
   619    620    234  3    188
   234    620    235  3    188
   236    239    621  3    190
   621    239    622  3    190
   621    622    237  3    190
   237    622    238  3    190
   239    242    240  3    192
   240    242    241  3    192
   242    624    623  3    193
   623    624    625  3    193
   623    625    243  3    193
   243    625    626  3    193
   624    166    625  3    193
   625    166    627  3    193
   625    627    626  3    193
   626    627    168  3    193
   243    245    241  3    195
   241    245    244  3    195
   245    629    628  3    197
   628    629    630  3    197
   628    630    246  3    197
   246    630    631  3    197
   629    248    630  3    197
   630    248    632  3    197
   630    632    631  3    197
   631    632    247  3    197
   248    633    249  3    199
   249    633    634  3    199
   633    251    634  3    199
   634    251    250  3    199
   251    636    635  3    201
   635    636    637  3    201
   635    637    252  3    201
   252    637    638  3    201
   636    254    637  3    201
   637    254    639  3    201
   637    639    638  3    201
   638    639    253  3    201
   254    169    255  3    202
   255    169    171  3    202
   255    172    253  3    203
   253    172    174  3    203
   252    640    250  3    205
   250    640    641  3    205
   640    257    641  3    205
   641    257    256  3    205
   257    643    642  3    207
   642    643    644  3    207
   642    644    258  3    207
   258    644    645  3    207
   643    646    644  3    207
   644    646    647  3    207
   644    647    645  3    207
   645    647    648  3    207
   646    260    647  3    207
   647    260    649  3    207
   647    649    648  3    207
   648    649    259  3    207
   260    263    261  3    209
   261    263    262  3    209
   263    652    650  3    211
   650    652    653  3    211
   650    653    651  3    211
   651    653    654  3    211
   651    654    264  3    211
   264    654    655  3    211
   652    656    653  3    211
   653    656    657  3    211
   653    657    654  3    211
   654    657    658  3    211
   654    658    655  3    211
   655    658    659  3    211
   656    266    657  3    211
   657    266    660  3    211
   657    660    658  3    211
   658    660    661  3    211
   658    661    659  3    211
   659    661    265  3    211
   266    175    662  3    212
   662    175    663  3    212
   662    663    267  3    212
   267    663    177  3    212
   267    178    265  3    213
   265    178    180  3    213
   264    269    664  3    215
   664    269    666  3    215
   664    666    665  3    215
   665    666    667  3    215
   665    667    262  3    215
   262    667    268  3    215
   269    193    668  3    216
   668    193    670  3    216
   668    670    669  3    216
   669    670    671  3    216
   669    671    270  3    216
   270    671    195  3    216
   270    259    268  3    217
   268    259    261  3    217
   258    672    256  3    218
   256    672    673  3    218
   672    247    673  3    218
   673    247    249  3    218
   246    238    244  3    219
   244    238    240  3    219
   237    196    674  3    220
   674    196    677  3    220
   674    677    675  3    220
   675    677    678  3    220
   675    678    676  3    220
   676    678    679  3    220
   676    679    235  3    220
   235    679    198  3    220
   234    226    232  3    221
   232    226    228  3    221
   192    681    680  3    222
   680    681    682  3    222
   680    682    190  3    222
   190    682    683  3    222
   681    187    682  3    222
   682    187    684  3    222
   682    684    683  3    222
   683    684    189  3    222
   165    151    163  3    223
   163    151    153  3    223
   162    154    160  3    224
   160    154    156  3    224
    51    685     49  3    225
    49    685    686  3    225
   685    687    686  3    225
   686    687    688  3    225
   687     43    688  3    225
   688     43     45  3    225
   271    689    272  3    226
   272    689    690  3    226
   689    691    690  3    226
   690    691    692  3    226
   691    693    692  3    226
   692    693    694  3    226
   693    695    694  3    226
   694    695    696  3    226
   695    697    696  3    226
   696    697    698  3    226
   697    271    698  3    226
   698    271    272  3    226
     3      1      2  2      1
     6      4      5  2      2
     9      7      8  2      4
    12     10     11  2      6
    15     13     14  2      8
    18     16     17  2     10
    21     19     20  2     13
    24     22     23  2     15
    27     25     26  2     17
    30     28    305  2     19
   305     28     29  2     19
   307     31    306  2     21
   307    306     32  2     21
   307     32     33  2     21
    36     34    311  2     24
    36    311    312  2     24
   312    311     35  2     24
    39     37    315  2     26
   315     37    314  2     26
   314     37    313  2     26
   314    313     38  2     26
    42     40    317  2     28
    42    317    318  2     28
   318    317    316  2     28
   318    316     41  2     28
    45     43    323  2     30
   323     43    322  2     30
   323    322     44  2     30
   325     46    324  2     32
   325    324     48  2     32
    48    324     47  2     32
    51     49    326  2     35
    51    326    327  2     35
   327    326     50  2     35
   425     52    328  2     37
   425    328     53  2     37
   425     53     54  2     37
    57     55     56  2     39
    60     58     59  2     41
    63     61     62  2     44
    66     64     65  2     46
    69     67    343  2     49
   343     67     68  2     49
    72     70    350  2     51
    72    350     71  2     51
    75     73     74  2     54
    78     76     77  2     56
   403     79     80  2     59
   403     80     81  2     59
    84     82     83  2     61
    87     85     86  2     64
   383     88     89  2     67
   383     89     90  2     67
   414     91    384  2     70
   414    384    385  2     70
   414    385     93  2     70
   385    384     92  2     70
   404     94    401  2     72
   404    401    402  2     72
   404    402     96  2     72
   402    401     95  2     72
    99     97    427  2     77
   427     97    426  2     77
   427    426     98  2     77
   102    100    429  2     79
   429    100    428  2     79
   429    428    101  2     79
   700    699    701  2     81
   525    103    430  2     81
   525    430    701  2     81
   525    701    526  2     81
   526    701    699  2     81
   526    699    527  2     81
   527    699    433  2     81
   527    433    105  2     81
   433    699    432  2     81
   432    699    431  2     81
   431    699    700  2     81
   431    700    104  2     81
   104    700    430  2     81
   430    700    701  2     81
   108    106    702  2     83
   108    702    453  2     83
   453    702    451  2     83
   453    451    450  2     83
   453    450    452  2     83
   452    450    449  2     83
   452    449    107  2     83
   451    702    106  2     83
   557    109    455  2     85
   557    455    703  2     85
   557    703    111  2     85
   111    703    457  2     85
   457    703    454  2     85
   457    454    456  2     85
   456    454    110  2     85
   454    703    455  2     85
   114    112    459  2     87
   114    459    460  2     87
   460    459    458  2     87
   460    458    113  2     87
   117    115    461  2     89
   117    461    116  2     89
   120    118    119  2     92
   590    121    122  2     94
   590    122    123  2     94
   468    124    125  2     96
   468    125    126  2     96
   129    127    470  2     99
   470    127    469  2     99
   470    469    128  2     99
   132    130    471  2    101
   132    471    131  2    101
   594    133    134  2    105
   594    134    478  2    105
   594    478    135  2    105
   138    136    485  2    107
   138    485    137  2    107
   141    139    490  2    110
   490    139    140  2    110
   144    142    491  2    112
   144    491    143  2    112
   614    145    146  2    115
   614    146    502  2    115
   614    502    615  2    115
   615    502    503  2    115
   615    503    616  2    115
   616    503    504  2    115
   616    504    147  2    115
   512    148    507  2    117
   512    507    506  2    117
   512    506    511  2    117
   511    506    505  2    117
   511    505    510  2    117
   510    505    149  2    117
   510    149    150  2    117
   153    151    515  2    120
   153    515    517  2    120
   517    515    514  2    120
   517    514    516  2    120
   516    514    513  2    120
   516    513    152  2    120
   156    154    519  2    122
   156    519    518  2    122
   156    518    520  2    122
   520    518    155  2    122
   528    157    524  2    124
   528    524    159  2    124
   524    157    523  2    124
   523    157    521  2    124
   523    521    522  2    124
   522    521    158  2    124
   162    160    529  2    127
   162    529    161  2    127
   165    163    530  2    129
   530    163    164  2    129
   627    166    533  2    131
   627    533    168  2    131
   533    166    532  2    131
   532    166    531  2    131
   532    531    167  2    131
   171    169    539  2    133
   171    539    541  2    133
   541    539    538  2    133
   541    538    540  2    133
   540    538    170  2    133
   174    172    545  2    135
   545    172    543  2    135
   545    543    544  2    135
   544    543    542  2    135
   544    542    173  2    135
   663    175    551  2    137
   663    551    550  2    137
   663    550    177  2    137
   177    550    176  2    137
   180    178    552  2    139
   552    178    179  2    139
   183    181    553  2    141
   183    553    182  2    141
   558    184    185  2    144
   558    185    556  2    144
   558    556    186  2    144
   684    187    559  2    147
   684    559    188  2    147
   684    188    560  2    147
   684    560    189  2    147
   680    190    570  2    149
   680    570    191  2    149
   680    191    571  2    149
   680    571    192  2    149
   705    704    706  2    151
   670    193    706  2    151
   670    706    704  2    151
   670    704    671  2    151
   671    704    575  2    151
   671    575    195  2    151
   575    704    574  2    151
   574    704    705  2    151
   574    705    573  2    151
   573    705    572  2    151
   573    572    194  2    151
   572    705    706  2    151
   572    706    193  2    151
   677    196    578  2    153
   677    578    678  2    153
   678    578    577  2    153
   678    577    679  2    153
   679    577    576  2    153
   679    576    198  2    153
   198    576    197  2    153
   607    199    200  2    155
   607    200    581  2    155
   607    581    201  2    155
   204    202    582  2    157
   204    582    203  2    157
   207    205    206  2    159
   210    208    209  2    161
   213    211    212  2    163
   591    214    215  2    167
   591    215    589  2    167
   591    589    216  2    167
   595    217    707  2    170
   595    707    593  2    170
   595    593    219  2    170
   593    707    218  2    170
   218    707    592  2    170
   592    707    217  2    170
   605    220    596  2    173
   605    596    222  2    173
   222    596    221  2    173
   225    223    606  2    176
   225    606    224  2    176
   228    226    608  2    180
   228    608    609  2    180
   609    608    227  2    180
   617    229    613  2    182
   617    613    231  2    182
   613    229    612  2    182
   612    229    610  2    182
   612    610    611  2    182
   611    610    230  2    182
   234    232    619  2    185
   619    232    618  2    185
   619    618    233  2    185
   676    235    620  2    187
   676    620    675  2    187
   675    620    236  2    187
   675    236    621  2    187
   675    621    674  2    187
   674    621    237  2    187
   240    238    622  2    189
   240    622    239  2    189
   243    241    623  2    191
   623    241    242  2    191
   246    244    628  2    194
   628    244    245  2    194
   249    247    632  2    196
   249    632    248  2    196
   252    250    635  2    198
   635    250    251  2    198
   255    253    639  2    200
   255    639    254  2    200
   258    256    642  2    204
   642    256    257  2    204
   261    259    649  2    206
   261    649    260  2    206
   665    262    650  2    208
   665    650    651  2    208
   665    651    664  2    208
   664    651    264  2    208
   650    262    263  2    208
   267    265    661  2    210
   267    661    662  2    210
   662    661    660  2    210
   662    660    266  2    210
   270    268    669  2    214
   669    268    667  2    214
   669    667    668  2    214
   668    667    666  2    214
   668    666    269  2    214
   708    710    711  1    227
   709    708    711  1    227
   709    711    712  1    227
   711    710    714  1    227
   711    714    715  1    227
   712    711    715  1    227
   712    715    716  1    227
   719    723    724  1    227
   720    719    724  1    227
   720    724    725  1    227
   724    723    726  1    227
   725    724    726  1    227
   725    726    727  1    227
   727    726    729  1    227
   728    727    729  1    227
   728    729    693  1    227
   728    693    691  1    227
   728    691    277  1    227
   728    277    275  1    227
   728    275    727  1    227
   727    275    273  1    227
   727    273    725  1    227
   725    273      1  1    227
   725      1    720  1    227
   720      1     17  1    227
   720     17     14  1    227
   720     14    719  1    227
   719     14    299  1    227
   719    299    723  1    227
   723    299    297  1    227
   723    297    722  1    227
   723    722    726  1    227
   726    722    695  1    227
   726    695    729  1    227
   729    695    693  1    227
   695    722    718  1    227
   695    718    697  1    227
   697    718    293  1    227
   697    293    291  1    227
   697    291    271  1    227
   271    291    713  1    227
   271    713    716  1    227
   271    716    689  1    227
   689    716    715  1    227
   689    715    714  1    227
   689    714    717  1    227
   689    717    721  1    227
   689    721    691  1    227
   691    721    279  1    227
   691    279    277  1    227
   279    721    281  1    227
   281    721    717  1    227
   281    717    283  1    227
   283    717    714  1    227
   283    714    285  1    227
   285    714    710  1    227
   285    710      5  1    227
     5    710    708  1    227
     5    708      8  1    227
     8    708     11  1    227
    11    708    709  1    227
    11    709    287  1    227
   287    709    712  1    227
   287    712    289  1    227
   289    712    713  1    227
   289    713    291  1    227
   713    712    716  1    227
   293    718    295  1    227
   295    718    297  1    227
   297    718    722  1    227
     4     47    286  1    228
   286     47     44  1    228
   286     44    284  1    228
   284     44    319  1    228
   284    319    282  1    228
   282    319     41  1    228
   282     41    280  1    228
   280     41     38  1    228
   280     38     35  1    228
   280     35    278  1    228
   278     35    730  1    228
   278    730    276  1    228
   276    730    308  1    228
   276    308    274  1    228
   274    308     33  1    228
   274     33      2  1    228
   308    730     35  1    228
     7     59      6  1    229
   329     56     50  1    229
   329     50     48  1    229
   329     48      6  1    229
   329      6     59  1    229
    50     56     53  1    229
    60      9    331  1    230
   341     65    339  1    230
   341    339    732  1    230
   341    732     10  1    230
    10    732    731  1    230
    10    731      9  1    230
     9    731    331  1    230
   331    731    333  1    230
   333    731    335  1    230
   333    335     62  1    230
   335    731    732  1    230
   335    732    337  1    230
   337    732    339  1    230
    68     66    344  1    231
   734    733    735  1    231
   734    735    344  1    231
   734    344     66  1    231
   734     66    733  1    231
   733     66    342  1    231
   733    342    288  1    231
   733    288    290  1    231
   733    290    292  1    231
   733    292    735  1    231
   735    292    294  1    231
   735    294    736  1    231
   735    736    344  1    231
   344    736    347  1    231
   347    736    737  1    231
   347    737    738  1    231
   347    738     71  1    231
    71    738    351  1    231
   351    738    300  1    231
   351    300     13  1    231
   300    738    298  1    231
   298    738    737  1    231
   298    737    296  1    231
   296    737    294  1    231
   294    737    736  1    231
   288    342     12  1    231
    74     72    353  1    232
    16     19     15  1    232
   359     77    357  1    232
   359    357    740  1    232
   359    740    361  1    232
   361    740     19  1    232
    19    740     15  1    232
    15    740    739  1    232
    15    739    352  1    232
   352    739    353  1    232
   352    353     72  1    232
   353    739    355  1    232
   355    739    740  1    232
   355    740    357  1    232
    20     18    301  1    233
     3     32    742  1    233
     3    742    741  1    233
     3    741     18  1    233
    18    741    301  1    233
   301    741     23  1    233
    23    741     26  1    233
    26    741    303  1    233
   303    741    742  1    233
   303    742     29  1    233
    29    742     32  1    233
    22     83    744  1    234
    22    744    302  1    234
   302    744    362  1    234
   302    362     21  1    234
   362    744    360  1    234
   360    744    743  1    234
   360    743    363  1    234
   360    363     78  1    234
    78    363     80  1    234
   363    743     83  1    234
    83    743    744  1    234
   746    747    748  1    235
   747    749    750  1    235
   748    747    750  1    235
   748    750    751  1    235
   750    749    752  1    235
   750    752    753  1    235
   751    750    753  1    235
   751    753    116  1    235
   751    116    113  1    235
   751    113    110  1    235
   751    110    748  1    235
   748    110    107  1    235
   748    107    746  1    235
   746    107    444  1    235
   746    444    369  1    235
   746    369    367  1    235
   746    367    747  1    235
   747    367    365  1    235
   747    365    749  1    235
   749    365     84  1    235
   749     84    752  1    235
   752     84     24  1    235
   752     24     25  1    235
   752     25    753  1    235
   753     25    116  1    235
   369    444    371  1    235
   371    444    373  1    235
   373    444    439  1    235
   373    439    375  1    235
   375    439    434  1    235
   375    434    377  1    235
   377    434    745  1    235
   377    745    379  1    235
   379    745     86  1    235
    86    745    101  1    235
    86    101     55  1    235
    55    101     98  1    235
    55     98     54  1    235
   101    745    104  1    235
   104    745    434  1    235
   466    125    755  1    236
   466    755    464  1    236
   466    464    754  1    236
   466    754    304  1    236
   466    304     28  1    236
   304    754     27  1    236
    27    754    117  1    236
   117    754    462  1    236
   462    754    464  1    236
   464    755    119  1    236
   119    755    122  1    236
   122    755    125  1    236
   310     34    128  1    237
   310    128    756  1    237
   310    756     31  1    237
    31    756    467  1    237
    31    467     30  1    237
   467    756    126  1    237
   126    756    128  1    237
   128     34    131  1    237
    37    132     36  1    238
   757    760    761  1    239
   758    757    761  1    239
   759    758    761  1    239
   759    761    762  1    239
   762    761    474  1    239
   762    474    472  1    239
   762    472    129  1    239
   762    129    130  1    239
   762    130     39  1    239
   762     39     40  1    239
   762     40    759  1    239
   759     40    488  1    239
   759    488    758  1    239
   758    488    486  1    239
   758    486    137  1    239
   758    137    757  1    239
   757    137    482  1    239
   757    482    479  1    239
   757    479    760  1    239
   760    479    476  1    239
   760    476    474  1    239
   760    474    761  1    239
   476    479    134  1    239
   685     51    494  1    240
   685    494    492  1    240
   685    492    687  1    240
   687    492    143  1    240
   687    143    140  1    240
   687    140    138  1    240
   687    138    487  1    240
   687    487     43  1    240
    43    487    489  1    240
    43    489    321  1    240
   321    489     42  1    240
   494     51     97  1    240
    97     51     52  1    240
    46     49    763  1    241
    46    763    688  1    241
    46    688     45  1    241
   688    763    686  1    241
   686    763     49  1    241
   334     61    381  1    242
   334    381     87  1    242
   334     87    764  1    242
   334    764    332  1    242
   332    764    330  1    242
   332    330     58  1    242
   330    764     57  1    242
    57    764     87  1    242
   381     61     89  1    242
    92     90    386  1    243
    79     95     76  1    243
    64     67    340  1    243
   765    768    766  1    243
   765    766    767  1    243
   769    770    771  1    243
   771    770    772  1    243
   771    772    358  1    243
   771    358     76  1    243
   771     76    398  1    243
   771    398    769  1    243
   769    398    395  1    243
   769    395    392  1    243
   769    392    419  1    243
   769    419    417  1    243
   769    417    770  1    243
   770    417    415  1    243
   770    415    772  1    243
   772    415    354  1    243
   772    354    356  1    243
   772    356    358  1    243
   354    415     75  1    243
   419    392    389  1    243
   419    389    767  1    243
   419    767    421  1    243
   421    767    423  1    243
   423    767    766  1    243
   423    766    340  1    243
   423    340     67  1    243
   340    766    338  1    243
   338    766    768  1    243
   338    768    336  1    243
   336    768    386  1    243
   336    386     63  1    243
    63    386     90  1    243
   386    768    765  1    243
   386    765    389  1    243
   389    765    767  1    243
   398     76     95  1    243
    70     73    349  1    244
   773    774    775  1    244
   775    774    777  1    244
   775    777    778  1    244
   776    775    778  1    244
   776    778    416  1    244
   776    416    418  1    244
   776    418    420  1    244
   776    420    775  1    244
   775    420    773  1    244
   773    420    422  1    244
   773    422    424  1    244
   773    424    774  1    244
   774    424     69  1    244
   774     69    346  1    244
   774    346    777  1    244
   777    346    349  1    244
   777    349    778  1    244
   778    349     73  1    244
   778     73    416  1    244
    96     81    405  1    245
    88     91    382  1    245
   779    780    781  1    245
   779    781    782  1    245
   779    782    376  1    245
   779    376    378  1    245
   779    378    780  1    245
   780    378    380  1    245
   780    380    382  1    245
   780    382     91  1    245
   780     91    781  1    245
   781     91    411  1    245
   781    411    782  1    245
   782    411    408  1    245
   782    408    783  1    245
   782    783    374  1    245
   782    374    376  1    245
   374    783    372  1    245
   372    783    784  1    245
   372    784    370  1    245
   370    784    785  1    245
   370    785    368  1    245
   368    785    786  1    245
   368    786    366  1    245
   366    786    364  1    245
   366    364     82  1    245
   364    786     81  1    245
    81    786    785  1    245
    81    785    405  1    245
   405    785    784  1    245
   405    784    408  1    245
   408    784    783  1    245
   382    380     85  1    245
   413     93    787  1    246
   413    787    788  1    246
   413    788    410  1    246
   410    788    789  1    246
   410    789    407  1    246
   407    789    400  1    246
   407    400     94  1    246
   400    789    397  1    246
   397    789    394  1    246
   394    789    788  1    246
   394    788    391  1    246
   391    788    787  1    246
   391    787    388  1    246
   388    787     93  1    246
   508    149    790  1    247
   508    790    498  1    247
   508    498    791  1    247
   508    791    100  1    247
   100    791    495  1    247
   100    495     99  1    247
   495    791    493  1    247
   493    791    496  1    247
   493    496    144  1    247
   496    791    498  1    247
   498    790    500  1    247
   500    790    146  1    247
   146    790    149  1    247
   103    158    509  1    248
   103    509    102  1    248
   509    158    155  1    248
   509    155    150  1    248
   150    155    152  1    248
   793    792    796  1    249
   793    796    797  1    249
   793    797    798  1    249
   794    793    798  1    249
   794    798    799  1    249
   792    795    796  1    249
   797    796    801  1    249
   797    801    802  1    249
   798    797    802  1    249
   798    802    803  1    249
   799    798    803  1    249
   799    803    804  1    249
   803    802    805  1    249
   803    805    804  1    249
   804    805    182  1    249
   804    182    179  1    249
   804    179    799  1    249
   799    179    176  1    249
   799    176    546  1    249
   799    546    794  1    249
   794    546    173  1    249
   794    173    793  1    249
   793    173    792  1    249
   792    173    170  1    249
   792    170    534  1    249
   792    534    795  1    249
   795    534    167  1    249
   795    167    800  1    249
   795    800    796  1    249
   796    800    438  1    249
   796    438    801  1    249
   801    438    443  1    249
   801    443    802  1    249
   802    443    448  1    249
   802    448    805  1    249
   805    448    106  1    249
   805    106    182  1    249
   438    800    105  1    249
   105    800    159  1    249
   159    800    161  1    249
   161    800    164  1    249
   164    800    167  1    249
   109    185    554  1    250
   109    554    108  1    250
   108    554    183  1    250
   807    806    809  1    251
   807    809    808  1    251
   807    808    579  1    251
   807    579    197  1    251
   807    197    806  1    251
   806    197    194  1    251
   806    194    191  1    251
   806    191    567  1    251
   806    567    809  1    251
   809    567    583  1    251
   809    583    209  1    251
   809    209    808  1    251
   808    209    206  1    251
   808    206    579  1    251
   579    206    203  1    251
   579    203    200  1    251
   583    567    564  1    251
   583    564    585  1    251
   585    564    212  1    251
   212    564    561  1    251
   212    561    587  1    251
   587    561    188  1    251
   587    188    112  1    251
   112    188    186  1    251
   112    186    111  1    251
   465    118    810  1    252
   465    810    463  1    252
   463    810    588  1    252
   463    588    115  1    252
   115    588    114  1    252
   588    810    213  1    252
   213    810    118  1    252
   121    215    811  1    253
   121    811    120  1    253
   120    811    211  1    253
   211    811    586  1    253
   586    811    584  1    253
   584    811    215  1    253
   584    215    210  1    253
   814    813    815  1    254
   814    815    475  1    254
   814    475    812  1    254
   814    812    216  1    254
   814    216    813  1    254
   813    216    123  1    254
   813    123    124  1    254
   813    124    815  1    254
   815    124    127  1    254
   815    127    473  1    254
   815    473    475  1    254
   216    812    218  1    254
   218    812    133  1    254
   133    812    477  1    254
   477    812    475  1    254
   816    819    820  1    255
   817    816    820  1    255
   817    820    484  1    255
   817    484    818  1    255
   817    818    603  1    255
   817    603    601  1    255
   817    601    816  1    255
   816    601    599  1    255
   816    599    597  1    255
   816    597    819  1    255
   819    597    221  1    255
   819    221    219  1    255
   819    219    135  1    255
   819    135    481  1    255
   819    481    820  1    255
   820    481    484  1    255
   603    818    139  1    255
   139    818    136  1    255
   136    818    484  1    255
   822    821    823  1    256
   822    823    824  1    256
   822    824    825  1    256
   822    825    499  1    256
   822    499    501  1    256
   822    501    821  1    256
   821    501    145  1    256
   821    145    230  1    256
   821    230    227  1    256
   821    227    823  1    256
   823    227    826  1    256
   823    826    600  1    256
   823    600    824  1    256
   824    600    602  1    256
   824    602    825  1    256
   825    602    604  1    256
   825    604    497  1    256
   825    497    499  1    256
   497    604    142  1    256
   142    604    141  1    256
   600    826    598  1    256
   598    826    201  1    256
   598    201    202  1    256
   598    202    224  1    256
   598    224    222  1    256
   201    826    227  1    256
   148    151    165  1    257
   148    165    624  1    257
   148    624    147  1    257
   147    624    242  1    257
   147    242    231  1    257
   231    242    233  1    257
   233    242    239  1    257
   233    239    236  1    257
   624    165    166  1    257
   154    162    163  1    258
   154    163    153  1    258
   157    160    156  1    259
   827    828    829  1    260
   827    830    831  1    260
   827    831    832  1    260
   827    832    828  1    260
   829    828    834  1    260
   829    834    835  1    260
   832    831    836  1    260
   832    836    837  1    260
   832    837    838  1    260
   828    832    838  1    260
   828    838    833  1    260
   828    833    834  1    260
   834    833    840  1    260
   837    836    841  1    260
   837    841    842  1    260
   838    837    842  1    260
   838    842    843  1    260
   833    838    843  1    260
   833    843    839  1    260
   833    839    840  1    260
   842    841    845  1    260
   842    845    846  1    260
   843    842    846  1    260
   839    843    846  1    260
   839    846    844  1    260
   839    844    840  1    260
   840    844    168  1    260
   840    168    537  1    260
   840    537    834  1    260
   834    537    835  1    260
   835    537    169  1    260
   835    169    254  1    260
   835    254    636  1    260
   835    636    829  1    260
   829    636    827  1    260
   827    636    830  1    260
   830    636    251  1    260
   830    251    633  1    260
   830    633    831  1    260
   831    633    836  1    260
   836    633    248  1    260
   836    248    629  1    260
   836    629    841  1    260
   841    629    845  1    260
   845    629    245  1    260
   845    245    243  1    260
   845    243    846  1    260
   846    243    626  1    260
   846    626    844  1    260
   844    626    168  1    260
   172    255    171  1    261
   263    260    652  1    262
   847    848    849  1    262
   847    849    850  1    262
   849    848    851  1    262
   849    851    852  1    262
   849    852    853  1    262
   850    849    853  1    262
   850    853    854  1    262
   852    855    856  1    262
   853    852    856  1    262
   853    856    857  1    262
   854    853    857  1    262
   854    857    858  1    262
   856    855    859  1    262
   856    859    860  1    262
   857    856    860  1    262
   857    860    858  1    262
   858    860    643  1    262
   858    643    257  1    262
   858    257    854  1    262
   854    257    640  1    262
   854    640    850  1    262
   850    640    252  1    262
   850    252    847  1    262
   847    252    638  1    262
   847    638    848  1    262
   848    638    253  1    262
   848    253    549  1    262
   848    549    851  1    262
   851    549    175  1    262
   851    175    855  1    262
   851    855    852  1    262
   855    175    266  1    262
   855    266    656  1    262
   855    656    859  1    262
   859    656    652  1    262
   859    652    860  1    262
   860    652    260  1    262
   860    260    646  1    262
   860    646    643  1    262
   549    253    174  1    262
   178    267    177  1    263
   269    264    193  1    264
   861    865    866  1    264
   862    861    866  1    264
   862    866    867  1    264
   863    862    867  1    264
   863    867    868  1    264
   864    869    870  1    264
   865    864    870  1    264
   866    865    870  1    264
   866    870    871  1    264
   867    866    871  1    264
   867    871    872  1    264
   868    867    872  1    264
   868    872    192  1    264
   868    192    193  1    264
   868    193    264  1    264
   868    264    863  1    264
   863    264    655  1    264
   863    655    659  1    264
   863    659    862  1    264
   862    659    861  1    264
   861    659    180  1    264
   861    180    181  1    264
   861    181    864  1    264
   861    864    865  1    264
   864    181    555  1    264
   864    555    869  1    264
   869    555    184  1    264
   869    184    187  1    264
   869    187    870  1    264
   870    187    681  1    264
   870    681    871  1    264
   871    681    872  1    264
   872    681    192  1    264
   180    659    265  1    264
   683    189    873  1    265
   683    873    874  1    265
   683    874    190  1    265
   190    874    569  1    265
   569    874    566  1    265
   566    874    563  1    265
   563    874    873  1    265
   563    873    189  1    265
   259    270    648  1    266
   875    878    879  1    266
   876    875    879  1    266
   876    879    880  1    266
   876    880    881  1    266
   877    876    881  1    266
   877    881    882  1    266
   878    883    884  1    266
   879    878    884  1    266
   879    884    885  1    266
   880    879    885  1    266
   880    885    886  1    266
   881    880    886  1    266
   881    886    887  1    266
   882    881    887  1    266
   882    887    888  1    266
   883    889    890  1    266
   884    883    890  1    266
   884    890    891  1    266
   885    884    891  1    266
   886    885    891  1    266
   886    891    892  1    266
   887    886    892  1    266
   887    892    893  1    266
   888    887    893  1    266
   890    889    894  1    266
   890    894    895  1    266
   891    890    895  1    266
   892    891    895  1    266
   892    895    893  1    266
   893    895    196  1    266
   893    196    237  1    266
   893    237    888  1    266
   888    237    238  1    266
   888    238    246  1    266
   888    246    631  1    266
   888    631    882  1    266
   882    631    877  1    266
   877    631    247  1    266
   877    247    672  1    266
   877    672    876  1    266
   876    672    875  1    266
   875    672    258  1    266
   875    258    645  1    266
   875    645    878  1    266
   878    645    648  1    266
   878    648    883  1    266
   883    648    889  1    266
   889    648    270  1    266
   889    270    195  1    266
   889    195    894  1    266
   894    195    196  1    266
   894    196    895  1    266
   199    226    235  1    267
   199    235    580  1    267
   580    235    198  1    267
   235    226    234  1    267
   205    225    204  1    268
   208    214    896  1    269
   208    896    207  1    269
   207    896    897  1    269
   207    897    220  1    269
   207    220    223  1    269
   220    897    217  1    269
   217    897    214  1    269
   214    897    896  1    269
   229    232    228  1    270
   241    244    240  1    271
   641    256    673  1    272
   641    673    634  1    272
   641    634    250  1    272
   634    673    249  1    272
   261    262    268  1    273
   898    899    900  1    274
   900    899    692  1    274
   900    692    694  1    274
   900    694    696  1    274
   900    696    698  1    274
   900    698    898  1    274
   898    698    272  1    274
   898    272    899  1    274
   899    272    690  1    274
   899    690    692  1    274
