# MSMS solvent excluded surface faces for fragments/fragment81.xyzr
#faces  #sphere density probe_r
   1756      39  3.00  1.50
     1    264    263  3      3
   263    264    265  3      3
   263    265      2  3      3
     2    265    266  3      3
   264    267    265  3      3
   265    267    268  3      3
   265    268    266  3      3
   266    268    269  3      3
   267      5    268  3      3
   268      5    270  3      3
   268    270    269  3      3
   269    270      4  3      3
     5      8    271  3      5
   271      8    272  3      5
   271    272      6  3      5
     6    272      7  3      5
     8    275    273  3      7
   273    275    276  3      7
   273    276    274  3      7
   274    276    277  3      7
   274    277      9  3      7
     9    277    278  3      7
   275     11    276  3      7
   276     11    279  3      7
   276    279    277  3      7
   277    279    280  3      7
   277    280    278  3      7
   278    280     10  3      7
    11     14    281  3      9
   281     14    282  3      9
   281    282     12  3      9
    12    282     13  3      9
    14     17     15  3     11
    15     17     16  3     11
    17    284    283  3     13
   283    284    285  3     13
   283    285     18  3     13
    18    285    286  3     13
   284     20    285  3     13
   285     20    287  3     13
   285    287    286  3     13
   286    287     19  3     13
    20    288     21  3     15
    21    288    289  3     15
   288     23    289  3     15
   289     23     22  3     15
    23      1    290  3     16
   290      1    291  3     16
   290    291     24  3     16
    24    291      3  3     16
    24    292     22  3     18
    22    292    293  3     18
   292     26    293  3     18
   293     26     25  3     18
    26    295    294  3     20
   294    295    296  3     20
   294    296     27  3     20
    27    296    297  3     20
   295     29    296  3     20
   296     29    298  3     20
   296    298    297  3     20
   297    298     28  3     20
    29     32     30  3     22
    30     32     31  3     22
    32     35    299  3     24
   299     35    302  3     24
   299    302    300  3     24
   300    302    303  3     24
   300    303    301  3     24
   301    303    304  3     24
   301    304     33  3     24
    33    304     34  3     24
    35     38    305  3     26
   305     38    308  3     26
   305    308    306  3     26
   306    308    309  3     26
   306    309    307  3     26
   307    309    310  3     26
   307    310     36  3     26
    36    310     37  3     26
    38     41    311  3     28
   311     41    313  3     28
   311    313    312  3     28
   312    313    314  3     28
   312    314     39  3     28
    39    314     40  3     28
    45     42     44  3     30
    41     46     43  3     31
    50     47     49  3     33
    46     51     48  3     34
    51    316    315  3     35
   315    316    317  3     35
   315    317     52  3     35
    52    317    318  3     35
   316    319    317  3     35
   317    319    320  3     35
   317    320    318  3     35
   318    320    321  3     35
   319      3    320  3     35
   320      3    322  3     35
   320    322    321  3     35
   321    322      2  3     35
    52    326    323  3     37
   323    326    327  3     37
   323    327    324  3     37
   324    327    328  3     37
   324    328    325  3     37
   325    328    329  3     37
   325    329     50  3     37
    50    329    330  3     37
   326     54    327  3     37
   327     54    331  3     37
   327    331    328  3     37
   328    331    332  3     37
   328    332    329  3     37
   329    332    333  3     37
   329    333    330  3     37
   330    333     53  3     37
    54     57    334  3     39
   334     57    337  3     39
   334    337    335  3     39
   335    337    338  3     39
   335    338    336  3     39
   336    338    339  3     39
   336    339     55  3     39
    55    339     56  3     39
    61     58     60  3     41
    57     62     59  3     42
    62     65    340  3     44
   340     65    343  3     44
   340    343    341  3     44
   341    343    344  3     44
   341    344    342  3     44
   342    344    345  3     44
   342    345     63  3     44
    63    345     64  3     44
    65    346     66  3     46
    66    346    347  3     46
   346     68    347  3     46
   347     68     67  3     46
    68     71    348  3     48
   348     71    349  3     48
   348    349     69  3     48
    69    349     70  3     48
    71      4     72  3     49
    72      4      6  3     49
    72      7     70  3     50
    70      7      9  3     50
    69     74     67  3     52
    67     74     73  3     52
    74     77    350  3     54
   350     77    351  3     54
   350    351     75  3     54
    75    351     76  3     54
    77    354    352  3     56
   352    354    355  3     56
   352    355    353  3     56
   353    355    356  3     56
   353    356     78  3     56
    78    356    357  3     56
   354     80    355  3     56
   355     80    358  3     56
   355    358    356  3     56
   356    358    359  3     56
   356    359    357  3     56
   357    359     79  3     56
    80     83    360  3     58
   360     83    361  3     58
   360    361     81  3     58
    81    361     82  3     58
    83    363    362  3     60
   362    363    364  3     60
   362    364     84  3     60
    84    364    365  3     60
   363     86    364  3     60
   364     86    366  3     60
   364    366    365  3     60
   365    366     85  3     60
    86    368    367  3     61
   367    368    369  3     61
   367    369     87  3     61
    87    369    370  3     61
   368     10    369  3     61
   369     10    371  3     61
   369    371    370  3     61
   370    371     12  3     61
    87     89    372  3     63
   372     89    373  3     63
   372    373     85  3     63
    85    373     88  3     63
    89    375    374  3     65
   374    375    376  3     65
   374    376     90  3     65
    90    376    377  3     65
   375    378    376  3     65
   376    378    379  3     65
   376    379    377  3     65
   377    379    380  3     65
   378     92    379  3     65
   379     92    381  3     65
   379    381    380  3     65
   380    381     91  3     65
    92     95     93  3     67
    93     95     94  3     67
    95    383    382  3     69
   382    383    384  3     69
   382    384     96  3     69
    96    384    385  3     69
   383    386    384  3     69
   384    386    387  3     69
   384    387    385  3     69
   385    387    388  3     69
   386     98    387  3     69
   387     98    389  3     69
   387    389    388  3     69
   388    389     97  3     69
    98     13     99  3     70
    99     13     15  3     70
    99     16     97  3     71
    97     16     18  3     71
    96     28     94  3     72
    94     28     30  3     72
    93    101    390  3     74
   390    101    392  3     74
   390    392    391  3     74
   391    392    393  3     74
   391    393     91  3     74
    91    393    100  3     74
   101     31    394  3     75
   394     31    397  3     75
   394    397    395  3     75
   395    397    398  3     75
   395    398    396  3     75
   396    398    399  3     75
   396    399    102  3     75
   102    399     33  3     75
   102    400    100  3     76
   100    400    401  3     76
   400    402    401  3     76
   401    402    403  3     76
   402    404    403  3     76
   403    404    405  3     76
   404    406    405  3     76
   405    406    407  3     76
   406     34    407  3     76
   407     34     36  3     76
    90    408     88  3     77
    88    408    409  3     77
   408    410    409  3     77
   409    410    411  3     77
   410     82    411  3     77
   411     82     84  3     77
    81    104     79  3     79
    79    104    103  3     79
   104    107    412  3     81
   412    107    413  3     81
   412    413    105  3     81
   105    413    106  3     81
   107    414    108  3     83
   108    414    415  3     83
   414    110    415  3     83
   415    110    109  3     83
   110    113    111  3     85
   111    113    112  3     85
   113    416    114  3     87
   114    416    417  3     87
   416    418    417  3     87
   417    418    419  3     87
   418    420    419  3     87
   419    420    421  3     87
   420    116    421  3     87
   421    116    115  3     87
   116    119    422  3     89
   422    119    423  3     89
   422    423    117  3     89
   117    423    118  3     89
   119    122    424  3     91
   424    122    426  3     91
   424    426    425  3     91
   425    426    427  3     91
   425    427    120  3     91
   120    427    121  3     91
   122     37    123  3     92
   123     37     39  3     92
   123     40    428  3     93
   428     40    430  3     93
   428    430    429  3     93
   429    430    431  3     93
   429    431    121  3     93
   121    431     42  3     93
   120    125    432  3     95
   432    125    433  3     95
   432    433    118  3     95
   118    433    124  3     95
   125    128    126  3     97
   126    128    127  3     97
   128    131    129  3     99
   129    131    130  3     99
   131    134    132  3    101
   132    134    133  3    101
   134    434    135  3    103
   135    434    435  3    103
   434    436    435  3    103
   435    436    437  3    103
   436    438    437  3    103
   437    438    439  3    103
   438    440    439  3    103
   439    440    441  3    103
   440    442    441  3    103
   441    442    443  3    103
   442    444    443  3    103
   443    444    445  3    103
   444    446    445  3    103
   445    446    447  3    103
   446    448    447  3    103
   447    448    449  3    103
   448    137    449  3    103
   449    137    136  3    103
   137    140    138  3    105
   138    140    139  3    105
   140    143    141  3    107
   141    143    142  3    107
   143    146    450  3    109
   450    146    451  3    109
   450    451    144  3    109
   144    451    145  3    109
   146    453    452  3    110
   452    453    454  3    110
   452    454    147  3    110
   147    454    455  3    110
   453     56    454  3    110
   454     56    456  3    110
   454    456    455  3    110
   455    456     58  3    110
   147    457    145  3    111
   145    457    458  3    111
   457     61    458  3    111
   458     61     63  3    111
   144    149    459  3    113
   459    149    460  3    113
   459    460    142  3    113
   142    460    148  3    113
   149    461    150  3    115
   150    461    462  3    115
   461    463    462  3    115
   462    463    464  3    115
   463    465    464  3    115
   464    465    466  3    115
   465    152    466  3    115
   466    152    151  3    115
   152    467    153  3    117
   153    467    468  3    117
   467    469    468  3    117
   468    469    470  3    117
   469    471    470  3    117
   470    471    472  3    117
   471    155    472  3    117
   472    155    154  3    117
   155     64    473  3    118
   473     64    475  3    118
   473    475    474  3    118
   474    475    476  3    118
   474    476    156  3    118
   156    476     66  3    118
   156    158    477  3    120
   477    158    479  3    120
   477    479    478  3    120
   478    479    480  3    120
   478    480    154  3    120
   154    480    157  3    120
   158     73    481  3    121
   481     73    482  3    121
   481    482    159  3    121
   159    482     75  3    121
   159    483    157  3    122
   157    483    484  3    122
   483     76    484  3    122
   484     76     78  3    122
   153    161    485  3    124
   485    161    486  3    124
   485    486    151  3    124
   151    486    160  3    124
   161    487    162  3    125
   162    487    488  3    125
   487    489    488  3    125
   488    489    490  3    125
   489    491    490  3    125
   490    491    492  3    125
   491    493    492  3    125
   492    493    494  3    125
   493    103    494  3    125
   494    103    105  3    125
   162    164    495  3    127
   495    164    496  3    127
   495    496    160  3    127
   160    496    163  3    127
   164    497    165  3    129
   165    497    498  3    129
   497    167    498  3    129
   498    167    166  3    129
   167    499    168  3    131
   168    499    500  3    131
   499    501    500  3    131
   500    501    502  3    131
   501    170    502  3    131
   502    170    169  3    131
   170    106    171  3    132
   171    106    108  3    132
   171    173    503  3    134
   503    173    504  3    134
   503    504    169  3    134
   169    504    172  3    134
   173    109    174  3    135
   174    109    111  3    135
   174    506    505  3    137
   505    506    507  3    137
   505    507    172  3    137
   172    507    508  3    137
   506    176    507  3    137
   507    176    509  3    137
   507    509    508  3    137
   508    509    175  3    137
   176    510    177  3    138
   177    510    511  3    138
   510    112    511  3    138
   511    112    114  3    138
   177    179    512  3    140
   512    179    513  3    140
   512    513    175  3    140
   175    513    178  3    140
   179    514    180  3    142
   180    514    515  3    142
   514    182    515  3    142
   515    182    181  3    142
   182    516    183  3    143
   183    516    517  3    143
   516    115    517  3    143
   517    115    117  3    143
   183    518    181  3    144
   181    518    519  3    144
   518    124    519  3    144
   519    124    126  3    144
   180    185    520  3    146
   520    185    521  3    146
   520    521    178  3    146
   178    521    184  3    146
   185    188    186  3    148
   186    188    187  3    148
   188    191    522  3    150
   522    191    523  3    150
   522    523    189  3    150
   189    523    190  3    150
   191    524    192  3    151
   192    524    525  3    151
   524    127    525  3    151
   525    127    129  3    151
   192    194    190  3    153
   190    194    193  3    153
   194    197    195  3    155
   195    197    196  3    155
   197    526    198  3    156
   198    526    527  3    156
   526    130    527  3    156
   527    130    132  3    156
   198    200    528  3    158
   528    200    529  3    158
   528    529    196  3    158
   196    529    199  3    158
   200    530    201  3    160
   201    530    531  3    160
   530    532    531  3    160
   531    532    533  3    160
   532    203    533  3    160
   533    203    202  3    160
   203    206    204  3    162
   204    206    205  3    162
   206    534    207  3    163
   207    534    535  3    163
   534    133    535  3    163
   535    133    135  3    163
   207    209    536  3    165
   536    209    537  3    165
   536    537    205  3    165
   205    537    208  3    165
   209    539    538  3    167
   538    539    540  3    167
   538    540    210  3    167
   210    540    541  3    167
   539    542    540  3    167
   540    542    543  3    167
   540    543    541  3    167
   541    543    544  3    167
   542    545    543  3    167
   543    545    546  3    167
   543    546    544  3    167
   544    546    547  3    167
   545    212    546  3    167
   546    212    548  3    167
   546    548    547  3    167
   547    548    211  3    167
   212    215    549  3    169
   549    215    550  3    169
   549    550    213  3    169
   213    550    214  3    169
   215    551    216  3    170
   216    551    552  3    170
   551    136    552  3    170
   552    136    138  3    170
   216    218    214  3    172
   214    218    217  3    172
   218    553    219  3    174
   219    553    554  3    174
   553    555    554  3    174
   554    555    556  3    174
   555    221    556  3    174
   556    221    220  3    174
   221    224    557  3    176
   557    224    558  3    176
   557    558    222  3    176
   222    558    223  3    176
   224    559    225  3    177
   225    559    560  3    177
   559    139    560  3    177
   560    139    141  3    177
   225    227    223  3    179
   223    227    226  3    179
   227    230    228  3    181
   228    230    229  3    181
   230    148    561  3    182
   561    148    563  3    182
   561    563    562  3    182
   562    563    564  3    182
   562    564    231  3    182
   231    564    150  3    182
   231    567    565  3    184
   565    567    568  3    184
   565    568    566  3    184
   566    568    569  3    184
   566    569    229  3    184
   229    569    570  3    184
   567    233    568  3    184
   568    233    571  3    184
   568    571    569  3    184
   569    571    572  3    184
   569    572    570  3    184
   570    572    232  3    184
   233    236    573  3    186
   573    236    574  3    186
   573    574    234  3    186
   234    574    235  3    186
   236    575    237  3    187
   237    575    576  3    187
   575    577    576  3    187
   576    577    578  3    187
   577    579    578  3    187
   578    579    580  3    187
   579    581    580  3    187
   580    581    582  3    187
   581    163    582  3    187
   582    163    165  3    187
   237    239    583  3    189
   583    239    584  3    189
   583    584    235  3    189
   235    584    238  3    189
   239    585    240  3    190
   240    585    586  3    190
   585    166    586  3    190
   586    166    168  3    190
   240    184    587  3    191
   587    184    589  3    191
   587    589    588  3    191
   588    589    590  3    191
   588    590    238  3    191
   238    590    186  3    191
   234    592    591  3    192
   591    592    593  3    192
   591    593    232  3    192
   232    593    594  3    192
   592    187    593  3    192
   593    187    595  3    192
   593    595    594  3    192
   594    595    189  3    192
   228    596    226  3    193
   226    596    597  3    193
   596    598    597  3    193
   597    598    599  3    193
   598    600    599  3    193
   599    600    601  3    193
   600    602    601  3    193
   601    602    603  3    193
   602    604    603  3    193
   603    604    605  3    193
   604    606    605  3    193
   605    606    607  3    193
   606    608    607  3    193
   607    608    609  3    193
   608    193    609  3    193
   609    193    195  3    193
   222    242    220  3    195
   220    242    241  3    195
   242    610    243  3    197
   243    610    611  3    197
   610    612    611  3    197
   611    612    613  3    197
   612    614    613  3    197
   613    614    615  3    197
   614    616    615  3    197
   615    616    617  3    197
   616    618    617  3    197
   617    618    619  3    197
   618    620    619  3    197
   619    620    621  3    197
   620    622    621  3    197
   621    622    623  3    197
   622    245    623  3    197
   623    245    244  3    197
   245    199    246  3    198
   246    199    201  3    198
   246    624    244  3    200
   244    624    625  3    200
   624    248    625  3    200
   625    248    247  3    200
   248    251    249  3    202
   249    251    250  3    202
   251    626    252  3    203
   252    626    627  3    203
   626    628    627  3    203
   627    628    629  3    203
   628    630    629  3    203
   629    630    631  3    203
   630    202    631  3    203
   631    202    204  3    203
   252    632    250  3    205
   250    632    633  3    205
   632    634    633  3    205
   633    634    635  3    205
   634    636    635  3    205
   635    636    637  3    205
   636    638    637  3    205
   637    638    639  3    205
   638    640    639  3    205
   639    640    641  3    205
   640    254    641  3    205
   641    254    253  3    205
   254    642    255  3    206
   255    642    643  3    206
   642    644    643  3    206
   643    644    645  3    206
   644    646    645  3    206
   645    646    647  3    206
   646    217    647  3    206
   647    217    219  3    206
   255    257    253  3    208
   253    257    256  3    208
   257    648    258  3    209
   258    648    649  3    209
   648    241    649  3    209
   649    241    243  3    209
   258    651    650  3    210
   650    651    652  3    210
   650    652    256  3    210
   256    652    653  3    210
   651    654    652  3    210
   652    654    655  3    210
   652    655    653  3    210
   653    655    656  3    210
   654    247    655  3    210
   655    247    657  3    210
   655    657    656  3    210
   656    657    249  3    210
   213    658    211  3    211
   211    658    659  3    211
   658    660    659  3    211
   659    660    661  3    211
   660    662    661  3    211
   661    662    663  3    211
   662    664    663  3    211
   663    664    665  3    211
   664    666    665  3    211
   665    666    667  3    211
   666    208    667  3    211
   667    208    210  3    211
    55    668     53  3    212
    53    668    669  3    212
   668     45    669  3    212
   669     45     47  3    212
    27    670     25  3    213
    25    670    671  3    213
   670     19    671  3    213
   671     19     21  3    213
   259    672    260  3    214
   260    672    673  3    214
   672    674    673  3    214
   673    674    675  3    214
   674    676    675  3    214
   675    676    677  3    214
   676    678    677  3    214
   677    678    679  3    214
   678    680    679  3    214
   679    680    681  3    214
   680    259    681  3    214
   681    259    260  3    214
   291      1    263  2      1
   291    263    322  2      1
   291    322      3  2      1
   322    263      2  2      1
     6      4    271  2      2
   271      4    270  2      2
   271    270      5  2      2
     9      7    274  2      4
   274      7    272  2      4
   274    272    273  2      4
   273    272      8  2      4
   371     10    280  2      6
   371    280    689  2      6
   371    689     12  2      6
    12    689    281  2      6
   281    689    279  2      6
   281    279     11  2      6
   279    689    280  2      6
    15     13    282  2      8
    15    282     14  2      8
    18     16    283  2     10
   283     16     17  2     10
    21     19    287  2     12
    21    287     20  2     12
    24     22    290  2     14
   290     22     23  2     14
    27     25    294  2     17
   294     25     26  2     17
    30     28    298  2     19
    30    298     29  2     19
   397     31    299  2     21
   397    299    300  2     21
   397    300    398  2     21
   398    300    301  2     21
   398    301    399  2     21
   399    301     33  2     21
   299     31     32  2     21
    36     34    304  2     23
    36    304    307  2     23
   307    304    303  2     23
   307    303    306  2     23
   306    303    302  2     23
   306    302    305  2     23
   305    302     35  2     23
    39     37    310  2     25
    39    310    312  2     25
   312    310    309  2     25
   312    309    311  2     25
   311    309    308  2     25
   311    308     38  2     25
   430     40    685  2     27
   430    685    262  2     27
   430    262    431  2     27
   431    262    686  2     27
   431    686     44  2     27
   431     44     42  2     27
   685     40    314  2     27
   685    314    684  2     27
   684    314    313  2     27
   684    313    261  2     27
   261    313    683  2     27
   683    313     43  2     27
    43    313     41  2     27
    47     45     44  2     29
    47     44     49  2     29
    49     44    686  2     29
    49    686    688  2     29
   688    686    262  2     29
   325     50     49  2     32
   325     49    688  2     32
   325    688    262  2     32
   325    262    324  2     32
   324    262    690  2     32
   324    690    323  2     32
   323    690    691  2     32
   323    691     52  2     32
    52    691    315  2     32
   315    691    684  2     32
   315    684    261  2     32
   315    261    687  2     32
   315    687     48  2     32
   315     48     51  2     32
   684    691    685  2     32
   685    691    690  2     32
   685    690    262  2     32
    55     53    336  2     36
   336     53    333  2     36
   336    333    335  2     36
   335    333    332  2     36
   335    332    334  2     36
   334    332    331  2     36
   334    331     54  2     36
   693    692    694  2     38
   694    692    695  2     38
   456     56    693  2     38
   456    693    694  2     38
   456    694     58  2     38
    58    694     60  2     38
    60    694    695  2     38
    60    695    682  2     38
   682    695     59  2     38
    59    695    338  2     38
    59    338    337  2     38
    59    337     57  2     38
   338    695    692  2     38
   338    692    339  2     38
   339    692    693  2     38
   339    693     56  2     38
    63     61     60  2     40
    63     60    342  2     40
   342     60    682  2     40
   342    682    341  2     40
   341    682     59  2     40
   341     59    340  2     40
   340     59     62  2     40
   475     64    345  2     43
   475    345    344  2     43
   475    344    476  2     43
   476    344    343  2     43
   476    343     66  2     43
    66    343     65  2     43
    69     67    348  2     45
   348     67     68  2     45
    72     70    349  2     47
    72    349     71  2     47
   482     73    350  2     51
   482    350     75  2     51
   350     73     74  2     51
    78     76    353  2     53
   353     76    351  2     53
   353    351    352  2     53
   352    351     77  2     53
    81     79    359  2     55
    81    359    360  2     55
   360    359    358  2     55
   360    358     80  2     55
    84     82    362  2     57
   362     82    361  2     57
   362    361     83  2     57
   372     85    366  2     59
   372    366    367  2     59
   372    367     87  2     59
   367    366     86  2     59
    90     88    373  2     62
    90    373    374  2     62
   374    373     89  2     62
   391     91    381  2     64
   391    381    390  2     64
   390    381     92  2     64
   390     92     93  2     64
    96     94    382  2     66
   382     94     95  2     66
    99     97    389  2     68
    99    389     98  2     68
   102    100    396  2     73
   396    100    393  2     73
   396    393    395  2     73
   395    393    392  2     73
   395    392    394  2     73
   394    392    101  2     73
   105    103    412  2     78
   412    103    104  2     78
   108    106    413  2     80
   108    413    107  2     80
   111    109    110  2     82
   114    112    113  2     84
   117    115    422  2     86
   422    115    116  2     86
   432    118    425  2     88
   432    425    120  2     88
   425    118    424  2     88
   424    118    423  2     88
   424    423    119  2     88
   429    121    427  2     90
   429    427    428  2     90
   428    427    426  2     90
   428    426    123  2     90
   123    426    122  2     90
   126    124    433  2     94
   126    433    125  2     94
   129    127    128  2     96
   132    130    131  2     98
   135    133    134  2    100
   138    136    137  2    102
   141    139    140  2    104
   459    142    143  2    106
   459    143    450  2    106
   459    450    144  2    106
   147    145    451  2    108
   147    451    452  2    108
   452    451    146  2    108
   563    148    460  2    112
   563    460    564  2    112
   564    460    149  2    112
   564    149    150  2    112
   485    151    152  2    114
   485    152    153  2    114
   478    154    473  2    116
   478    473    474  2    116
   478    474    477  2    116
   477    474    156  2    116
   473    154    155  2    116
   159    157    480  2    119
   159    480    481  2    119
   481    480    479  2    119
   481    479    158  2    119
   495    160    486  2    123
   495    486    161  2    123
   495    161    162  2    123
   165    163    496  2    126
   165    496    164  2    126
   168    166    167  2    128
   503    169    170  2    130
   503    170    171  2    130
   505    172    504  2    133
   505    504    173  2    133
   505    173    174  2    133
   512    175    509  2    136
   512    509    177  2    136
   177    509    176  2    136
   520    178    513  2    139
   520    513    179  2    139
   520    179    180  2    139
   183    181    182  2    141
   589    184    521  2    145
   589    521    590  2    145
   590    521    185  2    145
   590    185    186  2    145
   595    187    522  2    147
   595    522    189  2    147
   522    187    188  2    147
   192    190    523  2    149
   192    523    191  2    149
   195    193    194  2    152
   528    196    197  2    154
   528    197    198  2    154
   201    199    529  2    157
   201    529    200  2    157
   204    202    203  2    159
   536    205    206  2    161
   536    206    207  2    161
   210    208    537  2    164
   210    537    538  2    164
   538    537    209  2    164
   213    211    549  2    166
   549    211    548  2    166
   549    548    212  2    166
   216    214    550  2    168
   216    550    215  2    168
   219    217    218  2    171
   222    220    557  2    173
   557    220    221  2    173
   225    223    558  2    175
   225    558    224  2    175
   228    226    227  2    178
   566    229    230  2    180
   566    230    561  2    180
   566    561    565  2    180
   565    561    562  2    180
   565    562    231  2    180
   591    232    572  2    183
   591    572    234  2    183
   234    572    571  2    183
   234    571    573  2    183
   573    571    233  2    183
   583    235    574  2    185
   583    574    236  2    185
   583    236    237  2    185
   588    238    584  2    188
   588    584    587  2    188
   587    584    239  2    188
   587    239    240  2    188
   243    241    242  2    194
   246    244    245  2    196
   657    247    248  2    199
   657    248    249  2    199
   252    250    251  2    201
   255    253    254  2    204
   650    256    257  2    207
   650    257    258  2    207
   687    261    683  2    260
   687    683     48  2    260
    48    683     43  2    260
    48     43     46  2    260
    14     11     17  1    215
   697    696    702  1    215
   697    702    703  1    215
   698    697    703  1    215
   698    703    704  1    215
   699    698    704  1    215
   699    704    705  1    215
   700    706    707  1    215
   701    700    707  1    215
   701    707    708  1    215
   702    701    708  1    215
   703    702    708  1    215
   703    708    709  1    215
   704    703    709  1    215
   705    704    709  1    215
   707    706    710  1    215
   708    707    710  1    215
   709    708    710  1    215
   709    710    267  1    215
   709    267    264  1    215
   709    264    705  1    215
   705    264      1  1    215
   705      1    699  1    215
   699      1     23  1    215
   699     23    698  1    215
   698     23    288  1    215
   698    288    697  1    215
   697    288     20  1    215
   697     20    696  1    215
   696     20    284  1    215
   696    284    701  1    215
   696    701    702  1    215
   701    284     17  1    215
   701     17    700  1    215
   700     17     11  1    215
   700     11    275  1    215
   700    275    706  1    215
   706    275      8  1    215
   706      8      5  1    215
   706      5    267  1    215
   706    267    710  1    215
   712    711    714  1    216
   713    712    715  1    216
   713    715    716  1    216
   715    714    717  1    216
   712    714    715  1    216
   716    715    718  1    216
   715    717    718  1    216
   718    717    269  1    216
   718    269     71  1    216
   718     71     68  1    216
   718     68    716  1    216
   716     68    346  1    216
   716    346    713  1    216
   713    346     65  1    216
   713     65     62  1    216
   713     62     54  1    216
   713     54    712  1    216
   712     54    326  1    216
   712    326    711  1    216
   711    326    318  1    216
   711    318    321  1    216
   711    321      2  1    216
   711      2    714  1    216
   714      2    266  1    216
   714    266    717  1    216
   717    266    269  1    216
   318    326     52  1    216
    54     62     57  1    216
    71    269      4  1    216
     7     72      6  1    217
   719    722    723  1    218
   720    719    723  1    218
   720    723    724  1    218
   722    721    726  1    218
   722    726    727  1    218
   723    722    727  1    218
   723    727    728  1    218
   724    723    728  1    218
   725    729    730  1    218
   726    725    730  1    218
   727    726    730  1    218
   727    730    731  1    218
   728    727    731  1    218
   728    731    732  1    218
   730    729    733  1    218
   731    730    733  1    218
   732    731    733  1    218
   732    733     70  1    218
   732     70      9  1    218
   732      9    278  1    218
   732    278    728  1    218
   728    278    724  1    218
   724    278     10  1    218
   724     10    368  1    218
   724    368    720  1    218
   720    368     86  1    218
   720     86    363  1    218
   720    363    719  1    218
   719    363     83  1    218
   719     83    721  1    218
   719    721    722  1    218
   721     83     80  1    218
   721     80    354  1    218
   721    354    725  1    218
   721    725    726  1    218
   725    354     77  1    218
   725     77    729  1    218
   729     77     74  1    218
   729     74     69  1    218
   729     69    733  1    218
   733     69     70  1    218
    12     13    370  1    219
    13     98    370  1    219
   370     98    386  1    219
   370    386     87  1    219
    87    386     89  1    219
    89    386    375  1    219
   375    386    383  1    219
   375    383    378  1    219
   378    383     95  1    219
   378     95     92  1    219
    16     99     15  1    220
   734    735    736  1    221
   734    736    737  1    221
   734    737    738  1    221
   735    739    740  1    221
   736    735    740  1    221
   736    740    741  1    221
   737    736    741  1    221
   737    741    742  1    221
   737    742    743  1    221
   738    737    743  1    221
   740    739    744  1    221
   740    744    745  1    221
   741    740    745  1    221
   741    745    746  1    221
   742    741    746  1    221
   742    746    747  1    221
   742    747    748  1    221
   743    742    748  1    221
   743    748    749  1    221
   744    750    751  1    221
   745    744    751  1    221
   745    751    752  1    221
   746    745    752  1    221
   746    752    753  1    221
   747    746    753  1    221
   747    753    754  1    221
   748    747    754  1    221
   752    751    755  1    221
   752    755    753  1    221
   753    755    286  1    221
   753    286     19  1    221
   753     19    754  1    221
   754     19    670  1    221
   754    670    749  1    221
   754    749    748  1    221
   749    670     27  1    221
   749     27    743  1    221
   743     27    297  1    221
   743    297    738  1    221
   738    297     28  1    221
   738     28    734  1    221
   734     28     96  1    221
   734     96    735  1    221
   735     96    385  1    221
   735    385    739  1    221
   739    385    388  1    221
   739    388    744  1    221
   744    388    750  1    221
   750    388     97  1    221
   750     97     18  1    221
   750     18    751  1    221
   751     18    755  1    221
   755     18    286  1    221
   293     25    671  1    222
   293    671    756  1    222
   293    756     22  1    222
    22    756    289  1    222
   289    756    671  1    222
   289    671     21  1    222
   757    759    758  1    223
   759    761    762  1    223
   758    759    762  1    223
   758    762    760  1    223
   761    764    765  1    223
   762    761    765  1    223
   762    765    766  1    223
   760    762    766  1    223
   760    766    763  1    223
   764    768    769  1    223
   765    764    769  1    223
   765    769    770  1    223
   766    765    770  1    223
   763    766    770  1    223
   763    770    767  1    223
   770    769    771  1    223
   770    771    319  1    223
   770    319    767  1    223
   767    319    316  1    223
   767    316    763  1    223
   763    316     46  1    223
   763     46     41  1    223
   763     41    760  1    223
   760     41     38  1    223
   760     38    758  1    223
   758     38     35  1    223
   758     35    757  1    223
   757     35     32  1    223
   757     32     29  1    223
   757     29    295  1    223
   757    295    759  1    223
   759    295    761  1    223
   761    295     26  1    223
   761     26    764  1    223
   764     26    292  1    223
   764    292    768  1    223
   768    292     24  1    223
   768     24    769  1    223
   769     24    771  1    223
   771     24      3  1    223
   771      3    319  1    223
    46    316     51  1    223
    31    101     30  1    224
    30    101     93  1    224
    30     93     94  1    224
   400    102    772  1    225
   400    772    402  1    225
   402    772    773  1    225
   402    773    404  1    225
   404    773    406  1    225
   406    773     34  1    225
    34    773     33  1    225
    33    773    772  1    225
    33    772    102  1    225
   774    775    776  1    226
   774    776    777  1    226
   774    777    401  1    226
   774    401    403  1    226
   774    403    418  1    226
   774    418    416  1    226
   774    416    775  1    226
   775    416    113  1    226
   775    113    110  1    226
   775    110    408  1    226
   775    408    776  1    226
   776    408    777  1    226
   777    408    377  1    226
   777    377    380  1    226
   777    380    401  1    226
   401    380     91  1    226
   401     91    100  1    226
   377    408     90  1    226
   408    110    414  1    226
   408    414    410  1    226
   410    414    107  1    226
   410    107    104  1    226
   410    104     82  1    226
    82    104     81  1    226
   418    403    420  1    226
   420    403    405  1    226
   420    405    116  1    226
   116    405    407  1    226
   116    407    119  1    226
   119    407     36  1    226
   119     36     37  1    226
   119     37    122  1    226
    40    123     39  1    227
   779    778    780  1    228
   780    781    782  1    228
   782    781    783  1    228
   786    788    789  1    228
   786    789    444  1    228
   786    444    442  1    228
   786    442    785  1    228
   786    785    668  1    228
   786    668     55  1    228
   786     55    788  1    228
   788     55     56  1    228
   788     56    453  1    228
   788    453    789  1    228
   789    453    787  1    228
   789    787    446  1    228
   789    446    444  1    228
   446    787    448  1    228
   448    787    137  1    228
   137    787    146  1    228
   137    146    140  1    228
   140    146    143  1    228
   146    787    453  1    228
   668    785    784  1    228
   668    784     45  1    228
    45    784    783  1    228
    45    783    781  1    228
    45    781     42  1    228
    42    781    121  1    228
   121    781    120  1    228
   120    781    780  1    228
   120    780    778  1    228
   120    778    125  1    228
   125    778    131  1    228
   125    131    128  1    228
   131    778    779  1    228
   131    779    134  1    228
   134    779    434  1    228
   434    779    780  1    228
   434    780    782  1    228
   434    782    436  1    228
   436    782    438  1    228
   438    782    783  1    228
   438    783    784  1    228
   438    784    440  1    228
   440    784    785  1    228
   440    785    442  1    228
   330     53    669  1    229
   330    669     50  1    229
    50    669     47  1    229
   457    147    455  1    230
   457    455     61  1    230
    61    455     58  1    230
    64    155    458  1    231
    64    458     63  1    231
   458    155    471  1    231
   458    471    790  1    231
   458    790    463  1    231
   458    463    145  1    231
   145    463    461  1    231
   145    461    144  1    231
   144    461    149  1    231
   463    790    465  1    231
   465    790    467  1    231
   465    467    152  1    231
   467    790    469  1    231
   469    790    471  1    231
    67     73    347  1    232
   347     73    158  1    232
   347    158    156  1    232
   347    156     66  1    232
   483    159     75  1    233
   483     75     76  1    233
    79    103    493  1    234
    79    493    357  1    234
   357    493    491  1    234
   357    491    489  1    234
   357    489     78  1    234
    78    489    791  1    234
    78    791    484  1    234
   484    791    470  1    234
   484    470    472  1    234
   484    472    157  1    234
   157    472    154  1    234
   470    791    468  1    234
   468    791    153  1    234
   153    791    487  1    234
   153    487    161  1    234
   487    791    489  1    234
    85     88    792  1    235
    85    792    365  1    235
   365    792    411  1    235
   365    411     84  1    235
   411    792    409  1    235
   409    792     88  1    235
   105    106    494  1    236
   794    793    796  1    236
   794    796    797  1    236
   795    794    797  1    236
   797    796    798  1    236
   797    798    490  1    236
   797    490    492  1    236
   797    492    795  1    236
   795    492    494  1    236
   795    494    106  1    236
   795    106    170  1    236
   795    170    501  1    236
   795    501    794  1    236
   794    501    793  1    236
   793    501    499  1    236
   793    499    167  1    236
   793    167    497  1    236
   793    497    796  1    236
   796    497    798  1    236
   798    497    164  1    236
   798    164    488  1    236
   798    488    490  1    236
   488    164    162  1    236
   109    173    415  1    237
   415    173    171  1    237
   415    171    108  1    237
   510    176    799  1    238
   510    799    112  1    238
   112    799    800  1    238
   112    800    111  1    238
   111    800    174  1    238
   174    800    506  1    238
   506    800    799  1    238
   506    799    176  1    238
   516    182    801  1    239
   516    801    421  1    239
   516    421    115  1    239
   421    801    802  1    239
   421    802    419  1    239
   419    802    417  1    239
   417    802    511  1    239
   417    511    114  1    239
   511    802    801  1    239
   511    801    182  1    239
   511    182    514  1    239
   511    514    177  1    239
   177    514    179  1    239
   118    124    803  1    240
   118    803    117  1    240
   117    803    517  1    240
   517    803    518  1    240
   517    518    183  1    240
   518    803    124  1    240
   524    191    519  1    241
   524    519    127  1    241
   127    519    126  1    241
   519    191    181  1    241
   181    191    804  1    241
   181    804    515  1    241
   515    804    188  1    241
   515    188    180  1    241
   180    188    185  1    241
   188    804    191  1    241
   526    197    805  1    242
   526    805    130  1    242
   130    805    129  1    242
   129    805    525  1    242
   525    805    194  1    242
   525    194    192  1    242
   194    805    197  1    242
   534    206    203  1    243
   534    203    532  1    243
   534    532    133  1    243
   133    532    806  1    243
   133    806    132  1    243
   132    806    527  1    243
   527    806    530  1    243
   527    530    200  1    243
   527    200    198  1    243
   530    806    532  1    243
   551    215    813  1    244
   551    813    449  1    244
   551    449    136  1    244
   449    813    447  1    244
   447    813    812  1    244
   447    812    811  1    244
   447    811    445  1    244
   445    811    443  1    244
   443    811    810  1    244
   443    810    441  1    244
   441    810    809  1    244
   441    809    439  1    244
   439    809    808  1    244
   439    808    437  1    244
   437    808    807  1    244
   437    807    435  1    244
   435    807    535  1    244
   435    535    135  1    244
   535    807    207  1    244
   207    807    209  1    244
   209    807    539  1    244
   539    807    808  1    244
   539    808    809  1    244
   539    809    542  1    244
   542    809    810  1    244
   542    810    545  1    244
   545    810    811  1    244
   545    811    812  1    244
   545    812    212  1    244
   212    812    813  1    244
   212    813    215  1    244
   559    224    221  1    245
   559    221    555  1    245
   559    555    138  1    245
   559    138    139  1    245
   138    555    553  1    245
   138    553    552  1    245
   552    553    218  1    245
   552    218    216  1    245
   142    148    814  1    246
   142    814    141  1    246
   141    814    560  1    246
   560    814    225  1    246
   225    814    227  1    246
   227    814    148  1    246
   227    148    230  1    246
   817    816    818  1    247
   817    818    819  1    247
   819    818    820  1    247
   819    820    581  1    247
   819    581    579  1    247
   819    579    577  1    247
   819    577    817  1    247
   817    577    815  1    247
   817    815    816  1    247
   816    815    231  1    247
   816    231    150  1    247
   816    150    818  1    247
   818    150    462  1    247
   818    462    464  1    247
   818    464    820  1    247
   820    464    466  1    247
   820    466    821  1    247
   820    821    581  1    247
   581    821    163  1    247
   163    821    160  1    247
   160    821    151  1    247
   151    821    466  1    247
   231    815    567  1    247
   567    815    575  1    247
   567    575    233  1    247
   233    575    236  1    247
   575    815    577  1    247
   822    823    824  1    248
   824    823    825  1    248
   824    825    166  1    248
   824    166    585  1    248
   824    585    822  1    248
   822    585    239  1    248
   822    239    237  1    248
   822    237    576  1    248
   822    576    823  1    248
   823    576    578  1    248
   823    578    580  1    248
   823    580    825  1    248
   825    580    582  1    248
   825    582    498  1    248
   825    498    166  1    248
   498    582    165  1    248
   826    827    828  1    249
   828    827    829  1    249
   828    829    500  1    249
   828    500    502  1    249
   828    502    172  1    249
   828    172    508  1    249
   828    508    826  1    249
   826    508    175  1    249
   826    175    178  1    249
   826    178    184  1    249
   826    184    827  1    249
   827    184    240  1    249
   827    240    586  1    249
   827    586    829  1    249
   829    586    168  1    249
   829    168    500  1    249
   172    502    169  1    249
   592    234    235  1    250
   592    235    238  1    250
   592    238    186  1    250
   592    186    187  1    250
   190    193    608  1    251
   190    608    830  1    251
   190    830    189  1    251
   189    830    604  1    251
   189    604    594  1    251
   594    604    602  1    251
   594    602    600  1    251
   594    600    232  1    251
   232    600    598  1    251
   232    598    570  1    251
   570    598    596  1    251
   570    596    229  1    251
   229    596    228  1    251
   604    830    606  1    251
   606    830    608  1    251
   831    832    833  1    252
   831    833    834  1    252
   831    834    835  1    252
   831    835    836  1    252
   831    836    837  1    252
   831    837    832  1    252
   833    832    838  1    252
   835    834    839  1    252
   836    835    840  1    252
   836    840    841  1    252
   836    841    842  1    252
   837    836    842  1    252
   846    849    850  1    252
   847    846    850  1    252
   847    850    851  1    252
   848    847    851  1    252
   850    849    852  1    252
   850    852    853  1    252
   851    850    853  1    252
   851    853    597  1    252
   851    597    599  1    252
   851    599    848  1    252
   848    599    845  1    252
   848    845    259  1    252
   848    259    847  1    252
   847    259    844  1    252
   847    844    846  1    252
   846    844    612  1    252
   846    612    849  1    252
   849    612    610  1    252
   849    610    242  1    252
   849    242    852  1    252
   852    242    222  1    252
   852    222    223  1    252
   852    223    853  1    252
   853    223    226  1    252
   853    226    597  1    252
   612    844    614  1    252
   614    844    680  1    252
   614    680    616  1    252
   616    680    678  1    252
   616    678    618  1    252
   618    678    838  1    252
   618    838    620  1    252
   620    838    832  1    252
   620    832    837  1    252
   620    837    622  1    252
   622    837    842  1    252
   622    842    245  1    252
   245    842    199  1    252
   199    842    841  1    252
   199    841    196  1    252
   196    841    195  1    252
   195    841    840  1    252
   195    840    609  1    252
   609    840    835  1    252
   609    835    839  1    252
   609    839    607  1    252
   607    839    605  1    252
   605    839    843  1    252
   605    843    603  1    252
   603    843    672  1    252
   603    672    601  1    252
   601    672    845  1    252
   601    845    599  1    252
   845    672    259  1    252
   672    843    674  1    252
   674    843    839  1    252
   674    839    834  1    252
   674    834    676  1    252
   676    834    833  1    252
   676    833    838  1    252
   676    838    678  1    252
   680    844    259  1    252
   626    251    624  1    253
   626    624    854  1    253
   626    854    628  1    253
   628    854    630  1    253
   630    854    533  1    253
   630    533    202  1    253
   533    854    531  1    253
   531    854    246  1    253
   531    246    201  1    253
   246    854    624  1    253
   624    251    248  1    253
   855    857    858  1    254
   856    855    858  1    254
   861    860    862  1    254
   861    862    646  1    254
   861    646    644  1    254
   861    644    642  1    254
   861    642    640  1    254
   861    640    860  1    254
   860    640    638  1    254
   860    638    859  1    254
   860    859    660  1    254
   860    660    658  1    254
   860    658    862  1    254
   862    658    214  1    254
   862    214    217  1    254
   862    217    646  1    254
   214    658    213  1    254
   660    859    662  1    254
   662    859    636  1    254
   662    636    664  1    254
   664    636    634  1    254
   664    634    858  1    254
   664    858    666  1    254
   666    858    857  1    254
   666    857    208  1    254
   208    857    205  1    254
   205    857    204  1    254
   204    857    631  1    254
   631    857    855  1    254
   631    855    629  1    254
   629    855    856  1    254
   629    856    627  1    254
   627    856    632  1    254
   627    632    252  1    254
   632    856    634  1    254
   634    856    858  1    254
   636    859    638  1    254
   640    642    254  1    254
   667    210    541  1    255
   667    541    863  1    255
   667    863    665  1    255
   665    863    864  1    255
   665    864    663  1    255
   663    864    661  1    255
   661    864    865  1    255
   661    865    659  1    255
   659    865    211  1    255
   211    865    547  1    255
   547    865    544  1    255
   544    865    864  1    255
   544    864    863  1    255
   544    863    541  1    255
   220    241    867  1    256
   220    867    556  1    256
   556    867    554  1    256
   554    867    647  1    256
   554    647    219  1    256
   647    867    645  1    256
   645    867    866  1    256
   645    866    643  1    256
   643    866    648  1    256
   643    648    255  1    256
   255    648    257  1    256
   648    866    241  1    256
   241    866    867  1    256
   625    247    868  1    257
   625    868    621  1    257
   625    621    623  1    257
   625    623    244  1    257
   621    868    619  1    257
   619    868    869  1    257
   619    869    617  1    257
   617    869    870  1    257
   617    870    615  1    257
   615    870    871  1    257
   615    871    613  1    257
   613    871    649  1    257
   613    649    611  1    257
   611    649    243  1    257
   649    871    258  1    257
   258    871    651  1    257
   651    871    870  1    257
   651    870    654  1    257
   654    870    869  1    257
   654    869    868  1    257
   654    868    247  1    257
   872    875    873  1    258
   872    873    874  1    258
   874    873    877  1    258
   873    875    878  1    258
   873    878    876  1    258
   873    876    877  1    258
   877    876    641  1    258
   877    641    253  1    258
   877    253    256  1    258
   877    256    653  1    258
   877    653    874  1    258
   874    653    656  1    258
   874    656    872  1    258
   872    656    249  1    258
   872    249    250  1    258
   872    250    633  1    258
   872    633    875  1    258
   875    633    635  1    258
   875    635    878  1    258
   878    635    637  1    258
   878    637    639  1    258
   878    639    876  1    258
   876    639    641  1    258
   681    260    879  1    259
   681    879    679  1    259
   679    879    677  1    259
   677    879    880  1    259
   677    880    675  1    259
   675    880    673  1    259
   673    880    260  1    259
   260    880    879  1    259
