# MSMS solvent excluded surface faces for fragments/fragment105.xyzr
#faces  #sphere density probe_r
   1260      32  3.00  1.50
     1    217      2  3      3
     2    217    218  3      3
   217    219    218  3      3
   218    219    220  3      3
   219      5    220  3      3
   220      5      4  3      3
     5    222    221  3      5
   221    222    223  3      5
   221    223      6  3      5
     6    223    224  3      5
   222    225    223  3      5
   223    225    226  3      5
   223    226    224  3      5
   224    226    227  3      5
   225      8    226  3      5
   226      8    228  3      5
   226    228    227  3      5
   227    228      7  3      5
     8     11    229  3      7
   229     11    230  3      7
   229    230      9  3      7
     9    230     10  3      7
    11    231     12  3      8
    12    231    232  3      8
   231    233    232  3      8
   232    233    234  3      8
   233    235    234  3      8
   234    235    236  3      8
   235      1    236  3      8
   236      1      3  3      8
    12    238    237  3     10
   237    238    239  3     10
   237    239     10  3     10
    10    239    240  3     10
   238     14    239  3     10
   239     14    241  3     10
   239    241    240  3     10
   240    241     13  3     10
    14     17    242  3     12
   242     17    243  3     12
   242    243     15  3     12
    15    243     16  3     12
    17     20     18  3     14
    18     20     19  3     14
    20     23    244  3     16
   244     23    245  3     16
   244    245     21  3     16
    21    245     22  3     16
    23     26    246  3     18
   246     26    247  3     18
   246    247     24  3     18
    24    247     25  3     18
    26     29    248  3     20
   248     29    249  3     20
   248    249     27  3     20
    27    249     28  3     20
    29      3     30  3     21
    30      3      2  3     21
    30     32     28  3     23
    28     32     31  3     23
    32     35    250  3     25
   250     35    251  3     25
   250    251     33  3     25
    33    251     34  3     25
    35    252     36  3     27
    36    252    253  3     27
   252     38    253  3     27
   253     38     37  3     27
    38     41    254  3     29
   254     41    255  3     29
   254    255     39  3     29
    39    255     40  3     29
    41    256     42  3     30
    42    256    257  3     30
   256      4    257  3     30
   257      4      6  3     30
    42     44    258  3     32
   258     44    259  3     32
   258    259     40  3     32
    40    259     43  3     32
    44     47    260  3     34
   260     47    261  3     34
   260    261     45  3     34
    45    261     46  3     34
    47    262     48  3     36
    48    262    263  3     36
   262    264    263  3     36
   263    264    265  3     36
   264     50    265  3     36
   265     50     49  3     36
    50    267    266  3     38
   266    267    268  3     38
   266    268     51  3     38
    51    268    269  3     38
   267     53    268  3     38
   268     53    270  3     38
   268    270    269  3     38
   269    270     52  3     38
    53    271     54  3     40
    54    271    272  3     40
   271    273    272  3     40
   272    273    274  3     40
   273    275    274  3     40
   274    275    276  3     40
   275     56    276  3     40
   276     56     55  3     40
    56      7     57  3     41
    57      7      9  3     41
    57    277     55  3     43
    55    277    278  3     43
   277    279    278  3     43
   278    279    280  3     43
   279    281    280  3     43
   280    281    282  3     43
   281    283    282  3     43
   282    283    284  3     43
   283     59    284  3     43
   284     59     58  3     43
    59     62    285  3     45
   285     62    286  3     45
   285    286     60  3     45
    60    286     61  3     45
    62    288    287  3     46
   287    288    289  3     46
   287    289     63  3     46
    63    289    290  3     46
   288     13    289  3     46
   289     13    291  3     46
   289    291    290  3     46
   290    291     15  3     46
    63    292     61  3     48
    61    292    293  3     48
   292     65    293  3     48
   293     65     64  3     48
    65     68     66  3     50
    66     68     67  3     50
    68     16     69  3     51
    69     16     18  3     51
    69     19     67  3     52
    67     19     21  3     52
    66    294     64  3     54
    64    294    295  3     54
   294    296    295  3     54
   295    296    297  3     54
   296     71    297  3     54
   297     71     70  3     54
    71     74    298  3     56
   298     74    299  3     56
   298    299     72  3     56
    72    299     73  3     56
    74     77    300  3     58
   300     77    301  3     58
   300    301     75  3     58
    75    301     76  3     58
    77    302     78  3     60
    78    302    303  3     60
   302    304    303  3     60
   303    304    305  3     60
   304     80    305  3     60
   305     80     79  3     60
    80    307    306  3     62
   306    307    308  3     62
   306    308     81  3     62
    81    308    309  3     62
   307     83    308  3     62
   308     83    310  3     62
   308    310    309  3     62
   309    310     82  3     62
    83    311     84  3     63
    84    311    312  3     63
   311     22    312  3     63
   312     22     24  3     63
    84     86    313  3     65
   313     86    314  3     65
   313    314     82  3     65
    82    314     85  3     65
    86     25     87  3     66
    87     25     27  3     66
    87     89    315  3     68
   315     89    316  3     68
   315    316     85  3     68
    85    316     88  3     68
    89     92    317  3     70
   317     92    318  3     70
   317    318     90  3     70
    90    318     91  3     70
    92     31     93  3     71
    93     31     33  3     71
    93     95     91  3     73
    91     95     94  3     73
    95     98    319  3     75
   319     98    320  3     75
   319    320     96  3     75
    96    320     97  3     75
    98     34    321  3     76
   321     34    322  3     76
   321    322     99  3     76
    99    322     36  3     76
    99    101    323  3     78
   323    101    326  3     78
   323    326    324  3     78
   324    326    327  3     78
   324    327    325  3     78
   325    327    328  3     78
   325    328     97  3     78
    97    328    100  3     78
   101     37    329  3     79
   329     37    330  3     79
   329    330    102  3     79
   102    330     39  3     79
   102    104    331  3     81
   331    104    333  3     81
   331    333    332  3     81
   332    333    334  3     81
   332    334    100  3     81
   100    334    103  3     81
   104    335    105  3     83
   105    335    336  3     83
   335    337    336  3     83
   336    337    338  3     83
   337    107    338  3     83
   338    107    106  3     83
   107    110    108  3     85
   108    110    109  3     85
   110     43    111  3     86
   111     43     45  3     86
   111    113    109  3     88
   109    113    112  3     88
   113    339    114  3     90
   114    339    340  3     90
   339    116    340  3     90
   340    116    115  3     90
   116    119    117  3     92
   117    119    118  3     92
   119    341    120  3     94
   120    341    342  3     94
   341    122    342  3     94
   342    122    121  3     94
   122    344    343  3     95
   343    344    345  3     95
   343    345    123  3     95
   123    345    346  3     95
   344     46    345  3     95
   345     46    347  3     95
   345    347    346  3     95
   346    347     48  3     95
   123     49    348  3     96
   348     49    349  3     96
   348    349    121  3     96
   121    349     51  3     96
   120    125    350  3     98
   350    125    351  3     98
   350    351    118  3     98
   118    351    124  3     98
   125    352    126  3    100
   126    352    353  3    100
   352    354    353  3    100
   353    354    355  3    100
   354    128    355  3    100
   355    128    127  3    100
   128    357    356  3    102
   356    357    358  3    102
   356    358    129  3    102
   129    358    359  3    102
   357    131    358  3    102
   358    131    360  3    102
   358    360    359  3    102
   359    360    130  3    102
   131    134    361  3    104
   361    134    362  3    104
   361    362    132  3    104
   132    362    133  3    104
   134     52    363  3    105
   363     52    365  3    105
   363    365    364  3    105
   364    365    366  3    105
   364    366    135  3    105
   135    366     54  3    105
   135    137    133  3    107
   133    137    136  3    107
   137    140    367  3    109
   367    140    368  3    109
   367    368    138  3    109
   138    368    139  3    109
   140    143    141  3    111
   141    143    142  3    111
   143     58    369  3    112
   369     58    370  3    112
   369    370    144  3    112
   144    370     60  3    112
   144    146    142  3    114
   142    146    145  3    114
   146    371    147  3    115
   147    371    372  3    115
   371     70    372  3    115
   372     70     72  3    115
   147    373    145  3    117
   145    373    374  3    117
   373    375    374  3    117
   374    375    376  3    117
   375    149    376  3    117
   376    149    148  3    117
   149    152    377  3    119
   377    152    378  3    119
   377    378    150  3    119
   150    378    151  3    119
   152     73    379  3    120
   379     73    382  3    120
   379    382    380  3    120
   380    382    383  3    120
   380    383    381  3    120
   381    383    384  3    120
   381    384    153  3    120
   153    384     75  3    120
   153    155    385  3    122
   385    155    387  3    122
   385    387    386  3    122
   386    387    388  3    122
   386    388    151  3    122
   151    388    154  3    122
   155    391    389  3    124
   389    391    392  3    124
   389    392    390  3    124
   390    392    393  3    124
   390    393    156  3    124
   156    393    394  3    124
   391    158    392  3    124
   392    158    395  3    124
   392    395    393  3    124
   393    395    396  3    124
   393    396    394  3    124
   394    396    157  3    124
   158    161    397  3    126
   397    161    399  3    126
   397    399    398  3    126
   398    399    400  3    126
   398    400    159  3    126
   159    400    160  3    126
   161    164    401  3    128
   401    164    402  3    128
   401    402    162  3    128
   162    402    163  3    128
   164    403    165  3    130
   165    403    404  3    130
   403    167    404  3    130
   404    167    166  3    130
   167    406    405  3    132
   405    406    407  3    132
   405    407    168  3    132
   168    407    408  3    132
   406    170    407  3    132
   407    170    409  3    132
   407    409    408  3    132
   408    409    169  3    132
   170     76    410  3    133
   410     76    411  3    133
   410    411    171  3    133
   171    411     78  3    133
   171     79    412  3    134
   412     79    413  3    134
   412    413    169  3    134
   169    413     81  3    134
   168    414    166  3    136
   166    414    415  3    136
   414    173    415  3    136
   415    173    172  3    136
   173    417    416  3    138
   416    417    418  3    138
   416    418    174  3    138
   174    418    419  3    138
   417    176    418  3    138
   418    176    420  3    138
   418    420    419  3    138
   419    420    175  3    138
   176     88    177  3    139
   177     88     90  3    139
   177     94    175  3    140
   175     94     96  3    140
   174    421    172  3    141
   172    421    422  3    141
   421    163    422  3    141
   422    163    165  3    141
   162    179    423  3    143
   423    179    425  3    143
   423    425    424  3    143
   424    425    426  3    143
   424    426    160  3    143
   160    426    178  3    143
   179    429    427  3    144
   427    429    430  3    144
   427    430    428  3    144
   428    430    431  3    144
   428    431    180  3    144
   180    431    432  3    144
   429    103    430  3    144
   430    103    433  3    144
   430    433    431  3    144
   431    433    434  3    144
   431    434    432  3    144
   432    434    105  3    144
   180    435    178  3    145
   178    435    436  3    145
   435    157    436  3    145
   436    157    159  3    145
   156    437    154  3    147
   154    437    438  3    147
   437    439    438  3    147
   438    439    440  3    147
   439    182    440  3    147
   440    182    181  3    147
   182    441    183  3    149
   183    441    442  3    149
   441    443    442  3    149
   442    443    444  3    149
   443    445    444  3    149
   444    445    446  3    149
   445    447    446  3    149
   446    447    448  3    149
   447    185    448  3    149
   448    185    184  3    149
   185    449    186  3    151
   186    449    450  3    151
   449    188    450  3    151
   450    188    187  3    151
   188    451    189  3    152
   189    451    452  3    152
   451    453    452  3    152
   452    453    454  3    152
   453    455    454  3    152
   454    455    456  3    152
   455    457    456  3    152
   456    457    458  3    152
   457    106    458  3    152
   458    106    108  3    152
   189    459    187  3    154
   187    459    460  3    154
   459    461    460  3    154
   460    461    462  3    154
   461    463    462  3    154
   462    463    464  3    154
   463    465    464  3    154
   464    465    466  3    154
   465    191    466  3    154
   466    191    190  3    154
   191    194    192  3    156
   192    194    193  3    156
   194    467    195  3    157
   195    467    468  3    157
   467    112    468  3    157
   468    112    114  3    157
   195    115    193  3    158
   193    115    117  3    158
   192    470    469  3    160
   469    470    471  3    160
   469    471    190  3    160
   190    471    472  3    160
   470    197    471  3    160
   471    197    473  3    160
   471    473    472  3    160
   472    473    196  3    160
   197    200    198  3    162
   198    200    199  3    162
   200    203    201  3    164
   201    203    202  3    164
   203    124    204  3    165
   204    124    126  3    165
   204    474    202  3    167
   202    474    475  3    167
   474    206    475  3    167
   475    206    205  3    167
   206    209    207  3    169
   207    209    208  3    169
   209    212    210  3    171
   210    212    211  3    171
   212    476    213  3    173
   213    476    477  3    173
   476    215    477  3    173
   477    215    214  3    173
   215    127    478  3    174
   478    127    479  3    174
   478    479    216  3    174
   216    479    129  3    174
   216    480    214  3    175
   214    480    481  3    175
   480    139    481  3    175
   481    139    141  3    175
   213    148    211  3    176
   211    148    150  3    176
   210    181    208  3    177
   208    181    183  3    177
   207    482    205  3    178
   205    482    483  3    178
   482    199    483  3    178
   483    199    201  3    178
   198    484    196  3    179
   196    484    485  3    179
   484    486    485  3    179
   485    486    487  3    179
   486    488    487  3    179
   487    488    489  3    179
   488    490    489  3    179
   489    490    491  3    179
   490    184    491  3    179
   491    184    186  3    179
   138    130    136  3    180
   136    130    132  3    180
     3      1      2  2      1
     6      4    221  2      2
   221      4      5  2      2
     9      7    229  2      4
   229      7    228  2      4
   229    228      8  2      4
   237     10    230  2      6
   237    230     12  2      6
    12    230     11  2      6
   291     13    241  2      9
   291    241    242  2      9
   291    242     15  2      9
   242    241     14  2      9
    18     16    243  2     11
    18    243     17  2     11
    21     19    244  2     13
   244     19     20  2     13
    24     22    246  2     15
   246     22    245  2     15
   246    245     23  2     15
    27     25    247  2     17
    27    247    248  2     17
   248    247     26  2     17
    30     28    249  2     19
    30    249     29  2     19
    33     31    250  2     22
   250     31     32  2     22
   322     34    251  2     24
   322    251     35  2     24
   322     35     36  2     24
   330     37    254  2     26
   330    254     39  2     26
   254     37     38  2     26
   258     40    255  2     28
   258    255     42  2     28
    42    255     41  2     28
    45     43    259  2     31
    45    259    260  2     31
   260    259     44  2     31
   347     46    261  2     33
   347    261     47  2     33
   347     47     48  2     33
   349     49     50  2     35
   349     50    266  2     35
   349    266     51  2     35
   365     52    270  2     37
   365    270    366  2     37
   366    270     53  2     37
   366     53     54  2     37
    57     55     56  2     39
   370     58     59  2     42
   370     59    285  2     42
   370    285     60  2     42
    63     61    287  2     44
   287     61    286  2     44
   287    286     62  2     44
    66     64     65  2     47
    69     67     68  2     49
    72     70    298  2     53
   298     70     71  2     53
   382     73    299  2     55
   382    299     74  2     55
   382     74    383  2     55
   383     74    300  2     55
   383    300    384  2     55
   384    300     75  2     55
   411     76    301  2     57
   411    301     77  2     57
   411     77     78  2     57
   413     79     80  2     59
   413     80    306  2     59
   413    306     81  2     59
   313     82    310  2     61
   313    310     83  2     61
   313     83     84  2     61
   315     85    314  2     64
   315    314     87  2     64
    87    314     86  2     64
    90     88    316  2     67
    90    316    317  2     67
   317    316     89  2     67
    93     91    318  2     69
    93    318     92  2     69
    96     94    319  2     72
   319     94     95  2     72
   325     97    320  2     74
   325    320     98  2     74
   325     98    324  2     74
   324     98    321  2     74
   324    321    323  2     74
   323    321     99  2     74
   493    492    494  2     77
   332    100    328  2     77
   332    328    494  2     77
   332    494    331  2     77
   331    494    492  2     77
   331    492    102  2     77
   102    492    329  2     77
   329    492    493  2     77
   329    493    326  2     77
   329    326    101  2     77
   326    493    327  2     77
   327    493    494  2     77
   327    494    328  2     77
   433    103    334  2     80
   433    334    333  2     80
   433    333    434  2     80
   434    333    104  2     80
   434    104    105  2     80
   108    106    107  2     82
   111    109    110  2     84
   114    112    113  2     87
   117    115    116  2     89
   350    118    119  2     91
   350    119    120  2     91
   348    121    122  2     93
   348    122    343  2     93
   348    343    123  2     93
   126    124    351  2     97
   126    351    125  2     97
   479    127    356  2     99
   479    356    129  2     99
   356    127    128  2     99
   132    130    360  2    101
   132    360    361  2    101
   361    360    131  2    101
   135    133    364  2    103
   364    133    363  2    103
   363    133    362  2    103
   363    362    134  2    103
   138    136    367  2    106
   367    136    137  2    106
   141    139    368  2    108
   141    368    140  2    108
   144    142    369  2    110
   369    142    143  2    110
   147    145    146  2    113
   150    148    377  2    116
   377    148    149  2    116
   386    151    495  2    118
   386    495    380  2    118
   386    380    496  2    118
   386    496    385  2    118
   385    496    381  2    118
   385    381    153  2    118
   381    496    380  2    118
   380    495    379  2    118
   379    495    378  2    118
   379    378    152  2    118
   378    495    151  2    118
   156    154    390  2    121
   390    154    388  2    121
   390    388    389  2    121
   389    388    387  2    121
   389    387    155  2    121
   159    157    398  2    123
   398    157    396  2    123
   398    396    397  2    123
   397    396    395  2    123
   397    395    158  2    123
   424    160    400  2    125
   424    400    497  2    125
   424    497    423  2    125
   423    497    498  2    125
   423    498    162  2    125
   162    498    401  2    125
   401    498    161  2    125
   161    498    399  2    125
   399    498    497  2    125
   399    497    400  2    125
   165    163    402  2    127
   165    402    164  2    127
   168    166    405  2    129
   405    166    167  2    129
   412    169    409  2    131
   412    409    410  2    131
   412    410    171  2    131
   410    409    170  2    131
   174    172    416  2    135
   416    172    173  2    135
   177    175    420  2    137
   177    420    176  2    137
   180    178    426  2    142
   180    426    428  2    142
   428    426    425  2    142
   428    425    427  2    142
   427    425    179  2    142
   183    181    182  2    146
   186    184    185  2    148
   189    187    188  2    150
   469    190    191  2    153
   469    191    192  2    153
   195    193    194  2    155
   198    196    473  2    159
   198    473    197  2    159
   201    199    200  2    161
   204    202    203  2    163
   207    205    206  2    166
   210    208    209  2    168
   213    211    212  2    170
   216    214    478  2    172
   478    214    215  2    172
   500    499    503  1    181
   500    503    504  1    181
   501    500    504  1    181
   503    502    505  1    181
   499    502    503  1    181
   504    503    506  1    181
   503    505    506  1    181
   506    505    235  1    181
   506    235    233  1    181
   506    233    504  1    181
   504    233    231  1    181
   504    231    501  1    181
   501    231     11  1    181
   501     11      8  1    181
   501      8    500  1    181
   500      8    225  1    181
   500    225    499  1    181
   499    225    222  1    181
   499    222      5  1    181
   499      5    502  1    181
   502      5    219  1    181
   502    219    505  1    181
   505    219    217  1    181
   505    217      1  1    181
   505      1    235  1    181
   256     41     38  1    182
   256     38    220  1    182
   256    220      4  1    182
   220     38    252  1    182
   220    252    218  1    182
   218    252     35  1    182
   218     35      2  1    182
     2     35     32  1    182
     2     32     30  1    182
     7     56    227  1    183
   227     56    275  1    183
   227    275    264  1    183
   227    264    224  1    183
   224    264    262  1    183
   224    262      6  1    183
     6    262    257  1    183
   257    262     47  1    183
   257     47     44  1    183
   257     44     42  1    183
   264    275    273  1    183
   264    273     50  1    183
    50    273    267  1    183
   267    273    271  1    183
   267    271     53  1    183
   507    509    510  1    184
   508    507    510  1    184
   508    510     13  1    184
   508     13    288  1    184
   508    288    283  1    184
   508    283    281  1    184
   508    281    507  1    184
   507    281    279  1    184
   507    279    509  1    184
   509    279    277  1    184
   509    277     57  1    184
   509     57      9  1    184
   509      9     10  1    184
   509     10    510  1    184
   510     10    240  1    184
   510    240     13  1    184
   283    288     62  1    184
   283     62     59  1    184
     3     29    236  1    185
   236     29    513  1    185
   236    513    234  1    185
   234    513    512  1    185
   234    512    232  1    185
   232    512    238  1    185
   232    238     12  1    185
   238    512    511  1    185
   238    511     14  1    185
    14    511     17  1    185
    17    511     20  1    185
    20    511     23  1    185
    23    511    512  1    185
    23    512    513  1    185
    23    513     26  1    185
    26    513     29  1    185
    16     68    514  1    186
    16    514     15  1    186
    15    514    290  1    186
   290    514     63  1    186
    63    514    292  1    186
   292    514     65  1    186
    65    514     68  1    186
    19     69     18  1    187
   516    519    520  1    188
   517    516    520  1    188
   517    520    307  1    188
   517    307     80  1    188
   517     80    304  1    188
   517    304    516  1    188
   516    304    515  1    188
   516    515     66  1    188
   516     66    518  1    188
   516    518    519  1    188
   519    518    311  1    188
   519    311    520  1    188
   520    311     83  1    188
   520     83    307  1    188
   311    518     21  1    188
   311     21     22  1    188
    21    518     67  1    188
    67    518     66  1    188
    66    515    294  1    188
   294    515    304  1    188
   294    304    296  1    188
   296    304    302  1    188
   296    302     71  1    188
    71    302     77  1    188
    71     77     74  1    188
    25     86    521  1    189
    25    521     24  1    189
    24    521    312  1    189
   312    521     84  1    189
    84    521     86  1    189
    28     31     92  1    190
    28     92     89  1    190
    28     89     27  1    190
    27     89     87  1    190
    34     98     95  1    191
    34     95     33  1    191
    33     95     93  1    191
    37    101    253  1    192
   253    101     99  1    192
   253     99     36  1    192
    40     43    107  1    193
    40    107     39  1    193
    39    107    337  1    193
    39    337    335  1    193
    39    335    102  1    193
   102    335    104  1    193
   107     43    110  1    193
   344    122    522  1    194
   344    522    113  1    194
   344    113     46  1    194
    46    113    111  1    194
    46    111     45  1    194
   113    522    339  1    194
   339    522    116  1    194
   116    522    341  1    194
   116    341    119  1    194
   341    522    122  1    194
    49    123    265  1    195
   265    123    523  1    195
   265    523    263  1    195
   263    523    346  1    195
   263    346     48  1    195
   346    523    123  1    195
   524    526    527  1    196
   526    525    529  1    196
   526    529    530  1    196
   527    526    530  1    196
   527    530    531  1    196
   525    528    529  1    196
   529    528    532  1    196
   529    532    533  1    196
   530    529    533  1    196
   530    533    531  1    196
   531    533    269  1    196
   531    269     52  1    196
   531     52    134  1    196
   531    134    131  1    196
   531    131    357  1    196
   531    357    527  1    196
   527    357    524  1    196
   524    357    128  1    196
   524    128    354  1    196
   524    354    352  1    196
   524    352    525  1    196
   524    525    526  1    196
   525    352    125  1    196
   525    125    528  1    196
   528    125    120  1    196
   528    120    342  1    196
   528    342    532  1    196
   532    342    121  1    196
   532    121     51  1    196
   532     51    533  1    196
   533     51    269  1    196
   534    538    539  1    197
   535    534    539  1    197
   535    539    282  1    197
   535    282    536  1    197
   535    536    140  1    197
   535    140    137  1    197
   535    137    534  1    197
   534    137     54  1    197
   534     54    272  1    197
   534    272    538  1    197
   538    272    274  1    197
   538    274    276  1    197
   538    276    278  1    197
   538    278    539  1    197
   539    278    280  1    197
   539    280    282  1    197
   278    276     55  1    197
    54    137    135  1    197
   140    536    537  1    197
   140    537    143  1    197
   143    537     58  1    197
    58    537    284  1    197
   284    537    536  1    197
   284    536    282  1    197
   293     64    295  1    198
   293    295    540  1    198
   293    540    146  1    198
   293    146    144  1    198
   293    144     60  1    198
   293     60     61  1    198
   146    540    371  1    198
   371    540    297  1    198
   371    297     70  1    198
   297    540    295  1    198
    73    152    149  1    199
    73    149    375  1    199
    73    375     72  1    199
    72    375    373  1    199
    72    373    372  1    199
   372    373    147  1    199
   541    542    543  1    200
   541    543    544  1    200
   543    542    545  1    200
   543    545    546  1    200
   544    543    546  1    200
   544    546    547  1    200
   544    547    548  1    200
   546    545    549  1    200
   546    549    550  1    200
   547    546    550  1    200
   547    550    551  1    200
   547    551    552  1    200
   548    547    552  1    200
   548    552    553  1    200
   548    553    391  1    200
   548    391    544  1    200
   544    391    155  1    200
   544    155    541  1    200
   541    155    153  1    200
   541    153    542  1    200
   542    153     75  1    200
   542     75     76  1    200
   542     76    545  1    200
   545     76    170  1    200
   545    170    406  1    200
   545    406    549  1    200
   549    406    167  1    200
   549    167    550  1    200
   550    167    403  1    200
   550    403    551  1    200
   551    403    164  1    200
   551    164    552  1    200
   552    164    553  1    200
   553    164    161  1    200
   553    161    158  1    200
   553    158    391  1    200
    79    171    555  1    201
    79    555    305  1    201
   305    555    303  1    201
   303    555    554  1    201
   303    554     78  1    201
    78    554    171  1    201
   171    554    555  1    201
   556    557    558  1    202
   557    561    562  1    202
   558    557    562  1    202
   558    562    563  1    202
   559    558    563  1    202
   559    563    564  1    202
   561    560    565  1    202
   561    565    566  1    202
   562    561    566  1    202
   562    566    567  1    202
   563    562    567  1    202
   563    567    568  1    202
   564    563    568  1    202
   566    565    569  1    202
   566    569    570  1    202
   567    566    570  1    202
   567    570    571  1    202
   568    567    571  1    202
   570    569    572  1    202
   571    570    572  1    202
   571    572    417  1    202
   571    417    568  1    202
   568    417    173  1    202
   568    173    564  1    202
   564    173    414  1    202
   564    414    559  1    202
   559    414    168  1    202
   559    168    408  1    202
   559    408    558  1    202
   558    408    556  1    202
   556    408    169  1    202
   556    169     81  1    202
   556     81    557  1    202
   557     81    309  1    202
   557    309    560  1    202
   557    560    561  1    202
   560    309     82  1    202
   560     82    565  1    202
   565     82    569  1    202
   569     82     85  1    202
   569     85    572  1    202
   572     85     88  1    202
   572     88    176  1    202
   572    176    417  1    202
    91     94    177  1    203
    91    177     90  1    203
   573    576    577  1    204
   574    573    577  1    204
   574    577    578  1    204
   576    575    580  1    204
   576    580    581  1    204
   577    576    581  1    204
   577    581    582  1    204
   578    577    582  1    204
   578    582    583  1    204
   581    580    586  1    204
   581    586    587  1    204
   582    581    587  1    204
   583    582    587  1    204
   584    583    587  1    204
   579    583    584  1    204
   585    584    588  1    204
   587    586    588  1    204
   584    587    588  1    204
   588    586    419  1    204
   588    419    175  1    204
   588    175    585  1    204
   585    175     96  1    204
   585     96    584  1    204
   584     96    579  1    204
   579     96     97  1    204
   579     97    103  1    204
   579    103    429  1    204
   579    429    583  1    204
   583    429    578  1    204
   578    429    179  1    204
   578    179    574  1    204
   574    179    162  1    204
   574    162    573  1    204
   573    162    163  1    204
   573    163    575  1    204
   573    575    576  1    204
   575    163    421  1    204
   575    421    174  1    204
   575    174    580  1    204
   580    174    419  1    204
   580    419    586  1    204
   103     97    100  1    204
   589    590    591  1    205
   594    593    596  1    205
   594    596    455  1    205
   594    455    453  1    205
   594    453    451  1    205
   594    451    593  1    205
   593    451    188  1    205
   593    188    180  1    205
   593    180    432  1    205
   593    432    596  1    205
   596    432    105  1    205
   596    105    336  1    205
   596    336    595  1    205
   596    595    455  1    205
   455    595    457  1    205
   457    595    338  1    205
   457    338    106  1    205
   338    595    336  1    205
   180    188    435  1    205
   435    188    449  1    205
   435    449    185  1    205
   435    185    592  1    205
   435    592    157  1    205
   157    592    591  1    205
   157    591    394  1    205
   394    591    590  1    205
   394    590    156  1    205
   156    590    437  1    205
   437    590    589  1    205
   437    589    439  1    205
   439    589    441  1    205
   439    441    182  1    205
   441    589    443  1    205
   443    589    445  1    205
   445    589    591  1    205
   445    591    447  1    205
   447    591    592  1    205
   447    592    185  1    205
   109    112    108  1    206
   108    112    458  1    206
   458    112    598  1    206
   458    598    456  1    206
   456    598    599  1    206
   456    599    454  1    206
   454    599    461  1    206
   454    461    459  1    206
   454    459    452  1    206
   452    459    189  1    206
   461    599    463  1    206
   463    599    597  1    206
   463    597    465  1    206
   465    597    194  1    206
   465    194    191  1    206
   194    597    467  1    206
   467    597    598  1    206
   467    598    112  1    206
   598    597    599  1    206
   115    195    468  1    207
   115    468    340  1    207
   340    468    114  1    207
   600    602    601  1    208
   601    602    604  1    208
   601    604    603  1    208
   601    603    118  1    208
   601    118    124  1    208
   601    124    600  1    208
   600    124    203  1    208
   600    203    200  1    208
   600    200    197  1    208
   600    197    602  1    208
   602    197    470  1    208
   602    470    604  1    208
   604    470    192  1    208
   604    192    193  1    208
   604    193    603  1    208
   603    193    117  1    208
   603    117    118  1    208
   605    607    608  1    209
   605    608    206  1    209
   605    206    474  1    209
   605    474    606  1    209
   605    606    355  1    209
   605    355    607  1    209
   607    355    127  1    209
   607    127    215  1    209
   607    215    476  1    209
   607    476    608  1    209
   608    476    609  1    209
   608    609    209  1    209
   608    209    206  1    209
   209    609    212  1    209
   212    609    476  1    209
   355    606    353  1    209
   353    606    204  1    209
   353    204    126  1    209
   204    606    474  1    209
   130    138    359  1    210
   359    138    139  1    210
   359    139    480  1    210
   359    480    129  1    210
   129    480    216  1    210
   133    136    132  1    211
   142    145    481  1    212
   142    481    141  1    212
   481    145    611  1    212
   481    611    610  1    212
   481    610    214  1    212
   214    610    477  1    212
   477    610    213  1    212
   213    610    148  1    212
   148    610    376  1    212
   376    610    611  1    212
   376    611    374  1    212
   374    611    145  1    212
   151    154    613  1    213
   151    613    150  1    213
   150    613    612  1    213
   150    612    211  1    213
   211    612    210  1    213
   210    612    181  1    213
   181    612    440  1    213
   440    612    613  1    213
   440    613    438  1    213
   438    613    154  1    213
   160    178    436  1    214
   160    436    159  1    214
   415    172    422  1    215
   415    422    404  1    215
   415    404    166  1    215
   404    422    165  1    215
   484    198    199  1    216
   484    199    616  1    216
   484    616    486  1    216
   486    616    615  1    216
   486    615    617  1    216
   486    617    488  1    216
   488    617    446  1    216
   488    446    490  1    216
   490    446    448  1    216
   490    448    184  1    216
   446    617    444  1    216
   444    617    615  1    216
   444    615    614  1    216
   444    614    442  1    216
   442    614    183  1    216
   183    614    208  1    216
   208    614    207  1    216
   207    614    482  1    216
   482    614    615  1    216
   482    615    616  1    216
   482    616    199  1    216
   618    619    620  1    217
   618    620    621  1    217
   619    622    623  1    217
   620    619    623  1    217
   620    623    624  1    217
   621    620    624  1    217
   621    624    625  1    217
   622    626    627  1    217
   623    622    627  1    217
   623    627    628  1    217
   624    623    628  1    217
   624    628    629  1    217
   625    624    629  1    217
   627    626    630  1    217
   627    630    631  1    217
   628    627    631  1    217
   628    631    632  1    217
   629    628    632  1    217
   629    632    466  1    217
   629    466    190  1    217
   629    190    625  1    217
   625    190    472  1    217
   625    472    621  1    217
   621    472    196  1    217
   621    196    485  1    217
   621    485    618  1    217
   618    485    487  1    217
   618    487    619  1    217
   619    487    489  1    217
   619    489    491  1    217
   619    491    622  1    217
   622    491    186  1    217
   622    186    626  1    217
   626    186    450  1    217
   626    450    630  1    217
   630    450    187  1    217
   630    187    460  1    217
   630    460    631  1    217
   631    460    462  1    217
   631    462    632  1    217
   632    462    464  1    217
   632    464    466  1    217
   475    205    483  1    218
   475    483    202  1    218
   202    483    201  1    218
