# MSMS solvent excluded surface faces for fragments/fragment157.xyzr
#faces  #sphere density probe_r
   1512      36  3.00  1.50
     1      5    247  3      3
   247      5    248  3      3
   247    248      2  3      3
     2    248      4  3      3
     5    250    249  3      5
   249    250    251  3      5
   249    251      6  3      5
     6    251    252  3      5
   250      8    251  3      5
   251      8    253  3      5
   251    253    252  3      5
   252    253      7  3      5
     8    255    254  3      7
   254    255    256  3      7
   254    256      9  3      7
     9    256    257  3      7
   255    258    256  3      7
   256    258    259  3      7
   256    259    257  3      7
   257    259    260  3      7
   258     11    259  3      7
   259     11    261  3      7
   259    261    260  3      7
   260    261     10  3      7
    11     14    262  3      9
   262     14    263  3      9
   262    263     12  3      9
    12    263     13  3      9
    14    265    264  3     11
   264    265    266  3     11
   264    266     15  3     11
    15    266    267  3     11
   265     17    266  3     11
   266     17    268  3     11
   266    268    267  3     11
   267    268     16  3     11
    17    269     18  3     13
    18    269    270  3     13
   269     20    270  3     13
   270     20     19  3     13
    20    272    271  3     15
   271    272    273  3     15
   271    273     21  3     15
    21    273    274  3     15
   272     23    273  3     15
   273     23    275  3     15
   273    275    274  3     15
   274    275     22  3     15
    23      1     24  3     16
    24      1      3  3     16
    24     26     22  3     18
    22     26     25  3     18
    26     29     27  3     20
    27     29     28  3     20
    29      3    276  3     21
   276      3    277  3     21
   276    277     30  3     21
    30    277      2  3     21
    30     32     28  3     23
    28     32     31  3     23
    32     35    278  3     25
   278     35    279  3     25
   278    279     33  3     25
    33    279     34  3     25
    35     38    280  3     27
   280     38    281  3     27
   280    281     36  3     27
    36    281     37  3     27
    38      4     39  3     28
    39      4      6  3     28
    39     41    282  3     30
   282     41    283  3     30
   282    283     37  3     30
    37    283     40  3     30
    41    284     42  3     31
    42    284    285  3     31
   284      7    285  3     31
   285      7      9  3     31
    42     44    286  3     33
   286     44    287  3     33
   286    287     40  3     33
    40    287     43  3     33
    44     47     45  3     35
    45     47     46  3     35
    47     50     48  3     37
    48     50     49  3     37
    50    288     51  3     39
    51    288    289  3     39
   288    290    289  3     39
   289    290    291  3     39
   290     53    291  3     39
   291     53     52  3     39
    53     56     54  3     41
    54     56     55  3     41
    56     59    292  3     43
   292     59    294  3     43
   292    294    293  3     43
   293    294    295  3     43
   293    295     57  3     43
    57    295     58  3     43
    59     62    296  3     45
   296     62    297  3     45
   296    297     60  3     45
    60    297     61  3     45
    62    298     63  3     46
    63    298    299  3     46
   298    300    299  3     46
   299    300    301  3     46
   300    302    301  3     46
   301    302    303  3     46
   302     10    303  3     46
   303     10     12  3     46
    63    305    304  3     47
   304    305    306  3     47
   304    306     61  3     47
    61    306    307  3     47
   305     13    306  3     47
   306     13    308  3     47
   306    308    307  3     47
   307    308     15  3     47
    60    312    309  3     49
   309    312    313  3     49
   309    313    310  3     49
   310    313    314  3     49
   310    314    311  3     49
   311    314    315  3     49
   311    315     58  3     49
    58    315    316  3     49
   312    317    313  3     49
   313    317    318  3     49
   313    318    314  3     49
   314    318    319  3     49
   314    319    315  3     49
   315    319    320  3     49
   315    320    316  3     49
   316    320    321  3     49
   317     65    318  3     49
   318     65    322  3     49
   318    322    319  3     49
   319    322    323  3     49
   319    323    320  3     49
   320    323    324  3     49
   320    324    321  3     49
   321    324     64  3     49
    65     68     66  3     51
    66     68     67  3     51
    68    326    325  3     53
   325    326    327  3     53
   325    327     69  3     53
    69    327    328  3     53
   326     71    327  3     53
   327     71    329  3     53
   327    329    328  3     53
   328    329     70  3     53
    71    330     72  3     54
    72    330    331  3     54
   330     16    331  3     54
   331     16     18  3     54
    72    332     70  3     55
    70    332    333  3     55
   332     19    333  3     55
   333     19     21  3     55
    69     74     67  3     57
    67     74     73  3     57
    74    337    334  3     59
   334    337    338  3     59
   334    338    335  3     59
   335    338    339  3     59
   335    339    336  3     59
   336    339    340  3     59
   336    340     75  3     59
    75    340    341  3     59
   337     77    338  3     59
   338     77    342  3     59
   338    342    339  3     59
   339    342    343  3     59
   339    343    340  3     59
   340    343    344  3     59
   340    344    341  3     59
   341    344     76  3     59
    77     80    345  3     61
   345     80    348  3     61
   345    348    346  3     61
   346    348    349  3     61
   346    349    347  3     61
   347    349    350  3     61
   347    350     78  3     61
    78    350     79  3     61
    80     25    351  3     62
   351     25    352  3     62
   351    352     81  3     62
    81    352     27  3     62
    81     83    353  3     64
   353     83    354  3     64
   353    354     79  3     64
    79    354     82  3     64
    83     31    355  3     65
   355     31    356  3     65
   355    356     84  3     65
    84    356     33  3     65
    84    357     82  3     67
    82    357    358  3     67
   357     86    358  3     67
   358     86     85  3     67
    86     89    359  3     69
   359     89    360  3     69
   359    360     87  3     69
    87    360     88  3     69
    89    361     90  3     71
    90    361    362  3     71
   361     92    362  3     71
   362     92     91  3     71
    92    363     93  3     73
    93    363    364  3     73
   363    365    364  3     73
   364    365    366  3     73
   365     95    366  3     73
   366     95     94  3     73
    95     34     96  3     74
    96     34     36  3     74
    96    367     94  3     76
    94    367    368  3     76
   367    369    368  3     76
   368    369    370  3     76
   369    371    370  3     76
   370    371    372  3     76
   371     98    372  3     76
   372     98     97  3     76
    98    374    373  3     78
   373    374    375  3     78
   373    375     99  3     78
    99    375    376  3     78
   374    101    375  3     78
   375    101    377  3     78
   375    377    376  3     78
   376    377    100  3     78
   101    104    378  3     80
   378    104    379  3     80
   378    379    102  3     80
   102    379    103  3     80
   104     43    380  3     81
   380     43    381  3     81
   380    381    105  3     81
   105    381     45  3     81
   105     46    103  3     82
   103     46     48  3     82
   102    383    382  3     84
   382    383    384  3     84
   382    384    100  3     84
   100    384    385  3     84
   383    107    384  3     84
   384    107    386  3     84
   384    386    385  3     84
   385    386    106  3     84
   107    387    108  3     85
   108    387    388  3     85
   387     49    388  3     85
   388     49     51  3     85
   108    110    389  3     87
   389    110    390  3     87
   389    390    106  3     87
   106    390    109  3     87
   110    391    111  3     89
   111    391    392  3     89
   391    113    392  3     89
   392    113    112  3     89
   113     52    114  3     90
   114     52     54  3     90
   114    393    112  3     92
   112    393    394  3     92
   393    116    394  3     92
   394    116    115  3     92
   116     55    395  3     93
   395     55    396  3     93
   395    396    117  3     93
   117    396     57  3     93
   117    397    115  3     95
   115    397    398  3     95
   397    119    398  3     95
   398    119    118  3     95
   119    122    120  3     97
   120    122    121  3     97
   122    125    123  3     99
   123    125    124  3     99
   125    399    126  3    101
   126    399    400  3    101
   399    401    400  3    101
   400    401    402  3    101
   401    403    402  3    101
   402    403    404  3    101
   403    405    404  3    101
   404    405    406  3    101
   405    407    406  3    101
   406    407    408  3    101
   407    409    408  3    101
   408    409    410  3    101
   409    411    410  3    101
   410    411    412  3    101
   411    413    412  3    101
   412    413    414  3    101
   413    128    414  3    101
   414    128    127  3    101
   128    131    129  3    103
   129    131    130  3    103
   131    134    132  3    105
   132    134    133  3    105
   134     88    415  3    106
   415     88    416  3    106
   415    416    135  3    106
   135    416     90  3    106
   135    137    417  3    108
   417    137    418  3    108
   417    418    133  3    108
   133    418    136  3    108
   137    419    138  3    110
   138    419    420  3    110
   419    421    420  3    110
   420    421    422  3    110
   421    140    422  3    110
   422    140    139  3    110
   140    143    423  3    112
   423    143    424  3    112
   423    424    141  3    112
   141    424    142  3    112
   143    425    144  3    114
   144    425    426  3    114
   425    427    426  3    114
   426    427    428  3    114
   427    146    428  3    114
   428    146    145  3    114
   146    430    429  3    115
   429    430    431  3    115
   429    431    147  3    115
   147    431    432  3    115
   430     91    431  3    115
   431     91    433  3    115
   431    433    432  3    115
   432    433     93  3    115
   147    149    434  3    117
   434    149    435  3    117
   434    435    145  3    117
   145    435    148  3    117
   149     97    436  3    118
   436     97    437  3    118
   436    437    150  3    118
   150    437     99  3    118
   150    438    148  3    120
   148    438    439  3    120
   438    440    439  3    120
   439    440    441  3    120
   440    442    441  3    120
   441    442    443  3    120
   442    444    443  3    120
   443    444    445  3    120
   444    152    445  3    120
   445    152    151  3    120
   152    109    446  3    121
   446    109    447  3    121
   446    447    153  3    121
   153    447    111  3    121
   153    155    151  3    123
   151    155    154  3    123
   155    448    156  3    125
   156    448    449  3    125
   448    158    449  3    125
   449    158    157  3    125
   158    118    159  3    126
   159    118    120  3    126
   159    161    450  3    128
   450    161    451  3    128
   450    451    157  3    128
   157    451    160  3    128
   161    164    162  3    130
   162    164    163  3    130
   164    167    165  3    132
   165    167    166  3    132
   167    452    168  3    133
   168    452    453  3    133
   452    121    453  3    133
   453    121    123  3    133
   168    170    454  3    135
   454    170    455  3    135
   454    455    166  3    135
   166    455    169  3    135
   170    456    171  3    137
   171    456    457  3    137
   456    458    457  3    137
   457    458    459  3    137
   458    173    459  3    137
   459    173    172  3    137
   173    460    174  3    138
   174    460    461  3    138
   460    124    461  3    138
   461    124    126  3    138
   174    176    462  3    140
   462    176    463  3    140
   462    463    172  3    140
   172    463    175  3    140
   176    465    464  3    142
   464    465    466  3    142
   464    466    177  3    142
   177    466    467  3    142
   465    179    466  3    142
   466    179    468  3    142
   466    468    467  3    142
   467    468    178  3    142
   179    182    469  3    144
   469    182    470  3    144
   469    470    180  3    144
   180    470    181  3    144
   182    471    183  3    145
   183    471    472  3    145
   471    127    472  3    145
   472    127    129  3    145
   183    473    181  3    147
   181    473    474  3    147
   473    475    474  3    147
   474    475    476  3    147
   475    185    476  3    147
   476    185    184  3    147
   185    477    186  3    148
   186    477    478  3    148
   477    130    478  3    148
   478    130    132  3    148
   186    188    184  3    150
   184    188    187  3    150
   188    191    189  3    152
   189    191    190  3    152
   191    136    479  3    153
   479    136    480  3    153
   479    480    192  3    153
   192    480    138  3    153
   192    194    481  3    155
   481    194    483  3    155
   481    483    482  3    155
   482    483    484  3    155
   482    484    190  3    155
   190    484    193  3    155
   194    139    485  3    156
   485    139    486  3    156
   485    486    195  3    156
   195    486    141  3    156
   195    197    193  3    158
   193    197    196  3    158
   197    488    487  3    160
   487    488    489  3    160
   487    489    198  3    160
   198    489    490  3    160
   488    491    489  3    160
   489    491    492  3    160
   489    492    490  3    160
   490    492    493  3    160
   491    200    492  3    160
   492    200    494  3    160
   492    494    493  3    160
   493    494    199  3    160
   200    495    201  3    161
   201    495    496  3    161
   495    163    496  3    161
   496    163    165  3    161
   201    203    199  3    163
   199    203    202  3    163
   203    497    204  3    165
   204    497    498  3    165
   497    499    498  3    165
   498    499    500  3    165
   499    501    500  3    165
   500    501    502  3    165
   501    206    502  3    165
   502    206    205  3    165
   206    503    207  3    167
   207    503    504  3    167
   503    209    504  3    167
   504    209    208  3    167
   209    169    210  3    168
   210    169    171  3    168
   210    505    208  3    170
   208    505    506  3    170
   505    212    506  3    170
   506    212    211  3    170
   212    215    213  3    172
   213    215    214  3    172
   215    507    216  3    173
   216    507    508  3    173
   507    509    508  3    173
   508    509    510  3    173
   509    511    510  3    173
   510    511    512  3    173
   511    175    512  3    173
   512    175    177  3    173
   216    218    513  3    175
   513    218    514  3    175
   513    514    214  3    175
   214    514    217  3    175
   218    515    219  3    176
   219    515    516  3    176
   515    517    516  3    176
   516    517    518  3    176
   517    519    518  3    176
   518    519    520  3    176
   519    178    520  3    176
   520    178    180  3    176
   219    221    217  3    178
   217    221    220  3    178
   221    521    222  3    180
   222    521    522  3    180
   521    224    522  3    180
   522    224    223  3    180
   224    187    225  3    181
   225    187    189  3    181
   225    523    223  3    183
   223    523    524  3    183
   523    227    524  3    183
   524    227    226  3    183
   227    525    228  3    185
   228    525    526  3    185
   525    527    526  3    185
   526    527    528  3    185
   527    529    528  3    185
   528    529    530  3    185
   529    230    530  3    185
   530    230    229  3    185
   230    196    231  3    186
   231    196    198  3    186
   231    531    229  3    187
   229    531    532  3    187
   531    533    532  3    187
   532    533    534  3    187
   533    535    534  3    187
   534    535    536  3    187
   535    537    536  3    187
   536    537    538  3    187
   537    539    538  3    187
   538    539    540  3    187
   539    202    540  3    187
   540    202    204  3    187
   228    233    226  3    189
   226    233    232  3    189
   233    236    541  3    191
   541    236    542  3    191
   541    542    234  3    191
   234    542    235  3    191
   236    544    543  3    193
   543    544    545  3    193
   543    545    237  3    193
   237    545    546  3    193
   544    547    545  3    193
   545    547    548  3    193
   545    548    546  3    193
   546    548    549  3    193
   547    550    548  3    193
   548    550    551  3    193
   548    551    549  3    193
   549    551    552  3    193
   550    553    551  3    193
   551    553    554  3    193
   551    554    552  3    193
   552    554    555  3    193
   553    556    554  3    193
   554    556    557  3    193
   554    557    555  3    193
   555    557    558  3    193
   556    239    557  3    193
   557    239    559  3    193
   557    559    558  3    193
   558    559    238  3    193
   239    242    560  3    195
   560    242    561  3    195
   560    561    240  3    195
   240    561    241  3    195
   242    205    243  3    196
   243    205    207  3    196
   243    211    241  3    197
   241    211    213  3    197
   240    563    562  3    198
   562    563    564  3    198
   562    564    238  3    198
   238    564    565  3    198
   563    566    564  3    198
   564    566    567  3    198
   564    567    565  3    198
   565    567    568  3    198
   566    235    567  3    198
   567    235    569  3    198
   567    569    568  3    198
   568    569    237  3    198
   234    220    232  3    199
   232    220    222  3    199
   162    571    570  3    201
   570    571    572  3    201
   570    572    160  3    201
   160    572    573  3    201
   571    245    572  3    201
   572    245    574  3    201
   572    574    573  3    201
   573    574    244  3    201
   245    142    575  3    202
   575    142    577  3    202
   575    577    576  3    202
   576    577    578  3    202
   576    578    246  3    202
   246    578    144  3    202
   246    154    579  3    203
   579    154    580  3    203
   579    580    244  3    203
   244    580    156  3    203
    87     76    581  3    204
   581     76    583  3    204
   581    583    582  3    204
   582    583    584  3    204
   582    584     85  3    204
    85    584     78  3    204
    75     64    585  3    205
   585     64    587  3    205
   585    587    586  3    205
   586    587    588  3    205
   586    588     73  3    205
    73    588     66  3    205
     3      1    247  2      1
     3    247    277  2      1
   277    247      2  2      1
     6      4    249  2      2
   249      4    248  2      2
   249    248      5  2      2
     9      7    253  2      4
     9    253    254  2      4
   254    253      8  2      4
    12     10    262  2      6
   262     10    261  2      6
   262    261     11  2      6
   308     13    263  2      8
   308    263    589  2      8
   308    589    264  2      8
   308    264     15  2      8
   264    589     14  2      8
    14    589    263  2      8
    18     16    268  2     10
    18    268     17  2     10
    21     19    271  2     12
   271     19     20  2     12
    24     22    275  2     14
    24    275     23  2     14
   352     25     26  2     17
   352     26     27  2     17
    30     28    276  2     19
   276     28     29  2     19
   356     31     32  2     22
   356     32    278  2     22
   356    278     33  2     22
    36     34    280  2     24
   280     34    279  2     24
   280    279     35  2     24
   282     37    281  2     26
   282    281     38  2     26
   282     38     39  2     26
   286     40    283  2     29
   286    283     42  2     29
    42    283     41  2     29
   381     43    287  2     32
   381    287     45  2     32
    45    287     44  2     32
    48     46     47  2     34
    51     49     50  2     36
    54     52     53  2     38
   396     55    293  2     40
   396    293     57  2     40
   293     55    292  2     40
   292     55     56  2     40
   311     58    295  2     42
   311    295    310  2     42
   310    295    590  2     42
   310    590    309  2     42
   309    590    296  2     42
   309    296     60  2     42
   296    590     59  2     42
    59    590    294  2     42
   294    590    295  2     42
   304     61    297  2     44
   304    297     62  2     44
   304     62     63  2     44
   587     64    324  2     48
   587    324    323  2     48
   587    323    588  2     48
   588    323    322  2     48
   588    322     66  2     48
    66    322     65  2     48
    69     67    325  2     50
   325     67     68  2     50
    72     70    329  2     52
    72    329     71  2     52
   586     73    334  2     56
   586    334    335  2     56
   586    335    585  2     56
   585    335    336  2     56
   585    336     75  2     56
   334     73     74  2     56
   591    592    593  2     58
   593    592    594  2     58
   583     76    344  2     58
   583    344    592  2     58
   583    592    591  2     58
   583    591    584  2     58
   584    591    347  2     58
   584    347     78  2     58
   347    591    593  2     58
   347    593    346  2     58
   346    593    594  2     58
   346    594    345  2     58
   345    594    342  2     58
   345    342     77  2     58
   342    594    343  2     58
   343    594    592  2     58
   343    592    344  2     58
   353     79    350  2     60
   353    350    349  2     60
   353    349     81  2     60
    81    349    348  2     60
    81    348    351  2     60
   351    348     80  2     60
    84     82    354  2     63
    84    354    355  2     63
   355    354     83  2     63
   582     85     86  2     66
   582     86    359  2     66
   582    359    581  2     66
   581    359     87  2     66
   416     88    360  2     68
   416    360     90  2     68
    90    360     89  2     68
   433     91     92  2     70
   433     92     93  2     70
    96     94     95  2     72
   437     97     98  2     75
   437     98    373  2     75
   437    373     99  2     75
   382    100    377  2     77
   382    377    378  2     77
   382    378    102  2     77
   378    377    101  2     77
   105    103    379  2     79
   105    379    380  2     79
   380    379    104  2     79
   389    106    386  2     83
   389    386    108  2     83
   108    386    107  2     83
   447    109    390  2     86
   447    390    110  2     86
   447    110    111  2     86
   114    112    113  2     88
   117    115    395  2     91
   395    115    116  2     91
   120    118    119  2     94
   123    121    122  2     96
   126    124    125  2     98
   129    127    128  2    100
   132    130    131  2    102
   417    133    415  2    104
   417    415    135  2    104
   415    133    134  2    104
   480    136    418  2    107
   480    418    137  2    107
   480    137    138  2    107
   486    139    423  2    109
   486    423    141  2    109
   423    139    140  2    109
   577    142    424  2    111
   577    424    578  2    111
   578    424    143  2    111
   578    143    144  2    111
   434    145    146  2    113
   434    146    429  2    113
   434    429    147  2    113
   150    148    435  2    116
   150    435    436  2    116
   436    435    149  2    116
   153    151    446  2    119
   446    151    152  2    119
   580    154    155  2    122
   580    155    156  2    122
   450    157    158  2    124
   450    158    159  2    124
   570    160    451  2    127
   570    451    161  2    127
   570    161    162  2    127
   165    163    164  2    129
   454    166    167  2    131
   454    167    168  2    131
   171    169    455  2    134
   171    455    170  2    134
   462    172    173  2    136
   462    173    174  2    136
   177    175    464  2    139
   464    175    463  2    139
   464    463    176  2    139
   180    178    468  2    141
   180    468    469  2    141
   469    468    179  2    141
   183    181    470  2    143
   183    470    182  2    143
   186    184    185  2    146
   189    187    188  2    149
   482    190    191  2    151
   482    191    479  2    151
   482    479    481  2    151
   481    479    192  2    151
   195    193    484  2    154
   195    484    485  2    154
   485    484    483  2    154
   485    483    194  2    154
   198    196    487  2    157
   487    196    197  2    157
   201    199    494  2    159
   201    494    200  2    159
   204    202    203  2    162
   207    205    206  2    164
   210    208    209  2    166
   213    211    212  2    169
   513    214    215  2    171
   513    215    216  2    171
   219    217    514  2    174
   219    514    218  2    174
   222    220    221  2    177
   225    223    224  2    179
   228    226    227  2    182
   231    229    230  2    184
   234    232    541  2    188
   541    232    233  2    188
   569    235    542  2    190
   569    542    543  2    190
   569    543    237  2    190
   543    542    236  2    190
   562    238    559  2    192
   562    559    560  2    192
   562    560    240  2    192
   560    559    239  2    192
   243    241    561  2    194
   243    561    242  2    194
   579    244    576  2    200
   579    576    246  2    200
   576    244    574  2    200
   576    574    575  2    200
   575    574    245  2    200
   595    602    603  1    206
   597    596    605  1    206
   597    605    606  1    206
   598    597    606  1    206
   599    598    606  1    206
   599    606    607  1    206
   600    599    607  1    206
   601    600    607  1    206
   601    607    608  1    206
   603    602    609  1    206
   603    609    610  1    206
   604    603    610  1    206
   606    605    611  1    206
   607    606    611  1    206
   608    607    611  1    206
   609    608    611  1    206
   610    609    611  1    206
   605    610    611  1    206
   610    605      8  1    206
   610      8    604  1    206
   604      8    250  1    206
   604    250      5  1    206
   604      5    603  1    206
   603      5    595  1    206
   595      5      1  1    206
   595      1     23  1    206
   595     23    602  1    206
   602     23    272  1    206
   602    272    608  1    206
   602    608    609  1    206
   608    272    601  1    206
   601    272     20  1    206
   601     20    269  1    206
   601    269    600  1    206
   600    269     17  1    206
   600     17    599  1    206
   599     17    265  1    206
   599    265    598  1    206
   598    265     11  1    206
   598     11    597  1    206
   597     11    258  1    206
   597    258    255  1    206
   597    255    596  1    206
   596    255      8  1    206
   596      8    605  1    206
    11    265     14  1    206
     4     38     35  1    207
     4     35      2  1    207
     2     35     30  1    207
    30     35     32  1    207
   284     41    612  1    208
   284    612      7  1    208
     7    612    252  1    208
   252    612     39  1    208
   252     39      6  1    208
    39    612     41  1    208
    59     56     62  1    209
   613    614    615  1    209
   615    614    617  1    209
   615    617    618  1    209
   614    616    617  1    209
   617    616    285  1    209
   617    285      9  1    209
   617      9    257  1    209
   617    257    618  1    209
   618    257    260  1    209
   618    260    302  1    209
   618    302    615  1    209
   615    302    300  1    209
   615    300    613  1    209
   613    300    288  1    209
   613    288     50  1    209
   613     50    614  1    209
   614     50     47  1    209
   614     47    616  1    209
   616     47     44  1    209
   616     44     42  1    209
   616     42    285  1    209
   288    300    290  1    209
   290    300    298  1    209
   290    298     53  1    209
    53    298     62  1    209
    53     62     56  1    209
   302    260     10  1    209
   305     63    619  1    210
   305    619    620  1    210
   305    620     13  1    210
    13    620     12  1    210
    12    620    303  1    210
   303    620    301  1    210
   301    620    619  1    210
   301    619    299  1    210
   299    619     63  1    210
    68     65    326  1    211
   621    625    626  1    211
   622    621    626  1    211
   622    626    627  1    211
   623    622    627  1    211
   623    627    628  1    211
   623    628    629  1    211
   624    623    629  1    211
   625    630    631  1    211
   626    625    631  1    211
   626    631    632  1    211
   627    626    632  1    211
   627    632    633  1    211
   628    627    633  1    211
   631    630    634  1    211
   631    634    635  1    211
   632    631    635  1    211
   632    635    636  1    211
   633    632    636  1    211
   633    636     71  1    211
   633     71    629  1    211
   633    629    628  1    211
   629     71    326  1    211
   629    326    624  1    211
   624    326     65  1    211
   624     65    317  1    211
   624    317    623  1    211
   623    317    622  1    211
   622    317    312  1    211
   622    312    621  1    211
   621    312     60  1    211
   621     60     61  1    211
   621     61    625  1    211
   625     61    307  1    211
   625    307    630  1    211
   630    307     15  1    211
   630     15    634  1    211
   634     15    267  1    211
   634    267     16  1    211
   634     16    635  1    211
   635     16    636  1    211
   636     16    330  1    211
   636    330     71  1    211
   332     72    331  1    212
   332    331    270  1    212
   332    270     19  1    212
   270    331     18  1    212
    74     69    337  1    213
   637    640    641  1    213
   638    637    641  1    213
   638    641    642  1    213
   639    638    642  1    213
   639    642    643  1    213
   639    643    644  1    213
   640    646    647  1    213
   641    640    647  1    213
   641    647    648  1    213
   642    641    648  1    213
   642    648    649  1    213
   643    642    649  1    213
   643    649    650  1    213
   644    643    650  1    213
   647    646    651  1    213
   647    651    652  1    213
   648    647    652  1    213
   648    652    653  1    213
   649    648    653  1    213
   650    649    653  1    213
   650    653    654  1    213
   650    654     22  1    213
   650     22     25  1    213
   650     25     80  1    213
   650     80    644  1    213
   644     80     77  1    213
   644     77    639  1    213
   639     77    337  1    213
   639    337    638  1    213
   638    337    637  1    213
   637    337     69  1    213
   637     69    328  1    213
   637    328    640  1    213
   640    328    645  1    213
   640    645    646  1    213
   646    645    651  1    213
   651    645    333  1    213
   651    333     21  1    213
   651     21    652  1    213
   652     21    274  1    213
   652    274    653  1    213
   653    274    654  1    213
   654    274     22  1    213
   333    645     70  1    213
    70    645    328  1    213
     3     29     24  1    214
    24     29     26  1    214
    28     31     27  1    215
    27     31     83  1    215
    27     83     81  1    215
    34     95     33  1    216
    33     95     84  1    216
    84     95    365  1    216
    84    365    357  1    216
   357    365    363  1    216
   357    363    361  1    216
   357    361     86  1    216
    86    361     89  1    216
   361    363     92  1    216
    37     40    657  1    217
    37    657    656  1    217
    37    656     36  1    217
    36    656    367  1    217
    36    367     96  1    217
   367    656    369  1    217
   369    656    657  1    217
   369    657    655  1    217
   369    655    371  1    217
   371    655    374  1    217
   371    374     98  1    217
   374    655    101  1    217
   101    655    104  1    217
   104    655     43  1    217
    43    655     40  1    217
    40    655    657  1    217
    46    105     45  1    218
   387    107    383  1    219
   387    383    658  1    219
   387    658     49  1    219
    49    658     48  1    219
    48    658    103  1    219
   103    658    102  1    219
   102    658    383  1    219
    52    113    660  1    220
    52    660    291  1    220
   291    660    659  1    220
   291    659    289  1    220
   289    659    388  1    220
   289    388     51  1    220
   388    659    391  1    220
   388    391    108  1    220
   108    391    110  1    220
   391    659    113  1    220
   113    659    660  1    220
    55    116     54  1    221
    54    116    393  1    221
    54    393    114  1    221
    57     58    117  1    222
    64     75    321  1    222
   661    663    664  1    222
   662    661    664  1    222
   662    664    665  1    222
   665    664    667  1    222
   665    667    316  1    222
   665    316    666  1    222
   665    666    401  1    222
   665    401    399  1    222
   665    399    662  1    222
   662    399    125  1    222
   662    125    661  1    222
   661    125    122  1    222
   661    122    119  1    222
   661    119    397  1    222
   661    397    663  1    222
   663    397    117  1    222
   663    117    667  1    222
   663    667    664  1    222
   667    117     58  1    222
   667     58    316  1    222
   401    666    403  1    222
   403    666    321  1    222
   403    321    405  1    222
   405    321     75  1    222
   405     75    407  1    222
   407     75    409  1    222
   409     75    341  1    222
   409    341    411  1    222
   411    341    413  1    222
   413    341     76  1    222
   413     76    668  1    222
   413    668    128  1    222
   128    668    131  1    222
   131    668     87  1    222
   131     87     88  1    222
   131     88    134  1    222
    87    668     76  1    222
   321    666    316  1    222
    66     67     73  1    223
    79     82    358  1    224
    79    358    669  1    224
    79    669     78  1    224
    78    669     85  1    224
    85    669    358  1    224
   430    146    427  1    225
   430    427    421  1    225
   430    421     91  1    225
    91    421    419  1    225
    91    419    362  1    225
   362    419    137  1    225
   362    137    135  1    225
   362    135     90  1    225
   421    427    425  1    225
   421    425    140  1    225
   140    425    143  1    225
   670    672    673  1    226
   672    671    675  1    226
   672    675    676  1    226
   673    672    676  1    226
   673    676    677  1    226
   674    673    677  1    226
   674    677    372  1    226
   674    372     97  1    226
   674     97    149  1    226
   674    149    147  1    226
   674    147    673  1    226
   673    147    670  1    226
   670    147    432  1    226
   670    432     93  1    226
   670     93    671  1    226
   670    671    672  1    226
   671     93    364  1    226
   671    364    366  1    226
   671    366    675  1    226
   675    366     94  1    226
   675     94    368  1    226
   675    368    676  1    226
   676    368    370  1    226
   676    370    677  1    226
   677    370    372  1    226
   109    152    106  1    227
   680    679    681  1    227
   678    679    680  1    227
   680    681    100  1    227
   680    100    385  1    227
   680    385    106  1    227
   680    106    678  1    227
   678    106    444  1    227
   678    444    442  1    227
   678    442    679  1    227
   679    442    440  1    227
   679    440    438  1    227
   679    438    681  1    227
   681    438     99  1    227
   681     99    376  1    227
   681    376    100  1    227
    99    438    150  1    227
   444    106    152  1    227
   394    115    398  1    228
   394    398    682  1    228
   394    682    684  1    228
   394    684    112  1    228
   112    684    683  1    228
   112    683    392  1    228
   392    683    155  1    228
   392    155    153  1    228
   392    153    111  1    228
   155    683    448  1    228
   448    683    684  1    228
   448    684    682  1    228
   448    682    158  1    228
   158    682    118  1    228
   118    682    398  1    228
   452    167    685  1    229
   452    685    121  1    229
   121    685    120  1    229
   120    685    159  1    229
   159    685    164  1    229
   159    164    161  1    229
   164    685    167  1    229
   460    173    458  1    230
   460    458    686  1    230
   460    686    124  1    230
   124    686    123  1    230
   123    686    453  1    230
   453    686    456  1    230
   453    456    170  1    230
   453    170    168  1    230
   456    686    458  1    230
   688    687    690  1    231
   688    690    691  1    231
   689    688    691  1    231
   692    691    694  1    231
   692    694    695  1    231
   693    692    695  1    231
   693    695    414  1    231
   693    414    471  1    231
   693    471    182  1    231
   693    182    179  1    231
   693    179    692  1    231
   692    179    465  1    231
   692    465    689  1    231
   692    689    691  1    231
   689    465    176  1    231
   689    176    688  1    231
   688    176    687  1    231
   687    176    174  1    231
   687    174    461  1    231
   687    461    400  1    231
   687    400    402  1    231
   687    402    404  1    231
   687    404    690  1    231
   690    404    406  1    231
   690    406    691  1    231
   691    406    408  1    231
   691    408    694  1    231
   694    408    410  1    231
   694    410    695  1    231
   695    410    412  1    231
   695    412    414  1    231
   400    461    126  1    231
   471    414    127  1    231
   477    185    475  1    232
   477    475    130  1    232
   130    475    129  1    232
   129    475    473  1    232
   129    473    472  1    232
   472    473    183  1    232
   188    186    191  1    233
   133    136    132  1    233
   132    136    478  1    233
   478    136    191  1    233
   478    191    186  1    233
   139    194    422  1    234
   422    194    192  1    234
   422    192    420  1    234
   420    192    138  1    234
   142    245    488  1    235
   142    488    197  1    235
   142    197    141  1    235
   141    197    195  1    235
   488    245    491  1    235
   491    245    200  1    235
   200    245    571  1    235
   200    571    696  1    235
   200    696    495  1    235
   495    696    162  1    235
   495    162    163  1    235
   162    696    571  1    235
   698    701    702  1    236
   699    698    702  1    236
   699    702    441  1    236
   699    441    443  1    236
   699    443    697  1    236
   699    697    246  1    236
   699    246    144  1    236
   699    144    698  1    236
   698    144    426  1    236
   698    426    701  1    236
   701    426    428  1    236
   701    428    145  1    236
   701    145    148  1    236
   701    148    439  1    236
   701    439    702  1    236
   702    439    441  1    236
   246    697    154  1    236
   154    697    700  1    236
   154    700    151  1    236
   151    700    445  1    236
   445    700    443  1    236
   443    700    697  1    236
   157    160    704  1    237
   157    704    449  1    237
   449    704    156  1    237
   156    704    703  1    237
   156    703    244  1    237
   244    703    573  1    237
   573    703    704  1    237
   573    704    160  1    237
   203    201    497  1    238
   166    169    707  1    238
   166    707    165  1    238
   165    707    706  1    238
   165    706    496  1    238
   496    706    497  1    238
   496    497    201  1    238
   497    706    499  1    238
   499    706    707  1    238
   499    707    705  1    238
   499    705    501  1    238
   501    705    503  1    238
   501    503    206  1    238
   503    705    209  1    238
   209    705    707  1    238
   209    707    169  1    238
   172    175    511  1    239
   172    511    459  1    239
   459    511    709  1    239
   459    709    457  1    239
   457    709    708  1    239
   457    708    210  1    239
   457    210    171  1    239
   210    708    505  1    239
   505    708    507  1    239
   505    507    212  1    239
   212    507    215  1    239
   507    708    509  1    239
   509    708    709  1    239
   509    709    511  1    239
   710    712    713  1    240
   710    713    714  1    240
   711    710    714  1    240
   711    714    715  1    240
   713    712    716  1    240
   713    716    717  1    240
   713    717    718  1    240
   714    713    718  1    240
   714    718    719  1    240
   715    714    719  1    240
   715    719    720  1    240
   717    716    721  1    240
   717    721    722  1    240
   718    717    722  1    240
   718    722    723  1    240
   719    718    723  1    240
   719    723    724  1    240
   720    719    724  1    240
   720    724    517  1    240
   720    517    515  1    240
   720    515    715  1    240
   715    515    218  1    240
   715    218    711  1    240
   711    218    216  1    240
   711    216    710  1    240
   710    216    508  1    240
   710    508    712  1    240
   712    508    510  1    240
   712    510    716  1    240
   716    510    512  1    240
   716    512    177  1    240
   716    177    721  1    240
   721    177    467  1    240
   721    467    722  1    240
   722    467    178  1    240
   722    178    723  1    240
   723    178    519  1    240
   723    519    724  1    240
   724    519    517  1    240
   184    187    476  1    241
   725    726    727  1    241
   726    728    729  1    241
   727    726    729  1    241
   727    729    730  1    241
   727    730    224  1    241
   727    224    521  1    241
   727    521    725  1    241
   725    521    221  1    241
   725    221    516  1    241
   725    516    518  1    241
   725    518    726  1    241
   726    518    728  1    241
   728    518    520  1    241
   728    520    181  1    241
   728    181    474  1    241
   728    474    729  1    241
   729    474    476  1    241
   729    476    730  1    241
   730    476    187  1    241
   730    187    224  1    241
   181    520    180  1    241
   516    221    219  1    241
   196    230    193  1    242
   190    193    732  1    242
   190    732    189  1    242
   189    732    225  1    242
   225    732    731  1    242
   225    731    523  1    242
   523    731    525  1    242
   523    525    227  1    242
   525    731    527  1    242
   527    731    732  1    242
   527    732    529  1    242
   529    732    193  1    242
   529    193    230  1    242
   231    198    531  1    243
   199    202    493  1    243
   733    735    736  1    243
   735    737    738  1    243
   736    735    738  1    243
   736    738    734  1    243
   736    734    733  1    243
   733    734    537  1    243
   733    537    535  1    243
   733    535    735  1    243
   735    535    533  1    243
   735    533    531  1    243
   735    531    737  1    243
   737    531    198  1    243
   737    198    490  1    243
   737    490    738  1    243
   738    490    493  1    243
   738    493    734  1    243
   734    493    202  1    243
   734    202    539  1    243
   734    539    537  1    243
   740    739    742  1    244
   740    742    743  1    244
   741    740    743  1    244
   746    745    748  1    244
   746    748    749  1    244
   747    746    749  1    244
   747    749    534  1    244
   747    534    744  1    244
   747    744    547  1    244
   747    547    746  1    244
   746    547    544  1    244
   746    544    745  1    244
   745    544    236  1    244
   745    236    228  1    244
   745    228    526  1    244
   745    526    748  1    244
   748    526    528  1    244
   748    528    530  1    244
   748    530    749  1    244
   749    530    532  1    244
   749    532    534  1    244
   532    530    229  1    244
   228    236    233  1    244
   547    744    550  1    244
   550    744    536  1    244
   550    536    739  1    244
   550    739    553  1    244
   553    739    740  1    244
   553    740    556  1    244
   556    740    741  1    244
   556    741    205  1    244
   556    205    239  1    244
   239    205    242  1    244
   205    741    502  1    244
   502    741    743  1    244
   502    743    500  1    244
   500    743    498  1    244
   498    743    742  1    244
   498    742    540  1    244
   498    540    204  1    244
   540    742    538  1    244
   538    742    739  1    244
   538    739    536  1    244
   536    744    534  1    244
   506    211    750  1    245
   506    750    504  1    245
   506    504    208  1    245
   504    750    207  1    245
   207    750    243  1    245
   243    750    211  1    245
   240    241    563  1    246
   234    235    220  1    246
   214    217    752  1    246
   214    752    751  1    246
   214    751    213  1    246
   213    751    241  1    246
   241    751    563  1    246
   563    751    752  1    246
   563    752    566  1    246
   566    752    753  1    246
   566    753    235  1    246
   235    753    220  1    246
   220    753    217  1    246
   217    753    752  1    246
   524    226    754  1    247
   524    754    522  1    247
   524    522    223  1    247
   522    754    222  1    247
   222    754    232  1    247
   232    754    226  1    247
   755    756    757  1    248
   755    757    555  1    248
   755    555    558  1    248
   755    558    238  1    248
   755    238    565  1    248
   755    565    756  1    248
   756    565    568  1    248
   756    568    758  1    248
   756    758    549  1    248
   756    549    757  1    248
   757    549    552  1    248
   757    552    555  1    248
   549    758    546  1    248
   546    758    237  1    248
   237    758    568  1    248
