# MSMS solvent excluded surface faces for fragments/fragment156.xyzr
#faces  #sphere density probe_r
   1442      34  3.00  1.50
     1      5    225  3      3
   225      5    226  3      3
   225    226      2  3      3
     2    226      4  3      3
     5      8    227  3      5
   227      8    228  3      5
   227    228      6  3      5
     6    228      7  3      5
     8    230    229  3      7
   229    230    231  3      7
   229    231      9  3      7
     9    231    232  3      7
   230    233    231  3      7
   231    233    234  3      7
   231    234    232  3      7
   232    234    235  3      7
   233     11    234  3      7
   234     11    236  3      7
   234    236    235  3      7
   235    236     10  3      7
    11    237     12  3      9
    12    237    238  3      9
   237    239    238  3      9
   238    239    240  3      9
   239    241    240  3      9
   240    241    242  3      9
   241    243    242  3      9
   242    243    244  3      9
   243     14    244  3      9
   244     14     13  3      9
    14     17    245  3     11
   245     17    246  3     11
   245    246     15  3     11
    15    246     16  3     11
    17    247     18  3     12
    18    247    248  3     12
   247      1    248  3     12
   248      1      3  3     12
    18    249     16  3     14
    16    249    250  3     14
   249     20    250  3     14
   250     20     19  3     14
    20     23     21  3     16
    21     23     22  3     16
    23      3    251  3     17
   251      3    252  3     17
   251    252     24  3     17
    24    252      2  3     17
    24     26     22  3     19
    22     26     25  3     19
    26     29     27  3     21
    27     29     28  3     21
    29     32    253  3     23
   253     32    254  3     23
   253    254     30  3     23
    30    254     31  3     23
    32      4     33  3     24
    33      4      6  3     24
    33    256    255  3     26
   255    256    257  3     26
   255    257     31  3     26
    31    257    258  3     26
   256     35    257  3     26
   257     35    259  3     26
   257    259    258  3     26
   258    259     34  3     26
    35    260     36  3     27
    36    260    261  3     27
   260      7    261  3     27
   261      7      9  3     27
    36     38    262  3     29
   262     38    263  3     29
   262    263     34  3     29
    34    263     37  3     29
    38     41     39  3     31
    39     41     40  3     31
    41     44     42  3     33
    42     44     43  3     33
    44    264     45  3     35
    45    264    265  3     35
   264    266    265  3     35
   265    266    267  3     35
   266     47    267  3     35
   267     47     46  3     35
    47     50    268  3     37
   268     50    269  3     37
   268    269     48  3     37
    48    269     49  3     37
    50     53    270  3     39
   270     53    272  3     39
   270    272    271  3     39
   271    272    273  3     39
   271    273     51  3     39
    51    273     52  3     39
    53     56    274  3     41
   274     56    275  3     41
   274    275     54  3     41
    54    275     55  3     41
    56    277    276  3     43
   276    277    278  3     43
   276    278     57  3     43
    57    278    279  3     43
   277    280    278  3     43
   278    280    281  3     43
   278    281    279  3     43
   279    281    282  3     43
   280    283    281  3     43
   281    283    284  3     43
   281    284    282  3     43
   282    284    285  3     43
   283     59    284  3     43
   284     59    286  3     43
   284    286    285  3     43
   285    286     58  3     43
    59     10    287  3     44
   287     10    288  3     44
   287    288     60  3     44
    60    288     12  3     44
    60     55    289  3     45
   289     55    290  3     45
   289    290     58  3     45
    58    290     57  3     45
    54    293    291  3     47
   291    293    294  3     47
   291    294    292  3     47
   292    294    295  3     47
   292    295     52  3     47
    52    295    296  3     47
   293     62    294  3     47
   294     62    297  3     47
   294    297    295  3     47
   295    297    298  3     47
   295    298    296  3     47
   296    298     61  3     47
    62    299     63  3     48
    63    299    300  3     48
   299    301    300  3     48
   300    301    302  3     48
   301    303    302  3     48
   302    303    304  3     48
   303    305    304  3     48
   304    305    306  3     48
   305     13    306  3     48
   306     13     15  3     48
    63     65    307  3     50
   307     65    309  3     50
   307    309    308  3     50
   308    309    310  3     50
   308    310     61  3     50
    61    310     64  3     50
    65     68    311  3     52
   311     68    314  3     52
   311    314    312  3     52
   312    314    315  3     52
   312    315    313  3     52
   313    315    316  3     52
   313    316     66  3     52
    66    316     67  3     52
    68     71    317  3     54
   317     71    319  3     54
   317    319    318  3     54
   318    319    320  3     54
   318    320     69  3     54
    69    320     70  3     54
    71     19    321  3     55
   321     19    322  3     55
   321    322     72  3     55
    72    322     21  3     55
    72     74    323  3     57
   323     74    324  3     57
   323    324     70  3     57
    70    324     73  3     57
    74     77    325  3     59
   325     77    326  3     59
   325    326     75  3     59
    75    326     76  3     59
    77     25    327  3     60
   327     25    328  3     60
   327    328     78  3     60
    78    328     27  3     60
    78    329     76  3     62
    76    329    330  3     62
   329     80    330  3     62
   330     80     79  3     62
    80     83    331  3     64
   331     83    332  3     64
   331    332     81  3     64
    81    332     82  3     64
    83     86    333  3     66
   333     86    335  3     66
   333    335    334  3     66
   334    335    336  3     66
   334    336     84  3     66
    84    336     85  3     66
    86     89     87  3     68
    87     89     88  3     68
    89    337     90  3     70
    90    337    338  3     70
   337    339    338  3     70
   338    339    340  3     70
   339     92    340  3     70
   340     92     91  3     70
    92     28     93  3     71
    93     28     30  3     71
    93    341     91  3     73
    91    341    342  3     73
   341    343    342  3     73
   342    343    344  3     73
   343    345    344  3     73
   344    345    346  3     73
   345     95    346  3     73
   346     95     94  3     73
    95    348    347  3     75
   347    348    349  3     75
   347    349     96  3     75
    96    349    350  3     75
   348     98    349  3     75
   349     98    351  3     75
   349    351    350  3     75
   350    351     97  3     75
    98    101    352  3     77
   352    101    353  3     77
   352    353     99  3     77
    99    353    100  3     77
   101     37    354  3     78
   354     37    355  3     78
   354    355    102  3     78
   102    355     39  3     78
   102     40    100  3     79
   100     40     42  3     79
    99    357    356  3     81
   356    357    358  3     81
   356    358     97  3     81
    97    358    359  3     81
   357    104    358  3     81
   358    104    360  3     81
   358    360    359  3     81
   359    360    103  3     81
   104    107    361  3     83
   361    107    362  3     83
   361    362    105  3     83
   105    362    106  3     83
   107    363    108  3     84
   108    363    364  3     84
   363     43    364  3     84
   364     43     45  3     84
   108    110    365  3     86
   365    110    366  3     86
   365    366    106  3     86
   106    366    109  3     86
   110    113    111  3     88
   111    113    112  3     88
   113    367    114  3     89
   114    367    368  3     89
   367     46    368  3     89
   368     46     48  3     89
   114    369    112  3     91
   112    369    370  3     91
   369    116    370  3     91
   370    116    115  3     91
   116     49    371  3     92
   371     49    372  3     92
   371    372    117  3     92
   117    372     51  3     92
   117    373    115  3     94
   115    373    374  3     94
   373    119    374  3     94
   374    119    118  3     94
   119    122    120  3     96
   120    122    121  3     96
   122    125    123  3     98
   123    125    124  3     98
   125    375    126  3     99
   126    375    376  3     99
   375    377    376  3     99
   376    377    378  3     99
   377    379    378  3     99
   378    379    380  3     99
   379     64    380  3     99
   380     64     66  3     99
   126    381    124  3    101
   124    381    382  3    101
   381    128    382  3    101
   382    128    127  3    101
   128    131    383  3    103
   383    131    384  3    103
   383    384    129  3    103
   129    384    130  3    103
   131    386    385  3    105
   385    386    387  3    105
   385    387    132  3    105
   132    387    388  3    105
   386    389    387  3    105
   387    389    390  3    105
   387    390    388  3    105
   388    390    391  3    105
   389    392    390  3    105
   390    392    393  3    105
   390    393    391  3    105
   391    393    394  3    105
   392    134    393  3    105
   393    134    395  3    105
   393    395    394  3    105
   394    395    133  3    105
   134    137    396  3    107
   396    137    397  3    107
   396    397    135  3    107
   135    397    136  3    107
   137    398    138  3    109
   138    398    399  3    109
   398    140    399  3    109
   399    140    139  3    109
   140    400    141  3    110
   141    400    401  3    110
   400     67    401  3    110
   401     67     69  3    110
   141    143    139  3    112
   139    143    142  3    112
   143     82    144  3    113
   144     82     84  3    113
   144    402    142  3    115
   142    402    403  3    115
   402    146    403  3    115
   403    146    145  3    115
   146    149    147  3    117
   147    149    148  3    117
   149    152    150  3    119
   150    152    151  3    119
   152    155    404  3    121
   404    155    405  3    121
   404    405    153  3    121
   153    405    154  3    121
   155     85    406  3    122
   406     85    407  3    122
   406    407    156  3    122
   156    407     87  3    122
   156    408    154  3    124
   154    408    409  3    124
   408    410    409  3    124
   409    410    411  3    124
   410    158    411  3    124
   411    158    157  3    124
   158    413    412  3    126
   412    413    414  3    126
   412    414    159  3    126
   159    414    415  3    126
   413    416    414  3    126
   414    416    417  3    126
   414    417    415  3    126
   415    417    418  3    126
   416    161    417  3    126
   417    161    419  3    126
   417    419    418  3    126
   418    419    160  3    126
   161    164    162  3    128
   162    164    163  3    128
   164    420    165  3    130
   165    420    421  3    130
   420    422    421  3    130
   421    422    423  3    130
   422    424    423  3    130
   423    424    425  3    130
   424    167    425  3    130
   425    167    166  3    130
   167    170    168  3    132
   168    170    169  3    132
   170    427    426  3    133
   426    427    428  3    133
   426    428    171  3    133
   171    428    429  3    133
   427    430    428  3    133
   428    430    431  3    133
   428    431    429  3    133
   429    431    432  3    133
   430     88    431  3    133
   431     88    433  3    133
   431    433    432  3    133
   432    433     90  3    133
   171     94    434  3    134
   434     94    435  3    134
   434    435    169  3    134
   169    435     96  3    134
   168    436    166  3    135
   166    436    437  3    135
   436    438    437  3    135
   437    438    439  3    135
   438    440    439  3    135
   439    440    441  3    135
   440    103    441  3    135
   441    103    105  3    135
   165    173    442  3    137
   442    173    443  3    137
   442    443    163  3    137
   163    443    172  3    137
   173    176    444  3    139
   444    176    445  3    139
   444    445    174  3    139
   174    445    175  3    139
   176    109    446  3    140
   446    109    447  3    140
   446    447    177  3    140
   177    447    111  3    140
   177    448    175  3    142
   175    448    449  3    142
   448    179    449  3    142
   449    179    178  3    142
   179    118    180  3    143
   180    118    120  3    143
   180    182    450  3    145
   450    182    451  3    145
   450    451    178  3    145
   178    451    181  3    145
   182    185    183  3    147
   183    185    184  3    147
   185    188    186  3    149
   186    188    187  3    149
   188    191    189  3    151
   189    191    190  3    151
   191    452    192  3    152
   192    452    453  3    152
   452    121    453  3    152
   453    121    123  3    152
   192    454    190  3    154
   190    454    455  3    154
   454    456    455  3    154
   455    456    457  3    154
   456    194    457  3    154
   457    194    193  3    154
   194    127    195  3    155
   195    127    129  3    155
   195    458    193  3    157
   193    458    459  3    157
   458    460    459  3    157
   459    460    461  3    157
   460    462    461  3    157
   461    462    463  3    157
   462    197    463  3    157
   463    197    196  3    157
   197    200    198  3    159
   198    200    199  3    159
   200    465    464  3    161
   464    465    466  3    161
   464    466    201  3    161
   201    466    467  3    161
   465    468    466  3    161
   466    468    469  3    161
   466    469    467  3    161
   467    469    470  3    161
   468    471    469  3    161
   469    471    472  3    161
   469    472    470  3    161
   470    472    473  3    161
   471    474    472  3    161
   472    474    475  3    161
   472    475    473  3    161
   473    475    476  3    161
   474    477    475  3    161
   475    477    478  3    161
   475    478    476  3    161
   476    478    479  3    161
   477    203    478  3    161
   478    203    480  3    161
   478    480    479  3    161
   479    480    202  3    161
   203    206    204  3    163
   204    206    205  3    163
   206    481    207  3    165
   207    481    482  3    165
   481    483    482  3    165
   482    483    484  3    165
   483    485    484  3    165
   484    485    486  3    165
   485    209    486  3    165
   486    209    208  3    165
   209    136    210  3    166
   210    136    138  3    166
   210    487    208  3    168
   208    487    488  3    168
   487    489    488  3    168
   488    489    490  3    168
   489    212    490  3    168
   490    212    211  3    168
   212    145    491  3    169
   491    145    492  3    169
   491    492    213  3    169
   213    492    147  3    169
   213    215    211  3    171
   211    215    214  3    171
   215    493    216  3    173
   216    493    494  3    173
   493    495    494  3    173
   494    495    496  3    173
   495    497    496  3    173
   496    497    498  3    173
   497    499    498  3    173
   498    499    500  3    173
   499    501    500  3    173
   500    501    502  3    173
   501    503    502  3    173
   502    503    504  3    173
   503    505    504  3    173
   504    505    506  3    173
   505    218    506  3    173
   506    218    217  3    173
   218    187    219  3    174
   219    187    189  3    174
   219    507    217  3    175
   217    507    508  3    175
   507    196    508  3    175
   508    196    198  3    175
   216    509    214  3    176
   214    509    510  3    176
   509    205    510  3    176
   510    205    207  3    176
   204    512    511  3    177
   511    512    513  3    177
   511    513    202  3    177
   202    513    514  3    177
   512    515    513  3    177
   513    515    516  3    177
   513    516    514  3    177
   514    516    517  3    177
   515    199    516  3    177
   516    199    518  3    177
   516    518    517  3    177
   517    518    201  3    177
   186    519    184  3    178
   184    519    520  3    178
   519    521    520  3    178
   520    521    522  3    178
   521    523    522  3    178
   522    523    524  3    178
   523    525    524  3    178
   524    525    526  3    178
   525    527    526  3    178
   526    527    528  3    178
   527    529    528  3    178
   528    529    530  3    178
   529    531    530  3    178
   530    531    532  3    178
   531    533    532  3    178
   532    533    534  3    178
   533    148    534  3    178
   534    148    150  3    178
   183    536    535  3    180
   535    536    537  3    180
   535    537    181  3    180
   181    537    538  3    180
   536    221    537  3    180
   537    221    539  3    180
   537    539    538  3    180
   538    539    220  3    180
   221    160    540  3    181
   540    160    541  3    181
   540    541    222  3    181
   222    541    162  3    181
   222    172    220  3    182
   220    172    174  3    182
   159    543    542  3    183
   542    543    544  3    183
   542    544    157  3    183
   157    544    545  3    183
   543    151    544  3    183
   544    151    546  3    183
   544    546    545  3    183
   545    546    153  3    183
   135    547    133  3    184
   133    547    548  3    184
   547    549    548  3    184
   548    549    550  3    184
   549    551    550  3    184
   550    551    552  3    184
   551    553    552  3    184
   552    553    554  3    184
   553    555    554  3    184
   554    555    556  3    184
   555    130    556  3    184
   556    130    132  3    184
    81    558    557  3    185
   557    558    559  3    185
   557    559     79  3    185
    79    559    560  3    185
   558     73    559  3    185
   559     73    561  3    185
   559    561    560  3    185
   560    561     75  3    185
   223    562    224  3    186
   224    562    563  3    186
   562    564    563  3    186
   563    564    565  3    186
   564    566    565  3    186
   565    566    567  3    186
   566    568    567  3    186
   567    568    569  3    186
   568    570    569  3    186
   569    570    571  3    186
   570    223    571  3    186
   571    223    224  3    186
     3      1    225  2      1
     3    225    252  2      1
   252    225      2  2      1
     6      4    227  2      2
   227      4    226  2      2
   227    226      5  2      2
     9      7    228  2      4
     9    228    229  2      4
   229    228      8  2      4
   288     10    236  2      6
   288    236     12  2      6
    12    236     11  2      6
    15     13    245  2      8
   245     13     14  2      8
    18     16    246  2     10
    18    246     17  2     10
   322     19     20  2     13
   322     20     21  2     13
    24     22    251  2     15
   251     22     23  2     15
   328     25     26  2     18
   328     26     27  2     18
    30     28    253  2     20
   253     28     29  2     20
   255     31    254  2     22
   255    254     32  2     22
   255     32     33  2     22
   262     34    259  2     25
   262    259     36  2     25
    36    259     35  2     25
   355     37    263  2     28
   355    263     39  2     28
    39    263     38  2     28
    42     40     41  2     30
    45     43     44  2     32
    48     46    268  2     34
   268     46     47  2     34
   372     49    270  2     36
   372    270    271  2     36
   372    271     51  2     36
   270     49    269  2     36
   270    269     50  2     36
   292     52    273  2     38
   292    273    572  2     38
   292    572    291  2     38
   291    572    274  2     38
   291    274     54  2     38
   274    572    272  2     38
   274    272     53  2     38
   272    572    273  2     38
   290     55    275  2     40
   290    275     56  2     40
   290     56    276  2     40
   290    276     57  2     40
   289     58    286  2     42
   289    286     59  2     42
   289     59    287  2     42
   289    287     60  2     42
   308     61    298  2     46
   308    298    297  2     46
   308    297    307  2     46
   307    297     62  2     46
   307     62     63  2     46
    66     64    313  2     49
   313     64    310  2     49
   313    310    312  2     49
   312    310    309  2     49
   312    309    311  2     49
   311    309     65  2     49
    69     67    316  2     51
    69    316    318  2     51
   318    316    315  2     51
   318    315    317  2     51
   317    315    314  2     51
   317    314     68  2     51
   323     70    320  2     53
   323    320    573  2     53
   323    573     72  2     53
    72    573    321  2     53
   321    573    319  2     53
   321    319     71  2     53
   319    573    320  2     53
   561     73    324  2     56
   561    324    325  2     56
   561    325     75  2     56
   325    324     74  2     56
    78     76    326  2     58
    78    326    327  2     58
   327    326     77  2     58
   557     79    331  2     61
   557    331     81  2     61
   331     79     80  2     61
    84     82    334  2     63
   334     82    332  2     63
   334    332    333  2     63
   333    332     83  2     63
   407     85    336  2     65
   407    336    335  2     65
   407    335     87  2     65
    87    335     86  2     65
   433     88     89  2     67
   433     89     90  2     67
    93     91     92  2     69
   435     94     95  2     72
   435     95    347  2     72
   435    347     96  2     72
   356     97    351  2     74
   356    351    352  2     74
   356    352     99  2     74
   352    351     98  2     74
   102    100    353  2     76
   102    353    354  2     76
   354    353    101  2     76
   105    103    361  2     80
   361    103    360  2     80
   361    360    104  2     80
   365    106    362  2     82
   365    362    108  2     82
   108    362    107  2     82
   447    109    366  2     85
   447    366    111  2     85
   111    366    110  2     85
   114    112    113  2     87
   117    115    371  2     90
   371    115    116  2     90
   120    118    119  2     93
   123    121    122  2     95
   126    124    125  2     97
   129    127    383  2    100
   383    127    128  2    100
   132    130    384  2    102
   132    384    385  2    102
   385    384    131  2    102
   135    133    396  2    104
   396    133    395  2    104
   396    395    134  2    104
   138    136    397  2    106
   138    397    137  2    106
   141    139    140  2    108
   144    142    143  2    111
   492    145    146  2    114
   492    146    147  2    114
   150    148    149  2    116
   546    151    152  2    118
   546    152    404  2    118
   546    404    153  2    118
   156    154    405  2    120
   156    405    406  2    120
   406    405    155  2    120
   542    157    412  2    123
   542    412    159  2    123
   412    157    158  2    123
   541    160    419  2    125
   541    419    162  2    125
   162    419    161  2    125
   442    163    164  2    127
   442    164    165  2    127
   168    166    167  2    129
   434    169    170  2    131
   434    170    426  2    131
   434    426    171  2    131
   174    172    444  2    136
   444    172    443  2    136
   444    443    173  2    136
   177    175    445  2    138
   177    445    446  2    138
   446    445    176  2    138
   450    178    179  2    141
   450    179    180  2    141
   535    181    451  2    144
   535    451    182  2    144
   535    182    183  2    144
   186    184    185  2    146
   189    187    188  2    148
   192    190    191  2    150
   195    193    194  2    153
   198    196    197  2    156
   518    199    200  2    158
   518    200    464  2    158
   518    464    201  2    158
   511    202    480  2    160
   511    480    203  2    160
   511    203    204  2    160
   207    205    206  2    162
   210    208    209  2    164
   213    211    491  2    167
   491    211    212  2    167
   216    214    215  2    170
   219    217    218  2    172
   222    220    539  2    179
   222    539    540  2    179
   540    539    221  2    179
   574    575    576  1    187
   574    576    577  1    187
   574    577    578  1    187
   574    578    579  1    187
   574    579    580  1    187
   574    580    575  1    187
   576    575    581  1    187
   576    581    582  1    187
   576    582    583  1    187
   577    576    583  1    187
   577    583    584  1    187
   577    584    585  1    187
   578    577    585  1    187
   578    585    586  1    187
   579    578    586  1    187
   579    586    587  1    187
   583    582    588  1    187
   586    585    589  1    187
   586    589    590  1    187
   587    586    590  1    187
   587    590    247  1    187
   587    247     17  1    187
   587     17     14  1    187
   587     14    579  1    187
   579     14    580  1    187
   580     14    243  1    187
   580    243    575  1    187
   575    243    241  1    187
   575    241    581  1    187
   581    241    239  1    187
   581    239    237  1    187
   581    237    582  1    187
   582    237    588  1    187
   588    237     11  1    187
   588     11    233  1    187
   588    233    230  1    187
   588    230    583  1    187
   583    230    584  1    187
   584    230      8  1    187
   584      8    585  1    187
   585      8    589  1    187
   589      8      5  1    187
   589      5    590  1    187
   590      5      1  1    187
   590      1    247  1    187
     4     32     29  1    188
     4     29      2  1    188
     2     29     24  1    188
    24     29     26  1    188
   260     35    591  1    189
   260    591      7  1    189
     7    591      6  1    189
     6    591     33  1    189
    33    591    256  1    189
   256    591     35  1    189
   593    592    594  1    190
   593    594    595  1    190
   593    595    261  1    190
   593    261      9  1    190
   593      9    232  1    190
   593    232    592  1    190
   592    232    235  1    190
   592    235    283  1    190
   592    283    594  1    190
   594    283    596  1    190
   594    596     44  1    190
   594     44    595  1    190
   595     44     41  1    190
   595     41    261  1    190
   261     41     38  1    190
   261     38     36  1    190
    44    596    264  1    190
   264    596    280  1    190
   264    280    266  1    190
   266    280    277  1    190
   266    277     47  1    190
    47    277     50  1    190
    50    277     56  1    190
    50     56     53  1    190
   280    596    283  1    190
   283    235     10  1    190
   283     10     59  1    190
   597    598    599  1    191
   599    598    601  1    191
   599    601    602  1    191
   598    600    601  1    191
   601    600    604  1    191
   601    604    605  1    191
   602    601    605  1    191
   600    603    604  1    191
   605    604    606  1    191
   605    606     55  1    191
   605     55    602  1    191
   602     55     60  1    191
   602     60    238  1    191
   602    238    599  1    191
   599    238    240  1    191
   599    240    242  1    191
   599    242    597  1    191
   597    242    244  1    191
   597    244    305  1    191
   597    305    303  1    191
   597    303    598  1    191
   598    303    301  1    191
   598    301    600  1    191
   600    301    299  1    191
   600    299    603  1    191
   603    299     62  1    191
   603     62    293  1    191
   603    293    606  1    191
   603    606    604  1    191
   606    293     54  1    191
   606     54     55  1    191
   305    244     13  1    191
   238     60     12  1    191
   607    609    610  1    192
   608    607    610  1    192
   608    610    611  1    192
   608    611    612  1    192
   609    613    614  1    192
   610    609    614  1    192
   610    614    615  1    192
   611    610    615  1    192
   611    615    616  1    192
   612    611    616  1    192
   612    616    617  1    192
   613    618    619  1    192
   614    613    619  1    192
   614    619    620  1    192
   615    614    620  1    192
   615    620    621  1    192
   616    615    621  1    192
   616    621    622  1    192
   617    616    622  1    192
   617    622    300  1    192
   617    300    302  1    192
   617    302    612  1    192
   612    302    304  1    192
   612    304    306  1    192
   612    306    608  1    192
   608    306     15  1    192
   608     15    607  1    192
   607     15     16  1    192
   607     16    609  1    192
   609     16    250  1    192
   609    250    613  1    192
   613    250    618  1    192
   618    250     19  1    192
   618     19     71  1    192
   618     71     68  1    192
   618     68    619  1    192
   619     68    620  1    192
   620     68     65  1    192
   620     65    621  1    192
   621     65    622  1    192
   622     65     63  1    192
   622     63    300  1    192
     3     23    248  1    193
   248     23    249  1    193
   248    249     18  1    193
   249     23     20  1    193
    22     25     77  1    194
    22     77     21  1    194
    21     77     74  1    194
    21     74     72  1    194
    28     92     27  1    195
    27     92     78  1    195
    78     92    339  1    195
    78    339    329  1    195
   329    339    337  1    195
   329    337     80  1    195
    80    337     86  1    195
    80     86     83  1    195
    86    337     89  1    195
   258     34    623  1    196
   258    623    624  1    196
   258    624    341  1    196
   258    341     31  1    196
    31    341     30  1    196
    30    341     93  1    196
   341    624    343  1    196
   343    624    345  1    196
   345    624    625  1    196
   345    625    348  1    196
   345    348     95  1    196
   348    625    101  1    196
   348    101     98  1    196
   101    625     37  1    196
    37    625    623  1    196
    37    623     34  1    196
   623    625    624  1    196
    40    102     39  1    197
   363    107    104  1    198
   363    104    626  1    198
   363    626     43  1    198
    43    626     42  1    198
    42    626    100  1    198
   100    626     99  1    198
    99    626    357  1    198
   357    626    104  1    198
   367    113    628  1    199
   367    628    267  1    199
   367    267     46  1    199
   267    628    627  1    199
   267    627    265  1    199
   265    627     45  1    199
    45    627    364  1    199
   364    627    628  1    199
   364    628    110  1    199
   364    110    108  1    199
   110    628    113  1    199
    49    116     48  1    200
    48    116    369  1    200
    48    369    368  1    200
   368    369    114  1    200
   629    630    631  1    201
   631    630    633  1    201
   631    633    634  1    201
   632    631    634  1    201
   634    633    635  1    201
   634    635    373  1    201
   634    373    117  1    201
   634    117    632  1    201
   632    117     51  1    201
   632     51     52  1    201
   632     52    296  1    201
   632    296    631  1    201
   631    296    629  1    201
   629    296     61  1    201
   629     61    379  1    201
   629    379    377  1    201
   629    377    630  1    201
   630    377    375  1    201
   630    375    633  1    201
   633    375    125  1    201
   633    125    635  1    201
   635    125    122  1    201
   635    122    119  1    201
   635    119    373  1    201
   379     61     64  1    201
    58     57    637  1    202
    58    637    636  1    202
    58    636    285  1    202
   285    636    638  1    202
   285    638    282  1    202
   282    638    279  1    202
   279    638    637  1    202
   279    637     57  1    202
   637    638    636  1    202
   400    140    398  1    203
   400    398    642  1    203
   400    642    639  1    203
   400    639     67  1    203
    67    639    640  1    203
    67    640     66  1    203
    66    640    641  1    203
    66    641    380  1    203
   380    641    643  1    203
   380    643    378  1    203
   378    643    644  1    203
   378    644    376  1    203
   376    644    381  1    203
   376    381    126  1    203
   381    644    128  1    203
   128    644    131  1    203
   131    644    386  1    203
   386    644    643  1    203
   386    643    389  1    203
   389    643    641  1    203
   389    641    640  1    203
   389    640    392  1    203
   392    640    639  1    203
   392    639    642  1    203
   392    642    134  1    203
   134    642    137  1    203
   137    642    398  1    203
    70     73    645  1    204
    70    645     69  1    204
    69    645    401  1    204
   401    645    141  1    204
   141    645    558  1    204
   141    558     81  1    204
   141     81    143  1    204
   143     81     82  1    204
   558    645     73  1    204
   330     79    560  1    205
   330    560     75  1    205
   330     75     76  1    205
   152    149    155  1    206
    85    155    402  1    206
    85    402    144  1    206
    85    144     84  1    206
   402    155    146  1    206
   146    155    149  1    206
   427    170    167  1    207
   427    167    410  1    207
   427    410    430  1    207
   430    410    408  1    207
   430    408     88  1    207
    88    408    156  1    207
    88    156     87  1    207
   410    167    424  1    207
   410    424    158  1    207
   158    424    422  1    207
   158    422    413  1    207
   413    422    420  1    207
   413    420    416  1    207
   416    420    161  1    207
   161    420    164  1    207
   646    649    650  1    208
   647    646    650  1    208
   647    650    651  1    208
   648    652    653  1    208
   649    648    653  1    208
   650    649    653  1    208
   650    653    654  1    208
   651    650    654  1    208
   651    654     90  1    208
   651     90    338  1    208
   651    338    340  1    208
   651    340    647  1    208
   647    340     91  1    208
   647     91    342  1    208
   647    342    646  1    208
   646    342    344  1    208
   646    344    648  1    208
   646    648    649  1    208
   648    344    346  1    208
   648    346    652  1    208
   652    346     94  1    208
   652     94    171  1    208
   652    171    653  1    208
   653    171    429  1    208
   653    429    654  1    208
   654    429    432  1    208
   654    432     90  1    208
   656    655    658  1    209
   656    658    659  1    209
   657    656    659  1    209
   657    659    169  1    209
   657    169     96  1    209
   657     96    350  1    209
   657    350    656  1    209
   656    350    655  1    209
   655    350     97  1    209
   655     97    359  1    209
   655    359    440  1    209
   655    440    658  1    209
   658    440    438  1    209
   658    438    436  1    209
   658    436    659  1    209
   659    436    168  1    209
   659    168    169  1    209
   440    359    103  1    209
   660    661    662  1    210
   662    661    663  1    210
   662    663    664  1    210
   664    663    666  1    210
   665    664    666  1    210
   665    666    423  1    210
   665    423    425  1    210
   665    425    437  1    210
   665    437    664  1    210
   664    437    439  1    210
   664    439    662  1    210
   662    439    441  1    210
   662    441    660  1    210
   660    441    105  1    210
   660    105    106  1    210
   660    106    109  1    210
   660    109    176  1    210
   660    176    661  1    210
   661    176    663  1    210
   663    176    173  1    210
   663    173    165  1    210
   663    165    666  1    210
   666    165    421  1    210
   666    421    423  1    210
   437    425    166  1    210
   370    115    667  1    211
   370    667    669  1    211
   370    669    112  1    211
   112    669    448  1    211
   112    448    670  1    211
   112    670    111  1    211
   111    670    177  1    211
   177    670    448  1    211
   448    669    179  1    211
   179    669    668  1    211
   179    668    118  1    211
   118    668    374  1    211
   374    668    667  1    211
   374    667    115  1    211
   667    668    669  1    211
   191    188    452  1    212
   452    188    185  1    212
   452    185    671  1    212
   452    671    121  1    212
   121    671    120  1    212
   120    671    180  1    212
   180    671    185  1    212
   180    185    182  1    212
   382    127    194  1    213
   382    194    456  1    213
   382    456    124  1    213
   124    456    454  1    213
   124    454    453  1    213
   124    453    123  1    213
   453    454    192  1    213
   206    203    481  1    214
   673    672    675  1    214
   674    677    676  1    214
   676    677    678  1    214
   678    677    465  1    214
   678    465    462  1    214
   678    462    460  1    214
   678    460    676  1    214
   676    460    458  1    214
   676    458    674  1    214
   674    458    195  1    214
   674    195    129  1    214
   674    129    130  1    214
   674    130    555  1    214
   674    555    553  1    214
   674    553    677  1    214
   677    553    468  1    214
   677    468    465  1    214
   468    553    471  1    214
   471    553    551  1    214
   471    551    549  1    214
   471    549    474  1    214
   474    549    673  1    214
   474    673    675  1    214
   474    675    477  1    214
   477    675    481  1    214
   477    481    203  1    214
   481    675    483  1    214
   483    675    672  1    214
   483    672    485  1    214
   485    672    209  1    214
   209    672    547  1    214
   209    547    136  1    214
   136    547    135  1    214
   547    672    673  1    214
   547    673    549  1    214
   462    465    197  1    214
   197    465    200  1    214
   680    682    683  1    215
   680    683    391  1    215
   680    391    394  1    215
   680    394    679  1    215
   680    679    550  1    215
   680    550    682  1    215
   682    550    552  1    215
   682    552    683  1    215
   683    552    554  1    215
   683    554    556  1    215
   683    556    681  1    215
   683    681    391  1    215
   391    681    388  1    215
   388    681    132  1    215
   132    681    556  1    215
   550    679    548  1    215
   548    679    133  1    215
   133    679    394  1    215
   145    212    403  1    216
   139    142    403  1    216
   139    403    489  1    216
   139    489    487  1    216
   139    487    399  1    216
   399    487    210  1    216
   399    210    138  1    216
   489    403    212  1    216
   213    147    215  1    217
   684    686    687  1    217
   685    684    687  1    217
   687    686    691  1    217
   687    691    692  1    217
   688    693    694  1    217
   689    688    694  1    217
   689    694    695  1    217
   692    691    698  1    217
   692    698    699  1    217
   694    693    700  1    217
   694    700    701  1    217
   695    694    701  1    217
   695    701    702  1    217
   696    695    702  1    217
   701    700    703  1    217
   701    703    223  1    217
   701    223    702  1    217
   702    223    570  1    217
   702    570    696  1    217
   696    570    523  1    217
   696    523    521  1    217
   696    521    519  1    217
   696    519    695  1    217
   695    519    689  1    217
   689    519    186  1    217
   689    186    688  1    217
   688    186    187  1    217
   688    187    218  1    217
   688    218    693  1    217
   693    218    505  1    217
   693    505    503  1    217
   693    503    700  1    217
   700    503    703  1    217
   703    503    501  1    217
   703    501    562  1    217
   703    562    223  1    217
   562    501    499  1    217
   562    499    497  1    217
   562    497    564  1    217
   564    497    699  1    217
   564    699    698  1    217
   564    698    566  1    217
   566    698    691  1    217
   566    691    690  1    217
   566    690    697  1    217
   566    697    568  1    217
   568    697    525  1    217
   568    525    570  1    217
   570    525    523  1    217
   525    697    527  1    217
   527    697    529  1    217
   529    697    690  1    217
   529    690    531  1    217
   531    690    686  1    217
   531    686    533  1    217
   533    686    684  1    217
   533    684    148  1    217
   148    684    147  1    217
   147    684    685  1    217
   147    685    215  1    217
   215    685    687  1    217
   215    687    493  1    217
   493    687    692  1    217
   493    692    495  1    217
   495    692    699  1    217
   495    699    497  1    217
   686    690    691  1    217
   150    151    534  1    218
   543    159    532  1    218
   543    532    534  1    218
   543    534    151  1    218
   532    159    530  1    218
   530    159    415  1    218
   530    415    706  1    218
   530    706    528  1    218
   528    706    418  1    218
   528    418    526  1    218
   526    418    705  1    218
   526    705    524  1    218
   524    705    704  1    218
   524    704    522  1    218
   522    704    520  1    218
   520    704    183  1    218
   520    183    184  1    218
   183    704    536  1    218
   536    704    705  1    218
   536    705    221  1    218
   221    705    160  1    218
   160    705    418  1    218
   418    706    415  1    218
   411    157    545  1    219
   411    545    409  1    219
   409    545    153  1    219
   409    153    154  1    219
   163    172    222  1    220
   163    222    162  1    220
   449    178    181  1    221
   449    181    707  1    221
   449    707    175  1    221
   175    707    174  1    221
   174    707    220  1    221
   220    707    538  1    221
   538    707    181  1    221
   189    190    219  1    222
   457    193    459  1    222
   457    459    708  1    222
   457    708    455  1    222
   455    708    190  1    222
   190    708    219  1    222
   219    708    507  1    222
   507    708    461  1    222
   507    461    463  1    222
   507    463    196  1    222
   461    708    459  1    222
   204    205    512  1    223
   512    205    710  1    223
   512    710    711  1    223
   512    711    712  1    223
   512    712    515  1    223
   515    712    713  1    223
   515    713    199  1    223
   199    713    198  1    223
   198    713    508  1    223
   508    713    506  1    223
   508    506    217  1    223
   506    713    504  1    223
   504    713    502  1    223
   502    713    712  1    223
   502    712    500  1    223
   500    712    711  1    223
   500    711    498  1    223
   498    711    710  1    223
   498    710    496  1    223
   496    710    709  1    223
   496    709    494  1    223
   494    709    509  1    223
   494    509    216  1    223
   509    709    205  1    223
   205    709    710  1    223
   714    716    717  1    224
   717    716    719  1    224
   718    717    719  1    224
   718    719    201  1    224
   718    201    467  1    224
   718    467    470  1    224
   718    470    717  1    224
   717    470    473  1    224
   717    473    714  1    224
   714    473    476  1    224
   714    476    716  1    224
   716    476    479  1    224
   716    479    715  1    224
   716    715    514  1    224
   716    514    719  1    224
   719    514    517  1    224
   719    517    201  1    224
   514    715    202  1    224
   202    715    479  1    224
   490    211    720  1    225
   490    720    488  1    225
   488    720    486  1    225
   488    486    208  1    225
   486    720    484  1    225
   484    720    510  1    225
   484    510    482  1    225
   482    510    207  1    225
   510    720    214  1    225
   214    720    211  1    225
   722    721    723  1    226
   722    723    563  1    226
   722    563    565  1    226
   722    565    567  1    226
   722    567    569  1    226
   722    569    721  1    226
   721    569    571  1    226
   721    571    723  1    226
   723    571    224  1    226
   723    224    563  1    226
