ply
format ascii 1.0
comment Generated by PyMesh
element vertex 763
property float x
property float y
property float z
property float nx
property float ny
property float nz
element face 1525
property list uchar int vertex_indices
end_header
1.158 -37.839 -17.585 -0.032 -0.293 -0.955
1.171 -37.24 -17.938 -0.041 -0.693 -0.72
1.371 -38.498 -17.557 -0.174 0.146 -0.974
1.141 -35.241 -15.985 -0.063 0.735 0.675
1.123 -35.581 -15.378 -0.051 0.961 0.271
1.612 -35.519 -14.816 -0.378 0.92 -0.104
1.441 -37.64 -13.789 -0.5 -0.595 0.63
0.929 -37.977 -14.217 -0.159 -0.37 0.915
1.887 -37.991 -13.571 -0.797 -0.361 0.485
1.937 -38.178 -13.651 -0.772 -0.454 0.445
0.977 -38.155 -14.293 -0.132 -0.469 0.873
2.042 -39.283 -12.294 -0.842 0.283 -0.46
2.144 -39.617 -12.527 -0.757 0.004 -0.654
1.103 -38.566 -14.579 -0.062 -0.697 0.714
1.323 -39.141 -14.897 -0.209 -0.313 0.926
2.275 -39.125 -14.149 -0.515 -0.813 0.271
2.463 -39.245 -13.568 -0.669 -0.715 -0.205
2.71 -40.068 -12.802 -0.285 -0.371 -0.884
1.937 -39.63 -15.197 0.23 -0.663 0.712
2.955 -39.299 -14.33 -0.448 -0.884 0.135
3.706 -39.192 -15.188 0.178 -0.795 -0.58
2.753 -39.514 -16.128 0.813 -0.58 0.047
3.762 -39.049 -15.407 0.141 -0.89 -0.433
3.6 -37.56 -16.516 0.06 -0.146 -0.988
2.617 -38.256 -17.065 0.715 0.318 -0.622
2.565 -37.566 -17.028 0.75 -0.142 -0.646
2.221 -37.593 -17.331 0.559 -0.157 -0.814
2.312 -38.28 -17.332 0.498 0.301 -0.813
2.113 -37.022 -17.713 0.631 -0.537 -0.559
2.572 -37.309 -17.048 0.754 0.001 -0.657
2.423 -36.77 -17.463 0.853 -0.357 -0.381
3.607 -37.291 -16.537 0.064 -0.011 -0.998
3.665 -37.138 -16.528 0.093 0.066 -0.994
2.472 -36.641 -17.455 0.888 -0.265 -0.375
3.909 -37.027 -16.522 -0.07 -0.008 -0.998
3.958 -36.241 -16.239 -0.03 0.648 -0.761
2.525 -35.787 -17.147 0.926 0.345 -0.155
3.728 -36.126 -16.164 0.124 0.571 -0.811
2.916 -35.437 -15.111 -0.282 0.916 -0.285
1.839 -35.204 -16.258 0.436 0.761 0.48
2.311 -35.482 -15.089 0.121 0.946 -0.299
2.896 -35.358 -14.616 -0.292 0.956 -0.037
2.294 -35.415 -14.671 0.109 0.994 -0.001
3.169 -35.107 -14.085 -0.474 0.789 -0.391
2.274 -36.202 -12.695 -0.921 0.242 0.304
1.538 -36.34 -13.496 -0.431 0.334 0.838
2.217 -36.54 -12.175 -0.883 0.467 -0.042
2.158 -37.687 -12.319 -0.925 -0.352 -0.145
1.48 -37.487 -13.64 -0.472 -0.485 0.736
1.932 -37.809 -13.395 -0.774 -0.27 0.573
2.165 -37.704 -12.318 -0.92 -0.364 -0.145
1.94 -37.83 -13.395 -0.77 -0.28 0.573
1.98 -38.861 -11.866 -0.797 0.407 -0.446
1.972 -39.075 -12.01 -0.801 0.3 -0.518
1.932 -38.044 -13.539 -0.774 -0.387 0.501
2.038 -39.179 -12.207 -0.845 0.369 -0.387
2.989 -40.287 -12.786 -0.293 -0.305 -0.906
2.829 -40.121 -12.81 -0.186 -0.416 -0.89
3.073 -39.352 -14.338 -0.349 -0.928 0.128
4.38 -40.119 -12.75 0.403 -0.221 -0.888
4.155 -39.221 -14.31 0.553 -0.82 0.152
5.434 -39.079 -13.677 -0.3 -0.915 -0.271
5.545 -39.01 -13.917 -0.207 -0.858 -0.471
4.266 -39.153 -14.55 0.645 -0.762 -0.048
4.482 -38.999 -14.588 0.501 -0.865 -0.023
5.867 -38.664 -14.336 0.061 -0.569 -0.82
4.896 -38.554 -15.127 0.708 -0.642 -0.293
5.791 -38.471 -14.505 0.112 -0.698 -0.707
6.04 -37.358 -15.012 0.237 -0.141 -0.961
5.146 -37.441 -15.634 0.833 -0.086 -0.547
6.399 -36.881 -15.122 -0.003 -0.46 -0.888
6.392 -36.852 -15.136 -0.008 -0.44 -0.898
5.138 -37.408 -15.651 0.829 -0.069 -0.555
5.054 -37.237 -15.84 0.885 -0.183 -0.429
5.933 -35.612 -15.04 -0.336 0.446 -0.829
4.631 -36.095 -15.751 0.532 0.769 -0.355
4.594 -35.939 -15.537 0.557 0.665 -0.498
5.799 -35.381 -14.808 -0.432 0.611 -0.664
4.435 -35.667 -15.262 0.478 0.801 -0.361
4.708 -35.416 -14.732 0.296 0.634 -0.714
4.011 -35.102 -14.521 -0.053 0.791 -0.609
3.738 -35.353 -15.052 0.129 0.958 -0.255
3.994 -34.922 -14.324 -0.041 0.671 -0.74
3.34 -34.925 -13.986 -0.586 0.668 -0.458
2.897 -35.357 -14.617 -0.291 0.956 -0.038
3.17 -35.107 -14.086 -0.473 0.789 -0.392
4.033 -34.708 -12.803 -0.009 0.849 0.528
4.062 -34.827 -12.565 -0.028 0.929 0.369
5.215 -34.339 -11.963 -0.797 0.604 -0.032
5.196 -34.363 -11.907 -0.812 0.583 0.014
4.038 -34.858 -12.493 -0.04 0.913 0.405
5.005 -34.529 -11.55 -0.684 0.694 -0.223
4.798 -34.724 -11.254 -0.832 0.555 -0.012
3.793 -35.089 -12.142 -0.162 0.798 0.58
3.909 -35.345 -11.176 -0.239 0.969 -0.064
2.912 -35.942 -11.215 -0.737 0.67 -0.083
2.797 -35.686 -12.181 -0.66 0.5 0.561
2.658 -36.104 -11.741 -0.568 0.778 0.268
2.396 -37.365 -10.882 -0.996 -0.041 0.084
2.222 -37.306 -11.459 -0.88 -0.08 0.469
2.047 -38.39 -10.849 -0.763 0.643 0.062
2.948 -37.515 -9.679 -0.719 -0.116 0.685
2.6 -38.54 -9.647 -0.487 0.568 0.664
3.205 -38.295 -8.964 -0.89 0.405 0.208
3.125 -38.805 -8.71 -0.93 0.15 0.335
2.52 -39.05 -9.394 -0.527 0.313 0.79
2.936 -39.361 -8.641 -0.804 0.52 0.289
2.619 -40.091 -8.768 -0.962 0.156 0.225
2.204 -39.779 -9.521 -0.685 -0.052 0.727
2.342 -40.276 -9.277 -0.777 0.279 0.565
4.952 -41.356 -11.164 0.759 -0.356 -0.545
5.012 -40.941 -11.55 0.719 -0.633 -0.288
5.427 -41.252 -10.798 0.442 -0.425 -0.79
5.817 -40.608 -10.746 0.637 -0.103 -0.764
5.401 -40.297 -11.499 0.914 -0.311 -0.262
6.006 -40.052 -10.816 0.51 -0.474 -0.718
6.04 -39.731 -10.961 0.527 -0.313 -0.79
5.435 -39.975 -11.644 0.93 -0.15 -0.335
6.289 -38.861 -12.551 0.361 -0.893 0.27
6.252 -38.897 -12.631 0.342 -0.911 0.23
5.397 -40.012 -11.724 0.912 -0.168 -0.375
6.226 -38.996 -12.878 0.36 -0.846 0.395
6.154 -39.662 -10.905 0.584 -0.278 -0.763
6.403 -38.792 -12.495 0.418 -0.858 0.297
6.482 -38.697 -11.852 0.365 -0.922 -0.131
7.506 -37.644 -12.132 0.878 -0.395 -0.272
7.427 -37.739 -12.776 0.93 -0.332 0.157
7.925 -37.245 -13.218 0.598 -0.661 0.452
7.275 -37.159 -14.728 0.057 -0.59 -0.805
6.591 -37.629 -14.716 0.512 -0.277 -0.813
6.865 -37.109 -14.872 0.33 -0.623 -0.709
7.6 -35.326 -13.618 0.327 0.937 0.119
7.218 -35.118 -13.667 0.582 0.799 0.151
7.024 -34.555 -12.598 0.711 0.423 -0.561
5.854 -34.368 -12.849 -0.264 0.579 -0.771
5.946 -34.915 -13.94 -0.326 0.944 -0.044
4.671 -34.737 -13.689 0.524 0.825 -0.211
4.587 -34.834 -14.025 0.454 0.744 -0.491
5.855 -35.021 -14.305 -0.392 0.868 -0.304
4.774 -34.99 -14.137 0.329 0.847 -0.417
7.942 -35.937 -12.964 0.613 0.429 0.664
7.366 -35.165 -11.944 0.996 -0.085 -0.016
7.528 -35.962 -11.806 0.889 0.446 -0.108
7.513 -35.909 -11.542 0.881 0.472 0.024
7.355 -35.124 -11.738 0.987 -0.051 0.155
7.349 -35.356 -11.368 0.99 0.103 -0.093
6.771 -36.193 -10.001 0.51 0.331 0.794
6.723 -35.596 -10.066 0.543 -0.068 0.837
6.75 -36.971 -8.716 0.525 0.849 -0.063
5.634 -36.733 -8.497 -0.132 0.989 0.066
5.709 -35.379 -9.867 -0.181 0.087 0.98
4.743 -36.05 -9.459 0.463 0.534 0.708
4.067 -35.52 -10.072 -0.1 0.975 0.197
4.975 -34.804 -10.532 -0.706 0.498 0.504
4.118 -35.439 -10.322 -0.134 0.922 0.364
3.612 -36.694 -9.255 -0.479 -0.003 0.878
3.533 -36.949 -9.271 -0.427 0.167 0.889
3.79 -37.73 -8.556 -0.598 0.688 0.412
3.905 -36.556 -9.149 -0.235 0.112 0.966
4.167 -37.553 -8.42 -0.409 0.776 0.48
4.634 -37.338 -8.127 -0.72 0.633 0.284
4.587 -37.789 -7.67 -0.748 0.368 0.553
4.117 -38.038 -7.929 -0.434 0.534 0.726
4.683 -38.054 -7.159 -0.812 0.544 0.213
4.412 -38.933 -6.978 -0.947 0.105 0.303
3.846 -38.917 -7.747 -0.57 0.094 0.816
3.859 -39.798 -7.196 -0.578 0.681 0.449
3.837 -39.807 -7.21 -0.589 0.677 0.442
3.825 -38.926 -7.761 -0.58 0.09 0.809
3.635 -39.482 -7.692 -0.454 0.46 0.763
3.063 -41.594 -8.091 -0.976 -0.217 0.001
2.86 -41.269 -8.573 -0.841 -0.434 0.323
2.566 -41.372 -9.096 -0.645 -0.365 0.671
3.265 -42.103 -8.315 -0.875 -0.471 -0.111
2.754 -41.844 -9.305 -0.534 -0.643 0.548
3.381 -42.554 -8.105 -0.953 -0.17 -0.251
4.49 -43.078 -8.905 -0.16 -0.545 -0.823
3.974 -42.421 -10.185 0.184 -0.983 0.03
4.578 -42.723 -9.263 -0.219 -0.781 -0.585
5.136 -42.501 -9.572 0.06 -0.67 -0.74
4.493 -42.215 -10.473 0.489 -0.861 -0.139
4.934 -42.176 -10.055 0.195 -0.887 -0.418
6.65 -41.068 -9.241 0.818 0.046 -0.574
6.448 -40.743 -9.723 0.952 -0.171 -0.253
7.203 -40.203 -9.023 0.449 -0.531 -0.719
7.202 -40.16 -9.055 0.448 -0.509 -0.735
6.446 -40.7 -9.755 0.952 -0.149 -0.269
6.636 -40.144 -9.825 0.825 -0.519 -0.222
7.452 -39.251 -9.22 0.573 -0.055 -0.818
6.886 -39.236 -9.99 0.95 -0.065 -0.305
7.161 -38.902 -9.586 0.767 -0.287 -0.574
7.152 -38.849 -9.623 0.761 -0.256 -0.596
6.876 -39.178 -10.03 0.945 -0.037 -0.325
7.311 -38.176 -10.923 0.655 -0.705 0.271
7.062 -38.399 -11.34 0.448 -0.891 -0.076
6.556 -39.465 -10.565 0.785 -0.18 -0.593
6.884 -38.5 -11.512 0.567 -0.823 0.039
7.435 -37.178 -10.482 0.759 0.126 0.639
7.364 -36.931 -10.409 0.806 -0.039 0.59
7.301 -37.657 -9.095 0.849 0.445 -0.286
7.714 -38.028 -8.466 0.704 0.557 -0.441
7.405 -37.765 -8.885 0.91 0.382 -0.162
8.057 -37.543 -7.855 0.476 0.234 -0.848
6.699 -36.917 -6.817 -0.655 0.755 0.017
5.783 -37.017 -7.644 -0.044 0.822 0.568
5.969 -37.223 -7.132 -0.169 0.959 0.227
6.692 -36.924 -6.792 -0.662 0.749 0.038
5.959 -37.233 -7.1 -0.173 0.955 0.243
6.403 -37.126 -6.733 -0.469 0.883 -0.002
6.332 -39.224 -5.396 -0.511 -0.351 0.784
5.882 -39.49 -5.662 -0.212 -0.174 0.962
5.729 -40.07 -5.675 -0.11 0.213 0.971
4.648 -39.876 -6.339 -0.746 0.327 0.581
4.72 -39.281 -6.375 -0.793 -0.07 0.605
4.166 -40.147 -6.593 -0.424 0.507 0.75
5.216 -41.037 -5.9 -0.412 -0.356 0.839
4.777 -41.395 -6.121 -0.119 -0.117 0.986
5.518 -41.152 -5.75 -0.614 -0.279 0.738
5.783 -41.609 -5.868 -0.393 -0.66 0.64
5.117 -41.983 -6.272 0.051 -0.411 0.91
4.946 -42.452 -6.379 0.165 -0.098 0.981
6.529 -41.965 -6.418 0.228 -0.956 0.182
5.756 -42.839 -6.977 0.744 -0.374 0.554
6.076 -42.44 -6.98 0.53 -0.64 0.556
6.934 -41.792 -6.803 0.566 -0.813 -0.139
6.596 -42.218 -7.476 0.791 -0.529 0.309
6.908 -41.802 -7.159 0.583 -0.806 0.098
7.211 -41.035 -8.247 0.762 -0.355 -0.542
6.923 -41.393 -8.645 0.954 -0.116 -0.276
7.477 -40.528 -8.427 0.585 -0.693 -0.421
7.531 -40.893 -7.063 0.95 -0.272 0.155
7.82 -40.376 -7.154 0.757 -0.617 0.215
8.133 -40.048 -6.783 0.548 -0.836 -0.032
8.048 -37.879 -7.999 0.498 0.44 -0.747
7.728 -38.043 -8.462 0.711 0.549 -0.439
8.068 -37.555 -7.852 0.485 0.224 -0.845
7.504 -40.91 -6.954 0.934 -0.282 0.219
8.106 -40.065 -6.674 0.533 -0.846 0.032
7.433 -41.047 -6.631 0.982 -0.191 0.004
7.433 -41.047 -6.63 0.982 -0.191 0.005
8.106 -40.065 -6.673 0.533 -0.846 0.033
8.119 -40.093 -6.317 0.524 -0.827 -0.204
6.71 -39.438 -5.225 -0.65 -0.281 0.706
6.422 -39.282 -5.367 -0.458 -0.385 0.801
6.024 -40.392 -5.538 -0.193 0.355 0.915
5.993 -40.379 -5.55 -0.219 0.365 0.905
6.385 -39.266 -5.382 -0.48 -0.376 0.793
5.783 -40.112 -5.662 -0.078 0.188 0.979
0.4 -37.67 -17.429 -0.453 -0.199 -0.869
0.501 -37.09 -17.8 -0.52 -0.586 -0.622
-0.151 -37.26 -17.036 -0.759 0.029 -0.65
0.013 -36.727 -17.452 -0.869 -0.326 -0.373
-0.358 -36.712 -16.503 -0.874 0.333 -0.354
-0.17 -36.242 -16.98 -0.999 0.02 -0.036
-0.168 -36.163 -15.964 -0.768 0.638 -0.055
-0.002 -35.757 -16.504 -0.879 0.367 0.304
0.371 -35.752 -15.555 -0.469 0.866 0.172
0.475 -35.393 -16.142 -0.539 0.627 0.563
0.645 -35.93 -14.86 -0.316 0.767 0.558
1.19 -35.828 -14.358 -0.679 0.699 0.223
0.432 -36.554 -14.432 -0.435 0.421 0.796
1.001 -36.38 -13.979 -0.814 0.305 0.494
0.535 -37.297 -14.198 -0.378 0.008 0.926
1.092 -37.038 -13.772 -0.749 -0.165 0.642
1.468 -37.938 -13.982 -0.518 -0.396 0.759
1.513 -38.109 -14.055 -0.49 -0.5 0.714
1.668 -38.309 -14.06 -0.592 -0.367 0.717
2.139 -38.599 -13.561 -0.907 -0.174 0.385
2.275 -38.952 -12.919 -0.997 0.062 -0.043
1.715 -38.463 -14.167 -0.47 -0.765 0.439
2.153 -38.644 -13.592 -0.762 -0.645 0.056
2.309 -39.063 -12.996 -0.866 -0.366 -0.341
0.488 -38.661 -14.923 -0.404 -0.75 0.523
0.778 -39.226 -15.201 -0.598 -0.374 0.709
0.066 -38.647 -15.496 -0.638 -0.742 0.205
0.405 -39.213 -15.708 -0.864 -0.365 0.347
-0.075 -38.525 -16.182 -0.717 -0.675 -0.176
0.28 -39.105 -16.316 -0.954 -0.288 -0.087
0.091 -38.321 -16.843 -0.624 -0.561 -0.543
0.427 -38.925 -16.901 -0.849 -0.159 -0.505
0.532 -38.076 -17.344 -0.38 -0.425 -0.822
0.817 -38.707 -17.344 -0.57 -0.004 -0.822
2.411 -39.416 -13.009 -0.934 -0.13 -0.332
2.612 -39.576 -13.107 -0.219 -0.699 -0.681
1.872 -39.088 -14.617 -0.575 -0.349 0.74
2.09 -39.261 -14.723 0.129 -0.909 0.397
2.466 -39.319 -14.843 -0.122 -0.87 0.477
3.136 -39.224 -15.608 0.558 -0.774 -0.3
3.176 -39.156 -15.735 0.531 -0.819 -0.215
2.876 -38.97 -16.739 0.901 -0.192 -0.389
3.296 -38.623 -16.333 0.621 -0.423 -0.659
3.907 -38.405 -16.13 0.214 -0.568 -0.795
3.042 -37.923 -16.652 0.432 0.096 -0.897
2.115 -37.631 -17.404 0.63 -0.132 -0.766
1.29 -37.821 -17.601 -0.12 -0.305 -0.945
2.892 -36.981 -16.814 0.54 -0.217 -0.813
2.937 -36.863 -16.808 0.578 -0.118 -0.807
2.81 -36.724 -16.941 0.663 -0.21 -0.718
3.318 -36.86 -16.611 0.324 -0.119 -0.938
2.849 -36.088 -16.712 0.71 0.546 -0.446
3.355 -36.248 -16.39 0.372 0.653 -0.66
2.985 -36.08 -16.525 0.619 0.54 -0.57
2.27 -35.356 -16.727 0.743 0.653 0.145
2.751 -35.685 -16.14 0.422 0.872 -0.246
3.425 -35.616 -15.666 -0.027 0.827 -0.562
2.357 -35.546 -15.711 0.091 0.989 0.115
2.03 -35.481 -15.688 0.309 0.946 0.1
1.412 -35.514 -15.446 -0.244 0.917 0.316
1.963 -35.506 -14.185 -0.127 0.929 0.347
2.777 -35.215 -13.51 -0.67 0.735 -0.103
1.695 -35.834 -13.768 -0.319 0.695 0.645
2.46 -35.603 -13.016 -0.829 0.541 0.143
2.029 -36.532 -12.928 -0.758 0.462 0.46
1.378 -36.915 -13.501 -0.545 -0.077 0.835
1.896 -37.013 -12.932 -0.89 -0.012 0.455
2.057 -37.115 -12.18 -0.997 0.056 -0.046
1.981 -37.49 -13.048 -0.806 -0.483 0.341
2.142 -37.713 -12.882 -0.914 -0.335 0.23
2.149 -37.73 -12.881 -0.909 -0.347 0.231
2.232 -38.184 -12.925 -0.965 -0.044 0.26
2.246 -38.552 -12.381 -0.974 0.201 -0.103
2.225 -38.36 -13.044 -0.969 -0.176 0.171
2.24 -38.728 -12.499 -0.979 0.069 -0.192
2.216 -38.408 -13.126 -0.963 -0.145 0.226
2.254 -38.809 -12.655 -0.988 0.123 -0.088
2.22 -38.508 -13.21 -0.96 -0.234 0.151
2.257 -38.899 -12.73 -0.985 0.027 -0.169
2.987 -39.673 -13.192 -0.291 -0.715 -0.636
3.074 -39.402 -13.731 -0.349 -0.895 -0.277
2.898 -39.633 -13.186 -0.41 -0.661 -0.628
2.984 -39.361 -13.725 -0.468 -0.842 -0.269
3.155 -39.444 -13.706 -0.403 -0.867 -0.293
3.125 -39.776 -13.155 -0.383 -0.646 -0.661
3.632 -39.425 -14.381 0.117 -0.989 0.093
3.625 -39.505 -13.742 0.122 -0.935 -0.333
3.652 -39.845 -13.195 0.104 -0.709 -0.698
3.708 -40.38 -12.841 0.067 -0.352 -0.934
4.066 -39.334 -13.682 0.612 -0.744 -0.267
4.145 -39.653 -13.128 0.559 -0.532 -0.636
4.768 -38.97 -13.981 0.144 -0.987 -0.068
4.86 -38.913 -14.18 0.249 -0.922 -0.295
4.991 -38.874 -14.215 0.162 -0.949 -0.272
5.323 -38.517 -14.647 0.424 -0.667 -0.613
5.079 -38.046 -15.457 0.8 -0.388 -0.458
5.973 -37.962 -14.836 0.203 -0.444 -0.873
5.682 -37.101 -15.221 0.476 -0.313 -0.822
5.675 -37.074 -15.235 0.471 -0.292 -0.833
4.404 -37.762 -16.245 0.462 -0.247 -0.852
4.484 -37.513 -16.302 0.409 -0.413 -0.814
5.611 -36.965 -15.318 0.513 -0.364 -0.777
4.929 -36.622 -15.963 0.78 0.33 -0.532
5.506 -36.45 -15.421 0.395 0.216 -0.893
6.256 -36.183 -15.27 -0.105 0.038 -0.994
5.257 -36.009 -15.244 0.115 0.711 -0.693
5.239 -35.897 -15.143 0.127 0.637 -0.761
5.112 -35.679 -14.923 0.026 0.809 -0.587
3.13 -34.965 -13.042 -0.493 0.86 0.131
3.309 -34.815 -13.174 -0.612 0.76 0.219
4.718 -34.73 -12.296 -0.465 0.865 0.19
4.699 -34.755 -12.24 -0.481 0.844 0.237
4.591 -34.848 -12.039 -0.408 0.907 0.103
4.392 -35.037 -11.753 -0.561 0.763 0.321
3.249 -35.312 -12.136 -0.434 0.686 0.583
3.365 -35.568 -11.17 -0.511 0.857 -0.061
2.327 -36.639 -11.496 -0.804 0.396 0.443
2.52 -36.576 -10.925 -0.933 0.354 0.062
2.259 -37.891 -11.195 -0.905 0.31 0.293
2.203 -38.286 -12.047 -0.945 0.024 -0.325
2.219 -38.428 -10.195 -0.678 0.624 0.389
2.567 -37.402 -10.228 -0.91 -0.06 0.411
1.903 -40.107 -9.963 -0.835 -0.216 0.506
2.062 -40.581 -9.689 -0.941 0.1 0.323
1.806 -40.463 -10.47 -0.884 -0.394 0.252
1.971 -40.912 -10.16 -0.994 -0.095 0.045
1.923 -40.805 -10.983 -0.825 -0.565 -0.005
2.081 -41.23 -10.637 -0.93 -0.282 -0.235
2.242 -41.093 -11.441 -0.666 -0.708 -0.233
2.377 -41.497 -11.063 -0.756 -0.439 -0.486
2.724 -41.292 -11.789 -0.425 -0.808 -0.408
2.825 -41.683 -11.387 -0.492 -0.548 -0.676
3.313 -41.38 -11.988 -0.131 -0.852 -0.507
3.373 -41.764 -11.571 -0.17 -0.596 -0.785
3.939 -41.346 -12.012 0.182 -0.835 -0.519
3.955 -41.732 -11.594 0.172 -0.577 -0.798
4.528 -41.194 -11.861 0.477 -0.759 -0.443
4.503 -41.591 -11.453 0.494 -0.494 -0.715
5.536 -39.472 -11.929 0.862 -0.485 -0.145
5.836 -39.081 -12.248 0.662 -0.746 0.068
5.504 -39.504 -11.998 0.84 -0.507 -0.192
5.804 -39.112 -12.317 0.64 -0.768 0.02
5.471 -39.528 -12.1 0.863 -0.49 -0.124
5.763 -39.169 -12.508 0.668 -0.73 0.148
4.965 -40.245 -12.294 0.695 -0.284 -0.66
5.145 -39.704 -12.529 0.575 -0.645 -0.503
5.472 -39.327 -12.892 0.357 -0.897 -0.261
5.889 -39.177 -13.322 0.079 -0.997 0.025
4.705 -39.609 -12.873 0.186 -0.561 -0.806
5.077 -39.241 -13.2 -0.062 -0.806 -0.588
6.732 -38.73 -13.359 0.781 -0.624 -0.006
6.902 -38.555 -13.249 0.668 -0.74 -0.079
6.558 -38.569 -14.067 0.636 -0.49 -0.596
6.678 -38.348 -14.159 0.556 -0.637 -0.535
6.054 -38.931 -11.948 0.517 -0.846 -0.132
5.966 -39.241 -11.382 0.576 -0.639 -0.509
6.149 -38.874 -11.902 0.588 -0.803 -0.098
6.06 -39.184 -11.337 0.647 -0.597 -0.475
7.022 -38.369 -12.633 0.728 -0.647 0.228
7.101 -38.274 -11.99 0.675 -0.71 -0.2
7.269 -38.058 -13.459 0.851 -0.492 -0.184
7.802 -37.493 -13.75 0.496 -0.868 0.009
6.965 -38.018 -14.166 0.699 -0.472 -0.538
7.565 -37.462 -14.299 0.298 -0.842 -0.449
7.073 -36.448 -15.09 0.478 -0.151 -0.865
7.466 -36.55 -14.928 0.216 -0.083 -0.973
7.228 -35.762 -14.905 0.589 0.339 -0.733
7.609 -35.919 -14.758 0.335 0.444 -0.831
7.282 -35.267 -14.376 0.628 0.693 -0.355
7.659 -35.463 -14.271 0.377 0.823 -0.425
7.029 -34.924 -13.103 0.708 0.669 -0.225
6.628 -34.855 -13.895 0.16 0.987 -0.012
6.524 -34.699 -13.298 0.229 0.883 -0.41
6.481 -34.313 -12.808 0.258 0.625 -0.736
5.942 -34.75 -13.336 -0.323 0.834 -0.446
5.292 -34.974 -13.793 0.11 0.984 -0.142
5.216 -35.063 -14.099 0.034 0.896 -0.442
5.233 -34.714 -13.156 0.15 0.81 -0.566
4.717 -34.691 -12.44 -0.464 0.838 0.286
7.21 -35.075 -13.064 0.587 0.77 -0.25
7.496 -35.585 -12.518 0.91 0.194 0.366
7.182 -34.61 -11.462 0.842 0.378 0.385
7.161 -34.797 -11.068 0.856 0.503 0.122
6.753 -34.198 -11.33 0.485 0.721 0.495
6.696 -34.35 -10.924 0.523 0.822 0.225
6.181 -33.996 -11.374 0.008 0.889 0.458
6.074 -34.131 -10.972 0.079 0.979 0.19
5.613 -34.056 -11.585 -0.465 0.839 0.283
5.457 -34.196 -11.201 -0.362 0.932 0.027
7.226 -35.527 -10.635 0.902 -0.019 0.431
7.367 -36.112 -10.674 0.808 0.371 0.457
6.516 -36.194 -9.79 0.681 0.332 0.653
6.525 -36.688 -9.306 0.674 0.66 0.33
5.748 -36.031 -9.639 -0.208 0.521 0.828
5.722 -36.516 -9.148 -0.19 0.845 0.5
5.205 -35.761 -9.788 0.155 0.341 0.927
5.328 -34.992 -10.099 -0.453 0.363 0.814
4.881 -35.431 -9.985 -0.155 0.656 0.738
4.392 -35.693 -9.672 0.171 0.831 0.53
4.581 -35.271 -10.354 -0.443 0.81 0.385
3.108 -36.102 -10.064 -0.639 0.59 0.493
3.281 -36.035 -9.871 -0.755 0.546 0.364
3.784 -37.264 -9.004 -0.594 0.377 0.711
4.086 -37.123 -8.896 -0.355 0.489 0.797
3.407 -38.836 -8.182 -0.789 0.135 0.599
3.217 -39.392 -8.113 -0.663 0.505 0.553
3.138 -40.02 -7.847 -0.703 0.191 0.686
3.34 -40.346 -7.365 -0.837 0.408 0.364
2.866 -40.647 -8.155 -0.838 -0.122 0.531
3.069 -40.972 -7.673 -0.973 0.094 0.21
2.662 -40.684 -8.601 -0.941 -0.141 0.308
2.381 -40.828 -9.122 -0.754 -0.045 0.656
2.913 -41.447 -8.634 -0.877 -0.315 0.364
3.095 -41.905 -8.837 -0.762 -0.603 0.236
3.248 -42.1 -8.741 -0.864 -0.473 0.173
3.219 -42.336 -9.812 -0.26 -0.933 0.25
3.623 -42.496 -9.149 -0.529 -0.826 -0.192
3.805 -43.001 -8.566 -0.65 -0.49 -0.581
4.23 -42.564 -9.449 0.014 -0.887 -0.461
4.278 -42.464 -9.69 -0.019 -0.954 -0.3
4.781 -42.265 -9.969 0.297 -0.828 -0.475
4.795 -41.856 -10.858 0.667 -0.65 -0.365
5.259 -41.79 -10.468 0.358 -0.694 -0.625
5.594 -41.85 -10.112 0.525 -0.724 -0.447
5.796 -42.175 -9.629 0.391 -0.507 -0.768
6.124 -41.349 -9.996 0.79 -0.473 -0.389
6.326 -41.674 -9.513 0.656 -0.256 -0.71
6.737 -40.429 -9.311 0.76 -0.38 -0.527
6.735 -40.388 -9.341 0.759 -0.357 -0.544
6.202 -40.684 -10.298 0.83 -0.141 -0.54
6.392 -40.128 -10.368 0.703 -0.512 -0.494
6.933 -38.603 -10.471 0.907 -0.42 -0.031
6.686 -38.825 -10.886 0.699 -0.607 -0.379
6.59 -38.886 -10.985 0.763 -0.566 -0.313
6.226 -39.064 -11.292 0.536 -0.677 -0.504
7.487 -37.799 -11.898 0.868 -0.472 -0.155
7.53 -37.853 -11.64 0.839 -0.436 -0.327
7.73 -37.003 -11.339 0.989 -0.075 0.125
7.719 -37.235 -11.205 0.996 0.08 0.036
7.14 -37.341 -9.788 0.956 0.235 0.176
6.64 -36.719 -9.444 0.598 0.681 0.423
7.19 -37.481 -9.828 0.923 0.328 0.203
7.392 -38.286 -9.331 0.903 0.075 -0.424
7.261 -37.969 -10.01 0.99 -0.136 0.029
7.512 -37.705 -10.679 0.823 -0.312 0.474
7.074 -38.406 -10.237 0.813 -0.552 -0.187
7.414 -38.329 -9.289 0.915 0.05 -0.399
7.724 -38.634 -8.901 0.709 0.254 -0.658
7.629 -37.699 -8.295 0.761 0.338 -0.554
6.95 -37.113 -8.684 0.643 0.765 -0.044
7.254 -37.162 -8.13 0.44 0.798 -0.413
7.676 -36.998 -7.687 0.159 0.688 -0.708
6.339 -36.832 -8.217 0.283 0.931 0.231
6.751 -36.93 -7.745 0.008 0.997 -0.083
7.165 -36.762 -7.296 -0.268 0.884 -0.383
6.292 -37.083 -7.274 -0.384 0.866 0.321
5.118 -37.303 -7.557 -0.435 0.653 0.619
5.254 -37.531 -7.038 -0.526 0.805 0.273
5.621 -37.584 -6.535 -0.342 0.779 0.525
6.089 -37.452 -6.208 -0.654 0.691 0.307
5.487 -38.142 -6.059 -0.41 0.5 0.763
5.964 -37.971 -5.765 -0.728 0.386 0.567
5.579 -38.814 -5.751 -0.363 0.164 0.917
6.05 -38.596 -5.479 -0.677 0.018 0.736
5.239 -39.344 -5.905 -0.533 -0.101 0.84
5.131 -39.934 -5.902 -0.462 0.292 0.838
4.373 -40.774 -6.239 -0.321 0.193 0.927
4.841 -40.459 -6.009 -0.632 -0.017 0.774
4.309 -41.79 -6.33 -0.353 -0.314 0.881
4.263 -42.289 -6.428 -0.323 0.019 0.946
3.615 -41.744 -6.789 -0.7 -0.292 0.652
3.677 -42.251 -6.816 -0.741 0.046 0.67
3.231 -41.86 -7.519 -0.892 -0.349 0.287
3.353 -42.348 -7.433 -0.973 -0.024 0.229
5.383 -41.969 -6.255 -0.126 -0.42 0.899
6.063 -42.294 -6.757 0.538 -0.737 0.408
5.891 -43.064 -7.623 0.84 -0.535 0.093
6.235 -42.707 -7.744 0.61 -0.773 0.174
5.671 -43.198 -8.271 0.683 -0.63 -0.37
5.975 -42.865 -8.511 0.48 -0.852 -0.209
5.157 -43.203 -8.741 0.315 -0.634 -0.706
5.366 -42.871 -9.069 0.176 -0.855 -0.488
6.872 -41.904 -8.098 0.928 -0.371 -0.003
7.164 -41.51 -7.738 0.734 -0.634 -0.243
7.763 -40.492 -7.817 0.729 -0.675 -0.116
7.478 -41.001 -7.679 0.919 -0.335 -0.208
8.119 -39.977 -7.708 0.907 -0.417 -0.061
8.411 -39.676 -7.298 0.712 -0.617 -0.335
8.208 -39.387 -8.155 0.951 -0.122 -0.285
8.493 -39.128 -7.713 0.76 -0.295 -0.579
8.07 -38.704 -8.421 0.882 0.219 -0.418
8.365 -38.494 -7.961 0.685 0.078 -0.725
8.561 -37.661 -7.344 0.896 0.135 -0.423
8.638 -38.007 -7.393 0.845 0.365 -0.391
8.647 -37.597 -6.637 0.968 0.188 0.167
8.741 -37.929 -6.547 0.906 0.41 0.107
8.287 -37.391 -6.055 0.667 0.36 0.652
8.309 -37.683 -5.851 0.652 0.555 0.516
7.645 -37.138 -5.865 0.132 0.571 0.81
7.542 -37.381 -5.624 0.201 0.733 0.65
7.017 -36.954 -6.155 -0.391 0.724 0.568
6.792 -37.161 -5.971 -0.241 0.862 0.446
7.668 -40.486 -6.655 0.825 -0.565 0.02
7.668 -40.486 -6.654 0.825 -0.565 0.021
8.107 -40.07 -6.494 0.532 -0.842 -0.086
8.658 -39.468 -6.485 0.857 -0.495 0.144
8.61 -39.526 -6.323 0.889 -0.456 0.036
8.581 -39.594 -6.16 0.909 -0.411 -0.073
8.74 -38.778 -6.023 0.905 -0.089 0.415
8.685 -38.897 -5.902 0.942 -0.009 0.335
8.649 -39.016 -5.773 0.966 0.071 0.249
8.316 -38.296 -5.489 0.656 0.195 0.729
8.298 -38.458 -5.415 0.668 0.302 0.68
8.294 -38.614 -5.327 0.67 0.406 0.621
7.572 -38.234 -5.117 0.218 0.231 0.948
7.62 -38.402 -5.076 0.186 0.343 0.921
7.672 -38.562 -5.015 0.151 0.449 0.88
6.833 -38.619 -5.069 -0.217 0.005 0.976
6.946 -38.752 -5.033 -0.292 0.094 0.952
7.053 -38.884 -4.976 -0.364 0.181 0.914
6.572 -39.356 -5.304 -0.558 -0.336 0.759
6.267 -39.835 -5.568 -0.354 -0.017 0.935
6.236 -39.822 -5.58 -0.381 -0.006 0.925
6.426 -39.92 -5.495 -0.461 0.04 0.887
6.625 -40.838 -5.495 0.308 -0.018 0.951
6.957 -40.314 -5.457 0.087 -0.367 0.926
7.311 -39.885 -5.181 -0.149 -0.653 0.742
7.181 -41.097 -5.926 0.772 -0.233 0.592
7.448 -40.543 -5.838 0.594 -0.603 0.533
7.867 -40.143 -5.612 0.314 -0.869 0.383
7.67 -40.498 -6.46 0.823 -0.557 -0.109
4.376 -37.031 -8.778 -0.549 0.428 0.718
5.118 -36.94 -8.199 -0.435 0.867 0.242
4.751 -36.722 -8.834 -0.191 0.722 0.665
4.31 -36.223 -9.21 0.103 0.389 0.915
5.151 -36.562 -9.065 0.19 0.875 0.445
7.626 -36.013 -12.425 0.823 0.48 0.305
7.737 -36.834 -11.827 0.993 0.01 -0.119
7.794 -36.715 -12.443 0.954 -0.069 0.291
8.104 -36.614 -12.981 0.748 -0.136 0.65
7.609 -37.368 -12.688 0.809 -0.579 0.099
3.038 -37.299 -16.689 0.443 -0.005 -0.897
3.032 -37.545 -16.67 0.439 -0.156 -0.885
2.394 -39.153 -13.86 -0.612 -0.79 0.034
1.583 -38.747 -14.591 -0.383 -0.576 0.722
4.41 -39.202 -13.481 0.383 -0.832 -0.401
5.457 -34.884 -13.431 0 0.924 -0.383
5.437 -36.31 -9.458 0 0.707 0.707
0.315 -37.908 -14.425 -0.5 -0.331 0.8
0.315 -38.413 -14.763 -0.5 -0.612 0.612
-0.164 -36.309 -15.286 -0.766 0.557 0.321
-0.164 -36.732 -14.863 -0.766 0.321 0.557
-0.164 -37.311 -14.708 -0.766 -0 0.643
-0.164 -37.89 -14.863 -0.766 -0.321 0.557
-0.164 -38.313 -15.286 -0.766 -0.557 0.321
-0.164 -37.89 -16.867 -0.766 -0.321 -0.557
-0.476 -36.695 -15.865 -0.94 0.342 0
-0.476 -37.003 -15.332 -0.94 0.171 0.296
-0.476 -37.619 -15.332 -0.94 -0.171 0.296
-0.476 -37.927 -15.865 -0.94 -0.342 -0
-0.476 -37.619 -16.398 -0.94 -0.171 -0.296
-0.585 -37.311 -15.865 -1 0 0
2.102 -36.426 -18.013 0.623 -0.111 -0.774
2.102 -35.815 -17.926 0.623 0.325 -0.711
2.102 -35.349 -17.522 0.623 0.658 -0.423
1.541 -34.905 -16.93 0.223 0.975 0
1.541 -36.574 -18.261 0.223 -0.217 -0.95
1.541 -35.966 -18.261 0.223 0.217 -0.95
1.541 -35.419 -17.997 0.223 0.608 -0.762
1.541 -35.04 -17.522 0.223 0.878 -0.423
0.917 -34.905 -16.93 -0.223 0.975 0
0.917 -35.04 -16.338 -0.223 0.878 0.423
0.917 -36.574 -18.261 -0.223 -0.217 -0.95
0.917 -35.966 -18.261 -0.223 0.217 -0.95
0.917 -35.419 -17.997 -0.223 0.608 -0.762
0.917 -35.04 -17.522 -0.223 0.878 -0.423
0.356 -35.175 -16.93 -0.623 0.782 0
0.356 -36.426 -18.013 -0.623 -0.111 -0.774
0.356 -35.815 -17.926 -0.623 0.325 -0.711
0.356 -35.349 -17.522 -0.623 0.658 -0.423
-0.032 -35.663 -16.93 -0.901 0.434 0
-0.032 -35.966 -17.456 -0.901 0.217 -0.376
2.488 -39.752 -16.502 0.623 -0.75 -0.22
2.488 -39.419 -17.021 0.623 -0.512 -0.591
2.488 -38.858 -17.277 0.623 -0.111 -0.774
1.927 -39.932 -15.602 0.223 -0.878 0.423
1.927 -40.067 -16.194 0.223 -0.975 0
1.927 -39.932 -16.786 0.223 -0.878 -0.423
1.927 -39.553 -17.261 0.223 -0.608 -0.762
1.927 -39.006 -17.525 0.223 -0.217 -0.95
1.303 -39.932 -15.602 -0.223 -0.878 0.423
1.303 -40.067 -16.194 -0.223 -0.975 0
1.303 -39.932 -16.786 -0.223 -0.878 -0.423
1.303 -39.553 -17.261 -0.223 -0.608 -0.762
1.303 -39.006 -17.525 -0.223 -0.217 -0.95
0.742 -39.752 -15.886 -0.623 -0.75 0.22
0.742 -39.752 -16.502 -0.623 -0.75 -0.22
0.742 -39.419 -17.021 -0.623 -0.512 -0.591
4.656 -38.413 -15.685 0.588 -0.572 -0.572
4.593 -37.166 -16.354 0.5 -0.123 -0.857
4.593 -36.586 -16.27 0.5 0.36 -0.788
2.941 -35.19 -12.684 -0.588 0.747 0.31
4.75 -40.82 -12.118 0.588 -0.572 -0.572
4.192 -40.964 -12.373 0.309 -0.644 -0.7
3.574 -41.142 -12.334 -0 -0.733 -0.68
2.956 -40.964 -12.373 -0.309 -0.644 -0.7
2.398 -40.82 -12.118 -0.588 -0.572 -0.572
1.956 -39.088 -9.956 -0.809 0.294 0.509
1.956 -40.694 -11.562 -0.809 -0.509 -0.294
1.672 -39.058 -10.974 -0.951 0.309 0
1.672 -39.367 -10.439 -0.951 0.155 0.268
1.672 -39.985 -10.439 -0.951 -0.155 0.268
1.672 -40.294 -10.974 -0.951 -0.309 -0
1.672 -39.985 -11.509 -0.951 -0.155 -0.268
1.672 -39.367 -11.509 -0.951 0.155 -0.268
1.574 -39.676 -10.974 -1 -0 -0
6.394 -38.978 -13.645 0.5 -0.831 -0.244
6.715 -36.541 -15.21 0.223 -0.217 -0.95
6.715 -35.933 -15.21 0.223 0.217 -0.95
6.715 -35.386 -14.946 0.223 0.608 -0.762
6.715 -35.007 -14.471 0.223 0.878 -0.423
4.043 -34.664 -13.994 -0 0.885 -0.465
3.443 -34.688 -13.436 -0.5 0.866 0
7.21 -34.463 -11.924 0.866 0.5 0
6.771 -34.024 -11.924 0.5 0.866 0
6.171 -33.863 -11.924 -0 1 0
6.171 -34 -12.482 -0 0.885 -0.465
7.224 -35.197 -10.712 0.901 0.217 0.376
6.836 -35.046 -10.242 0.623 0.325 0.711
6.275 -34.65 -10.171 0.223 0.608 0.762
5.651 -34.271 -10.646 -0.223 0.878 0.423
5.651 -34.65 -10.171 -0.223 0.608 0.762
2.769 -36.265 -10.461 -0.809 0.509 0.294
2.769 -36.695 -10.031 -0.809 0.294 0.509
2.485 -36.974 -10.514 -0.951 0.155 0.268
3.81 -37.961 -8.236 -0.588 0.572 0.572
2.925 -39.814 -8.2 -0.809 0.294 0.509
4.512 -41.942 -11.102 0.5 -0.701 -0.509
3.957 -42.397 -10.545 0.174 -0.968 -0.181
3.957 -42.174 -11.118 0.174 -0.837 -0.518
3.367 -42.397 -10.545 -0.174 -0.968 -0.181
3.367 -42.174 -11.118 -0.174 -0.837 -0.518
2.812 -42.191 -9.931 -0.5 -0.847 0.18
2.812 -42.191 -10.543 -0.5 -0.847 -0.18
2.812 -41.942 -11.102 -0.5 -0.701 -0.509
2.36 -41.467 -9.411 -0.766 -0.421 0.486
2.36 -41.799 -9.929 -0.766 -0.617 0.181
2.36 -41.799 -10.545 -0.766 -0.617 -0.181
2.065 -41.042 -9.733 -0.94 -0.171 0.296
2.065 -41.332 -10.237 -0.94 -0.342 -0
8.407 -36.451 -13.761 1 0 0
8.246 -35.851 -13.761 0.866 0.5 0
8.246 -36.151 -13.241 0.866 0.25 0.433
8.246 -37.051 -13.761 0.866 -0.5 -0
8.246 -36.751 -14.281 0.866 -0.25 -0.433
8.246 -36.151 -14.281 0.866 0.25 -0.433
7.807 -37.132 -14.546 0.5 -0.567 -0.654
7.807 -36.599 -14.79 0.5 -0.123 -0.857
5.563 -36.853 -8.005 -0.174 0.918 0.356
3.587 -35.816 -9.746 -0.5 0.729 0.468
3.587 -36.258 -9.363 -0.5 0.36 0.788
5.13 -37.998 -6.441 -0.588 0.572 0.572
5.13 -38.523 -6.09 -0.588 0.31 0.747
4.688 -38.554 -6.567 -0.809 0.294 0.509
3.839 -40.542 -6.598 -0.588 0.31 0.747
3.839 -41.161 -6.475 -0.588 -0 0.809
3.397 -40.573 -7.075 -0.809 0.294 0.509
3.397 -41.161 -6.917 -0.809 -0 0.588
3.113 -41.47 -7.558 -0.951 -0.155 0.268
5.588 -43.365 -7.445 0.623 -0.75 0.22
5.027 -43.166 -6.686 0.223 -0.608 0.762
5.027 -43.545 -7.161 0.223 -0.878 0.423
5.027 -43.68 -7.753 0.223 -0.975 0
5.027 -43.545 -8.345 0.223 -0.878 -0.423
4.403 -42.619 -6.422 -0.223 -0.217 0.95
4.403 -43.166 -6.686 -0.223 -0.608 0.762
4.403 -43.545 -7.161 -0.223 -0.878 0.423
4.403 -43.68 -7.753 -0.223 -0.975 0
4.403 -43.545 -8.345 -0.223 -0.878 -0.423
3.842 -43.032 -6.926 -0.623 -0.512 0.591
3.842 -43.365 -7.445 -0.623 -0.75 0.22
3.842 -43.365 -8.061 -0.623 -0.75 -0.22
3.454 -42.619 -7.227 -0.901 -0.217 0.376
3.454 -42.922 -7.753 -0.901 -0.434 -0
6.633 -42.337 -8.093 0.809 -0.588 0
6.633 -42.179 -8.681 0.809 -0.509 -0.294
6.633 -41.749 -9.111 0.809 -0.294 -0.509
6.191 -42.656 -8.712 0.588 -0.747 -0.31
6.191 -42.305 -9.237 0.588 -0.572 -0.572
7.924 -40.16 -8.173 0.809 -0.509 -0.294
7.924 -39.73 -8.603 0.809 -0.294 -0.509
7.924 -39.142 -8.761 0.809 -0 -0.588
7.563 -37.93 -11.248 0.866 -0.5 -0
8.525 -37.223 -6.837 0.866 0.5 0
8.086 -36.784 -6.837 0.5 0.866 0
8.086 -36.949 -6.275 0.5 0.729 0.468
8.086 -36.949 -7.399 0.5 0.729 -0.468
7.486 -36.623 -6.837 -0 1 0
7.486 -36.76 -6.279 -0 0.885 0.465
8.901 -38.627 -6.729 1 0 0
8.798 -38.336 -6.225 0.94 0.171 0.296
8.798 -39.208 -6.729 0.94 -0.342 -0
8.798 -38.918 -7.233 0.94 -0.171 -0.296
8.798 -38.336 -7.233 0.94 0.171 -0.296
7.496 -37.881 -5.23 0.174 0.439 0.882
6.906 -37.881 -5.23 -0.174 0.439 0.882
6.351 -37.642 -5.635 -0.5 0.579 0.644
6.351 -38.172 -5.329 -0.5 0.268 0.824
6.855 -41.498 -5.851 0.5 -0.567 0.654
6.255 -41.243 -5.514 -0 -0.355 0.935
8.529 -39.401 -5.552 0.866 -0.25 0.433
8.09 -39.249 -5.043 0.5 -0.123 0.857
8.09 -39.782 -5.287 0.5 -0.567 0.654
7.49 -38.956 -4.881 -0 0.121 0.993
7.49 -39.527 -4.95 -0 -0.355 0.935
3 0 248 1
3 1 248 249
3 248 250 249
3 249 250 251
3 250 252 251
3 251 252 253
3 252 254 253
3 253 254 255
3 254 256 255
3 255 256 257
3 256 4 257
3 257 4 3
3 4 258 5
3 5 258 259
3 258 260 259
3 259 260 261
3 260 262 261
3 261 262 263
3 262 7 263
3 263 7 6
3 7 10 264
3 264 10 265
3 264 265 8
3 8 265 9
3 10 13 266
3 266 13 269
3 266 269 267
3 267 269 270
3 267 270 268
3 268 270 271
3 268 271 11
3 11 271 12
3 13 272 14
3 14 272 273
3 272 274 273
3 273 274 275
3 274 276 275
3 275 276 277
3 276 278 277
3 277 278 279
3 278 280 279
3 279 280 281
3 280 0 281
3 281 0 2
3 12 282 17
3 17 282 283
3 283 282 16
3 14 18 284
3 284 18 285
3 284 285 15
3 18 21 286
3 286 21 287
3 286 287 19
3 19 287 20
3 21 289 288
3 288 289 290
3 288 290 22
3 22 290 291
3 289 24 290
3 290 24 292
3 290 292 291
3 291 292 23
3 24 27 25
3 25 27 26
3 27 2 293
3 293 2 294
3 293 294 28
3 28 294 1
3 28 30 26
3 26 30 29
3 30 33 295
3 295 33 296
3 295 296 31
3 31 296 32
3 33 36 297
3 297 36 299
3 297 299 298
3 298 299 300
3 298 300 34
3 34 300 35
3 36 302 301
3 301 302 303
3 301 303 37
3 37 303 304
3 302 39 303
3 303 39 305
3 303 305 304
3 304 305 38
3 39 3 306
3 306 3 307
3 306 307 40
3 40 307 5
3 40 42 38
3 38 42 41
3 42 308 43
3 43 308 309
3 308 310 309
3 309 310 311
3 310 45 311
3 311 45 44
3 45 313 312
3 312 313 314
3 312 314 46
3 46 314 315
3 313 48 314
3 314 48 316
3 314 316 315
3 315 316 47
3 48 6 49
3 49 6 8
3 49 51 317
3 317 51 318
3 317 318 47
3 47 318 50
3 51 54 319
3 319 54 321
3 319 321 320
3 320 321 322
3 320 322 52
3 52 322 53
3 54 9 323
3 323 9 325
3 323 325 324
3 324 325 326
3 324 326 55
3 55 326 11
3 55 57 53
3 53 57 56
3 57 17 327
3 327 17 329
3 327 329 328
3 328 329 330
3 328 330 58
3 58 330 19
3 58 333 331
3 331 333 334
3 331 334 332
3 332 334 335
3 332 335 56
3 56 335 336
3 333 60 334
3 334 60 337
3 334 337 335
3 335 337 338
3 335 338 336
3 336 338 59
3 60 63 339
3 339 63 340
3 339 340 61
3 61 340 62
3 63 20 64
3 64 20 22
3 64 66 341
3 341 66 342
3 341 342 62
3 62 342 65
3 66 343 67
3 67 343 344
3 343 69 344
3 344 69 68
3 69 72 345
3 345 72 346
3 345 346 70
3 70 346 71
3 72 347 73
3 73 347 348
3 347 32 348
3 348 32 34
3 73 350 349
3 349 350 351
3 349 351 71
3 71 351 352
3 350 75 351
3 351 75 353
3 351 353 352
3 352 353 74
3 75 35 76
3 76 35 37
3 76 78 354
3 354 78 355
3 354 355 74
3 74 355 77
3 78 81 79
3 79 81 80
3 81 84 82
3 82 84 83
3 84 41 85
3 85 41 43
3 85 356 83
3 83 356 357
3 356 87 357
3 357 87 86
3 87 90 358
3 358 90 359
3 358 359 88
3 88 359 89
3 90 93 360
3 360 93 361
3 360 361 91
3 91 361 92
3 93 362 94
3 94 362 363
3 362 96 363
3 363 96 95
3 96 44 97
3 97 44 46
3 97 364 95
3 95 364 365
3 364 99 365
3 365 99 98
3 99 50 366
3 366 50 367
3 366 367 100
3 100 367 52
3 100 368 98
3 98 368 369
3 368 102 369
3 369 102 101
3 102 105 103
3 103 105 104
3 105 108 106
3 106 108 107
3 108 370 109
3 109 370 371
3 370 372 371
3 371 372 373
3 372 374 373
3 373 374 375
3 374 376 375
3 375 376 377
3 376 378 377
3 377 378 379
3 378 380 379
3 379 380 381
3 380 382 381
3 381 382 383
3 382 384 383
3 383 384 385
3 384 111 385
3 385 111 110
3 111 114 112
3 112 114 113
3 114 117 115
3 115 117 116
3 117 120 386
3 386 120 388
3 386 388 387
3 387 388 389
3 387 389 118
3 118 389 119
3 120 392 390
3 390 392 393
3 390 393 391
3 391 393 394
3 391 394 121
3 121 394 395
3 392 59 393
3 393 59 396
3 393 396 394
3 394 396 397
3 394 397 395
3 395 397 61
3 121 398 119
3 119 398 399
3 398 400 399
3 399 400 401
3 400 65 401
3 401 65 67
3 118 123 402
3 402 123 404
3 402 404 403
3 403 404 405
3 403 405 116
3 116 405 122
3 123 406 124
3 124 406 407
3 406 126 407
3 407 126 125
3 126 408 127
3 127 408 409
3 408 410 409
3 409 410 411
3 410 129 411
3 411 129 128
3 129 68 130
3 130 68 70
3 130 412 128
3 128 412 413
3 412 414 413
3 413 414 415
3 414 416 415
3 415 416 417
3 416 132 417
3 417 132 131
3 132 419 418
3 418 419 420
3 418 420 133
3 133 420 421
3 419 135 420
3 420 135 422
3 420 422 421
3 421 422 134
3 135 138 423
3 423 138 424
3 423 424 136
3 136 424 137
3 138 77 139
3 139 77 79
3 139 80 137
3 137 80 82
3 136 86 425
3 425 86 426
3 425 426 134
3 134 426 88
3 133 141 427
3 427 141 428
3 427 428 131
3 131 428 140
3 141 144 142
3 142 144 143
3 144 429 145
3 145 429 430
3 429 431 430
3 430 431 432
3 431 433 432
3 432 433 434
3 433 435 434
3 434 435 436
3 435 89 436
3 436 89 91
3 145 437 143
3 143 437 438
3 437 147 438
3 438 147 146
3 147 150 439
3 439 150 441
3 439 441 440
3 440 441 442
3 440 442 148
3 148 442 149
3 150 444 443
3 443 444 445
3 443 445 151
3 151 445 446
3 444 153 445
3 445 153 447
3 445 447 446
3 446 447 152
3 153 92 154
3 154 92 94
3 154 448 152
3 152 448 449
3 448 156 449
3 449 156 155
3 156 101 157
3 157 101 103
3 157 159 450
3 450 159 451
3 450 451 155
3 155 451 158
3 159 162 160
3 160 162 161
3 162 165 163
3 163 165 164
3 165 168 166
3 166 168 167
3 168 452 169
3 169 452 453
3 452 104 453
3 453 104 106
3 169 454 167
3 167 454 455
3 454 456 455
3 455 456 457
3 456 171 457
3 457 171 170
3 171 458 172
3 172 458 459
3 458 107 459
3 459 107 109
3 172 174 460
3 460 174 461
3 460 461 170
3 170 461 173
3 174 463 462
3 462 463 464
3 462 464 175
3 175 464 465
3 463 177 464
3 464 177 466
3 464 466 465
3 465 466 176
3 177 180 467
3 467 180 468
3 467 468 178
3 178 468 179
3 180 469 181
3 181 469 470
3 469 110 470
3 470 110 112
3 181 471 179
3 179 471 472
3 471 473 472
3 472 473 474
3 473 183 474
3 474 183 182
3 183 186 475
3 475 186 476
3 475 476 184
3 184 476 185
3 186 477 187
3 187 477 478
3 477 113 478
3 478 113 115
3 187 189 185
3 185 189 188
3 189 192 190
3 190 192 191
3 192 195 479
3 479 195 480
3 479 480 193
3 193 480 194
3 195 122 481
3 481 122 482
3 481 482 196
3 196 482 124
3 196 483 194
3 194 483 484
3 483 485 484
3 484 485 486
3 485 198 486
3 486 198 197
3 198 146 487
3 487 146 488
3 487 488 199
3 199 488 148
3 199 490 489
3 489 490 491
3 489 491 197
3 197 491 492
3 490 191 491
3 491 191 493
3 491 493 492
3 492 493 193
3 190 494 188
3 188 494 495
3 494 201 495
3 495 201 200
3 201 497 496
3 496 497 498
3 496 498 202
3 202 498 499
3 497 500 498
3 498 500 501
3 498 501 499
3 499 501 502
3 500 204 501
3 501 204 503
3 501 503 502
3 502 503 203
3 204 504 205
3 205 504 505
3 504 161 505
3 505 161 163
3 205 207 203
3 203 207 206
3 207 506 208
3 208 506 507
3 506 508 507
3 507 508 509
3 508 510 509
3 509 510 511
3 510 210 511
3 511 210 209
3 210 512 211
3 211 512 513
3 512 213 513
3 513 213 212
3 213 164 214
3 214 164 166
3 214 514 212
3 212 514 515
3 514 216 515
3 515 216 215
3 216 219 217
3 217 219 218
3 219 516 220
3 220 516 517
3 516 518 517
3 517 518 519
3 518 520 519
3 519 520 521
3 520 173 521
3 521 173 175
3 220 222 522
3 522 222 523
3 522 523 218
3 218 523 221
3 222 524 223
3 223 524 525
3 524 526 525
3 525 526 527
3 526 528 527
3 527 528 529
3 528 176 529
3 529 176 178
3 223 225 221
3 221 225 224
3 225 530 226
3 226 530 531
3 530 228 531
3 531 228 227
3 228 182 229
3 229 182 184
3 229 532 227
3 227 532 533
3 532 231 533
3 533 231 230
3 231 534 232
3 232 534 535
3 534 536 535
3 535 536 537
3 536 538 537
3 537 538 539
3 538 234 539
3 539 234 233
3 234 200 235
3 235 200 202
3 235 540 233
3 233 540 541
3 540 542 541
3 541 542 543
3 542 544 543
3 543 544 545
3 544 546 545
3 545 546 547
3 546 548 547
3 547 548 549
3 548 206 549
3 549 206 208
3 232 237 230
3 230 237 236
3 237 240 550
3 550 240 551
3 550 551 238
3 238 551 239
3 240 553 552
3 552 553 554
3 552 554 241
3 241 554 555
3 553 556 554
3 554 556 557
3 554 557 555
3 555 557 558
3 556 559 557
3 557 559 560
3 557 560 558
3 558 560 561
3 559 562 560
3 560 562 563
3 560 563 561
3 561 563 564
3 562 565 563
3 563 565 566
3 563 566 564
3 564 566 567
3 565 243 566
3 566 243 568
3 566 568 567
3 567 568 242
3 243 246 569
3 569 246 570
3 569 570 244
3 244 570 245
3 246 209 247
3 247 209 211
3 247 215 245
3 245 215 217
3 244 572 571
3 571 572 573
3 571 573 242
3 242 573 574
3 572 575 573
3 573 575 576
3 573 576 574
3 574 576 577
3 575 239 576
3 576 239 578
3 576 578 577
3 577 578 241
3 238 224 236
3 236 224 226
3 160 580 579
3 579 580 581
3 579 581 158
3 158 581 582
3 580 149 581
3 581 149 583
3 581 583 582
3 582 583 151
3 142 585 584
3 584 585 586
3 584 586 140
3 140 586 587
3 585 125 586
3 586 125 588
3 586 588 587
3 587 588 127
3 31 23 589
3 589 23 590
3 589 590 29
3 29 590 25
3 2 0 294
3 294 0 1
3 307 3 4
3 307 4 5
3 8 6 264
3 264 6 7
3 325 9 267
3 325 267 268
3 325 268 326
3 326 268 11
3 267 9 266
3 266 9 265
3 266 265 10
3 282 12 271
3 282 271 16
3 16 271 270
3 16 270 591
3 591 270 15
3 15 270 269
3 15 269 284
3 284 269 592
3 284 592 14
3 14 592 13
3 13 592 269
3 329 17 283
3 329 283 16
3 329 16 330
3 330 16 591
3 330 591 19
3 19 591 15
3 19 15 286
3 286 15 285
3 286 285 18
3 22 20 287
3 22 287 288
3 288 287 21
3 590 23 292
3 590 292 25
3 25 292 24
3 28 26 293
3 293 26 27
3 589 29 295
3 589 295 31
3 295 29 30
3 34 32 298
3 298 32 296
3 298 296 297
3 297 296 33
3 37 35 300
3 37 300 301
3 301 300 299
3 301 299 36
3 40 38 305
3 40 305 306
3 306 305 39
3 43 41 42
3 46 44 312
3 312 44 45
3 317 47 316
3 317 316 49
3 49 316 48
3 367 50 320
3 367 320 52
3 320 50 319
3 319 50 318
3 319 318 51
3 55 53 322
3 55 322 324
3 324 322 321
3 324 321 323
3 323 321 54
3 332 56 57
3 332 57 327
3 332 327 331
3 331 327 328
3 331 328 58
3 396 59 338
3 396 338 593
3 396 593 397
3 397 593 339
3 397 339 61
3 339 593 337
3 339 337 60
3 337 593 338
3 341 62 340
3 341 340 64
3 64 340 63
3 67 65 342
3 67 342 66
3 70 68 345
3 345 68 69
3 349 71 346
3 349 346 72
3 349 72 73
3 354 74 353
3 354 353 76
3 76 353 75
3 79 77 355
3 79 355 78
3 82 80 81
3 85 83 84
3 426 86 87
3 426 87 358
3 426 358 88
3 91 89 360
3 360 89 359
3 360 359 90
3 94 92 361
3 94 361 93
3 97 95 96
3 100 98 366
3 366 98 99
3 103 101 102
3 106 104 105
3 109 107 108
3 112 110 111
3 115 113 114
3 403 116 117
3 403 117 386
3 403 386 402
3 402 386 387
3 402 387 118
3 121 119 391
3 391 119 389
3 391 389 390
3 390 389 388
3 390 388 120
3 482 122 405
3 482 405 404
3 482 404 124
3 124 404 123
3 588 125 126
3 588 126 127
3 130 128 129
3 427 131 132
3 427 132 418
3 427 418 133
3 425 134 422
3 425 422 594
3 425 594 423
3 425 423 136
3 423 594 135
3 135 594 422
3 139 137 424
3 139 424 138
3 584 140 428
3 584 428 142
3 142 428 141
3 145 143 144
3 488 146 439
3 488 439 440
3 488 440 148
3 439 146 147
3 583 149 442
3 583 442 595
3 583 595 151
3 151 595 443
3 443 595 441
3 443 441 150
3 441 595 442
3 154 152 447
3 154 447 153
3 450 155 156
3 450 156 157
3 579 158 451
3 579 451 159
3 579 159 160
3 163 161 162
3 166 164 165
3 169 167 168
3 460 170 171
3 460 171 172
3 175 173 462
3 462 173 461
3 462 461 174
3 178 176 466
3 178 466 467
3 467 466 177
3 181 179 468
3 181 468 180
3 184 182 475
3 475 182 183
3 187 185 476
3 187 476 186
3 190 188 189
3 493 191 192
3 493 192 479
3 493 479 193
3 196 194 480
3 196 480 481
3 481 480 195
3 489 197 487
3 489 487 199
3 487 197 198
3 202 200 496
3 496 200 201
3 205 203 503
3 205 503 204
3 208 206 207
3 211 209 210
3 214 212 213
3 217 215 216
3 522 218 219
3 522 219 220
3 223 221 523
3 223 523 222
3 226 224 225
3 229 227 228
3 232 230 231
3 235 233 234
3 238 236 550
3 550 236 237
3 578 239 551
3 578 551 552
3 578 552 241
3 552 551 240
3 571 242 568
3 571 568 569
3 571 569 244
3 569 568 243
3 247 245 570
3 247 570 246
3 596 600 601
3 597 596 601
3 597 601 602
3 598 604 605
3 599 598 605
3 600 599 605
3 600 605 606
3 601 600 606
3 602 601 606
3 602 606 607
3 605 604 609
3 606 605 609
3 607 606 609
3 608 607 609
3 608 609 252
3 608 252 250
3 608 250 603
3 608 603 276
3 608 276 607
3 607 276 602
3 602 276 274
3 602 274 597
3 597 274 272
3 597 272 13
3 597 13 10
3 597 10 596
3 596 10 7
3 596 7 262
3 596 262 600
3 600 262 260
3 600 260 599
3 599 260 598
3 598 260 258
3 598 258 256
3 598 256 254
3 598 254 604
3 604 254 252
3 604 252 609
3 256 258 4
3 276 603 278
3 278 603 280
3 280 603 248
3 280 248 0
3 248 603 250
3 610 614 615
3 611 610 615
3 611 615 616
3 612 611 616
3 612 616 617
3 614 620 621
3 615 614 621
3 615 621 622
3 616 615 622
3 616 622 623
3 617 616 623
3 613 617 623
3 613 623 618
3 613 618 619
3 619 618 624
3 621 620 625
3 621 625 626
3 622 621 626
3 622 626 627
3 623 622 627
3 624 623 627
3 618 623 624
3 626 625 629
3 627 626 629
3 628 627 629
3 624 627 628
3 628 629 253
3 628 253 255
3 628 255 624
3 624 255 257
3 624 257 619
3 619 257 3
3 619 3 39
3 619 39 613
3 613 39 302
3 613 302 612
3 613 612 617
3 612 302 36
3 612 36 611
3 611 36 33
3 611 33 610
3 610 33 30
3 610 30 28
3 610 28 614
3 614 28 1
3 614 1 620
3 620 1 249
3 620 249 625
3 625 249 251
3 625 251 629
3 629 251 253
3 6 48 263
3 263 48 313
3 263 313 261
3 261 313 45
3 261 45 310
3 261 310 259
3 259 310 308
3 259 308 5
3 5 308 42
3 5 42 40
3 9 54 8
3 8 54 51
3 8 51 49
3 12 17 57
3 12 57 17
3 57 55 12
3 12 55 17
3 17 55 57
3 55 11 12
3 630 634 635
3 631 630 635
3 631 635 636
3 631 636 637
3 632 631 637
3 633 638 639
3 634 633 639
3 634 639 640
3 635 634 640
3 635 640 641
3 636 635 641
3 636 641 642
3 637 636 642
3 639 638 643
3 639 643 644
3 640 639 644
3 640 644 645
3 641 640 645
3 642 641 645
3 642 645 281
3 642 281 2
3 642 2 637
3 637 2 27
3 637 27 632
3 632 27 24
3 632 24 289
3 632 289 631
3 631 289 630
3 630 289 21
3 630 21 634
3 634 21 633
3 633 21 18
3 633 18 638
3 638 18 14
3 638 14 273
3 638 273 643
3 643 273 275
3 643 275 277
3 643 277 644
3 644 277 645
3 645 277 279
3 645 279 281
3 20 63 333
3 20 333 58
3 20 58 19
3 333 63 60
3 23 31 347
3 23 347 291
3 291 347 646
3 291 646 22
3 22 646 66
3 22 66 64
3 66 646 343
3 343 646 347
3 343 347 69
3 69 347 72
3 347 31 32
3 26 29 25
3 35 75 648
3 35 648 34
3 34 648 647
3 34 647 348
3 348 647 73
3 73 647 350
3 350 647 648
3 350 648 75
3 41 84 38
3 38 84 81
3 38 81 304
3 304 81 78
3 304 78 76
3 304 76 37
3 85 43 356
3 44 96 311
3 311 96 649
3 311 649 309
3 309 649 356
3 309 356 43
3 356 649 93
3 356 93 90
3 356 90 87
3 93 649 362
3 362 649 96
3 47 50 315
3 50 99 315
3 315 99 364
3 315 364 46
3 46 364 97
3 656 660 661
3 658 657 663
3 659 658 663
3 660 659 663
3 661 660 663
3 662 661 663
3 657 662 663
3 662 657 52
3 662 52 53
3 662 53 661
3 661 53 654
3 661 654 656
3 656 654 376
3 656 376 374
3 656 374 660
3 660 374 372
3 660 372 659
3 659 372 370
3 659 370 658
3 658 370 655
3 658 655 368
3 658 368 657
3 657 368 100
3 657 100 52
3 368 655 102
3 102 655 105
3 105 655 108
3 108 655 370
3 376 654 378
3 378 654 653
3 378 653 380
3 380 653 652
3 380 652 382
3 382 652 651
3 382 651 384
3 384 651 650
3 384 650 111
3 111 650 114
3 114 650 392
3 114 392 120
3 114 120 117
3 392 650 59
3 59 650 651
3 59 651 336
3 336 651 652
3 336 652 653
3 336 653 56
3 56 653 654
3 56 654 53
3 62 65 664
3 62 664 395
3 62 395 61
3 395 664 121
3 121 664 398
3 398 664 400
3 400 664 65
3 68 129 344
3 344 129 401
3 344 401 67
3 401 129 410
3 401 410 408
3 401 408 399
3 399 408 406
3 399 406 123
3 399 123 119
3 119 123 118
3 406 408 126
3 352 74 666
3 352 666 665
3 352 665 71
3 71 665 70
3 70 665 130
3 130 665 412
3 412 665 666
3 412 666 414
3 414 666 667
3 414 667 416
3 416 667 668
3 416 668 419
3 416 419 132
3 419 668 138
3 419 138 135
3 138 668 77
3 77 668 667
3 77 667 74
3 74 667 666
3 80 139 79
3 357 86 670
3 357 670 83
3 83 670 669
3 83 669 82
3 82 669 137
3 137 669 136
3 136 669 86
3 86 669 670
3 672 674 673
3 672 673 433
3 672 433 431
3 672 431 671
3 672 671 133
3 672 133 421
3 672 421 674
3 674 421 134
3 674 134 88
3 674 88 673
3 673 88 435
3 673 435 433
3 435 88 89
3 133 671 141
3 141 671 144
3 144 671 429
3 429 671 431
3 92 153 436
3 92 436 91
3 436 153 678
3 436 678 434
3 434 678 677
3 434 677 432
3 432 677 676
3 432 676 430
3 430 676 675
3 430 675 145
3 145 675 437
3 437 675 676
3 437 676 147
3 147 676 677
3 147 677 150
3 150 677 679
3 150 679 444
3 444 679 153
3 153 679 678
3 678 679 677
3 681 680 682
3 681 682 369
3 681 369 101
3 681 101 156
3 681 156 448
3 681 448 680
3 680 448 363
3 680 363 95
3 680 95 365
3 680 365 682
3 682 365 98
3 682 98 369
3 363 448 154
3 363 154 94
3 452 168 683
3 452 683 103
3 452 103 104
3 103 683 157
3 157 683 159
3 159 683 162
3 162 683 168
3 162 168 165
3 458 171 456
3 458 456 107
3 107 456 684
3 107 684 106
3 106 684 453
3 453 684 454
3 453 454 169
3 454 684 456
3 686 688 689
3 687 686 689
3 689 688 691
3 689 691 692
3 690 694 695
3 691 690 695
3 692 691 695
3 694 693 696
3 694 696 697
3 695 694 697
3 695 697 375
3 695 375 377
3 695 377 692
3 692 377 379
3 692 379 381
3 692 381 689
3 689 381 687
3 687 381 383
3 687 383 685
3 687 685 180
3 687 180 686
3 686 180 177
3 686 177 688
3 688 177 463
3 688 463 690
3 688 690 691
3 690 463 174
3 690 174 694
3 694 174 693
3 693 174 172
3 693 172 459
3 693 459 696
3 696 459 371
3 696 371 373
3 696 373 697
3 697 373 375
3 371 459 109
3 180 685 469
3 469 685 110
3 110 685 385
3 385 685 383
3 477 186 183
3 477 183 473
3 477 473 112
3 477 112 113
3 112 473 471
3 112 471 470
3 470 471 181
3 116 122 115
3 115 122 478
3 478 122 195
3 478 195 187
3 187 195 189
3 189 195 192
3 585 142 143
3 585 143 485
3 585 485 483
3 585 483 125
3 125 483 407
3 407 483 196
3 407 196 124
3 485 143 438
3 485 438 198
3 198 438 146
3 698 699 700
3 698 701 702
3 698 702 703
3 698 703 699
3 702 704 705
3 703 702 705
3 703 705 415
3 703 415 417
3 703 417 699
3 699 417 131
3 699 131 140
3 699 140 700
3 700 140 587
3 700 587 698
3 698 587 701
3 701 587 127
3 701 127 409
3 701 409 704
3 701 704 702
3 704 409 411
3 704 411 128
3 704 128 705
3 705 128 413
3 705 413 415
3 580 160 504
3 580 504 706
3 580 706 149
3 149 706 500
3 149 500 148
3 148 500 497
3 148 497 199
3 199 497 201
3 199 201 490
3 490 201 494
3 490 494 191
3 191 494 190
3 500 706 204
3 204 706 504
3 504 160 161
3 449 155 708
3 449 708 707
3 449 707 152
3 152 707 446
3 446 707 582
3 446 582 151
3 582 707 708
3 582 708 158
3 158 708 155
3 710 709 711
3 710 711 213
3 710 213 512
3 710 512 510
3 710 510 508
3 710 508 709
3 709 508 506
3 709 506 505
3 709 505 163
3 709 163 711
3 711 163 164
3 711 164 213
3 505 506 207
3 505 207 205
3 510 512 210
3 712 714 715
3 713 712 715
3 713 715 518
3 713 518 516
3 713 516 514
3 713 514 712
3 712 514 214
3 712 214 167
3 712 167 714
3 714 167 455
3 714 455 457
3 714 457 715
3 715 457 716
3 715 716 520
3 715 520 518
3 520 716 170
3 520 170 173
3 170 716 457
3 167 214 166
3 514 516 216
3 216 516 219
3 717 719 720
3 718 723 724
3 719 718 724
3 719 724 725
3 720 719 725
3 720 725 726
3 721 720 726
3 723 722 727
3 724 723 727
3 724 727 728
3 725 724 728
3 725 728 729
3 726 725 729
3 728 727 730
3 728 730 731
3 729 728 731
3 729 731 465
3 729 465 726
3 726 465 176
3 726 176 721
3 721 176 528
3 721 528 526
3 721 526 720
3 720 526 717
3 717 526 524
3 717 524 222
3 717 222 718
3 717 718 719
3 718 222 220
3 718 220 722
3 718 722 723
3 722 220 517
3 722 517 519
3 722 519 727
3 727 519 730
3 730 519 521
3 730 521 731
3 731 521 175
3 731 175 465
3 733 732 735
3 733 735 736
3 734 733 736
3 734 736 474
3 734 474 182
3 734 182 228
3 734 228 733
3 733 228 530
3 733 530 732
3 732 530 225
3 732 225 525
3 732 525 527
3 732 527 735
3 735 527 529
3 735 529 736
3 736 529 472
3 736 472 474
3 472 529 179
3 179 529 178
3 525 225 223
3 185 188 738
3 185 738 184
3 184 738 229
3 229 738 737
3 229 737 532
3 532 737 534
3 532 534 231
3 534 737 536
3 536 737 738
3 536 738 739
3 536 739 538
3 538 739 495
3 538 495 234
3 234 495 200
3 495 739 188
3 188 739 738
3 486 197 492
3 486 492 740
3 486 740 484
3 484 740 194
3 194 740 193
3 193 740 492
3 235 202 540
3 741 744 742
3 741 742 743
3 743 742 746
3 742 745 746
3 746 745 548
3 746 548 546
3 746 546 743
3 743 546 544
3 743 544 741
3 741 544 542
3 741 542 540
3 741 540 744
3 744 540 202
3 744 202 499
3 744 499 745
3 744 745 742
3 745 499 502
3 745 502 203
3 745 203 206
3 745 206 548
3 240 237 553
3 747 749 750
3 747 750 751
3 753 754 755
3 753 755 565
3 753 565 562
3 753 562 752
3 753 752 547
3 753 547 549
3 753 549 754
3 754 549 507
3 754 507 509
3 754 509 755
3 755 509 511
3 755 511 565
3 565 511 209
3 565 209 243
3 243 209 246
3 507 549 208
3 547 752 545
3 545 752 559
3 545 559 748
3 545 748 543
3 543 748 747
3 543 747 751
3 543 751 541
3 541 751 539
3 541 539 233
3 539 751 750
3 539 750 537
3 537 750 535
3 535 750 749
3 535 749 553
3 535 553 232
3 232 553 237
3 553 749 556
3 556 749 747
3 556 747 748
3 556 748 559
3 559 752 562
3 515 215 211
3 515 211 513
3 515 513 212
3 211 215 247
3 238 239 224
3 218 221 756
3 218 756 757
3 218 757 217
3 217 757 244
3 217 244 245
3 244 757 572
3 572 757 756
3 572 756 575
3 575 756 224
3 575 224 239
3 224 756 221
3 533 230 531
3 533 531 227
3 531 230 226
3 226 230 236
3 758 759 760
3 759 761 762
3 760 759 762
3 760 762 574
3 760 574 577
3 760 577 555
3 760 555 758
3 758 555 558
3 758 558 561
3 758 561 759
3 759 561 564
3 759 564 761
3 761 564 567
3 761 567 762
3 762 567 242
3 762 242 574
3 555 577 241
