ply
format ascii 1.0
comment Generated by PyMesh
element vertex 879
property float x
property float y
property float z
property float nx
property float ny
property float nz
element face 1754
property list uchar int vertex_indices
end_header
-19.216 -49.091 28.679 -0.43 0.072 -0.9
-18.609 -49.492 27.979 -0.835 0.34 -0.433
-19.005 -49.569 28.411 -0.571 0.391 -0.722
-18.108 -48.783 28.007 -0.584 0.695 -0.42
-18.716 -48.381 28.706 -0.179 0.427 -0.886
-17.746 -48.262 28.043 -0.826 0.348 -0.444
-17.74 -48.232 28.057 -0.823 0.363 -0.437
-18.71 -48.351 28.72 -0.176 0.442 -0.879
-17.919 -47.784 28.463 -0.704 0.064 -0.708
-18.168 -47.18 29.028 -0.828 0.366 -0.425
-18.959 -47.747 29.285 -0.301 0.744 -0.597
-18.579 -47.323 29.43 -0.554 0.461 -0.693
-16.734 -48.781 31.882 0.531 -0.397 0.749
-16.975 -49.316 31.922 0.691 -0.041 0.722
-16.184 -48.749 31.665 0.164 -0.419 0.893
-15.917 -49.375 31.105 0.297 -0.732 0.613
-16.708 -49.942 31.362 0.825 -0.354 0.442
-15.739 -49.824 30.699 0.178 -0.433 0.884
-15.743 -49.845 30.69 0.176 -0.443 0.879
-16.712 -49.963 31.353 0.823 -0.364 0.437
-16.105 -50.365 30.653 0.418 -0.096 0.903
-16.615 -51.06 30.609 0.162 -0.444 0.881
-17.223 -50.658 31.308 0.567 -0.712 0.415
-17.151 -51.027 30.856 0.519 -0.466 0.716
-17.28 -51.986 29.617 -0.17 -0.907 0.386
-17.768 -51.888 29.934 0.156 -0.972 0.174
-17.306 -52.533 28.956 -0.152 -0.542 0.827
-18.281 -51.765 27.67 -0.965 0.098 -0.245
-18.934 -50.97 28.397 -0.529 -0.432 -0.73
-18.533 -50.999 27.964 -0.797 -0.413 -0.441
-18.269 -51.748 27.633 -0.955 0.113 -0.276
-18.518 -50.976 27.916 -0.789 -0.402 -0.465
-18.259 -51.394 27.587 -0.962 -0.123 -0.245
-16.661 -50.131 26.669 -0.022 0.62 -0.785
-16.8 -49.617 26.93 0.07 0.277 -0.958
-16.438 -49.097 26.966 -0.171 -0.069 -0.983
-16.327 -50.201 26.648 0.175 0.578 -0.797
-16.078 -49.173 26.944 0.008 -0.107 -0.994
-15.551 -48.95 26.808 -0.343 -0.256 -0.904
-15.859 -47.811 27.079 -0.523 0.414 -0.745
-16.408 -47.948 27.235 -0.157 0.505 -0.849
-15.806 -47.234 27.206 -0.558 0.029 -0.829
-16.241 -46.848 27.682 -0.776 0.222 -0.591
-16.843 -47.562 27.711 -0.374 0.698 -0.61
-17.022 -47.113 28.117 -0.255 0.399 -0.881
-16.231 -46.351 28.004 -0.77 0.471 -0.43
-17.012 -46.616 28.439 -0.25 0.648 -0.72
-16.694 -45.098 28.572 -0.462 -0.365 -0.808
-17.347 -44.965 29.349 -0.929 -0.27 -0.254
-17.785 -46.46 29.358 -0.637 0.726 -0.26
-17.407 -45.497 29.644 -0.889 0.084 -0.451
-17.521 -45.531 29.909 -0.946 0.067 -0.318
-17.899 -46.494 29.623 -0.694 0.709 -0.127
-18.329 -46.685 29.984 -0.407 0.836 -0.368
-17.466 -45.539 31.329 -0.918 0.062 0.392
-18.278 -46.693 31.304 -0.377 0.831 0.409
-17.396 -45.637 31.569 -0.964 0.127 0.232
-16.364 -46.467 32.273 -0.105 -0.565 0.819
-17.044 -47.685 32.146 0.349 0.248 0.904
-16.139 -46.607 32.235 -0.255 -0.471 0.844
-15.844 -46.852 32.141 -0.107 -0.594 0.797
-16.769 -47.913 32.058 0.51 0.113 0.852
-16.222 -47.815 31.854 0.145 0.048 0.988
-15.777 -46.875 32.131 -0.074 -0.606 0.792
-16.155 -47.839 31.845 0.178 0.037 0.983
-14.948 -46.712 32.851 -0.626 -0.714 0.312
-14.038 -47.108 32.319 0.024 -0.997 -0.068
-15.078 -48.308 31.215 0.717 -0.198 0.668
-14.104 -47.194 31.717 0.068 -0.94 0.333
-13.988 -47.228 31.569 0.126 -0.958 0.259
-14.962 -48.342 31.067 0.775 -0.215 0.594
-14.181 -48.076 30.632 0.254 -0.392 0.884
-14.179 -48.476 30.392 0.256 -0.592 0.764
-14.959 -48.742 30.827 0.776 -0.415 0.474
-14.781 -49.19 30.421 0.657 -0.116 0.745
-13.816 -48.805 29.838 0.437 -0.756 0.487
-14.418 -49.519 29.867 0.838 -0.28 0.467
-14.008 -49.272 29.526 0.565 -0.445 0.695
-14.204 -50.014 28.589 0.45 -0.882 0.144
-14.629 -50.317 28.86 0.733 -0.679 -0.036
-14.98 -51.265 28.429 0.967 -0.047 0.251
-15.1 -51.364 28.735 0.896 -0.106 0.43
-14.758 -50.423 29.188 0.668 -0.733 0.128
-15.12 -50.944 29.151 0.91 -0.386 0.153
-17.06 -52.339 29.171 -0.257 -0.68 0.687
-17.229 -51.993 29.621 -0.144 -0.911 0.387
-17.267 -52.539 28.959 -0.119 -0.547 0.829
-14.188 -50.015 28.521 0.459 -0.882 0.104
-14.964 -51.266 28.361 0.976 -0.048 0.21
-14.846 -51.221 28.027 0.898 -0.078 0.433
-15.937 -50.36 26.585 -0.011 0.64 -0.769
-16.268 -50.237 26.637 0.21 0.557 -0.803
-15.492 -48.986 26.797 -0.308 -0.277 -0.91
-12.862 -46.756 30.91 0.689 -0.721 -0.071
-13.055 -47.604 29.973 0.818 -0.156 0.554
-12.782 -46.688 30.664 0.635 -0.767 0.093
-12.551 -46.073 29.952 0.828 -0.254 -0.5
-12.758 -46.813 29.057 0.966 0.24 0.096
-12.763 -46.618 28.874 0.97 0.11 0.218
-12.86 -46.853 28.073 0.889 -0.087 -0.45
-12.882 -47.116 28.026 0.904 0.088 -0.419
-11.457 -45.488 27.311 -0.046 -0.997 0.058
-12.494 -44.748 26.668 -0.787 -0.469 -0.401
-14.109 -46.24 27.265 0.29 0.526 -0.799
-13.646 -44.507 27.231 -0.019 -0.629 -0.777
-14.126 -44.365 27.243 -0.362 -0.528 -0.768
-14.678 -46.072 27.279 0.006 0.61 -0.792
-14.697 -44.156 27.207 0.019 -0.668 -0.744
-15.835 -44.149 27.684 -0.55 -0.664 -0.506
-15.816 -46.065 27.756 -0.563 0.613 -0.554
-16.343 -44.856 28.362 -0.211 -0.192 -0.958
-16.612 -43.284 28.187 -0.939 -0.232 -0.254
-17 -44.126 28.787 -0.68 0.329 -0.655
-16.851 -43.536 28.739 -0.78 -0.064 -0.623
-17.217 -43.705 30.436 -0.963 -0.149 0.225
-17.309 -44.269 30.22 -0.901 0.227 0.369
-17.362 -44.672 30.676 -0.866 0.496 0.065
-16.734 -43.547 31.363 -0.721 -0.07 0.689
-16.879 -44.514 31.603 -0.625 0.575 0.529
-16.332 -43.433 32.412 -0.989 -0.146 -0.01
-16.184 -43.745 32.774 -0.865 -0.407 0.292
-16.688 -44.917 32.07 -0.529 0.374 0.762
-16.791 -45.152 32.145 -0.46 0.531 0.712
-15.956 -43.939 32.987 -0.676 -0.568 0.469
-16.564 -45.346 32.358 -0.27 0.369 0.889
-15.544 -44.98 33.263 -0.95 0.125 0.286
-15.292 -45.83 33.323 -0.74 -0.583 0.335
-16.311 -46.196 32.418 -0.06 -0.339 0.939
-15.196 -46.191 33.096 -0.804 -0.342 0.487
-15.163 -46.325 33.04 -0.78 -0.438 0.447
-16.281 -46.319 32.367 -0.035 -0.442 0.896
-16.031 -46.417 32.355 -0.201 -0.377 0.904
-13.351 -44.671 33.267 0.878 0.383 0.289
-13.088 -44.932 33.035 0.702 0.557 0.443
-13.227 -43.627 32.92 0.795 -0.313 0.52
-13.218 -43.627 32.906 0.802 -0.313 0.509
-13.079 -44.932 33.02 0.709 0.557 0.433
-12.932 -43.972 32.489 0.611 -0.083 0.787
-12.649 -44.213 32.167 0.753 -0.204 0.626
-12.839 -45.136 32.748 0.88 0.412 0.238
-12.686 -44.859 32.225 0.777 0.227 0.587
-12.29 -44.385 30.483 0.932 -0.29 -0.216
-12.327 -45.031 30.542 0.957 0.141 -0.255
-11.508 -43.983 29.079 0.411 -0.558 0.721
-11.535 -44.164 28.932 0.396 -0.659 0.639
-12.355 -45.222 30.388 0.942 0.046 -0.331
-11.175 -44.604 28.515 0.155 -0.366 0.918
-11.194 -44.731 28.46 0.142 -0.457 0.878
-12.378 -45.372 30.323 0.931 -0.029 -0.364
-12.405 -45.612 30.208 0.949 0.13 -0.287
-11.355 -45.153 28.142 0.026 -0.758 0.652
-12.553 -46 29.916 0.825 -0.193 -0.53
-12.766 -46.545 28.838 0.967 0.17 0.188
-10.869 -43.574 28.773 0.766 -0.331 0.551
-10.585 -44.081 28.374 0.577 0.008 0.817
-10.745 -43.042 29.222 0.684 -0.685 0.252
-10.387 -42.428 28.536 0.94 -0.246 -0.238
-10.226 -43.467 27.688 0.833 0.447 0.327
-10.464 -42.879 27.998 0.991 0.055 0.121
-10.46 -42.844 27.935 0.994 0.074 0.085
-10.222 -43.436 27.632 0.835 0.469 0.287
-9.736 -42.621 26.779 0.511 -0.075 0.856
-10.678 -43.813 25.104 -0.161 -0.926 -0.34
-11.164 -44.628 25.957 0.163 -0.383 -0.909
-11.772 -43.983 24.401 0.568 -0.813 0.128
-13.073 -43.945 24.925 -0.361 -0.786 0.502
-12.465 -44.59 26.481 -0.766 -0.356 -0.535
-12.993 -44.148 26.634 -0.414 -0.65 -0.637
-13.037 -44.261 26.795 -0.438 -0.713 -0.548
-12.503 -44.69 26.624 -0.794 -0.427 -0.433
-13.656 -44.449 27.187 -0.025 -0.588 -0.809
-13.211 -44.004 26.659 -0.535 -0.57 -0.623
-13.81 -44.222 27.066 -0.136 -0.425 -0.895
-13.266 -43.818 24.947 -0.499 -0.695 0.518
-13.443 -43.678 24.928 -0.626 -0.595 0.504
-13.987 -44.082 27.047 -0.262 -0.326 -0.908
-14.532 -43.82 26.975 0.101 -0.5 -0.86
-13.857 -42.631 24.722 -0.922 0.153 0.357
-15.023 -42.581 26.73 -0.144 0.119 -0.982
-13.913 -42.206 25.928 -0.885 -0.131 -0.448
-13.35 -40.869 26.968 -0.483 0.825 0.295
-14.357 -40.998 27.961 0.188 0.911 -0.367
-14.29 -40.891 28.197 0.144 0.839 -0.524
-13.902 -41.209 29.634 0.466 0.574 0.673
-13.859 -41.408 29.808 0.437 0.706 0.557
-12.427 -41.246 29.726 -0.518 0.598 0.612
-12.418 -41.293 29.776 -0.511 0.564 0.648
-13.849 -41.464 29.868 0.443 0.678 0.587
-13.601 -41.886 30.82 0.277 0.96 -0.048
-14.093 -41.807 30.983 0.031 0.999 0.034
-14.341 -41.385 30.031 0.197 0.718 0.668
-14.579 -41.637 30.584 0.356 0.885 0.3
-14.331 -41.843 31.259 -0.088 0.981 0.172
-14.817 -41.672 30.86 0.237 0.868 0.437
-14.399 -41.828 31.866 -0.042 0.971 -0.233
-14.976 -41.943 32.126 -0.454 0.89 -0.048
-15.5 -41.808 31.167 -0.105 0.8 0.591
-15.765 -41.789 31.135 0.072 0.787 0.613
-16.689 -42.63 31.254 -0.697 0.086 0.711
-16.688 -42.89 31.32 -0.698 0.259 0.667
-16.296 -42.921 32.378 -0.959 0.28 -0.038
-15.793 -41.802 31.155 0.049 0.776 0.629
-15.4 -42.093 32.28 -0.213 0.97 -0.12
-15.006 -41.957 32.148 -0.476 0.879 -0.032
-14.477 -43.339 33.578 -0.098 -0.108 0.989
-14.914 -43.365 33.596 0.193 -0.09 0.977
-14.502 -44.406 33.872 -0.082 0.603 0.793
-11.249 -42.574 30.099 0.324 -0.351 0.879
-12.217 -43.402 31.202 0.969 0.201 0.144
-12.168 -43.337 30.947 0.936 0.158 0.313
-12.167 -43.931 30.468 0.937 -0.337 -0.085
-12.216 -44.166 30.587 0.97 -0.181 -0.164
-11.437 -43.774 29.177 0.451 -0.442 0.776
-12.157 -43.903 30.478 0.946 -0.314 -0.078
-11.424 -43.74 29.188 0.458 -0.423 0.782
-11.236 -43.19 29.589 0.333 -0.79 0.515
-13.864 -40.9 28.532 0.498 0.832 -0.245
-12.385 -40.909 28.529 -0.488 0.838 -0.243
-12.888 -40.878 27.332 -0.153 0.818 0.555
-12.178 -40.805 27.036 0.354 0.87 0.343
-11.676 -40.836 28.233 0.019 0.891 -0.454
-11.718 -40.023 26.147 0.047 0.348 0.936
-11.218 -40.183 26.074 0.404 0.234 0.884
-11.176 -40.996 28.16 0.376 0.776 -0.506
-11.155 -40.807 26.398 0.362 0.65 0.669
-10.818 -41.051 26.381 0.549 0.514 0.659
-10.878 -41.213 28.145 0.589 0.621 -0.517
-10.231 -41.437 26.444 0.158 0.771 0.617
-9.739 -42.589 26.783 0.509 -0.052 0.859
-10.386 -42.365 28.484 0.94 -0.201 -0.275
-10.463 -42.808 27.939 0.992 0.094 0.088
-10.667 -40.894 26.072 0.633 0.601 0.488
-10.098 -41.297 26.171 0.253 0.871 0.422
-10.787 -40.26 25.786 0.712 0.179 0.679
-10.505 -40.632 24.279 0.913 -0.087 -0.398
-9.816 -41.67 24.664 0.454 0.605 -0.654
-10.349 -41.314 24.369 0.809 0.368 -0.458
-10.877 -42.919 23.974 0.516 -0.524 -0.678
-10.283 -43.09 24.314 0.12 -0.41 -0.904
-11.377 -43.26 23.612 0.85 -0.297 -0.436
-11.815 -41.516 23.454 -0.005 0.256 -0.967
-12.207 -42.018 23.151 0.257 0.591 -0.765
-11.802 -40.81 23.469 -0.013 -0.215 -0.977
-13.058 -40.598 24.262 -0.91 -0.063 -0.41
-13.463 -41.806 23.944 -0.64 0.742 -0.198
-13.233 -41.276 24.35 -0.793 0.389 -0.469
-13.592 -41.78 25.081 -0.992 0.109 -0.063
-13.78 -42.252 24.592 -0.867 0.424 0.264
-13.835 -41.827 25.798 -0.83 0.14 -0.54
-13.349 -41.051 25.262 -0.857 0.514 0.038
-13.62 -41.182 25.958 -0.676 0.601 -0.427
-13.16 -40.399 25.069 -0.983 0.079 0.166
-20.343 -49.413 30.636 -0.993 -0.089 0.079
-20.344 -49.428 30.903 -0.992 -0.078 -0.099
-18.165 -48.373 28.462 -0.547 0.421 -0.724
-18.159 -48.344 28.475 -0.543 0.438 -0.716
-19.312 -47.589 29.864 -0.477 0.823 -0.307
-18.907 -47.175 29.969 -0.747 0.548 -0.377
-19.463 -47.57 30.544 -0.553 0.832 0.033
-19.048 -47.158 30.601 -0.83 0.558 -0.005
-19.391 -47.695 31.226 -0.517 0.77 0.373
-18.981 -47.274 31.234 -0.791 0.49 0.368
-19.106 -47.944 31.81 -0.374 0.645 0.666
-18.716 -47.506 31.778 -0.635 0.353 0.688
-18.649 -48.282 32.213 -0.146 0.476 0.867
-18.291 -47.82 32.152 -0.384 0.168 0.908
-18.086 -48.66 32.375 0.136 0.288 0.948
-17.767 -48.171 32.303 -0.077 -0.038 0.996
-17.5 -49.022 32.273 0.429 0.107 0.897
-17.222 -48.507 32.208 0.244 -0.236 0.941
-16.289 -49.831 30.944 0.545 -0.428 0.721
-16.293 -49.851 30.935 0.543 -0.439 0.716
-17.853 -50.938 31.399 0.252 -0.851 0.46
-17.737 -51.287 30.94 0.175 -0.619 0.766
-18.528 -51.058 31.283 -0.086 -0.912 0.402
-18.365 -51.399 30.832 -0.195 -0.685 0.702
-19.151 -51.002 30.977 -0.397 -0.883 0.249
-18.944 -51.346 30.548 -0.535 -0.654 0.535
-19.63 -50.777 30.525 -0.636 -0.771 0.023
-19.389 -51.137 30.128 -0.797 -0.531 0.288
-19.896 -50.416 29.993 -0.77 -0.59 -0.243
-19.637 -50.802 29.633 -0.943 -0.333 -0.003
-19.912 -49.971 29.459 -0.777 -0.368 -0.51
-19.651 -50.388 29.136 -0.951 -0.09 -0.295
-19.674 -49.507 28.998 -0.658 -0.136 -0.74
-19.43 -49.956 28.708 -0.821 0.164 -0.547
-17.4 -51.577 30.467 0.373 -0.789 0.488
-16.884 -51.651 30.191 0.028 -0.74 0.672
-17.538 -52.095 29.369 0.002 -0.834 0.551
-18.467 -51.876 29.543 -0.255 -0.965 -0.056
-18.111 -52.085 29.048 -0.492 -0.826 0.274
-17.891 -52.524 28.629 -0.639 -0.534 0.554
-18.904 -51.532 28.967 -0.512 -0.763 -0.395
-18.469 -51.803 28.575 -0.802 -0.582 -0.134
-18.256 -52.236 28.147 -0.944 -0.294 0.152
-18.494 -51.342 28.108 -0.823 -0.184 -0.537
-19.058 -50.273 28.282 -0.602 -0.022 -0.798
-18.667 -50.249 27.84 -0.863 -0.038 -0.503
-18.337 -50.543 27.464 -0.699 -0.185 -0.691
-18.091 -50.991 27.166 -0.863 0.114 -0.492
-17.955 -50.139 27.123 -0.508 0.016 -0.861
-17.736 -50.616 26.849 -0.654 0.334 -0.679
-17.42 -49.817 26.937 -0.24 0.177 -0.954
-17.238 -50.317 26.676 -0.361 0.51 -0.78
-17.323 -49.266 27.105 -0.191 0.453 -0.871
-16.961 -48.745 27.142 -0.433 0.106 -0.895
-17.776 -48.977 27.478 -0.418 0.598 -0.684
-17.414 -48.456 27.514 -0.659 0.251 -0.709
-16.301 -48.551 26.985 -0.103 0.203 -0.974
-15.759 -48.372 26.846 -0.465 0.084 -0.881
-17.344 -47.86 27.821 -0.624 0.549 -0.556
-17.522 -47.412 28.226 -0.505 0.25 -0.826
-16.762 -45.893 28.7 -0.416 0.166 -0.894
-17.493 -46.529 28.817 -0.491 0.691 -0.53
-17.138 -45.825 28.996 -0.727 0.222 -0.65
-17.1 -45.024 28.892 -0.752 -0.312 -0.58
-17.367 -45.771 29.419 -0.916 0.267 -0.301
-17.79 -46.198 30.015 -0.766 0.511 -0.389
-18.416 -46.596 30.649 -0.459 0.888 0.023
-17.871 -46.115 30.63 -0.822 0.568 0.036
-17.615 -45.435 30.625 -0.993 0.115 0.039
-17.743 -46.205 31.237 -0.734 0.506 0.453
-17.705 -46.259 31.374 -0.758 0.542 0.362
-17.838 -47.166 32.011 -0.118 0.553 0.825
-17.357 -46.634 31.934 -0.439 0.198 0.876
-17.029 -46.033 32.161 -0.658 -0.203 0.725
-16.728 -47.045 32.04 0.138 -0.179 0.974
-16.601 -47.123 32.016 0.053 -0.127 0.991
-16.347 -47.335 31.935 0.229 -0.272 0.935
-15.677 -47.339 31.902 -0.141 -0.296 0.945
-15.243 -46.935 32.264 -0.429 -0.566 0.704
-15.61 -48.206 31.639 0.451 -0.147 0.88
-15.282 -47.605 31.753 0.232 -0.547 0.804
-14.879 -47.18 32.126 -0.037 -0.831 0.556
-14.488 -47.022 32.677 -0.298 -0.936 0.188
-14.896 -47.679 31.446 0.596 -0.617 0.514
-14.523 -47.248 31.842 0.347 -0.904 0.25
-14.692 -47.604 31.337 0.46 -0.667 0.587
-14.591 -47.634 31.208 0.528 -0.687 0.5
-15.392 -49.1 31.032 0.56 -0.594 0.577
-15.213 -49.548 30.627 0.441 -0.295 0.848
-14.461 -50.004 29.418 0.817 -0.523 0.243
-14.048 -49.723 29.109 0.542 -0.71 0.449
-14.943 -50.338 29.809 0.576 -0.69 0.438
-15.306 -50.859 29.772 0.817 -0.343 0.463
-15.284 -50.138 30.329 0.405 -0.59 0.698
-15.646 -50.658 30.292 0.647 -0.243 0.723
-15.472 -51.355 29.514 0.734 -0.592 0.334
-15.427 -51.746 29.071 0.704 -0.331 0.629
-15.987 -51.693 29.727 0.477 -0.761 0.44
-15.905 -52.061 29.27 0.423 -0.516 0.745
-16.598 -51.916 29.764 0.171 -0.872 0.459
-16.474 -52.267 29.305 0.088 -0.637 0.766
-16.774 -52.868 28.553 0.291 -0.821 0.491
-16.472 -52.733 28.686 0.09 -0.911 0.402
-16.597 -52.957 27.863 0.439 -0.895 -0.084
-16.26 -52.839 27.861 0.214 -0.973 -0.083
-16.818 -52.763 27.207 0.255 -0.733 -0.631
-16.523 -52.607 27.078 0.059 -0.837 -0.544
-17.333 -52.376 26.89 -0.174 -0.411 -0.895
-17.139 -52.145 26.699 -0.303 -0.565 -0.767
-17.905 -51.976 27.058 -0.651 -0.078 -0.755
-17.823 -51.667 26.899 -0.706 -0.284 -0.649
-14.752 -50.535 28.465 0.814 -0.534 0.227
-14.738 -50.536 28.406 0.825 -0.535 0.181
-14.915 -51.243 28.19 0.944 -0.063 0.324
-15.119 -51.972 28.062 0.885 -0.464 0.035
-15.056 -51.887 27.918 0.844 -0.521 0.131
-14.976 -51.812 27.777 0.79 -0.57 0.225
-15.496 -52.347 27.488 0.664 -0.684 -0.303
-15.4 -52.228 27.395 0.6 -0.763 -0.241
-15.291 -52.126 27.297 0.527 -0.831 -0.175
-15.95 -52.246 26.859 0.397 -0.624 -0.673
-15.814 -52.136 26.822 0.306 -0.698 -0.648
-15.671 -52.041 26.77 0.211 -0.761 -0.614
-16.306 -51.707 26.417 0.187 -0.308 -0.933
-16.138 -51.645 26.419 0.075 -0.349 -0.934
-15.969 -51.591 26.401 -0.038 -0.386 -0.922
-16.428 -50.939 26.332 0.116 0.144 -0.983
-16.249 -50.945 26.341 -0.003 0.148 -0.989
-16.071 -50.948 26.33 -0.122 0.15 -0.981
-16.103 -50.305 26.619 0.1 0.603 -0.792
-15.869 -49.643 26.91 -0.056 0.161 -0.985
-15.92 -49.612 26.919 -0.097 0.185 -0.978
-15.68 -49.712 26.873 -0.182 0.208 -0.961
-14.809 -49.241 26.816 0.094 -0.427 -0.899
-15.148 -49.911 26.888 0.32 0.02 -0.947
-15.366 -50.574 26.6 0.465 0.462 -0.755
-14.275 -49.559 27.197 0.408 -0.614 -0.676
-14.732 -50.159 27.184 0.713 -0.214 -0.667
-14.919 -50.84 26.919 0.838 0.24 -0.49
-14.045 -49.845 27.827 0.544 -0.782 -0.305
-14.553 -50.381 27.675 0.882 -0.424 -0.204
-14.727 -51.079 27.446 0.998 0.041 -0.051
-14.665 -50.514 28.216 0.777 -0.55 0.307
-13.61 -49.188 29.114 0.799 -0.396 0.452
-13.388 -48.714 29.395 0.651 -0.711 0.265
-13.371 -49.029 28.611 0.94 -0.302 0.157
-13.13 -48.544 28.854 0.78 -0.626 -0.005
-13.317 -48.814 28.077 0.972 -0.176 -0.158
-13.073 -48.313 28.279 0.809 -0.51 -0.293
-13.456 -48.568 27.571 0.89 -0.031 -0.455
-13.222 -48.048 27.735 0.734 -0.378 -0.564
-13.771 -48.319 27.154 0.704 0.115 -0.7
-13.561 -47.78 27.287 0.564 -0.244 -0.789
-14.226 -48.097 26.874 0.437 0.246 -0.865
-14.051 -47.541 26.985 0.32 -0.124 -0.939
-14.768 -47.926 26.763 0.118 0.347 -0.931
-14.633 -47.357 26.866 0.028 -0.033 -0.999
-15.334 -47.827 26.834 -0.215 0.405 -0.889
-15.242 -47.251 26.942 -0.276 0.021 -0.961
-14.115 -47.546 31.01 0.21 -0.746 0.632
-13.54 -47.932 30.37 0.575 -0.32 0.753
-13.524 -47.413 30.769 0.565 -0.666 0.487
-13.347 -47.084 31.307 0.446 -0.886 0.128
-13.078 -47.11 30.403 0.833 -0.485 0.267
-13.014 -47.085 30.276 0.79 -0.502 0.352
-12.793 -47.273 29.496 0.949 0.01 0.316
-12.8 -46.816 29.888 0.954 -0.295 0.055
-12.578 -46.431 30.293 0.805 -0.552 -0.216
-12.772 -46.442 29.531 0.976 -0.008 -0.22
-12.817 -46.48 27.973 0.86 -0.336 -0.383
-12.515 -45.935 27.814 0.659 -0.699 -0.277
-12.033 -45.584 27.579 0.337 -0.934 -0.121
-13.452 -46.874 27.35 0.619 0.209 -0.757
-13.18 -46.326 27.542 0.437 -0.157 -0.885
-12.787 -45.82 27.491 0.176 -0.494 -0.852
-12.347 -45.45 27.206 -0.118 -0.741 -0.662
-11.938 -45.284 26.739 -0.39 -0.851 -0.35
-13.598 -45.922 27.488 -0.05 0.314 -0.948
-13.101 -45.517 27.451 -0.382 0.044 -0.923
-12.709 -45.101 27.16 -0.643 -0.234 -0.729
-14.005 -45.664 27.514 0.22 0.142 -0.965
-13.84 -45.049 27.502 0.111 -0.268 -0.957
-14.441 -45.535 27.524 -0.151 0.252 -0.956
-14.246 -44.93 27.512 -0.282 -0.152 -0.947
-14.689 -45.446 27.562 0.013 0.192 -0.981
-14.695 -44.759 27.536 0.018 -0.266 -0.964
-15.297 -46.074 27.399 -0.303 0.609 -0.733
-15.184 -45.447 27.658 -0.378 0.191 -0.906
-15.191 -44.76 27.632 -0.374 -0.267 -0.888
-15.316 -44.157 27.326 -0.291 -0.669 -0.684
-15.6 -45.44 27.944 -0.707 0.197 -0.679
-15.607 -44.753 27.918 -0.702 -0.261 -0.662
-15.997 -45.506 28.221 -0.442 0.24 -0.864
-16.33 -45.735 28.421 -0.704 0.061 -0.708
-16.046 -44.454 28.106 -0.41 -0.461 -0.787
-16.714 -43.711 28.539 -0.871 0.052 -0.489
-17.331 -44.078 29.478 -0.917 0.364 -0.162
-17.243 -43.479 29.556 -0.976 -0.036 -0.214
-17.442 -44.642 29.809 -0.996 -0.039 0.075
-17.519 -45.114 30.189 -0.945 0.275 -0.178
-17.187 -44.575 31.171 -0.778 0.544 0.313
-17.042 -43.608 30.931 -0.875 -0.101 0.473
-16.431 -44.02 31.952 -0.923 0.245 0.297
-16.285 -44.327 32.308 -0.798 -0.019 0.603
-16.289 -44.467 32.31 -0.795 0.074 0.602
-16.118 -44.613 32.469 -0.567 -0.119 0.815
-15.932 -45.212 32.693 -0.692 0.28 0.666
-15.722 -45.921 32.743 -0.453 -0.523 0.722
-15.682 -46.137 32.638 -0.48 -0.378 0.792
-15.654 -46.249 32.592 -0.452 -0.488 0.746
-15.541 -46.324 32.62 -0.528 -0.438 0.728
-15.322 -46.718 32.428 -0.377 -0.71 0.595
-14.583 -46.271 33.591 -0.365 -0.399 0.841
-14.727 -45.903 33.779 -0.269 -0.644 0.716
-13.856 -46.007 33.766 0.154 -0.211 0.965
-14.058 -45.66 33.939 0.288 -0.442 0.85
-13.287 -45.497 33.554 0.56 0.153 0.814
-13.534 -45.191 33.744 0.725 -0.051 0.687
-13.285 -44.3 32.896 0.833 0.136 0.536
-13.276 -44.3 32.883 0.841 0.136 0.524
-13.081 -44.479 32.685 0.71 0.255 0.656
-12.837 -44.686 32.408 0.878 0.112 0.465
-12.678 -45.782 32.539 0.995 -0.05 0.089
-12.495 -45.624 31.977 0.873 -0.155 0.463
-12.871 -46.432 32.372 0.857 -0.514 -0.03
-12.723 -46.393 31.78 0.758 -0.54 0.365
-13.367 -46.916 32.292 0.503 -0.86 -0.087
-13.31 -46.966 31.686 0.465 -0.827 0.317
-12.393 -44.922 31.711 0.924 0.196 0.33
-12.356 -44.276 31.653 0.899 -0.235 0.369
-12.269 -44.981 31.132 0.985 0.166 0.04
-12.233 -44.335 31.074 0.961 -0.265 0.079
-12.364 -44.605 29.972 0.982 -0.143 0.125
-12.069 -44.227 29.444 0.785 -0.395 0.477
-12.386 -44.749 29.855 0.963 -0.269 0.024
-12.09 -44.368 29.33 0.766 -0.523 0.374
-12.429 -44.985 29.788 0.991 -0.112 0.069
-12.223 -44.779 29.207 0.854 -0.249 0.456
-11.777 -44.644 28.754 0.557 -0.339 0.758
-12.443 -45.079 29.747 0.974 -0.225 0.02
-12.234 -44.849 29.177 0.835 -0.378 0.4
-11.79 -44.725 28.719 0.539 -0.461 0.706
-12.471 -45.313 29.633 0.993 -0.068 0.096
-12.257 -45.035 29.086 0.85 -0.254 0.461
-11.803 -44.827 28.668 0.547 -0.392 0.739
-12.548 -45.516 29.481 0.822 -0.516 -0.24
-12.311 -45.178 28.978 0.664 -0.742 0.095
-11.887 -45.049 28.502 0.381 -0.828 0.412
-12.789 -46.271 29.401 0.982 -0.013 -0.187
-12.786 -46.335 29.433 0.985 -0.079 -0.154
-12.582 -45.947 28.394 0.845 -0.229 0.484
-12.067 -45.439 28.14 0.501 -0.568 0.653
-12.639 -46.132 27.935 0.741 -0.568 -0.358
-12.126 -45.634 27.657 0.4 -0.9 -0.172
-10.778 -43.501 28.701 0.706 -0.379 0.598
-10.466 -42.965 28.104 0.992 0.112 0.05
-10.085 -43.059 27.115 0.744 0.218 0.632
-9.998 -43.967 27.253 0.996 0.09 0.016
-9.886 -43.53 26.779 0.921 -0.201 0.333
-9.512 -43.152 26.4 0.672 -0.454 0.585
-10.119 -44.422 26.749 0.909 -0.236 -0.343
-9.994 -43.934 26.332 0.826 -0.561 -0.065
-9.633 -43.607 25.896 0.585 -0.779 0.226
-10.55 -44.666 26.27 0.601 -0.41 -0.686
-10.376 -44.151 25.906 0.485 -0.754 -0.443
-10.064 -43.851 25.416 0.277 -0.954 -0.117
-10.921 -44.117 25.629 0.001 -0.723 -0.69
-11.48 -44.224 25.583 0.373 -0.652 -0.66
-11.695 -43.996 25.031 0.517 -0.805 -0.292
-11.853 -44.838 26.139 -0.33 -0.533 -0.779
-12.008 -44.385 25.722 -0.226 -0.835 -0.501
-12.223 -44.157 25.171 -0.083 -0.988 -0.134
-12.461 -44.193 24.583 0.076 -0.963 0.258
-12.477 -44.195 25.984 -0.759 -0.619 -0.204
-12.692 -43.966 25.433 -0.615 -0.771 0.164
-13.011 -44.485 27.008 -0.455 -0.564 -0.69
-13.003 -44.537 27.047 -0.447 -0.61 -0.654
-13.514 -43.825 26.689 -0.333 -0.69 -0.643
-13.304 -43.607 26.145 -0.473 -0.835 -0.281
-13.216 -43.604 25.53 -0.532 -0.837 0.13
-13.623 -43.74 26.677 -0.506 -0.554 -0.662
-13.388 -43.541 26.136 -0.662 -0.686 -0.301
-13.325 -43.519 25.518 -0.704 -0.701 0.111
-14.121 -43.437 26.632 -0.174 -0.756 -0.631
-13.759 -43.273 26.106 -0.415 -0.866 -0.281
-13.518 -43.358 25.499 -0.576 -0.808 0.124
-14.42 -42.68 26.483 -0.546 0.185 -0.817
-13.976 -42.725 25.998 -0.842 0.215 -0.494
-13.775 -42.707 25.371 -0.976 0.204 -0.076
-14.363 -42.392 26.474 -0.584 -0.006 -0.812
-15.053 -41.856 26.972 -0.159 0.482 -0.862
-14.387 -41.805 26.67 -0.603 0.448 -0.661
-13.938 -41.594 26.132 -0.903 0.307 -0.302
-14.812 -41.284 27.417 -0.039 0.768 -0.639
-14.192 -41.341 27.031 -0.452 0.806 -0.382
-13.734 -41.11 26.508 -0.757 0.652 -0.033
-13.824 -41.109 27.472 -0.167 0.985 -0.041
-15.153 -40.864 28.672 -0.209 0.978 -0.012
-14.909 -40.787 28.75 -0.372 0.926 -0.064
-14.879 -41.089 29.687 -0.073 0.865 0.496
-14.696 -40.962 29.539 -0.195 0.78 0.594
-13.134 -41.464 29.644 -0.046 0.744 0.667
-13.126 -41.509 29.692 -0.039 0.709 0.704
-14.905 -41.209 29.868 -0.086 0.806 0.586
-15.144 -41.461 30.421 0.073 0.973 0.218
-15.469 -41.209 29.624 -0.367 0.806 0.465
-15.708 -41.46 30.177 -0.208 0.973 0.096
-15.975 -41.384 29.326 -0.621 0.718 0.315
-16.214 -41.636 29.879 -0.462 0.885 -0.053
-16.375 -41.719 29.001 -0.821 0.551 0.153
-16.614 -41.97 29.554 -0.661 0.718 -0.215
-16.628 -42.178 28.683 -0.947 0.321 -0.006
-16.867 -42.43 29.236 -0.788 0.489 -0.375
-16.71 -42.718 28.402 -0.988 0.051 -0.146
-16.948 -42.969 28.955 -0.829 0.219 -0.515
-15.809 -41.492 30.237 -0.259 0.958 0.126
-16.005 -41.543 30.412 -0.128 0.992 0.01
-16.645 -41.942 29.839 -0.677 0.732 -0.073
-16.656 -41.893 30.102 -0.67 0.7 -0.249
-17.103 -42.671 30.403 -0.906 0.368 0.209
-17.012 -42.46 30.541 -0.967 0.227 0.117
-16.393 -42.938 31.812 -0.895 0.29 0.34
-16.431 -43.477 31.847 -0.923 -0.117 0.366
-16.374 -42.802 31.768 -0.908 0.2 0.369
-15.961 -42.377 32.402 -0.68 0.733 -0.018
-16.078 -42.323 31.789 -0.601 0.697 0.391
-16.353 -42.086 31.277 -0.418 0.539 0.731
-15.585 -42.073 31.681 -0.09 0.956 0.279
-15.197 -42.186 32.962 -0.043 0.893 0.448
-14.785 -42.057 32.889 -0.318 0.808 0.497
-15.012 -42.668 33.461 0.111 0.491 0.864
-14.584 -42.581 33.431 -0.175 0.434 0.884
-14.715 -43.918 33.624 0.06 0.278 0.959
-15.55 -43.647 33.484 -0.337 -0.325 0.883
-15.285 -44.17 33.523 -0.514 0.024 0.857
-15.138 -44.688 33.76 -0.612 0.369 0.7
-15.649 -44.432 33.078 -0.88 -0.24 0.409
-14.479 -43.901 33.624 -0.097 0.266 0.959
-13.822 -44.477 33.742 0.485 0.544 0.685
-13.832 -43.969 33.499 0.492 0.205 0.846
-13.738 -43.417 33.436 0.43 -0.163 0.888
-13.384 -44.153 33.047 0.9 0.037 0.435
-15.366 -42.01 31.604 -0.236 0.914 0.33
-15.341 -41.998 31.586 -0.211 0.926 0.312
-13.709 -41.95 32.025 0.451 0.885 -0.12
-13.514 -41.987 31.446 0.321 0.909 0.266
-13.204 -42.377 32.305 0.811 0.579 0.08
-12.916 -42.493 31.777 0.62 0.656 0.431
-13.024 -42.993 32.628 0.94 0.139 0.311
-12.703 -43.222 32.16 0.726 0.292 0.623
-13.185 -41.905 30.398 -0 0.972 0.233
-12.769 -41.696 30.031 -0.277 0.833 0.478
-13.039 -42.178 31.246 0.558 0.813 0.166
-12.738 -42.138 30.738 0.357 0.786 0.504
-12.352 -41.914 30.348 0.1 0.637 0.765
-11.944 -41.54 30.137 -0.173 0.388 0.905
-12.534 -42.733 31.386 0.811 0.536 0.236
-12.335 -42.58 30.849 0.678 0.434 0.593
-11.977 -42.325 30.452 0.439 0.264 0.858
-11.517 -42.008 30.255 0.132 0.053 0.99
-12.082 -43.113 30.703 0.879 0.008 0.476
-11.742 -42.822 30.315 0.652 -0.186 0.735
-12.039 -43.877 29.79 0.852 -0.374 0.367
-12.1 -44.057 29.705 0.806 -0.509 0.303
-11.961 -43.763 29.744 0.8 -0.449 0.398
-11.951 -43.737 29.752 0.809 -0.425 0.406
-11.836 -43.426 29.986 0.733 -0.633 0.25
-11.847 -42.934 30.393 0.722 -0.111 0.683
-13.159 -41.359 29.536 -0.029 0.674 0.738
-13.126 -41.092 28.585 0.006 0.96 -0.28
-12.584 -41.03 27.905 -0.356 0.918 0.173
-11.958 -40.965 27.643 0.207 0.976 -0.062
-11.704 -40.997 27.627 0.037 0.998 -0.051
-11.722 -40.897 27.008 0.05 0.931 0.362
-11.727 -40.552 26.484 0.053 0.701 0.711
-11.403 -41.094 27.583 0.527 0.841 -0.122
-11.491 -40.971 26.975 0.586 0.759 0.284
-11.426 -40.648 26.44 0.543 0.544 0.64
-11.286 -41.162 27.565 0.45 0.886 -0.11
-11.279 -41.095 26.941 0.445 0.842 0.306
-11.04 -41.341 27.553 0.697 0.707 -0.122
-11.018 -41.284 26.928 0.682 0.669 0.295
-10.8 -41.529 27.58 0.537 0.832 -0.14
-10.57 -41.608 26.975 0.384 0.885 0.264
-10.452 -41.696 28.371 0.893 0.277 -0.356
-10.481 -41.891 27.749 0.912 0.407 0.059
-10.251 -41.97 27.144 0.758 0.46 0.462
-9.806 -41.92 26.669 0.462 0.426 0.778
-10.431 -42.393 27.834 0.97 -0.183 0.158
-10.201 -42.472 27.229 0.817 -0.13 0.562
-10.244 -42.702 27.271 0.845 0.024 0.534
-10.241 -42.733 27.267 0.848 -0 0.53
-10.522 -40.865 25.887 0.536 0.583 0.611
-9.727 -41.329 25.422 0.518 0.848 -0.113
-10.195 -40.893 25.227 0.83 0.557 0.017
-10.416 -40.291 25.037 0.977 0.156 0.144
-10.274 -41.194 24.558 0.759 0.287 -0.584
-9.977 -42.351 24.273 0.339 0.118 -0.933
-10.531 -42.084 23.928 0.709 -0.06 -0.703
-10.912 -43.116 24.075 0.539 -0.393 -0.745
-11.259 -43.752 24.77 0.226 -0.967 -0.118
-11.63 -42.593 23.213 0.669 0.18 -0.721
-11.162 -42.165 23.524 0.358 -0.105 -0.928
-12.025 -41.446 23.456 0.136 0.209 -0.968
-12.947 -41.821 23.346 -0.271 0.731 -0.626
-12.676 -41.273 23.628 -0.452 0.366 -0.814
-12.542 -40.613 23.664 -0.541 -0.074 -0.837
-13.13 -41.259 24.154 -0.862 0.378 -0.338
-13.673 -42.084 25.217 -0.938 0.312 -0.153
-13.742 -42.42 25.332 -0.999 0.012 -0.05
-13.261 -40.844 25.533 -0.916 0.375 -0.144
-13.341 -40.797 26.441 -0.476 0.875 -0.082
-13.013 -40.502 25.963 -0.695 0.678 0.237
-12.881 -40.015 25.552 -0.783 0.354 0.511
-12.81 -40.659 26.838 -0.097 0.975 0.202
-12.541 -40.379 26.316 -0.276 0.788 0.55
-12.349 -39.876 25.949 -0.404 0.453 0.795
-11.98 -40.509 26.492 0.221 0.672 0.706
-11.03 -40.769 23.685 0.539 -0.185 -0.822
-10.942 -41.469 23.699 0.48 0.282 -0.831
-13.42 -41.096 27.893 0.201 0.963 0.181
-13.777 -41.088 27.611 -0.198 0.971 -0.134
-13.096 -43.692 25.517 -0.612 -0.779 0.138
-13.077 -43.758 26.121 -0.625 -0.735 -0.264
-12.933 -43.799 25.498 -0.454 -0.883 0.12
-12.905 -43.871 26.101 -0.473 -0.835 -0.282
-19.992 -50.264 30.995 -0.818 -0.514 0.258
-20.072 -50.09 31.182 -0.765 -0.63 0.134
-19.436 -50.264 31.812 -0.54 -0.514 0.667
-19.639 -50.09 31.817 -0.404 -0.63 0.663
-19.23 -49.413 32.27 -0.437 -0.089 0.895
-19.479 -49.428 32.173 -0.271 -0.078 0.959
-19.58 -48.561 31.91 -0.612 0.337 0.716
-19.751 -48.766 31.894 -0.498 0.473 0.727
-20.137 -48.561 31.094 -0.89 0.337 0.307
-20.184 -48.766 31.259 -0.858 0.473 0.197
-12.376 -45.398 28.547 0.707 -0.595 0.382
-12.701 -45.716 29.12 0.924 -0.383 0
-13.118 -41.152 28.165 0 1 -0
-17.181 -49.854 31.974 0.588 -0.31 0.747
-17.739 -49.392 32.375 0.309 -0.079 0.948
-17.739 -49.999 32.221 0.309 -0.382 0.871
-17.739 -50.523 31.878 0.309 -0.644 0.7
-18.357 -49.086 32.473 -0 0.075 0.997
-18.357 -49.68 32.429 -0 -0.223 0.975
-18.357 -50.235 32.211 -0 -0.5 0.866
-18.357 -50.701 31.839 -0 -0.733 0.68
-18.975 -48.768 32.323 -0.309 0.233 0.922
-18.975 -50.523 31.878 -0.309 -0.644 0.7
-19.533 -48.091 31.623 -0.588 0.572 0.572
-19.533 -50.73 31.098 -0.588 -0.747 0.31
-19.533 -48.616 28.984 -0.588 0.31 -0.747
-19.533 -48.091 29.335 -0.588 0.572 -0.572
-19.975 -48.059 30.479 -0.809 0.588 0
-19.975 -50.411 30.479 -0.809 -0.588 0
-19.975 -49.235 29.303 -0.809 -0 -0.588
-19.975 -48.647 29.461 -0.809 0.294 -0.509
-19.975 -48.217 29.891 -0.809 0.509 -0.294
-20.259 -48.617 30.479 -0.951 0.309 0
-20.259 -49.544 29.944 -0.951 -0.155 -0.268
-20.259 -48.926 29.944 -0.951 0.155 -0.268
-18.116 -49.553 27.351 -0.588 0.31 -0.747
-16.713 -48.491 27.088 -0.309 0.233 -0.922
-17.342 -47.952 32.276 0.174 0.091 0.981
-18.487 -47.121 31.703 -0.5 0.579 0.644
-15.764 -51.316 29.99 0.588 -0.572 0.572
-16.322 -51.46 30.245 0.309 -0.644 0.7
-17.739 -51.658 30.519 0.174 -0.837 0.518
-18.329 -51.658 30.519 -0.174 -0.837 0.518
-18.884 -51.675 29.944 -0.5 -0.847 0.18
-19.336 -51.283 29.33 -0.766 -0.617 -0.181
-19.336 -50.951 28.812 -0.766 -0.421 -0.486
-19.336 -50.391 28.556 -0.766 -0.091 -0.636
-17.124 -53.048 28.251 -0 -0.971 0.239
-17.124 -53.048 27.677 -0 -0.971 -0.239
-17.724 -52.88 28.257 -0.5 -0.831 0.244
-17.724 -52.88 27.671 -0.5 -0.831 -0.244
-17.724 -52.564 27.179 -0.5 -0.567 -0.654
-18.163 -52.183 27.444 -0.866 -0.25 -0.433
-15.322 -52.232 28.311 0.766 -0.617 0.181
-15.774 -52.375 28.868 0.5 -0.701 0.509
-15.774 -52.624 28.309 0.5 -0.847 0.18
-15.774 -52.624 27.697 0.5 -0.847 -0.18
-16.919 -51.642 26.393 -0.174 -0.27 -0.947
-16.919 -51.03 26.336 -0.174 0.091 -0.981
-17.474 -51.338 26.539 -0.5 -0.091 -0.861
-17.474 -50.729 26.603 -0.5 0.268 -0.824
-13.667 -49.563 28.653 0.766 -0.617 0.181
-13.667 -49.563 28.037 0.766 -0.617 -0.181
-13.667 -49.231 27.519 0.766 -0.421 -0.486
-14.119 -49.251 27.07 0.5 -0.433 -0.75
-14.119 -48.669 26.881 0.5 -0.091 -0.861
-14.674 -48.361 26.678 0.174 0.091 -0.981
-15.264 -48.361 26.678 -0.174 0.091 -0.981
-12.788 -47.91 28.864 0.951 -0.309 -0
-12.788 -47.601 28.329 0.951 -0.155 -0.268
-13.072 -48.31 29.452 0.809 -0.509 0.294
-13.514 -48.436 30.008 0.588 -0.572 0.572
-13.514 -47.292 27.246 0.588 0 -0.809
-14.072 -46.825 27.02 0.309 0.233 -0.922
-14.69 -46.561 27.002 -0 0.365 -0.931
-15.308 -46.825 27.02 -0.309 0.233 -0.922
-15.866 -46.673 27.369 -0.588 0.31 -0.747
-16.92 -44.743 28.621 -0.623 -0.111 -0.774
-12.81 -46.016 32.94 0.901 -0.217 0.376
-13.198 -45.868 33.497 0.623 -0.111 0.774
-13.198 -46.429 33.241 0.623 -0.512 0.591
-13.198 -46.762 32.722 0.623 -0.75 0.22
-13.759 -46.563 33.481 0.223 -0.608 0.762
-13.759 -46.942 33.006 0.223 -0.878 0.423
-14.383 -46.563 33.481 -0.223 -0.608 0.762
-14.383 -46.942 33.006 -0.223 -0.878 0.423
-12.24 -45.313 31.051 1 0 0
-12.338 -45.622 31.586 0.951 -0.155 0.268
-14.885 -51.428 26.987 0.866 -0.25 -0.433
-15.324 -51.809 26.722 0.5 -0.567 -0.654
-15.324 -51.276 26.478 0.5 -0.123 -0.857
-10.131 -44.396 27.756 0.901 -0.217 0.376
-10.131 -44.699 27.23 0.901 -0.434 -0
-10.519 -44.809 28.057 0.623 -0.512 0.591
-10.519 -45.142 27.538 0.623 -0.75 0.22
-10.519 -45.142 26.922 0.623 -0.75 -0.22
-11.08 -45.457 27.23 0.223 -0.975 0
-11.08 -45.322 26.638 0.223 -0.878 -0.423
-15.352 -43.584 26.953 -0.309 -0.382 -0.871
-15.352 -41.319 27.527 -0.309 0.751 -0.584
-15.352 -41.021 28.077 -0.309 0.9 -0.309
-15.91 -41.202 28.695 -0.588 0.809 0
-15.91 -43.439 27.2 -0.588 -0.31 -0.747
-15.91 -42.82 27.077 -0.588 0 -0.809
-15.91 -42.201 27.2 -0.588 0.31 -0.747
-15.91 -41.676 27.551 -0.588 0.572 -0.572
-15.91 -41.325 28.076 -0.588 0.747 -0.31
-16.352 -42.82 27.519 -0.809 -0 -0.588
-16.352 -42.232 27.677 -0.809 0.294 -0.509
-16.352 -41.802 28.107 -0.809 0.509 -0.294
-17.193 -42.789 29.985 -0.951 0.309 0
-17.193 -43.098 29.45 -0.951 0.155 -0.268
-15.745 -42.383 32.986 -0.5 0.729 0.468
-15.745 -42.825 33.369 -0.5 0.36 0.788
-16.184 -42.957 32.944 -0.866 0.25 0.433
-14.404 -44.985 34.111 -0 0.121 0.993
-15.004 -45.278 33.949 -0.5 -0.123 0.857
-13.467 -42.267 32.785 0.623 0.658 0.423
-13.467 -42.733 33.189 0.623 0.325 0.711
-14.028 -41.958 32.785 0.223 0.878 0.423
-14.028 -42.337 33.26 0.223 0.608 0.762
-14.028 -42.884 33.524 0.223 0.217 0.95
-12.537 -43.805 32.091 0.809 -0 0.588
-10.302 -42.083 28.869 1 0 0
-10.441 -41.476 28.869 0.901 0.434 0
-10.441 -41.779 29.395 0.901 0.217 0.376
-10.441 -42.387 29.395 0.901 -0.217 0.376
-10.829 -40.988 28.869 0.623 0.782 0
-10.829 -41.162 29.461 0.623 0.658 0.423
-10.829 -41.628 29.865 0.623 0.325 0.711
-10.829 -42.239 29.952 0.623 -0.111 0.774
-10.829 -42.8 29.696 0.623 -0.512 0.591
-11.39 -40.718 28.869 0.223 0.975 0
-11.39 -40.853 29.461 0.223 0.878 0.423
-11.39 -41.232 29.936 0.223 0.608 0.762
-12.014 -40.718 28.869 -0.223 0.975 0
-12.014 -40.853 29.461 -0.223 0.878 0.423
-9.052 -42.516 25.58 1 0 0
-9.191 -41.909 25.58 0.901 0.434 0
-9.191 -42.212 26.106 0.901 0.217 0.376
-9.191 -42.82 26.106 0.901 -0.217 0.376
-9.191 -43.123 25.58 0.901 -0.434 -0
-9.191 -42.82 25.054 0.901 -0.217 -0.376
-9.191 -42.212 25.054 0.901 0.217 -0.376
-9.579 -41.595 26.172 0.623 0.658 0.423
-9.579 -43.566 25.272 0.623 -0.75 -0.22
-9.579 -43.233 24.753 0.623 -0.512 -0.591
-9.579 -42.672 24.497 0.623 -0.111 -0.774
-9.579 -42.061 24.584 0.623 0.325 -0.711
-10.14 -43.746 24.988 0.223 -0.878 -0.423
-11.694 -43.562 23.395 0.623 -0.512 -0.591
-11.694 -43.001 23.139 0.623 -0.111 -0.774
-12.255 -44.075 23.63 0.223 -0.878 -0.423
-12.255 -43.696 23.155 0.223 -0.608 -0.762
-12.255 -43.149 22.891 0.223 -0.217 -0.95
-12.255 -42.541 22.891 0.223 0.217 -0.95
-12.879 -44.21 24.222 -0.223 -0.975 0
-12.879 -44.075 23.63 -0.223 -0.878 -0.423
-12.879 -43.696 23.155 -0.223 -0.608 -0.762
-12.879 -43.149 22.891 -0.223 -0.217 -0.95
-12.879 -42.541 22.891 -0.223 0.217 -0.95
-13.44 -43.895 24.53 -0.623 -0.75 0.22
-13.44 -43.895 23.914 -0.623 -0.75 -0.22
-13.44 -43.562 23.395 -0.623 -0.512 -0.591
-13.44 -43.001 23.139 -0.623 -0.111 -0.774
-13.44 -42.39 23.226 -0.623 0.325 -0.711
-13.828 -43.452 24.222 -0.901 -0.434 -0
-13.828 -43.149 23.696 -0.901 -0.217 -0.376
-13.828 -42.541 23.696 -0.901 0.217 -0.376
-13.967 -42.845 24.222 -1 0 0
-14.462 -40.698 28.826 -0 1 0
-14.462 -40.835 29.384 -0 0.885 0.465
-16.452 -41.694 30.4 -0.5 0.866 0
-16.452 -41.859 30.962 -0.5 0.729 0.468
-10.523 -39.903 24.836 0.901 0.434 0
-10.523 -40.206 24.31 0.901 0.217 -0.376
-10.911 -39.415 24.836 0.623 0.782 0
-10.911 -39.589 25.428 0.623 0.658 0.423
-10.911 -40.055 23.84 0.623 0.325 -0.711
-10.911 -39.589 24.244 0.623 0.658 -0.423
-11.472 -39.145 24.836 0.223 0.975 0
-11.472 -39.28 25.428 0.223 0.878 0.423
-11.472 -39.659 25.903 0.223 0.608 0.762
-11.472 -40.206 23.505 0.223 0.217 -0.95
-11.472 -39.659 23.769 0.223 0.608 -0.762
-11.472 -39.28 24.244 0.223 0.878 -0.423
-12.096 -39.145 24.836 -0.223 0.975 0
-12.096 -39.28 25.428 -0.223 0.878 0.423
-12.096 -40.206 23.505 -0.223 0.217 -0.95
-12.096 -39.659 23.769 -0.223 0.608 -0.762
-12.096 -39.28 24.244 -0.223 0.878 -0.423
-12.657 -39.415 24.836 -0.623 0.782 0
-12.657 -39.589 25.428 -0.623 0.658 0.423
-12.657 -40.055 23.84 -0.623 0.325 -0.711
-12.657 -39.589 24.244 -0.623 0.658 -0.423
-13.045 -39.903 24.836 -0.901 0.434 0
-13.045 -40.206 24.31 -0.901 0.217 -0.376
-10.906 -41.976 23.635 0.5 0 -0.866
-19.754 -49.482 32.051 -0.5 -0.123 0.857
-20.193 -49.034 31.542 -0.866 0.25 0.433
-20.193 -49.634 31.542 -0.866 -0.25 0.433
3 0 4 1
3 1 4 3
3 4 7 254
3 254 7 255
3 254 255 5
3 5 255 6
3 7 10 8
3 8 10 9
3 10 256 11
3 11 256 257
3 256 258 257
3 257 258 259
3 258 260 259
3 259 260 261
3 260 262 261
3 261 262 263
3 262 264 263
3 263 264 265
3 264 266 265
3 265 266 267
3 266 268 267
3 267 268 269
3 268 13 269
3 269 13 12
3 13 16 14
3 14 16 15
3 16 19 270
3 270 19 271
3 270 271 17
3 17 271 18
3 19 22 20
3 20 22 21
3 22 272 23
3 23 272 273
3 272 274 273
3 273 274 275
3 274 276 275
3 275 276 277
3 276 278 277
3 277 278 279
3 278 280 279
3 279 280 281
3 280 282 281
3 281 282 283
3 282 284 283
3 283 284 285
3 284 0 285
3 285 0 2
3 23 286 21
3 21 286 287
3 286 25 287
3 287 25 24
3 25 289 288
3 288 289 290
3 288 290 26
3 26 290 291
3 289 292 290
3 290 292 293
3 290 293 291
3 291 293 294
3 292 28 293
3 293 28 295
3 293 295 294
3 294 295 27
3 28 296 29
3 29 296 297
3 296 2 297
3 297 2 1
3 29 31 27
3 27 31 30
3 31 298 32
3 32 298 299
3 298 300 299
3 299 300 301
3 300 302 301
3 301 302 303
3 302 34 303
3 303 34 33
3 34 304 35
3 35 304 305
3 304 306 305
3 305 306 307
3 306 3 307
3 307 3 5
3 35 37 33
3 33 37 36
3 37 308 38
3 38 308 309
3 308 40 309
3 309 40 39
3 40 43 41
3 41 43 42
3 43 310 44
3 44 310 311
3 310 6 311
3 311 6 8
3 44 46 42
3 42 46 45
3 46 313 312
3 312 313 314
3 312 314 47
3 47 314 315
3 313 49 314
3 314 49 316
3 314 316 315
3 315 316 48
3 49 52 50
3 50 52 51
3 52 9 53
3 53 9 11
3 53 318 317
3 317 318 319
3 317 319 51
3 51 319 320
3 318 55 319
3 319 55 321
3 319 321 320
3 320 321 54
3 55 323 322
3 322 323 324
3 322 324 56
3 56 324 325
3 323 58 324
3 324 58 326
3 324 326 325
3 325 326 57
3 58 61 327
3 327 61 328
3 327 328 59
3 59 328 60
3 61 12 62
3 62 12 14
3 62 64 60
3 60 64 63
3 64 331 329
3 329 331 332
3 329 332 330
3 330 332 333
3 330 333 65
3 65 333 334
3 331 67 332
3 332 67 335
3 332 335 333
3 333 335 336
3 333 336 334
3 334 336 66
3 67 70 337
3 337 70 338
3 337 338 68
3 68 338 69
3 70 73 71
3 71 73 72
3 73 339 74
3 74 339 340
3 339 15 340
3 340 15 17
3 74 76 72
3 72 76 75
3 76 341 77
3 77 341 342
3 341 79 342
3 342 79 78
3 79 82 80
3 80 82 81
3 82 343 83
3 83 343 344
3 343 345 344
3 344 345 346
3 345 18 346
3 346 18 20
3 83 347 81
3 81 347 348
3 347 349 348
3 348 349 350
3 349 351 350
3 350 351 352
3 351 85 352
3 352 85 84
3 85 24 86
3 86 24 26
3 86 353 84
3 84 353 354
3 353 355 354
3 354 355 356
3 355 357 356
3 356 357 358
3 357 359 358
3 358 359 360
3 359 361 360
3 360 361 362
3 361 30 362
3 362 30 32
3 80 88 363
3 363 88 364
3 363 364 78
3 78 364 87
3 88 366 365
3 365 366 367
3 365 367 89
3 89 367 368
3 366 369 367
3 367 369 370
3 367 370 368
3 368 370 371
3 369 372 370
3 370 372 373
3 370 373 371
3 371 373 374
3 372 375 373
3 373 375 376
3 373 376 374
3 374 376 377
3 375 378 376
3 376 378 379
3 376 379 377
3 377 379 380
3 378 91 379
3 379 91 381
3 379 381 380
3 380 381 90
3 91 36 382
3 382 36 383
3 382 383 92
3 92 383 38
3 92 385 384
3 384 385 386
3 384 386 90
3 90 386 387
3 385 388 386
3 386 388 389
3 386 389 387
3 387 389 390
3 388 391 389
3 389 391 392
3 389 392 390
3 390 392 393
3 391 87 392
3 392 87 394
3 392 394 393
3 393 394 89
3 77 395 75
3 75 395 396
3 395 397 396
3 396 397 398
3 397 399 398
3 398 399 400
3 399 401 400
3 400 401 402
3 401 403 402
3 402 403 404
3 403 405 404
3 404 405 406
3 405 407 406
3 406 407 408
3 407 409 408
3 408 409 410
3 409 39 410
3 410 39 41
3 71 412 411
3 411 412 413
3 411 413 69
3 69 413 414
3 412 94 413
3 413 94 415
3 413 415 414
3 414 415 93
3 94 417 416
3 416 417 418
3 416 418 95
3 95 418 419
3 417 97 418
3 418 97 420
3 418 420 419
3 419 420 96
3 97 100 98
3 98 100 99
3 100 424 421
3 421 424 425
3 421 425 422
3 422 425 426
3 422 426 423
3 423 426 427
3 423 427 101
3 101 427 428
3 424 103 425
3 425 103 429
3 425 429 426
3 426 429 430
3 426 430 427
3 427 430 431
3 427 431 428
3 428 431 102
3 103 106 432
3 432 106 434
3 432 434 433
3 433 434 435
3 433 435 104
3 104 435 105
3 106 438 436
3 436 438 439
3 436 439 437
3 437 439 440
3 437 440 107
3 107 440 441
3 438 109 439
3 439 109 442
3 439 442 440
3 440 442 443
3 440 443 441
3 441 443 108
3 109 45 444
3 444 45 445
3 444 445 110
3 110 445 47
3 110 112 446
3 446 112 447
3 446 447 108
3 108 447 111
3 112 448 113
3 113 448 449
3 448 115 449
3 449 115 114
3 115 450 116
3 116 450 451
3 450 48 451
3 451 48 50
3 116 452 114
3 114 452 453
3 452 118 453
3 453 118 117
3 118 121 454
3 454 121 455
3 454 455 119
3 119 455 120
3 121 54 122
3 122 54 56
3 122 124 456
3 456 124 457
3 456 457 120
3 120 457 123
3 124 127 458
3 458 127 459
3 458 459 125
3 125 459 126
3 127 130 460
3 460 130 461
3 460 461 128
3 128 461 129
3 130 57 131
3 131 57 59
3 131 63 462
3 462 63 463
3 462 463 129
3 129 463 65
3 128 464 126
3 126 464 465
3 464 466 465
3 465 466 467
3 466 468 467
3 467 468 469
3 468 133 469
3 469 133 132
3 133 136 470
3 470 136 471
3 470 471 134
3 134 471 135
3 136 139 472
3 472 139 473
3 472 473 137
3 137 473 138
3 139 474 140
3 140 474 475
3 474 476 475
3 475 476 477
3 476 478 477
3 477 478 479
3 478 66 479
3 479 66 68
3 140 480 138
3 138 480 481
3 480 482 481
3 481 482 483
3 482 142 483
3 483 142 141
3 142 145 484
3 484 145 486
3 484 486 485
3 485 486 487
3 485 487 143
3 143 487 144
3 145 148 488
3 488 148 491
3 488 491 489
3 489 491 492
3 489 492 490
3 490 492 493
3 490 493 146
3 146 493 147
3 148 93 149
3 149 93 95
3 149 151 494
3 494 151 497
3 494 497 495
3 495 497 498
3 495 498 496
3 496 498 499
3 496 499 147
3 147 499 150
3 151 96 500
3 500 96 501
3 500 501 152
3 152 501 98
3 152 99 502
3 502 99 504
3 502 504 503
3 503 504 505
3 503 505 150
3 150 505 101
3 146 154 144
3 144 154 153
3 154 157 506
3 506 157 507
3 506 507 155
3 155 507 156
3 157 160 158
3 158 160 159
3 160 509 508
3 508 509 510
3 508 510 161
3 161 510 511
3 509 512 510
3 510 512 513
3 510 513 511
3 511 513 514
3 512 515 513
3 513 515 516
3 513 516 514
3 514 516 517
3 515 163 516
3 516 163 518
3 516 518 517
3 517 518 162
3 163 521 519
3 519 521 522
3 519 522 520
3 520 522 523
3 520 523 164
3 164 523 524
3 521 166 522
3 522 166 525
3 522 525 523
3 523 525 526
3 523 526 524
3 524 526 165
3 166 169 167
3 167 169 168
3 169 102 527
3 527 102 528
3 527 528 170
3 170 528 104
3 170 172 168
3 168 172 171
3 172 175 529
3 529 175 532
3 529 532 530
3 530 532 533
3 530 533 531
3 531 533 534
3 531 534 173
3 173 534 174
3 175 105 176
3 176 105 107
3 176 178 535
3 535 178 538
3 535 538 536
3 536 538 539
3 536 539 537
3 537 539 540
3 537 540 174
3 174 540 177
3 178 542 541
3 541 542 543
3 541 543 179
3 179 543 544
3 542 545 543
3 543 545 546
3 543 546 544
3 544 546 547
3 545 181 546
3 546 181 548
3 546 548 547
3 547 548 180
3 181 549 182
3 182 549 550
3 549 551 550
3 550 551 552
3 551 184 552
3 552 184 183
3 184 187 553
3 553 187 554
3 553 554 185
3 185 554 186
3 187 190 188
3 188 190 189
3 190 555 191
3 191 555 556
3 555 557 556
3 556 557 558
3 557 559 558
3 558 559 560
3 559 561 560
3 560 561 562
3 561 563 562
3 562 563 564
3 563 565 564
3 564 565 566
3 565 111 566
3 566 111 113
3 191 193 189
3 189 193 192
3 193 196 194
3 194 196 195
3 196 567 197
3 197 567 568
3 567 569 568
3 568 569 570
3 569 571 570
3 570 571 572
3 571 199 572
3 572 199 198
3 199 117 573
3 573 117 574
3 573 574 200
3 200 574 119
3 200 576 575
3 575 576 577
3 575 577 198
3 198 577 578
3 576 202 577
3 577 202 579
3 577 579 578
3 578 579 201
3 202 580 203
3 203 580 581
3 580 582 581
3 581 582 583
3 582 205 583
3 583 205 204
3 205 585 584
3 584 585 586
3 584 586 206
3 206 586 587
3 585 123 586
3 586 123 588
3 586 588 587
3 587 588 125
3 206 590 589
3 589 590 591
3 589 591 204
3 204 591 592
3 590 132 591
3 591 132 593
3 591 593 592
3 592 593 134
3 203 195 594
3 594 195 595
3 594 595 201
3 201 595 197
3 194 596 192
3 192 596 597
3 596 598 597
3 597 598 599
3 598 600 599
3 599 600 601
3 600 135 601
3 601 135 137
3 188 604 602
3 602 604 605
3 602 605 603
3 603 605 606
3 603 606 186
3 186 606 607
3 604 608 605
3 605 608 609
3 605 609 606
3 606 609 610
3 606 610 607
3 607 610 611
3 608 208 609
3 609 208 612
3 609 612 610
3 610 612 613
3 610 613 611
3 611 613 207
3 208 211 209
3 209 211 210
3 211 141 614
3 614 141 615
3 614 615 212
3 212 615 143
3 212 214 616
3 616 214 617
3 616 617 210
3 210 617 213
3 214 153 215
3 215 153 155
3 215 207 618
3 618 207 619
3 618 619 213
3 213 619 209
3 185 217 620
3 620 217 621
3 620 621 183
3 183 621 216
3 217 220 622
3 622 220 623
3 622 623 218
3 218 623 219
3 220 223 624
3 624 223 627
3 624 627 625
3 625 627 628
3 625 628 626
3 626 628 629
3 626 629 221
3 221 629 222
3 223 226 630
3 630 226 632
3 630 632 631
3 631 632 633
3 631 633 224
3 224 633 225
3 226 636 634
3 634 636 637
3 634 637 635
3 635 637 638
3 635 638 227
3 227 638 639
3 636 229 637
3 637 229 640
3 637 640 638
3 638 640 641
3 638 641 639
3 639 641 228
3 229 156 230
3 230 156 158
3 230 159 642
3 642 159 643
3 642 643 228
3 228 643 161
3 227 232 225
3 225 232 231
3 232 645 644
3 644 645 646
3 644 646 233
3 233 646 647
3 645 235 646
3 646 235 648
3 646 648 647
3 647 648 234
3 235 649 236
3 236 649 650
3 649 238 650
3 650 238 237
3 238 162 651
3 651 162 652
3 651 652 239
3 239 652 164
3 239 653 237
3 237 653 654
3 653 241 654
3 654 241 240
3 241 656 655
3 655 656 657
3 655 657 242
3 242 657 658
3 656 244 657
3 657 244 659
3 657 659 658
3 658 659 243
3 244 247 245
3 245 247 246
3 247 177 660
3 660 177 661
3 660 661 248
3 248 661 179
3 248 250 246
3 246 250 249
3 250 663 662
3 662 663 664
3 662 664 251
3 251 664 665
3 663 666 664
3 664 666 667
3 664 667 665
3 665 667 668
3 666 219 667
3 667 219 669
3 667 669 668
3 668 669 221
3 251 243 249
3 249 243 245
3 242 670 240
3 240 670 671
3 670 234 671
3 671 234 236
3 233 222 231
3 231 222 224
3 218 180 672
3 672 180 673
3 672 673 216
3 216 673 182
3 173 165 674
3 674 165 676
3 674 676 675
3 675 676 677
3 675 677 171
3 171 677 167
3 252 678 253
3 253 678 679
3 678 680 679
3 679 680 681
3 680 682 681
3 681 682 683
3 682 684 683
3 683 684 685
3 684 686 685
3 685 686 687
3 686 252 687
3 687 252 253
3 2 0 1
3 5 3 254
3 254 3 4
3 8 6 255
3 8 255 7
3 11 9 10
3 14 12 13
3 17 15 270
3 270 15 16
3 20 18 271
3 20 271 19
3 23 21 22
3 26 24 288
3 288 24 25
3 29 27 295
3 29 295 28
3 32 30 31
3 35 33 34
3 383 36 37
3 383 37 38
3 41 39 40
3 44 42 43
3 445 45 312
3 445 312 47
3 312 45 46
3 50 48 316
3 50 316 49
3 317 51 52
3 317 52 53
3 56 54 321
3 56 321 322
3 322 321 55
3 59 57 327
3 327 57 326
3 327 326 58
3 62 60 328
3 62 328 61
3 463 63 330
3 463 330 65
3 330 63 329
3 329 63 64
3 68 66 336
3 68 336 337
3 337 336 335
3 337 335 67
3 411 69 338
3 411 338 71
3 71 338 70
3 74 72 73
3 77 75 76
3 363 78 79
3 363 79 80
3 83 81 82
3 86 84 85
3 394 87 364
3 394 364 365
3 394 365 89
3 365 364 88
3 384 90 381
3 384 381 382
3 384 382 92
3 382 381 91
3 95 93 415
3 95 415 416
3 416 415 94
3 501 96 420
3 501 420 97
3 501 97 98
3 504 99 421
3 504 421 422
3 504 422 505
3 505 422 423
3 505 423 101
3 421 99 100
3 528 102 431
3 528 431 430
3 528 430 433
3 528 433 104
3 433 430 429
3 433 429 432
3 432 429 103
3 107 105 437
3 437 105 435
3 437 435 436
3 436 435 434
3 436 434 106
3 446 108 443
3 446 443 110
3 110 443 444
3 444 443 442
3 444 442 109
3 113 111 447
3 113 447 112
3 116 114 115
3 574 117 454
3 574 454 119
3 454 117 118
3 456 120 455
3 456 455 121
3 456 121 122
3 588 123 457
3 588 457 458
3 588 458 125
3 458 457 124
3 128 126 459
3 128 459 460
3 460 459 127
3 462 129 461
3 462 461 131
3 131 461 130
3 593 132 470
3 593 470 134
3 470 132 133
3 137 135 471
3 137 471 472
3 472 471 136
3 140 138 473
3 140 473 139
3 615 141 484
3 615 484 485
3 615 485 143
3 484 141 142
3 146 144 490
3 490 144 487
3 490 487 489
3 489 487 486
3 489 486 488
3 488 486 145
3 496 147 493
3 496 493 492
3 496 492 495
3 495 492 491
3 495 491 494
3 494 491 148
3 494 148 149
3 503 150 499
3 503 499 688
3 503 688 502
3 502 688 689
3 502 689 152
3 152 689 500
3 500 689 497
3 500 497 151
3 497 689 498
3 498 689 688
3 498 688 499
3 155 153 506
3 506 153 154
3 158 156 507
3 158 507 157
3 643 159 160
3 643 160 508
3 643 508 161
3 652 162 518
3 652 518 519
3 652 519 520
3 652 520 164
3 519 518 163
3 676 165 526
3 676 526 677
3 677 526 525
3 677 525 167
3 167 525 166
3 170 168 527
3 527 168 169
3 675 171 530
3 675 530 531
3 675 531 674
3 674 531 173
3 530 171 529
3 529 171 172
3 537 174 534
3 537 534 533
3 537 533 536
3 536 533 532
3 536 532 535
3 535 532 175
3 535 175 176
3 661 177 540
3 661 540 179
3 179 540 539
3 179 539 541
3 541 539 538
3 541 538 178
3 673 180 548
3 673 548 181
3 673 181 182
3 620 183 184
3 620 184 553
3 620 553 185
3 603 186 554
3 603 554 602
3 602 554 187
3 602 187 188
3 191 189 190
3 194 192 193
3 595 195 196
3 595 196 197
3 575 198 199
3 575 199 573
3 575 573 200
3 594 201 579
3 594 579 202
3 594 202 203
3 589 204 584
3 589 584 206
3 584 204 205
3 619 207 613
3 619 613 612
3 619 612 209
3 209 612 208
3 616 210 614
3 616 614 212
3 614 210 211
3 618 213 617
3 618 617 215
3 215 617 214
3 672 216 690
3 672 690 622
3 672 622 218
3 622 690 217
3 217 690 621
3 621 690 216
3 669 219 625
3 669 625 626
3 669 626 221
3 625 219 623
3 625 623 624
3 624 623 220
3 224 222 629
3 224 629 631
3 631 629 628
3 631 628 630
3 630 628 627
3 630 627 223
3 227 225 635
3 635 225 633
3 635 633 634
3 634 633 632
3 634 632 226
3 642 228 641
3 642 641 640
3 642 640 230
3 230 640 229
3 233 231 644
3 644 231 232
3 236 234 648
3 236 648 235
3 239 237 651
3 651 237 238
3 242 240 655
3 655 240 241
3 245 243 659
3 245 659 244
3 248 246 660
3 660 246 247
3 251 249 662
3 662 249 250
3 691 692 693
3 691 693 694
3 692 695 696
3 693 692 696
3 693 696 697
3 694 693 697
3 694 697 698
3 698 697 700
3 703 707 708
3 704 703 708
3 704 708 709
3 707 711 712
3 708 707 712
3 709 708 712
3 710 709 712
3 705 709 710
3 710 712 252
3 710 252 686
3 710 686 705
3 705 686 260
3 705 260 258
3 705 258 256
3 705 256 709
3 709 256 704
3 704 256 10
3 704 10 7
3 704 7 703
3 703 7 4
3 703 4 0
3 703 0 284
3 703 284 707
3 707 284 282
3 707 282 711
3 711 282 280
3 711 280 706
3 711 706 252
3 711 252 712
3 252 706 678
3 678 706 278
3 678 278 702
3 678 702 680
3 680 702 700
3 680 700 682
3 682 700 697
3 682 697 696
3 682 696 695
3 682 695 699
3 682 699 684
3 684 699 262
3 684 262 701
3 684 701 686
3 686 701 260
3 260 701 262
3 262 699 264
3 264 699 695
3 264 695 266
3 266 695 692
3 266 692 268
3 268 692 13
3 13 692 691
3 13 691 16
3 16 691 19
3 19 691 22
3 22 691 694
3 22 694 272
3 272 694 698
3 272 698 274
3 274 698 700
3 274 700 276
3 276 700 702
3 276 702 278
3 278 706 280
3 304 34 302
3 304 302 713
3 304 713 306
3 306 713 3
3 3 713 1
3 1 713 297
3 297 713 298
3 297 298 31
3 297 31 29
3 298 713 300
3 300 713 302
3 310 43 40
3 310 40 714
3 310 714 307
3 310 307 5
3 310 5 6
3 307 714 305
3 305 714 35
3 35 714 308
3 35 308 37
3 308 714 40
3 9 52 49
3 9 49 313
3 9 313 311
3 9 311 8
3 311 313 46
3 311 46 44
3 12 61 269
3 269 61 715
3 269 715 267
3 267 715 323
3 267 323 265
3 265 323 716
3 265 716 263
3 263 716 261
3 261 716 55
3 261 55 318
3 261 318 259
3 259 318 257
3 257 318 53
3 257 53 11
3 55 716 323
3 323 715 58
3 58 715 61
3 339 73 67
3 339 67 331
3 339 331 14
3 339 14 15
3 14 331 64
3 14 64 62
3 67 73 70
3 343 82 341
3 343 341 76
3 343 76 345
3 345 76 340
3 345 340 18
3 18 340 17
3 340 76 74
3 341 82 79
3 287 24 85
3 287 85 351
3 287 351 718
3 287 718 21
3 21 718 346
3 21 346 20
3 346 718 717
3 346 717 344
3 344 717 347
3 344 347 83
3 347 717 349
3 349 717 718
3 349 718 351
3 296 28 724
3 296 724 285
3 296 285 2
3 285 724 283
3 283 724 723
3 283 723 281
3 281 723 722
3 281 722 279
3 279 722 721
3 279 721 277
3 277 721 720
3 277 720 275
3 275 720 719
3 275 719 273
3 273 719 286
3 273 286 23
3 286 719 25
3 25 719 720
3 25 720 289
3 289 720 721
3 289 721 292
3 292 721 722
3 292 722 723
3 292 723 28
3 28 723 724
3 725 727 728
3 726 725 728
3 729 728 730
3 729 730 361
3 729 361 359
3 729 359 357
3 729 357 726
3 729 726 728
3 726 357 355
3 726 355 725
3 725 355 353
3 725 353 86
3 725 86 26
3 725 26 727
3 727 26 291
3 727 291 294
3 727 294 728
3 728 294 730
3 730 294 27
3 730 27 30
3 730 30 361
3 731 732 733
3 736 735 737
3 736 737 738
3 736 738 303
3 736 303 33
3 736 33 378
3 736 378 735
3 735 378 375
3 735 375 360
3 735 360 737
3 737 360 362
3 737 362 299
3 737 299 301
3 737 301 738
3 738 301 303
3 299 362 32
3 360 375 358
3 358 375 372
3 358 372 734
3 358 734 356
3 356 734 733
3 356 733 354
3 354 733 732
3 354 732 352
3 354 352 84
3 352 732 350
3 350 732 348
3 348 732 731
3 348 731 81
3 81 731 366
3 81 366 80
3 80 366 88
3 366 731 369
3 369 731 734
3 369 734 372
3 734 731 733
3 378 33 36
3 378 36 91
3 395 77 342
3 395 342 739
3 395 739 397
3 397 739 740
3 397 740 399
3 399 740 741
3 399 741 401
3 401 741 403
3 403 741 743
3 403 743 405
3 405 743 744
3 405 744 407
3 407 744 745
3 407 745 409
3 409 745 309
3 409 309 39
3 309 745 38
3 38 745 92
3 92 745 385
3 385 745 744
3 385 744 743
3 385 743 742
3 385 742 388
3 388 742 741
3 388 741 391
3 391 741 740
3 391 740 87
3 87 740 739
3 87 739 78
3 78 739 342
3 741 742 743
3 42 45 754
3 42 754 41
3 41 754 753
3 41 753 410
3 410 753 752
3 410 752 408
3 408 752 751
3 408 751 406
3 406 751 750
3 406 750 404
3 404 750 402
3 402 750 100
3 402 100 747
3 402 747 400
3 400 747 746
3 400 746 398
3 398 746 748
3 398 748 396
3 396 748 749
3 396 749 75
3 75 749 72
3 72 749 412
3 72 412 71
3 412 749 94
3 94 749 748
3 94 748 417
3 417 748 746
3 417 746 97
3 97 746 747
3 97 747 100
3 100 750 424
3 424 750 751
3 424 751 103
3 103 751 752
3 103 752 106
3 106 752 438
3 438 752 753
3 438 753 754
3 438 754 109
3 109 754 45
3 450 115 448
3 450 448 48
3 48 448 112
3 48 112 315
3 315 112 755
3 315 755 47
3 47 755 110
3 110 755 112
3 320 54 116
3 320 116 451
3 320 451 51
3 51 451 50
3 116 54 452
3 452 54 118
3 118 54 121
3 57 130 127
3 57 127 325
3 325 127 124
3 325 124 122
3 325 122 56
3 60 63 131
3 60 131 59
3 136 133 139
3 756 757 758
3 756 758 759
3 758 760 761
3 759 758 761
3 760 762 763
3 761 760 763
3 761 763 334
3 761 334 66
3 761 66 478
3 761 478 759
3 759 478 476
3 759 476 756
3 756 476 474
3 756 474 139
3 756 139 468
3 756 468 757
3 757 468 466
3 757 466 760
3 757 760 758
3 760 466 762
3 762 466 464
3 762 464 129
3 762 129 65
3 762 65 763
3 763 65 334
3 129 464 128
3 468 139 133
3 414 93 479
3 414 479 69
3 69 479 68
3 479 93 477
3 477 93 765
3 477 765 475
3 475 765 480
3 475 480 140
3 480 765 482
3 482 765 764
3 482 764 142
3 142 764 145
3 145 764 148
3 148 764 93
3 93 764 765
3 766 767 768
3 766 768 390
3 766 390 393
3 766 393 368
3 766 368 371
3 766 371 767
3 767 371 374
3 767 374 377
3 767 377 768
3 768 377 380
3 768 380 387
3 768 387 390
3 387 380 90
3 368 393 89
3 96 151 149
3 96 149 419
3 419 149 95
3 99 152 98
3 769 771 772
3 770 769 772
3 770 772 773
3 773 772 774
3 773 774 775
3 773 775 515
3 773 515 512
3 773 512 770
3 770 512 509
3 770 509 769
3 769 509 157
3 769 157 154
3 769 154 771
3 771 154 146
3 771 146 147
3 771 147 150
3 771 150 772
3 772 150 774
3 774 150 101
3 774 101 775
3 775 101 428
3 775 428 521
3 775 521 163
3 775 163 515
3 521 428 102
3 521 102 166
3 166 102 169
3 157 509 160
3 105 175 172
3 105 172 170
3 105 170 104
3 777 783 784
3 778 777 784
3 779 778 784
3 781 780 785
3 782 781 785
3 782 785 786
3 783 782 786
3 783 786 787
3 784 783 787
3 784 787 779
3 779 787 561
3 779 561 559
3 779 559 557
3 779 557 549
3 779 549 778
3 778 549 181
3 778 181 545
3 778 545 777
3 777 545 542
3 777 542 783
3 783 542 782
3 782 542 178
3 782 178 781
3 781 178 776
3 781 776 780
3 780 776 441
3 780 441 108
3 780 108 111
3 780 111 785
3 785 111 565
3 785 565 786
3 786 565 787
3 787 565 563
3 787 563 561
3 441 776 107
3 107 776 176
3 176 776 178
3 549 557 551
3 551 557 555
3 551 555 190
3 551 190 184
3 184 190 187
3 453 117 199
3 453 199 571
3 453 571 114
3 114 571 788
3 114 788 449
3 449 788 789
3 449 789 113
3 113 789 566
3 566 789 564
3 564 789 788
3 564 788 569
3 564 569 562
3 562 569 560
3 560 569 567
3 560 567 558
3 558 567 556
3 556 567 196
3 556 196 193
3 556 193 191
3 569 788 571
3 791 790 792
3 791 792 585
3 791 585 205
3 791 205 582
3 791 582 790
3 790 582 580
3 790 580 202
3 790 202 576
3 790 576 792
3 792 576 200
3 792 200 119
3 792 119 120
3 792 120 123
3 792 123 585
3 469 132 590
3 469 590 793
3 469 793 467
3 467 793 794
3 467 794 465
3 465 794 126
3 126 794 125
3 125 794 587
3 587 794 793
3 587 793 206
3 206 793 590
3 134 135 592
3 795 797 798
3 796 795 798
3 796 798 799
3 796 799 592
3 796 592 135
3 796 135 600
3 796 600 795
3 795 600 598
3 795 598 596
3 795 596 797
3 797 596 194
3 797 194 581
3 797 581 798
3 798 581 583
3 798 583 799
3 799 583 204
3 799 204 592
3 581 194 195
3 581 195 203
3 483 141 211
3 483 211 208
3 483 208 481
3 481 208 800
3 481 800 138
3 138 800 137
3 137 800 601
3 601 800 208
3 601 208 608
3 601 608 599
3 599 608 604
3 599 604 597
3 597 604 188
3 597 188 189
3 597 189 192
3 144 153 143
3 143 153 212
3 212 153 214
3 801 802 803
3 801 803 804
3 803 802 806
3 803 806 807
3 803 807 808
3 804 803 808
3 804 808 809
3 802 805 806
3 806 805 811
3 806 811 812
3 807 806 812
3 805 810 811
3 811 810 814
3 810 813 814
3 814 813 217
3 814 217 185
3 814 185 186
3 814 186 607
3 814 607 812
3 814 812 811
3 812 607 611
3 812 611 807
3 807 611 808
3 808 611 207
3 808 207 809
3 809 207 215
3 809 215 155
3 809 155 804
3 804 155 156
3 804 156 801
3 801 156 229
3 801 229 636
3 801 636 802
3 802 636 226
3 802 226 805
3 805 226 223
3 805 223 810
3 810 223 220
3 810 220 813
3 813 220 217
3 159 230 158
3 815 816 817
3 815 817 818
3 815 818 819
3 815 819 820
3 815 820 821
3 815 821 816
3 817 816 822
3 820 819 823
3 820 823 824
3 820 824 825
3 821 820 825
3 821 825 826
3 824 823 827
3 824 827 238
3 824 238 825
3 825 238 649
3 825 649 826
3 826 649 235
3 826 235 821
3 821 235 645
3 821 645 816
3 816 645 822
3 822 645 232
3 822 232 227
3 822 227 639
3 822 639 817
3 817 639 228
3 817 228 818
3 818 228 161
3 818 161 511
3 818 511 819
3 819 511 514
3 819 514 823
3 823 514 517
3 823 517 827
3 827 517 162
3 827 162 238
3 828 830 831
3 828 831 832
3 829 828 832
3 829 832 833
3 830 835 836
3 831 830 836
3 831 836 837
3 832 831 837
3 832 837 838
3 833 832 838
3 834 839 840
3 835 834 840
3 835 840 841
3 836 835 841
3 837 836 841
3 837 841 842
3 838 837 842
3 838 842 843
3 840 839 844
3 840 844 845
3 841 840 845
3 842 841 845
3 842 845 846
3 843 842 846
3 845 844 847
3 846 845 847
3 846 847 247
3 846 247 244
3 846 244 843
3 843 244 656
3 843 656 838
3 838 656 241
3 838 241 833
3 833 241 653
3 833 653 829
3 829 653 239
3 829 239 828
3 828 239 164
3 828 164 830
3 830 164 524
3 830 524 834
3 830 834 835
3 834 524 165
3 834 165 839
3 839 165 173
3 839 173 174
3 839 174 844
3 844 174 177
3 844 177 847
3 847 177 247
3 168 171 167
3 180 218 666
3 180 666 663
3 180 663 547
3 547 663 250
3 547 250 544
3 544 250 248
3 544 248 179
3 666 218 219
3 183 216 849
3 183 849 552
3 552 849 550
3 550 849 848
3 550 848 182
3 182 848 216
3 216 848 849
3 578 201 851
3 578 851 198
3 198 851 572
3 572 851 850
3 572 850 570
3 570 850 568
3 568 850 851
3 568 851 201
3 568 201 197
3 210 213 209
3 853 856 857
3 852 853 857
3 852 857 854
3 852 854 855
3 855 854 859
3 855 859 860
3 856 861 862
3 857 856 862
3 857 862 863
3 854 857 863
3 854 863 858
3 854 858 859
3 859 858 865
3 861 866 867
3 862 861 867
3 862 867 868
3 863 862 868
3 858 863 868
3 858 868 864
3 858 864 865
3 865 864 869
3 865 869 870
3 867 866 871
3 867 871 872
3 868 867 872
3 869 868 872
3 864 868 869
3 870 869 873
3 872 871 874
3 873 872 874
3 869 872 873
3 873 874 251
3 873 251 665
3 873 665 870
3 870 665 668
3 870 668 865
3 865 668 860
3 865 860 859
3 860 668 221
3 860 221 222
3 860 222 855
3 855 222 233
3 855 233 647
3 855 647 852
3 852 647 853
3 853 647 234
3 853 234 856
3 856 234 670
3 856 670 861
3 861 670 242
3 861 242 866
3 866 242 658
3 866 658 871
3 871 658 243
3 871 243 874
3 874 243 251
3 225 231 224
3 654 240 671
3 654 671 875
3 654 875 650
3 654 650 237
3 650 875 671
3 650 671 236
3 246 249 245
3 876 877 878
3 876 878 681
3 876 681 683
3 876 683 685
3 876 685 877
3 877 685 687
3 877 687 253
3 877 253 878
3 878 253 679
3 878 679 681
