ply
format ascii 1.0
comment Generated by PyMesh
element vertex 727
property float x
property float y
property float z
property float nx
property float ny
property float nz
element face 1450
property list uchar int vertex_indices
end_header
6.928 -45.75 52.674 -0.627 -0.447 -0.638
7.085 -45.718 52.459 -0.732 -0.468 -0.495
7.485 -46.466 51.797 -0.998 0.03 -0.054
6.881 -45.353 54.395 -0.834 -0.285 0.473
6.769 -45.466 54.18 -0.759 -0.21 0.616
7.089 -45.651 55.43 -0.972 -0.086 -0.218
7.437 -46.347 55.217 -0.723 -0.583 -0.37
7.09 -46.106 53.983 -0.492 -0.744 0.453
7.294 -46.176 54.143 -0.628 -0.697 0.346
7.368 -46.321 53.937 -0.59 -0.769 0.243
7.148 -46.219 53.823 -0.444 -0.837 0.319
7.662 -47.592 53.383 -0.786 0.078 0.613
7.399 -47.187 52.141 -0.941 0.316 -0.118
6.927 -45.88 52.784 -0.627 -0.555 -0.546
7.484 -46.633 51.939 -0.998 -0.053 0.017
7.609 -47.549 51.377 -0.817 0.103 -0.567
7.711 -47.023 51.118 -0.885 -0.248 -0.394
7.645 -48.028 51.035 -0.841 0.422 -0.339
8.163 -48.005 50.337 -0.582 0.434 -0.688
8.229 -46.999 50.419 -0.626 -0.237 -0.743
8.61 -46.989 49.915 -0.88 -0.244 -0.407
8.654 -45.807 49.973 -0.859 0.347 -0.377
8.273 -45.817 50.478 -0.604 0.354 -0.714
8.528 -44.938 50.29 -0.774 -0.232 -0.589
8.178 -44.71 50.885 -0.949 -0.118 -0.292
7.923 -45.589 51.072 -0.779 0.468 -0.416
7.523 -44.842 51.734 -0.513 -0.03 -0.858
8.294 -43.626 51.143 -0.891 0.424 -0.162
7.64 -43.758 51.992 -0.455 0.512 -0.729
7.695 -43.181 52.191 -0.492 0.128 -0.861
7.025 -43.203 53.694 -0.971 0.112 0.212
6.846 -43.784 53.771 -0.852 0.499 0.161
7.047 -42.909 54.23 -0.986 -0.084 -0.145
7.281 -43.469 55.193 -0.869 -0.364 0.336
7.08 -44.343 54.734 -0.734 0.219 0.642
7.257 -44.799 55.717 -0.852 0.523 -0.013
7.67 -43.235 55.913 -0.674 -0.247 0.696
7.585 -44.601 56.325 -0.618 0.664 0.421
7.81 -44.529 56.692 -0.768 0.616 0.176
9.297 -46.291 56.752 0.471 -0.853 0.225
9.2 -46.516 56.389 0.536 -0.703 0.467
9.72 -46.509 56.069 0.189 -0.708 0.681
8.859 -46.991 55.117 -0.241 -0.949 0.205
8.473 -46.923 55.585 0.016 -0.994 -0.107
8.733 -48.091 53.979 -0.157 -0.216 0.964
7.785 -47.627 53.527 -0.714 0.057 0.698
7.612 -46.502 55.174 -0.599 -0.694 -0.401
7.5 -46.359 54.092 -0.524 -0.789 0.321
9.931 -46.988 54.959 0.295 -0.947 0.126
9.73 -48.088 53.832 0.43 -0.214 0.877
10.165 -46.957 54.833 0.139 -0.968 0.21
10.617 -46.822 54.515 0.516 -0.855 -0.055
10.27 -47.926 53.452 0.748 -0.119 0.653
10.507 -48.433 53.266 0.59 0.219 0.777
10.655 -46.795 54.477 0.547 -0.833 -0.086
10.555 -48.399 53.218 0.614 0.237 0.753
10.621 -47.393 53.301 0.57 -0.434 0.698
11.147 -47.372 52.618 0.833 -0.423 0.357
11.081 -48.377 52.535 0.877 0.247 0.412
11.529 -47.361 52.114 0.579 -0.43 0.693
11.541 -47.375 52.095 0.585 -0.437 0.683
11.094 -48.391 52.516 0.883 0.241 0.402
11.675 -47.934 51.821 0.496 -0.064 0.866
11.838 -48.704 51.453 0.578 -0.448 0.682
11.258 -49.16 52.148 0.965 -0.144 0.218
11.499 -49.164 51.609 0.804 -0.142 0.577
8.795 -48.809 49.584 -0.787 0.067 -0.614
8.349 -48.778 49.97 -0.489 0.047 -0.871
8.929 -48.322 49.275 -0.876 -0.257 -0.407
8.752 -47.557 49.628 -0.965 0.125 -0.23
8.171 -48.014 50.324 -0.578 0.429 -0.694
8.619 -46.998 49.902 -0.876 -0.248 -0.413
10.048 -46.715 48.538 -0.317 0.546 -0.776
9.915 -46.156 48.812 -0.228 0.173 -0.958
10.471 -46.824 48.138 -0.599 0.618 -0.509
10.743 -46.611 48.145 -0.439 0.743 -0.505
10.207 -45.927 48.819 -0.082 0.287 -0.954
10.373 -45.363 48.854 -0.192 -0.089 -0.977
9.385 -45.012 49.455 -0.773 0.117 -0.624
9.145 -45.55 49.466 -0.613 0.475 -0.631
9.019 -44.681 49.783 -0.529 -0.104 -0.842
10.681 -43.895 49.439 -0.01 0.774 -0.633
10.413 -43.48 49.766 0.169 0.497 -0.851
10.9 -41.763 49.608 -0.156 -0.647 -0.746
10.129 -41.479 49.882 -0.707 -0.444 -0.55
9.5 -43.144 50.09 -0.288 0.665 -0.689
8.894 -41.307 50.288 0.116 -0.559 -0.821
7.919 -41.633 51.169 -0.581 -0.791 -0.192
8.346 -43.529 51.132 -0.865 0.473 -0.168
7.739 -43.099 52.182 -0.461 0.186 -0.868
7.56 -40.973 52.06 -0.837 -0.32 0.444
7.38 -42.439 53.073 -0.717 0.658 -0.231
7.468 -42.005 53.495 -0.775 0.368 -0.513
7.612 -40.684 52.263 -0.8 -0.113 0.589
7.529 -41.663 53.736 -0.745 0.539 -0.393
7.828 -41.106 53.573 -0.944 0.168 -0.284
8.138 -40.8 55.19 -0.789 0.321 0.524
7.84 -41.357 55.353 -0.59 0.692 0.416
7.741 -41.52 55.541 -0.524 0.801 0.29
7.616 -42.974 55.986 -0.627 -0.411 0.661
7.68 -43.227 55.925 -0.67 -0.243 0.702
7.818 -44.523 56.702 -0.762 0.621 0.184
7.99 -42.785 56.289 -0.316 -0.254 0.914
8.192 -44.334 57.005 -0.45 0.779 0.437
8.866 -43.419 57.058 -0.9 0.169 0.402
9.639 -44.093 57.732 -0.348 -0.313 0.884
8.903 -44.954 57.626 0.143 0.262 0.955
9.919 -44.422 57.798 -0.534 -0.093 0.84
10.6 -45.482 57.049 0.033 -0.976 0.216
9.585 -46.014 56.877 0.71 -0.621 0.33
10.089 -46.152 56.23 0.374 -0.529 0.762
11.391 -45.105 56.445 0.692 -0.662 -0.288
11.106 -45.668 55.453 0.882 -0.287 0.373
11.38 -45.103 55.613 0.699 -0.663 0.267
11.499 -44.772 54.241 0.759 -0.498 -0.42
11.225 -45.337 54.081 0.942 -0.121 -0.313
11.54 -45.071 52.693 0.732 -0.299 0.612
11.477 -45.294 52.636 0.701 -0.41 0.584
11.162 -45.559 54.024 0.911 -0.233 -0.341
11.222 -46.173 52.823 0.871 0.176 0.459
11.207 -46.309 52.892 0.863 0.109 0.493
11.147 -45.695 54.093 0.903 -0.3 -0.307
11.111 -45.951 54.159 0.927 -0.13 -0.351
11.526 -45.326 52.55 0.725 -0.426 0.541
11.271 -46.206 52.737 0.895 0.16 0.416
11.653 -46.195 52.232 0.641 0.153 0.752
11.921 -45.058 51.972 0.923 -0.292 0.252
12.048 -45.927 51.655 0.838 0.287 0.463
12.084 -45.362 51.49 0.814 -0.089 0.573
12.339 -45.619 50.332 0.965 -0.24 -0.108
12.323 -46.202 50.409 0.976 0.149 -0.159
12.71 -46.867 49.623 0.718 0.593 0.365
12.753 -47.119 49.852 0.744 0.444 0.5
12.37 -46.473 50.656 0.999 0.014 -0.036
12.503 -47.033 50.382 0.91 0.387 0.146
12.237 -49.279 49.604 0.44 -0.826 0.353
11.947 -49.356 50.115 0.633 -0.774 0.013
12.21 -49.472 49.305 0.458 -0.697 0.553
12.179 -49.497 49.298 0.431 -0.718 0.547
11.907 -49.388 50.106 0.612 -0.79 0.008
11.563 -49.8 50.357 0.842 -0.516 -0.159
10.759 -49.312 48.232 -0.752 -0.564 -0.342
9.866 -49.579 49.082 -0.157 -0.386 -0.909
10.081 -49.15 48.735 -0.3 -0.672 -0.677
10.748 -49.281 48.207 -0.761 -0.538 -0.363
10.067 -49.111 48.702 -0.307 -0.652 -0.693
10.489 -49.051 48.291 -0.588 -0.692 -0.419
12.34 -45.583 50.27 0.965 -0.219 -0.144
12.71 -46.832 49.562 0.718 0.613 0.329
12.699 -46.604 49.288 0.725 0.461 0.511
11.106 -46.397 48.091 -0.603 0.633 -0.486
10.805 -46.585 48.132 -0.402 0.759 -0.513
10.435 -45.337 48.84 -0.155 -0.074 -0.985
11.753 -43.641 50.766 0.839 0.417 -0.351
11.927 -44.045 50.368 0.722 0.686 -0.086
12.032 -41.899 50.453 0.652 -0.744 -0.142
11.732 -43.402 51.798 0.828 0.536 0.165
12.014 -41.697 51.324 0.64 -0.6 0.48
11.648 -42.053 52.487 0.884 -0.363 -0.295
11.796 -41.447 52.719 0.989 0.069 -0.13
12.162 -41.092 51.556 0.745 -0.168 0.646
11.881 -40.924 52.18 0.932 -0.28 0.229
11.957 -40.037 51.895 0.974 0.213 0.071
12.229 -40.306 51.304 0.793 0.393 0.465
11.966 -39.41 52.219 0.968 -0.205 -0.145
11.108 -38.63 51.21 0.355 0.352 -0.866
11.371 -39.527 50.294 0.18 0.95 -0.256
10.987 -39.156 50.754 0.436 0.703 -0.563
9.681 -40.144 50.067 -0.29 0.154 -0.944
10.214 -40.401 49.686 -0.646 0.326 -0.69
8.98 -40.229 50.092 0.177 0.211 -0.961
9.312 -38.92 51.329 -0.495 0.834 -0.243
8.653 -39.146 51.209 -0.056 0.985 -0.163
9.625 -38.421 51.718 -0.704 0.502 -0.503
9.315 -38.784 52.828 -0.926 0.242 0.29
8.343 -39.509 52.319 -0.278 0.726 0.629
8.556 -39.703 53.719 -0.42 0.855 -0.304
7.927 -40.546 53.732 -0.944 0.152 -0.293
7.66 -40.425 52.333 -0.766 0.072 0.639
7.885 -40.799 53.656 -0.915 0.321 -0.243
8.968 -39.545 54.257 -0.076 0.987 0.144
9.223 -39.512 54.33 -0.246 0.965 0.095
9.763 -38.612 53.412 -0.606 0.365 0.707
11.758 -39.718 52.96 0.82 -0.425 0.384
11.586 -40.821 53.795 0.935 0.31 -0.173
11.722 -40.385 52.732 0.844 0.02 0.536
11.727 -40.403 52.725 0.846 0.01 0.532
11.59 -40.839 53.788 0.937 0.301 -0.176
11.659 -40.986 53.201 0.891 0.399 0.215
11.685 -41.969 53.297 0.91 -0.303 0.284
11.621 -42.002 53.902 0.952 -0.281 -0.12
11.844 -43.12 54.28 0.804 0.465 -0.372
11.843 -42.973 54.845 0.803 0.587 0.099
11.62 -41.813 54.629 0.952 -0.186 0.244
11.733 -42.814 55.031 0.876 0.481 -0.024
11.599 -42.661 55.45 0.809 0.558 0.185
11.485 -41.66 55.048 0.885 -0.109 0.453
11.439 -41.474 55.234 0.915 -0.233 0.329
10.394 -41.093 56.034 0.045 0.085 0.995
10.142 -41.169 56.076 0.213 0.136 0.968
10.288 -42.357 56.993 0.116 0.927 0.356
9.729 -42.423 57.029 -0.283 0.88 0.381
9.481 -41.248 56.118 -0.118 0.097 0.988
9.182 -41.805 56.281 0.082 0.468 0.88
8.407 -41.486 55.952 -0.306 0.628 0.715
8.705 -40.928 55.789 -0.505 0.256 0.824
8.182 -41.62 56.007 -0.156 0.717 0.679
8.566 -42.271 56.411 -0.227 0.236 0.945
8.305 -42.23 56.364 -0.053 0.209 0.977
9.209 -42.816 57.139 -0.655 0.599 0.46
11.167 -41.394 55.687 0.689 -0.166 0.706
11.127 -42.684 56.616 0.715 0.694 0.086
11.249 -42.558 56.032 0.634 0.609 0.476
11.675 -43.36 56.057 0.847 0.208 0.489
11.488 -43.362 56.638 0.973 0.209 0.102
11.621 -43.75 56.79 0.884 0.468 0
11.738 -44.33 54.201 0.716 -0.544 -0.438
11.599 -44.559 54.202 0.809 -0.391 -0.439
11.64 -44.858 52.654 0.782 -0.192 0.593
11.768 -43.405 53.967 0.741 0.228 -0.632
11.677 -43.668 52.354 0.801 0.403 0.443
11.602 -42.277 52.957 0.851 -0.524 0.041
7.772 -49.969 52.328 -0.777 -0.549 0.308
7.917 -50.187 52.383 -0.874 -0.403 0.272
6.605 -45.107 52.918 -0.896 0.09 -0.435
6.67 -44.891 52.773 -0.939 -0.054 -0.339
6.527 -44.966 53.66 -0.961 0.207 0.184
6.57 -44.71 53.728 -0.99 0.036 0.139
7.072 -45.534 54.772 -0.961 -0.164 0.221
7.364 -46.117 54.593 -0.675 -0.737 0.046
7.555 -46.813 53.489 -0.715 -0.442 0.542
6.905 -46.121 53.308 -0.646 -0.756 -0.11
7.334 -46.723 53.021 -0.932 -0.354 0.082
7.372 -47.475 52.767 -0.957 0.147 0.251
7.354 -46.504 52.544 -0.912 -0.139 -0.386
7.33 -46.21 52.402 -0.896 -0.335 -0.292
7.331 -46.076 52.289 -0.895 -0.23 -0.381
8.177 -46.403 50.393 -0.652 0.062 -0.756
8.559 -46.392 49.889 -0.906 0.054 -0.42
7.616 -46.027 51.382 -0.932 0.249 -0.262
7.217 -45.28 52.044 -0.666 -0.249 -0.703
7.122 -43.801 52.449 -0.713 0.491 -0.501
7.258 -43.218 52.577 -0.804 0.102 -0.586
6.841 -43.81 53.08 -0.854 0.486 -0.185
7.02 -43.225 53.11 -0.974 0.096 -0.205
6.879 -44.057 54.277 -0.835 0.363 0.414
7.08 -43.183 54.736 -0.969 -0.22 0.108
7.446 -44.15 55.422 -0.979 0.091 0.184
7.761 -43.961 56.004 -0.735 0.237 0.635
7.404 -45.186 56.599 -0.747 0.247 0.617
7.644 -45.067 56.945 -0.907 0.168 0.387
7.549 -45.818 56.767 -0.644 -0.205 0.737
7.777 -45.649 57.1 -0.796 -0.318 0.516
7.981 -46.33 56.785 -0.335 -0.571 0.75
8.175 -46.121 57.116 -0.464 -0.71 0.529
8.585 -46.585 56.646 0.097 -0.753 0.651
8.731 -46.356 56.988 -0.001 -0.906 0.423
8.896 -46.833 55.991 0.319 -0.93 0.183
9.36 -46.885 55.597 0.01 -0.895 0.445
8.588 -47.02 54.878 -0.06 -0.929 0.365
8.682 -47.442 54.297 -0.123 -0.648 0.752
7.966 -46.716 54.581 -0.835 -0.551 -0.005
8.028 -47.123 53.985 -0.877 -0.279 0.392
7.768 -46.919 53.707 -0.703 -0.415 0.578
7.654 -46.887 53.573 -0.781 -0.392 0.486
8.849 -47.385 54.392 -0.234 -0.686 0.689
9.733 -47.383 54.261 0.427 -0.684 0.591
9.873 -47.368 54.191 0.334 -0.694 0.638
10.279 -47.247 53.905 0.742 -0.571 0.351
9.794 -48.229 53.757 0.467 -0.297 0.833
9.994 -48.759 53.594 0.334 0.056 0.941
9.203 -48.455 53.862 0.12 -0.43 0.895
9.359 -49.003 53.707 0.016 -0.065 0.998
8.582 -48.573 53.753 -0.246 -0.5 0.831
8.691 -49.13 53.59 -0.318 -0.129 0.939
8.019 -48.566 53.446 -0.577 -0.495 0.65
8.085 -49.121 53.26 -0.621 -0.125 0.774
7.594 -48.434 52.983 -0.826 -0.417 0.378
7.628 -48.979 52.762 -0.849 -0.054 0.525
7.368 -48.196 52.432 -0.959 -0.278 0.053
7.386 -48.724 52.169 -0.971 0.074 0.229
7.374 -47.886 51.87 -0.956 -0.096 -0.277
7.391 -48.391 51.565 -0.968 0.241 -0.074
10.274 -47.766 53.489 0.745 -0.225 0.628
10.315 -47.181 53.942 0.718 -0.615 0.326
10.306 -47.744 53.458 0.78 -0.2 0.593
10.342 -47.162 53.915 0.756 -0.588 0.289
11.208 -47.857 52.251 0.793 -0.099 0.601
11.22 -47.87 52.233 0.8 -0.107 0.591
11.06 -49.818 52.032 0.866 -0.473 0.16
11.315 -49.775 51.502 0.696 -0.501 0.514
10.68 -50.343 51.775 0.677 -0.736 0.032
10.963 -50.264 51.263 0.489 -0.789 0.373
10.175 -50.659 51.415 0.424 -0.893 -0.149
10.492 -50.557 50.927 0.212 -0.961 0.176
9.616 -50.719 51.002 0.144 -0.924 -0.355
9.973 -50.613 50.544 -0.094 -0.994 -0.049
9.085 -50.516 50.599 -0.121 -0.822 -0.557
9.48 -50.424 50.169 -0.384 -0.883 -0.27
8.66 -50.078 50.263 -0.333 -0.603 -0.725
9.084 -50.017 49.856 -0.616 -0.644 -0.454
8.402 -49.469 50.042 -0.462 -0.299 -0.835
8.845 -49.451 49.652 -0.757 -0.311 -0.574
8.492 -47.518 50.187 -0.792 0.098 -0.603
8.484 -47.509 50.199 -0.796 0.103 -0.596
8.891 -46.685 49.395 -0.74 -0.092 -0.666
9.025 -47.245 49.121 -0.829 0.281 -0.484
9.34 -46.393 49.018 -0.515 0.054 -0.855
9.473 -46.953 48.744 -0.604 0.427 -0.673
9.614 -45.739 49.041 -0.379 0.381 -0.844
9.821 -45.188 49.06 -0.517 0.013 -0.856
9.371 -44.173 49.621 -0.352 0.15 -0.924
9.713 -44.54 49.304 -0.58 0.395 -0.712
9.856 -43.756 49.614 -0.11 0.359 -0.927
10.163 -44.152 49.298 -0.315 0.623 -0.716
10.568 -42.901 49.976 0.065 0.111 -0.992
10.741 -42.293 49.92 -0.05 -0.294 -0.954
9.866 -42.643 50.226 -0.532 0.331 -0.779
10.089 -42.052 50.152 -0.68 -0.062 -0.73
9.342 -42.577 50.467 -0.182 0.288 -0.94
9.124 -41.918 50.538 -0.037 -0.152 -0.988
8.765 -43.391 50.415 -0.656 0.541 -0.526
8.811 -42.756 50.702 -0.687 0.118 -0.717
8.635 -42.083 50.755 -0.569 -0.331 -0.753
8.273 -41.517 50.563 -0.328 -0.708 -0.625
8.509 -42.855 51.219 -0.974 0.024 -0.226
8.356 -42.174 51.232 -0.872 -0.43 -0.234
8.149 -43.367 51.74 -0.734 0.365 -0.573
8.106 -43.448 51.749 -0.765 0.305 -0.567
7.968 -42.527 52.029 -0.613 -0.195 -0.766
8.032 -42.007 51.669 -0.656 -0.542 -0.526
7.693 -42.021 52.711 -0.925 0.379 0.01
7.757 -41.501 52.352 -0.968 0.032 0.249
7.754 -41.679 53.042 -0.966 0.151 -0.211
7.786 -41.314 52.534 -0.987 -0.092 0.128
7.801 -41.414 53.229 -0.926 0.374 -0.055
7.83 -41.068 52.707 -0.946 0.142 0.293
7.486 -41.481 54.279 -0.767 0.63 -0.121
7.784 -40.923 54.116 -0.966 0.259 -0.012
7.592 -41.376 54.834 -0.713 0.683 0.157
7.891 -40.818 54.671 -0.913 0.311 0.265
7.124 -42.412 55.07 -0.947 0.165 0.274
7.184 -42.34 55.321 -0.987 0.117 0.107
7.92 -43.92 56.208 -0.83 0.219 0.513
7.912 -43.926 56.199 -0.836 0.214 0.505
7.955 -44.052 56.347 -0.853 0.307 0.421
7.884 -43.506 56.094 -0.806 -0.056 0.589
8.238 -43.909 56.576 -0.481 0.496 0.723
8.167 -43.363 56.324 -0.434 0.132 0.891
8.611 -43.934 56.981 -0.73 0.512 0.453
8.485 -44.591 57.44 -0.206 0.564 0.799
8.888 -44.177 57.392 -0.475 0.288 0.832
9.185 -43.698 57.53 -0.672 -0.031 0.739
9.283 -44.52 57.568 -0.111 -0.027 0.993
9.436 -44.699 57.599 -0.212 0.092 0.973
9.279 -45.627 57.487 0.456 -0.299 0.838
9.772 -45.301 57.474 0.127 -0.517 0.847
10.295 -45.095 57.658 -0.221 -0.654 0.724
10.045 -45.647 56.929 0.403 -0.866 0.296
10.318 -45.719 56.576 0.221 -0.818 0.531
10.672 -46.052 55.851 0.666 -0.479 0.572
10.793 -45.638 56.267 0.585 -0.755 0.295
11.054 -45.404 56.754 0.411 -0.911 -0.03
11.146 -45.325 55.943 0.856 -0.515 0.046
11.285 -45.56 54.764 0.972 -0.233 0.028
11.56 -44.995 54.924 0.789 -0.609 -0.078
11.204 -45.159 53.355 0.956 -0.24 0.171
11.148 -45.358 53.304 0.92 -0.367 0.139
11.032 -45.861 53.413 0.997 -0.032 0.066
11.018 -45.985 53.476 0.989 -0.107 0.104
11.162 -45.851 55.039 0.911 -0.378 0.166
11.123 -46.072 54.896 0.937 -0.23 0.262
10.572 -46.479 55.46 0.615 -0.692 0.377
10.663 -46.561 55.223 0.554 -0.638 0.535
11.006 -46.128 53.513 0.997 -0.012 0.079
10.542 -46.986 53.837 0.622 -0.705 0.341
11.281 -46.802 52.732 0.9 -0.138 0.413
11.663 -46.791 52.227 0.646 -0.145 0.75
12.299 -46.088 51.063 0.964 0.206 0.167
12.317 -45.513 50.939 0.952 -0.177 0.25
12.287 -46.774 51.231 0.958 -0.137 0.251
12.421 -47.334 50.957 0.869 0.237 0.434
12.001 -47.086 51.729 0.815 -0.293 0.5
12.134 -47.646 51.455 0.726 0.08 0.683
12.63 -47.658 50.516 0.974 0.074 0.213
12.872 -47.701 49.977 0.813 0.103 0.573
12.571 -48.308 50.513 0.945 -0.25 0.212
12.817 -48.304 49.974 0.781 -0.253 0.571
12.334 -48.898 50.373 0.826 -0.546 0.142
12.596 -48.854 49.844 0.651 -0.576 0.495
12.022 -49.102 50.815 0.67 -0.647 0.363
11.67 -49.534 51.017 0.905 -0.359 0.229
11.773 -49.554 49.798 0.702 -0.68 0.214
11.027 -50.167 49.891 0.526 -0.732 -0.433
11.333 -49.855 49.416 0.322 -0.94 -0.117
11.73 -49.804 48.908 0.057 -0.973 0.222
10.39 -50.084 49.413 0.152 -0.683 -0.714
10.812 -49.787 49.024 -0.129 -0.881 -0.455
11.198 -49.735 48.509 -0.386 -0.916 -0.111
10.382 -49.373 48.753 -0.501 -0.523 -0.69
9.252 -49.218 49.204 -0.518 -0.174 -0.838
9.421 -48.762 48.865 -0.63 -0.478 -0.612
9.795 -48.568 48.466 -0.443 -0.381 -0.812
10.236 -48.546 48.071 -0.737 -0.395 -0.548
9.697 -47.934 48.353 -0.493 -0.064 -0.868
10.144 -47.957 47.966 -0.791 -0.048 -0.61
9.785 -47.289 48.378 -0.449 0.259 -0.855
10.226 -47.358 47.989 -0.743 0.304 -0.596
10.861 -48.652 47.628 -0.369 -0.457 -0.809
11.059 -48.948 47.652 -0.502 -0.26 -0.825
11.63 -48.361 47.38 0.083 -0.286 -0.955
11.702 -48.704 47.445 0.034 -0.057 -0.998
12.439 -48.312 47.663 0.559 -0.257 -0.788
12.379 -48.663 47.681 0.599 -0.023 -0.801
12.914 -48.528 48.345 0.838 -0.384 -0.387
12.776 -48.844 48.252 0.93 -0.174 -0.325
12.834 -48.909 49.11 0.791 -0.608 0.063
12.71 -49.163 48.892 0.874 -0.439 0.208
12.335 -46.283 49.949 0.968 0.203 0.148
12.335 -46.252 49.895 0.968 0.227 0.106
12.697 -46.724 49.42 0.727 0.541 0.423
13.072 -47.255 49.013 0.931 0.365 0.006
13.027 -47.109 48.92 0.961 0.267 0.068
13.002 -46.958 48.828 0.978 0.166 0.129
12.999 -47.551 48.292 0.888 0.191 -0.418
12.96 -47.379 48.263 0.914 0.076 -0.399
12.941 -47.205 48.226 0.927 -0.04 -0.373
12.519 -47.605 47.678 0.606 0.159 -0.78
12.523 -47.428 47.703 0.603 0.041 -0.797
12.54 -47.25 47.711 0.592 -0.078 -0.802
11.816 -47.397 47.405 0.193 0.281 -0.94
11.882 -47.239 47.454 0.148 0.175 -0.973
11.952 -47.077 47.483 0.102 0.067 -0.993
11.161 -47.008 47.578 -0.193 0.51 -0.838
11.285 -46.884 47.612 -0.276 0.427 -0.861
11.404 -46.751 47.628 -0.355 0.339 -0.872
10.961 -46.499 48.117 -0.506 0.701 -0.503
10.683 -46.038 48.655 -0.321 0.394 -0.861
10.629 -46.061 48.666 -0.363 0.376 -0.853
10.853 -45.928 48.626 -0.434 0.32 -0.842
11.078 -44.993 48.872 0.223 0.128 -0.966
11.353 -45.661 48.651 0.039 0.573 -0.819
11.644 -46.11 48.118 -0.154 0.873 -0.464
11.729 -44.92 49.194 0.606 0.171 -0.777
11.86 -45.603 48.901 0.518 0.627 -0.582
12.188 -46.049 48.387 0.299 0.924 -0.239
12.195 -45.138 49.711 0.88 0.043 -0.473
12.223 -45.773 49.303 0.861 0.466 -0.201
12.578 -46.231 48.819 0.624 0.772 0.121
12.335 -46.12 49.739 0.968 0.139 0.21
12.22 -44.857 51.188 0.894 0.208 0.396
12.068 -44.514 51.647 0.996 -0.02 0.089
12.165 -44.398 50.797 0.862 0.478 0.166
12.009 -44.021 51.227 0.967 0.227 -0.12
11.62 -43.54 50.443 0.927 0.35 -0.136
11.533 -42.953 50.485 0.986 -0.042 -0.164
11.677 -42.376 50.488 0.889 -0.427 -0.166
11.492 -43.98 49.651 0.466 0.724 -0.508
11.324 -43.496 49.954 0.578 0.401 -0.71
11.292 -42.917 50.089 0.599 0.015 -0.8
11.402 -42.335 50.035 0.526 -0.373 -0.764
11.637 -41.84 49.801 0.37 -0.702 -0.608
10.772 -43.438 49.809 -0.07 0.469 -0.88
10.845 -42.871 49.972 -0.119 0.091 -0.989
10.89 -42.281 49.901 -0.15 -0.302 -0.941
11.698 -42.408 50.635 0.875 -0.405 -0.264
11.599 -43.025 50.746 0.941 0.006 -0.338
11.683 -42.237 51.371 0.861 -0.241 0.449
11.583 -42.841 51.539 0.927 0.162 0.337
11.713 -41.8 51.891 0.841 -0.532 0.102
11.844 -41.262 52.097 0.957 -0.055 0.285
11.951 -39.874 51.735 0.978 0.105 0.178
12.011 -39.78 50.725 0.637 0.769 0.052
11.758 -39.41 51.225 0.805 0.523 -0.281
11.748 -38.883 51.641 0.812 0.171 -0.558
11.195 -39.187 50.845 0.297 0.723 -0.623
10.72 -39.776 49.857 -0.285 0.772 -0.568
10.252 -39.437 50.26 0.027 0.547 -0.837
9.636 -40.36 50.027 -0.261 0.298 -0.918
9.561 -41.309 50.2 -0.329 -0.558 -0.762
8.841 -39.507 50.483 0.078 0.727 -0.682
9.524 -39.328 50.508 -0.377 0.607 -0.699
9.203 -38.909 51.52 -0.423 0.827 -0.371
8.402 -39.207 51.777 -0.236 0.941 0.242
8.982 -38.963 52.019 -0.623 0.778 0.08
9.374 -38.482 52.286 -0.884 0.458 -0.097
8.931 -39.228 52.496 -0.67 0.539 0.511
8.521 -39.769 52.986 -0.397 0.899 0.185
7.97 -40.509 52.997 -0.972 0.127 0.197
7.935 -40.65 52.956 -0.949 0.222 0.224
7.889 -40.9 52.888 -0.985 0.031 0.172
7.951 -40.658 54.661 -0.883 0.391 0.26
7.978 -40.437 54.514 -0.901 0.244 0.358
8.64 -39.996 55.008 -0.538 0.723 0.434
8.514 -39.921 54.784 -0.455 0.673 0.583
9.576 -39.191 53.793 -0.481 0.751 0.453
9.968 -39.534 54.688 0.126 0.954 0.274
10.182 -39.209 54.085 -0.018 0.737 0.676
10.391 -38.631 53.714 -0.157 0.352 0.923
10.742 -39.82 54.706 0.513 0.811 0.282
10.814 -39.442 54.099 0.465 0.559 0.687
11.046 -38.872 53.729 0.311 0.179 0.934
11.336 -40.292 54.378 0.81 0.575 0.119
11.298 -39.827 53.832 0.835 0.265 0.483
11.547 -39.271 53.452 0.669 -0.106 0.736
11.502 -40.258 53.357 0.991 -0.065 0.119
11.542 -40.624 53.241 0.964 0.179 0.197
11.546 -40.64 53.235 0.967 0.169 0.193
11.612 -42.574 54.125 0.958 0.1 -0.268
11.611 -42.42 54.713 0.958 0.219 0.187
11.507 -40.756 54.71 0.895 0.343 0.285
11.456 -40.771 54.972 0.929 0.353 0.11
10.889 -40.084 55.026 0.586 0.678 0.443
10.976 -40.249 55.218 0.529 0.788 0.315
10.222 -40.287 55.694 0.253 0.577 0.776
10.457 -40.407 55.737 0.096 0.657 0.748
10.176 -41.888 56.379 0.19 0.615 0.765
9.652 -41.95 56.412 -0.232 0.565 0.792
8.818 -42.593 56.628 -0.395 0.45 0.801
8.533 -43.095 56.56 -0.678 -0.047 0.734
8.938 -42.592 56.694 -0.475 0.45 0.757
9.467 -42.192 56.582 -0.109 0.726 0.679
10.32 -41.861 56.332 0.094 0.597 0.797
10.959 -42.11 56.045 0.828 0.311 0.467
11.228 -43.254 57.259 0.787 0.287 0.546
11.382 -43.65 57.363 0.685 0.551 0.477
10.739 -43.37 57.721 0.438 0.204 0.876
10.932 -43.757 57.787 0.31 0.462 0.831
10.156 -43.678 57.894 0.021 -0.016 1
10.395 -44.04 57.947 -0.138 0.226 0.964
11.741 -44.202 56.608 0.984 0.091 -0.152
11.83 -43.942 55.823 0.925 -0.083 0.372
11.66 -44.683 56.486 0.916 -0.31 -0.254
11.726 -44.56 55.666 0.872 -0.391 0.293
11.115 -42.007 55.776 0.723 0.242 0.646
11.398 -42.091 55.306 0.943 0.178 0.281
11.958 -44.017 55.265 0.988 -0.12 0.092
12.018 -43.909 55.027 0.949 -0.192 0.251
11.41 -44.632 53.408 0.935 -0.343 0.091
11.323 -44.817 53.441 0.876 -0.468 0.113
11.472 -44.488 53.405 0.894 -0.439 0.093
11.499 -43.628 53.188 0.92 0.376 -0.113
11.443 -42.958 52.598 0.957 -0.07 0.281
11.486 -42.748 52.158 0.992 0.1 -0.075
11.493 -42.805 53.534 0.923 -0.172 -0.343
11.558 -42.564 53.799 0.994 0.094 -0.051
9.443 -39.232 53.737 -0.393 0.778 0.49
9.089 -39.368 53.275 -0.775 0.632 -0.008
10.313 -38.405 51.258 -0.213 0.513 -0.832
10.089 -38.901 50.809 -0.063 0.844 -0.532
8.105 -50.445 51.527 -0.611 -0.786 -0.092
8.176 -50.557 51.759 -0.658 -0.711 -0.247
9.013 -50.839 51.527 -0.157 -0.983 -0.092
8.882 -50.864 51.759 -0.07 -0.966 -0.247
9.588 -50.757 52.328 0.13 -0.942 0.308
9.329 -50.8 52.383 0.303 -0.913 0.272
9.255 -50.281 53.13 -0.036 -0.705 0.709
9.07 -50.43 53.006 0.087 -0.605 0.791
8.347 -49.887 53.13 -0.49 -0.508 0.709
8.364 -50.124 53.006 -0.501 -0.35 0.791
9.643 -41.837 50.408 -0.383 -0.206 -0.901
9.643 -42.454 50.408 -0.383 0.206 -0.901
8.109 -42.97 51.93 -0.707 0.101 -0.7
11.142 -45.622 53.015 0.924 -0.191 0.331
8.987 -39.438 52.964 -0.707 0.678 0.199
11.378 -43.063 53.019 1 -0 0
6.641 -45.814 53.44 -0.866 -0.5 -0
6.641 -45.514 52.92 -0.866 -0.25 -0.433
6.48 -45.214 53.44 -1 0 0
6.931 -44.782 52.274 -0.809 -0 -0.588
6.931 -44.194 52.432 -0.809 0.294 -0.509
6.647 -44.164 53.45 -0.951 0.309 0
8.138 -46.761 56.327 -0.223 -0.878 0.423
7.577 -46.581 56.043 -0.623 -0.75 0.22
7.189 -45.227 56.261 -0.901 0.217 0.376
7.189 -45.835 56.261 -0.901 -0.217 0.376
7.189 -46.138 55.735 -0.901 -0.434 -0
7.402 -48.015 52.845 -0.94 -0.171 0.296
7.299 -47.724 52.341 -1 0 0
7.863 -46.526 50.729 -0.809 -0 -0.588
10.945 -48.872 52.888 0.809 -0 0.588
10.945 -49.46 52.73 0.809 -0.294 0.509
10.503 -48.872 53.33 0.588 -0 0.809
10.503 -49.491 53.207 0.588 -0.31 0.747
10.503 -50.016 52.856 0.588 -0.572 0.572
10.503 -50.367 52.331 0.588 -0.747 0.31
9.945 -49.636 53.454 0.309 -0.382 0.871
9.945 -50.16 53.111 0.309 -0.644 0.7
9.945 -50.545 52.617 0.309 -0.836 0.453
9.945 -50.748 52.025 0.309 -0.938 0.157
9.327 -49.872 53.444 -0 -0.5 0.866
8.709 -49.636 53.454 -0.309 -0.382 0.871
8.709 -50.545 50.807 -0.309 -0.836 -0.453
8.151 -49.491 53.207 -0.588 -0.31 0.747
8.151 -50.367 51.093 -0.588 -0.747 -0.31
8.151 -50.016 50.568 -0.588 -0.572 -0.572
7.709 -49.46 52.73 -0.809 -0.294 0.509
7.709 -49.89 51.124 -0.809 -0.509 -0.294
7.709 -49.46 50.694 -0.809 -0.294 -0.509
7.709 -48.872 50.536 -0.809 -0 -0.588
7.425 -49.181 52.247 -0.951 -0.155 0.268
7.425 -49.49 51.712 -0.951 -0.309 -0
7.425 -49.181 51.177 -0.951 -0.155 -0.268
7.425 -48.563 51.177 -0.951 0.155 -0.268
7.327 -48.872 51.712 -1 -0 -0
8.9 -43.855 49.973 -0.588 0.31 -0.747
8.458 -44.474 50.292 -0.809 -0 -0.588
8.458 -43.886 50.45 -0.809 0.294 -0.509
7.117 -42.124 54.521 -0.951 0.309 0
8.732 -45.694 57.603 -0 -0.355 0.935
8.732 -46.166 57.277 -0 -0.749 0.663
8.132 -44.836 57.426 -0.5 0.36 0.788
8.132 -45.416 57.51 -0.5 -0.123 0.857
9.959 -46.767 55.612 0.309 -0.836 0.453
11.989 -46.501 51.904 0.809 -0 0.588
12.3 -48.395 51.107 0.809 -0.294 0.509
11.434 -49.971 50.936 0.766 -0.617 0.181
10.982 -50.363 50.322 0.5 -0.847 -0.18
10.427 -50.569 50.32 0.174 -0.968 -0.181
9.837 -50.346 49.747 -0.174 -0.837 -0.518
9.282 -49.659 49.353 -0.5 -0.433 -0.75
9.064 -47.807 48.913 -0.809 -0 -0.588
13.189 -47.875 49.003 1 0 0
13.086 -47.584 49.507 0.94 0.171 0.296
13.086 -48.166 49.507 0.94 -0.171 0.296
13.086 -48.456 49.003 0.94 -0.342 -0
13.086 -48.166 48.499 0.94 -0.171 -0.296
12.791 -48.031 47.921 0.766 -0.091 -0.636
11.784 -47.721 47.336 0.174 0.091 -0.981
11.194 -47.721 47.336 -0.174 0.091 -0.981
10.639 -48.029 47.539 -0.5 -0.091 -0.861
10.639 -47.42 47.603 -0.5 0.268 -0.824
12.399 -45.211 50.515 1 0 0
12.296 -44.63 50.515 0.94 0.342 0
12.296 -44.92 50.011 0.94 0.171 -0.296
12.001 -44.292 49.924 0.766 0.541 -0.348
11.549 -44.226 49.421 0.5 0.579 -0.644
10.994 -44.465 49.016 0.174 0.439 -0.882
10.404 -44.465 49.016 -0.174 0.439 -0.882
9.849 -44.756 49.115 -0.5 0.268 -0.824
12.519 -40.857 50.652 1 0 0
12.38 -40.25 50.652 0.901 0.434 0
12.38 -41.161 51.178 0.901 -0.217 0.376
12.38 -41.464 50.652 0.901 -0.434 -0
12.38 -41.161 50.126 0.901 -0.217 -0.376
12.38 -40.553 50.126 0.901 0.217 -0.376
11.992 -41.574 49.825 0.623 -0.512 -0.591
11.992 -41.013 49.569 0.623 -0.111 -0.774
11.992 -40.402 49.656 0.623 0.325 -0.711
11.992 -39.936 50.06 0.623 0.658 -0.423
11.431 -41.161 49.321 0.223 -0.217 -0.95
11.431 -40.553 49.321 0.223 0.217 -0.95
11.431 -40.006 49.585 0.223 0.608 -0.762
10.807 -41.161 49.321 -0.223 -0.217 -0.95
10.807 -40.553 49.321 -0.223 0.217 -0.95
10.807 -40.006 49.585 -0.223 0.608 -0.762
8.42 -40.829 50.107 -0.223 -0.217 -0.95
8.42 -40.221 50.107 -0.223 0.217 -0.95
8.42 -39.674 50.371 -0.223 0.608 -0.762
8.42 -39.295 50.846 -0.223 0.878 -0.423
7.859 -39.43 51.438 -0.623 0.782 0
7.859 -39.604 52.03 -0.623 0.658 0.423
7.859 -41.242 50.611 -0.623 -0.512 -0.591
7.859 -40.681 50.355 -0.623 -0.111 -0.774
7.859 -40.07 50.442 -0.623 0.325 -0.711
7.859 -39.604 50.846 -0.623 0.658 -0.423
7.471 -39.918 51.438 -0.901 0.434 0
7.471 -40.221 51.964 -0.901 0.217 0.376
7.471 -40.829 50.912 -0.901 -0.217 -0.376
7.471 -40.221 50.912 -0.901 0.217 -0.376
7.332 -40.525 51.438 -1 0 0
9.716 -39.789 55.268 -0 0.826 0.563
9.716 -40.194 55.705 -0 0.623 0.782
9.716 -40.71 56.003 -0 0.365 0.931
9.098 -39.94 55.309 -0.309 0.751 0.584
9.098 -40.401 55.733 -0.309 0.52 0.796
7.769 -42.049 56.137 -0.5 0.36 0.788
7.33 -42.181 55.712 -0.866 0.25 0.433
10.999 -42.734 57.087 0.623 0.658 0.423
10.438 -42.804 57.562 0.223 0.608 0.762
9.814 -42.804 57.562 -0.223 0.608 0.762
9.814 -43.351 57.826 -0.223 0.217 0.95
9.253 -43.2 57.491 -0.623 0.325 0.711
11.599 -44.011 57.31 0.866 0.25 0.433
11.599 -44.611 57.31 0.866 -0.25 0.433
11.599 -44.911 56.79 0.866 -0.5 -0
11.16 -44.459 57.819 0.5 -0.123 0.857
11.16 -44.992 57.575 0.5 -0.567 0.654
11.16 -45.308 57.083 0.5 -0.831 0.244
10.56 -44.737 57.912 -0 -0.355 0.935
11.978 -44.165 52.003 0.951 0.155 0.268
12.261 -49.633 48.349 0.5 -0.831 -0.244
12.261 -49.317 47.857 0.5 -0.567 -0.654
11.661 -49.801 48.355 -0 -0.971 -0.239
11.661 -49.534 47.846 -0 -0.749 -0.663
11.661 -49.062 47.52 -0 -0.355 -0.935
11.061 -49.317 47.857 -0.5 -0.567 -0.654
12.868 -46.557 48.674 0.866 0.5 0
12.868 -46.857 48.154 0.866 0.25 -0.433
12.429 -46.725 47.729 0.5 0.36 -0.788
12.429 -46.283 48.112 0.5 0.729 -0.468
11.829 -46.475 47.686 -0 0.568 -0.823
12.011 -39.123 52.422 1 0 0
11.872 -38.516 52.422 0.901 0.434 0
11.872 -38.819 52.948 0.901 0.217 0.376
11.484 -38.028 52.422 0.623 0.782 0
11.484 -38.202 53.014 0.623 0.658 0.423
11.484 -38.668 53.418 0.623 0.325 0.711
11.484 -38.202 51.83 0.623 0.658 -0.423
10.923 -37.758 52.422 0.223 0.975 0
10.923 -37.893 53.014 0.223 0.878 0.423
10.923 -38.272 53.489 0.223 0.608 0.762
10.923 -38.272 51.355 0.223 0.608 -0.762
10.923 -37.893 51.83 0.223 0.878 -0.423
10.299 -37.758 52.422 -0.223 0.975 0
10.299 -37.893 53.014 -0.223 0.878 0.423
10.299 -38.272 53.489 -0.223 0.608 0.762
10.299 -37.893 51.83 -0.223 0.878 -0.423
9.738 -38.028 52.422 -0.623 0.782 0
9.738 -38.202 53.014 -0.623 0.658 0.423
8.021 -40.129 54.084 -0.866 0.5 0
12.079 -43.678 54.726 1 0 0
11.38 -40.895 55.36 0.866 0.25 0.433
10.941 -40.763 55.785 0.5 0.36 0.788
8.966 -50.869 52.343 -0 -0.971 0.239
8.366 -50.385 52.841 -0.5 -0.567 0.654
8.366 -50.701 52.349 -0.5 -0.831 0.244
3 0 224 1
3 1 224 225
3 224 226 225
3 225 226 227
3 226 4 227
3 227 4 3
3 4 7 228
3 228 7 229
3 228 229 5
3 5 229 6
3 7 10 8
3 8 10 9
3 10 231 230
3 230 231 232
3 230 232 11
3 11 232 233
3 231 13 232
3 232 13 234
3 232 234 233
3 233 234 12
3 13 0 235
3 235 0 236
3 235 236 14
3 14 236 2
3 14 16 12
3 12 16 15
3 16 19 17
3 17 19 18
3 19 237 20
3 20 237 238
3 237 22 238
3 238 22 21
3 22 25 23
3 23 25 24
3 25 239 26
3 26 239 240
3 239 2 240
3 240 2 1
3 26 28 24
3 24 28 27
3 28 241 29
3 29 241 242
3 241 243 242
3 242 243 244
3 243 31 244
3 244 31 30
3 31 245 32
3 32 245 246
3 245 34 246
3 246 34 33
3 34 3 35
3 35 3 5
3 35 37 247
3 247 37 248
3 247 248 33
3 33 248 36
3 37 249 38
3 38 249 250
3 249 251 250
3 250 251 252
3 251 253 252
3 252 253 254
3 253 255 254
3 254 255 256
3 255 40 256
3 256 40 39
3 40 257 41
3 41 257 258
3 257 43 258
3 258 43 42
3 43 46 259
3 259 46 261
3 259 261 260
3 260 261 262
3 260 262 44
3 44 262 45
3 46 6 47
3 47 6 8
3 47 9 263
3 263 9 264
3 263 264 45
3 45 264 11
3 44 49 265
3 265 49 266
3 265 266 42
3 42 266 48
3 49 52 267
3 267 52 268
3 267 268 50
3 50 268 51
3 52 269 53
3 53 269 270
3 269 271 270
3 270 271 272
3 271 273 272
3 272 273 274
3 273 275 274
3 274 275 276
3 275 277 276
3 276 277 278
3 277 279 278
3 278 279 280
3 279 281 280
3 280 281 282
3 281 15 282
3 282 15 17
3 53 55 283
3 283 55 285
3 283 285 284
3 284 285 286
3 284 286 51
3 51 286 54
3 55 58 56
3 56 58 57
3 58 61 287
3 287 61 288
3 287 288 59
3 59 288 60
3 61 64 62
3 62 64 63
3 64 289 65
3 65 289 290
3 289 291 290
3 290 291 292
3 291 293 292
3 292 293 294
3 293 295 294
3 294 295 296
3 295 297 296
3 296 297 298
3 297 299 298
3 298 299 300
3 299 301 300
3 300 301 302
3 301 67 302
3 302 67 66
3 67 70 68
3 68 70 69
3 70 18 303
3 303 18 304
3 303 304 71
3 71 304 20
3 71 305 69
3 69 305 306
3 305 307 306
3 306 307 308
3 307 73 308
3 308 73 72
3 73 76 74
3 74 76 75
3 76 309 77
3 77 309 310
3 309 79 310
3 310 79 78
3 79 21 80
3 80 21 23
3 80 311 78
3 78 311 312
3 311 313 312
3 312 313 314
3 313 82 314
3 314 82 81
3 82 85 315
3 315 85 317
3 315 317 316
3 316 317 318
3 316 318 83
3 83 318 84
3 85 321 319
3 319 321 322
3 319 322 320
3 320 322 323
3 320 323 86
3 86 323 324
3 321 88 322
3 322 88 325
3 322 325 323
3 323 325 326
3 323 326 324
3 324 326 87
3 88 27 327
3 327 27 328
3 327 328 89
3 89 328 29
3 89 91 329
3 329 91 331
3 329 331 330
3 330 331 332
3 330 332 87
3 87 332 90
3 91 30 92
3 92 30 32
3 92 94 333
3 333 94 335
3 333 335 334
3 334 335 336
3 334 336 90
3 90 336 93
3 94 337 95
3 95 337 338
3 337 339 338
3 338 339 340
3 339 97 340
3 340 97 96
3 97 341 98
3 98 341 342
3 341 100 342
3 342 100 99
3 100 36 343
3 343 36 344
3 343 344 101
3 101 344 38
3 101 103 345
3 345 103 347
3 345 347 346
3 346 347 348
3 346 348 99
3 99 348 102
3 103 350 349
3 349 350 351
3 349 351 104
3 104 351 352
3 350 106 351
3 351 106 353
3 351 353 352
3 352 353 105
3 106 355 354
3 354 355 356
3 354 356 107
3 107 356 357
3 355 109 356
3 356 109 358
3 356 358 357
3 357 358 108
3 109 39 110
3 110 39 41
3 110 360 359
3 359 360 361
3 359 361 108
3 108 361 362
3 360 112 361
3 361 112 363
3 361 363 362
3 362 363 111
3 112 364 113
3 113 364 365
3 364 115 365
3 365 115 114
3 115 118 366
3 366 118 367
3 366 367 116
3 116 367 117
3 118 121 368
3 368 121 369
3 368 369 119
3 119 369 120
3 121 370 122
3 122 370 371
3 370 372 371
3 371 372 373
3 372 48 373
3 373 48 50
3 122 54 374
3 374 54 375
3 374 375 120
3 120 375 56
3 119 124 117
3 117 124 123
3 124 376 125
3 125 376 377
3 376 57 377
3 377 57 59
3 125 127 123
3 123 127 126
3 127 378 128
3 128 378 379
3 378 130 379
3 379 130 129
3 130 133 131
3 131 133 132
3 133 380 134
3 134 380 381
3 380 382 381
3 381 382 383
3 382 60 383
3 383 60 62
3 134 384 132
3 132 384 385
3 384 386 385
3 385 386 387
3 386 388 387
3 387 388 389
3 388 136 389
3 389 136 135
3 136 139 137
3 137 139 138
3 139 390 140
3 140 390 391
3 390 63 391
3 391 63 65
3 140 393 392
3 392 393 394
3 392 394 138
3 138 394 395
3 393 396 394
3 394 396 397
3 394 397 395
3 395 397 398
3 396 142 397
3 397 142 399
3 397 399 398
3 398 399 141
3 142 400 143
3 143 400 401
3 400 66 401
3 401 66 68
3 143 145 141
3 141 145 144
3 145 402 146
3 146 402 403
3 402 404 403
3 403 404 405
3 404 406 405
3 405 406 407
3 406 72 407
3 407 72 74
3 146 408 144
3 144 408 409
3 408 410 409
3 409 410 411
3 410 412 411
3 411 412 413
3 412 414 413
3 413 414 415
3 414 416 415
3 415 416 417
3 416 135 417
3 417 135 137
3 131 148 418
3 418 148 419
3 418 419 129
3 129 419 147
3 148 421 420
3 420 421 422
3 420 422 149
3 149 422 423
3 421 424 422
3 422 424 425
3 422 425 423
3 423 425 426
3 424 427 425
3 425 427 428
3 425 428 426
3 426 428 429
3 427 430 428
3 428 430 431
3 428 431 429
3 429 431 432
3 430 433 431
3 431 433 434
3 431 434 432
3 432 434 435
3 433 151 434
3 434 151 436
3 434 436 435
3 435 436 150
3 151 75 437
3 437 75 438
3 437 438 152
3 152 438 77
3 152 440 439
3 439 440 441
3 439 441 150
3 150 441 442
3 440 443 441
3 441 443 444
3 441 444 442
3 442 444 445
3 443 446 444
3 444 446 447
3 444 447 445
3 445 447 448
3 446 147 447
3 447 147 449
3 447 449 448
3 448 449 149
3 128 450 126
3 126 450 451
3 450 452 451
3 451 452 453
3 452 154 453
3 453 154 153
3 154 457 454
3 454 457 458
3 454 458 455
3 455 458 459
3 455 459 456
3 456 459 460
3 456 460 155
3 155 460 461
3 457 81 458
3 458 81 462
3 458 462 459
3 459 462 463
3 459 463 460
3 460 463 464
3 460 464 461
3 461 464 83
3 155 157 465
3 465 157 467
3 465 467 466
3 466 467 468
3 466 468 153
3 153 468 156
3 157 160 469
3 469 160 470
3 469 470 158
3 158 470 159
3 160 163 161
3 161 163 162
3 163 472 471
3 471 472 473
3 471 473 164
3 164 473 474
3 472 166 473
3 473 166 475
3 473 475 474
3 474 475 165
3 166 476 167
3 167 476 477
3 476 169 477
3 477 169 168
3 169 84 478
3 478 84 479
3 478 479 170
3 170 479 86
3 170 480 168
3 168 480 481
3 480 172 481
3 481 172 171
3 172 483 482
3 482 483 484
3 482 484 173
3 173 484 485
3 483 175 484
3 484 175 486
3 484 486 485
3 485 486 174
3 175 178 487
3 487 178 488
3 487 488 176
3 176 488 177
3 178 93 489
3 489 93 490
3 489 490 179
3 179 490 95
3 179 491 177
3 177 491 492
3 491 493 492
3 492 493 494
3 493 181 494
3 494 181 180
3 181 496 495
3 495 496 497
3 495 497 182
3 182 497 498
3 496 499 497
3 497 499 500
3 497 500 498
3 498 500 501
3 499 502 500
3 500 502 503
3 500 503 501
3 501 503 504
3 502 184 503
3 503 184 505
3 503 505 504
3 504 505 183
3 184 187 506
3 506 187 507
3 506 507 185
3 185 507 186
3 187 190 188
3 188 190 189
3 190 193 508
3 508 193 509
3 508 509 191
3 191 509 192
3 193 196 194
3 194 196 195
3 196 510 197
3 197 510 511
3 510 512 511
3 511 512 513
3 512 514 513
3 513 514 515
3 514 199 515
3 515 199 198
3 199 202 516
3 516 202 517
3 516 517 200
3 200 517 201
3 202 205 203
3 203 205 204
3 205 96 206
3 206 96 98
3 206 208 204
3 204 208 207
3 208 102 518
3 518 102 519
3 518 519 209
3 209 519 104
3 209 201 520
3 520 201 521
3 520 521 207
3 207 521 203
3 200 211 522
3 522 211 523
3 522 523 198
3 198 523 210
3 211 214 212
3 212 214 213
3 214 524 215
3 215 524 525
3 524 526 525
3 525 526 527
3 526 528 527
3 527 528 529
3 528 105 529
3 529 105 107
3 215 530 213
3 213 530 531
3 530 532 531
3 531 532 533
3 532 111 533
3 533 111 113
3 212 195 534
3 534 195 535
3 534 535 210
3 210 535 197
3 194 536 192
3 192 536 537
3 536 217 537
3 537 217 216
3 217 114 538
3 538 114 539
3 538 539 218
3 218 539 116
3 218 220 540
3 540 220 541
3 540 541 216
3 216 541 219
3 220 156 542
3 542 156 543
3 542 543 221
3 221 543 158
3 221 189 544
3 544 189 545
3 544 545 219
3 219 545 191
3 188 159 186
3 186 159 161
3 185 162 183
3 183 162 164
3 182 174 546
3 546 174 547
3 546 547 180
3 180 547 176
3 173 548 171
3 171 548 549
3 548 165 549
3 549 165 167
3 222 550 223
3 223 550 551
3 550 552 551
3 551 552 553
3 552 554 553
3 553 554 555
3 554 556 555
3 555 556 557
3 556 558 557
3 557 558 559
3 558 222 559
3 559 222 223
3 236 0 1
3 236 1 2
3 5 3 228
3 228 3 4
3 8 6 229
3 8 229 7
3 264 9 230
3 264 230 11
3 230 9 10
3 14 12 234
3 14 234 235
3 235 234 13
3 17 15 16
3 304 18 19
3 304 19 20
3 23 21 22
3 26 24 25
3 328 27 28
3 328 28 29
3 32 30 31
3 247 33 34
3 247 34 35
3 344 36 248
3 344 248 37
3 344 37 38
3 41 39 40
3 265 42 259
3 265 259 260
3 265 260 44
3 259 42 43
3 263 45 262
3 263 262 261
3 263 261 47
3 47 261 46
3 50 48 266
3 50 266 267
3 267 266 49
3 284 51 268
3 284 268 283
3 283 268 52
3 283 52 53
3 375 54 286
3 375 286 56
3 56 286 285
3 56 285 55
3 59 57 287
3 287 57 58
3 62 60 288
3 62 288 61
3 65 63 64
3 68 66 67
3 71 69 303
3 303 69 70
3 74 72 73
3 438 75 76
3 438 76 77
3 80 78 79
3 462 81 82
3 462 82 315
3 462 315 463
3 463 315 316
3 463 316 464
3 464 316 83
3 479 84 560
3 479 560 320
3 479 320 86
3 320 560 561
3 320 561 319
3 319 561 317
3 319 317 85
3 317 561 318
3 318 561 560
3 318 560 84
3 330 87 326
3 330 326 329
3 329 326 325
3 329 325 562
3 329 562 89
3 89 562 327
3 327 562 325
3 327 325 88
3 334 90 332
3 334 332 333
3 333 332 331
3 333 331 92
3 92 331 91
3 490 93 336
3 490 336 335
3 490 335 95
3 95 335 94
3 98 96 97
3 346 99 100
3 346 100 343
3 346 343 345
3 345 343 101
3 519 102 348
3 519 348 347
3 519 347 349
3 519 349 104
3 349 347 103
3 107 105 354
3 354 105 353
3 354 353 106
3 359 108 358
3 359 358 109
3 359 109 110
3 113 111 363
3 113 363 112
3 539 114 115
3 539 115 366
3 539 366 116
3 119 117 563
3 119 563 368
3 368 563 367
3 368 367 118
3 367 563 117
3 374 120 369
3 374 369 122
3 122 369 121
3 125 123 124
3 128 126 127
3 418 129 130
3 418 130 131
3 134 132 133
3 137 135 136
3 392 138 139
3 392 139 140
3 143 141 399
3 143 399 142
3 146 144 145
3 449 147 419
3 449 419 420
3 449 420 149
3 420 419 148
3 439 150 436
3 439 436 437
3 439 437 152
3 437 436 151
3 466 153 454
3 466 454 455
3 466 455 465
3 465 455 456
3 465 456 155
3 454 153 154
3 543 156 468
3 543 468 467
3 543 467 469
3 543 469 158
3 469 467 157
3 161 159 470
3 161 470 160
3 164 162 471
3 471 162 163
3 167 165 475
3 167 475 166
3 170 168 478
3 478 168 169
3 173 171 482
3 482 171 172
3 547 174 564
3 547 564 487
3 547 487 176
3 487 564 486
3 487 486 175
3 486 564 174
3 179 177 488
3 179 488 489
3 489 488 178
3 546 180 181
3 546 181 495
3 546 495 182
3 185 183 505
3 185 505 506
3 506 505 184
3 188 186 507
3 188 507 187
3 545 189 190
3 545 190 508
3 545 508 191
3 194 192 509
3 194 509 193
3 535 195 196
3 535 196 197
3 522 198 199
3 522 199 516
3 522 516 200
3 521 201 517
3 521 517 203
3 203 517 202
3 206 204 205
3 520 207 518
3 520 518 209
3 518 207 208
3 534 210 523
3 534 523 212
3 212 523 211
3 215 213 214
3 540 216 217
3 540 217 538
3 540 538 218
3 544 219 541
3 544 541 565
3 544 565 221
3 221 565 542
3 542 565 220
3 220 565 541
3 567 566 568
3 567 568 224
3 567 224 0
3 567 0 13
3 567 13 566
3 566 13 231
3 566 231 10
3 566 10 7
3 566 7 4
3 566 4 568
3 568 4 226
3 568 226 224
3 3 34 227
3 227 34 245
3 227 245 571
3 227 571 225
3 225 571 570
3 225 570 569
3 225 569 1
3 1 569 240
3 240 569 26
3 26 569 570
3 26 570 28
3 28 570 241
3 241 570 243
3 243 570 571
3 243 571 31
3 31 571 245
3 573 575 576
3 573 576 6
3 573 6 46
3 573 46 43
3 573 43 572
3 573 572 253
3 573 253 251
3 573 251 575
3 575 251 249
3 575 249 574
3 575 574 5
3 575 5 576
3 576 5 6
3 5 574 35
3 35 574 37
3 37 574 249
3 253 572 255
3 255 572 257
3 255 257 40
3 257 572 43
3 9 47 8
3 12 15 281
3 12 281 578
3 12 578 233
3 233 578 577
3 233 577 11
3 11 577 277
3 11 277 45
3 45 277 275
3 45 275 44
3 44 275 273
3 44 273 271
3 44 271 49
3 49 271 269
3 49 269 52
3 277 577 279
3 279 577 578
3 279 578 281
3 239 25 579
3 239 579 16
3 239 16 2
3 2 16 14
3 16 579 19
3 19 579 237
3 237 579 22
3 22 579 25
3 580 582 583
3 581 580 583
3 581 583 584
3 583 586 587
3 584 583 587
3 584 587 588
3 585 584 588
3 585 588 589
3 587 586 590
3 592 594 595
3 595 594 597
3 595 597 598
3 597 601 602
3 598 597 602
3 599 598 602
3 599 602 603
3 601 600 604
3 602 601 604
3 603 602 604
3 603 604 282
3 603 282 17
3 603 17 599
3 599 17 18
3 599 18 70
3 599 70 67
3 599 67 301
3 599 301 598
3 598 301 595
3 595 301 299
3 595 299 592
3 592 299 297
3 592 297 552
3 592 552 550
3 592 550 594
3 594 550 597
3 597 550 601
3 601 550 222
3 601 222 600
3 600 222 596
3 600 596 278
3 600 278 280
3 600 280 604
3 604 280 282
3 278 596 276
3 276 596 593
3 276 593 274
3 274 593 591
3 274 591 272
3 272 591 590
3 272 590 586
3 272 586 270
3 270 586 582
3 270 582 53
3 53 582 55
3 55 582 580
3 55 580 58
3 58 580 61
3 61 580 64
3 64 580 581
3 64 581 289
3 289 581 584
3 289 584 585
3 289 585 291
3 291 585 589
3 291 589 293
3 293 589 295
3 295 589 552
3 295 552 297
3 552 589 554
3 554 589 588
3 554 588 556
3 556 588 587
3 556 587 590
3 556 590 591
3 556 591 558
3 558 591 593
3 558 593 596
3 558 596 222
3 582 586 583
3 21 79 238
3 238 79 305
3 238 305 71
3 238 71 20
3 305 79 307
3 307 79 309
3 307 309 73
3 73 309 76
3 605 606 607
3 605 607 321
3 605 321 85
3 605 85 313
3 605 313 311
3 605 311 80
3 605 80 606
3 606 80 23
3 606 23 24
3 606 24 607
3 607 24 27
3 607 27 88
3 607 88 321
3 313 85 82
3 30 91 244
3 244 91 242
3 242 91 89
3 242 89 29
3 33 36 341
3 33 341 246
3 246 341 32
3 32 341 608
3 32 608 92
3 92 608 94
3 94 608 337
3 337 608 339
3 339 608 341
3 339 341 97
3 341 36 100
3 101 38 103
3 39 109 610
3 39 610 256
3 256 610 254
3 254 610 609
3 254 609 612
3 254 612 252
3 252 612 250
3 250 612 611
3 250 611 38
3 38 611 103
3 103 611 350
3 350 611 106
3 106 611 612
3 106 612 609
3 106 609 355
3 355 609 610
3 355 610 109
3 42 48 258
3 258 48 613
3 258 613 41
3 41 613 110
3 110 613 372
3 110 372 360
3 360 372 112
3 112 372 370
3 112 370 364
3 364 370 121
3 364 121 115
3 115 121 118
3 372 613 48
3 51 54 373
3 51 373 50
3 373 54 371
3 371 54 122
3 376 124 120
3 376 120 56
3 376 56 57
3 120 124 119
3 380 133 378
3 380 378 127
3 380 127 614
3 380 614 382
3 382 614 377
3 382 377 60
3 60 377 59
3 377 614 125
3 125 614 127
3 378 133 130
3 390 139 136
3 390 136 388
3 390 388 615
3 390 615 63
3 63 615 62
3 62 615 383
3 383 615 381
3 381 615 384
3 381 384 134
3 384 615 386
3 386 615 388
3 400 142 620
3 400 620 302
3 400 302 66
3 302 620 300
3 300 620 619
3 300 619 298
3 298 619 296
3 296 619 618
3 296 618 294
3 294 618 617
3 294 617 292
3 292 617 616
3 292 616 290
3 290 616 391
3 290 391 65
3 391 616 140
3 140 616 617
3 140 617 393
3 393 617 618
3 393 618 396
3 396 618 619
3 396 619 142
3 142 619 620
3 308 72 406
3 308 406 621
3 308 621 306
3 306 621 69
3 69 621 68
3 68 621 401
3 401 621 404
3 401 404 402
3 401 402 145
3 401 145 143
3 404 621 406
3 622 623 624
3 622 624 625
3 622 625 626
3 629 630 631
3 629 631 433
3 629 433 430
3 629 430 628
3 629 628 410
3 629 410 408
3 629 408 630
3 630 408 403
3 630 403 405
3 630 405 631
3 631 405 407
3 631 407 74
3 631 74 433
3 433 74 75
3 433 75 151
3 403 408 146
3 410 628 412
3 412 628 427
3 412 427 627
3 412 627 414
3 414 627 626
3 414 626 625
3 414 625 416
3 416 625 624
3 416 624 389
3 416 389 135
3 389 624 387
3 387 624 385
3 385 624 623
3 385 623 132
3 132 623 131
3 131 623 421
3 131 421 148
3 421 623 622
3 421 622 424
3 424 622 626
3 424 626 627
3 424 627 427
3 427 628 430
3 632 634 633
3 633 634 635
3 633 635 154
3 633 154 452
3 633 452 450
3 633 450 632
3 632 450 379
3 632 379 129
3 632 129 147
3 632 147 634
3 634 147 446
3 634 446 635
3 635 446 443
3 635 443 636
3 635 636 457
3 635 457 154
3 457 636 81
3 81 636 637
3 81 637 638
3 81 638 314
3 314 638 639
3 314 639 312
3 312 639 78
3 78 639 310
3 310 639 77
3 77 639 152
3 152 639 638
3 152 638 440
3 440 638 637
3 440 637 443
3 443 637 636
3 379 450 128
3 640 642 643
3 640 643 644
3 640 644 645
3 640 645 641
3 644 646 647
3 645 644 647
3 645 647 648
3 645 648 649
3 641 645 649
3 647 646 650
3 647 650 651
3 648 647 651
3 648 651 652
3 649 648 652
3 650 653 654
3 651 650 654
3 651 654 655
3 652 651 655
3 652 655 476
3 652 476 166
3 652 166 649
3 649 166 472
3 649 472 641
3 641 472 163
3 641 163 640
3 640 163 642
3 642 163 160
3 642 160 157
3 642 157 643
3 643 157 155
3 643 155 644
3 644 155 646
3 646 155 461
3 646 461 650
3 650 461 83
3 650 83 653
3 653 83 84
3 653 84 169
3 653 169 654
3 654 169 655
3 655 169 476
3 656 662 663
3 657 656 663
3 657 663 664
3 658 657 664
3 658 664 665
3 659 658 665
3 660 659 665
3 661 660 666
3 661 666 667
3 663 662 668
3 663 668 669
3 664 663 669
3 665 664 669
3 666 665 669
3 660 665 666
3 667 666 670
3 669 668 670
3 666 669 670
3 670 668 90
3 670 90 667
3 667 90 93
3 667 93 178
3 667 178 661
3 661 178 175
3 661 175 483
3 661 483 660
3 660 483 172
3 660 172 659
3 659 172 480
3 659 480 658
3 658 480 170
3 658 170 657
3 657 170 656
3 656 170 86
3 656 86 324
3 656 324 662
3 662 324 87
3 662 87 668
3 668 87 90
3 672 671 674
3 672 674 675
3 673 672 675
3 673 675 202
3 673 202 199
3 673 199 514
3 673 514 672
3 672 514 671
3 671 514 512
3 671 512 499
3 671 499 496
3 671 496 181
3 671 181 674
3 674 181 493
3 674 493 675
3 675 493 96
3 675 96 205
3 675 205 202
3 96 493 491
3 96 491 340
3 340 491 338
3 338 491 179
3 338 179 95
3 499 512 502
3 502 512 510
3 502 510 184
3 184 510 187
3 187 510 193
3 187 193 190
3 193 510 196
3 99 102 676
3 99 676 677
3 99 677 342
3 342 677 98
3 98 677 676
3 98 676 206
3 206 676 208
3 208 676 102
3 679 680 681
3 681 680 682
3 681 682 352
3 681 352 105
3 681 105 528
3 681 528 526
3 681 526 679
3 679 526 678
3 679 678 200
3 679 200 680
3 680 200 201
3 680 201 209
3 680 209 682
3 682 209 104
3 682 104 352
3 200 678 211
3 211 678 524
3 211 524 214
3 524 678 526
3 684 683 686
3 684 686 687
3 684 687 688
3 685 684 688
3 687 686 689
3 687 689 357
3 687 357 108
3 687 108 688
3 688 108 362
3 688 362 111
3 688 111 685
3 685 111 532
3 685 532 530
3 685 530 684
3 684 530 683
3 683 530 215
3 683 215 525
3 683 525 527
3 683 527 686
3 686 527 529
3 686 529 689
3 689 529 107
3 689 107 357
3 114 217 365
3 365 217 536
3 365 536 533
3 365 533 113
3 533 536 531
3 531 536 213
3 213 536 194
3 213 194 195
3 213 195 212
3 117 123 116
3 116 123 218
3 218 123 126
3 218 126 690
3 218 690 220
3 220 690 156
3 156 690 453
3 156 453 153
3 453 690 451
3 451 690 126
3 691 693 694
3 692 691 694
3 692 694 695
3 695 694 696
3 695 696 409
3 695 409 411
3 695 411 413
3 695 413 692
3 692 413 415
3 692 415 691
3 691 415 417
3 691 417 137
3 691 137 138
3 691 138 395
3 691 395 693
3 693 395 398
3 693 398 694
3 694 398 696
3 696 398 141
3 696 141 144
3 696 144 409
3 698 699 700
3 697 698 700
3 700 699 701
3 700 701 442
3 700 442 445
3 700 445 448
3 700 448 697
3 697 448 149
3 697 149 423
3 697 423 698
3 698 423 426
3 698 426 429
3 698 429 699
3 699 429 432
3 699 432 701
3 701 432 435
3 701 435 150
3 701 150 442
3 159 188 189
3 159 189 158
3 158 189 221
3 162 185 186
3 162 186 161
3 702 703 704
3 704 703 706
3 704 706 707
3 703 708 705
3 703 705 706
3 706 705 710
3 706 710 711
3 707 706 711
3 708 712 713
3 705 708 713
3 705 713 709
3 705 709 710
3 710 709 715
3 710 715 716
3 711 710 716
3 713 712 717
3 709 713 717
3 709 717 714
3 709 714 715
3 715 714 718
3 715 718 719
3 716 715 719
3 714 717 718
3 718 717 173
3 718 173 485
3 718 485 719
3 719 485 174
3 719 174 182
3 719 182 716
3 716 182 498
3 716 498 711
3 711 498 501
3 711 501 707
3 707 501 504
3 707 504 704
3 704 504 183
3 704 183 702
3 702 183 164
3 702 164 474
3 702 474 703
3 703 474 708
3 708 474 165
3 708 165 712
3 712 165 548
3 712 548 717
3 717 548 173
3 481 171 549
3 481 549 477
3 481 477 168
3 477 549 167
3 494 180 176
3 494 176 720
3 494 720 492
3 492 720 177
3 177 720 176
3 537 216 721
3 537 721 192
3 192 721 191
3 191 721 219
3 219 721 216
3 198 210 723
3 198 723 515
3 515 723 513
3 513 723 722
3 513 722 511
3 511 722 197
3 197 722 210
3 210 722 723
3 204 207 203
3 559 223 725
3 559 725 557
3 557 725 724
3 557 724 555
3 555 724 553
3 553 724 726
3 553 726 551
3 551 726 223
3 223 726 725
3 725 726 724
