ply
format ascii 1.0
comment Generated by PyMesh
element vertex 711
property float x
property float y
property float z
property float nx
property float ny
property float nz
element face 1418
property list uchar int vertex_indices
end_header
25.031 1.551 13.932 -0.753 0.096 -0.651
25.184 1.895 13.708 -0.855 -0.132 -0.501
25.313 1.232 12.749 -0.941 0.309 0.138
26.156 2.199 15.787 -0.161 0.085 0.983
25.926 1.832 15.846 -0.007 0.33 0.944
26.705 2.067 16.013 -0.527 0.174 0.832
26.867 0.322 15.47 -0.445 -0.698 0.56
26.052 0.476 15.423 0.098 -0.8 0.591
26.972 -0.22 15.128 -0.516 -0.337 0.788
26.153 -0.284 13.72 -0.926 -0.369 0.084
25.415 0.426 14.327 -0.434 -0.842 -0.321
25.696 0.106 13.145 -0.622 -0.629 0.467
26.163 -0.317 13.689 -0.92 -0.385 0.068
25.705 0.081 13.12 -0.614 -0.65 0.447
25.966 -0.27 13.113 -0.789 -0.417 0.451
27.078 1.312 11.499 0.005 0.713 -0.701
26.728 1.537 11.634 0.238 0.563 -0.791
27.711 2.549 11.8 -0.418 -0.112 -0.902
27.467 2.754 11.92 -0.54 -0.009 -0.842
26.538 1.696 11.728 0.08 0.696 -0.714
27.404 3.014 11.929 -0.498 -0.183 -0.848
26.89 3.266 12.496 -0.927 0.027 -0.375
26.023 1.948 12.295 -0.349 0.906 -0.241
25.956 2.672 13.215 -0.304 0.423 -0.854
26.89 3.664 12.81 -0.926 0.359 -0.113
25.956 3.104 13.556 -0.304 0.732 -0.61
26.806 3.59 13.053 -0.87 0.408 -0.275
26.958 3.973 13.789 -0.795 0.6 0.093
26.084 3.428 14.178 -0.212 0.963 -0.166
27.174 4.43 14.197 -0.939 0.295 -0.179
27.473 3.846 15.783 -0.789 0.003 0.614
26.337 2.935 15.518 -0.031 0.611 0.791
26.919 2.937 15.695 -0.419 0.609 0.673
27.493 3.832 15.808 -0.779 -0.004 0.627
26.939 2.923 15.72 -0.41 0.602 0.686
27.634 3.753 16.021 -0.873 0.048 0.485
28.195 3.257 16.445 -0.406 -0.365 0.838
27.66 2.285 16.265 -0.049 0.283 0.958
27.831 2.099 16.353 -0.163 0.407 0.899
28.268 0.742 16.067 0.202 -0.724 0.66
28.223 0.54 15.897 0.232 -0.589 0.774
29.654 0.016 16.083 -0.722 -0.24 0.649
29.613 -0.14 15.964 -0.743 -0.318 0.59
28.181 0.384 15.777 0.212 -0.667 0.714
28.287 -0.158 15.436 0.141 -0.306 0.942
29.664 -0.411 15.844 -0.717 -0.453 0.53
28.338 -0.428 15.316 0.167 -0.441 0.882
29.446 -1.21 15.414 -0.572 0.08 0.817
29.408 -1.266 15.392 -0.59 0.052 0.805
28.3 -0.484 15.294 0.148 -0.469 0.871
28.188 -0.714 15.217 0.223 -0.316 0.922
27.562 -1.478 14.041 -0.299 -0.952 -0.057
27.495 -1.466 13.783 -0.254 -0.96 0.115
28.532 -2.678 13.526 -0.946 -0.153 0.286
28.54 -2.482 12.468 -0.941 -0.038 -0.336
27.504 -1.256 12.645 -0.25 -0.855 -0.454
27.099 -1.063 12.231 0.02 -0.984 -0.178
29.081 -2.017 11.771 -0.623 0.236 -0.746
27.591 -0.64 11.598 0.371 -0.682 -0.631
28.676 -0.665 11.639 -0.352 -0.665 -0.658
28.682 -0.433 11.438 -0.349 -0.55 -0.759
27.596 -0.445 11.428 0.375 -0.542 -0.752
28.88 -0.37 11.27 -0.481 -0.592 -0.647
28.828 0.301 11.025 -0.524 -0.032 -0.851
27.539 0.285 11.162 0.334 -0.021 -0.942
28.615 0.43 11.123 -0.383 -0.118 -0.916
28.389 1.496 11.43 -0.495 0.415 -0.763
27.349 1.185 11.421 0.198 0.622 -0.757
28.032 2.399 11.707 -0.257 -0.187 -0.948
29.352 1.893 11.377 -0.014 0.613 -0.79
28.995 2.796 11.654 0.224 0.011 -0.975
29.486 2.432 11.635 -0.103 0.254 -0.962
30.369 3.116 12.406 0.528 0.743 -0.411
30.041 3.606 12.566 0.747 0.417 -0.518
30.257 4.064 12.974 0.603 0.112 -0.79
28.17 4.92 13.119 -0.44 0.54 -0.717
27.954 4.462 12.712 -0.296 0.845 -0.446
27.783 4.343 12.545 -0.182 0.925 -0.334
27.752 4.851 13.418 -0.65 0.505 -0.568
27.458 4.289 12.777 -0.454 0.88 -0.141
27.536 4.394 13.011 -0.506 0.81 -0.296
30.401 3.106 12.429 0.551 0.736 -0.394
30.294 4.051 13.002 0.622 0.106 -0.776
30.837 4.002 13.271 0.26 0.138 -0.956
30.837 4.837 13.732 0.26 0.735 -0.627
30.295 5.04 13.547 0.622 0.6 -0.504
31.031 5.969 14.278 0.131 -0.02 -0.991
30.306 6.475 14.467 -0.386 0.342 -0.857
29.437 5.639 13.77 0.193 0.899 -0.392
29.184 5.725 13.781 0.362 0.842 -0.4
28.517 5.804 14.704 -0.194 0.909 0.37
28.579 5.741 14.957 -0.236 0.951 0.201
29.581 6.562 15.469 -0.904 0.404 -0.14
29.747 5.88 16.524 -0.786 -0.083 0.613
28.775 4.934 16.205 -0.138 0.547 0.826
29.684 4.773 17.238 -0.744 0.654 0.137
29.491 4.433 17.37 -0.882 0.411 0.232
28.547 4.531 16.362 -0.252 0.346 0.904
28.454 4.297 16.452 -0.19 0.502 0.844
29.551 3.191 17.419 -0.839 -0.476 0.266
28.509 3.154 16.496 -0.144 -0.451 0.881
28.145 1.996 16.405 0.099 0.321 0.942
30.037 2.673 17.336 -0.491 -0.846 0.207
28.592 1.518 16.329 0.472 -0.076 0.878
30.07 1.014 16.42 -0.514 0.26 0.818
31.81 2.981 17.171 0.775 -0.626 0.089
32.169 1.379 16.225 0.535 0.442 0.72
32.83 3.2 16.362 0.094 -0.772 0.628
32.678 3.657 14.229 -0.014 -0.446 -0.895
31.989 1.92 13.7 0.445 0.712 -0.542
31.527 3.413 13.777 0.753 -0.283 -0.594
31.393 3.38 13.645 0.657 -0.306 -0.689
31.83 1.881 13.543 0.366 0.693 -0.621
30.957 2.484 12.803 0.948 0.291 -0.127
30.95 2.156 12.522 0.943 0.057 -0.328
31.822 1.493 13.21 0.362 0.499 -0.787
31.085 1.567 12.427 0.853 0.45 -0.265
31.229 0.575 12.199 0.924 -0.046 -0.379
31.965 0.502 12.983 0.434 0.003 -0.901
31.747 -0.298 12.553 0.579 0.536 -0.614
32.254 -0.646 12.942 0.832 0.362 -0.419
32.472 0.153 13.373 0.687 -0.171 -0.706
32.686 -0.756 13.388 0.545 0.435 -0.717
33.124 -0.642 13.988 0.764 0.492 -0.417
32.911 0.267 13.972 0.906 -0.114 -0.407
33.142 -0.156 14.317 0.752 0.168 -0.637
30.662 -0.699 16.575 -0.707 -0.151 0.691
30.243 -0.317 16.4 -0.427 -0.406 0.808
30.456 -1.226 16.416 -0.57 0.2 0.797
29.934 -1.358 15.902 -0.831 0.134 0.54
29.721 -0.449 15.886 -0.689 -0.472 0.551
29.503 -1.248 15.456 -0.543 0.061 0.837
29.967 -2.494 15.591 -0.815 -0.434 0.385
29.535 -2.384 15.145 -0.527 -0.507 0.682
29.539 -3.369 14.916 -0.53 0.149 0.835
28.951 -3.226 14.289 -0.824 0.221 0.522
28.947 -2.241 14.519 -0.821 -0.436 0.369
28.852 -2.671 14.119 -0.758 -0.149 0.635
28.834 -2.652 14.102 -0.768 -0.138 0.625
28.928 -2.22 14.501 -0.83 -0.425 0.36
27.815 -1.456 14.524 -0.088 -0.935 0.345
31.619 -2.649 11.86 0.51 0.51 -0.693
31.332 -2.134 11.86 0.701 0.167 -0.693
31.614 -1.664 12.089 0.513 -0.147 -0.846
30.867 -1.148 11.813 0.139 0.111 -0.984
30.637 -1.655 11.603 0.293 0.449 -0.844
30.177 -0.248 11.286 0.6 -0.49 -0.633
29.013 -0.518 11.334 -0.37 -0.715 -0.593
29.247 -1.979 11.661 -0.525 0.258 -0.811
28.854 -0.624 11.521 -0.263 -0.645 -0.717
30.978 -1.04 11.847 0.194 0.165 -0.967
30.263 -0.164 11.313 0.671 -0.42 -0.611
30.46 -0.168 11.494 0.54 -0.417 -0.731
32.217 -2.788 12.468 0.809 0.44 -0.389
32.213 -1.803 12.697 0.812 -0.216 -0.542
32.645 -1.912 13.143 0.524 -0.143 -0.839
32.231 -2.803 12.479 0.816 0.432 -0.383
32.658 -1.928 13.155 0.531 -0.151 -0.834
32.855 -2.527 13.228 0.4 0.248 -0.882
33.781 -2.032 14.791 0.863 0.495 -0.1
33.584 -1.434 14.718 0.994 0.096 -0.052
34.092 -2.247 15.245 0.655 0.639 -0.403
34.059 -2.079 15.546 0.636 0.738 -0.227
33.548 -1.252 15.042 0.976 0.187 0.11
33.536 -0.724 15.297 0.984 -0.166 -0.061
34.065 -2.063 15.62 0.639 0.747 -0.183
33.542 -0.708 15.372 0.988 -0.156 -0.017
34.068 -1.928 15.951 0.637 0.657 -0.403
32.601 -2.248 17.288 -0.585 0.39 0.711
31.789 -1.09 16.97 -0.043 -0.381 0.923
32.312 -2.445 17.219 -0.392 0.522 0.758
32.24 -2.476 17.201 -0.434 0.504 0.747
31.718 -1.121 16.952 -0.086 -0.4 0.913
31.592 -1.68 16.821 -0.002 -0.027 1
31.988 -2.705 17.162 -0.582 0.369 0.724
31.321 -1.926 16.78 -0.138 -0.15 0.979
31.518 -2.525 16.853 -0.269 0.249 0.93
30.177 -3.109 15.676 -0.939 -0.043 0.342
29.981 -2.51 15.603 -0.808 -0.442 0.39
29.553 -3.385 14.927 -0.523 0.141 0.841
30.445 -3.931 15.756 -0.805 -0.454 0.382
29.821 -4.208 15.008 -0.389 -0.27 0.881
30.309 -4.311 15.323 -0.714 -0.201 0.671
32.783 -3.767 13.059 0.741 0.119 -0.661
32.482 -3.622 12.573 0.941 0.023 -0.337
33.106 -3.346 13.321 0.525 -0.161 -0.835
33.027 -4.75 14.049 0.885 -0.459 -0.079
33.369 -4.403 14.386 0.657 -0.69 -0.303
33.735 -4.721 15.094 0.413 -0.478 -0.775
33.77 -4.686 15.092 0.442 -0.449 -0.776
33.414 -4.358 14.384 0.679 -0.668 -0.304
33.751 -4.41 14.867 0.455 -0.633 -0.626
32.426 -4.979 16.317 -0.678 -0.693 0.244
32.144 -4.76 16.33 -0.49 -0.839 0.235
31.686 -4.735 15.958 -0.185 -0.856 0.483
32.438 -5.003 16.277 -0.668 -0.713 0.211
31.701 -4.766 15.907 -0.177 -0.871 0.458
31.476 -5.087 15.464 -0.027 -0.657 0.753
32.502 4.644 14.144 -0.14 0.259 -0.956
31.351 4.4 13.693 0.627 0.422 -0.655
31.818 4.812 14.117 0.316 0.147 -0.937
31.28 5.297 14.167 0.017 0.416 -0.909
30.875 4.828 13.737 0.287 0.728 -0.623
31.068 5.959 14.284 0.158 -0.026 -0.987
32.046 5.545 14.534 0.442 0.554 -0.705
31.746 6.179 14.609 0.642 0.131 -0.755
32.704 5.292 14.514 0.004 0.722 -0.692
33.074 5.535 15.978 0.269 0.896 0.354
32.117 6.422 16.073 0.907 0.304 0.291
32.465 5.819 16.189 0.675 0.706 0.214
31.023 5.524 17.3 -0.126 0.542 0.831
30.841 6.16 17.056 -0.004 0.117 0.993
30.778 5.054 17.77 0.038 0.855 0.517
32.39 4.238 17.162 0.633 -0.172 0.755
31.987 3.916 17.649 0.902 0.042 0.43
33.008 4.136 16.84 0.221 -0.104 0.97
29.971 -5.556 13.042 -0.314 -0.944 -0.102
29.916 -5.535 12.781 -0.277 -0.958 0.072
24.865 1.909 14.448 -0.892 0.395 -0.221
25.003 2.283 14.268 -0.984 0.145 -0.101
24.997 2.103 15.054 -0.781 0.556 0.284
25.147 2.493 14.926 -0.881 0.295 0.369
25.39 2.074 15.571 -0.454 0.532 0.715
25.573 2.462 15.488 -0.577 0.273 0.77
26.015 1.338 15.906 0.067 -0.082 0.994
26.819 1.431 16.091 -0.469 -0.144 0.871
26.06 0.856 15.756 0.104 -0.483 0.869
26.877 0.812 15.898 -0.441 -0.454 0.775
26.54 0.204 15.183 -0.228 -0.619 0.751
25.676 0.282 14.916 -0.216 -0.962 0.169
26.148 0.002 14.654 -0.53 -0.775 0.344
26.489 -0.469 14.477 -0.757 -0.461 0.462
25.875 0.152 14.04 -0.741 -0.659 -0.13
25.636 0.378 13.725 -0.581 -0.81 0.08
25.039 0.918 14.105 -0.746 -0.432 -0.506
25.308 0.807 13.531 -0.925 -0.358 -0.124
25.321 0.598 12.923 -0.934 -0.219 0.282
25.301 1.361 13.38 -0.933 0.223 -0.282
25.57 0.04 12.51 -0.727 -0.684 -0.062
25.82 -0.313 12.451 -0.894 -0.448 -0.022
25.652 0.245 11.924 -0.659 -0.514 -0.55
25.909 -0.091 11.814 -0.83 -0.29 -0.476
25.928 0.638 11.523 -0.429 -0.186 -0.884
26.209 0.336 11.378 -0.616 0.016 -0.788
26.323 1.112 11.417 -0.099 0.209 -0.973
26.638 0.851 11.263 -0.31 0.383 -0.87
27.238 1.997 11.889 -0.102 0.256 -0.961
27.049 2.155 11.982 -0.261 0.39 -0.883
27.027 2.286 12.038 -0.247 0.303 -0.921
26.628 2.481 12.479 -0.752 0.55 -0.363
26.032 2.224 12.826 -0.355 0.722 -0.594
25.558 1.665 12.469 -0.736 0.67 -0.096
25.595 1.958 12.989 -0.761 0.474 -0.443
25.451 2.365 13.403 -0.664 0.203 -0.719
25.365 1.552 13.252 -0.976 0.096 -0.198
26.528 2.931 12.96 -0.685 0.251 -0.684
26.528 3.291 13.245 -0.685 0.607 -0.403
26.758 3.788 14.226 -0.662 0.723 -0.198
26.096 3.348 14.931 -0.203 0.906 0.372
26.77 3.712 14.937 -0.652 0.663 0.367
27.188 4.335 15.088 -0.931 0.248 0.267
26.997 3.322 15.492 -0.472 0.353 0.808
27.362 3.3 15.802 -0.692 0.351 0.631
27.954 2.776 16.249 -0.245 -0.044 0.968
27.335 1.186 16.23 -0.212 -0.267 0.94
27.578 1.244 16.326 -0.374 -0.305 0.876
28.999 0.38 15.815 -0.285 -0.482 0.828
28.962 0.243 15.71 -0.309 -0.573 0.759
27.504 0.287 15.722 -0.127 -0.716 0.687
27.61 -0.255 15.381 -0.197 -0.354 0.914
29.011 -0.085 15.543 -0.342 -0.354 0.87
29.057 -0.328 15.436 -0.313 -0.508 0.802
28.929 -0.786 15.21 -0.227 -0.203 0.953
28.895 -0.837 15.19 -0.248 -0.234 0.94
27.292 -0.455 15.186 -0.356 -0.454 0.817
27.404 -0.691 15.133 -0.431 -0.297 0.852
26.877 -0.96 14.409 -0.563 -0.707 0.428
27.082 -1.084 14.528 -0.699 -0.624 0.349
28.182 -1.916 13.598 -0.712 -0.66 0.238
28.189 -1.744 12.667 -0.707 -0.53 -0.469
26.982 -1.202 13.092 -0.511 -0.828 -0.231
26.658 -1.018 12.609 -0.295 -0.951 0.091
26.507 -0.869 13.462 -0.749 -0.661 -0.046
26.257 -0.736 12.921 -0.582 -0.75 0.315
27.779 -1.27 12.43 -0.434 -0.846 -0.311
28.302 -1.785 12.516 -0.782 -0.503 -0.368
28.126 -0.972 11.983 0.014 -0.46 -0.888
28.667 -1.471 12.046 -0.346 -0.128 -0.929
28.246 -0.315 11.463 -0.059 -0.629 -0.775
28.199 0.297 11.24 -0.105 -0.03 -0.994
27.697 1.748 11.737 -0.033 0.247 -0.968
27.437 1.869 11.813 -0.235 0.341 -0.91
29.53 3.353 11.961 0.492 0.29 -0.821
29.938 2.903 11.894 0.22 0.591 -0.776
29.597 3.971 12.393 0.525 0.599 -0.605
29.813 4.428 12.801 0.381 0.294 -0.877
29.067 4.251 12.36 0.26 0.739 -0.622
29.283 4.708 12.767 0.116 0.434 -0.893
28.502 4.42 12.469 -0.023 0.824 -0.567
28.718 4.877 12.877 -0.167 0.519 -0.839
28.349 3.656 11.82 -0.099 0.442 -0.892
28.09 3.716 11.851 0.074 0.402 -0.913
30.248 3.541 12.759 0.609 0.46 -0.646
30.28 3.53 12.782 0.631 0.453 -0.63
30.59 5.448 14.057 0.425 0.328 -0.844
29.89 5.937 14.239 -0.109 0.701 -0.705
29.309 5.677 13.778 0.278 0.874 -0.397
28.738 5.172 13.095 -0.156 0.666 -0.729
28.69 5.263 13.181 -0.124 0.605 -0.786
28.641 5.362 13.257 -0.091 0.54 -0.837
27.77 4.984 13.529 -0.641 0.572 -0.512
27.833 5.097 13.565 -0.682 0.497 -0.536
27.887 5.215 13.594 -0.719 0.418 -0.556
27.682 5.298 14.556 -0.684 0.729 0.001
27.755 5.375 14.474 -0.733 0.678 0.056
27.819 5.46 14.393 -0.776 0.621 0.11
28.549 5.767 14.829 -0.216 0.933 0.287
29.191 6.02 15.207 -0.643 0.765 0.034
28.527 5.422 15.659 -0.262 0.791 0.553
29.148 5.76 15.78 -0.676 0.566 0.472
29.537 6.292 16.063 -0.935 0.211 0.284
29.351 5.362 16.226 -0.521 0.262 0.812
29.314 4.739 16.63 -0.497 0.677 0.543
29.127 4.41 16.758 -0.639 0.426 0.64
29.076 4.277 16.807 -0.605 0.515 0.607
29.125 3.262 16.846 -0.555 -0.523 0.647
28.33 2.584 16.322 -0.025 -0.071 0.997
28.053 2.675 16.276 -0.311 0.023 0.95
28.789 2.416 16.403 -0.33 0.041 0.943
29.303 2.853 16.774 -0.673 -0.25 0.696
29.056 2.132 16.358 0.163 -0.485 0.859
29.584 2.553 16.726 -0.189 -0.766 0.614
29.337 1.243 16.156 -0.025 0.107 0.994
29.028 0.503 15.906 -0.305 -0.564 0.767
30.253 1.66 16.517 -0.636 -0.171 0.753
30.241 2.253 16.845 -0.628 -0.566 0.535
30.802 0.892 16.723 -0.148 0.199 0.969
30.793 1.57 16.74 -0.142 -0.253 0.957
30.74 2.17 17.051 -0.107 -0.653 0.75
30.655 2.57 17.591 -0.05 -0.92 0.39
31.587 1.029 16.649 0.245 0.267 0.932
31.372 1.67 16.686 0.388 -0.161 0.908
31.276 2.263 17.001 0.452 -0.556 0.698
31.318 2.685 17.53 0.424 -0.837 0.345
31.801 1.929 16.373 0.78 0.075 0.621
31.673 2.502 16.711 0.866 -0.307 0.395
32.25 2.031 15.989 0.481 0.007 0.877
32.488 2.685 16.039 0.323 -0.429 0.844
32.744 1.243 15.64 0.823 0.374 0.428
32.665 1.933 15.567 0.875 -0.085 0.476
32.871 2.595 15.649 0.738 -0.527 0.421
33.316 3.086 15.868 0.441 -0.854 0.276
32.92 1.318 14.831 0.911 0.411 0.023
32.793 1.987 14.984 0.996 -0.035 -0.078
32.988 2.644 15.111 0.866 -0.473 -0.163
33.465 3.148 15.185 0.548 -0.809 -0.212
32.634 1.574 14.095 0.768 0.54 -0.345
32.586 2.172 14.452 0.8 0.141 -0.583
32.797 2.815 14.62 0.659 -0.287 -0.695
33.223 3.365 14.562 0.375 -0.654 -0.657
32.12 2.421 14.167 0.358 0.378 -0.854
32.368 3.045 14.357 0.193 -0.038 -0.981
31.603 2.611 13.885 0.702 0.252 -0.666
31.48 2.581 13.763 0.6 0.227 -0.767
31.287 2.103 13.234 0.728 0.546 -0.415
31.28 1.78 12.957 0.723 0.308 -0.618
33.055 0.677 14.417 0.979 0.091 -0.184
33.276 0.225 14.731 0.831 0.392 -0.393
33.026 1.001 14.948 0.964 0.253 0.081
33.249 0.527 15.225 0.815 0.57 -0.103
32.826 1.202 15.502 0.864 0.354 0.359
33.063 0.713 15.74 0.706 0.679 0.2
32.479 1.256 16.016 0.69 0.38 0.615
32.74 0.763 16.218 0.516 0.709 0.481
32.024 1.156 16.43 0.463 0.331 0.822
32.318 0.671 16.602 0.267 0.654 0.707
31.515 0.915 16.695 0.209 0.21 0.955
31.845 0.446 16.849 -0.011 0.523 0.853
31.011 0.56 16.782 -0.043 0.033 0.999
31.376 0.117 16.93 -0.287 0.329 0.9
30.57 0.133 16.68 -0.264 -0.181 0.947
30.966 -0.281 16.835 -0.528 0.095 0.844
29.453 -1.834 15.36 -0.568 -0.232 0.789
29.884 -1.944 15.806 -0.856 -0.159 0.492
28.454 -1.716 14.449 -0.514 -0.761 0.394
29.142 -1.851 15.076 -0.723 -0.24 0.647
28.622 -1.426 14.9 -0.377 -0.524 0.764
27.982 -1.169 14.971 0.05 -0.695 0.717
28.831 -0.966 15.149 -0.206 -0.148 0.967
28.447 -1.901 14.175 -0.51 -0.638 0.577
28.225 -1.92 13.751 -0.741 -0.658 0.136
28.584 -2.862 13.56 -0.915 -0.261 0.306
28.663 -3.431 13.688 -0.968 0.118 0.221
28.541 -2.983 12.924 -0.941 -0.332 -0.067
28.617 -3.561 13.004 -0.991 0.053 -0.121
28.729 -3.017 12.304 -0.83 -0.352 -0.432
28.819 -3.598 12.338 -0.89 0.035 -0.454
29.12 -2.958 11.791 -0.6 -0.318 -0.734
29.24 -3.535 11.785 -0.68 0.067 -0.73
29.658 -2.816 11.458 -0.283 -0.234 -0.93
29.818 -3.381 11.427 -0.39 0.143 -0.909
30.264 -2.61 11.354 0.073 -0.113 -0.991
30.471 -3.16 11.316 -0.064 0.254 -0.965
30.851 -2.371 11.495 0.418 0.027 -0.908
31.101 -2.904 11.467 0.251 0.382 -0.889
30.301 -0.946 11.621 0.517 -0.024 -0.856
29.95 -1.886 11.436 -0.112 0.313 -0.943
29.775 -1.123 11.492 0.005 -0.195 -0.981
29.602 -0.44 11.146 0.12 -0.65 -0.75
29.237 -1.194 11.664 -0.518 -0.265 -0.813
29.13 -1.262 11.745 -0.447 -0.219 -0.867
28.977 -1.297 11.847 -0.553 -0.243 -0.797
30.466 -0.669 11.671 0.406 -0.208 -0.89
30.555 -0.583 11.699 0.476 -0.14 -0.868
30.111 0.518 11.056 0.545 0.148 -0.825
30.265 0.709 11.163 0.443 0.021 -0.896
29.416 0.743 10.916 -0.034 0.336 -0.941
29.372 0.998 10.984 -0.004 0.166 -0.986
30.917 0.211 11.759 0.768 -0.227 -0.598
31.435 -0.661 12.113 0.423 0.354 -0.834
32.3 -1.214 12.758 0.856 0.078 -0.512
32.732 -1.323 13.204 0.568 0.151 -0.809
32.343 -2.37 12.887 0.726 0.162 -0.669
32.355 -2.384 12.898 0.733 0.153 -0.662
33.135 -1.723 13.549 0.77 -0.049 -0.637
33.332 -2.322 13.622 0.639 0.351 -0.685
33.456 -1.552 14.09 0.93 0.037 -0.366
33.653 -2.151 14.163 0.799 0.436 -0.414
33.445 -0.95 14.469 0.924 0.338 -0.176
33.44 -0.442 14.765 0.928 -0 -0.373
33.618 -1.465 15.453 0.93 0.328 -0.165
33.623 -1.451 15.518 0.934 0.339 -0.114
33.632 -1.371 15.706 0.928 0.286 -0.24
33.432 -0.467 16.055 0.923 -0.014 0.385
33.545 -1.183 16.24 0.847 0.463 0.262
33.975 -1.726 16.523 0.56 0.825 0.073
33.011 -0.46 16.654 0.675 -0.011 0.738
33.216 -1.178 16.708 0.538 0.467 0.702
33.623 -1.721 17.024 0.267 0.829 0.491
32.403 -0.691 16.993 0.318 -0.147 0.937
32.742 -1.358 16.973 0.092 0.298 0.95
33.115 -1.914 17.307 -0.157 0.669 0.727
32.262 -1.67 16.955 -0.359 0.005 0.933
32.099 -1.783 16.908 -0.25 0.081 0.965
32.037 -1.81 16.892 -0.298 0.06 0.953
31.143 -0.945 16.856 -0.424 -0.296 0.856
30.974 -1.49 16.718 -0.311 0.068 0.948
30.749 -2.141 16.559 -0.423 -0.258 0.869
30.946 -2.74 16.632 -0.555 0.142 0.82
30.285 -2.343 16.152 -0.655 -0.358 0.665
30.482 -2.942 16.224 -0.787 0.041 0.616
29.855 -2.927 15.183 -0.724 -0.164 0.67
29.842 -2.913 15.172 -0.732 -0.155 0.664
29.911 -4.835 14.718 -0.344 -0.583 0.736
30.392 -4.894 15.053 -0.665 -0.544 0.512
30.181 -5.318 14.295 -0.209 -0.825 0.525
30.643 -5.344 14.661 -0.518 -0.808 0.281
30.592 -5.589 13.803 -0.004 -0.96 0.278
31.026 -5.595 14.203 -0.293 -0.956 0.012
31.085 -5.607 13.311 0.243 -0.97 0.032
31.484 -5.612 13.745 -0.023 -0.966 -0.257
31.588 -5.37 12.891 0.494 -0.851 -0.177
31.951 -5.392 13.355 0.252 -0.836 -0.487
32.028 -4.912 12.605 0.714 -0.622 -0.321
32.36 -4.966 13.089 0.493 -0.586 -0.643
32.341 -4.3 12.493 0.871 -0.316 -0.376
32.652 -4.397 12.985 0.664 -0.251 -0.704
33.388 -3.903 13.788 0.666 -0.44 -0.602
33.045 -4.285 13.494 0.895 -0.185 -0.406
33.735 -3.813 14.248 0.84 -0.395 -0.372
34.05 -3.902 14.741 0.63 -0.335 -0.7
33.915 -3.191 14.276 0.93 -0.084 -0.358
34.217 -3.325 14.767 0.729 0.005 -0.685
33.931 -2.572 14.465 0.938 0.226 -0.263
34.232 -2.749 14.943 0.737 0.344 -0.581
34.371 -4.149 15.399 0.819 -0.48 -0.313
34.289 -4.468 15.538 0.874 -0.268 -0.405
34.507 -4.01 16.235 0.9 -0.398 0.179
34.403 -4.352 16.237 0.969 -0.171 0.177
34.097 -4.056 16.987 0.658 -0.425 0.621
34.06 -4.39 16.866 0.683 -0.203 0.701
33.33 -4.267 17.307 0.207 -0.549 0.81
33.418 -4.566 17.134 0.148 -0.349 0.925
32.56 -4.544 17.049 -0.246 -0.712 0.658
32.774 -4.798 16.918 -0.388 -0.543 0.745
31.885 -4.374 16.713 -0.643 -0.612 0.46
31.407 -4.32 16.37 -0.324 -0.648 0.689
31.765 -3.858 17 -0.713 -0.309 0.629
31.278 -3.765 16.679 -0.388 -0.371 0.843
31.801 -3.278 17.157 -0.692 0.032 0.721
31.317 -3.141 16.847 -0.369 -0.059 0.928
31.008 -4.423 15.962 -0.524 -0.7 0.485
30.832 -4.769 15.515 -0.407 -0.47 0.784
32.011 -4.94 15.796 -0.384 -0.755 0.531
31.992 -5.412 14.952 0.276 -0.848 0.452
32.433 -5.206 15.377 -0.018 -0.985 0.169
32.869 -5.275 15.849 -0.309 -0.94 -0.146
32.572 -5.286 14.422 0.617 -0.774 0.141
32.909 -5.103 14.943 0.393 -0.896 -0.206
33.355 -5.169 15.406 0.096 -0.852 -0.515
33.282 -4.664 14.637 0.715 -0.517 -0.47
32.757 -2.973 17.578 -0.13 0.212 0.969
32.974 -2.689 17.589 -0.274 0.022 0.961
33.451 -3.327 17.564 0.278 0.003 0.961
33.554 -2.985 17.577 0.209 -0.224 0.952
34.128 -3.372 17.183 0.676 -0.023 0.736
34.121 -3.023 17.258 0.681 -0.256 0.686
34.531 -3.091 16.579 0.914 0.142 0.381
34.458 -2.788 16.753 0.962 -0.06 0.265
34.507 -2.592 15.982 0.899 0.436 0.03
34.438 -2.37 16.254 0.946 0.288 -0.151
30.693 1.647 11.81 0.657 0.491 -0.573
30.619 2.224 12.001 0.706 0.106 -0.7
30.073 1.764 11.435 0.346 0.549 -0.761
30.095 2.323 11.684 0.332 0.176 -0.927
31.042 2.933 13.292 0.891 -0.008 -0.453
30.552 3.482 12.962 0.45 0.485 -0.75
32.046 3.591 14.117 0.407 -0.402 -0.82
31.889 4.47 14.041 0.269 0.375 -0.887
30.937 5.339 14.136 0.246 0.387 -0.889
30.903 5.347 14.131 0.216 0.395 -0.893
32.171 5.664 14.682 0.359 0.474 -0.804
32.097 6.486 15.269 0.893 0.35 -0.284
32.48 5.935 15.263 0.637 0.718 -0.28
33.054 5.599 15.173 0.254 0.942 -0.22
32.497 5.878 15.972 0.653 0.667 0.359
31.627 6.352 16.773 0.557 0.254 0.791
31.911 5.74 16.979 0.367 0.662 0.653
30.806 5.525 17.285 0.018 0.541 0.841
30.214 6.102 16.91 -0.452 0.076 0.889
30.256 5.473 17.157 -0.48 0.495 0.725
30.151 4.996 17.624 -0.41 0.813 0.413
29.845 5.278 16.817 -0.851 0.318 0.418
31.312 4.825 17.869 0.42 0.692 0.588
31.627 5.265 17.411 0.21 0.398 0.893
31.741 4.422 17.826 0.726 0.404 0.557
32.112 4.81 17.363 0.479 0.145 0.866
32.402 4.031 17.125 0.625 -0.034 0.78
32.246 3.21 16.705 0.484 -0.779 0.399
33.114 4.967 16.629 0.297 0.49 0.819
32.51 5.178 16.924 0.7 0.35 0.622
29.18 6.027 15.06 -0.636 0.76 0.133
29.748 5.959 14.273 -0.014 0.686 -0.728
29.173 -5.01 12.838 -0.713 -0.671 -0.204
29.295 -5.11 12.623 -0.795 -0.604 -0.06
29.173 -4.407 12.054 -0.713 -0.37 -0.596
29.295 -4.641 12.013 -0.795 -0.214 -0.568
29.971 -4.351 11.474 -0.314 -0.342 -0.886
29.916 -4.598 11.562 -0.277 -0.177 -0.944
30.77 -4.897 11.678 0.085 -0.615 -0.784
30.537 -5.023 11.72 0.24 -0.531 -0.812
30.77 -5.5 12.462 0.085 -0.916 -0.392
30.537 -5.491 12.33 0.24 -0.922 -0.304
29.629 5.06 16.642 -0.707 0.463 0.534
29.874 1.712 16.296 -0.383 -0.206 0.901
29.874 2.268 16.563 -0.383 -0.576 0.722
29.3 1.978 16.261 0 -0.383 0.924
31.911 2.482 16.339 0.707 -0.294 0.643
32.083 3.296 14.238 0.383 -0.206 -0.901
25.335 1.288 15.742 -0.5 -0.123 0.857
25.335 0.755 15.498 -0.5 -0.567 0.654
25.335 0.439 15.006 -0.5 -0.831 0.244
24.896 1.736 15.233 -0.866 0.25 0.433
24.896 1.136 15.233 -0.866 -0.25 0.433
24.896 0.836 14.713 -0.866 -0.5 -0
24.735 1.436 14.713 -1 0 0
25.508 3.175 14.41 -0.623 0.782 0
25.508 3.001 15.002 -0.623 0.658 0.423
25.508 3.001 13.818 -0.623 0.658 -0.423
25.12 2.687 14.41 -0.901 0.434 0
25.842 1.293 11.639 -0.5 0.36 -0.788
25.842 1.735 12.022 -0.5 0.729 -0.468
25.403 0.561 12.064 -0.866 -0.25 -0.433
25.403 1.161 12.064 -0.866 0.25 -0.433
26.759 -0.916 11.889 -0.223 -0.878 -0.423
26.759 -0.537 11.414 -0.223 -0.608 -0.762
26.759 0.01 11.15 -0.223 -0.217 -0.95
26.198 -0.736 12.173 -0.623 -0.75 -0.22
26.198 -0.403 11.654 -0.623 -0.512 -0.591
29.165 3.813 12.011 0.309 0.52 -0.796
27.402 3.665 12.001 -0.5 0.36 -0.788
27.402 4.107 12.384 -0.5 0.729 -0.468
29.669 4.88 12.962 0.309 0.52 -0.796
27.875 5.335 15.173 -0.588 0.747 0.31
27.875 4.984 15.698 -0.588 0.572 0.572
27.433 4.858 15.142 -0.809 0.509 0.294
27.433 4.428 15.572 -0.809 0.294 0.509
28.026 1.184 16.397 -0 -0.355 0.935
32.716 1.083 13.767 0.809 0.294 -0.509
32.274 1.114 13.29 0.588 0.31 -0.747
29.845 -2.264 11.372 -0.174 0.091 -0.981
29.29 -2.572 11.575 -0.5 -0.091 -0.861
29.457 -0.086 10.924 -0 -0.355 -0.935
29.457 0.485 10.855 -0 0.121 -0.993
30.998 0.666 11.78 0.809 -0 -0.588
30.998 1.254 11.938 0.809 0.294 -0.509
30.556 1.285 11.461 0.588 0.31 -0.747
29.38 1.397 11.094 -0 0.365 -0.931
31.72 7.091 15.666 0.623 0.782 0
31.72 6.917 16.258 0.623 0.658 0.423
31.72 6.917 15.074 0.623 0.658 -0.423
31.159 7.361 15.666 0.223 0.975 0
31.159 7.226 16.258 0.223 0.878 0.423
31.159 6.847 16.733 0.223 0.608 0.762
31.159 6.847 14.599 0.223 0.608 -0.762
31.159 7.226 15.074 0.223 0.878 -0.423
30.535 7.361 15.666 -0.223 0.975 0
30.535 7.226 16.258 -0.223 0.878 0.423
30.535 6.847 16.733 -0.223 0.608 0.762
30.535 6.847 14.599 -0.223 0.608 -0.762
30.535 7.226 15.074 -0.223 0.878 -0.423
29.974 7.091 15.666 -0.623 0.782 0
29.974 6.917 16.258 -0.623 0.658 0.423
29.974 6.451 16.662 -0.623 0.325 0.711
28.75 5.777 13.703 -0 0.885 -0.465
28.15 5.753 14.261 -0.5 0.866 0
28.15 5.588 13.699 -0.5 0.729 -0.468
31.598 3.701 18.129 0.623 -0.111 0.774
31.598 3.14 17.873 0.623 -0.512 0.591
31.037 4.708 18.113 0.223 0.608 0.762
31.037 4.161 18.377 0.223 0.217 0.95
31.037 3.553 18.377 0.223 -0.217 0.95
31.037 3.006 18.113 0.223 -0.608 0.762
30.413 4.708 18.113 -0.223 0.608 0.762
30.413 4.161 18.377 -0.223 0.217 0.95
30.413 3.553 18.377 -0.223 -0.217 0.95
30.413 3.006 18.113 -0.223 -0.608 0.762
29.852 4.312 18.042 -0.623 0.325 0.711
29.852 3.701 18.129 -0.623 -0.111 0.774
29.852 3.14 17.873 -0.623 -0.512 0.591
34.098 4.281 15.482 1 0 0
33.959 4.888 15.482 0.901 0.434 0
33.959 4.585 16.008 0.901 0.217 0.376
33.959 3.977 16.008 0.901 -0.217 0.376
33.959 3.674 15.482 0.901 -0.434 -0
33.959 3.977 14.956 0.901 -0.217 -0.376
33.959 4.585 14.956 0.901 0.217 -0.376
33.571 5.376 15.482 0.623 0.782 0
33.571 5.202 16.074 0.623 0.658 0.423
33.571 4.736 16.478 0.623 0.325 0.711
33.571 4.125 16.565 0.623 -0.111 0.774
33.571 3.564 16.309 0.623 -0.512 0.591
33.571 3.564 14.655 0.623 -0.512 -0.591
33.571 4.125 14.399 0.623 -0.111 -0.774
33.571 4.736 14.486 0.623 0.325 -0.711
33.571 5.202 14.89 0.623 0.658 -0.423
33.01 3.977 14.151 0.223 -0.217 -0.95
33.01 4.585 14.151 0.223 0.217 -0.95
33.01 5.132 14.415 0.223 0.608 -0.762
33.214 -1.038 13.804 0.809 0.294 -0.509
33.46 0.139 15.4 0.94 0.342 0
33.46 -0.151 15.904 0.94 0.171 0.296
33.46 -0.151 14.896 0.94 0.171 -0.296
33.165 0.477 15.991 0.766 0.541 0.348
33.165 0.012 16.394 0.766 0.267 0.585
32.713 0.013 16.8 0.5 0.268 0.824
32.158 0.304 16.899 0.174 0.439 0.882
32.158 -0.288 17.067 0.174 0.091 0.981
31.568 -0.288 17.067 -0.174 0.091 0.981
30.42 -1.626 16.44 -0.588 -0 0.809
32.217 -3.668 12.07 0.809 -0 -0.588
31.775 -4.812 12.102 0.588 -0.572 -0.572
31.775 -4.287 11.751 0.588 -0.31 -0.747
31.775 -3.668 11.628 0.588 0 -0.809
31.775 -3.049 11.751 0.588 0.31 -0.747
31.217 -5.341 12.341 0.309 -0.836 -0.453
31.217 -4.956 11.847 0.309 -0.644 -0.7
31.217 -4.432 11.504 0.309 -0.382 -0.871
31.217 -3.825 11.35 0.309 -0.079 -0.948
30.599 -4.113 11.296 -0 -0.223 -0.975
30.599 -3.519 11.252 -0 0.075 -0.997
29.981 -5.544 13.559 -0.309 -0.938 0.157
29.981 -3.825 11.35 -0.309 -0.079 -0.948
29.423 -4.287 14.741 -0.588 -0.31 0.747
29.423 -4.812 14.39 -0.588 -0.572 0.572
29.423 -5.163 13.865 -0.588 -0.747 0.31
28.981 -3.668 14.422 -0.809 -0 0.588
28.981 -4.256 14.264 -0.809 -0.294 0.509
28.981 -4.686 13.834 -0.809 -0.509 0.294
28.981 -4.844 13.246 -0.809 -0.588 0
28.697 -3.977 13.781 -0.951 -0.155 0.268
28.697 -4.286 13.246 -0.951 -0.309 -0
28.697 -3.977 12.711 -0.951 -0.155 -0.268
33.673 -3.023 13.816 0.809 -0 -0.588
34.678 -3.333 15.931 1 0 0
34.575 -3.624 16.435 0.94 -0.171 0.296
34.575 -3.624 15.427 0.94 -0.171 -0.296
34.575 -3.042 15.427 0.94 0.171 -0.296
33.273 -3.791 17.541 0.174 -0.27 0.947
32.683 -3.791 17.541 -0.174 -0.27 0.947
32.128 -3.487 17.395 -0.5 -0.091 0.861
32.128 -4.069 17.206 -0.5 -0.433 0.75
34.342 -2.116 16.435 0.866 0.5 0
34.342 -2.416 16.955 0.866 0.25 0.433
33.903 -2.284 17.38 0.5 0.36 0.788
30.879 -3.642 16.487 -0.588 -0.31 0.747
32.825 -4.686 13.357 0.766 -0.421 -0.486
32.373 -5.41 13.877 0.5 -0.847 -0.18
31.818 -5.616 14.491 0.174 -0.968 0.181
31.818 -5.616 13.875 0.174 -0.968 -0.181
31.228 -5.393 15.064 -0.174 -0.837 0.518
31.228 -5.616 14.491 -0.174 -0.968 0.181
34.279 -4.747 16.024 0.866 -0.5 -0
33.84 -4.828 16.809 0.5 -0.567 0.654
33.84 -5.144 16.317 0.5 -0.831 0.244
33.84 -5.144 15.731 0.5 -0.831 -0.244
33.24 -5.045 16.82 -0 -0.749 0.663
33.24 -5.312 16.311 -0 -0.971 0.239
30.249 -5.283 11.899 -0 -0.749 -0.663
29.649 -5.382 12.402 -0.5 -0.831 -0.244
29.649 -5.066 11.91 -0.5 -0.567 -0.654
3 0 218 1
3 1 218 219
3 218 220 219
3 219 220 221
3 220 222 221
3 221 222 223
3 222 4 223
3 223 4 3
3 4 224 5
3 5 224 225
3 224 226 225
3 225 226 227
3 226 7 227
3 227 7 6
3 7 229 228
3 228 229 230
3 228 230 8
3 8 230 231
3 229 10 230
3 230 10 232
3 230 232 231
3 231 232 9
3 10 234 233
3 233 234 235
3 233 235 11
3 11 235 236
3 234 0 235
3 235 0 237
3 235 237 236
3 236 237 2
3 11 13 9
3 9 13 12
3 13 238 14
3 14 238 239
3 238 240 239
3 239 240 241
3 240 242 241
3 241 242 243
3 242 244 243
3 243 244 245
3 244 16 245
3 245 16 15
3 16 19 246
3 246 19 247
3 246 247 17
3 17 247 18
3 19 22 248
3 248 22 249
3 248 249 20
3 20 249 21
3 22 251 250
3 250 251 252
3 250 252 23
3 23 252 253
3 251 2 252
3 252 2 254
3 252 254 253
3 253 254 1
3 23 25 255
3 255 25 256
3 255 256 21
3 21 256 24
3 25 28 26
3 26 28 27
3 28 258 257
3 257 258 259
3 257 259 29
3 29 259 260
3 258 31 259
3 259 31 261
3 259 261 260
3 260 261 30
3 31 3 32
3 32 3 5
3 32 34 30
3 30 34 33
3 34 37 262
3 262 37 263
3 262 263 35
3 35 263 36
3 37 264 38
3 38 264 265
3 264 40 265
3 265 40 39
3 40 43 266
3 266 43 267
3 266 267 41
3 41 267 42
3 43 268 44
3 44 268 269
3 268 6 269
3 269 6 8
3 44 46 270
3 270 46 271
3 270 271 42
3 42 271 45
3 46 49 272
3 272 49 273
3 272 273 47
3 47 273 48
3 49 274 50
3 50 274 275
3 274 276 275
3 275 276 277
3 276 52 277
3 277 52 51
3 52 55 278
3 278 55 279
3 278 279 53
3 53 279 54
3 55 280 56
3 56 280 281
3 280 282 281
3 281 282 283
3 282 12 283
3 283 12 14
3 56 58 284
3 284 58 286
3 284 286 285
3 285 286 287
3 285 287 54
3 54 287 57
3 58 61 59
3 59 61 60
3 61 64 288
3 288 64 289
3 288 289 62
3 62 289 63
3 64 67 65
3 65 67 66
3 67 15 290
3 290 15 291
3 290 291 68
3 68 291 17
3 68 70 66
3 66 70 69
3 70 292 71
3 71 292 293
3 292 73 293
3 293 73 72
3 73 294 74
3 74 294 295
3 294 296 295
3 295 296 297
3 296 298 297
3 297 298 299
3 298 76 299
3 299 76 75
3 76 300 77
3 77 300 301
3 300 18 301
3 301 18 20
3 77 79 75
3 75 79 78
3 79 24 80
3 80 24 26
3 80 27 78
3 78 27 29
3 74 82 302
3 302 82 303
3 302 303 72
3 72 303 81
3 82 85 83
3 83 85 84
3 85 88 304
3 304 88 305
3 304 305 86
3 86 305 87
3 88 307 306
3 306 307 308
3 306 308 89
3 89 308 309
3 307 310 308
3 308 310 311
3 308 311 309
3 309 311 312
3 310 313 311
3 311 313 314
3 311 314 312
3 312 314 315
3 313 91 314
3 314 91 316
3 314 316 315
3 315 316 90
3 91 318 317
3 317 318 319
3 317 319 92
3 92 319 320
3 318 94 319
3 319 94 321
3 319 321 320
3 320 321 93
3 94 97 322
3 322 97 323
3 322 323 95
3 95 323 96
3 97 33 98
3 98 33 35
3 98 100 324
3 324 100 325
3 324 325 96
3 96 325 99
3 100 36 326
3 326 36 327
3 326 327 101
3 101 327 38
3 101 103 328
3 328 103 330
3 328 330 329
3 329 330 331
3 329 331 99
3 99 331 102
3 103 39 332
3 332 39 333
3 332 333 104
3 104 333 41
3 104 336 334
3 334 336 337
3 334 337 335
3 335 337 338
3 335 338 102
3 102 338 339
3 336 340 337
3 337 340 341
3 337 341 338
3 338 341 342
3 338 342 339
3 339 342 343
3 340 106 341
3 341 106 344
3 341 344 342
3 342 344 345
3 342 345 343
3 343 345 105
3 106 348 346
3 346 348 349
3 346 349 347
3 347 349 350
3 347 350 107
3 107 350 351
3 348 352 349
3 349 352 353
3 349 353 350
3 350 353 354
3 350 354 351
3 351 354 355
3 352 356 353
3 353 356 357
3 353 357 354
3 354 357 358
3 354 358 355
3 355 358 359
3 356 109 357
3 357 109 360
3 357 360 358
3 358 360 361
3 358 361 359
3 359 361 108
3 109 112 362
3 362 112 363
3 362 363 110
3 110 363 111
3 112 115 364
3 364 115 365
3 364 365 113
3 113 365 114
3 115 118 116
3 116 118 117
3 118 121 119
3 119 121 120
3 121 124 122
3 122 124 123
3 124 366 125
3 125 366 367
3 366 368 367
3 367 368 369
3 368 370 369
3 369 370 371
3 370 372 371
3 371 372 373
3 372 374 373
3 373 374 375
3 374 376 375
3 375 376 377
3 376 378 377
3 377 378 379
3 378 380 379
3 379 380 381
3 380 127 381
3 381 127 126
3 127 130 128
3 128 130 129
3 130 45 131
3 131 45 47
3 131 382 129
3 129 382 383
3 382 133 383
3 383 133 132
3 133 136 134
3 134 136 135
3 136 139 137
3 137 139 138
3 139 385 384
3 384 385 386
3 384 386 140
3 140 386 387
3 385 48 386
3 386 48 388
3 386 388 387
3 387 388 50
3 140 51 389
3 389 51 390
3 389 390 138
3 138 390 53
3 137 391 135
3 135 391 392
3 391 393 392
3 392 393 394
3 393 395 394
3 394 395 396
3 395 397 396
3 396 397 398
3 397 399 398
3 398 399 400
3 399 401 400
3 400 401 402
3 401 403 402
3 402 403 404
3 403 142 404
3 404 142 141
3 142 145 143
3 143 145 144
3 145 406 405
3 405 406 407
3 405 407 146
3 146 407 408
3 406 148 407
3 407 148 409
3 407 409 408
3 408 409 147
3 148 57 410
3 410 57 411
3 410 411 149
3 149 411 59
3 149 60 147
3 147 60 62
3 146 151 412
3 412 151 413
3 412 413 144
3 144 413 150
3 151 414 152
3 152 414 415
3 414 416 415
3 415 416 417
3 416 63 417
3 417 63 65
3 152 418 150
3 150 418 419
3 418 117 419
3 419 117 119
3 143 154 141
3 141 154 153
3 154 420 155
3 155 420 421
3 420 120 421
3 421 120 122
3 155 157 422
3 422 157 423
3 422 423 153
3 153 423 156
3 157 424 158
3 158 424 425
3 424 426 425
3 425 426 427
3 426 160 427
3 427 160 159
3 160 163 161
3 161 163 162
3 163 428 164
3 164 428 429
3 428 123 429
3 429 123 125
3 164 166 430
3 430 166 431
3 430 431 162
3 162 431 165
3 166 433 432
3 432 433 434
3 432 434 167
3 167 434 435
3 433 436 434
3 434 436 437
3 434 437 435
3 435 437 438
3 436 439 437
3 437 439 440
3 437 440 438
3 438 440 441
3 439 169 440
3 440 169 442
3 440 442 441
3 441 442 168
3 169 172 443
3 443 172 444
3 443 444 170
3 170 444 171
3 172 445 173
3 173 445 446
3 445 126 446
3 446 126 128
3 173 175 171
3 171 175 174
3 175 447 176
3 176 447 448
3 447 449 448
3 448 449 450
3 449 178 450
3 450 178 177
3 178 132 451
3 451 132 452
3 451 452 179
3 179 452 134
3 179 181 177
3 177 181 180
3 181 453 182
3 182 453 454
3 453 455 454
3 454 455 456
3 455 457 456
3 456 457 458
3 457 459 458
3 458 459 460
3 459 461 460
3 460 461 462
3 461 463 462
3 462 463 464
3 463 465 464
3 464 465 466
3 465 184 466
3 466 184 183
3 184 156 185
3 185 156 158
3 185 467 183
3 183 467 468
3 467 187 468
3 468 187 186
3 187 190 188
3 188 190 189
3 190 469 191
3 191 469 470
3 469 471 470
3 470 471 472
3 471 473 472
3 472 473 474
3 473 159 474
3 474 159 161
3 191 475 189
3 189 475 476
3 475 477 476
3 476 477 478
3 477 479 478
3 478 479 480
3 479 481 480
3 480 481 482
3 481 483 482
3 482 483 484
3 483 193 484
3 484 193 192
3 193 485 194
3 194 485 486
3 485 487 486
3 486 487 488
3 487 489 488
3 488 489 490
3 489 174 490
3 490 174 176
3 194 196 192
3 192 196 195
3 196 491 197
3 197 491 492
3 491 180 492
3 492 180 182
3 197 494 493
3 493 494 495
3 493 495 195
3 195 495 496
3 494 497 495
3 495 497 498
3 495 498 496
3 496 498 499
3 497 186 498
3 498 186 500
3 498 500 499
3 499 500 188
3 170 501 168
3 168 501 502
3 501 503 502
3 502 503 504
3 503 505 504
3 504 505 506
3 505 507 506
3 506 507 508
3 507 509 508
3 508 509 510
3 509 165 510
3 510 165 167
3 116 511 114
3 114 511 512
3 511 513 512
3 512 513 514
3 513 69 514
3 514 69 71
3 113 81 515
3 515 81 516
3 515 516 111
3 111 516 83
3 110 199 517
3 517 199 518
3 517 518 108
3 108 518 198
3 199 202 200
3 200 202 201
3 202 84 519
3 519 84 520
3 519 520 203
3 203 520 86
3 203 205 201
3 201 205 204
3 205 522 521
3 521 522 523
3 521 523 206
3 206 523 524
3 522 208 523
3 523 208 525
3 523 525 524
3 524 525 207
3 208 526 209
3 209 526 527
3 526 211 527
3 527 211 210
3 211 529 528
3 528 529 530
3 528 530 212
3 212 530 531
3 529 93 530
3 530 93 532
3 530 532 531
3 531 532 95
3 212 533 210
3 210 533 534
3 533 535 534
3 534 535 536
3 535 214 536
3 536 214 213
3 214 105 537
3 537 105 538
3 537 538 215
3 215 538 107
3 215 539 213
3 213 539 540
3 539 207 540
3 540 207 209
3 206 198 204
3 204 198 200
3 92 87 541
3 541 87 542
3 541 542 90
3 90 542 89
3 216 543 217
3 217 543 544
3 543 545 544
3 544 545 546
3 545 547 546
3 546 547 548
3 547 549 548
3 548 549 550
3 549 551 550
3 550 551 552
3 551 216 552
3 552 216 217
3 237 0 1
3 237 1 254
3 237 254 2
3 5 3 4
3 8 6 228
3 228 6 7
3 11 9 233
3 233 9 232
3 233 232 10
3 14 12 13
3 291 15 16
3 291 16 246
3 291 246 17
3 20 18 248
3 248 18 247
3 248 247 19
3 255 21 249
3 255 249 250
3 255 250 23
3 250 249 22
3 26 24 256
3 26 256 25
3 29 27 257
3 257 27 28
3 32 30 261
3 32 261 31
3 35 33 262
3 262 33 34
3 327 36 263
3 327 263 37
3 327 37 38
3 333 39 40
3 333 40 266
3 333 266 41
3 270 42 267
3 270 267 44
3 44 267 43
3 47 45 271
3 47 271 272
3 272 271 46
3 388 48 273
3 388 273 50
3 50 273 49
3 390 51 52
3 390 52 278
3 390 278 53
3 285 54 279
3 285 279 284
3 284 279 55
3 284 55 56
3 411 57 287
3 411 287 59
3 59 287 286
3 59 286 58
3 62 60 288
3 288 60 61
3 65 63 289
3 65 289 64
3 68 66 290
3 290 66 67
3 71 69 70
3 302 72 73
3 302 73 74
3 77 75 76
3 80 78 79
3 516 81 303
3 516 303 82
3 516 82 83
3 520 84 304
3 520 304 86
3 304 84 85
3 542 87 305
3 542 305 88
3 542 88 306
3 542 306 89
3 541 90 316
3 541 316 91
3 541 91 317
3 541 317 92
3 532 93 321
3 532 321 553
3 532 553 95
3 95 553 322
3 322 553 321
3 322 321 94
3 324 96 323
3 324 323 97
3 324 97 98
3 329 99 325
3 329 325 100
3 329 100 328
3 328 100 326
3 328 326 101
3 554 555 556
3 335 102 331
3 335 331 555
3 335 555 334
3 334 555 554
3 334 554 104
3 104 554 332
3 332 554 556
3 332 556 103
3 103 556 330
3 330 556 331
3 331 556 555
3 538 105 345
3 538 345 557
3 538 557 347
3 538 347 107
3 347 557 346
3 346 557 344
3 346 344 106
3 344 557 345
3 517 108 558
3 517 558 110
3 110 558 362
3 362 558 360
3 362 360 109
3 360 558 361
3 361 558 108
3 515 111 363
3 515 363 364
3 515 364 113
3 364 363 112
3 116 114 365
3 116 365 115
3 119 117 118
3 122 120 121
3 125 123 124
3 128 126 127
3 131 129 130
3 452 132 133
3 452 133 134
3 137 135 136
3 389 138 139
3 389 139 384
3 389 384 140
3 143 141 142
3 412 144 405
3 412 405 146
3 405 144 145
3 149 147 409
3 149 409 410
3 410 409 148
3 152 150 413
3 152 413 151
3 422 153 154
3 422 154 155
3 158 156 423
3 158 423 157
3 161 159 160
3 430 162 163
3 430 163 164
3 167 165 431
3 167 431 432
3 432 431 166
3 170 168 443
3 443 168 442
3 443 442 169
3 173 171 444
3 173 444 172
3 176 174 175
3 179 177 451
3 451 177 178
3 182 180 181
3 185 183 184
3 500 186 187
3 500 187 188
3 191 189 190
3 194 192 193
3 493 195 196
3 493 196 197
3 200 198 518
3 200 518 199
3 203 201 519
3 519 201 202
3 206 204 521
3 521 204 205
3 209 207 525
3 209 525 208
3 212 210 528
3 528 210 211
3 215 213 537
3 537 213 214
3 559 562 563
3 560 559 563
3 561 560 563
3 561 563 564
3 563 562 565
3 564 563 565
3 564 565 234
3 564 234 10
3 564 10 561
3 561 10 229
3 561 229 7
3 561 7 560
3 560 7 226
3 560 226 559
3 559 226 224
3 559 224 4
3 559 4 222
3 559 222 562
3 562 222 220
3 562 220 565
3 565 220 218
3 565 218 0
3 565 0 234
3 567 566 569
3 566 568 569
3 569 568 219
3 569 219 221
3 569 221 567
3 567 221 223
3 567 223 31
3 567 31 258
3 567 258 566
3 566 258 28
3 566 28 568
3 568 28 25
3 568 25 23
3 568 23 253
3 568 253 219
3 219 253 1
3 31 223 3
3 268 43 40
3 268 40 264
3 268 264 227
3 268 227 6
3 227 264 225
3 225 264 37
3 225 37 5
3 5 37 34
3 5 34 32
3 9 12 231
3 231 12 282
3 231 282 276
3 231 276 8
3 8 276 274
3 8 274 269
3 269 274 49
3 269 49 44
3 44 49 46
3 276 282 52
3 52 282 280
3 52 280 55
3 571 570 573
3 571 573 251
3 571 251 22
3 571 22 19
3 571 19 570
3 570 19 244
3 570 244 242
3 570 242 573
3 573 242 572
3 573 572 2
3 573 2 251
3 2 572 236
3 236 572 238
3 236 238 13
3 236 13 11
3 238 572 240
3 240 572 242
3 244 19 16
3 574 577 578
3 575 574 578
3 576 575 578
3 576 578 243
3 576 243 245
3 576 245 64
3 576 64 61
3 576 61 575
3 575 61 58
3 575 58 574
3 574 58 56
3 574 56 281
3 574 281 577
3 577 281 283
3 577 283 239
3 577 239 241
3 577 241 578
3 578 241 243
3 239 283 14
3 64 245 67
3 67 245 15
3 300 76 298
3 300 298 296
3 300 296 579
3 300 579 70
3 300 70 68
3 300 68 17
3 300 17 18
3 70 579 292
3 292 579 294
3 292 294 73
3 294 579 296
3 21 24 580
3 21 580 20
3 20 580 301
3 301 580 581
3 301 581 77
3 77 581 79
3 79 581 24
3 24 581 580
3 27 80 26
3 584 583 585
3 584 585 586
3 584 586 97
3 584 97 94
3 584 94 318
3 584 318 583
3 583 318 91
3 583 91 313
3 583 313 585
3 585 313 29
3 585 29 260
3 585 260 586
3 586 260 30
3 586 30 33
3 586 33 97
3 29 313 310
3 29 310 78
3 78 310 75
3 75 310 307
3 75 307 299
3 299 307 297
3 297 307 582
3 297 582 295
3 295 582 85
3 295 85 74
3 74 85 82
3 85 582 88
3 88 582 307
3 36 100 98
3 36 98 35
3 39 103 587
3 39 587 265
3 265 587 101
3 265 101 38
3 101 587 103
3 42 45 130
3 42 130 127
3 42 127 41
3 41 127 380
3 41 380 104
3 104 380 336
3 336 380 378
3 336 378 376
3 336 376 340
3 340 376 374
3 340 374 106
3 106 374 372
3 106 372 348
3 348 372 370
3 348 370 352
3 352 370 368
3 352 368 366
3 352 366 356
3 356 366 588
3 356 588 589
3 356 589 109
3 109 589 115
3 109 115 112
3 115 589 118
3 118 589 121
3 121 589 588
3 121 588 124
3 124 588 366
3 385 139 136
3 385 136 133
3 385 133 382
3 385 382 48
3 48 382 131
3 48 131 47
3 51 140 277
3 277 140 387
3 277 387 275
3 275 387 50
3 54 57 397
3 54 397 395
3 54 395 393
3 54 393 53
3 53 393 391
3 53 391 138
3 138 391 137
3 397 57 591
3 397 591 399
3 399 591 590
3 399 590 401
3 401 590 406
3 401 406 403
3 403 406 145
3 403 145 142
3 406 590 148
3 148 590 591
3 148 591 57
3 60 149 59
3 414 151 146
3 414 146 592
3 414 592 593
3 414 593 416
3 416 593 63
3 63 593 592
3 63 592 62
3 62 592 147
3 147 592 408
3 408 592 146
3 595 594 596
3 595 596 511
3 595 511 116
3 595 116 117
3 595 117 594
3 594 117 418
3 594 418 415
3 594 415 596
3 596 415 513
3 596 513 511
3 513 415 597
3 513 597 69
3 69 597 66
3 66 597 417
3 66 417 65
3 417 597 415
3 415 418 152
3 72 81 512
3 72 512 293
3 293 512 514
3 293 514 71
3 512 81 113
3 512 113 114
3 84 202 83
3 83 202 199
3 83 199 111
3 111 199 110
3 599 598 602
3 599 602 603
3 600 604 605
3 598 600 605
3 598 605 601
3 598 601 602
3 602 601 607
3 602 607 608
3 603 602 608
3 604 609 610
3 605 604 610
3 601 605 610
3 601 610 606
3 601 606 607
3 607 606 611
3 607 611 612
3 608 607 612
3 608 612 613
3 606 610 611
3 611 610 92
3 611 92 612
3 612 92 320
3 612 320 613
3 613 320 93
3 613 93 529
3 613 529 608
3 608 529 211
3 608 211 603
3 603 211 526
3 603 526 599
3 599 526 208
3 599 208 598
3 598 208 522
3 598 522 600
3 600 522 205
3 600 205 604
3 604 205 203
3 604 203 86
3 604 86 609
3 609 86 87
3 609 87 92
3 609 92 610
3 615 614 616
3 615 616 315
3 615 315 90
3 615 90 614
3 614 90 89
3 614 89 309
3 614 309 616
3 616 309 312
3 616 312 315
3 617 620 621
3 618 617 621
3 618 621 622
3 619 623 624
3 620 619 624
3 620 624 625
3 621 620 625
3 621 625 626
3 622 621 626
3 624 623 627
3 624 627 628
3 625 624 628
3 625 628 629
3 626 625 629
3 626 629 102
3 626 102 339
3 626 339 622
3 622 339 343
3 622 343 618
3 618 343 105
3 618 105 214
3 618 214 617
3 617 214 535
3 617 535 620
3 620 535 619
3 619 535 533
3 619 533 212
3 619 212 623
3 623 212 531
3 623 531 627
3 627 531 95
3 627 95 96
3 627 96 628
3 628 96 99
3 628 99 629
3 629 99 102
3 630 631 632
3 630 632 633
3 630 633 634
3 630 634 635
3 630 635 636
3 630 636 631
3 632 631 638
3 632 638 639
3 632 639 640
3 633 632 640
3 633 640 641
3 635 642 643
3 636 635 643
3 636 643 644
3 636 644 645
3 631 636 645
3 631 645 637
3 631 637 638
3 643 642 646
3 643 646 647
3 644 643 647
3 644 647 648
3 645 644 648
3 645 648 524
3 645 524 637
3 637 524 207
3 637 207 638
3 638 207 539
3 638 539 639
3 639 539 215
3 639 215 640
3 640 215 641
3 641 215 107
3 641 107 351
3 641 351 634
3 641 634 633
3 634 351 355
3 634 355 642
3 634 642 635
3 642 355 359
3 642 359 646
3 646 359 108
3 646 108 198
3 646 198 647
3 647 198 648
3 648 198 206
3 648 206 524
3 420 154 143
3 420 143 419
3 420 419 119
3 420 119 120
3 419 143 150
3 150 143 144
3 428 163 160
3 428 160 426
3 428 426 649
3 428 649 123
3 123 649 122
3 122 649 421
3 421 649 424
3 421 424 157
3 421 157 155
3 424 649 426
3 651 650 653
3 651 653 654
3 655 656 657
3 657 656 658
3 657 658 169
3 657 169 439
3 657 439 655
3 655 439 436
3 655 436 654
3 655 654 373
3 655 373 375
3 655 375 656
3 656 375 377
3 656 377 658
3 658 377 379
3 658 379 381
3 658 381 445
3 658 445 172
3 658 172 169
3 445 381 126
3 373 654 653
3 373 653 371
3 371 653 650
3 371 650 369
3 369 650 367
3 367 650 652
3 367 652 125
3 125 652 429
3 429 652 164
3 164 652 166
3 166 652 650
3 166 650 651
3 166 651 433
3 433 651 654
3 433 654 436
3 383 132 178
3 383 178 449
3 383 449 659
3 383 659 129
3 129 659 128
3 128 659 446
3 446 659 447
3 446 447 175
3 446 175 173
3 447 659 449
3 660 662 663
3 660 663 664
3 661 665 666
3 662 661 666
3 662 666 667
3 662 667 668
3 663 662 668
3 668 667 669
3 668 669 670
3 670 669 672
3 673 676 677
3 674 673 677
3 674 677 678
3 675 674 678
3 675 678 679
3 677 676 680
3 678 677 680
3 678 680 681
3 679 678 681
3 679 681 543
3 679 543 675
3 675 543 216
3 675 216 671
3 675 671 455
3 675 455 674
3 674 455 453
3 674 453 673
3 673 453 181
3 673 181 179
3 673 179 676
3 676 179 134
3 676 134 135
3 676 135 392
3 676 392 680
3 680 392 394
3 680 394 681
3 681 394 682
3 681 682 543
3 543 682 545
3 545 682 396
3 545 396 398
3 545 398 547
3 547 398 672
3 547 672 669
3 547 669 549
3 549 669 667
3 549 667 666
3 549 666 665
3 549 665 551
3 551 665 461
3 551 461 459
3 551 459 216
3 216 459 457
3 216 457 671
3 671 457 455
3 461 665 463
3 463 665 661
3 463 661 465
3 465 661 662
3 465 662 660
3 465 660 184
3 184 660 156
3 156 660 664
3 156 664 153
3 153 664 141
3 141 664 404
3 404 664 663
3 404 663 668
3 404 668 670
3 404 670 402
3 402 670 400
3 400 670 672
3 400 672 398
3 396 682 394
3 469 190 467
3 469 467 683
3 469 683 471
3 471 683 473
3 473 683 427
3 473 427 159
3 427 683 425
3 425 683 185
3 425 185 158
3 185 683 467
3 467 190 187
3 684 686 687
3 689 690 691
3 689 691 483
3 689 483 481
3 689 481 688
3 689 688 503
3 689 503 501
3 689 501 690
3 690 501 174
3 690 174 489
3 690 489 487
3 690 487 691
3 691 487 485
3 691 485 483
3 483 485 193
3 174 501 171
3 171 501 170
3 503 688 505
3 505 688 479
3 505 479 685
3 505 685 507
3 507 685 684
3 507 684 509
3 509 684 687
3 509 687 161
3 509 161 162
3 509 162 165
3 161 687 474
3 474 687 472
3 472 687 686
3 472 686 470
3 470 686 475
3 470 475 191
3 475 686 477
3 477 686 684
3 477 684 685
3 477 685 479
3 479 688 481
3 510 167 692
3 510 692 693
3 510 693 508
3 508 693 506
3 506 693 694
3 506 694 504
3 504 694 502
3 502 694 441
3 502 441 168
3 441 694 438
3 438 694 693
3 438 693 435
3 435 693 692
3 435 692 167
3 177 180 450
3 450 180 695
3 450 695 448
3 448 695 490
3 448 490 176
3 490 695 488
3 488 695 486
3 486 695 491
3 486 491 194
3 194 491 196
3 491 695 180
3 698 700 701
3 698 701 699
3 698 699 697
3 698 697 497
3 698 497 494
3 698 494 700
3 700 494 197
3 700 197 492
3 700 492 454
3 700 454 456
3 700 456 701
3 701 456 458
3 701 458 460
3 701 460 699
3 699 460 462
3 699 462 697
3 697 462 464
3 697 464 696
3 697 696 186
3 697 186 497
3 186 696 468
3 468 696 466
3 468 466 183
3 466 696 464
3 454 492 182
3 702 704 705
3 704 703 706
3 704 706 707
3 704 707 705
3 705 707 499
3 705 499 188
3 705 188 189
3 705 189 476
3 705 476 702
3 702 476 478
3 702 478 703
3 702 703 704
3 703 478 480
3 703 480 482
3 703 482 706
3 706 482 484
3 706 484 192
3 706 192 707
3 707 192 195
3 707 195 496
3 707 496 499
3 201 204 200
3 536 213 540
3 536 540 534
3 534 540 527
3 534 527 210
3 527 540 209
3 708 709 710
3 708 710 548
3 708 548 550
3 708 550 552
3 708 552 709
3 709 552 217
3 709 217 544
3 709 544 710
3 710 544 546
3 710 546 548
