ply
format ascii 1.0
comment Generated by PyMesh
element vertex 1137
property float x
property float y
property float z
property float nx
property float ny
property float nz
element face 2270
property list uchar int vertex_indices
end_header
2.924 -12.239 32.634 -0.855 -0.147 -0.497
3.079 -12.834 31.681 -0.958 0.249 0.138
2.951 -13.126 32.191 -0.873 0.444 -0.202
3.08 -12.827 31.676 -0.958 0.253 0.136
2.926 -12.231 32.629 -0.855 -0.144 -0.499
3.119 -12.236 31.707 -0.983 -0.141 0.116
3.212 -11.299 31.722 -0.937 0.328 0.123
3.019 -11.295 32.644 -0.808 0.325 -0.491
3.263 -10.987 32.217 -0.971 0.119 -0.207
5.226 -9.839 33.551 0.184 0.795 0.578
5.13 -10.06 34.08 0.248 0.942 0.226
6.848 -9.305 34.377 -0.898 0.439 0.028
6.938 -9.656 35.001 -0.824 0.147 0.548
5.245 -10.511 34.882 0.305 0.717 0.627
6.566 -10.661 35.76 -0.576 0.817 0.042
6.477 -10.743 35.883 -0.639 0.758 0.13
5.14 -10.608 35.027 0.252 0.668 0.7
4.953 -10.648 35.158 0.377 0.694 0.613
4.653 -11.514 35.612 0.127 -0.028 0.992
4.754 -11.722 35.611 0.06 0.111 0.992
6.151 -11.684 36.376 -0.872 0.086 0.482
6.281 -12.482 36.258 -0.779 -0.484 0.398
4.908 -12.666 35.472 0.136 -0.361 0.923
4.834 -13.24 35.382 0.185 0.021 0.982
2.844 -13.191 33.433 -0.985 0.05 -0.164
2.767 -12.614 33.376 -0.934 -0.335 -0.126
2.794 -13.501 32.933 -0.952 0.257 0.169
3.195 -14.235 34.179 -0.779 -0.564 0.275
3.171 -14.624 33.735 -0.763 -0.305 0.57
3.224 -15.203 33.695 -0.798 0.082 0.597
3.388 -15.359 31.467 -0.701 -0.01 -0.713
3.348 -14.791 31.339 -0.674 -0.388 -0.628
3.476 -14.499 30.829 -0.76 -0.583 -0.288
3.513 -15.452 31.36 -0.628 -0.065 -0.776
3.611 -14.6 30.714 -0.693 -0.633 -0.345
3.819 -14.718 30.155 -0.832 -0.555 0.027
3.569 -13.717 29.768 -0.979 0.034 -0.201
3.341 -13.523 30.297 -0.827 -0.095 -0.554
3.538 -13.24 29.454 -0.959 -0.284 0.008
3.48 -12.498 29.69 -0.988 0.087 0.126
3.283 -12.781 30.533 -0.857 0.276 -0.436
3.321 -12.19 30.563 -0.882 -0.118 -0.456
3.634 -11.849 29.489 -0.911 0.411 0.026
3.475 -11.542 30.363 -0.805 0.206 -0.556
3.689 -10.768 29.634 -0.948 -0.31 -0.07
3.784 -9.884 30.601 -0.901 0.133 0.413
3.569 -10.657 31.329 -0.758 0.648 -0.073
3.596 -10.39 31.852 -0.776 0.47 -0.421
3.847 -9.735 30.671 -0.87 0.207 0.448
3.654 -10.252 31.918 -0.741 0.551 -0.383
3.935 -9.515 30.794 -0.929 0.06 0.366
5.163 -8.887 31.323 0.095 0.582 0.808
5.122 -9.503 32.55 0.122 0.992 -0.011
5.426 -8.929 31.352 -0.08 0.61 0.788
5.46 -8.934 31.358 -0.063 0.608 0.792
5.154 -9.507 32.556 0.141 0.99 -0.007
6.259 -8.181 31.351 -0.595 0.106 0.797
6.568 -8.269 31.533 -0.375 0.044 0.926
5.494 -9.603 32.756 0.341 0.933 0.111
7.164 -9.059 33.342 -0.772 0.571 -0.28
7.012 -9.142 33.835 -0.848 0.529 -0.033
5.353 -9.68 33.215 0.258 0.888 0.38
6.955 -9.173 34.095 -0.81 0.55 -0.207
7.642 -8.625 34.52 -0.533 0.788 0.309
7.444 -8.771 34.628 -0.401 0.885 0.237
8.294 -7.819 34.968 -0.968 0.25 0.011
8.363 -8.051 35.445 -0.911 0.057 0.409
7.513 -9.003 35.105 -0.344 0.691 0.635
8.416 -8.349 35.761 -0.946 0.255 0.198
8.489 -8.812 36.102 -0.894 -0.076 0.442
7.58 -9.429 35.419 -0.288 0.335 0.897
7.817 -9.472 35.538 -0.446 0.364 0.818
7.774 -9.595 35.564 -0.467 0.303 0.831
7.547 -9.525 35.439 -0.316 0.256 0.914
7.228 -10.518 36.236 -0.103 0.918 0.382
7.873 -9.612 35.622 -0.417 0.294 0.86
7.312 -10.533 36.285 -0.043 0.908 0.417
8.395 -9.492 36.001 -0.765 0.214 0.607
9.505 -10.721 36.57 -0.21 -0.4 0.892
8.25 -11.571 36.766 0.627 0.167 0.761
9.697 -10.907 36.559 -0.338 -0.276 0.9
9.811 -11.174 36.477 -0.243 -0.5 0.831
8.373 -11.862 36.678 0.715 -0.041 0.698
8.731 -12.097 36.417 0.477 0.116 0.871
7.213 -13.203 36.382 -0.282 -0.437 0.854
7.091 -12.796 36.648 -0.201 -0.709 0.677
6.996 -14.002 36.184 -0.137 0.096 0.986
6.36 -13.843 35.851 -0.668 0.228 0.709
6.4 -12.624 36.287 -0.695 -0.585 0.418
6.395 -12.999 35.954 -0.691 -0.335 0.64
6.329 -12.952 35.904 -0.725 -0.311 0.615
6.344 -12.584 36.244 -0.734 -0.557 0.388
4.903 -13.352 35.366 0.226 -0.045 0.973
6.342 -12.991 35.898 -0.718 -0.331 0.612
4.915 -13.388 35.361 0.233 -0.066 0.97
6.318 -13.837 35.808 -0.702 0.233 0.673
6.214 -14.692 35.463 -0.789 -0.479 0.385
4.791 -14.41 34.949 0.16 -0.667 0.728
4.678 -15.577 34.593 0.236 0.111 0.965
3.353 -15.437 33.962 -0.869 0.227 0.44
3.207 -14.243 34.196 -0.772 -0.569 0.284
3.236 -15.211 33.711 -0.791 0.077 0.607
5.142 -16.547 33.86 0.623 -0.698 0.355
5.375 -16.538 33.589 0.468 -0.704 0.535
6.942 -16.541 33.765 -0.578 -0.701 0.417
7.107 -16.688 32.662 -0.46 -0.807 -0.371
5.556 -16.7 32.374 0.574 -0.799 -0.179
5.457 -16.748 32.035 0.64 -0.767 0.047
3.832 -15.819 31.138 -0.714 0.008 -0.7
3.614 -15.589 31.302 -0.568 -0.145 -0.81
3.92 -14.855 30.098 -0.772 -0.635 -0.007
5.671 -16.113 31.349 0.818 -0.238 -0.524
6.117 -15.207 30.35 0.52 -0.842 0.142
7.339 -15.999 31.917 -0.294 -0.314 -0.903
7.534 -15.868 31.833 -0.155 -0.221 -0.963
6.332 -15.063 30.258 0.647 -0.758 0.087
7.601 -15.41 31.628 -0.199 -0.527 -0.826
7.652 -15.369 31.591 -0.174 -0.506 -0.845
6.379 -15.025 30.223 0.674 -0.735 0.067
7.952 -15.03 31.179 -0.374 -0.732 -0.57
8.321 -14.399 30.54 -0.189 -0.417 -0.889
6.723 -14.439 29.629 0.876 -0.39 -0.282
6.931 -14.016 29.305 0.737 -0.672 -0.066
8.741 -13.589 30.319 0.021 -0.012 -1
7.351 -13.206 29.084 0.947 -0.267 -0.177
9.493 -12.291 28.845 -0.481 -0.877 -0.018
9.438 -12.224 28.579 -0.52 -0.828 -0.208
7.285 -13.126 28.768 0.915 -0.227 -0.334
8.213 -12.034 28.318 0.296 -0.955 -0.034
8.168 -12.039 28.21 0.259 -0.958 -0.123
7.228 -13.131 28.63 0.886 -0.23 -0.403
7.923 -13.652 26.677 0.422 0.117 0.899
6.085 -14.148 25.959 -0.891 -0.237 0.387
5.052 -13.718 27.781 -0.202 -0.523 -0.828
5.704 -13.579 25.845 -0.637 -0.616 0.463
5.207 -12.594 25.733 -0.913 -0.069 0.401
4.531 -12.686 27.664 -0.463 -0.007 -0.886
4.896 -11.635 26.299 -0.706 -0.708 0.024
4.516 -10.991 26.693 -0.896 -0.386 0.221
4.151 -12.042 28.058 -0.652 0.315 -0.689
4.229 -10.782 27.741 -0.704 -0.525 -0.478
3.909 -10.552 28.404 -0.933 -0.361 -0.004
3.773 -11.77 28.843 -0.842 0.451 -0.297
3.829 -10.689 28.988 -0.879 -0.27 -0.394
4.393 -8.913 28.395 -0.587 0.81 -0.011
4.402 -8.749 28.977 -0.592 0.7 -0.399
4.731 -8.514 28.057 -0.812 0.543 0.214
5.531 -7.988 28.477 -0.411 0.806 0.425
5.202 -8.223 29.397 -0.192 0.963 -0.189
6.041 -7.581 29.694 -0.751 0.535 -0.387
5.894 -7.675 30.546 -0.856 0.468 0.221
5.028 -8.335 30.405 -0.279 0.907 0.315
4.854 -8.425 30.587 -0.162 0.967 0.194
6.234 -8.156 31.329 -0.613 0.125 0.781
5.167 -8.867 31.308 0.099 0.599 0.795
5.431 -8.903 31.332 -0.077 0.623 0.778
6.036 -7.711 28.199 -0.159 0.945 0.286
6.467 -7.347 29.46 -0.446 0.702 -0.555
6.12 -7.602 27.97 -0.215 0.872 0.439
6.846 -7.598 27.784 0.39 0.876 0.284
7.256 -7.342 29.258 0.117 0.706 -0.699
7.683 -7.269 29.312 -0.168 0.657 -0.735
7.855 -7.471 31.241 -0.025 0.488 0.872
7.442 -7.562 31.353 0.25 0.549 0.798
8.902 -7.776 32.563 -0.723 0.691 -0.009
8.741 -7.974 32.716 -0.803 0.592 0.068
7.307 -7.729 31.482 0.153 0.429 0.89
8.039 -8.42 33.282 -0.335 0.89 -0.31
8.869 -7.865 32.961 -0.739 0.647 0.19
8.167 -8.311 33.527 -0.27 0.944 -0.187
8.703 -7.575 34.196 -0.628 0.453 -0.633
9.575 -7.363 33.006 -0.386 0.898 0.213
9.252 -7.184 34.231 -0.17 0.779 -0.604
9.802 -7.228 32.96 -0.537 0.808 0.243
10.717 -7.253 33.357 0.226 0.787 0.574
10.167 -7.21 34.628 0.593 0.758 -0.273
11.534 -7.458 34.539 -0.319 0.923 -0.214
11.571 -7.508 35.244 -0.288 0.882 0.373
10.204 -7.259 35.332 0.623 0.716 0.314
10.416 -7.489 35.638 0.482 0.869 0.11
11.882 -8.661 35.992 -0.029 -0.079 0.996
10.753 -8.742 36.451 0.723 -0.025 0.69
11.018 -9.268 36.329 0.546 0.326 0.772
8.395 -9.473 35.994 -0.765 0.223 0.604
8.537 -8.915 36.168 -0.86 -0.149 0.488
7.873 -9.593 35.615 -0.417 0.303 0.857
12.299 -9.273 35.687 0.319 -0.589 0.742
11.555 -10.056 35.937 0.815 -0.068 0.576
12.455 -9.603 35.444 0.215 -0.37 0.904
12.472 -9.675 35.408 0.227 -0.421 0.878
11.575 -10.141 35.894 0.825 -0.11 0.554
12.051 -10.11 35.448 0.508 -0.131 0.852
11.195 -11.723 34.423 0.08 -0.937 0.339
10.719 -11.754 34.869 0.397 -0.917 0.041
10.28 -12.759 33.91 0.69 -0.247 0.681
10.185 -12.792 33.988 0.642 -0.263 0.72
10.624 -11.787 34.947 0.349 -0.933 0.081
9.704 -12.819 34.899 0.963 -0.245 0.113
9.628 -12.77 35.293 0.925 -0.221 0.309
10.548 -11.738 35.341 0.312 -0.909 0.277
10.509 -11.698 35.603 0.338 -0.936 0.103
10.095 -13.077 33.932 0.597 -0.406 0.692
9.614 -13.104 34.843 0.918 -0.387 0.085
9.709 -13.973 34.246 0.855 0.192 0.483
9.321 -14.384 34.783 0.66 -0.014 0.751
9.226 -13.515 35.38 0.724 -0.593 0.353
9.033 -14.057 35.204 0.852 -0.231 0.47
7.96 -14.065 36.015 0.221 -0.236 0.946
8.071 -13.523 36.251 0.147 -0.597 0.789
7.663 -14.251 36.083 0.418 -0.112 0.901
8.054 -14.961 35.4 0.276 -0.763 0.585
7.742 -15.001 35.568 0.484 -0.736 0.472
8.268 -15.356 34.993 0.134 -0.5 0.856
7.658 -15.681 34.741 -0.171 -0.662 0.73
7.268 -15.253 35.372 0.089 -0.947 0.309
7.582 -16.097 34.462 -0.121 -0.384 0.915
6.955 -16.051 34.222 -0.569 -0.351 0.744
6.69 -15.211 35.151 -0.392 -0.911 0.125
5.154 -16.096 34.28 0.632 -0.321 0.705
9.001 -15.752 32.256 0.5 -0.698 -0.513
8.717 -16.158 32.363 0.69 -0.428 -0.584
9.3 -15.413 31.843 0.301 -0.924 -0.238
8.075 -15.106 31.206 -0.312 -0.77 -0.556
7.682 -15.898 31.825 -0.05 -0.242 -0.969
7.775 -15.445 31.618 -0.112 -0.544 -0.831
9.72 -13.983 34.231 0.86 0.187 0.475
10.019 -13.644 33.818 0.66 -0.039 0.75
10.106 -13.086 33.917 0.603 -0.411 0.684
10.452 -12.686 31.36 0.776 -0.21 -0.595
10.366 -13.244 31.261 0.833 0.161 -0.529
10.866 -11.999 29.641 0.5 -0.668 0.551
10.506 -12.378 29.214 0.243 -0.938 0.246
9.94 -13.691 30.755 0.62 -0.063 -0.782
9.839 -13.88 30.666 0.688 0.063 -0.723
9.038 -13.863 30.338 0.021 0.076 -0.997
8.911 -13.67 30.332 0.106 -0.052 -0.993
9.637 -12.36 28.857 -0.378 -0.926 -0.009
10.455 -12.682 31.362 0.777 -0.209 -0.593
10.868 -11.996 29.643 0.502 -0.666 0.552
11.285 -11.579 30.836 0.224 -0.944 -0.243
11.713 -11.262 30.588 0.58 -0.68 -0.449
11.332 -11.652 29.374 0.833 -0.42 0.36
11.878 -11.083 30.478 0.469 -0.799 -0.376
12.154 -10.401 29.931 0.607 -0.458 -0.649
11.565 -11.076 28.912 1 -0.008 0.03
11.733 -10.405 28.854 0.888 -0.455 0.068
11.688 -10.446 28.434 0.863 -0.478 -0.165
11.526 -11.111 28.54 0.971 -0.034 -0.235
12.051 -9.994 28.053 0.621 -0.779 0.09
11.481 -10.083 27.234 0.213 -0.842 -0.495
10.955 -11.2 27.722 0.564 -0.097 -0.82
11.043 -10.546 27.509 0.505 -0.533 -0.679
9.979 -10.593 27.247 -0.087 -0.56 -0.824
10.013 -11.242 27.49 -0.109 -0.127 -0.986
8.727 -11.54 25.021 0.748 0.072 0.66
9.418 -11.238 27.435 0.285 -0.158 -0.945
8.428 -11.467 25.532 0.946 -0.005 0.324
8.725 -11.581 25.027 0.746 0.043 0.664
10.01 -11.283 27.496 -0.111 -0.156 -0.981
8.483 -11.95 25.563 0.907 0.289 0.307
8.448 -12.6 25.83 0.887 -0.072 0.455
9.979 -11.858 27.732 -0.133 -0.567 -0.813
8.514 -13.282 25.947 0.844 0.382 0.378
9.207 -11.995 27.702 0.044 -0.909 -0.415
8.292 -12.885 26.586 0.829 -0.147 0.54
8.012 -13.617 26.626 0.485 0.142 0.863
9.477 -12.193 28.412 -0.492 -0.807 -0.327
8.25 -12.006 28.164 0.326 -0.931 -0.162
8.61 -12.83 24.88 0.977 -0.2 -0.073
8.657 -13.485 25.106 0.946 0.237 -0.223
8.836 -12.36 24.423 0.826 -0.513 0.233
8.37 -12.766 23.63 0.493 -0.804 -0.333
8.19 -13.891 24.314 0.612 -0.054 -0.789
8.082 -13.289 23.985 0.684 -0.455 -0.57
6.543 -11.063 23.519 -0.812 0.413 -0.413
6.019 -11.365 23.859 -0.462 0.614 -0.64
5.747 -10.348 24.336 -0.281 -0.064 -0.958
7.472 -10.337 23.631 -0.149 0.931 -0.333
6.846 -9.489 24.469 0.269 0.366 -0.891
7.092 -9.416 24.546 0.105 0.317 -0.943
7.715 -8.86 25.671 0.624 0.781 -0.005
7.647 -8.773 25.915 0.67 0.723 -0.168
8.673 -8.464 26.947 -0.014 0.517 -0.856
8.588 -8.378 27.008 -0.075 0.578 -0.812
7.546 -8.672 25.987 0.619 0.774 -0.132
7.566 -8.407 26.577 0.606 0.597 -0.525
6.878 -8.072 26.45 0.262 0.764 -0.589
6.858 -8.337 25.86 0.275 0.941 -0.196
6.775 -7.883 26.609 0.331 0.638 -0.695
5.993 -7.86 26.625 -0.321 0.657 -0.682
5.853 -8.308 25.88 -0.228 0.956 -0.185
5.873 -8.043 26.47 -0.241 0.779 -0.579
4.431 -9.386 27.122 -0.962 0.107 -0.253
4.411 -9.652 26.532 -0.948 0.284 0.141
4.14 -9.65 27.605 -0.768 0.283 -0.575
7.368 -7.955 27.114 0.507 0.823 -0.257
7.156 -7.792 27.126 0.648 0.714 -0.265
8.42 -7.997 27.461 -0.195 0.851 -0.488
8.261 -7.857 28.094 -0.309 0.951 -0.036
7.009 -7.663 27.708 0.526 0.821 0.221
7.846 -7.335 29.237 -0.032 0.602 -0.798
8.99 -7.839 28.372 0.212 0.964 0.162
8.518 -7.318 29.492 0.527 0.616 -0.585
9.684 -7.845 28.667 -0.25 0.967 -0.035
9.854 -7.816 28.898 -0.156 0.983 0.093
8.656 -7.294 29.68 0.642 0.636 -0.428
9.88 -7.692 29.635 -0.174 0.901 -0.398
9.914 -7.609 30.526 -0.15 0.96 0.238
8.687 -7.218 30.5 0.668 0.699 0.255
9.971 -7.45 31.61 -0.188 0.854 -0.485
10.067 -7.591 30.513 -0.04 0.973 0.228
10.153 -7.429 31.595 -0.097 0.865 -0.493
10.407 -7.569 31.015 -0.266 0.958 -0.107
10.808 -7.49 31.172 -0.065 0.997 -0.028
10.555 -7.35 31.752 0.104 0.904 -0.415
10.564 -7.218 31.984 0.098 0.816 -0.57
11.529 -7.595 31.513 0.295 0.945 0.142
11.124 -7.3 32.249 0.565 0.748 -0.349
11.275 -7.455 32.092 0.464 0.852 -0.244
11.483 -7.554 32.951 0.568 0.802 0.185
11.286 -7.377 32.917 0.7 0.684 0.208
12.241 -7.765 33.72 0.062 0.943 -0.328
12.198 -7.743 33.782 0.032 0.958 -0.284
11.246 -7.356 32.974 0.667 0.7 0.255
12.063 -7.561 34.156 0.122 0.837 -0.533
11.912 -7.916 32.483 0.782 0.621 -0.049
12.604 -8.071 33.325 0.321 0.724 -0.61
12.165 -8.056 31.903 0.613 0.714 0.337
12.342 -8.202 31.851 0.701 0.642 0.311
12.752 -8.194 33.28 0.427 0.636 -0.642
12.528 -8.284 31.676 0.577 0.696 0.427
12.925 -9.262 31.645 0.908 -0.119 0.401
13.184 -9.256 33.246 0.736 -0.122 -0.666
12.852 -9.459 31.811 0.957 0.013 0.291
12.823 -9.718 31.858 0.942 -0.116 0.314
13.159 -9.475 33.286 0.718 -0.278 -0.638
12.865 -9.873 32.936 0.914 -0.013 -0.405
12.33 -10.837 31.715 0.695 -0.676 0.243
12.372 -10.993 32.793 0.668 -0.572 -0.476
12.279 -11.224 32.891 0.73 -0.418 -0.541
11.48 -11.822 34.012 0.064 -0.917 0.394
11.345 -11.762 34.235 0.154 -0.957 0.245
10.429 -12.798 33.723 0.765 -0.267 0.587
11.81 -11.591 32.819 0.339 -0.724 -0.601
10.853 -12.5 32.188 0.977 -0.117 -0.181
11.595 -11.437 31.478 0.482 -0.826 0.293
11.938 -11.508 32.808 0.446 -0.655 -0.61
11.724 -11.354 31.467 0.589 -0.757 0.283
11.892 -11.202 31.608 0.477 -0.858 0.189
12.667 -8.863 30.338 0.693 0.214 -0.688
12.521 -8.946 30.13 0.791 0.269 -0.549
12.401 -8.729 28.593 0.871 0.125 0.476
12.171 -9.779 28.391 0.707 -0.625 0.332
12.249 -10.189 29.892 0.655 -0.352 -0.669
11.824 -10.203 28.817 0.938 -0.343 0.048
12.535 -8.531 30.387 0.583 0.49 -0.648
12.258 -8.369 28.646 0.768 0.382 0.513
12.351 -8.52 30.193 0.706 0.483 -0.518
11.254 -7.773 30.243 0.157 0.856 -0.493
11.331 -7.739 28.688 0.106 0.832 0.544
10.783 -7.764 29.86 0.471 0.849 -0.238
10.295 -7.681 29.634 0.123 0.909 -0.399
10.842 -7.656 28.462 -0.243 0.892 0.382
10.322 -7.803 28.897 0.104 0.99 0.092
9.855 -7.883 28.221 -0.156 0.946 -0.283
10.429 -7.726 27.864 -0.538 0.842 -0.045
9.141 -7.872 27.977 0.32 0.94 -0.12
9.206 -9.303 26.847 0.366 -0.082 -0.927
10.493 -9.156 26.735 -0.492 -0.18 -0.852
9.928 -9.498 26.945 -0.115 0.049 -0.992
9.168 -9.432 26.851 0.34 -0.174 -0.924
9.886 -9.645 26.949 -0.139 -0.033 -0.99
8.234 -9.919 25.802 0.963 0.15 -0.225
8.261 -10.177 25.824 0.977 0.022 -0.213
9.912 -9.89 26.971 -0.124 -0.169 -0.978
8.668 -10.918 24.776 0.706 0.516 0.485
9.143 -10.416 26.859 0.485 -0.28 -0.829
8.48 -10.972 25.607 0.984 0.138 0.114
8.204 -9.984 25.661 0.948 0.118 -0.295
8.62 -10.756 24.639 0.671 0.632 0.387
8.149 -9.802 25.473 0.985 -0.004 -0.17
8.214 -9.836 25.781 0.953 0.192 -0.235
8.156 -9.686 25.567 0.991 0.092 -0.092
9.152 -9.362 26.834 0.328 -0.124 -0.937
3.111 -12.543 32.179 -0.98 0.055 -0.193
3.112 -12.536 32.175 -0.979 0.059 -0.196
3.116 -10.787 33.031 -0.759 0.578 -0.298
3.354 -10.515 32.577 -0.918 0.397 0.005
3.425 -10.366 33.412 -0.605 0.789 -0.107
3.641 -10.124 32.931 -0.749 0.627 0.213
3.905 -10.085 33.739 -0.365 0.929 0.056
4.088 -9.862 33.235 -0.486 0.781 0.392
4.499 -9.979 33.971 -0.068 0.983 0.172
4.639 -9.763 33.451 -0.162 0.839 0.519
5.808 -10.085 34.126 -0.204 0.959 0.196
6.423 -9.815 34.232 -0.614 0.779 0.125
5.889 -10.404 34.692 -0.124 0.645 0.754
6.495 -10.098 34.734 -0.528 0.441 0.725
5.942 -10.793 35.23 -0.16 0.905 0.395
5.861 -10.868 35.343 -0.228 0.841 0.49
5.045 -10.631 35.09 0.315 0.683 0.659
3.954 -10.407 34.71 -0.34 0.769 0.542
3.994 -10.452 34.808 -0.367 0.799 0.476
4.031 -10.491 34.911 -0.392 0.825 0.408
3.59 -11.46 35.262 -0.523 0.242 0.817
3.671 -11.386 35.298 -0.577 0.193 0.794
3.748 -11.31 35.34 -0.628 0.142 0.765
4.703 -11.618 35.607 0.093 0.042 0.995
5.563 -11.73 35.794 -0.479 0.116 0.87
5.681 -12.46 35.687 -0.379 -0.499 0.779
4.212 -12.606 35.466 -0.211 -0.331 0.92
4.188 -13.184 35.377 -0.195 0.054 0.979
3.568 -12.567 35.2 -0.533 -0.311 0.786
3.589 -13.147 35.129 -0.547 0.076 0.834
3.069 -12.555 34.711 -0.783 -0.305 0.542
3.125 -13.136 34.675 -0.82 0.082 0.566
2.789 -12.571 34.072 -0.923 -0.313 0.223
2.864 -13.151 34.081 -0.973 0.073 0.217
2.843 -14.105 33.34 -0.927 -0.045 0.373
2.89 -13.753 33.811 -0.958 -0.28 0.059
2.879 -14.635 33.151 -0.909 -0.311 0.278
2.952 -15.214 33.151 -0.958 0.075 0.278
2.81 -14.67 32.502 -0.944 -0.328 -0.047
2.888 -15.246 32.547 -0.995 0.056 -0.077
2.973 -14.724 31.871 -0.862 -0.355 -0.362
3.04 -15.297 31.961 -0.906 0.027 -0.422
3.008 -14.265 31.554 -0.845 -0.125 -0.52
3.136 -13.973 31.044 -0.93 -0.32 -0.18
2.87 -13.688 31.85 -0.914 0.163 -0.373
2.998 -13.396 31.339 -0.999 -0.032 -0.032
3.381 -14.088 30.497 -0.807 -0.378 -0.453
3.606 -14.242 29.954 -0.957 -0.275 -0.091
3.095 -12.797 31.089 -0.951 0.268 -0.157
3.133 -12.206 31.12 -0.976 -0.126 -0.178
3.405 -11.076 30.836 -0.84 0.439 -0.319
3.62 -10.303 30.108 -0.983 -0.077 0.166
3.844 -10.193 31.227 -0.941 0.338 -0.005
3.898 -10.064 31.288 -0.904 0.426 0.037
3.951 -9.941 31.357 -0.939 0.344 -0.009
4.209 -9.654 32.385 -0.415 0.903 -0.108
4.393 -9.463 31.73 -0.538 0.776 0.329
4.399 -9.014 31.185 -0.542 0.477 0.692
5.122 -9.342 31.862 0.122 0.886 0.448
5.27 -9.363 31.879 0.024 0.899 0.437
5.3 -9.367 31.885 0.044 0.897 0.44
5.626 -9.379 31.963 -0.173 0.905 0.389
6.03 -8.895 31.522 -0.442 0.582 0.682
5.844 -9.441 32.091 0.108 0.825 0.554
6.236 -8.953 31.644 -0.153 0.5 0.852
6.109 -9.698 32.975 -0.069 0.997 -0.035
6.704 -9.505 33.184 -0.465 0.868 -0.175
5.993 -9.762 33.352 -0.169 0.942 0.289
6.584 -9.57 33.573 -0.563 0.815 0.141
5.974 -9.795 33.464 -0.156 0.964 0.214
6.547 -9.613 33.779 -0.538 0.843 0.004
5.885 -9.906 33.699 -0.256 0.839 0.48
6.465 -9.715 33.995 -0.643 0.712 0.283
7.986 -8.391 34.777 -0.763 0.632 0.138
8.045 -8.59 35.186 -0.699 0.417 0.581
8.069 -8.752 35.366 -0.715 0.525 0.462
8.131 -9.142 35.652 -0.655 0.144 0.742
7.422 -10.12 35.729 -0.233 0.653 0.721
6.87 -10.239 35.33 -0.778 0.536 0.328
7.545 -10.151 35.806 -0.315 0.673 0.669
7.628 -10.166 35.855 -0.254 0.663 0.705
7.952 -10.149 36.018 -0.47 0.652 0.596
7.783 -10.954 36.734 0.293 0.607 0.738
8.391 -10.541 36.437 -0.112 0.333 0.936
8.952 -9.99 36.532 -0.486 -0.035 0.873
8.827 -11.117 36.467 0.242 -0.136 0.961
8.934 -11.224 36.433 0.171 -0.065 0.983
9.027 -11.444 36.366 0.28 -0.32 0.905
8.074 -12.324 36.795 0.501 -0.371 0.782
8.377 -12.644 36.556 0.299 -0.158 0.941
7.619 -12.655 36.785 0.176 -0.608 0.774
7.838 -13.037 36.544 0.03 -0.354 0.935
7.071 -13.349 36.28 -0.187 -0.34 0.922
6.491 -13.204 35.977 -0.755 -0.198 0.625
5.972 -12.722 35.716 -0.487 -0.464 0.74
5.458 -12.996 35.403 -0.144 -0.282 0.949
5.923 -12.642 35.727 -0.54 -0.377 0.752
5.407 -12.912 35.415 -0.196 -0.197 0.961
5.681 -13.105 35.427 -0.293 -0.209 0.933
5.692 -13.137 35.422 -0.285 -0.233 0.93
5.675 -13.633 35.381 -0.273 0.097 0.957
5.581 -14.409 35.068 -0.366 -0.667 0.648
4.706 -14.953 34.65 0.217 -0.304 0.928
3.863 -14.352 34.853 -0.386 -0.633 0.671
3.939 -14.905 34.57 -0.437 -0.263 0.86
3.901 -15.528 34.512 -0.412 0.152 0.899
3.397 -14.816 34.027 -0.899 -0.187 0.397
3.115 -15.87 33.361 -0.862 -0.311 0.401
3.252 -15.989 33.669 -0.953 -0.232 0.196
3.433 -16.515 33.124 -0.675 -0.69 0.262
3.517 -16.528 33.471 -0.731 -0.681 0.031
4.075 -16.913 33.088 -0.297 -0.924 0.24
4.054 -16.861 33.44 -0.284 -0.959 0.005
4.81 -16.922 33.264 0.135 -0.929 0.344
4.67 -16.868 33.587 0.229 -0.965 0.128
6.173 -16.354 33.552 -0.065 -0.826 0.56
6.316 -16.483 32.591 0.067 -0.944 -0.323
4.765 -17.019 32.473 0.109 -0.987 -0.121
4.796 -17.015 32.117 0.089 -0.989 0.116
3.956 -16.86 32.236 -0.367 -0.893 -0.26
4.118 -16.882 31.919 -0.475 -0.878 -0.049
3.502 -16.297 31.775 -0.634 -0.561 -0.532
3.739 -16.411 31.533 -0.792 -0.485 -0.371
3.909 -15.14 30.786 -0.765 -0.445 -0.466
3.82 -15.02 30.837 -0.832 -0.353 -0.427
4.027 -15.273 30.689 -0.844 -0.356 -0.401
4.583 -15.313 29.788 -0.382 -0.905 -0.189
4.55 -15.634 30.445 -0.36 -0.691 -0.628
4.387 -16.202 30.878 -0.251 -0.312 -0.916
5.431 -15.449 29.885 0.116 -0.984 -0.132
5.217 -15.741 30.522 0.259 -0.79 -0.556
5.096 -16.316 30.96 0.339 -0.406 -0.848
5.758 -15.55 30.889 0.76 -0.613 -0.217
6.44 -15.131 31.061 0.305 -0.893 -0.332
6.888 -15.421 31.636 0.006 -0.699 -0.715
6.574 -15.042 31.004 0.485 -0.772 -0.41
7.015 -15.337 31.581 0.191 -0.575 -0.795
6.653 -14.926 30.841 0.433 -0.85 -0.302
7.107 -15.05 31.331 0.13 -0.767 -0.629
6.691 -14.895 30.813 0.467 -0.822 -0.326
7.146 -15.018 31.303 0.163 -0.74 -0.652
6.833 -14.768 30.62 0.372 -0.907 -0.197
7.392 -14.769 30.96 -0.001 -0.906 -0.424
7.116 -14.284 30.129 0.614 -0.494 -0.616
7.685 -14.27 30.453 0.235 -0.503 -0.832
6.363 -14.64 29.179 0.665 -0.509 -0.547
6.544 -14.233 28.821 0.544 -0.78 -0.308
5.857 -14.736 28.853 0.367 -0.566 -0.739
6 -14.336 28.47 0.272 -0.832 -0.483
5.269 -14.715 28.693 0.021 -0.553 -0.833
5.367 -14.314 28.298 -0.045 -0.821 -0.569
4.675 -14.579 28.719 -0.328 -0.473 -0.818
4.728 -14.167 28.326 -0.364 -0.748 -0.555
4.151 -14.346 28.928 -0.636 -0.336 -0.695
4.165 -13.916 28.551 -0.645 -0.622 -0.443
3.766 -14.046 29.294 -0.863 -0.159 -0.48
3.751 -13.593 28.944 -0.853 -0.461 -0.247
7.271 -13.929 29.886 0.511 -0.73 -0.453
7.768 -14.066 30.328 0.179 -0.639 -0.748
7.61 -13.275 29.708 0.775 -0.221 -0.593
8.107 -13.412 30.15 0.443 -0.129 -0.887
7.673 -12.623 29.095 0.732 -0.655 -0.184
8.212 -12.234 29.052 0.373 -0.915 -0.155
8.861 -12.116 28.963 -0.06 -0.994 -0.096
7.634 -12.575 28.906 0.682 -0.594 -0.426
8.184 -12.2 28.917 0.316 -0.844 -0.434
8.828 -12.075 28.801 -0.113 -0.928 -0.356
7.609 -12.443 28.586 0.699 -0.682 -0.213
7.565 -12.447 28.482 0.661 -0.686 -0.304
7.079 -13.264 27.872 0.985 -0.141 0.102
7.334 -13.455 27.155 0.815 -0.014 0.58
6.892 -13.837 28.674 0.718 -0.582 -0.381
6.864 -13.716 27.9 0.736 -0.663 0.135
7.139 -13.866 27.181 0.553 -0.563 0.614
7.64 -14.248 26.714 0.219 -0.309 0.926
6.25 -14.245 28.491 0.397 -0.787 -0.473
6.454 -13.977 27.783 0.261 -0.965 -0.001
6.764 -14.104 27.074 0.054 -0.88 0.471
7.097 -14.593 26.559 -0.168 -0.555 0.815
5.547 -14.2 28.149 0.045 -0.764 -0.644
6.004 -13.948 27.564 -0.26 -0.932 -0.254
6.355 -14.078 26.875 -0.493 -0.845 0.206
6.503 -14.554 26.27 -0.593 -0.527 0.609
5.687 -13.64 27.329 -0.626 -0.575 -0.526
6.066 -13.797 26.661 -0.879 -0.47 -0.081
5.465 -13.395 27.254 -0.478 -0.738 -0.476
5.701 -13.345 26.55 -0.635 -0.772 -0.007
5.082 -12.638 27.168 -0.831 -0.039 -0.556
5.328 -12.605 26.467 -0.994 -0.061 -0.088
4.831 -12.235 27.358 -0.663 -0.308 -0.682
4.96 -11.863 26.875 -0.749 -0.556 -0.36
4.511 -11.691 27.69 -0.892 0.081 -0.444
4.64 -11.32 27.207 -0.978 -0.167 -0.122
4.302 -11.395 27.996 -0.753 -0.117 -0.648
3.987 -11.168 28.648 -0.985 0.05 -0.167
3.722 -9.979 29.069 -0.932 0.085 -0.353
3.82 -9.953 28.473 -0.997 0.067 0.045
3.927 -9.286 29.066 -0.83 0.431 -0.355
3.993 -9.367 28.47 -0.873 0.485 0.043
4.094 -8.842 30.032 -0.746 0.654 0.129
4.128 -8.819 30.297 -0.768 0.639 -0.048
5.455 -8.165 30.533 -0.563 0.794 0.23
5.742 -8.569 31.193 -0.284 0.4 0.871
5.896 -7.912 29.082 -0.655 0.756 0.021
6.309 -7.685 28.855 -0.341 0.928 -0.151
6.377 -7.673 28.729 -0.386 0.92 -0.068
6.987 -7.67 28.573 0.296 0.924 -0.243
7.161 -6.958 29.965 0.049 0.98 -0.194
7.596 -6.915 29.963 -0.241 0.951 -0.193
7.232 -7.042 30.768 0.1 0.92 0.38
7.662 -6.993 30.702 -0.186 0.887 0.423
8.003 -7.874 31.586 -0.124 0.757 0.642
8.526 -7.95 32.02 -0.472 0.808 0.353
7.895 -8.008 31.69 -0.239 0.615 0.751
8.408 -8.096 32.132 -0.581 0.674 0.457
7.585 -8.279 31.91 -0.032 0.796 0.605
7.851 -8.53 32.564 -0.21 0.963 0.169
7.044 -8.674 31.947 -0.692 0.314 0.65
7.261 -8.961 32.605 -0.837 0.505 0.211
8.488 -8.026 33.91 -0.485 0.754 -0.443
8.057 -8.284 34.725 -0.81 0.56 0.173
8.894 -7.807 33.613 -0.755 0.608 -0.245
9.457 -7.406 33.649 -0.307 0.927 -0.216
9.594 -7.358 33.63 -0.399 0.894 -0.203
10.364 -7.379 33.964 0.462 0.871 0.17
10.824 -7.496 34.631 0.155 0.949 -0.275
10.855 -7.538 35.221 0.189 0.902 0.388
9.724 -7.191 35.667 0.223 0.774 0.593
9.894 -7.414 36.002 0.109 0.923 0.37
9.169 -7.329 35.812 -0.239 0.658 0.714
9.292 -7.565 36.159 -0.321 0.815 0.482
8.676 -7.641 35.731 -0.65 0.398 0.647
8.756 -7.904 36.072 -0.704 0.573 0.42
10.979 -7.623 35.406 0.106 0.959 0.264
10.641 -7.962 36.256 0.643 0.531 0.552
11.173 -8.028 35.935 0.289 0.575 0.766
11.779 -7.944 35.813 -0.115 0.519 0.847
11.268 -8.694 36.101 0.38 -0.057 0.923
10.24 -8.997 36.759 0.356 -0.208 0.911
10.411 -9.57 36.694 0.243 0.175 0.954
9.604 -9.124 36.813 -0.098 -0.299 0.949
9.658 -9.721 36.758 -0.134 0.099 0.986
8.99 -9.094 36.6 -0.537 -0.277 0.797
8.931 -9.686 36.505 -0.497 0.117 0.86
11.42 -8.979 36.059 0.278 0.133 0.951
11.862 -9.627 35.737 0.61 -0.354 0.709
11.945 -9.803 35.604 0.555 -0.236 0.798
11.962 -9.877 35.567 0.567 -0.287 0.772
11.445 -10.837 35.707 0.76 -0.458 0.461
11.921 -10.806 35.261 0.443 -0.479 0.758
11.146 -11.401 35.349 0.61 -0.741 0.281
11.622 -11.37 34.902 0.293 -0.761 0.579
10.382 -12.131 34.312 0.622 -0.666 0.413
10.297 -12.16 34.381 0.567 -0.685 0.458
10.039 -12.191 34.905 0.74 -0.664 0.109
9.97 -12.146 35.261 0.697 -0.636 0.331
11.216 -10.986 35.879 0.646 -0.533 0.547
11.028 -11.113 36.021 0.771 -0.448 0.452
10.592 -10.378 36.615 0.334 -0.229 0.915
10.543 -10.64 36.594 0.366 -0.054 0.929
9.94 -12.116 35.406 0.717 -0.656 0.234
10.213 -11.56 36.156 0.092 -0.821 0.564
9.646 -11.979 35.955 0.469 -0.541 0.698
9.248 -12.593 36.004 0.735 -0.132 0.665
9.248 -11.597 36.274 0.133 -0.218 0.967
8.736 -13.555 35.931 0.479 -0.613 0.628
8.578 -14.094 35.717 0.584 -0.253 0.771
7.427 -15.57 34.82 -0.018 -0.736 0.677
6.899 -15.531 34.618 -0.531 -0.698 0.48
6.146 -15.225 34.691 -0.03 -0.902 0.431
5.593 -15.544 34.378 0.339 -0.689 0.64
5.844 -14.895 34.89 -0.542 -0.344 0.767
5.29 -15.213 34.576 -0.172 -0.131 0.976
5.724 -15.969 34.02 0.252 -0.406 0.879
6.363 -15.953 33.999 -0.174 -0.416 0.892
5.715 -16.312 33.701 0.24 -0.854 0.461
6.354 -16.31 33.667 -0.185 -0.856 0.483
8.152 -16.206 34.356 0.286 -0.462 0.839
8.332 -15.81 34.615 0.166 -0.727 0.667
8.624 -16.275 34.009 0.623 -0.512 0.591
8.891 -15.892 34.204 0.445 -0.767 0.461
8.904 -16.29 33.49 0.824 -0.522 0.221
9.223 -15.909 33.59 0.611 -0.776 0.154
8.937 -16.248 32.903 0.847 -0.492 -0.199
9.262 -15.86 32.894 0.631 -0.751 -0.193
8.24 -16.095 31.984 0.349 -0.383 -0.855
8.736 -15.339 31.394 0.018 -0.887 -0.462
9.724 -15.283 32.257 0.512 -0.858 -0.03
9.424 -15.622 32.67 0.712 -0.632 -0.305
10.029 -15.009 32.704 0.665 -0.721 0.193
9.73 -15.348 33.117 0.865 -0.495 -0.082
10.188 -14.618 33.14 0.744 -0.526 0.411
9.888 -14.957 33.553 0.944 -0.3 0.136
10.185 -14.148 33.524 0.743 -0.291 0.603
9.885 -14.487 33.937 0.943 -0.065 0.328
10.461 -13.614 33.263 0.881 -0.024 0.472
10.547 -13.056 33.362 0.824 -0.396 0.406
10.68 -13.528 32.592 0.99 0.019 0.137
10.766 -12.971 32.691 0.933 -0.353 0.071
10.647 -13.399 31.894 0.974 0.083 -0.212
10.733 -12.842 31.993 0.916 -0.288 -0.278
10.169 -12.714 30.741 0.964 -0.192 -0.182
10.352 -12.259 30.149 0.843 -0.495 0.212
9.89 -13.008 30.408 0.654 -0.518 -0.551
10.096 -12.528 29.846 0.516 -0.838 -0.176
9.886 -13.786 30.714 0.656 0 -0.755
9.802 -14.878 31.288 0.552 -0.656 -0.515
9.765 -14.838 31.187 0.577 -0.683 -0.447
9.732 -14.803 31.082 0.599 -0.707 -0.377
8.592 -14.854 30.791 -0.053 -0.644 -0.763
8.692 -14.816 30.747 -0.12 -0.669 -0.733
8.79 -14.784 30.695 -0.186 -0.691 -0.699
8.974 -13.767 30.339 0.064 0.012 -0.998
9.214 -12.994 30.131 -0.096 -0.503 -0.859
9.479 -12.515 29.592 -0.273 -0.822 -0.5
9.102 -12.941 30.122 -0.22 -0.444 -0.869
9.377 -12.467 29.584 -0.403 -0.76 -0.51
9.593 -12.483 29.453 -0.349 -0.844 -0.407
9.462 -12.815 29.949 -0.262 -0.623 -0.738
9.267 -13.302 30.261 -0.131 -0.298 -0.946
10.114 -12.493 29.667 0.505 -0.862 -0.057
9.847 -12.823 30.107 0.682 -0.642 -0.35
9.75 -13.312 30.459 0.747 -0.316 -0.585
10.487 -12.05 30.202 0.753 -0.634 0.177
10.339 -12.296 30.816 0.851 -0.47 -0.232
10.489 -12.048 30.203 0.755 -0.631 0.179
10.341 -12.293 30.818 0.853 -0.468 -0.231
11.014 -11.648 30.213 0.405 -0.898 0.173
11.4 -11.361 29.989 0.788 -0.614 -0.05
11.487 -11.257 29.927 0.73 -0.683 -0.009
11.714 -10.696 29.478 0.901 -0.261 -0.347
11.651 -10.483 28.309 0.888 -0.453 -0.081
11.151 -10.561 27.591 0.433 -0.524 -0.733
9.428 -11.447 27.463 0.277 -0.047 -0.96
8.913 -11.623 27.196 0.62 0.07 -0.781
8.551 -11.782 26.737 0.862 0.176 -0.475
8.399 -11.897 26.161 0.963 0.253 -0.092
9.414 -11.711 27.572 0.244 -0.665 -0.706
8.908 -11.727 27.238 0.581 -0.655 -0.483
8.544 -11.904 26.787 0.824 -0.537 -0.182
8.382 -12.211 26.29 0.932 -0.332 0.149
8.876 -11.966 28.325 -0.091 -0.959 -0.27
8.843 -11.991 28.467 -0.124 -0.983 -0.133
7.97 -12.151 27.621 0.513 -0.835 0.2
7.825 -12.514 27.131 0.609 -0.593 0.527
7.84 -13.033 26.779 0.6 -0.247 0.761
7.924 -12.169 27.648 0.422 -0.871 0.252
7.789 -12.528 27.151 0.511 -0.632 0.583
7.789 -13.053 26.807 0.511 -0.282 0.812
8.593 -12.898 24.763 0.988 -0.154 0.005
8.184 -13.255 24.069 0.616 -0.478 -0.626
7.58 -14.178 24.088 0.176 -0.259 -0.95
7.393 -13.613 23.731 0.301 -0.635 -0.711
6.91 -14.381 24.209 -0.302 -0.404 -0.863
6.636 -13.843 23.867 -0.12 -0.763 -0.635
6.353 -14.449 24.645 -0.7 -0.452 -0.552
6.006 -13.92 24.36 -0.469 -0.805 -0.362
6.052 -14.364 25.283 -0.915 -0.391 -0.096
5.666 -13.823 25.081 -0.658 -0.752 0.039
7.55 -13.244 23.544 0.388 -0.43 -0.815
7.899 -12.726 23.24 0.156 -0.775 -0.612
6.976 -12.958 23.283 0.069 -0.271 -0.96
7.39 -12.473 23.009 -0.207 -0.594 -0.777
6.47 -12.486 23.252 -0.212 -0.009 -0.977
6.943 -12.055 22.981 -0.527 -0.296 -0.797
6.129 -11.918 23.457 -0.401 0.306 -0.863
6.641 -11.553 23.163 -0.742 0.063 -0.667
5.929 -10.891 24.198 -0.403 0.298 -0.866
5.503 -11.648 24.147 -0.749 0.456 -0.48
5.436 -11.162 24.473 -0.705 0.132 -0.697
5.206 -10.645 24.637 -0.551 -0.212 -0.807
5.168 -11.98 24.603 -0.935 0.272 -0.227
5.116 -11.479 24.908 -0.9 -0.062 -0.431
4.855 -10.993 25.114 -0.727 -0.386 -0.568
5.064 -12.312 25.159 -0.993 0.088 0.082
5.016 -11.796 25.44 -0.961 -0.256 -0.106
4.746 -11.34 25.697 -0.781 -0.56 -0.277
5.153 -12.066 25.989 -0.878 -0.421 0.23
6.243 -10.737 24.05 -0.611 0.195 -0.767
6.23 -9.817 24.294 -0.039 0.201 -0.979
6.641 -10.299 24.015 -0.313 0.523 -0.793
6.952 -10.615 23.483 -0.52 0.733 -0.438
7.148 -10.029 24.159 0.067 0.726 -0.685
6.908 -8.663 25.148 0.3 0.779 -0.551
7.14 -8.774 25.074 0.145 0.853 -0.502
8.086 -8.76 26.547 0.377 0.714 -0.589
8.005 -8.679 26.605 0.313 0.779 -0.544
5.194 -8.575 26.022 -0.557 0.822 -0.114
5.213 -8.31 26.612 -0.57 0.646 -0.508
4.69 -9.044 26.25 -0.809 0.588 -0
4.71 -8.779 26.84 -0.822 0.411 -0.394
4.373 -9.683 27.094 -0.923 0.305 -0.234
4.334 -10.339 26.548 -0.987 -0.06 0.149
4.307 -10.275 27.107 -0.969 -0.103 -0.224
4.075 -10.231 27.619 -0.814 -0.132 -0.565
4.464 -10.835 27.232 -0.861 -0.49 -0.138
4.199 -9.202 27.947 -0.726 0.604 -0.331
4.501 -8.856 27.527 -0.927 0.373 -0.051
5.412 -7.854 27.382 -0.471 0.873 -0.123
5.635 -7.713 27.334 -0.62 0.78 -0.091
7.749 -8.029 27.358 0.253 0.872 -0.42
7.616 -7.912 27.885 0.121 0.987 0.103
7.201 -7.784 28.294 0.398 0.902 -0.169
7.497 -7.667 28.835 0.201 0.824 -0.53
7.081 -7.736 28.349 0.233 0.968 -0.093
7.377 -7.619 28.89 0.036 0.89 -0.454
8.083 -7.729 28.737 -0.19 0.865 -0.465
8.691 -7.713 28.968 0.412 0.88 -0.236
9.068 -7.772 29.154 0.161 0.919 -0.36
9.196 -7.75 29.33 0.282 0.939 -0.194
9.23 -7.617 29.724 0.26 0.85 -0.458
9.258 -7.547 30.473 0.287 0.918 0.273
9.033 -7.519 30.893 0.437 0.899 -0.007
9.486 -7.6 31.284 0.136 0.954 -0.268
8.279 -7.196 30.931 0.329 0.718 0.614
8.675 -7.499 31.271 0.065 0.92 0.387
9.086 -7.578 31.706 -0.21 0.973 0.097
9.447 -7.421 32.164 -0.45 0.868 -0.208
8.302 -7.741 31.544 -0.323 0.668 0.67
8.671 -7.848 32.01 -0.569 0.739 0.36
11.7 -7.706 33.329 0.423 0.903 -0.067
11.664 -7.688 33.38 0.388 0.922 -0.016
11.57 -7.623 33.595 0.45 0.879 -0.159
11.136 -7.538 33.91 -0.053 0.977 0.206
12.606 -7.65 34.439 0.574 0.763 -0.297
12.788 -7.84 34.089 0.453 0.889 -0.064
12.956 -7.967 34.84 0.865 0.5 0.036
13.168 -8.183 34.524 0.724 0.644 0.247
13.019 -8.425 35.25 0.918 0.117 0.378
13.236 -8.681 34.97 0.773 0.288 0.565
12.779 -8.903 35.56 0.718 -0.281 0.637
12.976 -9.201 35.307 0.587 -0.083 0.805
12.278 -8.227 32.645 0.538 0.828 -0.157
12.419 -8.343 32.603 0.65 0.736 -0.191
12.498 -8.428 32.509 0.597 0.792 -0.128
12.822 -9.225 32.483 0.977 -0.143 -0.158
12.826 -9.345 32.571 0.974 -0.063 -0.216
12.803 -9.551 32.609 0.956 -0.227 -0.186
13.24 -9.878 33.789 0.775 -0.567 -0.278
12.96 -10.351 33.532 0.962 -0.252 -0.107
13.129 -10.065 34.402 0.696 -0.7 0.16
12.829 -10.572 34.257 0.896 -0.362 0.256
12.852 -9.991 34.986 0.499 -0.647 0.577
12.501 -10.485 34.948 0.733 -0.318 0.602
12.714 -10.474 32.855 0.839 -0.313 -0.445
12.673 -10.318 31.777 0.867 -0.417 0.274
12.443 -11.246 34.001 0.703 -0.699 0.128
12.334 -11.421 33.83 0.776 -0.583 0.242
10.785 -12.144 33.886 0.528 -0.703 0.478
10.652 -12.109 34.053 0.442 -0.68 0.585
10.864 -12.181 33.761 0.475 -0.678 0.561
10.769 -12.853 32.951 0.934 -0.294 0.201
11.124 -12.223 33.171 0.698 -0.714 0.054
11.744 -11.865 33.412 0.284 -0.953 -0.107
11.188 -11.954 32.589 0.753 -0.482 -0.448
11.061 -11.863 31.82 0.838 -0.542 0.064
10.758 -12.002 31.192 0.575 -0.662 -0.48
11.627 -11.371 32.177 0.461 -0.87 -0.173
11.735 -11.301 32.168 0.581 -0.793 -0.184
11.847 -11.244 32.239 0.506 -0.831 -0.231
12.2 -10.95 32.325 0.782 -0.601 -0.163
12.876 -9.701 30.781 0.969 -0.108 -0.224
12.944 -9.449 30.844 0.924 -0.275 -0.266
12.249 -8.888 29.371 0.972 0.231 -0.043
12.525 -9.599 30.016 0.793 -0.057 -0.607
12.252 -9.398 29.281 0.975 -0.191 -0.117
12.404 -9.281 28.496 0.873 -0.269 0.406
12.036 -9.859 29.184 0.796 -0.572 -0.197
11.936 -10.152 29.393 0.863 -0.376 -0.336
11.85 -10.346 29.429 0.81 -0.495 -0.315
12.239 -8.826 29.19 0.979 0.189 0.077
12.333 -8.873 29.808 0.916 0.221 -0.335
12.133 -8.56 29.229 0.852 0.509 0.124
12.231 -8.617 29.846 0.786 0.548 -0.287
12.116 -8.554 29.42 0.863 0.506 -0.003
11.866 -7.95 28.69 0.488 0.681 0.545
11.754 -8.167 29.461 0.563 0.826 0.031
11.887 -8.024 30.246 0.474 0.731 -0.492
11.259 -7.971 29.459 0.154 0.988 0.03
11.01 -7.888 29.249 0.32 0.932 0.17
10.578 -7.815 29.049 -0.066 0.998 -0.01
9.803 -7.946 27.934 -0.121 0.988 -0.092
10.402 -7.967 27.239 -0.557 0.669 -0.492
9.779 -8.159 27.382 -0.142 0.797 -0.587
9.114 -8.114 27.351 0.301 0.767 -0.567
10.425 -8.494 26.823 -0.541 0.293 -0.789
9.8 -8.624 27.015 -0.124 0.379 -0.917
9.138 -8.641 26.936 0.318 0.391 -0.864
9.86 -9.208 26.937 -0.07 -0.145 -0.987
10.949 -9.743 26.83 -0.166 -0.599 -0.783
10.443 -10.161 27.053 0.171 -0.32 -0.932
9.163 -9.76 26.872 0.343 0.044 -0.938
8.564 -9.86 26.456 0.742 0.111 -0.661
9.183 -9.947 26.888 0.362 -0.132 -0.923
8.585 -10.05 26.473 0.761 -0.062 -0.646
8.314 -10.595 25.276 0.941 0.301 0.152
8.268 -10.437 25.142 0.906 0.42 0.051
8.235 -10.336 25.036 0.928 0.352 0.122
8.233 -10.358 24 0.395 0.916 -0.069
7.915 -10.007 24.508 0.607 0.682 -0.408
7.792 -9.436 24.885 0.689 0.301 -0.66
7.286 -9.989 24.204 -0.025 0.699 -0.714
8.46 -9.519 26.351 0.788 -0.019 -0.615
8.105 -8.852 26.435 0.365 0.776 -0.515
8.537 -9.607 26.441 0.737 0.039 -0.675
8.553 -9.673 26.457 0.75 -0.014 -0.662
12.165 -7.932 30.938 0.613 0.777 -0.145
12.391 -8.074 30.967 0.463 0.871 -0.164
7.876 -8.072 27.33 0.168 0.901 -0.401
8.047 -8.46 26.869 0.286 0.633 -0.72
8.887 -14.952 34.972 0.443 -0.297 0.846
8.63 -14.585 35.381 0.615 -0.542 0.573
6.717 -15.949 31.958 0.12 -0.347 -0.93
6.127 -15.989 31.758 0.514 -0.32 -0.796
6.546 -16.46 32.51 -0.086 -0.959 -0.27
5.962 -16.481 32.288 0.304 -0.945 -0.122
5.77 -11.637 35.922 -0.618 0.054 0.785
5.243 -11.577 35.653 -0.266 0.014 0.964
6.02 -10.915 35.544 -0.334 0.873 0.356
5.484 -10.882 35.289 0.023 0.85 0.526
8.746 -11.263 27.014 0.733 -0.142 -0.665
8.382 -11.347 26.315 0.976 -0.085 -0.198
8.714 -12.029 27.32 0.467 -0.88 -0.089
8.376 -12.357 26.909 0.756 -0.599 0.263
8.597 -10.673 26.337 0.896 -0.087 -0.436
7.067 -9.221 32.623 -0.707 0.678 0.199
6.58 -9.452 32.321 -0.383 0.832 0.401
6.58 -9.067 31.838 -0.383 0.576 0.722
5.031 -14.836 34.655 0 -0.383 0.924
6.323 -15.606 31.647 0.383 -0.576 -0.722
8.772 -12.221 29.393 0 -0.924 -0.383
8.772 -12.546 29.88 0 -0.707 -0.707
8.198 -12.358 29.42 0.383 -0.832 -0.401
8.198 -12.742 29.902 0.383 -0.576 -0.722
7.711 -12.714 29.392 0.707 -0.595 -0.382
7.495 -12.415 28.025 0.707 -0.707 0
7.495 -13.035 27.061 0.707 -0.294 0.643
7.495 -12.584 27.452 0.707 -0.595 0.382
7.17 -12.902 28.025 0.924 -0.383 0
5.222 -12.123 26.334 -0.924 -0.383 0
8.111 -8.334 32.216 -0.383 0.832 0.401
6.676 -15.713 34.254 -0.383 -0.576 0.722
6.102 -15.517 34.277 0 -0.707 0.707
8.739 -11.903 27.92 0 -1 0
8.165 -12.155 27.319 0.383 -0.832 0.401
7.798 -7.817 28.614 0 0.924 -0.383
4.017 -10.145 34.245 -0.309 0.9 0.309
3.459 -10.449 34.246 -0.588 0.747 0.31
3.459 -11.944 35.245 -0.588 -0 0.809
3.017 -10.768 33.627 -0.809 0.588 0
3.017 -10.926 34.215 -0.809 0.509 0.294
3.017 -11.356 34.645 -0.809 0.294 0.509
3.017 -11.944 34.803 -0.809 -0 0.588
2.733 -11.326 33.627 -0.951 0.309 0
2.733 -11.635 34.162 -0.951 0.155 0.268
2.733 -11.635 33.092 -0.951 0.155 -0.268
2.635 -11.944 33.627 -1 -0 -0
3.183 -11.645 30.94 -0.951 0.155 -0.268
3.612 -10.097 32.568 -0.766 0.643 0
7.684 -11.5 37.032 0.223 0.217 0.95
7.684 -12.108 37.032 0.223 -0.217 0.95
7.06 -10.953 36.768 -0.223 0.608 0.762
7.06 -11.5 37.032 -0.223 0.217 0.95
7.06 -12.108 37.032 -0.223 -0.217 0.95
6.499 -11.349 36.697 -0.623 0.325 0.711
6.499 -11.96 36.784 -0.623 -0.111 0.774
3.901 -11.049 35.367 -0.5 0.36 0.788
4.224 -13.734 35.322 -0.174 -0.27 0.947
3.669 -14.012 34.987 -0.5 -0.433 0.75
3.217 -13.992 34.538 -0.766 -0.421 0.486
2.922 -13.567 34.216 -0.94 -0.171 0.296
2.795 -14.323 32.06 -0.951 -0.155 -0.268
2.697 -14.014 32.595 -1 -0 -0
3.278 -16.39 32.371 -0.766 -0.617 -0.181
2.983 -15.923 32.679 -0.94 -0.342 -0
2.983 -15.633 32.175 -0.94 -0.171 -0.296
6.083 -15.215 29.803 0.5 -0.847 -0.18
6.083 -14.966 29.244 0.5 -0.701 -0.509
5.528 -15.198 29.228 0.174 -0.837 -0.518
4.938 -15.198 29.228 -0.174 -0.837 -0.518
4.383 -14.966 29.244 -0.5 -0.701 -0.509
3.931 -14.491 29.283 -0.766 -0.421 -0.486
4.838 -13.96 28.038 -0.309 -0.644 -0.7
4.28 -13.291 27.942 -0.588 -0.31 -0.747
3.838 -13.26 28.419 -0.809 -0.294 -0.509
3.838 -12.672 28.261 -0.809 -0 -0.588
3.554 -12.981 28.902 -0.951 -0.155 -0.268
3.554 -12.363 28.902 -0.951 0.155 -0.268
3.684 -9.531 29.775 -0.951 0.309 0
3.586 -10.149 29.775 -1 -0 -0
4.449 -8.712 30.916 -0.5 0.729 0.468
6.78 -6.965 30.236 -0.223 0.975 0
6.78 -7.1 30.828 -0.223 0.878 0.423
6.78 -7.479 31.303 -0.223 0.608 0.762
6.219 -7.235 30.236 -0.623 0.782 0
6.219 -7.409 30.828 -0.623 0.658 0.423
9.456 -6.919 34.955 -0 1 0
8.856 -7.08 34.955 -0.5 0.866 0
8.856 -7.245 35.517 -0.5 0.729 0.468
10.053 -7.855 36.551 0.223 0.608 0.762
10.053 -8.402 36.815 0.223 0.217 0.95
9.429 -7.855 36.551 -0.223 0.608 0.762
9.429 -8.402 36.815 -0.223 0.217 0.95
8.868 -8.251 36.48 -0.623 0.325 0.711
11.101 -9.92 36.404 0.588 -0 0.809
10.703 -11.256 36.264 0.5 -0.567 0.654
10.103 -11.001 36.601 -0 -0.355 0.935
8.954 -12.948 36.169 0.588 -0.31 0.747
8.396 -13.093 36.416 0.309 -0.382 0.871
7.161 -14.543 36.123 -0 -0.355 0.935
7.161 -15.015 35.797 -0 -0.749 0.663
6.561 -14.265 36.03 -0.5 -0.123 0.857
6.561 -14.798 35.786 -0.5 -0.567 0.654
4.395 -16.136 34.556 -0 -0.355 0.935
4.395 -16.608 34.23 -0 -0.749 0.663
3.795 -15.858 34.463 -0.5 -0.123 0.857
3.795 -16.391 34.219 -0.5 -0.567 0.654
3.795 -16.707 33.727 -0.5 -0.831 0.244
8.624 -16.609 33.489 0.623 -0.75 0.22
8.624 -16.609 32.873 0.623 -0.75 -0.22
8.063 -16.789 33.773 0.223 -0.878 0.423
8.063 -16.924 33.181 0.223 -0.975 0
8.063 -16.789 32.589 0.223 -0.878 -0.423
8.063 -16.41 32.114 0.223 -0.608 -0.762
7.439 -16.41 34.248 -0.223 -0.608 0.762
7.439 -16.789 33.773 -0.223 -0.878 0.423
7.439 -16.924 33.181 -0.223 -0.975 0
4.689 -16.993 31.691 -0 -0.971 -0.239
4.689 -16.726 31.182 -0 -0.749 -0.663
4.089 -16.509 31.193 -0.5 -0.567 -0.654
10.601 -14.184 32.318 0.951 -0.309 -0
10.601 -13.875 31.783 0.951 -0.155 -0.268
10.317 -14.742 32.318 0.809 -0.588 0
10.317 -14.584 31.73 0.809 -0.509 -0.294
9.875 -15.061 31.699 0.588 -0.747 -0.31
11.427 -11.671 28.87 0.901 -0.434 -0
11.039 -12.114 29.178 0.623 -0.75 0.22
11.039 -12.114 28.562 0.623 -0.75 -0.22
11.039 -11.781 28.043 0.623 -0.512 -0.591
10.478 -12.294 28.278 0.223 -0.878 -0.423
10.478 -11.915 27.803 0.223 -0.608 -0.762
8.733 -13.816 25.418 1 0 0
8.594 -14.12 25.944 0.901 -0.217 0.376
8.594 -14.423 25.418 0.901 -0.434 -0
8.594 -14.12 24.892 0.901 -0.217 -0.376
8.206 -14.533 26.245 0.623 -0.512 0.591
8.206 -14.866 25.726 0.623 -0.75 0.22
8.206 -14.866 25.11 0.623 -0.75 -0.22
8.206 -14.533 24.591 0.623 -0.512 -0.591
7.645 -14.667 26.485 0.223 -0.608 0.762
7.645 -15.046 26.01 0.223 -0.878 0.423
7.645 -15.181 25.418 0.223 -0.975 0
7.645 -15.046 24.826 0.223 -0.878 -0.423
7.645 -14.667 24.351 0.223 -0.608 -0.762
7.021 -15.046 26.01 -0.223 -0.878 0.423
7.021 -15.181 25.418 -0.223 -0.975 0
7.021 -15.046 24.826 -0.223 -0.878 -0.423
7.021 -14.667 24.351 -0.223 -0.608 -0.762
6.46 -14.866 25.726 -0.623 -0.75 0.22
6.46 -14.866 25.11 -0.623 -0.75 -0.22
6.538 -13.356 23.476 -0.174 -0.492 -0.853
5.951 -13.572 23.909 -0.5 -0.612 -0.612
5.951 -13.067 23.571 -0.5 -0.331 -0.8
5.951 -12.47 23.452 -0.5 0 -0.866
5.472 -13.472 24.432 -0.766 -0.557 -0.321
5.472 -13.049 24.009 -0.766 -0.321 -0.557
5.472 -12.47 23.854 -0.766 -0 -0.643
5.16 -13.086 25.011 -0.94 -0.342 -0
5.16 -12.778 24.478 -0.94 -0.171 -0.296
6.308 -8.973 24.687 -0 0.623 -0.782
6.308 -8.568 25.124 -0 0.826 -0.563
5.69 -9.753 24.407 -0.309 0.233 -0.922
5.69 -9.18 24.659 -0.309 0.52 -0.796
5.69 -8.719 25.083 -0.309 0.751 -0.584
5.132 -10.22 24.633 -0.588 0 -0.809
5.132 -9.601 24.756 -0.588 0.31 -0.747
5.132 -9.076 25.107 -0.588 0.572 -0.572
5.132 -8.725 25.632 -0.588 0.747 -0.31
4.69 -10.22 25.075 -0.809 -0 -0.588
4.69 -9.632 25.233 -0.809 0.294 -0.509
4.69 -9.202 25.663 -0.809 0.509 -0.294
4.406 -10.838 26.251 -0.951 -0.309 -0
4.406 -10.529 25.716 -0.951 -0.155 -0.268
4.406 -9.911 25.716 -0.951 0.155 -0.268
3.954 -9.743 27.884 -0.901 0.217 -0.376
6.378 -7.449 27.443 -0 1 0
6.378 -7.586 26.885 -0 0.885 -0.465
11.046 -7.158 32.668 0.5 0.866 0
10.446 -6.997 32.668 -0 1 0
12.517 -7.527 34.796 0.5 0.866 0
12.517 -7.692 35.358 0.5 0.729 0.468
12.517 -8.134 35.741 0.5 0.36 0.788
12.517 -8.714 35.825 0.5 -0.123 0.857
11.917 -7.366 34.796 -0 1 0
13.554 -9.085 34.179 1 0 0
13.415 -8.478 34.179 0.901 0.434 0
13.415 -9.389 34.705 0.901 -0.217 0.376
13.415 -9.692 34.179 0.901 -0.434 -0
13.415 -9.389 33.653 0.901 -0.217 -0.376
13.415 -8.781 33.653 0.901 0.217 -0.376
13.027 -8.164 33.587 0.623 0.658 -0.423
12.212 -10.992 34.889 0.588 -0.572 0.572
9.618 -14.945 34.299 0.809 -0.294 0.509
9.618 -15.375 33.869 0.809 -0.509 0.294
9.176 -15.501 34.425 0.588 -0.572 0.572
8.435 -14.4 35.681 0.5 -0.433 0.75
9.613 -14.636 30.749 0.5 -0.567 -0.654
9.013 -14.381 30.412 -0 -0.355 -0.935
12.841 -10.103 31.229 0.951 -0.309 -0
12.557 -10.661 31.229 0.809 -0.588 0
12.557 -10.503 30.641 0.809 -0.509 -0.294
12.582 -8.904 27.927 1 0 0
12.443 -8.297 27.927 0.901 0.434 0
12.443 -9.511 27.927 0.901 -0.434 -0
12.443 -9.208 27.401 0.901 -0.217 -0.376
12.443 -8.6 27.401 0.901 0.217 -0.376
12.055 -7.809 27.927 0.623 0.782 0
12.055 -9.621 27.1 0.623 -0.512 -0.591
12.055 -9.06 26.844 0.623 -0.111 -0.774
12.055 -8.449 26.931 0.623 0.325 -0.711
12.055 -7.983 27.335 0.623 0.658 -0.423
11.494 -7.539 27.927 0.223 0.975 0
11.494 -9.755 26.86 0.223 -0.608 -0.762
11.494 -9.208 26.596 0.223 -0.217 -0.95
11.494 -8.6 26.596 0.223 0.217 -0.95
11.494 -8.053 26.86 0.223 0.608 -0.762
11.494 -7.674 27.335 0.223 0.878 -0.423
10.87 -7.539 27.927 -0.223 0.975 0
10.87 -9.208 26.596 -0.223 -0.217 -0.95
10.87 -8.6 26.596 -0.223 0.217 -0.95
10.87 -8.053 26.86 -0.223 0.608 -0.762
10.87 -7.674 27.335 -0.223 0.878 -0.423
9.08 -11.641 24.097 1 0 0
8.941 -11.034 24.097 0.901 0.434 0
8.941 -11.945 23.571 0.901 -0.217 -0.376
8.941 -11.337 23.571 0.901 0.217 -0.376
8.553 -12.358 23.27 0.623 -0.512 -0.591
8.553 -11.797 23.014 0.623 -0.111 -0.774
8.553 -11.186 23.101 0.623 0.325 -0.711
8.553 -10.72 23.505 0.623 0.658 -0.423
7.992 -12.492 23.03 0.223 -0.608 -0.762
7.992 -11.945 22.766 0.223 -0.217 -0.95
7.992 -11.337 22.766 0.223 0.217 -0.95
7.992 -10.79 23.03 0.223 0.608 -0.762
7.368 -11.945 22.766 -0.223 -0.217 -0.95
7.368 -11.337 22.766 -0.223 0.217 -0.95
7.368 -10.79 23.03 -0.223 0.608 -0.762
6.807 -11.186 23.101 -0.623 0.325 -0.711
7.566 -8.923 25.115 0.5 0.729 -0.468
11.557 -7.686 30.611 0.309 0.9 -0.309
13.035 -9.119 31.164 1 0 0
12.874 -8.519 31.164 0.866 0.5 0
12.874 -8.819 30.644 0.866 0.25 -0.433
3 0 4 384
3 384 4 385
3 384 385 1
3 1 385 3
3 4 7 5
3 5 7 6
3 7 386 8
3 8 386 387
3 386 388 387
3 387 388 389
3 388 390 389
3 389 390 391
3 390 392 391
3 391 392 393
3 392 10 393
3 393 10 9
3 10 13 394
3 394 13 396
3 394 396 395
3 395 396 397
3 395 397 11
3 11 397 12
3 13 16 398
3 398 16 399
3 398 399 14
3 14 399 15
3 16 401 400
3 400 401 402
3 400 402 17
3 17 402 403
3 401 404 402
3 402 404 405
3 402 405 403
3 403 405 406
3 404 19 405
3 405 19 407
3 405 407 406
3 406 407 18
3 19 22 408
3 408 22 409
3 408 409 20
3 20 409 21
3 22 410 23
3 23 410 411
3 410 412 411
3 411 412 413
3 412 414 413
3 413 414 415
3 414 416 415
3 415 416 417
3 416 25 417
3 417 25 24
3 25 0 26
3 26 0 2
3 26 418 24
3 24 418 419
3 418 28 419
3 419 28 27
3 28 420 29
3 29 420 421
3 420 422 421
3 421 422 423
3 422 424 423
3 423 424 425
3 424 31 425
3 425 31 30
3 31 426 32
3 32 426 427
3 426 428 427
3 427 428 429
3 428 2 429
3 429 2 1
3 32 34 30
3 30 34 33
3 34 430 35
3 35 430 431
3 430 37 431
3 431 37 36
3 37 40 38
3 38 40 39
3 40 432 41
3 41 432 433
3 432 3 433
3 433 3 5
3 41 43 39
3 39 43 42
3 43 434 44
3 44 434 435
3 434 46 435
3 435 46 45
3 46 6 47
3 47 6 8
3 47 49 436
3 436 49 437
3 436 437 45
3 45 437 48
3 49 439 438
3 438 439 440
3 438 440 50
3 50 440 441
3 439 52 440
3 440 52 442
3 440 442 441
3 441 442 51
3 52 55 443
3 443 55 444
3 443 444 53
3 53 444 54
3 55 58 445
3 445 58 447
3 445 447 446
3 446 447 448
3 446 448 56
3 56 448 57
3 58 61 449
3 449 61 451
3 449 451 450
3 450 451 452
3 450 452 59
3 59 452 60
3 61 9 453
3 453 9 455
3 453 455 454
3 454 455 456
3 454 456 62
3 62 456 11
3 62 64 60
3 60 64 63
3 64 67 457
3 457 67 458
3 457 458 65
3 65 458 66
3 67 70 459
3 459 70 460
3 459 460 68
3 68 460 69
3 70 73 71
3 71 73 72
3 73 12 461
3 461 12 462
3 461 462 74
3 74 462 14
3 74 76 463
3 463 76 464
3 463 464 72
3 72 464 75
3 76 466 465
3 465 466 467
3 465 467 77
3 77 467 468
3 466 79 467
3 467 79 469
3 467 469 468
3 468 469 78
3 79 82 470
3 470 82 471
3 470 471 80
3 80 471 81
3 82 472 83
3 83 472 473
3 472 474 473
3 473 474 475
3 474 85 475
3 475 85 84
3 85 88 476
3 476 88 477
3 476 477 86
3 86 477 87
3 88 91 89
3 89 91 90
3 91 21 478
3 478 21 480
3 478 480 479
3 479 480 481
3 479 481 92
3 92 481 23
3 92 94 482
3 482 94 483
3 482 483 90
3 90 483 93
3 94 97 484
3 484 97 485
3 484 485 95
3 95 485 96
3 97 487 486
3 486 487 488
3 486 488 98
3 98 488 489
3 487 100 488
3 488 100 490
3 488 490 489
3 489 490 99
3 100 27 101
3 101 27 29
3 101 491 99
3 99 491 492
3 491 493 492
3 492 493 494
3 493 495 494
3 494 495 496
3 495 497 496
3 496 497 498
3 497 103 498
3 498 103 102
3 103 106 499
3 499 106 500
3 499 500 104
3 104 500 105
3 106 501 107
3 107 501 502
3 501 503 502
3 502 503 504
3 503 505 504
3 504 505 506
3 505 109 506
3 506 109 108
3 109 33 507
3 507 33 508
3 507 508 110
3 110 508 35
3 110 510 509
3 509 510 511
3 509 511 108
3 108 511 512
3 510 513 511
3 511 513 514
3 511 514 512
3 512 514 515
3 513 112 514
3 514 112 516
3 514 516 515
3 515 516 111
3 112 115 517
3 517 115 519
3 517 519 518
3 518 519 520
3 518 520 113
3 113 520 114
3 115 118 521
3 521 118 523
3 521 523 522
3 522 523 524
3 522 524 116
3 116 524 117
3 118 121 525
3 525 121 527
3 525 527 526
3 526 527 528
3 526 528 119
3 119 528 120
3 121 529 122
3 122 529 530
3 529 531 530
3 530 531 532
3 531 533 532
3 532 533 534
3 533 535 534
3 534 535 536
3 535 537 536
3 536 537 538
3 537 539 538
3 538 539 540
3 539 36 540
3 540 36 38
3 122 124 541
3 541 124 543
3 541 543 542
3 542 543 544
3 542 544 120
3 120 544 123
3 124 127 545
3 545 127 548
3 545 548 546
3 546 548 549
3 546 549 547
3 547 549 550
3 547 550 125
3 125 550 126
3 127 130 551
3 551 130 552
3 551 552 128
3 128 552 129
3 130 555 553
3 553 555 556
3 553 556 554
3 554 556 557
3 554 557 131
3 131 557 558
3 555 559 556
3 556 559 560
3 556 560 557
3 557 560 561
3 557 561 558
3 558 561 562
3 559 563 560
3 560 563 564
3 560 564 561
3 561 564 565
3 561 565 562
3 562 565 566
3 563 133 564
3 564 133 567
3 564 567 565
3 565 567 568
3 565 568 566
3 566 568 132
3 133 136 569
3 569 136 571
3 569 571 570
3 570 571 572
3 570 572 134
3 134 572 135
3 136 139 573
3 573 139 575
3 573 575 574
3 574 575 576
3 574 576 137
3 137 576 138
3 139 142 577
3 577 142 578
3 577 578 140
3 140 578 141
3 142 42 143
3 143 42 44
3 143 579 141
3 141 579 580
3 579 581 580
3 580 581 582
3 581 145 582
3 582 145 144
3 145 148 146
3 146 148 147
3 148 151 149
3 149 151 150
3 151 583 152
3 152 583 584
3 583 48 584
3 584 48 50
3 152 154 585
3 585 154 586
3 585 586 150
3 150 586 153
3 154 51 155
3 155 51 53
3 155 54 153
3 153 54 56
3 149 157 587
3 587 157 588
3 587 588 147
3 147 588 156
3 157 160 589
3 589 160 590
3 589 590 158
3 158 590 159
3 160 591 161
3 161 591 592
3 591 593 592
3 592 593 594
3 593 163 594
3 594 163 162
3 163 166 595
3 595 166 597
3 595 597 596
3 596 597 598
3 596 598 164
3 164 598 165
3 166 57 599
3 599 57 601
3 599 601 600
3 600 601 602
3 600 602 167
3 167 602 59
3 167 169 165
3 165 169 168
3 169 63 603
3 603 63 604
3 603 604 170
3 170 604 65
3 170 172 605
3 605 172 606
3 605 606 168
3 168 606 171
3 172 175 607
3 607 175 608
3 607 608 173
3 173 608 174
3 175 178 609
3 609 178 610
3 609 610 176
3 176 610 177
3 178 611 179
3 179 611 612
3 611 613 612
3 612 613 614
3 613 615 614
3 614 615 616
3 615 66 616
3 616 66 68
3 179 618 617
3 617 618 619
3 617 619 177
3 177 619 620
3 618 181 619
3 619 181 621
3 619 621 620
3 620 621 180
3 181 622 182
3 182 622 623
3 622 624 623
3 623 624 625
3 624 626 625
3 625 626 627
3 626 184 627
3 627 184 183
3 184 69 185
3 185 69 71
3 185 75 183
3 183 75 77
3 182 187 628
3 628 187 629
3 628 629 180
3 180 629 186
3 187 190 630
3 630 190 631
3 630 631 188
3 188 631 189
3 190 632 191
3 191 632 633
3 632 634 633
3 633 634 635
3 634 193 635
3 635 193 192
3 193 196 636
3 636 196 637
3 636 637 194
3 194 637 195
3 196 199 638
3 638 199 639
3 638 639 197
3 197 639 198
3 199 640 200
3 200 640 641
3 640 642 641
3 641 642 643
3 642 78 643
3 643 78 80
3 200 645 644
3 644 645 646
3 644 646 198
3 198 646 647
3 645 81 646
3 646 81 648
3 646 648 647
3 647 648 83
3 197 202 195
3 195 202 201
3 202 205 203
3 203 205 204
3 205 649 206
3 206 649 650
3 649 208 650
3 650 208 207
3 208 84 209
3 209 84 86
3 209 211 207
3 207 211 210
3 211 214 212
3 212 214 213
3 214 217 651
3 651 217 652
3 651 652 215
3 215 652 216
3 217 96 653
3 653 96 655
3 653 655 654
3 654 655 656
3 654 656 218
3 218 656 98
3 218 102 657
3 657 102 659
3 657 659 658
3 658 659 660
3 658 660 216
3 216 660 104
3 215 661 213
3 213 661 662
3 661 663 662
3 662 663 664
3 663 665 664
3 664 665 666
3 665 667 666
3 666 667 668
3 667 220 668
3 668 220 219
3 220 669 221
3 221 669 670
3 669 223 670
3 670 223 222
3 223 114 224
3 224 114 116
3 224 117 222
3 222 117 119
3 221 671 219
3 219 671 672
3 671 673 672
3 672 673 674
3 673 675 674
3 674 675 676
3 675 677 676
3 676 677 678
3 677 226 678
3 678 226 225
3 226 679 227
3 227 679 680
3 679 681 680
3 680 681 682
3 681 683 682
3 682 683 684
3 683 229 684
3 684 229 228
3 229 232 685
3 685 232 687
3 685 687 686
3 686 687 688
3 686 688 230
3 230 688 231
3 232 690 689
3 689 690 691
3 689 691 233
3 233 691 692
3 690 693 691
3 691 693 694
3 691 694 692
3 692 694 695
3 693 235 694
3 694 235 696
3 694 696 695
3 695 696 234
3 235 123 697
3 697 123 699
3 697 699 698
3 698 699 700
3 698 700 236
3 236 700 125
3 236 231 701
3 701 231 704
3 701 704 702
3 702 704 705
3 702 705 703
3 703 705 706
3 703 706 234
3 234 706 233
3 230 238 707
3 707 238 709
3 707 709 708
3 708 709 710
3 708 710 228
3 228 710 237
3 238 241 711
3 711 241 712
3 711 712 239
3 239 712 240
3 241 244 713
3 713 244 714
3 713 714 242
3 242 714 243
3 244 247 245
3 245 247 246
3 247 250 715
3 715 250 716
3 715 716 248
3 248 716 249
3 250 253 251
3 251 253 252
3 257 254 256
3 253 258 255
3 258 261 717
3 717 261 721
3 717 721 718
3 718 721 722
3 718 722 719
3 719 722 723
3 719 723 720
3 720 723 724
3 720 724 259
3 259 724 260
3 265 262 264
3 261 266 263
3 266 126 725
3 725 126 726
3 725 726 267
3 267 726 128
3 267 129 727
3 727 129 730
3 727 730 728
3 728 730 731
3 728 731 729
3 729 731 732
3 729 732 265
3 265 732 131
3 262 269 260
3 260 269 268
3 269 272 733
3 733 272 734
3 733 734 270
3 270 734 271
3 272 735 273
3 273 735 736
3 735 737 736
3 736 737 738
3 737 739 738
3 738 739 740
3 739 741 740
3 740 741 742
3 741 132 742
3 742 132 134
3 273 743 271
3 271 743 744
3 743 745 744
3 744 745 746
3 745 747 746
3 746 747 748
3 747 749 748
3 748 749 750
3 749 275 750
3 750 275 274
3 275 752 751
3 751 752 753
3 751 753 276
3 276 753 754
3 752 755 753
3 753 755 756
3 753 756 754
3 754 756 757
3 755 758 756
3 756 758 759
3 756 759 757
3 757 759 760
3 758 135 759
3 759 135 761
3 759 761 760
3 760 761 137
3 276 763 762
3 762 763 764
3 762 764 274
3 274 764 765
3 763 278 764
3 764 278 766
3 764 766 765
3 765 766 277
3 278 767 279
3 279 767 768
3 767 281 768
3 768 281 280
3 281 284 769
3 769 284 770
3 769 770 282
3 282 770 283
3 284 287 285
3 285 287 286
3 287 290 288
3 288 290 289
3 290 771 291
3 291 771 772
3 771 773 772
3 772 773 774
3 773 293 774
3 774 293 292
3 293 776 775
3 775 776 777
3 775 777 294
3 294 777 778
3 776 138 777
3 777 138 779
3 777 779 778
3 778 779 140
3 294 780 292
3 292 780 781
3 780 144 781
3 781 144 146
3 291 782 289
3 289 782 783
3 782 156 783
3 783 156 158
3 288 296 286
3 286 296 295
3 296 299 784
3 784 299 785
3 784 785 297
3 297 785 298
3 299 159 786
3 786 159 788
3 786 788 787
3 787 788 789
3 787 789 300
3 300 789 161
3 300 302 790
3 790 302 791
3 790 791 298
3 298 791 301
3 302 305 792
3 792 305 793
3 792 793 303
3 303 793 304
3 305 308 794
3 794 308 795
3 794 795 306
3 306 795 307
3 308 798 796
3 796 798 799
3 796 799 797
3 797 799 800
3 797 800 309
3 309 800 801
3 798 162 799
3 799 162 802
3 799 802 800
3 800 802 803
3 800 803 801
3 801 803 164
3 309 311 307
3 307 311 310
3 311 314 312
3 312 314 313
3 314 171 315
3 315 171 173
3 315 317 313
3 313 317 316
3 317 320 318
3 318 320 319
3 320 323 804
3 804 323 805
3 804 805 321
3 321 805 322
3 323 174 806
3 806 174 807
3 806 807 324
3 324 807 176
3 324 808 322
3 322 808 809
3 808 810 809
3 809 810 811
3 810 812 811
3 811 812 813
3 812 814 813
3 813 814 815
3 814 186 815
3 815 186 188
3 321 326 319
3 319 326 325
3 326 329 816
3 816 329 817
3 816 817 327
3 327 817 328
3 329 332 818
3 818 332 819
3 818 819 330
3 330 819 331
3 332 335 820
3 820 335 821
3 820 821 333
3 333 821 334
3 335 822 336
3 336 822 823
3 822 824 823
3 823 824 825
3 824 826 825
3 825 826 827
3 826 189 827
3 827 189 191
3 336 828 334
3 334 828 829
3 828 338 829
3 829 338 337
3 338 830 339
3 339 830 831
3 830 341 831
3 831 341 340
3 341 192 832
3 832 192 833
3 832 833 342
3 342 833 194
3 342 835 834
3 834 835 836
3 834 836 340
3 340 836 837
3 835 344 836
3 836 344 838
3 836 838 837
3 837 838 343
3 344 237 839
3 839 237 840
3 839 840 345
3 345 840 239
3 345 347 841
3 841 347 842
3 841 842 343
3 343 842 346
3 347 240 348
3 348 240 242
3 348 337 843
3 843 337 844
3 843 844 346
3 346 844 339
3 333 845 331
3 331 845 846
3 845 350 846
3 846 350 349
3 350 848 847
3 847 848 849
3 847 849 351
3 351 849 850
3 848 353 849
3 849 353 851
3 849 851 850
3 850 851 352
3 353 243 852
3 852 243 853
3 852 853 354
3 354 853 245
3 354 246 352
3 352 246 248
3 351 356 854
3 854 356 856
3 854 856 855
3 855 856 857
3 855 857 349
3 349 857 355
3 356 859 858
3 858 859 860
3 858 860 357
3 357 860 861
3 859 359 860
3 860 359 862
3 860 862 861
3 861 862 358
3 359 362 863
3 863 362 864
3 863 864 360
3 360 864 361
3 362 365 363
3 363 365 364
3 365 866 865
3 865 866 867
3 865 867 366
3 366 867 868
3 866 869 867
3 867 869 870
3 867 870 868
3 868 870 871
3 869 368 870
3 870 368 872
3 870 872 871
3 871 872 367
3 368 873 369
3 369 873 874
3 873 249 874
3 874 249 251
3 369 371 367
3 367 371 370
3 371 374 875
3 875 374 877
3 875 877 876
3 876 877 878
3 876 878 372
3 372 878 373
3 254 375 377
3 374 252 376
3 375 379 879
3 879 379 880
3 879 880 373
3 373 880 378
3 379 882 881
3 881 882 883
3 881 883 380
3 380 883 884
3 882 277 883
3 883 277 885
3 883 885 884
3 884 885 279
3 380 382 378
3 378 382 381
3 382 280 886
3 886 280 887
3 886 887 383
3 383 887 282
3 383 370 888
3 888 370 889
3 888 889 381
3 381 889 372
3 366 301 364
3 364 301 303
3 363 304 361
3 361 304 306
3 360 310 358
3 358 310 312
3 357 890 355
3 355 890 891
3 890 328 891
3 891 328 330
3 327 316 325
3 325 316 318
3 297 283 892
3 892 283 893
3 892 893 295
3 295 893 285
3 270 257 268
3 268 257 259
3 227 201 225
3 225 201 203
3 212 894 210
3 210 894 895
3 894 204 895
3 895 204 206
3 113 105 896
3 896 105 898
3 896 898 897
3 897 898 899
3 897 899 111
3 111 899 107
3 95 87 93
3 93 87 89
3 20 15 900
3 900 15 902
3 900 902 901
3 901 902 903
3 901 903 18
3 18 903 17
3 2 0 384
3 2 384 1
3 5 3 385
3 5 385 4
3 8 6 7
3 455 9 394
3 455 394 395
3 455 395 456
3 456 395 11
3 394 9 10
3 462 12 397
3 462 397 398
3 462 398 14
3 398 397 396
3 398 396 13
3 902 15 399
3 902 399 903
3 903 399 16
3 903 16 400
3 903 400 17
3 901 18 407
3 901 407 19
3 901 19 408
3 901 408 900
3 900 408 20
3 480 21 409
3 480 409 481
3 481 409 22
3 481 22 23
3 26 24 25
3 29 27 28
3 32 30 31
3 508 33 34
3 508 34 35
3 38 36 37
3 41 39 40
3 44 42 43
3 436 45 46
3 436 46 47
3 50 48 438
3 438 48 437
3 438 437 49
3 53 51 442
3 53 442 443
3 443 442 52
3 56 54 446
3 446 54 445
3 445 54 444
3 445 444 55
3 601 57 911
3 601 911 909
3 601 909 602
3 602 909 59
3 59 909 450
3 450 909 910
3 450 910 449
3 449 910 447
3 449 447 58
3 447 910 911
3 447 911 448
3 448 911 57
3 911 910 909
3 62 60 454
3 454 60 452
3 454 452 453
3 453 452 451
3 453 451 61
3 604 63 457
3 604 457 65
3 457 63 64
3 68 66 458
3 68 458 459
3 459 458 67
3 71 69 460
3 71 460 70
3 463 72 461
3 463 461 74
3 461 72 73
3 77 75 465
3 465 75 464
3 465 464 76
3 80 78 470
3 470 78 469
3 470 469 79
3 648 81 471
3 648 471 83
3 83 471 82
3 86 84 476
3 476 84 85
3 89 87 477
3 89 477 88
3 482 90 478
3 482 478 479
3 482 479 92
3 478 90 91
3 95 93 483
3 95 483 484
3 484 483 94
3 655 96 485
3 655 485 912
3 655 912 656
3 656 912 486
3 656 486 98
3 486 912 97
3 97 912 485
3 101 99 490
3 101 490 100
3 659 102 103
3 659 103 499
3 659 499 660
3 660 499 104
3 898 105 500
3 898 500 899
3 899 500 106
3 899 106 107
3 509 108 507
3 509 507 110
3 507 108 109
3 897 111 913
3 897 913 896
3 896 913 518
3 896 518 113
3 518 913 517
3 517 913 516
3 517 516 112
3 516 913 111
3 116 114 520
3 116 520 522
3 522 520 519
3 522 519 521
3 521 519 115
3 119 117 524
3 119 524 526
3 526 524 523
3 526 523 525
3 525 523 118
3 542 120 528
3 542 528 527
3 542 527 541
3 541 527 121
3 541 121 122
3 914 915 916
3 916 915 917
3 916 917 918
3 699 123 917
3 699 917 915
3 699 915 700
3 700 915 914
3 700 914 547
3 700 547 125
3 547 914 546
3 546 914 916
3 546 916 545
3 545 916 918
3 545 918 124
3 124 918 543
3 543 918 917
3 543 917 544
3 544 917 123
3 726 126 550
3 726 550 128
3 128 550 549
3 128 549 551
3 551 549 548
3 551 548 127
3 921 919 922
3 730 129 919
3 730 919 921
3 730 921 731
3 731 921 920
3 731 920 732
3 732 920 554
3 732 554 131
3 554 920 553
3 553 920 921
3 553 921 922
3 553 922 130
3 130 922 552
3 552 922 919
3 552 919 129
3 134 132 568
3 134 568 570
3 570 568 567
3 570 567 569
3 569 567 133
3 761 135 923
3 761 923 137
3 137 923 574
3 574 923 572
3 574 572 571
3 574 571 573
3 573 571 136
3 572 923 135
3 779 138 576
3 779 576 140
3 140 576 577
3 577 576 575
3 577 575 139
3 143 141 578
3 143 578 142
3 146 144 145
3 587 147 148
3 587 148 149
3 585 150 151
3 585 151 152
3 155 153 586
3 155 586 154
3 158 156 589
3 589 156 588
3 589 588 157
3 788 159 590
3 788 590 789
3 789 590 160
3 789 160 161
3 802 162 595
3 802 595 596
3 802 596 803
3 803 596 164
3 595 162 163
3 167 165 600
3 600 165 924
3 600 924 599
3 599 924 597
3 599 597 166
3 597 924 598
3 598 924 165
3 605 168 169
3 605 169 603
3 605 603 170
3 173 171 607
3 607 171 606
3 607 606 172
3 807 174 608
3 807 608 609
3 807 609 176
3 609 608 175
3 617 177 610
3 617 610 179
3 179 610 178
3 628 180 621
3 628 621 182
3 182 621 181
3 185 183 184
3 188 186 630
3 630 186 629
3 630 629 187
3 191 189 631
3 191 631 190
3 833 192 193
3 833 193 636
3 833 636 194
3 197 195 637
3 197 637 638
3 638 637 196
3 644 198 639
3 644 639 199
3 644 199 200
3 203 201 202
3 206 204 205
3 209 207 208
3 212 210 211
3 215 213 651
3 651 213 214
3 658 216 925
3 658 925 926
3 658 926 657
3 657 926 654
3 657 654 218
3 654 926 653
3 653 926 925
3 653 925 652
3 653 652 217
3 652 925 216
3 221 219 220
3 224 222 223
3 227 225 226
3 708 228 685
3 708 685 686
3 708 686 707
3 707 686 230
3 685 228 229
3 704 231 688
3 704 688 705
3 705 688 687
3 705 687 706
3 706 687 232
3 706 232 689
3 706 689 233
3 703 234 696
3 703 696 235
3 703 235 697
3 703 697 702
3 702 697 698
3 702 698 701
3 701 698 236
3 840 237 710
3 840 710 709
3 840 709 711
3 840 711 239
3 711 709 238
3 242 240 713
3 713 240 712
3 713 712 241
3 853 243 714
3 853 714 245
3 245 714 244
3 248 246 715
3 715 246 247
3 251 249 716
3 251 716 250
3 376 252 255
3 376 255 904
3 376 904 908
3 908 904 905
3 908 905 377
3 377 905 256
3 377 256 254
3 255 252 253
3 259 257 256
3 259 256 720
3 720 256 905
3 720 905 719
3 719 905 904
3 719 904 718
3 718 904 255
3 718 255 717
3 717 255 258
3 262 260 264
3 264 260 724
3 264 724 907
3 907 724 723
3 907 723 906
3 906 723 722
3 906 722 263
3 263 722 721
3 263 721 261
3 729 265 264
3 729 264 728
3 728 264 907
3 728 907 928
3 728 928 727
3 727 928 927
3 727 927 267
3 267 927 725
3 725 927 263
3 725 263 266
3 263 927 906
3 906 927 928
3 906 928 907
3 270 268 733
3 733 268 269
3 273 271 734
3 273 734 272
3 762 274 275
3 762 275 751
3 762 751 276
3 885 277 766
3 885 766 278
3 885 278 279
3 887 280 281
3 887 281 769
3 887 769 282
3 893 283 770
3 893 770 285
3 285 770 284
3 288 286 287
3 291 289 290
3 294 292 775
3 775 292 293
3 892 295 784
3 892 784 297
3 784 295 296
3 790 298 929
3 790 929 787
3 790 787 300
3 787 929 786
3 786 929 785
3 786 785 299
3 785 929 298
3 303 301 792
3 792 301 791
3 792 791 302
3 306 304 793
3 306 793 794
3 794 793 305
3 309 307 797
3 797 307 795
3 797 795 796
3 796 795 308
3 312 310 311
3 315 313 314
3 318 316 317
3 321 319 804
3 804 319 320
3 324 322 806
3 806 322 805
3 806 805 323
3 327 325 816
3 816 325 326
3 330 328 818
3 818 328 817
3 818 817 329
3 333 331 819
3 333 819 820
3 820 819 332
3 336 334 821
3 336 821 335
3 844 337 338
3 844 338 339
3 834 340 832
3 834 832 342
3 832 340 341
3 841 343 838
3 841 838 839
3 841 839 345
3 839 838 344
3 843 346 842
3 843 842 348
3 348 842 347
3 855 349 350
3 855 350 847
3 855 847 854
3 854 847 351
3 354 352 851
3 354 851 852
3 852 851 353
3 357 355 857
3 357 857 858
3 858 857 856
3 858 856 356
3 360 358 862
3 360 862 863
3 863 862 359
3 363 361 864
3 363 864 362
3 366 364 865
3 865 364 365
3 369 367 872
3 369 872 368
3 889 370 875
3 889 875 876
3 889 876 372
3 875 370 371
3 879 373 377
3 879 377 375
3 377 373 908
3 908 373 878
3 908 878 376
3 376 878 877
3 376 877 374
3 380 378 881
3 881 378 880
3 881 880 379
3 888 381 886
3 888 886 383
3 886 381 382
3 4 0 7
3 931 933 934
3 934 933 937
3 934 937 938
3 935 934 938
3 936 935 938
3 938 937 940
3 937 939 940
3 940 939 25
3 940 25 416
3 940 416 938
3 938 416 936
3 936 416 414
3 936 414 932
3 936 932 404
3 936 404 935
3 935 404 401
3 935 401 931
3 935 931 934
3 931 401 930
3 931 930 390
3 931 390 388
3 931 388 933
3 933 388 386
3 933 386 937
3 937 386 939
3 939 386 7
3 939 7 0
3 939 0 25
3 390 930 392
3 392 930 401
3 392 401 13
3 392 13 10
3 13 401 16
3 404 932 19
3 19 932 410
3 19 410 22
3 410 932 412
3 412 932 414
3 1 3 429
3 432 40 37
3 432 37 429
3 432 429 3
3 429 37 427
3 427 37 430
3 427 430 32
3 32 430 34
3 6 46 434
3 6 434 941
3 6 941 5
3 5 941 433
3 433 941 41
3 41 941 43
3 43 941 434
3 9 61 393
3 393 61 52
3 393 52 439
3 393 439 391
3 391 439 389
3 389 439 942
3 389 942 387
3 387 942 49
3 387 49 47
3 387 47 8
3 49 942 439
3 52 61 55
3 55 61 58
3 12 73 70
3 12 70 67
3 12 67 11
3 11 67 64
3 11 64 62
3 943 946 947
3 944 943 947
3 946 945 948
3 946 948 949
3 947 946 949
3 947 949 85
3 947 85 474
3 947 474 944
3 944 474 472
3 944 472 82
3 944 82 79
3 944 79 943
3 943 79 466
3 943 466 945
3 943 945 946
3 945 466 76
3 945 76 74
3 945 74 15
3 945 15 948
3 948 15 20
3 948 20 949
3 949 20 21
3 949 21 88
3 949 88 85
3 88 21 91
3 15 74 14
3 18 17 950
3 18 950 406
3 406 950 403
3 403 950 17
3 419 27 954
3 419 954 417
3 419 417 24
3 417 954 415
3 415 954 953
3 415 953 952
3 415 952 413
3 413 952 951
3 413 951 411
3 411 951 23
3 23 951 94
3 23 94 92
3 94 951 97
3 97 951 487
3 487 951 952
3 487 952 953
3 487 953 100
3 100 953 27
3 27 953 954
3 426 31 424
3 426 424 955
3 426 955 428
3 428 955 956
3 428 956 2
3 2 956 26
3 26 956 418
3 418 956 420
3 418 420 28
3 420 956 422
3 422 956 955
3 422 955 424
3 957 958 959
3 957 959 505
3 957 505 503
3 957 503 493
3 957 493 958
3 958 493 491
3 958 491 421
3 958 421 423
3 958 423 959
3 959 423 425
3 959 425 30
3 959 30 505
3 505 30 109
3 109 30 33
3 421 491 29
3 29 491 101
3 493 503 495
3 495 503 501
3 495 501 497
3 497 501 106
3 497 106 103
3 961 960 962
3 961 962 531
3 961 531 529
3 961 529 960
3 960 529 121
3 960 121 118
3 960 118 115
3 960 115 112
3 960 112 513
3 960 513 962
3 962 513 963
3 962 963 533
3 962 533 531
3 533 963 535
3 535 963 964
3 535 964 537
3 537 964 965
3 537 965 539
3 539 965 431
3 539 431 36
3 431 965 35
3 35 965 110
3 110 965 964
3 110 964 510
3 510 964 963
3 510 963 513
3 967 968 969
3 969 968 970
3 969 970 971
3 969 971 139
3 969 139 136
3 969 136 967
3 967 136 133
3 967 133 966
3 967 966 538
3 967 538 968
3 968 538 540
3 968 540 970
3 970 540 38
3 970 38 39
3 970 39 971
3 971 39 42
3 971 42 142
3 971 142 139
3 538 966 536
3 536 966 534
3 534 966 563
3 534 563 532
3 532 563 559
3 532 559 530
3 530 559 555
3 530 555 122
3 122 555 124
3 124 555 127
3 127 555 130
3 563 966 133
3 45 48 972
3 45 972 435
3 435 972 973
3 435 973 44
3 44 973 579
3 44 579 143
3 579 973 972
3 579 972 581
3 581 972 583
3 581 583 145
3 145 583 148
3 148 583 151
3 583 972 48
3 51 154 441
3 154 152 974
3 154 974 441
3 441 974 50
3 50 974 584
3 584 974 152
3 54 155 53
3 976 975 978
3 976 978 979
3 977 976 979
3 977 979 153
3 977 153 56
3 977 56 57
3 977 57 166
3 977 166 163
3 977 163 593
3 977 593 976
3 976 593 975
3 975 593 591
3 975 591 157
3 975 157 978
3 978 157 149
3 978 149 150
3 978 150 979
3 979 150 153
3 157 591 160
3 60 63 59
3 59 63 167
3 167 63 169
3 611 178 980
3 611 980 613
3 613 980 982
3 613 982 615
3 615 982 65
3 615 65 66
3 65 982 981
3 65 981 170
3 170 981 172
3 172 981 980
3 172 980 175
3 175 980 178
3 980 981 982
3 983 985 986
3 984 983 986
3 986 985 987
3 986 987 626
3 986 626 624
3 986 624 984
3 984 624 622
3 984 622 181
3 984 181 618
3 984 618 983
3 983 618 612
3 983 612 985
3 985 612 614
3 985 614 616
3 985 616 987
3 987 616 68
3 987 68 69
3 987 69 184
3 987 184 626
3 612 618 179
3 72 75 185
3 72 185 71
3 640 199 634
3 640 634 632
3 640 632 190
3 640 190 988
3 640 988 642
3 642 988 623
3 642 623 625
3 642 625 78
3 78 625 468
3 468 625 627
3 468 627 77
3 77 627 183
3 623 988 182
3 182 988 187
3 187 988 190
3 634 199 193
3 193 199 196
3 645 200 989
3 645 989 990
3 645 990 81
3 81 990 80
3 80 990 643
3 643 990 989
3 643 989 641
3 641 989 200
3 84 208 475
3 475 208 992
3 475 992 473
3 473 992 991
3 473 991 83
3 83 991 647
3 647 991 205
3 647 205 198
3 198 205 202
3 198 202 197
3 205 991 649
3 649 991 992
3 649 992 208
3 993 995 996
3 994 993 996
3 994 996 217
3 994 217 214
3 994 214 211
3 994 211 993
3 993 211 209
3 993 209 86
3 993 86 995
3 995 86 87
3 995 87 95
3 995 95 96
3 995 96 996
3 996 96 217
3 90 93 89
3 997 999 1000
3 998 997 1000
3 998 1000 1001
3 998 1001 496
3 998 496 498
3 998 498 102
3 998 102 218
3 998 218 997
3 997 218 98
3 997 98 489
3 997 489 999
3 999 489 99
3 999 99 492
3 999 492 1000
3 1000 492 494
3 1000 494 1001
3 1001 494 496
3 1002 1004 1005
3 1003 1002 1005
3 1003 1005 1006
3 1004 1009 1010
3 1005 1004 1010
3 1005 1010 1006
3 1006 1010 105
3 1006 105 1007
3 1006 1007 220
3 1006 220 1003
3 1003 220 667
3 1003 667 665
3 1003 665 1002
3 1002 665 663
3 1002 663 1004
3 1004 663 661
3 1004 661 1008
3 1004 1008 1009
3 1009 1008 104
3 1009 104 1010
3 1010 104 105
3 104 1008 216
3 216 1008 215
3 215 1008 661
3 220 1007 669
3 669 1007 223
3 223 1007 113
3 223 113 114
3 113 1007 105
3 515 111 107
3 515 107 1012
3 515 1012 512
3 512 1012 1013
3 512 1013 108
3 108 1013 506
3 506 1013 504
3 504 1013 1011
3 504 1011 502
3 502 1011 107
3 107 1011 1012
3 1012 1011 1013
3 117 224 116
3 1014 1016 1017
3 1015 1014 1017
3 1017 1016 1018
3 1017 1018 690
3 1017 690 232
3 1017 232 1015
3 1015 232 229
3 1015 229 683
3 1015 683 681
3 1015 681 1014
3 1014 681 679
3 1014 679 675
3 1014 675 1016
3 1016 675 673
3 1016 673 671
3 1016 671 1018
3 1018 671 221
3 1018 221 690
3 690 221 670
3 690 670 693
3 693 670 222
3 693 222 119
3 693 119 120
3 693 120 235
3 235 120 123
3 675 679 677
3 677 679 226
3 238 230 241
3 1019 1020 1021
3 1022 1021 1023
3 1022 1023 1024
3 1022 1024 250
3 1022 250 247
3 1022 247 1019
3 1022 1019 1021
3 1019 247 244
3 1019 244 241
3 1019 241 1020
3 1020 241 230
3 1020 230 231
3 1020 231 1021
3 1021 231 1023
3 1023 231 236
3 1023 236 266
3 1023 266 261
3 1023 261 1024
3 1024 261 258
3 1024 258 250
3 250 258 253
3 266 236 126
3 126 236 125
3 129 267 128
3 1025 1026 1027
3 1025 1027 1028
3 1026 1029 1030
3 1027 1026 1030
3 1027 1030 1031
3 1028 1027 1031
3 1028 1031 1032
3 1029 1033 1034
3 1030 1029 1034
3 1030 1034 1035
3 1031 1030 1035
3 1031 1035 1036
3 1032 1031 1036
3 1032 1036 1037
3 1034 1033 1038
3 1034 1038 1039
3 1035 1034 1039
3 1035 1039 1040
3 1036 1035 1040
3 1036 1040 1041
3 1037 1036 1041
3 1039 1038 1042
3 1039 1042 1043
3 1040 1039 1043
3 1040 1043 739
3 1040 739 1041
3 1041 739 737
3 1041 737 735
3 1041 735 1037
3 1037 735 1032
3 1032 735 272
3 1032 272 1028
3 1028 272 269
3 1028 269 1025
3 1025 269 262
3 1025 262 1026
3 1026 262 265
3 1026 265 1029
3 1029 265 558
3 1029 558 1033
3 1033 558 562
3 1033 562 1038
3 1038 562 566
3 1038 566 1042
3 1042 566 132
3 1042 132 741
3 1042 741 1043
3 1043 741 739
3 558 265 131
3 1044 1045 1046
3 1045 1048 1049
3 1046 1045 1049
3 1046 1049 1050
3 1047 1046 1050
3 1048 1051 1052
3 1049 1048 1052
3 1050 1049 1052
3 1050 1052 755
3 1050 755 752
3 1050 752 749
3 1050 749 1047
3 1047 749 747
3 1047 747 1046
3 1046 747 1044
3 1044 747 745
3 1044 745 736
3 1044 736 738
3 1044 738 1045
3 1045 738 740
3 1045 740 1048
3 1048 740 742
3 1048 742 1051
3 1051 742 134
3 1051 134 135
3 1051 135 758
3 1051 758 1052
3 1052 758 755
3 736 745 743
3 736 743 273
3 749 752 275
3 1053 1056 1057
3 1054 1053 1057
3 1055 1058 1059
3 1056 1055 1059
3 1056 1059 1060
3 1057 1056 1060
3 1057 1060 1061
3 1059 1058 1062
3 1059 1062 1063
3 1060 1059 1063
3 1060 1063 1064
3 1061 1060 1064
3 1062 1066 1067
3 1063 1062 1067
3 1064 1063 1067
3 1064 1067 293
3 1064 293 773
3 1064 773 1061
3 1061 773 771
3 1061 771 290
3 1061 290 1057
3 1057 290 1054
3 1054 290 287
3 1054 287 767
3 1054 767 1053
3 1053 767 278
3 1053 278 763
3 1053 763 1056
3 1056 763 1055
3 1055 763 276
3 1055 276 1058
3 1058 276 754
3 1058 754 1062
3 1062 754 757
3 1062 757 1066
3 1066 757 760
3 1066 760 1065
3 1066 1065 776
3 1066 776 1067
3 1067 776 293
3 776 1065 138
3 138 1065 137
3 137 1065 760
3 767 287 284
3 767 284 281
3 582 144 780
3 582 780 1068
3 582 1068 580
3 580 1068 778
3 580 778 141
3 141 778 140
3 778 1068 294
3 294 1068 780
3 147 156 782
3 147 782 146
3 146 782 781
3 781 782 774
3 781 774 292
3 774 782 772
3 772 782 291
3 159 299 1069
3 159 1069 158
3 158 1069 783
3 783 1069 1070
3 783 1070 289
3 289 1070 288
3 288 1070 296
3 296 1070 1069
3 296 1069 299
3 798 308 594
3 798 594 162
3 594 308 592
3 592 308 305
3 592 305 302
3 592 302 300
3 592 300 161
3 165 168 164
3 164 168 171
3 164 171 801
3 801 171 314
3 801 314 311
3 801 311 309
3 174 323 1071
3 174 1071 1072
3 174 1072 173
3 173 1072 315
3 315 1072 1071
3 315 1071 317
3 317 1071 320
3 320 1071 323
3 620 180 1075
3 620 1075 1074
3 620 1074 177
3 177 1074 1077
3 177 1077 176
3 176 1077 324
3 324 1077 1073
3 324 1073 808
3 808 1073 810
3 810 1073 1074
3 810 1074 812
3 812 1074 1075
3 812 1075 1076
3 812 1076 814
3 814 1076 186
3 186 1076 180
3 180 1076 1075
3 1074 1073 1077
3 1078 1080 1081
3 1078 1081 1082
3 1078 1082 1083
3 1078 1083 1079
3 1079 1083 1084
3 1079 1084 809
3 1079 809 811
3 1079 811 813
3 1079 813 1078
3 1078 813 1080
3 1080 813 815
3 1080 815 826
3 1080 826 824
3 1080 824 1081
3 1081 824 822
3 1081 822 1082
3 1082 822 335
3 1082 335 332
3 1082 332 1083
3 1083 332 329
3 1083 329 1084
3 1084 329 326
3 1084 326 809
3 809 326 321
3 809 321 322
3 826 815 189
3 189 815 188
3 192 341 635
3 635 341 830
3 635 830 1085
3 635 1085 633
3 633 1085 827
3 633 827 191
3 827 1085 825
3 825 1085 830
3 825 830 823
3 823 830 338
3 823 338 828
3 823 828 336
3 228 237 684
3 195 201 227
3 195 227 194
3 194 227 342
3 342 227 680
3 342 680 835
3 835 680 682
3 835 682 344
3 344 682 684
3 344 684 237
3 1087 1086 1088
3 1087 1088 666
3 1087 666 674
3 1087 674 676
3 1087 676 1086
3 1086 676 678
3 1086 678 225
3 1086 225 204
3 1086 204 894
3 1086 894 1088
3 1088 894 212
3 1088 212 662
3 1088 662 664
3 1088 664 666
3 662 212 213
3 204 225 203
3 674 666 668
3 674 668 672
3 672 668 219
3 207 210 1089
3 207 1089 650
3 650 1089 895
3 650 895 206
3 895 1089 210
3 234 233 1091
3 234 1091 695
3 695 1091 1090
3 695 1090 692
3 692 1090 233
3 233 1090 1091
3 240 347 239
3 239 347 345
3 1092 1093 1094
3 1092 1094 845
3 1092 845 333
3 1092 333 334
3 1092 334 829
3 1092 829 1093
3 1093 829 337
3 1093 337 348
3 1093 348 242
3 1093 242 1094
3 1094 242 243
3 1094 243 353
3 1094 353 848
3 1094 848 845
3 845 848 350
3 246 354 245
3 1095 1097 1098
3 1095 1098 1099
3 1095 1099 1096
3 1098 1101 1102
3 1099 1098 1102
3 1099 1102 1103
3 1099 1103 1104
3 1096 1099 1104
3 1096 1104 1100
3 1101 1106 1107
3 1102 1101 1107
3 1102 1107 1108
3 1103 1102 1108
3 1103 1108 1109
3 1104 1103 1109
3 1104 1109 1110
3 1100 1104 1110
3 1100 1110 1105
3 1107 1112 1113
3 1108 1107 1113
3 1108 1113 1114
3 1109 1108 1114
3 1109 1114 1115
3 1110 1109 1115
3 1105 1110 1115
3 1105 1115 1111
3 1105 1111 362
3 1105 362 359
3 1105 359 859
3 1105 859 1100
3 1100 859 356
3 1100 356 1096
3 1096 356 351
3 1096 351 1095
3 1095 351 850
3 1095 850 1097
3 1097 850 352
3 1097 352 248
3 1097 248 1101
3 1097 1101 1098
3 1101 248 249
3 1101 249 1106
3 1106 249 873
3 1106 873 1107
3 1107 873 1112
3 1112 873 368
3 1112 368 1113
3 1113 368 869
3 1113 869 1114
3 1114 869 866
3 1114 866 1115
3 1115 866 365
3 1115 365 1111
3 1111 365 362
3 252 374 874
3 252 874 251
3 874 374 371
3 874 371 369
3 1116 1118 1119
3 1116 1119 1117
3 1118 1120 1121
3 1119 1118 1121
3 1119 1121 1122
3 1119 1122 1123
3 1117 1119 1123
3 1120 1124 1125
3 1121 1120 1125
3 1121 1125 1126
3 1122 1121 1126
3 1122 1126 1127
3 1123 1122 1127
3 1125 1128 1129
3 1126 1125 1129
3 1126 1129 1130
3 1127 1126 1130
3 1130 1129 1131
3 1130 1131 765
3 1130 765 277
3 1130 277 1127
3 1127 277 882
3 1127 882 1123
3 1123 882 1117
3 1117 882 379
3 1117 379 375
3 1117 375 254
3 1117 254 1116
3 1116 254 257
3 1116 257 270
3 1116 270 1118
3 1118 270 271
3 1118 271 1120
3 1120 271 744
3 1120 744 1124
3 1124 744 746
3 1124 746 1125
3 1125 746 1128
3 1128 746 748
3 1128 748 1129
3 1129 748 750
3 1129 750 1131
3 1131 750 274
3 1131 274 765
3 260 268 259
3 280 382 884
3 280 884 1132
3 280 1132 768
3 768 1132 279
3 279 1132 884
3 884 382 380
3 283 297 868
3 283 868 282
3 282 868 871
3 282 871 383
3 383 871 367
3 383 367 370
3 868 297 366
3 366 297 298
3 366 298 301
3 286 295 285
3 304 363 364
3 304 364 303
3 307 310 306
3 306 310 361
3 361 310 360
3 313 316 1133
3 313 1133 358
3 313 358 312
3 358 1133 861
3 861 1133 890
3 861 890 357
3 890 1133 316
3 890 316 327
3 890 327 328
3 319 325 318
3 1134 1136 1135
3 1135 1136 355
3 1135 355 891
3 1135 891 330
3 1135 330 331
3 1135 331 1134
3 1134 331 846
3 1134 846 1136
3 1136 846 349
3 1136 349 355
3 837 343 346
3 837 346 339
3 837 339 831
3 837 831 340
3 373 378 372
3 372 378 381
