ply
format ascii 1.0
comment Generated by PyMesh
element vertex 893
property float x
property float y
property float z
property float nx
property float ny
property float nz
element face 1782
property list uchar int vertex_indices
end_header
-6.45 -20.187 -12.719 -0.182 -0.625 0.759
-7.024 -20.566 -12.94 0.201 -0.373 0.906
-7.112 -21.27 -13.022 0.26 0.097 0.961
-7.167 -20.39 -12.853 0.122 -0.275 0.954
-6.576 -20.031 -12.643 -0.272 -0.514 0.814
-7.405 -19.38 -11.648 0.281 -0.948 0.15
-6.704 -17.358 -12.387 0.781 0.497 -0.378
-5.875 -18.009 -13.382 0.229 0.931 0.285
-6.955 -16.65 -13.426 0.949 0.025 0.314
-7.172 -16.863 -14.698 0.794 -0.128 -0.594
-6.092 -18.222 -14.655 0.074 0.778 -0.623
-6.652 -18.373 -15.841 0.447 0.879 0.168
-5.888 -19.767 -16.025 0.992 -0.117 0.037
-5.328 -19.617 -14.838 0.619 -0.218 -0.754
-5.757 -19.921 -15.333 0.905 -0.015 -0.424
-5.859 -20.844 -14.497 0.849 -0.527 0.041
-5.418 -20.433 -14.098 0.555 -0.801 -0.225
-6.081 -21.516 -14.4 0.997 -0.079 -0.024
-6.343 -20.96 -15.578 0.58 -0.592 -0.56
-6.509 -21.62 -15.357 0.69 -0.153 -0.707
-6.406 -20.687 -16.241 0.622 -0.774 -0.118
-8.224 -20.595 -16.356 -0.676 -0.709 -0.2
-8.327 -21.528 -15.472 -0.608 -0.087 -0.789
-8.397 -20.857 -15.708 -0.561 -0.534 -0.632
-8.97 -20.707 -14.842 -0.88 -0.451 -0.151
-8.834 -21.395 -14.706 -0.97 0.008 -0.242
-9.455 -20.26 -14.529 -0.556 -0.749 -0.36
-8.692 -20.091 -12.936 -0.011 -0.628 0.778
-8.071 -21.226 -13.113 -0.425 0.129 0.896
-8.108 -20.516 -13.042 -0.4 -0.345 0.849
-8.654 -20.047 -12.901 0.016 -0.596 0.803
-8.065 -20.466 -13.003 -0.377 -0.317 0.87
-8.655 -19.577 -12.32 0.017 -0.91 0.415
-8.532 -19.541 -12.26 0.085 -0.89 0.448
-7.942 -20.43 -12.943 -0.308 -0.297 0.904
-8.091 -19.416 -11.728 -0.209 -0.973 0.093
-8.866 -19.377 -11.999 -0.1 -0.799 0.593
-8.386 -19.271 -11.497 -0.42 -0.87 0.258
-10.236 -19.844 -10.633 0.813 -0.488 -0.318
-10.093 -19.695 -10.219 0.931 -0.363 0.027
-8.232 -19.109 -11.047 -0.31 -0.754 0.579
-10.111 -19.788 -9.969 0.943 -0.301 -0.14
-10.347 -18.07 -9.526 0.826 0.558 0.081
-8.43 -17.657 -10.674 -0.452 0.283 0.846
-10.335 -16.679 -10.068 0.818 -0.369 0.442
-10.166 -15.91 -10.706 0.958 0.272 -0.09
-8.248 -16.821 -11.367 -0.321 0.88 0.35
-8.71 -16.61 -11.853 -0.013 0.739 0.674
-8.269 -16.44 -12.161 0.232 0.833 0.503
-7.858 -16.671 -11.64 -0.043 0.987 0.156
-8.109 -15.963 -12.679 0.125 0.515 0.848
-8.775 -16.336 -12.252 -0.049 0.89 0.452
-8.557 -15.871 -12.759 -0.195 0.581 0.791
-10.292 -15.265 -11.887 0.962 0.176 0.209
-10.296 -15.174 -11.96 0.96 0.222 0.173
-8.561 -15.794 -12.821 -0.198 0.635 0.747
-10.265 -15.028 -12.182 0.939 0.125 0.321
-10.774 -14.893 -13.555 0.515 0.237 -0.824
-9.113 -15.648 -14.312 -0.592 0.74 -0.319
-10.95 -15 -13.725 0.633 0.308 -0.71
-10.984 -15.052 -13.776 0.616 0.283 -0.735
-9.142 -15.691 -14.355 -0.613 0.709 -0.349
-10.533 -15.933 -14.31 0.315 0.87 -0.379
-10.529 -15.965 -14.377 0.317 0.854 -0.413
-9.139 -15.718 -14.411 -0.61 0.69 -0.39
-10.459 -16.076 -14.61 0.27 0.928 -0.257
-10.091 -17.325 -15.272 0.576 -0.114 -0.809
-8.739 -17.076 -15.131 -0.325 -0.28 -0.903
-8.218 -18.586 -16.274 -0.672 0.727 -0.141
-10.149 -17.388 -15.3 0.529 -0.166 -0.833
-8.281 -18.654 -16.304 -0.717 0.678 -0.163
-10.13 -17.653 -15.264 0.516 0.01 -0.857
-10.554 -18.505 -15.265 0.304 -0.416 -0.857
-8.639 -19.374 -16.305 -0.973 0.164 -0.164
-9.363 -19.172 -15.244 -0.49 0.029 -0.871
-9.377 -19.6 -15.173 -0.501 -0.277 -0.82
-8.654 -19.803 -16.234 -0.983 -0.143 -0.113
-8.883 -19.961 -15.57 -0.831 -0.037 -0.555
-10.909 -19.227 -14.785 0.126 -0.777 -0.617
-9.663 -19.782 -14.838 -0.705 -0.407 -0.581
-11.123 -19.363 -14.696 0.268 -0.686 -0.676
-11.159 -19.701 -13.789 0.238 -0.968 0.08
-9.702 -20.149 -13.853 -0.733 -0.669 0.123
-10.956 -19.661 -13.619 0.103 -0.994 -0.034
-10.694 -19.48 -12.833 0.234 -0.904 0.359
-9.481 -19.996 -13.19 -0.575 -0.56 0.597
-11.053 -20.129 -11.178 0.473 -0.471 -0.745
-10.954 -20.141 -11.102 0.522 -0.477 -0.707
-9.397 -20.006 -13.126 -0.515 -0.567 0.642
-10.749 -19.969 -11.1 0.385 -0.592 -0.708
-10.545 -19.958 -10.964 0.555 -0.583 -0.594
-9.176 -19.994 -12.977 -0.357 -0.559 0.749
-9.246 -19.517 -12.405 -0.311 -0.877 0.367
-12.222 -19.307 -13.096 -0.53 -0.817 0.227
-12.581 -19.955 -11.441 -0.291 -0.384 -0.876
-13.174 -19.064 -12.487 0.104 -0.978 -0.178
-13.929 -18.935 -12.021 -0.436 -0.887 0.155
-13.475 -19.803 -10.889 -0.738 -0.308 -0.6
-14.336 -19.48 -10.535 -0.164 -0.524 -0.836
-14.34 -19.97 -10.097 -0.166 -0.769 -0.617
-13.479 -20.293 -10.451 -0.74 -0.554 -0.381
-14.15 -20.415 -9.776 -0.293 -0.472 -0.832
-13.742 -20.935 -9.464 -0.088 -0.732 -0.675
-13.07 -20.813 -10.139 -0.536 -0.814 -0.225
-13.129 -21.052 -9.622 -0.497 -0.655 -0.57
-11.48 -18.885 -7.59 0.474 0.62 0.625
-11.296 -18.482 -7.954 0.351 0.352 0.868
-11.968 -18.604 -7.278 0.799 0.433 0.417
-12.325 -18.015 -7.527 0.62 0.728 0.293
-11.653 -17.893 -8.202 0.172 0.646 0.743
-12.514 -17.57 -7.848 0.746 0.431 0.507
-12.525 -17.334 -8.089 0.741 0.549 0.387
-11.664 -17.657 -8.443 0.167 0.764 0.623
-11.757 -16.296 -8.953 0.229 -0.143 0.963
-10.897 -16.416 -9.431 0.659 -0.203 0.724
-10.804 -17.777 -8.921 0.597 0.704 0.384
-10.69 -16.452 -9.597 0.521 -0.179 0.834
-10.246 -15.669 -10.915 0.985 0.17 -0.018
-10.183 -15.871 -10.751 0.944 0.305 -0.128
-8.731 -16.562 -11.908 -0.025 0.765 0.643
-10.308 -15.49 -11.174 0.954 0.26 -0.147
-8.79 -16.39 -12.155 -0.058 0.86 0.506
-10.308 -15.321 -11.785 0.954 0.148 0.26
-11.267 -14.25 -10.832 0.475 0.88 0.023
-11.267 -14.082 -11.444 0.475 0.768 0.431
-11.776 -13.733 -10.457 0.814 0.535 -0.227
-11.835 -13.672 -10.507 0.765 0.586 -0.269
-11.343 -14.004 -11.508 0.437 0.807 0.398
-11.851 -13.393 -11.645 0.775 0.399 0.489
-12.096 -13.411 -13.103 0.571 0.384 -0.725
-11.658 -14.027 -13.383 0.279 0.795 -0.539
-12.155 -13.724 -13.403 0.611 0.592 -0.525
-12.978 -14.564 -14.067 0.023 -0.008 -1
-12.632 -15.022 -14.169 -0.208 0.298 -0.932
-12.697 -15.581 -14.481 -0.165 0.671 -0.723
-11.684 -15.707 -14.468 0.342 0.608 -0.716
-11.619 -15.147 -14.155 0.299 0.235 -0.925
-11.167 -16.028 -14.689 -0.003 0.822 -0.569
-12.089 -16.104 -14.838 0.139 0.41 -0.902
-11.572 -16.425 -15.059 -0.205 0.624 -0.754
-12.329 -16.174 -14.933 0.3 0.456 -0.838
-13.02 -17.282 -14.936 -0.276 -0.467 -0.84
-12.46 -17.85 -15.062 -0.649 -0.089 -0.756
-12.977 -17.529 -14.841 -0.304 -0.303 -0.903
-13.144 -18.697 -13.536 -0.388 -0.887 -0.25
-12.628 -19.018 -13.757 -0.733 -0.673 -0.103
-13.516 -18.82 -13.046 -0.141 -0.805 -0.577
-14.35 -16.66 -13.004 -0.991 0.131 0.015
-14.535 -17.1 -12.597 -0.868 0.425 -0.256
-14.694 -16.778 -12.063 -0.762 0.21 -0.612
-14.263 -18.775 -11.401 -0.547 -0.788 -0.281
-14.171 -18.787 -12.038 -0.609 -0.78 0.143
-14.623 -19.303 -10.555 -0.308 -0.436 -0.846
-14.981 -17.965 -11.2 -0.906 -0.383 -0.18
-15.34 -18.494 -10.353 -0.666 -0.031 -0.745
-15.848 -18.173 -10.102 -0.328 -0.244 -0.913
-16.082 -18.867 -9.568 -0.465 -0.652 -0.599
-15.591 -19.239 -9.779 -0.792 -0.404 -0.458
-16.462 -19.141 -9.18 -0.212 -0.469 -0.857
-16.22 -19.742 -8.73 -0.091 -0.769 -0.632
-15.349 -19.84 -9.329 -0.671 -0.704 -0.233
-15.494 -20.474 -8.525 -0.574 -0.281 -0.769
-15.489 -20.478 -8.527 -0.571 -0.283 -0.77
-15.344 -19.844 -9.331 -0.668 -0.706 -0.234
-15.154 -20.289 -9.01 -0.795 -0.409 -0.448
-14.045 -21.625 -7.975 0.15 -0.856 -0.494
-13.711 -21.436 -8.458 -0.073 -0.982 -0.172
-13.837 -21.998 -7.525 0.012 -0.607 -0.794
-13.634 -22.006 -7.5 0.131 -0.612 -0.78
-13.492 -21.444 -8.431 0.036 -0.987 -0.159
-12.897 -21.525 -8.662 -0.36 -0.933 -0.005
-13.39 -22.076 -7.374 0.275 -0.653 -0.706
-12.653 -21.595 -8.536 -0.216 -0.974 0.069
-13.046 -22.099 -7.279 0.046 -0.638 -0.769
-12.096 -20.727 -6.108 0.837 0.506 0.207
-11.517 -19.954 -7.136 0.452 -0.009 0.892
-12.254 -20.436 -5.974 0.943 0.312 0.118
-12.335 -20.245 -5.946 0.895 0.424 0.134
-11.598 -19.763 -7.108 0.404 0.103 0.909
-12.094 -19.549 -6.76 0.735 -0.039 0.677
-12.473 -20.046 -5.814 0.814 0.541 0.212
-12.244 -19.336 -6.618 0.661 0.068 0.748
-12.578 -19.525 -6.135 0.884 0.194 0.426
-13.676 -18.137 -6.353 0.335 0.887 0.317
-13.341 -17.948 -6.836 0.112 0.761 0.639
-13.531 -17.503 -7.157 0.238 0.464 0.853
-13.731 -18.119 -6.349 0.308 0.896 0.319
-13.586 -17.485 -7.153 0.211 0.474 0.855
-14.456 -17.387 -6.553 0.791 0.408 0.456
-14.698 -16.792 -7.002 0.67 0.705 0.231
-13.827 -16.891 -7.601 0.09 0.771 0.631
-14.442 -16.683 -7.543 0.5 0.632 0.592
-14.411 -16.464 -7.886 0.518 0.761 0.39
-13.794 -16.655 -7.97 0.107 0.888 0.446
-12.964 -15.176 -8.635 -0.446 -0.097 0.89
-11.929 -15.711 -8.722 0.293 -0.48 0.827
-12.569 -17.288 -8.073 0.719 0.572 0.395
-11.801 -16.25 -8.937 0.207 -0.12 0.971
-11.467 -14.028 -10.3 0.623 0.723 -0.3
-11.255 -14.258 -10.805 0.481 0.876 0.037
-11.766 -13.739 -10.435 0.822 0.53 -0.209
-13.549 -14.823 -9.21 -0.864 0.155 0.479
-13.682 -14.47 -9.432 -0.775 -0.08 0.627
-15.054 -16.075 -8.519 0.139 0.99 0.018
-15.319 -16.135 -9.056 -0.017 0.954 -0.298
-13.904 -14.521 -9.881 -0.96 -0.122 0.252
-14.59 -15.884 -10.04 -0.503 0.787 0.358
-14.627 -15.813 -10.485 -0.534 0.845 -0.013
-13.941 -14.451 -10.326 -0.991 -0.063 -0.119
-14.46 -15.682 -10.648 -0.645 0.758 0.096
-14.42 -15.637 -10.866 -0.625 0.78 -0.013
-13.91 -14.416 -10.496 -0.965 -0.034 -0.26
-14.011 -15.128 -10.883 -0.898 0.441 -0.002
-14.002 -15.111 -10.917 -0.893 0.45 -0.019
-13.903 -14.402 -10.523 -0.959 -0.023 -0.282
-14.136 -14.497 -11.836 -0.804 0.04 0.593
-14.055 -14.06 -11.876 -0.746 0.352 0.565
-13.828 -14 -10.559 -0.897 0.312 -0.313
-13.845 -13.721 -11.697 -0.886 0.126 0.446
-14.011 -15.13 -10.929 -0.898 0.44 -0.025
-14.143 -14.513 -11.846 -0.81 0.029 0.586
-14.42 -15.639 -10.912 -0.625 0.78 -0.036
-14.611 -16.316 -11.908 -0.721 0.441 -0.535
-14.305 -15.085 -12.688 -0.925 -0.38 -0.015
-14.202 -15.638 -12.536 -0.993 -0.011 -0.116
-14.179 -15.671 -12.684 -0.981 -0.027 -0.19
-14.285 -15.113 -12.813 -0.911 -0.4 -0.104
-14.244 -16.231 -12.997 -0.938 0.346 0.019
-13.505 -15.833 -14.268 -0.568 0.545 -0.616
-13.661 -14.777 -13.886 -0.465 -0.16 -0.871
-13.431 -15.963 -14.49 -0.618 0.631 -0.468
-12.855 -15.782 -14.656 -0.138 0.783 -0.607
-13.035 -14.579 -14.067 -0.018 -0.019 -1
-12.764 -15.6 -14.481 -0.198 0.662 -0.723
-14.191 -15.712 -12.608 -0.987 -0.048 -0.152
-14.256 -16.272 -12.921 -0.944 0.325 0.057
-14.599 -16.39 -11.98 -0.715 0.404 -0.571
-15.131 -16.638 -10.774 -0.954 0.158 -0.254
-15.108 -16.743 -11.019 -0.97 0.228 -0.09
-15.966 -17.037 -9.934 -0.397 0.424 -0.814
-14.164 -18.373 -5.723 0.091 0.769 0.632
-14.889 -17.641 -5.928 0.574 0.281 0.769
-14.756 -18.185 -5.661 0.485 0.644 0.591
-16.4 -20.376 -7.674 -0.482 -0.645 -0.593
-16.658 -19.998 -8.093 -0.31 -0.897 -0.314
-15.933 -20.73 -7.888 -0.794 -0.409 -0.451
-16.246 -20.792 -6.263 -0.391 -0.889 0.237
-15.767 -21.177 -6.37 -0.71 -0.632 0.309
-15.435 -21.632 -5.68 -0.932 -0.329 -0.151
-15.428 -21.644 -5.691 -0.927 -0.339 -0.16
-15.759 -21.192 -6.384 -0.707 -0.64 0.302
-15.431 -21.596 -6.045 -0.926 -0.371 0.076
-14.574 -20.45 -4.631 -0.215 0.656 0.723
-14.409 -20.169 -4.778 -0.325 0.469 0.821
-15.217 -19.379 -5.008 0.214 -0.058 0.975
-15.18 -19.343 -5.015 0.236 -0.037 0.971
-14.372 -20.133 -4.785 -0.303 0.49 0.817
-14.621 -19.618 -5.028 -0.137 0.147 0.98
-17.097 -16.55 -7.085 -0.53 0.827 0.19
-17.33 -16.678 -7.052 -0.374 0.912 0.168
-6.992 -19.55 -12.248 0.005 -0.835 0.55
-6.019 -19.643 -12.433 0.126 -0.236 0.964
-6.519 -19.22 -12.07 0.46 -0.518 0.722
-6.848 -18.991 -11.438 0.679 -0.67 0.3
-5.651 -19.04 -12.521 0.389 0.194 0.901
-6.207 -18.709 -12.145 0.76 -0.026 0.65
-6.48 -18.389 -11.526 0.941 -0.24 0.237
-5.597 -18.426 -12.878 0.427 0.633 0.646
-6.162 -18.189 -12.447 0.804 0.475 0.359
-6.426 -17.775 -11.882 0.98 0.198 -0.017
-6.397 -17.836 -12.875 0.577 0.815 -0.053
-6.402 -17.713 -13.487 0.58 0.733 0.355
-6.783 -17.233 -13.502 0.834 0.413 0.365
-5.826 -17.992 -14.066 0.264 0.943 -0.203
-6.363 -17.699 -14.023 0.622 0.748 -0.231
-6.744 -17.22 -14.039 0.876 0.428 -0.221
-6.906 -16.632 -14.11 0.984 0.037 -0.174
-6.572 -17.88 -14.486 0.394 0.551 -0.736
-6.953 -17.4 -14.501 0.648 0.231 -0.726
-6.416 -18.439 -15.209 0.29 0.923 -0.254
-5.489 -18.782 -14.868 0.505 0.379 -0.776
-5.886 -18.93 -15.397 0.77 0.477 -0.424
-6.048 -18.933 -16.055 0.878 0.479 0.015
-5.745 -19.663 -15.37 0.898 -0.186 -0.4
-5.301 -20.088 -14.529 0.638 -0.555 -0.534
-5.727 -20.454 -14.984 0.922 -0.311 -0.23
-5.878 -20.902 -14.228 0.862 -0.488 -0.138
-5.554 -20.521 -13.486 0.458 -0.864 0.212
-5.998 -20.979 -13.689 0.754 -0.558 0.347
-6.217 -21.604 -13.788 0.9 -0.141 0.413
-5.929 -20.431 -12.984 0.19 -0.8 0.57
-6.329 -20.9 -13.247 0.456 -0.487 0.745
-6.592 -21.515 -13.287 0.631 -0.078 0.772
-6.787 -20.685 -13.013 0.043 -0.293 0.955
-6.564 -21.079 -15.732 0.727 -0.513 -0.457
-7.08 -21.827 -15.642 0.283 -0.301 -0.911
-7.069 -21.262 -15.985 0.275 -0.677 -0.682
-6.977 -20.894 -16.526 0.214 -0.922 -0.322
-7.749 -21.793 -15.684 -0.195 -0.277 -0.941
-7.66 -21.232 -16.022 -0.254 -0.651 -0.716
-7.646 -20.861 -16.568 -0.263 -0.898 -0.352
-8.172 -20.997 -15.834 -0.711 -0.441 -0.548
-9.018 -20.766 -14.568 -0.848 -0.412 -0.335
-8.84 -21.498 -14.065 -0.974 -0.066 0.216
-9.023 -20.857 -14.003 -0.852 -0.493 0.174
-9.461 -20.363 -13.888 -0.56 -0.822 0.098
-8.561 -21.436 -13.483 -0.775 -0.022 0.632
-8.777 -20.803 -13.489 -0.631 -0.444 0.636
-9.182 -20.302 -13.306 -0.361 -0.778 0.514
-8.345 -20.617 -13.163 -0.242 -0.277 0.93
-8.332 -19.926 -12.761 -0.198 -0.677 0.709
-8.22 -19.894 -12.706 -0.123 -0.655 0.746
-7.947 -19.752 -12.47 -0.305 -0.749 0.588
-7.34 -19.721 -12.399 0.237 -0.721 0.651
-9.08 -19.081 -11.206 0.043 -0.997 0.064
-9.757 -19.29 -10.89 0.494 -0.857 -0.146
-8.992 -18.988 -10.951 0.197 -0.834 0.515
-9.674 -19.203 -10.647 0.651 -0.691 0.313
-8.841 -18.952 -10.933 0.096 -0.859 0.503
-9.424 -19.029 -10.683 0.485 -0.807 0.336
-9.874 -19.325 -10.34 0.785 -0.61 0.108
-8.162 -18.436 -10.562 -0.26 -0.274 0.926
-8.795 -18.51 -10.614 0.162 -0.225 0.961
-9.384 -18.644 -10.405 0.554 -0.136 0.821
-9.822 -18.815 -9.972 0.846 -0.021 0.533
-10.029 -18.992 -9.394 0.984 0.097 0.147
-8.971 -17.997 -10.688 -0.091 0.51 0.856
-9.537 -18.198 -10.469 0.286 0.644 0.71
-10.025 -18.224 -10.057 0.611 0.661 0.435
-8.961 -17.412 -10.886 -0.098 0.12 0.988
-9.517 -17.137 -10.844 0.273 -0.064 0.96
-10.003 -16.877 -10.555 0.597 -0.237 0.767
-8.855 -16.928 -11.288 0.084 0.951 0.298
-9.441 -16.79 -11.133 0.475 0.859 0.194
-9.905 -16.43 -10.927 0.784 0.619 0.057
-7.99 -16.437 -12.239 0.046 0.83 0.555
-7.117 -16.832 -11.929 0.486 0.872 -0.05
-7.333 -16.579 -12.495 0.631 0.704 0.327
-7.368 -16.124 -12.967 0.654 0.4 0.642
-6.967 -17.045 -12.901 0.957 0.288 -0.035
-9.293 -15.859 -12.72 0.296 0.572 0.765
-9.923 -15.639 -12.404 0.716 0.426 0.554
-9.296 -15.802 -12.766 0.293 0.64 0.71
-9.926 -15.577 -12.454 0.712 0.49 0.502
-9.267 -15.715 -12.849 0.274 0.582 0.765
-9.882 -15.439 -12.619 0.683 0.398 0.612
-8.676 -15.368 -13.591 -0.28 0.94 0.196
-9.343 -15.437 -13.351 0.164 0.986 0.036
-9.954 -15.174 -13.099 0.572 0.81 -0.132
-10.372 -14.636 -12.892 0.85 0.452 -0.27
-9.627 -15.62 -13.821 -0.249 0.721 -0.646
-10.226 -15.348 -13.548 0.15 0.54 -0.828
-9.708 -15.692 -13.879 -0.195 0.77 -0.608
-10.374 -15.458 -13.666 0.249 0.613 -0.75
-9.73 -15.725 -13.911 -0.221 0.731 -0.645
-10.398 -15.493 -13.701 0.225 0.577 -0.785
-9.807 -15.97 -14.259 -0.169 0.895 -0.413
-9.804 -15.996 -14.314 -0.167 0.875 -0.455
-9.766 -16.051 -14.449 -0.192 0.911 -0.364
-8.922 -16.252 -15.035 -0.456 0.308 -0.835
-9.589 -16.488 -14.96 -0.011 0.466 -0.885
-10.26 -16.567 -15.184 0.436 0.518 -0.736
-9.439 -17.163 -15.039 0.142 -0.222 -0.965
-8.359 -17.655 -15.273 -0.579 0.106 -0.809
-8.171 -18.198 -15.684 -0.704 0.468 -0.534
-8.206 -16.795 -15.259 0.055 -0.079 -0.995
-7.989 -17.46 -15.362 -0.089 0.364 -0.927
-7.802 -18.003 -15.774 -0.214 0.727 -0.653
-7.686 -18.304 -16.403 -0.292 0.928 -0.233
-7.618 -16.715 -15.097 0.476 -0.022 -0.879
-7.581 -17.404 -15.249 0.451 0.438 -0.778
-7.393 -17.948 -15.661 0.326 0.8 -0.503
-7.097 -18.224 -16.24 0.129 0.985 -0.117
-7.272 -17.507 -14.973 0.86 0.302 -0.411
-7.084 -18.05 -15.384 0.735 0.664 -0.137
-8.586 -18.569 -15.657 -0.427 0.716 -0.553
-9.1 -18.306 -15.23 -0.084 0.54 -0.837
-9.643 -17.857 -15.091 0.278 0.241 -0.93
-8.608 -18.593 -15.668 -0.499 0.638 -0.587
-9.107 -18.314 -15.233 -0.166 0.451 -0.877
-9.663 -17.879 -15.101 0.205 0.161 -0.965
-8.625 -18.661 -15.732 -0.487 0.683 -0.545
-9.114 -18.465 -15.322 -0.161 0.552 -0.818
-9.651 -18.105 -15.155 0.197 0.312 -0.929
-8.842 -19.096 -15.733 -0.838 -0.022 -0.546
-9.293 -18.825 -15.322 -0.537 -0.202 -0.819
-9.904 -18.614 -15.155 -0.129 -0.343 -0.93
-8.881 -19.289 -15.69 -0.812 0.107 -0.574
-8.894 -19.667 -15.627 -0.823 -0.233 -0.517
-9.941 -18.803 -15.095 -0.105 -0.217 -0.97
-10.233 -19.395 -14.701 -0.325 -0.665 -0.673
-10.34 -19.44 -14.615 -0.253 -0.635 -0.73
-10.371 -19.726 -13.846 -0.287 -0.951 0.117
-10.271 -19.751 -13.744 -0.354 -0.934 0.05
-10.056 -19.603 -13.1 -0.192 -0.822 0.537
-9.694 -19.581 -12.8 -0.433 -0.836 0.336
-10.013 -19.373 -12.326 -0.22 -0.975 0.021
-10.387 -19.404 -11.848 0.029 -0.954 -0.298
-10.753 -19.671 -11.443 0.273 -0.776 -0.568
-9.654 -19.586 -12.769 -0.344 -0.847 0.404
-9.995 -19.375 -12.313 -0.117 -0.988 0.1
-10.365 -19.407 -11.831 0.13 -0.967 -0.221
-10.703 -19.677 -11.405 0.355 -0.787 -0.505
-9.642 -19.543 -12.656 -0.352 -0.876 0.329
-10.004 -19.369 -12.078 -0.111 -0.992 -0.056
-10.401 -19.522 -11.518 0.154 -0.89 -0.429
-9.554 -19.538 -12.597 -0.106 -0.862 0.495
-9.966 -19.367 -12.053 0.169 -0.977 0.132
-10.323 -19.518 -11.465 0.407 -0.876 -0.259
-9.715 -19.332 -11.894 0.002 -1 0.026
-10.184 -19.492 -11.374 0.315 -0.894 -0.32
-9.463 -19.24 -11.624 0.298 -0.891 0.343
-9.957 -19.408 -11.131 0.627 -0.779 0.014
-11.057 -19.687 -11.646 0.476 -0.766 -0.432
-10.93 -19.456 -12.234 0.391 -0.92 -0.041
-11.825 -20.231 -11.385 0.086 -0.523 -0.848
-11.698 -19.772 -11.819 0.002 -0.829 -0.559
-11.571 -19.541 -12.406 -0.083 -0.982 -0.168
-11.467 -19.583 -13.041 -0.152 -0.955 0.255
-12.326 -19.542 -11.865 -0.461 -0.66 -0.593
-12.199 -19.312 -12.452 -0.546 -0.813 -0.202
-12.856 -19.352 -11.843 -0.108 -0.786 -0.608
-13.566 -19.231 -11.403 -0.677 -0.69 -0.257
-12.487 -21.067 -10.162 -0.244 -0.94 -0.237
-12.587 -21.287 -9.643 -0.178 -0.793 -0.582
-11.866 -21.149 -10.05 0.066 -0.981 -0.18
-12.009 -21.364 -9.539 0.162 -0.838 -0.521
-11.282 -21.049 -9.815 0.358 -0.932 -0.063
-11.467 -21.271 -9.321 0.481 -0.784 -0.393
-10.807 -20.78 -9.488 0.596 -0.797 0.1
-11.025 -21.021 -9.017 0.741 -0.636 -0.214
-10.498 -20.374 -9.108 0.75 -0.594 0.291
-10.738 -20.643 -8.663 0.91 -0.414 -0.006
-10.392 -19.88 -8.72 0.803 -0.347 0.485
-10.64 -20.185 -8.302 0.968 -0.144 0.206
-10.503 -19.359 -8.371 0.747 -0.087 0.659
-10.743 -19.7 -7.978 0.907 0.141 0.397
-10.817 -18.873 -8.105 0.59 0.156 0.792
-11.035 -19.248 -7.731 0.735 0.406 0.542
-11.753 -17.044 -8.87 0.227 0.355 0.907
-10.986 -17.151 -9.296 0.719 0.287 0.634
-10.875 -17.175 -9.398 0.645 0.303 0.702
-10.529 -17.396 -9.857 0.947 0.109 0.302
-10.405 -15.778 -9.967 0.759 0.383 0.526
-10.53 -15.549 -9.907 0.843 0.231 0.486
-9.921 -16.327 -11.235 0.769 0.609 0.194
-9.397 -16.576 -11.652 0.42 0.775 0.473
-9.909 -16.356 -11.201 0.786 0.57 0.24
-9.383 -16.608 -11.615 0.436 0.738 0.515
-9.438 -16.495 -11.737 0.447 0.721 0.53
-9.986 -16.172 -11.378 0.813 0.506 0.29
-9.483 -16.365 -11.926 0.405 0.843 0.354
-10.033 -16.039 -11.571 0.771 0.626 0.117
-9.449 -16.24 -12.183 0.382 0.76 0.525
-9.992 -15.858 -12.051 0.744 0.506 0.437
-9.437 -16.197 -12.262 0.392 0.797 0.459
-9.98 -15.813 -12.131 0.754 0.542 0.372
-10.649 -14.602 -11.587 0.783 0.507 0.359
-10.649 -14.771 -10.976 0.783 0.62 -0.048
-11.603 -13.99 -10.963 0.699 0.707 0.11
-11.665 -13.927 -11.016 0.652 0.755 0.07
-11.168 -13.92 -12.158 0.524 0.849 0.073
-11.715 -13.328 -12.15 0.889 0.454 0.068
-11.28 -13.928 -12.827 0.468 0.844 -0.261
-11.802 -13.334 -12.671 0.816 0.448 -0.366
-12.029 -14.498 -13.952 0.093 0.559 -0.824
-12.469 -14.122 -13.884 0.387 0.308 -0.869
-11.41 -15.65 -14.334 0.16 0.57 -0.806
-10.813 -15.56 -13.977 0.502 0.622 -0.601
-11.972 -17.165 -15.308 -0.405 0.254 -0.878
-12.64 -16.749 -15.127 0.041 -0.023 -0.999
-12.625 -18.337 -14.742 -0.732 -0.332 -0.595
-13.142 -18.016 -14.521 -0.387 -0.546 -0.743
-12.683 -18.739 -14.292 -0.761 -0.533 -0.371
-13.2 -18.418 -14.071 -0.416 -0.747 -0.518
-13.017 -18.827 -13.359 -0.473 -0.8 -0.368
-12.671 -19.073 -12.795 -0.231 -0.973 0.027
-14.069 -18.332 -13.233 -0.536 -0.456 -0.711
-13.799 -18.119 -13.758 -0.716 -0.598 -0.361
-14.448 -17.693 -13.067 -0.806 0.001 -0.592
-14.247 -17.362 -13.56 -0.94 -0.219 -0.263
-14.713 -17.686 -12.37 -0.996 0.005 -0.094
-14.904 -17.472 -11.794 -0.868 -0.137 -0.478
-14.582 -18.295 -12.168 -0.902 -0.429 0.05
-14.749 -18.192 -11.556 -0.79 -0.497 -0.358
-14.265 -18.869 -11.195 -0.546 -0.725 -0.419
-14.046 -19.004 -11.18 -0.358 -0.841 -0.406
-15.037 -18.937 -10.501 -0.515 -0.252 -0.819
-14.678 -18.408 -11.348 -0.755 -0.605 -0.255
-14.896 -19.974 -9.775 -0.445 -0.771 -0.456
-14.707 -20.419 -9.454 -0.571 -0.474 -0.67
-14.768 -20.83 -8.954 -0.601 -0.68 -0.42
-15.102 -21.019 -8.471 -0.378 -0.554 -0.742
-14.267 -21.228 -8.762 -0.351 -0.878 -0.325
-14.602 -21.417 -8.279 -0.128 -0.752 -0.646
-13.66 -21.272 -8.978 -0.047 -0.9 -0.432
-13.053 -21.365 -9.17 -0.452 -0.839 -0.304
-13.241 -21.598 -7.996 -0.131 -0.884 -0.449
-13.028 -21.659 -7.886 0.034 -0.931 -0.364
-12.832 -21.686 -7.837 -0.097 -0.913 -0.397
-11.956 -21.562 -8.268 0.194 -0.955 0.226
-12.282 -21.66 -7.626 0.411 -0.889 -0.202
-12.463 -22.072 -7.055 0.532 -0.615 -0.583
-11.449 -21.191 -7.863 0.492 -0.737 0.465
-11.882 -21.367 -7.306 0.78 -0.619 0.093
-12.039 -21.762 -6.716 0.885 -0.356 -0.3
-11.287 -20.595 -7.443 0.587 -0.386 0.711
-11.753 -20.896 -6.974 0.898 -0.185 0.399
-11.903 -21.263 -6.365 0.998 0.059 -0.007
-11.935 -20.39 -6.732 0.73 0.282 0.623
-12.037 -20.228 -6.664 0.798 0.173 0.578
-12.107 -20.061 -6.64 0.744 0.302 0.597
-12.494 -18.777 -6.573 0.535 0.347 0.77
-12.829 -18.966 -6.09 0.758 0.473 0.448
-12.873 -18.299 -6.648 0.346 0.586 0.733
-13.207 -18.488 -6.165 0.569 0.712 0.411
-12.788 -17.918 -7.12 0.389 0.776 0.496
-12.977 -17.473 -7.442 0.515 0.479 0.711
-13.468 -16.314 -8.414 -0.11 0.661 0.742
-13.173 -15.789 -8.65 -0.307 0.311 0.9
-13.148 -16.936 -7.85 0.429 0.748 0.506
-12.977 -16.528 -8.322 0.315 0.476 0.821
-12.718 -15.987 -8.565 0.142 0.115 0.983
-12.419 -15.414 -8.533 -0.057 -0.267 0.962
-12.536 -16.796 -8.492 0.697 0.243 0.674
-12.309 -16.236 -8.723 0.546 -0.13 0.828
-12.302 -16.827 -8.678 0.542 0.264 0.798
-12.264 -16.867 -8.692 0.567 0.237 0.789
-11.113 -15.876 -9.216 0.551 0.067 0.832
-11.348 -15.395 -8.957 0.708 -0.254 0.659
-10.746 -15.319 -9.712 0.735 0.345 0.584
-11.038 -14.925 -9.376 0.929 0.082 0.36
-10.798 -14.727 -10.293 0.709 0.641 0.293
-11.082 -14.425 -9.867 0.898 0.44 0.009
-11.913 -13.574 -9.876 0.699 0.667 0.257
-11.627 -13.849 -9.692 0.509 0.85 0.134
-12.286 -13.591 -9.405 0.389 0.654 0.649
-12.032 -13.867 -9.18 0.219 0.838 0.5
-12.79 -13.783 -9.141 -0.032 0.493 0.869
-12.58 -14.076 -8.894 -0.172 0.689 0.705
-13.298 -14.103 -9.151 -0.455 0.226 0.861
-13.132 -14.424 -8.904 -0.566 0.44 0.697
-13.794 -15.111 -9.426 -0.701 0.347 0.623
-14.102 -15.653 -9.245 -0.495 0.709 0.502
-14.551 -15.996 -8.923 -0.196 0.938 0.287
-13.92 -15.14 -9.682 -0.949 0.291 0.12
-14.203 -15.676 -9.45 -0.76 0.648 -0.036
-14.701 -16.03 -9.227 -0.429 0.885 -0.184
-14.067 -15.284 -10.035 -0.851 0.387 0.355
-14.097 -15.228 -10.389 -0.887 0.455 -0.077
-14.047 -15.132 -10.485 -0.92 0.391 -0.013
-14.016 -15.097 -10.655 -0.895 0.42 -0.154
-13.864 -14.451 -11.207 -0.985 0.01 0.174
-13.797 -14.088 -11.24 -0.918 0.371 0.141
-13.721 -13.889 -11.137 -0.969 0.238 0.072
-13.335 -13.35 -10.407 -0.486 0.854 -0.186
-13.281 -13.309 -11.001 -0.522 0.826 0.21
-13.351 -13.071 -11.544 -0.475 0.668 0.573
-12.517 -13.216 -10.385 0.196 0.966 -0.168
-12.551 -13.189 -10.982 0.219 0.948 0.23
-12.533 -12.936 -11.523 0.207 0.78 0.591
-11.942 -13.596 -11.09 0.836 0.535 0.12
-13.846 -13.326 -12.314 -0.888 0.455 -0.068
-14.057 -13.631 -12.546 -0.748 0.658 0.086
-13.437 -13.103 -12.879 -0.547 0.641 -0.539
-13.612 -13.389 -13.16 -0.43 0.831 -0.352
-12.77 -13.135 -13.179 0.009 0.614 -0.789
-12.887 -13.424 -13.486 0.088 0.806 -0.585
-13.971 -14.832 -11.41 -0.914 0.264 0.309
-13.979 -14.848 -11.42 -0.919 0.252 0.302
-14.118 -15.168 -11.442 -0.826 0.466 0.317
-14.27 -15.707 -12.235 -0.948 0.035 -0.316
-14.153 -15.669 -12.9 -0.999 -0.029 -0.046
-14.106 -14.967 -13.434 -0.783 -0.296 -0.548
-13.971 -15.522 -13.529 -0.872 0.073 -0.484
-14.032 -16.059 -13.732 -0.832 0.432 -0.349
-13.521 -15.328 -13.988 -0.558 0.208 -0.803
-13.448 -15.412 -14.068 -0.606 0.264 -0.75
-12.931 -15.249 -14.217 -0.087 0.428 -0.9
-12.887 -15.128 -14.17 -0.117 0.347 -0.93
-12.829 -15.112 -14.17 -0.077 0.358 -0.931
-13.687 -16.808 -14.589 -0.831 -0.073 -0.551
-13.834 -16.92 -14.395 -0.733 0.002 -0.68
-15.4 -16.955 -10.385 -0.775 0.37 -0.513
-15.132 -17.351 -11.19 -0.981 -0.077 -0.176
-15.42 -17.478 -10.532 -0.789 0.008 -0.614
-15.989 -17.603 -10.092 -0.41 0.091 -0.907
-15.29 -18.006 -10.541 -0.699 -0.356 -0.62
-15.447 -16.881 -10.273 -0.743 0.32 -0.587
-15.782 -16.456 -9.526 -0.289 0.766 -0.574
-15.296 -16.404 -9.939 -0.613 0.731 -0.299
-14.977 -16.152 -10.433 -0.826 0.563 0.03
-14.915 -16.14 -9.552 -0.286 0.958 0.033
-14.39 -15.969 -8.866 -0.303 0.92 0.249
-13.842 -15.513 -9.117 -0.669 0.616 0.417
-13.969 -16.224 -8.451 0.224 0.601 0.767
-13.442 -15.755 -8.724 -0.128 0.289 0.949
-14.895 -16.333 -7.712 0.233 0.838 0.493
-15.185 -16.416 -7.183 0.426 0.894 0.141
-15.397 -16.158 -7.985 -0.062 0.941 0.332
-15.725 -16.228 -7.478 0.157 0.988 -0.006
-15.884 -16.18 -8.33 -0.349 0.928 0.13
-16.249 -16.251 -7.848 -0.105 0.976 -0.192
-16.297 -16.396 -8.703 -0.592 0.801 -0.09
-16.693 -16.484 -8.249 -0.328 0.86 -0.392
-16.585 -16.78 -9.058 -0.761 0.575 -0.299
-17.003 -16.896 -8.632 -0.483 0.653 -0.583
-16.712 -17.283 -9.353 -0.836 0.279 -0.472
-17.14 -17.438 -8.948 -0.551 0.382 -0.742
-16.663 -17.845 -9.549 -0.807 -0.051 -0.588
-17.087 -18.042 -9.16 -0.525 0.08 -0.848
-16.444 -18.396 -9.624 -0.678 -0.375 -0.632
-16.851 -18.634 -9.24 -0.407 -0.216 -0.888
-15.452 -17.66 -5.632 0.293 0.272 0.917
-15.279 -18.203 -5.386 0.178 0.634 0.753
-16.053 -17.819 -5.502 -0.008 0.192 0.981
-15.838 -18.351 -5.266 -0.151 0.546 0.824
-16.622 -18.099 -5.555 -0.292 0.052 0.955
-16.367 -18.612 -5.315 -0.462 0.393 0.795
-17.088 -18.467 -5.783 -0.525 -0.132 0.841
-16.8 -18.953 -5.527 -0.717 0.192 0.67
-17.396 -18.876 -6.16 -0.679 -0.337 0.653
-17.086 -19.334 -5.877 -0.885 -0.032 0.464
-17.507 -19.279 -6.639 -0.735 -0.538 0.413
-17.19 -19.708 -6.322 -0.946 -0.252 0.202
-17.41 -19.627 -7.163 -0.686 -0.712 0.151
-17.099 -20.031 -6.809 -0.893 -0.442 -0.084
-17.115 -19.876 -7.668 -0.538 -0.837 -0.101
-16.825 -20.263 -7.279 -0.732 -0.578 -0.361
-15.939 -21.109 -7.165 -0.796 -0.598 -0.089
-16.406 -20.728 -7.002 -0.485 -0.852 -0.198
-15.555 -21.503 -6.91 -0.605 -0.796 0.039
-15.241 -21.885 -6.534 -0.814 -0.541 -0.212
-15.167 -21.691 -7.387 -0.41 -0.89 -0.2
-14.88 -22.06 -6.978 -0.602 -0.644 -0.473
-14.642 -21.734 -7.758 -0.148 -0.911 -0.385
-14.392 -22.1 -7.322 -0.314 -0.667 -0.676
-14.908 -22.286 -5.967 -0.618 -0.777 0.122
-14.991 -22.221 -5.625 -0.563 -0.82 -0.105
-14.175 -22.52 -5.562 -0.187 -0.914 0.36
-14.378 -22.416 -5.287 -0.052 -0.983 0.177
-13.58 -22.186 -5.023 0.163 -0.718 0.677
-13.88 -22.137 -4.836 0.363 -0.75 0.552
-13.405 -21.444 -4.606 0.266 -0.281 0.922
-13.734 -21.516 -4.488 0.485 -0.233 0.843
-13.733 -20.645 -4.509 0.073 0.189 0.979
-14.009 -20.848 -4.406 0.256 0.324 0.911
-14.806 -19.8 -5.005 -0.06 0.222 0.973
-14.772 -19.766 -5.012 -0.036 0.246 0.969
-13.832 -19.92 -4.834 0.015 0.615 0.788
-14.039 -19.39 -5.081 0.153 0.261 0.953
-13.294 -19.831 -5.041 0.331 0.668 0.667
-13.461 -19.293 -5.303 0.442 0.31 0.842
-12.823 -19.874 -5.381 0.608 0.642 0.467
-12.955 -19.34 -5.669 0.696 0.286 0.659
-14.329 -18.942 -5.238 0.008 0.485 0.875
-14.909 -18.714 -5.21 0.395 0.333 0.856
-14.896 -19.964 -4.96 -0.001 0.332 0.943
-15.871 -19.851 -5.091 -0.171 -0.336 0.926
-15.426 -20.347 -5.028 -0.467 -0.005 0.884
-15.121 -20.845 -4.7 -0.671 0.327 0.666
-16.258 -20.383 -5.564 -0.398 -0.649 0.649
-15.74 -20.779 -5.411 -0.744 -0.385 0.547
-15.445 -21.29 -5.095 -0.941 -0.044 0.336
-15.73 -21.111 -5.979 -0.735 -0.677 0.048
-12.348 -20.915 -5.393 0.888 0.03 0.459
-12.174 -21.128 -5.622 0.772 0.172 0.612
-12.625 -21.589 -5.182 0.725 -0.367 0.583
-12.406 -21.692 -5.445 0.579 -0.298 0.759
-12.986 -22.215 -5.417 0.512 -0.734 0.445
-12.708 -22.215 -5.642 0.327 -0.734 0.595
-13.3 -22.564 -6.014 0.328 -0.94 0.094
-12.971 -22.507 -6.141 0.109 -0.978 0.179
-13.453 -22.512 -6.755 0.238 -0.909 -0.342
-13.099 -22.463 -6.761 0.002 -0.941 -0.338
-12.019 -19.455 -13.252 -0.429 -0.891 0.149
-11.986 -19.54 -13.504 -0.451 -0.834 0.317
-12.615 -18.941 -14.081 -0.727 -0.634 -0.265
-12.449 -19.14 -14.149 -0.837 -0.501 -0.22
-11.949 -18.804 -15.001 -0.394 -0.565 -0.725
-11.932 -19.034 -14.864 -0.406 -0.412 -0.816
-11.113 -17.26 -15.507 0.025 0.207 -0.978
-10.913 -17.083 -15.489 -0.109 0.089 -0.99
-11.335 -16.319 -15.012 -0.087 0.677 -0.731
-11.086 -16.351 -15.104 -0.253 0.699 -0.669
-11.258 -14.065 -13.125 0.479 0.776 -0.41
-11.013 -14.166 -13.088 0.316 0.844 -0.434
-10.859 -14.171 -12.048 0.679 0.723 0.129
-10.703 -14.248 -12.25 0.574 0.775 0.264
-17.489 -16.905 -7.922 -0.726 0.649 -0.228
-17.635 -16.954 -7.703 -0.629 0.682 -0.375
-17.94 -17.786 -7.922 -0.951 0.208 -0.228
-17.986 -17.64 -7.703 -0.921 0.11 -0.375
-17.999 -18.312 -7.085 -0.98 -0.055 0.19
-18.031 -18.049 -7.052 -0.959 -0.231 0.168
-17.606 -17.957 -6.249 -0.784 0.123 0.608
-17.726 -17.772 -6.401 -0.704 -0 0.71
-17.156 -17.076 -6.249 -0.559 0.564 0.608
-17.376 -17.087 -6.401 -0.412 0.571 0.71
-7.042 -17.749 -14.788 0.707 0.463 -0.534
-9.682 -17.541 -10.756 0.383 0.206 0.901
-10.169 -17.927 -10.206 0.707 0.463 0.534
-10.169 -17.383 -10.454 0.707 0.101 0.7
-8.652 -17.804 -15.135 -0.383 0.206 -0.901
-9.226 -17.495 -14.986 0 0 -1
-4.795 -19.312 -13.782 1 0 0
-4.934 -18.705 -13.782 0.901 0.434 0
-4.934 -19.008 -13.256 0.901 0.217 0.376
-4.934 -19.616 -13.256 0.901 -0.217 0.376
-4.934 -19.919 -13.782 0.901 -0.434 -0
-4.934 -19.616 -14.308 0.901 -0.217 -0.376
-4.934 -19.008 -14.308 0.901 0.217 -0.376
-5.322 -18.217 -13.782 0.623 0.782 0
-5.322 -18.391 -13.19 0.623 0.658 0.423
-5.322 -19.468 -12.699 0.623 -0.111 0.774
-5.322 -20.029 -12.955 0.623 -0.512 0.591
-5.322 -18.391 -14.374 0.623 0.658 -0.423
-6.537 -17.749 -11.332 0.901 0.217 0.376
-6.925 -17.132 -11.266 0.623 0.658 0.423
-6.925 -17.598 -10.862 0.623 0.325 0.711
-6.925 -18.209 -10.775 0.623 -0.111 0.774
-6.925 -18.77 -11.031 0.623 -0.512 0.591
-7.486 -16.823 -11.266 0.223 0.878 0.423
-7.486 -17.202 -10.791 0.223 0.608 0.762
-7.486 -17.749 -10.527 0.223 0.217 0.95
-7.486 -18.357 -10.527 0.223 -0.217 0.95
-7.486 -18.904 -10.791 0.223 -0.608 0.762
-7.486 -19.283 -11.266 0.223 -0.878 0.423
-7.023 -16.077 -13.866 0.901 0.434 0
-7.411 -15.589 -13.866 0.623 0.782 0
-7.411 -15.763 -13.274 0.623 0.658 0.423
-7.411 -16.229 -14.862 0.623 0.325 -0.711
-7.411 -15.763 -14.458 0.623 0.658 -0.423
-7.972 -15.319 -13.866 0.223 0.975 0
-7.972 -15.454 -13.274 0.223 0.878 0.423
-7.972 -16.38 -15.197 0.223 0.217 -0.95
-7.972 -15.833 -14.933 0.223 0.608 -0.762
-7.972 -15.454 -14.458 0.223 0.878 -0.423
-8.596 -15.833 -14.933 -0.223 0.608 -0.762
-8.596 -15.454 -14.458 -0.223 0.878 -0.423
-6.016 -19.907 -16.602 0.901 -0.217 -0.376
-6.016 -19.299 -16.602 0.901 0.217 -0.376
-6.404 -20.32 -16.903 0.623 -0.512 -0.591
-6.404 -19.759 -17.159 0.623 -0.111 -0.774
-6.404 -19.148 -17.072 0.623 0.325 -0.711
-6.404 -18.682 -16.668 0.623 0.658 -0.423
-6.965 -20.454 -17.143 0.223 -0.608 -0.762
-6.965 -19.907 -17.407 0.223 -0.217 -0.95
-6.965 -19.299 -17.407 0.223 0.217 -0.95
-6.965 -18.752 -17.143 0.223 0.608 -0.762
-6.965 -18.373 -16.668 0.223 0.878 -0.423
-7.589 -20.454 -17.143 -0.223 -0.608 -0.762
-7.589 -19.907 -17.407 -0.223 -0.217 -0.95
-7.589 -19.299 -17.407 -0.223 0.217 -0.95
-7.589 -18.752 -17.143 -0.223 0.608 -0.762
-8.15 -20.32 -16.903 -0.623 -0.512 -0.591
-8.15 -19.759 -17.159 -0.623 -0.111 -0.774
-8.15 -19.148 -17.072 -0.623 0.325 -0.711
-8.15 -18.682 -16.668 -0.623 0.658 -0.423
-8.538 -19.907 -16.602 -0.901 -0.217 -0.376
-6.215 -22.013 -14.367 0.901 -0.434 -0
-6.603 -22.123 -13.54 0.623 -0.512 0.591
-6.603 -22.456 -14.059 0.623 -0.75 0.22
-6.603 -22.456 -14.675 0.623 -0.75 -0.22
-6.603 -22.123 -15.194 0.623 -0.512 -0.591
-7.164 -21.71 -13.036 0.223 -0.217 0.95
-7.164 -22.257 -13.3 0.223 -0.608 0.762
-7.164 -22.636 -13.775 0.223 -0.878 0.423
-7.164 -22.771 -14.367 0.223 -0.975 0
-7.164 -22.636 -14.959 0.223 -0.878 -0.423
-7.164 -22.257 -15.434 0.223 -0.608 -0.762
-7.788 -21.71 -13.036 -0.223 -0.217 0.95
-7.788 -22.257 -13.3 -0.223 -0.608 0.762
-7.788 -22.636 -13.775 -0.223 -0.878 0.423
-7.788 -22.771 -14.367 -0.223 -0.975 0
-7.788 -22.636 -14.959 -0.223 -0.878 -0.423
-7.788 -22.257 -15.434 -0.223 -0.608 -0.762
-8.349 -22.123 -13.54 -0.623 -0.512 0.591
-8.349 -22.456 -14.059 -0.623 -0.75 0.22
-8.349 -22.456 -14.675 -0.623 -0.75 -0.22
-8.349 -22.123 -15.194 -0.623 -0.512 -0.591
-8.737 -22.013 -14.367 -0.901 -0.434 -0
-10.096 -19.495 -9.154 0.951 -0.155 0.268
-10.38 -18.598 -8.671 0.809 0.294 0.509
-10.38 -20.362 -9.689 0.809 -0.588 0
-10.822 -18.042 -8.545 0.588 0.572 0.572
-10.822 -20.681 -10.308 0.588 -0.747 -0.31
-11.38 -20.859 -10.594 0.309 -0.836 -0.453
-11.998 -20.988 -10.557 -0 -0.901 -0.434
-11.998 -20.652 -11.049 -0 -0.733 -0.68
-12.616 -20.859 -10.594 -0.309 -0.836 -0.453
-12.616 -20.474 -11.088 -0.309 -0.644 -0.7
-13.174 -20.33 -10.833 -0.588 -0.572 -0.572
-11.598 -14.577 -13.897 0.309 0.52 -0.796
-11.162 -18.673 -15.283 -0 -0.5 -0.866
-11.162 -18.118 -15.501 -0 -0.223 -0.975
-11.78 -18.437 -15.293 -0.309 -0.382 -0.871
-11.78 -17.83 -15.447 -0.309 -0.079 -0.948
-10.783 -16.507 -15.289 -0 0.568 -0.823
-12.045 -19.536 -14.178 -0.5 -0.831 -0.244
-14.192 -18.744 -12.546 -0.623 -0.75 -0.22
-14.58 -17.998 -12.764 -0.901 -0.217 -0.376
-15.183 -19.576 -10.007 -0.588 -0.572 -0.572
-10.983 -20.095 -7.571 0.766 -0.091 0.636
-10.983 -20.655 -7.827 0.766 -0.421 0.486
-10.983 -20.987 -8.345 0.766 -0.617 0.181
-11.435 -21.379 -8.347 0.5 -0.847 0.18
-11.435 -21.379 -8.959 0.5 -0.847 -0.18
-11.99 -21.585 -8.961 0.174 -0.968 -0.181
-12.58 -21.585 -8.961 -0.174 -0.968 -0.181
-12.389 -18.327 -6.969 0.588 0.572 0.572
-12.752 -13.312 -9.626 -0 0.885 0.465
-13.352 -13.501 -9.622 -0.5 0.729 0.468
-13.791 -14.075 -9.664 -0.866 0.25 0.433
-12.181 -12.833 -12.232 0.5 0.866 0
-12.181 -12.998 -12.794 0.5 0.729 -0.468
-12.781 -12.672 -12.232 -0 1 0
-12.781 -12.809 -12.79 -0 0.885 -0.465
-13.381 -12.833 -12.232 -0.5 0.866 0
-13.322 -14.249 -13.998 -0.223 0.217 -0.95
-13.322 -13.702 -13.734 -0.223 0.608 -0.762
-13.883 -14.098 -13.663 -0.623 0.325 -0.711
-13.883 -13.632 -13.259 -0.623 0.658 -0.423
-14.271 -13.946 -12.667 -0.901 0.434 0
-14.271 -14.249 -13.193 -0.901 0.217 -0.376
-14.41 -14.553 -12.667 -1 0 0
-13.289 -16.869 -14.957 -0.5 -0.123 -0.857
-13.289 -16.289 -14.873 -0.5 0.36 -0.788
-13.544 -18.067 -14.179 -0.588 -0.572 -0.572
-13.986 -17.511 -14.053 -0.809 -0.294 -0.509
-14.27 -16.614 -13.57 -0.951 0.155 -0.268
-15.586 -16.084 -8.55 -0.174 0.985 0
-16.141 -16.413 -9.149 -0.5 0.791 -0.352
-14.862 -17.059 -6.321 0.588 0.572 0.572
-15.42 -16.404 -6.847 0.309 0.9 0.309
-15.42 -16.702 -6.297 0.309 0.751 0.584
-15.42 -17.163 -5.873 0.309 0.52 0.796
-16.038 -16.292 -6.875 -0 0.956 0.295
-16.038 -16.551 -6.338 -0 0.826 0.563
-16.038 -16.956 -5.901 -0 0.623 0.782
-16.038 -17.472 -5.603 -0 0.365 0.931
-16.656 -16.301 -7.465 -0.309 0.951 0
-16.656 -16.404 -6.847 -0.309 0.9 0.309
-16.656 -16.702 -6.297 -0.309 0.751 0.584
-16.656 -17.163 -5.873 -0.309 0.52 0.796
-16.656 -17.736 -5.621 -0.309 0.233 0.922
-17.214 -19.698 -8.084 -0.588 -0.747 -0.31
-17.214 -19.347 -8.609 -0.588 -0.572 -0.572
-17.214 -18.822 -8.96 -0.588 -0.31 -0.747
-17.656 -18.791 -6.447 -0.809 -0.294 0.509
-17.656 -19.379 -7.465 -0.809 -0.588 0
-17.656 -19.221 -8.053 -0.809 -0.509 -0.294
-17.656 -18.791 -8.483 -0.809 -0.294 -0.509
-17.656 -18.203 -8.641 -0.809 -0 -0.588
-17.656 -17.615 -8.483 -0.809 0.294 -0.509
-17.94 -18.821 -7.465 -0.951 -0.309 -0
-17.94 -18.512 -8 -0.951 -0.155 -0.268
-15.522 -21.407 -7.606 -0.588 -0.747 -0.31
-15.522 -21.056 -8.131 -0.588 -0.572 -0.572
-12.555 -20.512 -5.18 0.766 0.267 0.585
-13.007 -20.511 -4.774 0.5 0.268 0.824
-13.007 -21.12 -4.71 0.5 -0.091 0.861
-13.007 -21.702 -4.899 0.5 -0.433 0.75
-13.562 -20.22 -4.675 0.174 0.439 0.882
-14.152 -22.612 -6.482 -0.174 -0.968 -0.181
-14.152 -22.389 -7.055 -0.174 -0.837 -0.518
-14.707 -22.406 -6.48 -0.5 -0.847 -0.18
-12.062 -21.634 -5.836 0.866 -0.25 0.433
-12.062 -21.934 -6.356 0.866 -0.5 -0
-12.501 -22.331 -6.063 0.5 -0.831 0.244
-12.501 -22.331 -6.649 0.5 -0.831 -0.244
-13.17 -18.768 -5.843 0.588 0.572 0.572
-13.728 -18.872 -5.395 0.309 0.52 0.796
-11.466 -14.119 -9.288 0.623 0.658 0.423
-11.466 -14.585 -8.884 0.623 0.325 0.711
-12.027 -14.189 -8.813 0.223 0.608 0.762
-12.027 -14.736 -8.549 0.223 0.217 0.95
-12.651 -14.736 -8.549 -0.223 0.217 0.95
-15.286 -18.534 -5.167 0.174 0.439 0.882
-15.876 -19.126 -4.999 -0.174 0.091 0.981
-16.431 -19.434 -5.202 -0.5 -0.091 0.861
-16.431 -20.016 -5.391 -0.5 -0.433 0.75
-16.883 -19.436 -5.584 -0.766 -0.091 0.636
-16.883 -19.996 -5.84 -0.766 -0.421 0.486
-16.883 -20.328 -6.358 -0.766 -0.617 0.181
-14.316 -21.092 -4.308 -0 0.121 0.993
-14.316 -21.663 -4.377 -0 -0.355 0.935
-14.316 -22.135 -4.703 -0 -0.749 0.663
-14.916 -21.385 -4.47 -0.5 -0.123 0.857
-14.916 -21.918 -4.714 -0.5 -0.567 0.654
-14.916 -22.234 -5.206 -0.5 -0.831 0.244
-17.92 -17.172 -7.253 -0.866 0.5 0
-17.92 -17.472 -6.733 -0.866 0.25 0.433
3 0 4 1
3 1 4 3
3 4 261 260
3 260 261 262
3 260 262 5
3 5 262 263
3 261 264 262
3 262 264 265
3 262 265 263
3 263 265 266
3 264 267 265
3 265 267 268
3 265 268 266
3 266 268 269
3 267 7 268
3 268 7 270
3 268 270 269
3 269 270 6
3 7 273 271
3 271 273 274
3 271 274 272
3 272 274 275
3 272 275 8
3 8 275 276
3 273 10 274
3 274 10 277
3 274 277 275
3 275 277 278
3 275 278 276
3 276 278 9
3 10 280 279
3 279 280 281
3 279 281 11
3 11 281 282
3 280 13 281
3 281 13 283
3 281 283 282
3 282 283 12
3 13 284 14
3 14 284 285
3 284 16 285
3 285 16 15
3 16 287 286
3 286 287 288
3 286 288 17
3 17 288 289
3 287 290 288
3 288 290 291
3 288 291 289
3 289 291 292
3 290 0 291
3 291 0 293
3 291 293 292
3 292 293 2
3 17 19 15
3 15 19 18
3 19 295 294
3 294 295 296
3 294 296 20
3 20 296 297
3 295 298 296
3 296 298 299
3 296 299 297
3 297 299 300
3 298 22 299
3 299 22 301
3 299 301 300
3 300 301 21
3 22 25 23
3 23 25 24
3 25 303 302
3 302 303 304
3 302 304 26
3 26 304 305
3 303 306 304
3 304 306 307
3 304 307 305
3 305 307 308
3 306 28 307
3 307 28 309
3 307 309 308
3 308 309 27
3 28 2 29
3 29 2 1
3 29 31 27
3 27 31 30
3 31 34 310
3 310 34 311
3 310 311 32
3 32 311 33
3 34 3 312
3 312 3 313
3 312 313 35
3 35 313 5
3 35 37 33
3 33 37 36
3 37 40 314
3 314 40 316
3 314 316 315
3 315 316 317
3 315 317 38
3 38 317 39
3 40 321 318
3 318 321 322
3 318 322 319
3 319 322 323
3 319 323 320
3 320 323 324
3 320 324 41
3 41 324 325
3 321 43 322
3 322 43 326
3 322 326 323
3 323 326 327
3 323 327 324
3 324 327 328
3 324 328 325
3 325 328 42
3 43 46 329
3 329 46 332
3 329 332 330
3 330 332 333
3 330 333 331
3 331 333 334
3 331 334 44
3 44 334 45
3 46 49 47
3 47 49 48
3 49 336 335
3 335 336 337
3 335 337 50
3 50 337 338
3 336 6 337
3 337 6 339
3 337 339 338
3 338 339 8
3 50 52 48
3 48 52 51
3 52 55 340
3 340 55 342
3 340 342 341
3 341 342 343
3 341 343 53
3 53 343 54
3 55 346 344
3 344 346 347
3 344 347 345
3 345 347 348
3 345 348 56
3 56 348 349
3 346 58 347
3 347 58 350
3 347 350 348
3 348 350 351
3 348 351 349
3 349 351 57
3 58 61 352
3 352 61 354
3 352 354 353
3 353 354 355
3 353 355 59
3 59 355 60
3 61 64 356
3 356 64 357
3 356 357 62
3 62 357 63
3 64 359 358
3 358 359 360
3 358 360 65
3 65 360 361
3 359 67 360
3 360 67 362
3 360 362 361
3 361 362 66
3 67 365 363
3 363 365 366
3 363 366 364
3 364 366 367
3 364 367 68
3 68 367 368
3 365 369 366
3 366 369 370
3 366 370 367
3 367 370 371
3 367 371 368
3 368 371 372
3 369 9 370
3 370 9 373
3 370 373 371
3 371 373 374
3 371 374 372
3 372 374 11
3 68 70 375
3 375 70 378
3 375 378 376
3 376 378 379
3 376 379 377
3 377 379 380
3 377 380 66
3 66 380 69
3 70 73 381
3 381 73 384
3 381 384 382
3 382 384 385
3 382 385 383
3 383 385 386
3 383 386 71
3 71 386 72
3 73 76 387
3 387 76 388
3 387 388 74
3 74 388 75
3 76 21 77
3 77 21 23
3 77 24 75
3 75 24 26
3 74 79 389
3 389 79 390
3 389 390 72
3 72 390 78
3 79 82 391
3 391 82 392
3 391 392 80
3 80 392 81
3 82 85 393
3 393 85 394
3 393 394 83
3 83 394 84
3 85 88 395
3 395 88 399
3 395 399 396
3 396 399 400
3 396 400 397
3 397 400 401
3 397 401 398
3 398 401 402
3 398 402 86
3 86 402 87
3 88 91 403
3 403 91 406
3 403 406 404
3 404 406 407
3 404 407 405
3 405 407 408
3 405 408 89
3 89 408 90
3 91 30 92
3 92 30 32
3 92 36 409
3 409 36 411
3 409 411 410
3 410 411 412
3 410 412 90
3 90 412 38
3 89 39 87
3 87 39 41
3 86 415 413
3 413 415 416
3 413 416 414
3 414 416 417
3 414 417 84
3 84 417 418
3 415 94 416
3 416 94 419
3 416 419 417
3 417 419 420
3 417 420 418
3 418 420 93
3 94 97 421
3 421 97 422
3 421 422 95
3 95 422 96
3 97 100 98
3 98 100 99
3 100 103 101
3 101 103 102
3 103 423 104
3 104 423 424
3 423 425 424
3 424 425 426
3 425 427 426
3 426 427 428
3 427 429 428
3 428 429 430
3 429 431 430
3 430 431 432
3 431 433 432
3 432 433 434
3 433 435 434
3 434 435 436
3 435 437 436
3 436 437 438
3 437 106 438
3 438 106 105
3 106 109 107
3 107 109 108
3 109 112 110
3 110 112 111
3 112 115 439
3 439 115 440
3 439 440 113
3 113 440 114
3 115 42 441
3 441 42 442
3 441 442 116
3 116 442 44
3 116 443 114
3 114 443 444
3 443 118 444
3 444 118 117
3 118 45 445
3 445 45 447
3 445 447 446
3 446 447 448
3 446 448 119
3 119 448 47
3 119 121 449
3 449 121 451
3 449 451 450
3 450 451 452
3 450 452 117
3 117 452 120
3 121 51 453
3 453 51 455
3 453 455 454
3 454 455 456
3 454 456 122
3 122 456 53
3 122 457 120
3 120 457 458
3 457 124 458
3 458 124 123
3 124 127 459
3 459 127 460
3 459 460 125
3 125 460 126
3 127 461 128
3 128 461 462
3 461 463 462
3 462 463 464
3 463 130 464
3 464 130 129
3 130 465 131
3 131 465 466
3 465 133 466
3 466 133 132
3 133 136 134
3 134 136 135
3 136 60 467
3 467 60 468
3 467 468 137
3 137 468 62
3 137 139 135
3 135 139 138
3 139 469 140
3 140 469 470
3 469 142 470
3 470 142 141
3 142 471 143
3 143 471 472
3 471 473 472
3 472 473 474
3 473 145 474
3 474 145 144
3 145 93 475
3 475 93 476
3 475 476 146
3 146 476 95
3 146 477 144
3 144 477 478
3 477 479 478
3 478 479 480
3 479 148 480
3 480 148 147
3 148 481 149
3 149 481 482
3 481 483 482
3 482 483 484
3 483 151 484
3 484 151 150
3 151 96 485
3 485 96 486
3 485 486 152
3 152 486 98
3 152 487 150
3 150 487 488
3 487 154 488
3 488 154 153
3 154 157 155
3 155 157 156
3 157 160 158
3 158 160 159
3 160 163 161
3 161 163 162
3 163 489 164
3 164 489 490
3 489 99 490
3 490 99 101
3 164 491 162
3 162 491 492
3 491 493 492
3 492 493 494
3 493 166 494
3 494 166 165
3 166 169 167
3 167 169 168
3 169 495 170
3 170 495 496
3 495 102 496
3 496 102 104
3 170 172 497
3 497 172 498
3 497 498 168
3 168 498 171
3 172 500 499
3 499 500 501
3 499 501 173
3 173 501 502
3 500 503 501
3 501 503 504
3 501 504 502
3 502 504 505
3 503 506 504
3 504 506 507
3 504 507 505
3 505 507 508
3 506 175 507
3 507 175 509
3 507 509 508
3 508 509 174
3 175 178 510
3 510 178 511
3 510 511 176
3 176 511 177
3 178 105 179
3 179 105 107
3 179 181 177
3 177 181 180
3 181 512 182
3 182 512 513
3 512 514 513
3 513 514 515
3 514 184 515
3 515 184 183
3 184 516 185
3 185 516 517
3 516 108 517
3 517 108 110
3 185 187 183
3 183 187 186
3 187 190 188
3 188 190 189
3 190 193 191
3 191 193 192
3 193 520 518
3 518 520 521
3 518 521 519
3 519 521 522
3 519 522 194
3 194 522 523
3 520 196 521
3 521 196 524
3 521 524 522
3 522 524 525
3 522 525 523
3 523 525 195
3 196 111 526
3 526 111 527
3 526 527 197
3 197 527 113
3 197 528 195
3 195 528 529
3 528 530 529
3 529 530 531
3 530 532 531
3 531 532 533
3 532 199 533
3 533 199 198
3 199 123 200
3 200 123 125
3 200 534 198
3 198 534 535
3 534 536 535
3 535 536 537
3 536 538 537
3 537 538 539
3 538 540 539
3 539 540 541
3 540 202 541
3 541 202 201
3 202 205 542
3 542 205 545
3 542 545 543
3 543 545 546
3 543 546 544
3 544 546 547
3 544 547 203
3 203 547 204
3 205 208 548
3 548 208 549
3 548 549 206
3 206 549 207
3 208 211 550
3 550 211 551
3 550 551 209
3 209 551 210
3 211 214 212
3 212 214 213
3 214 217 552
3 552 217 553
3 552 553 215
3 215 553 216
3 217 555 554
3 554 555 556
3 554 556 218
3 218 556 557
3 555 558 556
3 556 558 559
3 556 559 557
3 557 559 560
3 558 126 559
3 559 126 561
3 559 561 560
3 560 561 128
3 218 562 216
3 216 562 563
3 562 564 563
3 563 564 565
3 564 566 565
3 565 566 567
3 566 129 567
3 567 129 131
3 215 220 568
3 568 220 569
3 568 569 213
3 213 569 219
3 220 223 570
3 570 223 571
3 570 571 221
3 221 571 222
3 223 226 224
3 224 226 225
3 226 573 572
3 572 573 574
3 572 574 227
3 227 574 575
3 573 229 574
3 574 229 576
3 574 576 575
3 575 576 228
3 229 232 577
3 577 232 578
3 577 578 230
3 230 578 231
3 232 132 579
3 579 132 580
3 579 580 233
3 233 580 134
3 233 138 231
3 231 138 140
3 230 581 228
3 228 581 582
3 581 141 582
3 582 141 143
3 227 235 225
3 225 235 234
3 235 147 236
3 236 147 149
3 236 222 234
3 234 222 224
3 221 210 219
3 219 210 212
3 209 238 207
3 207 238 237
3 238 584 583
3 583 584 585
3 583 585 239
3 239 585 586
3 584 153 585
3 585 153 587
3 585 587 586
3 586 587 155
3 239 589 588
3 588 589 590
3 588 590 237
3 237 590 591
3 589 204 590
3 590 204 592
3 590 592 591
3 591 592 206
3 203 192 593
3 593 192 595
3 593 595 594
3 594 595 596
3 594 596 201
3 201 596 194
3 191 597 189
3 189 597 598
3 597 599 598
3 598 599 600
3 599 601 600
3 600 601 602
3 601 603 602
3 602 603 604
3 603 605 604
3 604 605 606
3 605 607 606
3 606 607 608
3 607 609 608
3 608 609 610
3 609 611 610
3 610 611 612
3 611 156 612
3 612 156 158
3 188 241 186
3 186 241 240
3 241 613 242
3 242 613 614
3 613 615 614
3 614 615 616
3 615 617 616
3 616 617 618
3 617 619 618
3 618 619 620
3 619 621 620
3 620 621 622
3 621 623 622
3 622 623 624
3 623 625 624
3 624 625 626
3 625 627 626
3 626 627 628
3 627 244 628
3 628 244 243
3 244 159 245
3 245 159 161
3 245 629 243
3 243 629 630
3 629 247 630
3 630 247 246
3 247 250 248
3 248 250 249
3 250 631 251
3 251 631 632
3 631 633 632
3 632 633 634
3 633 635 634
3 634 635 636
3 635 165 636
3 636 165 167
3 251 637 249
3 249 637 638
3 637 639 638
3 638 639 640
3 639 641 640
3 640 641 642
3 641 643 642
3 642 643 644
3 643 645 644
3 644 645 646
3 645 253 646
3 646 253 252
3 253 256 647
3 647 256 648
3 647 648 254
3 254 648 255
3 256 649 257
3 257 649 650
3 649 651 650
3 650 651 652
3 651 653 652
3 652 653 654
3 653 180 654
3 654 180 182
3 257 655 255
3 255 655 656
3 655 240 656
3 656 240 242
3 254 658 657
3 657 658 659
3 657 659 252
3 252 659 660
3 658 661 659
3 659 661 662
3 659 662 660
3 660 662 663
3 661 246 662
3 662 246 664
3 662 664 663
3 663 664 248
3 176 665 174
3 174 665 666
3 665 667 666
3 666 667 668
3 667 669 668
3 668 669 670
3 669 671 670
3 670 671 672
3 671 673 672
3 672 673 674
3 673 171 674
3 674 171 173
3 83 675 81
3 81 675 676
3 675 677 676
3 676 677 678
3 677 679 678
3 678 679 680
3 679 78 680
3 680 78 80
3 71 681 69
3 69 681 682
3 681 683 682
3 682 683 684
3 683 63 684
3 684 63 65
3 59 685 57
3 57 685 686
3 685 687 686
3 686 687 688
3 687 54 688
3 688 54 56
3 20 12 18
3 18 12 14
3 258 689 259
3 259 689 690
3 689 691 690
3 690 691 692
3 691 693 692
3 692 693 694
3 693 695 694
3 694 695 696
3 695 697 696
3 696 697 698
3 697 258 698
3 698 258 259
3 293 0 1
3 293 1 2
3 313 3 4
3 313 4 260
3 313 260 5
3 339 6 270
3 339 270 272
3 339 272 8
3 272 270 271
3 271 270 7
3 373 9 278
3 373 278 699
3 373 699 374
3 374 699 279
3 374 279 11
3 279 699 277
3 279 277 10
3 277 699 278
3 14 12 283
3 14 283 13
3 17 15 286
3 286 15 16
3 20 18 294
3 294 18 19
3 23 21 301
3 23 301 22
3 26 24 302
3 302 24 25
3 29 27 309
3 29 309 28
3 32 30 310
3 310 30 31
3 35 33 312
3 312 33 311
3 312 311 34
3 411 36 314
3 411 314 315
3 411 315 412
3 412 315 38
3 314 36 37
3 41 39 320
3 320 39 317
3 320 317 319
3 319 317 316
3 319 316 318
3 318 316 40
3 701 700 702
3 442 42 701
3 442 701 702
3 442 702 44
3 44 702 331
3 331 702 700
3 331 700 330
3 330 700 329
3 329 700 326
3 329 326 43
3 326 700 327
3 327 700 701
3 327 701 328
3 328 701 42
3 447 45 334
3 447 334 333
3 447 333 448
3 448 333 332
3 448 332 47
3 47 332 46
3 50 48 335
3 335 48 49
3 455 51 340
3 455 340 341
3 455 341 456
3 456 341 53
3 340 51 52
3 56 54 343
3 56 343 345
3 345 343 342
3 345 342 344
3 344 342 55
3 59 57 353
3 353 57 351
3 353 351 352
3 352 351 350
3 352 350 58
3 468 60 355
3 468 355 62
3 62 355 354
3 62 354 356
3 356 354 61
3 65 63 357
3 65 357 358
3 358 357 64
3 377 66 362
3 377 362 704
3 377 704 376
3 376 704 703
3 376 703 375
3 375 703 364
3 375 364 68
3 364 703 363
3 363 703 67
3 67 703 704
3 67 704 362
3 71 69 380
3 71 380 383
3 383 380 379
3 383 379 382
3 382 379 378
3 382 378 381
3 381 378 70
3 389 72 386
3 389 386 385
3 389 385 74
3 74 385 384
3 74 384 387
3 387 384 73
3 77 75 388
3 77 388 76
3 80 78 391
3 391 78 390
3 391 390 79
3 83 81 392
3 83 392 393
3 393 392 82
3 414 84 396
3 414 396 397
3 414 397 413
3 413 397 398
3 413 398 86
3 396 84 394
3 396 394 395
3 395 394 85
3 89 87 402
3 89 402 405
3 405 402 401
3 405 401 404
3 404 401 400
3 404 400 403
3 403 400 399
3 403 399 88
3 410 90 408
3 410 408 407
3 410 407 409
3 409 407 406
3 409 406 92
3 92 406 91
3 476 93 420
3 476 420 421
3 476 421 95
3 421 420 419
3 421 419 94
3 486 96 422
3 486 422 97
3 486 97 98
3 101 99 100
3 104 102 103
3 107 105 106
3 110 108 109
3 527 111 112
3 527 112 439
3 527 439 113
3 116 114 441
3 441 114 440
3 441 440 115
3 450 117 118
3 450 118 445
3 450 445 449
3 449 445 446
3 449 446 119
3 122 120 452
3 122 452 454
3 454 452 451
3 454 451 453
3 453 451 121
3 125 123 459
3 459 123 124
3 561 126 460
3 561 460 127
3 561 127 128
3 131 129 130
3 580 132 133
3 580 133 134
3 137 135 467
3 467 135 136
3 140 138 139
3 143 141 142
3 146 144 475
3 475 144 145
3 149 147 148
3 152 150 485
3 485 150 151
3 587 153 154
3 587 154 155
3 158 156 157
3 161 159 160
3 164 162 163
3 167 165 166
3 497 168 169
3 497 169 170
3 173 171 498
3 173 498 499
3 499 498 172
3 176 174 510
3 510 174 509
3 510 509 175
3 179 177 511
3 179 511 178
3 182 180 181
3 185 183 184
3 188 186 187
3 191 189 190
3 595 192 193
3 595 193 518
3 595 518 596
3 596 518 519
3 596 519 194
3 197 195 525
3 197 525 526
3 526 525 524
3 526 524 196
3 200 198 199
3 594 201 542
3 594 542 543
3 594 543 593
3 593 543 544
3 593 544 203
3 542 201 202
3 592 204 547
3 592 547 206
3 206 547 546
3 206 546 548
3 548 546 545
3 548 545 205
3 209 207 549
3 209 549 550
3 550 549 208
3 212 210 551
3 212 551 211
3 568 213 552
3 568 552 215
3 552 213 214
3 218 216 553
3 218 553 554
3 554 553 217
3 221 219 570
3 570 219 569
3 570 569 220
3 224 222 571
3 224 571 223
3 227 225 572
3 572 225 226
3 230 228 577
3 577 228 576
3 577 576 229
3 233 231 578
3 233 578 579
3 579 578 232
3 236 234 235
3 588 237 583
3 588 583 239
3 583 237 238
3 242 240 241
3 245 243 244
3 664 246 247
3 664 247 248
3 251 249 250
3 657 252 253
3 657 253 647
3 657 647 254
3 257 255 648
3 257 648 256
3 705 706 707
3 705 707 708
3 705 708 709
3 705 709 710
3 705 710 711
3 705 711 706
3 707 706 713
3 708 707 714
3 708 714 715
3 706 711 716
3 706 716 712
3 706 712 713
3 713 712 7
3 713 7 267
3 713 267 707
3 707 267 264
3 707 264 714
3 714 264 261
3 714 261 715
3 715 261 290
3 715 290 287
3 715 287 709
3 715 709 708
3 709 287 16
3 709 16 284
3 709 284 710
3 710 284 13
3 710 13 711
3 711 13 280
3 711 280 716
3 716 280 10
3 716 10 273
3 716 273 712
3 712 273 7
3 290 261 0
3 0 261 4
3 3 34 1
3 1 34 29
3 29 34 31
3 717 718 719
3 717 719 720
3 718 722 723
3 719 718 723
3 719 723 724
3 720 719 724
3 720 724 725
3 721 720 725
3 721 725 726
3 721 726 727
3 721 727 263
3 721 263 266
3 721 266 720
3 720 266 717
3 717 266 269
3 717 269 718
3 718 269 6
3 718 6 336
3 718 336 722
3 722 336 49
3 722 49 46
3 722 46 723
3 723 46 43
3 723 43 724
3 724 43 321
3 724 321 725
3 725 321 726
3 726 321 40
3 726 40 727
3 727 40 35
3 727 35 5
3 727 5 263
3 35 40 37
3 728 732 729
3 728 729 730
3 730 729 734
3 731 735 736
3 732 731 736
3 732 736 737
3 729 732 737
3 729 737 733
3 729 733 734
3 736 735 738
3 736 738 739
3 737 736 739
3 733 737 739
3 733 739 346
3 733 346 734
3 734 346 55
3 734 55 50
3 734 50 730
3 730 50 338
3 730 338 728
3 728 338 8
3 728 8 276
3 728 276 732
3 732 276 731
3 731 276 9
3 731 9 369
3 731 369 735
3 735 369 365
3 735 365 359
3 735 359 738
3 738 359 64
3 738 64 739
3 739 64 58
3 739 58 346
3 58 64 61
3 359 365 67
3 50 55 52
3 740 742 743
3 741 740 743
3 741 743 744
3 741 744 745
3 742 746 747
3 743 742 747
3 743 747 748
3 744 743 748
3 744 748 749
3 745 744 749
3 745 749 750
3 746 751 752
3 747 746 752
3 747 752 753
3 748 747 753
3 748 753 754
3 749 748 754
3 752 751 755
3 752 755 756
3 753 752 756
3 753 756 757
3 754 753 757
3 754 757 758
3 756 755 759
3 756 759 757
3 757 759 73
3 757 73 758
3 758 73 70
3 758 70 68
3 758 68 368
3 758 368 754
3 754 368 750
3 754 750 749
3 750 368 372
3 750 372 11
3 750 11 745
3 745 11 282
3 745 282 741
3 741 282 12
3 741 12 740
3 740 12 20
3 740 20 742
3 742 20 297
3 742 297 746
3 746 297 751
3 751 297 300
3 751 300 755
3 755 300 21
3 755 21 759
3 759 21 76
3 759 76 73
3 15 18 285
3 285 18 14
3 760 762 763
3 761 765 766
3 761 766 767
3 762 761 767
3 762 767 768
3 763 762 768
3 763 768 769
3 764 763 769
3 764 769 770
3 765 771 772
3 766 765 772
3 766 772 773
3 767 766 773
3 767 773 774
3 768 767 774
3 768 774 775
3 769 768 775
3 769 775 776
3 770 769 776
3 772 771 777
3 773 772 777
3 773 777 778
3 774 773 778
3 774 778 779
3 775 774 779
3 775 779 780
3 776 775 780
3 779 778 781
3 779 781 780
3 780 781 25
3 780 25 22
3 780 22 298
3 780 298 776
3 776 298 770
3 770 298 295
3 770 295 764
3 764 295 19
3 764 19 760
3 764 760 763
3 760 19 17
3 760 17 289
3 760 289 761
3 760 761 762
3 761 289 292
3 761 292 765
3 765 292 2
3 765 2 771
3 771 2 28
3 771 28 306
3 771 306 777
3 777 306 303
3 777 303 781
3 777 781 778
3 781 303 25
3 24 77 23
3 27 30 91
3 27 91 308
3 308 91 88
3 308 88 85
3 308 85 82
3 308 82 305
3 305 82 26
3 26 82 79
3 26 79 75
3 75 79 74
3 33 36 32
3 32 36 92
3 39 89 90
3 39 90 38
3 787 788 789
3 789 788 790
3 789 790 791
3 791 790 792
3 791 792 94
3 791 94 415
3 791 415 789
3 789 415 86
3 789 86 787
3 787 86 87
3 787 87 786
3 787 786 427
3 787 427 425
3 787 425 788
3 788 425 423
3 788 423 790
3 790 423 103
3 790 103 792
3 792 103 100
3 792 100 97
3 792 97 94
3 427 786 429
3 429 786 784
3 429 784 431
3 431 784 782
3 431 782 433
3 433 782 435
3 435 782 783
3 435 783 437
3 437 783 785
3 437 785 106
3 106 785 109
3 109 785 112
3 112 785 115
3 115 785 783
3 115 783 42
3 42 783 325
3 325 783 782
3 325 782 41
3 41 782 784
3 41 784 786
3 41 786 87
3 45 118 443
3 45 443 44
3 44 443 116
3 48 51 121
3 48 121 119
3 48 119 47
3 685 59 793
3 685 793 130
3 685 130 463
3 685 463 687
3 687 463 461
3 687 461 127
3 687 127 124
3 687 124 457
3 687 457 54
3 54 457 122
3 54 122 53
3 130 793 465
3 465 793 136
3 465 136 133
3 136 793 60
3 60 793 59
3 688 56 349
3 688 349 686
3 686 349 57
3 795 794 796
3 795 796 797
3 795 797 681
3 795 681 71
3 795 71 72
3 795 72 794
3 794 72 78
3 794 78 679
3 794 679 796
3 796 679 471
3 796 471 142
3 796 142 797
3 797 142 469
3 797 469 681
3 681 469 139
3 681 139 683
3 683 139 137
3 683 137 63
3 63 137 62
3 471 679 473
3 473 679 677
3 473 677 145
3 145 677 675
3 145 675 93
3 93 675 418
3 418 675 83
3 418 83 84
3 66 69 682
3 66 682 361
3 361 682 798
3 361 798 65
3 65 798 684
3 684 798 682
3 680 80 799
3 680 799 678
3 678 799 676
3 676 799 81
3 81 799 80
3 96 151 800
3 96 800 95
3 95 800 146
3 146 800 477
3 477 800 801
3 477 801 479
3 479 801 481
3 479 481 148
3 481 801 483
3 483 801 800
3 483 800 151
3 163 160 489
3 489 160 802
3 489 802 99
3 99 802 152
3 99 152 98
3 152 802 487
3 487 802 157
3 487 157 154
3 157 802 160
3 495 169 166
3 495 166 493
3 495 493 102
3 102 493 491
3 102 491 490
3 102 490 101
3 490 491 164
3 807 806 808
3 807 808 428
3 807 428 430
3 807 430 805
3 807 805 806
3 806 805 503
3 806 503 500
3 806 500 808
3 808 500 172
3 808 172 809
3 808 809 426
3 808 426 428
3 426 809 424
3 424 809 496
3 424 496 104
3 496 809 170
3 170 809 172
3 503 805 804
3 503 804 506
3 506 804 803
3 506 803 175
3 175 803 178
3 178 803 438
3 178 438 105
3 438 803 436
3 436 803 434
3 434 803 804
3 434 804 432
3 432 804 805
3 432 805 430
3 516 184 514
3 516 514 810
3 516 810 108
3 108 810 107
3 107 810 512
3 107 512 181
3 107 181 179
3 512 810 514
3 111 196 110
3 110 196 517
3 517 196 520
3 517 520 185
3 185 520 190
3 185 190 187
3 190 520 193
3 444 117 532
3 444 532 530
3 444 530 528
3 444 528 114
3 114 528 113
3 113 528 197
3 532 117 458
3 532 458 199
3 199 458 123
3 458 117 120
3 200 125 534
3 555 217 813
3 555 813 812
3 555 812 811
3 555 811 558
3 558 811 534
3 558 534 126
3 126 534 125
3 534 811 536
3 536 811 538
3 538 811 812
3 538 812 540
3 540 812 813
3 540 813 202
3 202 813 205
3 205 813 208
3 208 813 217
3 208 217 211
3 211 217 214
3 814 815 817
3 814 817 816
3 816 817 818
3 818 817 564
3 818 564 562
3 818 562 557
3 818 557 816
3 816 557 560
3 816 560 814
3 814 560 128
3 814 128 462
3 814 462 464
3 814 464 815
3 815 464 129
3 815 129 566
3 815 566 817
3 817 566 564
3 557 562 218
3 220 215 223
3 820 819 821
3 820 821 822
3 822 821 824
3 823 822 824
3 823 824 825
3 825 824 573
3 825 573 226
3 825 226 223
3 825 223 215
3 825 215 216
3 825 216 823
3 823 216 563
3 823 563 822
3 822 563 565
3 822 565 820
3 820 565 567
3 820 567 466
3 820 466 819
3 819 466 132
3 819 132 232
3 819 232 229
3 819 229 821
3 821 229 573
3 821 573 824
3 466 567 131
3 135 138 134
3 134 138 233
3 581 230 827
3 581 827 826
3 581 826 141
3 141 826 470
3 470 826 827
3 470 827 140
3 140 827 231
3 231 827 230
3 480 147 830
3 480 830 582
3 480 582 829
3 480 829 478
3 478 829 828
3 478 828 474
3 478 474 144
3 474 828 472
3 472 828 829
3 472 829 143
3 143 829 582
3 582 830 575
3 582 575 228
3 575 830 227
3 227 830 147
3 227 147 235
3 488 153 484
3 488 484 150
3 484 153 482
3 482 153 584
3 482 584 149
3 149 584 238
3 149 238 222
3 149 222 236
3 222 238 221
3 221 238 209
3 221 209 210
3 597 191 192
3 597 192 203
3 597 203 599
3 599 203 831
3 599 831 601
3 601 831 603
3 603 831 832
3 603 832 605
3 605 832 239
3 605 239 607
3 607 239 586
3 607 586 609
3 609 586 611
3 611 586 155
3 611 155 156
3 239 832 589
3 589 832 204
3 204 832 831
3 204 831 203
3 833 835 836
3 834 837 838
3 835 834 838
3 835 838 839
3 836 835 839
3 836 839 840
3 837 841 842
3 838 837 842
3 838 842 843
3 839 838 843
3 839 843 844
3 840 839 844
3 840 844 845
3 846 850 851
3 847 846 851
3 847 851 852
3 848 847 852
3 848 852 853
3 851 850 855
3 851 855 856
3 852 851 856
3 853 852 856
3 853 856 691
3 853 691 854
3 853 854 608
3 853 608 610
3 853 610 848
3 848 610 612
3 848 612 158
3 848 158 847
3 847 158 159
3 847 159 244
3 847 244 846
3 846 244 627
3 846 627 850
3 850 627 625
3 850 625 623
3 850 623 855
3 855 623 849
3 855 849 693
3 855 693 856
3 856 693 691
3 693 849 695
3 695 849 621
3 695 621 619
3 695 619 845
3 695 845 697
3 697 845 844
3 697 844 843
3 697 843 258
3 258 843 842
3 258 842 841
3 258 841 689
3 689 841 604
3 689 604 606
3 689 606 854
3 689 854 691
3 854 606 608
3 604 841 602
3 602 841 600
3 600 841 837
3 600 837 834
3 600 834 598
3 598 834 189
3 189 834 835
3 189 835 833
3 189 833 188
3 188 833 241
3 241 833 836
3 241 836 613
3 613 836 840
3 613 840 615
3 615 840 845
3 615 845 617
3 617 845 619
3 621 849 623
3 161 162 245
3 494 165 635
3 494 635 857
3 494 857 858
3 494 858 492
3 492 858 162
3 162 858 245
3 245 858 857
3 245 857 629
3 629 857 631
3 629 631 250
3 629 250 247
3 631 857 633
3 633 857 635
3 865 864 866
3 865 866 634
3 865 634 636
3 865 636 167
3 865 167 168
3 865 168 171
3 865 171 673
3 865 673 864
3 864 673 671
3 864 671 639
3 864 639 637
3 864 637 866
3 866 637 632
3 866 632 634
3 632 637 251
3 639 671 641
3 641 671 669
3 641 669 862
3 641 862 643
3 643 862 861
3 643 861 645
3 645 861 860
3 645 860 863
3 645 863 256
3 645 256 253
3 256 863 649
3 649 863 651
3 651 863 860
3 651 860 653
3 653 860 859
3 653 859 180
3 180 859 177
3 177 859 176
3 176 859 665
3 665 859 861
3 665 861 667
3 667 861 862
3 667 862 669
3 861 859 860
3 868 867 869
3 868 869 870
3 868 870 505
3 868 505 508
3 868 508 867
3 867 508 666
3 867 666 668
3 867 668 670
3 867 670 869
3 869 670 672
3 869 672 870
3 870 672 674
3 870 674 502
3 870 502 505
3 502 674 173
3 666 508 174
3 183 186 240
3 183 240 515
3 515 240 871
3 515 871 513
3 513 871 654
3 513 654 182
3 654 871 652
3 652 871 872
3 652 872 650
3 650 872 655
3 650 655 257
3 655 872 240
3 240 872 871
3 874 873 875
3 874 875 876
3 876 875 877
3 876 877 523
3 876 523 195
3 876 195 529
3 876 529 874
3 874 529 531
3 874 531 873
3 873 531 533
3 873 533 535
3 873 535 537
3 873 537 875
3 875 537 539
3 875 539 877
3 877 539 541
3 877 541 194
3 877 194 523
3 194 541 201
3 535 533 198
3 207 237 591
3 207 591 206
3 213 219 212
3 225 234 224
3 881 880 882
3 881 882 883
3 881 883 661
3 881 661 658
3 881 658 880
3 880 658 879
3 880 879 618
3 880 618 620
3 880 620 882
3 882 620 622
3 882 622 883
3 883 622 624
3 883 624 884
3 883 884 661
3 661 884 246
3 246 884 630
3 630 884 628
3 630 628 243
3 628 884 626
3 626 884 624
3 618 879 616
3 616 879 878
3 616 878 614
3 614 878 656
3 614 656 242
3 656 878 255
3 255 878 879
3 255 879 254
3 254 879 658
3 248 249 663
3 886 885 888
3 886 888 889
3 887 886 889
3 887 889 890
3 887 890 640
3 887 640 642
3 887 642 886
3 886 642 644
3 886 644 885
3 885 644 646
3 885 646 252
3 885 252 660
3 885 660 888
3 888 660 663
3 888 663 889
3 889 663 890
3 890 663 249
3 890 249 638
3 890 638 640
3 698 259 891
3 698 891 892
3 698 892 696
3 696 892 694
3 694 892 891
3 694 891 692
3 692 891 690
3 690 891 259
