ply
format ascii 1.0
comment Generated by PyMesh
element vertex 1138
property float x
property float y
property float z
property float nx
property float ny
property float nz
element face 2272
property list uchar int vertex_indices
end_header
-15.481 4.993 39.052 -0.868 0.312 0.385
-15.428 4.82 39.628 -0.904 0.428 0.001
-15.383 5.965 39.442 -0.934 -0.335 0.125
-15.126 2.81 38.996 -0.753 -0.577 -0.316
-15.179 2.983 38.419 -0.718 -0.693 0.069
-15.024 2.295 39.303 -0.821 -0.234 -0.52
-14.644 1.996 39.016 -0.597 -0.411 -0.689
-14.77 2.661 38.111 -0.513 -0.854 -0.085
-14.689 2.56 37.619 -0.567 -0.787 0.243
-14.485 4.43 36.268 -0.422 0.549 -0.722
-14.529 4.875 36.512 -0.392 0.253 -0.884
-14.356 5.713 36.394 -0.508 -0.306 -0.805
-14.769 5.907 36.756 -0.852 -0.145 -0.504
-15.06 5.124 36.978 -0.658 0.377 -0.652
-14.937 5.72 37.009 -0.74 -0.02 -0.672
-15.369 5.86 38.296 -0.994 0.063 0.085
-15.525 5.275 38.362 -0.891 0.453 0.041
-15.427 6.246 38.753 -0.956 -0.194 -0.22
-14.892 6.735 37.479 -0.714 0.578 -0.396
-14.913 7.188 37.873 -0.699 0.276 -0.659
-14.796 7.758 37.815 -0.777 -0.104 -0.621
-14.582 8.318 40.102 -0.651 0.225 0.725
-14.683 7.79 40.333 -0.584 0.577 0.571
-14.237 8.611 41.896 -0.882 0.03 -0.471
-14.273 8.478 41.978 -0.912 -0.081 -0.402
-14.73 7.619 40.439 -0.608 0.492 0.624
-14.59 7.377 40.944 -0.701 0.653 0.288
-15.073 6.408 40.707 -0.986 0.082 0.148
-15.25 6.576 40.185 -0.868 -0.029 0.496
-15.226 5.844 40.787 -0.884 0.459 0.095
-15.358 5.234 40.051 -0.95 0.153 -0.274
-15.382 5.966 39.448 -0.934 -0.335 0.128
-15.427 4.821 39.635 -0.904 0.428 0.004
-15.361 4.383 40.895 -0.951 -0.272 0.148
-15.43 3.971 40.478 -0.905 0.003 0.426
-15.367 3.517 41.266 -0.947 0.306 -0.099
-15.384 2.84 40.878 -0.955 -0.032 -0.294
-15.447 3.294 40.09 -0.913 -0.335 0.231
-15.322 2.746 40.32 -0.996 0.03 0.078
-12.514 1.286 40.786 0.479 -0.809 -0.339
-12.654 1.301 40.235 0.573 -0.819 0.028
-11.015 1.174 39.623 -0.52 -0.734 0.436
-11.398 1.241 38.647 -0.712 -0.701 -0.052
-13.011 1.364 39.327 0.363 -0.783 -0.506
-11.431 1.259 38.382 -0.69 -0.713 0.125
-11.646 1.592 37.95 -0.869 -0.436 -0.235
-13.268 1.762 38.812 0.212 -0.548 -0.809
-13.439 2.348 37.433 0.326 -0.939 0.11
-11.376 1.807 37.368 -0.644 -0.257 -0.72
-13.146 2.581 36.8 0.535 -0.772 -0.342
-11.35 2.535 36.13 -0.662 -0.742 0.104
-11.577 2.857 35.534 -0.796 -0.553 -0.247
-13.352 2.873 36.258 0.388 -0.564 -0.729
-11.738 3.109 35.039 -0.688 -0.721 0.083
-12.328 4.913 34.839 -0.983 0.182 -0.017
-13.851 4.398 36.089 0.032 0.525 -0.85
-13.772 5.683 36.228 -0.021 -0.332 -0.943
-12.276 5.122 34.781 -0.957 0.286 -0.046
-13.731 5.845 36.183 0.013 -0.196 -0.98
-12.224 5.719 34.803 -0.992 -0.112 -0.06
-12.233 5.953 34.776 -0.997 0.025 -0.076
-13.738 6.041 36.161 0.007 -0.034 -0.999
-12.385 6.287 35.26 -0.895 -0.198 -0.399
-12.426 7.383 35.667 -0.916 0.35 -0.196
-13.771 6.893 36.477 -0.02 0.677 -0.736
-13.661 8.058 36.859 -0.093 -0.099 -0.991
-14.578 7.942 37.475 -0.856 -0.196 -0.478
-14.687 6.777 37.093 -0.783 0.58 -0.223
-14.743 7.782 37.748 -0.746 -0.09 -0.66
-14.756 7.771 37.764 -0.753 -0.096 -0.651
-14.698 6.768 37.106 -0.792 0.572 -0.212
-14.851 6.748 37.428 -0.69 0.586 -0.426
-12.873 9.087 37.657 0.564 0.758 -0.326
-12.705 9.151 37.965 0.453 0.715 -0.532
-11.371 9.025 36.549 -0.437 0.799 0.413
-10.723 8.645 37.159 0.026 0.528 0.849
-11.992 8.733 38.638 0.872 0.47 -0.137
-10.567 7.943 38.496 -0.078 0.996 -0.042
-10.543 7.914 38.899 -0.064 0.979 0.195
-11.968 8.703 39.041 0.886 0.452 0.101
-10.996 8.712 40.487 0.238 0.446 -0.863
-11.265 9.064 40.66 0.104 0.622 -0.776
-12.218 9.03 39.202 0.739 0.644 0.196
-12.367 9.18 39.49 0.839 0.544 0.004
-14.303 8.766 40.206 -0.774 0.199 0.601
-14.531 8.535 40.059 -0.621 0.353 0.699
-14.194 8.793 41.86 -0.846 0.181 -0.501
-13.869 9.38 40.168 -0.413 0.711 0.569
-13.761 9.407 41.821 -0.485 0.693 -0.533
-13.415 9.641 41.691 -0.716 0.537 -0.446
-12.814 9.076 43.644 -0.286 0.134 0.949
-13.207 8.887 43.619 -0.024 0.26 0.965
-12.613 8.177 44.264 -0.42 0.733 0.536
-13.443 7.451 44.009 -0.835 0.37 0.408
-13.853 8.322 43.421 -0.561 -0.211 0.8
-13.881 7.086 43.761 -0.543 0.613 0.574
-14.344 6.843 42.668 -0.874 0.44 -0.207
-14.279 8.099 42.415 -0.917 -0.397 -0.038
-14.597 6.924 41.466 -0.705 0.386 0.595
-14.455 6.544 42.675 -0.953 0.226 -0.201
-14.719 6.595 41.474 -0.777 0.192 0.599
-14.716 5.997 42.685 -0.779 0.591 -0.208
-14.79 5.863 42.619 -0.817 0.524 -0.242
-14.789 6.47 41.412 -0.818 0.119 0.563
-14.92 5.911 41.545 -0.73 0.492 0.474
-15.081 4.604 42.597 -0.962 -0.105 -0.252
-15.21 4.652 41.524 -0.876 -0.137 0.463
-15.216 3.786 41.896 -0.872 0.44 0.215
-14.921 3.913 43.374 -0.882 -0.451 0.136
-15.056 3.094 42.672 -0.792 0.095 0.604
-14.925 3.946 43.639 -0.88 -0.474 -0.041
-14.391 3.5 44.058 -0.435 -0.846 0.307
-14.371 2.519 43.21 -0.449 -0.193 0.873
-14.235 3.338 43.912 -0.539 -0.739 0.405
-13.579 3.108 44.054 -0.211 -0.854 0.476
-13.715 2.289 43.352 -0.121 -0.308 0.944
-12.997 2.931 44.295 -0.6 -0.736 0.315
-12.875 2.829 44.271 -0.538 -0.786 0.303
-13.593 2.188 43.328 -0.06 -0.359 0.932
-13.55 1.969 43.266 -0.088 -0.213 0.973
-12.73 1.607 42.839 0.595 -0.514 0.618
-12.538 1.723 42.78 0.467 -0.591 0.657
-11.656 2.316 43.594 -0.121 -0.986 0.115
-11.44 2.303 43.386 0.059 -0.997 -0.059
-12.261 1.707 42.512 0.606 -0.599 0.523
-10.363 1.879 42.945 -0.66 -0.714 0.235
-10.352 1.858 42.906 -0.651 -0.732 0.203
-12.247 1.679 42.462 0.613 -0.613 0.499
-10.244 1.682 42.735 -0.722 -0.615 0.317
-10.215 1.563 42.521 -0.708 -0.675 0.21
-12.218 1.56 42.249 0.628 -0.673 0.392
-10.271 1.241 41.963 -0.67 -0.46 0.582
-10.52 0.972 40.561 -0.795 -0.595 -0.119
-12.467 1.291 40.846 0.503 -0.807 -0.309
-10.968 1.178 39.683 -0.497 -0.732 0.466
-9.938 0.554 40.166 -0.504 -0.804 -0.317
-10.386 0.76 39.288 -0.205 -0.941 0.269
-9.614 0.066 38.936 -0.72 -0.478 0.503
-9.853 0.156 37.969 -0.891 -0.413 -0.188
-10.669 0.867 38.143 -0.347 -0.887 -0.304
-10.864 0.969 37.99 -0.217 -0.955 -0.202
-9.586 0.544 37.251 -0.7 -0.137 -0.701
-10.618 1.326 37.328 -0.012 -0.658 -0.753
-10.353 1.326 37.292 -0.189 -0.658 -0.729
-10.389 1.494 37.166 -0.207 -0.574 -0.792
-10.646 1.456 37.23 -0.036 -0.549 -0.835
-10.477 2.116 35.966 -0.149 -0.989 0.008
-10.246 1.478 37.146 -0.135 -0.582 -0.802
-10.343 2.101 35.948 -0.07 -0.998 -0.003
-9.64 1.258 37.025 -0.539 -0.435 -0.721
-8.098 2.038 36.524 0.232 -0.045 -0.972
-8.91 2.827 35.482 0.773 -0.571 -0.277
-7.957 2.266 36.522 0.137 -0.197 -0.971
-7.693 2.812 36.61 0.358 0.258 -0.897
-8.594 3.48 35.587 0.959 -0.187 -0.215
-8.53 3.779 35.096 0.916 -0.386 0.112
-8.993 3.104 34.685 0.685 -0.723 -0.094
-9.024 2.853 35.205 0.706 -0.555 -0.44
-9.222 2.641 34.008 0.837 -0.414 0.358
-11.036 2.404 34.075 -0.675 -0.611 0.414
-11.193 2.571 35.285 -0.57 -0.721 -0.393
-11.326 2.801 34.772 -0.482 -0.875 -0.051
-11.046 2.41 34.067 -0.683 -0.606 0.408
-11.339 2.808 34.762 -0.488 -0.871 -0.055
-11.257 2.667 34.199 -0.543 -0.777 0.32
-11.677 4.901 33.156 -0.79 0.538 -0.294
-11.791 5.212 33.64 -0.714 0.331 -0.617
-11.773 5.803 33.742 -0.726 -0.063 -0.684
-11.634 4.936 33.109 -0.765 0.558 -0.322
-11.73 5.838 33.695 -0.701 -0.043 -0.712
-11.58 6.075 33.474 -0.8 -0.201 -0.565
-11.651 6.884 33.918 -0.859 0.473 -0.195
-11.814 6.804 34.225 -0.75 0.526 -0.4
-11.934 7.203 34.668 -0.67 0.26 -0.695
-11.254 7.285 33.835 -0.528 0.807 -0.264
-11.423 7.719 34.562 -0.415 0.518 -0.748
-11.381 8.191 34.749 -0.443 0.203 -0.873
-12.105 8.158 35.676 -0.961 0.18 -0.211
-12.281 7.68 35.659 -0.844 0.499 -0.2
-13.548 8.289 36.853 0.001 0.093 -0.996
-10.287 7.413 33.797 0.277 0.914 -0.296
-10.331 8.33 34.708 0.306 0.303 -0.902
-10.181 7.884 34.513 0.206 0.6 -0.773
-9.847 8.122 37.229 0.373 0.72 0.585
-10.049 8.532 37.002 0.508 0.447 0.737
-9.825 7.818 38.323 0.358 0.922 -0.144
-9.32 7.784 37.137 0.637 0.551 0.539
-9.335 7.504 38.237 0.647 0.738 -0.194
-9.255 7.444 37.637 0.594 0.778 0.206
-8.636 6.397 37.916 0.903 0.255 0.345
-8.759 6.531 38.496 0.985 0.165 -0.042
-8.56 6.069 38.764 0.853 0.473 -0.221
-8.756 6.416 39.427 0.755 0.646 0.111
-8.941 6.853 39.112 0.878 0.355 0.321
-7.759 6.983 41.032 0.09 0.268 -0.959
-8.26 7.453 41.323 -0.268 0.603 -0.751
-9.492 7.37 39.433 0.554 0.659 0.509
-9.866 8.127 41.06 0.803 0.154 -0.576
-8.156 7.814 41.717 -0.193 0.861 -0.47
-9.743 8.554 41.526 0.865 0.367 -0.343
-9.63 8.58 41.767 0.79 0.35 -0.504
-9.793 8.301 43.269 0.654 0.118 0.747
-9.952 8.196 43.456 0.76 0.188 0.622
-8.332 7.51 43.347 -0.32 0.645 0.695
-8.367 7.417 43.411 -0.344 0.578 0.74
-9.993 8.085 43.531 0.74 0.133 0.66
-9.297 6.896 44.132 0.276 0.925 0.26
-9.354 6.893 44.193 0.235 0.923 0.304
-10.061 8.082 43.605 0.706 0.131 0.696
-10.19 7.607 44.025 0.792 0.447 0.416
-10.864 8.072 44.344 0.455 0.68 0.575
-10.735 8.547 43.923 0.369 0.363 0.856
-10.981 7.993 44.571 0.533 0.733 0.424
-11.629 8.19 44.594 -0.007 0.896 0.443
-11.568 8.8 43.953 -0.048 0.49 0.871
-11.697 8.325 44.374 0.038 0.806 0.59
-12.055 8.355 44.298 -0.141 0.822 0.553
-11.926 8.83 43.878 -0.227 0.505 0.833
-12.342 9.226 43.673 0.051 0.241 0.969
-12.072 9.701 41.228 0.243 0.58 -0.777
-11.607 9.392 40.983 -0.067 0.786 -0.614
-12.633 9.436 39.741 0.617 0.757 0.214
-12.02 7.047 45.191 -0.333 -0.056 0.941
-12.2 6.856 45.142 -0.214 0.072 0.974
-11.796 5.849 45.909 -0.483 0.743 0.463
-11.961 5.745 45.867 -0.621 0.657 0.428
-12.412 6.723 45.088 -0.32 0.005 0.948
-12.339 5.549 45.769 -0.368 0.788 0.494
-12.687 5.416 45.6 -0.617 0.693 0.373
-12.824 6.566 44.888 -0.525 -0.073 0.848
-13.417 5.753 44.849 -0.13 0.469 0.874
-13.931 6.15 44.374 -0.387 0.668 0.636
-13.338 6.963 44.413 -0.782 0.126 0.61
-13.792 6.673 44.102 -0.479 0.319 0.818
-13.087 4.387 45.678 -0.903 -0.042 0.429
-13.89 4.534 44.941 -0.367 -0.141 0.92
-14.123 4.43 44.859 -0.212 -0.071 0.975
-12.983 3.781 45.495 -0.828 -0.475 0.298
-14.027 3.872 44.69 -0.132 -0.535 0.834
-13.767 3.817 44.724 -0.305 -0.499 0.811
-12.892 3.601 45.4 -0.763 -0.604 0.23
-13.66 3.604 44.612 -0.251 -0.606 0.755
-13.077 3.427 44.853 -0.64 -0.488 0.594
-10.666 3.742 45.435 0.826 -0.503 0.255
-10.443 3.594 44.895 0.677 -0.404 0.615
-10.421 4.082 45.559 0.662 -0.729 0.172
-10.319 4.173 45.494 0.748 -0.653 0.118
-10.312 3.711 44.811 0.743 -0.345 0.573
-8.253 3.942 44.776 -0.629 -0.499 0.596
-8.247 3.884 44.731 -0.625 -0.541 0.563
-10.304 3.643 44.757 0.747 -0.38 0.546
-9.02 3.004 44.087 -0.11 0.046 0.993
-9.593 2.171 43.781 -0.397 -0.371 0.84
-10.878 2.809 44.451 0.46 -0.796 0.393
-9.845 2.238 43.72 -0.229 -0.415 0.881
-10.026 2.089 43.565 -0.379 -0.539 0.752
-11.111 2.618 44.252 0.344 -0.892 0.294
-11.104 2.513 44.006 0.339 -0.822 0.458
-11.781 2.362 43.729 -0.225 -0.948 0.226
-11.981 2.424 43.895 -0.091 -0.989 0.115
-12.855 1.653 42.974 0.491 -0.476 0.73
-7.313 3.358 44.5 0.043 -0.916 0.399
-7.913 2.382 43.813 0.443 -0.265 0.856
-7.676 2.327 43.702 0.286 -0.229 0.931
-7.245 1.685 42.594 0.645 -0.764 0.008
-7.359 1.556 42.39 0.721 -0.678 0.144
-6.489 1.143 41.25 0.141 -0.403 0.904
-6.603 1.025 41.203 0.059 -0.488 0.871
-7.494 1.415 42.334 0.653 -0.748 0.117
-7.55 1.093 41.776 0.69 -0.534 0.489
-8.302 0.738 42.056 0.314 -0.711 0.629
-8.246 1.06 42.614 0.277 -0.926 0.257
-8.406 0.535 41.916 0.384 -0.576 0.722
-9.057 0.511 41.995 -0.159 -0.595 0.787
-9.083 1.03 42.715 -0.142 -0.941 0.307
-9.139 0.708 42.157 -0.104 -0.726 0.679
-9.239 0.146 40.682 -0.311 -0.9 -0.307
-9.372 0.239 40.469 -0.221 -0.961 -0.165
-8.792 -0.342 39.399 -0.608 -0.574 0.548
-8.893 -0.299 39.318 -0.692 -0.538 0.481
-9.502 0.294 40.365 -0.286 -0.933 -0.217
-9.246 -0.153 39.104 -0.457 -0.635 0.623
-7.177 0.289 37.932 0.737 -0.048 -0.674
-7.383 0.485 37.599 0.874 -0.179 -0.452
-7.139 1.036 37.584 0.712 -0.547 -0.442
-9.652 1.202 37.069 -0.545 -0.464 -0.699
-9.505 0.625 37.165 -0.642 -0.079 -0.762
-10.257 1.422 37.191 -0.141 -0.61 -0.78
-7.069 0.34 38.067 0.828 -0.006 -0.561
-6.999 1.102 37.757 0.781 -0.514 -0.355
-5.986 1.204 38.435 0.105 -0.582 -0.807
-5.874 2.646 38.492 0.199 0.62 -0.759
-6.856 2.955 37.83 0.853 0.413 -0.318
-6.555 3.107 38.388 0.653 0.312 -0.69
-7.29 3.963 38.552 0.285 0.741 -0.608
-7.59 3.812 37.994 0.486 0.842 -0.236
-8.324 4.84 37.402 0.975 0.156 0.158
-8.279 4.637 36.995 0.997 0.055 -0.045
-7.545 3.61 37.587 0.508 0.74 -0.44
-7.527 3.488 37.349 0.496 0.821 -0.282
-8.417 4.307 36.377 0.928 -0.11 -0.355
-7.634 3.231 36.868 0.407 0.607 -0.682
-8.455 4.317 35.428 0.954 -0.117 0.278
-8.529 5.214 36.39 0.872 0.344 -0.348
-8.567 5.224 35.442 0.897 0.337 0.284
-8.602 5.797 36.45 0.921 -0.045 -0.388
-8.605 5.811 36.442 0.919 -0.038 -0.392
-8.57 5.238 35.434 0.896 0.344 0.28
-8.669 6.152 35.942 0.962 -0.265 -0.058
-8.756 6.505 35.291 0.919 -0.089 -0.384
-8.656 5.59 34.783 0.853 0.52 -0.045
-8.859 6.155 34.804 0.988 0.144 -0.059
-9.405 6.111 33.653 0.666 0.118 -0.736
-9.244 5.543 33.545 0.559 0.497 -0.664
-9.31 5.21 33.068 0.603 0.719 -0.346
-9.066 2.952 34.118 0.746 -0.609 0.272
-8.983 3.116 34.674 0.69 -0.717 -0.099
-9.214 2.649 33.999 0.844 -0.406 0.351
-9.462 6.135 33.608 0.633 0.132 -0.763
-9.367 5.233 33.022 0.569 0.733 -0.373
-9.684 6.323 33.401 0.78 0.006 -0.625
-9.694 6.325 33.388 0.771 0.007 -0.636
-9.38 5.235 33.007 0.561 0.734 -0.382
-9.585 5.303 32.723 0.699 0.689 -0.193
-11.461 5.058 32.792 -0.864 0.485 -0.135
-11.622 4.942 33.09 -0.757 0.562 -0.333
-11.57 6.08 33.458 -0.792 -0.197 -0.578
-9.589 7.094 34.139 0.558 0.696 -0.451
-9.789 7.126 33.846 0.692 0.675 -0.255
-9.541 7.515 34.575 0.527 0.416 -0.741
-8.422 5.106 37.569 0.926 0.29 0.242
-8.494 5.69 37.629 0.974 -0.099 0.202
-8.418 5.362 38.478 0.924 0.119 -0.364
-8.401 5.005 37.598 0.937 0.239 0.256
-8.397 5.261 38.506 0.934 0.069 -0.35
-7.366 4.129 38.748 0.247 0.824 -0.511
-7.342 4.168 38.826 0.259 0.843 -0.472
-8.373 5.3 38.584 0.946 0.088 -0.31
-7.281 4.303 39.049 0.219 0.753 -0.62
-7.267 4.566 39.754 0.231 0.972 -0.034
-8.355 5.638 39.49 0.956 0.258 0.142
-7.42 6.326 41.085 0.332 -0.201 -0.921
-6.799 4.233 40.229 0.621 0.695 0.363
-6.911 5.965 41.602 0.696 -0.459 -0.552
-6.972 5.3 41.788 0.736 -0.016 -0.677
-6.543 5.725 42.93 0.975 0.22 -0.042
-6.531 6.341 42.612 0.967 -0.191 0.17
-6.266 5.324 43.423 0.79 0.488 -0.371
-6.659 5.822 44.177 0.51 0.844 0.168
-6.924 6.84 43.366 0.687 0.165 0.708
-6.986 6.288 43.782 0.728 0.533 0.431
-8.475 6.851 43.95 -0.099 0.846 0.525
-8.241 7.338 43.515 -0.255 0.521 0.815
-9.171 6.816 44.236 0.365 0.869 0.334
-8.242 5.877 44.72 0.03 0.305 0.952
-8.966 5.954 44.917 0.512 0.253 0.821
-7.771 5.458 45.007 -0.284 0.584 0.761
-8.04 4.837 45.157 -0.476 0.14 0.868
-9.235 5.333 45.067 0.32 -0.191 0.928
-10.122 4.997 45.845 0.912 0.033 0.41
-10.651 5.95 45.72 0.471 0.828 0.306
-9.809 6.368 44.931 -0.09 0.549 0.831
-10.875 7.148 45.002 0.62 0.029 0.784
-10.718 7.389 44.804 0.752 0.229 0.618
-9.638 6.629 44.716 0.032 0.735 0.677
-10.526 7.295 44.644 0.624 0.291 0.725
-6.769 4.637 42.353 0.849 -0.384 -0.363
-6.466 4.361 42.913 0.648 -0.2 -0.735
-6.509 3.384 40.935 0.676 0.451 0.583
-6.499 3.341 40.957 0.681 0.429 0.594
-6.458 4.324 42.931 0.653 -0.226 -0.722
-6.902 3.525 41.956 0.949 0.306 -0.073
-6.828 2.958 42.431 0.986 0.023 0.165
-6.396 3.845 43.332 0.698 -0.569 -0.435
-6.832 2.775 42.627 0.989 0.145 0.035
-6.815 2.73 42.265 0.992 -0.091 0.082
-6.822 2.598 42.497 0.997 -0.003 -0.073
-6.03 2.136 41.144 0.469 0.306 0.829
-6.807 3.074 42.077 0.997 0.081 -0.012
-6.023 2.426 40.986 0.474 0.513 0.716
-6.404 2.89 41.078 0.728 0.204 0.654
-6.105 3.166 40.442 0.877 0.342 0.336
-5.77 2.66 40.448 0.654 0.68 0.332
-5.524 2.692 40.089 0.49 0.658 0.572
-5.865 0.765 39.109 0.206 -0.947 -0.245
-6.14 0.567 39.384 0.39 -0.815 -0.428
-6.948 -0.099 38.741 0.928 -0.371 0
-7.712 -0.231 39.733 0.291 -0.482 0.826
-6.97 0.423 40.461 -0.203 -0.918 0.341
-8.159 0.257 41.015 0.589 -0.807 -0.029
-8.039 0.402 41.326 0.689 -0.687 0.23
-6.84 0.58 40.799 -0.11 -0.806 0.582
-7.83 0.567 41.298 0.55 -0.797 0.249
-6.872 5.104 41.929 0.792 -0.125 -0.598
-6.617 3.873 40.491 0.621 0.695 0.361
-6.718 4.073 40.344 0.689 0.562 0.459
-15.658 4.295 38.858 -0.957 -0.037 0.288
-15.604 4.122 39.435 -0.992 0.079 -0.096
-15.552 3.591 38.636 -0.904 -0.389 0.178
-15.499 3.418 39.213 -0.939 -0.273 -0.207
-15.01 2.695 38.888 -0.831 -0.501 -0.244
-14.641 2.404 38.61 -0.599 -0.683 -0.418
-15.302 3.21 37.804 -0.779 -0.58 -0.239
-15.139 3.024 37.359 -0.888 -0.456 0.057
-15.446 3.883 37.35 -0.851 -0.243 -0.465
-15.26 3.592 36.977 -0.975 -0.05 -0.216
-15.162 4.494 36.876 -0.709 0.062 -0.702
-15.02 4.109 36.576 -0.804 0.319 -0.502
-15.438 5.202 37.621 -0.847 0.416 -0.33
-15.289 5.792 37.607 -0.947 0.023 -0.321
-15.296 6.766 38.292 -0.891 0.065 -0.45
-15.248 6.343 37.868 -0.923 0.347 -0.167
-15.24 7.346 38.471 -0.862 0.355 -0.361
-15.1 7.905 38.37 -0.956 -0.018 -0.294
-15.31 7.515 39.145 -0.898 0.44 -0.024
-15.165 8.062 38.997 -0.994 0.075 0.075
-15.115 7.671 39.797 -0.8 0.518 0.303
-14.984 8.207 39.604 -0.888 0.16 0.432
-14.288 7.95 40.82 -0.847 0.47 0.246
-14.129 8.242 41.375 -0.953 0.276 -0.124
-14.322 7.825 40.898 -0.879 0.354 0.318
-14.16 8.13 41.444 -0.988 0.151 -0.046
-15.08 7.137 40.332 -0.782 0.251 0.57
-14.915 6.93 40.844 -0.892 0.389 0.229
-15.288 5.387 39.533 -0.996 0.051 0.072
-15.289 5.386 39.527 -0.996 0.05 0.068
-15.521 4.404 40.064 -0.951 0.22 0.219
-15.452 4.816 40.48 -0.997 -0.055 -0.059
-15.391 3.041 39.517 -0.885 -0.461 -0.055
-15.27 2.511 39.787 -0.966 -0.108 -0.235
-15.22 2.139 40.408 -0.936 -0.327 0.13
-15.273 2.187 40.972 -0.9 -0.359 -0.246
-14.905 1.605 40.458 -0.751 -0.641 0.159
-14.935 1.613 41.026 -0.731 -0.646 -0.22
-14.42 1.215 40.463 -0.466 -0.87 0.162
-14.413 1.194 41.032 -0.47 -0.856 -0.217
-13.83 1.023 40.423 -0.119 -0.983 0.139
-13.779 0.987 40.989 -0.153 -0.959 -0.238
-13.214 1.053 40.344 0.244 -0.966 0.092
-13.116 1.019 40.903 0.178 -0.943 -0.281
-12.133 1.5 39.965 0.225 -0.952 0.208
-11.553 1.455 39.749 -0.161 -0.922 0.352
-12.435 1.553 39.194 -0.02 -0.909 -0.416
-11.866 1.51 38.953 -0.4 -0.88 -0.256
-12.444 1.596 39.091 -0.015 -0.937 -0.348
-11.881 1.559 38.754 -0.39 -0.913 -0.123
-12.629 1.882 38.72 -0.214 -0.629 -0.748
-12.051 1.822 38.413 -0.599 -0.588 -0.543
-13.416 2.229 38.205 0.311 -0.86 -0.404
-13.994 1.699 38.858 -0.216 -0.585 -0.782
-14.004 2.179 38.242 -0.209 -0.905 -0.371
-14.099 2.291 37.475 -0.146 -0.979 0.14
-14.529 2.419 38.37 -0.673 -0.693 -0.258
-12.741 2.424 37.627 -0.139 -0.99 -0.019
-12.092 2.151 37.814 -0.571 -0.808 -0.144
-12.556 2.572 37.227 0.142 -0.766 -0.627
-11.916 2.292 37.432 -0.285 -0.58 -0.763
-12.544 2.868 36.633 0.134 -0.964 -0.23
-11.9 2.852 36.393 -0.295 -0.953 -0.07
-12.701 3.09 36.22 -0.046 -0.709 -0.704
-12.065 3.084 35.96 -0.47 -0.705 -0.531
-12.766 3.256 36.024 -0.003 -0.819 -0.574
-12.181 3.341 35.583 -0.393 -0.876 -0.279
-13.773 3.548 35.889 0.087 -0.082 -0.993
-13.08 3.759 35.75 -0.375 -0.223 -0.9
-12.522 3.889 35.283 -0.747 -0.309 -0.589
-12.236 3.907 34.603 -0.937 -0.321 -0.135
-13.137 4.392 35.898 -0.444 0.529 -0.723
-12.585 4.579 35.445 -0.812 0.404 -0.421
-13.812 5.025 36.305 0.006 0.107 -0.994
-14.345 5.052 36.456 -0.515 0.134 -0.847
-13.202 5.543 36.14 -0.401 -0.238 -0.885
-12.725 5.347 35.844 -0.719 -0.107 -0.687
-12.418 5.125 35.386 -0.923 0.04 -0.382
-13.173 5.658 36.108 -0.36 -0.072 -0.93
-12.698 5.455 35.814 -0.676 0.064 -0.734
-12.383 5.266 35.348 -0.886 0.19 -0.423
-13.012 5.881 35.998 -0.466 -0.22 -0.857
-12.465 5.835 35.497 -0.831 -0.189 -0.523
-13.017 6.015 35.982 -0.474 -0.016 -0.881
-12.47 5.983 35.479 -0.838 0.005 -0.545
-12.931 6.198 35.916 -0.531 -0.138 -0.836
-12.961 6.987 36.208 -0.559 0.614 -0.557
-13.708 7.434 36.793 -0.062 0.317 -0.947
-14.514 7.332 37.335 -0.899 0.211 -0.384
-14.61 7.246 37.481 -0.835 0.268 -0.482
-14.621 7.237 37.494 -0.843 0.26 -0.471
-14.774 8.585 37.988 -0.764 0.383 -0.519
-14.604 8.614 37.675 -0.878 0.364 -0.311
-14.275 9.243 38.136 -0.471 0.769 -0.432
-14.186 9.164 37.799 -0.53 0.822 -0.208
-13.466 9.464 38.127 0.005 0.899 -0.437
-13.51 9.349 37.792 0.034 0.976 -0.214
-12.281 8.793 37.537 0.17 0.954 -0.246
-11.802 8.748 37.027 -0.15 0.984 0.093
-11.774 8.496 38.015 0.727 0.628 0.278
-11.318 8.464 37.483 0.423 0.649 0.633
-11.394 8.126 38.592 0.474 0.874 -0.107
-11.375 8.102 38.927 0.49 0.853 0.177
-11.824 8.57 39.624 0.79 0.541 -0.288
-11.481 8.573 40.135 0.561 0.539 -0.628
-12.038 8.849 39.762 0.619 0.765 -0.177
-11.701 8.861 40.276 0.394 0.757 -0.521
-12.897 9.533 38.83 0.34 0.94 -0.024
-12.936 9.601 39.178 0.365 0.895 -0.256
-13.814 9.6 38.916 -0.2 0.979 0.027
-13.703 9.657 39.25 -0.274 0.942 -0.196
-14.478 9.195 39.415 -0.59 0.741 0.321
-14.258 9.318 39.668 -0.736 0.659 0.152
-14.16 8.522 40.603 -0.869 0.362 0.337
-14.04 8.614 41.244 -0.949 0.301 -0.091
-14.196 8.367 40.634 -0.909 0.193 0.37
-14.073 8.471 41.273 -0.991 0.123 -0.056
-14.006 8.722 41.018 -0.972 0.228 0.06
-13.681 9.183 40.989 -0.539 0.842 0.022
-13.723 9.642 42.531 -0.454 0.889 0.058
-13.374 9.897 42.462 -0.686 0.72 0.104
-13.511 9.443 43.221 -0.277 0.723 0.633
-13.143 9.68 43.211 -0.522 0.565 0.639
-12.884 8.473 43.853 -0.239 0.535 0.81
-13.565 7.877 43.644 -0.753 0.086 0.652
-13.779 7.672 43.482 -0.611 0.222 0.76
-14.203 8.219 42.975 -0.854 -0.297 0.428
-14.1 7.577 43.073 -0.923 0.131 0.362
-14.262 6.974 43.275 -0.815 0.533 0.227
-14.169 7.468 42.561 -0.99 0.024 -0.136
-14.236 7.513 41.871 -0.946 -0.006 0.324
-14.231 7.856 41.475 -0.94 0.333 -0.067
-14.356 6.824 42.039 -0.866 0.453 0.213
-14.462 6.539 42.046 -0.949 0.23 0.218
-14.577 6.225 42.044 -0.872 0.439 0.219
-14.642 6.109 41.986 -0.915 0.36 0.18
-15.177 5.307 41.549 -0.859 0.19 0.476
-15.047 5.259 42.623 -0.945 0.222 -0.24
-14.854 3.551 43.11 -0.927 -0.21 0.312
-14.309 3.094 43.538 -0.49 -0.576 0.654
-13.292 2.703 43.711 -0.403 -0.584 0.704
-13.18 2.611 43.689 -0.335 -0.641 0.691
-14.294 1.459 42.577 -0.411 -0.723 0.556
-14.096 1.402 42.681 -0.543 -0.685 0.486
-13.253 1.001 42.036 0.11 -0.952 0.285
-13.286 1.046 42.261 0.132 -0.982 0.135
-12.128 2.158 43.119 0.194 -0.881 0.431
-11.909 2.146 42.908 0.371 -0.891 0.259
-11.642 2.039 42.49 0.193 -0.821 0.538
-10.959 2.101 42.646 -0.262 -0.862 0.434
-11.632 2.02 42.456 0.203 -0.84 0.502
-10.951 2.084 42.616 -0.251 -0.883 0.396
-11.583 1.968 42.358 0.17 -0.805 0.568
-10.858 1.969 42.457 -0.313 -0.806 0.502
-11.56 1.876 42.195 0.189 -0.884 0.428
-10.835 1.877 42.293 -0.294 -0.885 0.362
-11.586 1.712 41.939 0.207 -0.774 0.598
-10.883 1.597 41.836 -0.262 -0.697 0.667
-12.367 1.243 41.587 0.553 -0.831 0.061
-11.702 1.467 41.425 0.11 -0.98 0.168
-10.999 1.351 41.322 -0.359 -0.903 0.237
-10.42 0.925 41.301 -0.745 -0.618 0.251
-11.78 1.503 40.851 0.044 -0.949 -0.313
-11.077 1.388 40.748 -0.424 -0.872 -0.244
-11.987 1.553 40.442 0.183 -0.982 -0.04
-11.451 1.513 40.026 -0.175 -0.955 0.238
-12.025 1.55 40.394 0.153 -0.985 -0.078
-11.489 1.51 39.977 -0.205 -0.958 0.2
-10.268 0.675 38.011 -0.615 -0.759 -0.216
-10.043 1 37.408 -0.395 -0.441 -0.806
-10.542 1.946 36.684 -0.105 -0.876 -0.471
-11.227 2.275 36.813 -0.744 -0.569 -0.351
-10.401 1.946 36.637 -0.199 -0.876 -0.44
-10.276 1.933 36.62 -0.115 -0.885 -0.451
-9.916 1.857 36.576 -0.355 -0.834 -0.422
-9.838 2.168 35.658 0.227 -0.958 -0.174
-9.462 1.917 36.315 -0.023 -0.791 -0.612
-9.096 1.33 36.713 -0.267 -0.4 -0.877
-9.335 2.422 35.495 0.523 -0.809 -0.27
-9.01 2.145 36.168 0.306 -0.624 -0.719
-8.556 1.604 36.537 0.003 -0.263 -0.965
-8.628 2.509 36.157 0.585 -0.359 -0.727
-8.542 2.638 36.151 0.528 -0.445 -0.723
-8.301 3.137 36.232 0.763 0.042 -0.645
-9.235 2.817 34.612 0.846 -0.531 -0.045
-9.637 2.318 35.354 0.345 -0.87 -0.352
-9.74 2.376 34.735 0.414 -0.908 0.06
-9.734 2.193 34.132 0.41 -0.786 0.462
-10.456 2.212 35.384 -0.136 -0.932 -0.335
-10.416 2.288 34.76 -0.163 -0.983 0.081
-10.419 2.104 34.158 -0.161 -0.861 0.483
-11.024 2.584 34.678 -0.683 -0.73 0.012
-11.871 3.283 34.53 -0.755 -0.633 -0.171
-11.752 3.108 33.984 -0.834 -0.517 0.193
-12.147 3.915 34.232 -0.892 -0.318 -0.321
-12.008 3.695 33.706 -0.985 -0.172 0.03
-12.118 4.596 33.917 -0.878 0.023 -0.478
-11.982 4.329 33.414 -0.969 0.201 -0.142
-12.133 5.155 34.167 -0.885 0.302 -0.353
-12.091 5.75 34.232 -0.913 -0.094 -0.396
-12.107 6.405 34.478 -0.923 0.291 -0.251
-12.25 6.774 34.94 -0.828 0.046 -0.559
-11.979 7.675 35.01 -0.692 0.496 -0.524
-11.85 8.154 35.128 -0.778 0.177 -0.602
-12.539 7.771 36.256 -0.671 0.438 -0.598
-12.99 7.988 36.681 -0.371 0.294 -0.881
-12.644 7.556 36.262 -0.771 0.235 -0.592
-13.084 7.796 36.686 -0.477 0.075 -0.875
-12.907 8.196 36.697 -0.426 0.155 -0.891
-12.392 8.15 36.277 -0.769 0.186 -0.611
-13.291 8.892 37.12 0.216 0.596 -0.774
-12.719 8.638 36.892 -0.166 0.766 -0.622
-12.197 8.61 36.48 -0.514 0.784 -0.347
-11.826 8.814 35.965 -0.761 0.648 -0.004
-12.413 8.78 37.284 0.258 0.963 -0.078
-11.878 8.758 36.889 -0.099 0.978 0.186
-11.238 7.656 34.384 -0.538 0.56 -0.63
-10.357 7.773 34.35 0.323 0.674 -0.664
-9.78 8.434 35.123 0.7 0.377 -0.606
-9.528 8.007 35.004 0.533 0.662 -0.527
-9.517 8.516 35.765 0.888 0.436 -0.147
-9.217 8.104 35.764 0.688 0.71 -0.147
-9.616 8.551 36.455 0.817 0.461 0.346
-9.334 8.146 36.581 0.63 0.731 0.262
-10.04 8.011 37.592 0.502 0.794 0.344
-10.639 8.112 37.731 -0.03 0.883 0.468
-9.88 7.871 37.749 0.395 0.887 0.239
-9.405 7.567 37.666 0.693 0.696 0.187
-8.958 7.066 38.353 0.868 0.48 -0.126
-8.851 6.973 37.762 0.796 0.542 0.268
-8.953 6.703 39.729 0.886 0.454 -0.09
-8.727 6.676 40.321 0.736 0.473 -0.485
-8.304 6.775 40.783 0.453 0.407 -0.793
-9.297 7.026 39.929 0.424 0.888 0.179
-8.988 6.92 40.472 0.217 0.959 -0.184
-8.62 7.071 40.967 -0.028 0.858 -0.513
-9.85 7.472 39.969 0.792 0.591 0.152
-9.983 7.741 40.548 0.881 0.411 -0.234
-9.933 7.773 39.134 0.294 0.896 0.333
-10.215 7.805 39.721 0.482 0.874 -0.058
-10.36 8.085 40.292 0.579 0.687 -0.439
-10.34 8.561 40.739 0.566 0.37 -0.737
-10.719 7.922 39.527 0.054 0.973 -0.223
-10.88 8.206 40.092 0.161 0.784 -0.6
-9.431 7.791 41.353 0.513 0.378 -0.771
-8.863 7.552 41.446 0.134 0.537 -0.833
-9.335 8.123 41.715 0.593 0.655 -0.469
-8.774 7.861 41.782 0.218 0.83 -0.514
-9.692 8.565 41.649 0.83 0.36 -0.425
-10.131 9.3 42.109 0.671 0.74 -0.051
-10.035 9.225 42.166 0.607 0.79 -0.089
-9.932 9.16 42.221 0.538 0.833 -0.126
-10.239 9.114 43.109 0.616 0.647 0.449
-10.131 9.061 43.051 0.544 0.683 0.487
-10.016 9.015 42.999 0.468 0.713 0.522
-9.877 8.247 43.358 0.71 0.153 0.687
-9.497 7.844 43.215 0.457 0.422 0.783
-8.925 7.602 43.177 0.075 0.584 0.808
-9.529 7.758 43.274 0.431 0.351 0.832
-8.954 7.522 43.231 0.047 0.508 0.86
-9.763 7.367 43.724 0.587 0.611 0.531
-9.817 7.364 43.782 0.543 0.609 0.578
-11.435 9.293 43.565 0.019 0.736 0.676
-11.927 9.617 43.409 0.347 0.52 0.78
-11.115 9.63 42.984 0.178 0.905 0.386
-11.657 9.902 42.918 0.54 0.724 0.43
-11.035 9.771 42.258 0.218 0.976 0.023
-11.59 10.021 42.305 0.588 0.809 -0.008
-11.211 9.686 41.541 0.13 0.933 -0.336
-11.739 9.949 41.699 0.482 0.757 -0.441
-12.197 9.199 40.418 0.326 0.915 -0.238
-11.947 8.96 40.182 0.559 0.692 -0.458
-12.473 9.383 40.563 0.51 0.793 -0.334
-13.27 9.636 39.932 0.087 0.924 0.372
-12.994 9.547 40.719 -0.097 0.984 -0.153
-12.763 9.919 41.435 -0.25 0.735 -0.63
-13.485 9.337 40.913 -0.669 0.74 0.073
-12.193 8.73 43.898 -0.049 0.572 0.819
-12.673 8.577 43.869 -0.38 0.466 0.799
-12.432 7.759 44.764 -0.329 0.524 0.786
-12.2 7.75 44.898 -0.484 0.53 0.697
-11.938 6.282 45.401 -0.388 0.455 0.802
-12.105 6.177 45.358 -0.524 0.369 0.767
-12.313 6.063 45.297 -0.386 0.445 0.808
-12.651 5.934 45.133 -0.641 0.348 0.685
-14.352 6.625 43.493 -0.879 0.284 0.383
-14.593 6.093 43.653 -0.718 0.639 0.276
-13.756 5.189 44.973 -0.3 0.187 0.936
-12.973 4.94 45.705 -0.822 0.353 0.448
-14.534 5.199 44.501 -0.688 0.192 0.699
-14.623 4.947 44.516 -0.629 0.36 0.689
-15.068 4.877 43.688 -0.956 0.031 0.293
-15.039 4.697 43.884 -0.975 0.151 0.162
-13.509 4.418 45.148 -0.621 -0.063 0.782
-13.423 3.913 44.996 -0.535 -0.563 0.63
-12.471 2.962 44.879 -0.336 -0.72 0.607
-12.379 3.208 45.421 -0.397 -0.884 0.245
-11.717 2.828 44.896 0.04 -0.787 0.616
-11.743 3.095 45.436 0.057 -0.965 0.256
-10.987 3.056 44.902 0.406 -0.673 0.618
-11.126 3.287 45.441 0.498 -0.828 0.259
-9.686 3.999 44.504 0.326 -0.537 0.778
-8.937 4.083 44.491 -0.173 -0.593 0.786
-9.681 3.953 44.467 0.331 -0.586 0.739
-8.933 4.041 44.458 -0.168 -0.645 0.745
-9.747 3.368 44.217 0.375 -0.196 0.906
-10.244 2.645 43.952 0.037 -0.687 0.726
-10.384 2.64 43.963 0.13 -0.683 0.718
-10.565 2.491 43.808 -0.02 -0.807 0.59
-12.463 2.204 43.339 0.23 -0.843 0.486
-13.141 2.512 43.624 -0.361 -0.575 0.734
-12.348 2.17 43.242 0.154 -0.82 0.551
-12.247 2.133 43.133 0.273 -0.864 0.422
-10.562 2.401 43.697 -0.022 -0.747 0.664
-10.857 2.217 43.152 -0.33 -0.939 0.096
-8.569 3.487 44.272 -0.41 -0.276 0.869
-8.491 2.604 44.053 0.154 -0.154 0.976
-8.133 3.157 44.244 -0.084 -0.523 0.848
-7.801 3.546 44.702 -0.306 -0.782 0.543
-7.656 2.974 44.047 0.272 -0.66 0.701
-7.894 1.546 43.247 0.453 -0.683 0.573
-7.661 1.677 43.261 0.298 -0.771 0.563
-7.022 1.473 41.7 0.496 -0.623 0.604
-7.13 1.362 41.656 0.41 -0.713 0.569
-9.695 1.216 42.669 -0.448 -0.848 0.284
-9.751 0.894 42.111 -0.411 -0.633 0.656
-9.794 0.458 41.392 -0.432 -0.852 0.296
-9.567 0.317 41.4 -0.584 -0.758 0.291
-9.008 0.086 39.899 -0.464 -0.859 0.214
-9.11 0.13 39.818 -0.548 -0.823 0.148
-9.306 0.214 39.697 -0.417 -0.88 0.228
-9.664 0.427 39.534 -0.687 -0.719 0.105
-9.057 -0.535 38.611 -0.322 -0.907 0.271
-8.719 -0.65 38.864 -0.547 -0.831 0.102
-8.668 -0.658 38.102 -0.044 -0.995 -0.093
-8.361 -0.763 38.395 -0.249 -0.925 -0.288
-8.178 -0.49 37.706 0.306 -0.875 -0.376
-7.909 -0.608 38.031 0.127 -0.796 -0.592
-7.71 -0.074 37.523 0.64 -0.578 -0.506
-7.479 -0.225 37.862 0.486 -0.477 -0.732
-7.769 0.577 37.121 0.598 -0.113 -0.794
-7.597 1.146 37.017 0.483 -0.492 -0.725
-8.332 0.639 36.862 0.196 -0.069 -0.978
-8.263 1.218 36.712 0.15 -0.455 -0.878
-8.954 0.656 36.878 -0.248 -0.057 -0.967
-8.999 1.239 36.73 -0.218 -0.445 -0.868
-6.556 1.231 38.179 0.486 -0.6 -0.636
-6.853 1.702 37.52 0.854 -0.214 -0.474
-6.438 1.715 37.988 0.578 -0.223 -0.785
-5.872 1.67 38.25 0.2 -0.193 -0.961
-6.802 2.361 37.546 0.88 0.116 -0.461
-6.397 2.247 38.008 0.61 0.192 -0.769
-5.832 2.183 38.27 0.233 0.234 -0.944
-6.44 2.727 38.238 0.576 0.566 -0.59
-7.171 3.436 37.87 0.695 0.654 -0.298
-6.87 3.588 38.428 0.495 0.553 -0.67
-8.099 4.229 37.706 0.825 0.564 -0.044
-8.058 4.046 37.338 0.85 0.449 -0.274
-6.914 2.806 37.559 0.824 0.339 -0.454
-7.035 2.863 37.328 0.905 0.301 -0.3
-7.2 1.993 37.009 0.681 -0.068 -0.729
-7.258 2.231 36.9 0.72 -0.226 -0.656
-8.054 3.974 37.205 0.847 0.497 -0.186
-8.161 3.719 36.727 0.758 0.282 -0.589
-8.196 3.47 36.497 0.781 0.448 -0.435
-8.492 3.862 35.978 0.978 0.187 -0.089
-8.241 3.149 36.299 0.723 0.034 -0.69
-8.543 3.498 35.753 0.924 -0.198 -0.326
-8.7 5.492 35.953 0.986 0.158 -0.056
-8.702 5.505 35.945 0.984 0.166 -0.06
-8.831 5.584 34.107 0.765 0.517 -0.383
-9.021 6.149 34.175 0.892 0.14 -0.429
-8.751 5.035 33.792 0.806 0.242 -0.541
-8.851 4.737 33.297 0.872 0.441 -0.211
-8.526 4.387 34.097 0.918 -0.082 -0.388
-8.642 4.134 33.581 0.995 0.087 -0.044
-8.608 3.709 34.408 0.877 -0.421 -0.232
-8.718 3.504 33.87 0.95 -0.284 0.126
-9.136 2.724 33.292 0.908 -0.344 -0.239
-8.974 3.042 33.272 0.8 -0.556 -0.226
-9.527 2.729 32.692 0.583 -0.34 -0.738
-9.441 3.048 32.556 0.525 -0.552 -0.647
-10.205 2.663 32.476 0.017 -0.395 -0.919
-10.252 2.969 32.297 0.048 -0.599 -0.799
-10.861 2.555 32.742 -0.529 -0.485 -0.697
-11.035 2.84 32.615 -0.412 -0.675 -0.612
-11.191 2.456 33.368 -0.805 -0.568 -0.175
-11.431 2.721 33.364 -0.645 -0.745 -0.172
-9.617 5.728 33.28 0.736 0.403 -0.544
-9.628 5.73 33.267 0.727 0.404 -0.555
-9.489 5.261 32.868 0.635 0.717 -0.289
-9.209 4.573 32.524 0.661 0.344 -0.666
-9.334 4.658 32.427 0.745 0.288 -0.602
-9.443 4.749 32.319 0.817 0.227 -0.53
-9.587 3.938 32.13 0.439 -0.029 -0.898
-9.679 4.079 32.068 0.5 -0.123 -0.857
-9.759 4.217 31.989 0.554 -0.216 -0.804
-10.346 3.61 31.998 -0.007 -0.222 -0.975
-10.37 3.78 31.949 0.009 -0.335 -0.942
-10.394 3.943 31.879 0.025 -0.444 -0.896
-11.152 3.733 32.188 -0.481 -0.149 -0.864
-11.105 3.892 32.121 -0.513 -0.256 -0.819
-11.069 4.046 32.038 -0.537 -0.358 -0.764
-11.651 4.254 32.614 -0.775 0.157 -0.613
-11.559 4.367 32.51 -0.836 0.081 -0.543
-11.486 4.482 32.394 -0.885 0.005 -0.466
-11.533 4.994 32.944 -0.817 0.527 -0.235
-11.491 5.486 33.336 -0.845 0.199 -0.497
-11.501 5.481 33.352 -0.853 0.195 -0.483
-11.397 5.548 33.176 -0.907 0.158 -0.39
-11.05 6.41 33.036 -0.359 0.078 -0.93
-10.939 5.839 32.804 -0.433 0.459 -0.776
-10.942 5.388 32.37 -0.431 0.76 -0.486
-10.311 6.507 33.008 0.258 0.159 -0.953
-10.288 5.924 32.78 0.243 0.547 -0.801
-10.202 5.484 32.343 0.185 0.84 -0.509
-9.745 5.764 33.115 0.805 0.381 -0.454
-9.019 7.081 34.891 0.788 0.199 -0.583
-9.103 6.691 34.433 0.844 0.459 -0.278
-8.618 6.769 36.355 0.988 0.043 0.148
-8.553 6.428 36.856 0.945 0.27 -0.185
-8.846 7.341 36.773 0.874 0.329 0.358
-8.781 7 37.274 0.831 0.556 0.024
-8.457 5.756 37.033 0.993 -0.066 -0.097
-8.384 5.172 36.973 0.945 0.323 -0.057
-8.031 4.583 38.735 0.69 0.521 -0.502
-8.009 4.616 38.804 0.704 0.544 -0.457
-7.974 4.695 38.934 0.68 0.491 -0.544
-7.96 4.947 39.608 0.693 0.718 0.063
-8.335 5.846 40.169 0.943 0.119 -0.311
-7.999 6.094 40.744 0.718 -0.046 -0.694
-8.621 6.398 40.125 0.665 0.658 -0.354
-8.261 6.603 40.703 0.425 0.521 -0.74
-7.535 5.722 41.037 0.409 0.202 -0.89
-7.546 5.168 40.764 0.417 0.571 -0.707
-7.452 4.76 40.31 0.354 0.843 -0.405
-7.236 5.509 41.341 0.912 -0.156 -0.379
-7.33 5.014 40.984 0.975 0.175 -0.141
-7.175 4.563 40.591 0.872 0.475 0.121
-6.611 6.106 42.083 0.91 -0.359 -0.208
-6.633 5.459 42.332 0.924 0.072 -0.374
-6.551 5.807 43.035 0.98 0.166 -0.112
-6.895 6.244 43.696 0.667 0.563 0.488
-7.536 7.159 43.614 0.249 0.394 0.885
-7.678 6.649 44.062 0.344 0.733 0.586
-8.715 6.965 43.784 0.061 0.769 0.636
-8.826 7.036 43.691 -0.038 0.832 0.553
-9.014 6.457 44.65 0.478 0.612 0.63
-8.297 6.445 44.418 0 0.62 0.785
-8.387 5.638 44.833 0.127 0.464 0.877
-8.625 5.089 44.965 -0.087 -0.028 0.996
-9.767 5.176 45.36 0.675 -0.086 0.733
-9.435 5.914 45.11 0.177 0.224 0.958
-9.937 5.672 45.396 0.513 0.385 0.767
-10.306 5.532 45.884 0.758 0.479 0.442
-10.258 6.06 45.244 0.208 0.754 0.623
-10.388 6.709 44.829 0.295 0.322 0.9
-10.245 6.926 44.649 0.437 0.537 0.722
-10.12 6.903 44.599 0.353 0.553 0.755
-9.831 7.171 44.068 0.553 0.738 0.388
-10.873 6.463 45.252 0.619 0.486 0.618
-11.432 7.189 45.245 0.157 0.063 0.986
-11.336 6.497 45.453 0.093 0.524 0.847
-11.207 5.991 45.962 0.007 0.862 0.507
-11.826 6.379 45.409 -0.463 0.39 0.796
-9.762 4.916 45.356 0.672 0.088 0.736
-9.234 4.856 45.051 0.32 0.127 0.939
-8.626 4.828 44.981 -0.085 0.146 0.986
-9.88 4.421 45.145 0.456 -0.818 0.35
-9.328 4.463 44.884 0.087 -0.847 0.524
-8.754 4.295 44.754 -0.295 -0.734 0.611
-7.193 5.808 44.694 0.128 0.834 0.537
-7.59 6.272 44.366 0.393 0.524 0.756
-6.279 4.862 43.096 0.781 0.158 -0.604
-6.557 5.204 42.561 0.966 -0.07 -0.247
-6.825 4.073 42.504 0.886 -0.008 -0.463
-6.959 3.783 41.978 0.976 0.185 -0.112
-6.848 3.54 41.424 0.902 0.347 0.257
-6.819 4.047 42.516 0.894 -0.042 -0.446
-6.954 3.76 41.989 0.984 0.15 -0.095
-6.841 3.51 41.439 0.909 0.316 0.272
-6.821 3.917 42.513 0.895 0.045 -0.444
-6.76 3.449 42.906 0.94 -0.305 -0.151
-6.767 3.349 43.016 0.945 -0.238 -0.224
-6.633 3.456 44.029 0.529 -0.846 0.062
-6.962 3.027 43.592 0.749 -0.56 0.354
-7.05 2.417 43.269 0.807 -0.154 0.57
-7.524 2.946 43.981 0.184 -0.641 0.745
-6.638 2.323 41.712 0.874 0.18 0.451
-6.981 1.583 41.79 0.469 -0.696 0.544
-6.59 2.408 41.6 0.842 0.124 0.525
-6.583 2.682 41.451 0.847 0.342 0.406
-5.442 2.004 40.554 0.889 0.212 0.407
-5.222 2.089 40.186 0.742 0.155 0.652
-5.402 1.292 40.356 0.917 -0.297 0.265
-5.185 1.433 40.003 0.773 -0.391 0.5
-5.663 0.755 39.918 0.731 -0.681 -0.047
-5.425 0.938 39.601 0.572 -0.803 0.165
-6.639 0.32 39.094 0.723 -0.65 -0.235
-6.446 0.329 39.984 0.171 -0.985 0
-6.901 0.116 39.606 0.474 -0.844 0.253
-7.23 -0.318 39.294 0.693 -0.554 0.461
-7.348 0.197 40.013 0.048 -0.767 0.64
-7.598 0.487 40.712 0.215 -0.961 0.174
-7.489 0.618 40.993 0.323 -0.831 0.452
-7.36 0.665 41.001 0.237 -0.862 0.447
-7.119 1.118 41.412 0.403 -0.55 0.732
-8.029 0.149 40.29 0.502 -0.735 0.455
-8.701 0.046 40.907 0.138 -0.983 -0.119
-8.475 -0.025 40.201 -0.013 -0.936 0.352
-8.254 -0.442 39.624 -0.16 -0.658 0.736
-8.918 0.058 40.015 -0.524 -0.841 0.138
-6.524 0.47 38.951 0.646 -0.751 -0.139
-6.624 0.833 38.393 0.531 -0.334 -0.779
-5.55 2.951 39.554 0.468 0.874 0.126
-6.138 3.5 39.754 0.861 0.509 -0.007
-5.677 2.935 38.973 0.362 0.86 -0.358
-6.302 3.478 39.007 0.779 0.498 -0.381
-6.893 3.773 41.347 0.932 0.192 0.309
-6.986 4.222 41.855 0.994 -0.107 -0.03
-6.977 4.155 40.999 0.862 0.507 0.022
-7.069 4.596 41.514 0.923 0.213 -0.322
-6.443 3.843 39.393 0.708 0.68 -0.188
-6.582 4.05 39.491 0.801 0.542 -0.253
-7.053 4.32 40.88 0.912 0.397 0.101
-7.108 4.688 41.447 0.949 0.152 -0.277
-7.116 4.445 40.79 0.832 0.554 -0.012
-7.178 4.826 41.348 0.874 0.3 -0.383
-7.89 4.242 38.417 0.596 0.748 -0.29
-8.256 4.552 38.01 0.84 0.542 -0.019
-7.826 4.102 38.253 0.643 0.648 -0.409
-8.192 4.413 37.846 0.887 0.441 -0.137
-10.714 4.148 46.083 0.419 -0.674 0.608
-10.984 3.814 46.004 0.599 -0.452 0.661
-11.114 4.437 46.43 0.085 -0.433 0.897
-11.419 4.128 46.38 0.288 -0.227 0.93
-11.52 4.876 46.511 -0.254 -0.068 0.965
-11.861 4.605 46.468 -0.027 0.113 0.993
-11.829 5.353 46.306 -0.511 0.33 0.794
-12.196 5.122 46.246 -0.266 0.483 0.834
-8.851 7.665 43.129 0.026 0.542 0.84
-9.364 7.942 43.101 0.368 0.357 0.859
-8.063 7.977 42.61 -0.127 0.978 0.168
-8.642 8.027 42.557 0.259 0.944 0.204
-9.162 8.291 42.55 0.606 0.768 0.208
-9.545 8.73 42.59 0.861 0.475 0.182
-8.714 7.9 41.864 0.179 0.803 -0.568
-9.232 8.169 41.881 0.524 0.624 -0.58
-12.375 2.188 38.2 -0.383 -0.832 -0.401
-12.95 2.325 38.173 0 -0.924 -0.383
-11.769 2.671 36.888 -0.383 -0.832 -0.401
-12.743 5.035 35.863 -0.707 0.101 -0.7
-13.229 4.877 36.164 -0.383 0.206 -0.901
-11.258 8.189 37.831 0.383 0.832 0.401
-11.213 8.133 39.794 0.383 0.832 -0.401
-11.139 1.466 40.382 -0.383 -0.924 0
-9.236 7.109 40.798 0.383 0.832 -0.401
-9.722 7.663 40.998 0.707 0.463 -0.534
-9.722 7.34 40.495 0.707 0.678 -0.199
-9.457 7.42 43.438 0.383 0.576 0.722
-9.184 3.647 44.19 0 -0.383 0.924
-7.982 5.33 40.504 0.707 0.463 -0.534
-7.982 5.007 40.002 0.707 0.678 -0.199
-10.519 6.328 45.095 0.383 0.576 0.722
-15.646 3.751 38.281 -0.951 -0.309 -0
-15.646 4.06 37.746 -0.951 -0.155 -0.268
-15.646 4.678 37.746 -0.951 0.155 -0.268
-15.744 4.369 38.281 -1 -0 -0
-13.333 1.048 39.879 0.174 -0.968 -0.181
-13.923 1.048 39.879 -0.174 -0.968 -0.181
-13.923 1.271 39.306 -0.174 -0.837 -0.518
-14.478 1.254 39.881 -0.5 -0.847 -0.18
-14.478 1.503 39.322 -0.5 -0.701 -0.509
-14.93 1.646 39.879 -0.766 -0.617 -0.181
-13.583 2.432 36.687 0.223 -0.878 -0.423
-14.207 2.432 36.687 -0.223 -0.878 -0.423
-14.207 2.811 36.212 -0.223 -0.608 -0.762
-14.207 3.358 35.948 -0.223 -0.217 -0.95
-14.207 3.966 35.948 -0.223 0.217 -0.95
-14.768 2.612 36.971 -0.623 -0.75 -0.22
-14.768 2.945 36.452 -0.623 -0.512 -0.591
-14.768 3.506 36.196 -0.623 -0.111 -0.774
-15.156 3.358 36.753 -0.901 -0.217 -0.376
-14.347 6.513 36.415 -0.5 0.36 -0.788
-15.417 6.944 39.727 -0.951 0.155 0.268
-15.417 6.944 38.657 -0.951 0.155 -0.268
-15.515 6.635 39.192 -1 -0 -0
-14.777 9.028 38.87 -0.766 0.643 0
-15.072 8.516 38.87 -0.94 0.342 0
-15.072 8.226 38.366 -0.94 0.171 -0.296
-13.779 9.007 43.406 -0.5 0.36 0.788
-14.218 9.175 42.461 -0.866 0.5 0
-14.218 8.875 42.981 -0.866 0.25 0.433
-14.379 8.575 42.461 -1 0 0
-15.361 5.236 41.133 -0.951 0.155 0.268
-14.091 1.029 41.778 -0.309 -0.938 0.157
-14.649 2.286 42.96 -0.588 -0.31 0.747
-14.649 1.761 42.609 -0.588 -0.572 0.572
-14.649 1.41 42.084 -0.588 -0.747 0.31
-14.649 1.287 41.465 -0.588 -0.809 0
-15.091 2.317 42.483 -0.809 -0.294 0.509
-15.091 1.887 42.053 -0.809 -0.509 0.294
-15.091 1.729 41.465 -0.809 -0.588 0
-15.375 3.214 42 -0.951 0.155 0.268
-15.375 2.596 42 -0.951 -0.155 0.268
-15.375 2.287 41.465 -0.951 -0.309 -0
-15.473 2.905 41.465 -1 -0 -0
-11.203 1.118 37.939 -0.5 -0.831 -0.244
-11.074 2.357 35.647 -0.5 -0.847 -0.18
-12.212 7.271 35.04 -0.809 0.294 -0.509
-13.55 9.24 37.49 -0 0.885 -0.465
-14.15 8.609 37.103 -0.5 0.36 -0.788
-14.15 9.051 37.486 -0.5 0.729 -0.468
-9.887 9.001 35.971 0.623 0.782 0
-9.887 8.827 36.563 0.623 0.658 0.423
-9.887 8.827 35.379 0.623 0.658 -0.423
-10.448 9.271 35.971 0.223 0.975 0
-10.448 9.136 36.563 0.223 0.878 0.423
-10.448 8.757 34.904 0.223 0.608 -0.762
-10.448 9.136 35.379 0.223 0.878 -0.423
-11.072 9.271 35.971 -0.223 0.975 0
-11.072 8.757 34.904 -0.223 0.608 -0.762
-11.072 9.136 35.379 -0.223 0.878 -0.423
-11.633 8.827 35.379 -0.623 0.658 -0.423
-10.296 8.964 41.068 0.588 0.572 -0.572
-10.296 9.315 41.593 0.588 0.747 -0.31
-10.854 9.321 43.38 0.309 0.751 0.584
-10.854 9.321 41.044 0.309 0.751 -0.584
-13.374 9.727 39.485 -0 1 0
-12.101 10.254 42.316 0.223 0.975 0
-12.101 10.119 42.908 0.223 0.878 0.423
-12.101 10.119 41.724 0.223 0.878 -0.423
-12.725 10.254 42.316 -0.223 0.975 0
-12.725 10.119 42.908 -0.223 0.878 0.423
-12.725 9.74 43.383 -0.223 0.608 0.762
-12.725 10.119 41.724 -0.223 0.878 -0.423
-12.949 7.331 44.688 -0.588 0.31 0.747
-15.059 5.433 43.102 -0.951 0.309 0
-15.157 4.815 43.102 -1 -0 -0
-14.469 4.367 44.718 -0.5 -0.123 0.857
-14.469 3.834 44.474 -0.5 -0.567 0.654
-14.908 4.215 44.209 -0.866 -0.25 0.433
-11.798 2.6 44.533 -0 -0.901 0.434
-12.416 2.729 44.57 -0.309 -0.836 0.453
-13.444 1.326 42.894 -0 -0.749 0.663
-8.182 1.239 43.006 0.309 -0.836 0.453
-8.8 1.912 43.833 -0 -0.5 0.866
-8.8 1.446 43.461 -0 -0.733 0.68
-9.418 1.239 43.006 -0.309 -0.836 0.453
-10.106 0.666 41.418 -0.588 -0.747 0.31
-10.106 0.543 40.799 -0.588 -0.809 0
-8.294 -0.116 37.165 0.223 -0.608 -0.762
-8.918 -0.495 37.64 -0.223 -0.878 -0.423
-8.918 -0.116 37.165 -0.223 -0.608 -0.762
-9.479 -0.315 38.54 -0.623 -0.75 0.22
-9.479 -0.315 37.924 -0.623 -0.75 -0.22
-9.479 0.018 37.405 -0.623 -0.512 -0.591
-7.386 1.51 36.972 0.588 -0.31 -0.747
-8.362 4.55 34.873 1 0 0
-8.46 5.168 34.873 0.951 0.309 0
-8.46 4.859 34.338 0.951 0.155 -0.268
-9.626 2.14 33.285 0.5 -0.831 -0.244
-9.626 2.456 32.793 0.5 -0.567 -0.654
-10.226 1.972 33.291 -0 -0.971 -0.239
-10.226 2.239 32.782 -0 -0.749 -0.663
-10.826 2.14 33.285 -0.5 -0.831 -0.244
-8.737 3.696 33.152 0.94 -0.171 -0.296
-8.737 4.278 33.152 0.94 0.171 -0.296
-9.032 3.831 32.574 0.766 -0.091 -0.636
-11.184 3.251 32.381 -0.5 -0.433 -0.75
-11.636 3.271 32.83 -0.766 -0.421 -0.486
-11.931 3.696 33.152 -0.94 -0.171 -0.296
-10.62 6.998 33.164 -0 0.568 -0.823
-11.22 6.748 33.207 -0.5 0.36 -0.788
-8.692 7.301 36.058 0.951 0.309 0
-8.692 6.992 35.523 0.951 0.155 -0.268
-8.976 7.859 36.058 0.809 0.588 0
-8.976 7.701 36.646 0.809 0.509 0.294
-8.976 7.701 35.47 0.809 0.509 -0.294
-6.485 6.608 42.375 1 0 0
-6.624 7.215 42.375 0.901 0.434 0
-6.624 6.912 41.849 0.901 0.217 -0.376
-7.012 7.703 42.375 0.623 0.782 0
-7.012 7.529 42.967 0.623 0.658 0.423
-7.012 7.063 41.379 0.623 0.325 -0.711
-7.012 7.529 41.783 0.623 0.658 -0.423
-7.573 7.973 42.375 0.223 0.975 0
-7.573 7.838 42.967 0.223 0.878 0.423
-7.573 7.459 43.442 0.223 0.608 0.762
-7.573 7.459 41.308 0.223 0.608 -0.762
-7.573 7.838 41.783 0.223 0.878 -0.423
-11.02 7.546 45.007 0.5 0.36 0.788
-11.62 7.796 45.05 -0 0.568 0.823
-10.616 5.389 46.298 0.5 0.36 0.788
-10.616 4.809 46.382 0.5 -0.123 0.857
-11.216 5.639 46.341 -0 0.568 0.823
-11.216 5.102 46.544 -0 0.121 0.993
-11.511 3.595 46.145 0.223 -0.608 0.762
-12.135 4.142 46.409 -0.223 -0.217 0.95
-12.135 3.595 46.145 -0.223 -0.608 0.762
-12.696 4.901 46.074 -0.623 0.325 0.711
-12.696 4.29 46.161 -0.623 -0.111 0.774
-12.696 3.729 45.905 -0.623 -0.512 0.591
-5.973 4.641 43.942 1 0 0
-6.112 5.248 43.942 0.901 0.434 0
-6.112 4.945 44.468 0.901 0.217 0.376
-6.112 4.337 44.468 0.901 -0.217 0.376
-6.112 4.034 43.942 0.901 -0.434 -0
-6.112 4.337 43.416 0.901 -0.217 -0.376
-6.5 5.562 44.534 0.623 0.658 0.423
-6.5 5.096 44.938 0.623 0.325 0.711
-6.5 4.485 45.025 0.623 -0.111 0.774
-6.5 3.924 44.769 0.623 -0.512 0.591
-7.061 5.492 45.009 0.223 0.608 0.762
-7.061 4.945 45.273 0.223 0.217 0.95
-7.061 4.337 45.273 0.223 -0.217 0.95
-7.061 3.79 45.009 0.223 -0.608 0.762
-7.685 4.337 45.273 -0.223 -0.217 0.95
-7.685 3.79 45.009 -0.223 -0.608 0.762
-7.419 1.921 43.37 0.5 -0.567 0.654
-5.813 1.552 41.067 0.623 -0.111 0.774
-5.813 0.991 40.811 0.623 -0.512 0.591
-5.813 0.658 40.292 0.623 -0.75 0.22
-6.374 0.478 40.576 0.223 -0.878 0.423
-8.866 0.061 41.337 -0 -0.971 0.239
-7.462 -0.65 39.034 0.5 -0.831 0.244
-7.462 -0.65 38.448 0.5 -0.831 -0.244
-8.062 -0.818 39.028 -0 -0.971 0.239
-4.912 1.902 39.403 1 0 0
-5.073 2.502 39.403 0.866 0.5 0
-5.073 2.202 39.923 0.866 0.25 0.433
-5.073 1.302 39.403 0.866 -0.5 -0
-5.073 1.602 38.883 0.866 -0.25 -0.433
-5.073 2.202 38.883 0.866 0.25 -0.433
-5.512 1.221 38.618 0.5 -0.567 -0.654
-5.512 1.754 38.374 0.5 -0.123 -0.857
-5.512 2.334 38.458 0.5 0.36 -0.788
-9.824 4.908 32.009 0.5 0.36 -0.788
-10.424 4.621 31.763 -0 0.121 -0.993
-10.424 5.158 31.966 -0 0.568 -0.823
-11.024 4.328 31.925 -0.5 -0.123 -0.857
-11.024 4.908 32.009 -0.5 0.36 -0.788
3 0 396 1
3 1 396 397
3 396 398 397
3 397 398 399
3 398 4 399
3 399 4 3
3 4 7 400
3 400 7 401
3 400 401 5
3 5 401 6
3 7 402 8
3 8 402 403
3 402 404 403
3 403 404 405
3 404 406 405
3 405 406 407
3 406 10 407
3 407 10 9
3 10 13 11
3 11 13 12
3 13 408 14
3 14 408 409
3 408 16 409
3 409 16 15
3 16 0 17
3 17 0 2
3 17 410 15
3 15 410 411
3 410 19 411
3 411 19 18
3 19 412 20
3 20 412 413
3 412 414 413
3 413 414 415
3 414 416 415
3 415 416 417
3 416 22 417
3 417 22 21
3 22 25 418
3 418 25 420
3 418 420 419
3 419 420 421
3 419 421 23
3 23 421 24
3 25 422 26
3 26 422 423
3 422 28 423
3 423 28 27
3 28 31 29
3 29 31 30
3 31 2 424
3 424 2 425
3 424 425 32
3 32 425 1
3 32 426 30
3 30 426 427
3 426 34 427
3 427 34 33
3 34 37 35
3 35 37 36
3 37 428 38
3 38 428 429
3 428 3 429
3 429 3 5
3 38 430 36
3 36 430 431
3 430 432 431
3 431 432 433
3 432 434 433
3 433 434 435
3 434 436 435
3 435 436 437
3 436 438 437
3 437 438 439
3 438 40 439
3 439 40 39
3 40 43 440
3 440 43 442
3 440 442 441
3 441 442 443
3 441 443 41
3 41 443 42
3 43 46 444
3 444 46 446
3 444 446 445
3 445 446 447
3 445 447 44
3 44 447 45
3 46 449 448
3 448 449 450
3 448 450 47
3 47 450 451
3 449 6 450
3 450 6 452
3 450 452 451
3 451 452 8
3 47 49 453
3 453 49 455
3 453 455 454
3 454 455 456
3 454 456 45
3 45 456 48
3 49 52 457
3 457 52 459
3 457 459 458
3 458 459 460
3 458 460 50
3 50 460 51
3 52 463 461
3 461 463 464
3 461 464 462
3 462 464 465
3 462 465 53
3 53 465 466
3 463 55 464
3 464 55 467
3 464 467 465
3 465 467 468
3 465 468 466
3 466 468 54
3 55 9 469
3 469 9 470
3 469 470 56
3 56 470 11
3 56 58 471
3 471 58 474
3 471 474 472
3 472 474 475
3 472 475 473
3 473 475 476
3 473 476 54
3 54 476 57
3 58 61 477
3 477 61 479
3 477 479 478
3 478 479 480
3 478 480 59
3 59 480 60
3 61 64 481
3 481 64 482
3 481 482 62
3 62 482 63
3 64 67 483
3 483 67 484
3 483 484 65
3 65 484 66
3 67 70 485
3 485 70 486
3 485 486 68
3 68 486 69
3 70 12 71
3 71 12 14
3 71 18 69
3 69 18 20
3 68 487 66
3 66 487 488
3 487 489 488
3 488 489 490
3 489 491 490
3 490 491 492
3 491 73 492
3 492 73 72
3 73 76 493
3 493 76 495
3 493 495 494
3 494 495 496
3 494 496 74
3 74 496 75
3 76 79 497
3 497 79 498
3 497 498 77
3 77 498 78
3 79 82 499
3 499 82 501
3 499 501 500
3 500 501 502
3 500 502 80
3 80 502 81
3 82 503 83
3 83 503 504
3 503 505 504
3 504 505 506
3 505 507 506
3 506 507 508
3 507 85 508
3 508 85 84
3 85 21 509
3 509 21 511
3 509 511 510
3 510 511 512
3 510 512 86
3 86 512 23
3 86 88 513
3 513 88 514
3 513 514 84
3 84 514 87
3 88 515 89
3 89 515 516
3 515 517 516
3 516 517 518
3 517 91 518
3 518 91 90
3 91 94 519
3 519 94 520
3 519 520 92
3 92 520 93
3 94 522 521
3 521 522 523
3 521 523 95
3 95 523 524
3 522 97 523
3 523 97 525
3 523 525 524
3 524 525 96
3 97 24 526
3 526 24 527
3 526 527 98
3 98 527 26
3 98 100 528
3 528 100 529
3 528 529 96
3 96 529 99
3 100 103 530
3 530 103 531
3 530 531 101
3 101 531 102
3 103 27 104
3 104 27 29
3 104 532 102
3 102 532 533
3 532 106 533
3 533 106 105
3 106 33 107
3 107 33 35
3 107 109 105
3 105 109 108
3 109 112 534
3 534 112 535
3 534 535 110
3 110 535 111
3 112 115 113
3 113 115 114
3 115 118 536
3 536 118 537
3 536 537 116
3 116 537 117
3 118 538 119
3 119 538 539
3 538 540 539
3 539 540 541
3 540 121 541
3 541 121 120
3 121 124 542
3 542 124 543
3 542 543 122
3 122 543 123
3 124 127 544
3 544 127 546
3 544 546 545
3 545 546 547
3 545 547 125
3 125 547 126
3 127 130 548
3 548 130 550
3 548 550 549
3 549 550 551
3 549 551 128
3 128 551 129
3 130 554 552
3 552 554 555
3 552 555 553
3 553 555 556
3 553 556 131
3 131 556 557
3 554 133 555
3 555 133 558
3 555 558 556
3 556 558 559
3 556 559 557
3 557 559 132
3 133 39 560
3 560 39 562
3 560 562 561
3 561 562 563
3 561 563 134
3 134 563 41
3 134 136 132
3 132 136 135
3 136 139 137
3 137 139 138
3 139 42 140
3 140 42 44
3 140 142 564
3 564 142 565
3 564 565 138
3 138 565 141
3 142 145 143
3 143 145 144
3 145 48 566
3 566 48 567
3 566 567 146
3 146 567 50
3 146 148 568
3 568 148 569
3 568 569 144
3 144 569 147
3 148 571 570
3 570 571 572
3 570 572 149
3 149 572 573
3 571 574 572
3 572 574 575
3 572 575 573
3 573 575 576
3 574 151 575
3 575 151 577
3 575 577 576
3 576 577 150
3 151 154 578
3 578 154 579
3 578 579 152
3 152 579 153
3 154 157 155
3 155 157 156
3 157 581 580
3 580 581 582
3 580 582 158
3 158 582 583
3 581 584 582
3 582 584 585
3 582 585 583
3 583 585 586
3 584 160 585
3 585 160 587
3 585 587 586
3 586 587 159
3 160 51 161
3 161 51 53
3 161 163 159
3 159 163 162
3 163 588 164
3 164 588 589
3 588 590 589
3 589 590 591
3 590 592 591
3 591 592 593
3 592 166 593
3 593 166 165
3 166 594 167
3 167 594 595
3 594 57 595
3 595 57 59
3 167 169 165
3 165 169 168
3 169 172 170
3 170 172 171
3 172 596 173
3 173 596 597
3 596 60 597
3 597 60 62
3 173 175 171
3 171 175 174
3 175 598 176
3 176 598 599
3 598 178 599
3 599 178 177
3 178 63 600
3 600 63 602
3 600 602 601
3 601 602 603
3 601 603 179
3 179 603 65
3 179 606 604
3 604 606 607
3 604 607 605
3 605 607 608
3 605 608 177
3 177 608 609
3 606 72 607
3 607 72 610
3 607 610 608
3 608 610 611
3 608 611 609
3 609 611 74
3 176 181 612
3 612 181 613
3 612 613 174
3 174 613 180
3 181 614 182
3 182 614 615
3 614 616 615
3 615 616 617
3 616 618 617
3 617 618 619
3 618 184 619
3 619 184 183
3 184 75 620
3 620 75 621
3 620 621 185
3 185 621 77
3 185 187 622
3 622 187 623
3 622 623 183
3 183 623 186
3 187 624 188
3 188 624 625
3 624 190 625
3 625 190 189
3 190 193 191
3 191 193 192
3 193 196 626
3 626 196 629
3 626 629 627
3 627 629 630
3 627 630 628
3 628 630 631
3 628 631 194
3 194 631 195
3 196 634 632
3 632 634 635
3 632 635 633
3 633 635 636
3 633 636 197
3 197 636 637
3 634 78 635
3 635 78 638
3 635 638 636
3 636 638 639
3 636 639 637
3 637 639 80
3 197 199 640
3 640 199 642
3 640 642 641
3 641 642 643
3 641 643 195
3 195 643 198
3 199 645 644
3 644 645 646
3 644 646 200
3 200 646 647
3 645 648 646
3 646 648 649
3 646 649 647
3 647 649 650
3 648 202 649
3 649 202 651
3 649 651 650
3 650 651 201
3 202 205 652
3 652 205 654
3 652 654 653
3 653 654 655
3 653 655 203
3 203 655 204
3 205 208 656
3 656 208 657
3 656 657 206
3 206 657 207
3 208 211 209
3 209 211 210
3 211 214 212
3 212 214 213
3 214 217 215
3 215 217 216
3 217 658 218
3 218 658 659
3 658 660 659
3 659 660 661
3 660 662 661
3 661 662 663
3 662 664 663
3 663 664 665
3 664 220 665
3 665 220 219
3 220 81 666
3 666 81 667
3 666 667 221
3 221 667 83
3 221 669 668
3 668 669 670
3 668 670 219
3 219 670 671
3 669 87 670
3 670 87 672
3 670 672 671
3 671 672 89
3 218 90 673
3 673 90 674
3 673 674 216
3 216 674 92
3 215 675 213
3 213 675 676
3 675 223 676
3 676 223 222
3 223 226 677
3 677 226 678
3 677 678 224
3 224 678 225
3 226 229 679
3 679 229 680
3 679 680 227
3 227 680 228
3 229 232 230
3 230 232 231
3 232 93 233
3 233 93 95
3 233 681 231
3 231 681 682
3 681 99 682
3 682 99 101
3 230 683 228
3 228 683 684
3 683 235 684
3 684 235 234
3 235 685 236
3 236 685 686
3 685 687 686
3 686 687 688
3 687 108 688
3 688 108 110
3 236 238 689
3 689 238 690
3 689 690 234
3 234 690 237
3 238 111 239
3 239 111 113
3 239 241 237
3 237 241 240
3 241 114 242
3 242 114 116
3 242 691 240
3 240 691 692
3 691 693 692
3 692 693 694
3 693 695 694
3 694 695 696
3 695 244 696
3 696 244 243
3 244 247 245
3 245 247 246
3 247 250 697
3 697 250 699
3 697 699 698
3 698 699 700
3 698 700 248
3 248 700 249
3 250 253 701
3 701 253 702
3 701 702 251
3 251 702 252
3 253 256 703
3 703 256 704
3 703 704 254
3 254 704 255
3 256 259 257
3 257 259 258
3 259 117 705
3 705 117 706
3 705 706 260
3 260 706 119
3 260 120 707
3 707 120 708
3 707 708 258
3 258 708 122
3 257 123 709
3 709 123 710
3 709 710 255
3 255 710 125
3 254 126 252
3 252 126 128
3 251 712 711
3 711 712 713
3 711 713 249
3 249 713 714
3 712 262 713
3 713 262 715
3 713 715 714
3 714 715 261
3 262 716 263
3 263 716 717
3 716 265 717
3 717 265 264
3 265 268 718
3 718 268 719
3 718 719 266
3 266 719 267
3 268 271 269
3 269 271 270
3 271 274 272
3 272 274 273
3 274 720 275
3 275 720 721
3 720 129 721
3 721 129 131
3 275 722 273
3 273 722 723
3 722 277 723
3 723 277 276
3 277 280 724
3 724 280 725
3 724 725 278
3 278 725 279
3 280 135 726
3 726 135 727
3 726 727 281
3 281 727 137
3 281 728 279
3 279 728 729
3 728 730 729
3 729 730 731
3 730 732 731
3 731 732 733
3 732 734 733
3 733 734 735
3 734 283 735
3 735 283 282
3 283 736 284
3 284 736 737
3 736 738 737
3 737 738 739
3 738 740 739
3 739 740 741
3 740 286 741
3 741 286 285
3 286 141 287
3 287 141 143
3 287 147 285
3 285 147 149
3 284 289 282
3 282 289 288
3 289 743 742
3 742 743 744
3 742 744 290
3 290 744 745
3 743 746 744
3 744 746 747
3 744 747 745
3 745 747 748
3 746 292 747
3 747 292 749
3 747 749 748
3 748 749 291
3 292 750 293
3 293 750 751
3 750 295 751
3 751 295 294
3 295 298 752
3 752 298 753
3 752 753 296
3 296 753 297
3 298 754 299
3 299 754 755
3 754 756 755
3 755 756 757
3 756 150 757
3 757 150 152
3 299 301 758
3 758 301 759
3 758 759 297
3 297 759 300
3 301 153 760
3 760 153 762
3 760 762 761
3 761 762 763
3 761 763 302
3 302 763 155
3 302 304 300
3 300 304 303
3 304 307 764
3 764 307 765
3 764 765 305
3 305 765 306
3 307 310 308
3 308 310 309
3 310 766 311
3 311 766 767
3 766 313 767
3 767 313 312
3 313 768 314
3 314 768 769
3 768 770 769
3 769 770 771
3 770 772 771
3 771 772 773
3 772 316 773
3 773 316 315
3 316 156 317
3 317 156 158
3 317 774 315
3 315 774 775
3 774 776 775
3 775 776 777
3 776 778 777
3 777 778 779
3 778 780 779
3 779 780 781
3 780 782 781
3 781 782 783
3 782 162 783
3 783 162 164
3 314 319 312
3 312 319 318
3 319 322 784
3 784 322 785
3 784 785 320
3 320 785 321
3 322 787 786
3 786 787 788
3 786 788 323
3 323 788 789
3 787 790 788
3 788 790 791
3 788 791 789
3 789 791 792
3 790 793 791
3 791 793 794
3 791 794 792
3 792 794 795
3 793 796 794
3 794 796 797
3 794 797 795
3 795 797 798
3 796 799 797
3 797 799 800
3 797 800 798
3 798 800 801
3 799 325 800
3 800 325 802
3 800 802 801
3 801 802 324
3 325 168 803
3 803 168 804
3 803 804 326
3 326 804 170
3 326 806 805
3 805 806 807
3 805 807 324
3 324 807 808
3 806 809 807
3 807 809 810
3 807 810 808
3 808 810 811
3 809 321 810
3 810 321 812
3 810 812 811
3 811 812 323
3 320 328 318
3 318 328 327
3 328 180 329
3 329 180 182
3 329 813 327
3 327 813 814
3 813 309 814
3 814 309 311
3 308 815 306
3 306 815 816
3 815 817 816
3 816 817 818
3 817 186 818
3 818 186 188
3 305 819 303
3 303 819 820
3 819 331 820
3 820 331 330
3 331 189 332
3 332 189 191
3 332 334 330
3 330 334 333
3 334 337 821
3 821 337 822
3 821 822 335
3 335 822 336
3 337 340 823
3 823 340 824
3 823 824 338
3 338 824 339
3 340 192 825
3 825 192 827
3 825 827 826
3 826 827 828
3 826 828 341
3 341 828 194
3 341 343 829
3 829 343 832
3 829 832 830
3 830 832 833
3 830 833 831
3 831 833 834
3 831 834 339
3 339 834 342
3 343 835 344
3 344 835 836
3 835 346 836
3 836 346 345
3 346 349 837
3 837 349 838
3 837 838 347
3 347 838 348
3 349 839 350
3 350 839 840
3 839 352 840
3 840 352 351
3 352 204 841
3 841 204 842
3 841 842 353
3 353 842 206
3 353 843 351
3 351 843 844
3 843 355 844
3 844 355 354
3 355 358 845
3 845 358 846
3 845 846 356
3 356 846 357
3 358 848 847
3 847 848 849
3 847 849 359
3 359 849 850
3 848 361 849
3 849 361 851
3 849 851 850
3 850 851 360
3 361 364 852
3 852 364 853
3 852 853 362
3 362 853 363
3 364 207 854
3 854 207 855
3 854 855 365
3 365 855 209
3 365 210 363
3 363 210 212
3 362 857 856
3 856 857 858
3 856 858 360
3 360 858 859
3 857 222 858
3 858 222 860
3 858 860 859
3 859 860 224
3 359 246 861
3 861 246 864
3 861 864 862
3 862 864 865
3 862 865 863
3 863 865 866
3 863 866 357
3 357 866 248
3 356 867 354
3 354 867 868
3 867 348 868
3 868 348 350
3 347 869 345
3 345 869 870
3 869 367 870
3 870 367 366
3 367 370 871
3 871 370 874
3 871 874 872
3 872 874 875
3 872 875 873
3 873 875 876
3 873 876 368
3 368 876 369
3 370 373 877
3 877 373 878
3 877 878 371
3 371 878 372
3 373 880 879
3 879 880 881
3 879 881 374
3 374 881 882
3 880 261 881
3 881 261 883
3 881 883 882
3 882 883 263
3 374 376 372
3 372 376 375
3 376 264 884
3 884 264 885
3 884 885 377
3 377 885 266
3 377 379 886
3 886 379 887
3 886 887 375
3 375 887 378
3 379 382 380
3 380 382 381
3 382 888 383
3 383 888 889
3 888 890 889
3 889 890 891
3 890 892 891
3 891 892 893
3 892 385 893
3 893 385 384
3 385 895 894
3 894 895 896
3 894 896 386
3 386 896 897
3 895 388 896
3 896 388 898
3 896 898 897
3 897 898 387
3 388 391 899
3 899 391 900
3 899 900 389
3 389 900 390
3 391 267 901
3 901 267 902
3 901 902 392
3 392 902 269
3 392 270 390
3 390 270 272
3 389 904 903
3 903 904 905
3 903 905 387
3 387 905 906
3 904 276 905
3 905 276 907
3 905 907 906
3 906 907 278
3 386 288 908
3 908 288 909
3 908 909 384
3 384 909 290
3 383 910 381
3 381 910 911
3 910 912 911
3 911 912 913
3 912 291 913
3 913 291 293
3 380 369 378
3 378 369 371
3 368 394 914
3 914 394 916
3 914 916 915
3 915 916 917
3 915 917 366
3 366 917 393
3 394 918 395
3 395 918 919
3 918 336 919
3 919 336 338
3 395 342 920
3 920 342 922
3 920 922 921
3 921 922 923
3 921 923 393
3 393 923 344
3 335 294 924
3 924 294 926
3 924 926 925
3 925 926 927
3 925 927 333
3 333 927 296
3 245 928 243
3 243 928 929
3 928 930 929
3 929 930 931
3 930 932 931
3 931 932 933
3 932 934 933
3 933 934 935
3 934 225 935
3 935 225 227
3 203 938 936
3 936 938 939
3 936 939 937
3 937 939 940
3 937 940 201
3 201 940 941
3 938 198 939
3 939 198 942
3 939 942 940
3 940 942 943
3 940 943 941
3 941 943 200
3 2 0 425
3 425 0 1
3 5 3 400
3 400 3 4
3 452 6 401
3 452 401 7
3 452 7 8
3 470 9 10
3 470 10 11
3 14 12 13
3 17 15 16
3 20 18 19
3 511 21 22
3 511 22 418
3 511 418 512
3 512 418 419
3 512 419 23
3 527 24 421
3 527 421 420
3 527 420 26
3 26 420 25
3 29 27 28
3 32 30 424
3 424 30 31
3 35 33 34
3 38 36 37
3 562 39 40
3 562 40 440
3 562 440 563
3 563 440 441
3 563 441 41
3 44 42 445
3 445 42 443
3 445 443 444
3 444 443 442
3 444 442 43
3 454 45 447
3 454 447 944
3 454 944 453
3 453 944 945
3 453 945 47
3 47 945 448
3 448 945 46
3 46 945 446
3 446 945 944
3 446 944 447
3 567 48 456
3 567 456 946
3 567 946 50
3 50 946 458
3 458 946 457
3 457 946 455
3 457 455 49
3 455 946 456
3 53 51 462
3 462 51 460
3 462 460 461
3 461 460 459
3 461 459 52
3 473 54 468
3 473 468 947
3 473 947 472
3 472 947 471
3 471 947 948
3 471 948 469
3 471 469 56
3 469 948 55
3 55 948 467
3 467 948 947
3 467 947 468
3 59 57 476
3 59 476 478
3 478 476 475
3 478 475 477
3 477 475 474
3 477 474 58
3 62 60 480
3 62 480 481
3 481 480 479
3 481 479 61
3 602 63 482
3 602 482 603
3 603 482 483
3 603 483 65
3 483 482 64
3 68 66 484
3 68 484 485
3 485 484 67
3 71 69 486
3 71 486 70
3 610 72 493
3 610 493 494
3 610 494 611
3 611 494 74
3 493 72 73
3 621 75 496
3 621 496 949
3 621 949 77
3 77 949 497
3 497 949 495
3 497 495 76
3 495 949 496
3 638 78 498
3 638 498 950
3 638 950 639
3 639 950 500
3 639 500 80
3 500 950 499
3 499 950 498
3 499 498 79
3 667 81 502
3 667 502 501
3 667 501 83
3 83 501 82
3 513 84 509
3 513 509 510
3 513 510 86
3 509 84 85
3 672 87 514
3 672 514 89
3 89 514 88
3 674 90 519
3 674 519 92
3 519 90 91
3 95 93 521
3 521 93 520
3 521 520 94
3 528 96 525
3 528 525 526
3 528 526 98
3 526 525 97
3 101 99 530
3 530 99 529
3 530 529 100
3 104 102 531
3 104 531 103
3 107 105 106
3 110 108 534
3 534 108 109
3 113 111 535
3 113 535 112
3 116 114 536
3 536 114 115
3 706 117 537
3 706 537 118
3 706 118 119
3 708 120 121
3 708 121 542
3 708 542 122
3 710 123 545
3 710 545 125
3 545 123 544
3 544 123 543
3 544 543 124
3 128 126 549
3 549 126 547
3 549 547 548
3 548 547 546
3 548 546 127
3 131 129 551
3 131 551 553
3 553 551 550
3 553 550 552
3 552 550 130
3 134 132 951
3 134 951 561
3 561 951 560
3 560 951 558
3 560 558 133
3 558 951 559
3 559 951 132
3 727 135 136
3 727 136 137
3 564 138 139
3 564 139 140
3 143 141 565
3 143 565 142
3 568 144 566
3 568 566 146
3 566 144 145
3 149 147 570
3 570 147 569
3 570 569 148
3 152 150 577
3 152 577 578
3 578 577 151
3 762 153 579
3 762 579 763
3 763 579 154
3 763 154 155
3 158 156 580
3 580 156 157
3 161 159 587
3 161 587 160
3 164 162 163
3 167 165 166
3 804 168 169
3 804 169 170
3 173 171 172
3 612 174 175
3 612 175 176
3 605 177 178
3 605 178 600
3 605 600 604
3 604 600 601
3 604 601 179
3 182 180 613
3 182 613 181
3 622 183 620
3 622 620 185
3 620 183 184
3 188 186 623
3 188 623 187
3 191 189 190
3 827 192 626
3 827 626 627
3 827 627 828
3 828 627 628
3 828 628 194
3 626 192 193
3 953 952 954
3 641 195 631
3 641 631 952
3 641 952 640
3 640 952 953
3 640 953 197
3 197 953 633
3 633 953 954
3 633 954 632
3 632 954 629
3 632 629 196
3 629 954 630
3 630 954 952
3 630 952 631
3 942 198 643
3 942 643 943
3 943 643 642
3 943 642 200
3 200 642 644
3 644 642 199
3 937 201 652
3 937 652 653
3 937 653 936
3 936 653 203
3 652 201 651
3 652 651 202
3 842 204 655
3 842 655 955
3 842 955 206
3 206 955 656
3 656 955 654
3 656 654 205
3 654 955 655
3 855 207 657
3 855 657 209
3 209 657 208
3 212 210 211
3 215 213 214
3 673 216 217
3 673 217 218
3 668 219 666
3 668 666 221
3 666 219 220
3 860 222 223
3 860 223 677
3 860 677 224
3 227 225 679
3 679 225 678
3 679 678 226
3 230 228 680
3 230 680 229
3 233 231 232
3 689 234 235
3 689 235 236
3 239 237 690
3 239 690 238
3 242 240 241
3 245 243 244
3 864 246 247
3 864 247 697
3 864 697 865
3 865 697 698
3 865 698 866
3 866 698 248
3 711 249 700
3 711 700 956
3 711 956 251
3 251 956 701
3 701 956 699
3 701 699 250
3 699 956 700
3 254 252 702
3 254 702 703
3 703 702 253
3 709 255 704
3 709 704 257
3 257 704 256
3 707 258 259
3 707 259 705
3 707 705 260
3 883 261 715
3 883 715 262
3 883 262 263
3 885 264 265
3 885 265 718
3 885 718 266
3 902 267 719
3 902 719 269
3 269 719 268
3 272 270 271
3 275 273 274
3 907 276 277
3 907 277 724
3 907 724 278
3 281 279 726
3 726 279 725
3 726 725 280
3 284 282 283
3 287 285 286
3 909 288 289
3 909 289 742
3 909 742 290
3 293 291 749
3 293 749 292
3 926 294 295
3 926 295 752
3 926 752 927
3 927 752 296
3 758 297 753
3 758 753 298
3 758 298 299
3 302 300 761
3 761 300 759
3 761 759 760
3 760 759 301
3 305 303 764
3 764 303 304
3 308 306 765
3 308 765 307
3 311 309 310
3 314 312 313
3 317 315 316
3 320 318 784
3 784 318 319
3 812 321 785
3 812 785 786
3 812 786 323
3 786 785 322
3 805 324 802
3 805 802 803
3 805 803 326
3 803 802 325
3 329 327 328
3 332 330 331
3 925 333 334
3 925 334 821
3 925 821 924
3 924 821 335
3 338 336 822
3 338 822 823
3 823 822 337
3 831 339 958
3 831 958 957
3 831 957 830
3 830 957 829
3 829 957 826
3 829 826 341
3 826 957 825
3 825 957 958
3 825 958 340
3 340 958 824
3 824 958 339
3 922 342 834
3 922 834 833
3 922 833 923
3 923 833 832
3 923 832 344
3 344 832 343
3 347 345 837
3 837 345 346
3 350 348 838
3 350 838 349
3 353 351 841
3 841 351 352
3 356 354 845
3 845 354 355
3 863 357 846
3 863 846 862
3 862 846 358
3 862 358 847
3 862 847 861
3 861 847 359
3 856 360 959
3 856 959 852
3 856 852 362
3 852 959 361
3 361 959 851
3 851 959 360
3 365 363 853
3 365 853 854
3 854 853 364
3 915 366 871
3 915 871 872
3 915 872 914
3 914 872 873
3 914 873 368
3 871 366 367
3 371 369 876
3 371 876 875
3 371 875 877
3 877 875 874
3 877 874 370
3 374 372 879
3 879 372 878
3 879 878 373
3 886 375 884
3 886 884 377
3 884 375 376
3 380 378 887
3 380 887 379
3 383 381 382
3 908 384 385
3 908 385 894
3 908 894 386
3 903 387 898
3 903 898 899
3 903 899 389
3 899 898 388
3 392 390 900
3 392 900 901
3 901 900 391
3 921 393 917
3 921 917 920
3 920 917 916
3 920 916 395
3 395 916 394
3 961 960 963
3 962 961 963
3 962 963 16
3 962 16 408
3 962 408 406
3 962 406 404
3 962 404 961
3 961 404 402
3 961 402 960
3 960 402 4
3 960 4 398
3 960 398 396
3 960 396 963
3 963 396 0
3 963 0 16
3 4 402 7
3 406 408 13
3 406 13 10
3 32 1 426
3 428 37 399
3 428 399 3
3 399 37 397
3 397 37 34
3 397 34 426
3 397 426 1
3 964 965 966
3 966 965 967
3 966 967 968
3 968 967 969
3 968 969 6
3 968 6 449
3 968 449 966
3 966 449 46
3 966 46 43
3 966 43 964
3 964 43 40
3 964 40 438
3 964 438 436
3 964 436 965
3 965 436 434
3 965 434 967
3 967 434 432
3 967 432 969
3 969 432 430
3 969 430 429
3 969 429 5
3 969 5 6
3 429 430 38
3 970 971 972
3 971 975 976
3 972 971 976
3 973 972 976
3 973 976 977
3 974 973 977
3 976 975 978
3 977 976 978
3 977 978 407
3 977 407 9
3 977 9 974
3 974 9 55
3 974 55 463
3 974 463 973
3 973 463 972
3 972 463 52
3 972 52 970
3 970 52 49
3 970 49 47
3 970 47 451
3 970 451 971
3 971 451 975
3 975 451 8
3 975 8 403
3 975 403 978
3 978 403 405
3 978 405 407
3 70 67 12
3 12 67 979
3 12 979 11
3 11 979 61
3 11 61 58
3 11 58 56
3 61 979 64
3 64 979 67
3 411 18 409
3 411 409 15
3 409 18 14
3 14 18 71
3 2 31 17
3 31 28 980
3 31 980 982
3 31 982 17
3 17 982 981
3 17 981 410
3 410 981 412
3 410 412 19
3 412 981 414
3 414 981 982
3 414 982 980
3 414 980 416
3 416 980 422
3 416 422 25
3 416 25 22
3 422 980 28
3 21 85 417
3 417 85 507
3 417 507 983
3 417 983 984
3 417 984 415
3 415 984 985
3 415 985 413
3 413 985 20
3 20 985 487
3 20 487 68
3 20 68 69
3 487 985 984
3 487 984 983
3 487 983 489
3 489 983 505
3 489 505 491
3 491 505 503
3 491 503 73
3 73 503 76
3 76 503 82
3 76 82 79
3 505 983 507
3 988 987 989
3 988 989 522
3 988 522 94
3 988 94 986
3 988 986 517
3 988 517 515
3 988 515 987
3 987 515 88
3 987 88 86
3 987 86 989
3 989 86 23
3 989 23 24
3 989 24 97
3 989 97 522
3 517 986 91
3 91 986 94
3 27 103 423
3 423 103 100
3 423 100 98
3 423 98 26
3 427 33 990
3 427 990 29
3 427 29 30
3 29 990 104
3 104 990 532
3 532 990 106
3 106 990 33
3 991 994 995
3 993 992 996
3 993 996 997
3 994 993 997
3 994 997 998
3 995 994 998
3 997 996 1000
3 997 1000 1001
3 998 997 1001
3 1000 999 1002
3 1001 1000 1002
3 1001 1002 36
3 1001 36 431
3 1001 431 998
3 998 431 433
3 998 433 995
3 995 433 435
3 995 435 991
3 991 435 437
3 991 437 540
3 991 540 538
3 991 538 994
3 994 538 993
3 993 538 992
3 992 538 115
3 992 115 112
3 992 112 109
3 992 109 996
3 996 109 1000
3 1000 109 999
3 999 109 107
3 999 107 35
3 999 35 1002
3 1002 35 36
3 115 538 118
3 540 437 439
3 540 439 554
3 540 554 130
3 540 130 121
3 121 130 127
3 121 127 124
3 554 439 133
3 133 439 39
3 42 139 136
3 42 136 41
3 41 136 134
3 45 48 1003
3 45 1003 44
3 44 1003 140
3 140 1003 142
3 142 1003 48
3 142 48 145
3 51 160 1004
3 51 1004 50
3 50 1004 146
3 146 1004 584
3 146 584 148
3 148 584 571
3 571 584 581
3 571 581 574
3 574 581 157
3 574 157 151
3 151 157 154
3 584 1004 160
3 54 57 594
3 54 594 592
3 54 592 466
3 466 592 590
3 466 590 588
3 466 588 53
3 53 588 163
3 53 163 161
3 592 594 166
3 596 172 167
3 596 167 595
3 596 595 60
3 60 595 59
3 167 172 169
3 63 178 1005
3 63 1005 597
3 63 597 62
3 597 1005 173
3 173 1005 598
3 173 598 175
3 598 1005 178
3 492 72 1006
3 492 1006 490
3 490 1006 1008
3 490 1008 488
3 488 1008 1007
3 488 1007 66
3 66 1007 65
3 65 1007 179
3 179 1007 606
3 606 1007 1008
3 606 1008 1006
3 606 1006 72
3 1010 1009 1013
3 1011 1014 1015
3 1009 1011 1015
3 1009 1015 1012
3 1009 1012 1013
3 1014 1017 1018
3 1015 1014 1018
3 1012 1015 1018
3 1012 1018 1016
3 1018 1017 1019
3 1018 1019 1016
3 1016 1019 609
3 1016 609 74
3 1016 74 1013
3 1016 1013 1012
3 1013 74 75
3 1013 75 184
3 1013 184 1010
3 1010 184 618
3 1010 618 1009
3 1009 618 616
3 1009 616 1011
3 1011 616 614
3 1011 614 1014
3 1014 614 181
3 1014 181 1017
3 1017 181 176
3 1017 176 1019
3 1019 176 599
3 1019 599 177
3 1019 177 609
3 634 196 187
3 634 187 185
3 634 185 78
3 78 185 77
3 187 196 624
3 624 196 193
3 624 193 190
3 1021 1020 1023
3 1021 1023 664
3 1021 664 662
3 1021 662 645
3 1021 645 199
3 1021 199 1020
3 1020 199 197
3 1020 197 637
3 1020 637 80
3 1020 80 1023
3 1023 80 81
3 1023 81 220
3 1023 220 664
3 645 662 648
3 648 662 660
3 648 660 1022
3 648 1022 211
3 648 211 202
3 202 211 208
3 202 208 205
3 211 1022 658
3 211 658 214
3 214 658 217
3 658 1022 660
3 84 87 508
3 508 87 506
3 506 87 1024
3 506 1024 504
3 504 1024 221
3 504 221 83
3 221 1024 669
3 669 1024 87
3 1026 1025 1029
3 1026 1029 1030
3 1025 1027 1031
3 1025 1031 1028
3 1025 1028 1029
3 1029 1028 516
3 1029 516 518
3 1029 518 1030
3 1030 518 90
3 1030 90 218
3 1030 218 659
3 1030 659 1026
3 1026 659 661
3 1026 661 663
3 1026 663 1025
3 1025 663 1027
3 1027 663 665
3 1027 665 219
3 1027 219 671
3 1027 671 1031
3 1031 671 89
3 1031 89 516
3 1031 516 1028
3 93 232 1032
3 93 1032 92
3 92 1032 675
3 92 675 216
3 216 675 215
3 675 1032 223
3 223 1032 226
3 226 1032 229
3 229 1032 232
3 96 99 524
3 524 99 681
3 524 681 95
3 95 681 233
3 533 105 1034
3 533 1034 1033
3 533 1033 102
3 102 1033 101
3 101 1033 682
3 682 1033 687
3 682 687 685
3 682 685 231
3 231 685 683
3 231 683 230
3 683 685 235
3 687 1033 1034
3 687 1034 108
3 108 1034 105
3 1036 1035 1037
3 1036 1037 111
3 1036 111 238
3 1036 238 1035
3 1035 238 236
3 1035 236 686
3 1035 686 1037
3 1037 686 688
3 1037 688 110
3 1037 110 111
3 114 241 113
3 113 241 239
3 117 259 1039
3 117 1039 691
3 117 691 116
3 116 691 242
3 691 1039 693
3 693 1039 1038
3 693 1038 256
3 693 256 253
3 693 253 695
3 695 253 244
3 244 253 250
3 244 250 247
3 256 1038 259
3 259 1038 1039
3 120 260 1040
3 120 1040 541
3 541 1040 539
3 539 1040 119
3 119 1040 260
3 123 257 122
3 122 257 258
3 126 254 255
3 126 255 125
3 720 274 1044
3 720 1044 128
3 720 128 129
3 128 1044 252
3 252 1044 1043
3 252 1043 1042
3 252 1042 251
3 251 1042 712
3 712 1042 262
3 262 1042 716
3 716 1042 1043
3 716 1043 1041
3 716 1041 268
3 716 268 265
3 268 1041 271
3 271 1041 274
3 274 1041 1043
3 274 1043 1044
3 132 135 1046
3 132 1046 557
3 557 1046 1045
3 557 1045 131
3 131 1045 721
3 721 1045 722
3 721 722 275
3 722 1045 1046
3 722 1046 277
3 277 1046 280
3 280 1046 135
3 1048 1051 1052
3 1049 1048 1052
3 1049 1052 286
3 1049 286 740
3 1049 740 738
3 1049 738 1047
3 1049 1047 1048
3 1048 1047 732
3 1048 732 730
3 1048 730 1051
3 1051 730 728
3 1051 728 1050
3 1051 1050 138
3 1051 138 1052
3 1052 138 141
3 1052 141 286
3 138 1050 137
3 137 1050 281
3 281 1050 728
3 732 1047 734
3 734 1047 736
3 734 736 283
3 736 1047 738
3 144 147 287
3 144 287 143
3 754 298 750
3 754 750 292
3 754 292 746
3 754 746 756
3 756 746 743
3 756 743 1053
3 756 1053 150
3 150 1053 739
3 150 739 576
3 576 739 741
3 576 741 573
3 573 741 285
3 573 285 149
3 739 1053 737
3 737 1053 284
3 284 1053 743
3 284 743 289
3 750 298 295
3 153 301 755
3 153 755 757
3 153 757 152
3 755 301 299
3 1054 1056 1055
3 1055 1056 310
3 1055 310 307
3 1055 307 304
3 1055 304 1054
3 1054 304 302
3 1054 302 155
3 1054 155 772
3 1054 772 770
3 1054 770 1056
3 1056 770 768
3 1056 768 766
3 1056 766 310
3 766 768 313
3 772 155 316
3 316 155 156
3 317 158 774
3 159 162 586
3 1057 1059 1060
3 1058 1057 1060
3 1060 1059 1061
3 1060 1061 780
3 1060 780 778
3 1060 778 1058
3 1058 778 776
3 1058 776 774
3 1058 774 1057
3 1057 774 158
3 1057 158 583
3 1057 583 1059
3 1059 583 586
3 1059 586 1061
3 1061 586 162
3 1061 162 782
3 1061 782 780
3 1063 1062 1064
3 1063 1064 787
3 1063 787 769
3 1063 769 771
3 1063 771 1062
3 1062 771 773
3 1062 773 775
3 1062 775 1064
3 1064 775 777
3 1064 777 790
3 1064 790 787
3 790 777 779
3 790 779 793
3 793 779 1065
3 793 1065 796
3 796 1065 1066
3 796 1066 799
3 799 1066 1067
3 799 1067 593
3 799 593 165
3 799 165 325
3 325 165 168
3 593 1067 591
3 591 1067 589
3 589 1067 783
3 589 783 164
3 783 1067 1066
3 783 1066 781
3 781 1066 1065
3 781 1065 779
3 775 773 315
3 769 787 314
3 314 787 322
3 314 322 319
3 326 170 806
3 320 321 328
3 171 174 1069
3 171 1069 170
3 170 1069 806
3 806 1069 1068
3 806 1068 809
3 809 1068 328
3 809 328 321
3 328 1068 180
3 180 1068 174
3 174 1068 1069
3 1070 1071 1074
3 1070 1074 1072
3 1070 1072 1073
3 1073 1072 619
3 1073 619 186
3 1073 186 817
3 1073 817 1070
3 1070 817 815
3 1070 815 1071
3 1071 815 308
3 1071 308 309
3 1071 309 813
3 1071 813 1074
3 1074 813 615
3 1074 615 617
3 1074 617 1072
3 1072 617 619
3 615 813 329
3 615 329 182
3 186 619 183
3 189 331 816
3 189 816 818
3 189 818 625
3 625 818 188
3 816 331 819
3 816 819 306
3 306 819 305
3 192 340 191
3 191 340 337
3 191 337 332
3 332 337 334
3 1075 1077 1076
3 1077 1080 1081
3 1076 1077 1081
3 1076 1081 1078
3 1076 1078 1079
3 1079 1078 1083
3 1079 1083 1084
3 1081 1080 1085
3 1081 1085 1086
3 1078 1081 1086
3 1078 1086 1082
3 1078 1082 1083
3 1083 1082 938
3 1083 938 203
3 1083 203 1084
3 1084 203 352
3 1084 352 839
3 1084 839 349
3 1084 349 1079
3 1079 349 1076
3 1076 349 1075
3 1075 349 346
3 1075 346 835
3 1075 835 1077
3 1077 835 343
3 1077 343 1080
3 1080 343 341
3 1080 341 194
3 1080 194 1085
3 1085 194 195
3 1085 195 198
3 1085 198 1086
3 1086 198 1082
3 1082 198 938
3 352 203 204
3 941 200 647
3 941 647 650
3 941 650 201
3 207 364 353
3 207 353 206
3 353 364 843
3 843 364 361
3 843 361 848
3 843 848 355
3 355 848 358
3 210 365 209
3 676 222 1088
3 676 1088 213
3 213 1088 212
3 212 1088 1087
3 212 1087 363
3 363 1087 362
3 362 1087 857
3 857 1087 1088
3 857 1088 222
3 1089 1091 1092
3 1090 1089 1092
3 1090 1092 930
3 1090 930 928
3 1090 928 359
3 1090 359 1089
3 1089 359 850
3 1089 850 360
3 1089 360 859
3 1089 859 1091
3 1091 859 224
3 1091 224 934
3 1091 934 1092
3 1092 934 932
3 1092 932 930
3 934 224 225
3 359 928 246
3 246 928 245
3 1094 1097 1098
3 1095 1094 1098
3 1095 1098 692
3 1095 692 694
3 1095 694 1093
3 1095 1093 1094
3 1094 1093 931
3 1094 931 933
3 1094 933 1097
3 1097 933 1096
3 1097 1096 234
3 1097 234 1098
3 1098 234 237
3 1098 237 240
3 1098 240 692
3 234 1096 684
3 684 1096 228
3 228 1096 227
3 227 1096 935
3 935 1096 933
3 931 1093 929
3 929 1093 696
3 929 696 243
3 696 1093 694
3 1099 1100 1101
3 1099 1101 1102
3 1099 1102 1103
3 1099 1103 1104
3 1101 1100 1105
3 1101 1105 1106
3 1101 1106 1107
3 1102 1101 1107
3 1102 1107 1108
3 1106 1105 1109
3 1106 1109 1110
3 1107 1106 1110
3 1107 1110 1111
3 1108 1107 1111
3 1108 1111 1112
3 1111 1110 1113
3 1111 1113 1114
3 1112 1111 1114
3 1112 1114 261
3 1112 261 1108
3 1108 261 880
3 1108 880 1103
3 1108 1103 1102
3 1103 880 373
3 1103 373 1104
3 1104 373 370
3 1104 370 367
3 1104 367 869
3 1104 869 1099
3 1099 869 347
3 1099 347 1100
3 1100 347 348
3 1100 348 1105
3 1105 348 867
3 1105 867 1109
3 1109 867 356
3 1109 356 1110
3 1110 356 357
3 1110 357 1113
3 1113 357 248
3 1113 248 1114
3 1114 248 249
3 1114 249 714
3 1114 714 261
3 264 376 882
3 264 882 1115
3 264 1115 717
3 717 1115 263
3 263 1115 882
3 882 376 374
3 1118 1117 1119
3 1118 1119 895
3 1118 895 892
3 1118 892 890
3 1118 890 1117
3 1117 890 1116
3 1117 1116 266
3 1117 266 267
3 1117 267 1119
3 1119 267 391
3 1119 391 388
3 1119 388 895
3 266 1116 377
3 377 1116 888
3 377 888 379
3 379 888 382
3 888 1116 890
3 892 895 385
3 270 392 269
3 723 276 1120
3 723 1120 273
3 273 1120 272
3 272 1120 390
3 390 1120 389
3 389 1120 904
3 904 1120 276
3 735 282 288
3 735 288 386
3 735 386 1122
3 735 1122 733
3 733 1122 731
3 731 1122 1123
3 731 1123 729
3 729 1123 906
3 729 906 278
3 729 278 279
3 906 1123 387
3 387 1123 1121
3 387 1121 897
3 897 1121 386
3 386 1121 1122
3 1122 1121 1123
3 1124 1125 1126
3 1124 1127 1128
3 1124 1128 1129
3 1124 1129 1125
3 1128 1130 1131
3 1129 1128 1131
3 1129 1131 1132
3 1129 1132 912
3 1129 912 1125
3 1125 912 910
3 1125 910 383
3 1125 383 1126
3 1126 383 889
3 1126 889 891
3 1126 891 1124
3 1124 891 1127
3 1127 891 893
3 1127 893 1130
3 1127 1130 1128
3 1130 893 384
3 1130 384 290
3 1130 290 745
3 1130 745 1131
3 1131 745 748
3 1131 748 1132
3 1132 748 291
3 1132 291 912
3 294 335 336
3 294 336 751
3 751 336 918
3 751 918 913
3 751 913 293
3 913 918 911
3 911 918 394
3 911 394 381
3 381 394 368
3 381 368 369
3 381 369 380
3 297 300 303
3 297 303 820
3 297 820 296
3 296 820 330
3 296 330 333
3 312 318 327
3 312 327 814
3 312 814 767
3 767 814 311
3 1133 1134 1135
3 1134 1136 1137
3 1135 1134 1137
3 1135 1137 808
3 1135 808 811
3 1135 811 1133
3 1133 811 323
3 1133 323 789
3 1133 789 792
3 1133 792 1134
3 1134 792 795
3 1134 795 1136
3 1136 795 798
3 1136 798 801
3 1136 801 1137
3 1137 801 324
3 1137 324 808
3 339 342 919
3 339 919 338
3 919 342 395
3 870 366 393
3 870 393 836
3 870 836 345
3 836 393 344
3 844 354 868
3 844 868 840
3 844 840 351
3 840 868 350
3 372 375 378
3 372 378 371
