ply
format ascii 1.0
comment Generated by PyMesh
element vertex 723
property float x
property float y
property float z
property float nx
property float ny
property float nz
element face 1442
property list uchar int vertex_indices
end_header
-14.412 18.031 142.304 -0.283 -0.862 -0.421
-15.687 17.581 142.576 0.567 -0.562 -0.602
-14.967 18.21 141.931 0.087 -0.981 -0.173
-15.427 17.365 143.27 0.698 -0.669 -0.255
-14.192 17.849 142.89 -0.126 -0.992 -0.002
-15.438 17.23 143.5 0.705 -0.579 -0.409
-15.214 17.643 144.456 0.891 -0.235 0.388
-13.949 18.298 143.928 0.048 -0.671 0.74
-15.139 17.897 144.499 0.841 -0.404 0.359
-15.442 19.822 144.7 0.69 0.559 0.46
-14.205 19.925 144.098 -0.135 0.491 0.861
-14.733 20.349 143.959 0.217 0.207 0.954
-13.497 20.011 141.472 0.904 0.02 -0.428
-13.111 19.626 141.898 0.646 0.277 -0.711
-13.635 20.18 140.817 0.996 -0.092 0.01
-14.084 19.3 140.583 0.675 -0.721 -0.157
-13.56 18.746 141.664 0.326 -0.352 -0.878
-14.005 19.017 141.209 0.622 -0.533 -0.574
-15.504 19.046 140.431 -0.339 -0.902 -0.266
-15.609 18.73 141.037 -0.269 -0.692 -0.67
-16.259 18.461 141.296 0.164 -0.513 -0.843
-15.919 18.049 141.876 0.407 -0.807 -0.428
-15.225 18.265 141.692 -0.056 -0.951 -0.306
-15.957 17.638 142.325 0.432 -0.533 -0.728
-16.174 17.998 141.793 0.225 -0.843 -0.488
-16.259 17.578 142.226 0.282 -0.563 -0.777
-17.095 16.978 141.839 0.839 -0.163 -0.519
-17.016 16.401 142.562 0.879 -0.451 -0.157
-16.18 17.002 142.949 0.321 -0.851 -0.415
-17.107 15.862 142.821 0.94 -0.091 -0.33
-17.05 15.774 143.112 0.981 -0.153 -0.122
-16.112 16.899 143.294 0.355 -0.903 -0.243
-15.971 16.867 143.519 0.261 -0.882 -0.393
-17.468 15.805 144.289 0.682 -0.132 0.719
-16.355 16.895 144.603 -0.059 -0.858 0.51
-16.606 16.935 144.687 0.108 -0.885 0.453
-17.626 15.873 144.427 0.569 -0.083 0.818
-16.794 17.015 144.851 0.014 -0.844 0.535
-17.424 16.863 144.89 0.435 -0.743 0.509
-17.524 17.425 145.47 0.384 -0.462 0.799
-16.894 17.577 145.431 -0.036 -0.563 0.825
-17.746 17.446 145.619 0.532 -0.476 0.7
-17.906 18.173 145.868 0.398 0.13 0.908
-17.1 18.512 145.751 -0.139 -0.096 0.986
-17.73 18.359 145.79 0.281 0.006 0.96
-18.221 20.129 144.779 0.036 0.89 0.454
-17.591 20.281 144.74 -0.384 0.789 0.48
-18.652 20.45 144.467 0.323 0.676 0.662
-18.448 20.738 143.481 0.469 0.882 -0.042
-17.349 20.622 143.573 -0.263 0.959 -0.104
-18.412 21.288 142.319 0.445 0.515 0.732
-18.253 21.308 142.194 0.525 0.525 0.67
-17.19 20.642 143.448 -0.184 0.969 -0.166
-16.401 21.132 142.764 -0.71 0.642 0.29
-15.684 21.101 143.53 -0.311 0.625 0.716
-16.439 20.61 144.251 0.192 0.953 0.235
-16.406 20.563 144.512 0.17 0.984 0.061
-15.666 19.995 144.859 0.786 0.51 0.35
-15.488 19.879 144.696 0.667 0.588 0.458
-14.777 20.404 143.956 0.193 0.238 0.952
-17.838 21.612 141.009 0.732 0.677 0.078
-16.006 21.422 141.633 -0.49 0.804 -0.338
-15.855 21.428 140.959 -0.59 0.8 0.111
-17.847 21.277 139.934 0.727 0.509 -0.46
-15.863 21.145 140.051 -0.596 0.597 -0.537
-18.098 21.397 139.434 0.894 0.429 -0.126
-18.089 20.242 139.04 0.9 -0.25 -0.358
-15.854 20.096 139.693 -0.59 -0.152 -0.793
-17.837 20.035 139.51 0.732 -0.112 -0.672
-17.817 19.072 140.229 0.742 -0.593 -0.312
-15.838 19.283 140.3 -0.578 -0.733 -0.359
-16.593 18.698 141.165 -0.074 -0.343 -0.936
-17.895 18.955 140.286 0.703 -0.652 -0.284
-16.659 18.599 141.213 -0.121 -0.414 -0.902
-17.696 17.64 141.045 0.571 0.225 -0.79
-17.342 17.168 141.427 0.866 -0.169 -0.471
-16.274 18.086 141.628 0.153 -0.781 -0.605
-17.214 17.081 141.645 0.78 -0.111 -0.616
-18.683 17.244 140.839 -0.252 -0.106 -0.962
-18.938 17.179 140.888 -0.082 -0.062 -0.995
-19.164 18.445 140.021 0.069 -0.906 -0.417
-19.361 18.429 140.048 -0.029 -0.915 -0.403
-19.134 17.162 140.915 -0.18 -0.07 -0.981
-20.26 18.173 139.964 0.57 -0.744 -0.347
-20.416 18.045 140.013 0.492 -0.808 -0.323
-19.29 17.034 140.964 -0.258 -0.134 -0.957
-19.934 17.142 140.974 0.171 -0.206 -0.963
-20.082 16.216 141.427 0.097 -0.669 -0.737
-19.437 16.108 141.417 -0.332 -0.597 -0.73
-19.251 15.337 141.651 -0.457 -0.083 -0.886
-17.664 15.356 142.119 0.866 -0.068 -0.496
-17.397 16.132 142.019 0.688 -0.585 -0.429
-17.43 15.634 142.361 0.709 -0.253 -0.658
-19.222 14.709 143.515 -0.432 -0.606 0.667
-19.122 14.932 143.878 -0.499 -0.755 0.425
-20.191 15.263 144.447 0.214 -0.976 0.046
-19.603 16.111 145.18 0.704 -0.269 0.657
-18.483 15.853 144.674 -0.043 -0.097 0.994
-18.456 16.99 145.395 -0.06 -0.856 0.514
-18.325 16.989 145.393 0.049 -0.857 0.513
-18.34 15.851 144.673 0.059 -0.099 0.993
-18.269 16.837 145.181 0.012 -0.756 0.655
-20.306 16.958 145.462 0.119 0.437 0.892
-19.159 17.838 145.676 -0.646 -0.149 0.749
-20.533 17.324 145.385 0.27 0.193 0.943
-20.575 17.448 145.364 0.24 0.282 0.929
-19.198 17.953 145.658 -0.678 -0.054 0.733
-19.391 18.076 145.52 -0.549 -0.136 0.825
-20.819 17.912 145.165 0.066 0.614 0.787
-19.68 18.625 145.285 -0.694 0.139 0.707
-20.535 18.939 144.861 -0.123 -0.071 0.99
-20.167 19.789 144.748 0.061 0.354 0.933
-19.312 19.475 145.172 -0.51 0.563 0.65
-19.574 19.897 144.799 -0.335 0.282 0.899
-19.788 20.969 143.31 0.251 0.944 0.214
-19.253 20.894 143.584 -0.106 0.994 0.031
-19.365 21.474 142.441 -0.031 0.608 0.793
-20.836 21.004 142.82 -0.273 0.961 -0.031
-20.413 21.508 141.951 -0.555 0.625 0.548
-21.312 21.253 141.867 0.044 0.795 0.604
-21.345 21.571 141.253 0.028 0.954 0.297
-20.446 21.826 141.337 -0.572 0.784 0.241
-21.15 21.842 140.761 -0.102 0.774 0.625
-20.693 22.151 140.211 0.126 0.928 0.35
-19.989 22.135 140.787 -0.344 0.939 -0.034
-20.089 22.195 140.226 -0.277 0.899 0.34
-20.586 22.202 139.03 0.18 0.954 -0.241
-19.989 22.242 139.128 -0.218 0.927 -0.306
-20.906 22.413 138.024 0.393 0.813 0.43
-20.773 22.397 137.911 0.471 0.804 0.363
-19.856 22.227 139.015 -0.14 0.917 -0.373
-20.465 22.348 137.738 0.266 0.837 0.479
-19.885 20.57 136.981 0.749 -0.645 -0.151
-19.163 20.101 138.111 0.267 -0.333 -0.904
-20.08 20.272 137.007 0.879 -0.447 -0.169
-20.16 20.119 137.05 0.832 -0.537 -0.143
-19.243 19.948 138.154 0.22 -0.423 -0.879
-19.784 19.734 137.982 0.581 -0.28 -0.765
-19.646 18.927 138.844 0.649 -0.683 -0.334
-19.115 19.198 138.955 0.296 -0.864 -0.408
-18.942 18.912 139.419 0.18 -0.673 -0.717
-20.07 18.503 139.351 0.437 -0.896 -0.08
-19.366 18.487 139.926 -0.032 -0.885 -0.464
-20.265 18.232 139.842 0.568 -0.715 -0.408
-21.133 18.407 138.875 -0.094 -0.943 -0.318
-21.329 18.136 139.367 0.036 -0.763 -0.645
-22.197 18.009 139.001 0.615 -0.678 -0.401
-22.474 17.608 139.796 0.477 -0.879 -0.004
-21.605 17.735 140.162 -0.102 -0.963 -0.248
-22.171 17.641 140.295 0.276 -0.901 -0.336
-22.168 17.638 140.307 0.278 -0.903 -0.329
-21.601 17.732 140.175 -0.1 -0.965 -0.241
-21.199 16.746 141.129 -0.368 -0.308 -0.877
-20.62 16.83 141.024 0.114 -0.239 -0.964
-20.857 17.839 140.04 0.272 -0.911 -0.309
-20.375 16.936 141.002 -0.05 -0.309 -0.95
-21.845 16.672 141.938 -0.907 -0.37 -0.203
-21.95 16.733 142.177 -0.837 -0.411 -0.362
-22.94 17.549 141.274 -0.177 -0.955 0.24
-23.137 18.709 142.425 -0.292 -0.272 0.917
-22.161 17.981 143.415 -0.943 0.214 0.257
-22.167 18.635 143.406 -0.939 -0.223 0.263
-22.138 18.637 143.5 -0.925 -0.222 0.309
-22.133 17.983 143.508 -0.928 0.214 0.304
-22.173 17.657 144.016 -0.902 0.431 -0.035
-21.358 15.791 143.656 -0.32 -0.902 -0.291
-21.168 15.773 143.083 -0.446 -0.89 0.091
-21.066 15.547 143.871 -0.515 -0.739 -0.434
-20.713 15.416 143.814 -0.221 -0.848 -0.482
-20.715 15.606 143.009 -0.219 -0.974 0.054
-19.743 14.863 142.881 -0.867 -0.479 0.14
-22.092 18.721 143.669 -0.901 -0.18 0.394
-22.134 17.728 144.158 -0.873 0.482 0.067
-22.139 18.976 143.738 -0.87 -0.349 0.348
-21.747 19.187 144.305 -0.544 -0.173 0.821
-21.709 17.958 144.775 -0.57 0.646 0.508
-21.588 18.993 144.399 -0.65 -0.044 0.759
-21.844 20.333 143.309 -0.624 0.781 -0.009
-21.712 20.466 143.118 -0.712 0.692 0.118
-22.189 20.715 142.165 -0.394 0.526 0.753
-21.99 20.195 143.312 -0.746 0.666 -0.007
-22.377 20.538 142.169 -0.488 0.438 0.755
-22.889 20.246 142.16 -0.146 0.632 0.761
-23.144 20.638 141.564 -0.296 0.862 0.41
-22.651 20.959 141.527 -0.625 0.649 0.435
-23.52 20.832 141.161 -0.046 0.733 0.679
-23.255 21.273 140.38 0.086 0.954 0.288
-22.386 21.4 140.746 -0.493 0.869 0.044
-22.589 21.734 139.802 -0.358 0.647 0.674
-22.587 21.735 139.802 -0.357 0.647 0.674
-22.384 21.401 140.746 -0.492 0.87 0.044
-22.189 21.672 140.255 -0.622 0.689 0.372
-21.186 22.308 138.649 0.344 0.934 0.097
-20.788 22.245 139.102 0.078 0.976 -0.205
-21.094 22.454 138.091 0.282 0.837 0.469
-23.315 21.64 137.759 -0.72 0.6 -0.348
-23.073 21.833 137.264 -0.882 0.472 -0.018
-23.8 21.33 137.894 -0.397 0.807 -0.438
-23.806 21.318 137.877 -0.4 0.8 -0.447
-23.079 21.821 137.247 -0.885 0.464 -0.027
-23.165 21.729 136.913 -0.828 0.526 0.195
-22.633 20.091 136.219 -0.385 -0.839 -0.383
-22.444 19.862 136.417 -0.512 -0.687 -0.516
-23.171 19.359 137.047 -0.027 -0.352 -0.936
-23.161 19.35 137.051 -0.021 -0.358 -0.934
-22.434 19.853 136.421 -0.506 -0.693 -0.514
-22.627 19.51 136.853 -0.377 -0.465 -0.801
-20.312 19.624 137.509 0.781 -0.408 -0.473
-20.281 19.959 137.031 0.761 -0.631 -0.155
-19.914 19.562 137.962 0.516 -0.366 -0.775
-21.531 18.47 138.422 0.171 -0.985 -0.016
-21.133 18.407 138.875 -0.094 -0.943 -0.318
-22.197 18.01 139 0.615 -0.678 -0.402
-22.121 18.561 137.816 -0.124 -0.939 -0.32
-22.787 18.101 138.394 0.32 -0.633 -0.705
-22.691 18.467 137.946 0.256 -0.877 -0.407
-23.659 21.465 139.217 -0.313 0.886 0.341
-23.829 21.325 139.761 -0.2 0.979 -0.022
-23.163 21.785 139.183 -0.644 0.673 0.364
-22.214 19.033 143.559 -0.933 -0.301 0.199
-23.157 18.858 142.455 -0.304 -0.185 0.935
-22.188 18.795 143.439 -0.95 -0.143 0.279
-25.409 19.597 139.956 -0.99 0.116 0.076
-25.452 19.37 139.966 -0.961 0.267 0.069
-15.076 17.941 142.537 0.16 -0.802 -0.576
-14.863 17.764 143.104 0.322 -0.936 -0.145
-14.884 17.728 143.244 0.336 -0.911 -0.238
-14.694 18.079 144.057 0.545 -0.525 0.654
-14.628 18.199 144.11 0.501 -0.605 0.619
-13.953 18.809 144.224 0.045 -0.307 0.951
-14.632 18.693 144.396 0.498 -0.23 0.836
-15.144 18.501 144.849 0.839 -0.102 0.534
-14.044 19.389 144.285 -0.02 0.108 0.994
-14.72 19.255 144.455 0.431 0.197 0.881
-15.252 19.187 144.92 0.785 0.242 0.57
-14.876 19.774 144.274 0.313 0.591 0.744
-13.805 20.273 143.812 0.151 0.739 0.656
-14.281 20.743 143.635 0.468 0.426 0.774
-13.437 20.425 143.359 0.413 0.848 0.332
-13.866 20.914 143.123 0.699 0.521 0.489
-13.171 20.352 142.823 0.604 0.796 -0.05
-13.565 20.832 142.518 0.866 0.476 0.153
-13.055 20.068 142.303 0.686 0.593 -0.421
-13.434 20.511 141.931 0.939 0.297 -0.173
-13.514 19.887 141.417 0.915 0.103 -0.391
-13.908 19.114 141.212 0.557 -0.598 -0.576
-13.987 18.285 141.868 0.021 -0.681 -0.732
-14.486 18.497 141.439 0.354 -0.822 -0.446
-14.762 18.654 141.075 0.201 -0.734 -0.648
-14.755 18.978 140.465 0.196 -0.95 -0.242
-15.615 18.044 142.073 0.204 -0.803 -0.56
-15.368 17.992 142.302 0.355 -0.836 -0.42
-16.784 16.537 142.968 0.724 -0.541 -0.428
-16.73 16.454 143.243 0.767 -0.606 -0.209
-16.677 16.46 143.385 0.732 -0.61 -0.303
-16.059 16.751 144.101 0.188 -0.978 0.092
-16.75 16.364 143.866 0.648 -0.72 0.249
-17.146 15.649 143.744 0.912 -0.243 0.33
-16.995 16.483 144.281 0.367 -0.583 0.724
-15.799 17.37 144.938 0.405 -0.462 0.789
-15.89 17.546 145.118 0.466 -0.579 0.669
-17.125 16.483 144.357 0.454 -0.584 0.673
-17.275 16.547 144.488 0.335 -0.533 0.777
-17.277 19.217 145.659 -0.227 0.257 0.939
-17.907 19.065 145.698 0.193 0.358 0.913
-17.448 19.836 145.305 -0.313 0.566 0.762
-18.079 19.684 145.344 0.107 0.668 0.736
-18.118 20.282 144.538 -0.033 0.788 0.614
-17.91 20.575 143.535 0.111 0.991 -0.078
-17.721 20.602 143.068 -0.015 0.972 0.233
-18.097 20.838 142.624 0.236 0.815 0.529
-17.587 20.619 142.963 0.081 0.984 0.158
-17.964 20.855 142.519 0.332 0.827 0.454
-16.74 20.786 143.099 -0.484 0.873 0.067
-16.054 20.757 143.831 -0.065 0.855 0.515
-16.423 20.581 144.381 0.181 0.972 0.149
-17.346 20.305 144.858 -0.262 0.801 0.539
-17.226 20.311 144.918 -0.341 0.797 0.499
-17.111 20.327 144.984 -0.418 0.786 0.454
-17.065 19.497 145.6 -0.122 0.396 0.91
-16.978 19.596 145.575 -0.18 0.331 0.926
-16.893 19.698 145.562 -0.237 0.262 0.935
-15.965 19.245 145.504 0.428 0.27 0.862
-16.004 19.372 145.491 0.454 0.185 0.871
-16.037 19.502 145.487 0.477 0.099 0.874
-15.581 19.934 144.775 0.729 0.551 0.406
-15.186 20.09 144.238 0.466 0.447 0.764
-15.144 20.038 144.241 0.491 0.415 0.766
-15.307 20.134 144.294 0.546 0.417 0.726
-16.033 20.692 143.954 -0.079 0.898 0.434
-16.956 20.945 142.382 -0.34 0.766 0.545
-17.621 21.009 142.177 0.104 0.724 0.682
-16.206 21.415 142.233 -0.601 0.799 -0.005
-16.801 21.169 141.962 -0.204 0.963 0.176
-17.463 21.237 141.748 0.237 0.918 0.319
-18.048 21.604 141.638 0.627 0.673 0.392
-16.643 21.175 141.488 -0.065 0.968 -0.241
-17.302 21.243 141.263 0.374 0.923 -0.092
-15.347 21.69 141.739 -0.124 0.952 -0.28
-15.272 21.665 141.052 -0.173 0.969 0.178
-14.63 21.643 141.775 0.275 0.926 -0.259
-14.637 21.623 141.084 0.28 0.939 0.201
-14.004 21.291 141.735 0.622 0.73 -0.282
-14.084 21.312 141.049 0.675 0.716 0.176
-13.598 20.707 141.627 0.848 0.406 -0.342
-13.725 20.795 140.953 0.932 0.347 0.107
-16.521 21.157 140.933 -0.147 0.981 0.129
-17.236 21.223 140.951 0.331 0.937 0.117
-16.526 20.939 140.237 -0.153 0.734 -0.662
-17.243 20.987 140.195 0.324 0.702 -0.634
-16.459 20.866 140.129 -0.198 0.783 -0.59
-17.112 20.817 140.036 0.238 0.816 -0.527
-17.697 21.006 139.787 0.627 0.69 -0.362
-16.454 20.26 139.922 -0.19 -0.262 -0.946
-17.109 20.347 139.875 0.246 -0.32 -0.915
-17.691 20.341 139.56 0.635 -0.316 -0.705
-16.52 20.135 139.962 -0.146 -0.179 -0.973
-17.236 20.113 139.897 0.331 -0.164 -0.929
-16.507 19.512 140.428 -0.131 -0.886 -0.445
-17.222 19.436 140.402 0.345 -0.835 -0.428
-16.163 19.077 140.837 -0.361 -0.596 -0.717
-15.868 18.867 140.953 -0.097 -0.783 -0.614
-17.294 19.01 140.864 0.394 -0.551 -0.736
-17.355 18.919 140.908 0.343 -0.628 -0.699
-17.223 18.139 141.301 0.255 -0.108 -0.961
-16.912 17.724 141.638 0.579 -0.54 -0.612
-16.832 17.667 141.751 0.525 -0.502 -0.687
-16.734 17.583 141.911 0.599 -0.566 -0.567
-18.089 16.441 141.207 0.342 -0.431 -0.835
-18.023 16.67 141.087 0.298 -0.584 -0.755
-19.049 17.934 140.632 -0.008 -0.566 -0.824
-19.221 17.92 140.656 -0.123 -0.575 -0.809
-19.561 17.621 140.824 0.104 -0.376 -0.921
-19.96 17.979 140.487 0.37 -0.615 -0.696
-19.692 17.514 140.865 0.009 -0.454 -0.891
-20.091 17.872 140.528 0.275 -0.693 -0.666
-18.682 16.152 141.244 0.045 -0.576 -0.816
-18.664 15.371 141.516 0.033 -0.055 -0.998
-17.938 16.16 141.464 0.417 -0.571 -0.707
-18.085 15.378 141.687 0.515 -0.049 -0.856
-17.42 15.1 142.875 0.716 -0.635 -0.29
-17.656 14.864 142.592 0.873 -0.477 -0.102
-17.795 14.744 143.406 0.449 -0.889 0.089
-18 14.536 143.081 0.586 -0.751 0.306
-18.431 14.681 143.781 -0.006 -0.934 0.357
-18.586 14.478 143.426 0.098 -0.799 0.593
-19.635 15.229 144.127 -0.157 -0.953 0.26
-18.758 15.24 144.416 -0.24 -0.535 0.81
-19.327 15.49 144.583 0.139 -0.701 0.699
-19.857 15.547 144.943 0.493 -0.739 0.459
-19.093 16.009 144.802 0.364 -0.202 0.909
-18.46 16.507 144.9 -0.058 -0.533 0.844
-18.342 16.505 144.898 0.061 -0.535 0.843
-18.308 16.393 144.832 0.038 -0.46 0.887
-17.583 16.415 144.582 0.54 -0.444 0.715
-19.1 16.673 145.16 0.369 -0.644 0.67
-18.801 17.366 145.696 -0.348 -0.542 0.765
-19.382 16.981 145.407 0.04 -0.285 0.958
-19.948 16.487 145.481 0.417 0.044 0.908
-19.675 17.367 145.391 -0.302 0.165 0.939
-19.803 17.576 145.336 -0.217 0.025 0.976
-19.836 17.674 145.32 -0.253 0.132 0.959
-18.631 18.414 145.883 -0.206 0.331 0.921
-18.663 18.67 145.81 -0.185 0.161 0.969
-19.955 17.749 145.285 -0.173 0.082 0.982
-20.193 18.201 145.091 -0.351 0.421 0.836
-18.749 19.852 145.108 -0.228 0.752 0.618
-19.098 20.216 144.745 0.005 0.509 0.861
-19.547 20.585 144.311 -0.316 0.773 0.551
-20.136 20.602 144.17 0.076 0.761 0.645
-19.298 21.056 142.946 -0.076 0.886 0.457
-18.503 20.901 142.845 0.506 0.773 0.382
-19.905 21.573 142.236 -0.301 0.657 0.691
-20.328 21.068 143.104 -0.019 0.994 0.112
-19.341 22.248 140.655 -0.019 0.995 -0.1
-19.486 22.3 140.104 0.077 0.96 0.268
-18.714 22.126 140.45 0.294 0.934 -0.202
-18.904 22.187 139.913 0.42 0.894 0.156
-18.193 21.787 140.198 0.555 0.765 -0.328
-18.419 21.872 139.679 0.705 0.709 0.018
-20.064 22.307 139.678 -0.262 0.965 0.018
-20.666 22.271 139.622 0.139 0.989 0.056
-20.466 22.144 138.563 0.1 0.993 0.071
-20.349 22.13 138.464 0.189 0.982 -0.005
-20.173 22.109 138.365 0.072 0.996 0.06
-19.247 22.006 138.669 0.218 0.788 -0.576
-19.693 21.936 138.093 0.516 0.835 -0.192
-19.955 22.163 137.448 0.691 0.683 0.238
-18.872 21.464 138.345 0.439 0.469 -0.766
-19.398 21.509 137.838 0.79 0.439 -0.428
-19.641 21.71 137.177 0.952 0.305 0.012
-18.841 20.76 138.139 0.457 0.055 -0.888
-19.373 20.954 137.675 0.812 -0.074 -0.579
-19.616 21.121 137.005 0.974 -0.186 -0.132
-19.627 20.435 137.653 0.577 -0.555 -0.599
-19.743 20.269 137.673 0.654 -0.445 -0.612
-19.813 20.135 137.71 0.6 -0.547 -0.583
-19.155 19.51 138.491 0.272 -0.68 -0.68
-19.689 19.263 138.345 0.628 -0.516 -0.583
-18.49 19.615 138.932 0.663 -0.619 -0.421
-18.269 19.361 139.395 0.516 -0.449 -0.729
-20.774 18.105 139.57 0.313 -0.778 -0.544
-20.579 18.376 139.079 0.183 -0.959 -0.216
-21.352 17.37 140.767 -0.267 -0.724 -0.636
-20.779 17.453 140.663 0.219 -0.654 -0.724
-20.638 17.508 140.645 0.126 -0.691 -0.712
-20.241 17.694 140.62 0.375 -0.574 -0.728
-20.435 16.073 141.566 -0.079 -0.74 -0.668
-20.667 16.159 141.462 0.075 -0.797 -0.599
-21.257 15.968 142.18 -0.491 -0.793 -0.361
-21.307 16.077 141.94 -0.458 -0.866 -0.201
-22.313 17.319 141.741 -0.595 -0.801 -0.072
-22.188 17.013 142.676 -0.956 -0.271 -0.112
-22.511 17.55 142.155 -0.741 -0.629 0.235
-23.162 17.809 141.738 -0.307 -0.802 0.513
-22.262 17.45 143.11 -0.993 -0.052 0.105
-22.572 17.913 142.515 -0.787 -0.36 0.501
-23.231 18.216 142.141 -0.348 -0.562 0.75
-22.488 18.353 142.767 -0.724 -0.034 0.689
-22.248 17.384 143.187 -0.986 -0.085 0.143
-22.271 17.151 143.744 -0.971 0.07 -0.228
-22.101 16.74 142.991 -0.912 -0.407 0.045
-22.146 16.607 143.578 -0.882 -0.318 -0.347
-21.718 16.169 142.953 -0.721 -0.693 0.026
-21.822 16.125 143.547 -0.651 -0.663 -0.369
-20.15 15.339 142.931 -0.595 -0.796 0.106
-20.7 15.672 142.372 -0.212 -0.941 -0.264
-20.139 15.393 142.418 -0.586 -0.754 -0.295
-19.732 14.914 142.386 -0.858 -0.435 -0.273
-20.476 15.888 141.812 -0.1 -0.833 -0.545
-19.958 15.567 141.966 -0.445 -0.618 -0.647
-19.558 15.082 141.95 -0.712 -0.295 -0.637
-19.64 15.831 141.657 -0.197 -0.412 -0.889
-20.111 15.282 143.384 -0.622 -0.758 -0.196
-19.683 15.156 143.904 -0.125 -0.905 0.408
-21.364 15.67 144.523 -0.763 -0.637 0.109
-21.682 15.924 144.365 -0.551 -0.806 0.215
-21.3 16.046 145.143 -0.71 -0.323 0.626
-21.613 16.333 145.038 -0.501 -0.515 0.696
-20.897 16.536 145.5 -0.374 0.085 0.923
-21.176 16.865 145.426 -0.189 -0.134 0.973
-22.052 18.135 143.742 -0.983 0.113 0.148
-22.011 18.208 143.887 -0.955 0.163 0.248
-21.989 18.341 143.913 -0.97 0.074 0.231
-21.634 18.532 144.428 -0.62 0.263 0.74
-21.579 18.441 144.515 -0.656 0.324 0.682
-20.674 18.395 144.912 -0.031 0.292 0.956
-21.186 20.21 144.266 -0.449 0.565 0.693
-21.435 20.134 144.202 -0.283 0.616 0.735
-21.939 20.425 142.681 -0.56 0.72 0.41
-22.09 20.283 142.684 -0.679 0.608 0.412
-21.893 21.564 141.032 -0.246 0.951 0.187
-21.698 21.835 140.54 -0.376 0.771 0.514
-21.767 22.067 139.938 -0.411 0.886 0.213
-22.165 22.129 139.485 -0.145 0.845 0.515
-21.281 22.265 139.538 -0.168 0.986 0.014
-21.679 22.328 139.086 0.097 0.944 0.315
-21.681 22.573 138.001 -0.063 0.907 0.416
-21.817 22.437 138.552 0.028 0.998 0.048
-22.253 22.5 137.815 -0.399 0.864 0.307
-22.433 22.358 138.352 -0.279 0.959 -0.051
-22.737 22.242 137.559 -0.684 0.712 0.156
-22.954 22.08 138.076 -0.54 0.82 -0.189
-23.112 21.769 137.079 -0.863 0.499 0.085
-22.56 22.324 136.798 -0.58 0.761 -0.292
-22.639 22.229 136.67 -0.527 0.825 -0.206
-22.73 22.15 136.538 -0.466 0.877 -0.118
-21.952 22.279 136.203 -0.222 0.734 -0.642
-22.085 22.187 136.128 -0.133 0.795 -0.591
-22.222 22.112 136.04 -0.042 0.845 -0.533
-21.533 21.705 135.734 0.024 0.397 -0.918
-21.703 21.664 135.7 0.138 0.424 -0.895
-21.871 21.632 135.647 0.25 0.445 -0.86
-21.493 20.865 135.604 0.048 -0.098 -0.994
-21.667 20.898 135.582 0.164 -0.12 -0.979
-21.838 20.929 135.539 0.277 -0.141 -0.95
-21.851 20.14 135.873 -0.163 -0.524 -0.836
-21.994 20.238 135.827 -0.068 -0.589 -0.805
-22.138 20.323 135.763 0.028 -0.646 -0.763
-22.534 19.985 136.323 -0.452 -0.769 -0.453
-21.882 19.597 136.434 -0.181 -0.843 -0.506
-22.034 19.236 136.866 -0.08 -0.602 -0.794
-21.289 19.528 136.552 0.167 -0.884 -0.437
-21.396 19.161 136.993 0.239 -0.639 -0.731
-20.732 19.654 136.76 0.495 -0.81 -0.314
-20.797 19.297 137.217 0.539 -0.572 -0.619
-20.224 19.01 138.158 0.361 -0.642 -0.677
-20.622 19.073 137.705 0.626 -0.684 -0.375
-20.646 18.61 138.474 0.149 -0.842 -0.518
-21.044 18.673 138.022 0.415 -0.884 -0.217
-21.697 18.308 138.982 0.282 -0.877 -0.389
-21.697 18.307 138.982 0.282 -0.877 -0.389
-23.465 18.129 138.233 -0.018 -0.618 -0.786
-23.32 18.494 137.797 -0.114 -0.861 -0.495
-24.11 18.389 138.198 -0.341 -0.488 -0.803
-23.921 18.735 137.764 -0.467 -0.719 -0.514
-24.63 18.843 138.293 -0.601 -0.261 -0.755
-24.404 19.157 137.853 -0.752 -0.471 -0.462
-24.949 19.425 138.506 -0.76 0.03 -0.649
-24.7 19.698 138.051 -0.926 -0.153 -0.345
-25.02 20.05 138.805 -0.796 0.342 -0.499
-24.766 20.28 138.329 -0.965 0.189 -0.182
-24.833 20.628 139.147 -0.703 0.631 -0.328
-24.593 20.817 138.647 -0.863 0.505 0.005
-24.416 21.075 139.482 -0.494 0.854 -0.161
-24.205 21.232 138.958 -0.635 0.75 0.188
-23.293 21.85 138.463 -0.709 0.705 0.004
-23.78 21.525 138.548 -0.385 0.922 -0.053
-22.905 18.817 137.397 0.13 -0.671 -0.73
-22.352 18.937 137.225 -0.239 -0.752 -0.615
-22.872 19.811 136.728 -0.226 -0.653 -0.723
-23.793 19.927 137.075 -0.392 -0.018 -0.92
-23.386 20.279 136.751 -0.664 -0.253 -0.704
-23.153 20.565 136.242 -0.819 -0.444 -0.364
-24.034 20.67 137.389 -0.534 0.419 -0.734
-23.585 20.893 137.011 -0.834 0.27 -0.482
-23.355 21.187 136.505 -0.987 0.074 -0.145
-23.397 21.428 137.414 -0.673 0.727 -0.138
-23.943 20.448 141.405 -0.257 0.541 0.801
-23.537 20.281 141.79 -0.528 0.653 0.544
-24.251 19.926 141.539 -0.412 0.28 0.867
-23.824 19.796 141.914 -0.696 0.367 0.617
-24.409 19.325 141.546 -0.491 -0.02 0.871
-23.971 19.237 141.922 -0.783 0.038 0.621
-24.399 18.716 141.427 -0.486 -0.325 0.812
-23.961 18.671 141.811 -0.777 -0.295 0.556
-24.221 18.168 141.195 -0.397 -0.599 0.696
-23.796 18.161 141.595 -0.68 -0.595 0.429
-23.897 17.744 140.877 -0.234 -0.811 0.536
-23.494 17.767 141.299 -0.502 -0.826 0.255
-23.463 17.495 140.509 -0.017 -0.936 0.353
-23.091 17.535 140.957 -0.265 -0.963 0.054
-22.969 17.448 140.135 0.229 -0.959 0.165
-22.632 17.492 140.609 0.005 -0.989 -0.151
-22.342 20.079 142.654 -0.511 0.743 0.432
-23.197 19.608 142.412 -0.328 0.256 0.909
-22.582 19.582 142.85 -0.738 0.274 0.617
-22.248 19.661 143.523 -0.96 0.221 0.169
-22.551 18.999 142.883 -0.708 -0.278 0.649
-22.554 18.858 142.831 -0.706 -0.184 0.684
-22.535 18.719 142.803 -0.693 -0.279 0.664
-22.256 17.278 141.601 -0.633 -0.774 0.022
-22.63 17.478 140.719 0.006 -0.996 -0.086
-22.021 17.225 141.182 -0.4 -0.827 -0.395
-21.586 16.613 141.474 -0.69 -0.419 -0.589
-21.672 17.345 140.87 -0.053 -0.707 -0.705
-20.293 20.513 136.304 0.754 -0.305 -0.582
-20.063 20.772 136.393 0.601 -0.477 -0.642
-20.593 21.105 135.908 0.577 0.044 -0.815
-20.314 21.267 136.061 0.391 -0.064 -0.918
-20.868 21.825 135.967 0.415 0.467 -0.781
-20.545 21.869 136.111 0.199 0.438 -0.877
-21.015 22.403 136.459 0.329 0.807 -0.491
-20.668 22.352 136.523 0.097 0.84 -0.533
-20.979 22.621 137.2 0.35 0.935 -0.055
-20.637 22.535 137.143 0.122 0.992 -0.017
-18.901 17.968 140.598 -0.106 -0.588 -0.802
-18.477 18.653 139.992 0.412 -0.803 -0.431
-18.387 18.124 140.576 0.352 -0.45 -0.821
-18.149 17.406 140.816 0.194 0.029 -0.981
-17.951 18.35 140.797 0.741 -0.248 -0.624
-25.318 19.155 139.186 -0.945 -0.105 -0.309
-25.382 19.026 139.367 -0.903 -0.02 -0.43
-25.014 18.316 139.186 -0.793 -0.525 -0.309
-25.145 18.374 139.367 -0.705 -0.564 -0.43
-24.8 17.919 139.956 -0.686 -0.724 0.076
-24.979 18.065 139.966 -0.567 -0.821 0.069
-24.89 18.361 140.726 -0.731 -0.503 0.461
-25.049 18.408 140.565 -0.625 -0.535 0.569
-25.195 19.2 140.726 -0.883 -0.083 0.461
-25.286 19.061 140.565 -0.823 0.009 0.569
-17.465 20.709 142.626 0 0.924 0.383
-16.704 19.244 140.821 0 -0.707 -0.707
-12.616 19.238 142.893 1 0 0
-12.755 19.845 142.893 0.901 0.434 0
-12.755 19.542 143.419 0.901 0.217 0.376
-12.755 18.934 143.419 0.901 -0.217 0.376
-12.755 18.631 142.893 0.901 -0.434 -0
-12.755 18.934 142.367 0.901 -0.217 -0.376
-12.755 19.542 142.367 0.901 0.217 -0.376
-13.143 20.159 143.485 0.623 0.658 0.423
-13.143 19.693 143.889 0.623 0.325 0.711
-13.143 19.082 143.976 0.623 -0.111 0.774
-13.143 18.521 143.72 0.623 -0.512 0.591
-13.143 18.188 143.201 0.623 -0.75 0.22
-13.143 18.188 142.585 0.623 -0.75 -0.22
-13.143 18.521 142.066 0.623 -0.512 -0.591
-13.704 19.542 144.224 0.223 0.217 0.95
-13.704 17.873 142.893 0.223 -0.975 0
-13.704 18.008 142.301 0.223 -0.878 -0.423
-15.684 16.928 144.284 0.5 -0.831 0.244
-15.646 18.704 145.398 0.588 -0 0.809
-15.646 18.085 145.275 0.588 -0.31 0.747
-16.204 18.547 145.676 0.309 -0.079 0.948
-16.204 17.94 145.522 0.309 -0.382 0.871
-16.822 18.853 145.774 -0 0.075 0.997
-13.745 21.133 142.242 0.766 0.643 0
-14.224 21.535 142.242 0.5 0.866 0
-14.224 21.416 142.839 0.5 0.8 0.331
-14.811 21.749 142.242 0.174 0.985 0
-14.811 21.642 142.848 0.174 0.925 0.337
-14.811 21.334 143.381 0.174 0.754 0.633
-15.437 21.749 142.242 -0.174 0.985 0
-15.437 21.642 142.848 -0.174 0.925 0.337
-15.437 21.334 143.381 -0.174 0.754 0.633
-16.024 21.416 142.839 -0.5 0.8 0.331
-13.768 20.005 140.277 0.901 -0.217 -0.376
-13.768 20.613 140.277 0.901 0.217 -0.376
-14.156 19.592 139.976 0.623 -0.512 -0.591
-14.156 20.153 139.72 0.623 -0.111 -0.774
-14.156 20.764 139.807 0.623 0.325 -0.711
-14.156 21.23 140.211 0.623 0.658 -0.423
-14.717 19.458 139.736 0.223 -0.608 -0.762
-14.717 20.005 139.472 0.223 -0.217 -0.95
-14.717 20.613 139.472 0.223 0.217 -0.95
-14.717 21.16 139.736 0.223 0.608 -0.762
-14.717 21.539 140.211 0.223 0.878 -0.423
-15.341 19.458 139.736 -0.223 -0.608 -0.762
-15.341 20.005 139.472 -0.223 -0.217 -0.95
-15.341 20.613 139.472 -0.223 0.217 -0.95
-15.341 21.16 139.736 -0.223 0.608 -0.762
-15.341 21.539 140.211 -0.223 0.878 -0.423
-17.55 15.272 144.109 0.623 -0.512 0.591
-17.55 14.939 143.59 0.623 -0.75 0.22
-18.111 15.138 144.349 0.223 -0.608 0.762
-18.384 17.591 145.9 -0 -0.355 0.935
-18.293 19.079 145.733 -0 0.365 0.931
-18.911 19.388 145.463 -0.309 0.52 0.796
-18.126 21.876 140.854 0.588 0.809 0
-18.684 22.16 140.854 0.309 0.951 0
-18.684 22.057 141.472 0.309 0.9 0.309
-18.684 21.759 142.022 0.309 0.751 0.584
-19.302 22.169 141.444 -0 0.956 0.295
-19.302 21.91 141.981 -0 0.826 0.563
-19.92 22.057 141.472 -0.309 0.9 0.309
-16.009 19.815 145.384 0.5 0.36 0.788
-16.609 20.446 144.997 -0 0.885 0.465
-16.609 20.065 145.427 -0 0.568 0.823
-18.316 20.511 138.566 0.766 -0.091 -0.636
-18.316 21.121 138.654 0.766 0.267 -0.585
-18.316 21.586 139.057 0.766 0.541 -0.348
-18.768 19.931 138.373 0.5 -0.433 -0.75
-18.768 22.012 139.049 0.5 0.791 -0.352
-19.323 22.341 139.648 0.174 0.985 0
-18.126 19.114 139.71 0.588 -0.572 -0.572
-18.103 14.44 142.421 0.5 -0.831 -0.244
-18.103 14.756 141.929 0.5 -0.567 -0.654
-18.703 14.272 143.001 -0 -0.971 0.239
-18.703 14.272 142.427 -0 -0.971 -0.239
-18.703 14.539 141.918 -0 -0.749 -0.663
-18.703 15.011 141.592 -0 -0.355 -0.935
-19.303 14.44 143.007 -0.5 -0.831 0.244
-19.303 14.44 142.421 -0.5 -0.831 -0.244
-19.303 14.756 141.929 -0.5 -0.567 -0.654
-20.448 16.008 145.514 -0 -0.355 0.935
-20.448 15.536 145.188 -0 -0.749 0.663
-20.448 15.269 144.679 -0 -0.971 0.239
-21.048 15.753 145.177 -0.5 -0.567 0.654
-21.048 15.437 144.685 -0.5 -0.831 0.244
-21.223 17.357 145.395 -0.223 0.217 0.95
-21.784 17.508 145.06 -0.623 0.325 0.711
-21.784 16.897 145.147 -0.623 -0.111 0.774
-22.172 17.357 144.59 -0.901 0.217 0.376
-22.172 16.749 144.59 -0.901 -0.217 0.376
-22.172 16.446 144.064 -0.901 -0.434 -0
-22.311 17.053 144.064 -1 0 0
-20.289 20.992 143.471 -0 0.956 0.295
-20.907 20.88 143.499 -0.309 0.9 0.309
-20.907 20.582 144.049 -0.309 0.751 0.584
-20.907 19.548 144.725 -0.309 0.233 0.922
-22.019 21.163 141.826 -0.309 0.751 0.584
-20.724 19.84 136.429 0.5 -0.701 -0.509
-20.724 20.295 136.019 0.5 -0.433 -0.75
-21.279 22.705 137.294 0.174 0.985 0
-21.279 20.022 135.958 0.174 -0.593 -0.786
-21.869 22.705 137.294 -0.174 0.985 0
-21.869 22.592 136.689 -0.174 0.918 -0.356
-22.424 22.503 137.294 -0.5 0.866 0
-19.745 21.044 136.643 0.866 -0.25 -0.433
-19.745 21.644 136.643 0.866 0.25 -0.433
-20.184 22.383 137.163 0.5 0.866 0
-20.184 21.776 136.218 0.5 0.36 -0.788
-20.184 22.218 136.601 0.5 0.729 -0.468
-22.81 17.49 139.491 0.309 -0.938 -0.157
-22.81 17.693 138.899 0.309 -0.836 -0.453
-23.428 17.388 139.506 -0 -0.989 -0.149
-23.428 17.564 138.936 -0 -0.901 -0.434
-24.046 21.165 140.422 -0.309 0.9 0.309
-24.046 20.867 140.972 -0.309 0.751 0.584
-24.046 17.49 140.117 -0.309 -0.938 0.157
-24.046 17.49 139.491 -0.309 -0.938 -0.157
-24.046 17.693 138.899 -0.309 -0.836 -0.453
-24.604 20.984 139.804 -0.588 0.809 0
-24.604 20.861 140.423 -0.588 0.747 0.31
-24.604 20.51 140.948 -0.588 0.572 0.572
-24.604 19.985 141.299 -0.588 0.31 0.747
-24.604 18.222 140.948 -0.588 -0.572 0.572
-24.604 17.871 139.185 -0.588 -0.747 -0.31
-24.604 18.222 138.66 -0.588 -0.572 -0.572
-25.046 20.542 139.804 -0.809 0.588 0
-25.046 20.384 140.392 -0.809 0.509 0.294
-25.046 19.954 140.822 -0.809 0.294 0.509
-25.33 19.984 139.804 -0.951 0.309 0
-23.49 19.627 142.266 -0.5 0.268 0.824
-23.49 19.018 142.33 -0.5 -0.091 0.861
-23.49 17.981 141.731 -0.5 -0.701 0.509
-22.134 19.695 143.84 -0.866 0.25 0.433
-22.492 22.239 139.073 -0.309 0.9 0.309
-23.421 18.949 137.302 -0.174 -0.593 -0.786
-23.976 19.222 137.363 -0.5 -0.433 -0.75
-24.428 19.802 137.556 -0.766 -0.091 -0.636
-24.428 20.412 137.644 -0.766 0.267 -0.585
-24.428 20.877 138.047 -0.766 0.541 -0.348
-22.171 21.243 135.488 -0 0.121 -0.993
-22.771 20.417 135.894 -0.5 -0.567 -0.654
-22.771 20.95 135.65 -0.5 -0.123 -0.857
-22.771 21.53 135.734 -0.5 0.36 -0.788
-22.771 21.972 136.117 -0.5 0.729 -0.468
-23.21 21.398 136.159 -0.866 0.25 -0.433
-21.256 18.767 137.55 0.309 -0.836 -0.453
-25.338 18.75 140.403 -0.866 -0.25 0.433
-25.338 18.45 139.883 -0.866 -0.5 -0
-25.499 19.05 139.883 -1 0 0
3 0 4 224
3 224 4 225
3 224 225 1
3 1 225 3
3 4 7 226
3 226 7 227
3 226 227 5
3 5 227 6
3 7 229 228
3 228 229 230
3 228 230 8
3 8 230 231
3 229 232 230
3 230 232 233
3 230 233 231
3 231 233 234
3 232 10 233
3 233 10 235
3 233 235 234
3 234 235 9
3 10 236 11
3 11 236 237
3 236 238 237
3 237 238 239
3 238 240 239
3 239 240 241
3 240 242 241
3 241 242 243
3 242 13 243
3 243 13 12
3 13 16 244
3 244 16 245
3 244 245 14
3 14 245 15
3 16 246 17
3 17 246 247
3 246 0 247
3 247 0 2
3 17 248 15
3 15 248 249
3 248 19 249
3 249 19 18
3 19 22 20
3 20 22 21
3 22 2 250
3 250 2 251
3 250 251 23
3 23 251 1
3 23 25 21
3 21 25 24
3 25 28 26
3 26 28 27
3 28 31 252
3 252 31 253
3 252 253 29
3 29 253 30
3 31 3 32
3 32 3 5
3 32 255 254
3 254 255 256
3 254 256 30
3 30 256 257
3 255 34 256
3 256 34 258
3 256 258 257
3 257 258 33
3 34 259 35
3 35 259 260
3 259 6 260
3 260 6 8
3 35 37 261
3 261 37 262
3 261 262 33
3 33 262 36
3 37 40 38
3 38 40 39
3 40 43 41
3 41 43 42
3 43 263 44
3 44 263 264
3 263 265 264
3 264 265 266
3 265 46 266
3 266 46 45
3 46 49 267
3 267 49 268
3 267 268 47
3 47 268 48
3 49 52 269
3 269 52 271
3 269 271 270
3 270 271 272
3 270 272 50
3 50 272 51
3 52 55 273
3 273 55 274
3 273 274 53
3 53 274 54
3 55 276 275
3 275 276 277
3 275 277 56
3 56 277 278
3 276 279 277
3 277 279 280
3 277 280 278
3 278 280 281
3 279 282 280
3 280 282 283
3 280 283 281
3 281 283 284
3 282 58 283
3 283 58 285
3 283 285 284
3 284 285 57
3 58 9 286
3 286 9 287
3 286 287 59
3 59 287 11
3 59 54 288
3 288 54 289
3 288 289 57
3 57 289 56
3 53 292 290
3 290 292 293
3 290 293 291
3 291 293 294
3 291 294 51
3 51 294 295
3 292 61 293
3 293 61 296
3 293 296 294
3 294 296 297
3 294 297 295
3 295 297 60
3 61 298 62
3 62 298 299
3 298 300 299
3 299 300 301
3 300 302 301
3 301 302 303
3 302 304 303
3 303 304 305
3 304 12 305
3 305 12 14
3 62 64 306
3 306 64 308
3 306 308 307
3 307 308 309
3 307 309 60
3 60 309 63
3 64 67 310
3 310 67 313
3 310 313 311
3 311 313 314
3 311 314 312
3 312 314 315
3 312 315 65
3 65 315 66
3 67 70 316
3 316 70 318
3 316 318 317
3 317 318 319
3 317 319 68
3 68 319 69
3 70 18 320
3 320 18 321
3 320 321 71
3 71 321 20
3 71 73 322
3 322 73 323
3 322 323 69
3 69 323 72
3 73 76 324
3 324 76 325
3 324 325 74
3 74 325 75
3 76 24 326
3 326 24 327
3 326 327 77
3 77 327 26
3 77 328 75
3 75 328 329
3 328 79 329
3 329 79 78
3 79 82 330
3 330 82 331
3 330 331 80
3 80 331 81
3 82 85 332
3 332 85 334
3 332 334 333
3 333 334 335
3 333 335 83
3 83 335 84
3 85 88 86
3 86 88 87
3 88 336 89
3 89 336 337
3 336 338 337
3 337 338 339
3 338 91 339
3 339 91 90
3 91 27 92
3 92 27 29
3 92 340 90
3 90 340 341
3 340 342 341
3 341 342 343
3 342 344 343
3 343 344 345
3 344 94 345
3 345 94 93
3 94 347 346
3 346 347 348
3 346 348 95
3 95 348 349
3 347 97 348
3 348 97 350
3 348 350 349
3 349 350 96
3 97 100 351
3 351 100 352
3 351 352 98
3 98 352 99
3 100 36 353
3 353 36 354
3 353 354 101
3 101 354 38
3 101 39 99
3 99 39 41
3 98 356 355
3 355 356 357
3 355 357 96
3 96 357 358
3 356 103 357
3 357 103 359
3 357 359 358
3 358 359 102
3 103 106 360
3 360 106 361
3 360 361 104
3 104 361 105
3 106 362 107
3 107 362 363
3 362 42 363
3 363 42 44
3 107 109 364
3 364 109 365
3 364 365 105
3 105 365 108
3 109 112 110
3 110 112 111
3 112 366 113
3 113 366 367
3 366 45 367
3 367 45 47
3 113 368 111
3 111 368 369
3 368 115 369
3 369 115 114
3 115 48 370
3 370 48 371
3 370 371 116
3 116 371 50
3 116 372 114
3 114 372 373
3 372 118 373
3 373 118 117
3 118 121 119
3 119 121 120
3 121 124 122
3 122 124 123
3 124 374 125
3 125 374 375
3 374 376 375
3 375 376 377
3 376 378 377
3 377 378 379
3 378 63 379
3 379 63 65
3 125 380 123
3 123 380 381
3 380 127 381
3 381 127 126
3 127 130 382
3 382 130 383
3 382 383 128
3 128 383 129
3 130 385 384
3 384 385 386
3 384 386 131
3 131 386 387
3 385 388 386
3 386 388 389
3 386 389 387
3 387 389 390
3 388 391 389
3 389 391 392
3 389 392 390
3 390 392 393
3 391 133 392
3 392 133 394
3 392 394 393
3 393 394 132
3 133 136 395
3 395 136 396
3 395 396 134
3 134 396 135
3 136 397 137
3 137 397 398
3 397 139 398
3 398 139 138
3 139 399 140
3 140 399 400
3 399 66 400
3 400 66 68
3 140 142 138
3 138 142 141
3 142 81 143
3 143 81 83
3 143 401 141
3 141 401 402
3 401 145 402
3 402 145 144
3 145 148 146
3 146 148 147
3 148 151 149
3 149 151 150
3 151 154 403
3 403 154 404
3 403 404 152
3 152 404 153
3 154 84 405
3 405 84 406
3 405 406 155
3 155 406 86
3 155 407 153
3 153 407 408
3 407 409 408
3 408 409 410
3 409 157 410
3 410 157 156
3 157 412 411
3 411 412 413
3 411 413 158
3 158 413 414
3 412 415 413
3 413 415 416
3 413 416 414
3 414 416 417
3 415 160 416
3 416 160 418
3 416 418 417
3 417 418 159
3 160 163 161
3 161 163 162
3 163 419 164
3 164 419 420
3 419 421 420
3 420 421 422
3 421 423 422
3 422 423 424
3 423 166 424
3 424 166 165
3 166 169 167
3 167 169 168
3 169 426 425
3 425 426 427
3 425 427 170
3 170 427 428
3 426 429 427
3 427 429 430
3 427 430 428
3 428 430 431
3 429 87 430
3 430 87 432
3 430 432 431
3 431 432 89
3 170 93 433
3 433 93 434
3 433 434 168
3 168 434 95
3 167 435 165
3 165 435 436
3 435 437 436
3 436 437 438
3 437 439 438
3 438 439 440
3 439 102 440
3 440 102 104
3 164 172 441
3 441 172 442
3 441 442 162
3 162 442 171
3 172 175 443
3 443 175 444
3 443 444 173
3 173 444 174
3 175 108 445
3 445 108 446
3 445 446 176
3 176 446 110
3 176 447 174
3 174 447 448
3 447 178 448
3 448 178 177
3 178 117 179
3 179 117 119
3 179 181 449
3 449 181 450
3 449 450 177
3 177 450 180
3 181 184 182
3 182 184 183
3 184 187 185
3 185 187 186
3 187 190 188
3 188 190 189
3 190 451 191
3 191 451 452
3 451 120 452
3 452 120 122
3 191 453 189
3 189 453 454
3 453 455 454
3 454 455 456
3 455 193 456
3 456 193 192
3 193 126 194
3 194 126 128
3 194 457 192
3 192 457 458
3 457 459 458
3 458 459 460
3 459 461 460
3 460 461 462
3 461 196 462
3 462 196 195
3 196 199 197
3 197 199 198
3 199 464 463
3 463 464 465
3 463 465 200
3 200 465 466
3 464 467 465
3 465 467 468
3 465 468 466
3 466 468 469
3 467 470 468
3 468 470 471
3 468 471 469
3 469 471 472
3 470 473 471
3 471 473 474
3 471 474 472
3 472 474 475
3 473 476 474
3 474 476 477
3 474 477 475
3 475 477 478
3 476 202 477
3 477 202 479
3 477 479 478
3 478 479 201
3 202 205 203
3 203 205 204
3 205 480 206
3 206 480 481
3 480 482 481
3 481 482 483
3 482 484 483
3 483 484 485
3 484 208 485
3 485 208 207
3 208 135 209
3 209 135 137
3 209 486 207
3 207 486 487
3 486 488 487
3 487 488 489
3 488 211 489
3 489 211 210
3 211 144 490
3 490 144 491
3 490 491 212
3 212 491 146
3 212 214 210
3 210 214 213
3 214 492 215
3 215 492 493
3 492 494 493
3 493 494 495
3 494 496 495
3 495 496 497
3 496 498 497
3 497 498 499
3 498 500 499
3 499 500 501
3 500 502 501
3 501 502 503
3 502 504 503
3 503 504 505
3 504 217 505
3 505 217 216
3 217 186 218
3 218 186 188
3 218 506 216
3 216 506 507
3 506 195 507
3 507 195 197
3 215 508 213
3 213 508 509
3 508 204 509
3 509 204 206
3 203 511 510
3 510 511 512
3 510 512 201
3 201 512 513
3 511 514 512
3 512 514 515
3 512 515 513
3 513 515 516
3 514 198 515
3 515 198 517
3 515 517 516
3 516 517 200
3 185 518 183
3 183 518 519
3 518 520 519
3 519 520 521
3 520 522 521
3 521 522 523
3 522 524 523
3 523 524 525
3 524 526 525
3 525 526 527
3 526 528 527
3 527 528 529
3 528 530 529
3 529 530 531
3 530 532 531
3 531 532 533
3 532 147 533
3 533 147 149
3 182 535 534
3 534 535 536
3 534 536 180
3 180 536 537
3 535 220 536
3 536 220 538
3 536 538 537
3 537 538 219
3 220 159 539
3 539 159 540
3 539 540 221
3 221 540 161
3 221 171 219
3 219 171 173
3 158 542 541
3 541 542 543
3 541 543 156
3 156 543 544
3 542 150 543
3 543 150 545
3 543 545 544
3 544 545 152
3 134 546 132
3 132 546 547
3 546 548 547
3 547 548 549
3 548 550 549
3 549 550 551
3 550 552 551
3 551 552 553
3 552 554 553
3 553 554 555
3 554 129 555
3 555 129 131
3 80 557 556
3 556 557 558
3 556 558 78
3 78 558 559
3 557 72 558
3 558 72 560
3 558 560 559
3 559 560 74
3 222 561 223
3 223 561 562
3 561 563 562
3 562 563 564
3 563 565 564
3 564 565 566
3 565 567 566
3 566 567 568
3 567 569 568
3 568 569 570
3 569 222 570
3 570 222 223
3 2 0 224
3 2 224 251
3 251 224 1
3 5 3 226
3 226 3 225
3 226 225 4
3 8 6 227
3 8 227 228
3 228 227 7
3 287 9 235
3 287 235 11
3 11 235 10
3 14 12 244
3 244 12 13
3 17 15 245
3 17 245 16
3 321 18 19
3 321 19 20
3 23 21 250
3 250 21 22
3 327 24 25
3 327 25 26
3 29 27 252
3 252 27 28
3 254 30 253
3 254 253 31
3 254 31 32
3 261 33 258
3 261 258 35
3 35 258 34
3 354 36 262
3 354 262 38
3 38 262 37
3 41 39 40
3 44 42 43
3 47 45 267
3 267 45 46
3 371 48 269
3 371 269 270
3 371 270 50
3 269 48 268
3 269 268 49
3 291 51 272
3 291 272 571
3 291 571 290
3 290 571 273
3 290 273 53
3 273 571 271
3 273 271 52
3 271 571 272
3 289 54 274
3 289 274 55
3 289 55 275
3 289 275 56
3 288 57 285
3 288 285 58
3 288 58 286
3 288 286 59
3 307 60 297
3 307 297 296
3 307 296 306
3 306 296 61
3 306 61 62
3 65 63 312
3 312 63 309
3 312 309 311
3 311 309 308
3 311 308 310
3 310 308 64
3 68 66 315
3 68 315 317
3 317 315 314
3 317 314 316
3 316 314 313
3 316 313 67
3 322 69 319
3 322 319 572
3 322 572 71
3 71 572 320
3 320 572 318
3 320 318 70
3 318 572 319
3 560 72 323
3 560 323 324
3 560 324 74
3 324 323 73
3 77 75 325
3 77 325 326
3 326 325 76
3 556 78 330
3 556 330 80
3 330 78 79
3 83 81 333
3 333 81 331
3 333 331 332
3 332 331 82
3 406 84 335
3 406 335 334
3 406 334 86
3 86 334 85
3 432 87 88
3 432 88 89
3 92 90 91
3 434 93 94
3 434 94 346
3 434 346 95
3 355 96 350
3 355 350 351
3 355 351 98
3 351 350 97
3 101 99 352
3 101 352 353
3 353 352 100
3 104 102 360
3 360 102 359
3 360 359 103
3 364 105 361
3 364 361 107
3 107 361 106
3 446 108 365
3 446 365 110
3 110 365 109
3 113 111 112
3 116 114 370
3 370 114 115
3 119 117 118
3 122 120 121
3 125 123 124
3 128 126 382
3 382 126 127
3 131 129 383
3 131 383 384
3 384 383 130
3 134 132 395
3 395 132 394
3 395 394 133
3 137 135 396
3 137 396 136
3 140 138 139
3 143 141 142
3 491 144 145
3 491 145 146
3 149 147 148
3 545 150 151
3 545 151 403
3 545 403 152
3 155 153 404
3 155 404 405
3 405 404 154
3 541 156 411
3 541 411 158
3 411 156 157
3 540 159 418
3 540 418 161
3 161 418 160
3 441 162 163
3 441 163 164
3 167 165 166
3 433 168 169
3 433 169 425
3 433 425 170
3 173 171 443
3 443 171 442
3 443 442 172
3 176 174 444
3 176 444 445
3 445 444 175
3 449 177 178
3 449 178 179
3 534 180 450
3 534 450 181
3 534 181 182
3 185 183 184
3 188 186 187
3 191 189 190
3 194 192 193
3 197 195 196
3 517 198 199
3 517 199 463
3 517 463 200
3 510 201 479
3 510 479 202
3 510 202 203
3 206 204 205
3 209 207 208
3 212 210 490
3 490 210 211
3 215 213 214
3 218 216 217
3 221 219 538
3 221 538 539
3 539 538 220
3 573 574 575
3 573 575 576
3 573 576 577
3 573 577 578
3 573 578 579
3 573 579 574
3 575 574 580
3 575 580 581
3 575 581 582
3 576 575 582
3 576 582 583
3 576 583 584
3 577 576 584
3 577 584 585
3 578 577 585
3 578 585 586
3 582 581 587
3 585 584 588
3 585 588 589
3 586 585 589
3 586 589 246
3 586 246 16
3 586 16 13
3 586 13 578
3 578 13 579
3 579 13 242
3 579 242 574
3 574 242 240
3 574 240 580
3 580 240 238
3 580 238 236
3 580 236 581
3 581 236 587
3 587 236 10
3 587 10 232
3 587 232 229
3 587 229 582
3 582 229 583
3 583 229 7
3 583 7 584
3 584 7 588
3 588 7 4
3 588 4 589
3 589 4 0
3 589 0 246
3 3 31 28
3 3 28 1
3 1 28 23
3 23 28 25
3 259 34 590
3 259 590 6
3 6 590 5
3 5 590 32
3 32 590 255
3 255 590 34
3 592 591 593
3 592 593 594
3 592 594 260
3 592 260 8
3 592 8 231
3 592 231 591
3 591 231 234
3 591 234 282
3 591 282 593
3 593 282 595
3 593 595 43
3 593 43 594
3 594 43 40
3 594 40 260
3 260 40 37
3 260 37 35
3 43 595 263
3 263 595 279
3 263 279 265
3 265 279 276
3 265 276 46
3 46 276 49
3 49 276 55
3 49 55 52
3 279 595 282
3 282 234 9
3 282 9 58
3 596 597 598
3 598 597 600
3 598 600 601
3 597 599 600
3 600 599 603
3 600 603 604
3 601 600 604
3 599 602 603
3 604 603 605
3 604 605 54
3 604 54 601
3 601 54 59
3 601 59 237
3 601 237 598
3 598 237 239
3 598 239 241
3 598 241 596
3 596 241 243
3 596 243 304
3 596 304 302
3 596 302 597
3 597 302 300
3 597 300 599
3 599 300 298
3 599 298 602
3 602 298 61
3 602 61 292
3 602 292 605
3 602 605 603
3 605 292 53
3 605 53 54
3 304 243 12
3 237 59 11
3 606 608 609
3 607 606 609
3 607 609 610
3 607 610 611
3 608 612 613
3 609 608 613
3 609 613 614
3 610 609 614
3 610 614 615
3 611 610 615
3 611 615 616
3 612 617 618
3 613 612 618
3 613 618 619
3 614 613 619
3 614 619 620
3 615 614 620
3 615 620 621
3 616 615 621
3 616 621 299
3 616 299 301
3 616 301 611
3 611 301 303
3 611 303 305
3 611 305 607
3 607 305 14
3 607 14 606
3 606 14 15
3 606 15 608
3 608 15 249
3 608 249 612
3 612 249 617
3 617 249 18
3 617 18 70
3 617 70 67
3 617 67 618
3 618 67 619
3 619 67 64
3 619 64 620
3 620 64 621
3 621 64 62
3 621 62 299
3 2 22 247
3 247 22 248
3 247 248 17
3 248 22 19
3 21 24 76
3 21 76 20
3 20 76 73
3 20 73 71
3 27 91 26
3 26 91 77
3 77 91 338
3 77 338 328
3 328 338 336
3 328 336 79
3 79 336 85
3 79 85 82
3 85 336 88
3 257 33 622
3 257 622 623
3 257 623 340
3 257 340 30
3 30 340 29
3 29 340 92
3 340 623 342
3 342 623 344
3 344 623 624
3 344 624 347
3 344 347 94
3 347 624 100
3 347 100 97
3 100 624 36
3 36 624 622
3 36 622 33
3 622 624 623
3 39 101 38
3 362 106 103
3 362 103 625
3 362 625 42
3 42 625 41
3 41 625 99
3 99 625 98
3 98 625 356
3 356 625 103
3 366 112 627
3 366 627 266
3 366 266 45
3 266 627 626
3 266 626 264
3 264 626 44
3 44 626 363
3 363 626 627
3 363 627 109
3 363 109 107
3 109 627 112
3 48 115 47
3 47 115 368
3 47 368 367
3 367 368 113
3 628 629 630
3 630 629 632
3 630 632 633
3 631 630 633
3 633 632 634
3 633 634 372
3 633 372 116
3 633 116 631
3 631 116 50
3 631 50 51
3 631 51 295
3 631 295 630
3 630 295 628
3 628 295 60
3 628 60 378
3 628 378 376
3 628 376 629
3 629 376 374
3 629 374 632
3 632 374 124
3 632 124 634
3 634 124 121
3 634 121 118
3 634 118 372
3 378 60 63
3 57 56 636
3 57 636 635
3 57 635 284
3 284 635 637
3 284 637 281
3 281 637 278
3 278 637 636
3 278 636 56
3 636 637 635
3 399 139 397
3 399 397 641
3 399 641 638
3 399 638 66
3 66 638 639
3 66 639 65
3 65 639 640
3 65 640 379
3 379 640 642
3 379 642 377
3 377 642 643
3 377 643 375
3 375 643 380
3 375 380 125
3 380 643 127
3 127 643 130
3 130 643 385
3 385 643 642
3 385 642 388
3 388 642 640
3 388 640 639
3 388 639 391
3 391 639 638
3 391 638 641
3 391 641 133
3 133 641 136
3 136 641 397
3 69 72 644
3 69 644 68
3 68 644 400
3 400 644 140
3 140 644 557
3 140 557 80
3 140 80 142
3 142 80 81
3 557 644 72
3 329 78 559
3 329 559 74
3 329 74 75
3 151 148 154
3 84 154 401
3 84 401 143
3 84 143 83
3 401 154 145
3 145 154 148
3 426 169 166
3 426 166 409
3 426 409 429
3 429 409 407
3 429 407 87
3 87 407 155
3 87 155 86
3 409 166 423
3 409 423 157
3 157 423 421
3 157 421 412
3 412 421 419
3 412 419 415
3 415 419 160
3 160 419 163
3 645 648 649
3 646 645 649
3 646 649 650
3 647 651 652
3 648 647 652
3 649 648 652
3 649 652 653
3 650 649 653
3 650 653 89
3 650 89 337
3 650 337 339
3 650 339 646
3 646 339 90
3 646 90 341
3 646 341 645
3 645 341 343
3 645 343 647
3 645 647 648
3 647 343 345
3 647 345 651
3 651 345 93
3 651 93 170
3 651 170 652
3 652 170 428
3 652 428 653
3 653 428 431
3 653 431 89
3 655 654 657
3 655 657 658
3 656 655 658
3 656 658 168
3 656 168 95
3 656 95 349
3 656 349 655
3 655 349 654
3 654 349 96
3 654 96 358
3 654 358 439
3 654 439 657
3 657 439 437
3 657 437 435
3 657 435 658
3 658 435 167
3 658 167 168
3 439 358 102
3 659 660 661
3 661 660 662
3 661 662 663
3 663 662 665
3 664 663 665
3 664 665 422
3 664 422 424
3 664 424 436
3 664 436 663
3 663 436 438
3 663 438 661
3 661 438 440
3 661 440 659
3 659 440 104
3 659 104 105
3 659 105 108
3 659 108 175
3 659 175 660
3 660 175 662
3 662 175 172
3 662 172 164
3 662 164 665
3 665 164 420
3 665 420 422
3 436 424 165
3 369 114 666
3 369 666 668
3 369 668 111
3 111 668 447
3 111 447 669
3 111 669 110
3 110 669 176
3 176 669 447
3 447 668 178
3 178 668 667
3 178 667 117
3 117 667 373
3 373 667 666
3 373 666 114
3 666 667 668
3 190 187 451
3 451 187 184
3 451 184 670
3 451 670 120
3 120 670 119
3 119 670 179
3 179 670 184
3 179 184 181
3 381 126 193
3 381 193 455
3 381 455 123
3 123 455 453
3 123 453 452
3 123 452 122
3 452 453 191
3 205 202 480
3 672 671 674
3 673 676 675
3 675 676 677
3 677 676 464
3 677 464 461
3 677 461 459
3 677 459 675
3 675 459 457
3 675 457 673
3 673 457 194
3 673 194 128
3 673 128 129
3 673 129 554
3 673 554 552
3 673 552 676
3 676 552 467
3 676 467 464
3 467 552 470
3 470 552 550
3 470 550 548
3 470 548 473
3 473 548 672
3 473 672 674
3 473 674 476
3 476 674 480
3 476 480 202
3 480 674 482
3 482 674 671
3 482 671 484
3 484 671 208
3 208 671 546
3 208 546 135
3 135 546 134
3 546 671 672
3 546 672 548
3 461 464 196
3 196 464 199
3 679 681 682
3 679 682 390
3 679 390 393
3 679 393 678
3 679 678 549
3 679 549 681
3 681 549 551
3 681 551 682
3 682 551 553
3 682 553 555
3 682 555 680
3 682 680 390
3 390 680 387
3 387 680 131
3 131 680 555
3 549 678 547
3 547 678 132
3 132 678 393
3 144 211 402
3 138 141 402
3 138 402 488
3 138 488 486
3 138 486 398
3 398 486 209
3 398 209 137
3 488 402 211
3 212 146 214
3 683 685 686
3 684 683 686
3 686 685 690
3 686 690 691
3 687 692 693
3 688 687 693
3 688 693 694
3 691 690 697
3 691 697 698
3 693 692 699
3 693 699 700
3 694 693 700
3 694 700 701
3 695 694 701
3 700 699 702
3 700 702 222
3 700 222 701
3 701 222 569
3 701 569 695
3 695 569 522
3 695 522 520
3 695 520 518
3 695 518 694
3 694 518 688
3 688 518 185
3 688 185 687
3 687 185 186
3 687 186 217
3 687 217 692
3 692 217 504
3 692 504 502
3 692 502 699
3 699 502 702
3 702 502 500
3 702 500 561
3 702 561 222
3 561 500 498
3 561 498 496
3 561 496 563
3 563 496 698
3 563 698 697
3 563 697 565
3 565 697 690
3 565 690 689
3 565 689 696
3 565 696 567
3 567 696 524
3 567 524 569
3 569 524 522
3 524 696 526
3 526 696 528
3 528 696 689
3 528 689 530
3 530 689 685
3 530 685 532
3 532 685 683
3 532 683 147
3 147 683 146
3 146 683 684
3 146 684 214
3 214 684 686
3 214 686 492
3 492 686 691
3 492 691 494
3 494 691 698
3 494 698 496
3 685 689 690
3 149 150 533
3 542 158 531
3 542 531 533
3 542 533 150
3 531 158 529
3 529 158 414
3 529 414 705
3 529 705 527
3 527 705 417
3 527 417 525
3 525 417 704
3 525 704 523
3 523 704 703
3 523 703 521
3 521 703 519
3 519 703 182
3 519 182 183
3 182 703 535
3 535 703 704
3 535 704 220
3 220 704 159
3 159 704 417
3 417 705 414
3 410 156 544
3 410 544 408
3 408 544 152
3 408 152 153
3 162 171 221
3 162 221 161
3 448 177 180
3 448 180 706
3 448 706 174
3 174 706 173
3 173 706 219
3 219 706 537
3 537 706 180
3 188 189 218
3 456 192 458
3 456 458 707
3 456 707 454
3 454 707 189
3 189 707 218
3 218 707 506
3 506 707 460
3 506 460 462
3 506 462 195
3 460 707 458
3 203 204 511
3 511 204 709
3 511 709 710
3 511 710 711
3 511 711 514
3 514 711 712
3 514 712 198
3 198 712 197
3 197 712 507
3 507 712 505
3 507 505 216
3 505 712 503
3 503 712 501
3 501 712 711
3 501 711 499
3 499 711 710
3 499 710 497
3 497 710 709
3 497 709 495
3 495 709 708
3 495 708 493
3 493 708 508
3 493 508 215
3 508 708 204
3 204 708 709
3 713 715 716
3 716 715 718
3 717 716 718
3 717 718 200
3 717 200 466
3 717 466 469
3 717 469 716
3 716 469 472
3 716 472 713
3 713 472 475
3 713 475 715
3 715 475 478
3 715 478 714
3 715 714 513
3 715 513 718
3 718 513 516
3 718 516 200
3 513 714 201
3 201 714 478
3 489 210 719
3 489 719 487
3 487 719 485
3 487 485 207
3 485 719 483
3 483 719 509
3 483 509 481
3 481 509 206
3 509 719 213
3 213 719 210
3 721 720 722
3 721 722 562
3 721 562 564
3 721 564 566
3 721 566 568
3 721 568 720
3 720 568 570
3 720 570 722
3 722 570 223
3 722 223 562
