ply
format ascii 1.0
comment Generated by PyMesh
element vertex 623
property float x
property float y
property float z
property float nx
property float ny
property float nz
element face 1242
property list uchar int vertex_indices
end_header
-8.405 31.63 94.287 -0.645 -0.754 0.122
-8.229 31.309 93.936 -0.762 -0.54 0.357
-8.034 30.498 93.793 -0.892 0 0.452
-8.404 33.433 93.074 -0.85 0.522 -0.074
-8.553 33.425 93.559 -0.751 0.528 -0.398
-8.222 34.536 93.126 -0.971 -0.213 -0.109
-7.692 34.89 94.27 -0.529 0.083 0.844
-7.977 33.81 94.802 -0.339 0.803 0.49
-7.479 34.889 94.432 -0.671 0.084 0.736
-7.437 34.882 94.471 -0.65 0.081 0.756
-7.941 33.804 94.835 -0.313 0.799 0.513
-7.056 35.079 94.967 -0.904 -0.051 0.425
-5.983 34.11 95.638 -0.367 -0.536 0.76
-7.035 32.986 95.401 0.334 0.214 0.918
-5.75 33.993 95.699 -0.523 -0.458 0.719
-5.55 33.76 95.64 -0.356 -0.652 0.67
-6.818 32.732 95.336 0.489 0.033 0.872
-6.35 32.614 95.177 0.177 0.112 0.978
-7.458 31.214 94.655 -0.377 -0.587 0.716
-7.754 31.55 94.895 -0.18 -0.811 0.556
-7.435 30.425 94.352 -0.392 -0.061 0.918
-6.506 31.085 94.725 0.1 -0.652 0.752
-6.694 30.324 94.407 0.225 -0.145 0.963
-6.436 30.57 94.428 0.053 -0.309 0.95
-6.02 29.815 93.81 0.298 -0.754 0.586
-6.346 29.692 93.89 0.515 -0.672 0.532
-5.641 29.52 93.445 0.045 -0.557 0.829
-6.046 29.132 93.068 -0.157 -0.752 0.64
-6.661 29.39 93.597 0.253 -0.924 0.288
-5.974 28.737 92.757 -0.205 -0.489 0.848
-6.884 28.839 91.999 -0.856 -0.416 0.307
-7.499 29.483 92.899 -0.446 -0.846 -0.293
-7.124 29.252 92.171 -0.696 -0.692 0.192
-7.524 29.753 91.881 -0.896 -0.441 0.047
-7.81 29.873 92.674 -0.705 -0.521 -0.481
-7.771 30.031 92.356 -0.732 -0.626 -0.269
-8.192 30.788 92.971 -0.979 -0.181 0.093
-8.162 30.506 93.188 -0.999 0.007 -0.052
-8.394 31.319 93.158 -0.844 -0.535 -0.032
-7.854 31.217 91.759 -0.781 0.071 -0.621
-8.031 31.781 91.854 -0.663 -0.304 -0.684
-7.614 31.029 91.239 -0.941 0.197 -0.274
-7.207 31.588 90.832 -0.738 0.477 -0.478
-7.625 32.34 91.447 -0.46 -0.025 -0.888
-6.901 32.022 90.531 -0.942 0.187 -0.277
-6.9 32.024 90.531 -0.942 0.188 -0.278
-7.624 32.341 91.446 -0.46 -0.024 -0.888
-6.96 32.575 90.703 -0.902 -0.18 -0.392
-7.015 33.398 90.913 -0.93 0.231 -0.287
-7.679 33.164 91.656 -0.487 0.387 -0.783
-7.435 34.163 91.544 -0.649 -0.279 -0.708
-8.093 34.447 92.642 -0.978 -0.137 -0.158
-8.336 33.448 92.755 -0.816 0.529 -0.233
-8.169 34.547 92.878 -0.927 -0.203 -0.316
-7.609 35.76 93.827 -0.736 0.519 0.434
-7.793 35.568 93.8 -0.613 0.647 0.453
-7.216 36.459 94.533 -0.998 0.053 -0.036
-7.106 36.002 94.979 -0.919 -0.273 0.283
-7.692 35.147 94.211 -0.529 0.297 0.795
-7.479 35.219 94.356 -0.671 0.249 0.698
-7.099 35.99 94.99 -0.914 -0.282 0.291
-7.471 35.205 94.369 -0.667 0.242 0.705
-7.09 35.402 94.865 -0.921 0.11 0.374
-5.361 36.461 95.904 0.327 0.055 0.943
-5.032 35.96 95.946 0.108 0.389 0.915
-5.063 36.777 95.849 0.129 -0.155 0.979
-4.77 36.795 95.775 0.373 -0.14 0.917
-4.655 35.983 95.85 0.297 0.401 0.867
-3.516 36.407 95.833 -0.463 0.119 0.878
-2.84 35.244 95.399 0.1 -0.85 0.517
-3.786 34.488 95.293 0.731 -0.346 0.588
-3.248 34.664 94.969 0.373 -0.464 0.804
-3.567 33.722 93.929 0.213 -0.935 0.284
-4.105 33.546 94.253 0.572 -0.818 0.068
-4.065 32.583 93.126 0.545 -0.176 0.819
-4.17 32.52 93.177 0.493 -0.208 0.845
-4.209 33.482 94.304 0.519 -0.849 0.093
-4.834 32.286 93.92 0.936 -0.052 0.349
-5.108 32.269 94.421 0.798 -0.06 0.599
-4.484 33.465 94.804 0.382 -0.858 0.344
-4.584 33.491 95.051 0.449 -0.875 0.179
-4.179 32.187 93.064 0.488 -0.374 0.788
-4.843 31.953 93.807 0.931 -0.218 0.293
-4.425 31.201 93.192 0.653 0.283 0.703
-4.815 30.681 93.564 0.458 0.023 0.889
-5.233 31.432 94.179 0.736 -0.478 0.479
-5.253 30.893 93.921 0.75 -0.119 0.651
-4.117 32.165 93.013 0.519 -0.385 0.763
-4.364 31.179 93.141 0.684 0.272 0.677
-4.057 31.613 92.841 0.479 -0.017 0.877
-3.956 30.014 90.633 0.53 -0.817 -0.227
-4.262 29.58 90.933 0.734 -0.528 -0.427
-4.467 29.116 90.953 0.871 -0.219 -0.441
-4.946 30.128 89.788 0.035 -0.76 -0.649
-5.304 29.213 90.24 0.273 -0.15 -0.95
-5.253 29.694 90.088 0.239 -0.47 -0.849
-3.205 32.638 91.813 0.975 -0.149 0.163
-3.145 32.086 91.642 0.935 0.219 0.278
-1.641 33.043 90.7 -0.068 -0.419 0.906
-1.741 32.247 89.536 -0.139 -0.987 0.074
-3.264 31.144 90.264 0.876 -0.252 -0.411
-3.347 31.135 90.048 0.932 -0.247 -0.267
-4.08 31.784 89.289 0.321 0.294 -0.9
-4.206 31.978 89.288 0.405 0.165 -0.899
-2.537 32.952 88.711 -0.708 -0.484 -0.515
-2.799 33.502 88.82 -0.895 -0.09 -0.437
-4.516 32.63 89.417 0.25 0.491 -0.835
-4.576 33.182 89.589 0.29 0.123 -0.949
-2.808 33.57 88.828 -0.901 -0.042 -0.431
-4.587 33.262 89.598 0.285 0.164 -0.945
-3.061 34.215 88.918 -0.732 -0.472 -0.491
-3.265 34.584 88.97 -0.846 -0.267 -0.462
-4.801 33.649 89.653 0.178 0.357 -0.917
-3.802 34.687 89.486 -0.488 -0.335 -0.806
-3.874 34.76 89.504 -0.539 -0.283 -0.793
-4.886 33.735 89.674 0.135 0.4 -0.906
-4.265 35.228 89.445 -0.279 -0.595 -0.754
-5.216 35.687 89.861 -0.754 -0.366 -0.545
-5.837 34.194 90.09 -0.34 0.63 -0.698
-6.059 35.35 90.499 -0.193 -0.141 -0.971
-6.693 35.144 90.869 -0.646 -0.288 -0.707
-6.588 33.95 90.528 -0.716 0.508 -0.48
-7.008 34.716 91.159 -0.435 -0.003 -0.9
-6.77 36.546 91.899 -0.701 0.713 0.028
-7.099 36.375 92.377 -0.481 0.827 -0.291
-6.436 37.047 92.031 -0.923 0.379 -0.06
-6.317 37.205 92.565 -0.864 0.459 0.208
-6.98 36.534 92.912 -0.422 0.906 -0.024
-6.685 37.113 93.759 -0.619 0.52 -0.589
-5.796 37.741 92.807 -0.603 0.727 0.329
-6.245 37.565 93.964 -0.304 0.844 -0.442
-5.614 37.936 92.782 -0.724 0.597 0.345
-5.555 37.977 92.827 -0.675 0.631 0.382
-6.18 37.61 94.012 -0.258 0.876 -0.408
-5.817 37.835 94.108 -0.5 0.726 -0.472
-4.506 38.169 93.063 0.199 0.791 0.579
-4.768 38.026 94.344 0.374 0.886 -0.275
-3.742 37.931 94.015 -0.31 0.949 -0.056
-3.473 37.416 95.22 -0.118 0.581 0.805
-4.52 37.552 95.453 0.581 0.491 0.649
-3.266 37.164 95.512 -0.255 0.75 0.611
-1.963 36.269 93.89 0.96 -0.238 -0.145
-1.877 36.108 94.287 0.903 -0.13 -0.41
-2.01 35.775 93.538 0.992 0.092 0.089
-1.965 36.334 93.802 0.959 -0.191 -0.208
-2.012 35.852 93.434 0.991 0.13 0.037
-0.656 35.892 92.003 0.086 0.104 0.991
-0.762 35.052 91.831 0.011 -0.497 0.868
-2.138 34.857 93.231 0.928 -0.367 -0.065
-2.215 34.61 93.162 0.979 -0.202 -0.019
-3.155 33.742 93.577 0.196 -0.925 0.326
-3.347 33.742 93.764 0.323 -0.925 0.201
-3.845 32.604 92.961 0.655 -0.166 0.737
-2.661 33.985 92.789 0.607 -0.723 -0.33
-3.21 32.915 91.948 0.973 -0.01 0.231
-1.747 33.884 91.161 -0.002 -0.656 0.755
-1.738 33.831 91.113 0.003 -0.685 0.728
-3.2 32.859 91.898 0.978 -0.038 0.205
-1.636 33.23 90.771 -0.065 -0.285 0.956
-0.567 34.085 90.75 0.653 -0.544 0.527
-0.6 33.455 90.45 0.675 -0.124 0.727
-0.203 34.551 91.062 0.41 -0.855 0.319
0.211 34.785 90.375 0.706 -0.687 -0.172
-0.187 33.689 89.763 0.971 0.043 0.236
-0.1 34.349 89.974 0.913 -0.397 0.095
-1.006 36.974 89.982 -0.164 0.876 -0.453
-1.475 36.823 89.53 0.149 0.977 -0.151
-2.304 37.487 90.01 0.702 0.534 -0.471
-4.195 35.278 89.383 -0.243 -0.571 -0.784
-3.279 34.714 88.932 -0.854 -0.195 -0.483
-3.814 34.802 89.452 -0.497 -0.254 -0.83
-0.953 37.081 90.228 -0.126 0.953 -0.277
-2.242 37.613 90.301 0.733 0.597 -0.326
-2.18 37.71 90.543 0.692 0.533 -0.487
-2.752 37.959 91.892 0.215 0.74 0.637
-2.978 37.933 92.035 0.365 0.757 0.542
-2.884 37.793 93.492 0.303 0.851 -0.43
-3.042 37.846 93.509 0.19 0.889 -0.417
-3.165 37.996 92.055 0.271 0.789 0.552
-3.543 37.94 92.569 0.523 0.826 0.209
-3.931 38.17 92.308 0.329 0.941 0.079
-3.553 38.226 91.795 0.077 0.904 0.421
-4.164 38.27 92.394 0.484 0.875 0.022
-4.937 38.273 91.826 -0.16 0.878 -0.452
-4.548 38.231 91.064 -0.42 0.906 0.056
-4.926 38.174 91.577 -0.168 0.943 -0.286
-5.901 36.704 90.699 -0.656 0.208 -0.725
-5.524 36.76 90.186 -0.908 0.17 -0.383
-6.318 36.256 90.774 -0.378 0.506 -0.775
-3.919 38.058 92.798 0.335 0.885 0.324
-4.154 38.182 92.775 0.492 0.802 0.339
-3.36 37.945 93.702 -0.037 0.96 -0.279
-2.098 37.339 91.86 0.76 0.224 0.61
-2.173 37.12 93.457 0.81 0.37 -0.454
-0.864 36.678 91.658 -0.062 0.665 0.745
-1.313 34.362 91.403 0.239 -0.39 0.889
-0.863 34.796 91.64 -0.061 -0.679 0.731
-2.307 34.374 92.986 0.902 -0.398 -0.166
-3.817 37.016 89.046 -0.054 0.298 -0.953
-4.079 37.068 89.052 0.121 0.263 -0.957
-8.736 32.085 93.841 -0.881 -0.43 -0.196
-8.621 31.847 93.408 -0.958 -0.271 0.093
-8.791 32.748 93.572 -0.92 0.044 -0.388
-8.686 32.632 93.089 -0.99 0.121 -0.066
-8.261 33.957 93.38 -0.945 0.173 -0.278
-8.468 33.69 94.252 -0.69 0.717 0.097
-8.189 34.183 93.97 -0.876 0.388 0.286
-8.144 34.78 93.764 -0.906 -0.01 0.423
-7.771 34.285 94.438 -0.477 0.486 0.732
-7.653 34.284 94.526 -0.555 0.487 0.674
-7.617 34.278 94.558 -0.529 0.483 0.697
-7.343 34.346 94.781 -0.712 0.438 0.549
-7.547 33.448 95.289 -0.032 0.545 0.838
-6.978 34.017 95.202 -0.411 0.165 0.896
-6.589 34.658 95.505 -0.671 -0.262 0.694
-6.505 33.589 95.305 -0.02 -0.188 0.982
-6.364 33.526 95.304 -0.113 -0.146 0.983
-6.204 33.339 95.256 0.08 -0.371 0.925
-7.011 32.21 95.338 0.351 -0.34 0.873
-6.579 31.996 95.179 0.063 -0.197 0.978
-7.342 31.792 95.181 0.114 -0.639 0.761
-6.971 31.5 94.994 -0.133 -0.444 0.886
-7.548 31.058 94.505 -0.317 -0.483 0.816
-8.096 31.125 93.994 -0.851 -0.418 0.318
-6.321 29.173 93.089 0.026 -0.779 0.626
-7.13 29.31 93.291 -0.138 -0.99 0.033
-6.752 29.1 92.808 -0.39 -0.85 0.355
-6.483 28.651 92.425 -0.569 -0.551 0.611
-7.091 29.259 92.448 -0.718 -0.696 0.007
-8.352 31.544 92.465 -0.823 -0.423 -0.379
-8.153 30.997 92.327 -0.956 -0.058 -0.287
-7.165 32.17 91.07 -0.766 0.089 -0.637
-7.165 32.171 91.07 -0.766 0.09 -0.637
-8.106 33.323 92.142 -0.7 0.467 -0.54
-7.863 34.322 92.03 -0.863 -0.199 -0.465
-8.151 33.978 92.849 -0.939 0.176 -0.296
-8.207 33.966 93.111 -0.981 0.167 -0.099
-8.064 35.391 93.003 -0.84 0.5 -0.211
-7.958 35.533 92.803 -0.911 0.406 -0.078
-7.375 35.957 94.133 -0.892 0.388 0.231
-7.282 35.573 94.508 -0.802 0.013 0.597
-6.586 35.359 95.593 -0.669 0.089 0.738
-6.674 35.954 95.605 -0.611 -0.307 0.73
-5.824 35.566 95.993 -0.288 0.192 0.938
-6.03 36.128 95.943 -0.151 -0.183 0.972
-4.074 36.158 95.719 -0.091 0.284 0.954
-4.396 35.397 95.913 0.426 0.108 0.898
-3.864 35.685 95.77 0.072 -0.084 0.994
-3.314 35.951 95.882 -0.295 -0.261 0.919
-4.088 34.868 95.716 0.58 -0.157 0.799
-3.615 35.257 95.61 0.265 -0.416 0.87
-3.075 35.539 95.728 -0.096 -0.604 0.791
-3.371 34.95 95.268 0.455 -0.654 0.604
-3.874 33.92 94.839 0.687 -0.631 0.361
-3.336 34.096 94.515 0.329 -0.748 0.577
-4.211 33.177 93.589 0.643 -0.571 0.51
-4.304 33.12 93.634 0.582 -0.608 0.54
-4.665 32.973 94.068 0.823 -0.51 0.25
-4.913 32.957 94.519 0.668 -0.519 0.533
-4.092 34.347 95.52 0.578 -0.417 0.701
-4.279 34.178 95.608 0.703 -0.304 0.643
-5.075 34.77 96.067 0.087 -0.205 0.975
-5.044 34.506 96.033 0.066 -0.03 0.997
-4.985 32.984 94.649 0.716 -0.537 0.447
-5.031 33.517 95.454 0.077 -0.854 0.515
-5.422 33.009 95.044 0.337 -0.515 0.788
-5.683 32.302 94.939 0.511 -0.043 0.858
-5.93 33.247 95.226 -0.103 -0.31 0.945
-5.806 31.227 94.579 0.449 -0.581 0.679
-5.786 30.703 94.293 0.436 -0.231 0.87
-5.559 30.289 93.955 0.57 -0.474 0.671
-5.144 30.031 93.601 0.293 -0.302 0.907
-4.045 30.757 92.856 0.843 0.061 0.534
-3.738 31.191 92.555 0.639 -0.229 0.735
-3.866 30.35 92.45 0.933 -0.143 0.332
-3.559 30.784 92.15 0.728 -0.432 0.532
-3.844 29.997 91.964 0.944 -0.319 0.088
-3.537 30.432 91.663 0.739 -0.608 0.289
-3.98 29.732 91.442 0.875 -0.451 -0.173
-3.674 30.166 91.141 0.671 -0.741 0.028
-4.119 29.465 91.603 0.806 -0.585 -0.092
-4.346 29.019 91.519 0.957 -0.288 -0.036
-4.284 29.34 92.266 0.724 -0.647 0.239
-4.485 28.914 92.079 0.858 -0.363 0.364
-4.723 29.23 92.792 0.504 -0.703 0.503
-4.856 28.821 92.524 0.593 -0.43 0.681
-5.352 29.155 93.078 0.19 -0.74 0.646
-5.387 28.758 92.766 0.213 -0.475 0.854
-4.818 29.126 90.512 0.62 -0.212 -0.756
-4.371 30.025 90.111 0.322 -0.811 -0.488
-5.896 29.197 90.204 -0.15 -0.161 -0.976
-5.953 29.676 90.046 -0.111 -0.48 -0.87
-6.442 29.137 90.427 -0.54 -0.204 -0.817
-6.6 29.604 90.31 -0.435 -0.515 -0.739
-6.834 29.044 90.863 -0.82 -0.27 -0.505
-7.064 29.495 90.826 -0.666 -0.57 -0.481
-6.992 28.938 91.424 -0.933 -0.346 -0.104
-7.251 29.369 91.491 -0.76 -0.633 -0.148
-5.795 29.952 89.908 -0.032 -0.341 -0.939
-5.489 30.387 89.608 -0.236 -0.631 -0.739
-6.31 30.31 89.9 -0.29 -0.162 -0.943
-6.004 30.745 89.6 -0.494 -0.452 -0.743
-6.745 30.732 90.066 -0.507 0.048 -0.861
-6.438 31.166 89.765 -0.711 -0.241 -0.66
-7.054 31.173 90.387 -0.662 0.269 -0.7
-6.748 31.607 90.087 -0.866 -0.021 -0.5
-3.467 31.834 92.337 0.775 0.093 0.626
-3.527 32.386 92.509 0.815 -0.275 0.511
-2.867 32.438 91.066 0.75 -0.015 0.662
-2.323 32.784 90.725 0.387 -0.246 0.889
-3.03 31.412 91.076 0.993 -0.118 -0.005
-2.787 31.97 90.674 0.831 -0.49 0.264
-2.249 32.354 90.365 0.472 -0.746 0.47
-1.543 32.473 90.222 0.002 -0.825 0.565
-2.949 31.784 90.11 0.666 -0.679 -0.308
-2.398 32.183 89.847 0.299 -0.945 -0.133
-3.31 31.141 90.158 0.907 -0.25 -0.34
-4.444 30.499 89.552 0.286 -0.575 -0.767
-4.356 30.569 89.527 0.227 -0.621 -0.75
-4.265 30.634 89.495 0.167 -0.664 -0.729
-4.144 31.88 89.292 0.364 0.23 -0.902
-3.603 32.363 89.432 0.003 -0.091 -0.996
-2.999 32.715 89.224 -0.4 -0.326 -0.857
-3.818 32.815 89.522 -0.215 0.368 -0.905
-3.197 33.131 89.306 -0.63 0.157 -0.761
-5.102 32.595 89.326 -0.043 0.473 -0.88
-5.162 33.146 89.498 -0.003 0.106 -0.994
-5.683 32.506 89.407 -0.333 0.429 -0.839
-5.743 33.058 89.579 -0.293 0.061 -0.954
-6.207 32.373 89.652 -0.595 0.363 -0.717
-6.267 32.925 89.824 -0.555 -0.005 -0.832
-6.625 32.207 90.038 -0.805 0.28 -0.524
-6.685 32.759 90.21 -0.765 -0.088 -0.638
-3.878 33.277 89.639 -0.176 0.06 -0.983
-3.238 33.393 89.363 -0.602 -0.017 -0.798
-3.885 33.335 89.646 -0.183 0.115 -0.976
-3.245 33.446 89.369 -0.61 0.041 -0.792
-4.007 33.63 89.668 -0.101 -0.081 -0.992
-3.46 33.971 89.424 -0.466 -0.309 -0.829
-4.174 33.931 89.711 -0.24 0.169 -0.956
-3.624 34.266 89.466 -0.607 -0.055 -0.793
-4.268 34.166 89.753 -0.177 0.012 -0.984
-4.337 34.235 89.77 -0.231 0.067 -0.971
-4.555 34.51 89.799 -0.086 -0.116 -0.99
-5.369 34.903 90.155 -0.652 0.157 -0.741
-5.908 34.736 90.419 -0.293 0.269 -0.918
-6.539 34.531 90.787 -0.748 0.12 -0.652
-7.355 35.284 91.476 -0.609 0.282 -0.741
-6.986 35.625 91.137 -0.855 0.055 -0.515
-7.388 35.879 91.913 -0.625 0.579 -0.523
-7.014 36.127 91.506 -0.875 0.414 -0.252
-7.422 36.207 93.333 -0.643 0.743 0.187
-7.058 36.837 94.115 -0.885 0.323 -0.334
-6.389 37.085 93.191 -0.816 0.539 -0.21
-5.952 37.535 93.394 -0.499 0.864 -0.062
-5.831 37.612 93.382 -0.58 0.813 -0.055
-5.778 37.649 93.422 -0.526 0.85 -0.014
-6.348 37.673 94.721 -0.378 0.921 0.098
-5.971 37.892 94.76 -0.628 0.775 0.072
-6.229 37.442 95.403 -0.292 0.756 0.586
-5.862 37.68 95.389 -0.537 0.597 0.596
-5.861 36.99 95.844 -0.03 0.433 0.901
-5.523 37.264 95.795 -0.255 0.251 0.934
-5.587 37.791 93.475 -0.654 0.755 -0.05
-4.685 37.956 93.678 0.319 0.933 0.169
-4.596 37.95 94.957 0.518 0.823 0.236
-3.555 37.848 94.681 -0.176 0.89 0.42
-3.921 37.253 95.376 0.181 0.69 0.701
-4.135 36.603 95.653 -0.05 -0.012 0.999
-2.675 37.314 95.286 0.237 0.875 0.422
-2.831 37.579 94.975 0.341 0.698 0.63
-2.155 37.14 94.937 0.671 0.73 0.131
-2.266 37.391 94.595 0.744 0.563 0.359
-1.86 36.694 94.567 0.917 0.359 -0.177
-1.945 36.906 94.194 0.973 0.217 0.072
-1.985 35.584 94.614 0.813 -0.566 -0.137
-2.149 35.102 93.959 0.922 -0.245 0.299
-2.339 35.267 95.023 0.518 -0.831 0.203
-2.604 34.693 94.485 0.695 -0.449 0.562
-1.812 35.814 92.754 0.857 0.156 0.491
-1.324 35.828 92.238 0.532 0.146 0.834
-1.902 35.107 92.609 0.77 -0.533 0.349
-1.406 35.177 92.104 0.44 -0.58 0.686
-2.564 34.333 93.971 0.715 -0.629 0.305
-2.546 34.202 93.738 0.703 -0.542 0.46
-3.706 33.295 93.257 0.563 -0.627 0.539
-3.901 33.277 93.404 0.436 -0.638 0.634
-3.594 33.293 93.152 0.488 -0.625 0.609
-3.109 33.53 92.379 0.906 -0.42 -0.057
-2.936 33.36 91.498 0.79 -0.306 0.531
-2.411 33.707 91.216 0.441 -0.538 0.719
-2.928 33.316 91.458 0.797 -0.342 0.498
-2.404 33.664 91.177 0.447 -0.574 0.686
-2.895 33.047 91.289 0.775 -0.163 0.611
-2.332 33.18 90.883 0.399 -0.252 0.882
-2.899 32.889 91.229 0.771 -0.316 0.553
-2.336 33.034 90.828 0.395 -0.413 0.82
-1.081 33.321 90.716 0.332 -0.22 0.917
-1.11 33.933 91.051 0.352 -0.628 0.694
-0.493 34.086 90.667 0.604 -0.545 0.582
-0.13 34.291 90.063 0.933 -0.359 0.036
-0.204 33.856 89.105 0.959 0.162 -0.234
-0.119 34.538 89.23 0.902 -0.292 -0.318
-0.536 33.961 88.521 0.721 0.237 -0.651
-0.494 34.657 88.571 0.694 -0.226 -0.684
-1.105 33.979 88.15 0.315 0.25 -0.916
-1.137 34.677 88.152 0.337 -0.215 -0.917
-1.776 33.905 88.079 -0.164 0.197 -0.966
-1.896 34.593 88.071 -0.085 -0.262 -0.961
-2.392 33.757 88.324 -0.604 0.092 -0.791
-2.592 34.426 88.348 -0.472 -0.354 -0.808
0.006 34.821 89.452 0.972 -0.135 -0.194
0.305 35.202 89.913 0.773 -0.389 -0.502
-0.125 35.425 89.101 0.899 0.201 -0.39
0.189 35.737 89.602 0.69 -0.007 -0.724
-0.467 36.04 88.99 0.709 0.542 -0.451
-0.114 36.281 89.505 0.474 0.381 -0.794
-0.949 36.539 89.144 0.441 0.82 -0.366
-0.541 36.723 89.64 0.169 0.697 -0.697
-1.944 37.058 89.81 0.462 0.82 -0.338
-1.875 36.678 89.016 -0.074 0.897 -0.437
-2.326 36.92 89.319 0.227 0.735 -0.639
-2.724 37.336 89.472 0.492 0.458 -0.74
-2.322 36.331 88.662 -0.322 0.704 -0.633
-2.753 36.589 88.981 -0.034 0.532 -0.846
-3.192 36.972 89.101 0.258 0.277 -0.926
-2.746 35.836 88.522 -0.557 0.429 -0.711
-3.157 36.116 88.847 -0.283 0.242 -0.928
-3.636 36.453 88.954 0.036 0.017 -0.999
-3.082 35.267 88.616 -0.744 0.113 -0.659
-3.478 35.573 88.938 -0.48 -0.091 -0.873
-3.988 35.858 89.053 -0.14 -0.281 -0.95
-3.667 35.045 89.239 -0.595 -0.415 -0.688
-1.708 37.093 90.086 0.304 0.797 -0.522
-1.657 37.196 90.323 0.343 0.876 -0.34
-3.031 38.3 90.892 0.338 0.941 -0.03
-2.794 38.244 91.003 0.18 0.978 -0.104
-3.004 37.687 92.751 0.383 0.922 0.064
-3.154 37.737 92.767 0.264 0.961 0.077
-4.018 38.346 91.386 -0.155 0.964 0.217
-4.526 38.363 92.076 0.183 0.953 -0.243
-5.017 37.907 90.683 -0.655 0.744 -0.134
-5.395 37.851 91.197 -0.403 0.781 -0.477
-5.356 37.396 90.378 -0.824 0.488 -0.287
-5.734 37.34 90.892 -0.572 0.526 -0.629
-5.847 36.469 90.546 -0.692 0.364 -0.623
-5.583 35.548 90.267 -0.509 -0.273 -0.816
-6.607 36.525 91.279 -0.584 0.698 -0.414
-6.243 37.022 91.297 -0.827 0.367 -0.426
-3.791 37.933 93.234 0.25 0.968 0.033
-4.116 37.921 93.5 -0.061 0.956 0.288
-2.89 37.654 92.663 0.307 0.944 0.123
-2.355 37.146 92.637 0.931 0.352 0.092
-2.097 36.718 92.967 0.76 0.638 -0.128
-1.815 36.489 92.443 0.571 0.79 0.222
-1.378 36.475 91.979 0.28 0.8 0.531
-1.976 36.26 93.168 0.966 -0.142 0.214
-1.724 36.148 92.593 0.799 -0.067 0.598
-1.256 36.017 92.179 0.487 0.02 0.873
-1.551 36.919 91.623 0.396 0.504 0.768
-0.769 37.095 90.995 0.006 0.963 0.271
-1.474 37.257 91.085 0.475 0.854 0.211
-2.01 37.723 91.25 0.833 0.544 0.101
-1.624 37.246 90.462 0.321 0.842 -0.433
-1.52 34.913 91.937 0.377 -0.758 0.533
-2.043 34.76 92.424 0.726 -0.656 0.208
-1.457 35.074 92.057 0.474 -0.511 0.717
-1.983 34.914 92.539 0.824 -0.405 0.396
-2.199 34.516 92.343 0.83 -0.493 0.262
-1.844 34.512 91.778 0.593 -0.49 0.639
-2.479 34.207 92.187 0.486 -0.871 0.071
-2.153 34.171 91.606 0.268 -0.847 0.459
-2.939 32.624 89.226 -0.44 -0.265 -0.858
-3.497 32.201 89.435 -0.067 0.017 -0.998
-2.08 32.437 88.928 -0.381 -0.851 -0.36
-2.651 32.3 89.362 0 -0.76 -0.65
-3.223 31.892 89.565 0.381 -0.488 -0.785
-3.659 31.31 89.488 0.672 -0.1 -0.734
-2.438 32.18 89.745 0.326 -0.943 -0.065
-3.02 31.778 89.93 0.713 -0.675 -0.188
-7.687 30.347 91.488 -0.978 -0.144 -0.149
-7.923 30.583 91.991 -0.821 -0.302 -0.484
-4.391 36.211 89.084 -0.342 -0.104 -0.934
-4.526 36.442 89.082 -0.252 -0.258 -0.933
-5.207 36.211 89.644 -0.749 -0.104 -0.654
-5.16 36.442 89.518 -0.78 -0.258 -0.569
-5.448 37.016 90.167 -0.87 0.298 -0.392
-5.348 37.068 89.924 -0.937 0.263 -0.231
-4.874 37.821 90.129 -0.583 0.701 -0.411
-4.901 37.694 89.895 -0.564 0.785 -0.255
-4.058 37.821 89.569 -0.175 0.701 -0.692
-4.267 37.694 89.459 -0.036 0.785 -0.618
-2.811 33.961 92.294 0.707 -0.707 0
-2.811 33.793 91.72 0.707 -0.595 0.382
-2.019 36.98 91.974 0.707 0.463 0.534
-7.814 32.99 95.447 -0.223 0.217 0.95
-7.814 32.382 95.447 -0.223 -0.217 0.95
-7.814 31.835 95.183 -0.223 -0.608 0.762
-8.375 33.141 95.112 -0.623 0.325 0.711
-8.375 32.53 95.199 -0.623 -0.111 0.774
-8.375 31.969 94.943 -0.623 -0.512 0.591
-8.763 33.293 94.116 -0.901 0.434 0
-8.763 32.99 94.642 -0.901 0.217 0.376
-8.763 32.382 94.642 -0.901 -0.217 0.376
-8.902 32.686 94.116 -1 0 0
-8.323 32.389 92.046 -0.809 -0 -0.588
-8.323 32.977 92.204 -0.809 0.294 -0.509
-8.607 32.08 92.687 -0.951 -0.155 -0.268
-8.607 32.698 92.687 -0.951 0.155 -0.268
-5.248 35.33 96.111 -0 0.075 0.997
-5.866 35.024 96.013 -0.309 -0.079 0.948
-4.523 33.861 95.621 0.5 -0.567 0.654
-5.123 34.116 95.958 -0 -0.355 0.935
-5.529 31.77 94.717 0.588 -0.31 0.747
-6.087 31.625 94.964 0.309 -0.382 0.871
-6.964 29.6 94.047 -0 -0.749 0.663
-7.564 29.817 94.036 -0.5 -0.567 0.654
-7.564 29.501 93.544 -0.5 -0.831 0.244
-8.003 29.898 93.251 -0.866 -0.5 -0
-4.113 30.047 92.805 0.809 -0.294 0.509
-4.113 29.617 92.375 0.809 -0.509 0.294
-4.555 30.016 93.282 0.588 -0.31 0.747
-4.813 28.372 91.878 0.623 -0.75 0.22
-4.813 28.372 91.262 0.623 -0.75 -0.22
-4.813 28.705 90.743 0.623 -0.512 -0.591
-5.374 28.192 92.162 0.223 -0.878 0.423
-5.374 28.057 91.57 0.223 -0.975 0
-5.374 28.192 90.978 0.223 -0.878 -0.423
-5.374 28.571 90.503 0.223 -0.608 -0.762
-5.998 28.192 92.162 -0.223 -0.878 0.423
-5.998 28.057 91.57 -0.223 -0.975 0
-5.998 28.192 90.978 -0.223 -0.878 -0.423
-5.998 28.571 90.503 -0.223 -0.608 -0.762
-6.559 28.372 91.878 -0.623 -0.75 0.22
-6.559 28.372 91.262 -0.623 -0.75 -0.22
-6.559 28.705 90.743 -0.623 -0.512 -0.591
-6.907 30.016 90.292 -0.588 -0.31 -0.747
-7.349 30.047 90.769 -0.809 -0.294 -0.509
-7.349 30.635 90.611 -0.809 -0 -0.588
-3.114 31.339 91.621 0.951 -0.155 0.268
-3.398 30.472 91.086 0.809 -0.588 0
-5.016 30.648 89.354 -0 -0.5 -0.866
-5.016 31.797 89.092 -0 0.075 -0.997
-5.634 30.884 89.344 -0.309 -0.382 -0.871
-5.634 31.491 89.19 -0.309 -0.079 -0.948
-5.634 32.115 89.242 -0.309 0.233 -0.922
-6.192 31.648 89.468 -0.588 0 -0.809
-5.774 33.402 89.643 -0.309 0.233 -0.922
-6.332 33.554 89.992 -0.588 0.31 -0.747
-7.755 34.721 91.783 -0.809 -0 -0.588
-7.755 35.309 91.941 -0.809 0.294 -0.509
-7.755 35.739 92.371 -0.809 0.509 -0.294
-6.131 36.688 95.914 -0.223 0.217 0.95
-6.692 37.479 94.583 -0.623 0.782 0
-6.692 37.305 95.175 -0.623 0.658 0.423
-6.692 36.839 95.579 -0.623 0.325 0.711
-7.08 36.991 94.583 -0.901 0.434 0
-7.08 36.688 95.109 -0.901 0.217 0.376
-5.217 38.163 94.674 -0 1 0
-5.217 38.026 95.232 -0 0.885 0.465
-5.217 37.645 95.662 -0 0.568 0.823
-1.76 36.264 94.779 1 0 0
-1.921 36.564 95.299 0.866 0.25 0.433
-1.921 35.964 95.299 0.866 -0.25 0.433
-2.36 36.696 95.724 0.5 0.36 0.788
-2.36 36.116 95.808 0.5 -0.123 0.857
-2.36 35.583 95.564 0.5 -0.567 0.654
-2.96 36.946 95.767 -0 0.568 0.823
-2.96 36.409 95.97 -0 0.121 0.993
-0.285 33.022 89.432 0.901 -0.434 -0
-0.285 33.325 88.906 0.901 -0.217 -0.376
-0.673 32.912 90.259 0.623 -0.512 0.591
-0.673 32.579 89.74 0.623 -0.75 0.22
-0.673 32.579 89.124 0.623 -0.75 -0.22
-0.673 32.912 88.605 0.623 -0.512 -0.591
-0.673 33.473 88.349 0.623 -0.111 -0.774
-1.234 32.264 89.432 0.223 -0.975 0
-1.234 32.399 88.84 0.223 -0.878 -0.423
-1.234 32.778 88.365 0.223 -0.608 -0.762
-1.234 33.325 88.101 0.223 -0.217 -0.95
-1.858 32.778 88.365 -0.223 -0.608 -0.762
-1.858 33.325 88.101 -0.223 -0.217 -0.95
-3.865 30.75 89.584 0.5 -0.567 -0.654
-0.364 35.064 88.645 0.766 -0 -0.643
-0.843 35.064 88.243 0.5 0 -0.866
-0.843 35.661 88.362 0.5 0.331 -0.8
-0.843 36.166 88.7 0.5 0.612 -0.612
-1.43 35.372 88.056 0.174 0.171 -0.97
-1.43 35.95 88.267 0.174 0.492 -0.853
-1.43 36.422 88.663 0.174 0.754 -0.633
-2.056 35.372 88.056 -0.174 0.171 -0.97
-2.056 35.95 88.267 -0.174 0.492 -0.853
-2.643 35.064 88.243 -0.5 0 -0.866
-3.09 37.92 89.784 0.309 0.751 -0.584
-3.708 38.419 90.952 -0 1 0
-3.708 38.071 89.825 -0 0.826 -0.563
-3.708 38.33 90.362 -0 0.956 -0.295
-4.326 38.218 90.334 -0.309 0.9 -0.309
-6.662 36.003 90.863 -0.623 0.325 -0.711
-5.765 37.783 91.531 -0.588 0.747 -0.31
-6.207 37.464 92.15 -0.809 0.588 0
-4.745 38.42 92.368 -0 1 0
-5.345 38.259 92.368 -0.5 0.866 0
-2.435 37.697 94.093 0.623 0.782 0
-2.996 37.967 94.093 0.223 0.975 0
-2.996 37.832 94.685 0.223 0.878 0.423
0.623 35.747 90.616 1 0 0
0.484 36.354 90.616 0.901 0.434 0
0.484 36.051 91.142 0.901 0.217 0.376
0.484 35.443 91.142 0.901 -0.217 0.376
0.484 35.14 90.616 0.901 -0.434 -0
0.484 35.443 90.09 0.901 -0.217 -0.376
0.484 36.051 90.09 0.901 0.217 -0.376
0.096 36.842 90.616 0.623 0.782 0
0.096 36.668 91.208 0.623 0.658 0.423
0.096 36.202 91.612 0.623 0.325 0.711
0.096 35.591 91.699 0.623 -0.111 0.774
0.096 35.03 91.443 0.623 -0.512 0.591
0.096 36.668 90.024 0.623 0.658 -0.423
-0.465 37.112 90.616 0.223 0.975 0
-0.465 36.977 90.024 0.223 0.878 -0.423
-2.41 38.109 91.128 0.5 0.866 0
-4.824 37.184 89.256 -0.5 0.36 -0.788
3 0 200 1
3 1 200 201
3 200 202 201
3 201 202 203
3 202 4 203
3 203 4 3
3 4 205 204
3 204 205 206
3 204 206 5
3 5 206 207
3 205 7 206
3 206 7 208
3 206 208 207
3 207 208 6
3 7 10 209
3 209 10 210
3 209 210 8
3 8 210 9
3 10 212 211
3 211 212 213
3 211 213 11
3 11 213 214
3 212 13 213
3 213 13 215
3 213 215 214
3 214 215 12
3 13 16 216
3 216 16 217
3 216 217 14
3 14 217 15
3 16 218 17
3 17 218 219
3 218 220 219
3 219 220 221
3 220 19 221
3 221 19 18
3 19 0 222
3 222 0 223
3 222 223 20
3 20 223 2
3 20 22 18
3 18 22 21
3 22 25 23
3 23 25 24
3 25 28 26
3 26 28 27
3 28 225 224
3 224 225 226
3 224 226 29
3 29 226 227
3 225 31 226
3 226 31 228
3 226 228 227
3 227 228 30
3 31 34 32
3 32 34 33
3 34 37 35
3 35 37 36
3 37 2 38
3 38 2 1
3 38 229 36
3 36 229 230
3 229 40 230
3 230 40 39
3 40 43 41
3 41 43 42
3 43 46 231
3 231 46 232
3 231 232 44
3 44 232 45
3 46 49 47
3 47 49 48
3 49 233 50
3 50 233 234
3 233 52 234
3 234 52 51
3 52 3 235
3 235 3 236
3 235 236 53
3 53 236 5
3 53 237 51
3 51 237 238
3 237 55 238
3 238 55 54
3 55 58 239
3 239 58 240
3 239 240 56
3 56 240 57
3 58 6 59
3 59 6 8
3 59 61 57
3 57 61 60
3 61 9 62
3 62 9 11
3 62 241 60
3 60 241 242
3 241 243 242
3 242 243 244
3 243 64 244
3 244 64 63
3 64 67 65
3 65 67 66
3 67 246 245
3 245 246 247
3 245 247 68
3 68 247 248
3 246 249 247
3 247 249 250
3 247 250 248
3 248 250 251
3 249 70 250
3 250 70 252
3 250 252 251
3 251 252 69
3 70 253 71
3 71 253 254
3 253 73 254
3 254 73 72
3 73 76 255
3 255 76 256
3 255 256 74
3 74 256 75
3 76 79 257
3 257 79 258
3 257 258 77
3 77 258 78
3 79 259 80
3 80 259 260
3 259 261 260
3 260 261 262
3 261 12 262
3 262 12 14
3 80 264 263
3 263 264 265
3 263 265 78
3 78 265 266
3 264 15 265
3 265 15 267
3 265 267 266
3 266 267 17
3 77 82 75
3 75 82 81
3 82 85 83
3 83 85 84
3 85 268 86
3 86 268 269
3 268 21 269
3 269 21 23
3 86 270 84
3 84 270 271
3 270 24 271
3 271 24 26
3 83 88 81
3 81 88 87
3 88 272 89
3 89 272 273
3 272 274 273
3 273 274 275
3 274 276 275
3 275 276 277
3 276 278 277
3 277 278 279
3 278 91 279
3 279 91 90
3 91 280 92
3 92 280 281
3 280 282 281
3 281 282 283
3 282 284 283
3 283 284 285
3 284 286 285
3 285 286 287
3 286 27 287
3 287 27 29
3 92 288 90
3 90 288 289
3 288 94 289
3 289 94 93
3 94 290 95
3 95 290 291
3 290 292 291
3 291 292 293
3 292 294 293
3 293 294 295
3 294 296 295
3 295 296 297
3 296 30 297
3 297 30 32
3 95 298 93
3 93 298 299
3 298 300 299
3 299 300 301
3 300 302 301
3 301 302 303
3 302 304 303
3 303 304 305
3 304 42 305
3 305 42 44
3 89 306 87
3 87 306 307
3 306 97 307
3 307 97 96
3 97 310 308
3 308 310 311
3 308 311 309
3 309 311 312
3 309 312 98
3 98 312 313
3 310 100 311
3 311 100 314
3 311 314 312
3 312 314 315
3 312 315 313
3 313 315 99
3 100 317 316
3 316 317 318
3 316 318 101
3 101 318 319
3 317 103 318
3 318 103 320
3 318 320 319
3 319 320 102
3 103 106 321
3 321 106 323
3 321 323 322
3 322 323 324
3 322 324 104
3 104 324 105
3 106 325 107
3 107 325 326
3 325 327 326
3 326 327 328
3 327 329 328
3 328 329 330
3 329 331 330
3 330 331 332
3 331 45 332
3 332 45 47
3 107 109 333
3 333 109 335
3 333 335 334
3 334 335 336
3 334 336 105
3 105 336 108
3 109 112 337
3 337 112 339
3 337 339 338
3 338 339 340
3 338 340 110
3 110 340 111
3 112 115 341
3 341 115 342
3 341 342 113
3 113 342 114
3 115 118 343
3 343 118 344
3 343 344 116
3 116 344 117
3 118 121 345
3 345 121 346
3 345 346 119
3 119 346 120
3 121 48 122
3 122 48 50
3 122 347 120
3 120 347 348
3 347 349 348
3 348 349 350
3 349 124 350
3 350 124 123
3 124 127 125
3 125 127 126
3 127 351 128
3 128 351 352
3 351 54 352
3 352 54 56
3 128 130 353
3 353 130 354
3 353 354 126
3 126 354 129
3 130 133 355
3 355 133 356
3 355 356 131
3 131 356 132
3 133 357 134
3 134 357 358
3 357 359 358
3 358 359 360
3 359 361 360
3 360 361 362
3 361 63 362
3 362 63 65
3 134 136 363
3 363 136 364
3 363 364 132
3 132 364 135
3 136 365 137
3 137 365 366
3 365 139 366
3 366 139 138
3 139 66 367
3 367 66 368
3 367 368 140
3 140 368 68
3 140 369 138
3 138 369 370
3 369 371 370
3 370 371 372
3 371 373 372
3 372 373 374
3 373 142 374
3 374 142 141
3 142 375 143
3 143 375 376
3 375 377 376
3 376 377 378
3 377 69 378
3 378 69 71
3 143 145 141
3 141 145 144
3 145 148 379
3 379 148 381
3 379 381 380
3 380 381 382
3 380 382 146
3 146 382 147
3 148 383 149
3 149 383 384
3 383 151 384
3 384 151 150
3 151 72 385
3 385 72 386
3 385 386 152
3 152 386 74
3 152 154 387
3 387 154 388
3 387 388 150
3 150 388 153
3 154 157 389
3 389 157 391
3 389 391 390
3 390 391 392
3 390 392 155
3 155 392 156
3 157 96 393
3 393 96 395
3 393 395 394
3 394 395 396
3 394 396 158
3 158 396 98
3 158 397 156
3 156 397 398
3 397 160 398
3 398 160 159
3 160 163 399
3 399 163 400
3 399 400 161
3 161 400 162
3 163 401 164
3 164 401 402
3 401 403 402
3 402 403 404
3 403 405 404
3 404 405 406
3 405 407 406
3 406 407 408
3 407 409 408
3 408 409 410
3 409 108 410
3 410 108 110
3 164 411 162
3 162 411 412
3 411 413 412
3 412 413 414
3 413 415 414
3 414 415 416
3 415 417 416
3 416 417 418
3 417 166 418
3 418 166 165
3 166 420 419
3 419 420 421
3 419 421 167
3 167 421 422
3 420 423 421
3 421 423 424
3 421 424 422
3 422 424 425
3 423 426 424
3 424 426 427
3 424 427 425
3 425 427 428
3 426 429 427
3 427 429 430
3 427 430 428
3 428 430 431
3 429 169 430
3 430 169 432
3 430 432 431
3 431 432 168
3 169 111 170
3 170 111 113
3 170 114 168
3 168 114 116
3 167 172 433
3 433 172 434
3 433 434 165
3 165 434 171
3 172 435 173
3 173 435 436
3 435 175 436
3 436 175 174
3 175 178 437
3 437 178 438
3 437 438 176
3 176 438 177
3 178 181 179
3 179 181 180
3 181 439 182
3 182 439 440
3 439 184 440
3 440 184 183
3 184 441 185
3 185 441 442
3 441 443 442
3 442 443 444
3 443 187 444
3 444 187 186
3 187 117 445
3 445 117 446
3 445 446 188
3 188 446 119
3 188 447 186
3 186 447 448
3 447 123 448
3 448 123 125
3 185 129 183
3 183 129 131
3 182 190 180
3 180 190 189
3 190 135 449
3 449 135 450
3 449 450 191
3 191 450 137
3 191 177 189
3 189 177 179
3 176 193 451
3 451 193 452
3 451 452 174
3 174 452 192
3 193 144 453
3 453 144 456
3 453 456 454
3 454 456 457
3 454 457 455
3 455 457 458
3 455 458 194
3 194 458 146
3 194 460 459
3 459 460 461
3 459 461 192
3 192 461 462
3 460 171 461
3 461 171 463
3 461 463 462
3 462 463 173
3 161 196 159
3 159 196 195
3 196 147 464
3 464 147 466
3 464 466 465
3 465 466 467
3 465 467 197
3 197 467 149
3 197 153 468
3 468 153 470
3 468 470 469
3 469 470 471
3 469 471 195
3 195 471 155
3 104 474 472
3 472 474 475
3 472 475 473
3 473 475 476
3 473 476 102
3 102 476 477
3 474 99 475
3 475 99 478
3 475 478 476
3 476 478 479
3 476 479 477
3 477 479 101
3 41 480 39
3 39 480 481
3 480 33 481
3 481 33 35
3 198 482 199
3 199 482 483
3 482 484 483
3 483 484 485
3 484 486 485
3 485 486 487
3 486 488 487
3 487 488 489
3 488 490 489
3 489 490 491
3 490 198 491
3 491 198 199
3 223 0 1
3 223 1 2
3 236 3 204
3 236 204 5
3 204 3 4
3 8 6 209
3 209 6 208
3 209 208 7
3 11 9 211
3 211 9 210
3 211 210 10
3 14 12 216
3 216 12 215
3 216 215 13
3 267 15 217
3 267 217 17
3 17 217 16
3 20 18 222
3 222 18 19
3 23 21 22
3 26 24 25
3 29 27 224
3 224 27 28
3 32 30 228
3 32 228 31
3 35 33 34
3 38 36 37
3 41 39 40
3 44 42 231
3 231 42 43
3 47 45 232
3 47 232 46
3 50 48 49
3 53 51 235
3 235 51 52
3 56 54 239
3 239 54 55
3 59 57 240
3 59 240 58
3 62 60 61
3 65 63 64
3 368 66 67
3 368 67 245
3 368 245 68
3 71 69 252
3 71 252 70
3 386 72 255
3 386 255 74
3 255 72 73
3 77 75 256
3 77 256 257
3 257 256 76
3 263 78 258
3 263 258 79
3 263 79 80
3 83 81 82
3 86 84 85
3 89 87 88
3 92 90 91
3 95 93 94
3 395 96 308
3 395 308 309
3 395 309 396
3 396 309 98
3 308 96 97
3 478 99 315
3 478 315 314
3 478 314 479
3 479 314 316
3 479 316 101
3 316 314 100
3 473 102 320
3 473 320 321
3 473 321 472
3 472 321 322
3 472 322 104
3 321 320 103
3 334 105 324
3 334 324 333
3 333 324 323
3 333 323 107
3 107 323 106
3 110 108 336
3 110 336 338
3 338 336 335
3 338 335 337
3 337 335 109
3 113 111 340
3 113 340 341
3 341 340 339
3 341 339 112
3 116 114 343
3 343 114 342
3 343 342 115
3 446 117 344
3 446 344 345
3 446 345 119
3 345 344 118
3 122 120 346
3 122 346 121
3 125 123 124
3 353 126 127
3 353 127 128
3 131 129 355
3 355 129 354
3 355 354 130
3 363 132 356
3 363 356 134
3 134 356 133
3 450 135 364
3 450 364 137
3 137 364 136
3 140 138 367
3 367 138 139
3 143 141 142
3 456 144 145
3 456 145 379
3 456 379 457
3 457 379 380
3 457 380 458
3 458 380 146
3 466 147 382
3 466 382 381
3 466 381 467
3 467 381 148
3 467 148 149
3 387 150 385
3 387 385 152
3 385 150 151
3 470 153 492
3 470 492 493
3 470 493 471
3 471 493 390
3 471 390 155
3 390 493 389
3 389 493 388
3 389 388 154
3 388 493 492
3 388 492 153
3 158 156 394
3 394 156 392
3 394 392 393
3 393 392 391
3 393 391 157
3 161 159 399
3 399 159 160
3 164 162 400
3 164 400 163
3 433 165 166
3 433 166 419
3 433 419 167
3 170 168 432
3 170 432 169
3 463 171 434
3 463 434 172
3 463 172 173
3 451 174 175
3 451 175 437
3 451 437 176
3 179 177 438
3 179 438 178
3 182 180 181
3 185 183 184
3 188 186 445
3 445 186 187
3 191 189 449
3 449 189 190
3 459 192 494
3 459 494 455
3 459 455 194
3 455 494 454
3 454 494 452
3 454 452 453
3 453 452 193
3 452 494 192
3 469 195 464
3 469 464 465
3 469 465 468
3 468 465 197
3 464 195 196
3 495 498 499
3 496 495 499
3 496 499 500
3 497 496 500
3 499 498 502
3 499 502 503
3 500 499 503
3 502 501 504
3 503 502 504
3 503 504 200
3 503 200 0
3 503 0 500
3 500 0 19
3 500 19 497
3 497 19 220
3 497 220 496
3 496 220 218
3 496 218 13
3 496 13 495
3 495 13 212
3 495 212 498
3 498 212 10
3 498 10 7
3 498 7 205
3 498 205 502
3 502 205 501
3 501 205 4
3 501 4 202
3 501 202 504
3 504 202 200
3 13 218 16
3 46 43 49
3 505 507 508
3 506 505 508
3 506 508 52
3 506 52 233
3 506 233 49
3 506 49 505
3 505 49 43
3 505 43 40
3 505 40 229
3 505 229 507
3 507 229 38
3 507 38 201
3 507 201 203
3 507 203 508
3 508 203 3
3 508 3 52
3 201 38 1
3 6 58 207
3 207 58 55
3 207 55 237
3 207 237 5
3 5 237 53
3 9 61 8
3 8 61 59
3 259 79 253
3 259 253 70
3 259 70 249
3 259 249 261
3 261 249 246
3 261 246 509
3 261 509 510
3 261 510 12
3 12 510 214
3 214 510 241
3 214 241 11
3 11 241 62
3 241 510 243
3 243 510 509
3 243 509 64
3 64 509 246
3 64 246 67
3 253 79 76
3 253 76 73
3 264 80 511
3 264 511 512
3 264 512 15
3 15 512 14
3 14 512 262
3 262 512 260
3 260 512 511
3 260 511 80
3 18 21 221
3 221 21 514
3 221 514 219
3 219 514 266
3 219 266 17
3 266 514 513
3 266 513 78
3 78 513 85
3 78 85 82
3 78 82 77
3 85 513 268
3 268 513 514
3 268 514 21
3 515 516 517
3 515 517 225
3 515 225 28
3 515 28 25
3 515 25 22
3 515 22 20
3 515 20 516
3 516 20 2
3 516 2 518
3 516 518 517
3 517 518 31
3 517 31 225
3 31 518 34
3 34 518 37
3 37 518 2
3 270 86 269
3 270 269 23
3 270 23 24
3 280 91 278
3 280 278 276
3 280 276 520
3 280 520 282
3 282 520 284
3 284 520 519
3 284 519 521
3 284 521 286
3 286 521 271
3 286 271 26
3 286 26 27
3 271 521 84
3 84 521 272
3 84 272 88
3 84 88 83
3 272 521 519
3 272 519 274
3 274 519 520
3 274 520 276
3 522 525 526
3 523 522 526
3 523 526 527
3 524 523 527
3 524 527 528
3 525 529 530
3 526 525 530
3 526 530 531
3 527 526 531
3 527 531 532
3 528 527 532
3 530 529 533
3 530 533 534
3 531 530 534
3 531 534 535
3 532 531 535
3 532 535 292
3 532 292 290
3 532 290 528
3 528 290 94
3 528 94 288
3 528 288 524
3 524 288 92
3 524 92 523
3 523 92 281
3 523 281 522
3 522 281 283
3 522 283 285
3 522 285 525
3 525 285 287
3 525 287 29
3 525 29 529
3 529 29 227
3 529 227 533
3 533 227 30
3 533 30 296
3 533 296 534
3 534 296 294
3 534 294 535
3 535 294 292
3 536 537 538
3 536 538 302
3 536 302 300
3 536 300 293
3 536 293 295
3 536 295 537
3 537 295 297
3 537 297 480
3 537 480 538
3 538 480 41
3 538 41 42
3 538 42 304
3 538 304 302
3 480 297 33
3 33 297 32
3 293 300 291
3 291 300 298
3 291 298 95
3 230 39 481
3 230 481 36
3 36 481 35
3 44 45 305
3 542 544 545
3 545 544 546
3 545 546 329
3 545 329 327
3 545 327 325
3 545 325 542
3 542 325 106
3 542 106 103
3 542 103 317
3 542 317 541
3 542 541 544
3 544 541 543
3 544 543 546
3 546 543 301
3 546 301 303
3 546 303 305
3 546 305 331
3 546 331 329
3 331 305 45
3 301 543 299
3 299 543 541
3 299 541 93
3 93 541 317
3 93 317 289
3 289 317 100
3 289 100 90
3 90 100 540
3 90 540 279
3 279 540 277
3 277 540 539
3 277 539 275
3 275 539 306
3 275 306 273
3 273 306 89
3 306 539 97
3 97 539 310
3 310 539 540
3 310 540 100
3 48 121 548
3 48 548 332
3 48 332 47
3 332 548 330
3 330 548 547
3 330 547 328
3 328 547 326
3 326 547 115
3 326 115 112
3 326 112 109
3 326 109 107
3 115 547 118
3 118 547 548
3 118 548 121
3 238 54 351
3 238 351 551
3 238 551 550
3 238 550 51
3 51 550 549
3 51 549 234
3 234 549 50
3 50 549 122
3 122 549 347
3 347 549 550
3 347 550 349
3 349 550 551
3 349 551 124
3 124 551 351
3 124 351 127
3 57 60 56
3 554 553 556
3 554 556 557
3 555 554 557
3 555 557 242
3 555 242 552
3 555 552 361
3 555 361 359
3 555 359 554
3 554 359 357
3 554 357 553
3 553 357 133
3 553 133 130
3 553 130 128
3 553 128 352
3 553 352 556
3 556 352 56
3 556 56 557
3 557 56 60
3 557 60 242
3 361 552 63
3 63 552 244
3 244 552 242
3 66 139 560
3 66 560 65
3 65 560 362
3 362 560 360
3 360 560 559
3 360 559 358
3 358 559 558
3 358 558 134
3 134 558 136
3 136 558 365
3 365 558 559
3 365 559 139
3 139 559 560
3 561 562 563
3 562 564 565
3 563 562 565
3 563 565 566
3 564 567 568
3 565 564 568
3 565 568 248
3 565 248 251
3 565 251 566
3 566 251 69
3 566 69 377
3 566 377 563
3 563 377 375
3 563 375 561
3 561 375 142
3 561 142 373
3 561 373 562
3 562 373 371
3 562 371 564
3 564 371 369
3 564 369 567
3 567 369 140
3 567 140 68
3 567 68 568
3 568 68 248
3 72 151 254
3 254 151 383
3 254 383 378
3 254 378 71
3 378 383 376
3 376 383 148
3 376 148 143
3 143 148 145
3 75 81 87
3 75 87 74
3 74 87 152
3 152 87 307
3 152 307 154
3 154 307 96
3 154 96 157
3 569 572 573
3 570 569 573
3 570 573 574
3 570 574 575
3 573 572 576
3 573 576 577
3 574 573 577
3 574 577 578
3 574 578 579
3 575 574 579
3 578 577 580
3 578 580 581
3 579 578 581
3 579 581 407
3 579 407 405
3 579 405 575
3 575 405 403
3 575 403 570
3 570 403 401
3 570 401 569
3 569 401 163
3 569 163 571
3 569 571 572
3 572 571 313
3 572 313 576
3 576 313 99
3 576 99 577
3 577 99 474
3 577 474 580
3 580 474 104
3 580 104 581
3 581 104 409
3 581 409 407
3 409 104 105
3 409 105 108
3 313 571 98
3 98 571 397
3 98 397 158
3 397 571 160
3 160 571 163
3 477 101 582
3 477 582 319
3 477 319 102
3 319 582 101
3 583 584 585
3 585 584 587
3 585 587 588
3 586 585 588
3 586 588 589
3 587 590 591
3 588 587 591
3 588 591 589
3 589 591 423
3 589 423 420
3 589 420 417
3 589 417 586
3 586 417 415
3 586 415 585
3 585 415 413
3 585 413 583
3 583 413 411
3 583 411 402
3 583 402 404
3 583 404 584
3 584 404 406
3 584 406 587
3 587 406 408
3 587 408 590
3 590 408 592
3 590 592 426
3 590 426 591
3 591 426 423
3 426 592 429
3 429 592 169
3 169 592 410
3 169 410 111
3 111 410 110
3 410 592 408
3 402 411 164
3 417 420 166
3 114 170 113
3 596 595 597
3 596 597 594
3 596 594 435
3 596 435 593
3 596 593 595
3 595 593 490
3 595 490 597
3 597 490 488
3 597 488 441
3 597 441 184
3 597 184 594
3 594 184 439
3 594 439 181
3 594 181 435
3 435 181 175
3 175 181 178
3 441 488 443
3 443 488 486
3 443 486 187
3 187 486 484
3 187 484 117
3 117 484 482
3 117 482 116
3 116 482 168
3 168 482 431
3 431 482 428
3 428 482 198
3 428 198 425
3 425 198 490
3 425 490 593
3 425 593 422
3 422 593 167
3 167 593 172
3 172 593 435
3 350 123 447
3 350 447 598
3 350 598 348
3 348 598 120
3 120 598 119
3 119 598 188
3 188 598 447
3 126 129 600
3 126 600 125
3 125 600 448
3 448 600 599
3 448 599 444
3 448 444 186
3 444 599 442
3 442 599 185
3 185 599 129
3 129 599 600
3 132 135 602
3 132 602 131
3 131 602 183
3 183 602 601
3 183 601 440
3 440 601 182
3 182 601 190
3 190 601 135
3 135 601 602
3 603 604 605
3 605 604 366
3 605 366 138
3 605 138 370
3 605 370 372
3 605 372 603
3 603 372 374
3 603 374 193
3 603 193 176
3 603 176 604
3 604 176 177
3 604 177 191
3 604 191 137
3 604 137 366
3 193 374 144
3 144 374 141
3 606 607 608
3 606 608 609
3 606 609 610
3 606 610 611
3 606 611 612
3 606 612 607
3 608 607 614
3 608 614 615
3 608 615 616
3 609 608 616
3 609 616 617
3 607 612 618
3 607 618 613
3 607 613 614
3 613 618 620
3 613 620 619
3 613 619 614
3 614 619 460
3 614 460 194
3 614 194 615
3 615 194 146
3 615 146 616
3 616 146 147
3 616 147 617
3 617 147 196
3 617 196 161
3 617 161 610
3 617 610 609
3 610 161 162
3 610 162 412
3 610 412 611
3 611 412 414
3 611 414 612
3 612 414 416
3 612 416 618
3 618 416 418
3 618 418 620
3 620 418 165
3 620 165 171
3 620 171 619
3 619 171 460
3 150 153 384
3 384 153 197
3 384 197 149
3 398 159 195
3 398 195 155
3 398 155 156
3 174 192 462
3 174 462 621
3 174 621 436
3 436 621 173
3 173 621 462
3 180 189 179
3 491 199 622
3 491 622 489
3 489 622 487
3 487 622 485
3 485 622 483
3 483 622 199
