ply
format ascii 1.0
comment Generated by PyMesh
element vertex 763
property float x
property float y
property float z
property float nx
property float ny
property float nz
element face 1522
property list uchar int vertex_indices
end_header
10.328 45.147 34.284 -0.753 0.257 -0.606
10.658 45.423 33.049 -0.973 0.072 0.218
10.44 45.046 34.063 -0.828 0.324 -0.458
11.02 46.112 33.322 -0.715 0.565 0.413
10.661 45.781 34.535 -0.475 0.785 -0.396
10.868 45.862 34.386 -0.613 0.732 -0.297
10.933 45.975 34.576 -0.581 0.788 -0.202
10.712 45.869 34.683 -0.434 0.859 -0.273
11.193 47.197 35.257 -0.754 -0.026 -0.656
10.889 46.645 36.508 -0.933 -0.351 0.08
10.457 45.408 35.729 -0.646 0.474 0.599
10.988 46.076 36.652 -0.999 0.029 -0.016
10.99 45.931 36.752 -0.998 -0.043 0.034
10.459 45.296 35.807 -0.644 0.38 0.663
10.608 45.237 36.021 -0.744 0.419 0.521
11.458 44.964 37.426 -0.765 -0.527 0.371
11.075 44.27 36.696 -0.51 -0.064 0.858
11.737 44.079 37.527 -0.951 0.063 0.304
11.85 43.104 37.213 -0.894 -0.424 0.146
11.189 43.295 36.381 -0.453 -0.551 0.701
11.235 42.731 36.146 -0.484 -0.175 0.858
10.548 42.856 34.654 -0.974 -0.086 -0.208
10.376 43.443 34.615 -0.86 -0.477 -0.182
10.561 42.602 34.097 -0.983 0.084 0.163
10.81 43.244 33.142 -0.859 0.405 -0.314
10.625 44.086 33.66 -0.735 -0.156 -0.66
10.815 44.612 32.709 -0.862 -0.507 -0.025
11.141 43.065 32.475 -0.693 0.315 -0.648
11.094 44.461 32.145 -0.662 -0.615 -0.428
11.308 44.387 31.771 -0.805 -0.566 -0.179
12.91 46.054 31.742 0.53 0.824 -0.202
12.834 46.272 32.114 0.58 0.679 -0.45
13.356 46.216 32.427 0.232 0.716 -0.659
12.418 46.714 33.51 -0.237 0.965 -0.117
12.041 46.692 33.029 0.014 0.979 0.204
12.256 47.73 34.759 -0.129 0.287 -0.949
11.308 47.24 35.136 -0.687 -0 -0.727
11.179 46.248 33.372 -0.601 0.661 0.449
11.057 46.022 34.446 -0.519 0.812 -0.267
13.487 46.694 33.698 0.298 0.954 -0.023
13.25 47.711 34.934 0.456 0.276 -0.846
13.726 46.647 33.81 0.138 0.986 -0.097
14.145 46.497 34.104 0.487 0.861 0.149
13.75 47.531 35.286 0.75 0.171 -0.639
14.066 47.029 35.337 0.54 0.506 -0.673
14.096 47.052 35.38 0.554 0.517 -0.652
13.778 47.553 35.325 0.766 0.183 -0.616
14.004 48.043 35.564 0.615 -0.143 -0.775
11.115 47.378 37.7 -0.83 -0.475 0.293
11.091 46.935 37.311 -0.814 -0.18 0.552
11.206 46.388 37.516 -0.89 0.185 0.416
11.635 47.297 38.394 -0.57 -0.516 0.64
11.726 46.306 38.209 -0.631 0.144 0.763
12.108 46.255 38.709 -0.885 0.178 0.429
12.182 45.09 38.534 -0.849 -0.404 0.341
11.799 45.141 38.033 -0.594 -0.438 0.675
12.078 44.256 38.135 -0.78 0.152 0.607
12.687 44.795 39.019 -0.596 -0.551 0.584
12.584 43.961 38.62 -0.527 0.005 0.85
12.942 44.268 38.978 -0.766 -0.2 0.611
15.622 44.891 36.983 0.81 0.166 -0.563
15.466 44.631 36.474 0.914 0.339 -0.223
15.569 45.465 36.873 0.845 -0.217 -0.489
15.165 45.778 36.324 0.643 -0.06 -0.764
15.062 44.944 35.925 0.712 0.496 -0.498
14.783 45.829 35.824 0.898 -0.095 -0.43
14.731 45.802 35.729 0.872 -0.108 -0.477
15.01 44.916 35.83 0.686 0.482 -0.545
14.69 45.273 34.469 0.899 0.244 0.363
14.786 44.949 34.361 0.948 0.082 0.309
15.106 44.592 35.722 0.734 0.32 -0.599
15.048 44.392 34.159 0.773 0.454 0.444
15.142 44.18 34.183 0.82 0.347 0.455
15.2 44.38 35.746 0.781 0.214 -0.587
15.278 43.95 34.165 0.729 0.501 0.467
15.277 42.983 34.341 0.729 -0.305 0.613
15.199 43.137 35.972 0.781 -0.407 -0.474
15.92 41.105 35.423 0.3 0.948 -0.108
15.616 40.544 36.74 0.083 0.547 0.833
14.839 42.474 37.531 0.6 -0.739 0.305
14.973 40.5 37.033 0.511 0.577 0.637
14.971 40.499 37.036 0.51 0.576 0.639
14.837 42.473 37.533 0.599 -0.739 0.307
14.698 40.333 37.663 0.692 0.688 0.22
12.678 40.279 37.525 -0.751 0.65 0.121
12.446 42.41 37.37 -0.596 -0.771 0.225
12.438 41.011 36.521 -0.591 0.162 0.791
12.266 41.12 36.335 -0.714 0.239 0.658
12.242 42.539 37.15 -0.698 -0.707 0.115
11.566 42.253 36.093 -0.247 -0.516 0.82
11.907 40.774 35.754 -0.97 -0.008 0.243
11.207 41.907 35.511 -0.503 -0.763 0.404
11.646 40.914 35.224 -0.796 -0.101 0.596
11.552 40.914 35.086 -0.843 -0.101 0.528
11.128 41.907 35.395 -0.56 -0.763 0.322
11.247 41.479 34.975 -0.64 -0.478 0.602
11.655 40.548 32.951 -0.792 -0.284 -0.54
11.35 41.113 32.839 -0.589 -0.661 -0.466
11.234 41.293 32.679 -0.511 -0.781 -0.359
11.096 42.789 32.359 -0.625 0.465 -0.626
11.173 43.036 32.427 -0.677 0.301 -0.672
11.334 44.364 31.734 -0.784 -0.585 -0.21
11.465 42.605 32.036 -0.318 0.313 -0.895
11.702 44.181 31.411 -0.477 -0.738 -0.478
11.647 42.8 32.013 -0.44 0.183 -0.879
11.648 42.8 32.012 -0.439 0.183 -0.879
11.703 44.181 31.411 -0.476 -0.738 -0.479
12.35 43.27 31.291 -0.908 -0.131 -0.399
13.13 43.975 30.647 -0.351 0.373 -0.859
12.42 44.829 30.818 0.122 -0.197 -0.973
13.415 44.303 30.599 -0.541 0.154 -0.827
14.123 45.303 31.411 0.049 0.987 -0.15
13.129 45.83 31.629 0.712 0.636 -0.296
13.637 45.927 32.282 0.373 0.571 -0.731
14.912 44.876 31.973 0.707 0.632 0.318
14.652 45.379 33.004 0.88 0.297 -0.37
14.914 44.822 32.802 0.706 0.668 -0.235
15.112 43.536 31.535 0.873 -0.485 -0.047
15.171 43.099 32.239 0.834 -0.193 -0.516
14.973 43.142 31.664 0.966 -0.222 -0.133
14.576 42.45 31.646 0.682 -0.717 -0.145
14.701 42.279 32.219 0.599 -0.603 -0.527
14.793 41.262 32.688 0.538 0.076 -0.84
15.256 41.52 33.394 0.923 0.291 -0.251
15.295 42.612 33.126 0.897 -0.437 -0.073
15.397 42.73 33.344 0.829 -0.516 -0.218
15.274 41.539 33.889 0.938 0.306 0.161
15.416 42.749 33.838 0.844 -0.5 0.194
16.07 40.85 34.877 0.407 0.766 -0.498
15.017 40.459 33.273 0.724 -0.593 -0.352
15.791 39.678 34.208 0.208 -0.072 -0.976
14.876 40.233 33.296 0.818 -0.442 -0.367
14.478 39.68 33.399 0.62 -0.718 -0.316
15.456 39.211 34.295 -0.032 -0.405 -0.914
14.4 38.469 34.027 0.672 0.089 -0.735
14.699 37.698 34.985 0.886 -0.462 -0.051
15.755 38.439 35.252 0.182 -0.956 -0.23
15.13 38.122 35.352 0.598 -0.744 -0.296
15.325 38.866 37.011 0.707 -0.331 0.625
15.927 39.098 36.721 0.305 -0.486 0.819
15.011 38.887 37.642 0.916 -0.345 0.205
14.701 40.329 37.664 0.694 0.685 0.221
15.617 40.54 36.743 0.084 0.544 0.835
14.975 40.495 37.036 0.512 0.574 0.639
13.892 37.831 36.63 -0.09 -0.906 0.414
13.743 37.971 37.305 0.01 -0.999 -0.036
13.603 37.44 36.116 0.103 -0.646 0.757
12.335 38.282 35.889 -0.803 -0.044 0.595
12.475 38.813 37.078 -0.896 -0.398 -0.198
12.459 38.782 36.374 -0.885 -0.378 0.271
12.342 39.674 36.404 -0.95 0.118 0.288
12.371 39.602 37.104 -0.97 0.166 -0.179
12.131 40.334 36.1 -0.81 -0.322 0.49
12.255 39.416 35.828 -0.999 -0.025 -0.032
12.054 40.106 35.591 -0.865 -0.485 0.126
11.82 40.123 35.03 -0.709 -0.497 0.5
12.261 39.343 35.76 -0.995 -0.066 -0.07
11.827 40.047 34.959 -0.706 -0.535 0.464
12.16 38.779 35.345 -0.928 0.31 0.207
12.191 38.459 34.474 -0.906 0.082 -0.416
11.864 39.668 33.927 -0.688 -0.724 -0.052
11.923 39.597 33.676 -0.727 -0.677 0.115
13.057 39.41 32.927 0.217 -0.833 -0.509
13.321 39.428 32.963 0.041 -0.845 -0.534
13.422 38.256 33.659 -0.026 -0.063 -0.998
14.744 41.224 32.656 0.497 0.044 -0.867
14.525 41.216 32.502 0.643 0.05 -0.764
14.523 42.409 31.611 0.644 -0.746 -0.171
13.175 42.278 31.234 -0.319 -0.84 -0.44
12.929 41.06 32.056 -0.155 -0.028 -0.988
12.624 41.625 31.945 0.048 -0.405 -0.913
11.812 41.26 32.319 -0.358 -0.587 -0.726
12.117 40.695 32.43 -0.561 -0.211 -0.8
11.593 41.407 32.274 -0.212 -0.686 -0.696
11.979 42.169 31.866 -0.274 -0.133 -0.953
11.723 42.115 31.922 -0.103 -0.096 -0.99
12.63 42.737 31.168 -0.708 -0.511 -0.487
12.351 43.269 31.291 -0.907 -0.131 -0.399
11.466 42.604 32.035 -0.318 0.312 -0.896
11.649 42.798 32.012 -0.439 0.182 -0.88
14.727 45.838 35.714 0.87 -0.09 -0.485
14.686 45.31 34.454 0.897 0.262 0.355
14.658 45.571 34.397 0.915 0.089 0.393
15.011 46.923 36.56 0.566 0.513 -0.646
14.629 46.975 36.059 0.821 0.478 -0.312
14.537 47.965 36.244 0.882 -0.182 -0.435
15.02 46.932 36.575 0.571 0.517 -0.638
14.547 47.974 36.26 0.886 -0.177 -0.427
15.141 47.462 36.903 0.49 0.164 -0.856
15.29 48.189 37.345 0.564 0.528 -0.635
14.695 48.701 36.702 0.961 0.186 -0.206
14.94 48.656 37.237 0.798 0.216 -0.563
12.256 48.039 39.227 -0.781 -0.147 0.607
11.809 48.038 38.842 -0.483 -0.146 0.864
12.403 47.526 39.485 -0.879 0.196 0.435
12.24 46.794 39.054 -0.961 -0.17 0.22
11.645 47.307 38.411 -0.564 -0.511 0.648
12.119 46.265 38.727 -0.88 0.183 0.438
13.54 45.884 40.047 -0.311 -0.625 0.716
13.419 45.354 39.72 -0.23 -0.272 0.934
13.965 45.951 40.453 -0.594 -0.67 0.446
14.235 45.744 40.426 -0.434 -0.791 0.43
13.71 45.132 39.691 -0.084 -0.383 0.92
13.894 44.581 39.603 -0.207 -0.016 0.978
14.32 45.709 40.44 -0.385 -0.812 0.438
13.978 44.546 39.618 -0.157 -0.037 0.987
14.623 45.52 40.454 -0.587 -0.686 0.43
16.215 45.889 39.271 0.74 -0.379 -0.555
15.881 44.986 38.205 0.962 0.222 0.156
16.223 46.15 39.027 0.735 -0.553 -0.393
16.22 46.206 38.949 0.733 -0.52 -0.439
15.878 45.042 38.127 0.961 0.255 0.11
15.845 45.628 38.103 0.983 -0.135 0.126
16.251 46.48 38.753 0.751 -0.359 -0.554
15.878 45.923 37.892 1 0.013 0.02
15.999 46.453 38.219 0.919 -0.341 -0.198
15.7 48.562 39.253 0.427 0.866 -0.26
15.406 48.693 38.757 0.623 0.779 0.071
15.672 48.721 39.572 0.445 0.761 -0.473
15.625 48.756 39.587 0.406 0.79 -0.46
15.345 48.737 38.776 0.592 0.802 0.08
14.992 49.166 38.568 0.828 0.516 0.219
14.235 48.437 40.619 -0.752 0.524 0.4
13.331 48.785 39.801 -0.149 0.292 0.945
13.559 48.327 40.103 -0.301 0.597 0.744
14.219 48.385 40.652 -0.766 0.481 0.428
13.538 48.261 40.146 -0.311 0.563 0.765
13.963 48.161 40.544 -0.595 0.63 0.5
12.982 50.265 36.658 0.104 0.968 -0.229
12.721 50.308 36.618 0.278 0.939 -0.202
10.637 45.258 33.699 -0.959 0.183 -0.215
10.94 45.834 33.927 -0.661 0.75 0.009
11.096 46.432 35.082 -0.69 0.483 -0.539
10.436 45.716 35.204 -0.663 0.731 0.161
10.844 46.293 35.558 -0.935 0.347 -0.074
10.864 47.014 35.88 -0.948 -0.134 -0.289
10.864 46.012 36.037 -0.916 0.072 0.394
10.848 45.704 36.146 -0.906 0.277 0.321
10.849 45.588 36.226 -0.905 0.186 0.384
10.142 44.698 35.494 -0.908 -0.117 0.402
10.201 44.469 35.618 -0.947 0.036 0.319
10.079 44.626 34.755 -0.961 -0.177 -0.213
10.12 44.377 34.669 -0.988 -0.011 -0.156
10.746 44.747 36.415 -0.674 0.174 0.717
11.128 45.441 37.145 -0.929 -0.289 0.231
10.667 43.374 35.934 -0.714 -0.512 0.477
10.794 42.797 35.768 -0.799 -0.128 0.588
10.378 43.426 35.307 -0.859 -0.486 0.164
10.55 42.841 35.238 -0.973 -0.096 0.21
10.41 43.761 34.112 -0.843 -0.319 -0.434
10.595 42.919 33.594 -0.966 0.243 -0.089
10.991 43.939 32.961 -0.979 -0.058 -0.193
11.258 43.794 32.422 -0.772 -0.171 -0.613
10.942 45.067 31.89 -0.771 -0.182 -0.61
11.168 44.945 31.536 -0.922 -0.101 -0.374
11.124 45.699 31.737 -0.641 0.269 -0.719
11.336 45.526 31.396 -0.782 0.384 -0.491
11.591 46.185 31.729 -0.307 0.617 -0.725
11.766 45.975 31.388 -0.423 0.757 -0.498
12.218 46.395 31.867 0.141 0.767 -0.626
12.343 46.168 31.515 0.057 0.918 -0.392
12.517 46.621 32.577 0.354 0.928 -0.119
12.981 46.629 32.975 0.045 0.922 -0.385
12.137 46.723 33.757 -0.049 0.958 -0.281
12.215 47.099 34.384 -0.101 0.708 -0.699
11.525 46.408 34.001 -0.832 0.555 0.03
11.572 46.767 34.64 -0.863 0.315 -0.396
11.305 46.548 34.892 -0.685 0.461 -0.565
11.199 46.508 35.004 -0.758 0.433 -0.487
12.388 47.046 34.284 -0.217 0.743 -0.633
13.262 47.029 34.438 0.447 0.731 -0.516
13.404 47.001 34.505 0.353 0.75 -0.56
13.773 46.869 34.764 0.735 0.613 -0.291
13.362 47.851 35.056 0.522 0.359 -0.774
13.557 48.363 35.275 0.392 0.017 -0.92
12.843 48.075 34.937 0.216 0.49 -0.844
12.999 48.604 35.147 0.112 0.138 -0.984
12.28 48.199 34.981 -0.115 0.564 -0.818
12.394 48.738 35.195 -0.19 0.204 -0.96
11.739 48.209 35.184 -0.433 0.57 -0.699
11.812 48.749 35.413 -0.481 0.21 -0.851
11.283 48.104 35.522 -0.701 0.508 -0.5
11.32 48.636 35.776 -0.727 0.153 -0.67
10.963 47.896 35.956 -0.89 0.385 -0.245
10.976 48.412 36.242 -0.899 0.041 -0.436
10.816 47.609 36.435 -0.976 0.216 0.037
10.819 48.103 36.758 -0.977 -0.113 -0.178
10.861 47.275 36.905 -0.949 0.02 0.314
10.867 47.744 37.264 -0.953 -0.292 0.074
11.69 45.711 38.175 -0.648 -0.153 0.746
12.073 45.66 38.676 -0.903 -0.119 0.412
12.94 43.462 38.729 -0.349 -0.245 0.904
13.273 43.804 39.08 -0.572 -0.473 0.671
13.418 43.065 38.699 -0.11 -0.443 0.89
13.718 43.435 39.052 -0.31 -0.69 0.654
13.965 42.817 38.534 0.163 -0.568 0.807
14.226 43.204 38.898 -0.011 -0.826 0.564
14.515 42.745 38.252 0.439 -0.603 0.666
14.738 43.138 38.637 0.29 -0.865 0.41
15.006 42.859 37.887 0.684 -0.546 0.483
15.195 43.244 38.297 0.559 -0.802 0.21
15.381 43.146 37.48 0.871 -0.403 0.28
15.543 43.51 37.918 0.763 -0.646 -0.013
15.595 43.571 37.079 0.978 -0.19 0.079
15.742 43.905 37.546 0.881 -0.413 -0.232
15.624 44.086 36.73 0.993 0.067 -0.095
15.769 44.384 37.221 0.897 -0.132 -0.423
14.683 45.018 35.169 0.904 0.414 -0.104
14.769 44.728 35.073 0.959 0.229 -0.165
14.879 44.39 34.961 0.886 0.455 -0.091
14.96 44.206 34.982 0.941 0.33 -0.077
15.019 44.061 34.973 0.902 0.427 -0.072
15.018 43.164 35.136 0.901 -0.425 0.083
15.068 42.53 36.006 0.868 -0.002 -0.497
15.162 41.922 35.912 0.806 0.403 -0.434
15.463 41.418 35.706 0.605 0.739 -0.296
15.346 42.912 36.873 0.854 -0.52 -0.024
15.166 42.381 36.604 0.974 -0.165 0.155
15.237 41.806 36.376 0.926 0.218 0.307
15.548 41.288 36.228 0.719 0.563 0.406
16.044 40.915 36.184 0.389 0.812 0.436
14.829 42.089 37.042 0.607 -0.483 0.631
14.976 41.58 36.716 0.509 -0.143 0.849
15.254 41.033 36.609 0.324 0.221 0.92
14.613 41.884 37.145 0.751 -0.346 0.563
14.662 41.168 36.964 0.718 0.131 0.683
14.612 41.884 37.147 0.749 -0.346 0.565
14.66 41.168 36.966 0.717 0.131 0.685
14.495 41.996 37.436 0.827 -0.421 0.371
14.348 41.42 37.427 0.925 -0.037 0.378
14.419 40.835 37.507 0.878 0.353 0.324
14.336 42.52 38.129 0.349 -0.716 0.604
14.144 42.029 37.853 0.477 -0.389 0.788
14.065 41.446 37.763 0.529 -0 0.848
14.111 40.863 37.873 0.499 0.388 0.775
14.275 40.372 38.166 0.39 0.716 0.579
13.58 42.523 38.318 -0.029 -0.715 0.699
13.616 42.031 37.985 -0.053 -0.387 0.921
13.639 41.448 37.869 -0.068 0.002 0.998
13.646 40.865 37.989 -0.073 0.39 0.918
13.636 40.374 38.326 -0.066 0.717 0.693
12.858 42.481 38.028 -0.39 -0.736 0.554
13.111 42.001 37.782 -0.559 -0.416 0.717
13.232 41.424 37.706 -0.639 -0.031 0.768
13.202 40.839 37.811 -0.619 0.359 0.698
13.026 40.339 38.081 -0.502 0.692 0.518
12.823 41.952 37.322 -0.847 -0.466 0.257
13 41.384 37.335 -0.965 -0.087 0.248
12.949 40.796 37.406 -0.931 0.305 0.2
12.614 41.799 36.798 -0.708 -0.363 0.606
12.458 41.897 36.631 -0.842 -0.279 0.461
11.98 42.494 36.546 -0.523 -0.677 0.517
11.653 42.966 36.599 -0.762 -0.332 0.556
12.003 41.712 36.08 -0.539 -0.155 0.828
11.69 41.41 35.574 -0.826 -0.432 0.363
11.503 41.462 35.309 -0.701 -0.466 0.54
11.423 41.462 35.191 -0.757 -0.466 0.458
10.7 42.278 35 -0.866 -0.499 0.039
10.74 41.918 34.507 -0.893 -0.258 0.368
11.023 41.223 34.293 -0.752 -0.605 0.261
11.328 40.659 34.405 -0.955 -0.229 0.187
11.059 41.095 33.543 -0.734 -0.67 -0.114
11.364 40.53 33.655 -0.937 -0.293 -0.188
10.737 41.68 33.295 -0.895 -0.377 -0.238
10.757 41.734 33.033 -0.908 -0.413 -0.064
10.652 42.606 33.096 -0.937 0.086 -0.337
10.691 42.454 32.879 -0.963 0.187 -0.193
11.425 43.733 32.184 -0.844 -0.164 -0.51
11.4 43.755 32.22 -0.866 -0.145 -0.478
11.461 43.871 32.057 -0.868 -0.256 -0.425
11.377 43.316 32.277 -0.812 0.114 -0.572
11.74 43.732 31.812 -0.502 -0.438 -0.745
11.657 43.177 32.032 -0.446 -0.068 -0.892
11.782 43.555 31.871 -0.53 -0.321 -0.785
11.783 43.555 31.871 -0.529 -0.321 -0.785
12.108 43.776 31.403 -0.746 -0.468 -0.473
11.996 44.461 30.987 -0.232 -0.504 -0.832
12.386 44.042 31.001 -0.492 -0.225 -0.841
12.669 43.574 30.831 -0.68 0.087 -0.728
12.788 44.392 30.84 -0.124 0.094 -0.988
12.943 44.569 30.819 -0.227 -0.024 -0.974
12.809 45.489 30.997 0.446 0.352 -0.823
13.292 45.16 30.98 0.124 0.571 -0.812
13.803 44.962 30.779 -0.217 0.703 -0.677
13.579 45.466 31.548 0.412 0.879 -0.242
13.853 45.513 31.904 0.23 0.847 -0.479
14.221 45.793 32.642 0.665 0.504 -0.551
14.328 45.404 32.197 0.594 0.763 -0.255
14.577 45.198 31.69 0.428 0.9 0.083
14.678 45.067 32.492 0.863 0.505 -0.028
14.842 45.22 33.688 0.976 0.217 -0.028
15.104 44.663 33.486 0.801 0.589 0.107
15.251 44.275 32.709 0.875 0.395 -0.281
15.175 44.451 31.9 0.926 0.277 0.258
15.342 43.664 32.509 0.92 0.089 -0.381
15.246 43.976 31.745 0.985 -0.119 0.128
14.68 41.802 32.534 0.613 -0.284 -0.737
15.168 42.075 33.279 0.981 -0.079 -0.175
15.474 43.781 33.12 0.986 0.148 -0.076
15.536 43.64 33.339 0.945 0.242 -0.222
15.202 42.141 33.402 0.959 -0.123 -0.257
15.218 42.157 33.839 0.975 -0.106 0.194
15.202 42.244 34.16 0.986 -0.164 -0.02
15.253 41.695 34.476 0.952 0.202 -0.231
15.561 41.201 34.731 0.747 0.531 -0.4
15.125 42.374 34.439 0.83 0.101 0.548
15.196 41.793 34.684 0.783 0.489 0.385
15.478 41.342 35.033 0.595 0.789 0.152
15.53 41.081 34.419 0.767 0.612 -0.192
16.117 40.286 34.425 0.441 0.363 -0.821
15.568 40.628 34.055 0.807 0.135 -0.574
15.317 41.02 33.473 0.974 -0.126 -0.186
15.306 40.139 33.881 0.532 -0.379 -0.757
15.232 40.006 33.885 0.581 -0.291 -0.76
14.909 39.557 33.969 0.333 -0.636 -0.696
14.873 38.867 34.301 0.356 -0.176 -0.918
15.699 38.73 34.668 0.142 -0.749 -0.647
15.087 38.444 34.628 0.55 -0.558 -0.621
14.643 37.988 34.4 0.846 -0.254 -0.469
15.136 38.189 35.142 0.594 -0.789 -0.156
15.911 38.54 36.081 0.294 -0.885 0.362
15.307 38.235 36.289 0.697 -0.682 0.224
15.366 39.063 37.095 0.679 -0.462 0.57
15.936 39.852 36.902 0.312 0.053 0.949
15.374 39.725 37.254 0.687 0.137 0.714
15.02 39.641 37.823 0.922 0.193 0.335
15.093 40.331 37.114 0.433 0.684 0.587
14.52 38.223 37.492 0.565 -0.819 0.098
14.77 38.116 36.842 0.399 -0.748 0.531
13.663 37.843 36.65 0.063 -0.914 0.401
12.963 38.2 37.294 -0.547 -0.836 -0.044
12.977 38.045 36.64 -0.557 -0.732 0.392
12.823 37.669 36.105 -0.454 -0.482 0.749
12.547 38.585 36.45 -0.944 -0.246 0.22
12.389 39.98 36.578 -0.981 -0.086 0.172
12.662 40.583 36.952 -0.74 0.447 0.503
12.143 39.802 35.4 -0.925 -0.283 0.253
12.15 39.732 35.335 -0.921 -0.325 0.213
12.145 39.434 35.09 -0.918 -0.126 0.377
12.175 39.123 34.244 -0.895 -0.361 -0.263
11.898 39.637 33.802 -0.71 -0.703 0.032
11.578 40.309 33.264 -0.831 -0.404 -0.384
11.645 40.205 33.214 -0.875 -0.334 -0.351
11.701 40.096 33.16 -0.913 -0.261 -0.315
12.119 40.51 32.489 -0.56 -0.303 -0.771
12.124 40.382 32.528 -0.563 -0.218 -0.797
12.122 40.252 32.558 -0.562 -0.131 -0.817
12.971 40.079 32.342 -0.134 -0.519 -0.844
12.878 40.001 32.398 -0.072 -0.466 -0.882
12.784 39.917 32.444 -0.01 -0.41 -0.912
13.188 39.424 32.948 0.13 -0.842 -0.524
13.37 38.926 33.453 0.008 -0.51 -0.86
13.951 39.516 33.067 0.356 -0.801 -0.482
13.887 38.998 33.538 0.399 -0.455 -0.796
13.954 38.33 33.747 0.354 -0.01 -0.935
14.32 39.133 33.81 0.726 -0.353 -0.59
13.22 38.923 33.445 0.108 -0.508 -0.855
12.674 38.197 33.906 -0.561 -0.105 -0.821
12.613 38.875 33.645 -0.52 -0.557 -0.647
12.368 39.356 33.154 -0.357 -0.878 -0.32
12.221 39.088 34.105 -0.926 -0.337 -0.17
14.304 37.406 35.661 0.603 -0.67 0.432
14.683 37.792 36.117 0.35 -0.928 0.128
14.377 41.892 32.163 0.741 -0.401 -0.538
13.789 40.974 32.114 0.275 -0.072 -0.959
13.791 41.699 31.854 0.274 -0.555 -0.785
13.901 42.204 31.283 0.2 -0.892 -0.405
13.106 41.768 31.808 -0.273 -0.5 -0.822
12.247 42.479 31.674 -0.453 -0.339 -0.825
12.015 42.921 31.776 -0.684 0.101 -0.723
12.077 43.031 31.725 -0.725 0.027 -0.688
12.077 43.032 31.725 -0.725 0.028 -0.688
12.361 42.49 31.599 -0.529 -0.347 -0.775
12.915 42.023 31.667 -0.146 -0.67 -0.728
14.479 41.912 32.274 0.673 -0.414 -0.612
14.519 41.943 32.301 0.72 -0.378 -0.582
14.703 43.081 31.044 0.773 -0.266 -0.576
14.863 43.48 30.964 0.666 -0.532 -0.523
14.212 43.235 30.6 0.422 -0.156 -0.893
14.411 43.622 30.555 0.289 -0.414 -0.863
13.635 43.563 30.454 0.01 0.078 -0.997
13.88 43.924 30.421 -0.153 -0.162 -0.975
14.546 45.525 35.11 0.995 0.076 -0.065
14.543 45.558 35.096 0.993 0.097 -0.073
14.731 45.525 33.484 0.92 0.37 -0.13
14.693 45.738 33.643 0.945 0.228 -0.236
14.129 46.22 33.105 0.619 0.718 -0.32
14.225 46.278 33.348 0.554 0.679 -0.482
14.534 45.705 35.064 0.999 -0.001 -0.052
14.519 46.102 34.261 0.799 0.532 0.28
14.393 46.242 34.927 0.884 0.439 -0.164
14.548 46.522 35.539 0.78 0.252 -0.572
14.014 46.641 34.768 0.574 0.764 -0.293
14.777 46.422 35.889 0.895 0.202 -0.397
15.159 46.371 36.389 0.64 0.236 -0.731
14.678 47.422 36.474 0.788 0.18 -0.589
14.687 47.431 36.489 0.793 0.185 -0.58
14.484 49.34 36.884 0.855 0.506 -0.115
14.743 49.25 37.407 0.682 0.566 -0.464
14.095 49.829 37.194 0.66 0.75 0.04
14.382 49.705 37.695 0.469 0.833 -0.294
13.584 50.096 37.587 0.405 0.883 0.236
13.907 49.953 38.06 0.19 0.979 -0.079
13.027 50.102 38.006 0.126 0.886 0.445
13.389 49.958 38.449 -0.115 0.982 0.149
12.503 49.847 38.389 -0.135 0.759 0.637
12.902 49.721 38.805 -0.401 0.843 0.359
12.09 49.368 38.681 -0.342 0.519 0.783
12.517 49.276 39.077 -0.627 0.581 0.519
11.846 48.734 38.84 -0.464 0.202 0.863
12.291 48.687 39.225 -0.76 0.234 0.606
11.978 46.808 38.497 -0.786 -0.178 0.591
11.968 46.798 38.481 -0.792 -0.184 0.582
12.397 45.912 39.194 -0.741 0.007 0.671
12.518 46.442 39.521 -0.822 -0.346 0.453
12.847 45.597 39.538 -0.516 -0.15 0.843
12.968 46.127 39.865 -0.597 -0.503 0.625
13.139 44.953 39.451 -0.37 -0.472 0.8
13.362 44.415 39.38 -0.519 -0.114 0.847
14.135 45.251 39.86 -0.367 -0.463 0.807
14.208 45.221 39.873 -0.31 -0.486 0.817
14.378 45.109 39.888 -0.424 -0.412 0.807
14.633 44.218 39.548 0.228 -0.23 0.946
14.892 44.851 39.834 0.056 -0.652 0.756
15.171 45.246 40.396 -0.13 -0.915 0.381
15.289 44.192 39.216 0.614 -0.245 0.75
15.406 44.831 39.573 0.536 -0.671 0.513
15.719 45.224 40.117 0.327 -0.933 0.149
15.75 44.476 38.719 0.886 -0.078 0.458
15.768 45.054 39.183 0.874 -0.463 0.149
16.106 45.462 39.701 0.649 -0.735 -0.197
15.87 45.454 38.78 0.97 -0.089 -0.228
15.866 45.604 38.642 0.972 -0.19 -0.136
15.863 45.653 38.574 0.97 -0.152 -0.188
15.849 44.993 37.529 0.944 0.226 -0.242
15.814 45.575 37.46 0.967 -0.162 -0.195
15.78 46.275 37.359 0.951 0.188 -0.246
15.901 46.805 37.686 0.87 -0.165 -0.464
15.484 46.624 36.903 0.802 0.363 -0.474
15.605 47.154 37.231 0.722 0.01 -0.692
16.109 47.085 38.163 0.974 -0.024 -0.226
16.353 47.068 38.701 0.811 -0.013 -0.585
16.037 47.72 38.243 0.938 0.293 -0.186
16.286 47.658 38.775 0.772 0.334 -0.541
15.792 48.279 38.449 0.816 0.573 -0.083
16.059 48.178 38.967 0.638 0.64 -0.428
15.47 48.528 38.03 0.654 0.697 -0.293
15.107 48.972 37.874 0.896 0.402 -0.189
15.213 48.86 39.096 0.681 0.72 -0.133
14.459 49.458 39.066 0.515 0.688 0.512
14.777 49.098 39.503 0.303 0.927 0.22
15.18 49 40.003 0.035 0.993 -0.113
13.839 49.315 39.526 0.15 0.604 0.783
14.269 48.982 39.88 -0.136 0.826 0.547
14.661 48.881 40.388 -0.397 0.894 0.208
13.853 48.547 40.106 -0.497 0.45 0.742
12.714 48.422 39.65 -0.512 0.078 0.856
12.896 47.937 39.94 -0.633 0.401 0.662
13.278 47.697 40.319 -0.442 0.282 0.852
13.721 47.637 40.705 -0.737 0.322 0.594
13.187 47.061 40.361 -0.487 -0.036 0.873
13.637 47.046 40.744 -0.786 -0.026 0.617
13.279 46.43 40.266 -0.441 -0.352 0.826
13.722 46.459 40.656 -0.737 -0.371 0.566
14.347 47.696 41.154 -0.369 0.356 0.858
14.54 47.996 41.163 -0.498 0.156 0.853
15.121 47.391 41.362 0.087 0.177 0.98
15.188 47.74 41.336 0.042 -0.056 0.998
15.928 47.386 41.071 0.561 0.174 0.809
15.863 47.737 41.092 0.604 -0.059 0.795
16.394 47.685 40.415 0.835 0.35 0.424
16.253 47.987 40.544 0.929 0.149 0.338
16.304 48.149 39.699 0.782 0.623 0.002
16.178 48.374 39.945 0.867 0.472 -0.162
16.569 46.507 39.62 0.938 -0.343 -0.044
16.504 46.187 39.768 0.981 -0.13 -0.142
16.491 46.711 40.363 0.892 -0.223 0.393
16.439 46.359 40.389 0.927 0.012 0.376
16.018 46.687 40.975 0.614 -0.237 0.753
16.043 46.338 40.901 0.597 -0.005 0.802
15.328 46.442 41.226 0.208 -0.381 0.901
15.466 46.134 41.111 0.116 -0.175 0.978
14.681 46.07 41.023 -0.173 -0.6 0.781
14.925 45.822 40.941 -0.335 -0.435 0.836
12.625 49.856 35.832 -0.075 0.763 -0.642
12.443 49.99 35.975 0.046 0.674 -0.737
11.725 49.448 35.832 -0.525 0.56 -0.642
11.743 49.673 35.975 -0.537 0.41 -0.737
11.181 49.449 36.658 -0.796 0.56 -0.229
11.321 49.674 36.618 -0.889 0.41 -0.202
11.539 49.858 37.483 -0.618 0.765 0.184
11.599 49.992 37.26 -0.658 0.676 0.333
12.439 50.266 37.483 -0.168 0.969 0.184
12.299 50.309 37.26 -0.074 0.94 0.333
11.338 46.222 34.344 -0.707 0.678 -0.199
14.653 45.353 35.51 0.924 0.191 -0.331
14.985 41.953 35.261 0.924 0.383 0
14.985 42.24 34.764 0.924 0.191 0.331
14.985 42.814 34.764 0.924 -0.191 0.331
14.87 42.527 35.261 1 -0 0
12.255 41.919 36.358 -0.707 -0.294 0.643
12.05 43.514 31.658 -0.707 -0.294 -0.643
10.193 45.439 35.011 -0.866 0.5 0
10.193 45.139 35.531 -0.866 0.25 0.433
10.032 44.839 35.011 -1 0 0
11.709 46.687 32.744 -0.223 0.975 0
11.709 46.552 32.152 -0.223 0.878 -0.423
11.148 46.417 32.744 -0.623 0.782 0
11.148 46.243 32.152 -0.623 0.658 -0.423
10.76 45.929 32.744 -0.901 0.434 0
10.76 45.018 32.218 -0.901 -0.217 -0.376
10.76 45.626 32.218 -0.901 0.217 -0.376
11.173 47.695 35.378 -0.766 0.267 -0.585
10.878 47.532 35.868 -0.94 0.171 -0.296
10.775 47.241 36.372 -1 0 0
11.369 46.018 37.86 -0.809 -0 0.588
11.369 45.43 37.702 -0.809 -0.294 0.509
10.477 44.398 36.156 -0.809 -0 0.588
10.477 43.81 35.998 -0.809 -0.294 0.509
10.193 43.78 34.98 -0.951 -0.309 -0
10.193 44.089 34.445 -0.951 -0.155 -0.268
15.54 43.643 36.385 0.951 -0.155 -0.268
12.462 43.333 38.415 -0.588 -0.31 0.747
12.462 42.808 38.064 -0.588 -0.572 0.572
12.02 43.364 37.938 -0.809 -0.294 0.509
11.039 42.259 35.772 -0.623 -0.512 0.591
10.625 41.816 33.771 -0.951 -0.309 -0
12.274 45.748 30.997 -0 0.568 -0.823
11.674 44.918 30.956 -0.5 -0.123 -0.857
11.674 45.498 31.04 -0.5 0.36 -0.788
14.599 46.064 33.926 0.866 0.5 0
14.392 48.329 35.939 0.809 -0 -0.588
14.392 48.917 36.097 0.809 0.294 -0.509
14.392 49.347 36.527 0.809 0.509 -0.294
13.95 48.948 35.62 0.588 0.31 -0.747
13.95 49.473 35.971 0.588 0.572 -0.572
13.95 49.824 36.496 0.588 0.747 -0.31
13.392 50.231 37.115 0.309 0.951 0
13.392 48.796 35.271 0.309 0.233 -0.922
13.392 49.369 35.523 0.309 0.52 -0.796
13.392 49.83 35.947 0.309 0.751 -0.584
13.392 50.128 36.497 0.309 0.9 -0.309
12.774 50.24 37.705 -0 0.956 0.295
12.774 49.06 35.253 -0 0.365 -0.931
12.774 49.576 35.551 -0 0.623 -0.782
11.598 49.473 38.259 -0.588 0.572 0.572
11.598 48.948 38.61 -0.588 0.31 0.747
11.156 49.347 37.703 -0.809 0.509 0.294
11.156 48.917 38.133 -0.809 0.294 0.509
11.156 48.329 38.291 -0.809 -0 0.588
11.156 47.741 38.133 -0.809 -0.294 0.509
11.156 48.917 36.097 -0.809 0.294 -0.509
10.872 48.947 37.115 -0.951 0.309 0
10.872 48.638 37.65 -0.951 0.155 0.268
10.872 48.02 37.65 -0.951 -0.155 0.268
10.872 48.638 36.58 -0.951 0.155 -0.268
10.774 48.329 37.115 -1 -0 -0
12.703 45.279 39.346 -0.588 -0.31 0.747
15.945 44.608 37.94 1 0 0
15.842 44.027 37.94 0.94 -0.342 -0
15.547 43.892 38.766 0.766 -0.421 0.486
15.095 43.872 39.215 0.5 -0.433 0.75
15.095 43.417 38.805 0.5 -0.701 0.509
14.54 43.599 39.276 0.174 -0.593 0.786
13.95 44.15 39.55 -0.174 -0.27 0.947
13.95 43.599 39.276 -0.174 -0.593 0.786
15.603 43.349 33.605 1 0 0
16.9 39.778 35.574 1 0 0
16.761 40.385 35.574 0.901 0.434 0
16.761 40.082 36.1 0.901 0.217 0.376
16.761 39.474 36.1 0.901 -0.217 0.376
16.761 39.171 35.574 0.901 -0.434 -0
16.761 39.474 35.048 0.901 -0.217 -0.376
16.761 40.082 35.048 0.901 0.217 -0.376
16.373 40.873 35.574 0.623 0.782 0
16.373 40.699 36.166 0.623 0.658 0.423
16.373 40.233 36.57 0.623 0.325 0.711
16.373 39.622 36.657 0.623 -0.111 0.774
16.373 39.061 36.401 0.623 -0.512 0.591
16.373 38.728 35.882 0.623 -0.75 0.22
16.373 38.728 35.266 0.623 -0.75 -0.22
16.373 39.061 34.747 0.623 -0.512 -0.591
16.373 39.622 34.491 0.623 -0.111 -0.774
14.602 39.825 38.351 0.623 0.325 0.711
14.602 39.214 38.438 0.623 -0.111 0.774
14.602 38.653 38.182 0.623 -0.512 0.591
14.041 39.674 38.686 0.223 0.217 0.95
14.041 39.066 38.686 0.223 -0.217 0.95
14.041 38.519 38.422 0.223 -0.608 0.762
14.041 38.14 37.947 0.223 -0.878 0.423
13.417 39.674 38.686 -0.223 0.217 0.95
13.417 39.066 38.686 -0.223 -0.217 0.95
13.417 38.519 38.422 -0.223 -0.608 0.762
13.417 38.14 37.947 -0.223 -0.878 0.423
12.856 39.825 38.351 -0.623 0.325 0.711
12.856 39.214 38.438 -0.623 -0.111 0.774
12.856 38.653 38.182 -0.623 -0.512 0.591
12.856 38.32 37.663 -0.623 -0.75 0.22
12.468 39.674 37.881 -0.901 0.217 0.376
12.468 39.066 37.881 -0.901 -0.217 0.376
14.415 39.973 32.887 0.588 -0.572 -0.572
13.857 39.829 32.632 0.309 -0.644 -0.7
13.857 40.353 32.289 0.309 -0.382 -0.871
11.247 42.082 32.081 -0.5 -0.123 -0.857
10.808 41.93 32.59 -0.866 -0.25 -0.433
14.494 42.736 31.023 0.623 -0.512 -0.591
13.933 42.602 30.783 0.223 -0.608 -0.762
13.309 42.602 30.783 -0.223 -0.608 -0.762
13.309 43.149 30.519 -0.223 -0.217 -0.95
15.103 44.718 31.591 0.866 0.5 0
15.103 43.818 31.071 0.866 -0.25 -0.433
15.103 44.418 31.071 0.866 0.25 -0.433
14.664 43.97 30.562 0.5 -0.123 -0.857
14.664 44.55 30.646 0.5 0.36 -0.788
14.664 44.992 31.029 0.5 0.729 -0.468
14.064 44.263 30.4 -0 0.121 -0.993
14.064 44.8 30.603 -0 0.568 -0.823
14.332 37.294 34.748 0.623 -0.75 -0.22
14.332 37.627 34.229 0.623 -0.512 -0.591
13.771 37.114 35.648 0.223 -0.878 0.423
13.771 36.979 35.056 0.223 -0.975 0
13.771 37.114 34.464 0.223 -0.878 -0.423
13.771 37.493 33.989 0.223 -0.608 -0.762
13.147 37.114 35.648 -0.223 -0.878 0.423
13.147 36.979 35.056 -0.223 -0.975 0
13.147 37.114 34.464 -0.223 -0.878 -0.423
13.147 37.493 33.989 -0.223 -0.608 -0.762
12.586 37.294 35.364 -0.623 -0.75 0.22
12.586 37.294 34.748 -0.623 -0.75 -0.22
12.586 37.627 34.229 -0.623 -0.512 -0.591
12.198 38.04 35.582 -0.901 -0.217 0.376
12.198 37.737 35.056 -0.901 -0.434 -0
12.198 38.04 34.53 -0.901 -0.217 -0.376
14.953 38.022 36.483 0.5 -0.8 0.331
12.196 39.728 32.753 -0.5 -0.567 -0.654
15.779 47.722 37.597 0.809 0.294 -0.509
15.779 48.152 38.027 0.809 0.509 -0.294
14.886 49.382 38.195 0.766 0.643 0
14.434 49.761 38.195 0.5 0.866 0
13.879 49.85 38.8 0.174 0.918 0.356
13.289 49.526 39.323 -0.174 0.728 0.663
12.734 49.274 39.289 -0.5 0.579 0.644
12.543 47.134 39.791 -0.809 -0 0.588
16.674 47.09 39.695 1 0 0
16.571 47.671 39.695 0.94 0.342 0
16.571 47.381 40.199 0.94 0.171 0.296
16.571 46.799 39.191 0.94 -0.171 -0.296
16.571 47.381 39.191 0.94 0.171 -0.296
14.679 46.632 41.305 -0.174 -0.27 0.947
14.124 46.936 41.159 -0.5 -0.091 0.861
14.124 46.354 40.97 -0.5 -0.433 0.75
16.366 46.044 40.458 0.866 -0.25 0.433
16.366 45.744 39.938 0.866 -0.5 -0
15.927 45.663 40.723 0.5 -0.567 0.654
15.327 45.446 40.734 -0 -0.749 0.663
15.738 48.847 40.139 0.5 0.866 0
15.738 48.682 40.701 0.5 0.729 0.468
15.738 48.24 41.084 0.5 0.36 0.788
15.138 48.871 40.697 -0 0.885 0.465
15.138 48.49 41.127 -0 0.568 0.823
12.388 50.244 36.302 -0 0.885 -0.465
11.788 50.22 36.86 -0.5 0.866 0
11.788 50.055 36.298 -0.5 0.729 -0.468
3 0 4 230
3 230 4 231
3 230 231 1
3 1 231 3
3 4 7 5
3 5 7 6
3 7 233 232
3 232 233 234
3 232 234 8
3 8 234 235
3 233 10 234
3 234 10 236
3 234 236 235
3 235 236 9
3 10 13 237
3 237 13 238
3 237 238 11
3 11 238 12
3 13 239 14
3 14 239 240
3 239 241 240
3 240 241 242
3 241 0 242
3 242 0 2
3 14 243 12
3 12 243 244
3 243 16 244
3 244 16 15
3 16 19 17
3 17 19 18
3 19 245 20
3 20 245 246
3 245 247 246
3 246 247 248
3 247 22 248
3 248 22 21
3 22 249 23
3 23 249 250
3 249 25 250
3 250 25 24
3 25 2 26
3 26 2 1
3 26 28 251
3 251 28 252
3 251 252 24
3 24 252 27
3 28 253 29
3 29 253 254
3 253 255 254
3 254 255 256
3 255 257 256
3 256 257 258
3 257 259 258
3 258 259 260
3 259 31 260
3 260 31 30
3 31 261 32
3 32 261 262
3 261 34 262
3 262 34 33
3 34 37 263
3 263 37 265
3 263 265 264
3 264 265 266
3 264 266 35
3 35 266 36
3 37 3 38
3 38 3 5
3 38 6 267
3 267 6 268
3 267 268 36
3 36 268 8
3 35 40 269
3 269 40 270
3 269 270 33
3 33 270 39
3 40 43 271
3 271 43 272
3 271 272 41
3 41 272 42
3 43 46 44
3 44 46 45
3 46 273 47
3 47 273 274
3 273 275 274
3 274 275 276
3 275 277 276
3 276 277 278
3 277 279 278
3 278 279 280
3 279 281 280
3 280 281 282
3 281 283 282
3 282 283 284
3 283 285 284
3 284 285 286
3 285 287 286
3 286 287 288
3 287 49 288
3 288 49 48
3 49 9 50
3 50 9 11
3 50 52 48
3 48 52 51
3 52 289 53
3 53 289 290
3 289 55 290
3 290 55 54
3 55 15 56
3 56 15 17
3 56 58 54
3 54 58 57
3 58 291 59
3 59 291 292
3 291 293 292
3 292 293 294
3 293 295 294
3 294 295 296
3 295 297 296
3 296 297 298
3 297 299 298
3 298 299 300
3 299 301 300
3 300 301 302
3 301 303 302
3 302 303 304
3 303 305 304
3 304 305 306
3 305 61 306
3 306 61 60
3 61 64 62
3 62 64 63
3 64 67 65
3 65 67 66
3 67 70 307
3 307 70 308
3 307 308 68
3 68 308 69
3 70 73 309
3 309 73 310
3 309 310 71
3 71 310 72
3 73 76 311
3 311 76 312
3 311 312 74
3 74 312 75
3 76 316 313
3 313 316 317
3 313 317 314
3 314 317 318
3 314 318 315
3 315 318 319
3 315 319 77
3 77 319 320
3 316 79 317
3 317 79 321
3 317 321 318
3 318 321 322
3 318 322 319
3 319 322 323
3 319 323 320
3 320 323 78
3 79 82 324
3 324 82 326
3 324 326 325
3 325 326 327
3 325 327 80
3 80 327 81
3 82 331 328
3 328 331 332
3 328 332 329
3 329 332 333
3 329 333 330
3 330 333 334
3 330 334 83
3 83 334 335
3 331 336 332
3 332 336 337
3 332 337 333
3 333 337 338
3 333 338 334
3 334 338 339
3 334 339 335
3 335 339 340
3 336 341 337
3 337 341 342
3 337 342 338
3 338 342 343
3 338 343 339
3 339 343 344
3 339 344 340
3 340 344 345
3 341 85 342
3 342 85 346
3 342 346 343
3 343 346 347
3 343 347 344
3 344 347 348
3 344 348 345
3 345 348 84
3 85 88 349
3 349 88 350
3 349 350 86
3 86 350 87
3 88 18 351
3 351 18 352
3 351 352 89
3 89 352 20
3 89 91 353
3 353 91 354
3 353 354 87
3 87 354 90
3 91 94 355
3 355 94 356
3 355 356 92
3 92 356 93
3 94 357 95
3 95 357 358
3 357 21 358
3 358 21 23
3 95 359 93
3 93 359 360
3 359 361 360
3 360 361 362
3 361 97 362
3 362 97 96
3 97 363 98
3 98 363 364
3 363 365 364
3 364 365 366
3 365 100 366
3 366 100 99
3 100 27 367
3 367 27 368
3 367 368 101
3 101 368 29
3 101 103 369
3 369 103 371
3 369 371 370
3 370 371 372
3 370 372 99
3 99 372 102
3 103 106 373
3 373 106 374
3 373 374 104
3 104 374 105
3 106 376 375
3 375 376 377
3 375 377 107
3 107 377 378
3 376 109 377
3 377 109 379
3 377 379 378
3 378 379 108
3 109 381 380
3 380 381 382
3 380 382 110
3 110 382 383
3 381 112 382
3 382 112 384
3 382 384 383
3 383 384 111
3 112 30 113
3 113 30 32
3 113 386 385
3 385 386 387
3 385 387 111
3 111 387 388
3 386 115 387
3 387 115 389
3 387 389 388
3 388 389 114
3 115 390 116
3 116 390 391
3 390 69 391
3 391 69 71
3 116 392 114
3 114 392 393
3 392 394 393
3 393 394 395
3 394 118 395
3 395 118 117
3 118 121 119
3 119 121 120
3 121 124 396
3 396 124 397
3 396 397 122
3 122 397 123
3 124 398 125
3 125 398 399
3 398 72 399
3 399 72 74
3 125 127 400
3 400 127 401
3 400 401 123
3 123 401 126
3 127 75 402
3 402 75 405
3 402 405 403
3 403 405 406
3 403 406 404
3 404 406 407
3 404 407 128
3 128 407 77
3 128 409 408
3 408 409 410
3 408 410 126
3 126 410 411
3 409 130 410
3 410 130 412
3 410 412 411
3 411 412 129
3 130 133 413
3 413 133 414
3 413 414 131
3 131 414 132
3 133 416 415
3 415 416 417
3 415 417 134
3 134 417 418
3 416 136 417
3 417 136 419
3 417 419 418
3 418 419 135
3 136 420 137
3 137 420 421
3 420 139 421
3 421 139 138
3 139 423 422
3 422 423 424
3 422 424 140
3 140 424 425
3 423 142 424
3 424 142 426
3 424 426 425
3 425 426 141
3 142 78 143
3 143 78 80
3 143 81 141
3 141 81 83
3 140 427 138
3 138 427 428
3 427 145 428
3 428 145 144
3 145 430 429
3 429 430 431
3 429 431 146
3 146 431 432
3 430 148 431
3 431 148 433
3 431 433 432
3 432 433 147
3 148 151 149
3 149 151 150
3 151 84 434
3 434 84 435
3 434 435 152
3 152 435 86
3 152 154 150
3 150 154 153
3 154 90 155
3 155 90 92
3 155 157 436
3 436 157 437
3 436 437 153
3 153 437 156
3 157 160 438
3 438 160 439
3 438 439 158
3 158 439 159
3 160 441 440
3 440 441 442
3 440 442 161
3 161 442 443
3 441 444 442
3 442 444 445
3 442 445 443
3 443 445 446
3 444 447 445
3 445 447 448
3 445 448 446
3 446 448 449
3 447 163 448
3 448 163 450
3 448 450 449
3 449 450 162
3 163 452 451
3 451 452 453
3 451 453 164
3 164 453 454
3 452 132 453
3 453 132 455
3 453 455 454
3 454 455 134
3 164 457 456
3 456 457 458
3 456 458 162
3 162 458 459
3 457 159 458
3 458 159 460
3 458 460 459
3 459 460 161
3 158 147 156
3 156 147 149
3 146 461 144
3 144 461 462
3 461 135 462
3 462 135 137
3 131 166 129
3 129 166 165
3 166 464 463
3 463 464 465
3 463 465 167
3 167 465 466
3 464 169 465
3 465 169 467
3 465 467 466
3 466 467 168
3 169 172 170
3 170 172 171
3 172 96 173
3 173 96 98
3 173 175 171
3 171 175 174
3 175 178 468
3 468 178 469
3 468 469 176
3 176 469 177
3 178 102 179
3 179 102 104
3 179 105 470
3 470 105 471
3 470 471 177
3 177 471 107
3 176 168 472
3 472 168 473
3 472 473 174
3 174 473 170
3 167 120 474
3 474 120 475
3 474 475 165
3 165 475 122
3 119 476 117
3 117 476 477
3 476 478 477
3 477 478 479
3 478 480 479
3 479 480 481
3 480 108 481
3 481 108 110
3 68 181 482
3 482 181 483
3 482 483 66
3 66 483 180
3 181 484 182
3 182 484 485
3 484 486 485
3 485 486 487
3 486 39 487
3 487 39 41
3 182 489 488
3 488 489 490
3 488 490 180
3 180 490 491
3 489 42 490
3 490 42 492
3 490 492 491
3 491 492 44
3 65 493 63
3 63 493 494
3 493 184 494
3 494 184 183
3 184 45 185
3 185 45 47
3 185 187 495
3 495 187 496
3 495 496 183
3 183 496 186
3 187 190 188
3 188 190 189
3 190 497 191
3 191 497 498
3 497 499 498
3 498 499 500
3 499 501 500
3 500 501 502
3 501 503 502
3 502 503 504
3 503 505 504
3 504 505 506
3 505 507 506
3 506 507 508
3 507 509 508
3 508 509 510
3 509 193 510
3 510 193 192
3 193 196 194
3 194 196 195
3 196 51 511
3 511 51 512
3 511 512 197
3 197 512 53
3 197 513 195
3 195 513 514
3 513 515 514
3 514 515 516
3 515 199 516
3 516 199 198
3 199 202 200
3 200 202 201
3 202 517 203
3 203 517 518
3 517 57 518
3 518 57 59
3 203 205 519
3 519 205 520
3 519 520 201
3 201 520 204
3 205 522 521
3 521 522 523
3 521 523 206
3 206 523 524
3 522 525 523
3 523 525 526
3 523 526 524
3 524 526 527
3 525 528 526
3 526 528 529
3 526 529 527
3 527 529 530
3 528 208 529
3 529 208 531
3 529 531 530
3 530 531 207
3 208 211 532
3 532 211 533
3 532 533 209
3 209 533 210
3 211 534 212
3 212 534 535
3 534 60 535
3 535 60 62
3 212 214 210
3 210 214 213
3 214 536 215
3 215 536 537
3 536 538 537
3 537 538 539
3 538 186 539
3 539 186 188
3 215 540 213
3 213 540 541
3 540 542 541
3 541 542 543
3 542 544 543
3 543 544 545
3 544 217 545
3 545 217 216
3 217 220 218
3 218 220 219
3 220 546 221
3 221 546 547
3 546 189 547
3 547 189 191
3 221 549 548
3 548 549 550
3 548 550 219
3 219 550 551
3 549 552 550
3 550 552 553
3 550 553 551
3 551 553 554
3 552 223 553
3 553 223 555
3 553 555 554
3 554 555 222
3 223 556 224
3 224 556 557
3 556 192 557
3 557 192 194
3 224 226 222
3 222 226 225
3 226 558 227
3 227 558 559
3 558 560 559
3 559 560 561
3 560 562 561
3 561 562 563
3 562 198 563
3 563 198 200
3 227 564 225
3 225 564 565
3 564 566 565
3 565 566 567
3 566 568 567
3 567 568 569
3 568 570 569
3 569 570 571
3 570 572 571
3 571 572 573
3 572 216 573
3 573 216 218
3 209 574 207
3 207 574 575
3 574 576 575
3 575 576 577
3 576 578 577
3 577 578 579
3 578 580 579
3 579 580 581
3 580 582 581
3 581 582 583
3 582 204 583
3 583 204 206
3 228 584 229
3 229 584 585
3 584 586 585
3 585 586 587
3 586 588 587
3 587 588 589
3 588 590 589
3 589 590 591
3 590 592 591
3 591 592 593
3 592 228 593
3 593 228 229
3 2 0 230
3 2 230 1
3 5 3 231
3 5 231 4
3 268 6 232
3 268 232 8
3 232 6 7
3 11 9 236
3 11 236 237
3 237 236 10
3 14 12 238
3 14 238 13
3 17 15 16
3 352 18 19
3 352 19 20
3 23 21 22
3 251 24 25
3 251 25 26
3 368 27 252
3 368 252 28
3 368 28 29
3 32 30 31
3 269 33 263
3 269 263 264
3 269 264 35
3 263 33 34
3 267 36 266
3 267 266 594
3 267 594 38
3 38 594 37
3 37 594 265
3 265 594 266
3 41 39 271
3 271 39 270
3 271 270 40
3 492 42 272
3 492 272 44
3 44 272 43
3 47 45 46
3 50 48 49
3 512 51 52
3 512 52 53
3 56 54 55
3 59 57 58
3 62 60 61
3 65 63 64
3 482 66 595
3 482 595 307
3 482 307 68
3 307 595 67
3 67 595 66
3 71 69 309
3 309 69 308
3 309 308 70
3 74 72 311
3 311 72 310
3 311 310 73
3 596 597 599
3 597 598 599
3 405 75 598
3 405 598 597
3 405 597 406
3 406 597 596
3 406 596 407
3 407 596 315
3 407 315 77
3 315 596 314
3 314 596 599
3 314 599 313
3 313 599 76
3 76 599 312
3 312 599 598
3 312 598 75
3 80 78 323
3 80 323 325
3 325 323 322
3 325 322 324
3 324 322 321
3 324 321 79
3 83 81 330
3 330 81 327
3 330 327 329
3 329 327 326
3 329 326 328
3 328 326 82
3 435 84 348
3 435 348 347
3 435 347 86
3 86 347 349
3 349 347 346
3 349 346 85
3 353 87 600
3 353 600 89
3 89 600 351
3 351 600 350
3 351 350 88
3 350 600 87
3 92 90 354
3 92 354 355
3 355 354 91
3 95 93 356
3 95 356 94
3 98 96 97
3 370 99 100
3 370 100 367
3 370 367 369
3 369 367 101
3 104 102 372
3 104 372 373
3 373 372 371
3 373 371 103
3 471 105 374
3 471 374 601
3 471 601 107
3 107 601 375
3 375 601 374
3 375 374 106
3 110 108 380
3 380 108 379
3 380 379 109
3 385 111 384
3 385 384 112
3 385 112 113
3 116 114 389
3 116 389 115
3 119 117 118
3 475 120 121
3 475 121 396
3 475 396 122
3 400 123 397
3 400 397 124
3 400 124 125
3 408 126 403
3 408 403 404
3 408 404 128
3 403 126 402
3 402 126 401
3 402 401 127
3 131 129 412
3 131 412 413
3 413 412 130
3 455 132 414
3 455 414 415
3 455 415 134
3 415 414 133
3 137 135 419
3 137 419 136
3 140 138 422
3 422 138 139
3 143 141 426
3 143 426 142
3 146 144 429
3 429 144 145
3 149 147 433
3 149 433 148
3 152 150 434
3 434 150 151
3 436 153 154
3 436 154 155
3 158 156 438
3 438 156 437
3 438 437 157
3 460 159 439
3 460 439 160
3 460 160 440
3 460 440 161
3 456 162 450
3 456 450 163
3 456 163 451
3 456 451 164
3 474 165 166
3 474 166 463
3 474 463 167
3 473 168 467
3 473 467 170
3 170 467 169
3 173 171 172
3 472 174 468
3 472 468 176
3 468 174 175
3 470 177 469
3 470 469 179
3 179 469 178
3 488 180 483
3 488 483 182
3 182 483 181
3 495 183 184
3 495 184 185
3 188 186 496
3 188 496 187
3 191 189 190
3 194 192 193
3 197 195 511
3 511 195 196
3 200 198 199
3 519 201 202
3 519 202 203
3 206 204 520
3 206 520 521
3 521 520 205
3 209 207 532
3 532 207 531
3 532 531 208
3 212 210 533
3 212 533 211
3 215 213 214
3 218 216 217
3 548 219 220
3 548 220 221
3 224 222 555
3 224 555 223
3 227 225 226
3 603 602 604
3 603 604 239
3 603 239 13
3 603 13 10
3 603 10 233
3 603 233 602
3 602 233 7
3 602 7 4
3 602 4 0
3 602 0 604
3 604 0 241
3 604 241 239
3 607 606 608
3 605 606 607
3 609 608 611
3 607 608 609
3 609 611 1
3 609 1 3
3 609 3 607
3 607 3 37
3 607 37 605
3 605 37 34
3 605 34 261
3 605 261 606
3 606 261 259
3 606 259 257
3 606 257 608
3 608 257 255
3 608 255 611
3 611 255 253
3 611 253 610
3 611 610 1
3 1 610 26
3 26 610 28
3 28 610 253
3 259 261 31
3 6 38 5
3 9 49 287
3 9 287 614
3 9 614 235
3 235 614 613
3 235 613 8
3 8 613 612
3 8 612 36
3 36 612 279
3 36 279 35
3 35 279 277
3 35 277 275
3 35 275 40
3 40 275 273
3 40 273 43
3 43 273 46
3 279 612 281
3 281 612 283
3 283 612 613
3 283 613 285
3 285 613 614
3 285 614 287
3 244 15 616
3 244 616 615
3 244 615 50
3 244 50 12
3 12 50 11
3 50 615 52
3 52 615 289
3 289 615 616
3 289 616 55
3 55 616 15
3 2 25 620
3 2 620 242
3 242 620 619
3 242 619 240
3 240 619 618
3 240 618 617
3 240 617 14
3 14 617 243
3 243 617 16
3 16 617 618
3 16 618 19
3 19 618 245
3 245 618 247
3 247 618 619
3 247 619 22
3 22 619 620
3 22 620 249
3 249 620 25
3 82 79 331
3 623 622 624
3 623 624 18
3 623 18 88
3 623 88 85
3 623 85 341
3 623 341 293
3 623 293 622
3 622 293 291
3 622 291 58
3 622 58 56
3 622 56 624
3 624 56 17
3 624 17 18
3 293 341 336
3 293 336 295
3 295 336 331
3 295 331 297
3 297 331 79
3 297 79 299
3 299 79 301
3 301 79 316
3 301 316 303
3 303 316 621
3 303 621 305
3 305 621 61
3 61 621 73
3 61 73 70
3 61 70 64
3 64 70 67
3 73 621 76
3 76 621 316
3 357 94 625
3 357 625 246
3 357 246 248
3 357 248 21
3 246 625 20
3 20 625 89
3 89 625 91
3 91 625 94
3 24 27 365
3 24 365 250
3 250 365 23
3 23 365 626
3 23 626 358
3 358 626 359
3 358 359 95
3 359 626 361
3 361 626 363
3 361 363 97
3 363 626 365
3 365 27 100
3 106 103 376
3 30 112 381
3 30 381 260
3 260 381 627
3 260 627 258
3 258 627 629
3 258 629 256
3 256 629 628
3 256 628 254
3 254 628 103
3 254 103 101
3 254 101 29
3 103 628 376
3 376 628 109
3 109 628 629
3 109 629 627
3 109 627 381
3 33 39 262
3 262 39 486
3 262 486 32
3 32 486 113
3 113 486 386
3 386 486 115
3 115 486 484
3 115 484 390
3 390 484 181
3 390 181 69
3 69 181 68
3 489 182 630
3 489 630 42
3 42 630 487
3 42 487 41
3 487 630 485
3 485 630 182
3 45 184 491
3 45 491 44
3 491 184 493
3 491 493 180
3 180 493 65
3 180 65 66
3 632 631 634
3 632 634 635
3 633 632 635
3 633 635 636
3 634 638 639
3 635 634 639
3 635 639 640
3 636 635 640
3 636 640 641
3 639 638 643
3 639 643 644
3 640 639 644
3 645 647 648
3 646 645 648
3 646 648 649
3 647 652 653
3 648 647 653
3 649 648 653
3 649 653 654
3 650 649 654
3 653 652 656
3 654 653 656
3 652 655 656
3 656 655 286
3 656 286 288
3 656 288 654
3 654 288 48
3 654 48 650
3 650 48 51
3 650 51 196
3 650 196 193
3 650 193 649
3 649 193 509
3 649 509 646
3 646 509 507
3 646 507 645
3 645 507 505
3 645 505 590
3 645 590 647
3 647 590 588
3 647 588 652
3 652 588 655
3 655 588 651
3 655 651 284
3 655 284 286
3 284 651 282
3 282 651 586
3 282 586 280
3 280 586 278
3 278 586 644
3 278 644 643
3 278 643 276
3 276 643 638
3 276 638 274
3 274 638 634
3 274 634 47
3 47 634 631
3 47 631 185
3 185 631 187
3 187 631 190
3 190 631 632
3 190 632 633
3 190 633 497
3 497 633 636
3 497 636 499
3 499 636 637
3 499 637 501
3 501 637 642
3 501 642 503
3 503 642 505
3 505 642 592
3 505 592 590
3 592 642 637
3 592 637 228
3 228 637 641
3 228 641 640
3 228 640 584
3 584 640 644
3 584 644 586
3 641 637 636
3 586 651 588
3 54 57 657
3 54 657 290
3 290 657 513
3 290 513 197
3 290 197 53
3 513 657 515
3 515 657 517
3 515 517 199
3 199 517 202
3 517 657 57
3 660 661 662
3 662 661 663
3 662 663 298
3 662 298 300
3 662 300 660
3 660 300 302
3 660 302 659
3 660 659 528
3 660 528 525
3 660 525 661
3 661 525 522
3 661 522 663
3 663 522 664
3 663 664 665
3 663 665 296
3 663 296 298
3 296 665 294
3 294 665 292
3 292 665 664
3 292 664 518
3 292 518 59
3 518 664 203
3 203 664 205
3 205 664 522
3 528 659 658
3 528 658 208
3 208 658 211
3 211 658 534
3 534 658 306
3 534 306 60
3 306 658 659
3 306 659 304
3 304 659 302
3 494 183 186
3 494 186 538
3 494 538 62
3 494 62 63
3 62 538 536
3 62 536 535
3 535 536 214
3 535 214 212
3 398 124 394
3 398 394 392
3 398 392 391
3 398 391 72
3 72 391 71
3 391 392 116
3 394 124 118
3 118 124 121
3 75 127 666
3 75 666 74
3 74 666 399
3 399 666 125
3 125 666 127
3 78 142 320
3 667 668 669
3 667 669 670
3 667 670 671
3 667 671 672
3 667 672 673
3 667 673 668
3 669 668 675
3 669 675 676
3 669 676 677
3 670 669 677
3 670 677 678
3 670 678 679
3 671 670 679
3 671 679 680
3 672 671 680
3 672 680 681
3 672 681 682
3 673 672 682
3 668 674 675
3 675 674 320
3 675 320 676
3 676 320 142
3 676 142 423
3 676 423 677
3 677 423 139
3 677 139 678
3 678 139 420
3 678 420 679
3 679 420 136
3 679 136 680
3 680 136 416
3 680 416 681
3 681 416 133
3 681 133 130
3 681 130 682
3 682 130 409
3 682 409 673
3 673 409 128
3 673 128 668
3 668 128 674
3 674 128 77
3 674 77 320
3 80 81 143
3 141 83 425
3 684 683 686
3 684 686 687
3 685 684 687
3 685 687 688
3 685 688 689
3 686 690 691
3 687 686 691
3 687 691 692
3 688 687 692
3 688 692 693
3 689 688 693
3 690 694 695
3 691 690 695
3 691 695 696
3 692 691 696
3 693 692 696
3 693 696 697
3 695 694 698
3 695 698 699
3 696 695 699
3 697 696 699
3 697 699 148
3 697 148 430
3 697 430 693
3 693 430 145
3 693 145 689
3 689 145 427
3 689 427 685
3 685 427 140
3 685 140 684
3 684 140 425
3 684 425 683
3 683 425 83
3 683 83 335
3 683 335 686
3 686 335 340
3 686 340 690
3 690 340 694
3 694 340 345
3 694 345 698
3 698 345 84
3 698 84 151
3 698 151 699
3 699 151 148
3 87 90 152
3 87 152 86
3 152 90 154
3 362 96 441
3 362 441 160
3 362 160 360
3 360 160 157
3 360 157 155
3 360 155 93
3 93 155 92
3 441 96 444
3 444 96 172
3 444 172 447
3 447 172 169
3 447 169 702
3 447 702 701
3 447 701 163
3 163 701 452
3 452 701 700
3 452 700 132
3 132 700 131
3 131 700 166
3 166 700 702
3 166 702 464
3 464 702 169
3 702 700 701
3 102 178 99
3 99 178 703
3 99 703 704
3 99 704 366
3 366 704 364
3 364 704 98
3 98 704 703
3 98 703 173
3 173 703 175
3 175 703 178
3 104 105 179
3 177 107 176
3 706 707 708
3 706 708 478
3 706 478 705
3 706 705 466
3 706 466 707
3 707 466 168
3 707 168 176
3 707 176 708
3 708 176 378
3 708 378 108
3 708 108 480
3 708 480 478
3 378 176 107
3 466 705 167
3 167 705 120
3 120 705 476
3 120 476 119
3 476 705 478
3 711 710 712
3 711 712 713
3 711 713 714
3 709 711 714
3 713 712 715
3 713 715 716
3 714 713 716
3 714 716 383
3 714 383 111
3 714 111 388
3 714 388 709
3 709 388 114
3 709 114 393
3 709 393 395
3 709 395 711
3 711 395 710
3 710 395 117
3 710 117 477
3 710 477 712
3 712 477 479
3 712 479 715
3 715 479 481
3 715 481 110
3 715 110 716
3 716 110 383
3 123 126 411
3 123 411 122
3 122 411 129
3 122 129 165
3 717 720 721
3 718 717 721
3 718 721 722
3 719 723 724
3 720 719 724
3 720 724 725
3 721 720 725
3 721 725 726
3 722 721 726
3 724 723 727
3 724 727 728
3 725 724 728
3 725 728 729
3 726 725 729
3 727 730 731
3 728 727 731
3 728 731 732
3 729 728 732
3 729 732 457
3 729 457 726
3 726 457 164
3 726 164 722
3 722 164 454
3 722 454 718
3 718 454 134
3 718 134 418
3 718 418 717
3 717 418 135
3 717 135 461
3 717 461 720
3 720 461 719
3 719 461 146
3 719 146 723
3 723 146 432
3 723 432 727
3 727 432 730
3 730 432 147
3 730 147 158
3 730 158 731
3 731 158 732
3 732 158 159
3 732 159 457
3 428 144 462
3 428 462 733
3 428 733 421
3 428 421 138
3 421 733 462
3 421 462 137
3 150 153 149
3 149 153 156
3 459 161 734
3 459 734 162
3 162 734 449
3 449 734 446
3 446 734 443
3 443 734 161
3 171 174 170
3 546 220 217
3 546 217 544
3 546 544 736
3 546 736 189
3 189 736 735
3 189 735 188
3 188 735 539
3 539 735 537
3 537 735 540
3 537 540 215
3 540 735 542
3 542 735 736
3 542 736 544
3 556 223 741
3 556 741 510
3 556 510 192
3 510 741 508
3 508 741 506
3 506 741 740
3 506 740 504
3 504 740 739
3 504 739 502
3 502 739 738
3 502 738 500
3 500 738 737
3 500 737 498
3 498 737 547
3 498 547 191
3 547 737 221
3 221 737 549
3 549 737 738
3 549 738 739
3 549 739 552
3 552 739 740
3 552 740 223
3 223 740 741
3 516 198 562
3 516 562 742
3 516 742 514
3 514 742 195
3 195 742 194
3 194 742 557
3 557 742 558
3 557 558 226
3 557 226 224
3 558 742 560
3 560 742 562
3 743 744 745
3 743 746 747
3 743 747 744
3 748 749 750
3 748 750 582
3 748 582 580
3 748 580 566
3 748 566 749
3 749 566 564
3 749 564 559
3 749 559 561
3 749 561 563
3 749 563 750
3 750 563 200
3 750 200 201
3 750 201 582
3 582 201 204
3 559 564 227
3 566 580 568
3 568 580 578
3 568 578 576
3 568 576 570
3 570 576 745
3 570 745 744
3 570 744 572
3 572 744 545
3 572 545 216
3 545 744 543
3 543 744 747
3 543 747 541
3 541 747 746
3 541 746 213
3 213 746 210
3 210 746 209
3 209 746 574
3 574 746 743
3 574 743 576
3 576 743 745
3 583 206 754
3 583 754 581
3 581 754 753
3 581 753 579
3 579 753 751
3 579 751 577
3 577 751 575
3 575 751 752
3 575 752 207
3 207 752 530
3 530 752 527
3 527 752 753
3 527 753 754
3 527 754 524
3 524 754 206
3 753 752 751
3 756 755 758
3 756 758 759
3 757 756 759
3 757 759 567
3 757 567 569
3 757 569 571
3 757 571 756
3 756 571 573
3 756 573 755
3 755 573 218
3 755 218 219
3 755 219 551
3 755 551 758
3 758 551 554
3 758 554 759
3 759 554 222
3 759 222 225
3 759 225 565
3 759 565 567
3 761 760 762
3 761 762 589
3 761 589 591
3 761 591 593
3 761 593 229
3 761 229 760
3 760 229 585
3 760 585 762
3 762 585 587
3 762 587 589
