ply
format ascii 1.0
comment Generated by PyMesh
element vertex 1210
property float x
property float y
property float z
property float nx
property float ny
property float nz
element face 2416
property list uchar int vertex_indices
end_header
-7.892 -30.839 -7.935 -0.739 -0.655 -0.154
-7.556 -31.683 -8.543 -0.963 -0.092 0.251
-7.797 -31.118 -7.613 -0.802 -0.469 -0.369
-7.458 -30.79 -9.436 -0.915 0.354 -0.195
-7.816 -30.144 -8.63 -0.676 -0.077 -0.733
-7.33 -30.294 -9.756 -1 0.023 0.017
-6.282 -29.034 -9.371 -0.251 0.923 0.292
-6.851 -28.984 -8.275 0.129 0.89 -0.438
-5.886 -28.849 -9.397 -0.514 0.8 0.31
-5.582 -28.84 -9.134 -0.261 0.808 0.529
-6.546 -28.975 -8.013 0.382 0.898 -0.219
-5.064 -28.736 -7.899 -0.606 0.739 -0.295
-5.109 -28.735 -7.31 -0.644 0.739 0.196
-6.592 -28.974 -7.424 0.344 0.899 0.272
-6.385 -29.093 -7.058 0.206 0.978 0.027
-5.101 -28.738 -7.274 -0.637 0.737 0.226
-6.376 -29.096 -7.018 0.213 0.976 0.055
-5.268 -28.893 -7.133 -0.526 0.84 0.132
-5.189 -29.137 -6.403 -0.487 0.718 0.497
-6.31 -29.302 -6.401 0.26 0.828 0.496
-4.908 -29.156 -5.816 -0.675 0.731 0.106
-4.968 -29.249 -5.653 -0.705 0.684 0.188
-6.361 -29.381 -6.264 0.224 0.772 0.595
-4.941 -29.258 -5.387 -0.723 0.691 0.01
-5.155 -30.067 -4.881 -0.901 0.017 0.433
-6.593 -30.259 -5.713 0.058 0.145 0.988
-5.243 -30.289 -5.002 -0.842 0.164 0.514
-5.267 -30.706 -4.993 -0.854 -0.045 0.518
-6.613 -30.612 -5.705 0.043 -0.107 0.993
-6.13 -30.982 -5.641 -0.279 0.139 0.95
-7.509 -31.655 -7.847 -0.968 -0.197 -0.153
-7.778 -31.181 -7.569 -0.789 -0.514 -0.338
-7.533 -31.757 -8.492 -0.952 -0.129 0.277
-6.491 -33.033 -7.667 -0.46 -0.886 -0.063
-6.516 -33.135 -8.312 -0.443 -0.818 0.367
-6.093 -34.282 -8.792 -0.725 -0.053 0.686
-6.335 -34.242 -9.101 -0.846 -0.033 0.531
-6.758 -33.095 -8.622 -0.564 -0.798 0.212
-6.888 -33.094 -8.856 -0.478 -0.798 0.368
-7.094 -32.35 -10.185 -0.649 -0.178 -0.74
-7.023 -32.138 -10.331 -0.697 -0.319 -0.642
-6.692 -33.196 -11.145 -0.917 0.386 -0.1
-5.428 -32.547 -11.743 -0.014 0.85 -0.527
-5.527 -31.369 -11.039 0.051 0.065 -0.997
-4.908 -31.546 -11.163 -0.361 0.183 -0.914
-4.882 -31.461 -11.154 -0.348 0.226 -0.91
-5.5 -31.284 -11.03 0.064 0.108 -0.992
-5.677 -30.71 -11.102 0.182 -0.274 -0.944
-4.752 -31.32 -11.158 -0.284 0.296 -0.912
-5.568 -30.591 -11.106 0.26 -0.19 -0.947
-4.504 -31.305 -11.257 -0.449 0.286 -0.846
-4.269 -30.978 -11.189 -0.253 0.558 -0.79
-5.312 -30.237 -11.033 0.442 0.064 -0.895
-4.993 -29.957 -10.927 0.23 -0.123 -0.965
-3.711 -30.663 -10.877 0.212 0.821 -0.53
-4.435 -29.641 -10.615 0.695 0.14 -0.705
-3.732 -30.495 -10.67 0.226 0.709 -0.668
-3.386 -30.124 -9.74 0.399 0.894 -0.203
-4.166 -29.353 -9.891 0.919 0.38 -0.102
-3.399 -29.55 -8.91 0.408 0.511 -0.756
-3.893 -28.929 -8.49 0.161 0.822 -0.546
-4.55 -28.87 -9.564 0.599 0.782 0.17
-4.032 -28.766 -8.329 0.254 0.713 -0.654
-3.459 -28.768 -7.811 0.378 0.902 -0.207
-3.694 -28.641 -7.801 0.535 0.817 -0.213
-2.378 -27.586 -6.722 -0.342 0.114 -0.933
-3.228 -27.529 -5.799 -0.949 0.154 -0.274
-4.477 -28.589 -6.951 -0.117 0.861 0.495
-4.184 -28.72 -6.132 -0.312 0.949 -0.051
-4.28 -28.753 -6.104 -0.361 0.932 -0.038
-4.552 -28.615 -6.93 -0.18 0.84 0.513
-4.562 -28.734 -6.691 -0.173 0.919 0.353
-3.274 -27.635 -5.178 -0.982 0.079 0.17
-4.238 -28.845 -5.396 -0.34 0.886 0.316
-4.373 -28.945 -5.188 -0.25 0.952 0.177
-3.151 -27.746 -4.789 -0.894 -0.001 0.448
-4.259 -29.047 -4.83 -0.155 0.866 0.475
-3.19 -28.381 -4.511 -0.868 0.422 0.262
-3.177 -28.491 -4.337 -0.861 0.361 0.359
-4.249 -29.137 -4.688 -0.147 0.792 0.593
-3.238 -28.803 -3.719 -0.821 0.569 -0.053
-3.407 -29.841 -3.24 -0.942 -0.172 0.29
-4.405 -30.092 -4.247 -0.277 -0.004 0.961
-4.279 -30.321 -4.187 -0.36 0.148 0.921
-2.156 -30.993 -3.52 -0.048 -0.995 0.09
-2.799 -31.684 -4.518 0.38 -0.534 0.755
-1.055 -31.724 -3.928 -0.782 -0.507 0.362
-0.916 -32.008 -4.3 -0.666 -0.744 0.052
-2.62 -32.049 -4.996 0.47 -0.716 0.516
-0.487 -33.58 -4.266 -0.952 0.304 0.029
-1.325 -32.221 -5.263 -0.398 -0.613 0.682
-0.817 -32.584 -5.09 -0.736 -0.371 0.567
-0.494 -33.599 -4.286 -0.955 0.295 0.019
-2.626 -32.068 -5.017 0.466 -0.726 0.506
-0.897 -33.645 -5.233 -0.687 0.326 0.65
-0.926 -33.675 -5.249 -0.701 0.311 0.641
-2.656 -32.098 -5.034 0.452 -0.741 0.498
-2.854 -32.275 -5.069 0.584 -0.623 0.521
-4.305 -32.345 -5.239 -0.626 -0.681 0.38
-4.522 -32.188 -5.252 -0.481 -0.786 0.389
-5.468 -32.64 -5.962 0.15 -0.484 0.862
-5.699 -32.386 -5.843 -0.043 -0.272 0.961
-4.818 -31.861 -5.099 -0.63 -0.622 0.465
-5.681 -32.137 -5.747 -0.055 -0.438 0.897
-5.995 -33.204 -7.082 -0.289 -0.955 -0.072
-6.062 -33.19 -7.34 -0.245 -0.964 0.1
-5.663 -34.439 -8.465 -0.511 -0.131 0.85
-5.951 -33.218 -7.059 -0.253 -0.966 -0.053
-5.607 -34.457 -8.435 -0.483 -0.14 0.865
-4.956 -34.345 -7.643 -0.917 -0.215 0.337
-4.898 -34.558 -7.66 -0.888 -0.322 0.328
-5.55 -34.67 -8.452 -0.454 -0.247 0.856
-5.08 -35.508 -8.01 -0.767 0.311 0.562
-5.443 -35.977 -8.514 -0.948 0.077 0.31
-5.912 -35.139 -8.956 -0.635 -0.482 0.604
-5.703 -35.701 -8.985 -0.774 -0.107 0.624
-6.032 -35.878 -10.273 -0.968 -0.211 -0.134
-6.266 -35.329 -10.341 -0.812 -0.577 -0.089
-5.989 -36.107 -10.543 -0.997 -0.058 0.046
-5.822 -35.966 -11.209 -0.859 0.06 -0.509
-6.053 -35.147 -11.197 -0.705 -0.485 -0.517
-6.23 -34.769 -11.472 -0.587 -0.738 -0.333
-6.724 -33.856 -10.544 -0.94 -0.086 0.329
-6.638 -34.066 -10.099 -0.998 0.055 0.033
-7.124 -32.958 -9.632 -0.674 -0.684 -0.279
-5.242 -35.898 -11.701 -0.375 0.117 -0.919
-5.6 -34.695 -12.007 -0.137 -0.685 -0.716
-5.307 -35.059 -11.831 -0.332 -0.442 -0.833
-4.235 -32.997 -11.728 0.203 0.589 -0.782
-4.695 -32.953 -11.92 0.51 0.56 -0.654
-3.95 -31.855 -11.423 0.013 -0.172 -0.985
-4.484 -31.524 -11.316 -0.433 0.103 -0.896
-5.275 -32.594 -11.804 0.095 0.816 -0.57
-4.727 -31.602 -11.234 -0.271 0.155 -0.95
-3.411 -33.208 -11.408 0.616 0.484 -0.622
-3.308 -32.019 -11.174 0.547 -0.309 -0.778
-3.215 -32.238 -11.052 0.485 -0.163 -0.859
-2.865 -33.534 -10.82 0.888 0.321 -0.328
-2.669 -32.564 -10.465 0.758 -0.326 -0.565
-2.214 -33.422 -10.028 0.454 0.246 -0.856
-1.736 -32.617 -8.943 0.693 0.649 -0.314
-2.191 -31.758 -9.38 0.997 0.077 -0.023
-0.059 -31.484 -8.065 -0.425 -0.106 -0.899
-0.059 -31.482 -8.065 -0.425 -0.105 -0.899
-2.192 -31.756 -9.38 0.997 0.078 -0.023
-2.08 -31.452 -8.867 0.923 -0.125 -0.365
-2.806 -30.213 -9.069 0.404 0.759 -0.51
-3.05 -30.29 -9.62 0.567 0.811 -0.143
-3.063 -29.716 -8.789 0.576 0.428 -0.696
-2.322 -30.367 -8.532 0.75 0.65 -0.125
-2.491 -29.898 -8.153 0.862 0.337 -0.378
-1.724 -29.768 -7.366 0.351 0.25 -0.902
-1.991 -29.214 -7.148 0.16 0.646 -0.747
-2.807 -29.243 -7.895 0.704 0.665 -0.249
-1.827 -27.987 -6.793 0.051 -0.173 -0.984
-1.711 -29.267 -7.094 0.36 0.608 -0.708
-1.547 -28.04 -6.739 0.251 -0.211 -0.945
-1.378 -28.712 -6.714 0.139 0.238 -0.961
-1.052 -28.615 -6.606 0.32 0.291 -0.901
-1.258 -27.954 -6.643 0.458 -0.149 -0.876
0.536 -28.971 -7.33 -0.738 0.529 -0.418
1.058 -28.464 -6.771 -0.303 0.952 0.048
-0.691 -27.403 -6.036 0.863 0.244 -0.443
0.276 -28.226 -5.846 0.218 0.793 -0.569
0.132 -28.076 -4.461 0.115 0.9 0.421
-0.835 -27.253 -4.65 0.76 0.351 0.547
-0.574 -27.824 -4.354 0.586 0.731 0.349
-1.99 -27.904 -3.726 -0.201 0.687 0.698
-2.088 -27.324 -4.094 -0.135 0.301 0.944
-2.187 -28.284 -3.178 -0.07 0.94 0.333
-3.033 -28.569 -3.568 -0.674 0.736 0.055
-2.935 -27.61 -4.484 -0.74 0.097 0.666
-2.946 -28.226 -4.166 -0.732 0.508 0.454
-0.865 -28.425 -3.518 0.424 0.397 0.814
-1.192 -28.745 -2.994 0.641 0.611 0.465
0.853 -28.861 -2.402 -0.722 0.688 0.07
0.748 -29.116 -2.075 -0.81 0.476 0.343
-1.306 -29.022 -2.639 0.559 0.413 0.719
0.586 -29.328 -2.095 -0.702 0.617 0.356
0.184 -31.012 -2.073 -0.903 -0.225 0.367
-1.645 -30.444 -2.62 0.317 -0.603 0.732
0.241 -31.269 -2.026 -0.94 -0.053 0.336
0.217 -31.483 -2.241 -0.96 -0.232 0.157
-1.671 -30.677 -2.854 0.299 -0.769 0.565
-0.609 -31.433 -3.316 -0.41 -0.265 0.873
0.346 -31.829 -2.357 -0.852 -0.52 0.06
-0.479 -31.779 -3.431 -0.302 -0.553 0.777
0.075 -33.285 -3.148 -0.671 0.451 0.588
0.632 -32.05 -2.001 -0.614 -0.704 0.357
0.442 -33.57 -2.691 -0.488 0.309 0.816
1.183 -33.156 -1.746 -0.982 0.034 0.186
1.196 -33.294 -1.694 -0.973 -0.065 0.224
0.457 -33.732 -2.629 -0.48 0.228 0.847
0.222 -34.24 -2.496 -0.323 0.566 0.758
-0.756 -34.208 -4.103 -0.812 0.582 -0.045
-0.521 -33.701 -4.236 -0.969 0.244 0.044
-1.087 -34.489 -4.535 -0.591 0.769 0.243
-1.086 -34.477 -4.57 -0.59 0.775 0.226
-0.519 -33.689 -4.271 -0.968 0.25 0.026
-0.922 -33.735 -5.217 -0.699 0.281 0.657
-1.177 -34.528 -4.652 -0.636 0.749 0.185
-1.013 -33.787 -5.299 -0.745 0.255 0.616
-2.921 -32.362 -5.108 0.527 -0.695 0.489
-2.67 -32.617 -5.532 0.174 -0.742 0.648
-1.321 -34.282 -5.282 -0.772 0.425 0.473
-1.51 -34.839 -4.918 -0.803 0.594 0.052
-3.181 -32.603 -5.315 0.311 -0.896 0.317
-2.889 -33.934 -6.33 0.116 -0.009 0.993
-4.06 -33.904 -6.55 -0.469 0.006 0.883
-4.092 -32.58 -5.486 -0.448 -0.877 0.174
-5.255 -32.875 -6.209 0.327 -0.68 0.656
-1.653 -35.06 -4.92 -0.874 0.483 0.05
-3.032 -34.155 -6.333 0.045 -0.12 0.992
-2.934 -34.72 -6.294 -0.02 0.257 0.966
-4.794 -35.129 -7.61 -0.95 0.052 0.309
-4.892 -34.564 -7.648 -0.885 -0.325 0.334
-5.074 -35.513 -7.998 -0.763 0.308 0.568
-3.233 -36.821 -7.059 -0.169 -0.794 0.584
-3.512 -37.205 -7.447 0.017 -0.538 0.843
-2.072 -37.783 -5.739 -0.943 -0.152 -0.296
-1.991 -37.937 -5.855 -0.876 -0.28 -0.393
-3.409 -37.403 -7.596 0.069 -0.636 0.768
-3.358 -37.838 -7.85 0.035 -0.346 0.938
-4.549 -37.927 -9.736 -0.815 -0.41 -0.41
-4.818 -37.508 -9.829 -0.636 -0.689 -0.348
-5.228 -37.151 -10.488 -0.363 -0.927 0.092
-5.584 -36.828 -10.165 -0.66 -0.658 0.361
-5.277 -37.093 -9.413 -0.865 -0.482 -0.14
-5.549 -36.74 -9.821 -0.684 -0.717 0.132
-3.697 -37.813 -10.454 -0.206 -0.328 -0.922
-4.443 -37.045 -11.148 0.291 -0.84 -0.459
-3.809 -37.373 -10.678 -0.131 -0.621 -0.772
-3.414 -36.878 -10.983 0.067 -0.374 -0.925
-4.135 -36.66 -11.386 0.548 -0.519 -0.657
-3.816 -36.539 -11.281 0.335 -0.599 -0.727
-4.297 -35.677 -11.735 0.053 -0.092 -0.994
-4.537 -35.939 -11.766 0.213 0.082 -0.974
-4.4 -35.113 -11.914 0.121 -0.469 -0.875
-3.114 -35.401 -11.166 0.749 0.07 -0.659
-3.127 -34.816 -11.302 0.757 -0.32 -0.569
-2.658 -35.654 -10.86 0.445 0.238 -0.863
-2.283 -35.179 -10.357 0.632 0.476 -0.612
-2.753 -34.341 -10.799 0.945 -0.083 -0.317
-2.101 -34.229 -10.007 0.51 -0.157 -0.845
-2.263 -35.188 -10.343 0.642 0.471 -0.605
-2.081 -34.238 -9.993 0.52 -0.162 -0.838
-1.984 -34.803 -9.955 0.456 0.215 -0.864
-1.44 -34.678 -9.482 0.728 0.278 -0.627
-1.537 -34.113 -9.52 0.792 -0.099 -0.602
0.004 -34.008 -8.987 -0.235 -0.169 -0.957
-0.14 -32.773 -8.507 -0.338 0.713 -0.614
-1.708 -32.651 -8.952 0.707 0.632 -0.318
-0.032 -31.518 -8.074 -0.411 -0.124 -0.903
1.16 -33.02 -8.491 0.59 0.537 -0.603
1.507 -31.81 -8.054 0.359 -0.27 -0.894
1.956 -32.262 -7.898 0.059 0.032 -0.998
2.036 -32.179 -7.888 0.099 0.073 -0.992
1.587 -31.727 -8.044 0.399 -0.228 -0.888
1.747 -31.184 -8.246 0.292 -0.59 -0.753
0.215 -29.898 -7.887 -0.803 0.33 -0.497
-0.227 -30.204 -7.619 -0.508 0.534 -0.676
-1.623 -29.773 -7.324 0.423 0.246 -0.872
-1.655 -29.851 -7.358 0.4 0.19 -0.897
-0.265 -30.297 -7.659 -0.527 0.487 -0.696
-2.254 -30.45 -8.524 0.799 0.59 -0.12
0.315 -29.519 -7.645 -0.731 0.6 -0.323
-1.523 -29.394 -7.081 0.494 0.517 -0.699
-1.167 -28.855 -6.699 0.256 0.158 -0.954
0.357 -29.458 -7.621 -0.701 0.644 -0.307
-1.119 -28.787 -6.673 0.283 0.196 -0.939
0.481 -29.111 -7.385 -0.784 0.412 -0.464
2.682 -30.002 -7.026 0.96 0.255 0.119
2.622 -29.612 -6.837 1 -0.005 -0.008
3.179 -30.041 -5.761 0.629 0.281 -0.725
3.111 -29.613 -5.578 0.595 0.495 -0.634
2.569 -29.279 -6.695 0.956 0.272 0.111
3.089 -29.378 -5.452 0.609 0.338 -0.718
2.183 -28.675 -5.017 -0.146 0.923 -0.355
1.663 -28.577 -6.26 0.201 0.858 0.473
0.932 -28.348 -5.291 0.687 0.705 -0.172
2.133 -28.609 -4.693 -0.188 0.979 -0.085
0.878 -28.276 -4.939 0.649 0.757 0.079
1.881 -28.625 -4.602 -0.02 0.989 -0.145
1.593 -28.67 -3.918 -0.164 0.967 0.197
0.635 -28.314 -4.361 0.475 0.73 0.492
1.622 -28.652 -3.273 -0.184 0.955 -0.233
1.495 -28.657 -3.162 -0.247 0.953 -0.177
0.528 -28.318 -4.267 0.398 0.727 0.559
1.456 -28.594 -2.905 -0.22 0.911 -0.349
1.07 -28.693 -2.655 -0.542 0.828 -0.141
0.108 -28.426 -3.996 0.099 0.65 0.753
-0.6 -28.218 -3.828 0.571 0.512 0.642
2.45 -28.707 -3.956 0.265 0.948 0.178
2.479 -28.69 -3.311 0.245 0.936 -0.252
2.575 -28.673 -4.19 0.181 0.925 0.334
3.189 -29.007 -4.209 0.693 0.647 0.318
3.269 -29.119 -3.335 0.64 0.722 -0.264
3.24 -29.136 -3.98 0.659 0.733 0.166
3.614 -29.589 -3.984 0.846 0.507 0.163
3.643 -29.571 -3.34 0.827 0.495 -0.266
4.072 -29.875 -3.035 0.541 0.698 -0.47
3.456 -30.038 -1.247 0.101 0.581 0.807
2.914 -29.764 -1.223 0.463 0.399 0.792
3.84 -30.642 -0.168 -0.155 0.984 0.088
2.729 -31.779 0.086 -0.948 0.172 0.269
1.6 -31.11 -0.923 -0.195 -0.274 0.942
2.378 -31.854 -0.508 -0.713 0.222 0.665
2.169 -32.186 -0.7 -0.829 0.038 0.558
1.381 -31.458 -1.125 -0.304 -0.448 0.841
1.77 -32.685 -0.972 -0.563 0.37 0.739
1.641 -32.738 -1.057 -0.655 0.332 0.679
1.229 -31.521 -1.225 -0.38 -0.479 0.791
1.053 -31.665 -1.367 -0.263 -0.383 0.885
2.476 -32.637 -0.405 -0.659 -0.213 0.722
2.041 -33.084 -0.711 -0.369 0.085 0.926
2.816 -32.472 0.176 -0.886 -0.323 0.334
3.487 -33.233 0.115 -0.407 -0.866 0.29
2.712 -33.845 -0.772 0.11 -0.458 0.882
3.234 -33.497 -0.474 -0.238 -0.69 0.683
4.08 -33.883 -2.346 0.232 -0.905 -0.357
3.461 -34.186 -2.429 0.645 -0.702 -0.302
3.137 -34.789 -3.5 0.86 -0.301 0.412
2.897 -35.034 -3.278 0.74 -0.423 0.523
3.257 -34.393 -2.241 0.5 -0.85 -0.167
2.662 -35.541 -3.144 0.897 -0.085 0.434
1.885 -35.697 -2.322 0.509 -0.162 0.846
2.601 -34.524 -1.547 0.031 -0.944 0.329
1.725 -35.836 -2.231 0.616 -0.07 0.785
1.049 -35.526 -1.996 0.052 0.188 0.981
1.867 -34.188 -1.292 -0.493 -0.704 0.511
1.016 -35.299 -2.02 0.074 0.037 0.997
0.503 -36.481 -2.351 -0.403 -0.608 0.685
0.314 -36.527 -2.477 -0.277 -0.577 0.768
-0.256 -37.498 -2.812 0.104 0.07 0.992
-0.955 -37.104 -3.063 -0.478 0.398 0.783
-0.583 -36.021 -2.799 -0.726 -0.324 0.607
-1.112 -36.837 -3.241 -0.373 0.22 0.901
-1.357 -36.562 -3.471 -0.518 0.382 0.766
-0.847 -35.725 -3.047 -0.858 -0.177 0.483
-1.179 -36.006 -3.479 -0.637 0.011 0.771
-2.029 -36.517 -4.803 -0.913 0.408 -0.017
-1.901 -35.957 -4.911 -0.998 0.035 0.055
-3.182 -35.617 -6.285 -0.144 -0.192 0.971
-2.141 -37.207 -5.119 -0.979 0.003 -0.203
-3.304 -36.359 -6.625 -0.204 -0.563 0.801
-2.127 -37.424 -5.402 -0.989 0.148 -0.015
-0.064 -37.803 -6.312 0.243 -0.348 -0.905
-0.389 -37.923 -6.4 0.459 -0.268 -0.847
0.121 -36.998 -6.996 0.12 -0.885 -0.449
-0.463 -36.841 -7.196 -0.224 -0.793 -0.567
-0.877 -37.792 -6.567 0.052 -0.159 -0.986
-1.697 -36.831 -8.124 0.599 -0.799 0.052
-1.712 -36.842 -8.122 0.592 -0.805 0.052
-0.889 -37.8 -6.566 0.043 -0.166 -0.985
-2.161 -37.689 -8.623 0.891 -0.24 0.386
-1.697 -36.832 -8.152 0.599 -0.8 0.037
-2.148 -37.681 -8.648 0.9 -0.234 0.368
-1.976 -37.217 -8.541 0.785 -0.543 0.296
0.073 -36.01 -7.844 0.092 -0.304 -0.948
-1.12 -35.937 -8.821 0.888 -0.352 -0.297
0.325 -35.536 -8.094 -0.076 -0.62 -0.781
0.341 -35.192 -8.315 -0.068 -0.447 -0.892
-1.104 -35.593 -9.042 0.895 -0.18 -0.407
0.287 -34.781 -8.615 -0.033 -0.721 -0.692
1.861 -33.983 -7.941 0.692 0.157 -0.705
1.572 -33.759 -8.299 0.885 0.008 -0.466
2.629 -33.037 -7.705 0.18 -0.473 -0.862
2.362 -32.488 -7.869 -0.042 -0.016 -0.999
1.282 -33.163 -8.477 0.678 0.434 -0.593
2.101 -32.432 -7.883 0.132 -0.054 -0.99
2.454 -32.238 -7.847 0.034 0.192 -0.981
2.219 -32.11 -7.854 0.191 0.107 -0.976
1.902 -31.127 -8.218 0.402 -0.548 -0.733
3.046 -31.845 -7.476 0.528 0.52 -0.672
2.545 -30.7 -7.816 0.862 -0.244 -0.445
2.98 -31.605 -7.378 0.572 0.36 -0.737
3.182 -30.956 -6.466 0.673 0.684 -0.282
2.716 -30.152 -7.046 0.983 0.148 0.105
3.218 -30.218 -5.784 0.649 0.192 -0.736
3.656 -31.494 -5.91 0.91 0.416 -0.003
3.692 -30.756 -5.228 0.886 -0.076 -0.458
3.736 -31.37 -5.323 0.856 0.333 -0.394
3.898 -31.563 -4.589 0.972 0.196 0.13
3.884 -30.984 -4.359 0.981 -0.19 -0.024
4.3 -31.054 -3.351 0.704 -0.144 -0.696
3.902 -31.59 -4.58 0.975 0.177 0.137
4.304 -31.08 -3.341 0.706 -0.163 -0.689
4.59 -31.747 -3.161 0.516 0.282 -0.809
4.706 -30.837 -1.325 0.58 0.787 0.21
4.406 -30.275 -1.717 0.78 0.412 0.472
4.79 -30.879 -0.638 0.524 0.815 -0.248
3.656 -32.667 -4.636 0.799 -0.593 0.096
4.313 -32.964 -3.224 0.362 -0.395 -0.845
3.382 -33.827 -4.42 0.982 0.18 -0.048
3.653 -32.679 -4.708 0.797 -0.602 0.045
3.378 -33.842 -4.505 0.981 0.173 -0.09
3.558 -33.043 -5.181 0.861 -0.359 0.361
3.011 -33.888 -6.324 0.587 -0.782 -0.211
2.831 -34.687 -5.648 0.707 -0.249 -0.662
2.649 -34.391 -6.134 0.829 -0.447 -0.337
2.648 -34.391 -6.135 0.828 -0.447 -0.337
2.83 -34.688 -5.648 0.707 -0.25 -0.662
2.428 -34.734 -6.594 0.975 -0.219 -0.031
2.104 -35.455 -6.421 0.814 -0.579 0.056
2.507 -35.408 -5.475 0.545 -0.61 -0.575
1.94 -36.196 -5.773 0.923 -0.085 -0.376
1.951 -36.215 -5.743 0.928 -0.094 -0.361
2.517 -35.427 -5.444 0.55 -0.619 -0.56
2.282 -35.934 -5.311 0.707 -0.281 -0.649
1.389 -37.461 -4.503 0.647 -0.717 0.259
1.721 -37.18 -4.071 0.426 -0.904 -0.029
1.03 -37.915 -4.423 0.887 -0.414 0.206
0.857 -37.953 -4.024 0.784 -0.436 0.441
1.534 -37.221 -3.642 0.333 -0.924 0.186
0.692 -38.038 -3.719 0.894 -0.38 0.237
0.279 -37.801 -3.025 0.55 -0.183 0.815
1.003 -36.917 -2.75 0.067 -0.772 0.632
1.038 -36.785 -2.564 0.044 -0.86 0.508
0.265 -37.34 -6.52 0.085 -0.657 -0.749
-0.015 -37.803 -6.298 0.272 -0.348 -0.897
0.169 -36.997 -6.982 0.148 -0.885 -0.441
1.449 -36.611 -6.372 0.677 -0.292 -0.676
1.27 -36.319 -6.845 0.796 -0.486 -0.361
1.613 -35.869 -7.02 0.568 -0.786 -0.244
2.648 -34.391 -6.135 0.828 -0.447 -0.338
2.428 -34.734 -6.595 0.975 -0.218 -0.031
3.011 -33.888 -6.325 0.587 -0.782 -0.211
2.879 -33.554 -7.088 0.521 -0.615 -0.593
2.296 -34.399 -7.358 0.909 -0.051 -0.413
2.967 -33.361 -7.251 0.462 -0.743 -0.484
-7.94 -30.53 -8.33 -0.779 -0.398 -0.484
-7.618 -31.287 -9.052 -0.994 0.106 -0.003
-7.451 -30.215 -9.14 -0.919 -0.029 -0.393
-7.68 -29.597 -8.632 -0.563 0.379 -0.735
-7.325 -29.709 -9.142 -0.799 0.453 -0.394
-7.183 -29.7 -9.758 -0.894 0.447 0.016
-7.329 -29.176 -8.503 -0.27 0.73 -0.627
-7 -29.319 -9.023 -0.489 0.826 -0.281
-6.802 -29.242 -9.618 -0.622 0.774 0.116
-6.557 -29.141 -8.812 -0.067 0.995 -0.08
-6.325 -29.108 -8.821 -0.222 0.972 -0.074
-6.078 -29.1 -8.608 0.07 0.982 0.178
-5.779 -29.047 -7.895 -0.13 0.946 -0.297
-5.815 -29.046 -7.422 -0.173 0.947 0.27
-7.169 -29.02 -7.161 -0.137 0.86 0.491
-7.012 -29.143 -6.772 -0.241 0.942 0.232
-7.712 -29.343 -7.089 -0.589 0.591 0.551
-7.602 -29.494 -6.693 -0.663 0.692 0.288
-8.067 -29.852 -7.228 -0.885 0.167 0.435
-7.987 -30.047 -6.845 -0.938 0.297 0.179
-8.133 -30.402 -7.54 -0.94 -0.292 0.175
-8.059 -30.645 -7.183 -0.989 -0.131 -0.062
-5.708 -29.068 -7.204 -0.245 0.961 0.125
-5.7 -29.071 -7.171 -0.238 0.958 0.158
-5.803 -29.104 -7.087 -0.169 0.98 0.101
-5.736 -29.312 -6.461 -0.123 0.835 0.536
-5.559 -29.418 -6.182 -0.241 0.905 0.35
-5.606 -29.491 -6.053 -0.279 0.846 0.454
-5.832 -29.54 -6.062 -0.129 0.879 0.46
-5.333 -29.497 -5.754 -0.461 0.85 0.255
-6.012 -30.219 -5.636 -0.33 0.118 0.937
-5.506 -30.151 -5.344 -0.667 0.073 0.742
-5.823 -30.311 -5.539 -0.456 0.179 0.872
-5.842 -30.641 -5.532 -0.471 -0.088 0.878
-7.035 -31.087 -5.896 -0.258 -0.447 0.857
-6.629 -31.544 -5.867 -0.528 -0.142 0.837
-7.426 -31.375 -6.347 -0.537 -0.652 0.535
-7.092 -31.886 -6.401 -0.76 -0.312 0.57
-7.695 -31.409 -6.952 -0.729 -0.677 0.103
-7.41 -31.926 -7.117 -0.919 -0.332 0.212
-7.555 -31.432 -8.027 -0.938 -0.346 -0.033
-7.574 -31.368 -8.071 -0.951 -0.302 -0.063
-7.342 -32.312 -8.411 -0.857 -0.407 0.317
-7.318 -32.21 -7.766 -0.873 -0.475 -0.113
-6.993 -32.786 -8.35 -0.682 -0.643 0.348
-6.968 -32.684 -7.705 -0.698 -0.711 -0.082
-6.206 -33.635 -8.641 -0.65 -0.484 0.586
-6.428 -33.598 -8.924 -0.785 -0.462 0.414
-7.394 -32.377 -8.708 -0.882 -0.439 0.169
-7.383 -32.536 -8.922 -0.89 -0.333 0.312
-7.523 -31.911 -9.54 -0.947 -0.206 -0.247
-7.483 -32.174 -9.57 -0.973 -0.031 -0.227
-6.706 -32.673 -10.668 -0.908 0.037 -0.417
-6.439 -31.606 -10.872 -0.405 -0.054 -0.913
-6.228 -32.238 -11.111 -0.546 0.367 -0.753
-6.199 -32.747 -11.602 -0.565 0.707 -0.426
-5.481 -32.044 -11.248 0.021 0.514 -0.857
-6.221 -31.422 -10.955 -0.296 0.039 -0.954
-6.285 -30.827 -11.038 -0.253 -0.358 -0.899
-6.87 -31.373 -10.609 -0.62 0.063 -0.782
-6.834 -30.786 -10.746 -0.645 -0.328 -0.69
-7.313 -31.147 -10.065 -0.842 0.176 -0.51
-7.208 -30.595 -10.287 -0.912 -0.192 -0.362
-5.021 -30.956 -11.037 -0.105 0.053 -0.993
-4.806 -30.658 -10.975 0.104 0.344 -0.933
-5.732 -29.7 -11.016 0.142 0.447 -0.883
-5.38 -29.462 -10.911 -0.093 0.289 -0.953
-6.093 -29.246 -10.656 -0.116 0.771 -0.626
-5.712 -29.045 -10.58 -0.369 0.637 -0.677
-6.295 -29.002 -10.052 -0.26 0.946 -0.194
-5.898 -28.82 -10.024 -0.524 0.825 -0.213
-4.629 -30.502 -10.919 -0.013 0.24 -0.971
-4.145 -30.228 -10.648 0.501 0.531 -0.683
-4.136 -30.116 -10.564 0.496 0.456 -0.739
-3.851 -29.811 -9.798 0.709 0.685 -0.164
-3.884 -29.52 -9.334 0.731 0.491 -0.473
-4.28 -29.022 -8.998 0.419 0.884 -0.208
-4.367 -28.951 -8.904 0.477 0.836 -0.27
-5.246 -28.925 -8.537 -0.485 0.865 0.131
-3.318 -28.516 -7.196 0.284 0.734 -0.617
-2.842 -28.134 -6.806 -0.033 0.48 -0.877
-3.835 -28.481 -6.634 -0.545 0.79 0.283
-3.384 -28.098 -6.217 -0.845 0.534 0.005
-3.544 -28.266 -5.924 -0.739 0.646 -0.19
-3.586 -28.364 -5.35 -0.774 0.565 0.285
-3.839 -28.669 -5.234 -0.605 0.768 0.208
-3.452 -28.208 -5.231 -0.863 0.461 0.206
-3.749 -28.751 -4.95 -0.495 0.669 0.555
-3.359 -28.293 -4.936 -0.756 0.363 0.545
-3.641 -28.82 -4.731 -0.568 0.715 0.409
-3.63 -28.909 -4.591 -0.559 0.639 0.528
-3.642 -29.113 -4.26 -0.551 0.775 0.308
-3.778 -29.948 -3.874 -0.694 -0.1 0.713
-3.721 -30.079 -3.827 -0.732 -0.013 0.681
-3.962 -30.975 -4.103 -0.202 -0.179 0.963
-3.462 -30.615 -3.758 -0.535 -0.42 0.733
-3.139 -30.394 -3.169 -0.75 -0.567 0.34
-3.431 -31.465 -4.222 0.064 -0.424 0.903
-3.026 -31.015 -3.856 -0.206 -0.723 0.659
-2.69 -30.807 -3.269 -0.43 -0.862 0.268
-2.508 -31.195 -4.098 0.187 -0.86 0.475
-2.166 -31.513 -4.526 -0.041 -0.648 0.761
-1.546 -31.527 -4.316 -0.455 -0.639 0.621
-2.037 -31.778 -4.873 0.081 -0.897 0.434
-1.43 -31.763 -4.625 -0.324 -0.907 0.269
-0.505 -33.077 -4.731 -0.94 -0.031 0.339
-0.508 -33.084 -4.738 -0.946 -0.049 0.32
-1.979 -32.02 -5.236 0.042 -0.736 0.676
-1.981 -32.027 -5.243 0.036 -0.753 0.657
-2.168 -32.284 -5.454 0.16 -0.582 0.797
-1.661 -32.674 -5.653 -0.177 -0.322 0.93
-1.207 -33.16 -5.574 -0.48 0.002 0.877
-2.187 -32.304 -5.465 0.139 -0.603 0.785
-1.677 -32.69 -5.662 -0.201 -0.346 0.917
-1.226 -33.18 -5.585 -0.501 -0.019 0.865
-3.674 -31.911 -4.508 -0.057 -0.647 0.76
-3.646 -32.13 -4.661 -0.076 -0.501 0.862
-4.97 -32.316 -5.703 -0.183 -0.7 0.69
-5.207 -32.054 -5.581 -0.371 -0.493 0.787
-5.21 -31.938 -5.501 -0.368 -0.571 0.734
-5.098 -31.313 -4.959 -0.77 -0.348 0.535
-5.474 -31.422 -5.37 -0.519 -0.276 0.809
-5.961 -31.589 -5.607 -0.195 -0.164 0.967
-5.633 -30.85 -5.401 -0.61 0.051 0.791
-6.674 -32.521 -6.446 -0.551 -0.63 0.547
-6.471 -32.684 -6.387 -0.686 -0.521 0.508
-5.821 -33.432 -7.845 -0.406 -0.803 0.437
-5.68 -33.872 -8.242 -0.499 -0.509 0.701
-6.187 -33.298 -8.124 -0.663 -0.709 0.241
-6.046 -33.738 -8.52 -0.757 -0.415 0.505
-5.619 -33.837 -8.167 -0.54 -0.533 0.651
-5.737 -33.396 -7.673 -0.461 -0.827 0.322
-5.579 -33.85 -8.146 -0.501 -0.545 0.672
-5.702 -33.407 -7.655 -0.419 -0.84 0.344
-6.23 -35.258 -9.609 -0.794 -0.541 0.277
-5.998 -35.812 -9.592 -0.949 -0.172 0.266
-6.508 -34.763 -10.581 -0.933 -0.293 -0.209
-6.615 -34.444 -10.952 -0.862 -0.506 0.038
-6.744 -33.461 -9.845 -0.927 -0.349 -0.136
-6.503 -33.6 -9.052 -0.734 -0.461 0.499
-6.781 -33.339 -10.092 -0.902 -0.43 0.028
-6.755 -32.791 -10.59 -0.875 0.116 -0.469
-5.909 -35.312 -11.272 -0.801 -0.375 -0.467
-5.38 -35.25 -11.722 -0.284 -0.315 -0.906
-5.072 -34.259 -12.259 0.24 -0.374 -0.896
-4.682 -34.544 -12.129 -0.02 -0.184 -0.983
-4.736 -33.613 -12.227 0.48 0.088 -0.873
-4.285 -33.779 -12.091 0.179 0.199 -0.964
-4.375 -32.443 -11.506 0.296 0.22 -0.929
-4.846 -32.152 -11.412 -0.192 0.521 -0.832
-4.988 -32.173 -11.401 -0.097 0.536 -0.839
-5.139 -32.127 -11.341 -0.207 0.57 -0.795
-4.108 -32.455 -11.451 0.118 0.228 -0.966
-3.442 -32.626 -11.193 0.636 0.096 -0.766
-3.038 -31.233 -10.88 0.772 0.346 -0.533
-2.867 -31.227 -10.674 0.659 0.342 -0.67
-2.31 -32.134 -9.995 0.937 -0.111 -0.33
-1.855 -32.993 -9.559 0.634 0.461 -0.621
-1.998 -31.686 -8.669 0.868 0.028 -0.497
-1.487 -31.602 -8.14 0.527 -0.027 -0.849
-0.784 -31.529 -7.921 0.058 -0.076 -0.995
-1.998 -31.684 -8.669 0.867 0.03 -0.497
-1.487 -31.602 -8.14 0.527 -0.025 -0.85
-0.784 -31.528 -7.921 0.058 -0.074 -0.996
-2.461 -30.958 -9.675 0.862 0.477 -0.171
-2.308 -30.777 -9.116 0.76 0.356 -0.543
-2.176 -29.866 -7.687 0.653 0.316 -0.689
-2.448 -29.303 -7.465 0.465 0.705 -0.536
-2.648 -28.942 -7.289 0.598 0.464 -0.653
-2.296 -28.491 -6.893 0.364 0.163 -0.917
-3.12 -28.598 -7.228 0.152 0.789 -0.595
-2.732 -28.173 -6.837 -0.106 0.506 -0.856
-1.926 -28.639 -6.832 0.117 0.262 -0.958
-1.678 -28.686 -6.783 0.339 0.22 -0.915
-0.779 -28.281 -6.476 0.138 0.068 -0.988
-0.266 -28.591 -6.548 -0.204 0.275 -0.94
0.197 -28.834 -6.85 -0.513 0.437 -0.739
-0.432 -27.944 -6.104 0.69 0.605 -0.397
-0.006 -28.338 -6.27 0.406 0.868 -0.287
0.519 -28.521 -6.504 0.056 0.99 -0.13
-0.294 -27.897 -5.86 0.598 0.574 -0.56
-0.626 -27.167 -5.346 0.91 0.413 0.05
-0.236 -27.688 -5.249 0.65 0.76 -0.014
0.341 -27.99 -5.157 0.265 0.961 -0.076
-0.422 -27.765 -4.633 0.484 0.692 0.535
-1.396 -27.228 -4.216 0.359 0.37 0.857
-1.207 -27.795 -3.864 0.234 0.747 0.622
-2.12 -27.912 -3.747 -0.114 0.692 0.713
-2.861 -28.162 -4.089 -0.789 0.465 0.402
-1.652 -28.416 -3.039 0.312 0.846 0.433
-1.386 -28.053 -3.569 0.135 0.604 0.786
-0.521 -29.145 -2.956 0.194 0.877 0.44
0.228 -29.187 -2.739 -0.306 0.905 0.295
-0.585 -29.3 -2.757 0.079 0.598 0.797
0.167 -29.334 -2.55 -0.423 0.621 0.66
-0.67 -29.35 -2.705 0.135 0.632 0.763
0.013 -29.461 -2.509 -0.32 0.706 0.632
-1.526 -29.718 -2.369 0.402 -0.084 0.912
-0.838 -29.883 -2.499 -0.056 0.026 0.998
-0.17 -30.04 -2.284 -0.501 0.131 0.855
0.326 -30.152 -1.775 -0.832 0.205 0.516
-0.93 -30.44 -2.691 -0.16 -0.606 0.779
-0.27 -30.645 -2.494 -0.6 -0.469 0.648
-0.871 -30.519 -2.735 -0.199 -0.553 0.809
-0.179 -30.822 -2.517 -0.66 -0.352 0.663
-0.886 -30.648 -2.865 -0.225 -0.788 0.572
-0.193 -30.944 -2.64 -0.687 -0.591 0.422
-1.129 -30.956 -3.222 -0.063 -0.583 0.81
-1.527 -31.215 -3.767 -0.468 -0.846 0.255
-0.072 -31.413 -2.872 -0.768 -0.278 0.577
0.038 -31.706 -2.97 -0.647 -0.601 0.469
-0.063 -32.517 -3.485 -0.58 -0.06 0.813
-0.47 -32.731 -4.295 -0.964 -0.262 0.049
0.372 -32.803 -2.981 -0.87 0.13 0.476
0.468 -32.291 -2.702 -0.933 -0.211 0.291
0.655 -33.022 -2.629 -0.63 -0.055 0.775
0.722 -32.488 -2.386 -0.674 -0.412 0.613
0.927 -33.389 -2.297 -0.811 0.189 0.554
0.94 -33.526 -2.245 -0.802 0.09 0.591
-0.022 -33.622 -3.056 -0.72 0.283 0.634
-0.257 -34.129 -2.922 -0.563 0.621 0.545
-0.361 -33.611 -3.612 -0.889 0.288 0.356
-0.596 -34.118 -3.478 -0.732 0.627 0.267
-1.356 -33.313 -5.656 -0.516 -0.06 0.854
-1.86 -32.859 -5.746 -0.18 -0.364 0.914
-2.421 -32.518 -5.549 0.194 -0.591 0.783
-1.309 -33.253 -5.629 -0.446 0.03 0.895
-1.832 -32.822 -5.729 -0.097 -0.258 0.961
-2.385 -32.472 -5.529 0.271 -0.491 0.828
-3.147 -32.906 -5.829 0.288 -0.694 0.66
-3.044 -33.374 -6.186 0.22 -0.382 0.898
-3.952 -32.886 -5.98 -0.542 -0.673 0.504
-3.941 -33.352 -6.355 -0.549 -0.363 0.753
-4.662 -32.575 -5.929 -0.068 -0.88 0.469
-4.84 -32.378 -5.722 -0.269 -0.659 0.702
-4.638 -33.295 -6.594 -0.084 -0.4 0.913
-5.649 -33.172 -6.546 -0.001 -0.927 0.375
-5.007 -33.573 -6.91 -0.429 -0.659 0.617
-4.567 -34.285 -6.983 -0.722 -0.185 0.666
-5.29 -33.617 -7.391 -0.694 -0.7 0.168
-2.404 -34.286 -6.268 -0.207 0.225 0.952
-1.969 -34.583 -5.976 -0.497 0.424 0.757
-1.654 -34.778 -5.5 -0.707 0.554 0.44
-2.511 -34.452 -6.27 -0.302 0.078 0.95
-2.063 -34.73 -5.977 -0.6 0.263 0.755
-1.761 -34.944 -5.502 -0.802 0.406 0.438
-3.633 -34.264 -6.414 -0.255 -0.174 0.951
-3.535 -34.829 -6.376 -0.32 0.202 0.926
-4.177 -34.376 -6.681 -0.528 -0.23 0.818
-4.08 -34.941 -6.642 -0.592 0.146 0.792
-4.611 -34.479 -7.106 -0.744 -0.282 0.605
-4.514 -35.044 -7.068 -0.809 0.094 0.58
-4.882 -36.005 -7.649 -0.668 0.062 0.742
-4.603 -35.621 -7.261 -0.854 -0.194 0.483
-4.531 -36.483 -7.428 -0.492 -0.177 0.852
-4.252 -36.099 -7.04 -0.678 -0.433 0.594
-4.058 -36.898 -7.358 -0.256 -0.384 0.887
-3.779 -36.513 -6.97 -0.442 -0.64 0.628
-2.9 -37.119 -7.236 -0.391 -0.595 0.702
-2.399 -37.202 -6.825 -0.725 -0.54 0.428
-2.105 -37.438 -6.292 -0.921 -0.382 0.073
-2.839 -37.236 -7.324 -0.311 -0.748 0.587
-2.358 -37.281 -6.885 -0.632 -0.717 0.294
-2.056 -37.531 -6.362 -0.833 -0.551 -0.054
-4.157 -37.483 -7.792 -0.305 -0.676 0.67
-3.991 -37.906 -8.016 -0.416 -0.394 0.819
-4.721 -37.534 -8.326 -0.587 -0.702 0.404
-4.467 -37.949 -8.466 -0.756 -0.425 0.498
-4.961 -37.543 -9.065 -0.707 -0.707 0.034
-4.67 -37.957 -9.091 -0.901 -0.431 0.051
-5.477 -36.602 -8.901 -0.965 -0.236 0.116
-5.734 -36.283 -9.345 -0.793 -0.449 0.412
-4.796 -37.434 -10.087 -0.651 -0.739 -0.176
-4.872 -37.202 -10.878 -0.066 -0.97 -0.234
-4.47 -37.481 -10.445 -0.335 -0.784 -0.523
-4.163 -37.983 -10.16 -0.539 -0.449 -0.712
-4.076 -37.337 -10.692 0.047 -0.645 -0.763
-3.699 -34.964 -11.742 0.471 -0.394 -0.789
-3.645 -35.539 -11.575 0.436 -0.011 -0.9
-0.847 -34.022 -9.028 0.332 -0.16 -0.93
-1.587 -33.299 -9.44 0.768 0.308 -0.562
-0.885 -33.4 -8.967 0.3 0.376 -0.877
-0.038 -33.32 -8.919 -0.265 0.322 -0.909
-0.978 -32.906 -8.595 0.22 0.802 -0.556
-1.406 -32.528 -8.431 0.505 0.55 -0.665
-0.975 -32.266 -8.077 0.218 0.375 -0.901
-0.49 -31.909 -7.951 -0.105 0.137 -0.985
-1.426 -32.503 -8.424 0.486 0.573 -0.66
-0.993 -32.244 -8.072 0.198 0.4 -0.895
-0.511 -31.884 -7.945 -0.124 0.16 -0.979
-0.021 -32.197 -8.158 -0.418 0.329 -0.847
0.758 -31.568 -8.245 -0.016 -0.149 -0.989
0.632 -32.238 -8.3 0.068 0.298 -0.952
0.527 -32.815 -8.651 0.138 0.683 -0.717
1.251 -32.438 -8.142 0.53 0.149 -0.835
0.765 -31.45 -8.259 -0.012 -0.09 -0.996
1.053 -30.951 -8.428 -0.204 -0.423 -0.883
0.092 -30.885 -8.101 -0.349 0.193 -0.917
0.484 -30.473 -8.295 -0.611 -0.081 -0.788
-0.915 -30.077 -7.294 -0.049 0.45 -0.892
-0.945 -30.151 -7.327 -0.074 0.39 -0.918
-0.786 -30.601 -7.652 -0.18 0.69 -0.701
-1.351 -30.738 -7.815 0.197 0.781 -0.592
-1.868 -30.685 -8.122 0.542 0.746 -0.387
-0.645 -31.417 -7.932 -0.035 -0.148 -0.988
-1.238 -31.389 -8.038 0.361 -0.167 -0.917
-1.744 -31.401 -8.368 0.699 -0.159 -0.698
-2.08 -30.233 -7.834 0.683 0.445 -0.579
-2.139 -30.162 -7.841 0.627 0.513 -0.586
-0.957 -29.929 -7.228 -0.022 0.351 -0.936
-0.298 -29.974 -7.43 -0.461 0.381 -0.802
-0.886 -29.66 -7.055 0.069 0.694 -0.716
-0.227 -29.705 -7.257 -0.371 0.724 -0.582
-0.601 -29.211 -6.764 -0.121 0.395 -0.911
-0.072 -29.448 -7.101 -0.473 0.553 -0.686
-0.566 -29.16 -6.744 -0.086 0.445 -0.891
-0.039 -29.4 -7.083 -0.437 0.605 -0.666
-0.521 -28.99 -6.677 -0.115 0.332 -0.936
0.045 -29.104 -6.929 -0.493 0.408 -0.768
-0.472 -28.863 -6.627 -0.067 0.456 -0.887
0.091 -28.989 -6.883 -0.442 0.54 -0.716
1.077 -28.98 -7.792 -0.288 0.522 -0.803
1.004 -29.315 -8.063 -0.239 0.745 -0.622
1.806 -29.048 -7.818 0.32 0.465 -0.825
1.796 -29.389 -8.092 0.327 0.693 -0.643
2.395 -29.288 -7.454 0.811 0.265 -0.522
2.436 -29.651 -7.697 0.784 0.506 -0.36
2.77 -29.848 -6.24 0.901 0.153 -0.405
2.716 -29.508 -6.095 0.858 0.425 -0.289
2.688 -29.383 -6.019 0.876 0.342 -0.34
2.222 -28.771 -6.51 0.667 0.696 0.265
2.394 -28.951 -5.861 0.553 0.816 -0.167
2.742 -28.869 -5.267 0.32 0.762 -0.563
1.918 -28.786 -5.649 0.031 0.997 0.066
1.233 -28.576 -5.798 0.487 0.858 0.165
0.673 -28.472 -6.271 -0.047 0.957 -0.286
1.511 -28.651 -5.109 0.301 0.907 -0.294
1.466 -28.591 -4.815 0.257 0.966 -0.003
1.343 -28.551 -4.767 0.339 0.94 -0.036
1.096 -28.59 -4.179 0.167 0.914 0.371
1.094 -28.681 -3.848 0.168 0.974 0.15
0.994 -28.685 -3.759 0.088 0.971 0.221
0.805 -28.63 -3.854 0.214 0.935 0.284
1.131 -28.727 -3.375 -0.004 0.999 -0.035
0.48 -28.713 -3.644 -0.149 0.842 0.519
0.818 -28.807 -3.173 -0.374 0.904 0.205
-0.078 -28.722 -3.587 0.223 0.848 0.481
0.532 -28.895 -3.159 -0.184 0.963 0.196
-0.241 -28.849 -3.396 0.007 0.68 0.733
0.386 -29.009 -2.989 -0.411 0.786 0.462
2.126 -28.559 -2.439 0.338 0.94 0.039
2.357 -28.611 -2.563 0.184 0.975 0.122
2.051 -28.859 -1.683 0.276 0.69 0.669
2.261 -28.998 -1.591 0.136 0.782 0.608
1.316 -29.157 -1.488 -0.337 0.442 0.831
1.315 -29.38 -1.341 -0.337 0.591 0.733
3.478 -29.241 -2.609 0.744 0.66 0.099
3.933 -29.596 -2.417 0.441 0.897 -0.029
3.212 -29.312 -1.837 0.612 0.625 0.485
3.708 -29.656 -1.765 0.281 0.854 0.437
3.331 -30.41 -0.827 0.185 0.829 0.528
2.361 -30.021 -0.918 0.186 0.27 0.945
2.912 -30.605 -0.595 -0.181 0.659 0.73
3.372 -30.859 0.09 -0.488 0.829 0.272
1.89 -30.503 -0.81 -0.049 0.029 0.998
2.555 -30.97 -0.514 -0.493 0.34 0.801
2.975 -31.266 0.181 -0.772 0.538 0.337
2.335 -31.429 -0.6 -0.685 -0.061 0.726
2.046 -31.479 -0.816 -0.492 -0.028 0.87
1.846 -31.796 -1 -0.614 -0.222 0.758
1.646 -32.065 -1.178 -0.481 -0.043 0.876
1.519 -32.117 -1.261 -0.574 -0.082 0.815
1.418 -32.198 -1.332 -0.506 -0.028 0.862
1.03 -32.551 -1.915 -0.88 -0.369 0.299
2.537 -32.757 -0.376 -0.7 -0.133 0.702
3.125 -33.424 -0.43 -0.165 -0.739 0.654
3.116 -34.185 -1.18 0.399 -0.701 0.591
3.691 -33.881 -0.935 0.016 -0.904 0.427
3.386 -34.308 -1.777 0.592 -0.789 0.164
3.996 -34.02 -1.61 0.185 -0.981 0.052
3.182 -34.41 -2.973 0.831 -0.554 0.061
2.981 -34.614 -2.787 0.684 -0.702 0.196
2.776 -34.844 -2.728 0.821 -0.549 0.157
2.172 -34.965 -2.089 0.317 -0.65 0.69
2.223 -34.801 -1.931 0.283 -0.76 0.585
1.914 -35.263 -2.172 0.489 -0.452 0.746
1.667 -34.546 -1.738 -0.36 -0.465 0.809
1.378 -35.018 -1.986 -0.167 -0.151 0.974
1.497 -34.656 -1.854 -0.246 -0.392 0.886
1.436 -33.765 -1.386 -0.801 -0.401 0.443
1.1 -34.266 -1.941 -0.578 -0.067 0.814
0.506 -34.798 -2.132 -0.181 0.287 0.941
0.88 -33.833 -2.224 -0.762 0.295 0.577
0.04 -36.979 -2.759 -0.094 -0.276 0.957
-0.69 -36.567 -3.022 -0.654 0.04 0.755
-0.991 -35.158 -3.306 -0.929 0.107 0.354
-1.322 -35.439 -3.738 -0.708 0.294 0.642
-0.959 -34.634 -3.671 -0.913 0.369 0.171
-1.29 -34.914 -4.103 -0.693 0.556 0.459
-1.685 -35.895 -4.119 -0.89 0.066 0.451
-1.828 -36.459 -4.066 -0.795 0.442 0.416
-2.087 -35.817 -5.554 -0.873 -0.058 0.483
-2.546 -35.695 -6.046 -0.567 -0.14 0.811
-1.888 -35.097 -5.561 -0.717 0.508 0.478
-2.347 -34.975 -6.053 -0.411 0.426 0.806
-2.543 -35.959 -6.06 -0.57 0.036 0.821
-2.122 -36.287 -5.52 -0.85 0.255 0.461
-2.629 -36.483 -6.301 -0.654 -0.48 0.585
-2.205 -36.792 -5.752 -0.937 -0.273 0.219
-2.656 -36.604 -6.414 -0.636 -0.399 0.66
-2.23 -36.989 -5.972 -0.92 -0.142 0.365
-2.609 -36.912 -6.703 -0.585 -0.733 0.347
-2.189 -37.26 -6.226 -0.865 -0.501 0.029
-2.001 -38.074 -5.082 -0.884 -0.394 0.251
-1.991 -37.983 -4.737 -0.891 -0.454 0.021
-1.51 -38.62 -5.106 -0.475 -0.849 0.232
-1.404 -38.636 -4.765 -0.545 -0.838 0.005
-0.891 -38.798 -5.461 0.041 -0.997 -0.064
-0.665 -38.848 -5.19 -0.11 -0.963 -0.245
-0.446 -38.521 -5.976 0.412 -0.766 -0.493
-0.132 -38.517 -5.805 0.203 -0.768 -0.607
-0.175 -37.38 -6.607 0.317 -0.631 -0.708
-0.658 -37.25 -6.773 -0.094 -0.52 -0.849
-1.288 -37.267 -6.851 0.326 -0.509 -0.797
-1.584 -36.919 -7.413 0.523 -0.74 -0.422
-1.296 -37.273 -6.85 0.315 -0.517 -0.796
-1.594 -36.927 -7.413 0.513 -0.748 -0.421
-1.525 -37.621 -6.789 0.467 -0.285 -0.837
-2.01 -37.534 -7.283 0.79 -0.343 -0.507
-2.238 -37.559 -7.942 0.943 -0.327 -0.068
-1.416 -38.278 -6.253 -0.397 -0.564 -0.724
-1.738 -37.814 -6.662 -0.182 -0.874 -0.451
-2.119 -37.633 -7.218 0.072 -0.994 -0.081
-2.477 -37.775 -7.8 0.31 -0.9 0.307
-2.734 -38.208 -8.282 0.482 -0.61 0.629
-1.97 -37.676 -6.502 -0.89 -0.454 0.039
-2.238 -37.562 -7.136 -0.712 -0.53 0.461
-2.737 -37.621 -7.62 -0.379 -0.491 0.784
-2.042 -37.655 -9.226 0.976 -0.215 -0.045
-1.851 -37.186 -9.224 0.848 -0.528 -0.046
-2.196 -37.659 -9.793 0.866 -0.218 -0.45
-2.032 -37.19 -9.896 0.757 -0.53 -0.381
-2.578 -37.691 -10.239 0.593 -0.241 -0.768
-2.485 -37.229 -10.423 0.531 -0.549 -0.645
-3.113 -37.746 -10.474 0.211 -0.28 -0.937
-3.119 -37.294 -10.702 0.214 -0.582 -0.785
-1.72 -36.934 -9.006 0.914 -0.402 0.064
-1.441 -36.549 -8.617 0.727 -0.658 -0.195
-1.619 -36.55 -9.458 0.964 -0.21 -0.162
-1.339 -36.166 -9.07 0.778 -0.466 -0.421
-1.682 -36.103 -9.855 0.932 0.014 -0.361
-1.403 -35.718 -9.467 0.746 -0.243 -0.62
-1.904 -35.634 -10.16 0.822 0.248 -0.513
-1.625 -35.25 -9.772 0.635 -0.008 -0.772
-1.127 -36.638 -7.595 0.219 -0.928 -0.3
-1.362 -36.476 -8.55 0.767 -0.621 -0.162
-0.847 -36.341 -7.951 0.424 -0.711 -0.561
-0.151 -36.51 -7.592 -0.04 -0.598 -0.8
-0.645 -35.892 -8.177 0.571 -0.383 -0.726
-0.76 -35.676 -8.44 0.648 -0.526 -0.551
-0.253 -35.536 -8.185 0.31 -0.62 -0.721
-0.747 -35.379 -8.631 0.657 -0.323 -0.681
-0.239 -35.238 -8.376 0.319 -0.417 -0.851
-0.769 -35.208 -8.755 0.672 -0.437 -0.598
-0.28 -34.923 -8.606 0.346 -0.627 -0.698
-1.038 -34.475 -9.108 0.459 0.143 -0.877
-0.531 -34.24 -8.934 0.121 -0.014 -0.992
0.865 -34.628 -8.618 0.38 -0.612 -0.693
1.024 -35.011 -8.318 0.274 -0.357 -0.893
1.324 -34.263 -8.505 0.708 -0.351 -0.613
1.568 -34.579 -8.184 0.545 -0.141 -0.826
1.994 -33.352 -7.869 0.603 -0.264 -0.753
1.759 -32.868 -8.014 0.36 0.237 -0.902
1.631 -32.826 -8.062 0.446 0.209 -0.87
1.509 -32.683 -8.075 0.357 0.313 -0.88
2.143 -31.653 -7.893 0.242 -0.197 -0.95
2.682 -31.295 -7.555 0.77 0.153 -0.619
2.818 -30.216 -6.357 0.915 0.191 -0.354
2.785 -30.07 -6.338 0.891 0.301 -0.34
3.886 -30.235 -4.264 0.983 0.184 0.023
4.302 -30.421 -3.271 0.705 0.308 -0.639
3.935 -31.313 -3.915 0.947 0.029 -0.32
3.939 -31.336 -3.906 0.95 0.008 -0.312
4.625 -30.772 -2.864 0.936 0.057 -0.348
4.953 -31.399 -2.621 0.717 0.475 -0.51
4.662 -30.482 -2.28 0.962 0.264 0.069
4.995 -31.072 -1.962 0.74 0.657 -0.143
4.492 -30.677 -1.196 0.723 0.68 0.124
3.652 -30.468 -0.78 -0.03 0.868 0.496
5.25 -31.401 -0.68 0.853 0.442 -0.278
5.226 -31.427 -1.372 0.869 0.459 0.184
5.417 -32.075 -0.615 0.972 -0.039 -0.231
5.415 -32.189 -1.299 0.974 0.036 0.225
5.249 -32.734 -0.459 0.852 -0.51 -0.12
5.224 -32.933 -1.123 0.868 -0.377 0.323
4.787 -33.213 -0.25 0.522 -0.852 0.029
4.703 -33.475 -0.888 0.578 -0.678 0.454
4.147 -33.395 -0.042 0.065 -0.982 0.178
3.979 -33.68 -0.652 0.176 -0.792 0.585
4.047 -31.73 -3.78 0.878 0.27 -0.396
3.83 -32.684 -3.83 0.684 -0.582 -0.441
3.808 -33.211 -3.475 0.699 -0.23 -0.677
3.479 -33.516 -3.897 0.918 -0.027 -0.396
4.313 -33.497 -2.831 0.362 -0.691 -0.626
3.808 -33.664 -3.141 0.699 -0.579 -0.42
3.479 -33.978 -3.556 0.918 -0.37 -0.143
3.382 -34.385 -4.008 0.982 -0.099 0.158
3.609 -33.993 -2.728 0.546 -0.832 -0.103
3.276 -34.313 -3.135 0.768 -0.618 0.169
3.395 -33.218 -4.531 0.974 -0.225 0.027
3.392 -33.231 -4.603 0.972 -0.234 -0.025
3.253 -34.322 -5.105 0.918 -0.067 -0.39
3.433 -33.524 -5.781 0.798 -0.599 0.061
2.84 -35.446 -4.949 0.712 -0.629 -0.312
2.605 -35.954 -4.815 0.869 -0.291 -0.401
3.02 -35.382 -4.388 0.801 -0.597 -0.032
2.785 -35.89 -4.255 0.958 -0.259 -0.121
3.039 -35.241 -3.814 0.811 -0.526 0.255
2.804 -35.748 -3.68 0.968 -0.188 0.166
2.259 -36.46 -4.951 0.695 -0.544 -0.469
1.928 -36.741 -5.383 0.916 -0.357 -0.181
2.065 -36.891 -4.523 0.599 -0.759 -0.255
1.734 -37.172 -4.955 0.819 -0.572 0.033
1.033 -37.544 -3.708 0.667 -0.709 0.23
0.6 -37.297 -2.982 0.335 -0.519 0.786
0.605 -37.199 -2.913 0.332 -0.584 0.741
0.15 -36.941 -2.733 -0.167 -0.301 0.939
0.33 -38.545 -3.918 0.592 -0.803 0.071
0.423 -38.559 -4.262 0.53 -0.793 0.301
-0.282 -38.777 -3.953 0.083 -0.996 0.041
-0.307 -38.836 -4.304 0.1 -0.956 0.276
-0.907 -38.644 -3.811 -0.438 -0.885 0.16
-1.054 -38.677 -4.135 -0.34 -0.862 0.376
-1.305 -38.197 -3.546 -0.77 -0.512 0.381
-1.53 -38.143 -3.818 -0.62 -0.548 0.562
-1.323 -37.608 -3.26 -0.785 -0.022 0.619
-1.552 -37.439 -3.476 -0.632 -0.134 0.763
1.002 -38.02 -4.992 0.87 -0.476 -0.129
1.359 -37.574 -5.115 0.632 -0.774 -0.047
0.8 -38.036 -5.534 0.751 -0.485 -0.448
1.141 -37.591 -5.698 0.523 -0.782 -0.338
0.447 -37.961 -5.987 0.543 -0.441 -0.714
0.762 -37.51 -6.185 0.333 -0.742 -0.582
0.786 -36.756 -6.966 0.511 -0.743 -0.432
0.928 -37.08 -6.503 0.417 -0.527 -0.741
0.773 -36.249 -7.492 0.503 -0.445 -0.741
1.078 -35.793 -7.715 0.3 -0.748 -0.592
2.53 -33.821 -7.238 0.753 -0.436 -0.493
2.181 -33.487 -7.707 0.479 -0.174 -0.861
3.484 -32.938 -6.943 0.892 -0.39 -0.227
3.543 -33.01 -6.692 0.853 -0.342 -0.394
3.521 -32.211 -7.051 0.924 0.215 -0.317
3.591 -32.076 -6.831 0.877 0.125 -0.464
3.821 -32.331 -5.651 0.992 -0.003 0.126
3.875 -32.078 -5.104 0.956 -0.172 -0.238
3.584 -29.583 -4.75 0.832 0.51 -0.219
3.458 -29.354 -4.808 0.916 0.357 -0.181
-2.947 -36.309 -11.032 0.3 -0.09 -0.95
-3.382 -36.011 -11.326 0.59 -0.289 -0.754
-1.05 -32.385 -5.199 -0.581 -0.504 0.64
-2.049 -33.034 -5.826 -0.262 -0.45 0.854
-1.545 -33.654 -5.733 -0.614 -0.015 0.789
-0.855 -32.231 -4.795 -0.707 -0.595 0.382
-1.27 -31.952 -8.063 0.383 0.206 -0.901
-0.649 -30.966 -3.09 -0.383 -0.576 0.722
0.128 -32.167 -3.231 -0.707 -0.294 0.643
-1.654 -34.098 -5.89 -0.707 0.101 0.7
-2.14 -33.639 -6.191 -0.383 -0.206 0.901
-2.714 -33.373 -6.226 0 -0.383 0.924
-2.714 -32.887 -5.901 0 -0.707 0.707
-4.19 -33.031 -6.309 -0.383 -0.576 0.722
-4.764 -32.835 -6.286 0 -0.707 0.707
-1.63 -30.43 -7.62 0.383 0.576 -0.722
1.39 -28.676 -5.55 0.383 0.924 -0
-1.885 -37.157 -7.471 0.707 -0.595 -0.382
-7.005 -28.852 -7.75 -0 1 0
-7.605 -29.013 -7.75 -0.5 0.866 0
-8.044 -29.452 -7.75 -0.866 0.5 0
-8.044 -29.752 -8.27 -0.866 0.25 -0.433
-8.205 -30.052 -7.75 -1 0 0
-6.243 -30.022 -11.111 -0.223 0.217 -0.95
-6.804 -30.482 -10.863 -0.623 -0.111 -0.774
-6.804 -29.871 -10.776 -0.623 0.325 -0.711
-6.804 -29.405 -10.372 -0.623 0.658 -0.423
-7.192 -30.022 -10.306 -0.901 0.217 -0.376
-4.669 -29.377 -10.713 0.5 0.36 -0.788
-4.669 -28.935 -10.33 0.5 0.729 -0.468
-5.269 -28.609 -9.768 -0 1 0
-5.269 -28.746 -10.326 -0 0.885 -0.465
-6.986 -29.611 -6.029 -0.223 0.608 0.762
-6.986 -30.158 -5.765 -0.223 0.217 0.95
-7.547 -30.007 -6.1 -0.623 0.325 0.711
-7.547 -30.618 -6.013 -0.623 -0.111 0.774
-7.935 -30.766 -6.57 -0.901 -0.217 0.376
-7.935 -31.069 -7.096 -0.901 -0.434 -0
-4.673 -29.213 -4.838 -0.5 0.729 0.468
-4.177 -31.381 -4.287 -0.309 -0.382 0.871
-4.735 -31.236 -4.534 -0.588 -0.31 0.747
-7.19 -32.279 -6.953 -0.809 -0.509 0.294
-6.26 -34.764 -9.146 -0.809 -0.294 0.509
-7.354 -32.737 -9.297 -0.866 -0.5 -0
-5.096 -33.432 -12.336 0.223 0.217 -0.95
-5.72 -34.04 -12.336 -0.223 -0.217 -0.95
-5.72 -33.432 -12.336 -0.223 0.217 -0.95
-5.72 -32.885 -12.072 -0.223 0.608 -0.762
-6.281 -34.453 -11.832 -0.623 -0.512 -0.591
-6.281 -33.892 -12.088 -0.623 -0.111 -0.774
-6.281 -33.281 -12.001 -0.623 0.325 -0.711
-6.669 -34.04 -11.531 -0.901 -0.217 -0.376
-6.669 -33.432 -11.531 -0.901 0.217 -0.376
-3.365 -31.216 -11.186 0.5 0.36 -0.788
-2.283 -31.603 -9.869 0.951 0.155 -0.268
-2.567 -31.912 -10.51 0.809 -0 -0.588
-2.567 -31.324 -10.352 0.809 0.294 -0.509
-3.039 -29.429 -8.541 0.588 0.572 -0.572
-1.026 -26.65 -5.416 0.623 0.782 0
-1.026 -26.824 -4.824 0.623 0.658 0.423
-1.026 -26.824 -6.008 0.623 0.658 -0.423
-1.587 -26.38 -5.416 0.223 0.975 0
-1.587 -26.515 -4.824 0.223 0.878 0.423
-1.587 -26.894 -4.349 0.223 0.608 0.762
-1.587 -27.441 -6.747 0.223 0.217 -0.95
-1.587 -26.894 -6.483 0.223 0.608 -0.762
-1.587 -26.515 -6.008 0.223 0.878 -0.423
-2.211 -26.38 -5.416 -0.223 0.975 0
-2.211 -26.515 -4.824 -0.223 0.878 0.423
-2.211 -26.894 -4.349 -0.223 0.608 0.762
-2.211 -26.894 -6.483 -0.223 0.608 -0.762
-2.211 -26.515 -6.008 -0.223 0.878 -0.423
-2.772 -26.65 -5.416 -0.623 0.782 0
-2.772 -26.824 -4.824 -0.623 0.658 0.423
-2.772 -26.824 -6.008 -0.623 0.658 -0.423
-3.16 -27.138 -5.416 -0.901 0.434 0
-1.777 -28.749 -2.578 0.223 0.608 0.762
-1.777 -29.296 -2.314 0.223 0.217 0.95
-2.401 -28.749 -2.578 -0.223 0.608 0.762
-2.401 -29.296 -2.314 -0.223 0.217 0.95
-2.401 -29.904 -2.314 -0.223 -0.217 0.95
-2.401 -30.451 -2.578 -0.223 -0.608 0.762
-2.962 -28.679 -3.053 -0.623 0.658 0.423
-2.962 -29.145 -2.649 -0.623 0.325 0.711
-2.962 -29.756 -2.562 -0.623 -0.111 0.774
-2.962 -30.317 -2.818 -0.623 -0.512 0.591
-3.554 -32.426 -4.899 -0 -0.749 0.663
-4.723 -36.749 -7.638 -0.588 -0.31 0.747
-5.165 -36.13 -7.957 -0.809 -0 0.588
-5.165 -36.718 -8.115 -0.809 -0.294 0.509
-5.165 -37.148 -8.545 -0.809 -0.509 0.294
-4.792 -36.936 -11.394 -0 -0.749 -0.663
-4.792 -36.464 -11.72 -0 -0.355 -0.935
-5.392 -37.035 -10.891 -0.5 -0.831 -0.244
-5.392 -36.719 -11.383 -0.5 -0.567 -0.654
-5.831 -36.638 -10.598 -0.866 -0.5 -0
-5.831 -36.338 -11.118 -0.866 -0.25 -0.433
-3.024 -34.176 -11.34 0.809 -0 -0.588
-3.466 -34.176 -11.782 0.588 0 -0.809
-3.466 -33.557 -11.659 0.588 0.31 -0.747
-4.024 -34.333 -12.06 0.309 -0.079 -0.948
2.022 -28.567 -6.828 0.5 0.866 0
2.022 -28.732 -7.39 0.5 0.729 -0.468
1.422 -28.543 -7.386 -0 0.885 -0.465
1.72 -28.487 -2.486 -0 1 0
1.72 -28.624 -1.928 -0 0.885 0.465
1.12 -28.813 -1.924 -0.5 0.729 0.468
3.165 -28.944 -2.807 0.588 0.809 0
2.607 -29.522 -1.215 0.309 0.52 0.796
1.989 -29.831 -0.945 -0 0.365 0.931
1.371 -30.095 -0.963 -0.309 0.233 0.922
1.371 -30.719 -0.911 -0.309 -0.079 0.948
0.813 -29.943 -1.312 -0.588 0.31 0.747
0.813 -30.562 -1.189 -0.588 -0 0.809
2.246 -34.054 -0.94 -0.223 -0.608 0.762
1.685 -33.359 -0.924 -0.623 -0.111 0.774
-0.308 -34.753 -2.518 -0.588 0.31 0.747
-0.308 -35.372 -2.395 -0.588 -0 0.809
-0.75 -34.784 -2.995 -0.809 0.294 0.509
-0.75 -35.372 -2.837 -0.809 -0 0.588
-1.523 -35.009 -4.433 -0.809 0.509 0.294
-3.513 -35.39 -6.331 -0.309 -0.079 0.948
-4.071 -35.852 -6.732 -0.588 -0.31 0.747
-0.94 -38.499 -6.18 -0 -0.749 -0.663
-1.54 -38.598 -5.677 -0.5 -0.831 -0.244
-1.979 -38.201 -5.384 -0.866 -0.5 -0
-2.147 -37.961 -9.163 0.901 -0.434 -0
-2.535 -38.404 -8.855 0.623 -0.75 0.22
-2.535 -38.404 -9.471 0.623 -0.75 -0.22
-2.535 -38.071 -9.99 0.623 -0.512 -0.591
-3.096 -38.584 -8.571 0.223 -0.878 0.423
-3.096 -38.719 -9.163 0.223 -0.975 0
-3.096 -38.584 -9.755 0.223 -0.878 -0.423
-3.096 -38.205 -10.23 0.223 -0.608 -0.762
-3.72 -38.205 -8.096 -0.223 -0.608 0.762
-3.72 -38.584 -8.571 -0.223 -0.878 0.423
-3.72 -38.719 -9.163 -0.223 -0.975 0
-3.72 -38.584 -9.755 -0.223 -0.878 -0.423
-3.72 -38.205 -10.23 -0.223 -0.608 -0.762
-4.281 -38.404 -8.855 -0.623 -0.75 0.22
-4.281 -38.404 -9.471 -0.623 -0.75 -0.22
-1.929 -36.718 -10.151 0.809 -0.294 -0.509
-1.929 -36.13 -10.309 0.809 -0 -0.588
-2.371 -36.749 -10.628 0.588 -0.31 -0.747
-2.371 -36.13 -10.751 0.588 0 -0.809
-2.929 -36.894 -10.875 0.309 -0.382 -0.871
1.206 -33.927 -8.73 0.623 -0.111 -0.774
0.645 -34.075 -8.978 0.223 -0.217 -0.95
0.645 -33.467 -8.978 0.223 0.217 -0.95
2.6 -30.055 -7.718 0.901 0.217 -0.376
2.212 -30.515 -8.275 0.623 -0.111 -0.774
2.212 -29.904 -8.188 0.623 0.325 -0.711
1.651 -30.663 -8.523 0.223 -0.217 -0.95
1.651 -30.055 -8.523 0.223 0.217 -0.95
1.027 -30.055 -8.523 -0.223 0.217 -0.95
0.466 -29.904 -8.188 -0.623 0.325 -0.711
3.823 -30.294 -4.846 0.951 0.155 -0.268
3.539 -30.015 -5.329 0.809 0.294 -0.509
2.958 -28.744 -4.591 0.5 0.866 0
5.456 -32.02 -0.291 1 0 0
5.317 -31.413 -0.291 0.901 0.434 0
5.317 -31.716 0.235 0.901 0.217 0.376
5.317 -32.324 0.235 0.901 -0.217 0.376
4.929 -30.925 -0.291 0.623 0.782 0
4.929 -31.099 0.301 0.623 0.658 0.423
4.929 -31.565 0.705 0.623 0.325 0.711
4.929 -32.176 0.792 0.623 -0.111 0.774
4.929 -32.737 0.536 0.623 -0.512 0.591
4.929 -33.07 0.017 0.623 -0.75 0.22
4.368 -30.79 0.301 0.223 0.878 0.423
4.368 -31.169 0.776 0.223 0.608 0.762
4.368 -31.716 1.04 0.223 0.217 0.95
4.368 -32.324 1.04 0.223 -0.217 0.95
4.368 -32.871 0.776 0.223 -0.608 0.762
4.368 -33.25 0.301 0.223 -0.878 0.423
3.744 -30.79 0.301 -0.223 0.878 0.423
3.744 -31.169 0.776 -0.223 0.608 0.762
3.744 -31.716 1.04 -0.223 0.217 0.95
3.744 -32.324 1.04 -0.223 -0.217 0.95
3.744 -32.871 0.776 -0.223 -0.608 0.762
3.183 -31.565 0.705 -0.623 0.325 0.711
3.183 -32.176 0.792 -0.623 -0.111 0.774
3.183 -32.737 0.536 -0.623 -0.512 0.591
5.462 -32.254 -1.704 1 0 0
5.353 -31.638 -1.704 0.94 0.342 0
5.353 -32.87 -1.704 0.94 -0.342 -0
5.353 -32.562 -2.237 0.94 -0.171 -0.296
5.353 -31.946 -2.237 0.94 0.171 -0.296
5.041 -33.411 -1.704 0.766 -0.643 0
5.041 -33.256 -2.283 0.766 -0.557 -0.321
5.041 -32.833 -2.706 0.766 -0.321 -0.557
5.041 -32.254 -2.861 0.766 -0 -0.643
4.562 -33.813 -1.704 0.5 -0.866 0
4.562 -33.694 -2.301 0.5 -0.8 -0.331
3.319 -34.806 -4.324 0.951 -0.309 -0
2.486 -36.39 -3.425 0.809 -0.509 0.294
2.486 -36.548 -4.013 0.809 -0.588 0
2.486 -36.39 -4.601 0.809 -0.509 -0.294
2.044 -36.867 -3.394 0.588 -0.747 0.31
0.986 -36.178 -2.051 -0 -0.355 0.935
0.219 -38.263 -3.218 0.5 -0.567 0.654
-0.381 -38.008 -2.881 -0 -0.355 0.935
-0.381 -38.48 -3.207 -0 -0.749 0.663
-0.981 -37.73 -2.974 -0.5 -0.123 0.857
-0.981 -38.263 -3.218 -0.5 -0.567 0.654
0.825 -38.259 -4.465 0.766 -0.617 0.181
0.373 -38.651 -5.079 0.5 -0.847 -0.18
0.373 -38.402 -5.638 0.5 -0.701 -0.509
-0.182 -38.857 -5.081 0.174 -0.968 -0.181
-1.779 -36.757 -3.779 -0.766 0.267 0.585
-2.074 -36.92 -4.269 -0.94 0.171 0.296
-2.074 -37.502 -4.269 -0.94 -0.171 0.296
0.212 -36.502 -7.568 0.174 -0.593 -0.786
2.095 -35.315 -7.12 0.809 -0.509 -0.294
2.095 -34.885 -7.55 0.809 -0.294 -0.509
1.653 -35.441 -7.676 0.588 -0.572 -0.572
1.653 -34.916 -8.027 0.588 -0.31 -0.747
3.452 -32.769 -7.19 0.866 -0.25 -0.433
3.013 -32.617 -7.699 0.5 -0.123 -0.857
3.739 -32.943 -5.903 0.951 -0.309 -0
3.739 -32.016 -6.438 0.951 0.155 -0.268
1.713 -37.045 -5.609 0.809 -0.509 -0.294
1.271 -37.171 -6.165 0.588 -0.572 -0.572
3 0 430 1
3 1 430 431
3 430 4 431
3 431 4 3
3 4 433 432
3 432 433 434
3 432 434 5
3 5 434 435
3 433 436 434
3 434 436 437
3 434 437 435
3 435 437 438
3 436 7 437
3 437 7 439
3 437 439 438
3 438 439 6
3 7 10 440
3 440 10 441
3 440 441 8
3 8 441 9
3 10 13 442
3 442 13 443
3 442 443 11
3 11 443 12
3 13 444 14
3 14 444 445
3 444 446 445
3 445 446 447
3 446 448 447
3 447 448 449
3 448 450 449
3 449 450 451
3 450 0 451
3 451 0 2
3 14 16 452
3 452 16 453
3 452 453 12
3 12 453 15
3 16 19 454
3 454 19 455
3 454 455 17
3 17 455 18
3 19 22 456
3 456 22 457
3 456 457 20
3 20 457 21
3 22 25 458
3 458 25 460
3 458 460 459
3 459 460 461
3 459 461 23
3 23 461 24
3 25 28 462
3 462 28 463
3 462 463 26
3 26 463 27
3 28 464 29
3 29 464 465
3 464 466 465
3 465 466 467
3 466 468 467
3 467 468 469
3 468 31 469
3 469 31 30
3 31 2 470
3 470 2 471
3 470 471 32
3 32 471 1
3 32 472 30
3 30 472 473
3 472 474 473
3 473 474 475
3 474 34 475
3 475 34 33
3 34 37 476
3 476 37 477
3 476 477 35
3 35 477 36
3 37 478 38
3 38 478 479
3 478 480 479
3 479 480 481
3 480 40 481
3 481 40 39
3 40 483 482
3 482 483 484
3 482 484 41
3 41 484 485
3 483 43 484
3 484 43 486
3 484 486 485
3 485 486 42
3 43 46 44
3 44 46 45
3 46 487 47
3 47 487 488
3 487 489 488
3 488 489 490
3 489 491 490
3 490 491 492
3 491 3 492
3 492 3 5
3 47 49 45
3 45 49 48
3 49 52 493
3 493 52 494
3 493 494 50
3 50 494 51
3 52 495 53
3 53 495 496
3 495 497 496
3 496 497 498
3 497 499 498
3 498 499 500
3 499 6 500
3 500 6 8
3 53 55 501
3 501 55 502
3 501 502 51
3 51 502 54
3 55 58 503
3 503 58 504
3 503 504 56
3 56 504 57
3 58 61 505
3 505 61 506
3 505 506 59
3 59 506 60
3 61 9 507
3 507 9 508
3 507 508 62
3 62 508 11
3 62 64 60
3 60 64 63
3 64 67 509
3 509 67 511
3 509 511 510
3 510 511 512
3 510 512 65
3 65 512 66
3 67 70 68
3 68 70 69
3 70 15 71
3 71 15 17
3 71 18 69
3 69 18 20
3 68 73 513
3 513 73 514
3 513 514 66
3 66 514 72
3 73 21 74
3 74 21 23
3 74 76 515
3 515 76 517
3 515 517 516
3 516 517 518
3 516 518 72
3 72 518 75
3 76 79 519
3 519 79 520
3 519 520 77
3 77 520 78
3 79 82 521
3 521 82 522
3 521 522 80
3 80 522 81
3 82 24 83
3 83 24 26
3 83 524 523
3 523 524 525
3 523 525 81
3 81 525 526
3 524 527 525
3 525 527 528
3 525 528 526
3 526 528 529
3 527 85 528
3 528 85 530
3 528 530 529
3 529 530 84
3 85 88 531
3 531 88 533
3 531 533 532
3 532 533 534
3 532 534 86
3 86 534 87
3 89 535 92
3 92 535 536
3 536 535 91
3 88 93 537
3 537 93 538
3 537 538 90
3 93 96 539
3 539 96 542
3 539 542 540
3 540 542 543
3 540 543 541
3 541 543 544
3 541 544 94
3 94 544 95
3 96 545 97
3 97 545 546
3 545 99 546
3 546 99 98
3 99 102 547
3 547 102 548
3 547 548 100
3 100 548 101
3 102 550 549
3 549 550 551
3 549 551 103
3 103 551 552
3 550 27 551
3 551 27 553
3 551 553 552
3 552 553 29
3 103 554 101
3 101 554 555
3 554 105 555
3 555 105 104
3 105 33 556
3 556 33 558
3 556 558 557
3 557 558 559
3 557 559 106
3 106 559 35
3 106 108 560
3 560 108 562
3 560 562 561
3 561 562 563
3 561 563 104
3 104 563 107
3 108 111 109
3 109 111 110
3 111 114 112
3 112 114 113
3 114 564 115
3 115 564 565
3 564 117 565
3 565 117 116
3 117 120 118
3 118 120 119
3 120 566 121
3 121 566 567
3 566 123 567
3 567 123 122
3 123 36 568
3 568 36 569
3 568 569 124
3 124 569 38
3 124 39 570
3 570 39 571
3 570 571 122
3 122 571 41
3 121 126 572
3 572 126 573
3 572 573 119
3 119 573 125
3 126 574 127
3 127 574 575
3 574 576 575
3 575 576 577
3 576 129 577
3 577 129 128
3 129 132 578
3 578 132 579
3 578 579 130
3 130 579 131
3 132 42 580
3 580 42 581
3 580 581 133
3 133 581 44
3 133 48 131
3 131 48 50
3 130 135 582
3 582 135 583
3 582 583 128
3 128 583 134
3 135 584 136
3 136 584 585
3 584 54 585
3 585 54 56
3 136 138 134
3 134 138 137
3 138 586 139
3 139 586 587
3 586 141 587
3 587 141 140
3 141 144 588
3 588 144 591
3 588 591 589
3 589 591 592
3 589 592 590
3 590 592 593
3 590 593 142
3 142 593 143
3 144 594 145
3 145 594 595
3 594 147 595
3 595 147 146
3 147 57 148
3 148 57 59
3 148 150 146
3 146 150 149
3 150 153 596
3 596 153 597
3 596 597 151
3 151 597 152
3 153 63 598
3 598 63 600
3 598 600 599
3 599 600 601
3 599 601 154
3 154 601 65
3 154 156 602
3 602 156 603
3 602 603 152
3 152 603 155
3 156 159 157
3 157 159 158
3 159 162 604
3 604 162 607
3 604 607 605
3 605 607 608
3 605 608 606
3 606 608 609
3 606 609 160
3 160 609 161
3 162 611 610
3 610 611 612
3 610 612 163
3 163 612 613
3 611 165 612
3 612 165 614
3 612 614 613
3 613 614 164
3 165 615 166
3 166 615 616
3 615 168 616
3 616 168 167
3 168 171 617
3 617 171 618
3 617 618 169
3 169 618 170
3 171 75 172
3 172 75 77
3 172 78 170
3 170 78 80
3 169 619 167
3 167 619 620
3 619 174 620
3 620 174 173
3 174 177 621
3 621 177 623
3 621 623 622
3 622 623 624
3 622 624 175
3 175 624 176
3 177 627 625
3 625 627 628
3 625 628 626
3 626 628 629
3 626 629 178
3 178 629 630
3 627 180 628
3 628 180 631
3 628 631 629
3 629 631 632
3 629 632 630
3 630 632 179
3 180 183 633
3 633 183 635
3 633 635 634
3 634 635 636
3 634 636 181
3 181 636 182
3 183 84 637
3 637 84 638
3 637 638 184
3 184 638 86
3 184 186 639
3 639 186 640
3 639 640 182
3 182 640 185
3 186 87 641
3 641 87 642
3 641 642 187
3 187 642 89
3 187 189 643
3 643 189 645
3 643 645 644
3 644 645 646
3 644 646 185
3 185 646 188
3 189 192 647
3 647 192 648
3 647 648 190
3 190 648 191
3 192 649 193
3 193 649 650
3 649 651 650
3 650 651 652
3 651 195 652
3 652 195 194
3 195 198 196
3 196 198 197
3 198 92 199
3 199 92 94
3 199 201 197
3 197 201 200
3 201 95 653
3 653 95 656
3 653 656 654
3 654 656 657
3 654 657 655
3 655 657 658
3 655 658 202
3 202 658 97
3 205 200 204
3 202 206 203
3 206 209 659
3 659 209 661
3 659 661 660
3 660 661 662
3 660 662 207
3 207 662 208
3 209 98 663
3 663 98 664
3 663 664 210
3 210 664 100
3 210 666 665
3 665 666 667
3 665 667 208
3 208 667 668
3 666 107 667
3 667 107 669
3 667 669 668
3 668 669 109
3 207 212 670
3 670 212 673
3 670 673 671
3 671 673 674
3 671 674 672
3 672 674 675
3 672 675 205
3 205 675 211
3 212 676 213
3 213 676 677
3 676 678 677
3 677 678 679
3 678 680 679
3 679 680 681
3 680 215 681
3 681 215 214
3 215 110 216
3 216 110 112
3 216 682 214
3 214 682 683
3 682 684 683
3 683 684 685
3 684 686 685
3 685 686 687
3 686 218 687
3 687 218 217
3 218 221 688
3 688 221 691
3 688 691 689
3 689 691 692
3 689 692 690
3 690 692 693
3 690 693 219
3 219 693 220
3 221 694 222
3 222 694 695
3 694 696 695
3 695 696 697
3 696 698 697
3 697 698 699
3 698 224 699
3 699 224 223
3 224 227 225
3 225 227 226
3 227 700 228
3 228 700 701
3 700 113 701
3 701 113 115
3 228 116 226
3 226 116 118
3 225 703 702
3 702 703 704
3 702 704 223
3 223 704 705
3 703 230 704
3 704 230 706
3 704 706 705
3 705 706 229
3 230 233 231
3 231 233 232
3 233 236 234
3 234 236 235
3 236 125 237
3 237 125 127
3 237 707 235
3 235 707 708
3 707 239 708
3 708 239 238
3 239 242 240
3 240 242 241
3 242 137 243
3 243 137 139
3 243 245 241
3 241 245 244
3 245 248 246
3 246 248 247
3 248 710 709
3 709 710 711
3 709 711 249
3 249 711 712
3 710 251 711
3 711 251 713
3 711 713 712
3 712 713 250
3 251 140 714
3 714 140 717
3 714 717 715
3 715 717 718
3 715 718 716
3 716 718 719
3 716 719 252
3 252 719 142
3 252 721 720
3 720 721 722
3 720 722 250
3 250 722 723
3 721 254 722
3 722 254 724
3 722 724 723
3 723 724 253
3 254 257 255
3 255 257 256
3 257 725 258
3 258 725 726
3 725 727 726
3 726 727 728
3 727 260 728
3 728 260 259
3 260 263 729
3 729 263 730
3 729 730 261
3 261 730 262
3 263 143 731
3 731 143 734
3 731 734 732
3 732 734 735
3 732 735 733
3 733 735 736
3 733 736 264
3 264 736 145
3 264 149 737
3 737 149 738
3 737 738 262
3 262 738 151
3 261 266 739
3 739 266 741
3 739 741 740
3 740 741 742
3 740 742 259
3 259 742 265
3 266 155 267
3 267 155 157
3 267 269 743
3 743 269 745
3 743 745 744
3 744 745 746
3 744 746 265
3 265 746 268
3 269 158 747
3 747 158 749
3 747 749 748
3 748 749 750
3 748 750 270
3 270 750 160
3 270 751 268
3 268 751 752
3 751 753 752
3 752 753 754
3 753 755 754
3 754 755 756
3 755 272 756
3 756 272 271
3 272 275 757
3 757 275 758
3 757 758 273
3 273 758 274
3 275 760 759
3 759 760 761
3 759 761 276
3 276 761 762
3 760 278 761
3 761 278 763
3 761 763 762
3 762 763 277
3 278 161 764
3 764 161 765
3 764 765 279
3 279 765 163
3 279 281 766
3 766 281 767
3 766 767 277
3 277 767 280
3 281 284 768
3 768 284 769
3 768 769 282
3 282 769 283
3 284 287 770
3 770 287 771
3 770 771 285
3 285 771 286
3 287 290 772
3 772 290 774
3 772 774 773
3 773 774 775
3 773 775 288
3 288 775 289
3 290 164 291
3 291 164 166
3 291 173 776
3 776 173 778
3 776 778 777
3 777 778 779
3 777 779 289
3 289 779 175
3 288 780 286
3 286 780 781
3 780 782 781
3 781 782 783
3 782 784 783
3 783 784 785
3 784 176 785
3 785 176 178
3 285 293 283
3 283 293 292
3 293 296 294
3 294 296 295
3 296 299 297
3 297 299 298
3 299 786 300
3 300 786 787
3 786 788 787
3 787 788 789
3 788 302 789
3 789 302 301
3 302 791 790
3 790 791 792
3 790 792 303
3 303 792 793
3 791 794 792
3 792 794 795
3 792 795 793
3 793 795 796
3 794 305 795
3 795 305 797
3 795 797 796
3 796 797 304
3 305 308 798
3 798 308 799
3 798 799 306
3 306 799 307
3 308 311 800
3 800 311 801
3 800 801 309
3 309 801 310
3 311 179 312
3 312 179 181
3 312 188 802
3 802 188 803
3 802 803 310
3 310 803 190
3 309 314 307
3 307 314 313
3 314 317 804
3 804 317 805
3 804 805 315
3 315 805 316
3 317 806 318
3 318 806 807
3 806 808 807
3 807 808 809
3 808 320 809
3 809 320 319
3 320 323 810
3 810 323 811
3 810 811 321
3 321 811 322
3 323 326 812
3 812 326 813
3 812 813 324
3 324 813 325
3 326 329 814
3 814 329 816
3 814 816 815
3 815 816 817
3 815 817 327
3 327 817 328
3 329 819 818
3 818 819 820
3 818 820 330
3 330 820 821
3 819 191 820
3 820 191 822
3 820 822 821
3 821 822 193
3 330 332 328
3 328 332 331
3 332 335 823
3 823 335 824
3 823 824 333
3 333 824 334
3 335 338 336
3 336 338 337
3 338 825 339
3 339 825 826
3 825 827 826
3 826 827 828
3 827 194 828
3 828 194 196
3 339 829 337
3 337 829 830
3 829 341 830
3 830 341 340
3 341 211 831
3 831 211 833
3 831 833 832
3 832 833 834
3 832 834 342
3 342 834 213
3 342 344 835
3 835 344 837
3 835 837 836
3 836 837 838
3 836 838 340
3 340 838 343
3 344 217 839
3 839 217 841
3 839 841 840
3 840 841 842
3 840 842 345
3 345 842 219
3 345 843 343
3 343 843 844
3 843 845 844
3 844 845 846
3 845 847 846
3 846 847 848
3 847 849 848
3 848 849 850
3 849 347 850
3 850 347 346
3 347 350 851
3 851 350 852
3 851 852 348
3 348 852 349
3 350 353 853
3 853 353 855
3 853 855 854
3 854 855 856
3 854 856 351
3 351 856 352
3 353 860 857
3 857 860 861
3 857 861 858
3 858 861 862
3 858 862 859
3 859 862 863
3 859 863 354
3 354 863 864
3 860 220 861
3 861 220 865
3 861 865 862
3 862 865 866
3 862 866 863
3 863 866 867
3 863 867 864
3 864 867 222
3 354 356 352
3 352 356 355
3 356 868 357
3 357 868 869
3 868 870 869
3 869 870 871
3 870 872 871
3 871 872 873
3 872 874 873
3 873 874 875
3 874 229 875
3 875 229 231
3 357 876 355
3 355 876 877
3 876 878 877
3 877 878 879
3 878 880 879
3 879 880 881
3 880 882 881
3 881 882 883
3 882 244 883
3 883 244 246
3 351 885 884
3 884 885 886
3 884 886 349
3 349 886 887
3 885 359 886
3 886 359 888
3 886 888 887
3 887 888 358
3 359 362 889
3 889 362 891
3 889 891 890
3 890 891 892
3 890 892 360
3 360 892 361
3 362 247 893
3 893 247 895
3 893 895 894
3 894 895 896
3 894 896 363
3 363 896 249
3 363 897 361
3 361 897 898
3 897 899 898
3 898 899 900
3 899 365 900
3 900 365 364
3 365 368 901
3 901 368 902
3 901 902 366
3 366 902 367
3 368 253 903
3 903 253 904
3 903 904 369
3 369 904 255
3 369 371 367
3 367 371 370
3 371 256 372
3 372 256 258
3 372 374 905
3 905 374 906
3 905 906 370
3 370 906 373
3 374 377 375
3 375 377 376
3 377 271 907
3 907 271 908
3 907 908 378
3 378 908 273
3 378 380 376
3 376 380 379
3 380 383 381
3 381 383 382
3 383 909 384
3 384 909 910
3 909 298 910
3 910 298 300
3 384 386 911
3 911 386 912
3 911 912 382
3 382 912 385
3 386 913 387
3 387 913 914
3 913 915 914
3 914 915 916
3 915 389 916
3 916 389 388
3 389 301 917
3 917 301 918
3 917 918 390
3 390 918 303
3 390 919 388
3 388 919 920
3 919 921 920
3 920 921 922
3 921 923 922
3 922 923 924
3 923 925 924
3 924 925 926
3 925 927 926
3 926 927 928
3 927 316 928
3 928 316 318
3 387 392 929
3 929 392 930
3 929 930 385
3 385 930 391
3 392 933 931
3 931 933 934
3 931 934 932
3 932 934 935
3 932 935 393
3 393 935 936
3 933 319 934
3 934 319 937
3 934 937 935
3 935 937 938
3 935 938 936
3 936 938 321
3 393 395 939
3 939 395 940
3 939 940 391
3 391 940 394
3 395 941 396
3 396 941 942
3 941 398 942
3 942 398 397
3 398 401 399
3 399 401 400
3 401 404 402
3 402 404 403
3 404 407 405
3 405 407 406
3 407 943 408
3 408 943 944
3 943 945 944
3 944 945 946
3 945 947 946
3 946 947 948
3 947 322 948
3 948 322 324
3 408 949 406
3 406 949 950
3 949 951 950
3 950 951 952
3 951 410 952
3 952 410 409
3 410 413 411
3 411 413 412
3 413 416 953
3 953 416 954
3 953 954 414
3 414 954 415
3 416 325 417
3 417 325 327
3 417 331 955
3 955 331 956
3 955 956 415
3 415 956 333
3 414 957 412
3 412 957 958
3 957 959 958
3 958 959 960
3 959 961 960
3 960 961 962
3 961 963 962
3 962 963 964
3 963 965 964
3 964 965 966
3 965 334 966
3 966 334 336
3 411 967 409
3 409 967 968
3 967 969 968
3 968 969 970
3 969 971 970
3 970 971 972
3 971 419 972
3 972 419 418
3 419 346 420
3 420 346 348
3 420 973 418
3 418 973 974
3 973 422 974
3 974 422 421
3 422 975 423
3 423 975 976
3 975 358 976
3 976 358 360
3 423 403 421
3 421 403 405
3 402 425 400
3 400 425 424
3 425 428 426
3 426 428 427
3 428 364 977
3 977 364 978
3 977 978 429
3 429 978 366
3 429 979 427
3 427 979 980
3 979 981 980
3 980 981 982
3 981 373 982
3 982 373 375
3 426 397 424
3 424 397 399
3 396 983 394
3 394 983 984
3 983 379 984
3 984 379 381
3 315 304 313
3 313 304 306
3 297 985 295
3 295 985 986
3 985 274 986
3 986 274 276
3 294 280 292
3 292 280 282
3 240 987 238
3 238 987 988
3 987 232 988
3 988 232 234
3 2 0 471
3 471 0 1
3 5 3 432
3 432 3 4
3 8 6 440
3 440 6 439
3 440 439 7
3 508 9 441
3 508 441 442
3 508 442 11
3 442 441 10
3 452 12 443
3 452 443 14
3 14 443 13
3 17 15 453
3 17 453 454
3 454 453 16
3 20 18 456
3 456 18 455
3 456 455 19
3 23 21 459
3 459 21 457
3 459 457 458
3 458 457 22
3 26 24 461
3 26 461 462
3 462 461 460
3 462 460 25
3 553 27 463
3 553 463 29
3 29 463 28
3 32 30 470
3 470 30 31
3 558 33 34
3 558 34 476
3 558 476 559
3 559 476 35
3 569 36 477
3 569 477 38
3 38 477 37
3 571 39 482
3 571 482 41
3 482 39 40
3 581 42 486
3 581 486 44
3 44 486 43
3 47 45 46
3 50 48 493
3 493 48 49
3 501 51 494
3 501 494 53
3 53 494 52
3 56 54 502
3 56 502 503
3 503 502 55
3 59 57 505
3 505 57 504
3 505 504 58
3 62 60 507
3 507 60 506
3 507 506 61
3 600 63 509
3 600 509 510
3 600 510 601
3 601 510 65
3 509 63 64
3 513 66 512
3 513 512 511
3 513 511 68
3 68 511 67
3 71 69 70
3 516 72 514
3 516 514 515
3 515 514 73
3 515 73 74
3 77 75 518
3 77 518 519
3 519 518 517
3 519 517 76
3 80 78 521
3 521 78 520
3 521 520 79
3 523 81 522
3 523 522 83
3 83 522 82
3 638 84 530
3 638 530 531
3 638 531 532
3 638 532 86
3 531 530 85
3 642 87 992
3 642 992 91
3 642 91 535
3 642 535 89
3 91 992 989
3 989 992 90
3 90 992 534
3 90 534 537
3 537 534 533
3 537 533 88
3 534 992 87
3 94 92 536
3 94 536 91
3 94 91 541
3 541 91 989
3 541 989 540
3 540 989 90
3 540 90 538
3 540 538 539
3 539 538 93
3 656 95 544
3 656 544 543
3 656 543 657
3 657 543 542
3 657 542 658
3 658 542 96
3 658 96 97
3 664 98 99
3 664 99 547
3 664 547 100
3 103 101 548
3 103 548 549
3 549 548 102
3 561 104 105
3 561 105 556
3 561 556 560
3 560 556 557
3 560 557 106
3 669 107 563
3 669 563 562
3 669 562 109
3 109 562 108
3 112 110 111
3 115 113 114
3 118 116 117
3 572 119 120
3 572 120 121
3 570 122 123
3 570 123 568
3 570 568 124
3 127 125 573
3 127 573 126
3 582 128 578
3 582 578 130
3 578 128 129
3 133 131 579
3 133 579 580
3 580 579 132
3 136 134 583
3 136 583 135
3 139 137 138
3 717 140 588
3 717 588 589
3 717 589 993
3 717 993 718
3 718 993 590
3 718 590 719
3 719 590 142
3 590 993 589
3 588 140 141
3 734 143 593
3 734 593 735
3 735 593 592
3 735 592 736
3 736 592 591
3 736 591 145
3 145 591 144
3 148 146 147
3 738 149 150
3 738 150 596
3 738 596 151
3 602 152 599
3 602 599 154
3 599 152 598
3 598 152 597
3 598 597 153
3 157 155 603
3 157 603 156
3 749 158 604
3 749 604 605
3 749 605 750
3 750 605 606
3 750 606 160
3 604 158 159
3 765 161 609
3 765 609 608
3 765 608 163
3 163 608 610
3 610 608 607
3 610 607 162
3 166 164 614
3 166 614 165
3 169 167 617
3 617 167 168
3 172 170 618
3 172 618 171
3 778 173 621
3 778 621 622
3 778 622 779
3 779 622 175
3 621 173 174
3 178 176 624
3 178 624 626
3 626 624 623
3 626 623 625
3 625 623 177
3 181 179 634
3 634 179 632
3 634 632 633
3 633 632 631
3 633 631 180
3 639 182 636
3 639 636 994
3 639 994 184
3 184 994 637
3 637 994 635
3 637 635 183
3 635 994 636
3 644 185 640
3 644 640 995
3 644 995 643
3 643 995 641
3 643 641 187
3 641 995 186
3 186 995 640
3 803 188 646
3 803 646 647
3 803 647 190
3 647 646 645
3 647 645 189
3 822 191 648
3 822 648 192
3 822 192 193
3 196 194 195
3 199 197 198
3 204 200 201
3 204 201 991
3 991 201 653
3 991 653 990
3 990 653 654
3 990 654 655
3 990 655 203
3 203 655 202
3 672 205 204
3 672 204 996
3 672 996 671
3 671 996 670
3 670 996 997
3 670 997 207
3 207 997 998
3 207 998 660
3 660 998 999
3 660 999 659
3 659 999 203
3 659 203 206
3 203 999 990
3 990 999 998
3 990 998 997
3 990 997 991
3 991 997 996
3 991 996 204
3 665 208 662
3 665 662 1000
3 665 1000 1001
3 665 1001 210
3 210 1001 663
3 663 1001 1000
3 663 1000 661
3 663 661 209
3 661 1000 662
3 833 211 675
3 833 675 674
3 833 674 834
3 834 674 673
3 834 673 213
3 213 673 212
3 216 214 215
3 841 217 688
3 841 688 689
3 841 689 842
3 842 689 690
3 842 690 219
3 688 217 218
3 865 220 693
3 865 693 692
3 865 692 866
3 866 692 691
3 866 691 867
3 867 691 221
3 867 221 222
3 702 223 224
3 702 224 225
3 228 226 227
3 231 229 706
3 231 706 230
3 234 232 233
3 237 235 236
3 240 238 239
3 243 241 242
3 246 244 245
3 895 247 248
3 895 248 709
3 895 709 896
3 896 709 249
3 720 250 715
3 720 715 716
3 720 716 252
3 715 250 713
3 715 713 714
3 714 713 251
3 904 253 724
3 904 724 255
3 255 724 254
3 258 256 257
3 740 259 260
3 740 260 729
3 740 729 739
3 739 729 261
3 737 262 1002
3 737 1002 733
3 737 733 264
3 733 1002 732
3 732 1002 730
3 732 730 731
3 731 730 263
3 730 1002 262
3 744 265 742
3 744 742 743
3 743 742 741
3 743 741 267
3 267 741 266
3 270 268 746
3 270 746 748
3 748 746 745
3 748 745 747
3 747 745 269
3 908 271 272
3 908 272 757
3 908 757 273
3 276 274 759
3 759 274 758
3 759 758 275
3 766 277 763
3 766 763 1003
3 766 1003 279
3 279 1003 764
3 764 1003 278
3 278 1003 763
3 282 280 767
3 282 767 768
3 768 767 281
3 285 283 770
3 770 283 769
3 770 769 284
3 288 286 773
3 773 286 771
3 773 771 772
3 772 771 287
3 777 289 775
3 777 775 774
3 777 774 776
3 776 774 290
3 776 290 291
3 294 292 293
3 297 295 296
3 300 298 299
3 918 301 790
3 918 790 303
3 790 301 302
3 306 304 797
3 306 797 798
3 798 797 305
3 309 307 800
3 800 307 799
3 800 799 308
3 802 310 801
3 802 801 312
3 312 801 311
3 315 313 804
3 804 313 314
3 318 316 805
3 318 805 317
3 937 319 320
3 937 320 810
3 937 810 938
3 938 810 321
3 324 322 812
3 812 322 811
3 812 811 323
3 327 325 815
3 815 325 813
3 815 813 814
3 814 813 326
3 330 328 817
3 330 817 818
3 818 817 816
3 818 816 329
3 956 331 332
3 956 332 823
3 956 823 333
3 336 334 824
3 336 824 335
3 339 337 338
3 836 340 341
3 836 341 831
3 836 831 835
3 835 831 832
3 835 832 342
3 345 343 838
3 345 838 840
3 840 838 837
3 840 837 839
3 839 837 344
3 348 346 851
3 851 346 347
3 884 349 853
3 884 853 854
3 884 854 351
3 853 349 852
3 853 852 350
3 354 352 859
3 859 352 1004
3 859 1004 858
3 858 1004 855
3 858 855 857
3 857 855 353
3 855 1004 856
3 856 1004 352
3 357 355 356
3 360 358 890
3 890 358 888
3 890 888 889
3 889 888 359
3 363 361 894
3 894 361 892
3 894 892 893
3 893 892 891
3 893 891 362
3 978 364 901
3 978 901 366
3 901 364 365
3 369 367 902
3 369 902 903
3 903 902 368
3 905 370 371
3 905 371 372
3 375 373 906
3 375 906 374
3 378 376 907
3 907 376 377
3 381 379 380
3 911 382 383
3 911 383 384
3 929 385 912
3 929 912 386
3 929 386 387
3 390 388 917
3 917 388 389
3 939 391 930
3 939 930 932
3 939 932 393
3 932 930 931
3 931 930 392
3 396 394 940
3 396 940 395
3 399 397 398
3 402 400 401
3 405 403 404
3 408 406 407
3 411 409 410
3 414 412 953
3 953 412 413
3 955 415 954
3 955 954 416
3 955 416 417
3 420 418 419
3 423 421 422
3 426 424 425
3 429 427 977
3 977 427 428
3 1007 1008 1009
3 1009 1008 430
3 1009 430 450
3 1009 450 448
3 1009 448 1007
3 1007 448 446
3 1007 446 1006
3 1007 1006 1008
3 1008 1006 433
3 1008 433 4
3 1008 4 430
3 433 1006 436
3 436 1006 1005
3 436 1005 7
3 7 1005 10
3 10 1005 13
3 13 1005 444
3 444 1005 1006
3 444 1006 446
3 450 430 0
3 487 46 43
3 487 43 483
3 487 483 489
3 489 483 40
3 489 40 491
3 491 40 480
3 491 480 431
3 491 431 3
3 431 480 1
3 1 480 478
3 1 478 32
3 32 478 472
3 472 478 474
3 474 478 37
3 474 37 34
3 1010 1011 1012
3 1012 1011 1014
3 1013 1012 1014
3 1013 1014 435
3 1013 435 438
3 1013 438 499
3 1013 499 497
3 1013 497 1012
3 1012 497 1010
3 1010 497 495
3 1010 495 49
3 1010 49 47
3 1010 47 488
3 1010 488 1011
3 1011 488 490
3 1011 490 492
3 1011 492 1014
3 1014 492 5
3 1014 5 435
3 49 495 52
3 499 438 6
3 9 61 1017
3 9 1017 8
3 8 1017 500
3 500 1017 1018
3 500 1018 498
3 498 1018 496
3 496 1018 1015
3 496 1015 53
3 53 1015 55
3 55 1015 1016
3 55 1016 58
3 58 1016 61
3 61 1016 1017
3 1017 1016 1018
3 1018 1016 1015
3 12 15 70
3 12 70 67
3 12 67 11
3 11 67 64
3 11 64 62
3 1020 1019 1021
3 1020 1021 1022
3 1020 1022 464
3 1020 464 28
3 1020 28 25
3 1020 25 1019
3 1019 25 22
3 1019 22 445
3 1019 445 447
3 1019 447 1021
3 1021 447 449
3 1021 449 1023
3 1021 1023 1022
3 1022 1023 466
3 1022 466 464
3 466 1023 468
3 468 1023 1024
3 468 1024 31
3 31 1024 2
3 2 1024 451
3 451 1024 1023
3 451 1023 449
3 445 22 19
3 445 19 16
3 445 16 14
3 18 71 17
3 21 73 20
3 20 73 69
3 69 73 68
3 24 82 1025
3 24 1025 23
3 23 1025 74
3 74 1025 76
3 76 1025 79
3 79 1025 82
3 550 102 1027
3 550 1027 27
3 27 1027 83
3 27 83 26
3 83 1027 524
3 524 1027 1026
3 524 1026 527
3 527 1026 545
3 527 545 85
3 85 545 96
3 85 96 88
3 88 96 93
3 545 1026 102
3 545 102 99
3 102 1026 1027
3 475 33 554
3 475 554 1028
3 475 1028 473
3 473 1028 469
3 473 469 30
3 469 1028 467
3 467 1028 554
3 467 554 465
3 465 554 103
3 465 103 552
3 465 552 29
3 554 33 105
3 36 123 1029
3 36 1029 35
3 35 1029 114
3 35 114 106
3 106 114 111
3 106 111 108
3 114 1029 564
3 564 1029 123
3 564 123 566
3 564 566 117
3 117 566 120
3 39 124 481
3 481 124 1030
3 481 1030 479
3 479 1030 38
3 38 1030 124
3 1031 1033 1034
3 1032 1035 1036
3 1033 1032 1036
3 1033 1036 1037
3 1034 1033 1037
3 1036 1035 1038
3 1036 1038 1039
3 1037 1036 1039
3 1037 1039 485
3 1037 485 1034
3 1034 485 42
3 1034 42 132
3 1034 132 1031
3 1031 132 129
3 1031 129 576
3 1031 576 574
3 1031 574 1032
3 1031 1032 1033
3 1032 574 126
3 1032 126 1035
3 1035 126 121
3 1035 121 1038
3 1038 121 567
3 1038 567 122
3 1038 122 41
3 1038 41 1039
3 1039 41 485
3 45 48 133
3 45 133 44
3 51 54 1040
3 51 1040 130
3 51 130 131
3 51 131 50
3 130 1040 135
3 135 1040 584
3 584 1040 54
3 144 141 594
3 1041 1042 1043
3 1041 1043 594
3 1041 594 141
3 1041 141 586
3 1041 586 1042
3 1042 586 138
3 1042 138 136
3 1042 136 585
3 1042 585 1043
3 1043 585 594
3 594 585 147
3 147 585 56
3 147 56 57
3 60 63 1044
3 60 1044 59
3 59 1044 148
3 148 1044 150
3 150 1044 153
3 153 1044 63
3 1046 1045 1049
3 1046 1049 1050
3 1047 1052 1053
3 1045 1047 1053
3 1045 1053 1048
3 1045 1048 1049
3 1049 1048 1055
3 1049 1055 1056
3 1050 1049 1056
3 1052 1051 1057
3 1052 1057 1058
3 1053 1052 1058
3 1048 1053 1058
3 1048 1058 1054
3 1048 1054 1055
3 1055 1054 1059
3 1055 1059 1060
3 1056 1055 1060
3 1058 1057 1061
3 1059 1058 1061
3 1054 1058 1059
3 1060 1059 1062
3 1059 1061 1062
3 1062 1061 66
3 1062 66 72
3 1062 72 1060
3 1060 72 75
3 1060 75 171
3 1060 171 1056
3 1056 171 168
3 1056 168 1050
3 1050 168 615
3 1050 615 1046
3 1046 615 165
3 1046 165 611
3 1046 611 1045
3 1045 611 1047
3 1047 611 162
3 1047 162 1052
3 1052 162 1051
3 1051 162 159
3 1051 159 156
3 1051 156 154
3 1051 154 65
3 1051 65 1057
3 1057 65 1061
3 1061 65 66
3 78 172 77
3 1063 1065 1066
3 1064 1063 1066
3 1064 1066 1067
3 1065 1069 1070
3 1066 1065 1070
3 1066 1070 1071
3 1067 1066 1071
3 1067 1071 1072
3 1068 1067 1072
3 1068 1072 529
3 1068 529 183
3 1068 183 180
3 1068 180 1067
3 1067 180 627
3 1067 627 1064
3 1064 627 177
3 1064 177 1063
3 1063 177 174
3 1063 174 619
3 1063 619 169
3 1063 169 1065
3 1065 169 1069
3 1069 169 170
3 1069 170 80
3 1069 80 81
3 1069 81 1070
3 1070 81 1071
3 1071 81 1072
3 1072 81 526
3 1072 526 529
3 183 529 84
3 87 186 86
3 86 186 184
3 92 198 195
3 92 195 89
3 89 195 651
3 89 651 187
3 187 651 649
3 187 649 189
3 189 649 192
3 95 201 199
3 95 199 94
3 98 209 1073
3 98 1073 546
3 546 1073 97
3 97 1073 202
3 202 1073 206
3 206 1073 209
3 555 104 107
3 555 107 666
3 555 666 100
3 555 100 101
3 100 666 210
3 110 215 109
3 676 212 207
3 676 207 208
3 676 208 678
3 678 208 668
3 678 668 680
3 680 668 109
3 680 109 215
3 216 112 682
3 1074 1075 1076
3 1074 1076 696
3 1074 696 694
3 1074 694 686
3 1074 686 684
3 1074 684 682
3 1074 682 1075
3 1075 682 112
3 1075 112 113
3 1075 113 1076
3 1076 113 700
3 1076 700 1077
3 1076 1077 696
3 696 1077 698
3 698 1077 227
3 698 227 224
3 227 1077 700
3 686 694 218
3 218 694 221
3 116 228 701
3 116 701 565
3 565 701 115
3 1078 1080 1081
3 1079 1078 1081
3 1080 1082 1083
3 1081 1080 1083
3 1081 1083 125
3 1081 125 1079
3 1079 125 236
3 1079 236 233
3 1079 233 1078
3 1078 233 230
3 1078 230 703
3 1078 703 1080
3 1080 703 225
3 1080 225 226
3 1080 226 1082
3 1082 226 118
3 1082 118 1083
3 1083 118 119
3 1083 119 125
3 1084 1085 1086
3 1084 1086 137
3 1084 137 242
3 1084 242 239
3 1084 239 1085
3 1085 239 707
3 1085 707 1087
3 1085 1087 577
3 1085 577 1086
3 1086 577 128
3 1086 128 134
3 1086 134 137
3 577 1087 575
3 575 1087 237
3 575 237 127
3 237 1087 707
3 140 251 587
3 587 251 710
3 587 710 139
3 139 710 248
3 139 248 245
3 139 245 243
3 142 143 252
3 143 263 727
3 143 727 252
3 252 727 725
3 252 725 721
3 721 725 254
3 254 725 257
3 727 263 260
3 146 149 595
3 595 149 264
3 595 264 145
3 152 155 151
3 151 155 266
3 151 266 261
3 151 261 262
3 158 269 157
3 157 269 267
3 1088 1089 1090
3 1088 1090 161
3 1088 161 278
3 1088 278 760
3 1088 760 275
3 1088 275 1089
3 1089 275 755
3 1089 755 753
3 1089 753 1090
3 1090 753 751
3 1090 751 160
3 1090 160 161
3 160 751 270
3 755 275 272
3 164 290 287
3 164 287 284
3 164 284 613
3 613 284 281
3 613 281 279
3 613 279 163
3 620 173 616
3 620 616 167
3 616 173 291
3 616 291 166
3 780 288 1091
3 780 1091 1092
3 780 1092 782
3 782 1092 784
3 784 1092 1093
3 784 1093 176
3 176 1093 175
3 175 1093 289
3 289 1093 1091
3 289 1091 288
3 1091 1093 1092
3 1097 1099 1100
3 1098 1097 1100
3 1098 1100 311
3 1098 311 308
3 1098 308 305
3 1098 305 794
3 1098 794 1097
3 1097 794 1096
3 1097 1096 785
3 1097 785 1099
3 1099 785 178
3 1099 178 630
3 1099 630 1100
3 1100 630 179
3 1100 179 311
3 785 1096 783
3 783 1096 1095
3 783 1095 788
3 783 788 781
3 781 788 1094
3 781 1094 293
3 781 293 285
3 781 285 286
3 293 1094 296
3 296 1094 786
3 296 786 299
3 786 1094 788
3 788 1095 302
3 302 1095 791
3 791 1095 1096
3 791 1096 794
3 182 185 188
3 182 188 181
3 181 188 312
3 819 329 1102
3 819 1102 191
3 191 1102 310
3 191 310 190
3 310 1102 314
3 310 314 309
3 314 1102 1101
3 314 1101 317
3 317 1101 806
3 806 1101 326
3 806 326 808
3 808 326 323
3 808 323 320
3 326 1101 329
3 329 1101 1102
3 1103 1105 1106
3 1104 1103 1106
3 1104 1106 335
3 1104 335 332
3 1104 332 330
3 1104 330 821
3 1104 821 1103
3 1103 821 193
3 1103 193 650
3 1103 650 1105
3 1105 650 652
3 1105 652 827
3 1105 827 825
3 1105 825 1106
3 1106 825 338
3 1106 338 335
3 827 652 194
3 197 200 196
3 196 200 828
3 828 200 1107
3 828 1107 826
3 826 1107 829
3 826 829 339
3 829 1107 341
3 341 1107 211
3 211 1107 205
3 205 1107 200
3 687 217 344
3 687 344 1109
3 687 1109 685
3 685 1109 683
3 683 1109 681
3 683 681 214
3 681 1109 679
3 679 1109 1108
3 679 1108 677
3 677 1108 213
3 213 1108 342
3 342 1108 1109
3 342 1109 344
3 353 350 860
3 860 350 1110
3 860 1110 1111
3 860 1111 220
3 220 1111 1112
3 220 1112 219
3 219 1112 843
3 219 843 345
3 843 1112 845
3 845 1112 1111
3 845 1111 847
3 847 1111 1110
3 847 1110 849
3 849 1110 347
3 347 1110 350
3 1113 1114 1115
3 1114 1117 1118
3 1115 1114 1118
3 1115 1118 1119
3 1116 1115 1119
3 1116 1119 1120
3 1117 1122 1123
3 1118 1117 1123
3 1118 1123 1124
3 1119 1118 1124
3 1119 1124 1125
3 1120 1119 1125
3 1123 1122 1126
3 1123 1126 1127
3 1124 1123 1127
3 1124 1127 705
3 1124 705 1125
3 1125 705 229
3 1125 229 1120
3 1120 229 874
3 1120 874 872
3 1120 872 1116
3 1116 872 870
3 1116 870 1115
3 1115 870 1113
3 1113 870 868
3 1113 868 356
3 1113 356 354
3 1113 354 1114
3 1114 354 864
3 1114 864 1117
3 1117 864 1121
3 1117 1121 1122
3 1122 1121 1126
3 1126 1121 697
3 1126 697 699
3 1126 699 1127
3 1127 699 223
3 1127 223 705
3 697 1121 695
3 695 1121 222
3 222 1121 864
3 1129 1128 1130
3 1129 1130 1131
3 1129 1131 882
3 1129 882 880
3 1129 880 1128
3 1128 880 878
3 1128 878 871
3 1128 871 873
3 1128 873 1130
3 1130 873 1132
3 1130 1132 987
3 1130 987 1131
3 1131 987 240
3 1131 240 882
3 882 240 244
3 244 240 241
3 987 1132 232
3 232 1132 875
3 232 875 231
3 875 1132 873
3 871 878 869
3 869 878 876
3 869 876 357
3 708 238 988
3 708 988 235
3 235 988 234
3 247 362 883
3 247 883 246
3 883 362 881
3 881 362 879
3 879 362 359
3 879 359 885
3 879 885 877
3 877 885 355
3 355 885 351
3 355 351 352
3 1133 1134 1135
3 1133 1135 368
3 1133 368 365
3 1133 365 899
3 1133 899 897
3 1133 897 1134
3 1134 897 363
3 1134 363 249
3 1134 249 1135
3 1135 249 712
3 1135 712 723
3 1135 723 253
3 1135 253 368
3 723 712 250
3 256 371 369
3 256 369 255
3 1136 1137 1138
3 1137 1139 1140
3 1138 1137 1140
3 1140 1139 1141
3 1140 1141 752
3 1140 752 754
3 1140 754 1138
3 1138 754 756
3 1138 756 1136
3 1136 756 271
3 1136 271 377
3 1136 377 374
3 1136 374 1137
3 1137 374 372
3 1137 372 1139
3 1139 372 258
3 1139 258 726
3 1139 726 1141
3 1141 726 728
3 1141 728 1142
3 1141 1142 752
3 752 1142 268
3 268 1142 265
3 265 1142 259
3 259 1142 728
3 985 297 298
3 985 298 909
3 985 909 1143
3 985 1143 1144
3 985 1144 274
3 274 1144 273
3 273 1144 378
3 378 1144 380
3 380 1144 1143
3 380 1143 383
3 383 1143 909
3 277 280 1145
3 277 1145 762
3 762 1145 986
3 762 986 276
3 986 1145 295
3 295 1145 294
3 294 1145 280
3 283 292 282
3 301 389 789
3 789 389 787
3 787 389 915
3 787 915 300
3 300 915 910
3 910 915 913
3 910 913 384
3 384 913 386
3 1146 1147 1148
3 1146 1148 1149
3 1148 1147 1151
3 1148 1151 1152
3 1148 1152 1153
3 1149 1148 1153
3 1149 1153 1154
3 1149 1154 1155
3 1147 1150 1151
3 1151 1150 1156
3 1151 1156 1157
3 1152 1151 1157
3 1152 1157 1158
3 1153 1152 1158
3 1153 1158 1159
3 1154 1153 1159
3 1154 1159 1160
3 1154 1160 1161
3 1155 1154 1161
3 1156 1162 1163
3 1157 1156 1163
3 1157 1163 1164
3 1158 1157 1164
3 1158 1164 1165
3 1159 1158 1165
3 1159 1165 1166
3 1160 1159 1166
3 1164 1163 1167
3 1164 1167 1168
3 1165 1164 1168
3 1165 1168 1169
3 1166 1165 1169
3 1166 1169 316
3 1166 316 1161
3 1166 1161 1160
3 1161 316 927
3 1161 927 925
3 1161 925 1155
3 1155 925 923
3 1155 923 1149
3 1149 923 1146
3 1146 923 921
3 1146 921 1147
3 1147 921 919
3 1147 919 1150
3 1150 919 390
3 1150 390 1156
3 1156 390 303
3 1156 303 1162
3 1162 303 793
3 1162 793 1163
3 1163 793 796
3 1163 796 1167
3 1167 796 304
3 1167 304 1168
3 1168 304 315
3 1168 315 1169
3 1169 315 316
3 307 313 306
3 1170 1172 1173
3 1170 1173 1174
3 1170 1174 1171
3 1172 1175 1176
3 1173 1172 1176
3 1173 1176 1177
3 1173 1177 1178
3 1174 1173 1178
3 1175 1179 1180
3 1176 1175 1180
3 1176 1180 933
3 1176 933 1177
3 1177 933 392
3 1177 392 1178
3 1178 392 387
3 1178 387 914
3 1178 914 1174
3 1174 914 916
3 1174 916 1171
3 1171 916 920
3 1171 920 922
3 1171 922 1170
3 1170 922 1172
3 1172 922 924
3 1172 924 1175
3 1175 924 926
3 1175 926 1179
3 1179 926 809
3 1179 809 319
3 1179 319 1180
3 1180 319 933
3 809 926 928
3 809 928 807
3 807 928 318
3 920 916 388
3 401 398 404
3 943 407 398
3 943 398 941
3 943 941 1181
3 943 1181 945
3 945 1181 947
3 947 1181 321
3 947 321 322
3 321 1181 936
3 936 1181 395
3 936 395 393
3 395 1181 941
3 398 407 404
3 1183 1182 1185
3 1183 1185 410
3 1183 410 951
3 1183 951 1184
3 1183 1184 946
3 1183 946 948
3 1183 948 1182
3 1182 948 324
3 1182 324 325
3 1182 325 1185
3 1185 325 416
3 1185 416 413
3 1185 413 410
3 946 1184 944
3 944 1184 949
3 944 949 408
3 949 1184 951
3 328 331 1186
3 328 1186 327
3 327 1186 417
3 417 1186 331
3 1187 1188 1189
3 1188 1190 1191
3 1189 1188 1191
3 1189 1191 961
3 1189 961 959
3 1189 959 957
3 1189 957 1187
3 1187 957 414
3 1187 414 415
3 1187 415 1188
3 1188 415 333
3 1188 333 1190
3 1190 333 334
3 1190 334 965
3 1190 965 1191
3 1191 965 963
3 1191 963 961
3 830 340 1197
3 830 1197 1196
3 830 1196 337
3 337 1196 966
3 337 966 336
3 966 1196 1198
3 966 1198 964
3 964 1198 844
3 964 844 846
3 964 846 962
3 962 846 848
3 962 848 960
3 960 848 1195
3 960 1195 1193
3 960 1193 958
3 958 1193 1192
3 958 1192 412
3 412 1192 411
3 411 1192 967
3 967 1192 1193
3 967 1193 969
3 969 1193 1194
3 969 1194 971
3 971 1194 850
3 971 850 419
3 419 850 346
3 850 1194 1193
3 850 1193 1195
3 850 1195 848
3 844 1198 343
3 343 1198 1197
3 343 1197 340
3 1197 1198 1196
3 887 358 1199
3 887 1199 348
3 887 348 349
3 348 1199 420
3 420 1199 973
3 973 1199 975
3 973 975 422
3 975 1199 358
3 425 402 428
3 1201 1200 1202
3 1201 1202 1203
3 1201 1203 900
3 1201 900 364
3 1201 364 428
3 1201 428 402
3 1201 402 1200
3 1200 402 403
3 1200 403 423
3 1200 423 1202
3 1202 423 976
3 1202 976 898
3 1202 898 1203
3 1203 898 900
3 898 976 360
3 898 360 361
3 367 370 1205
3 367 1205 366
3 366 1205 429
3 429 1205 1204
3 429 1204 979
3 979 1204 981
3 981 1204 1205
3 981 1205 373
3 373 1205 370
3 397 426 942
3 376 379 1207
3 376 1207 982
3 376 982 375
3 982 1207 980
3 980 1207 1206
3 980 1206 942
3 980 942 426
3 980 426 427
3 942 1206 396
3 396 1206 983
3 983 1206 1207
3 983 1207 379
3 382 385 984
3 382 984 381
3 984 385 391
3 984 391 394
3 399 400 424
3 952 409 968
3 952 968 1208
3 952 1208 950
3 950 1208 406
3 406 1208 421
3 406 421 405
3 421 1208 1209
3 421 1209 974
3 974 1209 972
3 974 972 418
3 972 1209 970
3 970 1209 1208
3 970 1208 968
