ply
format ascii 1.0
comment Generated by PyMesh
element vertex 1072
property float x
property float y
property float z
property float nx
property float ny
property float nz
element face 2140
property list uchar int vertex_indices
end_header
-42.881 14.406 -49.805 -0.717 0.073 0.693
-42.525 14.393 -48.335 -0.955 0.081 -0.287
-42.767 14.69 -47.869 -0.793 -0.117 -0.597
-42.155 13.202 -48.519 -0.77 -0.514 -0.379
-42.568 13.4 -49.96 -0.494 -0.646 0.582
-42.029 12.966 -48.518 -0.853 -0.357 -0.38
-41.922 12.835 -48.596 -0.764 -0.467 -0.445
-42.452 13.256 -50.046 -0.411 -0.748 0.521
-42.051 12.943 -50.013 -0.678 -0.539 0.499
-41.558 15.826 -50.986 -0.432 0.902 0.013
-42.035 15.692 -50.867 -0.113 0.991 -0.066
-41.446 16.377 -49.95 -0.506 0.534 -0.677
-42.035 15.801 -49.073 -0.997 0.054 0.054
-42.675 15.066 -49.914 -0.57 0.544 0.615
-42.561 15.35 -47.978 -0.647 0.355 -0.675
-41.64 16.475 -48.636 -0.667 0.616 0.418
-42.132 16.082 -47.504 -0.34 0.878 -0.337
-41.557 16.434 -48.385 -0.723 0.644 0.25
-40.79 16.619 -47.717 -0.34 0.737 0.585
-41.484 16.239 -46.94 0.123 0.99 0.067
-40.182 16.728 -46.925 -0.745 0.664 0.057
-40.149 16.554 -46.3 -0.729 0.577 0.369
-41.456 16.092 -46.412 0.143 0.885 0.443
-40.014 16.625 -46.08 -0.819 0.529 0.222
-40.015 16.55 -45.95 -0.82 0.467 0.331
-41.458 16.01 -46.27 0.142 0.826 0.545
-41.425 15.822 -45.877 0.119 0.952 0.283
-42.34 13.761 -46.215 -0.643 -0.766 0.001
-42.452 13.772 -46.637 -0.569 -0.772 0.283
-42.153 13.307 -46.877 -0.768 -0.462 0.443
-42.028 13.598 -45.975 -0.383 -0.901 0.201
-41.751 13.097 -46.569 -0.568 -0.567 0.597
-41.16 12.649 -45.599 -0.962 -0.269 -0.05
-40.319 12.014 -46.19 -0.261 -0.799 -0.542
-40.67 12.279 -47.328 -0.027 -0.976 0.217
-40.128 12.198 -46.974 -0.388 -0.922 -0.02
-39.403 12.375 -48.04 -0.025 -0.833 -0.553
-39.944 12.457 -48.395 0.336 -0.887 -0.316
-38.992 12.411 -49.501 -0.299 -0.857 0.421
-39.221 12.42 -49.698 -0.413 -0.852 0.322
-40.173 12.466 -48.592 0.222 -0.882 -0.415
-40.207 12.377 -49.985 0.244 -0.823 0.513
-40.454 12.328 -49.976 0.121 -0.847 0.518
-40.42 12.418 -48.583 0.098 -0.907 -0.411
-40.68 12.356 -48.567 0.271 -0.866 -0.421
-39.149 12.318 -49.93 -0.377 -0.903 0.207
-40.135 12.275 -50.217 0.28 -0.874 0.398
-39.431 11.861 -50.788 -0.189 -0.598 0.779
-40.048 11.62 -51.375 -0.498 -0.718 0.486
-40.752 12.034 -50.803 -0.029 -0.994 0.105
-40.58 11.855 -51.339 -0.143 -0.875 0.462
-40.831 14.633 -53.115 -0.291 0.759 -0.582
-41.022 15.022 -52.713 -0.164 0.5 -0.85
-39.774 15.917 -53.979 -0.995 -0.097 -0.006
-39.589 16.457 -53.48 -0.841 0.354 0.41
-40.783 15.717 -52.07 -0.044 0.847 -0.529
-39.428 17.194 -52.432 -0.948 -0.137 -0.288
-39.461 17.44 -51.701 -0.971 0.039 0.235
-40.822 16.009 -51.204 -0.064 0.993 -0.096
-40.572 16.49 -50.293 -0.231 0.672 -0.704
-40.933 16.442 -50.169 -0.411 0.648 -0.641
-41.183 15.96 -51.08 -0.244 0.969 -0.034
-41.155 16.482 -50.024 -0.263 0.622 -0.738
-38.656 17.906 -50.854 -0.396 0.372 0.839
-39.619 17.042 -49.291 0.246 0.948 -0.202
-39.109 17.107 -48.971 -0.094 0.905 -0.415
-39.473 17.132 -48.175 -0.354 0.923 0.154
-40.05 17.071 -48.348 0.031 0.963 0.269
-39.441 17.18 -47.556 -0.375 0.89 -0.259
-38.828 17.228 -48.28 0.107 0.991 0.079
-38.678 17.294 -47.68 0.007 0.947 -0.321
-37.355 18.073 -48.5 -0.875 0.428 0.225
-36.971 18.115 -47.898 -0.601 0.458 0.655
-38.224 17.343 -46.968 0.234 0.972 0.035
-37.588 17.329 -46.877 -0.19 0.981 -0.026
-37.776 16.873 -45.639 -0.284 0.753 0.593
-38.412 16.887 -45.731 0.14 0.744 0.654
-38.663 16.885 -45.637 0.307 0.746 0.591
-37.858 16.267 -45.162 -0.325 0.45 0.831
-38.727 16.413 -45.266 0.254 0.353 0.901
-38.494 16.281 -45.253 0.099 0.441 0.892
-39.252 15.717 -45.145 -0.281 0.158 0.947
-39.316 15.974 -45.182 -0.238 -0.013 0.971
-39.655 14.802 -44.684 -0.012 0.768 0.64
-40.084 14.852 -44.877 -0.318 0.804 0.502
-39.711 16.02 -45.359 -0.567 0.025 0.823
-41.121 15.292 -45.286 0.373 0.51 0.775
-40.712 13.713 -44.681 -0.767 -0.009 0.642
-41.699 14.244 -45.106 -0.109 -0.363 0.925
-40.831 13.295 -44.73 -0.687 0.269 0.675
-38.719 12.709 -45.297 0.657 -0.726 0.202
-38.996 12.371 -45.296 0.842 -0.501 0.202
-38.428 12.658 -45.825 0.463 -0.692 0.555
-38.424 13.204 -45.119 0.868 -0.373 0.329
-38.079 13.243 -45.615 0.637 -0.399 0.659
-37.159 13.811 -45.568 0.024 -0.778 0.628
-37 13.584 -45.941 0.104 -0.891 0.442
-37.92 13.016 -45.988 0.717 -0.513 0.473
-35.704 13.112 -45.727 -0.76 -0.577 0.299
-35.681 13.023 -45.878 -0.744 -0.641 0.191
-37.892 12.91 -46.167 0.73 -0.565 0.384
-36.011 12.971 -46.489 -0.524 -0.606 0.598
-36.071 12.722 -46.905 -0.558 -0.744 0.367
-37.955 12.649 -46.602 0.699 -0.696 0.166
-37.962 12.549 -46.85 0.703 -0.629 0.331
-38.895 12.31 -47.915 -0.074 -0.828 -0.556
-39.155 12.342 -47.971 0.099 -0.849 -0.519
-38.744 12.378 -49.432 -0.175 -0.873 0.455
-38.1 12.482 -47.764 0.588 -0.685 -0.43
-37.722 12.599 -49.238 0.336 -0.763 0.553
-35.946 12.246 -48.476 -0.848 -0.528 0.045
-35.854 12.136 -48.73 -0.783 -0.607 -0.136
-37.615 12.468 -49.538 0.39 -0.828 0.402
-37.456 12.181 -50.01 0.285 -0.637 0.717
-38.943 12.011 -50.406 -0.459 -0.722 0.518
-39.101 12.298 -49.935 -0.353 -0.913 0.204
-39.383 11.841 -50.793 -0.165 -0.608 0.776
-37.685 11.49 -51.607 0.17 -0.982 -0.082
-38.126 11.32 -51.994 0.463 -0.869 0.176
-38.047 11.122 -52.537 0.411 -0.737 0.537
-40.068 11.33 -53.227 -0.778 -0.614 0.131
-40.3 11.544 -52.737 -0.624 -0.757 -0.196
-40.814 11.784 -52.606 -0.281 -0.917 -0.283
-40.086 11.346 -53.261 -0.789 -0.604 0.111
-40.832 11.801 -52.64 -0.292 -0.907 -0.303
-40.212 11.38 -53.594 -0.705 -0.627 0.333
-40.017 12.984 -54.532 -0.542 0.71 -0.45
-40.598 13.718 -53.762 -0.154 0.221 -0.963
-39.853 13.264 -54.383 -0.652 0.524 -0.549
-39.828 13.299 -54.379 -0.637 0.544 -0.546
-40.573 13.753 -53.758 -0.14 0.241 -0.96
-40.041 13.662 -53.976 -0.495 0.302 -0.815
-39.958 13.963 -53.882 -0.453 0.453 -0.768
-40.496 14.034 -53.67 -0.094 0.406 -0.909
-39.494 15.415 -54.444 -0.762 -0.515 -0.393
-39.817 13.874 -54.003 -0.382 0.409 -0.829
-39.385 15.346 -54.538 -0.671 -0.572 -0.472
-38.896 14.522 -55.375 -0.996 -0.023 0.086
-38.598 15.311 -55.929 -0.783 0.54 -0.31
-39.11 16.072 -55.048 -0.441 0.032 -0.897
-38.579 15.688 -55.593 -0.795 0.288 -0.533
-38.225 16.286 -55.571 -0.618 0.587 -0.522
-38.834 16.537 -55.031 -0.212 0.42 -0.882
-38.497 16.596 -55.132 -0.437 0.381 -0.815
-38.651 17.279 -54.307 -0.528 0.783 -0.33
-38.963 17.109 -54.341 -0.32 0.896 -0.307
-38.543 17.685 -53.879 -0.6 0.512 -0.615
-39.102 17.417 -53.229 -0.879 0.378 -0.289
-39.398 16.9 -53.835 -0.682 0.723 0.114
-39.221 17.675 -52.818 -0.8 0.206 -0.564
-37.284 18.65 -52.45 0.029 0.995 0.1
-37.685 18.716 -52.16 0.297 0.95 -0.093
-36.514 19.002 -51.649 -0.484 0.76 -0.434
-36.84 18.681 -50.611 -0.756 0.492 0.431
-38.04 18.367 -51.032 0.044 0.701 0.712
-36.921 18.474 -50.462 -0.702 0.63 0.332
-36.927 18.461 -50.45 -0.705 0.624 0.338
-38.044 18.357 -51.022 0.04 0.693 0.719
-37.024 18.402 -49.359 -0.64 0.663 -0.389
-37.396 17.985 -49.12 -0.905 0.365 -0.218
-38.416 17.939 -50.782 -0.225 0.395 0.891
-38.87 17.139 -48.9 0.077 0.928 -0.364
-36.909 18.48 -50.447 -0.696 0.633 0.339
-37.009 18.418 -49.357 -0.629 0.674 -0.387
-36.831 18.685 -50.6 -0.748 0.496 0.441
-36.04 19.061 -50.433 -0.089 0.81 0.58
-36.15 18.827 -49.176 -0.015 0.966 -0.258
-35.892 18.964 -50.232 -0.187 0.875 0.447
-34.937 18.726 -49.953 0.29 0.756 0.587
-35.343 18.626 -48.939 0.561 0.823 -0.089
-34.083 18.48 -49.485 -0.279 0.92 0.275
-34.031 18.451 -49.354 -0.253 0.906 0.34
-35.299 18.602 -48.829 0.593 0.805 -0.01
-35.033 18.489 -48.501 0.415 0.881 -0.228
-36.145 18.051 -47.402 -0.511 0.515 0.688
-36.507 18.126 -47.635 -0.27 0.465 0.843
-37.038 17.342 -46.565 0.084 0.988 0.13
-35.004 17.291 -47.158 0.439 -0.117 0.891
-35.572 16.365 -46.252 0.817 0.5 0.287
-34.399 16.236 -47.036 0.035 0.586 0.809
-34.343 16.054 -46.928 0.075 0.456 0.887
-35.506 16.15 -46.124 0.85 0.392 0.351
-34.442 15.281 -45.881 0.141 0.972 0.189
-34.878 14.859 -45.134 -0.17 0.671 0.722
-36.021 15.651 -45.24 0.593 0.143 0.793
-36.175 15.514 -45.07 0.696 0.234 0.679
-37.565 15.214 -44.821 -0.462 -0.016 0.887
-37.808 15.265 -44.92 -0.3 -0.05 0.952
-38.972 14.432 -44.572 0.476 0.505 0.72
-39.057 14.538 -44.599 0.415 0.58 0.701
-37.908 15.39 -44.952 -0.351 0.012 0.936
-38.544 15.404 -45.043 0.073 0.002 0.997
-37.122 14.399 -45.029 -0.094 -0.695 0.713
-38.492 13.548 -44.798 0.819 -0.127 0.559
-37.239 14.218 -45.187 -0.016 -0.574 0.819
-36.826 14.345 -45.099 0.153 -0.74 0.655
-36.858 14.149 -45.277 0.175 -0.609 0.774
-35.584 13.59 -45.166 -0.674 -0.236 0.7
-33.253 15.155 -47.489 0.854 -0.186 0.486
-33.352 14.381 -46.442 0.92 0.33 -0.212
-33.379 14.506 -47.127 0.938 0.247 0.244
-33.746 12.904 -47.176 0.734 -0.644 0.216
-33.677 12.963 -46.486 0.688 -0.683 -0.244
-33.738 12.48 -47.725 0.729 -0.361 0.582
-34.581 12.048 -47.514 0.126 -0.67 0.732
-34.52 12.531 -46.276 0.086 -0.992 -0.094
-34.699 12.416 -46.939 0.205 -0.915 0.348
-35.822 12.201 -48.078 -0.76 -0.56 0.329
-36.101 12.588 -47.576 -0.574 -0.819 -0.005
-37.986 12.44 -47.397 0.683 -0.72 -0.124
-33.354 13.545 -47.762 0.952 -0.287 -0.109
-33.391 13.048 -48.243 0.976 0.045 0.211
-31.248 13.292 -49.252 -0.453 -0.118 0.884
-31.568 12.5 -50.124 -0.681 -0.684 0.261
-33.711 12.256 -49.115 0.748 -0.521 -0.411
-32.039 12.544 -50.628 -0.367 -0.713 0.597
-32.229 12.494 -50.844 -0.472 -0.741 0.477
-33.879 12.211 -49.306 0.628 -0.553 -0.548
-32.468 12.098 -51.36 -0.313 -0.478 0.821
-33.288 12.523 -51.947 -0.899 -0.175 0.402
-34.699 12.635 -49.893 0.042 -0.25 -0.967
-36.023 12.814 -51.492 0.924 -0.369 0.098
-36.233 12.503 -51.357 0.75 -0.628 0.211
-34.927 12.298 -49.747 -0.121 -0.491 -0.863
-36.358 12.373 -51.213 0.833 -0.541 0.115
-36.383 12.477 -52.132 0.624 -0.649 -0.435
-36.552 12.339 -52.209 0.737 -0.558 -0.383
-36.824 11.876 -53.248 0.918 -0.249 0.309
-37.394 11.33 -52.953 0.442 -0.704 0.555
-37.285 11.637 -51.83 0.37 -0.909 -0.193
-37.675 11.258 -52.743 0.63 -0.656 0.416
-37.607 11.988 -54.761 0.265 -0.156 -0.952
-37.929 12.045 -54.905 0.48 -0.194 -0.856
-37.361 13.203 -55.83 0.101 -0.966 -0.239
-38.17 13.457 -56.05 -0.477 -0.784 -0.397
-38.82 12.324 -55.148 -0.044 -0.029 -0.999
-39.153 12.198 -55.172 0.178 0.055 -0.982
-38.867 14.265 -55.612 -0.975 -0.207 -0.084
-39.794 12.942 -54.769 -0.356 0.675 -0.646
-39.586 13.213 -54.666 -0.495 0.494 -0.715
-38.897 14.49 -55.39 -0.996 -0.046 0.075
-39.619 13.461 -54.421 -0.514 0.64 -0.571
-39.817 13.836 -54.022 -0.383 0.39 -0.838
-37.223 12.058 -54.585 0.585 -0.097 -0.805
-36.944 13.279 -55.639 0.399 -0.911 -0.103
-36.621 13.283 -55.25 0.184 -0.914 -0.362
-36.434 13.411 -55.422 0.277 -0.85 -0.448
-36.786 13.387 -55.784 0.512 -0.834 -0.207
-35.849 13.363 -55.247 -0.113 -0.818 -0.565
-35.525 14.436 -56.035 0.049 -0.281 -0.958
-36.512 14.294 -56.45 0.707 -0.186 -0.682
-36.11 14.485 -56.21 0.439 -0.313 -0.842
-35.69 16.874 -54.808 -0.033 0.938 -0.345
-36.275 16.922 -54.983 0.357 0.906 -0.229
-35.505 17.165 -54.351 -0.156 0.744 -0.65
-35.514 17.171 -54.342 -0.161 0.747 -0.645
-36.285 16.928 -54.974 0.352 0.909 -0.224
-36.436 17.593 -54.17 0.453 0.466 -0.76
-37.193 17.666 -54.373 0.075 0.502 -0.861
-37.041 17.001 -55.177 -0.026 0.945 -0.325
-37.396 17.261 -54.766 0.211 0.772 -0.599
-35.198 17.584 -53.657 -0.003 0.953 -0.303
-36.12 18.005 -53.485 0.611 0.672 -0.418
-35.583 17.833 -53.267 0.253 0.787 -0.563
-35.583 17.834 -53.267 0.253 0.787 -0.563
-36.12 18.005 -53.485 0.611 0.672 -0.418
-35.338 18.242 -52.832 0.09 0.514 -0.853
-36.124 18.847 -52.109 -0.304 0.816 -0.491
-36.907 18.61 -52.762 0.218 0.974 -0.056
-36.221 18.971 -51.892 -0.24 0.734 -0.636
-35.582 17.833 -53.267 0.253 0.787 -0.563
-35.337 18.242 -52.832 0.09 0.514 -0.853
-35.198 17.584 -53.657 -0.003 0.953 -0.303
-34.312 17.441 -53.393 0.44 0.881 -0.171
-34.451 18.099 -52.568 0.533 0.443 -0.721
-33.884 17.998 -52.381 0.155 0.51 -0.846
-33.843 18.635 -50.94 0.185 0.965 0.184
-34.402 18.853 -50.862 0.557 0.82 0.132
-33.548 18.607 -50.394 -0.012 0.984 -0.18
-33.067 18.134 -51.602 0.739 0.608 -0.289
-32.629 18.015 -51.178 0.447 0.687 -0.572
-32.08 17.72 -51.345 0.081 0.884 -0.46
-31.591 17.453 -49.276 0.326 0.751 0.575
-32.14 17.748 -49.108 0.692 0.554 0.463
-32.306 17.839 -48.918 0.802 0.494 0.336
-33.581 18.308 -48.859 -0.261 0.885 0.385
-33.78 18.352 -49.032 -0.128 0.856 0.501
-34.838 18.412 -48.251 0.577 0.816 -0.02
-33.304 17.415 -48.133 -0.03 0.141 0.99
-34.561 17.518 -47.526 0.808 0.072 0.584
-33.918 16.482 -47.435 0.379 0.762 0.524
-33.037 17.237 -48.143 0.192 -0.008 0.981
-33.628 16.289 -47.446 0.586 0.624 0.516
-33.081 16.974 -48.113 0.221 0.167 0.961
-32.617 16.385 -48.27 0.453 -0.128 0.882
-33.236 15.791 -47.579 0.866 0.268 0.421
-32.068 16.09 -48.437 0.087 0.069 0.994
-32.027 15.923 -48.437 0.108 -0.014 0.994
-33.202 15.65 -47.579 0.891 0.168 0.422
-31.817 15.758 -48.438 -0.032 0.096 0.995
-31.811 15.207 -48.514 -0.028 -0.363 0.931
-33.196 15.052 -47.661 0.895 -0.259 0.363
-33.314 14.39 -47.321 0.974 0.182 0.136
-31.792 14.741 -48.841 -0.012 -0.752 0.659
-33.291 13.817 -47.722 0.987 -0.136 -0.087
-31.191 13.533 -49.216 -0.412 0.054 0.909
-30.661 15.492 -49.219 0.931 -0.126 0.344
-29.963 14.349 -49.627 0.465 0.636 0.616
-30.542 15.581 -49.441 0.851 -0.185 0.492
-30.264 15.794 -50.669 0.989 -0.079 -0.122
-29.729 14.528 -50.664 0.632 0.765 -0.125
-29.961 14.835 -51.239 0.788 0.56 0.258
-30.779 12.138 -51.546 0.334 -0.939 0.087
-30.452 12.141 -50.936 0.116 -0.941 -0.319
-31.184 11.784 -51.981 0.604 -0.702 0.377
-32.013 11.874 -51.431 0.012 -0.638 0.77
-31.281 12.231 -50.386 -0.476 -0.876 0.073
-31.715 12.24 -50.925 -0.187 -0.882 0.432
-31.843 14.2 -53.402 -0.258 0.207 -0.944
-32.126 13.609 -53.624 -0.069 0.601 -0.796
-33.684 14.719 -54.518 0.97 -0.139 -0.2
-33.804 14.401 -54.692 0.91 -0.298 -0.287
-32.227 13.34 -53.771 -0.141 0.409 -0.901
-33.883 14.232 -54.829 0.963 -0.185 -0.196
-34.505 13.379 -54.62 0.444 -0.896 -0.023
-32.902 12.414 -53.545 -0.624 -0.252 -0.74
-34.604 13.305 -54.424 0.51 -0.846 -0.153
-35.175 13.319 -53.128 0.224 -0.839 0.495
-33.385 12.426 -52.449 -0.969 -0.244 0.043
-36.113 12.724 -51.955 0.849 -0.443 -0.287
-33.619 12.919 -52.229 -0.799 -0.542 0.26
-35.753 13.124 -51.853 0.725 -0.688 -0.008
-35.47 13.122 -53.442 0.077 -0.938 0.338
-36.342 12.571 -52.199 0.659 -0.571 -0.491
-36.782 11.971 -53.315 0.952 -0.17 0.253
-35.936 13.228 -54.995 -0.156 -0.885 -0.438
-37.145 12.053 -54.523 0.65 -0.102 -0.753
-36.521 13.276 -55.17 0.234 -0.917 -0.322
-31.81 14.47 -53.328 -0.24 0.357 -0.903
-33.65 15.002 -54.441 0.987 0.002 -0.161
-33.465 15.293 -53.984 0.863 -0.192 -0.466
-31.632 15.153 -52.895 -0.141 0.736 -0.662
-33.278 16.008 -53.53 0.957 0.165 -0.239
-32.015 16.126 -52.404 0.114 0.087 -0.99
-32.302 16.934 -52.166 -0.029 0.491 -0.871
-33.566 16.817 -53.292 0.813 0.569 -0.12
-33.254 17.47 -52.295 0.606 0.134 -0.784
-32.291 17.148 -48.544 0.617 0.254 0.745
-31.742 16.853 -48.711 0.251 0.45 0.857
-32.423 17.372 -48.479 0.705 0.105 0.702
-42.505 14.381 -49.118 -0.968 0.089 0.235
-42.824 13.866 -49.842 -0.676 -0.313 0.667
-42.452 13.875 -49.153 -0.925 -0.319 0.207
-42.458 13.754 -48.379 -0.921 -0.239 -0.309
-42.212 13.438 -49.264 -0.731 -0.672 0.118
-42.115 13.32 -49.266 -0.796 -0.593 0.12
-42.026 13.211 -49.331 -0.694 -0.718 0.045
-42.594 13.116 -50.589 -0.512 -0.848 0.133
-42.219 12.777 -50.656 -0.762 -0.622 0.178
-42.682 13.222 -51.151 -0.575 -0.773 -0.269
-42.323 12.902 -51.322 -0.814 -0.56 -0.155
-42.698 13.554 -51.625 -0.586 -0.536 -0.607
-42.342 13.295 -51.883 -0.823 -0.364 -0.436
-42.639 14.048 -51.921 -0.544 -0.183 -0.819
-42.273 13.88 -52.233 -0.789 -0.071 -0.611
-42.517 14.61 -51.982 -0.457 0.219 -0.862
-42.128 14.546 -52.305 -0.717 0.262 -0.647
-42.355 15.134 -51.796 -0.341 0.593 -0.729
-41.936 15.166 -52.085 -0.621 0.572 -0.537
-42.183 15.519 -51.399 -0.219 0.868 -0.446
-41.733 15.621 -51.616 -0.519 0.8 -0.302
-41.691 15.912 -50.349 -0.343 0.845 -0.411
-42.5 15.502 -50.407 -0.445 0.856 0.263
-42.082 15.753 -49.962 -0.724 0.689 -0.034
-41.874 16.203 -49.526 -0.863 0.389 -0.324
-42.23 15.386 -49.547 -0.868 0.331 0.371
-42.38 14.966 -49.282 -0.767 0.611 0.194
-42.339 15.068 -48.585 -0.795 0.543 -0.271
-42.523 14.506 -49.206 -0.956 0.006 0.294
-42.482 14.608 -48.509 -0.983 -0.062 -0.171
-42.164 15.542 -48.475 -0.911 0.227 -0.344
-41.804 16.157 -48.077 -0.558 0.828 0.045
-41.783 16.171 -47.94 -0.572 0.819 -0.046
-41.125 16.331 -47.365 -0.117 0.929 0.35
-40.773 16.324 -46.944 -0.351 0.934 0.07
-40.746 16.182 -46.435 -0.331 0.825 0.458
-40.646 16.173 -46.333 -0.397 0.83 0.391
-40.648 16.111 -46.224 -0.398 0.759 0.514
-42.098 15.906 -46.223 -0.316 0.752 0.578
-42.014 15.726 -45.834 -0.372 0.872 0.319
-42.614 15.51 -46.251 -0.684 0.469 0.558
-42.489 15.362 -45.86 -0.767 0.568 0.297
-42.875 14.922 -46.348 -0.871 0.05 0.489
-42.729 14.821 -45.948 -0.968 0.117 0.223
-42.816 14.29 -46.488 -0.829 -0.402 0.389
-42.675 14.238 -46.077 -0.923 -0.368 0.115
-42.77 14.062 -47.338 -0.796 -0.565 -0.218
-42.529 13.65 -47.706 -0.956 -0.291 0.028
-41.347 12.932 -46.123 -0.837 -0.458 0.299
-41.355 12.539 -46.993 -0.369 -0.846 0.384
-41.027 12.482 -46.466 -0.588 -0.808 0.032
-40.852 12.215 -45.929 -0.705 -0.63 -0.325
-40.474 12.273 -46.736 -0.157 -0.971 -0.178
-40.31 12.258 -47.882 0.153 -0.986 -0.06
-39.769 12.177 -47.527 -0.208 -0.932 -0.297
-39.472 12.623 -48.959 0.021 -0.998 0.06
-39.676 12.632 -49.135 -0.11 -0.993 -0.053
-40.235 12.587 -49.298 0.263 -0.963 0.056
-40.458 12.544 -49.29 0.124 -0.99 0.061
-40.874 12.259 -47.551 -0.129 -0.986 0.106
-41.033 12.233 -47.765 -0.023 -0.969 0.248
-41.912 12.728 -47.513 -0.648 -0.752 0.125
-41.84 12.597 -47.735 -0.696 -0.665 0.273
-40.607 12.518 -49.282 0.223 -0.973 0.055
-41.373 12.404 -48.63 -0.307 -0.826 -0.473
-41.294 12.565 -49.344 -0.359 -0.933 0.002
-41.346 12.39 -50.057 -0.325 -0.816 0.478
-41.838 12.992 -49.31 -0.82 -0.572 0.031
-41.382 12.145 -51.074 -0.343 -0.939 -0.031
-41.165 11.958 -51.591 -0.488 -0.815 0.314
-41.881 12.467 -51.431 -0.593 -0.777 -0.21
-41.629 12.258 -51.924 -0.761 -0.638 0.118
-42.179 12.955 -51.825 -0.742 -0.533 -0.407
-41.906 12.712 -52.29 -0.923 -0.371 -0.097
-42.231 13.538 -52.198 -0.768 -0.242 -0.593
-41.955 13.254 -52.636 -0.952 -0.052 -0.301
-42.031 14.132 -52.496 -0.668 0.055 -0.742
-41.769 13.806 -52.913 -0.843 0.273 -0.464
-41.608 14.652 -52.676 -0.457 0.315 -0.832
-41.376 14.289 -53.081 -0.611 0.557 -0.562
-40.365 15.218 -52.926 -0.602 0.369 -0.708
-39.914 15.541 -53.383 -0.902 0.154 -0.403
-40.204 15.685 -52.494 -0.43 0.868 -0.247
-39.773 15.953 -53.003 -0.718 0.69 0.092
-40.113 16.017 -51.989 -0.491 0.647 -0.583
-39.622 16.553 -52.121 -0.819 0.29 -0.496
-40.14 16.217 -51.396 -0.519 0.854 0.031
-39.646 16.736 -51.576 -0.848 0.508 0.151
-41.136 16.117 -50.501 -0.276 0.865 -0.42
-41.441 16.008 -50.424 -0.51 0.781 -0.361
-41.088 16.907 -49.22 -0.208 0.976 -0.068
-40.848 16.989 -49.135 -0.368 0.921 -0.125
-39.933 16.625 -50.631 -0.657 0.583 -0.479
-39.53 16.969 -51.141 -0.925 0.353 -0.139
-40.236 16.943 -49.756 -0.062 0.898 -0.435
-39.701 16.936 -50.261 -0.419 0.903 -0.099
-39.317 17.255 -50.801 -0.675 0.69 0.262
-39.177 17.822 -51.247 -0.768 0.312 0.559
-39.276 17.004 -49.94 0.017 0.973 0.231
-38.927 17.318 -50.507 -0.215 0.764 0.608
-40.451 16.916 -48.018 -0.17 0.885 0.434
-39.842 17.024 -47.226 -0.576 0.812 -0.094
-38.118 17.338 -47.931 -0.366 0.918 -0.154
-37.651 17.613 -48.22 -0.678 0.734 0.039
-37.763 17.377 -47.373 -0.073 0.949 0.305
-37.32 17.649 -47.702 -0.368 0.768 0.524
-38.321 17.225 -46.309 0.185 0.913 0.364
-37.685 17.211 -46.218 -0.239 0.922 0.304
-39.242 17.222 -46.425 -0.276 0.911 0.306
-39.309 17.145 -46.177 -0.231 0.963 0.141
-39.465 15.324 -45.07 -0.139 0.42 0.897
-39.823 15.366 -45.23 -0.493 0.462 0.738
-40.39 15.585 -45.537 -0.114 0.316 0.942
-40.626 15.996 -45.995 -0.413 0.836 0.362
-40.606 14.983 -45.168 0.03 0.717 0.697
-41.441 14.814 -45.03 0.105 0.112 0.988
-40.906 14.536 -44.93 -0.252 0.297 0.921
-40.433 14.332 -44.599 -0.567 0.433 0.701
-41.146 14.004 -45 -0.477 -0.203 0.855
-41.194 13.778 -45.059 -0.445 -0.053 0.894
-41.475 13.227 -45.8 -0.752 -0.654 0.084
-40.327 13.069 -44.387 -0.268 0.081 0.96
-40.165 13.467 -44.309 -0.376 -0.185 0.908
-39.743 12.785 -44.383 0.219 -0.156 0.963
-39.531 13.158 -44.305 0.077 -0.405 0.911
-39.251 12.527 -44.72 0.629 -0.371 0.683
-38.996 12.878 -44.67 0.459 -0.605 0.65
-39.28 12.029 -45.692 0.605 -0.786 -0.127
-38.793 12.218 -46.333 0.28 -0.912 0.3
-39.761 11.899 -46.017 0.204 -0.894 -0.398
-39.411 12.05 -46.751 -0.029 -0.995 0.091
-37.406 13.338 -46.141 0.375 -0.727 0.575
-36.796 13.47 -46.145 -0.033 -0.816 0.578
-36.194 13.391 -45.998 -0.434 -0.762 0.48
-37.388 13.268 -46.26 0.394 -0.804 0.445
-36.782 13.417 -46.237 -0.01 -0.903 0.43
-36.178 13.33 -46.101 -0.413 -0.845 0.34
-37.329 13.161 -46.464 0.355 -0.732 0.581
-36.655 13.182 -46.579 -0.095 -0.747 0.658
-37.378 12.956 -46.804 0.314 -0.901 0.301
-36.703 12.983 -46.913 -0.136 -0.918 0.373
-38.877 12.099 -46.915 0.238 -0.971 0.009
-38.679 12.121 -47.094 0.106 -0.986 0.128
-38.94 12.566 -48.694 -0.044 -0.998 -0.037
-39.159 12.595 -48.755 -0.187 -0.979 -0.077
-38.789 12.55 -48.661 -0.144 -0.988 -0.058
-38.023 12.716 -48.516 0.537 -0.841 0.071
-37.044 12.763 -49.122 -0.116 -0.872 0.475
-36.404 12.636 -48.848 -0.542 -0.787 0.293
-36.967 12.669 -49.337 -0.041 -0.963 0.268
-36.333 12.55 -49.046 -0.464 -0.883 0.074
-38.364 12.246 -49.655 0.015 -0.939 0.344
-38.205 11.959 -50.127 -0.09 -0.747 0.658
-38.971 11.489 -51.107 0.041 -0.784 0.619
-38.531 11.659 -50.72 -0.253 -0.898 0.361
-38.537 11.309 -51.522 0.258 -0.874 0.412
-38.097 11.479 -51.135 -0.036 -0.987 0.154
-38.71 11.112 -52.029 0.171 -0.972 0.159
-38.591 10.929 -52.568 0.091 -0.85 0.519
-39.313 11.081 -52.177 -0.131 -0.988 0.084
-39.151 10.9 -52.706 -0.239 -0.867 0.437
-39.864 11.231 -52.423 -0.406 -0.913 -0.038
-39.663 11.039 -52.935 -0.54 -0.785 0.303
-40.201 11.448 -52.043 -0.575 -0.804 0.151
-40.722 11.696 -51.961 -0.227 -0.969 0.096
-40.452 11.698 -53.119 -0.545 -0.839 0.016
-41.207 12.336 -53.182 -0.512 -0.592 -0.622
-40.763 12.141 -53.568 -0.808 -0.462 -0.364
-40.527 11.828 -54.047 -0.966 -0.254 -0.045
-41.118 13.065 -53.608 -0.46 -0.164 -0.873
-40.69 12.745 -53.921 -0.746 0.05 -0.664
-40.452 12.438 -54.404 -0.904 0.255 -0.342
-40.259 13.286 -54.048 -0.381 0.509 -0.772
-40.014 14.498 -53.676 -0.415 0.097 -0.905
-39.657 14.991 -53.953 -0.653 -0.232 -0.721
-40.252 14.923 -53.283 -0.677 0.566 -0.47
-39.875 15.381 -53.592 -0.929 0.261 -0.264
-39.553 14.698 -53.998 -0.722 -0.037 -0.691
-39.451 14.634 -54.086 -0.626 -0.097 -0.774
-39.01 14.981 -54.926 -0.92 -0.329 -0.213
-38.758 15.647 -55.394 -0.676 0.316 -0.666
-39.19 17.212 -53.29 -0.821 0.514 -0.249
-39.364 16.808 -52.966 -0.99 0.12 0.068
-38.766 18.238 -52.92 -0.475 0.608 -0.636
-38.563 18.083 -53.349 -0.61 0.711 -0.35
-38.196 18.624 -52.675 -0.068 0.885 -0.462
-37.888 18.541 -53.06 -0.273 0.94 -0.205
-37.084 18.716 -51.861 -0.104 0.95 -0.293
-37.924 18.696 -51.568 0.126 0.936 0.329
-37.284 18.699 -51.365 -0.301 0.934 0.194
-36.734 18.983 -51.104 -0.668 0.744 0.02
-37.381 18.424 -50.917 -0.396 0.663 0.635
-37.43 18.319 -50.827 -0.363 0.733 0.575
-37.435 18.308 -50.817 -0.366 0.726 0.583
-37.592 18.087 -50.559 -0.261 0.874 0.411
-37.225 18.103 -49.961 -0.506 0.863 0.012
-37.852 17.794 -50.391 -0.601 0.492 0.63
-37.486 17.811 -49.793 -0.846 0.481 0.231
-38.521 17.337 -50.323 -0.155 0.796 0.584
-38.687 17.045 -49.636 -0.045 0.991 0.127
-38.671 17.317 -50.368 -0.387 0.765 0.515
-38.836 17.025 -49.681 -0.276 0.959 0.057
-38.273 17.226 -48.887 -0.321 0.87 -0.373
-37.754 17.524 -48.964 -0.667 0.672 -0.321
-38.239 17.296 -48.395 -0.286 0.946 0.155
-37.72 17.594 -48.473 -0.632 0.747 0.207
-36.81 18.458 -49.983 -0.762 0.647 0.03
-36.087 18.802 -49.83 -0.057 0.982 0.178
-34.74 18.388 -49.23 0.159 0.982 0.105
-34.697 18.364 -49.123 0.191 0.964 0.186
-35.732 18.744 -48.379 0.284 0.907 0.311
-35.431 18.62 -48.087 0.083 0.99 0.117
-36.17 18.571 -47.946 -0.029 0.784 0.621
-35.834 18.461 -47.688 -0.253 0.857 0.449
-36.753 17.584 -47.2 -0.106 0.826 0.553
-37.198 17.574 -47.452 -0.45 0.818 0.358
-36.549 17.545 -47.066 -0.242 0.852 0.463
-36.265 16.996 -46.15 0.471 0.815 0.337
-35.951 17.278 -46.745 0.261 0.628 0.734
-35.543 17.782 -47.079 -0.01 0.292 0.956
-35.414 16.79 -46.823 0.712 0.217 0.668
-35.072 16.191 -46.754 0.484 0.616 0.622
-35.018 16.016 -46.651 0.525 0.481 0.702
-35.071 15.583 -46.055 0.56 0.77 0.305
-35.491 15.176 -45.334 0.239 0.459 0.856
-37.03 16.085 -44.967 0.089 0.359 0.929
-36.96 15.851 -44.858 0.042 0.515 0.856
-38.41 14.798 -44.932 0.101 0.261 0.96
-38.49 14.898 -44.957 0.037 0.34 0.94
-38.271 14.753 -44.926 0.008 0.291 0.957
-37.911 14.091 -45.095 0.432 -0.489 0.758
-37.954 13.961 -45.145 0.461 -0.402 0.791
-37.891 13.635 -45.45 0.512 -0.66 0.549
-36.172 13.951 -45.365 -0.282 -0.477 0.832
-36.288 13.491 -45.906 -0.371 -0.829 0.418
-36.149 14.072 -45.278 -0.298 -0.558 0.775
-35.213 14.208 -44.9 -0.409 0.206 0.889
-35.851 14.568 -45.066 0.017 -0.034 0.999
-36.484 14.914 -44.855 0.439 -0.265 0.859
-35.583 15.089 -45.253 0.301 0.517 0.801
-34.411 15.549 -46.494 0.12 0.793 0.597
-33.72 14.971 -46.042 0.657 0.75 0.074
-33.775 15.275 -46.635 0.693 0.547 0.47
-33.622 15.744 -47.089 0.591 0.235 0.772
-33.45 14.756 -46.988 0.985 0.08 0.152
-33.324 13.631 -46.525 0.94 -0.207 -0.272
-33.347 13.658 -47.221 0.955 -0.225 0.192
-33.83 12.812 -47.135 0.791 -0.583 0.189
-34.569 12.434 -46.951 0.118 -0.927 0.356
-35.164 12.624 -46.073 -0.375 -0.926 0.051
-35.427 12.52 -46.71 -0.2 -0.857 0.476
-35.475 12.364 -47.129 -0.227 -0.943 0.243
-35.268 12.002 -47.682 -0.364 -0.702 0.612
-36.727 12.839 -47.493 -0.157 -0.986 -0.06
-37.402 12.786 -47.429 0.293 -0.95 -0.103
-36.706 12.933 -47.023 -0.134 -0.885 0.446
-37.383 12.871 -47.003 0.317 -0.844 0.433
-37.477 12.769 -47.611 0.343 -0.939 0.019
-36.873 12.839 -47.821 -0.059 -0.986 0.158
-36.285 12.637 -47.986 -0.451 -0.851 0.268
-37.538 12.792 -47.809 0.214 -0.891 -0.4
-36.918 12.855 -47.964 -0.2 -0.934 -0.297
-36.352 12.662 -48.201 -0.577 -0.805 -0.139
-33.103 13.128 -48.856 0.785 -0.009 0.62
-32.572 13.206 -49.277 0.431 -0.061 0.9
-31.908 13.264 -49.418 -0.012 -0.1 0.995
-33.261 12.739 -49.285 0.448 -0.843 -0.298
-32.672 12.96 -49.547 0.055 -0.991 -0.124
-32.065 12.875 -49.847 -0.349 -0.934 0.077
-33.447 12.684 -49.51 0.572 -0.807 -0.148
-33.027 12.893 -49.946 0.292 -0.946 0.142
-32.528 12.843 -50.342 -0.041 -0.913 0.407
-33.554 12.656 -49.631 0.411 -0.849 -0.331
-33.116 12.869 -50.047 0.119 -0.991 -0.054
-32.646 12.812 -50.477 -0.194 -0.953 0.233
-33.712 12.641 -49.871 0.516 -0.839 -0.172
-33.362 12.773 -50.497 0.283 -0.927 0.245
-32.912 12.577 -51.035 -0.017 -0.796 0.605
-34.016 12.798 -50.089 -0.413 -0.358 -0.837
-33.479 12.834 -50.581 -0.771 -0.382 -0.509
-33.216 12.734 -51.253 -0.947 -0.315 -0.061
-35.369 12.852 -50.177 0.489 -0.394 -0.778
-35.852 12.917 -50.76 0.81 -0.437 -0.39
-35.504 12.652 -50.09 0.264 -0.727 -0.634
-35.98 12.727 -50.677 0.581 -0.777 -0.243
-35.558 12.575 -50.03 0.3 -0.675 -0.674
-36.077 12.602 -50.563 0.646 -0.693 -0.319
-35.391 11.978 -49.277 -0.452 -0.72 -0.527
-35.9 12.338 -49.683 -0.113 -0.96 -0.256
-36.451 12.344 -50.185 0.254 -0.964 0.078
-36.907 11.994 -50.657 0.559 -0.73 0.393
-36.242 12.455 -49.28 -0.525 -0.82 0.23
-36.824 12.471 -49.744 -0.137 -0.83 0.54
-36.794 12.16 -52.724 0.898 -0.438 -0.04
-37.392 11.587 -52.415 0.441 -0.876 0.196
-37.938 10.883 -53.578 0.475 -0.877 -0.075
-37.614 11.016 -53.651 0.259 -0.965 -0.027
-38.042 11.207 -54.467 0.413 -0.686 -0.598
-37.702 11.287 -54.395 0.186 -0.74 -0.646
-37.723 12.779 -55.221 0.342 -0.683 -0.645
-38.425 13 -55.412 -0.307 -0.479 -0.822
-38.706 11.516 -54.917 0.023 -0.505 -0.863
-39.058 11.522 -54.979 0.257 -0.509 -0.822
-38.983 10.95 -54.348 -0.14 -0.837 -0.528
-39.29 11.048 -54.503 0.064 -0.903 -0.425
-39.525 10.884 -53.698 -0.459 -0.877 -0.146
-39.743 10.993 -53.959 -0.313 -0.949 0.028
-38.785 12.729 -55.218 -0.067 -0.299 -0.952
-38.435 13.177 -55.53 -0.3 -0.597 -0.744
-39.563 12.561 -55.096 -0.164 0.357 -0.919
-39.093 13.002 -55.161 -0.477 0.064 -0.876
-38.756 13.46 -55.471 -0.702 -0.242 -0.67
-38.616 13.851 -55.968 -0.796 -0.503 -0.338
-39.266 13.288 -54.915 -0.708 0.444 -0.549
-38.937 13.758 -55.215 -0.928 0.131 -0.349
-39.03 13.701 -55.032 -0.866 0.169 -0.471
-39.056 13.896 -54.839 -0.89 0.35 -0.293
-39.3 13.993 -54.342 -0.727 0.285 -0.624
-38.974 14.224 -54.827 -0.945 0.131 -0.301
-39.3 14.022 -54.328 -0.727 0.31 -0.612
-38.974 14.252 -54.813 -0.944 0.157 -0.289
-37.537 12.758 -55.123 0.218 -0.669 -0.71
-37.226 12.815 -54.98 0.587 -0.602 -0.542
-36.578 13.766 -56.19 0.66 -0.564 -0.496
-35.603 13.811 -55.727 0.01 -0.594 -0.805
-36.725 14.809 -56.632 0.555 0.181 -0.812
-36.363 15.094 -56.425 0.313 -0.009 -0.95
-37.129 15.233 -56.662 0.266 0.484 -0.833
-36.841 15.596 -56.461 0.074 0.242 -0.967
-37.643 15.484 -56.533 -0.101 0.663 -0.742
-37.449 15.892 -56.309 -0.23 0.391 -0.891
-38.167 15.511 -56.272 -0.475 0.683 -0.555
-38.069 15.925 -55.999 -0.54 0.407 -0.737
-36.038 15.078 -56.285 0.475 -0.016 -0.88
-35.453 15.03 -56.11 0.085 0.016 -0.996
-36.02 15.672 -56.183 0.485 0.281 -0.828
-35.435 15.624 -56.008 0.095 0.313 -0.945
-36.056 16.21 -55.912 0.466 0.549 -0.693
-35.471 16.161 -55.738 0.076 0.582 -0.81
-36.144 16.64 -55.499 0.423 0.765 -0.487
-35.559 16.592 -55.325 0.033 0.797 -0.603
-37.65 16.735 -55.488 -0.33 0.812 -0.481
-37.962 17.013 -55.056 -0.122 0.627 -0.77
-38.046 17.387 -54.604 -0.172 0.846 -0.504
-37.892 17.801 -54.199 -0.275 0.57 -0.774
-36.496 18.394 -53.176 0.424 0.867 -0.263
-35.713 18.631 -52.523 -0.098 0.709 -0.699
-36.562 18.681 -52.283 -0.012 0.927 -0.375
-36.87 18.714 -52.028 -0.247 0.952 -0.181
-35.64 19.249 -51.238 0.244 0.965 -0.09
-35.378 19.204 -51.267 0.07 0.995 -0.071
-34.446 18.747 -51.834 0.536 0.767 -0.354
-33.88 18.545 -51.761 0.159 0.901 -0.403
-34.658 18.863 -50.39 0.43 0.825 0.368
-33.803 18.617 -49.922 -0.14 0.989 0.056
-32.999 18.425 -50.767 0.262 0.893 -0.367
-33.379 18.481 -51.255 0.516 0.856 -0.041
-32.336 18.178 -50.505 0.594 0.769 -0.236
-31.787 17.883 -50.673 0.228 0.966 -0.124
-32.165 18.085 -49.78 0.68 0.722 0.127
-31.616 17.79 -49.947 0.314 0.919 0.239
-32.841 18.419 -49.426 0.341 0.889 0.304
-32.851 18.36 -49.165 0.348 0.929 0.13
-34.347 18.24 -48.682 0.25 0.931 0.267
-34.545 18.319 -48.937 0.09 0.994 0.062
-34.241 18.193 -48.591 0.179 0.962 0.206
-34.632 18.083 -47.769 0.749 0.542 0.381
-34.069 17.918 -48.188 0.373 0.652 0.66
-33.375 17.979 -48.377 -0.089 0.611 0.787
-34.009 17.446 -47.984 0.44 0.12 0.89
-34.324 16.941 -47.56 0.65 0.457 0.607
-34.736 16.73 -47.218 0.26 0.257 0.931
-33.64 16.872 -47.913 0.195 0.503 0.842
-33.399 16.711 -47.922 0.433 0.343 0.833
-32.759 15.902 -48.167 0.548 0.194 0.814
-32.726 15.769 -48.167 0.574 0.088 0.814
-32.633 15.666 -48.213 0.512 0.157 0.845
-32.629 15.219 -48.274 0.517 -0.371 0.771
-33.082 14.696 -47.977 0.819 -0.023 0.573
-32.534 14.994 -48.412 0.454 -0.221 0.863
-33.067 14.341 -48.226 0.838 -0.485 0.249
-32.521 14.678 -48.634 0.474 -0.71 0.521
-33.215 13.809 -48.339 0.937 -0.131 0.325
-32.899 13.767 -48.872 0.726 -0.103 0.68
-32.396 13.699 -49.23 0.39 -0.057 0.919
-31.792 13.616 -49.352 -0.012 -0.002 1
-33.243 13.69 -48.356 0.878 -0.384 0.287
-32.906 13.736 -48.877 0.653 -0.414 0.634
-32.401 13.675 -49.234 0.317 -0.374 0.872
-31.815 13.518 -49.366 -0.074 -0.269 0.96
-31.45 14.205 -49.182 -0.24 -0.395 0.887
-30.466 13.901 -49.169 0.105 0.316 0.943
-30.859 14.505 -49.144 0.367 -0.087 0.926
-31.125 15.08 -48.798 0.544 -0.469 0.695
-30.449 14.87 -49.517 0.789 0.288 0.543
-30.376 14.923 -49.638 0.74 0.254 0.623
-29.754 14.498 -50.115 0.614 0.743 0.267
-30.173 15.067 -50.111 0.893 0.363 0.265
-30.294 15.757 -50.018 0.974 -0.097 0.203
-30.148 15.097 -50.643 0.912 0.386 -0.139
-29.454 14.072 -50.976 0.829 0.439 -0.348
-29.651 14.32 -51.591 0.96 0.273 0.062
-29.4 13.494 -51.186 0.867 0.026 -0.498
-29.591 13.667 -51.829 0.994 -0.089 -0.07
-29.578 12.907 -51.253 0.74 -0.394 -0.546
-29.792 13.003 -51.904 0.882 -0.458 -0.112
-29.953 12.425 -51.164 0.472 -0.738 -0.482
-30.215 12.459 -51.803 0.647 -0.761 -0.056
-30.88 12.104 -51.463 0.401 -0.916 0.032
-31.607 12.183 -50.981 -0.259 -0.844 0.47
-30.857 12.002 -52.532 0.837 -0.546 -0.016
-30.409 12.385 -52.169 0.539 -0.802 -0.259
-30.809 12.392 -53.084 0.872 -0.268 -0.41
-30.355 12.825 -52.792 0.569 -0.557 -0.605
-31.051 12.862 -53.507 0.698 0.068 -0.713
-30.629 13.356 -53.27 0.417 -0.262 -0.87
-31.527 13.302 -53.702 0.358 0.382 -0.852
-31.167 13.853 -53.49 0.118 0.014 -0.993
-32.864 13.836 -53.638 0.423 0.45 -0.787
-33.434 14.242 -53.965 0.803 0.179 -0.569
-32.935 13.646 -53.742 0.331 0.205 -0.921
-33.512 14.035 -54.078 0.716 -0.054 -0.697
-32.805 13.489 -53.745 0.245 0.31 -0.919
-33.325 13.712 -53.938 0.591 0.161 -0.79
-33.705 13.973 -54.319 0.844 -0.013 -0.536
-33.225 12.914 -53.604 -0.409 -0.586 -0.7
-33.644 13.275 -53.831 -0.129 -0.826 -0.549
-34.095 13.439 -54.189 0.171 -0.935 -0.31
-33.411 12.994 -53.582 -0.285 -0.639 -0.715
-34.033 13.32 -53.904 0.13 -0.856 -0.5
-33.226 12.263 -53.031 -0.855 -0.36 -0.373
-33.639 12.887 -53.22 -0.579 -0.777 -0.247
-34.283 13.203 -53.508 -0.15 -0.987 -0.056
-34.987 13.126 -53.817 0.319 -0.936 0.15
-33.752 13.002 -52.81 -0.725 -0.628 0.283
-34.406 13.329 -53.058 -0.288 -0.846 0.449
-35.794 13.201 -52.57 0.637 -0.761 0.123
-36.009 13.058 -52.799 0.437 -0.895 -0.09
-36.705 12.337 -52.736 0.9 -0.414 -0.133
-36.74 12.256 -52.679 0.862 -0.502 -0.07
-36.516 12.513 -53.447 0.775 -0.532 0.341
-36.052 12.92 -53.492 0.466 -0.803 0.371
-36.816 11.882 -53.972 0.924 -0.244 -0.294
-36.545 12.437 -54.015 0.744 -0.614 -0.265
-36.085 12.835 -54.127 0.437 -0.879 -0.191
-35.513 13.008 -54.287 0.055 -0.995 -0.084
-36.83 12.584 -54.492 0.44 -0.456 -0.773
-36.403 13 -54.659 0.155 -0.733 -0.662
-36.939 12.786 -54.718 0.512 -0.591 -0.623
-37.014 12.792 -54.778 0.446 -0.586 -0.677
-35.187 13.581 -55.46 0.218 -0.709 -0.671
-34.959 13.594 -55.426 0.066 -0.717 -0.694
-34.481 14.548 -55.697 0.571 -0.225 -0.789
-34.41 14.346 -55.61 0.524 -0.09 -0.847
-33.457 14.584 -53.959 0.818 -0.049 -0.573
-33.021 14.435 -53.546 0.528 0.05 -0.848
-32.451 14.3 -53.349 0.148 0.14 -0.979
-33.433 14.785 -53.904 0.842 0.146 -0.519
-33.001 14.606 -53.499 0.554 0.266 -0.789
-32.427 14.495 -53.296 0.172 0.34 -0.925
-33.794 15.534 -54.722 0.915 0.268 -0.302
-33.609 15.825 -54.264 0.791 0.074 -0.607
-34.108 16.032 -54.912 0.758 0.517 -0.397
-33.923 16.324 -54.455 0.635 0.323 -0.702
-34.56 16.447 -54.994 0.532 0.725 -0.438
-34.375 16.739 -54.537 0.409 0.53 -0.743
-35.105 16.737 -54.958 0.259 0.87 -0.42
-34.92 17.029 -54.501 0.136 0.675 -0.725
-33.068 14.995 -53.482 0.599 0.007 -0.801
-32.473 14.698 -53.246 0.202 0.204 -0.958
-32.926 15.542 -53.134 0.722 0.476 -0.503
-32.333 15.234 -52.906 0.327 0.681 -0.655
-33.02 16.011 -52.992 0.785 0.164 -0.598
-32.575 16.052 -52.596 0.488 0.136 -0.862
-33.267 16.705 -52.787 0.614 0.644 -0.457
-32.822 16.747 -52.391 0.317 0.616 -0.721
-33.513 17.093 -52.728 0.778 0.386 -0.496
-34.141 17.618 -52.813 0.327 0.763 -0.558
-31.822 15.588 -52.546 -0.014 0.446 -0.895
-31.377 16.263 -52.201 0.433 0.155 -0.888
-31.24 15.713 -52.36 0.342 0.522 -0.781
-31.023 15.283 -52.701 0.198 0.808 -0.554
-30.822 16.248 -51.801 0.71 0.148 -0.688
-30.734 15.699 -51.996 0.651 0.514 -0.558
-30.494 15.269 -52.32 0.492 0.801 -0.343
-30.433 16.084 -51.265 0.905 0.066 -0.42
-30.378 15.549 -51.506 0.869 0.422 -0.259
-30.122 15.112 -51.807 0.698 0.713 -0.058
-30.224 15.285 -50.962 0.963 0.26 0.074
-31.085 16.317 -48.836 0.579 0.183 0.794
-31.084 16.064 -48.749 0.579 0.351 0.736
-34.258 13.431 -52.203 -0.343 -0.908 0.242
-35.061 13.508 -52.062 0.231 -0.963 0.141
-42.145 15.309 -48.991 -0.924 0.383 0
-39.464 16.414 -52.864 -0.924 0.383 0
-39.789 15.97 -52.565 -0.707 0.678 -0.199
-39.857 16.481 -51.05 -0.707 0.678 -0.199
-40.344 16.25 -50.747 -0.383 0.832 -0.401
-36.644 12.841 -48.409 -0.383 -0.924 0
-37.218 12.955 -48.409 0 -1 0
-37.694 17.514 -49.745 -0.707 0.678 0.199
-38.18 17.146 -49.446 -0.383 0.924 -0
-38.18 17.283 -50.048 -0.383 0.832 0.401
-33.312 13.402 -48.423 0.924 -0.191 0.331
-33.576 13.321 -51.344 -0.707 -0.707 0
-33.576 13.153 -50.771 -0.707 -0.595 -0.382
-33.576 13.153 -51.918 -0.707 -0.595 0.382
-34.062 13.647 -51.344 -0.383 -0.924 0
-34.062 13.509 -50.743 -0.383 -0.832 -0.401
-34.062 13.125 -50.261 -0.383 -0.576 -0.722
-34.062 13.509 -51.946 -0.383 -0.832 0.401
-34.636 13.761 -51.344 0 -1 0
-34.636 13.647 -50.77 0 -0.924 -0.383
-34.636 13.321 -50.284 0 -0.707 -0.707
-34.636 13.647 -51.918 0 -0.924 0.383
-35.21 13.647 -51.344 0.383 -0.924 0
-35.21 13.509 -50.743 0.383 -0.832 -0.401
-35.21 13.125 -50.261 0.383 -0.576 -0.722
-35.697 13.321 -51.344 0.707 -0.707 0
-31.81 14.187 -49.238 0 -0.383 0.924
-32.384 14.477 -48.935 0.383 -0.576 0.722
-34.839 13.56 -52.385 0 -1 0
-35.413 13.446 -52.385 0.383 -0.924 0
-36.415 12.776 -52.935 0.707 -0.707 0
-42.75 15.399 -50.775 -0.623 0.782 0
-42.75 14.759 -51.771 -0.623 0.325 -0.711
-42.75 15.225 -51.367 -0.623 0.658 -0.423
-43.138 14.911 -50.775 -0.901 0.434 0
-43.138 14.608 -50.249 -0.901 0.217 0.376
-43.138 14 -50.249 -0.901 -0.217 0.376
-43.138 13.697 -50.775 -0.901 -0.434 -0
-43.138 14 -51.301 -0.901 -0.217 -0.376
-43.138 14.608 -51.301 -0.901 0.217 -0.376
-43.277 14.304 -50.775 -1 0 0
-41.313 15.523 -52.18 -0.309 0.751 -0.584
-41.313 15.821 -51.63 -0.309 0.9 -0.309
-41.871 12.527 -50.393 -0.588 -0.747 0.31
-41.871 12.404 -51.012 -0.588 -0.809 0
-41.439 16.775 -49.138 -0.5 0.866 0
-42.529 15.948 -47.033 -0.623 0.782 0
-42.917 15.46 -47.033 -0.901 0.434 0
-42.917 14.246 -47.033 -0.901 -0.434 -0
-42.917 15.157 -47.559 -0.901 0.217 -0.376
-43.056 14.853 -47.033 -1 0 0
-40.729 16.945 -48.268 -0.309 0.9 0.309
-39.309 17.302 -47.038 -0.309 0.951 0
-39.031 16.672 -45.359 -0 0.568 0.823
-39.631 16.864 -45.785 -0.5 0.729 0.468
-41.568 15.362 -45.228 -0 0.568 0.823
-42.168 15.112 -45.271 -0.5 0.36 0.788
-42.168 14.532 -45.187 -0.5 -0.123 0.857
-42.607 14.38 -45.696 -0.866 -0.25 0.433
-39.406 11.975 -45.246 0.5 -0.831 0.244
-40.006 12.546 -44.417 -0 -0.355 0.935
-40.006 12.074 -44.743 -0 -0.749 0.663
-40.006 11.807 -45.252 -0 -0.971 0.239
-40.606 12.824 -44.51 -0.5 -0.123 0.857
-40.606 12.291 -44.754 -0.5 -0.567 0.654
-40.606 11.975 -45.246 -0.5 -0.831 0.244
-39.052 11.255 -51.478 -0 -0.901 0.434
-39.67 11.384 -51.441 -0.309 -0.836 0.453
-41.186 11.903 -52.431 -0.5 -0.847 -0.18
-41.186 13.798 -53.525 -0.5 0.268 -0.824
-41.638 12.295 -52.433 -0.766 -0.617 -0.181
-41.638 12.627 -52.951 -0.766 -0.421 -0.486
-41.638 13.187 -53.207 -0.766 -0.091 -0.636
-39.18 16.907 -54.534 -0.5 0.729 -0.468
-39.619 16.333 -54.492 -0.866 0.25 -0.433
-38.413 18.751 -52.029 -0.223 0.975 0
-38.413 18.616 -51.437 -0.223 0.878 0.423
-38.974 18.481 -52.029 -0.623 0.782 0
-38.974 18.307 -51.437 -0.623 0.658 0.423
-38.974 18.307 -52.621 -0.623 0.658 -0.423
-39.362 17.993 -52.029 -0.901 0.434 0
-36.441 18.839 -48.815 -0.223 0.975 0
-36.441 18.704 -48.223 -0.223 0.878 0.423
-37.002 18.569 -48.815 -0.623 0.782 0
-36.031 16.51 -45.681 0.588 0.572 0.572
-36.589 16.867 -45.657 0.309 0.751 0.584
-36.589 16.406 -45.233 0.309 0.52 0.796
-37.207 17.277 -46.235 -0 0.956 0.295
-37.207 17.018 -45.698 -0 0.826 0.563
-37.207 16.613 -45.261 -0 0.623 0.782
-39.327 14.03 -44.249 0.223 0.217 0.95
-39.327 13.422 -44.249 0.223 -0.217 0.95
-39.951 14.577 -44.513 -0.223 0.608 0.762
-39.951 14.03 -44.249 -0.223 0.217 0.95
-33.24 13.92 -46.145 1 0 0
-33.379 14.224 -45.619 0.901 0.217 0.376
-33.379 13.616 -45.619 0.901 -0.217 0.376
-33.379 13.313 -46.145 0.901 -0.434 -0
-33.767 14.841 -45.553 0.623 0.658 0.423
-33.767 14.375 -45.149 0.623 0.325 0.711
-33.767 13.764 -45.062 0.623 -0.111 0.774
-33.767 13.203 -45.318 0.623 -0.512 0.591
-33.767 12.87 -45.837 0.623 -0.75 0.22
-34.328 14.771 -45.078 0.223 0.608 0.762
-34.328 14.224 -44.814 0.223 0.217 0.95
-34.328 13.616 -44.814 0.223 -0.217 0.95
-34.328 13.069 -45.078 0.223 -0.608 0.762
-34.328 12.69 -45.553 0.223 -0.878 0.423
-34.952 13.616 -44.814 -0.223 -0.217 0.95
-34.952 13.069 -45.078 -0.223 -0.608 0.762
-34.952 12.69 -45.553 -0.223 -0.878 0.423
-33.885 11.935 -48.231 0.623 -0.75 0.22
-33.885 11.935 -48.847 0.623 -0.75 -0.22
-34.446 11.755 -47.947 0.223 -0.878 0.423
-34.446 11.62 -48.539 0.223 -0.975 0
-34.446 11.755 -49.131 0.223 -0.878 -0.423
-35.07 11.755 -47.947 -0.223 -0.878 0.423
-35.07 11.62 -48.539 -0.223 -0.975 0
-35.07 11.755 -49.131 -0.223 -0.878 -0.423
-36.849 11.836 -51.443 0.588 -0.809 0
-37.407 11.781 -50.538 0.309 -0.836 0.453
-37.407 11.578 -51.13 0.309 -0.938 0.157
-38.025 11.652 -50.575 -0 -0.901 0.434
-38.45 10.728 -53.142 0.174 -0.968 0.181
-38.45 10.728 -53.758 0.174 -0.968 -0.181
-38.45 10.951 -54.331 0.174 -0.837 -0.518
-39.04 10.728 -53.142 -0.174 -0.968 0.181
-39.04 10.728 -53.758 -0.174 -0.968 -0.181
-39.367 11.706 -55.115 -0 -0.355 -0.935
-39.967 11.135 -54.286 -0.5 -0.831 -0.244
-39.967 11.451 -54.778 -0.5 -0.567 -0.654
-39.967 11.984 -55.022 -0.5 -0.123 -0.857
-40.406 11.832 -54.513 -0.866 -0.25 -0.433
-37.19 13.704 -56.562 0.223 -0.608 -0.762
-37.19 14.251 -56.826 0.223 -0.217 -0.95
-37.19 14.859 -56.826 0.223 0.217 -0.95
-37.814 13.704 -56.562 -0.223 -0.608 -0.762
-37.814 14.251 -56.826 -0.223 -0.217 -0.95
-37.814 14.859 -56.826 -0.223 0.217 -0.95
-38.375 14.399 -56.578 -0.623 -0.111 -0.774
-38.375 15.01 -56.491 -0.623 0.325 -0.711
-36.371 16.151 -56.118 0.309 0.52 -0.796
-36.989 16.358 -56.09 -0 0.623 -0.782
-36.989 16.763 -55.653 -0 0.826 -0.563
-36.725 18.162 -53.818 0.309 0.751 -0.584
-37.343 18.313 -53.777 -0 0.826 -0.563
-37.343 18.572 -53.24 -0 0.956 -0.295
-37.961 18.162 -53.818 -0.309 0.751 -0.584
-35.933 19.29 -51.129 -0 1 0
-34.899 19.116 -51.126 0.309 0.951 0
-34.899 18.715 -52.294 0.309 0.751 -0.584
-34.899 19.013 -51.744 0.309 0.9 -0.309
-35.517 18.866 -52.253 -0 0.826 -0.563
-32.906 18.542 -50.034 0.309 0.951 0
-34.931 18.306 -47.665 0.5 0.729 0.468
-34.931 17.864 -47.282 0.5 0.36 0.788
-37.01 15.378 -44.694 -0 0.121 0.993
-29.214 13.458 -50.489 1 0 0
-29.353 14.065 -50.489 0.901 0.434 0
-29.353 13.762 -49.963 0.901 0.217 0.376
-29.353 13.154 -49.963 0.901 -0.217 0.376
-29.353 12.851 -50.489 0.901 -0.434 -0
-29.741 13.913 -49.493 0.623 0.325 0.711
-29.741 13.302 -49.406 0.623 -0.111 0.774
-29.741 12.741 -49.662 0.623 -0.512 0.591
-29.741 12.408 -50.181 0.623 -0.75 0.22
-29.741 12.408 -50.797 0.623 -0.75 -0.22
-30.302 13.154 -49.158 0.223 -0.217 0.95
-30.302 12.607 -49.422 0.223 -0.608 0.762
-30.302 12.228 -49.897 0.223 -0.878 0.423
-30.302 12.093 -50.489 0.223 -0.975 0
-30.926 12.607 -49.422 -0.223 -0.608 0.762
-30.926 12.228 -49.897 -0.223 -0.878 0.423
-31.156 11.717 -52.817 0.623 -0.75 -0.22
-31.156 12.05 -53.336 0.623 -0.512 -0.591
-31.717 11.402 -52.509 0.223 -0.975 0
-31.717 11.537 -53.101 0.223 -0.878 -0.423
-31.717 11.916 -53.576 0.223 -0.608 -0.762
-31.717 12.463 -53.84 0.223 -0.217 -0.95
-31.717 13.071 -53.84 0.223 0.217 -0.95
-32.341 11.537 -51.917 -0.223 -0.878 0.423
-32.341 11.402 -52.509 -0.223 -0.975 0
-32.341 11.537 -53.101 -0.223 -0.878 -0.423
-32.341 11.916 -53.576 -0.223 -0.608 -0.762
-32.902 11.717 -52.201 -0.623 -0.75 0.22
-32.902 11.717 -52.817 -0.623 -0.75 -0.22
-36.886 11.575 -53.619 0.866 -0.5 -0
-37.325 11.178 -53.912 0.5 -0.831 -0.244
-37.325 11.494 -54.404 0.5 -0.567 -0.654
-34.006 15.586 -55.136 0.809 0.294 -0.509
-34.448 14.998 -55.736 0.588 0 -0.809
-34.448 15.617 -55.613 0.588 0.31 -0.747
-34.448 16.142 -55.262 0.588 0.572 -0.572
-35.006 14.841 -56.014 0.309 -0.079 -0.948
-35.006 15.465 -55.962 0.309 0.233 -0.922
-35.006 16.038 -55.71 0.309 0.52 -0.796
-35.006 16.499 -55.286 0.309 0.751 -0.584
-33.574 16.266 -54.069 0.809 0.294 -0.509
-34.016 16.822 -54.195 0.588 0.572 -0.572
-34.574 17.179 -54.219 0.309 0.751 -0.584
-30.341 16.57 -50.425 0.951 0.309 0
-30.341 16.261 -49.89 0.951 0.155 0.268
-30.625 17.128 -50.425 0.809 0.588 0
-30.625 16.97 -49.837 0.809 0.509 0.294
-30.625 16.54 -49.407 0.809 0.294 0.509
-30.625 16.54 -51.443 0.809 0.294 -0.509
-30.625 16.97 -51.013 0.809 0.509 -0.294
-31.067 17.57 -50.425 0.588 0.809 0
-31.067 17.447 -49.806 0.588 0.747 0.31
-31.067 17.096 -49.281 0.588 0.572 0.572
-31.067 17.096 -51.569 0.588 0.572 -0.572
-31.067 17.447 -51.044 0.588 0.747 -0.31
-31.625 16.992 -52.017 0.309 0.52 -0.796
-31.625 17.453 -51.593 0.309 0.751 -0.584
-32.668 18.12 -48.759 0.5 0.729 0.468
-32.668 17.678 -48.376 0.5 0.36 0.788
-31.178 15.495 -48.603 0.5 -0.123 0.857
-29.688 13.52 -52.236 0.94 -0.171 -0.296
-29.688 14.136 -52.236 0.94 0.171 -0.296
-30 12.826 -52.282 0.766 -0.557 -0.321
-30 13.249 -52.705 0.766 -0.321 -0.557
-30 13.828 -52.86 0.766 -0 -0.643
-30 14.407 -52.705 0.766 0.321 -0.557
-30 14.83 -52.282 0.766 0.557 -0.321
-30.479 13.828 -53.262 0.5 0 -0.866
-30.479 14.425 -53.143 0.5 0.331 -0.8
-30.479 14.93 -52.805 0.5 0.612 -0.612
-31.066 14.714 -53.238 0.174 0.492 -0.853
-34.438 13.773 -55.378 0.5 -0.567 -0.654
3 0 351 350
3 350 351 352
3 350 352 1
3 1 352 353
3 351 4 352
3 352 4 354
3 352 354 353
3 353 354 3
3 4 7 355
3 355 7 356
3 355 356 5
3 5 356 6
3 7 357 8
3 8 357 358
3 357 359 358
3 358 359 360
3 359 361 360
3 360 361 362
3 361 363 362
3 362 363 364
3 363 365 364
3 364 365 366
3 365 367 366
3 366 367 368
3 367 369 368
3 368 369 370
3 369 10 370
3 370 10 9
3 10 372 371
3 371 372 373
3 371 373 11
3 11 373 374
3 372 13 373
3 373 13 375
3 373 375 374
3 374 375 12
3 13 0 376
3 376 0 378
3 376 378 377
3 377 378 379
3 377 379 14
3 14 379 2
3 14 16 380
3 380 16 381
3 380 381 12
3 12 381 15
3 16 19 382
3 382 19 383
3 382 383 17
3 17 383 18
3 19 22 384
3 384 22 385
3 384 385 20
3 20 385 21
3 22 25 386
3 386 25 387
3 386 387 23
3 23 387 24
3 25 388 26
3 26 388 389
3 388 390 389
3 389 390 391
3 390 392 391
3 391 392 393
3 392 394 393
3 393 394 395
3 394 28 395
3 395 28 27
3 28 396 29
3 29 396 397
3 396 2 397
3 397 2 1
3 29 31 27
3 27 31 30
3 31 399 398
3 398 399 400
3 398 400 32
3 32 400 401
3 399 34 400
3 400 34 402
3 400 402 401
3 401 402 33
3 34 403 35
3 35 403 404
3 403 37 404
3 404 37 36
3 37 40 405
3 405 40 406
3 405 406 38
3 38 406 39
3 40 43 407
3 407 43 408
3 407 408 41
3 41 408 42
3 43 409 44
3 44 409 410
3 409 411 410
3 410 411 412
3 411 3 412
3 412 3 5
3 44 414 413
3 413 414 415
3 413 415 42
3 42 415 416
3 414 6 415
3 415 6 417
3 415 417 416
3 416 417 8
3 41 46 39
3 39 46 45
3 46 49 47
3 47 49 48
3 49 418 50
3 50 418 419
3 418 420 419
3 419 420 421
3 420 422 421
3 421 422 423
3 422 424 423
3 423 424 425
3 424 426 425
3 425 426 427
3 426 428 427
3 427 428 429
3 428 52 429
3 429 52 51
3 52 55 430
3 430 55 432
3 430 432 431
3 431 432 433
3 431 433 53
3 53 433 54
3 55 58 434
3 434 58 436
3 434 436 435
3 435 436 437
3 435 437 56
3 56 437 57
3 58 61 59
3 59 61 60
3 61 9 438
3 438 9 439
3 438 439 62
3 62 439 11
3 62 440 60
3 60 440 441
3 440 15 441
3 441 15 17
3 59 444 442
3 442 444 445
3 442 445 443
3 443 445 446
3 443 446 57
3 57 446 447
3 444 64 445
3 445 64 448
3 445 448 446
3 446 448 449
3 446 449 447
3 447 449 63
3 64 67 65
3 65 67 66
3 67 450 68
3 68 450 451
3 450 18 451
3 451 18 20
3 68 70 66
3 66 70 69
3 70 73 452
3 452 73 454
3 452 454 453
3 453 454 455
3 453 455 71
3 71 455 72
3 73 456 74
3 74 456 457
3 456 76 457
3 457 76 75
3 76 458 77
3 77 458 459
3 458 21 459
3 459 21 23
3 77 79 75
3 75 79 78
3 79 82 80
3 80 82 81
3 82 85 460
3 460 85 461
3 460 461 83
3 83 461 84
3 85 24 462
3 462 24 463
3 462 463 86
3 86 463 26
3 86 465 464
3 464 465 466
3 464 466 84
3 84 466 467
3 465 88 466
3 466 88 468
3 466 468 467
3 467 468 87
3 88 30 469
3 469 30 470
3 469 470 89
3 89 470 32
3 89 471 87
3 87 471 472
3 471 473 472
3 472 473 474
3 473 475 474
3 474 475 476
3 475 91 476
3 476 91 90
3 91 477 92
3 92 477 478
3 477 479 478
3 478 479 480
3 479 33 480
3 480 33 35
3 92 94 90
3 90 94 93
3 94 97 95
3 95 97 96
3 97 100 481
3 481 100 484
3 481 484 482
3 482 484 485
3 482 485 483
3 483 485 486
3 483 486 98
3 98 486 99
3 100 103 487
3 487 103 489
3 487 489 488
3 488 489 490
3 488 490 101
3 101 490 102
3 103 491 104
3 104 491 492
3 491 106 492
3 492 106 105
3 106 36 493
3 493 36 494
3 493 494 107
3 107 494 38
3 107 109 495
3 495 109 496
3 495 496 105
3 105 496 108
3 109 112 497
3 497 112 499
3 497 499 498
3 498 499 500
3 498 500 110
3 110 500 111
3 112 501 113
3 113 501 502
3 501 115 502
3 502 115 114
3 115 45 116
3 116 45 47
3 116 503 114
3 114 503 504
3 503 505 504
3 504 505 506
3 505 118 506
3 506 118 117
3 118 507 119
3 119 507 508
3 507 509 508
3 508 509 510
3 509 511 510
3 510 511 512
3 511 121 512
3 512 121 120
3 121 513 122
3 122 513 514
3 513 48 514
3 514 48 50
3 122 124 120
3 120 124 123
3 124 516 515
3 515 516 517
3 515 517 125
3 125 517 518
3 516 519 517
3 517 519 520
3 517 520 518
3 518 520 521
3 519 127 520
3 520 127 522
3 520 522 521
3 521 522 126
3 127 130 128
3 128 130 129
3 130 133 131
3 131 133 132
3 133 51 523
3 523 51 525
3 523 525 524
3 524 525 526
3 524 526 134
3 134 526 53
3 134 136 527
3 527 136 528
3 527 528 132
3 132 528 135
3 136 139 529
3 529 139 530
3 529 530 137
3 137 530 138
3 139 142 140
3 140 142 141
3 142 145 143
3 143 145 144
3 145 148 146
3 146 148 147
3 148 54 531
3 531 54 532
3 531 532 149
3 149 532 56
3 149 533 147
3 147 533 534
3 533 535 534
3 534 535 536
3 535 151 536
3 536 151 150
3 151 538 537
3 537 538 539
3 537 539 152
3 152 539 540
3 538 154 539
3 539 154 541
3 539 541 540
3 540 541 153
3 154 157 542
3 542 157 543
3 542 543 155
3 155 543 156
3 157 160 544
3 544 160 546
3 544 546 545
3 545 546 547
3 545 547 158
3 158 547 159
3 160 63 548
3 548 63 550
3 548 550 549
3 549 550 551
3 549 551 161
3 161 551 65
3 161 69 552
3 552 69 554
3 552 554 553
3 553 554 555
3 553 555 159
3 159 555 71
3 158 163 156
3 156 163 162
3 163 166 556
3 556 166 557
3 556 557 164
3 164 557 165
3 166 169 167
3 167 169 168
3 169 172 558
3 558 172 559
3 558 559 170
3 170 559 171
3 172 560 173
3 173 560 561
3 560 562 561
3 561 562 563
3 562 175 563
3 563 175 174
3 175 72 564
3 564 72 565
3 564 565 176
3 176 565 74
3 176 567 566
3 566 567 568
3 566 568 174
3 174 568 569
3 567 178 568
3 568 178 570
3 568 570 569
3 569 570 177
3 178 181 571
3 571 181 572
3 571 572 179
3 179 572 180
3 181 184 573
3 573 184 574
3 573 574 182
3 182 574 183
3 184 575 185
3 185 575 576
3 575 187 576
3 576 187 186
3 187 190 577
3 577 190 578
3 577 578 188
3 188 578 189
3 190 78 191
3 191 78 80
3 191 81 189
3 189 81 83
3 188 193 579
3 579 193 580
3 579 580 186
3 186 580 192
3 193 93 581
3 581 93 582
3 581 582 194
3 194 582 95
3 194 196 192
3 192 196 195
3 196 96 583
3 583 96 584
3 583 584 197
3 197 584 98
3 197 586 585
3 585 586 587
3 585 587 195
3 195 587 588
3 586 183 587
3 587 183 589
3 587 589 588
3 588 589 185
3 182 591 590
3 590 591 592
3 590 592 180
3 180 592 593
3 591 199 592
3 592 199 594
3 592 594 593
3 593 594 198
3 199 595 200
3 200 595 596
3 595 202 596
3 596 202 201
3 202 205 597
3 597 205 598
3 597 598 203
3 203 598 204
3 205 599 206
3 206 599 600
3 599 99 600
3 600 99 101
3 206 601 204
3 204 601 602
3 601 208 602
3 602 208 207
3 208 102 603
3 603 102 605
3 603 605 604
3 604 605 606
3 604 606 209
3 209 606 104
3 209 108 607
3 607 108 610
3 607 610 608
3 608 610 611
3 608 611 609
3 609 611 612
3 609 612 207
3 207 612 110
3 203 211 201
3 201 211 210
3 211 214 613
3 613 214 616
3 613 616 614
3 614 616 617
3 614 617 615
3 615 617 618
3 615 618 212
3 212 618 213
3 214 217 619
3 619 217 622
3 619 622 620
3 620 622 623
3 620 623 621
3 621 623 624
3 621 624 215
3 215 624 216
3 217 220 625
3 625 220 628
3 625 628 626
3 626 628 629
3 626 629 627
3 627 629 630
3 627 630 218
3 218 630 219
3 220 223 631
3 631 223 633
3 631 633 632
3 632 633 634
3 632 634 221
3 221 634 222
3 223 637 635
3 635 637 638
3 635 638 636
3 636 638 639
3 636 639 224
3 224 639 640
3 637 111 638
3 638 111 641
3 638 641 639
3 639 641 642
3 639 642 640
3 640 642 113
3 224 226 222
3 222 226 225
3 226 229 643
3 643 229 644
3 643 644 227
3 227 644 228
3 229 117 230
3 230 117 119
3 230 645 228
3 228 645 646
3 645 647 646
3 646 647 648
3 647 232 648
3 648 232 231
3 232 235 649
3 649 235 650
3 649 650 233
3 233 650 234
3 235 651 236
3 236 651 652
3 651 653 652
3 652 653 654
3 653 655 654
3 654 655 656
3 655 123 656
3 656 123 125
3 236 659 657
3 657 659 660
3 657 660 658
3 658 660 661
3 658 661 234
3 234 661 662
3 659 238 660
3 660 238 663
3 660 663 661
3 661 663 664
3 661 664 662
3 662 664 237
3 238 126 239
3 239 126 128
3 239 241 665
3 665 241 666
3 665 666 237
3 237 666 240
3 241 129 242
3 242 129 131
3 242 135 667
3 667 135 669
3 667 669 668
3 668 669 670
3 668 670 240
3 240 670 137
3 233 244 671
3 671 244 672
3 671 672 231
3 231 672 243
3 244 247 245
3 245 247 246
3 247 673 248
3 248 673 674
3 673 250 674
3 674 250 249
3 250 675 251
3 251 675 676
3 675 677 676
3 676 677 678
3 677 679 678
3 678 679 680
3 679 681 680
3 680 681 682
3 681 138 682
3 682 138 140
3 251 683 249
3 249 683 684
3 683 685 684
3 684 685 686
3 685 687 686
3 686 687 688
3 687 689 688
3 688 689 690
3 689 253 690
3 690 253 252
3 253 256 254
3 254 256 255
3 256 259 257
3 257 259 258
3 259 691 260
3 260 691 692
3 691 141 692
3 692 141 143
3 260 693 258
3 258 693 694
3 693 144 694
3 694 144 146
3 257 262 255
3 255 262 261
3 262 265 263
3 263 265 264
3 265 695 266
3 266 695 696
3 695 268 696
3 696 268 267
3 268 150 697
3 697 150 698
3 697 698 269
3 269 698 152
3 269 699 267
3 267 699 700
3 699 165 700
3 700 165 167
3 266 271 264
3 264 271 270
3 271 274 272
3 272 274 273
3 274 701 275
3 275 701 702
3 701 277 702
3 702 277 276
3 277 703 278
3 278 703 704
3 703 168 704
3 704 168 170
3 278 705 276
3 276 705 706
3 705 280 706
3 706 280 279
3 280 707 281
3 281 707 708
3 707 709 708
3 708 709 710
3 709 283 710
3 710 283 282
3 283 711 284
3 284 711 712
3 711 286 712
3 712 286 285
3 286 171 713
3 713 171 714
3 713 714 287
3 287 714 173
3 287 716 715
3 715 716 717
3 715 717 285
3 285 717 718
3 716 289 717
3 717 289 719
3 717 719 718
3 718 719 288
3 289 177 720
3 720 177 721
3 720 721 290
3 290 721 179
3 290 292 722
3 722 292 723
3 722 723 288
3 288 723 291
3 292 295 293
3 293 295 294
3 295 298 724
3 724 298 725
3 724 725 296
3 296 725 297
3 298 301 726
3 726 301 727
3 726 727 299
3 299 727 300
3 301 198 302
3 302 198 200
3 302 304 728
3 728 304 730
3 728 730 729
3 729 730 731
3 729 731 300
3 300 731 303
3 304 210 732
3 732 210 736
3 732 736 733
3 733 736 737
3 733 737 734
3 734 737 738
3 734 738 735
3 735 738 739
3 735 739 305
3 305 739 212
3 305 741 740
3 740 741 742
3 740 742 303
3 303 742 743
3 741 307 742
3 742 307 744
3 742 744 743
3 743 744 306
3 307 746 745
3 745 746 747
3 745 747 308
3 308 747 748
3 746 310 747
3 747 310 749
3 747 749 748
3 748 749 309
3 310 750 311
3 311 750 751
3 750 752 751
3 751 752 753
3 752 754 753
3 753 754 755
3 754 756 755
3 755 756 757
3 756 313 757
3 757 313 312
3 313 316 758
3 758 316 759
3 758 759 314
3 314 759 315
3 316 213 317
3 317 213 215
3 317 216 315
3 315 216 218
3 314 760 312
3 312 760 761
3 760 762 761
3 761 762 763
3 762 764 763
3 763 764 765
3 764 766 765
3 765 766 767
3 766 319 767
3 767 319 318
3 319 322 768
3 768 322 770
3 768 770 769
3 769 770 771
3 769 771 320
3 320 771 321
3 322 325 772
3 772 325 775
3 772 775 773
3 773 775 776
3 773 776 774
3 774 776 777
3 774 777 323
3 323 777 324
3 325 780 778
3 778 780 781
3 778 781 779
3 779 781 782
3 779 782 326
3 326 782 783
3 780 328 781
3 781 328 784
3 781 784 782
3 782 784 785
3 782 785 783
3 783 785 327
3 221 329 331
3 328 219 330
3 329 333 786
3 786 333 787
3 786 787 327
3 327 787 332
3 333 225 788
3 788 225 789
3 788 789 334
3 334 789 227
3 334 792 790
3 790 792 793
3 790 793 791
3 791 793 794
3 791 794 332
3 332 794 795
3 792 336 793
3 793 336 796
3 793 796 794
3 794 796 797
3 794 797 795
3 795 797 335
3 336 243 798
3 798 243 799
3 798 799 337
3 337 799 245
3 337 246 335
3 335 246 248
3 326 800 324
3 324 800 801
3 800 802 801
3 801 802 803
3 802 321 803
3 803 321 323
3 320 339 804
3 804 339 807
3 804 807 805
3 805 807 808
3 805 808 806
3 806 808 809
3 806 809 318
3 318 809 338
3 339 810 340
3 340 810 811
3 810 812 811
3 811 812 813
3 812 814 813
3 813 814 815
3 814 816 815
3 815 816 817
3 816 252 817
3 817 252 254
3 340 342 818
3 818 342 820
3 818 820 819
3 819 820 821
3 819 821 338
3 338 821 341
3 342 345 822
3 822 345 824
3 822 824 823
3 823 824 825
3 823 825 343
3 343 825 344
3 345 273 826
3 826 273 827
3 826 827 346
3 346 827 275
3 346 279 344
3 344 279 281
3 343 829 828
3 828 829 830
3 828 830 341
3 341 830 831
3 829 832 830
3 830 832 833
3 830 833 831
3 831 833 834
3 832 835 833
3 833 835 836
3 833 836 834
3 834 836 837
3 835 309 836
3 836 309 838
3 836 838 837
3 837 838 311
3 308 839 306
3 306 839 840
3 839 297 840
3 840 297 299
3 296 348 294
3 294 348 347
3 348 282 349
3 349 282 284
3 349 291 347
3 347 291 293
3 272 261 270
3 270 261 263
3 164 153 162
3 162 153 155
3 378 0 350
3 378 350 379
3 379 350 1
3 379 1 2
3 5 3 355
3 355 3 354
3 355 354 4
3 417 6 356
3 417 356 8
3 8 356 7
3 439 9 371
3 439 371 11
3 371 9 10
3 380 12 843
3 380 843 377
3 380 377 14
3 377 843 376
3 376 843 375
3 376 375 13
3 375 843 12
3 17 15 381
3 17 381 382
3 382 381 16
3 20 18 384
3 384 18 383
3 384 383 19
3 23 21 386
3 386 21 385
3 386 385 22
3 463 24 387
3 463 387 25
3 463 25 26
3 29 27 28
3 470 30 31
3 470 31 398
3 470 398 32
3 35 33 402
3 35 402 34
3 494 36 37
3 494 37 405
3 494 405 38
3 41 39 406
3 41 406 407
3 407 406 40
3 413 42 408
3 413 408 43
3 413 43 44
3 47 45 46
3 50 48 49
3 525 51 430
3 525 430 431
3 525 431 526
3 526 431 53
3 430 51 52
3 532 54 844
3 532 844 435
3 532 435 56
3 435 844 845
3 435 845 434
3 434 845 432
3 434 432 55
3 432 845 433
3 433 845 844
3 433 844 54
3 443 57 437
3 443 437 846
3 443 846 442
3 442 846 847
3 442 847 59
3 59 847 58
3 58 847 436
3 436 847 846
3 436 846 437
3 62 60 438
3 438 60 61
3 550 63 449
3 550 449 448
3 550 448 551
3 551 448 64
3 551 64 65
3 68 66 67
3 554 69 452
3 554 452 453
3 554 453 555
3 555 453 71
3 452 69 70
3 565 72 455
3 565 455 454
3 565 454 74
3 74 454 73
3 77 75 76
3 80 78 79
3 83 81 460
3 460 81 82
3 464 84 461
3 464 461 462
3 464 462 86
3 462 461 85
3 89 87 469
3 469 87 468
3 469 468 88
3 92 90 91
3 582 93 94
3 582 94 95
3 584 96 482
3 584 482 483
3 584 483 98
3 482 96 481
3 481 96 97
3 101 99 486
3 101 486 488
3 488 486 485
3 488 485 487
3 487 485 484
3 487 484 100
3 605 102 490
3 605 490 606
3 606 490 489
3 606 489 104
3 104 489 103
3 495 105 106
3 495 106 493
3 495 493 107
3 610 108 496
3 610 496 849
3 610 849 611
3 611 849 848
3 611 848 612
3 612 848 498
3 612 498 110
3 498 848 497
3 497 848 849
3 497 849 109
3 109 849 496
3 641 111 500
3 641 500 499
3 641 499 642
3 642 499 112
3 642 112 113
3 116 114 115
3 119 117 118
3 122 120 121
3 125 123 515
3 515 123 124
3 128 126 522
3 128 522 127
3 131 129 130
3 527 132 523
3 527 523 524
3 527 524 134
3 523 132 133
3 669 135 528
3 669 528 670
3 670 528 529
3 670 529 137
3 529 528 136
3 140 138 530
3 140 530 139
3 143 141 142
3 146 144 145
3 149 147 531
3 531 147 148
3 698 150 537
3 698 537 152
3 537 150 151
3 155 153 541
3 155 541 542
3 542 541 154
3 158 156 545
3 545 156 544
3 544 156 543
3 544 543 157
3 851 850 852
3 553 159 850
3 553 850 851
3 553 851 552
3 552 851 161
3 161 851 549
3 549 851 852
3 549 852 548
3 548 852 546
3 548 546 160
3 546 852 850
3 546 850 547
3 547 850 159
3 164 162 556
3 556 162 163
3 167 165 557
3 167 557 166
3 170 168 558
3 558 168 169
3 714 171 559
3 714 559 173
3 173 559 172
3 566 174 564
3 566 564 176
3 564 174 175
3 721 177 570
3 721 570 571
3 721 571 179
3 571 570 178
3 590 180 572
3 590 572 573
3 590 573 182
3 573 572 181
3 589 183 574
3 589 574 184
3 589 184 185
3 579 186 187
3 579 187 577
3 579 577 188
3 191 189 578
3 191 578 190
3 194 192 580
3 194 580 581
3 581 580 193
3 585 195 196
3 585 196 583
3 585 583 197
3 200 198 594
3 200 594 199
3 203 201 597
3 597 201 202
3 206 204 598
3 206 598 205
3 609 207 208
3 609 208 603
3 609 603 608
3 608 603 604
3 608 604 607
3 607 604 209
3 736 210 853
3 736 853 737
3 737 853 613
3 737 613 614
3 737 614 738
3 738 614 615
3 738 615 739
3 739 615 212
3 613 853 211
3 211 853 210
3 215 213 618
3 215 618 621
3 621 618 617
3 621 617 620
3 620 617 616
3 620 616 619
3 619 616 214
3 218 216 627
3 627 216 624
3 627 624 626
3 626 624 623
3 626 623 625
3 625 623 622
3 625 622 217
3 854 855 858
3 858 855 859
3 856 854 860
3 860 854 857
3 857 854 858
3 857 858 862
3 862 858 863
3 858 859 863
3 860 857 864
3 864 857 861
3 861 857 862
3 861 862 865
3 865 862 866
3 862 863 866
3 866 863 867
3 864 861 865
3 865 866 868
3 330 219 856
3 330 856 860
3 330 860 841
3 841 860 864
3 841 864 842
3 842 864 865
3 842 865 331
3 331 865 868
3 331 868 221
3 221 868 632
3 632 868 866
3 632 866 867
3 632 867 631
3 631 867 220
3 220 867 863
3 220 863 859
3 220 859 628
3 628 859 629
3 629 859 855
3 629 855 630
3 630 855 854
3 630 854 856
3 630 856 219
3 224 222 634
3 224 634 636
3 636 634 633
3 636 633 635
3 635 633 223
3 789 225 226
3 789 226 643
3 789 643 227
3 230 228 644
3 230 644 229
3 671 231 232
3 671 232 649
3 671 649 233
3 658 234 650
3 658 650 657
3 657 650 235
3 657 235 236
3 665 237 664
3 665 664 663
3 665 663 239
3 239 663 238
3 668 240 666
3 668 666 667
3 667 666 241
3 667 241 242
3 799 243 672
3 799 672 245
3 245 672 244
3 248 246 247
3 251 249 250
3 254 252 253
3 257 255 256
3 260 258 259
3 263 261 262
3 266 264 265
3 269 267 697
3 697 267 268
3 272 270 271
3 827 273 274
3 827 274 275
3 278 276 277
3 281 279 280
3 284 282 283
3 715 285 286
3 715 286 713
3 715 713 287
3 722 288 719
3 722 719 720
3 722 720 290
3 720 719 289
3 293 291 723
3 293 723 292
3 296 294 724
3 724 294 295
3 299 297 726
3 726 297 725
3 726 725 298
3 729 300 727
3 729 727 728
3 728 727 301
3 728 301 302
3 740 303 869
3 740 869 735
3 740 735 305
3 735 869 734
3 734 869 870
3 734 870 733
3 733 870 731
3 733 731 730
3 733 730 732
3 732 730 304
3 731 870 303
3 303 870 869
3 308 306 744
3 308 744 745
3 745 744 307
3 838 309 749
3 838 749 311
3 311 749 310
3 314 312 758
3 758 312 313
3 317 315 759
3 317 759 316
3 806 318 319
3 806 319 768
3 806 768 805
3 805 768 769
3 805 769 804
3 804 769 320
3 323 321 774
3 774 321 771
3 774 771 773
3 773 771 770
3 773 770 772
3 772 770 322
3 326 324 777
3 326 777 779
3 779 777 776
3 779 776 778
3 778 776 775
3 778 775 325
3 786 327 872
3 786 872 331
3 786 331 329
3 331 872 842
3 842 872 871
3 842 871 841
3 841 871 785
3 841 785 784
3 841 784 330
3 330 784 328
3 785 871 327
3 327 871 872
3 791 332 787
3 791 787 873
3 791 873 790
3 790 873 788
3 790 788 334
3 788 873 333
3 333 873 787
3 337 335 797
3 337 797 798
3 798 797 796
3 798 796 336
3 819 338 809
3 819 809 808
3 819 808 818
3 818 808 807
3 818 807 340
3 340 807 339
3 828 341 821
3 828 821 823
3 828 823 343
3 823 821 820
3 823 820 822
3 822 820 342
3 346 344 825
3 346 825 826
3 826 825 824
3 826 824 345
3 349 347 348
3 876 875 882
3 877 876 882
3 874 876 877
3 878 877 883
3 879 878 883
3 880 879 883
3 881 880 883
3 882 881 883
3 877 882 883
3 882 875 363
3 882 363 881
3 881 363 361
3 881 361 359
3 881 359 880
3 880 359 357
3 880 357 4
3 880 4 879
3 879 4 351
3 879 351 0
3 879 0 878
3 878 0 13
3 878 13 877
3 877 13 874
3 874 13 372
3 874 372 10
3 874 10 369
3 874 369 876
3 876 369 367
3 876 367 875
3 875 367 365
3 875 365 363
3 4 357 7
3 409 43 403
3 409 403 34
3 409 34 399
3 409 399 411
3 411 399 31
3 411 31 29
3 411 29 397
3 411 397 3
3 3 397 353
3 353 397 1
3 403 43 37
3 37 43 40
3 414 44 410
3 414 410 412
3 414 412 6
3 6 412 5
3 9 61 885
3 9 885 370
3 370 885 884
3 370 884 368
3 368 884 428
3 368 428 366
3 366 428 426
3 366 426 364
3 364 426 424
3 364 424 362
3 362 424 422
3 362 422 360
3 360 422 420
3 360 420 887
3 360 887 358
3 358 887 886
3 358 886 8
3 8 886 416
3 416 886 418
3 416 418 49
3 416 49 42
3 42 49 46
3 42 46 41
3 418 886 887
3 418 887 420
3 428 884 52
3 52 884 55
3 55 884 885
3 55 885 58
3 58 885 61
3 12 15 374
3 374 15 888
3 374 888 11
3 11 888 440
3 11 440 62
3 440 888 15
3 890 892 893
3 893 892 2
3 893 2 891
3 893 891 394
3 893 394 392
3 893 392 890
3 890 392 390
3 890 390 889
3 890 889 892
3 892 889 14
3 892 14 2
3 14 889 16
3 16 889 19
3 19 889 388
3 19 388 22
3 22 388 25
3 388 889 390
3 394 891 28
3 28 891 396
3 396 891 2
3 450 67 894
3 450 894 18
3 18 894 17
3 17 894 441
3 441 894 67
3 441 67 64
3 441 64 444
3 441 444 60
3 60 444 59
3 458 76 456
3 458 456 73
3 458 73 895
3 458 895 451
3 458 451 20
3 458 20 21
3 451 895 68
3 68 895 70
3 70 895 73
3 24 85 897
3 24 897 23
3 23 897 459
3 459 897 896
3 459 896 77
3 77 896 79
3 79 896 82
3 82 896 85
3 85 896 897
3 27 30 901
3 27 901 395
3 395 901 393
3 393 901 899
3 393 899 391
3 391 899 389
3 389 899 898
3 389 898 26
3 26 898 86
3 86 898 465
3 465 898 899
3 465 899 900
3 465 900 88
3 88 900 30
3 30 900 901
3 901 900 899
3 902 904 905
3 903 906 907
3 904 903 907
3 904 907 908
3 905 904 908
3 905 908 33
3 905 33 479
3 905 479 902
3 902 479 477
3 902 477 91
3 902 91 475
3 902 475 904
3 904 475 903
3 903 475 473
3 903 473 471
3 903 471 906
3 906 471 89
3 906 89 32
3 906 32 907
3 907 32 908
3 908 32 401
3 908 401 33
3 36 106 404
3 404 106 491
3 404 491 480
3 404 480 35
3 480 491 478
3 478 491 103
3 478 103 92
3 92 103 100
3 92 100 97
3 92 97 94
3 39 45 115
3 39 115 38
3 38 115 107
3 107 115 501
3 107 501 109
3 109 501 112
3 513 121 511
3 513 511 910
3 513 910 48
3 48 910 47
3 47 910 116
3 116 910 503
3 503 910 909
3 503 909 505
3 505 909 507
3 505 507 118
3 507 909 509
3 509 909 910
3 509 910 511
3 51 133 912
3 51 912 429
3 429 912 427
3 427 912 915
3 427 915 425
3 425 915 914
3 425 914 423
3 423 914 913
3 423 913 421
3 421 913 911
3 421 911 419
3 419 911 514
3 419 514 50
3 514 911 122
3 122 911 124
3 124 911 516
3 516 911 913
3 516 913 914
3 516 914 519
3 519 914 915
3 519 915 912
3 519 912 127
3 127 912 130
3 130 912 133
3 54 148 917
3 54 917 53
3 53 917 134
3 134 917 139
3 134 139 136
3 139 917 142
3 142 917 916
3 142 916 145
3 145 916 148
3 148 916 917
3 157 154 160
3 919 918 920
3 919 920 921
3 921 920 923
3 920 922 923
3 923 922 149
3 923 149 56
3 923 56 57
3 923 57 447
3 923 447 921
3 921 447 63
3 921 63 919
3 919 63 154
3 919 154 538
3 919 538 918
3 918 538 151
3 918 151 535
3 918 535 922
3 918 922 920
3 922 535 533
3 922 533 149
3 154 63 160
3 66 69 65
3 65 69 161
3 163 158 166
3 925 924 926
3 925 926 72
3 925 72 175
3 925 175 562
3 925 562 560
3 925 560 924
3 924 560 166
3 924 166 158
3 924 158 926
3 926 158 159
3 926 159 71
3 926 71 72
3 166 560 169
3 169 560 172
3 927 928 929
3 928 931 932
3 929 928 932
3 929 932 575
3 929 575 184
3 929 184 927
3 927 184 181
3 927 181 178
3 927 178 567
3 927 567 928
3 928 567 930
3 928 930 931
3 931 930 457
3 931 457 75
3 931 75 932
3 932 75 78
3 932 78 575
3 575 78 190
3 575 190 187
3 457 930 74
3 74 930 176
3 176 930 567
3 81 191 80
3 467 87 936
3 467 936 935
3 467 935 84
3 84 935 83
3 83 935 933
3 83 933 189
3 189 933 188
3 188 933 193
3 193 933 934
3 193 934 476
3 193 476 93
3 93 476 90
3 476 934 474
3 474 934 472
3 472 934 936
3 472 936 87
3 936 934 933
3 936 933 935
3 96 196 95
3 95 196 194
3 937 938 939
3 937 939 940
3 938 941 942
3 938 942 943
3 939 938 943
3 939 943 944
3 939 944 945
3 940 939 945
3 942 941 946
3 942 946 947
3 943 942 947
3 943 947 948
3 944 943 948
3 944 948 949
3 944 949 950
3 945 944 950
3 948 947 951
3 948 951 952
3 949 948 952
3 949 952 953
3 950 949 953
3 950 953 205
3 950 205 945
3 945 205 202
3 945 202 940
3 940 202 595
3 940 595 937
3 937 595 199
3 937 199 938
3 938 199 591
3 938 591 941
3 941 591 182
3 941 182 946
3 946 182 183
3 946 183 947
3 947 183 586
3 947 586 951
3 951 586 197
3 951 197 952
3 952 197 98
3 952 98 953
3 953 98 99
3 953 99 599
3 953 599 205
3 102 208 601
3 102 601 600
3 102 600 101
3 600 601 206
3 105 108 492
3 492 108 209
3 492 209 104
3 954 956 957
3 955 954 957
3 955 957 958
3 956 959 960
3 957 956 960
3 957 960 961
3 958 957 961
3 958 961 223
3 958 223 217
3 958 217 955
3 955 217 214
3 955 214 954
3 954 214 211
3 954 211 203
3 954 203 956
3 956 203 204
3 956 204 959
3 959 204 602
3 959 602 207
3 959 207 960
3 960 207 111
3 960 111 637
3 960 637 961
3 961 637 223
3 111 207 110
3 217 223 220
3 964 963 965
3 964 965 506
3 964 506 117
3 964 117 229
3 964 229 962
3 964 962 640
3 964 640 963
3 963 640 113
3 963 113 502
3 963 502 965
3 965 502 504
3 965 504 506
3 504 502 114
3 640 962 224
3 224 962 226
3 226 962 229
3 966 969 970
3 967 966 970
3 967 970 653
3 967 653 968
3 967 968 645
3 967 645 966
3 966 645 230
3 966 230 119
3 966 119 508
3 966 508 969
3 969 508 510
3 969 510 512
3 969 512 655
3 969 655 970
3 970 655 653
3 655 512 120
3 655 120 123
3 645 968 647
3 647 968 651
3 647 651 232
3 232 651 235
3 651 968 653
3 971 973 974
3 973 972 975
3 974 973 975
3 974 975 521
3 974 521 238
3 974 238 659
3 974 659 236
3 974 236 971
3 971 236 652
3 971 652 654
3 971 654 973
3 973 654 972
3 972 654 656
3 972 656 125
3 972 125 518
3 972 518 975
3 975 518 521
3 238 521 126
3 129 241 239
3 129 239 128
3 132 135 242
3 132 242 131
3 976 979 980
3 977 976 980
3 977 980 981
3 978 977 981
3 981 980 982
3 981 982 983
3 981 983 679
3 981 679 677
3 981 677 978
3 978 677 675
3 978 675 977
3 977 675 250
3 977 250 976
3 976 250 673
3 976 673 247
3 976 247 233
3 976 233 979
3 979 233 234
3 979 234 662
3 979 662 982
3 979 982 980
3 982 662 237
3 982 237 983
3 983 237 138
3 983 138 681
3 983 681 679
3 138 237 137
3 137 237 240
3 233 247 244
3 256 253 259
3 691 259 986
3 691 986 985
3 691 985 680
3 691 680 682
3 691 682 141
3 141 682 140
3 680 985 678
3 678 985 984
3 678 984 685
3 678 685 676
3 676 685 683
3 676 683 251
3 685 984 687
3 687 984 689
3 689 984 986
3 689 986 253
3 253 986 259
3 986 984 985
3 693 260 692
3 693 692 144
3 144 692 143
3 265 262 695
3 536 150 989
3 536 989 990
3 536 990 534
3 534 990 146
3 534 146 147
3 146 990 694
3 694 990 988
3 694 988 258
3 258 988 987
3 258 987 257
3 257 987 262
3 262 987 695
3 695 987 989
3 695 989 268
3 268 989 150
3 989 987 988
3 989 988 990
3 153 164 540
3 164 165 540
3 540 165 991
3 540 991 152
3 152 991 269
3 269 991 699
3 699 991 165
3 156 162 155
3 271 266 274
3 994 993 995
3 994 995 700
3 994 700 992
3 994 992 701
3 994 701 993
3 993 701 274
3 993 274 266
3 993 266 696
3 993 696 995
3 995 696 267
3 995 267 700
3 701 992 277
3 277 992 703
3 703 992 167
3 703 167 168
3 167 992 700
3 171 286 704
3 171 704 170
3 704 286 711
3 704 711 996
3 704 996 278
3 278 996 705
3 705 996 707
3 705 707 280
3 707 996 709
3 709 996 711
3 709 711 283
3 569 177 998
3 569 998 997
3 569 997 563
3 569 563 174
3 563 997 561
3 561 997 287
3 561 287 173
3 287 997 716
3 716 997 998
3 716 998 289
3 289 998 177
3 593 198 298
3 593 298 295
3 593 295 292
3 593 292 180
3 180 292 290
3 180 290 179
3 298 198 301
3 186 192 999
3 186 999 576
3 576 999 185
3 185 999 588
3 588 999 192
3 588 192 195
3 201 210 596
3 596 210 304
3 596 304 302
3 596 302 200
3 1000 1001 1002
3 1000 1002 1003
3 1000 1003 1004
3 1002 1005 1006
3 1003 1002 1006
3 1003 1006 1007
3 1003 1007 1008
3 1004 1003 1008
3 1004 1008 1009
3 1007 1006 1010
3 1007 1010 1011
3 1007 1011 1012
3 1008 1007 1012
3 1008 1012 1013
3 1009 1008 1013
3 1011 1010 1014
3 1011 1014 1015
3 1012 1011 1015
3 1012 1015 1013
3 1013 1015 316
3 1013 316 313
3 1013 313 1009
3 1009 313 756
3 1009 756 754
3 1009 754 1004
3 1004 754 752
3 1004 752 1000
3 1000 752 750
3 1000 750 1001
3 1001 750 310
3 1001 310 746
3 1001 746 1002
3 1002 746 1005
3 1005 746 307
3 1005 307 741
3 1005 741 1006
3 1006 741 1010
3 1010 741 305
3 1010 305 212
3 1010 212 1014
3 1014 212 213
3 1014 213 1015
3 1015 213 316
3 216 317 215
3 1016 1018 1019
3 1017 1016 1019
3 1017 1019 1020
3 1017 1020 1021
3 1018 1024 1025
3 1019 1018 1025
3 1019 1025 1026
3 1020 1019 1026
3 1024 1023 1027
3 1024 1027 1028
3 1025 1024 1028
3 1025 1028 1026
3 1026 1028 325
3 1026 325 1021
3 1026 1021 1020
3 1021 325 322
3 1021 322 1022
3 1021 1022 764
3 1021 764 1017
3 1017 764 762
3 1017 762 1016
3 1016 762 760
3 1016 760 314
3 1016 314 1018
3 1018 314 1023
3 1018 1023 1024
3 1023 314 315
3 1023 315 218
3 1023 218 1027
3 1027 218 219
3 1027 219 328
3 1027 328 1028
3 1028 328 780
3 1028 780 325
3 764 1022 766
3 766 1022 322
3 766 322 319
3 222 225 329
3 222 329 221
3 329 225 333
3 648 231 1031
3 648 1031 1030
3 648 1030 646
3 646 1030 228
3 228 1030 1029
3 228 1029 227
3 227 1029 334
3 334 1029 792
3 792 1029 1030
3 792 1030 1031
3 792 1031 336
3 336 1031 243
3 243 1031 231
3 246 337 245
3 1032 1034 1035
3 1033 1036 1037
3 1034 1033 1037
3 1034 1037 1038
3 1035 1034 1038
3 1035 1038 1039
3 1035 1039 814
3 1035 814 812
3 1035 812 1032
3 1032 812 810
3 1032 810 320
3 1032 320 321
3 1032 321 1033
3 1032 1033 1034
3 1033 321 802
3 1033 802 1036
3 1036 802 249
3 1036 249 684
3 1036 684 1037
3 1037 684 686
3 1037 686 1038
3 1038 686 688
3 1038 688 1039
3 1039 688 690
3 1039 690 816
3 1039 816 814
3 816 690 252
3 249 802 800
3 249 800 674
3 674 800 248
3 248 800 335
3 335 800 795
3 795 800 326
3 795 326 783
3 795 783 332
3 332 783 327
3 320 810 339
3 254 255 817
3 261 272 255
3 255 272 817
3 817 272 1042
3 817 1042 815
3 815 1042 1041
3 815 1041 813
3 813 1041 1040
3 813 1040 811
3 811 1040 342
3 811 342 340
3 342 1040 345
3 345 1040 1041
3 345 1041 273
3 273 1041 1042
3 273 1042 272
3 263 264 270
3 706 279 702
3 706 702 276
3 702 279 275
3 275 279 346
3 1044 1043 1046
3 1044 1046 1047
3 1043 1049 1045
3 1043 1045 1046
3 1046 1045 1051
3 1046 1051 1052
3 1047 1046 1052
3 1049 1048 1053
3 1049 1053 1054
3 1045 1049 1054
3 1045 1054 1050
3 1045 1050 1051
3 1053 1055 1056
3 1054 1053 1056
3 1054 1056 708
3 1054 708 1050
3 1050 708 710
3 1050 710 1051
3 1051 710 282
3 1051 282 1052
3 1052 282 348
3 1052 348 839
3 1052 839 1047
3 1047 839 308
3 1047 308 1044
3 1044 308 748
3 1044 748 309
3 1044 309 1043
3 1043 309 835
3 1043 835 1049
3 1049 835 1048
3 1048 835 832
3 1048 832 1053
3 1053 832 829
3 1053 829 1055
3 1055 829 343
3 1055 343 344
3 1055 344 1056
3 1056 344 281
3 1056 281 708
3 839 348 296
3 839 296 297
3 718 288 1058
3 718 1058 1057
3 718 1057 285
3 285 1057 712
3 712 1057 284
3 284 1057 1058
3 284 1058 349
3 349 1058 291
3 291 1058 288
3 294 347 293
3 300 303 743
3 300 743 1059
3 300 1059 299
3 299 1059 840
3 840 1059 306
3 306 1059 743
3 1060 1062 1063
3 1060 1063 1064
3 1061 1060 1064
3 1061 1064 1065
3 1061 1065 1066
3 1064 1067 1068
3 1065 1064 1068
3 1065 1068 1069
3 1066 1065 1069
3 1069 1068 1070
3 1069 1070 831
3 1069 831 834
3 1069 834 1066
3 1066 834 837
3 1066 837 751
3 1066 751 1061
3 1061 751 753
3 1061 753 1060
3 1060 753 755
3 1060 755 1062
3 1062 755 757
3 1062 757 761
3 1062 761 763
3 1062 763 1063
3 1063 763 765
3 1063 765 1064
3 1064 765 1067
3 1067 765 767
3 1067 767 1068
3 1068 767 1070
3 1070 767 338
3 1070 338 341
3 1070 341 831
3 338 767 318
3 761 757 312
3 751 837 311
3 803 323 1071
3 803 1071 801
3 801 1071 324
3 324 1071 323
