ply
format ascii 1.0
comment Generated by PyMesh
element vertex 727
property float x
property float y
property float z
property float nx
property float ny
property float nz
element face 1450
property list uchar int vertex_indices
end_header
21.598 -0.903 72.412 -0.784 -0.03 0.619
21.729 -1.234 72.666 -0.872 0.191 0.451
21.844 -0.564 73.619 -0.949 -0.256 -0.185
22.798 -1.7 70.658 -0.109 -0.142 -0.984
22.581 -1.332 70.564 0.035 -0.388 -0.921
23.363 -1.594 70.454 -0.486 -0.213 -0.848
23.541 0.184 70.908 -0.397 0.676 -0.62
22.719 0.051 70.917 0.15 0.765 -0.626
23.638 0.741 71.227 -0.462 0.305 -0.833
22.712 0.854 72.667 -0.926 0.362 -0.112
21.999 0.139 72.038 -0.45 0.838 0.307
22.246 0.478 73.244 -0.615 0.613 -0.497
22.714 0.86 72.672 -0.925 0.364 -0.11
22.247 0.482 73.248 -0.614 0.616 -0.494
22.502 0.837 73.244 -0.784 0.379 -0.491
23.581 -0.625 74.977 -0.013 -0.665 0.747
23.24 -0.864 74.844 0.214 -0.506 0.836
24.217 -1.86 74.769 -0.437 0.158 0.885
24.081 -1.985 74.714 -0.506 0.095 0.857
23.134 -0.962 74.801 0.126 -0.587 0.8
23.981 -2.234 74.711 -0.439 0.261 0.86
23.365 -2.597 74.041 -0.953 -0.041 0.301
22.518 -1.324 74.131 -0.388 -0.89 0.241
22.46 -2.06 73.222 -0.35 -0.399 0.848
23.38 -2.933 73.813 -0.94 -0.322 0.111
22.477 -2.425 72.974 -0.338 -0.66 0.671
23.308 -2.884 73.56 -0.892 -0.354 0.28
23.457 -3.325 72.92 -0.818 -0.574 -0.04
22.603 -2.797 72.433 -0.248 -0.926 0.284
23.664 -3.843 72.582 -0.956 -0.229 0.185
23.644 -3.906 72.196 -0.965 -0.261 -0.007
22.586 -2.851 72.107 -0.26 -0.964 0.052
23.654 -4.029 71.958 -0.972 -0.179 0.151
23.986 -3.646 70.932 -0.696 0.14 -0.704
22.946 -2.435 70.992 -0.003 -0.667 -0.745
23.539 -2.464 70.85 -0.398 -0.648 -0.65
24.047 -3.627 70.879 -0.645 0.156 -0.748
23.618 -2.44 70.782 -0.359 -0.636 -0.684
24.149 -3.39 70.808 -0.713 -0.003 -0.701
24.989 -2.933 70.353 -0.293 0.226 -0.929
24.458 -1.983 70.326 0.061 -0.407 -0.911
24.599 -1.783 70.22 -0.033 -0.541 -0.841
24.878 -0.334 70.368 0.2 0.667 -0.718
24.817 -0.12 70.516 0.241 0.525 -0.817
26.243 0.414 70.316 -0.71 0.168 -0.684
26.179 0.643 70.469 -0.742 0.282 -0.608
24.752 0.109 70.668 0.209 0.639 -0.741
24.85 0.666 70.986 0.143 0.267 -0.953
26.218 0.883 70.56 -0.722 0.403 -0.562
24.89 0.906 71.077 0.163 0.387 -0.907
25.968 1.695 70.946 -0.556 -0.139 -0.82
25.915 1.772 70.972 -0.582 -0.1 -0.807
24.836 0.983 71.103 0.137 0.426 -0.894
24.737 1.221 71.175 0.203 0.267 -0.942
24.077 2.026 72.308 -0.346 0.938 0.002
23.989 2.018 72.56 -0.287 0.943 -0.166
24.976 3.246 72.762 -0.946 0.124 -0.301
24.969 3.116 73.798 -0.95 0.047 0.309
23.981 1.877 73.674 -0.291 0.873 0.391
23.573 1.697 74.091 -0.019 0.993 0.113
25.546 2.671 74.569 -0.61 -0.214 0.763
24.098 1.292 74.792 0.355 0.705 0.614
25.189 1.322 74.773 -0.372 0.685 0.627
25.191 1.033 75.03 -0.371 0.54 0.755
24.099 1.048 75.009 0.356 0.53 0.769
25.399 0.992 75.194 -0.51 0.568 0.646
25.355 0.445 75.415 -0.546 0.113 0.83
24.052 0.455 75.249 0.323 0.106 0.941
25.135 0.331 75.314 -0.4 0.189 0.897
24.928 -0.773 75.089 -0.503 -0.363 0.784
23.877 -0.478 75.059 0.198 -0.56 0.805
24.567 -1.685 74.866 -0.262 0.245 0.933
25.947 -1.193 75.159 0.007 -0.573 0.819
25.586 -2.106 74.936 0.247 0.035 0.968
26.078 -1.744 74.925 -0.08 -0.206 0.975
26.858 -2.442 74.294 0.477 -0.705 0.525
26.511 -2.932 74.189 0.709 -0.378 0.595
26.718 -3.45 73.851 0.571 -0.033 0.82
24.731 -4.223 73.819 -0.422 -0.419 0.804
24.524 -3.705 74.157 -0.284 -0.764 0.579
24.326 -3.571 74.277 -0.152 -0.853 0.499
24.084 -4.146 73.305 -0.746 -0.381 0.547
23.822 -3.512 73.877 -0.572 -0.804 0.165
23.877 -3.628 73.642 -0.608 -0.726 0.322
27.145 -2.358 74.043 0.682 -0.645 0.345
27.057 -3.35 73.554 0.741 0.017 0.671
28.447 -3.677 73.13 -0.186 0.235 0.954
28.358 -4.133 73.144 -0.249 -0.091 0.964
26.952 -3.891 73.571 0.688 -0.253 0.68
26.861 -4.14 73.605 0.749 -0.087 0.657
26.065 -5.224 72.949 0.086 -0.99 0.11
25.928 -5.285 72.726 0.177 -0.95 0.258
26.572 -6.027 71.832 -0.252 -0.455 0.854
25.579 -5.773 70.657 -0.962 -0.274 0.014
24.753 -4.984 71.335 -0.411 -0.8 -0.438
24.517 -4.867 71.289 -0.254 -0.878 -0.407
25.629 -5.311 70.112 -0.925 0.056 -0.375
24.563 -4.442 70.787 -0.215 -0.523 -0.825
24.813 -4.437 70.691 -0.381 -0.526 -0.76
25.951 -4.843 69.793 -0.696 0.39 -0.603
25.194 -3.883 70.312 -0.191 -0.249 -0.949
26.151 -4.169 69.723 -0.829 -0.059 -0.557
26.253 -3.684 69.645 -0.772 0.21 -0.6
25.301 -3.376 70.23 -0.137 0.004 -0.991
25.842 -3.182 70.031 -0.498 -0.125 -0.858
25.749 -2.75 70.106 -0.564 0.184 -0.805
25.191 -2.864 70.319 -0.192 0.26 -0.946
24.756 -1.729 70.194 0.098 -0.496 -0.863
26.294 -2.197 70.119 -0.175 0.579 -0.796
25.258 -1.22 70.205 0.516 -0.072 -0.854
26.731 -0.725 70.107 -0.466 -0.402 -0.788
26.349 -2.213 70.096 -0.136 0.568 -0.812
26.795 -0.745 70.081 -0.434 -0.411 -0.802
27.128 -2.463 69.142 -0.656 0.734 -0.176
28.222 -2.191 68.901 0.126 0.929 -0.348
28.091 -0.422 69.795 0.214 -0.25 -0.944
28.404 0.049 69.617 0.005 -0.564 -0.826
27.19 1.157 69.831 -0.709 0.087 -0.7
26.785 0.769 70.025 -0.439 0.346 -0.829
26.964 1.683 69.961 -0.558 -0.264 -0.787
26.434 1.822 70.467 -0.823 -0.194 -0.534
26.255 0.908 70.531 -0.704 0.415 -0.576
26.005 1.72 70.918 -0.537 -0.126 -0.834
26.423 2.976 70.718 -0.829 0.383 -0.408
25.994 2.874 71.169 -0.543 0.451 -0.709
25.959 3.867 71.348 -0.519 -0.211 -0.828
25.39 3.738 71.95 -0.804 -0.275 -0.527
25.424 2.745 71.771 -0.827 0.387 -0.407
24.355 1.978 71.796 -0.115 0.898 -0.424
25.304 3.777 72.072 -0.847 -0.256 -0.466
24.289 2.008 71.891 -0.17 0.923 -0.345
25.229 3.225 72.264 -0.797 0.112 -0.594
28.045 3.381 74.446 0.523 -0.454 0.721
27.777 2.857 74.471 0.702 -0.105 0.705
28.079 2.388 74.267 0.5 0.208 0.841
27.367 1.865 74.562 0.144 -0.053 0.988
27.115 2.371 74.745 0.312 -0.39 0.866
26.71 0.966 75.141 0.582 0.547 0.602
25.563 1.19 75.101 -0.373 0.733 0.569
25.745 2.639 74.697 -0.494 -0.233 0.838
25.403 1.288 74.911 -0.266 0.668 0.695
27.486 1.756 74.532 0.203 -0.108 0.973
26.802 0.88 75.118 0.659 0.475 0.583
26.995 0.89 74.932 0.531 0.469 0.706
28.267 1.009 73.875 0.594 -0.482 0.645
27.776 0.144 74.275 0.921 0.095 0.378
28.517 0.197 73.489 0.427 0.06 0.902
28.387 -0.861 73.294 0.362 -0.47 0.805
27.646 -0.915 74.081 0.856 -0.434 0.281
27.513 -1.508 74.015 0.945 -0.038 0.325
28.404 -1.209 73.023 0.371 -0.644 0.67
27.527 -1.802 73.786 0.955 -0.248 0.161
28.829 -3.122 72.872 0.087 0.632 0.77
29.141 -1.076 70.987 0.739 -0.577 -0.349
29.451 -3.009 71.152 0.532 0.712 -0.459
29.109 -2.743 69.908 0.76 0.535 0.371
29.378 -3.87 69.593 0.952 -0.271 0.145
29.72 -4.136 70.837 0.724 -0.093 -0.684
29.368 -4.179 70.226 0.959 -0.065 -0.277
28.562 -5.563 71.102 0.511 -0.834 0.209
29.007 -5.361 71.611 0.214 -0.968 -0.13
28.085 -6.077 71.013 0.829 -0.491 0.269
27.226 -5.757 71.954 0.215 -0.263 0.941
28.148 -5.041 72.552 -0.399 -0.74 0.542
26.667 -4.976 73.06 0.588 -0.783 0.203
28.097 -5.199 69.406 0.253 -0.632 -0.733
27.674 -5.755 69.512 0.535 -0.261 -0.803
28.254 -4.773 68.867 0.148 -0.916 -0.373
26.917 -4.045 68.774 -0.806 -0.396 -0.439
26.337 -5.026 69.419 -0.42 0.259 -0.87
26.587 -4.376 69.301 -0.586 -0.175 -0.791
26.706 -3.316 69.021 -0.957 0.125 -0.263
26.349 -3.553 69.581 -0.718 0.283 -0.636
25.927 -3.066 69.975 -0.437 -0.042 -0.898
28.95 -0.694 70.362 0.643 -0.386 -0.661
28.948 -2.421 69.38 0.644 0.765 -0.006
29.202 -0.204 70.144 0.475 -0.713 -0.516
29.463 0.418 72.488 0.9 0.17 0.402
29.679 0.83 72.121 0.755 -0.105 0.647
29.641 1.331 72.424 0.781 -0.439 0.445
30.046 1.904 71.334 0.983 -0.153 -0.101
30.056 1.362 71.107 0.977 0.208 0.05
30.525 2.726 70.79 0.664 -0.701 0.261
30.531 2.708 70.724 0.667 -0.711 0.223
30.061 1.345 71.041 0.98 0.198 0.012
30.542 2.558 70.401 0.659 -0.611 0.438
29.075 2.749 69.045 -0.563 -0.452 -0.692
28.308 1.573 69.42 -0.051 0.332 -0.942
28.777 2.936 69.103 -0.365 -0.577 -0.731
28.707 2.964 69.119 -0.406 -0.561 -0.722
28.238 1.6 69.435 -0.093 0.348 -0.933
28.091 2.16 69.536 0.005 -0.025 -1
28.444 3.184 69.144 -0.561 -0.431 -0.707
27.808 2.397 69.563 -0.136 0.094 -0.986
27.98 3 69.46 -0.251 -0.308 -0.918
26.605 3.59 70.606 -0.939 -0.013 -0.344
26.433 2.988 70.709 -0.824 0.389 -0.413
25.969 3.879 71.339 -0.514 -0.205 -0.833
26.841 4.419 70.484 -0.821 0.402 -0.405
26.205 4.708 71.217 -0.397 0.21 -0.894
26.689 4.815 70.897 -0.719 0.138 -0.681
29.175 4.484 73.188 0.743 -0.056 0.667
28.879 4.352 73.681 0.941 0.032 0.338
29.515 4.064 72.948 0.516 0.224 0.827
29.297 3.241 73.083 0.407 -0.187 0.894
28.661 3.53 73.815 0.831 -0.38 0.406
29.124 2.639 73.186 0.522 0.214 0.825
29.111 2.623 73.198 0.515 0.206 0.832
28.647 3.514 73.828 0.825 -0.388 0.412
28.682 2.521 73.649 0.801 0.274 0.531
29.196 1.46 73.016 0.558 -0.375 0.74
28.767 1.358 73.466 0.844 -0.307 0.44
29.017 0.546 73.08 0.677 0.234 0.698
30.246 2.706 71.549 0.882 -0.454 0.127
30.074 2.104 71.652 0.997 -0.053 0.058
30.551 2.912 71.086 0.679 -0.591 0.435
29.781 5.034 71.842 0.649 0.71 0.274
30.119 5.076 71.359 0.424 0.682 0.596
30.127 5.342 71.12 0.419 0.505 0.755
28.779 5.517 69.877 -0.705 0.651 -0.281
28.506 5.285 69.873 -0.524 0.805 -0.278
28.047 5.26 70.243 -0.218 0.822 -0.526
28.789 5.542 69.914 -0.697 0.672 -0.25
28.06 5.292 70.291 -0.211 0.839 -0.502
27.822 5.627 70.717 -0.053 0.616 -0.786
30.097 5.37 71.117 0.393 0.528 0.752
29.386 5.421 72.156 0.867 0.495 0.06
29.742 5.071 71.838 0.63 0.728 0.272
26.321 6.167 73.118 -0.339 0.939 0.057
26.261 6.156 73.379 -0.299 0.947 -0.117
21.443 -1.292 71.911 -0.913 -0.354 0.202
21.561 -1.657 72.121 -0.992 -0.111 0.062
21.6 -1.53 71.323 -0.782 -0.552 -0.288
21.732 -1.915 71.483 -0.87 -0.296 -0.394
22.022 -1.544 70.824 -0.431 -0.565 -0.704
22.189 -1.931 70.941 -0.543 -0.307 -0.781
22.687 -0.841 70.478 0.123 0.021 -0.992
23.499 -0.963 70.344 -0.418 0.103 -0.903
22.736 -0.35 70.604 0.164 0.431 -0.888
23.562 -0.332 70.505 -0.387 0.418 -0.822
23.2 0.324 71.17 -0.17 0.583 -0.795
22.299 0.283 71.424 -0.2 0.958 -0.204
22.761 0.566 71.699 -0.508 0.769 -0.387
23.098 1.039 71.878 -0.733 0.454 -0.507
22.448 0.416 72.339 -0.749 0.654 0.106
22.206 0.194 72.656 -0.588 0.802 -0.105
21.639 -0.315 72.239 -0.75 0.46 0.475
21.893 -0.201 72.831 -0.92 0.383 0.08
21.885 0.024 73.446 -0.915 0.234 -0.329
21.858 -0.711 72.981 -0.958 -0.158 0.24
22.096 0.551 73.847 -0.739 0.673 0.005
22.338 0.912 73.894 -0.901 0.433 -0.027
22.163 0.382 74.44 -0.684 0.532 0.5
22.411 0.728 74.539 -0.849 0.301 0.434
22.43 0.02 74.869 -0.461 0.231 0.857
22.701 0.335 75.005 -0.642 0.021 0.766
22.824 -0.436 75.017 -0.132 -0.149 0.98
23.13 -0.161 75.165 -0.336 -0.333 0.881
23.75 -1.328 74.639 -0.126 -0.196 0.972
23.644 -1.426 74.596 -0.215 -0.278 0.936
23.596 -1.558 74.553 -0.182 -0.19 0.965
23.105 -1.847 74.019 -0.779 -0.541 0.316
22.537 -1.609 73.606 -0.4 -0.7 0.591
22.059 -1.017 73.927 -0.77 -0.633 0.072
22.105 -1.32 73.415 -0.802 -0.431 0.414
21.962 -1.726 73.001 -0.706 -0.161 0.69
21.904 -0.894 73.125 -0.989 -0.035 0.144
23.026 -2.29 73.531 -0.727 -0.246 0.641
23.04 -2.594 73.325 -0.714 -0.548 0.437
22.963 -2.596 73.212 -0.663 -0.546 0.512
23.091 -2.974 72.662 -0.574 -0.808 0.132
23.272 -3.187 72.453 -0.695 -0.666 0.271
23.257 -3.237 72.147 -0.707 -0.707 0.025
23.288 -3.284 72.005 -0.728 -0.675 0.12
22.633 -2.742 71.47 -0.227 -0.886 -0.404
23.323 -3.202 71.521 -0.687 -0.58 -0.438
23.697 -3.928 71.371 -0.936 -0.095 -0.338
23.561 -2.969 71.159 -0.413 -0.311 -0.856
23.847 -3.016 70.995 -0.603 -0.28 -0.747
23.91 -2.997 70.941 -0.553 -0.265 -0.79
23.96 -0.899 70.203 -0.187 0.135 -0.973
24.212 -0.94 70.124 -0.356 0.162 -0.92
25.588 0.062 70.601 -0.273 0.403 -0.873
25.531 0.262 70.734 -0.311 0.536 -0.785
24.133 0.197 70.703 -0.101 0.683 -0.723
24.23 0.754 71.021 -0.166 0.312 -0.936
25.576 0.598 70.887 -0.34 0.312 -0.887
25.611 0.814 70.969 -0.318 0.449 -0.835
25.464 1.278 71.165 -0.219 0.139 -0.966
25.415 1.349 71.189 -0.249 0.182 -0.951
23.87 0.985 71.221 -0.346 0.427 -0.835
23.985 1.223 71.267 -0.423 0.269 -0.865
23.453 1.494 71.938 -0.555 0.682 -0.477
23.661 1.619 71.824 -0.693 0.599 -0.401
24.648 2.489 72.724 -0.727 0.629 -0.275
23.902 2.004 73.124 -0.331 0.937 0.116
24.577 2.478 73.188 -0.78 0.621 0.073
24.896 3.234 73.286 -0.993 0.117 0.008
24.642 2.373 73.642 -0.732 0.543 0.413
23.482 1.78 73.229 -0.54 0.824 0.168
23.152 1.614 73.715 -0.32 0.935 -0.155
23.034 1.42 72.874 -0.765 0.644 -0.009
22.773 1.31 73.415 -0.591 0.717 -0.369
24.242 1.909 73.9 -0.465 0.852 0.241
24.747 2.422 73.794 -0.802 0.51 0.311
24.619 1.619 74.403 0.008 0.487 0.874
25.143 2.118 74.323 -0.341 0.154 0.927
24.762 0.927 74.982 -0.085 0.611 0.787
24.722 0.431 75.183 -0.125 0.122 0.985
24.229 -1.051 74.79 -0.036 -0.178 0.983
23.944 -1.192 74.712 -0.255 -0.287 0.923
25.065 -1.911 74.981 -0.013 0.133 0.991
25.426 -0.998 75.204 -0.254 -0.476 0.842
26.055 -2.629 74.692 0.481 -0.227 0.847
26.473 -2.186 74.72 0.202 -0.522 0.828
25.915 -3.32 74.418 0.411 -0.572 0.71
26.122 -3.838 74.081 0.273 -0.226 0.935
25.219 -3.591 74.407 0.063 -0.707 0.704
25.426 -4.109 74.07 -0.075 -0.362 0.929
24.8 -2.854 74.858 -0.146 -0.339 0.929
24.54 -2.909 74.823 0.027 -0.302 0.953
26.728 -2.904 73.996 0.564 -0.397 0.724
27.019 -2.818 73.74 0.766 -0.338 0.547
27.689 -3.542 73.156 0.32 0.145 0.936
27.605 -3.973 73.17 0.253 -0.198 0.947
25.957 -4.018 74.069 0.191 -0.316 0.929
26.087 -4.239 73.993 0.104 -0.169 0.98
25.361 -4.829 73.578 -0.107 -0.722 0.684
25.624 -4.87 73.611 -0.282 -0.695 0.662
26.257 -5.534 72.183 -0.042 -0.784 0.62
25.161 -5.34 72.139 -0.207 -0.978 -0.036
25.622 -5.58 71.697 -0.515 -0.818 0.258
25.923 -6.073 71.336 -0.716 -0.489 0.499
25.284 -5.286 71.033 -0.765 -0.599 -0.236
24.167 -4.805 72.176 -0.704 -0.71 -0.018
24.061 -4.728 71.943 -0.633 -0.762 0.138
25.196 -5.179 71.021 -0.707 -0.67 -0.228
25.236 -4.819 70.597 -0.663 -0.272 -0.698
25.334 -4.833 70.5 -0.729 -0.262 -0.633
25.649 -4.375 70.186 -0.494 0.079 -0.866
25.736 -4.007 70.113 -0.553 -0.167 -0.817
25.834 -3.544 70.038 -0.493 0.116 -0.862
24.98 -2.28 70.385 -0.052 -0.129 -0.99
24.818 -2.335 70.413 -0.178 -0.172 -0.969
25.3 -2.208 70.321 -0.265 -0.177 -0.948
25.741 -1.76 70.331 0.194 0.289 -0.938
25.988 -0.912 70.365 0.029 -0.277 -0.96
25.626 -0.066 70.521 -0.299 0.489 -0.82
26.592 -1.483 70.308 -0.373 0.103 -0.922
26.642 -1.498 70.287 -0.332 0.091 -0.939
27.143 -1.366 69.998 -0.666 0.003 -0.746
27.263 -1.985 69.659 -0.746 0.416 -0.52
27.387 -0.492 69.787 -0.138 -0.285 -0.949
27.561 -1.187 69.79 -0.254 0.178 -0.951
27.648 -1.821 69.468 -0.312 0.601 -0.736
27.628 -2.25 68.894 -0.299 0.887 -0.353
28.057 -1.138 69.796 0.236 0.227 -0.945
28.105 -1.776 69.474 0.204 0.652 -0.73
27.579 -0.092 69.693 -0.042 -0.085 -0.995
27.928 0.356 69.522 -0.275 -0.384 -0.882
27.126 0.321 69.773 -0.268 0.121 -0.956
27.507 0.739 69.596 -0.522 -0.158 -0.838
25.932 2.31 70.982 -0.573 0.169 -0.802
26.361 2.412 70.532 -0.859 0.101 -0.502
24.97 2.253 71.854 -0.524 0.715 -0.463
25.358 1.482 71.221 -0.211 0.093 -0.973
24.909 2.387 72.077 -0.484 0.626 -0.612
25.285 3.026 72.133 -0.734 0.2 -0.649
24.861 2.408 72.147 -0.551 0.656 -0.516
25.229 3.05 72.213 -0.797 0.228 -0.559
24.887 2.479 72.202 -0.569 0.609 -0.552
24.699 2.495 72.575 -0.76 0.625 -0.176
24.992 3.422 72.818 -0.936 0.228 -0.268
25.049 3.989 72.668 -0.974 -0.15 -0.168
24.975 3.56 73.437 -0.946 0.309 0.096
25.031 4.137 73.334 -0.983 -0.076 0.165
25.181 3.62 74.033 -0.825 0.344 0.447
25.252 4.202 73.976 -0.873 -0.043 0.486
25.58 3.594 74.525 -0.591 0.329 0.737
25.681 4.174 74.505 -0.658 -0.058 0.75
26.117 3.485 74.844 -0.275 0.265 0.924
26.259 4.057 74.848 -0.37 -0.116 0.922
26.717 3.309 74.946 0.078 0.161 0.984
26.905 3.867 74.957 -0.047 -0.211 0.976
27.298 3.089 74.815 0.42 0.032 0.907
27.529 3.631 74.816 0.266 -0.329 0.906
26.806 1.65 74.769 0.518 0.09 0.851
26.438 2.58 74.905 -0.086 -0.267 0.96
26.288 1.81 74.891 0.014 0.246 0.969
26.143 1.141 75.275 0.11 0.692 0.713
25.757 1.855 74.732 -0.502 0.29 0.815
25.649 1.92 74.651 -0.43 0.246 0.868
25.466 1.95 74.533 -0.557 0.266 0.787
26.983 1.378 74.731 0.4 0.272 0.875
27.079 1.29 74.707 0.475 0.202 0.856
26.671 0.17 75.411 0.55 -0.116 0.827
26.827 -0.023 75.309 0.446 0.012 0.895
25.939 -0.05 75.561 -0.06 -0.3 0.952
25.885 -0.306 75.503 -0.024 -0.129 0.991
27.456 0.516 74.689 0.761 0.282 0.584
27.947 1.382 74.288 0.434 -0.295 0.851
27.265 -0.967 74.696 0.665 -0.46 0.588
27.191 -1.552 74.534 0.715 -0.07 0.696
26.658 -1.066 75.081 0.362 -0.51 0.781
26.678 -1.636 74.86 0.348 -0.13 0.928
27.842 -1.143 73.561 0.726 -0.282 0.627
27.856 -1.432 73.336 0.736 -0.495 0.461
27.679 -2.318 73.261 0.854 0.096 0.511
28.153 -2.799 72.929 0.538 0.416 0.733
27.434 -2.674 73.426 0.489 -0.434 0.757
27.908 -3.154 73.093 0.174 -0.114 0.978
28.595 -2.507 72.612 0.243 0.222 0.944
28.442 -1.819 72.666 0.345 -0.237 0.908
29.386 -2.99 72.477 0.485 0.726 0.488
29.029 -2.405 72.304 0.724 0.335 0.603
28.912 -1.707 72.332 0.801 -0.129 0.584
29.064 -1.053 72.555 0.7 -0.566 0.436
29.622 -2.947 71.824 0.654 0.756 0.021
29.212 -2.371 71.795 0.927 0.372 0.04
29.112 -1.671 71.78 0.994 -0.094 0.05
29.343 -1.002 71.782 0.84 -0.54 0.049
29.079 -2.419 71.272 0.78 0.319 -0.539
28.967 -1.723 71.213 0.854 -0.145 -0.499
29.171 -2.982 70.537 0.719 0.694 -0.049
29.729 -3.53 70.964 0.73 0.34 -0.593
29.415 -3.439 70.372 0.939 0.28 -0.198
29.387 -3.264 69.72 0.958 0.162 0.236
29.407 -3.972 70.26 0.932 -0.203 -0.3
29.506 -4.916 71.091 0.571 -0.65 -0.502
29.125 -5.059 70.514 0.824 -0.554 -0.117
28.458 -5.597 71.301 0.58 -0.811 0.077
28.629 -5.35 72.179 -0.056 -0.96 0.275
28.126 -5.586 71.801 0.28 -0.802 0.528
27.707 -6.065 71.581 0.559 -0.483 0.674
27.702 -5.315 72.129 -0.103 -0.557 0.824
27.383 -4.812 72.71 0.11 -0.893 0.437
27.545 -4.114 73.165 0.293 -0.104 0.95
26.859 -5.252 72.382 0.46 -0.599 0.655
26.337 -5.467 72.285 -0.095 -0.828 0.552
28.088 -6.023 70.183 0.83 -0.453 -0.325
28.564 -5.502 70.164 0.512 -0.8 -0.312
27.907 -5.165 69.288 0.38 -0.654 -0.654
26.957 -5.509 69.242 0.023 -0.085 -0.996
27.275 -4.949 69.05 -0.19 -0.459 -0.868
27.537 -4.527 68.597 -0.364 -0.74 -0.566
26.73 -4.524 69.206 -0.682 -0.076 -0.728
26.423 -3.198 69.587 -0.768 0.046 -0.639
26.798 -2.437 69.694 -0.436 0.717 -0.544
28.987 -4.511 69.2 0.672 -0.728 -0.135
28.925 -4.903 69.783 0.713 -0.467 -0.523
28.787 -2.201 70.248 0.974 0.173 0.144
28.798 -1.599 70.637 0.967 -0.228 -0.115
28.663 -1.953 69.842 0.834 0.453 -0.314
28.664 -1.33 70.196 0.834 0.038 -0.55
28.623 -1.946 69.728 0.862 0.448 -0.238
28.557 -1.336 70.004 0.906 0.042 -0.422
28.764 -0.714 70.153 0.767 -0.373 -0.521
28.218 -1.818 69.461 0.129 0.68 -0.721
28.252 -1.24 69.803 0.106 0.295 -0.95
28.319 -0.573 69.859 0.062 -0.15 -0.987
29.579 -0.15 70.636 0.696 -0.681 -0.227
29.355 -0.636 70.891 0.846 -0.357 -0.397
29.799 0.062 71.177 0.826 -0.556 0.092
29.592 -0.408 71.473 0.964 -0.243 -0.106
29.834 0.404 71.695 0.847 -0.355 0.396
29.629 -0.04 72.03 0.983 -0.059 0.173
29.969 1.104 71.656 0.926 0.057 0.374
29.953 1.627 71.924 0.937 -0.292 0.195
30.107 2.099 70.914 0.942 -0.283 0.179
30.112 2.084 70.856 0.946 -0.295 0.134
30.126 1.996 70.673 0.937 -0.236 0.257
29.965 1.066 70.372 0.924 0.034 -0.382
30.051 1.778 70.151 0.866 -0.441 -0.234
30.462 2.325 69.841 0.592 -0.805 -0.028
29.549 1.012 69.773 0.679 0.003 -0.734
29.726 1.736 69.683 0.561 -0.48 -0.674
30.114 2.28 69.34 0.302 -0.843 -0.446
28.936 1.2 69.421 0.318 0.113 -0.941
29.248 1.882 69.409 0.111 -0.343 -0.933
29.601 2.437 69.046 -0.125 -0.712 -0.691
28.757 2.173 69.408 -0.351 -0.069 -0.934
28.589 2.282 69.448 -0.239 -0.141 -0.961
28.528 2.306 69.462 -0.286 -0.122 -0.95
27.666 1.407 69.538 -0.429 0.234 -0.872
27.476 1.952 69.646 -0.302 -0.129 -0.944
27.223 2.6 69.77 -0.428 0.195 -0.882
27.396 3.203 69.668 -0.544 -0.206 -0.814
26.747 2.805 70.167 -0.666 0.297 -0.684
26.92 3.407 70.065 -0.781 -0.104 -0.615
26.29 3.421 71.107 -0.728 0.1 -0.678
26.281 3.41 71.115 -0.734 0.094 -0.673
26.268 5.352 71.475 -0.365 0.531 -0.765
26.748 5.413 71.137 -0.685 0.49 -0.539
26.518 5.867 71.872 -0.24 0.789 -0.566
26.98 5.892 71.507 -0.548 0.772 -0.322
26.916 6.178 72.351 -0.041 0.944 -0.326
27.351 6.181 71.952 -0.33 0.942 -0.06
27.407 6.24 72.842 0.204 0.976 -0.081
27.806 6.239 72.408 -0.062 0.976 0.208
27.917 6.045 73.274 0.46 0.878 0.135
28.281 6.058 72.809 0.217 0.869 0.444
28.374 5.62 73.583 0.688 0.665 0.29
28.706 5.663 73.097 0.467 0.637 0.614
28.711 5.027 73.726 0.857 0.369 0.361
29.019 5.111 73.23 0.651 0.313 0.691
28.803 3.095 73.419 0.737 -0.09 0.67
28.79 3.08 73.431 0.729 -0.099 0.677
28.791 1.934 73.62 0.856 -0.019 0.517
29.22 2.036 73.169 0.57 -0.087 0.817
29.61 2.434 72.803 0.765 0.112 0.634
29.783 3.036 72.7 0.65 -0.289 0.703
29.939 2.249 72.272 0.929 0.019 0.369
30.111 2.851 72.169 0.814 -0.382 0.437
30.668 3.433 71.365 0.748 -0.285 0.6
30.373 3.267 71.849 0.945 -0.174 0.277
30.629 4.016 71.513 0.725 0.058 0.687
30.331 3.894 72.008 0.924 0.14 0.357
30.438 4.588 71.511 0.612 0.395 0.685
30.125 4.509 72.006 0.821 0.447 0.355
30.752 4.817 70.842 0.797 0.529 0.292
30.657 5.125 70.687 0.86 0.324 0.394
30.898 4.643 70.015 0.883 0.427 -0.195
30.78 4.979 69.996 0.962 0.202 -0.182
30.491 4.634 69.26 0.643 0.422 -0.639
30.439 4.972 69.364 0.678 0.197 -0.708
29.718 4.796 68.927 0.189 0.517 -0.835
29.792 5.107 69.085 0.139 0.309 -0.941
28.936 5.052 69.168 -0.271 0.668 -0.693
29.138 5.322 69.287 -0.406 0.488 -0.773
28.265 4.87 69.508 -0.666 0.56 -0.493
27.788 4.812 69.851 -0.347 0.599 -0.722
28.17 4.335 69.246 -0.722 0.246 -0.647
27.685 4.237 69.57 -0.399 0.311 -0.863
28.232 3.749 69.119 -0.685 -0.099 -0.722
27.752 3.606 69.433 -0.365 -0.004 -0.931
27.383 4.921 70.254 -0.55 0.653 -0.521
27.193 5.281 70.683 -0.423 0.413 -0.807
28.363 5.486 70.395 -0.413 0.709 -0.571
28.324 6.001 71.216 0.242 0.836 -0.493
28.774 5.793 70.804 -0.058 0.974 -0.218
29.208 5.855 70.331 -0.347 0.933 0.097
28.91 5.923 71.755 0.587 0.79 -0.176
29.255 5.73 71.246 0.357 0.92 0.164
29.699 5.791 70.782 0.061 0.879 0.473
29.645 5.317 71.574 0.694 0.564 0.448
29.417 4.987 72.731 0.886 0.239 0.398
29.776 4.604 72.457 0.646 0.495 0.581
29.201 3.465 68.719 -0.115 -0.266 -0.957
29.43 3.191 68.723 -0.267 -0.083 -0.96
29.879 3.85 68.717 0.284 -0.039 -0.958
29.997 3.513 68.722 0.205 0.185 -0.961
30.553 3.943 69.099 0.68 0.015 -0.733
30.56 3.591 69.041 0.675 0.25 -0.695
30.964 3.709 69.719 0.921 -0.122 -0.369
30.904 3.395 69.56 0.961 0.087 -0.262
30.955 3.237 70.34 0.917 -0.4 -0.004
30.897 3.001 70.079 0.955 -0.242 0.17
25.532 5.609 73.33 -0.733 0.66 0.163
25.647 5.721 73.544 -0.811 0.585 0.021
25.532 5.039 74.139 -0.733 0.375 0.567
25.647 5.278 74.173 -0.811 0.216 0.545
26.321 5.027 74.735 -0.339 0.369 0.866
26.261 5.268 74.637 -0.299 0.208 0.931
27.11 5.585 74.524 0.056 0.648 0.76
26.875 5.702 74.472 0.213 0.569 0.794
27.11 6.155 73.715 0.056 0.933 0.355
26.875 6.146 73.843 0.213 0.939 0.27
26.032 -1.328 70.424 0 0 -1
27.899 -1.734 73.063 0.707 -0.294 0.643
28.863 -2.228 70.961 0.924 0.191 -0.331
28.863 -2.515 70.464 0.924 0.383 0
27.549 -5.09 72.304 0 -0.707 0.707
21.939 -1.015 70.64 -0.5 -0.123 -0.857
21.939 -0.435 70.724 -0.5 0.36 -0.788
21.939 0.007 71.107 -0.5 0.729 -0.468
21.5 -0.267 71.669 -0.866 0.5 0
21.5 -1.167 71.149 -0.866 -0.25 -0.433
21.5 -0.567 71.149 -0.866 0.25 -0.433
21.339 -0.867 71.669 -1 0 0
22.077 -2.218 72.862 -0.623 -0.512 0.591
22.077 -2.551 72.343 -0.623 -0.75 0.22
22.077 -2.551 71.727 -0.623 -0.75 -0.22
21.689 -1.805 72.561 -0.901 -0.217 0.376
21.689 -2.108 72.035 -0.901 -0.434 -0
22.383 -0.405 74.87 -0.5 -0.123 0.857
22.383 -0.938 74.626 -0.5 -0.567 0.654
21.944 0.043 74.361 -0.866 0.25 0.433
21.944 -0.557 74.361 -0.866 -0.25 0.433
23.288 1.536 74.524 -0.223 0.878 0.423
23.288 1.157 74.999 -0.223 0.608 0.762
23.288 0.61 75.263 -0.223 0.217 0.95
22.727 1.401 73.932 -0.623 0.782 0
22.727 1.227 74.524 -0.623 0.658 0.423
25.71 -2.94 74.741 0.309 -0.382 0.871
23.908 -2.695 74.708 -0.5 -0.123 0.857
23.908 -3.228 74.464 -0.5 -0.567 0.654
24.957 -4.673 73.61 -0.309 -0.644 0.7
24.957 -5.058 73.116 -0.309 -0.836 0.453
24.957 -5.261 72.524 -0.309 -0.938 0.157
24.399 -4.529 73.355 -0.588 -0.572 0.572
24.399 -4.88 72.83 -0.588 -0.747 0.31
23.957 -4.403 72.799 -0.809 -0.509 0.294
23.782 -4.414 71.777 -0.866 -0.5 -0
24.639 -0.989 70.038 -0 0.121 -0.993
27.045 -0.079 69.788 -0.309 -0.079 -0.948
23.893 1.774 71.743 -0.5 0.729 -0.468
26.011 0.455 75.61 -0 0.121 0.993
27.552 -0.047 74.696 0.809 -0 0.588
27.11 -0.666 75.015 0.588 -0.31 0.747
30.107 -4.006 71.794 1 0 0
29.968 -3.399 71.794 0.901 0.434 0
29.968 -3.702 72.32 0.901 0.217 0.376
29.968 -4.31 72.32 0.901 -0.217 0.376
29.968 -4.613 71.794 0.901 -0.434 -0
29.968 -4.31 71.268 0.901 -0.217 -0.376
29.968 -3.702 71.268 0.901 0.217 -0.376
29.58 -3.551 72.79 0.623 0.325 0.711
29.58 -4.162 72.877 0.623 -0.111 0.774
29.58 -4.723 72.621 0.623 -0.512 0.591
29.58 -5.056 72.102 0.623 -0.75 0.22
29.58 -5.056 71.486 0.623 -0.75 -0.22
29.019 -3.702 73.125 0.223 0.217 0.95
29.019 -4.31 73.125 0.223 -0.217 0.95
29.019 -4.857 72.861 0.223 -0.608 0.762
29.019 -5.236 72.386 0.223 -0.878 0.423
25.962 -4.934 73.613 -0 -0.749 0.663
27.798 -6.439 70.945 0.623 -0.75 0.22
27.798 -6.439 70.329 0.623 -0.75 -0.22
27.237 -6.24 71.704 0.223 -0.608 0.762
27.237 -6.619 71.229 0.223 -0.878 0.423
27.237 -6.754 70.637 0.223 -0.975 0
27.237 -6.619 70.045 0.223 -0.878 -0.423
27.237 -6.24 69.57 0.223 -0.608 -0.762
26.613 -6.619 71.229 -0.223 -0.878 0.423
26.613 -6.754 70.637 -0.223 -0.975 0
26.613 -6.619 70.045 -0.223 -0.878 -0.423
26.613 -6.24 69.57 -0.223 -0.608 -0.762
26.613 -5.693 69.306 -0.223 -0.217 -0.95
26.052 -6.439 70.945 -0.623 -0.75 0.22
26.052 -6.439 70.329 -0.623 -0.75 -0.22
26.052 -6.106 69.81 -0.623 -0.512 -0.591
26.052 -5.545 69.554 -0.623 -0.111 -0.774
29.307 -2.884 69.389 0.901 0.434 0
29.307 -3.795 68.863 0.901 -0.217 -0.376
29.307 -3.187 68.863 0.901 0.217 -0.376
28.919 -4.208 68.562 0.623 -0.512 -0.591
28.919 -3.647 68.306 0.623 -0.111 -0.774
28.919 -3.036 68.393 0.623 0.325 -0.711
28.919 -2.57 68.797 0.623 0.658 -0.423
28.358 -4.342 68.322 0.223 -0.608 -0.762
28.358 -3.795 68.058 0.223 -0.217 -0.95
28.358 -3.187 68.058 0.223 0.217 -0.95
28.358 -2.64 68.322 0.223 0.608 -0.762
27.734 -4.342 68.322 -0.223 -0.608 -0.762
27.734 -3.795 68.058 -0.223 -0.217 -0.95
27.734 -3.187 68.058 -0.223 0.217 -0.95
27.734 -2.64 68.322 -0.223 0.608 -0.762
27.173 -3.647 68.306 -0.623 -0.111 -0.774
27.173 -3.036 68.393 -0.623 0.325 -0.711
29.992 0.717 71.525 0.94 -0.171 0.296
29.992 0.427 71.021 0.94 -0.342 -0
29.992 0.717 70.517 0.94 -0.171 -0.296
29.697 0.292 70.195 0.766 -0.421 -0.486
29.245 0.272 69.746 0.5 -0.433 -0.75
28.69 0.55 69.411 0.174 -0.27 -0.947
28.1 1.162 69.354 -0.174 0.091 -0.981
26.904 2.21 69.917 -0.588 0 -0.809
28.616 4.289 74.18 0.809 -0 0.588
28.174 5.433 74.148 0.588 0.572 0.572
28.174 4.908 74.499 0.588 0.31 0.747
28.174 4.289 74.622 0.588 -0 0.809
27.616 6.088 73.622 0.309 0.9 0.309
27.616 5.79 74.172 0.309 0.751 0.584
27.616 5.329 74.596 0.309 0.52 0.796
27.616 4.756 74.848 0.309 0.233 0.922
27.616 4.132 74.9 0.309 -0.079 0.948
26.998 6.289 73.004 -0 1 0
26.998 4.438 74.998 -0 0.075 0.997
26.38 6.088 72.386 -0.309 0.9 -0.309
25.822 4.908 71.509 -0.588 0.31 -0.747
25.822 5.433 71.86 -0.588 0.572 -0.572
25.822 5.784 72.385 -0.588 0.747 -0.31
25.38 5.465 73.004 -0.809 0.588 0
25.38 4.289 71.828 -0.809 -0 -0.588
25.38 4.877 71.986 -0.809 0.294 -0.509
25.38 5.307 72.416 -0.809 0.509 -0.294
25.096 4.907 73.004 -0.951 0.309 0
25.096 4.598 73.539 -0.951 0.155 0.268
25.096 4.598 72.469 -0.951 0.155 -0.268
28.255 1.972 74.204 0.588 -0 0.809
29.281 0.078 72.86 0.809 -0 0.588
29.281 -0.51 72.702 0.809 -0.294 0.509
28.839 -0.541 73.179 0.588 -0.31 0.747
29.021 -5.064 70.146 0.766 -0.557 -0.321
31.097 3.917 70.346 1 0 0
30.994 4.208 70.85 0.94 0.171 0.296
30.994 3.626 70.85 0.94 -0.171 0.296
30.994 4.208 69.842 0.94 0.171 -0.296
30.247 4.372 68.946 0.5 0.268 -0.824
29.102 4.071 68.679 -0.174 0.091 -0.981
29.102 4.663 68.847 -0.174 0.439 -0.882
28.547 3.763 68.882 -0.5 -0.091 -0.861
28.547 4.372 68.946 -0.5 0.268 -0.824
28.547 4.902 69.252 -0.5 0.579 -0.644
30.79 2.691 69.875 0.866 -0.5 -0
30.79 2.991 69.355 0.866 -0.25 -0.433
30.351 2.61 69.09 0.5 -0.567 -0.654
30.351 3.143 68.846 0.5 -0.123 -0.857
29.751 2.865 68.753 -0 -0.355 -0.935
27.307 3.615 69.677 -0.588 0 -0.809
27.307 4.234 69.8 -0.588 0.31 -0.747
29.214 5.499 72.645 0.766 0.541 0.348
28.762 6.052 72.054 0.5 0.866 0
28.762 5.925 72.653 0.5 0.791 0.352
28.207 6.254 72.054 0.174 0.985 0
27.617 5.817 70.926 -0.174 0.728 -0.663
27.617 6.141 71.449 -0.174 0.918 -0.356
27.062 5.565 70.96 -0.5 0.579 -0.644
30.101 3.615 72.471 0.809 -0 0.588
30.664 5.336 70.214 0.866 0.5 0
30.225 5.775 70.214 0.5 0.866 0
30.225 5.61 70.776 0.5 0.729 0.468
30.225 5.61 69.652 0.5 0.729 -0.468
29.625 5.936 70.214 -0 1 0
29.625 5.799 69.656 -0 0.885 -0.465
26.62 6.082 74.077 -0 0.885 0.465
26.02 5.893 74.081 -0.5 0.729 0.468
3 0 230 1
3 1 230 231
3 230 232 231
3 231 232 233
3 232 234 233
3 233 234 235
3 234 4 235
3 235 4 3
3 4 236 5
3 5 236 237
3 236 238 237
3 237 238 239
3 238 7 239
3 239 7 6
3 7 241 240
3 240 241 242
3 240 242 8
3 8 242 243
3 241 10 242
3 242 10 244
3 242 244 243
3 243 244 9
3 10 246 245
3 245 246 247
3 245 247 11
3 11 247 248
3 246 0 247
3 247 0 249
3 247 249 248
3 248 249 2
3 11 13 9
3 9 13 12
3 13 250 14
3 14 250 251
3 250 252 251
3 251 252 253
3 252 254 253
3 253 254 255
3 254 256 255
3 255 256 257
3 256 16 257
3 257 16 15
3 16 19 258
3 258 19 259
3 258 259 17
3 17 259 18
3 19 22 260
3 260 22 261
3 260 261 20
3 20 261 21
3 22 263 262
3 262 263 264
3 262 264 23
3 23 264 265
3 263 2 264
3 264 2 266
3 264 266 265
3 265 266 1
3 23 25 267
3 267 25 268
3 267 268 21
3 21 268 24
3 25 28 269
3 269 28 270
3 269 270 26
3 26 270 27
3 28 31 271
3 271 31 272
3 271 272 29
3 29 272 30
3 31 274 273
3 273 274 275
3 273 275 32
3 32 275 276
3 274 34 275
3 275 34 277
3 275 277 276
3 276 277 33
3 34 3 35
3 35 3 5
3 35 37 278
3 278 37 279
3 278 279 33
3 33 279 36
3 37 40 38
3 38 40 39
3 40 280 41
3 41 280 281
3 280 43 281
3 281 43 42
3 43 46 282
3 282 46 283
3 282 283 44
3 44 283 45
3 46 284 47
3 47 284 285
3 284 6 285
3 285 6 8
3 47 49 286
3 286 49 287
3 286 287 45
3 45 287 48
3 49 52 288
3 288 52 289
3 288 289 50
3 50 289 51
3 52 290 53
3 53 290 291
3 290 292 291
3 291 292 293
3 292 55 293
3 293 55 54
3 55 295 294
3 294 295 296
3 294 296 56
3 56 296 297
3 295 58 296
3 296 58 298
3 296 298 297
3 297 298 57
3 58 299 59
3 59 299 300
3 299 301 300
3 300 301 302
3 301 12 302
3 302 12 14
3 59 61 303
3 303 61 305
3 303 305 304
3 304 305 306
3 304 306 57
3 57 306 60
3 61 64 62
3 62 64 63
3 64 67 307
3 307 67 308
3 307 308 65
3 65 308 66
3 67 70 68
3 68 70 69
3 70 15 309
3 309 15 310
3 309 310 71
3 71 310 17
3 71 311 69
3 69 311 312
3 311 73 312
3 312 73 72
3 73 313 74
3 74 313 314
3 313 76 314
3 314 76 75
3 76 315 77
3 77 315 316
3 315 317 316
3 316 317 318
3 317 79 318
3 318 79 78
3 79 319 80
3 80 319 320
3 319 18 320
3 320 18 20
3 80 82 78
3 78 82 81
3 82 24 83
3 83 24 26
3 83 27 81
3 81 27 29
3 77 85 321
3 321 85 322
3 321 322 75
3 75 322 84
3 85 88 323
3 323 88 324
3 323 324 86
3 86 324 87
3 88 325 89
3 89 325 326
3 325 327 326
3 326 327 328
3 327 91 328
3 328 91 90
3 91 330 329
3 329 330 331
3 329 331 92
3 92 331 332
3 330 94 331
3 331 94 333
3 331 333 332
3 332 333 93
3 94 334 95
3 95 334 335
3 334 30 335
3 335 30 32
3 95 97 336
3 336 97 337
3 336 337 93
3 93 337 96
3 97 36 98
3 98 36 38
3 98 100 338
3 338 100 339
3 338 339 96
3 96 339 99
3 100 103 340
3 340 103 341
3 340 341 101
3 101 341 102
3 103 106 104
3 104 106 105
3 106 39 342
3 342 39 343
3 342 343 107
3 107 343 41
3 107 109 344
3 344 109 345
3 344 345 105
3 105 345 108
3 109 42 346
3 346 42 347
3 346 347 110
3 110 347 44
3 110 112 348
3 348 112 349
3 348 349 108
3 108 349 111
3 112 352 350
3 350 352 353
3 350 353 351
3 351 353 354
3 351 354 113
3 113 354 355
3 352 115 353
3 353 115 356
3 353 356 354
3 354 356 357
3 354 357 355
3 355 357 114
3 115 358 116
3 116 358 359
3 358 360 359
3 359 360 361
3 360 118 361
3 361 118 117
3 118 121 119
3 119 121 120
3 121 48 122
3 122 48 50
3 122 362 120
3 120 362 363
3 362 124 363
3 363 124 123
3 124 127 125
3 125 127 126
3 127 51 364
3 364 51 365
3 364 365 128
3 128 365 53
3 128 130 366
3 366 130 368
3 366 368 367
3 367 368 369
3 367 369 126
3 126 369 129
3 130 54 370
3 370 54 371
3 370 371 131
3 131 371 56
3 131 372 129
3 129 372 373
3 372 374 373
3 373 374 375
3 374 376 375
3 375 376 377
3 376 378 377
3 377 378 379
3 378 380 379
3 379 380 381
3 380 382 381
3 381 382 383
3 382 384 383
3 383 384 385
3 384 133 385
3 385 133 132
3 133 136 134
3 134 136 135
3 136 387 386
3 386 387 388
3 386 388 137
3 137 388 389
3 387 139 388
3 388 139 390
3 388 390 389
3 389 390 138
3 139 60 391
3 391 60 392
3 391 392 140
3 140 392 62
3 140 63 138
3 138 63 65
3 137 142 393
3 393 142 394
3 393 394 135
3 135 394 141
3 142 395 143
3 143 395 396
3 395 397 396
3 396 397 398
3 397 66 398
3 398 66 68
3 143 399 141
3 141 399 400
3 399 145 400
3 400 145 144
3 145 148 146
3 146 148 147
3 148 401 149
3 149 401 402
3 401 403 402
3 402 403 404
3 403 72 404
3 404 72 74
3 149 151 405
3 405 151 406
3 405 406 147
3 147 406 150
3 151 84 407
3 407 84 409
3 407 409 408
3 408 409 410
3 408 410 152
3 152 410 86
3 152 413 411
3 411 413 414
3 411 414 412
3 412 414 415
3 412 415 150
3 150 415 416
3 413 417 414
3 414 417 418
3 414 418 415
3 415 418 419
3 415 419 416
3 416 419 420
3 417 154 418
3 418 154 421
3 418 421 419
3 419 421 422
3 419 422 420
3 420 422 153
3 154 424 423
3 423 424 425
3 423 425 155
3 155 425 426
3 424 157 425
3 425 157 427
3 425 427 426
3 426 427 156
3 157 428 158
3 158 428 429
3 428 160 429
3 429 160 159
3 160 431 430
3 430 431 432
3 430 432 161
3 161 432 433
3 431 163 432
3 432 163 434
3 432 434 433
3 433 434 162
3 163 87 435
3 435 87 436
3 435 436 164
3 164 436 89
3 164 90 437
3 437 90 438
3 437 438 162
3 162 438 92
3 161 439 159
3 159 439 440
3 439 166 440
3 440 166 165
3 166 442 441
3 441 442 443
3 441 443 167
3 167 443 444
3 442 169 443
3 443 169 445
3 443 445 444
3 444 445 168
3 169 99 170
3 170 99 101
3 170 172 168
3 168 172 171
3 172 102 173
3 173 102 104
3 173 111 446
3 446 111 447
3 446 447 171
3 171 447 113
3 167 448 165
3 165 448 449
3 448 156 449
3 449 156 158
3 155 175 450
3 450 175 452
3 450 452 451
3 451 452 453
3 451 453 153
3 153 453 174
3 175 114 454
3 454 114 457
3 454 457 455
3 455 457 458
3 455 458 456
3 456 458 459
3 456 459 176
3 176 459 116
3 176 460 174
3 174 460 461
3 460 462 461
3 461 462 463
3 462 464 463
3 463 464 465
3 464 178 465
3 465 178 177
3 178 466 179
3 179 466 467
3 466 181 467
3 467 181 180
3 181 184 468
3 468 184 469
3 468 469 182
3 182 469 183
3 184 471 470
3 470 471 472
3 470 472 185
3 185 472 473
3 471 474 472
3 472 474 475
3 472 475 473
3 473 475 476
3 474 477 475
3 475 477 478
3 475 478 476
3 476 478 479
3 477 187 478
3 478 187 480
3 478 480 479
3 479 480 186
3 187 190 481
3 481 190 482
3 481 482 188
3 188 482 189
3 190 483 191
3 191 483 484
3 483 117 484
3 484 117 119
3 191 193 189
3 189 193 192
3 193 485 194
3 194 485 486
3 485 487 486
3 486 487 488
3 487 196 488
3 488 196 195
3 196 123 489
3 489 123 490
3 489 490 197
3 197 490 125
3 197 199 195
3 195 199 198
3 199 491 200
3 200 491 492
3 491 493 492
3 492 493 494
3 493 495 494
3 494 495 496
3 495 497 496
3 496 497 498
3 497 499 498
3 498 499 500
3 499 501 500
3 500 501 502
3 501 503 502
3 502 503 504
3 503 202 504
3 504 202 201
3 202 205 203
3 203 205 204
3 205 208 505
3 505 208 506
3 505 506 206
3 206 506 207
3 208 132 209
3 209 132 134
3 209 507 207
3 207 507 508
3 507 211 508
3 508 211 210
3 211 144 212
3 212 144 146
3 212 177 210
3 210 177 179
3 206 509 204
3 204 509 510
3 509 511 510
3 510 511 512
3 511 214 512
3 512 214 213
3 214 180 215
3 215 180 182
3 215 513 213
3 213 513 514
3 513 515 514
3 514 515 516
3 515 517 516
3 516 517 518
3 517 217 518
3 518 217 216
3 217 519 218
3 218 519 520
3 519 521 520
3 520 521 522
3 521 523 522
3 522 523 524
3 523 525 524
3 524 525 526
3 525 527 526
3 526 527 528
3 527 220 528
3 528 220 219
3 220 529 221
3 221 529 530
3 529 531 530
3 530 531 532
3 531 533 532
3 532 533 534
3 533 192 534
3 534 192 194
3 221 223 219
3 219 223 222
3 223 535 224
3 224 535 536
3 535 198 536
3 536 198 200
3 224 538 537
3 537 538 539
3 537 539 222
3 222 539 540
3 538 541 539
3 539 541 542
3 539 542 540
3 540 542 543
3 541 226 542
3 542 226 544
3 542 544 543
3 543 544 225
3 226 545 227
3 227 545 546
3 545 201 546
3 546 201 203
3 227 216 225
3 225 216 218
3 188 547 186
3 186 547 548
3 547 549 548
3 548 549 550
3 549 551 550
3 550 551 552
3 551 553 552
3 552 553 554
3 553 555 554
3 554 555 556
3 555 183 556
3 556 183 185
3 228 557 229
3 229 557 558
3 557 559 558
3 558 559 560
3 559 561 560
3 560 561 562
3 561 563 562
3 562 563 564
3 563 565 564
3 564 565 566
3 565 228 566
3 566 228 229
3 249 0 1
3 249 1 266
3 249 266 2
3 5 3 4
3 8 6 240
3 240 6 7
3 11 9 245
3 245 9 244
3 245 244 10
3 14 12 13
3 310 15 16
3 310 16 258
3 310 258 17
3 20 18 260
3 260 18 259
3 260 259 19
3 267 21 261
3 267 261 262
3 267 262 23
3 262 261 22
3 26 24 268
3 26 268 269
3 269 268 25
3 29 27 271
3 271 27 270
3 271 270 28
3 32 30 273
3 273 30 272
3 273 272 31
3 278 33 277
3 278 277 35
3 35 277 34
3 38 36 279
3 38 279 37
3 343 39 40
3 343 40 41
3 347 42 43
3 347 43 282
3 347 282 44
3 286 45 283
3 286 283 47
3 47 283 46
3 50 48 287
3 50 287 288
3 288 287 49
3 365 51 289
3 365 289 53
3 53 289 52
3 371 54 294
3 371 294 56
3 294 54 55
3 304 57 298
3 304 298 303
3 303 298 58
3 303 58 59
3 392 60 306
3 392 306 62
3 62 306 305
3 62 305 61
3 65 63 307
3 307 63 64
3 68 66 308
3 68 308 67
3 71 69 309
3 309 69 70
3 74 72 73
3 321 75 76
3 321 76 77
3 80 78 79
3 83 81 82
3 409 84 322
3 409 322 85
3 409 85 323
3 409 323 410
3 410 323 86
3 436 87 324
3 436 324 88
3 436 88 89
3 438 90 91
3 438 91 329
3 438 329 92
3 336 93 333
3 336 333 94
3 336 94 95
3 338 96 337
3 338 337 98
3 98 337 97
3 101 99 339
3 101 339 340
3 340 339 100
3 104 102 341
3 104 341 103
3 344 105 106
3 344 106 342
3 344 342 107
3 348 108 345
3 348 345 567
3 348 567 346
3 348 346 110
3 346 567 109
3 109 567 345
3 447 111 351
3 447 351 113
3 351 111 349
3 351 349 350
3 350 349 112
3 457 114 357
3 457 357 458
3 458 357 356
3 458 356 459
3 459 356 115
3 459 115 116
3 119 117 118
3 122 120 121
3 490 123 124
3 490 124 125
3 367 126 127
3 367 127 366
3 366 127 364
3 366 364 128
3 131 129 369
3 131 369 370
3 370 369 368
3 370 368 130
3 134 132 133
3 393 135 386
3 393 386 137
3 386 135 136
3 140 138 390
3 140 390 391
3 391 390 139
3 143 141 394
3 143 394 142
3 146 144 145
3 405 147 148
3 405 148 149
3 412 150 568
3 412 568 408
3 412 408 411
3 411 408 152
3 408 568 407
3 407 568 151
3 151 568 406
3 406 568 150
3 451 153 422
3 451 422 569
3 451 569 450
3 450 569 570
3 450 570 155
3 155 570 423
3 423 570 421
3 423 421 154
3 421 570 569
3 421 569 422
3 158 156 427
3 158 427 157
3 161 159 430
3 430 159 160
3 437 162 571
3 437 571 435
3 437 435 164
3 435 571 163
3 163 571 434
3 434 571 162
3 167 165 441
3 441 165 166
3 170 168 445
3 170 445 169
3 446 171 172
3 446 172 173
3 176 174 456
3 456 174 453
3 456 453 455
3 455 453 452
3 455 452 454
3 454 452 175
3 179 177 178
3 182 180 468
3 468 180 181
3 185 183 469
3 185 469 470
3 470 469 184
3 188 186 481
3 481 186 480
3 481 480 187
3 191 189 482
3 191 482 190
3 194 192 193
3 197 195 489
3 489 195 196
3 200 198 199
3 203 201 202
3 206 204 505
3 505 204 205
3 209 207 506
3 209 506 208
3 212 210 211
3 215 213 214
3 218 216 217
3 221 219 220
3 537 222 223
3 537 223 224
3 227 225 544
3 227 544 226
3 572 576 577
3 573 572 577
3 574 573 577
3 575 574 577
3 577 576 578
3 575 577 578
3 578 576 230
3 578 230 0
3 578 0 246
3 578 246 575
3 575 246 10
3 575 10 574
3 574 10 241
3 574 241 7
3 574 7 573
3 573 7 238
3 573 238 236
3 573 236 572
3 572 236 4
3 572 4 234
3 572 234 576
3 576 234 232
3 576 232 230
3 580 579 582
3 580 582 583
3 581 580 583
3 581 583 233
3 581 233 235
3 581 235 274
3 581 274 31
3 581 31 580
3 580 31 28
3 580 28 25
3 580 25 579
3 579 25 23
3 579 23 265
3 579 265 582
3 582 265 1
3 582 1 231
3 582 231 583
3 583 231 233
3 274 235 34
3 34 235 3
3 284 46 43
3 284 43 280
3 284 280 239
3 284 239 6
3 239 280 237
3 237 280 5
3 5 280 40
3 5 40 37
3 5 37 35
3 9 12 243
3 299 58 295
3 299 295 55
3 299 55 301
3 301 55 292
3 301 292 243
3 301 243 12
3 243 292 290
3 243 290 8
3 8 290 285
3 285 290 52
3 285 52 47
3 47 52 49
3 13 11 250
3 584 586 587
3 585 584 587
3 585 587 263
3 585 263 22
3 585 22 19
3 585 19 256
3 585 256 584
3 584 256 254
3 584 254 586
3 586 254 252
3 586 252 250
3 586 250 248
3 586 248 2
3 586 2 587
3 587 2 263
3 248 250 11
3 256 19 16
3 588 591 592
3 589 588 592
3 589 592 255
3 589 255 590
3 589 590 64
3 589 64 61
3 589 61 588
3 588 61 59
3 588 59 300
3 588 300 591
3 591 300 302
3 591 302 251
3 591 251 592
3 592 251 253
3 592 253 255
3 251 302 14
3 64 590 67
3 67 590 257
3 67 257 70
3 70 257 15
3 257 590 255
3 319 79 317
3 319 317 593
3 319 593 73
3 319 73 311
3 319 311 17
3 319 17 18
3 17 311 71
3 73 593 313
3 313 593 315
3 313 315 76
3 315 593 317
3 21 24 595
3 21 595 594
3 21 594 20
3 20 594 320
3 320 594 595
3 320 595 80
3 80 595 82
3 82 595 24
3 27 83 26
3 597 596 599
3 597 599 600
3 598 597 600
3 600 599 601
3 600 601 334
3 600 334 598
3 598 334 330
3 598 330 91
3 598 91 597
3 597 91 327
3 597 327 596
3 596 327 318
3 596 318 78
3 596 78 599
3 599 78 81
3 599 81 601
3 601 81 29
3 601 29 30
3 601 30 334
3 318 327 325
3 318 325 316
3 316 325 88
3 316 88 77
3 77 88 85
3 330 334 94
3 33 36 97
3 33 97 276
3 276 97 95
3 276 95 602
3 276 602 32
3 32 602 335
3 335 602 95
3 39 106 103
3 39 103 100
3 39 100 38
3 38 100 98
3 42 109 603
3 42 603 281
3 281 603 41
3 41 603 107
3 107 603 109
3 45 48 121
3 45 121 118
3 45 118 44
3 44 118 360
3 44 360 604
3 44 604 110
3 110 604 112
3 112 604 352
3 352 604 358
3 352 358 115
3 358 604 360
3 51 127 362
3 51 362 122
3 51 122 50
3 362 127 124
3 54 130 605
3 54 605 293
3 293 605 291
3 291 605 128
3 291 128 53
3 128 605 130
3 57 60 376
3 57 376 374
3 57 374 297
3 297 374 372
3 297 372 56
3 56 372 131
3 376 60 378
3 378 60 139
3 378 139 380
3 380 139 387
3 380 387 382
3 382 387 384
3 384 387 136
3 384 136 133
3 63 140 62
3 395 142 137
3 395 137 606
3 395 606 397
3 397 606 66
3 66 606 65
3 65 606 389
3 65 389 138
3 389 606 137
3 312 72 398
3 312 398 69
3 69 398 68
3 398 72 403
3 398 403 396
3 396 403 608
3 396 608 607
3 396 607 399
3 396 399 143
3 399 607 145
3 145 607 148
3 148 607 401
3 401 607 608
3 401 608 403
3 75 84 402
3 75 402 314
3 314 402 404
3 314 404 74
3 402 84 151
3 402 151 149
3 609 610 611
3 609 611 612
3 609 612 613
3 609 613 614
3 609 614 615
3 609 615 610
3 611 616 617
3 612 611 617
3 612 617 618
3 612 618 619
3 613 612 619
3 613 619 620
3 614 613 620
3 617 616 621
3 617 621 622
3 618 617 622
3 618 622 623
3 618 623 624
3 619 618 624
3 619 624 160
3 619 160 620
3 620 160 428
3 620 428 614
3 614 428 157
3 614 157 615
3 615 157 424
3 615 424 154
3 615 154 610
3 610 154 417
3 610 417 413
3 610 413 611
3 611 413 616
3 616 413 152
3 616 152 621
3 621 152 86
3 621 86 87
3 621 87 622
3 622 87 623
3 623 87 163
3 623 163 624
3 624 163 431
3 624 431 160
3 90 164 625
3 90 625 328
3 328 625 326
3 326 625 89
3 89 625 164
3 626 629 630
3 627 626 630
3 627 630 631
3 629 628 633
3 629 633 634
3 630 629 634
3 630 634 635
3 631 630 635
3 631 635 636
3 632 631 636
3 632 636 637
3 634 633 638
3 634 638 639
3 635 634 639
3 635 639 640
3 636 635 640
3 637 636 640
3 637 640 641
3 637 641 169
3 637 169 442
3 637 442 632
3 632 442 166
3 632 166 439
3 632 439 627
3 632 627 631
3 627 439 161
3 627 161 626
3 626 161 433
3 626 433 629
3 629 433 628
3 628 433 162
3 628 162 92
3 628 92 633
3 633 92 332
3 633 332 638
3 638 332 93
3 638 93 639
3 639 93 640
3 640 93 96
3 640 96 641
3 641 96 99
3 641 99 169
3 102 172 170
3 102 170 101
3 105 108 111
3 105 111 173
3 105 173 104
3 643 645 646
3 644 643 646
3 644 646 647
3 644 647 648
3 642 644 648
3 645 649 650
3 646 645 650
3 646 650 651
3 647 646 651
3 647 651 652
3 648 647 652
3 649 653 654
3 650 649 654
3 650 654 655
3 651 650 655
3 651 655 656
3 652 651 656
3 655 654 657
3 655 657 658
3 656 655 658
3 656 658 355
3 656 355 114
3 656 114 652
3 652 114 648
3 648 114 175
3 648 175 642
3 642 175 155
3 642 155 426
3 642 426 644
3 644 426 156
3 644 156 643
3 643 156 448
3 643 448 645
3 645 448 167
3 645 167 649
3 649 167 653
3 653 167 444
3 653 444 657
3 653 657 654
3 657 444 168
3 657 168 171
3 657 171 658
3 658 171 113
3 658 113 355
3 483 190 665
3 483 665 361
3 483 361 117
3 361 665 359
3 359 665 664
3 359 664 116
3 116 664 663
3 116 663 176
3 176 663 662
3 176 662 460
3 460 662 660
3 460 660 462
3 462 660 464
3 464 660 659
3 464 659 178
3 178 659 466
3 466 659 181
3 181 659 184
3 184 659 660
3 184 660 661
3 184 661 471
3 471 661 662
3 471 662 474
3 474 662 663
3 474 663 477
3 477 663 664
3 477 664 665
3 477 665 187
3 187 665 190
3 662 661 660
3 363 123 196
3 363 196 487
3 363 487 666
3 363 666 120
3 120 666 119
3 119 666 484
3 484 666 485
3 484 485 193
3 484 193 191
3 485 666 487
3 667 669 670
3 668 672 673
3 669 668 673
3 669 673 674
3 670 669 674
3 670 674 675
3 675 674 677
3 679 683 684
3 680 679 684
3 680 684 685
3 681 680 685
3 682 681 685
3 684 683 688
3 685 684 688
3 686 685 688
3 682 685 686
3 686 688 375
3 686 375 687
3 686 687 557
3 686 557 682
3 682 557 681
3 681 557 228
3 681 228 678
3 681 678 493
3 681 493 680
3 680 493 491
3 680 491 679
3 679 491 199
3 679 199 197
3 679 197 683
3 683 197 125
3 683 125 126
3 683 126 129
3 683 129 688
3 688 129 373
3 688 373 375
3 493 678 495
3 495 678 676
3 495 676 497
3 497 676 671
3 497 671 499
3 499 671 501
3 501 671 672
3 501 672 668
3 501 668 503
3 503 668 669
3 503 669 667
3 503 667 202
3 202 667 205
3 205 667 208
3 208 667 132
3 132 667 670
3 132 670 385
3 385 670 675
3 385 675 383
3 383 675 677
3 383 677 381
3 381 677 561
3 381 561 379
3 379 561 559
3 379 559 377
3 377 559 687
3 377 687 375
3 687 559 557
3 561 677 563
3 563 677 674
3 563 674 673
3 563 673 672
3 563 672 565
3 565 672 671
3 565 671 676
3 565 676 228
3 228 676 678
3 135 141 134
3 134 141 689
3 134 689 209
3 209 689 507
3 507 689 211
3 211 689 144
3 144 689 400
3 400 689 141
3 691 690 692
3 691 692 416
3 691 416 420
3 691 420 465
3 691 465 690
3 690 465 177
3 690 177 212
3 690 212 146
3 690 146 692
3 692 146 147
3 692 147 150
3 692 150 416
3 465 420 463
3 463 420 461
3 461 420 153
3 461 153 174
3 440 165 449
3 440 449 693
3 440 693 429
3 440 429 159
3 429 693 158
3 158 693 449
3 180 214 467
3 467 214 511
3 467 511 179
3 179 511 509
3 179 509 508
3 179 508 210
3 508 509 206
3 508 206 207
3 694 695 696
3 699 701 702
3 700 699 702
3 700 702 703
3 700 703 527
3 700 527 525
3 700 525 699
3 699 525 549
3 699 549 547
3 699 547 701
3 701 547 192
3 701 192 533
3 701 533 702
3 702 533 531
3 702 531 703
3 703 531 529
3 703 529 220
3 703 220 527
3 192 547 189
3 189 547 188
3 549 525 698
3 549 698 551
3 551 698 523
3 551 523 697
3 551 697 553
3 553 697 694
3 553 694 555
3 555 694 696
3 555 696 215
3 555 215 182
3 555 182 183
3 215 696 513
3 513 696 515
3 515 696 695
3 515 695 517
3 517 695 519
3 517 519 217
3 519 695 521
3 521 695 694
3 521 694 697
3 521 697 523
3 523 698 525
3 705 706 707
3 707 706 708
3 707 708 550
3 707 550 552
3 707 552 705
3 705 552 554
3 705 554 556
3 705 556 704
3 705 704 706
3 706 704 473
3 706 473 476
3 706 476 479
3 706 479 708
3 708 479 186
3 708 186 548
3 708 548 550
3 473 704 185
3 185 704 556
3 195 198 488
3 488 198 710
3 488 710 709
3 488 709 486
3 486 709 534
3 486 534 194
3 534 709 532
3 532 709 710
3 532 710 530
3 530 710 535
3 530 535 221
3 221 535 223
3 535 710 198
3 545 226 711
3 545 711 504
3 545 504 201
3 504 711 502
3 502 711 713
3 502 713 500
3 500 713 714
3 500 714 498
3 498 714 496
3 496 714 716
3 496 716 494
3 494 716 715
3 494 715 717
3 494 717 492
3 492 717 536
3 492 536 200
3 536 717 715
3 536 715 224
3 224 715 538
3 538 715 716
3 538 716 714
3 538 714 541
3 541 714 712
3 541 712 226
3 226 712 711
3 711 712 713
3 713 712 714
3 512 213 514
3 512 514 718
3 512 718 510
3 510 718 203
3 510 203 204
3 203 718 546
3 546 718 518
3 546 518 216
3 546 216 227
3 518 718 516
3 516 718 514
3 719 722 720
3 719 720 721
3 720 722 724
3 720 724 723
3 720 723 543
3 720 543 721
3 721 543 225
3 721 225 218
3 721 218 520
3 721 520 719
3 719 520 522
3 719 522 722
3 722 522 524
3 722 524 526
3 722 526 724
3 724 526 528
3 724 528 219
3 724 219 222
3 724 222 540
3 724 540 723
3 723 540 543
3 566 229 725
3 566 725 564
3 564 725 726
3 564 726 562
3 562 726 560
3 560 726 558
3 558 726 229
3 229 726 725
