ply
format ascii 1.0
comment Generated by PyMesh
element vertex 632
property float x
property float y
property float z
property float nx
property float ny
property float nz
element face 1260
property list uchar int vertex_indices
end_header
-7.032 5.5 17.014 -0.679 -0.364 -0.637
-6.608 5.073 16.446 -0.963 -0.08 -0.258
-6.881 5.09 16.986 -0.781 -0.091 -0.618
-5.635 6.961 16.644 -0.477 0.864 -0.16
-6.276 6.968 17.167 -0.049 0.859 -0.509
-5.187 7.404 16.813 -0.776 0.569 -0.273
-4.856 7.162 18.666 -0.61 0.448 0.653
-6.019 6.78 18.608 0.165 0.703 0.692
-4.796 6.729 19.364 -0.649 0.737 0.188
-5.037 6.109 19.712 -0.85 0.22 0.478
-6.26 6.161 18.956 -0.036 0.186 0.982
-6.041 5.808 19.096 -0.181 0.421 0.889
-4.583 4.926 19.664 -0.472 -0.766 0.437
-5.548 4.523 19.043 0.171 -0.497 0.851
-4.524 3.697 19.032 -0.511 0.054 0.858
-4.68 3.502 18.915 -0.641 -0.109 0.76
-5.717 4.31 18.915 0.051 -0.648 0.76
-4.891 3.597 18.782 -0.5 -0.173 0.849
-5.32 3.249 18.3 -0.714 -0.347 0.608
-6.079 4.017 18.509 -0.208 -0.858 0.469
-5.556 2.748 17.967 -0.557 -0.013 0.83
-5.725 2.735 17.84 -0.642 -0.019 0.767
-6.222 4.006 18.401 -0.31 -0.866 0.392
-5.905 2.582 17.716 -0.521 0.083 0.849
-6.41 2.859 16.837 -0.942 0.315 0.117
-6.771 4.307 17.446 -0.702 -0.651 -0.29
-6.374 3.092 16.71 -0.966 0.159 0.201
-6.36 3.337 16.334 -0.959 0.282 0.014
-6.759 4.514 17.129 -0.693 -0.503 -0.516
-6.463 4.391 16.615 -0.89 -0.421 -0.174
-6.105 3.574 15.538 -0.832 0.401 -0.384
-6.208 4.628 15.82 -0.763 -0.302 -0.572
-5.951 3.64 14.947 -0.934 0.357 0.01
-5.844 3.836 14.748 -0.858 0.496 -0.132
-6.082 4.859 15.584 -0.7 -0.186 -0.69
-5.986 5.033 15.405 -0.764 -0.302 -0.57
-5.286 6.302 15.333 -0.18 0.755 -0.63
-5.182 6.491 15.492 -0.25 0.63 -0.736
-4.304 6.613 14.311 -0.835 0.548 0.051
-4.126 6.824 14.465 -0.745 0.654 0.129
-5.003 6.703 15.646 -0.16 0.735 -0.658
-4.555 7.145 15.816 -0.459 0.44 -0.772
-4.036 6.919 14.471 -0.701 0.701 0.132
-4.465 7.24 15.822 -0.415 0.487 -0.769
-3.618 7.761 14.888 -0.979 0.14 -0.146
-3.565 8.084 15.116 -0.953 0.301 -0.032
-4.412 7.563 16.05 -0.388 0.649 -0.654
-4.375 7.778 16.205 -0.413 0.506 -0.758
-3.57 8.305 17.354 0.258 0.945 0.2
-3.377 8.241 17.527 0.13 0.988 0.084
-2.2 8.905 16.868 -0.655 0.546 0.523
-1.239 8.135 17.534 0.032 -0.004 0.999
-2.239 7.33 18.316 0.698 0.532 0.478
-2.346 7.181 18.889 0.769 0.631 0.096
-4.475 7.098 19.216 -0.751 0.572 0.33
-4.759 7.231 18.703 -0.561 0.483 0.672
-4.721 6.783 19.393 -0.587 0.782 0.212
-2.885 5.21 19.454 0.385 -0.776 0.5
-3.257 5.046 19.612 0.633 -0.666 0.394
-2.987 4.002 18.866 0.453 0.03 0.891
-3.12 3.925 18.929 0.386 -0.008 0.922
-3.361 4.986 19.661 0.547 -0.716 0.435
-3.302 3.757 19.029 0.508 0.104 0.855
-3.805 2.457 18.421 0.044 -0.742 0.668
-3.835 2.615 18.634 0.064 -0.848 0.526
-4.04 1.956 18.088 0.201 -0.408 0.89
-4.937 2.31 18.189 -0.248 -0.231 0.941
-4.532 2.891 18.713 -0.518 -0.618 0.591
-4.702 2.811 18.522 -0.405 -0.565 0.719
-2.313 2.719 16.973 0.789 -0.611 -0.056
-2.549 2.218 16.64 0.946 -0.277 0.166
-1.878 3.091 16.727 0.499 -0.86 0.109
-1.888 3.237 15.971 0.492 -0.756 -0.432
-2.56 2.39 15.745 0.94 -0.192 -0.281
-2.244 1.905 14.317 0.73 0.132 0.671
-2.348 1.516 14.415 0.656 -0.146 0.741
-2.683 1.929 15.861 0.879 -0.422 -0.223
-2.733 1.7 15.99 0.912 -0.269 -0.309
-3.841 0.823 16.377 -0.01 -1 0.013
-4.107 0.802 16.359 0.167 -0.986 0.026
-4.646 0.093 15.381 0.527 -0.513 0.678
-6.075 0.55 15.621 -0.494 -0.186 0.849
-5.798 1.343 16.643 -0.679 -0.715 0.168
-5.963 1.499 16.785 -0.569 -0.819 0.073
-6.514 1.199 15.163 -0.807 0.277 0.522
-6.366 2.096 16.363 -0.905 -0.321 -0.278
-6.317 2.111 16.1 -0.938 -0.331 -0.103
-6.503 1.59 14.748 -0.8 0.557 0.226
-6.305 2.574 15.609 -0.932 -0.099 -0.349
-6.341 2.232 14.488 -0.908 0.129 0.399
-6.246 2.755 14.319 -0.855 0.419 0.305
-6.205 3.122 15.432 -0.882 0.175 -0.437
-6.036 3.258 14.857 -0.995 0.084 -0.054
-6.215 2.891 14.184 -0.838 0.495 0.23
-6.009 3.379 14.738 -0.976 0.17 -0.139
-6.467 3.099 13.552 -0.67 0.356 0.651
-5.973 3.807 13.194 -0.317 0.862 0.396
-5.515 4.087 14.38 -0.623 0.675 -0.395
-5.682 5.264 15.066 -0.511 -0.11 -0.853
-5.791 3.898 13.096 -0.187 0.927 0.326
-5.515 5.348 14.976 -0.371 -0.04 -0.928
-4.599 5.386 13.852 -0.982 -0.065 -0.178
-5.739 3.964 12.876 -0.15 0.974 0.168
-4.537 5.464 13.591 -0.951 -0.026 -0.309
-4.484 5.663 13.057 -0.986 -0.158 0.047
-3.931 7.191 13.68 -0.71 0.606 0.359
-3.984 6.992 14.214 -0.675 0.738 0.003
-3.684 7.744 13.584 -0.875 0.237 0.422
-3.671 7.756 13.605 -0.868 0.243 0.432
-3.971 7.004 14.234 -0.668 0.744 0.013
-3.553 7.846 14.65 -0.947 0.182 -0.265
-3.343 8.465 13.506 -0.704 0.598 0.383
-3.225 8.556 14.551 -0.783 0.537 -0.314
-3.06 8.692 13.99 -0.893 0.447 0.06
-2.045 9.487 14.359 -0.295 0.914 0.277
-2.133 9.411 14.947 -0.237 0.965 -0.116
-1.766 9.664 14.223 -0.481 0.796 0.367
-1.089 9.687 14.47 0.083 0.815 0.574
-1.262 9.44 15.266 0.199 0.979 0.043
-1.129 9.477 15.747 0.11 0.954 -0.277
-2.331 8.959 16.575 -0.748 0.585 0.314
-2.684 8.827 16.246 -0.513 0.673 0.534
-3.69 8.356 17.084 0.158 0.987 -0.025
-0.428 9.379 14.423 0.635 0.559 0.534
-0.411 9.143 15.695 0.624 0.716 -0.314
-0.411 9.045 15.205 0.624 0.781 0.013
-0.172 7.091 16.458 0.744 -0.196 0.639
-0.209 7.492 16.754 0.768 -0.463 0.442
-0.473 6.321 17.286 0.944 0.318 0.087
-1.241 6.761 17.976 0.304 0.684 0.662
-1.043 7.971 17.503 0.172 -0.122 0.977
-1.474 6.892 17.984 0.46 0.597 0.657
-1.611 6.96 18.009 0.391 0.631 0.67
-1.159 8.028 17.525 0.089 -0.081 0.993
-2.265 7.074 18.879 0.827 0.555 0.09
-1.519 6.779 18.107 0.437 0.541 0.719
-2.187 6.921 18.962 0.883 0.446 0.149
-1.276 6.673 18.072 0.275 0.611 0.742
-1.209 5.946 18.314 0.33 0.005 0.944
-2.115 6.131 19.225 0.934 -0.119 0.336
-1.433 5.843 18.418 0.48 0.073 0.874
-1.971 4.86 18.435 0.211 -0.419 0.883
-2.569 5.299 19.239 0.61 -0.713 0.347
-2.613 4.107 18.613 0.639 0.082 0.764
-1.505 4.314 17.807 0.444 -0.692 0.569
-2.148 3.561 17.985 0.872 -0.19 0.451
-1.738 3.803 17.582 0.599 -0.352 0.719
-1.082 4.384 15.923 0.656 -0.657 -0.373
-1.381 3.863 15.991 0.855 -0.309 -0.417
-1.186 4.306 14.869 0.725 -0.605 0.33
-1.678 3.81 14.625 0.479 -0.853 0.208
-1.796 3.443 15.784 0.558 -0.608 -0.565
-2.152 2.112 14.131 0.795 0.28 0.538
-1.547 4.063 13.368 0.544 -0.726 -0.42
-2.042 2.325 13.069 0.874 0.432 -0.221
-1.494 4.262 12.834 0.509 -0.859 -0.064
-2.498 4.34 11.815 0.006 -0.819 -0.573
-2.891 2.392 12.208 0.268 0.48 -0.835
-2.661 4.419 11.67 0.114 -0.872 -0.477
-3.022 4.454 11.636 -0.187 -0.843 -0.505
-3.283 2.43 12.171 -0.012 0.507 -0.862
-4.454 2.885 11.79 0.768 0.203 -0.607
-4.828 1.843 11.694 0.501 -0.541 -0.676
-3.657 1.388 12.075 -0.279 -0.237 -0.93
-4.363 1.473 12.085 0.191 -0.294 -0.937
-4.275 0.346 13.21 0.239 -0.92 -0.312
-3.58 0.391 13.071 -0.224 -0.95 -0.219
-4.676 -0.08 13.616 0.506 -0.636 -0.583
-4.184 0.263 14.901 0.857 -0.391 0.335
-3.088 0.733 14.355 0.127 -0.705 0.698
-3.415 0.98 15.935 0.345 -0.869 -0.355
-5.693 0.897 12.748 -0.548 -0.613 -0.568
-5.93 0.408 13.208 -0.39 -0.288 -0.875
-6.005 1.333 12.281 -0.34 -0.905 -0.257
-6.719 2.318 13.322 -0.85 -0.201 0.487
-6.644 1.393 14.249 -0.9 0.416 -0.131
-6.499 2.01 13.924 -0.996 0.005 0.085
-3.751 5.142 11.588 -0.794 -0.269 -0.545
-5.246 3.633 11.738 0.202 0.738 -0.644
-3.901 5.27 11.71 -0.695 -0.354 -0.626
-0.649 5.461 13.976 0.993 -0.028 -0.116
-0.596 5.659 13.442 0.957 -0.16 0.24
-0.349 6.212 13.347 0.793 -0.529 0.304
-1.737 6.419 10.941 0.098 -0.425 -0.9
-1.984 5.866 11.036 0.263 -0.057 -0.963
-1.692 6.835 10.654 0.068 -0.702 -0.709
-2.751 7.326 10.758 -0.688 -0.352 -0.634
-3.238 6.447 11.159 -0.364 0.234 -0.902
-2.991 7.001 11.064 -0.528 -0.135 -0.838
-1.761 9.205 11.832 0.019 0.991 0.133
-1.819 9.225 12.335 0.057 0.978 -0.202
-1.431 9.59 13.004 -0.201 0.734 -0.648
-1.865 9.586 13.32 -0.564 0.731 -0.385
-2.378 9.22 12.742 -0.222 0.975 0.001
-2.163 9.393 13.28 -0.365 0.86 -0.358
-0.743 8.746 11.739 0.746 0.663 0.066
-0.493 9.167 12.918 0.58 0.382 -0.72
-0.614 8.681 12.225 0.66 0.706 -0.258
-0.165 8.19 12.582 0.884 0.46 -0.079
-0.144 8.785 13.196 0.87 0.063 -0.488
-0.106 8.436 13.132 0.845 0.296 -0.445
0.017 8.527 14.209 0.918 0.35 0.189
-0.041 8.861 14.098 0.956 0.127 0.263
0.085 8.379 14.787 0.872 0.448 -0.196
0.014 7.261 13.768 0.916 -0.395 -0.071
0.082 7.017 14.312 0.871 -0.232 -0.433
-0.035 6.927 13.267 0.949 -0.172 0.263
-0.347 6.225 13.363 0.794 -0.523 0.311
-0.229 6.316 14.408 0.715 -0.583 -0.385
-0.647 5.473 13.992 0.994 -0.021 -0.108
-0.75 5.143 14.764 0.942 -0.187 0.278
-0.332 5.986 15.18 0.663 -0.748 0.001
-0.647 5.221 15.819 0.873 -0.239 -0.425
-0.413 5.945 16.801 0.99 0.123 0.066
-0.098 6.709 16.162 0.78 -0.386 0.492
-0.416 6.024 17.056 0.992 0.07 -0.104
-6.897 6.048 16.795 -0.566 0.092 -0.819
-6.433 5.777 16.165 -0.876 0.273 -0.399
-6.621 6.584 16.851 -0.337 0.539 -0.772
-6.078 6.466 16.237 -0.698 0.617 -0.363
-5.673 7.084 17.046 -0.452 0.783 -0.428
-6.216 7.132 17.664 0.001 0.995 -0.095
-5.61 7.253 17.562 -0.403 0.915 -0.026
-5.11 7.613 17.452 -0.737 0.674 0.047
-6.124 7.065 18.178 0.077 0.94 0.333
-5.515 7.183 18.095 -0.329 0.86 0.389
-4.992 7.527 18.113 -0.678 0.631 0.377
-5.405 6.889 18.541 -0.243 0.631 0.737
-5.357 6.604 18.894 -0.276 0.82 0.501
-5.556 6.093 19.182 -0.505 0.232 0.832
-6.826 5.807 18.804 -0.507 -0.108 0.855
-6.656 5.424 18.931 -0.62 0.147 0.771
-7.21 5.527 18.313 -0.828 -0.341 0.445
-7.074 5.12 18.397 -0.918 -0.07 0.389
-7.288 5.412 17.643 -0.892 -0.437 -0.113
-7.158 4.995 17.669 -0.979 -0.159 -0.131
-5.467 5.914 19.308 -0.564 0.351 0.747
-5.904 5.116 19.243 -0.083 -0.073 0.994
-5.349 5.321 19.434 -0.453 -0.209 0.867
-4.911 5.473 19.848 -0.745 -0.31 0.591
-5.044 4.813 19.263 -0.164 -0.69 0.704
-5.007 4.147 18.894 -0.189 -0.247 0.951
-5.149 3.97 18.787 -0.328 -0.422 0.845
-5.732 3.479 18.093 -0.44 -0.5 0.746
-5.867 3.469 17.992 -0.547 -0.508 0.666
-5.948 3.403 17.886 -0.493 -0.464 0.736
-6.362 3.63 17.166 -0.975 -0.199 -0.103
-6.387 3.754 17.088 -0.958 -0.282 -0.051
-6.375 3.95 16.788 -0.949 -0.127 -0.289
-5.929 4.129 15.433 -0.949 0.031 -0.314
-5.825 4.32 15.239 -0.871 0.173 -0.459
-6.147 5.976 15.822 -0.732 0.372 -0.57
-6.036 5.901 15.59 -0.806 0.421 -0.416
-4.622 6.421 14.977 -0.623 0.677 -0.393
-4.463 6.609 15.115 -0.52 0.798 -0.304
-5.367 6.899 16.097 -0.343 0.834 -0.433
-4.919 7.342 16.267 -0.642 0.539 -0.546
-4.211 6.868 15.21 -0.688 0.625 -0.367
-4.131 6.952 15.215 -0.637 0.679 -0.364
-3.913 7.443 15.439 -0.783 0.352 -0.513
-3.865 7.736 15.646 -0.753 0.533 -0.385
-5.03 7.646 16.975 -0.697 0.691 -0.192
-4.856 7.843 16.924 -0.813 0.56 -0.158
-4.431 8.039 17.83 -0.397 0.887 0.235
-4.39 8.148 17.589 -0.425 0.814 0.396
-2.727 8.394 17.127 -0.303 0.886 0.351
-2.824 7.93 18.112 0.406 0.833 0.377
-2.289 8.147 17.591 0.049 0.688 0.724
-1.734 8.642 17.362 -0.321 0.358 0.877
-1.824 7.671 17.753 0.422 0.305 0.854
-2.817 7.768 18.394 0.41 0.751 0.518
-2.834 7.551 18.955 0.421 0.896 0.144
-3.525 7.905 18.499 0.055 0.82 0.57
-3.432 7.667 19.044 -0.007 0.978 0.207
-4.22 7.713 18.609 -0.292 0.724 0.625
-4.019 7.505 19.137 -0.426 0.863 0.274
-4.366 6.727 19.874 -0.291 0.735 0.613
-4.089 7.036 19.738 -0.476 0.528 0.703
-3.943 6.433 20.182 0.062 0.49 0.87
-3.63 6.717 20.073 -0.148 0.3 0.942
-3.558 5.976 20.24 0.382 0.109 0.918
-3.211 6.221 20.136 0.151 -0.054 0.987
-3.308 5.471 20.032 0.59 -0.312 0.744
-2.94 5.673 19.91 0.345 -0.446 0.826
-3.213 4.577 19.131 0.604 -0.354 0.714
-3.318 4.517 19.181 0.519 -0.402 0.754
-3.432 4.43 19.222 0.594 -0.345 0.727
-3.967 4.868 19.834 0.042 -0.814 0.579
-3.942 4.331 19.368 0.025 -0.456 0.89
-3.908 3.639 19.203 0.002 0.005 1
-4.46 4.379 19.225 -0.554 -0.401 0.73
-3.225 3.041 18.79 0.571 -0.493 0.656
-3.021 3.004 18.621 0.435 -0.469 0.769
-3.393 1.874 17.754 0.524 -0.449 0.723
-3.158 2.375 18.087 0.367 -0.783 0.501
-2.871 1.966 17.248 0.785 -0.404 0.47
-2.636 2.467 17.581 0.628 -0.738 0.248
-2.295 2.719 16.668 0.777 -0.611 0.148
-2.305 2.867 15.898 0.77 -0.51 -0.383
-2.609 2.155 14.983 0.973 -0.035 0.227
-2.706 1.793 15.074 0.894 -0.331 0.302
-2.766 1.945 17.021 0.837 -0.414 0.357
-2.798 1.712 16.892 0.858 -0.259 0.443
-3.646 1.249 17.329 0.398 -0.762 0.511
-3.482 1.171 17.132 0.288 -0.71 0.642
-4.436 0.576 15.809 0.387 -0.835 0.392
-4.977 0.888 16.706 -0.268 -0.943 0.2
-5.156 0.647 16.097 -0.148 -0.782 0.606
-5.382 0.166 15.674 0.002 -0.461 0.887
-5.836 1.024 16.045 -0.653 -0.502 0.567
-5.45 1.678 17.642 -0.504 -0.547 0.668
-5.692 1.76 17.562 -0.343 -0.602 0.721
-5.895 1.142 16.095 -0.614 -0.581 0.533
-6.239 1.653 15.734 -0.99 -0.026 0.141
-6.266 1.66 15.596 -0.972 -0.03 0.233
-6.256 2.043 15.189 -0.965 0.255 -0.069
-6.203 2.401 15.046 -1 0.016 0.027
-6.113 2.9 14.884 -0.944 0.323 -0.072
-6.102 3.195 14.102 -0.913 0.292 0.284
-5.666 3.82 13.787 -0.521 0.853 0
-5.492 4.623 14.84 -0.637 0.318 -0.702
-5.763 4.416 15.142 -0.912 0.109 -0.395
-5.447 4.67 14.818 -0.668 0.286 -0.687
-5.421 4.166 14.354 -0.685 0.623 -0.378
-5.609 3.857 13.773 -0.56 0.829 0.01
-5.374 4.707 14.778 -0.465 0.387 -0.796
-5.378 4.187 14.332 -0.462 0.734 -0.498
-5.528 3.897 13.729 -0.362 0.927 -0.096
-4.912 5.378 14.532 -0.773 -0.06 -0.632
-4.686 6.318 14.884 -0.58 0.745 -0.331
-4.691 4.7 13.575 -0.92 0.392 0.006
-5.124 4.16 13.3 -0.631 0.752 0.189
-4.649 4.754 13.398 -0.876 0.448 -0.18
-5.086 4.209 13.138 -0.585 0.811 -0.007
-4.526 6.025 13.8 -0.945 0.254 -0.204
-4.473 6.223 13.266 -0.981 0.122 0.152
-4.336 6.55 14.014 -0.85 0.517 -0.097
-4.283 6.749 13.48 -0.886 0.385 0.259
-2.775 9.093 14.779 -0.558 0.805 -0.2
-2.642 9.19 14.202 -0.647 0.74 0.185
-2.137 9.363 15.662 -0.239 0.941 0.242
-1.868 9.412 16.082 -0.417 0.908 -0.038
-3.153 8.431 16.616 -0.2 0.937 0.287
-3.213 8.664 15.613 -0.777 0.591 0.217
-3.564 8.304 16.124 -0.543 0.831 -0.123
-4.102 8.228 16.592 -0.185 0.881 -0.435
-3.838 7.853 15.737 -0.771 0.455 -0.445
-2.934 8.452 16.792 -0.346 0.923 0.17
-2.833 8.41 17.016 -0.233 0.875 0.424
-1.125 9.438 15.085 0.107 0.981 0.164
-0.522 9.158 15.041 0.697 0.706 0.122
0.022 8.591 15.906 0.933 0.322 -0.164
0.101 8.392 15.454 0.88 0.455 0.138
0.097 7.978 16.299 0.986 -0.116 0.117
0.19 7.666 15.92 0.924 0.092 0.37
-0.485 6.919 16.975 0.952 -0.081 0.295
-0.508 7.766 17.238 0.555 -0.268 0.788
-0.735 7.148 17.38 0.706 0.144 0.693
-0.748 6.573 17.732 0.715 0.528 0.459
-1.182 7.319 17.602 0.265 0.313 0.912
-1.306 7.395 17.619 0.348 0.262 0.9
-1.422 7.452 17.641 0.264 0.303 0.916
-1.718 7.617 17.715 0.462 0.193 0.866
-2.117 7.273 18.204 0.728 0.423 0.54
-1.772 7.69 17.722 0.387 0.292 0.874
-2.172 7.345 18.211 0.653 0.522 0.548
-1.826 6.711 18.444 0.642 0.586 0.494
-1.766 6.047 18.664 0.701 -0.063 0.71
-2.703 4.76 18.827 0.699 -0.353 0.622
-3.01 4.673 19.035 0.469 -0.418 0.778
-2.173 3.036 17.556 0.86 -0.453 0.236
-1.759 3.359 17.22 0.584 -0.668 0.46
-1.391 3.788 17.119 0.847 -0.362 0.389
-1.094 4.297 17.259 0.649 -0.701 0.295
-1.264 3.809 16.555 0.938 -0.347 -0.014
-0.944 4.322 16.592 0.724 -0.688 -0.039
-1.396 4.15 15.436 0.865 -0.5 -0.048
-1.811 3.731 15.23 0.567 -0.8 -0.195
-2.205 3.218 15.413 0.83 -0.458 -0.317
-2.417 2.885 14.966 0.972 -0.236 -0.019
-2.398 2.495 14.515 0.959 0.024 0.281
-2.265 3.083 15.535 0.744 -0.654 -0.141
-2.466 2.775 15.066 0.877 -0.448 0.172
-2.458 2.36 14.637 0.873 -0.172 0.457
-2.222 2.759 14.16 0.842 -0.152 0.518
-2.053 3.363 14.336 0.729 -0.555 0.401
-2.13 2.937 13.277 0.933 0.025 -0.36
-1.954 3.555 13.383 0.815 -0.387 -0.43
-2.194 3.043 13.061 0.975 -0.046 -0.216
-1.995 3.745 12.976 0.843 -0.514 -0.159
-2.344 2.325 12.515 0.659 0.432 -0.616
-2.42 3.043 12.646 0.709 -0.047 -0.703
-2.242 3.745 12.524 0.59 -0.514 -0.622
-1.851 4.261 12.179 0.33 -0.859 -0.392
-2.831 3.093 12.416 0.228 0.012 -0.974
-2.688 3.799 12.273 0.133 -0.458 -0.879
-2.921 3.141 12.391 0.288 -0.019 -0.957
-2.837 3.882 12.195 0.232 -0.513 -0.826
-3.147 3.162 12.37 -0.104 0.018 -0.994
-3.051 3.902 12.174 -0.167 -0.475 -0.864
-3.932 2.597 12.104 0.42 0.395 -0.817
-4.261 1.681 12.02 0.123 -0.433 -0.893
-3.679 0.759 12.447 -0.295 -0.687 -0.665
-4.387 0.762 12.505 0.177 -0.688 -0.703
-4.151 0.288 13.411 0.157 -0.881 -0.446
-3.241 0.365 13.73 0.018 -0.968 0.252
-3.853 0.266 13.991 0.426 -0.902 0.078
-4.337 -0.105 14.275 0.748 -0.654 -0.112
-3.719 0.59 14.541 0.547 -0.609 0.574
-3.319 1.083 15.096 0.281 -0.938 0.204
-2.766 1.668 15.141 0.934 -0.247 0.257
-3.933 0.762 15.42 0.69 -0.724 -0.012
-4.301 0.626 15.802 0.297 -0.869 0.397
-5.288 0.066 13.25 0.068 -0.532 -0.844
-4.968 0.51 12.796 -0.145 -0.828 -0.541
-5.906 0.971 12.839 -0.406 -0.663 -0.629
-6.544 0.799 13.648 -0.828 -0.008 -0.56
-6.446 1.315 13.227 -0.893 -0.352 -0.279
-6.619 1.725 12.721 -0.778 -0.625 0.058
-6.535 1.838 13.755 -0.973 0.119 0.198
-5.397 1.427 11.887 0.095 -0.838 -0.538
-5.005 1.002 12.304 -0.166 -0.555 -0.815
-4.162 3.56 12.05 0.573 -0.247 -0.781
-3.637 4.135 11.994 0.223 -0.63 -0.744
-4.608 3.98 12.021 -0.223 0.506 -0.833
-4.06 4.534 11.967 -0.589 0.137 -0.797
-4.685 4.047 12.077 -0.172 0.461 -0.87
-4.192 4.646 12.067 -0.5 0.062 -0.864
-5.628 3.929 12.21 -0.071 0.949 -0.307
-4.952 4.254 12.408 -0.521 0.732 -0.439
-4.485 4.874 12.429 -0.832 0.319 -0.453
-4.353 5.621 12.269 -0.921 -0.179 -0.346
-5.03 4.279 12.874 -0.622 0.764 0.169
-4.57 4.901 12.94 -0.928 0.35 0.125
-2.651 5.548 11.014 -0.07 -0.216 -0.974
-2.779 5.358 11.047 0.016 -0.089 -0.996
-1.04 4.625 13.014 0.736 -0.677 0.026
-1.093 4.427 13.548 0.771 -0.544 -0.33
-0.73 5.107 13.224 0.89 -0.436 0.131
-0.784 4.908 13.758 0.926 -0.304 -0.225
-0.564 5.541 12.837 0.974 -0.219 -0.062
-0.316 6.094 12.742 0.809 -0.588 0.001
-0.708 5.502 12.238 0.901 -0.238 -0.362
-0.461 6.056 12.143 0.736 -0.607 -0.298
-1.016 5.548 11.705 0.747 -0.215 -0.628
-0.769 6.101 11.61 0.583 -0.584 -0.565
-1.456 5.673 11.291 0.528 -0.153 -0.836
-1.209 6.227 11.195 0.363 -0.522 -0.772
-2.657 6.084 10.97 -0.073 0.052 -0.996
-2.26 7.019 10.599 -0.338 -0.571 -0.748
-3.666 6.696 11.495 -0.577 0.359 -0.733
-3.419 7.25 11.4 -0.742 -0.01 -0.67
-3.97 6.913 11.963 -0.73 0.467 -0.5
-3.723 7.466 11.868 -0.894 0.098 -0.436
-4.123 7.076 12.518 -0.806 0.549 -0.222
-3.876 7.63 12.423 -0.971 0.18 -0.159
-4.109 7.172 13.109 -0.799 0.597 0.073
-3.862 7.725 13.013 -0.964 0.228 0.137
-3.298 7.573 11.309 -0.682 0.152 -0.715
-3.01 7.81 10.965 -0.874 -0.006 -0.486
-3.308 8.195 11.619 -0.687 0.462 -0.56
-3.019 8.335 11.227 -0.88 0.369 -0.299
-3.019 8.743 11.933 -0.543 0.737 -0.404
-2.775 8.798 11.492 -0.706 0.7 -0.11
-2.488 9.111 12.188 -0.277 0.92 -0.276
-2.326 9.109 11.708 -0.385 0.922 0.044
-2.963 8.947 13.098 -0.514 0.839 0.179
-2.707 9.14 13.611 -0.685 0.71 -0.163
-1.581 9.262 12.459 -0.101 0.953 -0.285
-0.92 9.483 12.906 0.224 0.645 -0.73
-1.113 9.164 12.369 0.353 0.858 -0.372
-1.206 9.089 11.725 0.415 0.908 0.057
-0.723 8.874 12.38 0.732 0.577 -0.361
0.231 7.694 14.561 0.945 0.106 -0.309
0.153 7.89 13.999 0.998 -0.025 0.066
-0.116 6.31 15.675 0.771 -0.586 0.248
-0.431 5.546 16.314 0.981 -0.076 -0.178
-0.371 6.387 16.584 0.962 -0.172 0.21
-0.431 6.698 16.825 0.916 0.066 0.395
-0.675 5.427 17.737 0.776 -0.428 0.463
-0.746 5.176 17.676 0.824 -0.261 0.504
0.041 7.55 12.881 0.988 0.14 0.071
0.086 7.84 13.41 0.958 -0.054 -0.281
-0.285 8.111 11.983 0.825 0.42 -0.378
-0.465 8.264 11.535 0.945 0.318 -0.079
-0.256 7.482 11.672 0.839 0.106 -0.534
-0.441 7.733 11.272 0.962 -0.061 -0.267
-0.534 6.922 11.354 0.7 -0.174 -0.693
-0.676 7.26 11.003 0.794 -0.399 -0.459
-1.063 6.542 11.093 0.435 -0.364 -0.823
-1.122 6.939 10.783 0.475 -0.628 -0.617
-4.686 5.001 14.081 -0.924 0.191 -0.331
-5.011 4.593 14.386 -0.707 0.463 -0.534
-5.011 4.27 13.883 -0.707 0.678 -0.199
-2.02 3.592 14.937 0.707 -0.707 0
-2.345 2.818 14.44 0.924 -0.191 0.331
-3.876 3.498 12.229 0.383 -0.206 -0.901
-3.876 2.881 12.229 0.383 0.206 -0.901
-6.817 6.976 17.778 -0.5 0.866 0
-6.817 6.811 18.34 -0.5 0.729 0.468
-6.817 6.369 18.723 -0.5 0.36 0.788
-6.817 6.811 17.216 -0.5 0.729 -0.468
-7.256 6.537 17.778 -0.866 0.5 0
-7.256 6.237 18.298 -0.866 0.25 0.433
-7.256 6.237 17.258 -0.866 0.25 -0.433
-7.417 5.937 17.778 -1 0 0
-4.017 5.99 20.33 -0 0.121 0.993
-4.017 5.419 20.261 -0 -0.355 0.935
-4.617 6.277 20.084 -0.5 0.36 0.788
-4.617 5.697 20.168 -0.5 -0.123 0.857
-6.1 4.367 18.919 -0.223 -0.608 0.762
-6.661 4.501 18.679 -0.623 -0.512 0.591
-7.049 4.611 17.852 -0.901 -0.434 -0
-3.911 3.207 19.125 -0 -0.355 0.935
-3.823 1.485 17.706 0.309 -0.644 0.7
-4.441 1.307 17.667 -0 -0.733 0.68
-4.441 0.971 17.175 -0 -0.901 0.434
-5.059 2.009 18.049 -0.309 -0.382 0.871
-5.059 1.485 17.706 -0.309 -0.644 0.7
-5.059 1.1 17.212 -0.309 -0.836 0.453
-6.319 2.182 17.217 -0.866 -0.25 0.433
-2.835 9.1 15.179 -0.588 0.809 0
-4.48 8.21 17.114 -0.5 0.866 0
-0.023 8.445 16.661 0.901 0.217 0.376
-0.411 9.236 16.135 0.623 0.782 0
-0.411 9.062 16.727 0.623 0.658 0.423
-0.411 8.596 17.131 0.623 0.325 0.711
-0.972 9.506 16.135 0.223 0.975 0
-0.972 9.371 16.727 0.223 0.878 0.423
-0.972 8.992 17.202 0.223 0.608 0.762
-0.972 8.445 17.466 0.223 0.217 0.95
-1.596 9.371 16.727 -0.223 0.878 0.423
-1.596 8.992 17.202 -0.223 0.608 0.762
-2.55 7.218 19.346 0.623 0.658 0.423
-2.55 6.752 19.75 0.623 0.325 0.711
-2.55 6.141 19.837 0.623 -0.111 0.774
-2.55 5.58 19.581 0.623 -0.512 0.591
-3.111 7.527 19.346 0.223 0.878 0.423
-3.111 7.148 19.821 0.223 0.608 0.762
-2.716 2.798 18.228 0.588 -0.572 0.572
-1.866 1.72 13.378 1 0 0
-2.005 1.416 13.904 0.901 -0.217 0.376
-2.005 1.113 13.378 0.901 -0.434 -0
-2.005 1.416 12.852 0.901 -0.217 -0.376
-2.393 0.67 13.686 0.623 -0.75 0.22
-2.393 0.67 13.07 0.623 -0.75 -0.22
-2.393 1.003 12.551 0.623 -0.512 -0.591
-2.393 1.564 12.295 0.623 -0.111 -0.774
-2.954 0.355 13.378 0.223 -0.975 0
-2.954 0.49 12.786 0.223 -0.878 -0.423
-2.954 0.869 12.311 0.223 -0.608 -0.762
-2.954 1.416 12.047 0.223 -0.217 -0.95
-2.954 2.024 12.047 0.223 0.217 -0.95
-2.789 1.423 16.361 0.866 -0.5 -0
-3.228 1.026 16.654 0.5 -0.831 0.244
-4.511 -0.239 14.74 0.623 -0.75 0.22
-5.072 -0.419 15.024 0.223 -0.878 0.423
-5.072 -0.554 14.432 0.223 -0.975 0
-5.072 -0.419 13.84 0.223 -0.878 -0.423
-5.696 -0.04 15.499 -0.223 -0.608 0.762
-5.696 -0.419 15.024 -0.223 -0.878 0.423
-5.696 -0.554 14.432 -0.223 -0.975 0
-5.696 -0.419 13.84 -0.223 -0.878 -0.423
-5.696 -0.04 13.365 -0.223 -0.608 -0.762
-6.257 0.094 15.259 -0.623 -0.512 0.591
-6.257 -0.239 14.74 -0.623 -0.75 0.22
-6.257 -0.239 14.124 -0.623 -0.75 -0.22
-6.257 0.094 13.605 -0.623 -0.512 -0.591
-6.645 0.507 14.958 -0.901 -0.217 0.376
-6.645 0.204 14.432 -0.901 -0.434 -0
-6.645 0.507 13.906 -0.901 -0.217 -0.376
-6.784 0.811 14.432 -1 0 0
-5.217 2.296 11.309 0.223 -0.217 -0.95
-5.217 2.904 11.309 0.223 0.217 -0.95
-5.841 1.749 11.573 -0.223 -0.608 -0.762
-5.841 2.296 11.309 -0.223 -0.217 -0.95
-5.841 2.904 11.309 -0.223 0.217 -0.95
-5.841 3.451 11.573 -0.223 0.608 -0.762
-6.402 3.695 12.64 -0.623 0.782 0
-6.402 1.883 11.813 -0.623 -0.512 -0.591
-6.402 2.444 11.557 -0.623 -0.111 -0.774
-6.402 3.055 11.644 -0.623 0.325 -0.711
-6.402 3.521 12.048 -0.623 0.658 -0.423
-6.79 3.207 12.64 -0.901 0.434 0
-6.79 2.904 13.166 -0.901 0.217 0.376
-6.79 2.296 12.114 -0.901 -0.217 -0.376
-6.79 2.904 12.114 -0.901 0.217 -0.376
-6.929 2.6 12.64 -1 0 0
-0.893 4.961 12.374 0.809 -0.509 -0.294
-1.335 4.484 12.343 0.588 -0.747 -0.31
-1.335 4.835 11.818 0.588 -0.572 -0.572
-1.893 5.215 11.22 0.309 -0.382 -0.871
-4.129 5.979 11.786 -0.809 -0 -0.588
-4.129 6.567 11.944 -0.809 0.294 -0.509
-4.413 6.597 12.962 -0.951 0.309 0
-4.413 6.288 12.427 -0.951 0.155 -0.268
-3.11 8.888 12.74 -0.588 0.809 0
-3.552 8.446 12.74 -0.809 0.588 0
-3.552 8.288 12.152 -0.809 0.509 -0.294
-0.15 9.309 13.782 0.866 0.5 0
-0.589 9.748 13.782 0.5 0.866 0
-0.589 9.583 13.22 0.5 0.729 -0.468
-1.189 9.909 13.782 -0 1 0
-1.189 9.772 13.224 -0 0.885 -0.465
0.341 7.482 15.179 1 0 0
0.243 8.1 15.179 0.951 0.309 0
0.243 7.173 15.714 0.951 -0.155 0.268
0.243 6.864 15.179 0.951 -0.309 -0
-0.041 6.306 15.179 0.809 -0.588 0
-0.491 5.08 16.669 0.951 -0.309 -0
-0.775 4.68 17.257 0.809 -0.509 0.294
-0.733 4.898 14.208 0.951 -0.309 -0
-1.017 4.34 14.208 0.809 -0.588 0
-0.032 6.652 12.74 0.951 -0.309 -0
-0.032 6.961 12.205 0.951 -0.155 -0.268
-0.032 7.579 12.205 0.951 0.155 -0.268
-0.316 6.682 11.722 0.809 -0.294 -0.509
-0.526 8.122 11.12 0.901 0.217 -0.376
-0.914 7.662 10.563 0.623 -0.111 -0.774
-0.914 8.273 10.65 0.623 0.325 -0.711
-0.914 8.739 11.054 0.623 0.658 -0.423
-1.475 7.514 10.315 0.223 -0.217 -0.95
-1.475 8.122 10.315 0.223 0.217 -0.95
-1.475 8.669 10.579 0.223 0.608 -0.762
-1.475 9.048 11.054 0.223 0.878 -0.423
-2.099 7.514 10.315 -0.223 -0.217 -0.95
-2.099 8.122 10.315 -0.223 0.217 -0.95
-2.099 8.669 10.579 -0.223 0.608 -0.762
-2.099 9.048 11.054 -0.223 0.878 -0.423
-2.66 7.662 10.563 -0.623 -0.111 -0.774
-2.66 8.273 10.65 -0.623 0.325 -0.711
-2.66 8.739 11.054 -0.623 0.658 -0.423
3 0 216 1
3 1 216 217
3 216 218 217
3 217 218 219
3 218 4 219
3 219 4 3
3 4 221 220
3 220 221 222
3 220 222 5
3 5 222 223
3 221 224 222
3 222 224 225
3 222 225 223
3 223 225 226
3 224 7 225
3 225 7 227
3 225 227 226
3 226 227 6
3 7 10 228
3 228 10 229
3 228 229 8
3 8 229 9
3 10 230 11
3 11 230 231
3 230 232 231
3 231 232 233
3 232 234 233
3 233 234 235
3 234 0 235
3 235 0 2
3 11 237 236
3 236 237 238
3 236 238 9
3 9 238 239
3 237 13 238
3 238 13 240
3 238 240 239
3 239 240 12
3 13 16 241
3 241 16 242
3 241 242 14
3 14 242 15
3 16 19 17
3 17 19 18
3 19 22 243
3 243 22 244
3 243 244 20
3 20 244 21
3 22 25 245
3 245 25 246
3 245 246 23
3 23 246 24
3 25 28 247
3 247 28 248
3 247 248 26
3 26 248 27
3 28 2 29
3 29 2 1
3 29 31 27
3 27 31 30
3 31 34 249
3 249 34 250
3 249 250 32
3 32 250 33
3 34 251 35
3 35 251 252
3 251 37 252
3 252 37 36
3 37 40 253
3 253 40 254
3 253 254 38
3 38 254 39
3 40 255 41
3 41 255 256
3 255 3 256
3 256 3 5
3 41 43 257
3 257 43 258
3 257 258 39
3 39 258 42
3 43 46 259
3 259 46 260
3 259 260 44
3 44 260 45
3 46 261 47
3 47 261 262
3 261 263 262
3 262 263 264
3 263 49 264
3 264 49 48
3 49 266 265
3 265 266 267
3 265 267 50
3 50 267 268
3 266 52 267
3 267 52 269
3 267 269 268
3 268 269 51
3 52 270 53
3 53 270 271
3 270 272 271
3 271 272 273
3 272 274 273
3 273 274 275
3 274 55 275
3 275 55 54
3 55 6 56
3 56 6 8
3 56 276 54
3 54 276 277
3 276 278 277
3 277 278 279
3 278 280 279
3 279 280 281
3 280 282 281
3 281 282 283
3 282 58 283
3 283 58 57
3 58 61 284
3 284 61 285
3 284 285 59
3 59 285 60
3 61 287 286
3 286 287 288
3 286 288 62
3 62 288 289
3 287 12 288
3 288 12 290
3 288 290 289
3 289 290 14
3 62 291 60
3 60 291 292
3 291 64 292
3 292 64 63
3 64 67 65
3 65 67 66
3 67 15 68
3 68 15 17
3 68 18 66
3 66 18 20
3 65 293 63
3 63 293 294
3 293 295 294
3 294 295 296
3 295 70 296
3 296 70 69
3 70 73 297
3 297 73 298
3 297 298 71
3 71 298 72
3 73 76 299
3 299 76 300
3 299 300 74
3 74 300 75
3 76 301 77
3 77 301 302
3 301 303 302
3 302 303 304
3 303 79 304
3 304 79 78
3 79 306 305
3 305 306 307
3 305 307 80
3 80 307 308
3 306 82 307
3 307 82 309
3 307 309 308
3 308 309 81
3 82 310 83
3 83 310 311
3 310 21 311
3 311 21 23
3 83 85 312
3 312 85 313
3 312 313 81
3 81 313 84
3 85 24 86
3 86 24 26
3 86 88 314
3 314 88 315
3 314 315 84
3 84 315 87
3 88 91 316
3 316 91 317
3 316 317 89
3 89 317 90
3 91 30 92
3 92 30 32
3 92 94 90
3 90 94 93
3 94 97 318
3 318 97 319
3 318 319 95
3 95 319 96
3 97 33 320
3 320 33 321
3 320 321 98
3 98 321 35
3 98 100 322
3 322 100 325
3 322 325 323
3 323 325 326
3 323 326 324
3 324 326 327
3 324 327 96
3 96 327 99
3 100 36 328
3 328 36 329
3 328 329 101
3 101 329 38
3 101 103 330
3 330 103 332
3 330 332 331
3 331 332 333
3 331 333 99
3 99 333 102
3 103 334 104
3 104 334 335
3 334 336 335
3 335 336 337
3 336 106 337
3 337 106 105
3 106 109 107
3 107 109 108
3 109 42 110
3 110 42 44
3 110 112 108
3 108 112 111
3 112 338 113
3 113 338 339
3 338 115 339
3 339 115 114
3 115 118 116
3 116 118 117
3 118 340 119
3 119 340 341
3 340 121 341
3 341 121 120
3 121 343 342
3 342 343 344
3 342 344 122
3 122 344 345
3 343 45 344
3 344 45 346
3 344 346 345
3 345 346 47
3 122 48 347
3 347 48 348
3 347 348 120
3 120 348 50
3 119 124 349
3 349 124 350
3 349 350 117
3 117 350 123
3 124 351 125
3 125 351 352
3 351 353 352
3 352 353 354
3 353 127 354
3 354 127 126
3 127 356 355
3 355 356 357
3 355 357 128
3 128 357 358
3 356 130 357
3 357 130 359
3 357 359 358
3 358 359 129
3 130 133 360
3 360 133 361
3 360 361 131
3 131 361 132
3 133 51 362
3 362 51 364
3 362 364 363
3 363 364 365
3 363 365 134
3 134 365 53
3 134 136 132
3 132 136 135
3 136 139 366
3 366 139 367
3 366 367 137
3 137 367 138
3 139 142 140
3 140 142 141
3 142 57 368
3 368 57 369
3 368 369 143
3 143 369 59
3 143 145 141
3 141 145 144
3 145 370 146
3 146 370 371
3 370 69 371
3 371 69 71
3 146 372 144
3 144 372 373
3 372 374 373
3 373 374 375
3 374 148 375
3 375 148 147
3 148 151 376
3 376 151 377
3 376 377 149
3 149 377 150
3 151 72 378
3 378 72 381
3 378 381 379
3 379 381 382
3 379 382 380
3 380 382 383
3 380 383 152
3 152 383 74
3 152 154 384
3 384 154 386
3 384 386 385
3 385 386 387
3 385 387 150
3 150 387 153
3 154 390 388
3 388 390 391
3 388 391 389
3 389 391 392
3 389 392 155
3 155 392 393
3 390 157 391
3 391 157 394
3 391 394 392
3 392 394 395
3 392 395 393
3 393 395 156
3 157 160 396
3 396 160 398
3 396 398 397
3 397 398 399
3 397 399 158
3 158 399 159
3 160 163 400
3 400 163 401
3 400 401 161
3 161 401 162
3 163 402 164
3 164 402 403
3 402 166 403
3 403 166 165
3 166 405 404
3 404 405 406
3 404 406 167
3 167 406 407
3 405 169 406
3 406 169 408
3 406 408 407
3 407 408 168
3 169 75 409
3 409 75 410
3 409 410 170
3 170 410 77
3 170 78 411
3 411 78 412
3 411 412 168
3 168 412 80
3 167 413 165
3 165 413 414
3 413 172 414
3 414 172 171
3 172 416 415
3 415 416 417
3 415 417 173
3 173 417 418
3 416 175 417
3 417 175 419
3 417 419 418
3 418 419 174
3 175 87 176
3 176 87 89
3 176 93 174
3 174 93 95
3 173 420 171
3 171 420 421
3 420 162 421
3 421 162 164
3 161 178 422
3 422 178 424
3 422 424 423
3 423 424 425
3 423 425 159
3 159 425 177
3 178 428 426
3 426 428 429
3 426 429 427
3 427 429 430
3 427 430 179
3 179 430 431
3 428 102 429
3 429 102 432
3 429 432 430
3 430 432 433
3 430 433 431
3 431 433 104
3 179 434 177
3 177 434 435
3 434 156 435
3 435 156 158
3 155 436 153
3 153 436 437
3 436 438 437
3 437 438 439
3 438 181 439
3 439 181 180
3 181 440 182
3 182 440 441
3 440 442 441
3 441 442 443
3 442 444 443
3 443 444 445
3 444 446 445
3 445 446 447
3 446 184 447
3 447 184 183
3 184 448 185
3 185 448 449
3 448 187 449
3 449 187 186
3 187 450 188
3 188 450 451
3 450 452 451
3 451 452 453
3 452 454 453
3 453 454 455
3 454 456 455
3 455 456 457
3 456 105 457
3 457 105 107
3 188 458 186
3 186 458 459
3 458 460 459
3 459 460 461
3 460 462 461
3 461 462 463
3 462 464 463
3 463 464 465
3 464 190 465
3 465 190 189
3 190 193 191
3 191 193 192
3 193 466 194
3 194 466 467
3 466 111 467
3 467 111 113
3 194 114 192
3 192 114 116
3 191 469 468
3 468 469 470
3 468 470 189
3 189 470 471
3 469 196 470
3 470 196 472
3 470 472 471
3 471 472 195
3 196 199 197
3 197 199 198
3 199 202 200
3 200 202 201
3 202 123 203
3 203 123 125
3 203 473 201
3 201 473 474
3 473 205 474
3 474 205 204
3 205 208 206
3 206 208 207
3 208 211 209
3 209 211 210
3 211 475 212
3 212 475 476
3 475 214 476
3 476 214 213
3 214 126 477
3 477 126 478
3 477 478 215
3 215 478 128
3 215 479 213
3 213 479 480
3 479 138 480
3 480 138 140
3 212 147 210
3 210 147 149
3 209 180 207
3 207 180 182
3 206 481 204
3 204 481 482
3 481 198 482
3 482 198 200
3 197 483 195
3 195 483 484
3 483 485 484
3 484 485 486
3 485 487 486
3 486 487 488
3 487 489 488
3 488 489 490
3 489 183 490
3 490 183 185
3 137 129 135
3 135 129 131
3 2 0 1
3 5 3 220
3 220 3 4
3 8 6 228
3 228 6 227
3 228 227 7
3 236 9 229
3 236 229 11
3 11 229 10
3 290 12 240
3 290 240 241
3 290 241 14
3 241 240 13
3 17 15 242
3 17 242 16
3 20 18 243
3 243 18 19
3 23 21 245
3 245 21 244
3 245 244 22
3 26 24 246
3 26 246 247
3 247 246 25
3 29 27 248
3 29 248 28
3 32 30 249
3 249 30 31
3 321 33 250
3 321 250 34
3 321 34 35
3 329 36 253
3 329 253 38
3 253 36 37
3 257 39 254
3 257 254 41
3 41 254 40
3 44 42 258
3 44 258 259
3 259 258 43
3 346 45 260
3 346 260 46
3 346 46 47
3 348 48 49
3 348 49 265
3 348 265 50
3 364 51 269
3 364 269 365
3 365 269 52
3 365 52 53
3 56 54 55
3 369 57 58
3 369 58 284
3 369 284 59
3 62 60 286
3 286 60 285
3 286 285 61
3 65 63 64
3 68 66 67
3 71 69 297
3 297 69 70
3 381 72 298
3 381 298 73
3 381 73 382
3 382 73 299
3 382 299 383
3 383 299 74
3 410 75 300
3 410 300 76
3 410 76 77
3 412 78 79
3 412 79 305
3 412 305 80
3 312 81 309
3 312 309 82
3 312 82 83
3 314 84 313
3 314 313 86
3 86 313 85
3 89 87 315
3 89 315 316
3 316 315 88
3 92 90 317
3 92 317 91
3 95 93 318
3 318 93 94
3 324 96 319
3 324 319 97
3 324 97 323
3 323 97 320
3 323 320 322
3 322 320 98
3 492 491 493
3 331 99 327
3 331 327 493
3 331 493 330
3 330 493 491
3 330 491 101
3 101 491 328
3 328 491 492
3 328 492 325
3 328 325 100
3 325 492 326
3 326 492 493
3 326 493 327
3 432 102 333
3 432 333 332
3 432 332 433
3 433 332 103
3 433 103 104
3 107 105 106
3 110 108 109
3 113 111 112
3 116 114 115
3 349 117 118
3 349 118 119
3 347 120 121
3 347 121 342
3 347 342 122
3 125 123 350
3 125 350 124
3 478 126 355
3 478 355 128
3 355 126 127
3 131 129 359
3 131 359 360
3 360 359 130
3 134 132 363
3 363 132 362
3 362 132 361
3 362 361 133
3 137 135 366
3 366 135 136
3 140 138 367
3 140 367 139
3 143 141 368
3 368 141 142
3 146 144 145
3 149 147 376
3 376 147 148
3 385 150 494
3 385 494 379
3 385 379 495
3 385 495 384
3 384 495 380
3 384 380 152
3 380 495 379
3 379 494 378
3 378 494 377
3 378 377 151
3 377 494 150
3 155 153 389
3 389 153 387
3 389 387 388
3 388 387 386
3 388 386 154
3 158 156 397
3 397 156 395
3 397 395 396
3 396 395 394
3 396 394 157
3 423 159 399
3 423 399 496
3 423 496 422
3 422 496 497
3 422 497 161
3 161 497 400
3 400 497 160
3 160 497 398
3 398 497 496
3 398 496 399
3 164 162 401
3 164 401 163
3 167 165 404
3 404 165 166
3 411 168 408
3 411 408 409
3 411 409 170
3 409 408 169
3 173 171 415
3 415 171 172
3 176 174 419
3 176 419 175
3 179 177 425
3 179 425 427
3 427 425 424
3 427 424 426
3 426 424 178
3 182 180 181
3 185 183 184
3 188 186 187
3 468 189 190
3 468 190 191
3 194 192 193
3 197 195 472
3 197 472 196
3 200 198 199
3 203 201 202
3 206 204 205
3 209 207 208
3 212 210 211
3 215 213 477
3 477 213 214
3 499 498 502
3 499 502 503
3 500 499 503
3 502 501 504
3 498 501 502
3 503 502 505
3 502 504 505
3 505 504 234
3 505 234 232
3 505 232 503
3 503 232 230
3 503 230 500
3 500 230 10
3 500 10 7
3 500 7 499
3 499 7 224
3 499 224 498
3 498 224 221
3 498 221 4
3 498 4 501
3 501 4 218
3 501 218 504
3 504 218 216
3 504 216 0
3 504 0 234
3 255 40 37
3 255 37 219
3 255 219 3
3 219 37 251
3 219 251 217
3 217 251 34
3 217 34 1
3 1 34 31
3 1 31 29
3 6 55 226
3 226 55 274
3 226 274 263
3 226 263 223
3 223 263 261
3 223 261 5
3 5 261 256
3 256 261 46
3 256 46 43
3 256 43 41
3 263 274 272
3 263 272 49
3 49 272 266
3 266 272 270
3 266 270 52
3 506 508 509
3 507 506 509
3 507 509 12
3 507 12 287
3 507 287 282
3 507 282 280
3 507 280 506
3 506 280 278
3 506 278 508
3 508 278 276
3 508 276 56
3 508 56 8
3 508 8 9
3 508 9 509
3 509 9 239
3 509 239 12
3 282 287 61
3 282 61 58
3 2 28 235
3 235 28 512
3 235 512 233
3 233 512 511
3 233 511 231
3 231 511 237
3 231 237 11
3 237 511 510
3 237 510 13
3 13 510 16
3 16 510 19
3 19 510 22
3 22 510 511
3 22 511 512
3 22 512 25
3 25 512 28
3 15 67 513
3 15 513 14
3 14 513 289
3 289 513 62
3 62 513 291
3 291 513 64
3 64 513 67
3 18 68 17
3 515 518 519
3 516 515 519
3 516 519 306
3 516 306 79
3 516 79 303
3 516 303 515
3 515 303 514
3 515 514 65
3 515 65 517
3 515 517 518
3 518 517 310
3 518 310 519
3 519 310 82
3 519 82 306
3 310 517 20
3 310 20 21
3 20 517 66
3 66 517 65
3 65 514 293
3 293 514 303
3 293 303 295
3 295 303 301
3 295 301 70
3 70 301 76
3 70 76 73
3 24 85 520
3 24 520 23
3 23 520 311
3 311 520 83
3 83 520 85
3 27 30 91
3 27 91 88
3 27 88 26
3 26 88 86
3 33 97 94
3 33 94 32
3 32 94 92
3 36 100 252
3 252 100 98
3 252 98 35
3 39 42 106
3 39 106 38
3 38 106 336
3 38 336 334
3 38 334 101
3 101 334 103
3 106 42 109
3 343 121 521
3 343 521 112
3 343 112 45
3 45 112 110
3 45 110 44
3 112 521 338
3 338 521 115
3 115 521 340
3 115 340 118
3 340 521 121
3 48 122 264
3 264 122 522
3 264 522 262
3 262 522 345
3 262 345 47
3 345 522 122
3 523 525 526
3 525 524 528
3 525 528 529
3 526 525 529
3 526 529 530
3 524 527 528
3 528 527 531
3 528 531 532
3 529 528 532
3 529 532 530
3 530 532 268
3 530 268 51
3 530 51 133
3 530 133 130
3 530 130 356
3 530 356 526
3 526 356 523
3 523 356 127
3 523 127 353
3 523 353 351
3 523 351 524
3 523 524 525
3 524 351 124
3 524 124 527
3 527 124 119
3 527 119 341
3 527 341 531
3 531 341 120
3 531 120 50
3 531 50 532
3 532 50 268
3 533 537 538
3 534 533 538
3 534 538 281
3 534 281 535
3 534 535 139
3 534 139 136
3 534 136 533
3 533 136 53
3 533 53 271
3 533 271 537
3 537 271 273
3 537 273 275
3 537 275 277
3 537 277 538
3 538 277 279
3 538 279 281
3 277 275 54
3 53 136 134
3 139 535 536
3 139 536 142
3 142 536 57
3 57 536 283
3 283 536 535
3 283 535 281
3 292 63 294
3 292 294 539
3 292 539 145
3 292 145 143
3 292 143 59
3 292 59 60
3 145 539 370
3 370 539 296
3 370 296 69
3 296 539 294
3 72 151 148
3 72 148 374
3 72 374 71
3 71 374 372
3 71 372 371
3 371 372 146
3 540 541 542
3 540 542 543
3 542 541 544
3 542 544 545
3 543 542 545
3 543 545 546
3 543 546 547
3 545 544 548
3 545 548 549
3 546 545 549
3 546 549 550
3 546 550 551
3 547 546 551
3 547 551 552
3 547 552 390
3 547 390 543
3 543 390 154
3 543 154 540
3 540 154 152
3 540 152 541
3 541 152 74
3 541 74 75
3 541 75 544
3 544 75 169
3 544 169 405
3 544 405 548
3 548 405 166
3 548 166 549
3 549 166 402
3 549 402 550
3 550 402 163
3 550 163 551
3 551 163 552
3 552 163 160
3 552 160 157
3 552 157 390
3 78 170 554
3 78 554 304
3 304 554 302
3 302 554 553
3 302 553 77
3 77 553 170
3 170 553 554
3 555 556 557
3 556 560 561
3 557 556 561
3 557 561 562
3 558 557 562
3 558 562 563
3 560 559 564
3 560 564 565
3 561 560 565
3 561 565 566
3 562 561 566
3 562 566 567
3 563 562 567
3 565 564 568
3 565 568 569
3 566 565 569
3 566 569 570
3 567 566 570
3 569 568 571
3 570 569 571
3 570 571 416
3 570 416 567
3 567 416 172
3 567 172 563
3 563 172 413
3 563 413 558
3 558 413 167
3 558 167 407
3 558 407 557
3 557 407 555
3 555 407 168
3 555 168 80
3 555 80 556
3 556 80 308
3 556 308 559
3 556 559 560
3 559 308 81
3 559 81 564
3 564 81 568
3 568 81 84
3 568 84 571
3 571 84 87
3 571 87 175
3 571 175 416
3 90 93 176
3 90 176 89
3 572 575 576
3 573 572 576
3 573 576 577
3 575 574 579
3 575 579 580
3 576 575 580
3 576 580 581
3 577 576 581
3 577 581 582
3 580 579 585
3 580 585 586
3 581 580 586
3 582 581 586
3 583 582 586
3 578 582 583
3 584 583 587
3 586 585 587
3 583 586 587
3 587 585 418
3 587 418 174
3 587 174 584
3 584 174 95
3 584 95 583
3 583 95 578
3 578 95 96
3 578 96 102
3 578 102 428
3 578 428 582
3 582 428 577
3 577 428 178
3 577 178 573
3 573 178 161
3 573 161 572
3 572 161 162
3 572 162 574
3 572 574 575
3 574 162 420
3 574 420 173
3 574 173 579
3 579 173 418
3 579 418 585
3 102 96 99
3 588 589 590
3 593 592 595
3 593 595 454
3 593 454 452
3 593 452 450
3 593 450 592
3 592 450 187
3 592 187 179
3 592 179 431
3 592 431 595
3 595 431 104
3 595 104 335
3 595 335 594
3 595 594 454
3 454 594 456
3 456 594 337
3 456 337 105
3 337 594 335
3 179 187 434
3 434 187 448
3 434 448 184
3 434 184 591
3 434 591 156
3 156 591 590
3 156 590 393
3 393 590 589
3 393 589 155
3 155 589 436
3 436 589 588
3 436 588 438
3 438 588 440
3 438 440 181
3 440 588 442
3 442 588 444
3 444 588 590
3 444 590 446
3 446 590 591
3 446 591 184
3 108 111 107
3 107 111 457
3 457 111 597
3 457 597 455
3 455 597 598
3 455 598 453
3 453 598 460
3 453 460 458
3 453 458 451
3 451 458 188
3 460 598 462
3 462 598 596
3 462 596 464
3 464 596 193
3 464 193 190
3 193 596 466
3 466 596 597
3 466 597 111
3 597 596 598
3 114 194 467
3 114 467 339
3 339 467 113
3 599 601 600
3 600 601 603
3 600 603 602
3 600 602 117
3 600 117 123
3 600 123 599
3 599 123 202
3 599 202 199
3 599 199 196
3 599 196 601
3 601 196 469
3 601 469 603
3 603 469 191
3 603 191 192
3 603 192 602
3 602 192 116
3 602 116 117
3 604 606 607
3 604 607 205
3 604 205 473
3 604 473 605
3 604 605 354
3 604 354 606
3 606 354 126
3 606 126 214
3 606 214 475
3 606 475 607
3 607 475 608
3 607 608 208
3 607 208 205
3 208 608 211
3 211 608 475
3 354 605 352
3 352 605 203
3 352 203 125
3 203 605 473
3 129 137 358
3 358 137 138
3 358 138 479
3 358 479 128
3 128 479 215
3 132 135 131
3 141 144 480
3 141 480 140
3 480 144 610
3 480 610 609
3 480 609 213
3 213 609 476
3 476 609 212
3 212 609 147
3 147 609 375
3 375 609 610
3 375 610 373
3 373 610 144
3 150 153 612
3 150 612 149
3 149 612 611
3 149 611 210
3 210 611 209
3 209 611 180
3 180 611 439
3 439 611 612
3 439 612 437
3 437 612 153
3 159 177 435
3 159 435 158
3 414 171 421
3 414 421 403
3 414 403 165
3 403 421 164
3 483 197 198
3 483 198 615
3 483 615 485
3 485 615 614
3 485 614 616
3 485 616 487
3 487 616 445
3 487 445 489
3 489 445 447
3 489 447 183
3 445 616 443
3 443 616 614
3 443 614 613
3 443 613 441
3 441 613 182
3 182 613 207
3 207 613 206
3 206 613 481
3 481 613 614
3 481 614 615
3 481 615 198
3 617 618 619
3 617 619 620
3 618 621 622
3 619 618 622
3 619 622 623
3 620 619 623
3 620 623 624
3 621 625 626
3 622 621 626
3 622 626 627
3 623 622 627
3 623 627 628
3 624 623 628
3 626 625 629
3 626 629 630
3 627 626 630
3 627 630 631
3 628 627 631
3 628 631 465
3 628 465 189
3 628 189 624
3 624 189 471
3 624 471 620
3 620 471 195
3 620 195 484
3 620 484 617
3 617 484 486
3 617 486 618
3 618 486 488
3 618 488 490
3 618 490 621
3 621 490 185
3 621 185 625
3 625 185 449
3 625 449 629
3 629 449 186
3 629 186 459
3 629 459 630
3 630 459 461
3 630 461 631
3 631 461 463
3 631 463 465
3 474 204 482
3 474 482 201
3 201 482 200
