ply
format ascii 1.0
comment Generated by PyMesh
element vertex 715
property float x
property float y
property float z
property float nx
property float ny
property float nz
element face 1426
property list uchar int vertex_indices
end_header
-6.594 7.897 -26.643 -0.149 -0.126 0.981
-5.664 6.759 -25.309 -0.769 0.633 0.092
-6.139 8.336 -26.353 -0.452 -0.419 0.788
-6.053 5.841 -25.898 -0.964 0.174 -0.203
-6.923 7.122 -27.141 -0.384 -0.68 0.625
-6.286 5.339 -25.76 -0.809 0.509 -0.295
-5.916 4.868 -26.572 -0.591 0.233 -0.772
-6.587 6.694 -27.878 -0.144 -0.985 0.098
-5.655 5.335 -26.771 -0.765 -0.079 -0.64
-4.379 5.786 -27.454 -0.126 0.146 -0.981
-5.508 7.075 -28.455 0.627 -0.713 -0.314
-4.274 7.213 -28.087 -0.196 -0.805 -0.56
-4.237 7.343 -28.257 -0.17 -0.712 -0.681
-5.472 7.205 -28.625 0.653 -0.62 -0.435
-4.872 7.555 -28.593 0.252 -0.853 -0.457
-5.775 8.708 -29.472 -0.25 -0.212 -0.945
-6.272 8.226 -29.403 0.082 0.109 -0.991
-5.543 9.258 -29.827 -0.404 -0.579 -0.708
-6.197 9.858 -29.489 -0.871 -0.15 -0.467
-6.925 8.826 -29.066 -0.385 0.538 -0.75
-6.514 9.386 -29.091 -0.66 0.164 -0.733
-4.746 11.077 -27.893 0.165 0.721 0.673
-4.875 10.764 -27.287 0.251 0.93 0.269
-3.785 10.84 -26.927 -0.476 0.879 0.029
-3.966 10.604 -26.354 -0.566 0.761 0.316
-5.048 10.539 -26.74 0.155 0.805 0.573
-3.831 10.642 -26.126 -0.656 0.736 0.164
-3.973 10.159 -25.679 -0.775 0.334 0.536
-5.222 9.947 -26.191 0.058 0.476 0.878
-4.149 9.984 -25.78 -0.658 0.451 0.603
-4.22 8.837 -25.566 -0.693 -0.123 0.71
-5.29 8.851 -25.987 0.02 -0.133 0.991
-4.774 7.298 -24.926 -0.324 0.903 0.283
-3.848 8.821 -25.283 -0.508 -0.131 0.852
-4.402 7.282 -24.642 -0.138 0.895 0.425
-3.376 8.061 -24.647 -0.822 0.376 0.427
-3.003 7.645 -24.086 -0.555 0.079 0.828
-3.96 6.791 -23.979 0.083 0.649 0.756
-2.926 7.102 -23.836 -0.607 0.441 0.661
-2.766 6.399 -23.468 -0.526 0.09 0.846
-3.8 6.088 -23.611 0.163 0.298 0.941
-3.234 5.458 -23.193 -0.214 0.718 0.662
-3.757 5.054 -23.094 -0.476 0.516 0.712
-4.323 5.684 -23.511 -0.099 0.096 0.991
-4.308 4.846 -23.147 -0.109 0.655 0.748
-5.05 4.738 -23.364 -0.48 0.601 0.639
-5.065 5.576 -23.728 -0.47 0.042 0.882
-5.367 5.092 -23.743 -0.268 0.364 0.892
-5.83 3.831 -23.703 -0.87 0.148 0.47
-6.093 4.25 -24.057 -0.695 -0.131 0.707
-5.955 3.27 -23.49 -0.787 0.522 0.329
-6.223 2.979 -23.952 -0.922 0.376 0.098
-6.342 3.978 -24.487 -0.842 -0.291 0.454
-6.496 2.548 -23.979 -0.74 0.663 0.116
-6.182 1.975 -25.287 -0.516 0.254 -0.818
-5.997 3.348 -25.926 -0.639 -0.662 -0.392
-5.852 2.301 -25.5 -0.736 0.037 -0.676
-5.341 2.222 -25.902 -0.481 -0.002 -0.877
-5.522 3.276 -26.299 -0.36 -0.704 -0.612
-5.217 2.783 -26.114 -0.563 -0.376 -0.736
-4.198 3.337 -26.63 -0.054 -0.1 -0.994
-4.576 3.79 -26.779 0.197 -0.402 -0.894
-4.214 4.175 -26.994 -0.044 -0.659 -0.751
-3.431 3.396 -26.526 0.33 -0.07 -0.941
-3.446 4.235 -26.89 0.34 -0.629 -0.699
-2.88 3.604 -26.472 -0.037 -0.209 -0.977
-2.726 3.727 -26.495 0.039 -0.147 -0.988
-3.292 4.358 -26.912 0.417 -0.568 -0.71
-1.872 4.578 -27.291 -0.53 -0.714 -0.457
-1.976 4.851 -27.522 -0.582 -0.578 -0.572
-3.396 4.631 -27.142 0.365 -0.431 -0.825
-2.23 5.279 -27.945 -0.413 -0.864 -0.29
-2.406 5.429 -28.08 -0.501 -0.788 -0.357
-3.572 4.781 -27.277 0.277 -0.356 -0.892
-2.595 5.574 -28.201 -0.374 -0.885 -0.276
-3.213 6.354 -28.34 -0.889 -0.235 -0.393
-4.367 5.784 -27.456 -0.12 0.145 -0.982
-4.264 7.211 -28.088 -0.189 -0.806 -0.561
-3.084 6.587 -28.616 -0.781 -0.041 -0.623
-4.123 7.464 -28.388 -0.089 -0.626 -0.775
-4.742 7.691 -28.741 0.324 -0.777 -0.539
-2.847 6.901 -28.806 -0.584 0.221 -0.781
-4.451 8.077 -28.975 0.486 -0.563 -0.669
-2.729 7.136 -28.859 -0.662 0.065 -0.746
-2.602 7.361 -28.928 -0.599 0.178 -0.781
-4.33 8.292 -29.041 0.553 -0.443 -0.705
-3.214 8.251 -28.765 -0.191 -0.415 -0.889
-3.18 8.51 -28.871 -0.174 -0.286 -0.942
-4.298 8.54 -29.142 0.571 -0.306 -0.762
-4.235 9.109 -29.535 0.53 -0.685 -0.5
-2.741 9.269 -28.975 0.046 0.094 -0.995
-3.864 9.75 -29.623 0.795 -0.227 -0.563
-2.584 9.487 -28.971 -0.058 -0.051 -0.997
-2.625 10.608 -28.325 -0.093 0.884 -0.459
-3.909 10.969 -28.921 0.763 0.643 -0.062
-2.794 10.712 -28.145 0.02 0.815 -0.579
-1.484 9.856 -28.308 0.858 0.257 -0.445
-1.327 9.744 -28.123 0.753 0.331 -0.568
-0.338 8.783 -28.653 0.094 0.972 -0.215
-0.232 8.795 -28.485 0.169 0.981 -0.094
-1.201 9.759 -27.924 0.816 0.339 -0.469
-0.74 9.368 -27.699 0.508 0.599 -0.619
-0.722 9.798 -26.988 0.518 0.814 -0.263
-1.183 10.189 -27.213 0.825 0.554 -0.113
-0.522 9.756 -26.815 0.384 0.842 -0.378
-0.712 9.9 -26.174 0.226 0.962 0.156
-1.428 10.374 -26.389 0.703 0.646 0.299
-0.967 9.983 -26.164 0.395 0.906 0.149
-2.363 9.115 -24.807 -0.303 0.472 0.828
-2.825 9.506 -25.031 0.004 0.212 0.977
-2.511 8.64 -24.434 -0.205 0.789 0.579
-1.164 8.617 -24.605 0.297 0.224 0.928
-1.498 8.219 -24.264 0.52 0.489 0.701
-1.145 7.781 -24.047 0.284 0.781 0.556
-0.72 8.507 -24.785 0.519 0.168 0.838
-0.701 7.671 -24.227 0.506 0.726 0.466
0.313 7.793 -24.646 -0.17 0.644 0.746
0.597 7.146 -24.35 0.065 0.105 0.992
-0.337 6.838 -23.846 0.688 0.31 0.656
-0.343 6.615 -23.699 0.692 0.458 0.558
-1.299 5.885 -23.188 -0.105 -0.15 0.983
-1.566 5.899 -23.19 0.074 -0.16 0.984
-1.582 4.608 -22.776 0.084 0.701 0.708
-1.611 4.609 -22.774 0.067 0.702 0.709
-1.597 5.9 -23.188 0.058 -0.159 0.985
-2.065 4.959 -22.913 0.37 0.468 0.802
-2.053 4.1 -22.459 -0.193 0.402 0.895
-2.541 4.411 -22.574 0.132 0.195 0.972
-2.198 3.63 -22.154 -0.097 0.715 0.692
-3.062 3.231 -22.19 -0.529 0.516 0.674
-3.405 4.012 -22.61 -0.3 -0.005 0.954
-4.08 3.243 -22.452 0.15 0.508 0.848
-4.087 3.249 -22.454 0.147 0.511 0.847
-3.412 4.018 -22.612 -0.303 -0.002 0.953
-3.963 3.81 -22.666 0.064 0.137 0.989
-3.14 2.518 -21.922 -0.567 0.159 0.808
-4.158 2.53 -22.184 0.111 0.151 0.982
-3.643 2.226 -22.07 -0.231 0.354 0.906
-4.175 0.998 -22.329 -0.544 -0.368 0.754
-4.73 1.209 -22.462 -0.175 -0.509 0.843
-4.072 0.658 -22.364 -0.613 -0.142 0.777
-4.254 0.299 -22.731 -0.764 -0.44 0.471
-4.963 0.748 -22.934 -0.291 -0.74 0.607
-5.431 0.664 -23.119 0.021 -0.683 0.73
-4.043 -0.086 -23.623 -0.588 -0.762 -0.272
-5.202 0.245 -24.088 0.184 -0.982 0.038
-4.692 0.253 -24.081 -0.156 -0.987 0.034
-3.648 -0.052 -24.051 -0.259 -0.733 -0.629
-4.184 0.296 -24.632 0.098 -0.965 -0.242
-3.668 0.149 -24.345 -0.246 -0.867 -0.433
-2.875 0.943 -25.122 0.221 -0.4 -0.889
-3.331 1.15 -25.467 0.525 -0.538 -0.659
-2.313 1.138 -25.205 -0.154 -0.53 -0.834
-2.233 1.806 -25.486 -0.114 -0.197 -0.974
-3.251 1.818 -25.747 0.565 -0.205 -0.8
-3.126 2.379 -25.959 0.482 -0.579 -0.658
-2.215 1.828 -25.492 -0.105 -0.186 -0.977
-3.109 2.401 -25.966 0.491 -0.568 -0.661
-2.558 2.609 -25.912 0.123 -0.706 -0.697
-1.345 2.246 -25.425 0.33 0.023 -0.944
-1.688 3.027 -25.845 0.558 -0.498 -0.664
-1.26 2.813 -25.5 0.273 -0.355 -0.894
-1.216 2.881 -25.511 0.299 -0.315 -0.901
-1.641 3.1 -25.858 0.582 -0.461 -0.67
-0.775 3.907 -26.792 0.005 -0.999 -0.047
-1.496 4.298 -27.259 -0.596 -0.674 -0.437
-2.568 3.602 -26.459 0.118 -0.21 -0.971
-1.714 4.453 -27.256 -0.451 -0.777 -0.439
-0.251 4.05 -26.525 0.441 -0.88 0.175
-0.114 4.134 -26.311 0.35 -0.936 0.033
-0.59 3.052 -25.192 0.668 -0.214 -0.713
-0.079 3.712 -24.284 0.968 0.174 -0.179
0.437 4.845 -25.334 0.625 -0.581 0.521
0.93 5.19 -25.308 0.296 -0.811 0.504
1.263 5.833 -27.091 0.533 -0.352 -0.769
0.83 5.606 -27.444 0.822 -0.201 -0.534
1.09 6.441 -28.136 0.649 -0.758 -0.072
0.549 6.312 -28.603 0.198 -0.865 -0.461
0.135 5.44 -28.044 0.474 -0.283 -0.834
0.166 6.26 -28.808 0.454 -0.83 -0.325
-0.012 6.207 -28.877 0.327 -0.868 -0.374
-0.075 5.377 -28.126 0.369 -0.315 -0.874
-0.328 5.805 -28.55 0.538 -0.6 -0.592
-1.289 7.99 -29.335 -0.586 0.406 -0.702
-1.84 7.916 -29.093 -0.218 0.455 -0.863
-2.453 8.805 -28.93 0.19 -0.138 -0.972
-1.122 8.207 -29.311 -0.466 0.561 -0.684
-2.255 9.063 -28.901 0.289 -0.009 -0.957
-2.206 9.326 -28.913 0.256 -0.185 -0.949
0.528 8.53 -28.024 0.181 0.983 0.021
0.144 8.669 -28.18 0.438 0.891 0.124
-0.296 9.218 -27.337 0.731 0.524 -0.438
0.569 8.519 -27.966 0.215 0.974 0.069
-0.244 9.205 -27.263 0.756 0.517 -0.4
-0.15 9.295 -27.029 0.694 0.457 -0.556
0.912 8.176 -27.419 0.501 0.688 0.525
0.193 8.951 -26.481 0.98 0.171 -0.1
1.027 7.993 -26.026 0.424 0.81 -0.404
0.65 8.117 -25.074 0.11 0.914 0.389
-0.183 9.076 -25.529 0.666 0.275 0.693
-0.287 8.924 -25.335 0.735 0.377 0.563
1.316 7.727 -27.512 0.837 0.314 0.448
1.431 7.544 -26.118 0.76 0.436 -0.481
1.508 7.23 -26.413 0.709 0.646 -0.285
0.883 6.057 -24.69 0.262 -0.192 0.946
0.855 6.464 -24.532 0.281 -0.463 0.841
-0.084 5.934 -23.881 0.907 -0.109 0.406
0.802 5.613 -24.843 0.204 -0.509 0.836
-0.159 5.525 -24.022 0.845 -0.45 0.288
-0.219 4.178 -23.772 0.886 0.448 0.122
-0.239 2.34 -24.465 0.883 0.07 -0.464
-0.232 2.9 -24.607 0.879 -0.303 -0.369
0.349 2.066 -23.911 0.492 0.253 -0.833
-0.064 2.758 -22.266 0.147 0.83 0.538
-0.725 3.728 -22.641 0.588 0.184 0.788
-0.77 3.23 -22.35 0.618 0.516 0.594
-0.069 2.752 -22.256 0.143 0.825 0.546
-0.776 3.223 -22.337 0.614 0.512 0.6
-0.41 2.8 -22.16 0.37 0.794 0.483
-2.075 0.984 -21.716 -0.609 -0.275 0.744
-2.567 1.269 -21.859 -0.281 -0.465 0.84
-3.111 1.065 -22.011 0.082 -0.329 0.941
-2.073 0.915 -21.742 -0.608 -0.315 0.729
-3.109 0.996 -22.036 0.083 -0.369 0.926
-3.18 0.657 -22.12 0.131 -0.143 0.981
-2.066 0.893 -21.746 -0.604 -0.328 0.727
-3.175 0.638 -22.123 0.135 -0.158 0.978
-1.999 0.545 -21.788 -0.649 -0.096 0.755
-1.571 -0.169 -23.488 -0.293 -0.691 -0.661
-2.747 -0.075 -23.823 0.491 -0.753 -0.438
-1.556 0.04 -23.777 -0.303 -0.83 -0.468
-1.556 0.051 -23.796 -0.303 -0.824 -0.479
-2.748 -0.066 -23.838 0.491 -0.745 -0.451
-2.592 0.132 -24.091 0.387 -0.878 -0.283
-1.535 0.083 -23.861 -0.291 -0.805 -0.518
-2.571 0.164 -24.156 0.4 -0.859 -0.321
-1.986 0.3 -24.166 0.01 -0.949 -0.314
0.088 1.966 -24.144 0.664 0.303 -0.684
-0.24 2.326 -24.47 0.882 0.063 -0.466
0.348 2.055 -23.915 0.491 0.244 -0.837
-6.094 7.421 -26.454 -0.482 0.191 0.855
-5.758 7.01 -25.973 -0.706 0.465 0.534
-6.347 6.824 -26.837 -0.768 -0.481 0.423
-6.033 6.362 -26.389 -0.977 -0.173 0.124
-6.385 6.781 -26.943 -0.742 -0.453 0.494
-6.067 6.307 -26.599 -0.955 -0.136 0.265
-6.031 5.792 -26.177 -0.978 0.207 -0.017
-6.193 6.538 -27.363 -0.406 -0.88 -0.245
-5.92 6.121 -26.921 -0.588 -0.602 -0.54
-5.821 5.525 -26.639 -0.654 -0.205 -0.728
-6.088 6.495 -27.405 -0.476 -0.852 -0.217
-5.752 6.005 -27.005 -0.7 -0.525 -0.484
-6.067 6.739 -28.298 0.228 -0.953 -0.201
-5.688 6.53 -27.728 -0.025 -0.813 -0.582
-5.317 6.043 -27.356 -0.272 -0.488 -0.829
-5.039 5.389 -27.268 -0.457 -0.052 -0.888
-5.258 6.788 -27.849 0.46 -0.522 -0.718
-4.85 6.323 -27.488 0.188 -0.212 -0.959
-4.926 7.268 -28.2 0.239 -0.842 -0.484
-4.894 7.383 -28.35 0.267 -0.738 -0.619
-5.769 7.654 -29.201 0.44 -0.3 -0.846
-5.208 8.061 -29.243 0.066 -0.571 -0.818
-5.879 8.783 -29.467 -0.18 -0.262 -0.948
-6.452 9.308 -29.172 -0.701 0.216 -0.679
-7.258 9.042 -28.526 -0.623 0.692 -0.365
-6.889 9.63 -28.481 -0.868 0.3 -0.395
-7.397 9.03 -27.872 -0.722 0.684 0.103
-7.047 9.617 -27.742 -0.956 0.293 0.016
-7.313 8.792 -27.252 -0.662 0.514 0.546
-6.951 9.348 -27.041 -0.903 0.143 0.405
-7.023 8.383 -26.808 -0.455 0.222 0.863
-6.624 8.886 -26.54 -0.721 -0.113 0.684
-6.661 9.9 -28.667 -0.742 0.45 -0.498
-6.327 10.313 -29.114 -0.964 0.175 -0.199
-6.522 10.368 -28.19 -0.664 0.71 -0.233
-6.204 10.727 -28.693 -0.876 0.471 0.102
-6.122 10.704 -27.751 -0.442 0.897 0.011
-5.85 11.024 -28.303 -0.624 0.683 0.38
-5.537 10.845 -27.43 -0.117 0.975 0.19
-5.332 11.149 -28.019 -0.254 0.772 0.583
-4.316 10.69 -27.125 -0.122 0.979 0.162
-4.481 10.474 -26.602 -0.223 0.848 0.481
-4.393 10.448 -26.501 -0.282 0.866 0.414
-4.531 9.978 -26.066 -0.403 0.455 0.794
-4.648 9.908 -26.077 -0.325 0.502 0.802
-5.284 9.417 -26.001 0.024 0.182 0.983
-4.707 9.401 -25.896 -0.361 0.192 0.913
-4.213 9.429 -25.581 -0.69 0.174 0.703
-4.713 8.86 -25.882 -0.365 -0.138 0.921
-5.061 8.192 -25.915 -0.133 0.307 0.943
-4.875 7.634 -25.533 -0.256 0.679 0.688
-5.731 7.786 -26.203 -0.724 -0.052 0.688
-5.56 7.219 -25.828 -0.838 0.326 0.437
-4.437 7.675 -25.286 -0.548 0.652 0.524
-4.241 8.218 -25.513 -0.679 0.289 0.675
-4.123 7.661 -25.047 -0.324 0.642 0.695
-3.927 8.205 -25.274 -0.455 0.28 0.845
-3.812 7.569 -24.713 -0.532 0.703 0.472
-3.443 7.159 -24.16 -0.262 0.403 0.877
-5.524 5.843 -24.105 -0.699 0.175 0.694
-5.793 5.34 -24.093 -0.519 0.51 0.686
-5.867 5.985 -24.639 -0.87 0.246 0.426
-6.112 5.473 -24.59 -0.707 0.588 0.394
-6.051 5.985 -25.263 -0.963 0.246 0.114
-6.284 5.472 -25.17 -0.807 0.588 0.052
-5.781 4.683 -23.814 -0.512 0.124 0.85
-5.495 4.297 -23.44 -0.703 0.381 0.601
-5.933 3.736 -23.837 -0.801 0.211 0.56
-6.175 3.473 -24.253 -0.953 0.046 0.299
-6.228 3.218 -24.302 -0.919 0.216 0.331
-6.417 3.684 -25.274 -0.886 -0.464 -0.009
-6.287 2.981 -24.936 -0.972 0.004 -0.235
-6.563 2.28 -24.695 -0.788 0.472 -0.396
-5.95 2.711 -25.46 -0.671 -0.237 -0.703
-5.841 2.862 -25.648 -0.743 -0.338 -0.577
-5.381 2.792 -26.01 -0.454 -0.382 -0.805
-5.058 3.47 -26.624 -0.086 -0.59 -0.803
-4.717 2.992 -26.463 -0.313 -0.272 -0.91
-5.055 4.128 -26.917 -0.085 -0.203 -0.975
-4.73 4.539 -27.143 -0.302 -0.477 -0.825
-5.522 4.503 -26.845 -0.359 0.018 -0.933
-5.232 4.942 -27.065 -0.553 -0.275 -0.787
-2.57 4.613 -26.969 -0.065 -0.738 -0.672
-2.662 4.855 -27.173 -0.125 -0.581 -0.804
-2.807 5.12 -27.402 -0.028 -0.758 -0.652
-2.96 5.251 -27.519 -0.131 -0.67 -0.731
-3.071 5.336 -27.589 -0.057 -0.727 -0.684
-3.66 6.081 -27.722 -0.591 -0.052 -0.805
-4.275 6.583 -27.573 -0.181 -0.387 -0.904
-4.285 6.584 -27.572 -0.189 -0.386 -0.903
-3.636 6.881 -28.124 -0.607 -0.586 -0.537
-3.521 7.088 -28.37 -0.49 -0.376 -0.787
-4.109 7.523 -28.44 -0.098 -0.665 -0.74
-3.51 7.124 -28.394 -0.497 -0.399 -0.771
-3.917 7.779 -28.594 0.129 -0.364 -0.922
-3.337 7.354 -28.533 -0.257 -0.081 -0.963
-3.862 7.883 -28.633 0.093 -0.433 -0.896
-3.242 7.544 -28.591 -0.32 -0.207 -0.924
-3.767 8.052 -28.685 0.178 -0.283 -0.943
-3.145 7.716 -28.644 -0.237 -0.059 -0.97
-3.795 8.325 -28.804 0.196 -0.465 -0.863
-3.764 8.561 -28.901 0.215 -0.32 -0.922
-5.024 8.478 -29.437 0.168 -0.34 -0.925
-4.878 9.054 -29.796 0.071 -0.724 -0.686
-3.742 8.902 -29.065 0.201 -0.547 -0.813
-3.383 9.523 -29.151 0.474 -0.075 -0.877
-3.304 9.649 -29.128 0.422 -0.159 -0.893
-3.786 10.467 -29.453 0.851 0.285 -0.441
-3.242 10.222 -28.992 0.488 0.449 -0.749
-2.512 10.147 -28.815 0.002 0.499 -0.867
-3.34 10.623 -28.567 0.384 0.874 -0.298
-3.426 10.702 -28.472 0.441 0.822 -0.361
-4.273 11.19 -28.381 0.503 0.801 0.325
-3.779 10.915 -27.949 0.173 0.984 0.037
-3.225 10.973 -27.505 -0.196 0.946 -0.259
-4.236 10.806 -27.477 -0.175 0.901 0.396
-1.824 10.593 -27.823 0.504 0.755 -0.419
-1.871 10.516 -28.075 0.536 0.807 -0.25
-0.927 9.118 -28.301 0.487 0.749 -0.45
-0.827 9.13 -28.141 0.566 0.758 -0.324
-1.813 10.284 -25.755 0.51 0.601 0.616
-1.352 9.893 -25.53 0.203 0.861 0.466
-2.302 9.979 -25.279 0.265 0.449 0.853
-1.841 9.588 -25.055 -0.042 0.709 0.704
-1.975 8.525 -24.288 0.179 0.707 0.684
-1.729 8.98 -24.633 0.014 0.405 0.914
-1.965 8.057 -23.972 0.186 0.373 0.909
-1.697 7.589 -23.702 0.008 0.685 0.729
-2.498 7.853 -23.909 -0.195 0.227 0.954
-2.328 7.348 -23.627 -0.308 0.564 0.766
-0.213 7.654 -24.505 0.18 0.737 0.652
0.087 6.969 -24.192 0.405 0.223 0.887
-1.135 6.748 -23.319 0.289 0.265 0.92
-0.964 6.545 -23.288 0.174 0.4 0.9
-1.588 5.204 -23.137 0.088 0.303 0.949
-1.615 5.205 -23.135 0.07 0.304 0.95
-2.192 6.187 -23.217 -0.239 -0.016 0.971
-2.66 5.246 -22.943 0.073 0.612 0.788
-3.605 4.568 -22.768 -0.4 0.273 0.875
-4.156 4.36 -22.822 -0.033 0.412 0.911
-4.693 3.929 -22.777 -0.302 0.197 0.933
-4.817 3.368 -22.565 -0.219 0.571 0.792
-5.348 3.937 -23.14 -0.629 0.2 0.751
-5.472 3.376 -22.928 -0.546 0.574 0.61
-4.51 1.869 -22.185 -0.065 -0.179 0.982
-3.971 1.611 -22.07 -0.424 -0.007 0.906
-5.332 1.409 -22.591 -0.476 -0.409 0.779
-5.743 1.222 -22.829 -0.202 -0.284 0.937
-5.737 2.129 -22.682 -0.679 -0.049 0.733
-6.085 1.83 -22.906 -0.447 0.15 0.882
-6.065 2.706 -23.183 -0.842 0.24 0.483
-6.362 2.318 -23.329 -0.644 0.498 0.58
-4.782 0.572 -23.022 -0.412 -0.623 0.666
-4.59 0.221 -23.836 -0.224 -0.966 -0.129
-5.283 0.381 -24.768 0.127 -0.885 -0.448
-4.788 0.414 -24.887 -0.204 -0.907 -0.369
-5.522 0.8 -25.274 -0.044 -0.586 -0.809
-5.07 0.91 -25.485 -0.345 -0.659 -0.669
-5.852 1.386 -25.464 -0.28 -0.167 -0.945
-5.461 1.603 -25.71 -0.541 -0.312 -0.781
-3.761 0.617 -25.161 0.31 -0.805 -0.506
-3.274 0.448 -24.837 -0.014 -0.692 -0.722
-3.929 1.85 -26.06 0.225 -0.188 -0.956
-3.805 2.411 -26.272 0.142 -0.562 -0.814
-4.662 1.992 -26.114 -0.141 -0.118 -0.983
-4.538 2.553 -26.326 -0.224 -0.492 -0.842
-2.703 2.142 -25.619 0.2 -0.42 -0.885
-2.687 2.162 -25.625 0.209 -0.408 -0.889
-3.248 2.86 -26.326 0.421 -0.338 -0.842
-2.697 3.068 -26.273 0.054 -0.477 -0.877
-1.277 3.675 -26.24 0.34 -0.844 -0.415
-1.976 4.054 -26.694 -0.276 -0.511 -0.814
-2.106 4.132 -26.708 -0.19 -0.563 -0.804
-2.247 4.244 -26.74 -0.28 -0.492 -0.825
-0.825 4.755 -27.937 -0.006 -0.626 -0.78
-0.805 4.533 -27.789 -0.02 -0.478 -0.878
0.16 4.559 -27.356 0.486 -0.724 -0.489
-0.039 4.38 -27.337 0.619 -0.605 -0.502
-0.497 3.758 -25.654 0.606 -0.685 -0.405
0.288 4.424 -25.846 0.55 -0.792 0.266
-0.17 3.993 -25.275 0.856 -0.505 -0.115
-0.217 3.321 -24.76 0.887 -0.056 -0.459
-0.049 4.337 -24.858 0.948 -0.242 0.204
0.684 4.706 -26.117 0.748 -0.65 0.13
1.139 5.073 -25.97 0.445 -0.895 0.031
0.828 4.984 -26.889 0.82 -0.511 -0.256
1.261 5.308 -26.622 0.532 -0.727 -0.434
0.875 6.079 -27.755 0.792 -0.516 -0.326
0.303 5.943 -28.248 0.362 -0.618 -0.697
0.096 5.915 -28.358 0.5 -0.6 -0.624
-0.084 5.861 -28.428 0.375 -0.638 -0.673
-0.701 5.02 -28.113 0.056 -0.493 -0.868
-0.954 5.448 -28.537 0.225 -0.779 -0.585
-1.365 4.836 -27.902 -0.276 -0.585 -0.762
-1.618 5.264 -28.326 -0.107 -0.871 -0.48
-0.909 5.995 -29.019 0.248 -0.505 -0.827
-0.502 6.367 -29.273 -0.023 -0.753 -0.657
-1.425 6.493 -29.299 -0.011 -0.256 -0.967
-0.938 6.788 -29.51 -0.335 -0.453 -0.826
-1.761 7.186 -29.326 -0.179 0.09 -0.98
-1.222 7.373 -29.532 -0.538 -0.035 -0.842
-1.827 8.368 -28.946 -0.227 0.154 -0.962
-1.669 8.574 -28.922 -0.102 0.317 -0.943
-1.635 8.715 -28.886 -0.124 0.223 -0.967
-1.043 9.15 -28.39 0.564 0.728 -0.39
0.372 6.724 -29.228 0.601 -0.499 -0.625
0.739 6.739 -28.989 0.357 -0.509 -0.784
0.488 7.356 -29.373 0.683 -0.047 -0.729
0.845 7.322 -29.123 0.445 -0.024 -0.895
0.482 7.994 -29.207 0.679 0.409 -0.61
0.84 7.909 -28.97 0.44 0.466 -0.768
0.356 8.473 -28.772 0.589 0.75 -0.299
0.724 8.349 -28.569 0.344 0.833 -0.434
0.045 8.756 -27.648 0.504 0.833 -0.23
0.086 8.745 -27.588 0.536 0.824 -0.183
0.118 8.763 -27.449 0.515 0.811 -0.276
0.404 8.477 -26.993 0.839 0.487 0.241
0.484 8.384 -26.208 0.786 0.55 -0.282
0.164 8.49 -25.399 0.435 0.666 0.606
0.117 8.421 -25.278 0.466 0.712 0.525
-0.23 8.087 -24.838 0.192 0.448 0.873
0.877 7.935 -26.735 0.524 0.849 0.068
1.214 7.56 -26.812 0.905 0.425 -0.019
1.712 7.135 -25.52 0.995 0.096 0.017
1.814 6.786 -25.763 0.927 0.329 0.179
1.489 6.716 -24.905 0.809 -0.253 0.53
1.572 6.331 -25.094 0.754 0.004 0.657
0.295 6.243 -24.302 0.655 -0.315 0.687
0.069 6.837 -24.143 0.417 0.31 0.854
0.309 6.019 -24.39 0.645 -0.166 0.746
0.24 5.643 -24.52 0.579 -0.529 0.62
-0.351 4.852 -23.935 0.973 -0.001 0.231
-0.574 5.704 -23.393 0.499 -0.301 0.812
-0.747 5.022 -23.335 0.614 0.153 0.774
-0.716 4.391 -23.021 0.594 0.574 0.564
-1.438 5.195 -23.14 -0.011 0.31 0.951
-0.167 4.65 -24.353 0.85 0.133 0.509
0.205 5.172 -24.742 0.603 -0.215 0.769
-0.074 4.341 -24.691 0.965 -0.246 0.093
0.293 4.879 -25.064 0.72 -0.604 0.341
1.302 7.41 -26.974 0.846 0.525 0.089
1.665 6.503 -26.794 0.821 0.126 -0.557
1.436 6.789 -27.3 0.973 -0.064 -0.22
1.46 7.058 -27.863 0.957 -0.244 0.155
1.092 6.216 -27.553 0.647 -0.607 -0.461
-0.638 3.53 -25.548 0.699 -0.533 -0.476
-0.518 3.882 -26.017 0.62 -0.768 -0.163
-1.116 3.4 -25.792 0.233 -0.661 -0.714
-0.961 3.761 -26.242 0.129 -0.901 -0.413
-0.657 2.801 -25.151 0.628 -0.362 -0.689
-0.696 2.233 -25.05 0.654 0.017 -0.756
-0.041 2.487 -24.172 0.751 -0.028 -0.659
-0.026 3.457 -24.031 0.999 0.024 -0.03
0.129 2.946 -23.696 0.896 0.365 -0.253
0.521 2.531 -23.429 0.635 0.641 -0.432
-0.213 3.769 -23.288 0.89 0.208 0.407
-0.025 3.204 -23.084 0.765 0.585 0.27
0.365 2.793 -22.808 0.505 0.859 0.086
-0.448 3.17 -22.549 0.403 0.556 0.727
-1.358 3.957 -22.411 0.216 0.318 0.923
-1.45 3.477 -22.103 0.277 0.639 0.718
-1.271 2.956 -21.839 0.367 0.378 0.85
-0.87 2.552 -21.697 0.1 0.648 0.755
-1.791 2.485 -21.57 0.107 0.143 0.984
-1.354 2.114 -21.447 -0.185 0.39 0.902
-2.249 1.889 -21.577 -0.122 -0.155 0.98
-1.779 1.56 -21.454 -0.435 0.064 0.898
-2.862 1.896 -21.757 -0.429 -0.151 0.891
-3.385 1.648 -21.916 -0.08 0.014 0.997
-2.594 0.817 -22.047 -0.26 -0.25 0.933
-2.589 0.799 -22.051 -0.256 -0.265 0.93
-2.55 0.61 -22.08 -0.281 -0.139 0.949
-3.127 -0.019 -22.473 0.175 -0.706 0.687
-2.508 0.031 -22.388 -0.238 -0.739 0.63
-1.951 -0.112 -22.138 -0.609 -0.644 0.463
-2.959 -0.3 -23.143 0.315 -0.94 0.128
-2.36 -0.216 -22.978 -0.084 -0.996 0.018
-1.783 -0.394 -22.808 -0.469 -0.878 -0.095
-2.174 -0.018 -23.576 0.109 -0.791 -0.602
-2.164 0.09 -23.738 0.103 -0.863 -0.494
-2.165 0.099 -23.754 0.102 -0.856 -0.507
-2.679 0.47 -24.72 0.336 -0.679 -0.653
-2.103 0.629 -24.773 -0.049 -0.785 -0.618
-1.481 0.607 -24.629 0.262 -0.796 -0.546
-1.065 0.368 -24.291 -0.015 -0.637 -0.771
-0.966 1.106 -24.851 0.52 -0.546 -0.657
-0.586 0.832 -24.498 0.267 -0.364 -0.892
-0.528 1.713 -24.795 0.739 -0.243 -0.629
-0.179 1.397 -24.446 0.506 -0.032 -0.862
0.581 1.41 -23.711 0.685 -0.294 -0.667
0.367 1.195 -23.9 0.828 -0.151 -0.541
0.68 1.021 -23.118 0.768 -0.617 -0.172
0.485 0.731 -23.191 0.897 -0.424 -0.124
0.599 1.069 -22.408 0.7 -0.578 0.419
0.389 0.787 -22.343 0.841 -0.39 0.375
0.376 1.53 -21.908 0.514 -0.193 0.835
0.122 1.339 -21.745 0.684 -0.066 0.727
0.113 2.193 -21.848 0.295 0.359 0.886
-0.193 2.131 -21.674 0.499 0.4 0.769
-0.741 -0.092 -23.63 0.176 -0.907 -0.382
-0.89 -0.279 -23.364 0.275 -0.783 -0.559
-0.164 -0.005 -23.029 0.515 -0.857 -0.028
-0.407 -0.207 -22.862 0.677 -0.722 -0.14
-0.078 0.262 -22.239 0.566 -0.7 0.436
-0.335 0.017 -22.201 0.738 -0.536 0.411
-0.521 0.591 -21.609 0.305 -0.506 0.807
-0.706 0.292 -21.674 0.429 -0.306 0.85
-1.298 0.838 -21.416 -0.152 -0.361 0.92
-1.356 0.499 -21.513 -0.113 -0.134 0.984
-2.12 6.12 -29.01 -0.358 -0.443 -0.822
-2.373 6.112 -28.924 -0.189 -0.437 -0.879
-3.459 9.585 -25.154 -0.313 0.251 0.916
-3.436 9.849 -25.193 -0.328 0.076 0.942
-2.507 9.93 -25.204 0.163 0.424 0.891
-2.696 10.117 -25.232 0.289 0.299 0.909
-2.293 10.656 -25.877 0.27 0.787 0.554
-2.529 10.682 -25.755 0.428 0.77 0.473
-3.041 11.002 -26.467 -0.104 0.96 0.26
-3.111 10.951 -26.214 -0.057 0.994 0.091
-4.568 7.066 -27.865 0 -0.707 -0.707
-4.686 8.344 -25.852 -0.383 0.206 0.901
-3.973 6.866 -27.846 -0.383 -0.576 -0.722
-3.973 6.311 -27.578 -0.383 -0.206 -0.901
-6.074 7.222 -29.083 0.223 -0.608 -0.762
-6.698 6.843 -28.608 -0.223 -0.878 -0.423
-6.698 7.222 -29.083 -0.223 -0.608 -0.762
-6.698 7.769 -29.347 -0.223 -0.217 -0.95
-7.259 7.917 -26.933 -0.623 -0.111 0.774
-7.259 7.356 -27.189 -0.623 -0.512 0.591
-7.259 7.023 -27.708 -0.623 -0.75 0.22
-7.259 7.023 -28.324 -0.623 -0.75 -0.22
-7.259 7.356 -28.843 -0.623 -0.512 -0.591
-7.259 7.917 -29.099 -0.623 -0.111 -0.774
-7.259 8.528 -29.012 -0.623 0.325 -0.711
-7.647 8.68 -28.016 -0.901 0.434 0
-7.647 8.377 -27.49 -0.901 0.217 0.376
-7.647 7.769 -27.49 -0.901 -0.217 0.376
-7.647 7.466 -28.016 -0.901 -0.434 -0
-7.647 7.769 -28.542 -0.901 -0.217 -0.376
-7.647 8.377 -28.542 -0.901 0.217 -0.376
-7.786 8.073 -28.016 -1 0 0
-4.744 6.994 -24.324 -0.309 0.751 0.584
-4.744 6.533 -23.9 -0.309 0.52 0.796
-4.744 5.96 -23.648 -0.309 0.233 0.922
-5.302 6.637 -24.348 -0.588 0.572 0.572
-5.302 6.112 -23.997 -0.588 0.31 0.747
-5.744 6.511 -24.904 -0.809 0.509 0.294
-5.761 3.737 -26.534 -0.5 -0.433 -0.75
-5.761 4.319 -26.723 -0.5 -0.091 -0.861
-6.213 4.927 -24.265 -0.766 0.267 0.585
-6.213 3.757 -26.085 -0.766 -0.421 -0.486
-6.213 4.317 -26.341 -0.766 -0.091 -0.636
-6.508 5.054 -25.259 -0.94 0.342 0
-6.508 4.764 -24.755 -0.94 0.171 0.296
-6.508 4.182 -25.763 -0.94 -0.171 -0.296
-6.508 4.764 -25.763 -0.94 0.171 -0.296
-6.611 4.473 -25.259 -1 0 0
-4.126 4.493 -27.224 -0 -0.5 -0.866
-4.104 9.912 -29.918 0.623 -0.111 -0.774
-4.104 10.523 -29.831 0.623 0.325 -0.711
-4.104 10.989 -29.427 0.623 0.658 -0.423
-4.665 11.433 -28.835 0.223 0.975 0
-4.665 9.764 -30.166 0.223 -0.217 -0.95
-4.665 10.372 -30.166 0.223 0.217 -0.95
-4.665 10.919 -29.902 0.223 0.608 -0.762
-4.665 11.298 -29.427 0.223 0.878 -0.423
-5.289 11.433 -28.835 -0.223 0.975 0
-5.289 9.764 -30.166 -0.223 -0.217 -0.95
-5.289 10.372 -30.166 -0.223 0.217 -0.95
-5.289 10.919 -29.902 -0.223 0.608 -0.762
-5.289 11.298 -29.427 -0.223 0.878 -0.423
-5.85 11.163 -28.835 -0.623 0.782 0
-5.85 9.912 -29.918 -0.623 -0.111 -0.774
-5.85 10.523 -29.831 -0.623 0.325 -0.711
-5.85 10.989 -29.427 -0.623 0.658 -0.423
-5.639 10.448 -26.632 -0.174 0.754 0.633
-5.639 9.976 -26.236 -0.174 0.492 0.853
-5.639 9.398 -26.025 -0.174 0.171 0.97
-6.226 10.53 -27.174 -0.5 0.8 0.331
-6.226 10.192 -26.669 -0.5 0.612 0.612
-6.226 9.687 -26.331 -0.5 0.331 0.8
-6.226 9.09 -26.212 -0.5 -0 0.866
-6.705 10.247 -27.771 -0.766 0.643 0
-6.705 10.092 -27.192 -0.766 0.557 0.321
-6.705 9.669 -26.769 -0.766 0.321 0.557
-1.657 10.7 -26.986 0.588 0.809 0
-2.215 10.984 -26.986 0.309 0.951 0
-2.833 11.082 -26.986 -0 1 0
-3.043 10.821 -25.765 -0 0.885 0.465
-3.043 10.44 -25.335 -0 0.568 0.823
-3.643 10.632 -25.761 -0.5 0.729 0.468
-3.643 10.19 -25.378 -0.5 0.36 0.788
-2.537 8.386 -24.178 -0.223 0.608 0.762
-1.095 7.259 -23.567 0.309 0.52 0.796
-1.713 6.95 -23.297 -0 0.365 0.931
-2.331 6.686 -23.315 -0.309 0.233 0.922
-2.805 4.753 -22.656 -0 0.365 0.931
-4.998 2.694 -22.304 -0.309 0.233 0.922
-4.998 2.07 -22.252 -0.309 -0.079 0.948
-4.998 1.463 -22.406 -0.309 -0.382 0.871
-5.556 2.846 -22.653 -0.588 0.31 0.747
-5.772 0.39 -23.549 -0.223 -0.878 0.423
-5.772 0.255 -24.141 -0.223 -0.975 0
-5.772 0.39 -24.733 -0.223 -0.878 -0.423
-6.333 1.464 -23.058 -0.623 -0.111 0.774
-6.333 0.903 -23.314 -0.623 -0.512 0.591
-6.333 0.57 -23.833 -0.623 -0.75 0.22
-6.333 0.57 -24.449 -0.623 -0.75 -0.22
-6.333 0.903 -24.968 -0.623 -0.512 -0.591
-6.333 1.464 -25.224 -0.623 -0.111 -0.774
-6.721 1.924 -23.615 -0.901 0.217 0.376
-6.721 1.316 -23.615 -0.901 -0.217 0.376
-6.721 1.013 -24.141 -0.901 -0.434 -0
-6.721 1.316 -24.667 -0.901 -0.217 -0.376
-6.721 1.924 -24.667 -0.901 0.217 -0.376
-6.86 1.62 -24.141 -1 0 0
-3.762 1.463 -25.89 0.309 -0.382 -0.871
-4.38 0.425 -25.016 -0 -0.901 -0.434
-4.38 0.761 -25.508 -0 -0.733 -0.68
-4.38 1.227 -25.88 -0 -0.5 -0.866
-4.998 1.463 -25.89 -0.309 -0.382 -0.871
0.363 4.863 -27.521 0.588 -0.572 -0.572
-1.404 5.54 -28.726 -0 -0.733 -0.68
-2.022 6.849 -29.262 -0.309 -0.079 -0.948
-2.746 5.955 -28.654 -0.5 -0.567 -0.654
-1.914 10.422 -28.337 0.5 0.729 -0.468
-0.157 6.571 -29.42 0.223 -0.608 -0.762
-0.157 7.118 -29.684 0.223 -0.217 -0.95
-0.157 7.726 -29.684 0.223 0.217 -0.95
-0.157 8.273 -29.42 0.223 0.608 -0.762
-0.781 7.118 -29.684 -0.223 -0.217 -0.95
-0.781 7.726 -29.684 -0.223 0.217 -0.95
0.056 9.346 -26.361 0.866 0.5 0
-1.139 9.671 -25.294 0.309 0.751 0.584
-1.139 9.21 -24.87 0.309 0.52 0.796
1.557 7.62 -25.541 0.866 0.5 0
1.557 7.32 -25.021 0.866 0.25 0.433
1.118 7.894 -24.979 0.5 0.729 0.468
1.118 7.452 -24.596 0.5 0.36 0.788
1.118 6.872 -24.512 0.5 -0.123 0.857
-2.005 2.93 -21.676 -0 0.365 0.931
-2.623 2.666 -21.694 -0.309 0.233 0.922
-3.337 -0.337 -23.01 -0 -0.971 0.239
-3.337 -0.337 -23.584 -0 -0.971 -0.239
-3.937 0.147 -22.512 -0.5 -0.567 0.654
-3.937 -0.169 -23.004 -0.5 -0.831 0.244
-1.387 1.435 -25.28 0.309 -0.382 -0.871
-0.781 4.208 -27.531 -0 -0.749 -0.663
1.916 6.326 -26.014 1 0 0
1.777 6.022 -25.488 0.901 -0.217 0.376
1.777 5.719 -26.014 0.901 -0.434 -0
1.777 6.022 -26.54 0.901 -0.217 -0.376
1.389 5.609 -25.187 0.623 -0.512 0.591
1.389 5.276 -25.706 0.623 -0.75 0.22
1.35 7.95 -28.049 0.866 0.5 0
1.35 7.05 -28.569 0.866 -0.25 -0.433
1.35 7.65 -28.569 0.866 0.25 -0.433
0.959 1.762 -22.911 1 0 0
0.798 2.362 -22.911 0.866 0.5 0
0.798 2.062 -22.391 0.866 0.25 0.433
0.798 1.462 -22.391 0.866 -0.25 0.433
0.798 1.462 -23.431 0.866 -0.25 -0.433
0.798 2.062 -23.431 0.866 0.25 -0.433
0.262 0.403 -22.673 0.766 -0.617 0.181
0.262 0.403 -23.289 0.766 -0.617 -0.181
-0.19 1.297 -21.517 0.5 -0.091 0.861
-0.19 0.26 -23.846 0.5 -0.701 -0.509
-0.19 0.715 -24.256 0.5 -0.433 -0.75
-0.745 2.197 -21.482 0.174 0.439 0.882
-0.745 1.605 -21.314 0.174 0.091 0.981
-1.335 1.605 -21.314 -0.174 0.091 0.981
-0.62 -0.337 -22.401 0.5 -0.831 0.244
-1.22 -0.238 -21.898 -0 -0.749 0.663
-1.22 -0.505 -22.407 -0 -0.971 0.239
-1.22 -0.505 -22.981 -0 -0.971 -0.239
3 0 4 240
3 240 4 242
3 240 242 241
3 241 242 243
3 241 243 1
3 1 243 3
3 4 7 244
3 244 7 247
3 244 247 245
3 245 247 248
3 245 248 246
3 246 248 249
3 246 249 5
3 5 249 6
3 7 252 250
3 250 252 253
3 250 253 251
3 251 253 254
3 251 254 8
3 8 254 255
3 252 10 253
3 253 10 256
3 253 256 254
3 254 256 257
3 254 257 255
3 255 257 9
3 10 13 258
3 258 13 259
3 258 259 11
3 11 259 12
3 13 260 14
3 14 260 261
3 260 16 261
3 261 16 15
3 16 19 262
3 262 19 263
3 262 263 17
3 17 263 18
3 19 264 20
3 20 264 265
3 264 266 265
3 265 266 267
3 266 268 267
3 267 268 269
3 268 270 269
3 269 270 271
3 270 0 271
3 271 0 2
3 20 272 18
3 18 272 273
3 272 274 273
3 273 274 275
3 274 276 275
3 275 276 277
3 276 278 277
3 277 278 279
3 278 22 279
3 279 22 21
3 22 25 280
3 280 25 281
3 280 281 23
3 23 281 24
3 25 28 282
3 282 28 283
3 282 283 26
3 26 283 27
3 28 285 284
3 284 285 286
3 284 286 29
3 29 286 287
3 285 31 286
3 286 31 288
3 286 288 287
3 287 288 30
3 31 2 289
3 289 2 291
3 289 291 290
3 290 291 292
3 290 292 32
3 32 292 1
3 32 34 293
3 293 34 295
3 293 295 294
3 294 295 296
3 294 296 30
3 30 296 33
3 34 37 297
3 297 37 298
3 297 298 35
3 35 298 36
3 37 40 38
3 38 40 39
3 40 43 41
3 41 43 42
3 43 46 44
3 44 46 45
3 46 299 47
3 47 299 300
3 299 301 300
3 300 301 302
3 301 303 302
3 302 303 304
3 303 3 304
3 304 3 5
3 47 305 45
3 45 305 306
3 305 49 306
3 306 49 48
3 49 52 307
3 307 52 308
3 307 308 50
3 50 308 51
3 52 310 309
3 309 310 311
3 309 311 53
3 53 311 312
3 310 55 311
3 311 55 313
3 311 313 312
3 312 313 54
3 55 58 314
3 314 58 315
3 314 315 56
3 56 315 57
3 58 316 59
3 59 316 317
3 316 61 317
3 317 61 60
3 61 318 62
3 62 318 319
3 318 320 319
3 319 320 321
3 320 6 321
3 321 6 8
3 62 64 60
3 60 64 63
3 64 67 65
3 65 67 66
3 67 70 322
3 322 70 323
3 322 323 68
3 68 323 69
3 70 73 324
3 324 73 325
3 324 325 71
3 71 325 72
3 73 76 326
3 326 76 327
3 326 327 74
3 74 327 75
3 76 9 328
3 328 9 329
3 328 329 77
3 77 329 11
3 77 79 330
3 330 79 331
3 330 331 75
3 75 331 78
3 79 12 80
3 80 12 14
3 80 82 332
3 332 82 334
3 332 334 333
3 333 334 335
3 333 335 78
3 78 335 81
3 82 85 336
3 336 85 338
3 336 338 337
3 337 338 339
3 337 339 83
3 83 339 84
3 85 88 340
3 340 88 341
3 340 341 86
3 86 341 87
3 88 342 89
3 89 342 343
3 342 15 343
3 343 15 17
3 89 91 344
3 344 91 345
3 344 345 87
3 87 345 90
3 91 347 346
3 346 347 348
3 346 348 92
3 92 348 349
3 347 94 348
3 348 94 350
3 348 350 349
3 349 350 93
3 94 352 351
3 351 352 353
3 351 353 95
3 95 353 354
3 352 21 353
3 353 21 355
3 353 355 354
3 354 355 23
3 95 356 93
3 93 356 357
3 356 97 357
3 357 97 96
3 97 100 358
3 358 100 359
3 358 359 98
3 98 359 99
3 100 103 101
3 101 103 102
3 103 106 104
3 104 106 105
3 106 360 107
3 107 360 361
3 360 362 361
3 361 362 363
3 362 109 363
3 363 109 108
3 109 33 110
3 110 33 35
3 110 364 108
3 108 364 365
3 364 112 365
3 365 112 111
3 112 366 113
3 113 366 367
3 366 368 367
3 367 368 369
3 368 36 369
3 369 36 38
3 113 115 111
3 111 115 114
3 115 118 370
3 370 118 371
3 370 371 116
3 116 371 117
3 118 372 119
3 119 372 373
3 372 121 373
3 373 121 120
3 121 124 374
3 374 124 375
3 374 375 122
3 122 375 123
3 124 376 125
3 125 376 377
3 376 39 377
3 377 39 41
3 125 127 123
3 123 127 126
3 127 130 128
3 128 130 129
3 130 133 131
3 131 133 132
3 133 378 134
3 134 378 379
3 378 42 379
3 379 42 44
3 134 380 132
3 132 380 381
3 380 382 381
3 381 382 383
3 382 48 383
3 383 48 50
3 131 136 129
3 129 136 135
3 136 384 137
3 137 384 385
3 384 139 385
3 385 139 138
3 139 142 140
3 140 142 141
3 142 386 143
3 143 386 387
3 386 388 387
3 387 388 389
3 388 390 389
3 389 390 391
3 390 51 391
3 391 51 53
3 143 145 392
3 392 145 393
3 392 393 141
3 141 393 144
3 145 394 146
3 146 394 395
3 394 396 395
3 395 396 397
3 396 398 397
3 397 398 399
3 398 54 399
3 399 54 56
3 146 148 144
3 144 148 147
3 148 400 149
3 149 400 401
3 400 151 401
3 401 151 150
3 151 154 152
3 152 154 153
3 154 402 155
3 155 402 403
3 402 404 403
3 403 404 405
3 404 57 405
3 405 57 59
3 155 157 406
3 406 157 407
3 406 407 153
3 153 407 156
3 157 408 158
3 158 408 409
3 408 63 409
3 409 63 65
3 158 160 156
3 156 160 159
3 160 163 161
3 161 163 162
3 163 166 410
3 410 166 411
3 410 411 164
3 164 411 165
3 166 66 412
3 412 66 413
3 412 413 167
3 167 413 68
3 167 414 165
3 165 414 415
3 414 416 415
3 415 416 417
3 416 169 417
3 417 169 168
3 169 419 418
3 418 419 420
3 418 420 170
3 170 420 421
3 419 172 420
3 420 172 422
3 420 422 421
3 421 422 171
3 172 423 173
3 173 423 424
3 423 425 424
3 424 425 426
3 425 175 426
3 426 175 174
3 175 178 427
3 427 178 428
3 427 428 176
3 176 428 177
3 178 181 429
3 429 181 430
3 429 430 179
3 179 430 180
3 181 431 182
3 182 431 432
3 431 433 432
3 432 433 434
3 433 69 434
3 434 69 71
3 182 435 180
3 180 435 436
3 435 437 436
3 436 437 438
3 437 439 438
3 438 439 440
3 439 184 440
3 440 184 183
3 184 84 185
3 185 84 86
3 185 187 441
3 441 187 442
3 441 442 183
3 183 442 186
3 187 90 188
3 188 90 92
3 188 96 443
3 443 96 444
3 443 444 186
3 186 444 98
3 179 445 177
3 177 445 446
3 445 447 446
3 446 447 448
3 447 449 448
3 448 449 450
3 449 451 450
3 450 451 452
3 451 190 452
3 452 190 189
3 190 99 191
3 191 99 101
3 191 193 453
3 453 193 454
3 453 454 189
3 189 454 192
3 193 102 194
3 194 102 104
3 194 196 455
3 455 196 456
3 455 456 192
3 192 456 195
3 196 199 457
3 457 199 458
3 457 458 197
3 197 458 198
3 199 105 200
3 200 105 107
3 200 114 459
3 459 114 460
3 459 460 198
3 198 460 116
3 197 202 461
3 461 202 462
3 461 462 195
3 195 462 201
3 202 463 203
3 203 463 464
3 463 465 464
3 464 465 466
3 465 205 466
3 466 205 204
3 205 117 467
3 467 117 468
3 467 468 206
3 206 468 119
3 206 208 469
3 469 208 470
3 469 470 204
3 204 470 207
3 208 472 471
3 471 472 473
3 471 473 209
3 209 473 474
3 472 120 473
3 473 120 475
3 473 475 474
3 474 475 122
3 209 171 476
3 476 171 478
3 476 478 477
3 477 478 479
3 477 479 207
3 207 479 173
3 203 481 480
3 480 481 482
3 480 482 201
3 201 482 483
3 481 174 482
3 482 174 484
3 482 484 483
3 483 484 176
3 170 162 485
3 485 162 487
3 485 487 486
3 486 487 488
3 486 488 168
3 168 488 164
3 161 489 159
3 159 489 490
3 489 211 490
3 490 211 210
3 211 492 491
3 491 492 493
3 491 493 212
3 212 493 494
3 492 495 493
3 493 495 496
3 493 496 494
3 494 496 497
3 495 214 496
3 496 214 498
3 496 498 497
3 497 498 213
3 214 499 215
3 215 499 500
3 499 126 500
3 500 126 128
3 215 217 213
3 213 217 216
3 217 501 218
3 218 501 502
3 501 503 502
3 502 503 504
3 503 505 504
3 504 505 506
3 505 220 506
3 506 220 219
3 220 507 221
3 221 507 508
3 507 135 508
3 508 135 137
3 221 223 219
3 219 223 222
3 223 138 224
3 224 138 140
3 224 226 509
3 509 226 510
3 509 510 222
3 222 510 225
3 226 512 511
3 511 512 513
3 511 513 227
3 227 513 514
3 512 515 513
3 513 515 516
3 513 516 514
3 514 516 517
3 515 229 516
3 516 229 518
3 516 518 517
3 517 518 228
3 229 232 519
3 519 232 520
3 519 520 230
3 230 520 231
3 232 147 233
3 233 147 149
3 233 235 231
3 231 235 234
3 235 521 236
3 236 521 522
3 521 150 522
3 522 150 152
3 236 523 234
3 234 523 524
3 523 525 524
3 524 525 526
3 525 527 526
3 526 527 528
3 527 238 528
3 528 238 237
3 238 210 239
3 239 210 212
3 239 529 237
3 237 529 530
3 529 531 530
3 530 531 532
3 531 533 532
3 532 533 534
3 533 535 534
3 534 535 536
3 535 537 536
3 536 537 538
3 537 216 538
3 538 216 218
3 230 539 228
3 228 539 540
3 539 541 540
3 540 541 542
3 541 543 542
3 542 543 544
3 543 545 544
3 544 545 546
3 545 547 546
3 546 547 548
3 547 225 548
3 548 225 227
3 83 549 81
3 81 549 550
3 549 72 550
3 550 72 74
3 29 551 27
3 27 551 552
3 551 553 552
3 552 553 554
3 553 555 554
3 554 555 556
3 555 557 556
3 556 557 558
3 557 24 558
3 558 24 26
3 2 0 240
3 2 240 291
3 291 240 241
3 291 241 292
3 292 241 1
3 5 3 246
3 246 3 243
3 246 243 245
3 245 243 242
3 245 242 244
3 244 242 4
3 8 6 249
3 8 249 251
3 251 249 248
3 251 248 250
3 250 248 247
3 250 247 7
3 329 9 257
3 329 257 559
3 329 559 11
3 11 559 258
3 258 559 256
3 258 256 10
3 256 559 257
3 14 12 259
3 14 259 13
3 17 15 262
3 262 15 16
3 20 18 263
3 20 263 19
3 355 21 22
3 355 22 280
3 355 280 23
3 26 24 282
3 282 24 281
3 282 281 25
3 29 27 283
3 29 283 284
3 284 283 28
3 294 30 560
3 294 560 290
3 294 290 293
3 293 290 32
3 290 560 289
3 289 560 288
3 289 288 31
3 288 560 30
3 35 33 296
3 35 296 297
3 297 296 295
3 297 295 34
3 38 36 298
3 38 298 37
3 41 39 40
3 44 42 43
3 47 45 46
3 50 48 307
3 307 48 49
3 53 51 309
3 309 51 308
3 309 308 52
3 56 54 313
3 56 313 314
3 314 313 55
3 59 57 315
3 59 315 58
3 62 60 61
3 65 63 64
3 413 66 322
3 413 322 68
3 322 66 67
3 71 69 324
3 324 69 323
3 324 323 70
3 74 72 326
3 326 72 325
3 326 325 73
3 330 75 327
3 330 327 562
3 330 562 561
3 330 561 77
3 77 561 328
3 328 561 562
3 328 562 76
3 76 562 327
3 333 78 331
3 333 331 79
3 333 79 332
3 332 79 80
3 83 81 335
3 83 335 337
3 337 335 334
3 337 334 336
3 336 334 82
3 86 84 339
3 86 339 338
3 86 338 340
3 340 338 85
3 344 87 341
3 344 341 88
3 344 88 89
3 92 90 346
3 346 90 345
3 346 345 91
3 95 93 350
3 95 350 351
3 351 350 94
3 444 96 97
3 444 97 358
3 444 358 98
3 101 99 359
3 101 359 100
3 104 102 103
3 107 105 106
3 110 108 109
3 113 111 112
3 460 114 115
3 460 115 370
3 460 370 116
3 468 117 371
3 468 371 118
3 468 118 119
3 475 120 121
3 475 121 374
3 475 374 122
3 125 123 375
3 125 375 124
3 128 126 127
3 131 129 130
3 134 132 133
3 137 135 136
3 140 138 139
3 392 141 142
3 392 142 143
3 146 144 393
3 146 393 145
3 149 147 148
3 152 150 151
3 406 153 154
3 406 154 155
3 158 156 407
3 158 407 157
3 161 159 160
3 487 162 163
3 487 163 410
3 487 410 488
3 488 410 164
3 167 165 411
3 167 411 412
3 412 411 166
3 486 168 169
3 486 169 418
3 486 418 485
3 485 418 170
3 478 171 422
3 478 422 479
3 479 422 172
3 479 172 173
3 484 174 175
3 484 175 427
3 484 427 176
3 179 177 429
3 429 177 428
3 429 428 178
3 182 180 430
3 182 430 181
3 441 183 184
3 441 184 185
3 443 186 442
3 443 442 187
3 443 187 188
3 453 189 190
3 453 190 191
3 455 192 454
3 455 454 193
3 455 193 194
3 461 195 456
3 461 456 457
3 461 457 197
3 457 456 196
3 459 198 458
3 459 458 200
3 200 458 199
3 480 201 462
3 480 462 203
3 203 462 202
3 469 204 205
3 469 205 467
3 469 467 206
3 477 207 470
3 477 470 208
3 477 208 476
3 476 208 471
3 476 471 209
3 212 210 491
3 491 210 211
3 215 213 498
3 215 498 214
3 218 216 217
3 221 219 220
3 509 222 223
3 509 223 224
3 227 225 511
3 511 225 510
3 511 510 226
3 230 228 518
3 230 518 519
3 519 518 229
3 233 231 520
3 233 520 232
3 236 234 235
3 239 237 238
3 563 565 566
3 564 570 571
3 565 564 571
3 566 565 571
3 566 571 572
3 567 575 576
3 568 567 576
3 569 568 576
3 569 576 577
3 570 569 577
3 570 577 578
3 571 570 578
3 572 571 578
3 572 578 579
3 573 572 579
3 575 574 580
3 576 575 580
3 577 576 580
3 578 577 580
3 579 578 580
3 574 579 580
3 579 574 264
3 579 264 573
3 573 264 19
3 573 19 16
3 573 16 566
3 573 566 572
3 566 16 260
3 566 260 563
3 563 260 13
3 563 13 10
3 563 10 252
3 563 252 564
3 563 564 565
3 564 252 7
3 564 7 570
3 570 7 569
3 569 7 4
3 569 4 568
3 568 4 567
3 567 4 0
3 567 0 270
3 567 270 575
3 575 270 268
3 575 268 266
3 575 266 574
3 574 266 264
3 582 581 584
3 582 584 585
3 583 582 585
3 583 585 46
3 583 46 43
3 583 43 40
3 583 40 582
3 582 40 37
3 582 37 581
3 581 37 34
3 581 34 32
3 581 32 584
3 584 32 1
3 584 1 586
3 584 586 301
3 584 301 585
3 585 301 299
3 585 299 46
3 301 586 303
3 303 586 1
3 303 1 3
3 587 590 591
3 588 587 591
3 591 590 594
3 591 594 595
3 593 592 596
3 595 594 596
3 592 595 596
3 596 594 310
3 596 310 52
3 596 52 593
3 593 52 49
3 593 49 589
3 593 589 302
3 593 302 304
3 593 304 592
3 592 304 5
3 592 5 595
3 595 5 6
3 595 6 591
3 591 6 588
3 588 6 320
3 588 320 318
3 588 318 587
3 587 318 316
3 587 316 58
3 587 58 55
3 587 55 590
3 590 55 310
3 590 310 594
3 316 318 61
3 302 589 300
3 300 589 305
3 300 305 47
3 305 589 49
3 9 76 255
3 76 73 597
3 76 597 319
3 76 319 255
3 255 319 321
3 255 321 8
3 319 597 62
3 62 597 64
3 64 597 70
3 64 70 67
3 70 597 73
3 77 11 79
3 12 79 11
3 342 88 85
3 342 85 82
3 342 82 261
3 342 261 15
3 261 82 80
3 261 80 14
3 598 602 603
3 599 598 603
3 599 603 604
3 600 599 604
3 600 604 605
3 602 607 608
3 603 602 608
3 603 608 609
3 604 603 609
3 604 609 610
3 605 604 610
3 601 605 610
3 601 610 606
3 608 607 612
3 608 612 613
3 609 608 613
3 609 613 614
3 610 609 614
3 611 610 614
3 606 610 611
3 611 614 275
3 611 275 277
3 611 277 606
3 606 277 279
3 606 279 601
3 601 279 21
3 601 21 352
3 601 352 94
3 601 94 600
3 601 600 605
3 600 94 347
3 600 347 599
3 599 347 598
3 598 347 91
3 598 91 89
3 598 89 602
3 602 89 343
3 602 343 607
3 607 343 17
3 607 17 612
3 612 17 18
3 612 18 613
3 613 18 273
3 613 273 614
3 614 273 275
3 615 618 619
3 616 615 619
3 616 619 620
3 617 616 620
3 617 620 621
3 618 622 623
3 619 618 623
3 619 623 624
3 620 619 624
3 620 624 621
3 621 624 271
3 621 271 2
3 621 2 31
3 621 31 617
3 617 31 285
3 617 285 616
3 616 285 28
3 616 28 615
3 615 28 25
3 615 25 278
3 615 278 618
3 618 278 276
3 618 276 622
3 622 276 274
3 622 274 265
3 622 265 267
3 622 267 623
3 623 267 269
3 623 269 624
3 624 269 271
3 265 274 272
3 265 272 20
3 278 25 22
3 551 29 287
3 551 287 33
3 551 33 109
3 551 109 553
3 553 109 362
3 553 362 555
3 555 362 360
3 555 360 106
3 555 106 625
3 555 625 626
3 555 626 557
3 557 626 627
3 557 627 23
3 557 23 24
3 23 627 354
3 354 627 95
3 95 627 626
3 95 626 356
3 356 626 625
3 356 625 103
3 356 103 100
3 356 100 97
3 103 625 106
3 33 287 30
3 629 628 630
3 629 630 631
3 629 631 552
3 629 552 554
3 629 554 556
3 629 556 628
3 628 556 558
3 628 558 630
3 630 558 26
3 630 26 27
3 630 27 631
3 631 27 552
3 366 112 364
3 366 364 632
3 366 632 368
3 368 632 36
3 36 632 35
3 35 632 110
3 110 632 364
3 376 124 634
3 376 634 635
3 376 635 39
3 39 635 38
3 38 635 369
3 369 635 634
3 369 634 367
3 367 634 633
3 367 633 113
3 113 633 115
3 115 633 118
3 118 633 372
3 372 633 634
3 372 634 121
3 121 634 124
3 133 130 378
3 378 130 636
3 378 636 42
3 42 636 41
3 41 636 377
3 377 636 125
3 125 636 127
3 127 636 130
3 306 48 382
3 306 382 45
3 45 382 380
3 45 380 44
3 44 380 379
3 379 380 134
3 131 132 136
3 386 142 139
3 386 139 639
3 386 639 638
3 386 638 388
3 388 638 637
3 388 637 640
3 388 640 390
3 390 640 383
3 390 383 50
3 390 50 51
3 383 640 381
3 381 640 637
3 381 637 132
3 132 637 136
3 136 637 638
3 136 638 384
3 384 638 639
3 384 639 139
3 641 645 646
3 642 641 646
3 642 646 647
3 643 642 647
3 643 647 648
3 644 650 651
3 645 644 651
3 646 645 651
3 646 651 652
3 647 646 652
3 647 652 653
3 648 647 653
3 649 648 653
3 649 653 654
3 651 650 655
3 652 651 655
3 653 652 655
3 654 653 655
3 654 655 53
3 654 53 312
3 654 312 54
3 654 54 649
3 649 54 398
3 649 398 648
3 648 398 396
3 648 396 643
3 643 396 394
3 643 394 642
3 642 394 145
3 642 145 641
3 641 145 143
3 641 143 645
3 645 143 387
3 645 387 644
3 644 387 389
3 644 389 391
3 644 391 650
3 650 391 53
3 650 53 655
3 402 154 656
3 402 656 659
3 402 659 404
3 404 659 660
3 404 660 57
3 57 660 399
3 57 399 56
3 399 660 397
3 397 660 659
3 397 659 658
3 397 658 395
3 395 658 657
3 395 657 148
3 395 148 146
3 148 657 400
3 400 657 658
3 400 658 151
3 151 658 656
3 151 656 154
3 656 658 659
3 60 63 408
3 60 408 403
3 60 403 405
3 60 405 317
3 317 405 59
3 403 408 155
3 155 408 157
3 66 166 65
3 65 166 409
3 409 166 160
3 409 160 158
3 160 166 163
3 431 181 661
3 431 661 416
3 431 416 414
3 431 414 433
3 433 414 167
3 433 167 68
3 433 68 69
3 416 661 425
3 416 425 423
3 416 423 169
3 169 423 419
3 419 423 172
3 425 661 175
3 175 661 178
3 178 661 181
3 549 83 663
3 549 663 437
3 549 437 662
3 549 662 434
3 549 434 72
3 72 434 71
3 434 662 432
3 432 662 435
3 432 435 182
3 435 662 437
3 437 663 439
3 439 663 84
3 439 84 184
3 84 663 83
3 75 78 664
3 75 664 74
3 74 664 550
3 550 664 78
3 550 78 81
3 87 90 185
3 87 185 86
3 185 90 187
3 357 96 665
3 357 665 93
3 93 665 349
3 349 665 96
3 349 96 188
3 349 188 92
3 667 666 670
3 667 670 671
3 668 667 671
3 668 671 669
3 668 669 449
3 668 449 447
3 668 447 667
3 667 447 445
3 667 445 666
3 666 445 180
3 666 180 436
3 666 436 438
3 666 438 670
3 670 438 440
3 670 440 671
3 671 440 183
3 671 183 186
3 671 186 669
3 669 186 98
3 669 98 451
3 669 451 449
3 451 98 99
3 451 99 190
3 180 445 179
3 102 193 191
3 102 191 101
3 105 199 672
3 105 672 104
3 104 672 194
3 194 672 196
3 196 672 199
3 365 111 674
3 365 674 363
3 365 363 108
3 363 674 673
3 363 673 361
3 361 673 107
3 107 673 200
3 200 673 674
3 200 674 114
3 114 674 111
3 676 675 677
3 676 677 678
3 676 678 679
3 676 679 465
3 676 465 463
3 676 463 675
3 675 463 202
3 675 202 197
3 675 197 677
3 677 197 198
3 677 198 116
3 677 116 678
3 678 116 117
3 678 117 679
3 679 117 205
3 679 205 465
3 472 208 206
3 472 206 119
3 472 119 373
3 472 373 120
3 123 126 499
3 123 499 122
3 122 499 474
3 474 499 214
3 474 214 495
3 474 495 209
3 209 495 492
3 209 492 171
3 171 492 421
3 421 492 211
3 421 211 170
3 170 211 489
3 170 489 162
3 162 489 161
3 129 135 681
3 129 681 128
3 128 681 680
3 128 680 500
3 500 680 501
3 500 501 217
3 500 217 215
3 501 680 503
3 503 680 681
3 503 681 505
3 505 681 507
3 505 507 220
3 507 681 135
3 138 223 221
3 138 221 385
3 385 221 508
3 385 508 137
3 226 224 512
3 232 229 147
3 141 144 685
3 141 685 684
3 141 684 140
3 140 684 224
3 224 684 512
3 512 684 682
3 512 682 515
3 515 682 683
3 515 683 229
3 229 683 147
3 147 683 144
3 144 683 685
3 685 683 682
3 685 682 684
3 521 235 401
3 521 401 150
3 401 235 149
3 149 235 233
3 210 238 490
3 153 156 686
3 153 686 152
3 152 686 522
3 522 686 523
3 522 523 236
3 523 686 525
3 525 686 527
3 527 686 490
3 527 490 238
3 490 686 159
3 159 686 156
3 417 168 164
3 417 164 687
3 417 687 415
3 415 687 165
3 165 687 164
3 688 689 690
3 688 690 691
3 689 692 693
3 690 689 693
3 690 693 426
3 690 426 691
3 691 426 174
3 691 174 481
3 691 481 688
3 688 481 203
3 688 203 464
3 688 464 689
3 689 464 466
3 689 466 692
3 692 466 204
3 692 204 207
3 692 207 173
3 692 173 693
3 693 173 424
3 693 424 426
3 452 189 192
3 452 192 694
3 452 694 696
3 452 696 450
3 450 696 448
3 448 696 695
3 448 695 446
3 446 695 176
3 446 176 177
3 176 695 483
3 483 695 696
3 483 696 694
3 483 694 201
3 201 694 195
3 195 694 192
3 239 212 529
3 213 216 497
3 697 698 699
3 697 699 700
3 697 701 702
3 697 702 698
3 698 702 494
3 698 494 497
3 698 497 699
3 699 497 216
3 699 216 537
3 699 537 535
3 699 535 700
3 700 535 533
3 700 533 531
3 700 531 697
3 697 531 701
3 701 531 529
3 701 529 702
3 702 529 212
3 702 212 494
3 219 222 225
3 219 225 547
3 219 547 506
3 506 547 710
3 506 710 504
3 504 710 709
3 504 709 708
3 504 708 502
3 502 708 538
3 502 538 218
3 538 708 709
3 538 709 705
3 538 705 536
3 536 705 545
3 536 545 534
3 534 545 543
3 534 543 703
3 534 703 532
3 532 703 704
3 532 704 530
3 530 704 706
3 530 706 707
3 530 707 528
3 530 528 237
3 528 707 526
3 526 707 524
3 524 707 706
3 524 706 539
3 524 539 234
3 234 539 230
3 234 230 231
3 539 706 541
3 541 706 704
3 541 704 703
3 541 703 543
3 545 705 709
3 545 709 547
3 547 709 710
3 711 712 713
3 711 713 714
3 711 714 542
3 711 542 544
3 711 544 712
3 712 544 546
3 712 546 548
3 712 548 514
3 712 514 713
3 713 514 517
3 713 517 714
3 714 517 228
3 714 228 540
3 714 540 542
3 514 548 227
