ply
format ascii 1.0
comment Generated by PyMesh
element vertex 880
property float x
property float y
property float z
property float nx
property float ny
property float nz
element face 1756
property list uchar int vertex_indices
end_header
35.356 -19.611 -18.884 -0.117 0.963 -0.244
35.365 -18.723 -17.869 -0.122 0.37 -0.921
36.454 -18.897 -18.942 -0.849 0.487 -0.206
34.442 -20.112 -16.645 -0.782 -0.622 -0.046
34.433 -21.001 -17.66 -0.776 -0.03 0.63
34.653 -20.671 -16.271 -0.922 -0.249 -0.295
34.69 -20.817 -16.243 -0.901 -0.33 -0.28
34.466 -21.129 -17.635 -0.752 -0.122 0.648
34.499 -21.246 -15.716 -0.774 -0.044 -0.632
35.443 -22.195 -15.79 -0.1 -0.722 -0.684
35.41 -22.079 -17.709 -0.078 -0.8 0.595
36.282 -22.151 -16.785 -0.659 -0.752 -0.021
36.282 -22.151 -16.785 -0.659 -0.752 -0.021
35.41 -22.079 -17.709 -0.078 -0.8 0.595
36.076 -22.206 -17.513 -0.522 -0.715 0.464
36.192 -22.518 -18.345 -0.458 -0.889 0.002
35.513 -22.356 -18.446 -0.005 -0.998 0.069
36.659 -22.946 -18.657 -0.769 -0.604 0.21
36.811 -22.169 -20 -0.66 -0.05 -0.749
35.664 -21.579 -19.789 0.104 -0.443 -0.89
36.364 -21.641 -19.863 -0.362 -0.402 -0.841
36.288 -19.903 -19.645 -0.404 0.564 -0.72
35.597 -20.041 -19.596 0.056 0.656 -0.753
36.696 -19.327 -19.654 -0.676 0.18 -0.714
37.856 -20.701 -19.926 0.467 0.12 -0.876
38.084 -20.034 -19.903 0.315 -0.325 -0.892
38.131 -21.338 -20.056 0.283 0.545 -0.789
38.97 -21.451 -18.832 0.882 0.463 0.085
38.922 -20.147 -18.678 0.914 -0.406 -0.017
38.803 -20.83 -18.542 0.993 0.049 -0.107
38.68 -20.591 -17.746 0.924 0.182 0.335
38.813 -19.936 -17.973 0.836 -0.255 0.486
39.605 -20.147 -15.826 0.308 -0.114 -0.945
39.611 -19.654 -15.775 0.313 0.297 -0.902
38.82 -19.4 -17.917 0.841 0.128 0.526
39.374 -19.555 -15.851 0.471 0.231 -0.851
38.603 -18.686 -15.632 0.085 0.666 -0.741
38.168 -18.666 -17.732 0.375 0.652 0.659
38.019 -18.567 -15.758 0.474 0.586 -0.657
37.887 -18.49 -15.772 0.38 0.641 -0.667
38.036 -18.589 -17.745 0.281 0.707 0.649
38.294 -16.604 -15.602 0.109 -0.616 -0.78
37.745 -18.585 -17.564 0.236 0.852 0.468
37.931 -16.779 -15.584 0.107 -0.404 -0.909
37.867 -16.411 -15.738 -0.104 -0.52 -0.848
37.675 -18.426 -17.86 0.023 0.823 0.567
37.641 -16.535 -15.663 0.046 -0.437 -0.898
37.627 -18.595 -17.532 -0.001 0.938 0.348
37.6 -16.858 -15.551 0.017 -0.222 -0.975
37.566 -16.535 -15.664 -0.017 -0.437 -0.899
37.593 -18.426 -17.862 -0.035 0.824 0.566
36.504 -18.251 -16.789 0.691 0.707 -0.149
36.461 -16.374 -14.789 -0.938 -0.303 -0.17
35.304 -18.077 -15.838 -0.166 0.832 0.53
36.349 -16.205 -14.614 -0.863 -0.416 -0.286
36.386 -16.393 -14.363 -0.845 -0.511 -0.161
35.335 -18.236 -15.626 -0.144 0.718 0.681
35.962 -17.09 -13.366 -0.562 -0.046 -0.826
35.978 -18.355 -14.891 -0.674 0.681 0.286
36.247 -17.817 -13.866 -0.856 0.317 -0.409
35.842 -17.259 -13.246 -0.662 -0.187 -0.726
35.204 -18.42 -15.496 -0.237 0.587 0.774
35.91 -17.517 -13.274 -0.707 -0.015 -0.707
35.858 -17.629 -13.212 -0.734 -0.072 -0.676
35.16 -18.515 -15.444 -0.269 0.519 0.812
35.464 -18.867 -14.914 -0.471 0.753 0.458
34.617 -19.843 -15.271 -0.942 0.211 0.26
34.41 -19.379 -15.76 -0.804 -0.099 0.586
34.434 -20.384 -14.855 -0.82 0.571 -0.017
34.395 -21.012 -15.553 -0.849 0.123 -0.515
34.371 -20.007 -16.457 -0.832 -0.547 0.088
34.573 -20.553 -16.058 -0.967 -0.183 -0.177
35.097 -19.563 -14.587 -0.675 0.367 0.64
34.859 -20.136 -14.251 -0.517 0.749 0.415
35.475 -19.153 -13.083 -0.927 0.093 -0.363
35.54 -19.835 -12.514 -0.873 -0.475 0.111
34.93 -20.877 -13.632 -0.466 0.219 0.857
35.568 -19.876 -12.251 -0.892 -0.448 -0.064
36.896 -20.922 -12.267 -0.228 -0.971 -0.072
36.052 -21.761 -13.645 0.335 -0.412 0.848
37.359 -21.367 -13.135 -0.537 -0.674 0.507
37.377 -21.398 -13.158 -0.528 -0.69 0.496
36.067 -21.787 -13.665 0.346 -0.431 0.834
37.494 -21.607 -13.276 -0.606 -0.55 0.575
37.902 -22.017 -14.406 -0.266 -0.891 -0.367
36.51 -22.231 -14.892 0.662 -0.748 -0.043
37.349 -22.188 -15.887 0.103 -0.778 0.62
38.204 -22.013 -14.517 -0.014 -0.888 -0.459
37.677 -22.184 -16.007 0.337 -0.775 0.535
38.29 -21.919 -14.752 -0.071 -0.951 -0.302
39.371 -20.518 -15.843 0.47 -0.25 -0.847
38.591 -20.999 -16.928 0.99 0.071 -0.123
38.685 -20.904 -17.675 0.927 0.008 0.375
38.648 -21.343 -17.72 0.907 -0.236 0.349
38.558 -21.388 -16.968 0.967 -0.206 -0.152
38.832 -21.905 -18.104 0.784 0.139 0.605
37.148 -22.97 -18.025 -0.419 -0.622 0.661
36.874 -22.453 -16.89 -0.237 -0.967 -0.095
36.745 -22.546 -17.631 -0.151 -0.905 0.399
39.376 -20.443 -15.86 0.472 -0.213 -0.856
38.689 -20.833 -17.691 0.93 0.047 0.365
39.612 -20.345 -15.782 0.314 -0.278 -0.908
37.555 -20.957 -11.897 0.102 -0.988 0.113
38.018 -21.402 -12.765 -0.207 -0.692 0.692
37.51 -21.018 -11.29 0.132 -0.947 -0.292
37.527 -21.018 -11.285 0.144 -0.947 -0.288
38.038 -21.401 -12.759 -0.197 -0.691 0.695
38.137 -21.074 -12.201 -0.263 -0.909 0.323
39.548 -21.012 -12.487 0.443 -0.878 0.181
39.449 -21.339 -13.044 0.509 -0.661 0.552
39.671 -20.932 -12.264 0.361 -0.932 0.032
39.927 -20.792 -12.391 0.574 -0.815 -0.074
39.778 -21.159 -13.208 0.673 -0.571 0.471
39.877 -20.832 -12.65 0.607 -0.788 0.099
40.37 -18.946 -13.842 0.854 0.155 -0.497
40.271 -19.273 -14.4 0.919 0.373 -0.125
40.416 -18.338 -13.822 0.822 -0.251 -0.511
39.726 -17.754 -14.408 0.33 0.166 -0.929
39.454 -18.582 -15.094 0.511 0.718 -0.472
39.301 -16.591 -15.048 0.613 -0.609 -0.503
38.449 -16.645 -15.539 0.187 -0.636 -0.748
38.602 -18.636 -15.585 0.085 0.691 -0.718
38.019 -18.524 -15.719 0.474 0.617 -0.628
40.274 -17.276 -13.768 0.721 0.508 -0.472
39.949 -16.025 -14.291 0.937 -0.327 -0.124
40.225 -16.724 -13.512 0.753 0.139 -0.643
40.239 -16.692 -13.488 0.76 0.156 -0.631
39.963 -15.993 -14.266 0.944 -0.31 -0.112
40.468 -15.644 -13.564 0.607 -0.543 -0.581
40.499 -15.008 -13.902 0.623 -0.224 -0.75
39.994 -15.356 -14.605 0.96 0.008 -0.281
40.375 -14.552 -14.319 0.706 -0.528 -0.472
40.056 -14.196 -14.896 0.547 -0.35 -0.761
39.676 -15 -15.182 0.8 0.186 -0.57
39.638 -14.412 -15.249 0.825 -0.206 -0.526
36.785 -13.661 -13.563 -0.853 0.235 0.466
36.607 -14.193 -13.369 -0.734 0.59 0.337
36.987 -13.388 -13.083 -0.988 0.053 0.146
37.202 -13.714 -12.452 -0.88 -0.109 0.461
36.822 -14.518 -12.738 -0.627 0.427 0.652
37.327 -14.17 -12.036 -0.964 0.195 0.184
37.321 -14.422 -11.907 -0.966 0.069 0.248
36.816 -14.77 -12.609 -0.629 0.301 0.716
36.495 -15.676 -11.674 -0.415 0.905 0.093
36.054 -15.96 -12.102 -0.635 0.763 -0.12
36.376 -15.054 -13.036 -0.85 0.159 0.503
35.954 -16.049 -12.334 -0.569 0.822 0.034
37.568 -14.477 -11.33 -0.843 0.041 0.536
36.741 -15.732 -11.098 -0.292 0.877 0.381
36.684 -15.867 -10.504 -0.254 0.967 -0.014
35.827 -17.895 -10.292 -0.865 -0.482 0.137
35.727 -18.133 -10.847 -0.799 -0.323 0.507
35.739 -18.773 -10.959 -0.807 0.103 0.582
35.805 -18.373 -13.235 -0.774 0.304 -0.556
35.793 -17.733 -13.123 -0.766 -0.123 -0.631
35.403 -18.965 -14.828 -0.506 0.699 0.506
35.685 -18.549 -13.14 -0.834 0.216 -0.509
35.288 -19.133 -14.738 -0.569 0.605 0.556
35.63 -18.802 -13.205 -0.797 0.385 -0.465
35.948 -18.024 -10.131 -0.779 -0.574 0.252
35.882 -18.925 -10.768 -0.735 0.027 0.677
36.096 -19.302 -10.337 -0.878 0.278 0.39
35.969 -18.029 -10.083 -0.765 -0.577 0.286
36.116 -19.307 -10.289 -0.863 0.275 0.423
36.195 -18.326 -9.854 -0.915 -0.38 0.134
37.188 -18.659 -9.117 -0.088 -0.658 0.748
37.195 -19.67 -9.488 -0.093 0.016 0.996
37.618 -19.629 -9.385 -0.375 -0.011 0.927
38.406 -20.751 -10.685 0.282 -0.947 -0.156
38.051 -20.889 -10.9 0.519 -0.855 -0.013
38.757 -20.922 -11.745 0.048 -0.833 0.551
38.546 -20.706 -10.643 0.398 -0.909 -0.121
38.937 -20.864 -11.691 0.137 -0.804 0.578
39.196 -20.816 -11.645 -0.035 -0.836 0.548
39.252 -19.642 -10.302 0.986 -0.023 0.164
39.902 -19.752 -11.304 0.553 0.051 0.832
39.844 -19.496 -11.253 0.591 -0.12 0.798
39.199 -19.293 -10.262 0.943 0.269 0.197
39.777 -19.047 -11.201 0.558 0.105 0.823
39.802 -18.081 -10.934 0.541 -0.539 0.645
40.566 -17.768 -12.136 0.923 -0.383 0.044
40.541 -18.734 -12.403 0.939 0.261 0.222
40.561 -18.159 -12.606 0.926 -0.123 0.358
38.968 -19.034 -9.957 0.75 0.485 0.451
39.504 -17.748 -10.543 0.392 -0.373 0.841
39.633 -17.524 -10.475 0.306 -0.522 0.796
40.419 -16.842 -11.105 0.961 0.046 0.271
40.515 -16.872 -11.352 0.897 0.066 0.436
40.982 -15.592 -10.983 0.586 -0.788 0.19
41.148 -15.425 -11.71 0.684 -0.689 -0.238
40.694 -16.692 -12.135 0.987 0.155 0.045
40.923 -15.645 -12.211 0.834 -0.543 0.096
41.424 -14.684 -12.101 0.847 -0.253 -0.468
41.22 -14.847 -12.631 0.983 -0.144 -0.114
41.726 -14.18 -12.073 0.646 -0.589 -0.486
41.557 -13.563 -12.658 0.561 -0.28 -0.779
41.051 -14.23 -13.216 0.899 0.164 -0.407
40.927 -13.774 -13.633 0.982 -0.14 -0.129
41.56 -13.533 -12.667 0.563 -0.266 -0.783
40.929 -13.745 -13.641 0.983 -0.125 -0.133
41.157 -13.165 -13.515 0.831 -0.511 -0.217
40.141 -12.455 -14.947 0.324 -0.156 -0.933
39.914 -13.035 -15.073 0.475 0.23 -0.849
39.991 -11.946 -15.21 0.424 -0.495 -0.758
39.68 -11.937 -15.345 0.241 -0.49 -0.838
39.58 -13.025 -15.219 0.308 0.235 -0.922
39.195 -13.323 -15.548 0.565 0.434 -0.702
39.622 -11.913 -15.374 0.207 -0.476 -0.855
39.137 -13.299 -15.578 0.531 0.448 -0.719
39.311 -11.847 -15.536 0.415 -0.52 -0.747
37.631 -11.405 -14.542 -0.985 -0.151 0.082
37.129 -12.77 -14.389 -0.651 0.759 -0.02
37.614 -11.384 -14.185 -0.974 -0.165 -0.156
37.606 -11.391 -14.12 -0.979 -0.169 -0.117
37.121 -12.777 -14.323 -0.655 0.755 0.019
37.349 -12.438 -13.901 -0.807 0.529 -0.263
37.588 -11.313 -13.786 -0.989 -0.123 0.079
37.329 -12.353 -13.542 -0.817 0.571 -0.084
37.557 -11.773 -13.416 -0.968 0.184 -0.168
38.069 -12.349 -11.693 -0.713 -0.103 0.694
37.841 -12.928 -11.819 -0.561 0.283 0.778
38.472 -12.717 -10.845 -0.981 0.142 0.128
38.469 -12.744 -10.837 -0.983 0.129 0.132
37.839 -12.955 -11.812 -0.562 0.27 0.782
37.963 -13.411 -11.395 -0.645 0.574 0.504
38.66 -13.373 -10.257 -0.887 -0.186 0.422
38.154 -14.041 -10.815 -0.55 0.259 0.794
38.574 -13.934 -10.412 -0.83 0.188 0.525
38.617 -14.408 -10.308 -0.805 -0.091 0.586
38.2 -14.551 -10.703 -0.527 0.004 0.85
37.218 -15.929 -9.974 0.128 0.923 0.364
39.55 -15.249 -9.998 -0.256 -0.586 0.769
38.066 -16.693 -9.692 0.733 0.377 0.566
39.221 -16.555 -10.281 -0.037 0.285 0.958
39.262 -16.726 -10.242 -0.002 0.143 0.99
38.11 -16.878 -9.651 0.765 0.245 0.595
38.167 -17.266 -9.456 0.728 0.503 0.466
39.51 -17.44 -10.388 0.204 -0.452 0.868
38.414 -17.98 -9.602 0.934 -0.092 0.344
38.845 -18.95 -9.87 0.647 0.554 0.523
38.395 -11.571 -11.511 -0.55 0.285 0.785
38.798 -11.94 -10.662 -0.818 0.531 0.22
38.806 -11.535 -11.088 -0.824 0.261 0.504
41.661 -12.281 -12.769 0.856 -0.178 -0.485
41.87 -12.742 -12.47 0.717 0.13 -0.685
41.466 -12.374 -13.319 0.986 -0.116 -0.119
41.291 -10.933 -12.73 0.638 0.615 -0.463
41.068 -10.924 -13.277 0.787 0.609 -0.098
40.769 -10.185 -13.598 0.986 0.117 0.115
40.774 -10.199 -13.636 0.991 0.105 0.083
41.075 -10.942 -13.327 0.79 0.6 -0.123
40.859 -10.54 -13.703 0.935 0.332 0.128
39.23 -9.792 -12.721 -0.296 0.444 0.846
39.013 -10.053 -12.61 -0.151 0.618 0.771
39.089 -10.418 -12.151 -0.202 0.862 0.465
39.263 -9.79 -12.711 -0.268 0.446 0.854
39.132 -10.416 -12.138 -0.181 0.863 0.472
39.491 -10.461 -11.671 -0.42 0.893 0.161
40.534 -12.69 -9.128 0.05 0.156 0.987
40.8 -12.663 -9.121 -0.128 0.138 0.982
37.622 -18.662 -17.288 0.321 0.906 0.276
37.596 -17.492 -15.545 0.285 0.094 -0.954
35.382 -19.286 -18.272 -0.134 0.746 -0.652
34.64 -19.874 -18.648 -0.628 0.775 -0.075
34.758 -19.516 -18.066 -0.706 0.536 -0.463
34.649 -18.986 -17.633 -0.633 0.182 -0.752
34.284 -20.41 -18.175 -0.882 0.392 0.262
34.448 -19.983 -17.654 -0.991 0.107 -0.085
34.293 -19.521 -17.16 -0.888 -0.2 -0.415
34.577 -20.498 -17.204 -0.872 -0.365 0.327
34.722 -20.806 -17.001 -0.969 -0.159 0.191
34.753 -20.925 -16.978 -0.943 -0.258 0.21
34.783 -21.133 -17.023 -0.964 -0.119 0.24
34.795 -21.175 -16.335 -0.971 -0.091 -0.219
34.771 -21.769 -17.679 -0.534 -0.579 0.616
35.001 -21.59 -17.054 -0.687 -0.699 0.2
35.013 -21.631 -16.366 -0.695 -0.671 -0.259
34.804 -21.886 -15.76 -0.556 -0.501 -0.663
35.456 -21.81 -17.076 -0.109 -0.979 0.173
35.468 -21.852 -16.387 -0.117 -0.951 -0.286
35.904 -21.994 -17.292 -0.407 -0.857 0.317
35.904 -21.994 -17.292 -0.407 -0.857 0.317
36.15 -22.518 -18.575 -0.43 -0.89 0.155
35.462 -22.167 -19.247 -0.041 -0.863 -0.504
36.105 -22.351 -19.281 -0.47 -0.74 -0.481
36.608 -22.757 -19.458 -0.805 -0.47 -0.362
36.284 -21.833 -19.758 -0.309 -0.274 -0.911
35.66 -20.78 -19.923 0.101 0.128 -0.987
36.359 -20.738 -20.015 -0.365 0.1 -0.926
36.199 -19.754 -19.502 -0.345 0.465 -0.816
35.986 -19.376 -18.875 -0.537 0.806 -0.25
37.334 -19.708 -20.013 -0.221 -0.092 -0.971
37.009 -20.333 -20.051 -0.004 0.325 -0.946
38.057 -20.704 -19.838 0.333 0.122 -0.935
38.704 -20.067 -19.426 0.758 -0.349 -0.551
38.603 -20.734 -19.418 0.825 0.096 -0.556
38.752 -21.371 -19.579 0.726 0.521 -0.449
38.795 -20.804 -18.761 0.999 0.032 0.038
38.639 -19.87 -17.351 0.952 -0.298 0.072
38.733 -19.888 -16.709 0.889 -0.286 -0.356
39.076 -19.987 -16.167 0.661 -0.221 -0.718
38.643 -19.588 -17.322 0.959 0.253 0.129
38.735 -19.704 -16.69 0.897 0.331 -0.292
39.079 -19.728 -16.14 0.668 0.347 -0.659
38.634 -19.521 -17.367 0.965 0.209 0.159
38.674 -19.593 -16.779 0.938 0.257 -0.232
38.934 -19.605 -16.246 0.764 0.265 -0.588
38.158 -18.985 -17.232 0.382 0.865 0.325
38.237 -19.101 -16.655 0.329 0.942 -0.059
38.393 -18.996 -16.092 0.225 0.872 -0.434
37.934 -18.907 -17.101 0.531 0.813 0.239
37.88 -18.871 -16.39 0.567 0.789 -0.236
37.843 -18.854 -17.111 0.41 0.884 0.226
37.789 -18.819 -16.399 0.445 0.86 -0.249
36.967 -18.528 -17.377 0.382 0.892 0.243
37.195 -18.305 -18.286 -0.32 0.91 0.263
36.639 -18.428 -17.727 0.05 0.993 -0.111
36.105 -18.13 -17.214 0.406 0.794 -0.453
36.781 -18.476 -18.679 -0.615 0.788 -0.018
36.299 -18.569 -18.049 -0.294 0.85 -0.437
35.692 -18.301 -17.606 0.111 0.671 -0.733
36.03 -18.916 -18.266 -0.566 0.499 -0.656
36.529 -17.952 -16.208 0.674 0.508 -0.537
36.747 -17.508 -15.78 0.529 0.212 -0.822
37.116 -17.003 -15.586 0.283 -0.125 -0.951
35.708 -17.852 -16.618 0.123 0.992 -0.027
36.118 -17.746 -16.119 -0.151 0.921 -0.359
36.486 -17.377 -15.723 -0.395 0.675 -0.623
36.74 -16.815 -15.505 -0.565 0.301 -0.768
36.833 -16.167 -15.506 -0.627 -0.131 -0.768
35.909 -17.862 -15.717 -0.57 0.688 0.449
36.352 -17.45 -15.467 -0.865 0.414 0.282
36.549 -16.921 -15.137 -0.996 0.061 0.062
35.962 -17.843 -15.674 -0.605 0.676 0.42
36.413 -17.377 -15.365 -0.906 0.366 0.214
36.553 -16.786 -14.983 -0.999 -0.029 -0.04
35.978 -17.922 -15.569 -0.572 0.508 0.643
36.424 -17.433 -15.292 -0.87 0.182 0.458
36.571 -16.881 -14.856 -0.968 -0.185 0.168
35.778 -18.479 -15.046 -0.619 0.626 0.474
36.13 -18.315 -14.426 -0.854 0.517 0.061
36.178 -17.966 -13.785 -0.886 0.284 -0.366
35.757 -18.522 -15.022 -0.667 0.524 0.53
36.117 -18.343 -14.41 -0.906 0.404 0.123
36.153 -18.02 -13.756 -0.931 0.189 -0.314
34.708 -18.919 -15.498 -0.591 0.23 0.773
34.954 -19.323 -14.975 -0.755 0.5 0.424
34.569 -19.924 -15.359 -0.91 0.265 0.319
34.534 -20.471 -15.966 -0.941 -0.238 -0.239
35.379 -19.768 -13.674 -0.864 0.503 0.031
35.432 -20.318 -13.215 -0.801 -0.153 0.579
35.369 -20.515 -13.323 -0.759 -0.022 0.651
35.596 -20.159 -12.832 -0.91 -0.259 0.324
35.392 -21.447 -13.47 -0.136 -0.188 0.973
35.755 -20.991 -13.188 -0.378 -0.492 0.784
36.012 -20.672 -12.686 -0.549 -0.704 0.45
36.115 -20.55 -12.059 -0.618 -0.785 0.032
36.305 -21.253 -13.334 0.166 -0.75 0.64
36.605 -20.955 -12.844 -0.034 -0.949 0.313
36.727 -21.446 -13.537 -0.116 -0.621 0.775
36.742 -21.471 -13.555 -0.104 -0.641 0.76
36.81 -21.585 -13.631 -0.15 -0.565 0.811
36.283 -22.221 -14.204 0.5 -0.741 0.449
36.981 -21.929 -14.058 0.035 -0.936 0.351
37.693 -22.007 -13.773 -0.44 -0.883 0.161
37.161 -21.937 -14.603 0.228 -0.945 -0.236
36.866 -22.084 -15.438 0.424 -0.847 0.32
35.977 -22.424 -15.35 0.281 -0.885 -0.37
36.396 -22.253 -15.841 0.002 -0.999 -0.043
36.816 -22.38 -16.345 -0.278 -0.915 0.293
35.925 -22.052 -16.229 -0.421 -0.818 -0.391
37.647 -21.878 -15.181 -0.096 -0.984 0.149
37.897 -21.875 -15.272 0.191 -0.981 0.045
37.957 -21.876 -15.404 0.151 -0.98 0.132
38.191 -21.996 -16.327 0.704 -0.64 0.306
38.449 -21.696 -15.71 0.532 -0.84 -0.105
38.898 -21.697 -15.131 0.233 -0.839 -0.491
38.52 -21.568 -16.659 0.94 -0.335 0.069
38.765 -21.286 -16.029 0.776 -0.523 -0.351
39.288 -21.191 -15.524 0.428 -0.587 -0.688
38.833 -20.74 -16.287 0.829 -0.101 -0.551
38.557 -21.641 -17.572 0.967 -0.037 0.251
38.244 -22.037 -16.748 0.742 -0.67 0.006
38.279 -22.217 -17.377 0.72 -0.55 0.424
38.519 -22.555 -17.884 0.56 -0.325 0.762
37.608 -22.439 -16.718 0.288 -0.957 0.027
37.714 -22.574 -17.35 0.217 -0.867 0.448
37.882 -22.957 -17.854 0.105 -0.612 0.784
37.062 -22.586 -17.502 -0.363 -0.878 0.313
38.59 -20.726 -16.983 0.99 -0.111 -0.086
38.838 -20.587 -16.322 0.825 -0.204 -0.527
38.594 -20.671 -16.996 0.993 -0.06 -0.098
38.842 -20.531 -16.335 0.828 -0.154 -0.539
38.587 -20.664 -17.12 0.998 -0.065 -0.016
38.728 -20.51 -16.553 0.904 -0.168 -0.394
39.09 -20.398 -16.081 0.663 -0.243 -0.708
38.581 -20.507 -17.155 0.99 0.126 -0.059
38.724 -20.392 -16.579 0.895 0.05 -0.443
39.084 -20.265 -16.111 0.655 -0.035 -0.755
39.984 -20.773 -15.239 0.624 -0.635 -0.455
39.854 -20.994 -15.162 0.711 -0.488 -0.507
40.369 -20.402 -14.665 0.945 -0.325 0.023
40.349 -20.516 -14.424 0.959 -0.249 -0.138
40.368 -19.617 -14.658 0.944 0.329 0.029
40.347 -19.507 -14.414 0.958 0.255 -0.133
39.981 -19.235 -15.224 0.621 0.646 -0.442
39.85 -19.017 -15.143 0.709 0.501 -0.497
39.015 -21.912 -13.877 0.292 -0.947 0.136
38.768 -22.007 -13.836 0.456 -0.883 0.109
38.472 -21.601 -12.928 0.02 -0.792 0.611
38.346 -21.766 -13.097 0.104 -0.682 0.724
37.774 -20.984 -12.083 -0.044 -0.971 0.237
37.79 -20.983 -12.078 -0.031 -0.97 0.241
38.762 -21.489 -12.835 0.165 -0.736 0.657
38.861 -21.163 -12.277 0.099 -0.953 0.285
40.16 -20.784 -13.495 0.864 -0.383 0.327
40.259 -20.457 -12.938 0.798 -0.601 -0.045
40.381 -20.313 -13.81 0.974 -0.147 0.17
40.479 -19.986 -13.252 0.909 -0.365 -0.202
40.419 -19.792 -14.122 0.994 0.113 0.014
40.518 -19.466 -13.564 0.928 -0.105 -0.358
40.244 -18.812 -14.074 0.937 0.066 -0.342
39.542 -18.218 -14.671 0.452 0.476 -0.754
39.152 -17.97 -14.859 0.713 0.311 -0.629
39.096 -17.251 -14.842 0.75 -0.169 -0.64
38.492 -18.012 -15.239 0.159 0.275 -0.948
38.437 -17.293 -15.222 0.195 -0.204 -0.959
38.021 -17.918 -15.378 0.473 0.213 -0.855
38.175 -17.243 -15.314 0.37 -0.237 -0.898
37.917 -17.891 -15.421 0.36 0.242 -0.901
38.063 -17.214 -15.36 0.263 -0.21 -0.942
39.422 -17.129 -14.589 0.532 -0.25 -0.809
39.951 -16.668 -13.972 0.936 0.102 -0.337
39.247 -15.055 -15.631 0.586 0.159 -0.795
39.24 -14.463 -15.666 0.591 -0.236 -0.771
38.694 -15.056 -15.917 0.31 0.158 -0.938
38.726 -14.463 -15.932 0.289 -0.237 -0.928
38.08 -15.002 -16.008 0.003 0.185 -0.983
38.155 -14.414 -16.016 -0.047 -0.208 -0.977
37.477 -14.901 -15.891 -0.299 0.235 -0.925
37.594 -14.32 -15.908 -0.377 -0.152 -0.914
36.954 -14.763 -15.582 -0.56 0.304 -0.77
37.108 -14.192 -15.621 -0.663 -0.077 -0.745
36.572 -14.606 -15.116 -0.751 0.383 -0.537
36.753 -14.045 -15.188 -0.872 0.009 -0.49
36.376 -14.446 -14.547 -0.85 0.463 -0.253
36.57 -13.896 -14.659 -0.979 0.097 -0.179
36.388 -14.303 -13.941 -0.844 0.535 0.05
36.582 -13.763 -14.095 -0.973 0.175 0.153
36.748 -15.33 -12.213 -0.584 0.674 0.453
36.346 -15.589 -12.603 -0.83 0.515 0.214
36.279 -15.631 -12.728 -0.785 0.543 0.297
36.101 -15.605 -13.822 -0.987 -0.116 0.11
36.06 -16.069 -13.354 -0.96 0.193 -0.202
35.741 -16.477 -12.945 -0.747 0.465 -0.475
36.287 -16.697 -13.785 -0.779 -0.308 -0.546
35.444 -16.904 -12.402 -0.994 0.109 -0.022
35.399 -17.06 -12.189 -0.963 0.213 -0.164
37.074 -15.166 -11.832 -0.801 0.565 0.198
37.291 -15.215 -11.324 -0.658 0.532 0.532
36.077 -16.085 -11.168 -0.624 0.7 0.346
36.123 -16.165 -10.563 -0.654 0.754 -0.057
35.634 -16.697 -11.142 -0.846 0.395 0.359
35.748 -16.682 -10.542 -0.922 0.385 -0.041
35.508 -17.433 -11.027 -0.908 0.027 0.417
35.642 -17.304 -10.444 -0.998 -0.059 0.028
35.461 -18.042 -11.395 -0.932 -0.278 0.233
35.473 -18.682 -11.507 -0.94 0.149 0.308
35.381 -17.937 -11.996 -0.972 -0.226 -0.068
35.393 -18.578 -12.109 -0.98 0.201 0.007
35.496 -17.831 -12.592 -0.915 -0.172 -0.366
35.507 -18.471 -12.705 -0.922 0.254 -0.291
36.029 -18.286 -13.627 -0.924 0.245 -0.295
35.886 -18.738 -14.253 -0.828 0.547 0.123
36.074 -18.214 -13.69 -0.878 0.318 -0.358
35.93 -18.668 -14.314 -0.782 0.621 0.058
35.728 -18.927 -14.305 -0.723 0.673 0.158
35.87 -18.718 -13.743 -0.817 0.533 -0.218
35.631 -19.07 -14.228 -0.798 0.563 0.217
35.771 -18.863 -13.664 -0.891 0.425 -0.159
35.647 -19.104 -13.984 -0.809 0.586 0.054
35.506 -19.421 -13.873 -0.948 0.272 0.164
35.391 -19.167 -12.658 -0.997 0.081 -0.009
35.377 -19.017 -12.437 -0.987 -0.019 -0.157
35.878 -18.313 -10.666 -0.899 -0.204 0.387
36.001 -18.444 -10.502 -0.815 -0.294 0.5
35.713 -19.511 -11.108 -0.82 -0.265 0.508
35.953 -19.797 -10.623 -0.98 -0.075 0.185
35.844 -20.106 -11.447 -0.754 -0.563 0.338
36.064 -20.3 -10.91 -0.901 -0.434 -0.02
36.252 -20.601 -11.722 -0.55 -0.811 0.201
36.409 -20.718 -11.142 -0.655 -0.733 -0.186
36.86 -20.903 -11.882 -0.246 -0.962 0.121
36.922 -20.973 -11.277 -0.288 -0.915 -0.282
36.159 -18.639 -10.287 -0.92 -0.164 0.356
36.177 -18.643 -10.245 -0.904 -0.168 0.394
36.523 -19.561 -9.742 -0.573 0.094 0.814
36.569 -18.559 -9.351 -0.604 -0.574 0.553
37.369 -20.403 -9.677 0.031 -0.508 0.861
37.778 -20.304 -9.559 -0.242 -0.574 0.782
37.693 -20.864 -10.211 0.263 -0.837 0.479
38.076 -20.729 -10.051 0.007 -0.928 0.373
38.562 -20.73 -11.239 0.178 -0.961 0.214
38.709 -20.683 -11.194 0.289 -0.925 0.247
38.846 -20.642 -11.173 0.198 -0.952 0.233
39.692 -20.413 -11.367 0.378 -0.5 0.779
39.286 -20.285 -10.927 0.649 -0.586 0.485
39.042 -20.303 -10.365 0.812 -0.574 0.111
39.471 -19.699 -10.871 0.84 0.015 0.543
40.404 -20.005 -12.091 0.971 -0.16 0.176
40.49 -19.821 -12.265 0.914 -0.282 0.291
39.454 -19.561 -10.835 0.851 -0.077 0.519
39.399 -19.192 -10.792 0.81 0.201 0.551
40.284 -18.914 -11.729 0.811 0.171 0.559
40.309 -17.948 -11.462 0.794 -0.473 0.381
40.613 -18.916 -13.13 0.975 0.17 -0.141
40.622 -18.313 -13.22 0.969 -0.233 -0.081
40.616 -17.626 -13.167 0.965 0.258 -0.043
40.631 -17.138 -12.8 0.955 -0.067 -0.287
39.325 -18.655 -10.697 0.859 -0.157 0.488
39.101 -18.404 -10.403 0.661 0.065 0.748
40.6 -16.16 -11.23 0.841 -0.409 0.355
40.754 -16.005 -11.903 0.947 -0.303 -0.109
40.597 -16.724 -12.855 0.939 0.14 -0.315
40.826 -15.676 -12.931 0.786 -0.559 -0.264
40.853 -14.636 -13.602 0.799 -0.039 -0.599
40.728 -14.18 -14.018 0.883 -0.343 -0.322
41.141 -13.641 -13.086 0.839 -0.228 -0.494
41.143 -13.613 -13.094 0.841 -0.212 -0.498
40.763 -13.548 -14.245 0.9 -0.027 -0.435
40.991 -12.968 -14.119 0.748 -0.413 -0.519
40.411 -13.302 -14.741 0.724 0.096 -0.683
40.639 -12.722 -14.615 0.573 -0.29 -0.767
39.909 -13.594 -15.134 0.473 -0.05 -0.88
39.501 -13.853 -15.47 0.745 0.123 -0.656
39.347 -12.624 -15.273 0.464 -0.032 -0.885
39.297 -12.603 -15.299 0.424 -0.016 -0.905
39.121 -12.565 -15.397 0.542 -0.041 -0.84
38.451 -13.181 -15.793 0.127 0.518 -0.846
38.587 -12.473 -15.565 0.036 0.046 -0.998
38.737 -11.748 -15.716 -0.063 -0.437 -0.897
37.762 -13.022 -15.615 -0.278 0.611 -0.741
38.051 -12.35 -15.426 -0.471 0.163 -0.867
38.161 -11.615 -15.568 -0.544 -0.327 -0.773
37.274 -12.871 -15.096 -0.566 0.7 -0.436
37.671 -12.232 -15.022 -0.83 0.274 -0.485
37.752 -11.489 -15.133 -0.884 -0.221 -0.411
37.558 -12.154 -14.472 -0.937 0.348 0.036
37.555 -12.144 -14.267 -0.934 0.342 -0.101
37.548 -12.15 -14.21 -0.94 0.337 -0.056
36.864 -13.159 -13.912 -0.806 0.531 0.261
37.072 -12.848 -13.458 -0.945 0.324 -0.042
37.304 -12.482 -12.902 -0.829 0.506 0.236
37.532 -11.903 -12.776 -0.981 0.12 0.152
37.482 -12.682 -12.306 -0.741 0.407 0.535
37.709 -12.102 -12.18 -0.892 0.02 0.451
38.258 -12.851 -11.391 -0.839 0.232 0.493
38.256 -12.875 -11.385 -0.84 0.217 0.497
37.446 -13.312 -12.085 -0.759 0.092 0.645
37.571 -13.768 -11.668 -0.842 0.396 0.367
37.955 -15.159 -10.684 -0.363 0.409 0.837
37.605 -15.65 -10.424 -0.13 0.736 0.664
37.478 -15.104 -11.157 -0.783 0.458 0.421
37.163 -15.598 -10.863 -0.573 0.788 0.225
37.84 -15.665 -10.33 -0.287 0.746 0.601
38.35 -15.11 -10.452 -0.627 0.376 0.682
37.634 -16.256 -9.662 0.425 0.689 0.587
38.121 -15.885 -10.119 0.101 0.442 0.892
38.646 -15.342 -10.23 -0.25 0.08 0.965
39.075 -14.768 -9.965 -0.535 -0.303 0.788
38.412 -16.18 -10.14 0.503 0.035 0.864
38.953 -15.653 -10.251 0.142 -0.316 0.938
38.586 -16.679 -10.113 0.387 0.368 0.846
38.623 -16.834 -10.078 0.424 0.215 0.88
37.595 -16.804 -9.269 0.397 0.298 0.868
37.692 -17.198 -9.104 0.332 0.56 0.759
36.981 -16.934 -9.115 -0.042 0.205 0.978
37.126 -17.317 -8.963 -0.139 0.461 0.877
36.42 -17.235 -9.228 -0.442 -0.01 0.897
36.61 -17.594 -9.067 -0.569 0.23 0.79
36.052 -17.633 -9.58 -0.705 -0.294 0.646
36.272 -17.961 -9.391 -0.851 -0.076 0.52
38.637 -17.065 -10.005 0.415 0.369 0.832
38.84 -17.652 -10.125 0.651 -0.311 0.693
37.914 -18.341 -9.103 0.518 -0.392 0.76
38.345 -19.31 -9.371 0.231 0.254 0.939
38.933 -18.476 -10.245 0.588 0.239 0.773
39.168 -17.944 -10.427 0.432 -0.116 0.894
39.026 -18.539 -10.31 0.711 0.155 0.686
39.26 -18.007 -10.493 0.554 -0.2 0.808
39.413 -15.873 -10.302 -0.165 -0.169 0.972
39.964 -16.748 -10.466 0.582 0.124 0.803
40.121 -16.058 -10.478 0.478 -0.336 0.812
40.438 -15.48 -10.219 0.266 -0.722 0.639
40.555 -16.147 -11.087 0.871 -0.417 0.259
38.968 -14.151 -9.947 -0.598 0.06 0.799
39.084 -13.608 -9.756 -0.676 -0.303 0.672
39.508 -14.389 -9.679 -0.281 -0.08 0.956
39.664 -13.863 -9.469 -0.385 -0.431 0.816
40.114 -14.612 -9.648 0.076 -0.211 0.974
40.317 -14.103 -9.436 -0.059 -0.551 0.833
40.701 -14.789 -9.859 0.421 -0.315 0.851
40.948 -14.293 -9.662 0.256 -0.646 0.719
41.181 -14.893 -10.28 0.704 -0.376 0.603
41.464 -14.405 -10.115 0.515 -0.702 0.493
41.486 -14.91 -10.851 0.883 -0.386 0.267
41.792 -14.423 -10.729 0.679 -0.711 0.186
41.571 -14.836 -11.489 0.933 -0.343 -0.108
41.884 -14.344 -11.415 0.725 -0.671 -0.157
39.28 -11.561 -10.333 -0.577 0.721 0.384
39.254 -11.183 -10.782 -0.56 0.468 0.683
39.909 -11.301 -10.189 -0.263 0.85 0.456
39.839 -10.941 -10.648 -0.216 0.61 0.762
40.594 -11.199 -10.251 0.08 0.902 0.425
40.476 -10.846 -10.706 0.159 0.666 0.728
41.237 -11.268 -10.509 0.401 0.867 0.296
41.073 -10.91 -10.946 0.51 0.629 0.587
41.743 -11.499 -10.927 0.654 0.752 0.087
41.543 -11.125 -11.334 0.787 0.502 0.359
42.039 -11.858 -11.443 0.802 0.572 -0.171
41.819 -11.459 -11.814 0.949 0.306 0.076
42.084 -12.294 -11.984 0.824 0.354 -0.441
41.861 -11.864 -12.317 0.973 0.068 -0.219
41.398 -11.61 -13.385 0.952 0.266 -0.152
41.598 -11.571 -12.831 0.819 0.24 -0.522
41.161 -11.338 -13.839 0.833 0.402 -0.379
40.939 -10.908 -14.179 0.982 0.115 -0.152
41.017 -11.757 -14.318 0.762 0.193 -0.619
40.805 -11.297 -14.625 0.903 -0.114 -0.414
40.662 -12.146 -14.704 0.584 -0.002 -0.812
40.475 -11.659 -14.984 0.709 -0.326 -0.625
40.636 -10.264 -14.485 0.804 0.494 -0.332
40.588 -9.969 -14.29 0.836 0.297 -0.462
39.974 -9.9 -14.893 0.414 0.708 -0.571
40.034 -9.664 -14.631 0.374 0.551 -0.746
39.179 -9.615 -14.737 -0.053 0.876 -0.48
39.369 -9.426 -14.501 -0.18 0.749 -0.637
38.619 -9.543 -14.09 -0.383 0.919 -0.099
38.901 -9.365 -13.96 -0.57 0.8 -0.186
38.554 -9.715 -13.252 -0.421 0.817 0.394
38.846 -9.509 -13.258 -0.616 0.68 0.398
38.447 -10.251 -12.703 -0.484 0.502 0.717
38.48 -10.631 -12.251 -0.507 0.756 0.415
37.985 -10.554 -12.954 -0.756 0.324 0.569
37.983 -10.957 -12.521 -0.755 0.593 0.28
37.686 -10.923 -13.331 -0.932 0.106 0.347
37.662 -11.355 -12.927 -0.916 0.394 0.077
38.65 -10.891 -11.768 -0.422 0.625 0.656
39.044 -10.903 -11.327 -0.684 0.633 0.363
39.43 -10.228 -12.268 -0.379 0.737 0.559
40.268 -10.288 -11.781 0.036 0.995 0.096
40.067 -10.086 -12.358 0.171 0.86 0.481
39.913 -9.645 -12.803 0.273 0.566 0.778
40.943 -10.465 -12.178 0.434 0.891 -0.138
40.621 -10.231 -12.684 0.649 0.734 0.2
40.478 -9.794 -13.135 0.744 0.443 0.501
40.906 -10.615 -13.138 0.895 0.403 -0.191
37.7 -10.627 -14.365 -0.924 0.281 -0.261
37.703 -10.771 -14.692 -0.925 0.377 -0.043
38.158 -10.114 -14.741 -0.654 0.582 -0.482
38.086 -10.342 -15.007 -0.606 0.734 -0.305
38.811 -10.044 -15.168 -0.27 0.624 -0.733
38.632 -10.283 -15.364 -0.151 0.783 -0.603
39.408 -10.443 -15.481 0.081 0.389 -0.918
39.131 -10.617 -15.626 0.265 0.505 -0.821
39.718 -11.158 -15.56 0.263 -0.032 -0.964
39.391 -11.215 -15.692 0.482 0.007 -0.876
36.874 -15.778 -15.589 -0.6 -0.203 -0.774
36.869 -16.042 -15.547 -0.597 -0.027 -0.802
37.414 -21.677 -20.246 -0.229 0.302 -0.925
37.045 -21.085 -20.141 0.016 -0.093 -0.996
41.033 -13.534 -9.268 0.299 -0.266 0.916
41.188 -13.319 -9.23 0.195 -0.409 0.891
41.864 -13.534 -9.806 0.714 -0.266 0.647
41.834 -13.319 -9.649 0.734 -0.409 0.543
42.195 -12.69 -10.204 0.88 0.156 0.448
42.093 -12.663 -9.959 0.949 0.138 0.284
41.696 -11.847 -10.064 0.631 0.577 0.518
41.704 -12.007 -9.85 0.625 0.684 0.375
40.866 -11.847 -9.526 0.215 0.577 0.787
41.058 -12.007 -9.431 0.087 0.684 0.724
36.217 -18.154 -14.37 -0.836 0.545 -0.067
37.681 -18.631 -17.429 0.28 0.884 0.374
37.444 -18.608 -16.532 0.393 0.884 -0.255
37.434 -18.174 -15.885 0.4 0.576 -0.713
37.75 -17.127 -15.512 0.232 -0.162 -0.959
37.625 -18.634 -17.412 0 0.964 0.267
37.597 -17.175 -15.514 0.019 -0.011 -1
35.867 -21.893 -16.816 -0.383 -0.924 0
36.966 -18.054 -15.93 0.383 0.576 -0.722
36.966 -18.439 -16.412 0.383 0.832 -0.401
36.619 -17.159 -14.604 -1 0 0
36.505 -16.872 -14.107 -0.924 -0.191 -0.331
36.505 -17.447 -14.107 -0.924 0.191 -0.331
36.505 -17.734 -14.604 -0.924 0.383 0
35.207 -21.81 -19.609 -0.223 -0.608 -0.762
35.207 -21.263 -19.873 -0.223 -0.217 -0.95
35.207 -20.655 -19.873 -0.223 0.217 -0.95
35.207 -20.108 -19.609 -0.223 0.608 -0.762
34.646 -22.009 -18.234 -0.623 -0.75 0.22
34.646 -22.009 -18.85 -0.623 -0.75 -0.22
34.646 -21.676 -19.369 -0.623 -0.512 -0.591
34.646 -21.115 -19.625 -0.623 -0.111 -0.774
34.646 -20.504 -19.538 -0.623 0.325 -0.711
34.646 -20.038 -19.134 -0.623 0.658 -0.423
34.258 -21.263 -18.016 -0.901 -0.217 0.376
34.258 -21.566 -18.542 -0.901 -0.434 -0
34.258 -21.263 -19.068 -0.901 -0.217 -0.376
34.258 -20.655 -19.068 -0.901 0.217 -0.376
34.119 -20.959 -18.542 -1 0 0
35.224 -18.011 -17.172 -0.223 0.878 -0.423
34.663 -18.146 -16.58 -0.623 0.782 0
34.663 -18.32 -15.988 -0.623 0.658 0.423
34.663 -18.32 -17.172 -0.623 0.658 -0.423
34.275 -18.634 -16.58 -0.901 0.434 0
34.275 -18.937 -16.054 -0.901 0.217 0.376
34.275 -18.937 -17.106 -0.901 0.217 -0.376
34.136 -19.241 -16.58 -1 0 0
35.895 -22.414 -14.24 0.223 -0.878 0.423
35.895 -22.549 -14.832 0.223 -0.975 0
35.271 -22.035 -13.765 -0.223 -0.608 0.762
35.271 -22.414 -14.24 -0.223 -0.878 0.423
35.271 -22.549 -14.832 -0.223 -0.975 0
35.271 -22.414 -15.424 -0.223 -0.878 -0.423
34.71 -21.34 -13.749 -0.623 -0.111 0.774
34.71 -21.901 -14.005 -0.623 -0.512 0.591
34.71 -22.234 -14.524 -0.623 -0.75 0.22
34.71 -22.234 -15.14 -0.623 -0.75 -0.22
34.322 -20.88 -14.306 -0.901 0.217 0.376
34.322 -21.488 -14.306 -0.901 -0.217 0.376
34.322 -21.791 -14.832 -0.901 -0.434 -0
34.322 -21.488 -15.358 -0.901 -0.217 -0.376
34.183 -21.184 -14.832 -1 0 0
39.135 -22.1 -18.951 1 0 0
38.996 -22.404 -18.425 0.901 -0.217 0.376
38.996 -22.707 -18.951 0.901 -0.434 -0
38.996 -22.404 -19.477 0.901 -0.217 -0.376
38.996 -21.796 -19.477 0.901 0.217 -0.376
38.608 -22.817 -18.124 0.623 -0.512 0.591
38.608 -23.15 -18.643 0.623 -0.75 0.22
38.608 -23.15 -19.259 0.623 -0.75 -0.22
38.608 -22.817 -19.778 0.623 -0.512 -0.591
38.608 -22.256 -20.034 0.623 -0.111 -0.774
38.047 -23.33 -18.359 0.223 -0.878 0.423
38.047 -23.465 -18.951 0.223 -0.975 0
38.047 -23.33 -19.543 0.223 -0.878 -0.423
38.047 -22.951 -20.018 0.223 -0.608 -0.762
38.047 -22.404 -20.282 0.223 -0.217 -0.95
38.047 -21.796 -20.282 0.223 0.217 -0.95
37.423 -23.33 -18.359 -0.223 -0.878 0.423
37.423 -23.465 -18.951 -0.223 -0.975 0
37.423 -23.33 -19.543 -0.223 -0.878 -0.423
37.423 -22.951 -20.018 -0.223 -0.608 -0.762
37.423 -22.404 -20.282 -0.223 -0.217 -0.95
36.862 -23.15 -19.259 -0.623 -0.75 -0.22
36.703 -20.61 -20.095 -0.174 0.171 -0.97
39.043 -19.579 -18.654 1 0 0
38.904 -18.972 -18.654 0.901 0.434 0
38.904 -19.275 -19.18 0.901 0.217 -0.376
38.516 -18.484 -18.654 0.623 0.782 0
38.516 -19.124 -19.65 0.623 0.325 -0.711
38.516 -18.658 -19.246 0.623 0.658 -0.423
37.955 -18.214 -18.654 0.223 0.975 0
37.955 -19.275 -19.985 0.223 0.217 -0.95
37.955 -18.728 -19.721 0.223 0.608 -0.762
37.955 -18.349 -19.246 0.223 0.878 -0.423
37.331 -18.214 -18.654 -0.223 0.975 0
37.331 -19.275 -19.985 -0.223 0.217 -0.95
37.331 -18.728 -19.721 -0.223 0.608 -0.762
37.331 -18.349 -19.246 -0.223 0.878 -0.423
36.77 -18.658 -19.246 -0.623 0.658 -0.423
40.274 -20.311 -15.213 0.866 -0.25 -0.433
40.274 -19.711 -15.213 0.866 0.25 -0.433
40.05 -21.194 -14.149 0.809 -0.588 0
39.608 -21.513 -13.53 0.588 -0.747 0.31
39.608 -21.636 -14.149 0.588 -0.809 0
39.608 -21.513 -14.768 0.588 -0.747 -0.31
39.693 -15.96 -15.06 0.809 -0.294 -0.509
39.693 -15.372 -15.218 0.809 -0 -0.588
39.251 -15.991 -15.537 0.588 -0.31 -0.747
38.693 -16.136 -15.784 0.309 -0.382 -0.871
38.693 -15.529 -15.938 0.309 -0.079 -0.948
38.075 -15.817 -15.992 -0 -0.223 -0.975
37.457 -15.529 -15.938 -0.309 -0.079 -0.948
36.899 -15.372 -15.66 -0.588 0 -0.809
36.457 -15.372 -15.218 -0.809 -0 -0.588
36.173 -14.754 -14.042 -0.951 0.309 0
36.173 -15.681 -14.577 -0.951 -0.155 -0.268
36.173 -15.063 -14.577 -0.951 0.155 -0.268
35.325 -17.486 -11.861 -1 -0 -0
35.45 -19.289 -11.588 -0.951 -0.155 0.268
38.221 -22.112 -13.679 -0 -0.971 0.239
37.013 -20.543 -9.815 -0.223 -0.608 0.762
37.013 -20.922 -10.29 -0.223 -0.878 0.423
37.013 -21.057 -10.882 -0.223 -0.975 0
36.452 -20.409 -10.055 -0.623 -0.512 0.591
36.452 -20.742 -10.574 -0.623 -0.75 0.22
36.064 -19.996 -10.356 -0.901 -0.217 0.376
40.277 -20.113 -11.782 0.866 -0.25 0.433
39.838 -20.81 -12.009 0.5 -0.831 0.244
40.662 -19.256 -12.848 1 0 0
40.564 -19.874 -12.848 0.951 -0.309 -0
40.526 -17.683 -13.633 0.901 0.217 -0.376
40.622 -17.312 -11.69 0.951 -0.155 0.268
40.872 -15.147 -13.421 0.809 -0.294 -0.509
40.581 -14.083 -14.393 0.809 -0.294 -0.509
39.085 -13.606 -15.755 0.5 0.268 -0.824
38.53 -13.907 -16.022 0.174 0.091 -0.981
37.94 -13.907 -16.022 -0.174 0.091 -0.981
37.385 -13.606 -15.755 -0.5 0.268 -0.824
36.933 -13.607 -15.349 -0.766 0.267 -0.585
36.933 -13.142 -14.946 -0.766 0.541 -0.348
36.638 -13.48 -14.355 -0.94 0.342 0
37.636 -13.971 -11.385 -0.809 0.294 0.509
37.351 -16.37 -9.417 0.223 0.608 0.762
36.727 -15.991 -9.892 -0.223 0.878 0.423
36.727 -16.37 -9.417 -0.223 0.608 0.762
36.166 -16.3 -9.892 -0.623 0.658 0.423
36.166 -16.766 -9.488 -0.623 0.325 0.711
35.778 -16.917 -9.958 -0.901 0.217 0.376
35.778 -17.525 -9.958 -0.901 -0.217 0.376
37.893 -18.018 -8.986 0.5 -0.123 0.857
37.293 -17.725 -8.824 -0 0.121 0.993
37.293 -18.296 -8.893 -0 -0.355 0.935
36.693 -18.018 -8.986 -0.5 -0.123 0.857
39.107 -19.915 -9.978 0.866 -0.25 0.433
38.668 -19.763 -9.469 0.5 -0.123 0.857
38.668 -20.296 -9.713 0.5 -0.567 0.654
38.068 -20.041 -9.376 -0 -0.355 0.935
41.287 -15.301 -10.997 0.766 -0.617 0.181
42.435 -13.002 -11.101 1 0 0
42.337 -12.384 -11.101 0.951 0.309 0
42.337 -12.693 -10.566 0.951 0.155 0.268
42.337 -13.311 -10.566 0.951 -0.155 0.268
42.337 -13.62 -11.101 0.951 -0.309 -0
42.337 -13.311 -11.636 0.951 -0.155 -0.268
42.337 -12.693 -11.636 0.951 0.155 -0.268
42.053 -11.984 -10.513 0.809 0.509 0.294
42.053 -14.02 -10.513 0.809 -0.509 0.294
42.053 -14.02 -11.689 0.809 -0.509 -0.294
42.053 -13.59 -12.119 0.809 -0.294 -0.509
42.053 -13.002 -12.277 0.809 -0 -0.588
41.611 -14.146 -9.957 0.588 -0.572 0.572
40.435 -11.755 -9.537 -0 0.623 0.782
40.435 -13.447 -9.151 -0 -0.223 0.975
39.817 -11.962 -9.509 -0.309 0.52 0.796
39.817 -12.535 -9.257 -0.309 0.233 0.922
39.817 -13.159 -9.205 -0.309 -0.079 0.948
39.259 -11.858 -9.957 -0.588 0.572 0.572
39.259 -12.383 -9.606 -0.588 0.31 0.747
39.259 -13.002 -9.483 -0.588 -0 0.809
38.817 -12.414 -10.083 -0.809 0.294 0.509
38.817 -13.002 -9.925 -0.809 -0 0.588
41.112 -12.142 -14.257 0.809 -0 -0.588
40.572 -11.26 -15.003 0.766 -0.091 -0.636
40.572 -10.65 -14.915 0.766 0.267 -0.585
40.12 -11.258 -15.385 0.5 -0.091 -0.861
40.12 -10.649 -15.321 0.5 0.268 -0.824
38.42 -9.759 -14.52 -0.5 0.791 -0.352
37.968 -10.011 -13.921 -0.766 0.643 0
37.968 -10.185 -13.33 -0.766 0.541 0.348
37.673 -10.523 -13.921 -0.94 0.342 0
38.813 -11.078 -15.831 -0 0.121 -0.993
38.213 -10.791 -15.585 -0.5 0.36 -0.788
37.774 -10.923 -15.16 -0.866 0.25 -0.433
38.318 -10.998 -11.937 -0.588 0.572 0.572
37.876 -11.554 -12.063 -0.809 0.294 0.509
41.508 -10.886 -11.944 0.766 0.643 0
41.056 -10.634 -11.345 0.5 0.791 0.352
40.501 -10.418 -11.339 0.174 0.918 0.356
39.911 -10.418 -11.339 -0.174 0.918 0.356
40.624 -9.725 -13.736 0.866 0.5 0
40.185 -9.286 -13.736 0.5 0.866 0
40.185 -9.451 -13.174 0.5 0.729 0.468
40.185 -9.451 -14.298 0.5 0.729 -0.468
39.585 -9.125 -13.736 -0 1 0
39.585 -9.262 -13.178 -0 0.885 0.465
39.585 -9.262 -14.294 -0 0.885 -0.465
41.554 -12.396 -9.355 0.5 0.36 0.788
41.554 -12.976 -9.271 0.5 -0.123 0.857
3 0 263 262
3 262 263 264
3 262 264 1
3 1 264 265
3 263 266 264
3 264 266 267
3 264 267 265
3 265 267 268
3 266 4 267
3 267 4 269
3 267 269 268
3 268 269 3
3 4 7 270
3 270 7 271
3 270 271 5
3 5 271 6
3 7 274 272
3 272 274 275
3 272 275 273
3 273 275 276
3 273 276 8
3 8 276 277
3 274 10 275
3 275 10 278
3 275 278 276
3 276 278 279
3 276 279 277
3 277 279 9
3 10 13 280
3 280 13 281
3 280 281 11
3 11 281 12
3 13 16 14
3 14 16 15
3 16 283 282
3 282 283 284
3 282 284 17
3 17 284 285
3 283 19 284
3 284 19 286
3 284 286 285
3 285 286 18
3 19 287 20
3 20 287 288
3 287 22 288
3 288 22 21
3 22 0 289
3 289 0 290
3 289 290 23
3 23 290 2
3 23 291 21
3 21 291 292
3 291 25 292
3 292 25 24
3 25 294 293
3 293 294 295
3 293 295 26
3 26 295 296
3 294 28 295
3 295 28 297
3 295 297 296
3 296 297 27
3 28 31 29
3 29 31 30
3 31 34 298
3 298 34 301
3 298 301 299
3 299 301 302
3 299 302 300
3 300 302 303
3 300 303 32
3 32 303 33
3 34 37 304
3 304 37 307
3 304 307 305
3 305 307 308
3 305 308 306
3 306 308 309
3 306 309 35
3 35 309 36
3 37 40 310
3 310 40 312
3 310 312 311
3 311 312 313
3 311 313 38
3 38 313 39
3 44 41 43
3 40 45 42
3 49 46 48
3 45 50 47
3 50 315 314
3 314 315 316
3 314 316 51
3 51 316 317
3 315 318 316
3 316 318 319
3 316 319 317
3 317 319 320
3 318 2 319
3 319 2 321
3 319 321 320
3 320 321 1
3 51 325 322
3 322 325 326
3 322 326 323
3 323 326 327
3 323 327 324
3 324 327 328
3 324 328 49
3 49 328 329
3 325 53 326
3 326 53 330
3 326 330 327
3 327 330 331
3 327 331 328
3 328 331 332
3 328 332 329
3 329 332 52
3 53 56 333
3 333 56 336
3 333 336 334
3 334 336 337
3 334 337 335
3 335 337 338
3 335 338 54
3 54 338 55
3 60 57 59
3 56 61 58
3 61 64 339
3 339 64 342
3 339 342 340
3 340 342 343
3 340 343 341
3 341 343 344
3 341 344 62
3 62 344 63
3 64 345 65
3 65 345 346
3 345 67 346
3 346 67 66
3 67 70 347
3 347 70 348
3 347 348 68
3 68 348 69
3 70 3 71
3 71 3 5
3 71 6 69
3 69 6 8
3 68 73 66
3 66 73 72
3 73 76 349
3 349 76 350
3 349 350 74
3 74 350 75
3 76 353 351
3 351 353 354
3 351 354 352
3 352 354 355
3 352 355 77
3 77 355 356
3 353 79 354
3 354 79 357
3 354 357 355
3 355 357 358
3 355 358 356
3 356 358 78
3 79 82 359
3 359 82 360
3 359 360 80
3 80 360 81
3 82 362 361
3 361 362 363
3 361 363 83
3 83 363 364
3 362 85 363
3 363 85 365
3 363 365 364
3 364 365 84
3 85 367 366
3 366 367 368
3 366 368 86
3 86 368 369
3 367 9 368
3 368 9 370
3 368 370 369
3 369 370 11
3 86 88 371
3 371 88 372
3 371 372 84
3 84 372 87
3 88 374 373
3 373 374 375
3 373 375 89
3 89 375 376
3 374 377 375
3 375 377 378
3 375 378 376
3 376 378 379
3 377 91 378
3 378 91 380
3 378 380 379
3 379 380 90
3 91 94 92
3 92 94 93
3 94 382 381
3 381 382 383
3 381 383 95
3 95 383 384
3 382 385 383
3 383 385 386
3 383 386 384
3 384 386 387
3 385 97 386
3 386 97 388
3 386 388 387
3 387 388 96
3 97 12 98
3 98 12 14
3 98 15 96
3 96 15 17
3 95 27 93
3 93 27 29
3 92 100 389
3 389 100 391
3 389 391 390
3 390 391 392
3 390 392 90
3 90 392 99
3 100 30 393
3 393 30 396
3 393 396 394
3 394 396 397
3 394 397 395
3 395 397 398
3 395 398 101
3 101 398 32
3 101 399 99
3 99 399 400
3 399 401 400
3 400 401 402
3 401 403 402
3 402 403 404
3 403 405 404
3 404 405 406
3 405 33 406
3 406 33 35
3 89 407 87
3 87 407 408
3 407 409 408
3 408 409 410
3 409 81 410
3 410 81 83
3 80 103 78
3 78 103 102
3 103 106 411
3 411 106 412
3 411 412 104
3 104 412 105
3 106 413 107
3 107 413 414
3 413 109 414
3 414 109 108
3 109 112 110
3 110 112 111
3 112 415 113
3 113 415 416
3 415 417 416
3 416 417 418
3 417 419 418
3 418 419 420
3 419 115 420
3 420 115 114
3 115 118 421
3 421 118 422
3 421 422 116
3 116 422 117
3 118 121 423
3 423 121 425
3 423 425 424
3 424 425 426
3 424 426 119
3 119 426 120
3 121 36 122
3 122 36 38
3 122 39 427
3 427 39 429
3 427 429 428
3 428 429 430
3 428 430 120
3 120 430 41
3 119 124 431
3 431 124 432
3 431 432 117
3 117 432 123
3 124 127 125
3 125 127 126
3 127 130 128
3 128 130 129
3 130 133 131
3 131 133 132
3 133 433 134
3 134 433 434
3 433 435 434
3 434 435 436
3 435 437 436
3 436 437 438
3 437 439 438
3 438 439 440
3 439 441 440
3 440 441 442
3 441 443 442
3 442 443 444
3 443 445 444
3 444 445 446
3 445 447 446
3 446 447 448
3 447 136 448
3 448 136 135
3 136 139 137
3 137 139 138
3 139 142 140
3 140 142 141
3 142 145 449
3 449 145 450
3 449 450 143
3 143 450 144
3 145 452 451
3 451 452 453
3 451 453 146
3 146 453 454
3 452 55 453
3 453 55 455
3 453 455 454
3 454 455 57
3 146 456 144
3 144 456 457
3 456 60 457
3 457 60 62
3 143 148 458
3 458 148 459
3 458 459 141
3 141 459 147
3 148 460 149
3 149 460 461
3 460 462 461
3 461 462 463
3 462 464 463
3 463 464 465
3 464 151 465
3 465 151 150
3 151 466 152
3 152 466 467
3 466 468 467
3 467 468 469
3 468 470 469
3 469 470 471
3 470 154 471
3 471 154 153
3 154 63 472
3 472 63 474
3 472 474 473
3 473 474 475
3 473 475 155
3 155 475 65
3 155 157 476
3 476 157 478
3 476 478 477
3 477 478 479
3 477 479 153
3 153 479 156
3 157 72 480
3 480 72 481
3 480 481 158
3 158 481 74
3 158 482 156
3 156 482 483
3 482 75 483
3 483 75 77
3 152 160 484
3 484 160 485
3 484 485 150
3 150 485 159
3 160 486 161
3 161 486 487
3 486 488 487
3 487 488 489
3 488 490 489
3 489 490 491
3 490 492 491
3 491 492 493
3 492 102 493
3 493 102 104
3 161 163 494
3 494 163 495
3 494 495 159
3 159 495 162
3 163 496 164
3 164 496 497
3 496 166 497
3 497 166 165
3 166 498 167
3 167 498 499
3 498 500 499
3 499 500 501
3 500 169 501
3 501 169 168
3 169 105 170
3 170 105 107
3 170 172 502
3 502 172 503
3 502 503 168
3 168 503 171
3 172 108 173
3 173 108 110
3 173 505 504
3 504 505 506
3 504 506 171
3 171 506 507
3 505 175 506
3 506 175 508
3 506 508 507
3 507 508 174
3 175 509 176
3 176 509 510
3 509 111 510
3 510 111 113
3 176 178 511
3 511 178 512
3 511 512 174
3 174 512 177
3 178 513 179
3 179 513 514
3 513 181 514
3 514 181 180
3 181 515 182
3 182 515 516
3 515 114 516
3 516 114 116
3 182 517 180
3 180 517 518
3 517 123 518
3 518 123 125
3 179 184 519
3 519 184 520
3 519 520 177
3 177 520 183
3 184 187 185
3 185 187 186
3 187 190 521
3 521 190 522
3 521 522 188
3 188 522 189
3 190 523 191
3 191 523 524
3 523 126 524
3 524 126 128
3 191 193 189
3 189 193 192
3 193 196 194
3 194 196 195
3 196 525 197
3 197 525 526
3 525 129 526
3 526 129 131
3 197 199 527
3 527 199 528
3 527 528 195
3 195 528 198
3 199 529 200
3 200 529 530
3 529 531 530
3 530 531 532
3 531 202 532
3 532 202 201
3 202 205 203
3 203 205 204
3 205 533 206
3 206 533 534
3 533 132 534
3 534 132 134
3 206 208 535
3 535 208 536
3 535 536 204
3 204 536 207
3 208 538 537
3 537 538 539
3 537 539 209
3 209 539 540
3 538 541 539
3 539 541 542
3 539 542 540
3 540 542 543
3 541 544 542
3 542 544 545
3 542 545 543
3 543 545 546
3 544 211 545
3 545 211 547
3 545 547 546
3 546 547 210
3 211 214 548
3 548 214 549
3 548 549 212
3 212 549 213
3 214 550 215
3 215 550 551
3 550 135 551
3 551 135 137
3 215 217 213
3 213 217 216
3 217 552 218
3 218 552 553
3 552 554 553
3 553 554 555
3 554 220 555
3 555 220 219
3 220 223 556
3 556 223 557
3 556 557 221
3 221 557 222
3 223 558 224
3 224 558 559
3 558 138 559
3 559 138 140
3 224 226 222
3 222 226 225
3 226 229 227
3 227 229 228
3 229 147 560
3 560 147 562
3 560 562 561
3 561 562 563
3 561 563 230
3 230 563 149
3 230 566 564
3 564 566 567
3 564 567 565
3 565 567 568
3 565 568 228
3 228 568 569
3 566 232 567
3 567 232 570
3 567 570 568
3 568 570 571
3 568 571 569
3 569 571 231
3 232 235 572
3 572 235 573
3 572 573 233
3 233 573 234
3 235 574 236
3 236 574 575
3 574 576 575
3 575 576 577
3 576 578 577
3 577 578 579
3 578 580 579
3 579 580 581
3 580 162 581
3 581 162 164
3 236 238 582
3 582 238 583
3 582 583 234
3 234 583 237
3 238 584 239
3 239 584 585
3 584 165 585
3 585 165 167
3 239 183 586
3 586 183 588
3 586 588 587
3 587 588 589
3 587 589 237
3 237 589 185
3 233 591 590
3 590 591 592
3 590 592 231
3 231 592 593
3 591 186 592
3 592 186 594
3 592 594 593
3 593 594 188
3 227 595 225
3 225 595 596
3 595 597 596
3 596 597 598
3 597 599 598
3 598 599 600
3 599 601 600
3 600 601 602
3 601 603 602
3 602 603 604
3 603 605 604
3 604 605 606
3 605 607 606
3 606 607 608
3 607 192 608
3 608 192 194
3 221 241 219
3 219 241 240
3 241 609 242
3 242 609 610
3 609 611 610
3 610 611 612
3 611 613 612
3 612 613 614
3 613 615 614
3 614 615 616
3 615 617 616
3 616 617 618
3 617 619 618
3 618 619 620
3 619 621 620
3 620 621 622
3 621 244 622
3 622 244 243
3 244 198 245
3 245 198 200
3 245 623 243
3 243 623 624
3 623 247 624
3 624 247 246
3 247 250 248
3 248 250 249
3 250 625 251
3 251 625 626
3 625 627 626
3 626 627 628
3 627 629 628
3 628 629 630
3 629 201 630
3 630 201 203
3 251 631 249
3 249 631 632
3 631 633 632
3 632 633 634
3 633 635 634
3 634 635 636
3 635 637 636
3 636 637 638
3 637 639 638
3 638 639 640
3 639 253 640
3 640 253 252
3 253 641 254
3 254 641 642
3 641 643 642
3 642 643 644
3 643 645 644
3 644 645 646
3 645 216 646
3 646 216 218
3 254 256 252
3 252 256 255
3 256 647 257
3 257 647 648
3 647 240 648
3 648 240 242
3 257 650 649
3 649 650 651
3 649 651 255
3 255 651 652
3 650 653 651
3 651 653 654
3 651 654 652
3 652 654 655
3 653 246 654
3 654 246 656
3 654 656 655
3 655 656 248
3 212 657 210
3 210 657 658
3 657 659 658
3 658 659 660
3 659 661 660
3 660 661 662
3 661 663 662
3 662 663 664
3 663 665 664
3 664 665 666
3 665 207 666
3 666 207 209
3 54 667 52
3 52 667 668
3 667 44 668
3 668 44 46
3 26 669 24
3 24 669 670
3 669 18 670
3 670 18 20
3 258 671 259
3 259 671 672
3 671 673 672
3 672 673 674
3 673 675 674
3 674 675 676
3 675 677 676
3 676 677 678
3 677 679 678
3 678 679 680
3 679 258 680
3 680 258 259
3 290 0 262
3 290 262 321
3 290 321 2
3 321 262 1
3 5 3 270
3 270 3 269
3 270 269 4
3 8 6 273
3 273 6 271
3 273 271 272
3 272 271 7
3 370 9 279
3 370 279 688
3 370 688 11
3 11 688 280
3 280 688 278
3 280 278 10
3 278 688 279
3 14 12 281
3 14 281 13
3 17 15 282
3 282 15 16
3 20 18 286
3 20 286 19
3 23 21 289
3 289 21 22
3 26 24 293
3 293 24 25
3 29 27 297
3 29 297 28
3 396 30 298
3 396 298 299
3 396 299 397
3 397 299 300
3 397 300 398
3 398 300 32
3 298 30 31
3 35 33 303
3 35 303 306
3 306 303 302
3 306 302 305
3 305 302 301
3 305 301 304
3 304 301 34
3 38 36 309
3 38 309 311
3 311 309 308
3 311 308 310
3 310 308 307
3 310 307 37
3 429 39 684
3 429 684 261
3 429 261 430
3 430 261 685
3 430 685 43
3 430 43 41
3 684 39 313
3 684 313 683
3 683 313 312
3 683 312 260
3 260 312 682
3 682 312 42
3 42 312 40
3 46 44 43
3 46 43 48
3 48 43 685
3 48 685 687
3 687 685 261
3 324 49 48
3 324 48 687
3 324 687 261
3 324 261 323
3 323 261 689
3 323 689 322
3 322 689 690
3 322 690 51
3 51 690 314
3 314 690 683
3 314 683 260
3 314 260 686
3 314 686 47
3 314 47 50
3 683 690 684
3 684 690 689
3 684 689 261
3 54 52 335
3 335 52 332
3 335 332 334
3 334 332 331
3 334 331 333
3 333 331 330
3 333 330 53
3 692 691 693
3 693 691 694
3 455 55 692
3 455 692 693
3 455 693 57
3 57 693 59
3 59 693 694
3 59 694 681
3 681 694 58
3 58 694 337
3 58 337 336
3 58 336 56
3 337 694 691
3 337 691 338
3 338 691 692
3 338 692 55
3 62 60 59
3 62 59 341
3 341 59 681
3 341 681 340
3 340 681 58
3 340 58 339
3 339 58 61
3 474 63 344
3 474 344 343
3 474 343 475
3 475 343 342
3 475 342 65
3 65 342 64
3 68 66 347
3 347 66 67
3 71 69 348
3 71 348 70
3 481 72 349
3 481 349 74
3 349 72 73
3 77 75 352
3 352 75 350
3 352 350 351
3 351 350 76
3 80 78 358
3 80 358 359
3 359 358 357
3 359 357 79
3 83 81 361
3 361 81 360
3 361 360 82
3 371 84 365
3 371 365 366
3 371 366 86
3 366 365 85
3 89 87 372
3 89 372 373
3 373 372 88
3 390 90 380
3 390 380 389
3 389 380 91
3 389 91 92
3 95 93 381
3 381 93 94
3 98 96 388
3 98 388 97
3 101 99 395
3 395 99 392
3 395 392 394
3 394 392 391
3 394 391 393
3 393 391 100
3 104 102 411
3 411 102 103
3 107 105 412
3 107 412 106
3 110 108 109
3 113 111 112
3 116 114 421
3 421 114 115
3 431 117 424
3 431 424 119
3 424 117 423
3 423 117 422
3 423 422 118
3 428 120 426
3 428 426 427
3 427 426 425
3 427 425 122
3 122 425 121
3 125 123 432
3 125 432 124
3 128 126 127
3 131 129 130
3 134 132 133
3 137 135 136
3 140 138 139
3 458 141 142
3 458 142 449
3 458 449 143
3 146 144 450
3 146 450 451
3 451 450 145
3 562 147 459
3 562 459 563
3 563 459 148
3 563 148 149
3 484 150 151
3 484 151 152
3 477 153 472
3 477 472 473
3 477 473 476
3 476 473 155
3 472 153 154
3 158 156 479
3 158 479 480
3 480 479 478
3 480 478 157
3 494 159 485
3 494 485 160
3 494 160 161
3 164 162 495
3 164 495 163
3 167 165 166
3 502 168 169
3 502 169 170
3 504 171 503
3 504 503 172
3 504 172 173
3 511 174 508
3 511 508 176
3 176 508 175
3 519 177 512
3 519 512 178
3 519 178 179
3 182 180 181
3 588 183 520
3 588 520 589
3 589 520 184
3 589 184 185
3 594 186 521
3 594 521 188
3 521 186 187
3 191 189 522
3 191 522 190
3 194 192 193
3 527 195 196
3 527 196 197
3 200 198 528
3 200 528 199
3 203 201 202
3 535 204 205
3 535 205 206
3 209 207 536
3 209 536 537
3 537 536 208
3 212 210 548
3 548 210 547
3 548 547 211
3 215 213 549
3 215 549 214
3 218 216 217
3 221 219 556
3 556 219 220
3 224 222 557
3 224 557 223
3 227 225 226
3 565 228 229
3 565 229 560
3 565 560 564
3 564 560 561
3 564 561 230
3 590 231 571
3 590 571 233
3 233 571 570
3 233 570 572
3 572 570 232
3 582 234 573
3 582 573 235
3 582 235 236
3 587 237 583
3 587 583 586
3 586 583 238
3 586 238 239
3 242 240 241
3 245 243 244
3 656 246 247
3 656 247 248
3 251 249 250
3 254 252 253
3 649 255 256
3 649 256 257
3 686 260 682
3 686 682 47
3 47 682 42
3 47 42 45
3 13 10 16
3 696 695 701
3 696 701 702
3 697 696 702
3 697 702 703
3 698 697 703
3 698 703 704
3 699 705 706
3 700 699 706
3 700 706 707
3 701 700 707
3 702 701 707
3 702 707 708
3 703 702 708
3 704 703 708
3 706 705 709
3 707 706 709
3 708 707 709
3 708 709 266
3 708 266 263
3 708 263 704
3 704 263 0
3 704 0 698
3 698 0 22
3 698 22 697
3 697 22 287
3 697 287 696
3 696 287 19
3 696 19 695
3 695 19 283
3 695 283 700
3 695 700 701
3 700 283 16
3 700 16 699
3 699 16 10
3 699 10 274
3 699 274 705
3 705 274 7
3 705 7 4
3 705 4 266
3 705 266 709
3 711 710 713
3 712 711 714
3 712 714 715
3 714 713 716
3 711 713 714
3 715 714 717
3 714 716 717
3 717 716 268
3 717 268 70
3 717 70 67
3 717 67 715
3 715 67 345
3 715 345 712
3 712 345 64
3 712 64 61
3 712 61 53
3 712 53 711
3 711 53 325
3 711 325 710
3 710 325 317
3 710 317 320
3 710 320 1
3 710 1 713
3 713 1 265
3 713 265 716
3 716 265 268
3 317 325 51
3 53 61 56
3 70 268 3
3 6 71 5
3 718 721 722
3 719 718 722
3 719 722 723
3 721 720 725
3 721 725 726
3 722 721 726
3 722 726 727
3 723 722 727
3 724 728 729
3 725 724 729
3 726 725 729
3 726 729 730
3 727 726 730
3 727 730 731
3 729 728 732
3 730 729 732
3 731 730 732
3 731 732 69
3 731 69 8
3 731 8 277
3 731 277 727
3 727 277 723
3 723 277 9
3 723 9 367
3 723 367 719
3 719 367 85
3 719 85 362
3 719 362 718
3 718 362 82
3 718 82 720
3 718 720 721
3 720 82 79
3 720 79 353
3 720 353 724
3 720 724 725
3 724 353 76
3 724 76 728
3 728 76 73
3 728 73 68
3 728 68 732
3 732 68 69
3 11 12 369
3 12 97 369
3 369 97 385
3 369 385 86
3 86 385 88
3 88 385 374
3 374 385 382
3 374 382 377
3 377 382 94
3 377 94 91
3 15 98 14
3 733 734 735
3 733 735 736
3 733 736 737
3 734 738 739
3 735 734 739
3 735 739 740
3 736 735 740
3 736 740 741
3 736 741 742
3 737 736 742
3 739 738 743
3 739 743 744
3 740 739 744
3 740 744 745
3 741 740 745
3 741 745 746
3 741 746 747
3 742 741 747
3 742 747 748
3 743 749 750
3 744 743 750
3 744 750 751
3 745 744 751
3 745 751 752
3 746 745 752
3 746 752 753
3 747 746 753
3 751 750 754
3 751 754 752
3 752 754 285
3 752 285 18
3 752 18 753
3 753 18 669
3 753 669 748
3 753 748 747
3 748 669 26
3 748 26 742
3 742 26 296
3 742 296 737
3 737 296 27
3 737 27 733
3 733 27 95
3 733 95 734
3 734 95 384
3 734 384 738
3 738 384 387
3 738 387 743
3 743 387 749
3 749 387 96
3 749 96 17
3 749 17 750
3 750 17 754
3 754 17 285
3 292 24 670
3 292 670 755
3 292 755 21
3 21 755 288
3 288 755 670
3 288 670 20
3 756 758 757
3 758 760 761
3 757 758 761
3 757 761 759
3 760 763 764
3 761 760 764
3 761 764 765
3 759 761 765
3 759 765 762
3 763 767 768
3 764 763 768
3 764 768 769
3 765 764 769
3 762 765 769
3 762 769 766
3 769 768 770
3 769 770 318
3 769 318 766
3 766 318 315
3 766 315 762
3 762 315 45
3 762 45 40
3 762 40 759
3 759 40 37
3 759 37 757
3 757 37 34
3 757 34 756
3 756 34 31
3 756 31 28
3 756 28 294
3 756 294 758
3 758 294 760
3 760 294 25
3 760 25 763
3 763 25 291
3 763 291 767
3 767 291 23
3 767 23 768
3 768 23 770
3 770 23 2
3 770 2 318
3 45 315 50
3 30 100 29
3 29 100 92
3 29 92 93
3 399 101 771
3 399 771 401
3 401 771 772
3 401 772 403
3 403 772 405
3 405 772 33
3 33 772 32
3 32 772 771
3 32 771 101
3 773 774 775
3 773 775 776
3 773 776 400
3 773 400 402
3 773 402 417
3 773 417 415
3 773 415 774
3 774 415 112
3 774 112 109
3 774 109 407
3 774 407 775
3 775 407 776
3 776 407 376
3 776 376 379
3 776 379 400
3 400 379 90
3 400 90 99
3 376 407 89
3 407 109 413
3 407 413 409
3 409 413 106
3 409 106 103
3 409 103 81
3 81 103 80
3 417 402 419
3 419 402 404
3 419 404 115
3 115 404 406
3 115 406 118
3 118 406 35
3 118 35 36
3 118 36 121
3 39 122 38
3 778 777 779
3 779 780 781
3 781 780 782
3 785 787 788
3 785 788 443
3 785 443 441
3 785 441 784
3 785 784 667
3 785 667 54
3 785 54 787
3 787 54 55
3 787 55 452
3 787 452 788
3 788 452 786
3 788 786 445
3 788 445 443
3 445 786 447
3 447 786 136
3 136 786 145
3 136 145 139
3 139 145 142
3 145 786 452
3 667 784 783
3 667 783 44
3 44 783 782
3 44 782 780
3 44 780 41
3 41 780 120
3 120 780 119
3 119 780 779
3 119 779 777
3 119 777 124
3 124 777 130
3 124 130 127
3 130 777 778
3 130 778 133
3 133 778 433
3 433 778 779
3 433 779 781
3 433 781 435
3 435 781 437
3 437 781 782
3 437 782 783
3 437 783 439
3 439 783 784
3 439 784 441
3 329 52 668
3 329 668 49
3 49 668 46
3 456 146 454
3 456 454 60
3 60 454 57
3 63 154 457
3 63 457 62
3 457 154 470
3 457 470 789
3 457 789 462
3 457 462 144
3 144 462 460
3 144 460 143
3 143 460 148
3 462 789 464
3 464 789 466
3 464 466 151
3 466 789 468
3 468 789 470
3 66 72 346
3 346 72 157
3 346 157 155
3 346 155 65
3 482 158 74
3 482 74 75
3 78 102 492
3 78 492 356
3 356 492 490
3 356 490 488
3 356 488 77
3 77 488 790
3 77 790 483
3 483 790 469
3 483 469 471
3 483 471 156
3 156 471 153
3 469 790 467
3 467 790 152
3 152 790 486
3 152 486 160
3 486 790 488
3 84 87 791
3 84 791 364
3 364 791 410
3 364 410 83
3 410 791 408
3 408 791 87
3 104 105 493
3 793 792 795
3 793 795 796
3 794 793 796
3 796 795 797
3 796 797 489
3 796 489 491
3 796 491 794
3 794 491 493
3 794 493 105
3 794 105 169
3 794 169 500
3 794 500 793
3 793 500 792
3 792 500 498
3 792 498 166
3 792 166 496
3 792 496 795
3 795 496 797
3 797 496 163
3 797 163 487
3 797 487 489
3 487 163 161
3 108 172 414
3 414 172 170
3 414 170 107
3 509 175 798
3 509 798 111
3 111 798 799
3 111 799 110
3 110 799 173
3 173 799 505
3 505 799 798
3 505 798 175
3 515 181 800
3 515 800 420
3 515 420 114
3 420 800 801
3 420 801 418
3 418 801 416
3 416 801 510
3 416 510 113
3 510 801 800
3 510 800 181
3 510 181 513
3 510 513 176
3 176 513 178
3 117 123 802
3 117 802 116
3 116 802 516
3 516 802 517
3 516 517 182
3 517 802 123
3 523 190 518
3 523 518 126
3 126 518 125
3 518 190 180
3 180 190 803
3 180 803 514
3 514 803 187
3 514 187 179
3 179 187 184
3 187 803 190
3 525 196 804
3 525 804 129
3 129 804 128
3 128 804 524
3 524 804 193
3 524 193 191
3 193 804 196
3 533 205 202
3 533 202 531
3 533 531 132
3 132 531 805
3 132 805 131
3 131 805 526
3 526 805 529
3 526 529 199
3 526 199 197
3 529 805 531
3 550 214 812
3 550 812 448
3 550 448 135
3 448 812 446
3 446 812 811
3 446 811 810
3 446 810 444
3 444 810 442
3 442 810 809
3 442 809 440
3 440 809 808
3 440 808 438
3 438 808 807
3 438 807 436
3 436 807 806
3 436 806 434
3 434 806 534
3 434 534 134
3 534 806 206
3 206 806 208
3 208 806 538
3 538 806 807
3 538 807 808
3 538 808 541
3 541 808 809
3 541 809 544
3 544 809 810
3 544 810 811
3 544 811 211
3 211 811 812
3 211 812 214
3 558 223 220
3 558 220 554
3 558 554 137
3 558 137 138
3 137 554 552
3 137 552 551
3 551 552 217
3 551 217 215
3 141 147 813
3 141 813 140
3 140 813 559
3 559 813 224
3 224 813 226
3 226 813 147
3 226 147 229
3 816 815 817
3 816 817 818
3 818 817 819
3 818 819 580
3 818 580 578
3 818 578 576
3 818 576 816
3 816 576 814
3 816 814 815
3 815 814 230
3 815 230 149
3 815 149 817
3 817 149 461
3 817 461 463
3 817 463 819
3 819 463 465
3 819 465 820
3 819 820 580
3 580 820 162
3 162 820 159
3 159 820 150
3 150 820 465
3 230 814 566
3 566 814 574
3 566 574 232
3 232 574 235
3 574 814 576
3 821 822 823
3 823 822 824
3 823 824 165
3 823 165 584
3 823 584 821
3 821 584 238
3 821 238 236
3 821 236 575
3 821 575 822
3 822 575 577
3 822 577 579
3 822 579 824
3 824 579 581
3 824 581 497
3 824 497 165
3 497 581 164
3 825 826 827
3 827 826 828
3 827 828 499
3 827 499 501
3 827 501 171
3 827 171 507
3 827 507 825
3 825 507 174
3 825 174 177
3 825 177 183
3 825 183 826
3 826 183 239
3 826 239 585
3 826 585 828
3 828 585 167
3 828 167 499
3 171 501 168
3 591 233 234
3 591 234 237
3 591 237 185
3 591 185 186
3 189 192 607
3 189 607 829
3 189 829 188
3 188 829 603
3 188 603 593
3 593 603 601
3 593 601 599
3 593 599 231
3 231 599 597
3 231 597 569
3 569 597 595
3 569 595 228
3 228 595 227
3 603 829 605
3 605 829 607
3 830 831 832
3 830 832 833
3 830 833 834
3 830 834 835
3 830 835 836
3 830 836 831
3 832 831 837
3 834 833 838
3 835 834 839
3 835 839 840
3 835 840 841
3 836 835 841
3 845 848 849
3 846 845 849
3 846 849 850
3 847 846 850
3 849 848 851
3 849 851 852
3 850 849 852
3 850 852 596
3 850 596 598
3 850 598 847
3 847 598 844
3 847 844 258
3 847 258 846
3 846 258 843
3 846 843 845
3 845 843 611
3 845 611 848
3 848 611 609
3 848 609 241
3 848 241 851
3 851 241 221
3 851 221 222
3 851 222 852
3 852 222 225
3 852 225 596
3 611 843 613
3 613 843 679
3 613 679 615
3 615 679 677
3 615 677 617
3 617 677 837
3 617 837 619
3 619 837 831
3 619 831 836
3 619 836 621
3 621 836 841
3 621 841 244
3 244 841 198
3 198 841 840
3 198 840 195
3 195 840 194
3 194 840 839
3 194 839 608
3 608 839 834
3 608 834 838
3 608 838 606
3 606 838 604
3 604 838 842
3 604 842 602
3 602 842 671
3 602 671 600
3 600 671 844
3 600 844 598
3 844 671 258
3 671 842 673
3 673 842 838
3 673 838 833
3 673 833 675
3 675 833 832
3 675 832 837
3 675 837 677
3 679 843 258
3 625 250 623
3 625 623 853
3 625 853 627
3 627 853 629
3 629 853 532
3 629 532 201
3 532 853 530
3 530 853 245
3 530 245 200
3 245 853 623
3 623 250 247
3 854 856 857
3 855 854 857
3 860 859 861
3 860 861 645
3 860 645 643
3 860 643 641
3 860 641 639
3 860 639 859
3 859 639 637
3 859 637 858
3 859 858 659
3 859 659 657
3 859 657 861
3 861 657 213
3 861 213 216
3 861 216 645
3 213 657 212
3 659 858 661
3 661 858 635
3 661 635 663
3 663 635 633
3 663 633 857
3 663 857 665
3 665 857 856
3 665 856 207
3 207 856 204
3 204 856 203
3 203 856 630
3 630 856 854
3 630 854 628
3 628 854 855
3 628 855 626
3 626 855 631
3 626 631 251
3 631 855 633
3 633 855 857
3 635 858 637
3 639 641 253
3 666 209 540
3 666 540 862
3 666 862 664
3 664 862 863
3 664 863 662
3 662 863 660
3 660 863 864
3 660 864 658
3 658 864 210
3 210 864 546
3 546 864 543
3 543 864 863
3 543 863 862
3 543 862 540
3 219 240 866
3 219 866 555
3 555 866 553
3 553 866 646
3 553 646 218
3 646 866 644
3 644 866 865
3 644 865 642
3 642 865 647
3 642 647 254
3 254 647 256
3 647 865 240
3 240 865 866
3 624 246 867
3 624 867 620
3 624 620 622
3 624 622 243
3 620 867 618
3 618 867 868
3 618 868 616
3 616 868 869
3 616 869 614
3 614 869 870
3 614 870 612
3 612 870 648
3 612 648 610
3 610 648 242
3 648 870 257
3 257 870 650
3 650 870 869
3 650 869 653
3 653 869 868
3 653 868 867
3 653 867 246
3 871 874 872
3 871 872 873
3 873 872 876
3 872 874 877
3 872 877 875
3 872 875 876
3 876 875 640
3 876 640 252
3 876 252 255
3 876 255 652
3 876 652 873
3 873 652 655
3 873 655 871
3 871 655 248
3 871 248 249
3 871 249 632
3 871 632 874
3 874 632 634
3 874 634 877
3 877 634 636
3 877 636 638
3 877 638 875
3 875 638 640
3 680 259 878
3 680 878 678
3 678 878 676
3 676 878 879
3 676 879 674
3 674 879 672
3 672 879 259
3 259 879 878
