ply
format ascii 1.0
comment Generated by PyMesh
element vertex 869
property float x
property float y
property float z
property float nx
property float ny
property float nz
element face 1734
property list uchar int vertex_indices
end_header
24.58 -27.538 10.758 -0.844 -0.277 0.459
24.673 -27.777 10.837 -0.906 -0.118 0.407
24.627 -27.56 12.058 -0.875 -0.262 -0.407
24.706 -26.894 9.38 -0.89 0.324 -0.322
24.606 -26.851 9.625 -0.823 0.295 -0.485
24.844 -26.67 8.781 -0.982 0.175 0.077
25.175 -25.972 9.119 -0.816 0.523 0.245
24.863 -26.309 9.887 -0.608 0.748 -0.267
25.037 -26.196 9.717 -0.724 0.672 -0.154
25.272 -26.075 10.639 -0.607 0.733 0.308
25.046 -26.215 10.604 -0.456 0.826 0.331
25.777 -25.391 11.373 -0.944 0.277 -0.182
25.726 -25.51 11.547 -0.98 0.191 -0.057
24.999 -26.325 10.764 -0.495 0.735 0.464
25.046 -26.347 12.063 -0.526 0.749 -0.402
26.471 -25.428 12.829 -0.448 0.25 0.859
25.732 -26.272 13.244 0.046 0.812 0.582
26.829 -25.333 13.062 -0.686 0.186 0.703
27.054 -25.559 13.259 -0.498 -0.002 0.867
25.957 -26.497 13.441 0.233 0.624 0.746
26.188 -26.776 13.687 0.08 0.81 0.582
24.868 -28.271 12.265 -0.863 -0.259 -0.434
24.742 -27.874 12.131 -0.779 -0.523 -0.345
24.822 -28.18 10.932 -0.832 -0.319 0.454
24.91 -28.378 12.257 -0.833 -0.335 -0.44
24.871 -28.306 10.923 -0.807 -0.383 0.449
25.138 -29.103 11.473 -0.985 0.148 0.083
25.221 -29.619 10.686 -0.944 -0.109 -0.311
24.953 -28.822 10.136 -0.766 -0.641 0.056
25.241 -29.36 10.132 -0.958 -0.282 0.058
25.692 -29.35 9.041 -0.635 -0.275 -0.722
25.488 -28.81 8.843 -0.499 -0.635 -0.59
25.626 -28.587 8.245 -0.591 -0.784 -0.191
26.702 -29.627 8.822 0.085 -0.472 -0.878
26.82 -28.913 7.987 0.006 -0.947 -0.321
27.859 -30.12 8.576 -0.686 -0.143 -0.713
28.422 -29.832 8.174 -0.404 0.002 -0.915
27.383 -28.625 7.585 0.288 -0.803 -0.522
27.92 -28.413 6.319 -0.07 -0.944 0.322
27.416 -28.334 6.096 -0.43 -0.888 0.162
26.786 -28.532 7.32 -0.011 -0.756 -0.654
26.534 -28.491 7.241 0.157 -0.783 -0.601
25.81 -27.429 6.895 -0.446 0.101 -0.889
25.855 -27.167 6.876 -0.476 -0.074 -0.876
26.629 -27.181 5.72 -0.992 -0.064 -0.106
26.925 -26.217 5.825 -0.781 0.624 -0.031
26.205 -26.026 7 -0.301 0.497 -0.814
26.655 -24.084 5.844 -0.601 -0.798 -0.044
26.392 -23.722 6.316 -0.789 -0.54 0.293
25.893 -25.598 7.558 -0.457 0.711 -0.535
25.919 -25.407 7.744 -0.474 0.584 -0.659
25.972 -25.242 9.186 -0.43 0.722 0.542
25.961 -25.385 9.411 -0.423 0.817 0.392
26.243 -24.996 10.841 -0.611 0.558 -0.561
26.146 -25.072 10.882 -0.68 0.504 -0.532
25.846 -25.475 9.46 -0.48 0.772 0.416
25.708 -25.698 10.058 -0.388 0.921 0.017
26.634 -25.026 9.032 0.122 0.902 0.414
26.962 -24.762 10.674 -0.097 0.726 -0.681
26.813 -25.107 9.214 0.003 0.956 0.293
27.173 -25.135 9.19 0.183 0.942 0.281
27.267 -24.785 10.654 0.12 0.709 -0.695
27.898 -24.356 8.329 -0.3 0.422 0.855
28.417 -24.478 8.447 0.071 0.335 0.94
27.786 -24.908 10.772 0.491 0.621 -0.61
28.061 -25.299 10.391 0.308 0.882 -0.356
28.447 -25.361 10.797 0.501 0.852 -0.153
28.112 -24.96 11.116 0.725 0.584 -0.365
28.34 -24.902 11.484 0.573 0.546 -0.611
28.887 -26.618 12.415 0.721 0.223 0.656
28.682 -25.88 12.743 0.858 -0.269 0.437
28.819 -27.082 12.861 0.767 0.532 0.359
27.058 -26.855 13.654 -0.114 0.646 0.755
27.312 -25.703 13.36 -0.283 -0.122 0.951
26.468 -26.933 13.797 0.28 0.697 0.66
26.421 -29.41 13.432 -0.432 -0.631 0.644
25.93 -29.091 13.609 -0.104 -0.844 0.526
26.346 -29.947 13.074 -0.382 -0.273 0.883
25.997 -29.973 12.869 -0.556 -0.286 0.78
25.635 -29.113 13.436 -0.315 -0.86 0.402
25.921 -30.206 12.76 -0.505 -0.131 0.853
25.519 -30.092 12.386 -0.84 -0.036 0.542
25.199 -28.989 13.03 -0.626 -0.771 0.112
25.481 -29.826 12.388 -0.814 -0.213 0.54
26.354 -31.234 11.791 -0.144 -0.989 0.046
26.554 -31.295 11.624 -0.277 -0.948 0.158
27.395 -31.898 11.896 -0.838 -0.546 -0.024
27.881 -31.778 10.662 -0.594 -0.486 -0.641
27.041 -31.175 10.389 -0.034 -0.888 -0.459
27.95 -31.362 9.83 -0.64 -0.763 -0.087
27.664 -30.747 9.159 -0.784 -0.456 -0.422
26.754 -30.56 9.718 -0.177 -0.58 -0.795
26.537 -30.156 9.315 -0.032 -0.85 -0.526
28.51 -32.12 10.543 -0.28 -0.656 -0.701
28.579 -31.703 9.711 -0.326 -0.934 -0.146
29.061 -32.271 10.275 -0.647 -0.556 -0.522
29.639 -32.249 9.804 -0.358 -0.545 -0.758
29.157 -31.682 9.239 -0.037 -0.923 -0.382
29.706 -31.877 9.352 -0.402 -0.793 -0.457
30.993 -29.847 8.694 0.355 0.401 -0.844
30.542 -29.498 8.531 0.656 0.169 -0.736
30.888 -27.901 7.233 0.425 -0.896 0.129
30.177 -28.026 6.842 -0.082 -0.985 -0.15
29.701 -29.646 8.068 0.235 0.094 -0.967
29.481 -28.13 6.798 0.382 -0.916 -0.12
28.921 -28.254 6.739 0.071 -0.986 -0.153
29.115 -29.777 8.007 -0.058 0.029 -0.998
28.505 -28.366 6.179 0.348 -0.911 0.221
29.529 -27.855 6.114 0.408 -0.764 -0.5
29.043 -28.013 5.625 0.732 -0.658 -0.174
30.219 -27.783 6.237 -0.052 -0.812 -0.582
30.336 -26.868 5.67 0.031 -0.158 -0.987
29.159 -27.098 5.058 0.815 -0.005 -0.579
29.66 -26.821 5.474 0.481 -0.19 -0.856
29.64 -26.747 5.448 0.47 -0.148 -0.87
29.141 -27.032 5.035 0.802 0.042 -0.595
29.854 -25.614 4.56 0.327 -0.903 -0.279
28.144 -24.777 4.492 -0.894 -0.305 -0.327
27.431 -26.195 4.967 -0.419 0.64 -0.644
27.698 -24.551 4.991 -0.597 -0.456 -0.66
27.491 -24.523 5.196 -0.712 -0.441 -0.546
27.247 -26.17 5.149 -0.55 0.658 -0.515
26.978 -24.037 5.168 -0.371 -0.765 -0.527
27.688 -24.311 4.865 -0.603 -0.323 -0.73
27.153 -23.849 4.875 -0.246 -0.63 -0.736
28.135 -24.565 4.381 -0.901 -0.153 -0.407
28.945 -23.294 4.15 -0.322 0.755 -0.572
27.962 -22.578 4.644 0.332 0.278 -0.901
28.603 -22.875 4.604 -0.094 0.475 -0.875
28.838 -21.932 6.14 0.036 0.999 -0.022
28.171 -21.744 6.003 0.481 0.874 0.07
29.316 -21.774 6.629 -0.283 0.894 -0.347
28.643 -22.471 7.829 -0.764 0.396 0.51
27.497 -22.441 7.203 0 0.376 0.927
28.077 -22.719 7.496 -0.387 0.562 0.732
27.671 -23.376 7.558 -0.612 0.197 0.766
27.138 -23.022 7.258 -0.257 -0.039 0.966
27.563 -24.046 7.892 -0.54 0.643 0.543
27.326 -24.209 7.788 -0.709 0.527 0.469
26.901 -23.185 7.154 -0.426 -0.155 0.891
26.388 -24.912 8.516 -0.083 0.996 -0.016
27.715 -24.302 8.219 -0.43 0.46 0.776
26.746 -24.998 8.912 0.215 0.925 0.314
26.957 -25.072 9.06 0.075 0.974 0.216
28.204 -23.351 7.844 -0.316 0.211 0.925
28.034 -24.024 8.146 -0.203 0.659 0.724
28.755 -23.03 8.137 -0.684 -0.003 0.73
29.834 -23.812 8.267 0.087 -0.561 0.823
29.113 -24.806 8.276 0.568 0.101 0.817
29.432 -25.484 8.371 0.355 0.553 0.754
29.272 -25.542 8.474 0.265 0.521 0.811
28.971 -24.857 8.367 0.466 0.064 0.882
28.716 -25.748 10.296 0.636 0.658 -0.403
29.421 -25.686 8.503 0.348 0.441 0.827
28.873 -25.899 10.326 0.714 0.583 -0.388
29.059 -26.09 10.321 0.589 0.71 -0.385
29.486 -27.066 11.157 0.945 -0.104 0.311
29.421 -27.154 11.401 0.988 -0.045 0.149
30.186 -28.342 10.929 0.478 0.747 0.463
30.09 -28.533 11.254 0.43 0.651 0.626
29.325 -27.345 11.726 0.94 -0.141 0.311
29.256 -27.809 12.172 0.986 0.169 0.014
30.103 -28.656 11.363 0.436 0.589 0.68
29.269 -27.933 12.281 0.992 0.107 0.068
30.034 -29.073 12.195 0.482 0.867 0.126
30 -29.116 12.47 0.465 0.845 0.263
29.235 -27.976 12.556 0.975 0.085 0.206
29.21 -28.041 12.814 0.991 0.129 0.034
28.245 -28.533 13.904 0.187 -0.281 0.941
27.994 -28.608 13.956 0.354 -0.231 0.906
28.64 -30.06 14.308 -0.077 0.737 0.672
27.288 -30.841 13.852 -0.872 0.277 0.404
26.539 -29.449 13.466 -0.373 -0.651 0.661
26.464 -29.986 13.108 -0.323 -0.293 0.9
27.181 -31.065 13.718 -0.935 0.145 0.325
26.349 -30.227 12.963 -0.38 -0.413 0.828
26.195 -30.403 12.833 -0.277 -0.296 0.914
27.367 -32.052 12.553 -0.825 -0.435 -0.36
26.35 -31.229 11.859 -0.147 -0.984 0.102
27.39 -31.891 11.983 -0.84 -0.542 0.02
27.978 -32.64 12.46 -0.466 -0.781 -0.415
28.046 -32.524 11.883 -0.512 -0.859 -0.031
28.288 -33.089 12.678 -0.673 -0.482 -0.561
29.047 -33.303 12.295 -0.293 -0.59 -0.752
28.806 -32.739 11.5 -0.132 -0.966 -0.222
29.356 -32.89 11.232 -0.499 -0.865 -0.044
29.069 -33.316 12.297 -0.283 -0.596 -0.752
29.377 -32.902 11.234 -0.488 -0.872 -0.043
29.762 -33.288 11.56 -0.745 -0.614 -0.261
31.143 -32.973 10.306 -0.054 -0.457 -0.888
30.759 -32.587 9.98 0.202 -0.714 -0.67
31.714 -33.086 10.198 -0.435 -0.382 -0.816
31.884 -32.841 10.035 -0.335 -0.237 -0.912
30.942 -32.323 9.804 0.294 -0.582 -0.758
30.917 -31.946 9.352 0.31 -0.834 -0.457
31.936 -32.805 10.008 -0.304 -0.216 -0.928
30.969 -31.911 9.325 0.341 -0.813 -0.473
32.162 -32.588 9.837 -0.455 -0.361 -0.814
33.019 -31 10.703 0.259 0.961 -0.092
31.993 -30.013 10.361 0.943 0.303 0.136
32.96 -30.908 11.043 0.298 0.9 -0.319
32.942 -30.882 11.103 0.288 0.915 -0.284
31.975 -29.988 10.42 0.932 0.319 0.171
32.079 -30.217 10.953 0.863 0.471 -0.184
31.203 -29.349 11.385 0.425 0.905 0.032
31.16 -29.181 10.822 0.453 0.793 0.408
30.722 -28.782 10.82 0.745 0.527 0.409
30.84 -28.855 9.333 0.805 0.49 -0.335
31.27 -29.249 9.439 0.518 0.753 -0.406
31.139 -27.358 7.91 0.605 -0.508 0.613
30.18 -28.076 9.937 0.475 0.88 -0.033
30.582 -26.7 8.421 0.207 -0.038 0.978
29.481 -26.86 10.385 0.941 0.069 -0.332
29.269 -26.324 10.317 0.764 0.515 -0.388
30.351 -26.118 8.347 0.042 0.378 0.925
29.678 -25.973 8.498 0.491 0.281 0.824
29.731 -25.56 8.245 0.52 0.511 0.684
30.398 -25.752 8.123 0.076 0.639 0.765
30.098 -23.879 8.156 0.276 -0.609 0.743
30.828 -23.736 6.657 0.797 -0.507 -0.327
31.128 -25.609 6.624 0.597 0.742 -0.305
30.665 -24.421 5.537 0.906 -0.051 0.419
29.88 -25.608 4.574 0.346 -0.899 -0.269
30.344 -26.797 5.661 0.037 -0.107 -0.994
29.67 -26.74 5.463 0.487 -0.144 -0.862
30.578 -22.705 6.063 0.619 0.229 -0.751
30.415 -23.39 4.943 0.728 0.686 -0.005
30.264 -22.983 5.501 0.828 0.415 -0.377
30.676 -29.275 11.909 0.161 0.942 0.295
30.195 -28.708 11.345 0.482 0.564 0.671
30.126 -29.124 12.177 0.528 0.841 0.116
30.929 -29.973 12.824 0.288 0.593 0.752
30.379 -29.822 13.092 0.654 0.493 0.574
30.62 -30.386 13.887 0.493 0.869 0.043
29.852 -30.19 14.26 0.109 0.967 0.23
29.61 -29.625 13.465 0.27 0.591 0.76
29.431 -29.945 13.931 0.389 0.804 0.45
29.393 -29.926 13.929 0.366 0.815 0.449
29.568 -29.605 13.463 0.249 0.601 0.759
28.875 -28.422 13.586 0.712 -0.188 0.677
30.951 -29.986 12.826 0.299 0.587 0.753
30.643 -30.399 13.888 0.504 0.862 0.044
31.336 -30.371 13.152 0.042 0.844 0.535
31.842 -30.909 13.608 0.295 0.575 0.763
31.149 -30.937 14.344 0.757 0.594 0.272
31.601 -31.192 14.067 0.456 0.764 0.457
30.143 -33.883 12.593 -0.402 -0.819 -0.41
29.581 -33.831 12.759 -0.027 -0.853 -0.521
30.274 -33.803 12.023 -0.489 -0.872 -0.03
31.477 -34.036 13.007 0.383 -0.909 -0.167
31.708 -33.967 12.468 0.228 -0.954 0.193
32.556 -34.044 12.359 -0.337 -0.903 0.265
32.551 -34.052 12.322 -0.342 -0.91 0.234
31.701 -33.978 12.42 0.225 -0.96 0.169
32.233 -34.02 12.163 -0.129 -0.931 0.34
33.34 -32.592 13.119 0.316 0.307 0.898
33.175 -32.275 13.115 0.425 0.095 0.9
32.715 -32.101 13.444 0.732 -0.021 0.681
32.462 -30.53 11.638 0.606 0.764 -0.222
32.94 -30.815 11.437 0.287 0.954 -0.087
32.078 -30.145 11.312 0.862 0.507 -0.004
33.322 -32.626 13.135 0.301 0.279 0.912
32.693 -32.144 13.466 0.721 -0.042 0.692
32.392 -32.34 13.935 0.921 0.089 0.379
29.188 -31.814 15.725 -0.223 0.155 0.962
29.148 -32.072 15.782 -0.197 0.327 0.924
24.444 -27.491 10.009 -0.957 -0.237 -0.165
24.498 -27.716 9.874 -0.993 -0.087 -0.075
25.536 -25.901 10.975 -0.783 0.617 0.084
25.494 -25.999 11.119 -0.825 0.518 0.227
25.106 -26.458 11.409 -0.567 0.823 0.034
24.59 -26.863 10.769 -0.836 0.286 0.469
24.754 -26.922 11.413 -0.945 0.326 0.039
24.637 -26.885 12.069 -0.867 0.301 -0.398
24.745 -27.505 11.404 -0.954 -0.299 0.029
25.488 -25.992 11.836 -0.821 0.513 -0.251
25.254 -26.137 12.721 -0.353 0.924 0.146
25.683 -25.796 12.45 -0.638 0.697 0.326
25.953 -25.282 12.261 -0.818 0.354 0.453
26.129 -25.922 12.939 -0.219 0.579 0.785
26.349 -25.91 13.015 -0.366 0.571 0.735
26.534 -26.095 13.176 -0.151 0.356 0.922
25.319 -26.802 13.602 -0.298 0.37 0.88
25.494 -27.107 13.862 -0.415 0.573 0.706
24.793 -27.238 13.358 -0.736 0.006 0.677
24.924 -27.581 13.597 -0.823 0.234 0.517
24.574 -27.646 12.799 -0.919 -0.333 0.211
24.686 -28.023 12.99 -0.993 -0.082 0.084
24.901 -27.965 11.524 -0.884 -0.463 0.06
24.781 -27.641 11.448 -0.978 -0.209 -0
24.994 -28.175 11.597 -0.946 -0.323 0.011
25.034 -28.279 11.589 -0.916 -0.401 0.005
25.074 -28.827 9.429 -0.706 -0.643 -0.298
25.343 -29.365 9.535 -0.885 -0.285 -0.368
24.978 -28.268 8.929 -0.754 -0.363 -0.548
25.116 -28.044 8.33 -0.846 -0.512 -0.149
24.703 -27.596 9.117 -0.891 -0.027 -0.454
24.841 -27.372 8.518 -0.983 -0.176 -0.055
25.729 -28.909 8.695 -0.659 -0.569 -0.491
26.756 -29.19 8.473 0.049 -0.763 -0.644
27.253 -29.15 8.324 -0.282 -0.789 -0.545
27.618 -29.575 8.532 -0.526 -0.506 -0.684
27.736 -28.903 7.979 0.053 -0.618 -0.785
28.102 -29.327 8.186 -0.191 -0.335 -0.923
27.631 -28.35 6.971 0.123 -0.986 -0.113
27.143 -28.274 6.755 -0.249 -0.928 -0.278
26.659 -28.507 7.284 0.074 -0.773 -0.63
26.104 -28.78 7.991 -0.352 -0.88 -0.318
26.055 -28.726 7.878 -0.32 -0.916 -0.243
26.003 -28.684 7.763 -0.285 -0.944 -0.166
25.296 -28.22 8.105 -0.755 -0.601 -0.262
25.34 -28.231 7.979 -0.785 -0.593 -0.178
25.375 -28.249 7.851 -0.808 -0.582 -0.093
25.172 -27.413 7.547 -0.818 -0.197 -0.541
25.23 -27.517 7.485 -0.857 -0.128 -0.5
25.278 -27.621 7.417 -0.889 -0.059 -0.454
25.835 -27.298 6.891 -0.463 0.014 -0.886
26.383 -27.161 6.393 -0.829 -0.078 -0.554
26.669 -26.23 6.494 -0.61 0.632 -0.477
26.586 -25.497 7.007 -0.555 0.144 -0.819
26.81 -24.928 6.783 -0.704 -0.235 -0.67
26.835 -24.425 6.37 -0.721 -0.57 -0.394
26.392 -25.231 7.355 -0.789 0.466 -0.4
26.667 -24.732 7.039 -0.973 0.134 -0.189
26.667 -24.196 6.669 -0.973 -0.224 0.057
25.302 -25.705 8.532 -0.752 0.657 -0.048
25.459 -25.491 8.502 -0.857 0.514 -0.028
26.223 -25.352 10.146 -0.598 0.795 -0.098
26.132 -25.424 10.184 -0.671 0.738 -0.067
25.99 -25.469 10.5 -0.576 0.769 -0.278
25.615 -25.792 10.999 -0.836 0.544 0.068
26.302 -25.256 10.307 -0.65 0.732 -0.206
26.206 -25.343 9.725 -0.587 0.789 0.183
26.853 -25.076 10.179 -0.024 0.936 -0.351
26.737 -25.169 9.602 0.053 0.998 0.034
26.899 -25.132 9.989 -0.054 0.973 -0.224
27.184 -25.154 9.971 0.175 0.955 -0.239
27.477 -25.146 10.082 -0.02 0.95 -0.313
27.68 -25.189 9.404 -0.155 0.978 0.139
27.832 -24.904 8.773 -0.256 0.788 0.559
27.698 -25.198 10.132 0.55 0.815 -0.183
27.794 -25.216 9.43 0.486 0.827 0.285
28.053 -24.956 8.823 0.313 0.654 0.689
27.595 -24.485 11.423 0.355 0.923 -0.146
27.863 -24.465 11.768 0.176 0.91 -0.375
27.025 -24.413 11.93 -0.052 0.975 0.217
27.339 -24.399 12.235 -0.261 0.965 0.014
26.601 -24.769 12.461 -0.355 0.721 0.595
26.948 -24.726 12.723 -0.586 0.692 0.421
28.726 -25.202 11.818 0.895 0.296 -0.333
28.945 -25.746 11.226 0.75 0.659 0.062
28.851 -25.557 12.276 0.999 -0 0.048
29.104 -26.203 11.814 0.83 0.43 0.356
28.636 -26.5 12.746 0.889 0.144 0.435
28.338 -25.843 13.16 0.572 -0.238 0.785
28.279 -26.461 13.179 0.611 0.174 0.772
28.377 -27.035 13.397 0.546 0.556 0.627
27.848 -25.78 13.381 0.163 -0.186 0.969
27.769 -26.396 13.409 0.215 0.225 0.95
27.747 -26.954 13.681 0.231 0.597 0.769
27.213 -26.316 13.387 -0.217 0.286 0.933
26.89 -26.391 13.374 -0.002 0.336 0.942
26.674 -26.27 13.289 -0.244 0.472 0.847
26.553 -27.486 14.119 0.341 0.302 0.89
27.159 -27.511 14.036 -0.063 0.318 0.946
26.475 -28.123 14.198 0.285 -0.153 0.946
27.067 -28.265 14.129 -0.109 -0.059 0.992
26.251 -28.701 14.014 0.125 -0.566 0.815
26.801 -28.949 13.911 -0.242 -0.401 0.884
25.848 -29.575 12.992 -0.456 -0.551 0.698
25.483 -29.472 12.653 -0.816 -0.449 0.364
25.3 -30.217 11.551 -0.905 -0.408 0.121
25.378 -30.395 11.735 -0.957 -0.289 -0.001
25.812 -30.917 11.186 -0.649 -0.759 -0.061
25.777 -30.94 11.451 -0.625 -0.743 -0.237
26.736 -31.336 10.972 -0.186 -0.968 -0.168
27.577 -31.939 11.245 -0.747 -0.566 -0.349
26.085 -30.526 10.01 -0.512 -0.563 -0.649
25.972 -30.127 9.562 -0.436 -0.829 -0.35
25.537 -30.19 10.357 -0.786 -0.395 -0.476
25.508 -29.843 9.854 -0.767 -0.626 -0.141
27.165 -30.347 9.312 -0.451 -0.722 -0.524
27.328 -29.825 8.826 -0.332 -0.34 -0.88
29.446 -31.304 8.663 0.108 -0.734 -0.67
29.975 -31.526 8.816 -0.244 -0.586 -0.772
29.815 -30.75 8.323 0.292 -0.457 -0.84
30.317 -31.011 8.5 -0.043 -0.283 -0.958
30.202 -30.112 8.277 0.485 -0.139 -0.863
30.677 -30.418 8.457 0.169 0.065 -0.983
30.371 -28.802 8.276 0.77 -0.295 -0.566
30.497 -28.219 7.803 0.686 -0.683 -0.251
29.813 -28.9 7.969 0.161 -0.403 -0.901
29.986 -28.31 7.522 0.045 -0.796 -0.603
29.493 -28.978 7.905 0.374 -0.351 -0.859
29.414 -28.431 7.446 0.427 -0.716 -0.553
29.05 -29.077 7.859 -0.015 -0.438 -0.899
28.98 -28.527 7.401 0.031 -0.804 -0.594
28.875 -29.147 7.883 0.101 -0.39 -0.915
28.668 -28.64 7.473 0.239 -0.729 -0.642
28.535 -28.36 6.862 0.328 -0.915 -0.235
28.482 -29.179 7.978 -0.444 -0.434 -0.784
28.403 -28.661 7.537 -0.392 -0.779 -0.49
28.202 -28.387 6.943 -0.258 -0.962 -0.094
29.571 -27.767 5.999 0.381 -0.822 -0.423
29.672 -26.969 5.504 0.474 -0.091 -0.876
29.329 -26.194 4.928 0.677 -0.516 -0.524
28.573 -26.892 4.599 0.396 0.142 -0.907
28.881 -26.085 4.585 0.19 -0.397 -0.898
29.285 -25.475 4.124 -0.079 -0.803 -0.59
27.917 -26.572 4.573 -0.072 0.371 -0.926
28.366 -25.832 4.565 -0.372 -0.122 -0.92
28.63 -25.154 4.098 -0.547 -0.574 -0.609
27.984 -25.536 4.875 -0.788 0.201 -0.582
27.654 -25.686 5.151 -0.568 0.301 -0.766
27.748 -25.109 5.159 -0.631 -0.084 -0.772
27.496 -25.665 5.307 -0.716 0.321 -0.62
27.582 -25.087 5.323 -0.773 -0.065 -0.631
27.408 -25.657 5.404 -0.657 0.315 -0.685
27.413 -25.069 5.497 -0.66 -0.077 -0.747
27.261 -24.499 5.414 -0.56 -0.457 -0.692
27.196 -25.688 5.848 -0.961 0.271 -0.046
27.24 -25.094 5.859 -0.991 -0.125 -0.054
27.05 -24.53 5.858 -0.864 -0.501 -0.053
27.74 -24.141 4.724 -0.637 -0.436 -0.636
27.456 -23.192 4.525 -0.029 -0.16 -0.987
28.007 -23.562 4.416 -0.397 0.087 -0.914
28.438 -23.907 4.03 -0.684 0.316 -0.657
28.453 -23.023 4.521 0.006 0.574 -0.819
28.199 -21.986 5.196 0.501 0.701 -0.507
28.87 -22.205 5.228 0.054 0.847 -0.529
28.727 -21.906 6.339 0.11 0.982 -0.154
27.782 -21.857 6.711 0.203 0.793 0.575
28.384 -22.006 6.962 -0.198 0.892 0.407
28.927 -21.888 7.336 -0.56 0.813 0.158
28.133 -22.52 7.397 -0.424 0.429 0.798
27.413 -23.582 7.456 -0.44 0.334 0.834
27.203 -23.726 7.364 -0.627 0.205 0.752
26.932 -23.816 7.209 -0.446 0.266 0.855
26.843 -24.376 7.494 -0.387 0.639 0.665
26.65 -24.765 7.957 -0.258 0.898 0.356
26.649 -24.115 6.743 -0.961 -0.278 0.008
26.648 -24.582 7.173 -0.96 0.034 -0.278
26.389 -25.04 7.528 -0.787 0.339 -0.515
26.932 -24.705 8.109 -0.446 0.858 0.255
27.251 -24.781 8.462 -0.121 0.78 0.614
27.369 -24.82 8.547 -0.2 0.806 0.557
27.546 -24.872 8.654 -0.066 0.767 0.639
28.458 -23.574 8.037 -0.486 0.36 0.797
28.559 -24.403 8.399 0.172 0.389 0.905
28.93 -23.914 8.264 -0.075 0.063 0.995
29.28 -23.409 8.39 -0.308 -0.274 0.911
29.426 -24.276 8.153 0.359 -0.252 0.899
28.579 -25.343 8.843 0.727 0.389 0.566
28.485 -25.67 9.55 0.79 0.606 0.094
28.197 -25.082 8.898 0.217 0.738 0.639
28.066 -25.384 9.611 0.304 0.938 0.164
28.715 -25.916 9.631 0.636 0.77 0.04
28.914 -25.842 8.978 0.504 0.721 0.476
28.838 -26.034 9.654 0.737 0.673 0.06
29.034 -25.958 9.001 0.606 0.622 0.495
29.23 -26.172 11.235 0.893 0.446 0.066
29.337 -26.302 11.028 0.821 0.533 0.204
29.636 -27.828 11.095 0.844 0.404 0.352
29.551 -27.997 11.383 0.789 0.294 0.54
29.177 -26.965 12.098 0.866 0.049 0.498
29.108 -27.429 12.544 0.912 0.359 0.2
29.526 -28.256 11.647 0.806 0.467 0.364
29.537 -28.367 11.744 0.813 0.397 0.426
29.513 -28.594 12.22 0.829 0.548 0.109
29.482 -28.634 12.469 0.81 0.524 0.264
28.78 -27.27 13.142 0.747 0.439 0.499
28.857 -27.492 13.27 0.696 0.587 0.414
28.136 -27.598 13.868 0.426 0.275 0.862
28.356 -27.747 13.835 0.279 0.374 0.884
28.277 -29.406 13.907 0.165 0.301 0.939
27.168 -28.998 13.95 -0.058 -0.425 0.903
27.604 -29.724 13.902 -0.349 0.059 0.935
27.872 -30.421 14.302 -0.528 0.524 0.668
27.091 -30.092 13.507 -0.741 -0.223 0.634
26.993 -30.412 13.352 -0.675 -0.009 0.737
26.894 -30.619 13.227 -0.743 -0.151 0.652
26.824 -30.717 13.136 -0.697 -0.086 0.712
26.143 -30.945 12.435 -0.32 -0.747 0.582
26.776 -31.218 12.768 -0.742 -0.565 0.36
27.12 -31.713 13.242 -0.971 -0.236 0.044
26.968 -31.481 12.235 -0.559 -0.816 -0.148
26.943 -31.448 11.912 -0.542 -0.838 0.067
26.947 -31.454 11.842 -0.539 -0.842 0.012
28.62 -32.503 10.985 -0.225 -0.848 -0.48
29.17 -32.654 10.718 -0.592 -0.748 -0.301
29.254 -33.001 11.816 -0.431 -0.792 -0.433
29.274 -33.012 11.818 -0.419 -0.798 -0.432
29.76 -32.967 10.706 -0.297 -0.904 -0.307
30.145 -33.353 11.033 -0.553 -0.647 -0.525
30.239 -32.858 10.272 -0.058 -0.85 -0.524
30.623 -33.244 10.598 -0.314 -0.593 -0.742
30.284 -32.393 9.747 -0.035 -0.617 -0.786
30.306 -32.011 9.3 -0.049 -0.872 -0.488
31.403 -32.273 9.848 -0.014 -0.616 -0.787
31.448 -32.242 9.825 0.021 -0.592 -0.806
31.578 -32.121 9.722 -0.065 -0.673 -0.737
31.41 -31.388 9.074 0.6 -0.505 -0.62
31.921 -31.714 9.527 0.259 -0.288 -0.922
32.531 -32.15 9.627 -0.148 0.003 -0.989
31.795 -30.783 9.206 0.826 -0.15 -0.543
32.22 -31.244 9.629 0.542 0.157 -0.825
32.853 -31.645 9.737 0.121 0.424 -0.897
32.01 -30.275 9.681 0.953 0.149 -0.263
32.388 -30.849 9.999 0.701 0.531 -0.475
33.033 -31.22 10.135 0.271 0.779 -0.566
32.375 -30.645 10.527 0.689 0.725 0.025
32.337 -30.596 10.722 0.714 0.692 -0.105
32.321 -30.574 10.774 0.702 0.709 -0.065
31.651 -29.519 10.658 0.742 0.594 0.311
31.731 -29.713 11.209 0.688 0.723 -0.056
31.292 -29.088 10.13 0.53 0.848 0.001
30.863 -28.681 10.076 0.816 0.577 0.037
30.8 -28.931 9.023 0.831 0.541 -0.128
30.605 -28.434 8.564 0.961 0.21 0.177
30.727 -27.868 8.164 0.88 -0.167 0.444
30.664 -29.226 8.655 0.575 -0.012 -0.818
30.524 -28.61 8.345 0.668 -0.423 -0.612
30.604 -28.133 7.834 0.614 -0.741 -0.271
30.678 -27.829 8.29 0.913 -0.194 0.36
30.569 -28.374 8.809 0.985 0.17 0.014
30.277 -27.356 8.657 0.41 0.399 0.82
30.131 -27.857 9.21 0.508 0.734 0.451
30.004 -26.745 8.678 0.592 -0.008 0.806
29.585 -26.792 9.152 0.871 0.023 0.49
29.4 -26.832 9.757 0.995 0.051 0.087
29.876 -26.421 8.637 0.359 0.58 0.731
29.497 -26.568 9.123 0.612 0.678 0.407
29.282 -26.534 9.719 0.756 0.655 0.01
30.234 -25.156 7.843 0.185 0.242 0.952
30.126 -24.486 7.854 0.257 -0.204 0.945
30.934 -25.661 7.81 0.459 0.705 0.541
30.622 -25.09 7.615 0.667 0.324 0.671
30.515 -24.42 7.627 0.738 -0.122 0.663
30.634 -23.788 7.842 0.659 -0.544 0.52
31.208 -25.607 7.247 0.655 0.743 0.14
30.821 -25.051 7.208 0.913 0.373 0.166
30.713 -24.381 7.22 0.985 -0.074 0.158
30.908 -23.734 7.28 0.855 -0.506 0.118
30.763 -25.053 6.757 0.841 0.371 -0.394
30.655 -24.383 6.769 0.913 -0.076 -0.402
30.773 -25.318 6.256 0.835 0.548 -0.06
30.61 -24.9 5.874 0.943 0.269 0.195
31.058 -26.256 5.947 0.547 0.279 -0.789
30.716 -25.839 5.711 0.775 0.001 -0.632
30.553 -25.422 5.329 0.884 -0.277 -0.377
30.594 -25.068 4.86 0.856 -0.513 -0.064
30.141 -26.274 5.481 0.172 -0.455 -0.874
29.978 -25.856 5.099 0.281 -0.734 -0.619
29.686 -26.062 5.14 0.476 -0.597 -0.646
29.661 -26.067 5.127 0.456 -0.601 -0.657
30.601 -24.031 6.089 0.949 -0.311 0.051
30.692 -23.887 5.207 0.926 0.33 0.184
30.625 -23.562 5.799 0.971 0.114 -0.211
30.856 -23.202 6.327 0.817 -0.126 -0.563
30.381 -23.126 5.568 0.75 0.51 -0.421
30 -23.135 4.604 0.431 0.868 -0.247
29.795 -22.695 5.118 0.568 0.575 -0.589
29.478 -23.101 4.323 0.059 0.892 -0.448
29.206 -22.657 4.8 0.24 0.596 -0.766
29.856 -22.455 5.513 0.601 0.708 -0.37
30.217 -22.238 6.074 0.361 0.563 -0.744
29.35 -22.083 5.74 0.321 0.915 -0.244
29.77 -21.908 6.274 0.041 0.799 -0.6
29.862 -24.409 7.975 0.433 -0.256 0.864
29.732 -25.001 8.006 0.519 0.139 0.843
29.639 -24.352 8.069 0.217 -0.201 0.955
29.497 -24.942 8.105 0.311 0.192 0.931
29.304 -26.24 8.998 0.74 0.459 0.491
29.158 -26.365 9.649 0.838 0.543 0.057
29.124 -26.038 9.001 0.546 0.676 0.495
28.994 -26.182 9.652 0.633 0.772 0.061
29.674 -27.573 10.201 0.812 0.544 -0.209
29.678 -27.775 10.957 0.816 0.369 0.445
30.292 -29.403 12.676 0.611 0.702 0.366
30.842 -29.554 12.409 0.244 0.802 0.545
29.131 -29.052 13.389 0.541 0.232 0.808
29.468 -28.671 12.614 0.819 0.548 0.167
28.98 -29.264 13.597 0.642 0.373 0.67
28.427 -29.361 13.875 0.066 0.271 0.96
28.968 -30.11 14.352 0.116 0.707 0.697
29.353 -30.367 14.713 -0.141 0.879 0.457
28.471 -30.446 14.598 -0.176 0.51 0.842
28.819 -30.728 14.978 -0.407 0.698 0.589
28.015 -30.904 14.633 -0.444 0.24 0.863
28.328 -31.221 15.016 -0.653 0.452 0.608
27.664 -31.418 14.453 -0.65 -0.062 0.757
27.951 -31.774 14.822 -0.842 0.175 0.511
27.471 -31.913 14.083 -0.764 -0.353 0.539
27.743 -32.306 14.424 -0.946 -0.091 0.312
27.462 -32.317 13.577 -0.769 -0.591 0.242
27.733 -32.741 13.879 -0.95 -0.309 0.04
27.64 -32.572 13.008 -0.665 -0.741 -0.093
27.924 -33.015 13.268 -0.855 -0.446 -0.266
30.723 -30.276 13.303 0.425 0.795 0.433
30.744 -30.288 13.304 0.437 0.788 0.434
31.203 -31.433 14.829 0.785 0.346 0.515
31.652 -31.653 14.518 0.486 0.493 0.722
31.134 -32.061 15.121 0.75 0.032 0.66
31.588 -32.237 14.79 0.448 0.149 0.881
30.952 -32.73 15.177 0.659 -0.303 0.688
31.418 -32.859 14.841 0.348 -0.217 0.912
30.683 -33.343 14.989 0.524 -0.61 0.594
31.168 -33.43 14.666 0.201 -0.552 0.809
30.366 -33.812 14.584 0.366 -0.844 0.392
30.873 -33.866 14.29 0.028 -0.809 0.588
30.046 -34.068 14.021 0.206 -0.972 0.111
30.576 -34.104 13.767 -0.147 -0.949 0.28
29.772 -34.075 13.382 0.069 -0.975 -0.209
30.321 -34.11 13.173 -0.297 -0.952 -0.07
30.99 -34.039 12.19 -0.13 -0.99 0.054
30.809 -34.102 12.749 -0.01 -0.948 -0.319
31.438 -34.034 11.825 0.093 -0.987 -0.128
31.988 -34.072 11.61 -0.274 -0.962 0.015
31.242 -33.866 11.225 -0.004 -0.904 -0.429
31.806 -33.916 11.052 -0.38 -0.87 -0.313
31.14 -33.497 10.696 -0.056 -0.719 -0.693
31.711 -33.573 10.561 -0.436 -0.668 -0.603
32.752 -34.108 11.485 0.176 -0.983 -0.059
32.985 -34.125 11.755 0.02 -0.971 -0.238
33.444 -33.743 11.133 0.583 -0.768 -0.266
33.564 -33.82 11.46 0.502 -0.717 -0.484
33.989 -33.094 11.27 0.903 -0.387 -0.186
34.02 -33.277 11.574 0.883 -0.264 -0.389
34.135 -32.462 11.831 0.989 -0.015 0.145
34.142 -32.749 12.044 0.984 0.176 0.003
33.814 -32.14 12.559 0.801 0.175 0.573
33.874 -32.479 12.653 0.761 0.401 0.51
33.26 -31.715 12.895 0.475 0.424 0.771
32.806 -31.499 13.208 0.778 0.28 0.563
33.246 -31.249 12.507 0.467 0.699 0.542
32.791 -30.997 12.79 0.77 0.531 0.354
33.135 -30.936 11.999 0.401 0.883 0.244
32.671 -30.66 12.243 0.71 0.699 0.081
31.824 -29.922 11.874 0.735 0.619 0.277
32.209 -30.307 12.201 0.479 0.876 0.059
31.434 -29.866 12.398 0.54 0.646 0.539
31.819 -30.252 12.725 0.284 0.903 0.321
32.391 -31.449 13.608 0.57 0.305 0.763
32.112 -31.695 14.067 0.756 0.468 0.457
32.764 -32.511 13.437 0.673 0.202 0.711
32.245 -33.127 13.978 0.834 -0.374 0.404
32.643 -33.157 13.472 0.569 -0.355 0.742
33.199 -33.284 13.172 0.198 -0.27 0.942
31.901 -33.763 13.631 0.633 -0.748 0.2
32.361 -33.678 13.187 0.326 -0.805 0.496
32.912 -33.816 12.881 -0.041 -0.713 0.7
32.013 -33.902 12.676 0.025 -0.998 0.054
33.632 -31.304 11.12 0.693 0.666 -0.274
33.581 -31.332 10.767 0.727 0.685 -0.039
33.979 -31.993 10.982 0.898 0.261 -0.355
33.871 -31.908 10.652 0.969 0.205 -0.135
33.868 -32.708 10.682 0.832 -0.16 -0.531
33.778 -32.507 10.401 0.892 -0.294 -0.344
33.341 -33.174 10.337 0.522 -0.434 -0.734
33.338 -32.897 10.113 0.525 -0.619 -0.585
32.602 -33.211 10.079 0.088 -0.456 -0.886
32.719 -32.928 9.897 0.01 -0.645 -0.764
26.374 -27.309 6.414 -0.822 0.021 -0.569
26.881 -27.901 5.764 -0.812 -0.579 -0.075
26.576 -27.886 6.449 -0.609 -0.588 -0.532
26.042 -28.092 6.935 -0.253 -0.451 -0.856
27.004 -28.233 6.715 -0.156 -0.955 -0.251
28.36 -32.195 15.34 -0.637 -0.035 0.77
28.505 -32.368 15.483 -0.734 0.08 0.675
28.36 -33.116 14.98 -0.637 -0.496 0.59
28.505 -33.085 15.203 -0.734 -0.517 0.442
29.188 -33.656 15.005 -0.223 -0.766 0.603
29.148 -33.505 15.222 -0.197 -0.867 0.458
30.015 -33.276 15.39 0.191 -0.576 0.795
29.792 -33.209 15.522 0.339 -0.62 0.707
30.015 -32.355 15.75 0.191 -0.115 0.975
29.792 -32.493 15.801 0.339 -0.023 0.94
27.816 -28.444 7.376 0 -0.924 -0.383
27.14 -24.994 6.275 -0.924 -0.191 -0.331
27.14 -25.568 6.275 -0.924 0.191 -0.331
26.815 -25.976 6.58 -0.707 0.463 -0.534
29.832 -27.774 9.588 0.707 0.678 0.199
29.832 -27.451 9.085 0.707 0.463 0.534
29.506 -27.331 9.887 0.924 0.383 0
30.524 -24.497 6.166 1 -0 0
24.554 -26.606 10.207 -0.866 0.5 0
24.393 -27.206 10.207 -1 0 0
25.631 -26.4 7.133 -0.588 0.31 -0.747
25.189 -26.431 7.61 -0.809 0.294 -0.509
24.905 -27.328 8.093 -0.951 -0.155 -0.268
24.905 -26.71 8.093 -0.951 0.155 -0.268
27.41 -24.548 11.035 0.223 0.878 -0.423
26.786 -24.413 11.627 -0.223 0.975 0
26.786 -24.548 11.035 -0.223 0.878 -0.423
26.225 -24.683 11.627 -0.623 0.782 0
26.225 -24.857 12.219 -0.623 0.658 0.423
25.077 -26.372 13.108 -0.5 0.729 0.468
24.638 -26.646 12.546 -0.866 0.5 0
24.638 -26.946 13.066 -0.866 0.25 0.433
24.477 -27.246 12.546 -1 0 0
28.691 -24.957 12.218 0.866 0.5 0
28.691 -25.257 12.738 0.866 0.25 0.433
28.252 -24.518 12.218 0.5 0.866 0
28.252 -24.683 12.78 0.5 0.729 0.468
28.252 -25.125 13.163 0.5 0.36 0.788
27.652 -24.494 12.776 -0 0.885 0.465
27.652 -24.875 13.206 -0 0.568 0.823
27.652 -25.412 13.409 -0 0.121 0.993
25.764 -27.605 14.204 -0.223 0.217 0.95
25.764 -28.213 14.204 -0.223 -0.217 0.95
25.764 -28.76 13.94 -0.223 -0.608 0.762
25.203 -28.065 13.956 -0.623 -0.111 0.774
25.203 -28.626 13.7 -0.623 -0.512 0.591
24.815 -28.213 13.399 -0.901 -0.217 0.376
24.815 -28.516 12.873 -0.901 -0.434 -0
26.491 -31.073 10.403 -0.309 -0.836 -0.453
25.933 -30.895 10.689 -0.588 -0.747 -0.31
25.491 -30.418 10.72 -0.809 -0.509 -0.294
25.709 -29.683 9.224 -0.623 -0.512 -0.591
29.231 -30.835 8.271 -0 -0.5 -0.866
29.231 -30.28 8.053 -0 -0.223 -0.975
28.613 -31.508 9.098 -0.309 -0.836 -0.453
28.613 -31.123 8.604 -0.309 -0.644 -0.7
28.613 -30.599 8.261 -0.309 -0.382 -0.871
28.055 -31.33 9.384 -0.588 -0.747 -0.31
28.055 -30.979 8.859 -0.588 -0.572 -0.572
28.055 -30.454 8.508 -0.588 -0.31 -0.747
28.891 -27.808 5.042 0.623 -0.512 -0.591
28.33 -28.321 5.277 0.223 -0.878 -0.423
28.33 -27.942 4.802 0.223 -0.608 -0.762
28.33 -27.395 4.538 0.223 -0.217 -0.95
27.706 -28.456 5.869 -0.223 -0.975 0
27.706 -28.321 5.277 -0.223 -0.878 -0.423
27.706 -27.942 4.802 -0.223 -0.608 -0.762
27.706 -27.395 4.538 -0.223 -0.217 -0.95
27.145 -27.808 5.042 -0.623 -0.512 -0.591
27.145 -27.247 4.786 -0.623 -0.111 -0.774
27.145 -26.636 4.873 -0.623 0.325 -0.711
26.757 -27.395 5.343 -0.901 -0.217 -0.376
26.757 -26.787 5.343 -0.901 0.217 -0.376
25.745 -28.232 7.177 -0.5 -0.567 -0.654
27.809 -21.602 5.906 0.223 0.975 0
27.809 -22.116 4.839 0.223 0.608 -0.762
27.809 -21.737 5.314 0.223 0.878 -0.423
27.185 -21.602 5.906 -0.223 0.975 0
27.185 -21.737 6.498 -0.223 0.878 0.423
27.185 -22.116 6.973 -0.223 0.608 0.762
27.185 -22.663 4.575 -0.223 0.217 -0.95
27.185 -22.116 4.839 -0.223 0.608 -0.762
27.185 -21.737 5.314 -0.223 0.878 -0.423
26.624 -21.872 5.906 -0.623 0.782 0
26.624 -22.046 6.498 -0.623 0.658 0.423
26.624 -22.512 6.902 -0.623 0.325 0.711
26.624 -23.684 5.079 -0.623 -0.512 -0.591
26.624 -23.123 4.823 -0.623 -0.111 -0.774
26.624 -22.512 4.91 -0.623 0.325 -0.711
26.624 -22.046 5.314 -0.623 0.658 -0.423
26.236 -22.36 5.906 -0.901 0.434 0
26.236 -22.663 6.432 -0.901 0.217 0.376
26.236 -23.574 5.906 -0.901 -0.434 -0
26.236 -23.271 5.38 -0.901 -0.217 -0.376
26.236 -22.663 5.38 -0.901 0.217 -0.376
26.097 -22.967 5.906 -1 0 0
27.894 -32.302 11.325 -0.588 -0.747 -0.31
31.692 -29.436 10.129 0.766 0.643 0
31.692 -30.075 9.135 0.766 0.267 -0.585
31.692 -29.61 9.538 0.766 0.541 -0.348
31.24 -30.683 8.665 0.5 -0.091 -0.861
30.685 -31.538 8.793 0.174 -0.593 -0.786
30.685 -30.987 8.519 0.174 -0.27 -0.947
31.692 -26.647 7.052 1 0 0
31.553 -26.04 7.052 0.901 0.434 0
31.553 -26.343 7.578 0.901 0.217 0.376
31.553 -26.951 7.578 0.901 -0.217 0.376
31.553 -27.254 7.052 0.901 -0.434 -0
31.553 -26.951 6.526 0.901 -0.217 -0.376
31.553 -26.343 6.526 0.901 0.217 -0.376
31.165 -26.192 8.048 0.623 0.325 0.711
31.165 -27.697 6.744 0.623 -0.75 -0.22
31.165 -27.364 6.225 0.623 -0.512 -0.591
31.165 -26.803 5.969 0.623 -0.111 -0.774
30.604 -27.877 6.46 0.223 -0.878 -0.423
30.796 -24.35 4.95 1 0 0
30.657 -24.654 4.424 0.901 -0.217 -0.376
30.657 -24.046 4.424 0.901 0.217 -0.376
30.269 -25.067 4.123 0.623 -0.512 -0.591
30.269 -24.506 3.867 0.623 -0.111 -0.774
30.269 -23.895 3.954 0.623 0.325 -0.711
30.269 -23.429 4.358 0.623 0.658 -0.423
29.708 -25.201 3.883 0.223 -0.608 -0.762
29.708 -24.654 3.619 0.223 -0.217 -0.95
29.708 -24.046 3.619 0.223 0.217 -0.95
29.708 -23.499 3.883 0.223 0.608 -0.762
29.084 -24.654 3.619 -0.223 -0.217 -0.95
29.084 -24.046 3.619 -0.223 0.217 -0.95
29.084 -23.499 3.883 -0.223 0.608 -0.762
28.523 -24.506 3.867 -0.623 -0.111 -0.774
31.112 -23.026 7.115 1 0 0
30.973 -22.419 7.115 0.901 0.434 0
30.973 -22.722 7.641 0.901 0.217 0.376
30.973 -23.33 7.641 0.901 -0.217 0.376
30.973 -22.722 6.589 0.901 0.217 -0.376
30.585 -21.931 7.115 0.623 0.782 0
30.585 -22.105 7.707 0.623 0.658 0.423
30.585 -22.571 8.111 0.623 0.325 0.711
30.585 -23.182 8.198 0.623 -0.111 0.774
30.585 -22.105 6.523 0.623 0.658 -0.423
30.024 -21.661 7.115 0.223 0.975 0
30.024 -21.796 7.707 0.223 0.878 0.423
30.024 -22.175 8.182 0.223 0.608 0.762
30.024 -22.722 8.446 0.223 0.217 0.95
30.024 -23.33 8.446 0.223 -0.217 0.95
30.024 -21.796 6.523 0.223 0.878 -0.423
29.4 -21.796 7.707 -0.223 0.878 0.423
29.4 -22.175 8.182 -0.223 0.608 0.762
29.4 -22.722 8.446 -0.223 0.217 0.95
27.468 -32.36 12.858 -0.766 -0.617 -0.181
30.81 -30.98 14.944 0.588 0.572 0.572
30.81 -31.505 15.295 0.588 0.31 0.747
30.81 -32.124 15.418 0.588 -0 0.809
30.252 -30.623 14.968 0.309 0.751 0.584
30.252 -31.084 15.392 0.309 0.52 0.796
30.252 -31.657 15.644 0.309 0.233 0.922
29.634 -30.472 14.927 -0 0.826 0.563
29.634 -30.877 15.364 -0 0.623 0.782
29.634 -31.393 15.662 -0 0.365 0.931
29.634 -33.926 14.668 -0 -0.901 0.434
29.634 -34.102 14.098 -0 -0.989 0.149
29.016 -31.084 15.392 -0.309 0.52 0.796
29.016 -34 14.113 -0.309 -0.938 0.157
29.016 -34 13.487 -0.309 -0.938 -0.157
29.016 -33.797 12.895 -0.309 -0.836 -0.453
28.458 -31.505 15.295 -0.588 0.31 0.747
28.458 -33.619 14.419 -0.588 -0.747 0.31
28.458 -33.742 13.8 -0.588 -0.809 0
28.458 -33.619 13.181 -0.588 -0.747 -0.31
28.016 -32.124 14.976 -0.809 -0 0.588
28.016 -33.142 14.388 -0.809 -0.509 0.294
28.016 -33.3 13.8 -0.809 -0.588 0
30.633 -33.732 11.177 -0.309 -0.836 -0.453
34.05 -31.856 11.585 0.94 0.342 0
34.05 -32.728 11.081 0.94 -0.171 -0.296
33.755 -31.344 11.585 0.766 0.643 0
33.755 -31.518 12.176 0.766 0.541 0.348
33.303 -30.965 11.585 0.5 0.866 0
33.303 -33.628 10.72 0.5 -0.701 -0.509
32.748 -33.86 10.704 0.174 -0.837 -0.518
32.158 -33.86 10.704 -0.174 -0.837 -0.518
32.158 -33.446 10.249 -0.174 -0.593 -0.786
33.747 -31.854 10.294 0.866 0.25 -0.433
33.308 -32.302 9.785 0.5 -0.123 -0.857
33.308 -31.722 9.869 0.5 0.36 -0.788
32.708 -32.58 9.692 -0 -0.355 -0.935
32.427 -30.564 12.701 0.588 0.747 0.31
32.427 -30.915 13.226 0.588 0.572 0.572
32.128 -32.037 14.285 0.766 0.267 0.585
32.128 -32.647 14.373 0.766 -0.091 0.636
31.676 -33.227 14.566 0.5 -0.433 0.75
31.676 -33.682 14.156 0.5 -0.701 0.509
31.121 -34.137 13.599 0.174 -0.968 0.181
34 -33.26 12.561 0.866 -0.25 0.433
34 -33.56 12.041 0.866 -0.5 -0
33.561 -33.108 13.07 0.5 -0.123 0.857
33.561 -33.641 12.826 0.5 -0.567 0.654
33.561 -33.957 12.334 0.5 -0.831 0.244
32.961 -34.125 12.328 -0 -0.971 0.239
29.385 -32.891 15.795 -0 -0.355 0.935
28.785 -32.613 15.702 -0.5 -0.123 0.857
28.785 -33.146 15.458 -0.5 -0.567 0.654
3 0 266 1
3 1 266 267
3 266 4 267
3 267 4 3
3 4 7 5
3 5 7 6
3 7 10 8
3 8 10 9
3 10 13 268
3 268 13 269
3 268 269 11
3 11 269 12
3 13 271 270
3 270 271 272
3 270 272 14
3 14 272 273
3 271 0 272
3 272 0 274
3 272 274 273
3 273 274 2
3 14 276 275
3 275 276 277
3 275 277 12
3 12 277 278
3 276 16 277
3 277 16 279
3 277 279 278
3 278 279 15
3 16 19 280
3 280 19 281
3 280 281 17
3 17 281 18
3 19 282 20
3 20 282 283
3 282 284 283
3 283 284 285
3 284 286 285
3 285 286 287
3 286 22 287
3 287 22 21
3 22 2 288
3 288 2 289
3 288 289 23
3 23 289 1
3 23 25 290
3 290 25 291
3 290 291 21
3 21 291 24
3 25 28 26
3 26 28 27
3 28 292 29
3 29 292 293
3 292 31 293
3 293 31 30
3 31 294 32
3 32 294 295
3 294 296 295
3 295 296 297
3 296 3 297
3 297 3 5
3 32 34 298
3 298 34 299
3 298 299 30
3 30 299 33
3 34 37 300
3 300 37 302
3 300 302 301
3 301 302 303
3 301 303 35
3 35 303 36
3 37 40 304
3 304 40 305
3 304 305 38
3 38 305 39
3 40 307 306
3 306 307 308
3 306 308 41
3 41 308 309
3 307 310 308
3 308 310 311
3 308 311 309
3 309 311 312
3 310 313 311
3 311 313 314
3 311 314 312
3 312 314 315
3 313 43 314
3 314 43 316
3 314 316 315
3 315 316 42
3 43 46 317
3 317 46 318
3 317 318 44
3 44 318 45
3 46 49 319
3 319 49 322
3 319 322 320
3 320 322 323
3 320 323 321
3 321 323 324
3 321 324 47
3 47 324 48
3 49 325 50
3 50 325 326
3 325 52 326
3 326 52 51
3 52 55 327
3 327 55 328
3 327 328 53
3 53 328 54
3 55 6 56
3 56 6 8
3 56 9 329
3 329 9 330
3 329 330 54
3 54 330 11
3 53 58 331
3 331 58 333
3 331 333 332
3 332 333 334
3 332 334 51
3 51 334 57
3 58 61 335
3 335 61 336
3 335 336 59
3 59 336 60
3 61 64 337
3 337 64 340
3 337 340 338
3 338 340 341
3 338 341 339
3 339 341 342
3 339 342 62
3 62 342 63
3 64 67 65
3 65 67 66
3 67 343 68
3 68 343 344
3 343 345 344
3 344 345 346
3 345 347 346
3 346 347 348
3 347 15 348
3 348 15 17
3 68 349 66
3 66 349 350
3 349 351 350
3 350 351 352
3 351 70 352
3 352 70 69
3 70 354 353
3 353 354 355
3 353 355 71
3 71 355 356
3 354 357 355
3 355 357 358
3 355 358 356
3 356 358 359
3 357 73 358
3 358 73 360
3 358 360 359
3 359 360 72
3 73 18 361
3 361 18 362
3 361 362 74
3 74 362 20
3 74 363 72
3 72 363 364
3 363 365 364
3 364 365 366
3 365 367 366
3 366 367 368
3 367 76 368
3 368 76 75
3 76 79 77
3 77 79 78
3 79 82 369
3 369 82 370
3 369 370 80
3 80 370 81
3 82 24 83
3 83 24 26
3 83 371 81
3 81 371 372
3 371 373 372
3 372 373 374
3 373 85 374
3 374 85 84
3 85 375 86
3 86 375 376
3 375 88 376
3 376 88 87
3 88 91 89
3 89 91 90
3 91 377 92
3 92 377 378
3 377 379 378
3 378 379 380
3 379 27 380
3 380 27 29
3 92 33 381
3 381 33 382
3 381 382 90
3 90 382 35
3 89 94 87
3 87 94 93
3 94 97 95
3 95 97 96
3 97 383 98
3 98 383 384
3 383 385 384
3 384 385 386
3 385 387 386
3 386 387 388
3 387 100 388
3 388 100 99
3 100 103 389
3 389 103 391
3 389 391 390
3 390 391 392
3 390 392 101
3 101 392 102
3 103 106 393
3 393 106 395
3 393 395 394
3 394 395 396
3 394 396 104
3 104 396 105
3 106 36 397
3 397 36 400
3 397 400 398
3 398 400 401
3 398 401 399
3 399 401 402
3 399 402 107
3 107 402 38
3 107 109 105
3 105 109 108
3 109 112 403
3 403 112 404
3 403 404 110
3 110 404 111
3 112 115 113
3 113 115 114
3 115 406 405
3 405 406 407
3 405 407 116
3 116 407 408
3 406 409 407
3 407 409 410
3 407 410 408
3 408 410 411
3 409 118 410
3 410 118 412
3 410 412 411
3 411 412 117
3 118 121 413
3 413 121 415
3 413 415 414
3 414 415 416
3 414 416 119
3 119 416 120
3 121 45 417
3 417 45 420
3 417 420 418
3 418 420 421
3 418 421 419
3 419 421 422
3 419 422 122
3 122 422 47
3 122 124 120
3 120 124 123
3 124 424 423
3 423 424 425
3 423 425 125
3 125 425 426
3 424 127 425
3 425 127 427
3 425 427 426
3 426 427 126
3 127 428 128
3 128 428 429
3 428 130 429
3 429 130 129
3 130 431 430
3 430 431 432
3 430 432 131
3 131 432 433
3 431 133 432
3 432 133 434
3 432 434 433
3 433 434 132
3 133 136 134
3 134 136 135
3 136 139 435
3 435 139 436
3 435 436 137
3 137 436 138
3 139 48 437
3 437 48 440
3 437 440 438
3 438 440 441
3 438 441 439
3 439 441 442
3 439 442 140
3 140 442 50
3 140 142 443
3 443 142 444
3 443 444 138
3 138 444 141
3 142 57 143
3 143 57 59
3 143 60 445
3 445 60 446
3 445 446 141
3 141 446 62
3 137 145 135
3 135 145 144
3 145 448 447
3 447 448 449
3 447 449 146
3 146 449 450
3 448 148 449
3 449 148 451
3 449 451 450
3 450 451 147
3 148 151 149
3 149 151 150
3 151 63 452
3 452 63 454
3 452 454 453
3 453 454 455
3 453 455 152
3 152 455 65
3 152 154 456
3 456 154 458
3 456 458 457
3 457 458 459
3 457 459 150
3 150 459 153
3 154 460 155
3 155 460 461
3 460 157 461
3 461 157 156
3 157 160 462
3 462 160 463
3 462 463 158
3 158 463 159
3 160 464 161
3 161 464 465
3 464 69 465
3 465 69 71
3 161 163 466
3 466 163 467
3 466 467 159
3 159 467 162
3 163 166 468
3 468 166 469
3 468 469 164
3 164 469 165
3 166 470 167
3 167 470 471
3 470 472 471
3 471 472 473
3 472 169 473
3 473 169 168
3 169 475 474
3 474 475 476
3 474 476 170
3 170 476 477
3 475 172 476
3 476 172 478
3 476 478 477
3 477 478 171
3 172 75 173
3 173 75 77
3 173 175 479
3 479 175 480
3 479 480 171
3 171 480 174
3 175 78 176
3 176 78 80
3 176 482 481
3 481 482 483
3 481 483 174
3 174 483 484
3 482 178 483
3 483 178 485
3 483 485 484
3 484 485 177
3 178 84 486
3 486 84 487
3 486 487 179
3 179 487 86
3 179 181 177
3 177 181 180
3 181 184 182
3 182 184 183
3 184 488 185
3 185 488 489
3 488 93 489
3 489 93 95
3 185 187 490
3 490 187 491
3 490 491 183
3 183 491 186
3 187 492 188
3 188 492 493
3 492 494 493
3 493 494 495
3 494 190 495
3 495 190 189
3 190 193 191
3 191 193 192
3 193 496 194
3 194 496 497
3 496 96 497
3 497 96 98
3 194 196 498
3 498 196 499
3 498 499 192
3 192 499 195
3 196 501 500
3 500 501 502
3 500 502 197
3 197 502 503
3 501 504 502
3 502 504 505
3 502 505 503
3 503 505 506
3 504 507 505
3 505 507 508
3 505 508 506
3 506 508 509
3 507 199 508
3 508 199 510
3 508 510 509
3 509 510 198
3 199 202 511
3 511 202 512
3 511 512 200
3 200 512 201
3 202 513 203
3 203 513 514
3 513 205 514
3 514 205 204
3 205 515 206
3 206 515 516
3 515 208 516
3 516 208 207
3 208 99 517
3 517 99 520
3 517 520 518
3 518 520 521
3 518 521 519
3 519 521 522
3 519 522 209
3 209 522 101
3 209 211 523
3 523 211 525
3 523 525 524
3 524 525 526
3 524 526 207
3 207 526 210
3 211 214 527
3 527 214 530
3 527 530 528
3 528 530 531
3 528 531 529
3 529 531 532
3 529 532 212
3 212 532 213
3 214 217 215
3 215 217 216
3 217 535 533
3 533 535 536
3 533 536 534
3 534 536 537
3 534 537 218
3 218 537 538
3 535 539 536
3 536 539 540
3 536 540 537
3 537 540 541
3 537 541 538
3 538 541 542
3 539 220 540
3 540 220 543
3 540 543 541
3 541 543 544
3 541 544 542
3 542 544 219
3 220 547 545
3 545 547 548
3 545 548 546
3 546 548 549
3 546 549 221
3 221 549 550
3 547 223 548
3 548 223 551
3 548 551 549
3 549 551 552
3 549 552 550
3 550 552 222
3 223 111 224
3 224 111 113
3 224 114 553
3 553 114 554
3 553 554 222
3 222 554 116
3 221 556 555
3 555 556 557
3 555 557 219
3 219 557 558
3 556 226 557
3 557 226 559
3 557 559 558
3 558 559 225
3 226 560 227
3 227 560 561
3 560 562 561
3 561 562 563
3 562 126 563
3 563 126 128
3 227 564 225
3 225 564 565
3 564 566 565
3 565 566 567
3 566 129 567
3 567 129 131
3 218 147 568
3 568 147 570
3 568 570 569
3 569 570 571
3 569 571 216
3 216 571 149
3 215 153 572
3 572 153 574
3 572 574 573
3 573 574 575
3 573 575 213
3 213 575 155
3 212 156 576
3 576 156 577
3 576 577 210
3 210 577 158
3 206 229 204
3 204 229 228
3 229 162 230
3 230 162 164
3 230 578 228
3 228 578 579
3 578 232 579
3 579 232 231
3 232 235 233
3 233 235 234
3 235 238 236
3 236 238 237
3 238 165 580
3 580 165 581
3 580 581 239
3 239 581 167
3 239 168 582
3 582 168 583
3 582 583 237
3 237 583 170
3 236 584 234
3 234 584 585
3 584 586 585
3 585 586 587
3 586 588 587
3 587 588 589
3 588 590 589
3 589 590 591
3 590 592 591
3 591 592 593
3 592 594 593
3 593 594 595
3 594 596 595
3 595 596 597
3 596 180 597
3 597 180 182
3 233 241 598
3 598 241 599
3 598 599 231
3 231 599 240
3 241 244 242
3 242 244 243
3 244 600 245
3 245 600 601
3 600 602 601
3 601 602 603
3 602 604 603
3 603 604 605
3 604 606 605
3 605 606 607
3 606 608 607
3 607 608 609
3 608 610 609
3 609 610 611
3 610 612 611
3 611 612 613
3 612 247 613
3 613 247 246
3 247 186 248
3 248 186 188
3 248 614 246
3 246 614 615
3 614 250 615
3 615 250 249
3 250 253 251
3 251 253 252
3 253 616 254
3 254 616 617
3 616 618 617
3 617 618 619
3 618 620 619
3 619 620 621
3 620 189 621
3 621 189 191
3 254 622 252
3 252 622 623
3 622 624 623
3 623 624 625
3 624 626 625
3 625 626 627
3 626 628 627
3 627 628 629
3 628 630 629
3 629 630 631
3 630 256 631
3 631 256 255
3 256 632 257
3 257 632 633
3 632 634 633
3 633 634 635
3 634 636 635
3 635 636 637
3 636 259 637
3 637 259 258
3 259 201 260
3 260 201 203
3 260 638 258
3 258 638 639
3 638 640 639
3 639 640 641
3 640 240 641
3 641 240 242
3 257 262 255
3 255 262 261
3 262 642 263
3 263 642 643
3 642 243 643
3 643 243 245
3 263 645 644
3 644 645 646
3 644 646 261
3 261 646 647
3 645 648 646
3 646 648 649
3 646 649 647
3 647 649 650
3 648 249 649
3 649 249 651
3 649 651 650
3 650 651 251
3 200 652 198
3 198 652 653
3 652 654 653
3 653 654 655
3 654 656 655
3 655 656 657
3 656 658 657
3 657 658 659
3 658 660 659
3 659 660 661
3 660 195 661
3 661 195 197
3 146 132 144
3 144 132 134
3 125 117 123
3 123 117 119
3 110 102 108
3 108 102 104
3 44 663 662
3 662 663 664
3 662 664 42
3 42 664 665
3 663 39 664
3 664 39 666
3 664 666 665
3 665 666 41
3 264 667 265
3 265 667 668
3 667 669 668
3 668 669 670
3 669 671 670
3 670 671 672
3 671 673 672
3 672 673 674
3 673 675 674
3 674 675 676
3 675 264 676
3 676 264 265
3 274 0 1
3 274 1 289
3 274 289 2
3 5 3 4
3 8 6 7
3 330 9 268
3 330 268 11
3 268 9 10
3 275 12 269
3 275 269 270
3 275 270 14
3 270 269 13
3 17 15 280
3 280 15 279
3 280 279 16
3 362 18 281
3 362 281 19
3 362 19 20
3 290 21 22
3 290 22 288
3 290 288 23
3 26 24 291
3 26 291 25
3 29 27 28
3 298 30 31
3 298 31 32
3 382 33 300
3 382 300 301
3 382 301 35
3 300 33 299
3 300 299 34
3 400 36 303
3 400 303 302
3 400 302 401
3 401 302 677
3 401 677 402
3 402 677 304
3 402 304 38
3 304 677 37
3 37 677 302
3 666 39 305
3 666 305 40
3 666 40 306
3 666 306 41
3 662 42 316
3 662 316 43
3 662 43 317
3 662 317 44
3 420 45 679
3 420 679 421
3 421 679 678
3 421 678 422
3 422 678 321
3 422 321 47
3 321 678 320
3 320 678 679
3 320 679 319
3 319 679 680
3 319 680 46
3 46 680 318
3 318 680 45
3 45 680 679
3 440 48 324
3 440 324 441
3 441 324 323
3 441 323 442
3 442 323 322
3 442 322 50
3 50 322 49
3 332 51 52
3 332 52 327
3 332 327 331
3 331 327 53
3 329 54 328
3 329 328 56
3 56 328 55
3 59 57 334
3 59 334 335
3 335 334 333
3 335 333 58
3 446 60 339
3 446 339 62
3 339 60 338
3 338 60 336
3 338 336 337
3 337 336 61
3 454 63 342
3 454 342 341
3 454 341 455
3 455 341 340
3 455 340 65
3 65 340 64
3 68 66 67
3 71 69 353
3 353 69 70
3 74 72 361
3 361 72 360
3 361 360 73
3 77 75 76
3 80 78 369
3 369 78 79
3 83 81 370
3 83 370 82
3 487 84 85
3 487 85 86
3 89 87 88
3 381 90 91
3 381 91 92
3 95 93 94
3 98 96 97
3 520 99 100
3 520 100 389
3 520 389 521
3 521 389 390
3 521 390 522
3 522 390 101
3 104 102 392
3 104 392 394
3 394 392 391
3 394 391 393
3 393 391 103
3 107 105 399
3 399 105 396
3 399 396 398
3 398 396 395
3 398 395 397
3 397 395 106
3 110 108 403
3 403 108 109
3 113 111 404
3 113 404 112
3 554 114 405
3 554 405 116
3 405 114 115
3 119 117 414
3 414 117 412
3 414 412 413
3 413 412 118
3 122 120 419
3 419 120 418
3 418 120 416
3 418 416 417
3 417 416 415
3 417 415 121
3 125 123 423
3 423 123 124
3 128 126 427
3 128 427 127
3 131 129 430
3 430 129 130
3 134 132 434
3 134 434 133
3 137 135 435
3 435 135 136
3 443 138 438
3 443 438 439
3 443 439 140
3 438 138 436
3 438 436 437
3 437 436 139
3 445 141 444
3 445 444 143
3 143 444 142
3 146 144 447
3 447 144 145
3 570 147 451
3 570 451 571
3 571 451 148
3 571 148 149
3 457 150 452
3 457 452 453
3 457 453 456
3 456 453 152
3 452 150 151
3 574 153 459
3 574 459 575
3 575 459 458
3 575 458 155
3 155 458 154
3 577 156 462
3 577 462 158
3 462 156 157
3 466 159 463
3 466 463 161
3 161 463 160
3 164 162 467
3 164 467 468
3 468 467 163
3 581 165 469
3 581 469 166
3 581 166 167
3 583 168 169
3 583 169 474
3 583 474 170
3 479 171 478
3 479 478 173
3 173 478 172
3 481 174 480
3 481 480 175
3 481 175 176
3 179 177 485
3 179 485 486
3 486 485 178
3 182 180 181
3 490 183 184
3 490 184 185
3 188 186 491
3 188 491 187
3 191 189 190
3 498 192 193
3 498 193 194
3 197 195 499
3 197 499 500
3 500 499 196
3 200 198 511
3 511 198 510
3 511 510 199
3 203 201 512
3 203 512 202
3 206 204 205
3 524 207 517
3 524 517 518
3 524 518 523
3 523 518 519
3 523 519 209
3 517 207 208
3 576 210 681
3 576 681 683
3 576 683 212
3 212 683 529
3 529 683 528
3 528 683 682
3 528 682 527
3 527 682 525
3 527 525 211
3 525 682 526
3 526 682 681
3 526 681 210
3 681 682 683
3 573 213 532
3 573 532 531
3 573 531 572
3 572 531 530
3 572 530 215
3 215 530 214
3 569 216 533
3 569 533 534
3 569 534 568
3 568 534 218
3 533 216 217
3 555 219 544
3 555 544 684
3 555 684 221
3 221 684 546
3 546 684 545
3 545 684 543
3 545 543 220
3 543 684 544
3 553 222 552
3 553 552 551
3 553 551 224
3 224 551 223
3 227 225 559
3 227 559 226
3 230 228 229
3 598 231 232
3 598 232 233
3 236 234 235
3 582 237 238
3 582 238 580
3 582 580 239
3 242 240 599
3 242 599 241
3 245 243 244
3 248 246 247
3 651 249 250
3 651 250 251
3 254 252 253
3 257 255 256
3 260 258 259
3 644 261 262
3 644 262 263
3 271 13 685
3 271 685 686
3 271 686 0
3 0 686 266
3 266 686 4
3 4 686 685
3 4 685 7
3 7 685 10
3 10 685 13
3 294 31 292
3 294 292 267
3 294 267 296
3 296 267 3
3 267 292 28
3 267 28 23
3 267 23 1
3 23 28 25
3 6 55 325
3 6 325 5
3 5 325 690
3 5 690 297
3 297 690 689
3 297 689 295
3 295 689 313
3 295 313 310
3 295 310 32
3 32 310 307
3 32 307 34
3 34 307 40
3 34 40 37
3 313 689 690
3 313 690 688
3 313 688 687
3 313 687 43
3 43 687 46
3 46 687 49
3 49 687 688
3 49 688 325
3 325 688 690
3 325 55 52
3 9 56 8
3 692 693 694
3 694 693 53
3 694 53 54
3 694 54 11
3 694 11 12
3 694 12 278
3 694 278 695
3 694 695 692
3 692 695 347
3 692 347 345
3 692 345 343
3 692 343 691
3 692 691 693
3 693 691 58
3 693 58 53
3 58 691 61
3 61 691 64
3 64 691 343
3 64 343 67
3 347 695 15
3 15 695 278
3 696 697 698
3 698 697 699
3 698 699 286
3 698 286 284
3 698 284 282
3 698 282 696
3 696 282 16
3 696 16 276
3 696 276 697
3 697 276 14
3 697 14 273
3 697 273 699
3 699 273 2
3 699 2 286
3 286 2 22
3 16 282 19
3 701 700 703
3 701 703 704
3 700 702 703
3 703 702 705
3 703 705 706
3 704 703 706
3 704 706 707
3 704 707 357
3 704 357 354
3 704 354 701
3 701 354 70
3 701 70 351
3 701 351 700
3 700 351 349
3 700 349 68
3 700 68 702
3 702 68 344
3 702 344 346
3 702 346 705
3 705 346 348
3 705 348 706
3 706 348 17
3 706 17 18
3 706 18 707
3 707 18 73
3 707 73 357
3 709 708 711
3 709 711 712
3 710 709 712
3 712 711 713
3 712 713 714
3 712 714 82
3 712 82 79
3 712 79 710
3 710 79 76
3 710 76 367
3 710 367 709
3 709 367 365
3 709 365 708
3 708 365 363
3 708 363 74
3 708 74 20
3 708 20 283
3 708 283 711
3 711 283 285
3 711 285 713
3 713 285 287
3 713 287 714
3 714 287 21
3 714 21 24
3 714 24 82
3 377 91 715
3 377 715 716
3 377 716 379
3 379 716 717
3 379 717 27
3 27 717 371
3 27 371 26
3 26 371 83
3 371 717 373
3 373 717 716
3 373 716 375
3 373 375 85
3 375 716 715
3 375 715 88
3 88 715 91
3 30 33 718
3 30 718 293
3 293 718 380
3 293 380 29
3 380 718 378
3 378 718 92
3 92 718 33
3 719 722 723
3 720 719 723
3 721 724 725
3 722 721 725
3 722 725 726
3 723 722 726
3 723 726 36
3 723 36 720
3 720 36 106
3 720 106 103
3 720 103 387
3 720 387 385
3 720 385 719
3 719 385 383
3 719 383 722
3 722 383 721
3 721 383 97
3 721 97 94
3 721 94 724
3 724 94 89
3 724 89 90
3 724 90 725
3 725 90 726
3 726 90 35
3 726 35 36
3 387 103 100
3 727 728 729
3 727 729 730
3 728 732 733
3 729 728 733
3 729 733 734
3 730 729 734
3 733 732 735
3 734 733 735
3 734 735 736
3 736 735 738
3 736 738 739
3 737 736 739
3 737 739 121
3 737 121 118
3 737 118 409
3 737 409 734
3 737 734 736
3 734 409 730
3 730 409 406
3 730 406 112
3 730 112 727
3 727 112 109
3 727 109 728
3 728 109 107
3 728 107 731
3 728 731 732
3 732 731 39
3 732 39 663
3 732 663 735
3 735 663 738
3 738 663 44
3 738 44 739
3 739 44 45
3 739 45 121
3 39 731 38
3 38 731 107
3 112 406 115
3 665 41 740
3 665 740 42
3 42 740 315
3 315 740 312
3 312 740 309
3 309 740 41
3 742 748 749
3 743 742 749
3 741 743 749
3 741 749 744
3 741 744 745
3 745 744 750
3 745 750 751
3 746 745 751
3 746 751 752
3 747 754 755
3 748 747 755
3 748 755 756
3 749 748 756
3 750 749 756
3 744 749 750
3 751 750 757
3 751 757 758
3 752 751 758
3 754 753 760
3 754 760 761
3 755 754 761
3 756 755 761
3 757 756 761
3 750 756 757
3 758 757 762
3 760 759 762
3 761 760 762
3 757 761 762
3 762 759 48
3 762 48 758
3 758 48 139
3 758 139 752
3 752 139 136
3 752 136 133
3 752 133 746
3 746 133 431
3 746 431 745
3 745 431 741
3 741 431 130
3 741 130 743
3 743 130 428
3 743 428 742
3 742 428 127
3 742 127 747
3 742 747 748
3 747 127 424
3 747 424 754
3 754 424 124
3 754 124 753
3 753 124 122
3 753 122 47
3 753 47 759
3 753 759 760
3 759 47 48
3 51 57 140
3 51 140 326
3 326 140 50
3 140 57 142
3 60 143 59
3 63 151 448
3 63 448 145
3 63 145 62
3 62 145 141
3 141 145 137
3 141 137 138
3 448 151 148
3 352 69 464
3 352 464 157
3 352 157 460
3 352 460 350
3 350 460 154
3 350 154 152
3 350 152 66
3 66 152 65
3 157 464 160
3 368 75 172
3 368 172 475
3 368 475 366
3 366 475 169
3 366 169 472
3 366 472 364
3 364 472 359
3 364 359 72
3 359 472 356
3 356 472 470
3 356 470 71
3 71 470 465
3 465 470 166
3 465 166 163
3 465 163 161
3 78 175 77
3 77 175 173
3 374 84 178
3 374 178 482
3 374 482 372
3 372 482 81
3 81 482 80
3 80 482 176
3 87 93 763
3 87 763 376
3 376 763 86
3 86 763 181
3 86 181 179
3 181 763 184
3 184 763 488
3 488 763 93
3 496 193 190
3 496 190 494
3 496 494 96
3 96 494 492
3 96 492 489
3 96 489 95
3 489 492 187
3 489 187 185
3 99 208 765
3 99 765 767
3 99 767 388
3 388 767 769
3 388 769 386
3 386 769 768
3 386 768 384
3 384 768 497
3 384 497 98
3 497 768 194
3 194 768 196
3 196 768 501
3 501 768 769
3 501 769 767
3 501 767 504
3 504 767 765
3 504 765 507
3 507 765 766
3 507 766 199
3 199 766 764
3 199 764 202
3 202 764 513
3 513 764 515
3 513 515 205
3 515 764 208
3 208 764 766
3 208 766 765
3 770 771 772
3 770 772 773
3 770 773 774
3 770 774 775
3 770 775 776
3 770 776 771
3 775 774 778
3 775 778 779
3 775 779 780
3 776 775 780
3 779 778 781
3 779 781 110
3 779 110 111
3 779 111 780
3 780 111 223
3 780 223 547
3 780 547 776
3 776 547 220
3 776 220 771
3 771 220 539
3 771 539 772
3 772 539 535
3 772 535 777
3 772 777 773
3 773 777 209
3 773 209 774
3 774 209 101
3 774 101 778
3 778 101 781
3 781 101 102
3 781 102 110
3 209 777 211
3 211 777 214
3 214 777 217
3 217 777 535
3 105 108 104
3 114 224 113
3 782 783 784
3 783 785 786
3 784 783 786
3 784 786 787
3 784 787 788
3 785 789 790
3 786 785 790
3 786 790 791
3 787 786 791
3 787 791 792
3 788 787 792
3 790 789 793
3 790 793 794
3 791 790 794
3 791 794 795
3 792 791 795
3 794 793 796
3 794 796 426
3 794 426 795
3 795 426 126
3 795 126 562
3 795 562 792
3 792 562 560
3 792 560 788
3 788 560 226
3 788 226 784
3 784 226 556
3 784 556 782
3 782 556 221
3 782 221 550
3 782 550 783
3 783 550 785
3 785 550 222
3 785 222 116
3 785 116 789
3 789 116 408
3 789 408 793
3 793 408 411
3 793 411 796
3 796 411 125
3 796 125 426
3 125 411 117
3 120 123 119
3 564 227 561
3 564 561 429
3 564 429 566
3 566 429 129
3 429 561 563
3 429 563 128
3 797 798 799
3 797 799 800
3 797 801 798
3 799 798 803
3 799 803 804
3 799 804 805
3 800 799 805
3 798 801 806
3 798 806 802
3 798 802 803
3 803 802 808
3 803 808 809
3 804 803 809
3 804 809 810
3 805 804 810
3 805 810 811
3 802 806 812
3 802 812 807
3 802 807 808
3 808 807 813
3 808 813 814
3 809 808 814
3 809 814 815
3 810 809 815
3 810 815 811
3 811 815 450
3 811 450 147
3 811 147 218
3 811 218 805
3 805 218 538
3 805 538 800
3 800 538 542
3 800 542 797
3 797 542 219
3 797 219 558
3 797 558 801
3 801 558 225
3 801 225 806
3 806 225 565
3 806 565 812
3 812 565 567
3 812 567 131
3 812 131 807
3 807 131 813
3 813 131 433
3 813 433 132
3 813 132 814
3 814 132 815
3 815 132 146
3 815 146 450
3 135 144 134
3 150 153 149
3 149 153 216
3 216 153 215
3 156 212 461
3 461 212 213
3 461 213 155
3 159 162 229
3 159 229 158
3 158 229 206
3 158 206 516
3 158 516 210
3 210 516 207
3 165 238 235
3 165 235 578
3 165 578 230
3 165 230 164
3 578 235 232
3 168 239 473
3 473 239 471
3 471 239 167
3 171 174 590
3 171 590 588
3 171 588 477
3 477 588 586
3 477 586 170
3 170 586 584
3 170 584 237
3 237 584 236
3 590 174 592
3 592 174 484
3 592 484 594
3 594 484 816
3 594 816 596
3 596 816 180
3 180 816 177
3 177 816 484
3 817 820 821
3 818 817 821
3 818 821 822
3 819 818 822
3 820 823 824
3 821 820 824
3 821 824 825
3 822 821 825
3 825 824 828
3 827 826 829
3 827 829 830
3 829 833 834
3 830 829 834
3 830 834 835
3 831 830 835
3 833 837 838
3 834 833 838
3 835 834 838
3 835 838 597
3 835 597 182
3 835 182 831
3 831 182 183
3 831 183 186
3 831 186 247
3 831 247 612
3 831 612 830
3 830 612 827
3 827 612 610
3 827 610 826
3 826 610 608
3 826 608 673
3 826 673 671
3 826 671 829
3 829 671 833
3 833 671 669
3 833 669 837
3 837 669 593
3 837 593 595
3 837 595 838
3 838 595 597
3 593 669 836
3 593 836 591
3 591 836 832
3 591 832 589
3 589 832 828
3 589 828 587
3 587 828 824
3 587 824 823
3 587 823 585
3 585 823 234
3 234 823 820
3 234 820 233
3 233 820 241
3 241 820 817
3 241 817 244
3 244 817 600
3 600 817 818
3 600 818 602
3 602 818 819
3 602 819 604
3 604 819 675
3 604 675 673
3 604 673 606
3 606 673 608
3 675 819 822
3 675 822 825
3 675 825 264
3 264 825 828
3 264 828 832
3 264 832 667
3 667 832 836
3 667 836 669
3 616 253 614
3 616 614 618
3 618 614 839
3 618 839 620
3 620 839 495
3 620 495 189
3 495 839 493
3 493 839 248
3 493 248 188
3 248 839 614
3 614 253 250
3 840 842 843
3 846 847 848
3 846 848 660
3 846 660 658
3 846 658 845
3 846 845 624
3 846 624 622
3 846 622 847
3 847 622 617
3 847 617 619
3 847 619 621
3 847 621 848
3 848 621 191
3 848 191 192
3 848 192 195
3 848 195 660
3 617 622 254
3 624 845 626
3 626 845 656
3 626 656 841
3 626 841 628
3 628 841 654
3 628 654 840
3 628 840 630
3 630 840 843
3 630 843 632
3 630 632 256
3 632 843 634
3 634 843 636
3 636 843 842
3 636 842 844
3 636 844 259
3 259 844 201
3 201 844 200
3 200 844 652
3 652 844 842
3 652 842 840
3 652 840 654
3 654 841 656
3 656 845 658
3 849 850 851
3 849 851 509
3 849 509 653
3 849 653 655
3 849 655 657
3 849 657 850
3 850 657 659
3 850 659 852
3 850 852 503
3 850 503 506
3 850 506 851
3 851 506 509
3 503 852 197
3 197 852 661
3 661 852 659
3 653 509 198
3 204 228 579
3 204 579 640
3 204 640 638
3 204 638 514
3 514 638 260
3 514 260 203
3 640 579 240
3 240 579 231
3 642 262 257
3 642 257 633
3 642 633 854
3 642 854 243
3 243 854 641
3 243 641 242
3 641 854 853
3 641 853 639
3 639 853 637
3 639 637 258
3 637 853 635
3 635 853 854
3 635 854 633
3 615 249 859
3 615 859 613
3 615 613 246
3 613 859 611
3 611 859 609
3 609 859 858
3 609 858 607
3 607 858 857
3 607 857 605
3 605 857 856
3 605 856 603
3 603 856 855
3 603 855 601
3 601 855 643
3 601 643 245
3 643 855 263
3 263 855 856
3 263 856 645
3 645 856 857
3 645 857 858
3 645 858 648
3 648 858 859
3 648 859 249
3 860 862 863
3 860 863 864
3 861 860 864
3 861 864 625
3 861 625 627
3 861 627 629
3 861 629 860
3 860 629 631
3 860 631 862
3 862 631 255
3 862 255 261
3 862 261 647
3 862 647 863
3 863 647 650
3 863 650 864
3 864 650 865
3 864 865 623
3 864 623 625
3 623 865 252
3 252 865 251
3 251 865 650
3 866 867 868
3 866 868 672
3 866 672 674
3 866 674 676
3 866 676 265
3 866 265 867
3 867 265 668
3 867 668 670
3 867 670 868
3 868 670 672
