ply
format ascii 1.0
comment Generated by PyMesh
element vertex 712
property float x
property float y
property float z
property float nx
property float ny
property float nz
element face 1420
property list uchar int vertex_indices
end_header
94.291 -19.577 -29.078 -0.684 -0.168 0.71
94.425 -19.975 -28.954 -0.773 0.097 0.627
94.743 -19.763 -27.769 -0.986 -0.044 -0.163
95.188 -19.863 -31.172 -0.228 0.177 -0.958
94.994 -19.474 -31.12 -0.098 -0.082 -0.992
95.73 -19.725 -31.401 -0.588 0.085 -0.804
96.105 -18.106 -30.193 -0.401 0.894 -0.2
95.286 -18.215 -30.181 0.145 0.967 -0.209
96.294 -17.747 -29.681 -0.527 0.655 -0.542
95.531 -18.288 -28.271 -0.908 0.385 0.164
94.693 -18.636 -29.084 -0.35 0.617 0.705
95.145 -18.822 -27.774 -0.651 0.74 -0.168
95.765 -18.106 -27.831 -0.792 0.476 0.384
95.327 -18.68 -27.432 -0.499 0.858 0.118
95.665 -18.423 -27.327 -0.725 0.687 0.048
96.558 -20.705 -26.944 -0.087 -0.943 0.322
96.149 -20.781 -27.079 0.186 -0.892 0.412
96.879 -21.937 -27.879 -0.302 -0.121 0.946
96.167 -21.954 -28.504 -0.895 -0.136 0.425
95.437 -20.798 -27.703 -0.408 -0.907 -0.108
96.055 -21.738 -28.614 -0.82 -0.28 0.499
96.045 -21.732 -28.627 -0.825 -0.277 0.493
95.429 -20.793 -27.713 -0.414 -0.903 -0.117
95.17 -21.094 -28.893 -0.241 -0.702 0.67
95.95 -22.15 -29.721 -0.872 -0.486 -0.054
95.089 -21.447 -29.817 -0.298 -0.954 0.01
96.017 -22.497 -30.265 -0.917 -0.255 0.308
95.948 -22.46 -30.484 -0.951 -0.237 0.198
95.031 -21.416 -30.003 -0.34 -0.932 -0.123
95.887 -22.528 -30.736 -0.911 -0.191 0.366
95.977 -21.883 -31.687 -0.836 0.346 -0.426
95.129 -20.716 -31.036 -0.27 -0.432 -0.86
96.064 -21.631 -31.707 -0.893 0.178 -0.413
96.242 -21.319 -31.865 -0.804 0.334 -0.492
95.28 -20.452 -31.17 -0.162 -0.244 -0.956
95.838 -20.422 -31.399 -0.534 -0.264 -0.803
97.121 -20.723 -32.249 -0.365 0.632 -0.684
96.716 -19.826 -31.783 -0.095 0.034 -0.995
96.854 -19.599 -31.812 -0.187 -0.118 -0.975
96.956 -18.387 -31.169 -0.103 0.893 -0.439
96.847 -18.268 -30.956 -0.03 0.813 -0.581
97.891 -17.091 -30.797 -0.726 0.029 -0.687
97.538 -16.854 -30.231 -0.903 0.148 -0.404
96.493 -18.03 -30.39 -0.206 0.932 -0.299
96.683 -17.672 -29.878 -0.333 0.693 -0.64
97.498 -16.748 -30.082 -0.923 0.201 -0.33
96.643 -17.566 -29.729 -0.353 0.746 -0.565
96.698 -17.373 -29.551 -0.389 0.617 -0.684
97.037 -17.102 -28.098 -0.107 0.843 0.527
97.079 -17.218 -27.861 -0.135 0.92 0.369
97.782 -16.366 -28.381 -0.603 0.352 0.715
97.79 -16.368 -28.373 -0.597 0.351 0.722
97.089 -17.22 -27.851 -0.129 0.918 0.374
97.944 -16.402 -28.204 -0.699 0.373 0.609
98.852 -17.042 -27.487 -0.246 0.054 0.968
97.997 -17.859 -27.134 0.324 0.599 0.732
98.628 -18.026 -27.081 -0.096 0.71 0.697
98.454 -18.57 -26.716 -0.183 0.439 0.88
97.823 -18.403 -26.769 0.237 0.327 0.915
97.404 -18.674 -26.43 0.517 0.508 0.689
98.519 -18.936 -26.566 -0.15 0.255 0.955
97.459 -18.984 -26.303 0.556 0.287 0.78
98.726 -19.076 -26.471 -0.289 0.348 0.892
98.684 -19.956 -26.504 -0.324 -0.385 0.864
97.413 -19.939 -26.339 0.524 -0.396 0.754
98.465 -20.067 -26.608 -0.178 -0.31 0.934
98.165 -20.803 -27.16 -0.327 -0.678 0.658
97.16 -20.56 -26.805 0.343 -0.84 0.422
97.683 -21.545 -27.647 -0.006 -0.183 0.983
97.128 -21.707 -27.769 -0.283 -0.265 0.922
96.691 -20.698 -26.908 0.008 -0.938 0.348
97.002 -21.93 -27.846 -0.199 -0.116 0.973
97.325 -23.04 -28.985 -0.185 -0.931 0.314
97.155 -22.967 -28.792 -0.072 -0.98 0.185
97.391 -23.387 -29.529 -0.23 -0.7 0.676
96.497 -23.045 -29.856 -0.676 -0.529 0.513
96.46 -22.701 -29.047 -0.651 -0.758 -0.027
96.431 -22.699 -29.313 -0.632 -0.76 0.15
97.574 -23.059 -28.943 -0.061 -0.94 0.335
97.64 -23.405 -29.487 -0.105 -0.709 0.697
98.127 -23.771 -29.602 -0.43 -0.465 0.774
97.834 -24.195 -30.737 -0.639 -0.768 -0.037
97.293 -23.907 -30.831 -0.279 -0.96 0.025
97.966 -24.98 -31.755 -0.727 -0.245 0.641
98.334 -23.689 -33.451 -0.465 0.678 -0.57
97.728 -22.379 -32.838 -0.061 -0.196 -0.979
98.567 -23.081 -33.203 -0.62 0.272 -0.736
99.147 -22.433 -33.166 -0.298 0.632 -0.715
98.336 -21.7 -32.8 0.243 0.143 -0.959
98.423 -21.449 -32.765 0.184 -0.024 -0.983
97.837 -20.578 -32.359 -0.304 0.702 -0.644
97.582 -20.58 -32.277 -0.134 0.703 -0.698
97.213 -19.488 -31.834 0.112 -0.025 -0.993
98.579 -20.345 -31.961 0.314 0.897 -0.312
97.955 -19.255 -31.436 0.73 0.169 -0.662
99.88 -18.829 -31.191 -0.553 -0.114 -0.825
99.869 -18.782 -31.19 -0.558 -0.091 -0.825
97.947 -19.218 -31.435 0.723 0.2 -0.661
99.165 -18.16 -31.139 -0.089 -0.506 -0.858
100.007 -18.618 -31.284 -0.489 -0.009 -0.872
99.303 -17.996 -31.234 -0.02 -0.424 -0.906
100.165 -18.092 -31.514 -0.595 -0.36 -0.719
100.189 -17.332 -31.701 -0.583 0.02 -0.812
99.327 -17.237 -31.421 -0.008 -0.044 -0.999
99.779 -16.911 -31.548 -0.31 -0.262 -0.914
100.881 -15.91 -28.494 0.339 0.327 0.882
100.513 -16.161 -28.136 0.585 0.494 0.643
101.374 -16.257 -28.416 0.01 0.558 0.83
101.392 -16.977 -28.116 0.019 0.197 0.98
100.53 -16.882 -27.836 0.594 0.134 0.794
101.234 -17.503 -27.886 0.124 0.548 0.827
100.818 -17.994 -27.641 -0.083 0.303 0.949
100.114 -17.372 -27.591 0.386 -0.111 0.916
99.89 -18.357 -27.185 0.535 0.545 0.645
101.292 -19.24 -27.67 0.153 -0.32 0.935
100.364 -19.603 -27.214 0.772 -0.078 0.631
101.627 -19.714 -27.764 -0.07 -0.004 0.998
101.313 -20.942 -28.376 -0.256 -0.727 0.638
100.025 -20.924 -27.872 0.603 -0.739 0.302
99.923 -21.349 -28.297 0.671 -0.455 0.585
99.2 -21.575 -28.035 0.155 -0.616 0.772
99.17 -21.191 -27.562 0.175 -0.872 0.457
98.688 -21.933 -28.05 0.496 -0.378 0.782
99.56 -21.904 -28.661 0.412 -0.851 0.325
99.115 -22.322 -28.791 0.71 -0.572 0.411
99.429 -23.149 -29.473 0.5 -0.021 0.866
99.817 -21.805 -28.854 0.596 -0.781 0.187
99.686 -23.051 -29.665 0.683 0.049 0.728
100.878 -23.415 -29.997 -0.112 0.292 0.95
100.505 -24.456 -30.195 -0.378 -0.451 0.808
99.313 -24.092 -29.863 0.417 -0.694 0.587
99.823 -24.423 -30.299 0.077 -0.473 0.878
98.783 -24.839 -30.974 -0.501 -0.705 0.503
98.392 -24.46 -30.461 -0.241 -0.957 0.16
98.524 -25.245 -31.478 -0.329 -0.434 0.839
100.226 -25.276 -31.678 0.301 -0.947 0.111
99.802 -25.632 -32.102 0.584 -0.71 0.394
100.863 -25.211 -31.416 -0.123 -0.99 -0.064
101.25 -24.885 -32.214 0.154 -0.758 -0.634
100.189 -25.306 -32.9 0.861 -0.477 -0.177
100.664 -24.908 -32.581 0.544 -0.743 -0.39
101.565 -22.711 -31.99 0.379 0.795 -0.473
101.02 -22.451 -32.327 0.742 0.622 -0.249
102.487 -20.645 -31.532 -0.236 -0.582 -0.779
101.681 -20.061 -31.401 -0.639 -0.29 -0.713
100.251 -21.893 -32.202 0.315 0.932 -0.179
100.835 -19.683 -31.215 -0.075 -0.542 -0.837
100.739 -19.655 -31.221 -0.123 -0.527 -0.841
100.159 -21.866 -32.208 0.264 0.947 -0.183
99.248 -20.988 -31.984 0.871 0.361 -0.332
101.913 -19.405 -31.678 -0.523 0.038 -0.852
101.067 -19.027 -31.492 0.041 -0.214 -0.976
101.225 -18.501 -31.722 -0.064 -0.565 -0.823
101.925 -19.396 -31.686 -0.516 0.043 -0.855
101.238 -18.492 -31.729 -0.058 -0.56 -0.826
101.801 -18.444 -31.949 -0.433 -0.592 -0.68
101.579 -16.541 -32.105 -0.544 0.36 -0.758
101.016 -16.589 -31.885 -0.169 0.392 -0.905
101.89 -16.068 -32.254 -0.751 0.044 -0.658
101.838 -15.921 -32.171 -0.782 0.131 -0.61
100.961 -16.43 -31.796 -0.197 0.471 -0.86
100.496 -16.072 -31.636 0.113 0.232 -0.966
101.839 -15.746 -32.119 -0.781 0.234 -0.579
100.498 -15.897 -31.584 0.113 0.335 -0.935
101.786 -15.418 -31.988 -0.746 0.016 -0.666
102.44 -14.831 -30.182 -0.201 0.505 0.839
101.279 -15.195 -29.425 0.573 0.748 0.335
102.621 -15.044 -29.96 -0.321 0.647 0.691
102.681 -15.155 -29.84 -0.286 0.582 0.762
101.34 -15.306 -29.305 0.609 0.682 0.405
101.868 -15.607 -29.288 0.257 0.883 0.394
102.804 -15.247 -29.737 -0.214 0.528 0.822
101.999 -15.706 -29.178 0.323 0.833 0.449
102.562 -15.658 -29.398 -0.053 0.801 0.596
103.01 -17.366 -28.621 0.171 -0.053 0.984
102.447 -17.414 -28.402 0.546 -0.021 0.837
103.134 -18.318 -28.358 0.088 0.582 0.808
103.13 -18.321 -28.356 0.086 0.581 0.81
102.443 -17.417 -28.399 0.544 -0.022 0.839
102.285 -17.943 -28.169 0.65 0.329 0.685
102.838 -19.147 -28.007 -0.06 0.168 0.984
101.992 -18.769 -27.821 0.504 -0.084 0.86
102.279 -19.276 -27.904 0.313 0.254 0.915
102.653 -21.378 -29.416 -0.152 -0.948 0.28
102.107 -21.35 -29.214 0.212 -0.967 0.145
101.706 -23.33 -30.202 0.479 0.353 0.804
101.03 -23.289 -30.033 -0.003 0.382 0.924
101.364 -21.306 -29.028 -0.226 -0.941 0.254
99.969 -21.68 -28.889 0.704 -0.691 0.162
103.79 -17.351 -28.936 0.561 -0.045 0.826
103.915 -18.303 -28.673 0.478 0.59 0.651
104.082 -17.858 -29.021 0.367 0.293 0.883
102.969 -18.848 -32.074 -0.288 -0.289 -0.913
102.718 -19.368 -31.957 -0.12 0.057 -0.991
102.593 -18.416 -32.22 -0.037 -0.577 -0.816
104.047 -18.071 -32.091 0.347 0.168 -0.923
103.753 -17.58 -32.238 0.543 -0.159 -0.825
103.911 -17.034 -32.378 0.438 -0.523 -0.731
104.077 -18.063 -32.078 0.364 0.173 -0.915
103.941 -17.026 -32.365 0.455 -0.519 -0.724
104.263 -16.876 -32.328 0.241 -0.619 -0.748
104.869 -16.334 -30.657 0.746 -0.166 0.645
104.666 -16.377 -30.367 0.882 -0.137 0.452
104.802 -17.415 -30.08 0.791 0.554 0.26
104.791 -17.41 -30.057 0.784 0.557 0.273
104.655 -16.373 -30.344 0.875 -0.134 0.465
104.553 -16.869 -30.051 0.943 0.196 0.269
97.432 -16.52 -29.703 -0.895 0.224 -0.386
97.484 -16.597 -29.914 -0.929 0.276 -0.245
96.687 -17.256 -29.42 -0.398 0.715 -0.575
94.024 -19.797 -29.648 -0.906 -0.351 0.235
94.135 -20.214 -29.573 -0.98 -0.073 0.185
94.08 -19.857 -30.31 -0.86 -0.4 -0.316
94.195 -20.278 -30.291 -0.937 -0.119 -0.329
94.441 -19.736 -30.857 -0.559 -0.3 -0.773
94.587 -20.148 -30.886 -0.657 -0.026 -0.753
95.148 -18.922 -31.04 0.03 0.378 -0.925
95.927 -19.015 -31.299 -0.49 0.44 -0.753
95.253 -18.467 -30.7 0.118 0.758 -0.642
96.062 -18.429 -30.862 -0.422 0.732 -0.534
95.817 -18.096 -29.878 -0.209 0.888 -0.411
94.937 -18.239 -29.589 -0.146 0.948 0.284
95.455 -18.12 -29.263 -0.491 0.869 0.067
95.845 -17.777 -28.92 -0.751 0.64 -0.161
95.201 -18.533 -28.739 -0.688 0.548 0.475
95.016 -18.861 -28.481 -0.565 0.767 0.304
94.68 -19.649 -28.477 -0.944 -0.12 0.309
95.31 -18.939 -26.89 -0.513 0.642 0.569
95.647 -18.705 -26.739 -0.738 0.486 0.469
95.425 -19.404 -26.527 -0.418 0.255 0.872
95.772 -19.209 -26.344 -0.649 0.126 0.751
95.641 -19.956 -26.434 -0.237 -0.205 0.949
96.007 -19.81 -26.243 -0.481 -0.303 0.823
95.905 -20.458 -26.635 -0.018 -0.623 0.782
96.293 -20.354 -26.462 -0.277 -0.692 0.667
96.529 -21.223 -27.66 -0.068 -0.597 0.8
95.976 -21.237 -28.146 -0.767 -0.614 0.187
95.876 -21.142 -28.2 -0.701 -0.677 0.223
95.869 -21.137 -28.21 -0.707 -0.673 0.215
95.348 -20.824 -28.344 -0.36 -0.882 0.304
94.935 -20.376 -27.696 -0.826 -0.555 -0.102
94.892 -20.439 -28.328 -0.797 -0.513 0.32
94.633 -20.641 -28.874 -0.624 -0.378 0.684
94.715 -19.873 -28.396 -0.967 0.029 0.255
95.669 -21.356 -28.828 -0.574 -0.527 0.626
95.588 -21.715 -29.767 -0.631 -0.776 -0.024
95.687 -21.838 -30.076 -0.697 -0.694 0.182
95.632 -21.809 -30.252 -0.741 -0.671 0.044
95.625 -21.823 -30.402 -0.736 -0.661 0.143
94.919 -21.136 -30.582 -0.42 -0.732 -0.536
95.54 -21.609 -30.844 -0.834 -0.417 -0.362
95.784 -22.27 -31.269 -0.997 0.024 -0.078
95.7 -21.288 -31.19 -0.651 -0.051 -0.758
95.725 -21.145 -31.231 -0.667 -0.146 -0.73
95.868 -20.896 -31.358 -0.554 0.052 -0.831
96.245 -18.966 -31.437 -0.33 0.464 -0.822
96.488 -18.93 -31.543 -0.492 0.44 -0.751
97.469 -17.791 -30.708 -0.445 0.495 -0.746
97.162 -17.585 -30.218 -0.653 0.635 -0.413
97.2 -17.324 -29.978 -0.678 0.461 -0.573
97.163 -17.226 -29.84 -0.7 0.519 -0.491
96.074 -17.515 -28.588 -0.637 0.771 0.005
96.256 -17.334 -28.664 -0.758 0.65 0.056
97.483 -16.882 -28.198 -0.404 0.696 0.593
97.491 -16.884 -28.19 -0.397 0.695 0.6
97.577 -16.905 -28.099 -0.455 0.709 0.539
97.516 -17.469 -27.394 0.084 0.794 0.602
97.972 -17.136 -27.676 -0.221 0.572 0.79
98.371 -16.651 -27.748 -0.486 0.249 0.838
98.419 -17.498 -27.434 0.043 0.358 0.933
97.174 -17.884 -26.988 -0.087 0.587 0.805
96.855 -18.235 -26.615 0.125 0.821 0.557
96.416 -17.775 -27.379 -0.466 0.641 0.61
96.215 -18.143 -26.946 -0.332 0.887 0.321
98.071 -19.08 -26.52 0.148 0.351 0.925
98.033 -19.885 -26.55 0.111 -0.432 0.895
97.388 -20.953 -27.363 0.19 -0.578 0.794
96.937 -21.085 -27.463 -0.155 -0.679 0.717
96.872 -21.175 -27.552 -0.112 -0.62 0.777
96.77 -21.18 -27.579 -0.229 -0.626 0.746
97.485 -22.563 -28.128 0.203 -0.643 0.738
97.749 -22.521 -28.132 0.027 -0.671 0.741
97.331 -23.749 -30.089 -0.259 -0.881 0.396
97.867 -24.062 -30.111 -0.616 -0.673 0.41
97.76 -24.287 -31.379 -0.59 -0.707 0.391
96.915 -23.666 -31.433 -0.468 -0.84 -0.276
97.465 -24.1 -31.849 -0.835 -0.551 0.001
97.646 -24.777 -32.264 -0.956 -0.099 0.278
96.867 -23.264 -32.066 -0.491 -0.638 -0.592
97.428 -23.786 -32.342 -0.865 -0.29 -0.408
97.606 -24.437 -32.799 -0.984 0.144 -0.104
97.162 -22.797 -32.575 -0.344 -0.405 -0.847
97.658 -23.422 -32.739 -0.675 0.012 -0.738
97.855 -24.043 -33.229 -0.806 0.425 -0.411
98.099 -23.097 -32.944 -0.308 0.282 -0.908
98.19 -22.735 -32.914 -0.369 0.041 -0.929
98.745 -22.115 -32.878 -0.03 0.42 -0.907
97.399 -20.084 -31.932 -0.012 0.372 -0.928
97.028 -20.199 -31.91 -0.303 0.282 -0.91
97.543 -20.095 -31.946 -0.108 0.38 -0.919
98.171 -19.898 -31.609 0.586 0.598 -0.547
98.531 -19.131 -31.028 0.346 0.087 -0.934
99.225 -18.977 -30.94 -0.116 -0.016 -0.993
98.525 -19.103 -31.027 0.338 0.123 -0.933
99.218 -18.945 -30.939 -0.124 0.018 -0.992
98.464 -18.645 -31.066 0.379 -0.183 -0.907
97.47 -18.716 -31.5 0.326 0.618 -0.715
98.021 -18.179 -31.126 -0.041 0.26 -0.965
98.552 -17.515 -31.223 -0.395 -0.183 -0.9
97.544 -17.874 -30.819 -0.495 0.55 -0.673
98.998 -16.708 -31.343 -0.173 0.22 -0.96
99.473 -16.419 -31.476 -0.489 0.028 -0.872
98.78 -16.182 -31.081 -0.282 0.484 -0.829
99.27 -15.93 -31.232 -0.609 0.315 -0.728
98.698 -15.719 -30.664 -0.322 0.715 -0.621
99.195 -15.5 -30.845 -0.653 0.568 -0.5
98.763 -15.376 -30.144 -0.29 0.887 -0.36
99.255 -15.18 -30.361 -0.618 0.756 -0.216
98.967 -15.191 -29.58 -0.188 0.979 -0.078
99.444 -15.008 -29.836 -0.506 0.857 0.093
99.285 -15.187 -29.039 -0.029 0.981 0.192
99.74 -15.005 -29.334 -0.332 0.859 0.389
99.681 -15.365 -28.585 0.169 0.892 0.419
100.108 -15.17 -28.912 -0.116 0.762 0.637
100.106 -15.703 -28.272 0.382 0.723 0.576
100.504 -15.484 -28.621 0.117 0.578 0.808
99.503 -17.166 -27.429 0.08 -0.008 0.997
99.279 -18.151 -27.024 0.229 0.648 0.726
100.176 -18.964 -27.088 0.678 0.242 0.694
101.104 -18.601 -27.544 0.059 -0 0.998
100.929 -19.651 -27.644 0.395 -0.046 0.917
100.238 -20.35 -27.392 0.709 -0.452 0.542
100.82 -20.297 -27.798 0.321 -0.487 0.812
101.51 -20.408 -27.93 -0.139 -0.413 0.9
100.636 -20.794 -28.213 0.196 -0.826 0.529
98.676 -21.05 -27.289 -0.072 -0.802 0.594
98.194 -21.792 -27.776 0.249 -0.307 0.918
99.201 -22.701 -29.206 0.652 -0.319 0.688
98.373 -22.795 -28.65 0.339 -0.808 0.481
98.565 -23.107 -29.085 0.211 -0.6 0.771
98.802 -23.548 -29.354 0.052 -0.306 0.951
97.879 -23.333 -29.337 -0.264 -0.757 0.597
99.39 -22.426 -29.204 0.526 -0.503 0.686
99.605 -22.344 -29.364 0.737 -0.422 0.528
100.236 -23.261 -29.967 0.317 0.189 0.93
99.906 -24.181 -30.142 0.021 -0.634 0.773
98.864 -24.389 -30.11 0.096 -0.907 0.411
99.316 -24.759 -30.578 -0.205 -0.66 0.723
98.504 -24.74 -31.05 -0.315 -0.771 0.554
98.011 -24.506 -31.295 -0.757 -0.561 0.335
99.198 -25.574 -31.634 0.153 -0.669 0.728
99.544 -25.211 -31.15 -0.078 -0.911 0.405
100.292 -25.273 -31.788 0.257 -0.949 0.184
100.631 -24.988 -32.487 0.566 -0.689 -0.452
100.141 -24.921 -33.388 0.827 -0.202 -0.525
100.61 -24.473 -33.131 0.514 -0.501 -0.696
99.861 -24.486 -33.734 0.626 0.108 -0.772
100.293 -23.981 -33.522 0.338 -0.228 -0.913
99.402 -24.087 -33.87 0.299 0.394 -0.869
99.775 -23.53 -33.676 0.05 0.023 -0.998
98.857 -23.802 -33.769 -0.09 0.597 -0.797
99.159 -23.209 -33.562 -0.292 0.201 -0.935
100.916 -24.346 -32.939 0.684 -0.43 -0.589
101.473 -24.387 -32.532 0.313 -0.402 -0.86
101.076 -23.656 -33.017 0.774 -0.047 -0.632
101.615 -23.777 -32.6 0.414 0.034 -0.909
101.114 -22.978 -32.798 0.794 0.329 -0.51
101.648 -23.177 -32.407 0.438 0.462 -0.771
101.132 -22.074 -31.732 0.668 0.371 -0.646
101.47 -21.571 -31.356 0.442 0.035 -0.896
101.959 -21.056 -31.284 0.116 -0.308 -0.944
100.696 -21.757 -31.661 0.018 0.841 -0.54
101.147 -21.336 -31.303 -0.282 0.561 -0.779
101.502 -20.724 -31.209 -0.519 0.153 -0.841
100.273 -21.585 -31.544 0.3 0.726 -0.618
100.4 -21.021 -31.103 0.215 0.35 -0.912
100.604 -20.333 -30.984 0.08 -0.108 -0.991
100.223 -21.57 -31.547 0.221 0.75 -0.624
100.365 -21.01 -31.106 0.126 0.376 -0.918
100.552 -20.317 -30.988 0.002 -0.086 -0.996
99.612 -21.532 -32.055 0.628 0.724 -0.285
99.755 -22.057 -32.85 0.04 0.841 -0.539
99.286 -21.686 -32.574 0.352 0.594 -0.723
98.919 -21.143 -32.507 0.597 0.232 -0.768
98.794 -21.99 -32.83 -0.063 0.337 -0.939
99.508 -20.519 -31.411 0.698 0.049 -0.715
100.055 -20.03 -31.131 0.333 -0.277 -0.901
99.058 -20.087 -31.395 -0.005 0.724 -0.69
99.535 -19.53 -31.112 -0.323 0.353 -0.878
100.511 -18.849 -31.467 -0.237 -0.125 -0.964
100.669 -18.323 -31.697 -0.342 -0.476 -0.81
101.605 -18.921 -31.599 -0.317 -0.284 -0.905
101.616 -18.913 -31.606 -0.31 -0.279 -0.909
101.087 -17.897 -31.987 -0.134 -0.262 -0.956
101.649 -17.849 -32.207 -0.509 -0.294 -0.809
101.01 -17.237 -32.042 -0.172 0.068 -0.983
101.572 -17.189 -32.261 -0.547 0.036 -0.836
100.565 -16.883 -31.848 -0.395 0.244 -0.886
100.129 -16.493 -31.685 -0.104 -0.016 -0.994
101.239 -16.035 -31.735 -0.382 0.208 -0.9
101.24 -15.882 -31.69 -0.382 0.325 -0.865
101.207 -15.694 -31.62 -0.36 0.199 -0.911
100.421 -15.278 -31.204 0.068 0.699 -0.712
101.147 -15.208 -31.322 -0.416 0.652 -0.634
101.722 -14.9 -31.67 -0.799 0.447 -0.401
100.561 -14.897 -30.597 0.151 0.923 -0.355
101.257 -14.909 -30.845 -0.313 0.931 -0.189
101.839 -14.582 -31.162 -0.701 0.712 0.022
100.878 -14.867 -29.94 0.337 0.941 0.032
101.506 -14.885 -30.329 -0.081 0.953 0.291
102.105 -14.556 -30.613 -0.48 0.734 0.48
101.821 -15.142 -29.925 0.212 0.713 0.668
101.923 -15.268 -29.802 0.144 0.797 0.586
101.976 -15.366 -29.698 0.185 0.722 0.667
101.158 -15.559 -28.836 0.502 0.533 0.681
101.672 -15.879 -28.784 0.159 0.747 0.646
102.211 -16.16 -28.735 0.428 0.606 0.671
102.773 -16.113 -28.955 0.053 0.574 0.817
102.366 -16.753 -28.466 0.506 0.31 0.805
102.929 -16.705 -28.686 0.131 0.278 0.952
102.752 -17.9 -28.479 0.343 0.303 0.889
102.748 -17.902 -28.477 0.341 0.302 0.89
101.95 -17.172 -28.177 0.298 0.1 0.949
101.791 -17.698 -27.948 0.403 0.451 0.796
102.401 -19.948 -27.909 0.385 -0.141 0.912
102.97 -19.869 -28.013 0.006 -0.194 0.981
102.411 -20.582 -28.162 0.391 -0.514 0.763
102.981 -20.551 -28.285 0.011 -0.535 0.845
102.308 -21.076 -28.622 0.33 -0.805 0.493
102.869 -21.083 -28.779 -0.044 -0.8 0.598
101.821 -21.624 -29.705 0.402 -0.784 0.472
101.642 -22.105 -30.071 0.522 -0.463 0.716
101.601 -22.709 -30.247 0.549 -0.06 0.834
101.353 -21.596 -29.588 -0.218 -0.747 0.628
101.285 -22.084 -29.982 -0.173 -0.422 0.89
101.17 -22.684 -30.139 -0.097 -0.022 0.995
100.615 -21.319 -29.003 0.273 -0.932 0.238
100.573 -21.02 -28.467 0.237 -0.675 0.698
100.013 -21.957 -29.452 0.675 -0.506 0.537
100.234 -22.367 -29.872 0.527 -0.233 0.817
100.595 -22.839 -30.078 0.287 0.082 0.954
99.922 -22.032 -29.43 0.526 -0.63 0.572
100.165 -22.425 -29.856 0.364 -0.368 0.856
100.503 -22.915 -30.057 0.138 -0.042 0.99
101.816 -22.707 -30.364 0.406 -0.062 0.912
102.041 -22.102 -30.268 0.256 -0.465 0.847
102.339 -21.629 -29.93 0.057 -0.781 0.622
102.266 -23.383 -30.826 0.879 0.315 0.358
102.17 -22.741 -30.759 0.943 -0.114 0.314
102.343 -22.131 -30.604 0.828 -0.52 0.21
102.75 -21.668 -30.388 0.556 -0.829 0.067
103.316 -21.442 -30.154 0.179 -0.98 -0.09
102.203 -23.109 -31.617 0.835 0.51 -0.207
102.131 -22.568 -31.26 0.883 0.149 -0.445
102.309 -21.983 -31.03 0.764 -0.24 -0.599
102.705 -21.467 -30.97 0.501 -0.584 -0.639
103.242 -21.117 -31.091 0.142 -0.818 -0.558
101.727 -22.315 -31.496 0.271 0.531 -0.803
101.965 -21.768 -31.231 0.112 0.167 -0.98
102.236 -21.174 -31.243 -0.068 -0.229 -0.971
104.453 -18.666 -28.927 0.748 0.408 0.524
104.582 -18.196 -29.257 0.661 0.095 0.744
104.818 -19.049 -29.381 0.93 0.217 0.297
104.922 -18.552 -29.679 0.861 -0.115 0.496
104.956 -19.396 -29.97 0.999 0.043 0.003
105.05 -18.875 -30.226 0.936 -0.305 0.174
104.847 -19.658 -30.607 0.945 -0.088 -0.316
104.949 -19.118 -30.819 0.877 -0.448 -0.175
104.508 -19.795 -31.2 0.775 -0.156 -0.612
104.633 -19.246 -31.37 0.691 -0.523 -0.499
103.986 -19.788 -31.663 0.514 -0.153 -0.844
104.148 -19.239 -31.801 0.406 -0.519 -0.752
103.359 -19.639 -31.928 0.201 -0.078 -0.977
103.565 -19.1 -32.047 0.063 -0.437 -0.897
103.176 -18.005 -32.375 0.254 -0.372 -0.893
103.511 -18.466 -32.218 0.031 -0.064 -0.997
103.172 -17.455 -32.515 0.252 -0.097 -0.963
103.371 -16.918 -32.635 0.12 -0.455 -0.882
102.565 -17.218 -32.586 -0.051 0.021 -0.998
102.807 -16.697 -32.701 -0.212 -0.326 -0.921
102.01 -16.9 -32.443 -0.328 0.181 -0.927
102.291 -16.402 -32.569 -0.515 -0.152 -0.843
104.098 -16.945 -32.339 0.35 -0.573 -0.741
103.806 -16.258 -32.706 0.376 -0.067 -0.924
103.976 -16.245 -32.65 0.263 -0.076 -0.962
104.15 -16.234 -32.614 0.147 -0.083 -0.986
103.868 -15.433 -32.511 0.412 0.418 -0.809
104.031 -15.493 -32.472 0.303 0.459 -0.835
104.202 -15.543 -32.45 0.19 0.492 -0.85
104.097 -14.925 -31.868 0.547 0.717 -0.431
104.24 -15.03 -31.886 0.452 0.787 -0.419
104.393 -15.118 -31.913 0.35 0.846 -0.402
104.39 -14.965 -31.071 0.72 0.693 0.038
104.508 -15.067 -31.159 0.641 0.761 0.097
104.639 -15.152 -31.246 0.554 0.818 0.154
104.614 -15.536 -30.481 0.851 0.358 0.385
104.711 -15.587 -30.622 0.786 0.392 0.479
104.826 -15.63 -30.752 0.71 0.42 0.566
104.759 -16.354 -30.518 0.82 -0.153 0.552
104.359 -16.037 -29.928 0.701 0.063 0.71
104.235 -16.507 -29.603 0.784 0.377 0.493
103.912 -15.71 -29.67 0.438 0.255 0.862
103.754 -16.156 -29.325 0.543 0.553 0.632
103.37 -15.435 -29.603 0.119 0.417 0.901
103.171 -15.86 -29.253 0.252 0.7 0.668
104.261 -17.039 -29.402 0.797 0.111 0.594
104.52 -17.569 -29.454 0.625 0.464 0.628
104.725 -16.902 -30.434 0.842 0.213 0.496
105.025 -17.766 -30.813 0.922 0.347 -0.171
104.909 -17.193 -31.039 0.999 -0.035 -0.021
105.056 -16.628 -31.271 0.902 -0.412 0.134
104.75 -18.013 -31.572 0.76 0.203 -0.617
104.682 -17.396 -31.666 0.805 -0.209 -0.555
104.826 -16.834 -31.905 0.71 -0.583 -0.395
104.127 -17.438 -32.083 0.332 -0.244 -0.911
103.21 -14.665 -30.299 0.025 0.87 0.492
102.933 -14.513 -30.465 0.21 0.77 0.603
103.537 -14.492 -30.983 0.218 0.972 0.089
103.207 -14.369 -31.038 0.438 0.89 0.126
103.478 -14.591 -31.753 0.183 0.913 -0.363
103.158 -14.452 -31.682 0.397 0.821 -0.411
103.055 -14.925 -32.314 -0.066 0.717 -0.694
102.804 -14.731 -32.152 0.102 0.588 -0.802
102.43 -15.366 -32.454 -0.434 0.458 -0.776
102.28 -15.1 -32.269 -0.334 0.281 -0.9
100.614 -25.011 -30.716 -0.301 -0.848 0.436
99.945 -25.05 -30.888 0.145 -0.822 0.551
99.276 -20.519 -26.85 0.228 -0.536 0.813
99.315 -20.307 -26.692 0.202 -0.677 0.707
100.085 -20.041 -27.045 0.632 -0.297 0.716
99.944 -19.935 -26.844 0.726 -0.368 0.581
100.13 -19.084 -27.009 0.655 0.182 0.733
99.98 -19.191 -26.816 0.756 0.253 0.604
99.37 -18.547 -26.777 0.275 0.45 0.85
99.388 -18.773 -26.635 0.263 0.601 0.755
98.043 -15.639 -29.246 -0.65 0.755 0.089
97.867 -15.775 -29.183 -0.532 0.845 0.047
97.168 -16.987 -29.617 -0.718 0.536 -0.444
97.179 -17.111 -29.754 -0.71 0.443 -0.548
96.701 -17.007 -28.737 -0.387 0.922 -0.005
97.446 -16.271 -29.019 -0.883 0.431 0.183
96.538 -22.352 -32.346 -0.656 -0.182 -0.732
96.346 -22.444 -32.184 -0.528 -0.121 -0.841
96.721 -23.302 -31.879 -0.564 -0.657 -0.499
96.489 -23.183 -31.821 -0.409 -0.737 -0.538
96.397 -23.361 -30.857 -0.726 -0.687 0.012
96.237 -23.229 -31.026 -0.62 -0.775 0.124
99.05 -19.574 -31.043 0 0.383 -0.924
98.476 -19.864 -31.346 0.383 0.576 -0.722
101.297 -20.187 -31.12 -0.383 -0.206 -0.901
100.723 -21.069 -31.085 0 0.383 -0.924
99.981 -20.754 -31.131 0.383 0.206 -0.901
99.981 -21.31 -31.399 0.383 0.576 -0.722
99.494 -21.14 -31.681 0.707 0.463 -0.534
101.025 -21.656 -29.707 0 -0.707 0.707
100.451 -21.853 -29.73 0.383 -0.576 0.722
94.512 -18.337 -29.93 -0.5 0.866 0
94.512 -18.944 -30.875 -0.5 0.36 -0.788
94.512 -18.502 -30.492 -0.5 0.729 -0.468
94.073 -18.776 -29.93 -0.866 0.5 0
94.073 -19.076 -29.41 -0.866 0.25 0.433
94.073 -19.076 -30.45 -0.866 0.25 -0.433
93.912 -19.376 -29.93 -1 0 0
94.634 -21.161 -29.523 -0.623 -0.75 0.22
94.634 -21.161 -30.139 -0.623 -0.75 -0.22
94.634 -20.828 -30.658 -0.623 -0.512 -0.591
94.246 -20.718 -29.831 -0.901 -0.434 -0
95.326 -20.391 -26.788 -0.5 -0.567 0.654
95.326 -20.707 -27.28 -0.5 -0.831 0.244
94.887 -19.41 -27.053 -0.866 0.25 0.433
94.887 -20.01 -27.053 -0.866 -0.25 0.433
96.992 -19.081 -26.064 0.223 0.217 0.95
96.992 -19.689 -26.064 0.223 -0.217 0.95
96.992 -20.236 -26.328 0.223 -0.608 0.762
96.368 -18.534 -26.328 -0.223 0.608 0.762
96.368 -19.081 -26.064 -0.223 0.217 0.95
96.368 -19.689 -26.064 -0.223 -0.217 0.95
96.641 -22.472 -28.229 -0.5 -0.567 0.654
97.232 -22.144 -32.777 -0.309 -0.079 -0.948
97.232 -21.52 -32.725 -0.309 0.233 -0.922
96.674 -23.482 -30.262 -0.588 -0.747 0.31
96.674 -21.368 -32.376 -0.588 0.31 -0.747
95.941 -22.899 -31.175 -0.866 -0.5 -0
95.941 -22.599 -31.695 -0.866 -0.25 -0.433
97.079 -18.776 -31.63 -0 0.568 -0.823
99.961 -16.109 -27.831 0.309 0.52 0.796
99.961 -16.682 -27.579 0.309 0.233 0.922
99.343 -15.497 -28.296 -0 0.826 0.563
99.343 -15.902 -27.859 -0 0.623 0.782
99.343 -16.418 -27.561 -0 0.365 0.931
98.725 -15.35 -28.805 -0.309 0.9 0.309
98.725 -15.648 -28.255 -0.309 0.751 0.584
98.725 -16.109 -27.831 -0.309 0.52 0.796
98.167 -16.53 -30.918 -0.588 0.31 -0.747
98.167 -16.005 -30.567 -0.588 0.572 -0.572
98.167 -15.654 -30.042 -0.588 0.747 -0.31
97.725 -16.561 -30.441 -0.809 0.294 -0.509
99.673 -19.642 -26.512 0.5 -0.123 0.857
99.073 -19.349 -26.35 -0 0.121 0.993
99.073 -19.92 -26.419 -0 -0.355 0.935
98.313 -22.466 -28.214 0.309 -0.644 0.7
99.041 -23.971 -29.618 0.223 -0.608 0.762
99.857 -25.688 -32.961 0.623 -0.75 -0.22
99.857 -25.355 -33.48 0.623 -0.512 -0.591
99.296 -25.868 -32.061 0.223 -0.878 0.423
99.296 -26.003 -32.653 0.223 -0.975 0
99.296 -25.868 -33.245 0.223 -0.878 -0.423
99.296 -25.489 -33.72 0.223 -0.608 -0.762
99.296 -24.942 -33.984 0.223 -0.217 -0.95
98.672 -25.868 -32.061 -0.223 -0.878 0.423
98.672 -26.003 -32.653 -0.223 -0.975 0
98.672 -25.868 -33.245 -0.223 -0.878 -0.423
98.672 -25.489 -33.72 -0.223 -0.608 -0.762
98.672 -24.942 -33.984 -0.223 -0.217 -0.95
98.672 -24.334 -33.984 -0.223 0.217 -0.95
98.111 -25.688 -32.345 -0.623 -0.75 0.22
98.111 -25.688 -32.961 -0.623 -0.75 -0.22
98.111 -25.355 -33.48 -0.623 -0.512 -0.591
98.111 -24.794 -33.736 -0.623 -0.111 -0.774
98.111 -24.183 -33.649 -0.623 0.325 -0.711
97.723 -25.245 -32.653 -0.901 -0.434 -0
97.723 -24.942 -33.179 -0.901 -0.217 -0.376
100.584 -23.571 -33.438 0.5 0 -0.866
100.584 -22.974 -33.319 0.5 0.331 -0.8
100.584 -22.469 -32.981 0.5 0.612 -0.612
99.997 -23.263 -33.625 0.174 0.171 -0.97
99.997 -22.685 -33.414 0.174 0.492 -0.853
99.371 -22.685 -33.414 -0.174 0.492 -0.853
98.202 -20.739 -32.574 -0 0.568 -0.823
100.6 -14.905 -29.389 0.174 0.918 0.356
100.6 -15.229 -28.866 0.174 0.728 0.663
100.01 -14.792 -29.994 -0.174 0.985 0
100.01 -15.72 -31.493 -0.174 0.439 -0.882
100.01 -15.229 -31.122 -0.174 0.728 -0.663
100.01 -14.905 -30.599 -0.174 0.918 -0.356
99.455 -15.481 -31.088 -0.5 0.579 -0.644
101.972 -16.332 -28.484 0.309 0.52 0.796
101.603 -18.133 -27.696 0.309 0.233 0.922
102.042 -20.165 -27.85 0.174 -0.27 0.947
102.042 -20.716 -28.124 0.174 -0.593 0.786
102.435 -23.824 -31.327 1 0 0
102.296 -24.128 -30.801 0.901 -0.217 0.376
102.296 -24.431 -31.327 0.901 -0.434 -0
102.296 -24.128 -31.853 0.901 -0.217 -0.376
102.296 -23.52 -31.853 0.901 0.217 -0.376
101.908 -23.98 -30.244 0.623 -0.111 0.774
101.908 -24.541 -30.5 0.623 -0.512 0.591
101.908 -24.874 -31.019 0.623 -0.75 0.22
101.908 -24.874 -31.635 0.623 -0.75 -0.22
101.908 -24.541 -32.154 0.623 -0.512 -0.591
101.908 -23.98 -32.41 0.623 -0.111 -0.774
101.347 -24.128 -29.996 0.223 -0.217 0.95
101.347 -24.675 -30.26 0.223 -0.608 0.762
101.347 -25.054 -30.735 0.223 -0.878 0.423
101.347 -25.189 -31.327 0.223 -0.975 0
104.86 -19.791 -29.44 0.951 -0.155 0.268
104.86 -20.1 -29.975 0.951 -0.309 -0
104.576 -19.482 -28.799 0.809 -0 0.588
104.576 -20.07 -28.957 0.809 -0.294 0.509
104.576 -20.5 -29.387 0.809 -0.509 0.294
104.576 -20.658 -29.975 0.809 -0.588 0
104.576 -20.5 -30.563 0.809 -0.509 -0.294
104.134 -18.863 -28.48 0.588 0.31 0.747
104.134 -19.482 -28.357 0.588 -0 0.809
104.134 -20.101 -28.48 0.588 -0.31 0.747
104.134 -20.626 -28.831 0.588 -0.572 0.572
104.134 -20.977 -29.356 0.588 -0.747 0.31
104.134 -21.1 -29.975 0.588 -0.809 0
104.134 -20.977 -30.594 0.588 -0.747 -0.31
104.134 -20.626 -31.119 0.588 -0.572 -0.572
103.576 -19.015 -28.131 0.309 0.233 0.922
103.576 -19.639 -28.079 0.309 -0.079 0.948
103.576 -20.246 -28.233 0.309 -0.382 0.871
103.576 -20.77 -28.576 0.309 -0.644 0.7
103.576 -21.155 -29.07 0.309 -0.836 0.453
103.576 -21.358 -29.662 0.309 -0.938 0.157
103.576 -20.77 -31.374 0.309 -0.644 -0.7
103.576 -20.246 -31.717 0.309 -0.382 -0.871
102.958 -20.482 -31.707 -0 -0.5 -0.866
102.958 -19.927 -31.925 -0 -0.223 -0.975
102.667 -17.706 -32.539 -0 -0.223 -0.975
102.049 -18.025 -32.331 -0.309 -0.382 -0.871
102.049 -17.418 -32.485 -0.309 -0.079 -0.948
104.017 -14.672 -31.135 0.5 0.866 0
104.017 -14.799 -30.536 0.5 0.791 0.352
104.017 -15.159 -30.041 0.5 0.579 0.644
103.462 -14.907 -30.007 0.174 0.728 0.663
103.462 -16.602 -32.745 0.174 -0.27 -0.947
103.462 -15.99 -32.802 0.174 0.091 -0.981
103.462 -15.398 -32.634 0.174 0.439 -0.882
102.872 -15.99 -32.802 -0.174 0.091 -0.981
102.872 -15.398 -32.634 -0.174 0.439 -0.882
102.681 -14.237 -31.189 -0 1 0
102.681 -14.374 -30.631 -0 0.885 0.465
102.681 -14.374 -31.747 -0 0.885 -0.465
102.081 -14.563 -31.751 -0.5 0.729 -0.468
103.843 -16.642 -29.094 0.588 0.31 0.747
103.285 -16.221 -28.997 0.309 0.52 0.796
103.285 -16.794 -28.745 0.309 0.233 0.922
105.158 -18.357 -30.522 1 0 0
105.055 -18.066 -30.018 0.94 0.171 0.296
105.055 -18.648 -31.026 0.94 -0.171 -0.296
104.76 -17.903 -29.528 0.766 0.267 0.585
104.76 -18.513 -31.604 0.766 -0.091 -0.636
104.308 -18.511 -31.986 0.5 -0.091 -0.861
103.753 -18.815 -32.132 0.174 -0.27 -0.947
105.174 -16.134 -31.431 1 0 0
105.013 -15.534 -31.431 0.866 0.5 0
105.013 -16.434 -31.951 0.866 -0.25 -0.433
105.013 -15.834 -31.951 0.866 0.25 -0.433
104.574 -16.282 -32.46 0.5 -0.123 -0.857
104.574 -15.702 -32.376 0.5 0.36 -0.788
3 0 210 1
3 1 210 211
3 210 212 211
3 211 212 213
3 212 214 213
3 213 214 215
3 214 4 215
3 215 4 3
3 4 216 5
3 5 216 217
3 216 218 217
3 217 218 219
3 218 7 219
3 219 7 6
3 7 221 220
3 220 221 222
3 220 222 8
3 8 222 223
3 221 10 222
3 222 10 224
3 222 224 223
3 223 224 9
3 10 0 225
3 225 0 226
3 225 226 11
3 11 226 2
3 11 13 9
3 9 13 12
3 13 227 14
3 14 227 228
3 227 229 228
3 228 229 230
3 229 231 230
3 230 231 232
3 231 233 232
3 232 233 234
3 233 16 234
3 234 16 15
3 16 19 235
3 235 19 236
3 235 236 17
3 17 236 18
3 19 22 237
3 237 22 238
3 237 238 20
3 20 238 21
3 22 240 239
3 239 240 241
3 239 241 23
3 23 241 242
3 240 2 241
3 241 2 243
3 241 243 242
3 242 243 1
3 23 25 244
3 244 25 245
3 244 245 21
3 21 245 24
3 25 28 246
3 246 28 247
3 246 247 26
3 26 247 27
3 28 249 248
3 248 249 250
3 248 250 29
3 29 250 251
3 249 31 250
3 250 31 252
3 250 252 251
3 251 252 30
3 31 34 253
3 253 34 254
3 253 254 32
3 32 254 33
3 34 3 35
3 35 3 5
3 35 37 33
3 33 37 36
3 37 255 38
3 38 255 256
3 255 40 256
3 256 40 39
3 40 43 257
3 257 43 258
3 257 258 41
3 41 258 42
3 43 6 44
3 44 6 8
3 44 46 259
3 259 46 260
3 259 260 42
3 42 260 45
3 46 261 47
3 47 261 262
3 261 49 262
3 262 49 48
3 49 52 263
3 263 52 264
3 263 264 50
3 50 264 51
3 52 266 265
3 265 266 267
3 265 267 53
3 53 267 268
3 266 55 267
3 267 55 269
3 267 269 268
3 268 269 54
3 55 58 56
3 56 58 57
3 58 270 59
3 59 270 271
3 270 272 271
3 271 272 273
3 272 12 273
3 273 12 14
3 59 61 57
3 57 61 60
3 61 64 274
3 274 64 275
3 274 275 62
3 62 275 63
3 64 67 65
3 65 67 66
3 67 70 276
3 276 70 277
3 276 277 68
3 68 277 69
3 70 15 278
3 278 15 279
3 278 279 71
3 71 279 17
3 71 280 69
3 69 280 281
3 280 73 281
3 281 73 72
3 73 76 74
3 74 76 75
3 76 18 77
3 77 18 20
3 77 24 75
3 75 24 26
3 74 79 72
3 72 79 78
3 79 282 80
3 80 282 283
3 282 82 283
3 283 82 81
3 82 285 284
3 284 285 286
3 284 286 83
3 83 286 287
3 285 288 286
3 286 288 289
3 286 289 287
3 287 289 290
3 288 291 289
3 289 291 292
3 289 292 290
3 290 292 293
3 291 85 292
3 292 85 294
3 292 294 293
3 293 294 84
3 85 88 295
3 295 88 296
3 295 296 86
3 86 296 87
3 88 91 89
3 89 91 90
3 91 36 297
3 297 36 298
3 297 298 92
3 92 298 38
3 92 94 299
3 299 94 300
3 299 300 90
3 90 300 93
3 94 97 301
3 301 97 303
3 301 303 302
3 302 303 304
3 302 304 95
3 95 304 96
3 97 306 305
3 305 306 307
3 305 307 98
3 98 307 308
3 306 39 307
3 307 39 309
3 307 309 308
3 308 309 41
3 98 100 96
3 96 100 99
3 100 103 101
3 101 103 102
3 103 310 104
3 104 310 311
3 310 312 311
3 311 312 313
3 312 314 313
3 313 314 315
3 314 316 315
3 315 316 317
3 316 318 317
3 317 318 319
3 318 320 319
3 319 320 321
3 320 322 321
3 321 322 323
3 322 324 323
3 323 324 325
3 324 106 325
3 325 106 105
3 106 109 107
3 107 109 108
3 109 112 110
3 110 112 111
3 112 326 113
3 113 326 327
3 326 54 327
3 327 54 56
3 113 328 111
3 111 328 329
3 328 115 329
3 329 115 114
3 115 331 330
3 330 331 332
3 330 332 116
3 116 332 333
3 331 118 332
3 332 118 334
3 332 334 333
3 333 334 117
3 118 121 119
3 119 121 120
3 121 335 122
3 122 335 336
3 335 66 336
3 336 66 68
3 122 124 120
3 120 124 123
3 124 338 337
3 337 338 339
3 337 339 125
3 125 339 340
3 338 78 339
3 339 78 341
3 339 341 340
3 340 341 80
3 125 127 342
3 342 127 343
3 342 343 123
3 123 343 126
3 127 130 344
3 344 130 345
3 344 345 128
3 128 345 129
3 130 346 131
3 131 346 347
3 346 133 347
3 347 133 132
3 133 81 348
3 348 81 349
3 348 349 134
3 134 349 83
3 134 350 132
3 132 350 351
3 350 136 351
3 351 136 135
3 136 139 352
3 352 139 353
3 352 353 137
3 137 353 138
3 139 354 140
3 140 354 355
3 354 356 355
3 355 356 357
3 356 358 357
3 357 358 359
3 358 360 359
3 359 360 361
3 360 84 361
3 361 84 86
3 140 362 138
3 138 362 363
3 362 364 363
3 363 364 365
3 364 366 365
3 365 366 367
3 366 142 367
3 367 142 141
3 142 145 368
3 368 145 371
3 368 371 369
3 369 371 372
3 369 372 370
3 370 372 373
3 370 373 143
3 143 373 144
3 145 148 374
3 374 148 377
3 374 377 375
3 375 377 378
3 375 378 376
3 376 378 379
3 376 379 146
3 146 379 147
3 148 381 380
3 380 381 382
3 380 382 149
3 149 382 383
3 381 87 382
3 382 87 384
3 382 384 383
3 383 384 89
3 149 93 385
3 385 93 387
3 385 387 386
3 386 387 388
3 386 388 147
3 147 388 95
3 146 151 144
3 144 151 150
3 151 389 152
3 152 389 390
3 389 99 390
3 390 99 101
3 152 154 391
3 391 154 392
3 391 392 150
3 150 392 153
3 154 393 155
3 155 393 394
3 393 395 394
3 394 395 396
3 395 157 396
3 396 157 156
3 157 160 158
3 158 160 159
3 160 397 161
3 161 397 398
3 397 102 398
3 398 102 104
3 161 163 399
3 399 163 400
3 399 400 159
3 159 400 162
3 163 402 401
3 401 402 403
3 401 403 164
3 164 403 404
3 402 405 403
3 403 405 406
3 403 406 404
3 404 406 407
3 405 408 406
3 406 408 409
3 406 409 407
3 407 409 410
3 408 166 409
3 409 166 411
3 409 411 410
3 410 411 165
3 166 169 412
3 412 169 413
3 412 413 167
3 167 413 168
3 169 414 170
3 170 414 415
3 414 105 415
3 415 105 107
3 170 172 168
3 168 172 171
3 172 416 173
3 173 416 417
3 416 418 417
3 417 418 419
3 418 175 419
3 419 175 174
3 175 178 420
3 420 178 421
3 420 421 176
3 176 421 177
3 178 422 179
3 179 422 423
3 422 108 423
3 423 108 110
3 179 181 177
3 177 181 180
3 181 114 182
3 182 114 116
3 182 424 180
3 180 424 425
3 424 426 425
3 425 426 427
3 426 428 427
3 427 428 429
3 428 184 429
3 429 184 183
3 184 187 430
3 430 187 433
3 430 433 431
3 431 433 434
3 431 434 432
3 432 434 435
3 432 435 185
3 185 435 186
3 187 117 436
3 436 117 437
3 436 437 188
3 188 437 119
3 188 126 438
3 438 126 441
3 438 441 439
3 439 441 442
3 439 442 440
3 440 442 443
3 440 443 186
3 186 443 128
3 185 447 444
3 444 447 448
3 444 448 445
3 445 448 449
3 445 449 446
3 446 449 450
3 446 450 183
3 183 450 451
3 447 452 448
3 448 452 453
3 448 453 449
3 449 453 454
3 449 454 450
3 450 454 455
3 450 455 451
3 451 455 456
3 452 141 453
3 453 141 457
3 453 457 454
3 454 457 458
3 454 458 455
3 455 458 459
3 455 459 456
3 456 459 143
3 176 190 174
3 174 190 189
3 190 460 191
3 191 460 461
3 460 462 461
3 461 462 463
3 462 464 463
3 463 464 465
3 464 466 465
3 465 466 467
3 466 468 467
3 467 468 469
3 468 470 469
3 469 470 471
3 470 472 471
3 471 472 473
3 472 193 473
3 473 193 192
3 193 153 194
3 194 153 155
3 194 474 192
3 192 474 475
3 474 196 475
3 475 196 195
3 196 476 197
3 197 476 477
3 476 478 477
3 477 478 479
3 478 480 479
3 479 480 481
3 480 156 481
3 481 156 158
3 197 199 195
3 195 199 198
3 199 483 482
3 482 483 484
3 482 484 200
3 200 484 485
3 483 486 484
3 484 486 487
3 484 487 485
3 485 487 488
3 486 489 487
3 487 489 490
3 487 490 488
3 488 490 491
3 489 492 490
3 490 492 493
3 490 493 491
3 491 493 494
3 492 495 493
3 493 495 496
3 493 496 494
3 494 496 497
3 495 202 496
3 496 202 498
3 496 498 497
3 497 498 201
3 202 205 203
3 203 205 204
3 205 499 206
3 206 499 500
3 499 501 500
3 500 501 502
3 501 503 502
3 502 503 504
3 503 171 504
3 504 171 173
3 206 505 204
3 204 505 506
3 505 189 506
3 506 189 191
3 203 508 507
3 507 508 509
3 507 509 201
3 201 509 510
3 508 511 509
3 509 511 512
3 509 512 510
3 510 512 513
3 511 198 512
3 512 198 514
3 512 514 513
3 513 514 200
3 167 515 165
3 165 515 516
3 515 517 516
3 516 517 518
3 517 519 518
3 518 519 520
3 519 521 520
3 520 521 522
3 521 523 522
3 522 523 524
3 523 162 524
3 524 162 164
3 137 525 135
3 135 525 526
3 525 129 526
3 526 129 131
3 65 527 63
3 63 527 528
3 527 529 528
3 528 529 530
3 529 531 530
3 530 531 532
3 531 533 532
3 532 533 534
3 533 60 534
3 534 60 62
3 53 535 51
3 51 535 536
3 535 208 536
3 536 208 207
3 208 45 537
3 537 45 538
3 537 538 209
3 209 538 47
3 209 539 207
3 207 539 540
3 539 48 540
3 540 48 50
3 32 541 30
3 30 541 542
3 541 543 542
3 542 543 544
3 543 545 544
3 544 545 546
3 545 27 546
3 546 27 29
3 226 0 1
3 226 1 243
3 226 243 2
3 5 3 4
3 8 6 220
3 220 6 7
3 11 9 225
3 225 9 224
3 225 224 10
3 14 12 13
3 279 15 235
3 279 235 17
3 235 15 16
3 20 18 236
3 20 236 237
3 237 236 19
3 244 21 238
3 244 238 239
3 244 239 23
3 239 238 22
3 26 24 246
3 246 24 245
3 246 245 25
3 29 27 248
3 248 27 247
3 248 247 28
3 32 30 252
3 32 252 253
3 253 252 31
3 35 33 254
3 35 254 34
3 298 36 37
3 298 37 38
3 309 39 40
3 309 40 257
3 309 257 41
3 259 42 258
3 259 258 44
3 44 258 43
3 538 45 260
3 538 260 47
3 47 260 46
3 50 48 263
3 263 48 49
3 53 51 265
3 265 51 264
3 265 264 52
3 56 54 269
3 56 269 55
3 59 57 58
3 62 60 274
3 274 60 61
3 65 63 275
3 65 275 64
3 68 66 276
3 276 66 67
3 71 69 278
3 278 69 277
3 278 277 70
3 74 72 73
3 77 75 76
3 341 78 79
3 341 79 80
3 349 81 284
3 349 284 83
3 284 81 82
3 86 84 294
3 86 294 295
3 295 294 85
3 384 87 296
3 384 296 88
3 384 88 89
3 299 90 91
3 299 91 297
3 299 297 92
3 387 93 548
3 387 548 547
3 387 547 388
3 388 547 302
3 388 302 95
3 302 547 301
3 301 547 548
3 301 548 94
3 94 548 300
3 300 548 93
3 98 96 304
3 98 304 305
3 305 304 303
3 305 303 97
3 101 99 100
3 104 102 103
3 107 105 106
3 110 108 109
3 113 111 112
3 116 114 330
3 330 114 115
3 437 117 334
3 437 334 118
3 437 118 119
3 122 120 121
3 342 123 124
3 342 124 337
3 342 337 125
3 441 126 343
3 441 343 442
3 442 343 127
3 442 127 344
3 442 344 443
3 443 344 128
3 131 129 345
3 131 345 130
3 134 132 348
3 348 132 133
3 137 135 352
3 352 135 136
3 140 138 353
3 140 353 139
3 457 141 368
3 457 368 369
3 457 369 458
3 458 369 370
3 458 370 459
3 459 370 143
3 368 141 142
3 146 144 549
3 146 549 376
3 376 549 373
3 376 373 550
3 376 550 375
3 375 550 374
3 374 550 371
3 374 371 145
3 371 550 372
3 372 550 373
3 373 549 144
3 551 552 553
3 386 147 379
3 386 379 551
3 386 551 385
3 385 551 553
3 385 553 149
3 149 553 380
3 380 553 552
3 380 552 377
3 380 377 148
3 377 552 378
3 378 552 551
3 378 551 379
3 391 150 151
3 391 151 152
3 155 153 392
3 155 392 154
3 158 156 157
3 399 159 160
3 399 160 161
3 164 162 400
3 164 400 401
3 401 400 163
3 167 165 412
3 412 165 411
3 412 411 166
3 170 168 413
3 170 413 169
3 173 171 172
3 176 174 420
3 420 174 175
3 179 177 421
3 179 421 178
3 182 180 181
3 446 183 184
3 446 184 430
3 446 430 445
3 445 430 431
3 445 431 444
3 444 431 432
3 444 432 185
3 440 186 435
3 440 435 439
3 439 435 434
3 439 434 555
3 439 555 438
3 438 555 436
3 438 436 188
3 436 555 554
3 436 554 187
3 187 554 433
3 433 554 434
3 434 554 555
3 191 189 190
3 194 192 193
3 197 195 196
3 514 198 199
3 514 199 482
3 514 482 200
3 507 201 498
3 507 498 202
3 507 202 203
3 206 204 205
3 209 207 537
3 537 207 208
3 558 557 561
3 559 558 561
3 556 558 559
3 560 559 562
3 559 561 562
3 562 561 212
3 562 212 210
3 562 210 560
3 560 210 0
3 560 0 10
3 560 10 559
3 559 10 556
3 556 10 221
3 556 221 7
3 556 7 558
3 558 7 218
3 558 218 557
3 557 218 216
3 557 216 4
3 557 4 214
3 557 214 561
3 561 214 212
3 564 563 566
3 564 566 565
3 564 565 249
3 564 249 28
3 564 28 563
3 563 28 25
3 563 25 23
3 563 23 242
3 563 242 566
3 566 242 211
3 566 211 213
3 566 213 565
3 565 213 215
3 565 215 31
3 565 31 249
3 31 215 34
3 34 215 3
3 211 242 1
3 6 43 219
3 219 43 40
3 219 40 255
3 219 255 217
3 217 255 5
3 5 255 37
3 5 37 35
3 52 49 266
3 9 12 261
3 9 261 223
3 223 261 8
3 8 261 46
3 8 46 44
3 261 12 272
3 261 272 49
3 49 272 266
3 266 272 270
3 266 270 55
3 55 270 58
3 22 19 240
3 568 567 570
3 568 570 240
3 568 240 19
3 568 19 16
3 568 16 233
3 568 233 567
3 567 233 231
3 567 231 570
3 570 231 229
3 570 229 569
3 570 569 2
3 570 2 240
3 2 569 11
3 11 569 13
3 13 569 227
3 227 569 229
3 571 575 576
3 572 571 576
3 572 576 573
3 572 573 64
3 572 64 61
3 572 61 571
3 571 61 59
3 571 59 271
3 571 271 574
3 571 574 575
3 575 574 230
3 575 230 576
3 576 230 232
3 576 232 234
3 576 234 573
3 573 234 70
3 573 70 67
3 573 67 64
3 70 234 15
3 230 574 228
3 228 574 273
3 228 273 14
3 273 574 271
3 18 76 577
3 18 577 17
3 17 577 71
3 71 577 280
3 280 577 73
3 73 577 76
3 21 24 77
3 21 77 20
3 541 32 581
3 541 581 578
3 541 578 291
3 541 291 288
3 541 288 543
3 543 288 285
3 543 285 545
3 545 285 82
3 545 82 580
3 545 580 75
3 545 75 26
3 545 26 27
3 75 580 74
3 74 580 282
3 74 282 79
3 282 580 82
3 291 578 85
3 85 578 579
3 85 579 88
3 88 579 91
3 91 579 36
3 36 579 581
3 36 581 33
3 33 581 32
3 581 579 578
3 546 29 582
3 546 582 544
3 544 582 583
3 544 583 542
3 542 583 30
3 30 583 251
3 251 583 582
3 251 582 29
3 306 97 92
3 306 92 584
3 306 584 39
3 39 584 256
3 256 584 38
3 38 584 92
3 92 97 94
3 585 588 589
3 586 585 589
3 587 590 591
3 588 587 591
3 588 591 592
3 589 588 592
3 594 593 596
3 594 596 595
3 594 595 314
3 594 314 312
3 594 312 593
3 593 312 310
3 593 310 308
3 593 308 41
3 593 41 596
3 596 41 42
3 596 42 45
3 596 45 208
3 596 208 595
3 595 208 535
3 595 535 318
3 595 318 316
3 595 316 314
3 318 535 590
3 318 590 320
3 320 590 587
3 320 587 322
3 322 587 324
3 324 587 588
3 324 588 585
3 324 585 106
3 106 585 586
3 106 586 109
3 109 586 112
3 112 586 326
3 326 586 589
3 326 589 54
3 54 589 592
3 54 592 268
3 268 592 53
3 53 592 591
3 53 591 535
3 535 591 590
3 308 310 103
3 308 103 100
3 308 100 98
3 539 209 262
3 539 262 48
3 262 209 47
3 50 51 540
3 536 207 540
3 536 540 51
3 57 60 533
3 57 533 327
3 57 327 56
3 327 533 113
3 113 533 328
3 328 533 531
3 328 531 115
3 115 531 529
3 115 529 331
3 331 529 527
3 331 527 118
3 118 527 121
3 121 527 335
3 335 527 66
3 66 527 65
3 597 598 599
3 597 599 528
3 597 528 530
3 597 530 532
3 597 532 534
3 597 534 598
3 598 534 62
3 598 62 63
3 598 63 599
3 599 63 528
3 281 72 78
3 281 78 338
3 281 338 600
3 281 600 336
3 281 336 68
3 281 68 69
3 336 600 122
3 122 600 124
3 124 600 338
3 81 133 283
3 283 133 346
3 283 346 80
3 80 346 601
3 80 601 340
3 340 601 125
3 125 601 130
3 125 130 127
3 130 601 346
3 602 605 606
3 603 602 606
3 603 606 607
3 603 607 608
3 604 609 610
3 605 604 610
3 605 610 611
3 606 605 611
3 606 611 612
3 607 606 612
3 607 612 613
3 608 607 613
3 608 613 614
3 610 609 615
3 610 615 616
3 611 610 616
3 611 616 617
3 612 611 617
3 613 612 617
3 613 617 618
3 614 613 618
3 614 618 619
3 616 615 620
3 616 620 621
3 617 616 621
3 618 617 621
3 618 621 619
3 619 621 293
3 619 293 84
3 619 84 360
3 619 360 614
3 614 360 358
3 614 358 608
3 608 358 356
3 608 356 603
3 603 356 354
3 603 354 139
3 603 139 602
3 602 139 136
3 602 136 605
3 605 136 604
3 604 136 350
3 604 350 609
3 609 350 134
3 609 134 615
3 615 134 83
3 615 83 620
3 620 83 287
3 620 287 290
3 620 290 621
3 621 290 293
3 623 622 625
3 623 625 626
3 624 623 626
3 626 625 627
3 626 627 381
3 626 381 624
3 624 381 145
3 624 145 142
3 624 142 366
3 624 366 623
3 623 366 364
3 623 364 622
3 622 364 362
3 622 362 355
3 622 355 357
3 622 357 625
3 625 357 359
3 625 359 361
3 625 361 627
3 627 361 86
3 627 86 87
3 627 87 381
3 355 362 140
3 145 381 148
3 90 93 628
3 90 628 89
3 89 628 383
3 383 628 93
3 383 93 149
3 96 99 95
3 95 99 389
3 95 389 147
3 147 389 151
3 147 151 146
3 397 160 157
3 397 157 395
3 397 395 102
3 102 395 393
3 102 393 390
3 102 390 101
3 390 393 154
3 390 154 152
3 633 632 635
3 633 635 634
3 633 634 405
3 633 405 402
3 633 402 632
3 632 402 163
3 632 163 161
3 632 161 398
3 632 398 311
3 632 311 313
3 632 313 635
3 635 313 315
3 635 315 317
3 635 317 634
3 634 317 631
3 634 631 405
3 405 631 408
3 408 631 629
3 408 629 166
3 166 629 630
3 166 630 169
3 169 630 414
3 414 630 325
3 414 325 105
3 325 630 323
3 323 630 629
3 323 629 321
3 321 629 631
3 321 631 319
3 319 631 317
3 311 398 104
3 178 175 422
3 422 175 418
3 422 418 636
3 422 636 108
3 108 636 107
3 107 636 415
3 415 636 416
3 415 416 172
3 415 172 170
3 416 636 418
3 329 114 181
3 329 181 637
3 329 637 111
3 111 637 110
3 110 637 423
3 423 637 179
3 179 637 181
3 117 187 428
3 117 428 639
3 117 639 333
3 333 639 638
3 333 638 116
3 116 638 424
3 116 424 182
3 424 638 426
3 426 638 639
3 426 639 428
3 428 187 184
3 120 123 119
3 119 123 126
3 119 126 188
3 640 641 642
3 640 642 643
3 640 643 644
3 641 645 646
3 641 646 647
3 642 641 647
3 642 647 648
3 643 642 648
3 643 648 649
3 643 649 650
3 644 643 650
3 646 645 651
3 646 651 652
3 646 652 653
3 647 646 653
3 647 653 654
3 648 647 654
3 648 654 138
3 648 138 649
3 649 138 363
3 649 363 650
3 650 363 365
3 650 365 367
3 650 367 644
3 644 367 452
3 644 452 640
3 640 452 447
3 640 447 641
3 641 447 645
3 645 447 185
3 645 185 651
3 651 185 186
3 651 186 128
3 651 128 129
3 651 129 652
3 652 129 525
3 652 525 653
3 653 525 137
3 653 137 654
3 654 137 138
3 452 367 141
3 351 135 526
3 351 526 347
3 351 347 132
3 347 526 131
3 176 177 190
3 655 657 658
3 655 658 659
3 656 655 659
3 656 659 660
3 656 660 661
3 657 662 663
3 657 663 664
3 658 657 664
3 658 664 665
3 659 658 665
3 659 665 666
3 660 659 666
3 660 666 667
3 660 667 668
3 661 660 668
3 661 668 669
3 663 662 670
3 663 670 671
3 664 663 671
3 664 671 672
3 664 672 673
3 665 664 673
3 665 673 674
3 666 665 674
3 666 674 675
3 667 666 675
3 677 676 678
3 677 678 679
3 677 679 472
3 677 472 470
3 677 470 669
3 677 669 676
3 676 669 668
3 676 668 456
3 676 456 678
3 678 456 143
3 678 143 679
3 679 143 144
3 679 144 150
3 679 150 153
3 679 153 193
3 679 193 472
3 456 668 451
3 451 668 667
3 451 667 675
3 451 675 183
3 183 675 674
3 183 674 429
3 429 674 673
3 429 673 427
3 427 673 672
3 427 672 425
3 425 672 671
3 425 671 180
3 180 671 670
3 180 670 177
3 177 670 190
3 190 670 662
3 190 662 460
3 460 662 657
3 460 657 462
3 462 657 655
3 462 655 464
3 464 655 656
3 464 656 466
3 466 656 661
3 466 661 468
3 468 661 669
3 468 669 470
3 680 681 682
3 680 682 478
3 680 478 476
3 680 476 474
3 680 474 194
3 680 194 681
3 681 194 155
3 681 155 394
3 681 394 682
3 682 394 396
3 682 396 480
3 682 480 478
3 480 396 156
3 474 476 196
3 685 684 686
3 688 687 690
3 688 690 691
3 689 688 691
3 689 691 521
3 689 521 486
3 689 486 688
3 688 486 483
3 688 483 687
3 687 483 197
3 687 197 477
3 687 477 479
3 687 479 690
3 690 479 481
3 690 481 523
3 690 523 691
3 691 523 521
3 523 481 158
3 523 158 159
3 523 159 162
3 197 483 199
3 486 521 489
3 489 521 519
3 489 519 683
3 489 683 492
3 492 683 684
3 492 684 495
3 495 684 685
3 495 685 499
3 495 499 205
3 495 205 202
3 499 685 501
3 501 685 503
3 503 685 686
3 503 686 171
3 171 686 168
3 168 686 167
3 167 686 515
3 515 686 684
3 515 684 517
3 517 684 683
3 517 683 519
3 524 164 404
3 524 404 695
3 524 695 522
3 522 695 694
3 522 694 520
3 520 694 692
3 520 692 518
3 518 692 693
3 518 693 516
3 516 693 165
3 165 693 410
3 410 693 692
3 410 692 407
3 407 692 695
3 407 695 404
3 695 692 694
3 696 697 698
3 696 698 189
3 696 189 505
3 696 505 500
3 696 500 502
3 696 502 697
3 697 502 504
3 697 504 417
3 697 417 419
3 697 419 698
3 698 419 174
3 698 174 189
3 417 504 173
3 500 505 206
3 475 195 705
3 475 705 473
3 475 473 192
3 473 705 471
3 471 705 704
3 471 704 703
3 471 703 469
3 469 703 701
3 469 701 467
3 467 701 465
3 465 701 699
3 465 699 700
3 465 700 463
3 463 700 702
3 463 702 461
3 461 702 506
3 461 506 191
3 506 702 204
3 204 702 700
3 204 700 203
3 203 700 508
3 508 700 699
3 508 699 701
3 508 701 511
3 511 701 703
3 511 703 704
3 511 704 198
3 198 704 195
3 195 704 705
3 706 708 709
3 706 709 707
3 709 708 710
3 709 710 711
3 709 711 491
3 709 491 707
3 707 491 494
3 707 494 497
3 707 497 706
3 706 497 201
3 706 201 510
3 706 510 708
3 708 510 513
3 708 513 710
3 710 513 200
3 710 200 485
3 710 485 711
3 711 485 488
3 711 488 491
