ply
format ascii 1.0
comment Generated by PyMesh
element vertex 1178
property float x
property float y
property float z
property float nx
property float ny
property float nz
element face 2352
property list uchar int vertex_indices
end_header
17.853 50.75 -38.36 -0.829 0.549 -0.108
17.973 51.856 -39.081 -0.909 -0.188 0.372
18.022 51.201 -38.861 -0.942 0.248 0.226
18.619 52.258 -38.357 -0.447 0.098 0.889
18.499 51.152 -37.637 -0.367 0.836 0.409
18.753 51.655 -38.043 -0.536 0.5 0.68
19.021 51.649 -37.869 -0.387 0.497 0.776
18.736 51.146 -37.483 -0.198 0.832 0.519
19.816 51.93 -37.078 -0.918 0.309 0.249
19.822 51.887 -37.01 -0.915 0.288 0.282
18.741 51.11 -37.426 -0.194 0.806 0.56
19.813 51.729 -36.794 -0.909 0.393 0.138
20.329 50.457 -36.276 -0.479 -0.667 0.57
19.302 49.728 -36.863 0.206 -0.181 0.962
20.486 50.251 -36.344 -0.583 -0.53 0.616
20.599 50.062 -36.421 -0.526 -0.625 0.577
19.398 49.568 -36.928 0.275 -0.296 0.915
21.145 49.121 -36.24 -0.89 0.002 0.456
21.125 48.676 -36.477 -0.905 -0.316 0.286
19.377 49.123 -37.166 0.26 -0.614 0.745
20.579 47.871 -37.265 -0.541 0.221 0.812
19.79 47.664 -39.559 -0.935 0.118 -0.335
18.711 48.948 -39.103 -0.215 -0.739 -0.639
18.993 49.165 -39.7 -0.403 -0.883 -0.241
19.984 47.734 -39.937 -0.838 0.153 -0.524
19.178 49.232 -40.061 -0.3 -0.846 -0.441
20.029 47.328 -40.334 -0.868 0.423 -0.26
21.086 47.876 -40.945 -0.246 0.746 -0.619
20.263 49.794 -40.689 0.303 -0.533 -0.79
21.121 48.324 -40.595 -0.269 0.447 -0.853
21.548 48.582 -40.52 -0.056 0.576 -0.815
20.671 50.041 -40.617 0.529 -0.396 -0.75
22.94 49.183 -41.792 -0.984 0.176 0.033
21.583 49.999 -40.353 0.104 0.022 -0.994
22.8 49.507 -41.062 -0.793 0.386 -0.472
23.171 49.701 -41.756 -0.792 0.608 0.063
20.954 50.677 -40.573 0.687 -0.043 -0.726
21.608 50.726 -40.214 0.251 -0.075 -0.965
21.474 51.747 -39.899 0.155 0.655 -0.74
20.803 51.831 -40.217 0.603 0.599 -0.528
20.433 52.414 -40.281 0.849 0.21 -0.485
21.485 51.786 -39.861 0.163 0.682 -0.713
20.444 52.452 -40.244 0.856 0.237 -0.458
23.136 52.665 -40.431 -0.938 0.096 -0.333
21.024 52.26 -39.726 0.487 0.595 -0.639
22.67 52.391 -39.841 -0.657 0.505 -0.56
23.131 52.964 -40.157 -0.941 0.309 -0.137
20.44 52.751 -39.969 0.853 0.451 -0.262
21.691 52.52 -39.168 0.019 0.605 -0.796
19.848 52.069 -37.16 -0.902 0.379 0.208
18.883 52.37 -38.273 -0.258 0.178 0.949
19.051 51.781 -37.948 -0.37 0.571 0.733
23.334 53.343 -39.725 -0.796 0.58 0.171
21.931 52.97 -38.657 0.139 0.829 -0.541
22.009 53.121 -38.45 0.087 0.729 -0.679
22.712 53.012 -37.188 0.673 0.638 0.373
22.835 52.83 -37.034 0.591 0.76 0.27
24.324 52.713 -37.184 -0.401 0.838 0.371
24.338 52.617 -36.996 -0.391 0.769 0.505
22.852 52.717 -36.811 0.6 0.703 0.382
23.349 52.369 -36.584 0.268 0.935 0.231
22.878 52.14 -35.905 0.033 0.821 0.57
22.381 52.488 -36.132 0.365 0.589 0.722
23.006 52.022 -35.701 -0.052 0.899 0.434
22.601 51.656 -35.377 -0.389 0.594 0.704
21.861 52.018 -35.716 0.105 0.353 0.93
22.358 51.669 -35.489 -0.227 0.586 0.778
21.289 49.868 -35.912 -0.761 -0.315 0.567
20.792 50.216 -36.139 -0.43 -0.547 0.718
21.308 49.252 -36.001 -0.774 0.096 0.626
22.566 49.552 -35.3 -0.123 -0.473 0.873
22.386 48.985 -35.484 -0.003 -0.095 0.995
22.833 48.587 -35.398 -0.301 0.171 0.938
21.762 47.722 -36.309 -0.836 -0.261 0.483
21.482 48.255 -36.254 -0.649 -0.616 0.446
21.002 47.373 -37.001 -0.329 -0.028 0.944
22.732 46.452 -36.734 -0.351 -0.896 0.271
21.972 46.102 -37.425 0.156 -0.663 0.732
22.831 45.727 -37.542 -0.417 -0.413 0.81
22.587 45.317 -38.016 -0.538 -0.618 0.573
21.728 45.692 -37.899 0.034 -0.868 0.495
22.201 45.101 -38.409 -0.281 -0.474 0.835
21.576 44.993 -38.862 -0.593 -0.528 0.608
21.104 45.584 -38.352 -0.278 -0.922 0.268
21.07 45.33 -38.86 -0.256 -0.753 0.607
21.277 44.71 -40.031 -0.742 -0.67 0.023
20.792 45.067 -39.947 -0.419 -0.907 -0.033
21.469 44.298 -40.437 -0.87 -0.395 0.294
21.293 44.52 -41 -0.959 -0.284 0.012
20.628 45.273 -40.471 -0.516 -0.786 -0.341
21.257 44.316 -41.467 -0.935 -0.148 0.323
21.609 45.418 -42.416 -0.683 0.638 -0.355
21.016 46.485 -41.515 -0.288 -0.073 -0.955
21.709 45.824 -42.124 -0.75 0.368 -0.549
21.781 45.922 -42.148 -0.715 0.417 -0.562
21.082 46.577 -41.538 -0.249 -0.019 -0.968
22.055 47.129 -43.31 -0.897 -0.387 0.213
22.374 48.22 -42.877 -0.631 0.521 0.574
21.464 47.88 -41.02 -0.024 0.748 -0.663
22.924 48.985 -41.913 -0.998 0.011 -0.068
22.923 48.991 -41.907 -0.998 0.016 -0.062
21.463 47.887 -41.012 -0.025 0.752 -0.659
21.527 48.335 -40.667 -0.067 0.453 -0.889
22.577 48.629 -43.318 -0.462 0.863 0.207
23.127 49.395 -42.355 -0.828 0.352 -0.435
23.173 49.299 -42.56 -0.859 0.416 -0.298
23.804 50.14 -42.098 -0.543 0.837 -0.067
23.618 50.049 -41.995 -0.419 0.898 -0.136
23.744 51.983 -41.043 -0.504 -0.392 -0.77
23.489 51.827 -40.702 -0.686 -0.503 -0.526
23.383 49.906 -41.68 -0.615 0.778 0.126
21.838 50.948 -40.132 0.415 0.083 -0.906
25.182 50.41 -42.34 0.146 0.971 -0.188
24.909 52.21 -41.248 0.328 -0.229 -0.916
25.661 50.51 -42.038 -0.173 0.904 -0.39
25.973 50.593 -41.907 -0.017 0.946 -0.324
25.172 52.28 -41.137 0.517 -0.179 -0.837
27.201 51.392 -41.853 -0.836 0.413 -0.36
27.417 51.755 -41.705 -0.657 0.715 -0.237
25.406 52.674 -40.977 0.683 0.102 -0.723
26.008 52.624 -40.637 0.282 0.136 -0.95
25.436 53.912 -39.87 -0.036 0.851 -0.524
24.9 53.814 -40.299 0.322 0.916 -0.238
25.78 54.361 -39.47 -0.265 0.552 -0.791
25.084 54.404 -38.76 -0.762 0.583 -0.283
24.204 53.857 -39.588 -0.175 0.947 0.269
24.65 53.96 -39.067 -0.472 0.878 -0.078
24.176 53.566 -38.644 -0.736 0.659 0.157
23.784 53.508 -39.214 -0.475 0.698 0.537
22.423 53.272 -37.979 0.433 0.855 -0.287
24.531 53.253 -37.686 -0.538 0.485 0.689
22.713 53.017 -37.198 0.674 0.643 0.364
24.325 52.719 -37.196 -0.4 0.842 0.362
24.662 53.273 -37.608 -0.466 0.496 0.733
24.44 52.736 -37.126 -0.318 0.854 0.412
25.095 53.795 -37.468 -0.754 0.148 0.64
26.444 53.082 -37.091 0.209 -0.361 0.909
25.789 52.023 -36.75 0.646 0.345 0.681
27.225 51.973 -37.036 -0.311 0.378 0.872
27.229 51.875 -36.995 -0.309 0.329 0.892
25.793 51.94 -36.715 0.648 0.286 0.706
26.284 51.015 -36.089 0.321 0.902 0.288
25.565 50.844 -35.73 -0.279 0.76 0.587
25.011 51.755 -36.325 0.09 0.153 0.984
23.992 51.406 -35.612 0.77 0.386 0.508
23.625 51.938 -35.848 0.464 0.829 0.312
24.612 52.333 -36.582 -0.195 0.566 0.801
23.674 52.032 -36.094 0.431 0.767 0.476
25.422 50.383 -35.429 -0.397 0.376 0.837
23.85 50.945 -35.312 0.651 0.001 0.759
25.156 50.051 -35.33 -0.219 0.598 0.771
25.005 49.831 -35.24 -0.327 0.441 0.836
23.711 50.743 -35.228 0.535 -0.167 0.828
23.784 50.495 -35.297 0.486 -0.001 0.874
24.714 49.237 -35.227 -0.535 0.017 0.845
23.44 49.792 -35.282 0.314 -0.353 0.881
23.707 48.826 -35.381 0.136 0.291 0.947
25.137 48.42 -35.304 -0.233 -0.567 0.79
24.207 47.859 -35.471 0.387 -0.193 0.902
24.185 47.593 -35.492 0.402 -0.015 0.916
23.637 46.438 -36.347 -0.055 -0.978 0.204
23.502 46.375 -36.57 0.034 -0.935 0.352
23.601 45.649 -37.379 -0.032 -0.452 0.892
24.039 46.48 -36.37 0.28 -0.942 0.184
24.119 45.704 -37.409 0.227 -0.425 0.876
24.701 45.625 -37.466 -0.161 -0.372 0.914
24.615 45.044 -37.885 -0.212 -0.714 0.668
24.026 45.079 -37.86 0.181 -0.737 0.651
24.761 44.567 -38.181 -0.309 -0.396 0.865
24.191 44.16 -38.837 -0.594 -0.6 0.536
23.456 44.671 -38.517 -0.104 -0.941 0.323
23.07 44.455 -38.909 0.154 -0.797 0.584
24.189 44.153 -38.847 -0.594 -0.603 0.532
23.068 44.448 -38.919 0.153 -0.8 0.58
23.26 44.037 -39.324 0.025 -0.526 0.85
24.494 43.666 -39.32 -0.442 -0.847 0.295
23.565 43.549 -39.798 0.178 -0.77 0.613
24.173 43.522 -39.807 -0.228 -0.751 0.619
24.253 43.147 -41.117 -0.181 -0.972 -0.151
23.651 43.146 -41.207 0.221 -0.971 -0.091
24.497 43.097 -41.372 -0.344 -0.939 0.019
24.454 43.249 -41.925 -0.38 -0.813 -0.441
23.595 43.34 -41.918 0.193 -0.874 -0.446
23.202 43.32 -42.241 0.455 -0.86 -0.23
24.685 43.969 -42.546 -0.188 -0.213 -0.959
23.453 44.102 -42.916 0.634 -0.301 -0.712
23.892 44.266 -42.716 0.341 -0.411 -0.845
23.873 44.381 -42.774 0.331 -0.354 -0.875
23.436 44.199 -42.965 0.622 -0.232 -0.747
24.098 45.323 -44.176 0.181 -0.982 0.059
22.894 45.839 -44.418 -0.822 -0.551 -0.142
22.128 44.76 -43.228 -0.312 0.168 -0.935
22.688 46.008 -44.179 -0.685 -0.664 -0.301
22.222 46.677 -43.523 -0.959 -0.27 0.085
21.705 45.368 -42.631 -0.615 0.603 -0.509
22.087 47.007 -43.49 -0.87 -0.49 0.063
22.066 47.081 -43.358 -0.887 -0.427 0.173
21.682 45.449 -42.488 -0.631 0.661 -0.407
21.796 45.861 -42.209 -0.707 0.386 -0.592
23.448 48.734 -44.086 -0.237 0.94 -0.246
23.114 48.727 -43.961 -0.014 0.944 -0.329
23.863 49.425 -43.387 -0.514 0.479 -0.712
23.831 48.713 -44.303 -0.012 0.928 -0.374
24.275 49.402 -43.621 -0.308 0.468 -0.828
24.291 48.95 -44.033 -0.319 0.769 -0.554
26.096 48.791 -43.785 0.583 0.69 -0.43
26.08 49.243 -43.373 0.594 0.388 -0.704
26.558 49.343 -43.07 0.275 0.321 -0.906
26.13 48.762 -43.785 0.6 0.675 -0.429
26.592 49.315 -43.07 0.292 0.307 -0.906
27.08 48.553 -43.559 -0.033 0.814 -0.58
27.261 48.612 -43.469 0.058 0.843 -0.534
26.773 49.373 -42.979 0.383 0.336 -0.861
28.201 49.551 -43.08 -0.569 0.217 -0.793
28.175 49.836 -42.952 -0.582 0.36 -0.729
26.747 49.658 -42.851 0.369 0.479 -0.797
28.014 50.427 -42.727 -0.475 -0.034 -0.879
27.829 50.713 -42.601 -0.568 0.108 -0.816
26.561 49.943 -42.724 0.277 0.621 -0.733
27.659 50.887 -42.489 -0.455 -0.008 -0.89
27.843 52.095 -41.398 -0.561 0.799 -0.215
27.67 51.962 -41.553 -0.446 0.888 -0.111
26.319 52.879 -40.45 0.455 0.277 -0.846
28.096 52.289 -41.147 -0.434 0.896 -0.089
26.561 53.064 -40.21 0.589 0.38 -0.713
27.617 52.598 -40.209 -0.115 0.69 -0.714
27.72 52.839 -39.944 -0.063 0.811 -0.582
26.659 53.294 -39.958 0.644 0.508 -0.573
26.862 53.813 -39.547 0.508 0.161 -0.846
28.212 53.091 -39.376 0.183 0.937 -0.298
27.278 54.026 -39.068 0.805 0.313 -0.503
28.397 53.14 -39.189 0.06 0.904 -0.423
28.455 52.954 -37.897 0.108 0.749 0.653
27.341 53.825 -37.665 0.85 0.169 0.498
28.287 52.852 -37.716 0.22 0.818 0.532
29.436 52.499 -38.779 0.925 0.37 -0.081
29.548 52.267 -38.849 0.851 0.525 -0.034
30.403 52.218 -40.073 0.281 0.557 0.782
30.476 52.09 -40.019 0.333 0.466 0.82
29.634 52.115 -38.785 0.894 0.449 -0.002
30.005 51.685 -39.093 0.646 0.736 0.203
30.043 51.216 -38.392 0.665 0.502 0.553
29.672 51.647 -38.084 0.913 0.215 0.348
30.214 51.012 -38.369 0.551 0.638 0.538
29.974 50.479 -37.915 0.351 0.194 0.916
29.363 50.962 -37.5 0.758 -0.127 0.64
29.734 50.532 -37.808 0.51 0.159 0.845
28.492 49.379 -37.694 -0.11 -0.417 0.902
28.121 49.809 -37.386 0.137 -0.704 0.697
26.978 49.408 -36.392 0.899 -0.436 0.035
27.015 49.509 -36.306 0.93 -0.352 0.106
28.168 49.939 -37.276 0.161 -0.639 0.752
27.984 50.046 -37.113 0.284 -0.711 0.644
27.585 51.302 -36.757 -0.05 0.336 0.941
27.655 51.553 -36.818 -0.096 0.168 0.981
26.615 50.765 -35.951 0.597 0.694 0.403
28.491 49.377 -37.695 -0.111 -0.418 0.902
26.977 49.407 -36.393 0.898 -0.438 0.034
26.845 48.99 -36.377 0.987 -0.16 0.023
28.391 49.043 -37.909 -0.161 -0.585 0.795
26.76 48.707 -36.558 0.926 -0.362 -0.106
28.093 48.558 -38.163 0.037 -0.262 0.964
27.886 48.235 -38.305 -0.11 -0.493 0.863
26.553 48.384 -36.7 0.778 -0.593 -0.207
26.411 48.186 -37.251 0.873 -0.46 0.161
25.438 47.587 -36.528 0.386 -0.76 0.522
25.731 47.878 -36.089 0.191 -0.954 0.229
24.91 47.217 -36.401 0.738 -0.514 0.437
24.864 47.233 -36.31 0.715 -0.506 0.483
25.691 47.891 -36.012 0.163 -0.945 0.284
24.696 47.106 -36.144 0.827 -0.421 0.372
24.785 46.984 -36.509 0.675 -0.63 0.383
24.634 46.912 -36.3 0.776 -0.582 0.243
25.412 46.141 -37.381 0.257 -0.068 0.964
24.932 47.135 -36.551 0.749 -0.555 0.362
25.549 46.281 -37.42 0.337 0.014 0.941
25.459 47.504 -36.679 0.397 -0.801 0.447
26.304 47.971 -37.418 0.819 -0.568 0.078
26.334 46.715 -38.107 0.799 0.269 0.537
27.796 48.053 -38.445 -0.175 -0.623 0.763
27.822 48.019 -38.469 -0.156 -0.647 0.746
26.363 46.677 -38.133 0.816 0.247 0.522
27.38 46.058 -38.458 0.139 0.66 0.739
26.997 45.102 -38.175 -0.18 -0.137 0.974
25.906 45.534 -37.795 0.548 -0.425 0.721
26.149 45.095 -38.084 0.385 -0.133 0.913
26.997 45.087 -38.177 -0.18 -0.149 0.972
26.149 45.076 -38.087 0.385 -0.142 0.912
26.694 44.903 -38.218 0.022 -0.027 0.999
26.175 43.326 -40.086 -0.283 -0.954 -0.1
25.591 43.38 -40.096 0.107 -0.99 -0.093
25.193 43.256 -40.528 0.372 -0.907 0.195
26.207 43.326 -40.157 -0.264 -0.954 -0.141
25.224 43.256 -40.599 0.391 -0.908 0.154
25.31 43.189 -40.939 0.334 -0.863 0.38
26.222 43.325 -40.174 -0.255 -0.955 -0.151
25.323 43.188 -40.953 0.344 -0.864 0.368
26.438 43.266 -40.453 -0.399 -0.916 0.034
26.916 43.978 -41.63 -0.001 -0.323 -0.946
25.801 43.899 -42.13 0.743 -0.271 -0.613
27.014 44.964 -42.771 -0.066 -0.98 -0.185
26.913 45.001 -42.896 -0.117 -0.962 -0.248
25.723 43.928 -42.227 0.677 -0.246 -0.693
26.404 45.02 -43.198 0.223 -0.974 -0.046
25.313 45.217 -43.624 -0.419 -0.858 -0.297
24.81 44.093 -42.584 -0.084 -0.109 -0.991
24.237 45.358 -44.168 0.298 -0.952 0.066
24.16 45.338 -44.156 0.233 -0.97 0.075
24.732 44.073 -42.572 -0.148 -0.126 -0.981
23.953 44.4 -42.75 0.371 -0.344 -0.862
25.815 46.69 -44.806 -0.124 0.009 -0.992
24.657 46.591 -45.157 0.648 0.075 -0.758
24.796 46.906 -45.063 0.555 -0.135 -0.821
25.824 46.735 -44.806 -0.119 0.035 -0.992
24.805 46.951 -45.063 0.561 -0.109 -0.821
25.339 47.055 -44.851 0.205 -0.178 -0.962
26.554 47.704 -44.365 0.311 0.605 -0.733
26.124 48.098 -44.376 0.597 0.343 -0.725
27.074 47.889 -44.151 -0.036 0.482 -0.875
27.156 43.976 -41.604 0.199 -0.325 -0.925
27.322 44.962 -42.737 0.088 -0.982 -0.169
27.832 44.923 -42.764 -0.252 -0.956 -0.151
28.959 46.865 -43.55 0.553 0.432 -0.713
28.656 47.261 -43.668 0.755 0.168 -0.634
29.503 48.367 -43.42 0.19 -0.57 -0.8
28.532 49.342 -43.356 -0.62 0.243 -0.747
27.407 48.514 -43.586 0.131 0.795 -0.593
28.347 49.453 -43.198 -0.496 0.168 -0.852
29.607 48.325 -43.356 0.276 -0.605 -0.747
29.728 48.146 -43.199 0.195 -0.486 -0.852
29.071 46.819 -43.481 0.633 0.399 -0.664
29.579 46.314 -42.671 0.996 0.038 -0.085
30.33 47.547 -42.239 0.495 -0.785 -0.373
30.867 47.606 -41.974 0.137 -0.824 -0.55
31.368 49.178 -42.346 0.495 0.299 -0.816
30.923 49.408 -42.68 0.792 0.146 -0.593
31.563 49.531 -42.177 0.365 0.064 -0.929
31.499 49.824 -42.141 0.311 0.309 -0.899
30.84 49.786 -42.634 0.751 0.334 -0.57
30.94 50.998 -42.656 0.684 -0.474 -0.555
29.668 51.319 -43.074 -0.377 -0.206 -0.903
29.204 50.199 -43.171 -0.068 0.541 -0.838
29.043 50.79 -42.946 0.039 0.147 -0.988
29.439 52.553 -42.039 -0.568 0.822 -0.041
28.749 52.376 -41.616 -0.108 0.94 -0.323
29.323 52.572 -41.618 -0.49 0.81 -0.322
29.362 52.664 -40.975 -0.463 0.876 0.137
28.795 52.485 -40.855 -0.085 0.995 0.057
28.316 52.794 -39.917 0.234 0.789 -0.568
29.668 52.71 -40.693 -0.244 0.909 0.339
28.679 52.849 -39.583 0.416 0.816 -0.401
28.759 52.952 -39.349 0.362 0.748 -0.557
31.317 51.485 -41.954 0.997 -0.067 0.03
31.363 51.412 -41.526 0.966 -0.019 -0.256
31.876 50.312 -41.439 0.625 0.715 -0.314
31.559 50.198 -40.226 0.361 0.62 0.697
31.019 51.288 -40.208 0.721 -0.107 0.685
30.685 50.638 -39.088 0.943 0.327 -0.062
30.57 50.882 -38.977 0.848 0.53 0.031
30.894 51.553 -40.088 0.631 0.082 0.771
30.501 51.049 -39.174 0.894 0.418 0.162
31.418 49.166 -39.934 0.244 -0.24 0.94
30.545 49.606 -38.797 0.826 -0.533 0.181
31.21 48.782 -39.911 0.382 0.016 0.924
31.173 48.732 -39.896 0.356 -0.02 0.934
30.51 49.56 -38.783 0.798 -0.572 0.193
30.424 49.35 -38.924 0.855 -0.432 0.287
30.857 48.303 -39.893 0.13 -0.327 0.936
30.05 48.841 -38.921 0.668 -0.686 0.288
29.905 47.991 -39.439 0.765 -0.119 0.633
29.023 47.792 -38.864 0.324 -0.219 0.92
29.168 48.642 -38.347 0.228 -0.785 0.576
28.75 48.22 -38.533 0.506 -0.504 0.7
28.339 47.457 -38.86 -0.018 -0.386 0.922
28.172 47.937 -38.53 0.093 -0.706 0.702
27.701 45.982 -38.514 0.407 0.597 0.691
29.12 46.897 -39.413 0.373 -0.666 0.646
28.309 45.547 -38.944 0.913 0.234 0.333
29.192 46.719 -39.6 0.325 -0.548 0.771
29.27 46.316 -40.216 0.39 -0.884 0.257
28.387 45.143 -39.56 0.978 -0.102 -0.18
28.355 44.97 -39.871 1 0.013 0.027
29.239 46.26 -40.549 0.364 -0.931 -0.02
28.319 44.903 -40.269 0.978 -0.027 -0.207
28.958 45.586 -41.599 0.552 -0.482 0.68
28.846 45.264 -41.824 0.472 -0.712 0.52
28.196 44.549 -40.516 0.906 -0.235 -0.353
28.089 44.291 -40.739 0.977 -0.063 -0.204
29.702 46.695 -40.929 0.75 -0.569 -0.337
29.461 46.058 -42.013 0.911 -0.145 0.385
29.777 46.865 -41.122 0.701 -0.682 -0.208
29.79 46.886 -41.146 0.707 -0.672 -0.22
29.472 46.076 -42.033 0.919 -0.132 0.371
30.76 47.369 -41.335 0.061 -0.994 -0.094
29.801 46.882 -41.096 0.713 -0.673 -0.195
30.77 47.366 -41.293 0.068 -0.996 -0.064
29.721 46.708 -40.909 0.766 -0.557 -0.32
29.841 46.935 -40.118 0.866 -0.368 0.339
30.899 47.613 -40.434 0.16 -0.82 0.55
29.955 47.174 -40.079 0.79 -0.527 0.313
18.062 51.272 -38.743 -0.968 0.201 0.147
18.629 51.624 -38.109 -0.454 0.521 0.723
19.385 51.427 -37.355 -0.63 0.644 0.433
19.389 51.392 -37.3 -0.627 0.618 0.475
19.383 51.304 -37.177 -0.623 0.676 0.394
18.841 50.446 -36.899 -0.123 0.331 0.936
19.465 50.761 -36.747 -0.539 0.121 0.834
19.906 51.118 -36.309 -0.832 -0.117 0.542
19.842 50.174 -36.717 -0.154 -0.479 0.864
19.93 50.059 -36.756 -0.213 -0.402 0.891
20.023 49.904 -36.819 -0.142 -0.52 0.842
20.083 49.485 -36.986 -0.182 -0.24 0.954
20.71 49.324 -36.739 -0.6 -0.133 0.789
20.069 49.168 -37.155 -0.2 -0.644 0.738
20.695 49.008 -36.908 -0.618 -0.538 0.573
19.808 48.777 -37.433 -0.027 -0.383 0.923
20.232 48.335 -37.468 -0.31 -0.089 0.947
18.87 48.718 -37.624 -0.102 -0.903 0.418
19.37 48.428 -37.828 -0.436 -0.709 0.554
19.761 47.96 -37.893 -0.697 -0.397 0.597
19.978 47.392 -37.808 -0.841 -0.019 0.54
18.612 48.651 -38.373 -0.286 -0.951 -0.117
19.148 48.37 -38.474 -0.644 -0.764 -0.05
19.523 47.897 -38.588 -0.893 -0.449 0.026
19.673 47.312 -38.695 -0.994 -0.058 0.097
19.234 48.626 -39.104 -0.564 -0.524 -0.638
19.615 48.173 -39.265 -0.818 -0.222 -0.531
18.234 49.309 -39.158 -0.556 -0.481 -0.678
18.454 49.572 -39.762 -0.702 -0.656 -0.275
17.897 49.79 -39.032 -0.797 -0.137 -0.588
18.072 50.115 -39.62 -0.914 -0.355 -0.196
17.761 50.302 -38.749 -0.894 0.228 -0.386
17.919 50.694 -39.3 -0.999 -0.033 -0.018
19.443 48.788 -39.572 -0.703 -0.632 -0.326
19.723 48.26 -39.522 -0.89 -0.28 -0.36
19.602 48.846 -39.883 -0.583 -0.588 -0.56
19.886 48.319 -39.839 -0.772 -0.237 -0.589
19.759 48.74 -39.961 -0.688 -0.518 -0.508
20.07 48.045 -40.06 -0.895 -0.055 -0.442
19.625 49.499 -40.554 -0.052 -0.697 -0.715
20.068 48.925 -40.301 -0.348 -0.315 -0.883
20.375 48.227 -40.396 -0.552 0.15 -0.82
20.465 47.588 -40.813 -0.612 0.576 -0.542
20.509 49.129 -40.395 0.139 -0.09 -0.986
20.81 48.428 -40.488 -0.062 0.377 -0.924
20.536 49.33 -40.423 0.121 -0.224 -0.967
20.838 48.812 -40.39 -0.081 0.122 -0.989
20.887 49.542 -40.362 0.385 -0.064 -0.921
21.196 49.028 -40.327 0.179 0.278 -0.944
20.328 51.531 -40.772 0.339 0.432 -0.836
20.013 52.148 -40.772 0.549 0.02 -0.836
19.632 51.234 -41 -0.048 0.267 -0.963
19.397 51.886 -40.974 0.109 -0.167 -0.98
18.89 51.015 -40.844 -0.46 0.145 -0.876
18.74 51.692 -40.836 -0.36 -0.306 -0.881
18.285 50.929 -40.343 -0.796 0.097 -0.598
18.205 51.615 -40.392 -0.743 -0.36 -0.565
17.97 50.996 -39.622 -0.971 0.135 -0.197
17.926 51.675 -39.754 -0.942 -0.318 -0.109
20.872 52.01 -39.991 0.556 0.479 -0.679
20.882 52.044 -39.957 0.565 0.509 -0.649
20.963 52.512 -39.445 0.504 0.61 -0.612
20.232 53.113 -39.578 0.705 0.709 0.017
20.768 52.852 -39.077 0.347 0.883 -0.316
21.445 52.948 -38.705 -0.104 0.819 -0.565
19.906 53.261 -39.132 0.472 0.815 0.336
20.462 52.992 -38.659 0.102 0.995 0.02
21.059 53.124 -38.177 -0.296 0.906 -0.301
19.525 53.168 -38.716 0.2 0.748 0.633
20.104 52.904 -38.268 -0.186 0.924 0.334
20.608 53.013 -37.685 -0.522 0.851 -0.055
19.161 52.85 -38.411 -0.06 0.522 0.851
19.762 52.606 -37.981 -0.461 0.685 0.565
20.177 52.638 -37.323 -0.738 0.663 0.126
19.501 52.154 -37.851 -0.67 0.322 0.668
19.53 51.865 -37.613 -0.689 0.515 0.51
19.501 51.738 -37.538 -0.707 0.437 0.556
22.309 52.511 -39.331 -0.393 0.611 -0.687
22.82 52.668 -39.682 -0.734 0.506 -0.453
22.493 52.855 -38.94 -0.235 0.906 -0.352
22.991 52.988 -39.319 -0.567 0.817 -0.1
21.153 53.234 -37.809 -0.249 0.961 -0.117
21.404 53.326 -37.791 -0.416 0.9 -0.13
21.726 53.145 -36.781 0.037 0.917 0.397
21.85 53.257 -36.991 -0.045 0.843 0.537
23.557 52.586 -37.184 0.11 0.922 0.37
23.571 52.496 -37.007 0.121 0.85 0.512
21.401 51.439 -35.595 -0.126 0.064 0.99
21.898 51.091 -35.368 -0.457 0.296 0.839
21.026 50.808 -35.743 -0.313 -0.252 0.916
21.523 50.459 -35.516 -0.644 -0.019 0.764
21.793 49.151 -35.613 -0.427 0.024 0.904
21.863 49.748 -35.452 -0.474 -0.375 0.797
21.897 48.508 -35.719 -0.353 -0.436 0.828
22.254 48.021 -35.676 -0.59 -0.112 0.799
21.316 47.862 -36.732 -0.538 -0.355 0.765
20.961 48.28 -36.954 -0.795 -0.052 0.604
21.408 46.631 -37.073 -0.126 -0.399 0.908
22.169 46.98 -36.381 -0.633 -0.632 0.447
20.506 45.848 -38.476 -0.577 -0.79 0.207
20.515 45.575 -38.975 -0.582 -0.608 0.539
20.049 46.254 -38.737 -0.806 -0.587 0.076
20.089 45.952 -39.218 -0.833 -0.386 0.397
19.792 46.748 -39.101 -0.934 -0.341 -0.106
19.85 46.411 -39.556 -0.973 -0.116 0.198
19.769 47.264 -39.519 -0.945 -0.083 -0.315
19.829 46.891 -39.945 -0.986 0.166 -0.031
20.896 45.109 -39.373 -0.358 -0.882 0.305
21.389 44.755 -39.414 -0.687 -0.647 0.332
21.208 44.761 -40.208 -0.697 -0.703 0.141
21.049 44.961 -40.716 -0.796 -0.578 -0.177
21.115 44.906 -40.967 -0.841 -0.542 -0.01
20.576 45.862 -41.104 -0.546 -0.44 -0.713
21.074 45.381 -41.477 -0.878 -0.119 -0.464
21.209 44.851 -42.042 -0.968 0.234 -0.088
21.428 45.884 -41.809 -0.563 0.328 -0.759
21.425 46.136 -41.729 -0.561 0.159 -0.813
21.49 46.225 -41.751 -0.52 0.215 -0.826
21.693 46.859 -41.902 -0.656 -0.207 -0.726
22.048 47.061 -42.549 -0.892 -0.342 -0.295
21.034 47.33 -41.358 -0.277 0.424 -0.862
21.663 47.318 -41.792 -0.697 0.432 -0.573
22.021 47.475 -42.449 -0.935 0.327 -0.134
22.014 47.759 -43.159 -0.931 0.138 0.339
21.925 47.654 -41.586 -0.332 0.899 -0.286
22.257 47.778 -42.264 -0.553 0.816 0.166
22.175 48.05 -41.129 -0.498 0.635 -0.591
22.704 48.451 -41.453 -0.851 0.367 -0.375
22.174 48.054 -41.124 -0.499 0.64 -0.584
22.704 48.455 -41.448 -0.852 0.373 -0.368
22.207 48.442 -40.855 -0.52 0.382 -0.764
22.711 48.678 -41.302 -0.856 0.224 -0.466
22.222 48.609 -40.755 -0.505 0.558 -0.659
22.723 48.825 -41.214 -0.839 0.414 -0.353
22.795 48.555 -42.44 -0.911 0.298 0.284
22.967 48.903 -42.816 -0.722 0.68 -0.128
23.872 50.367 -41.556 -0.589 0.686 -0.428
23.986 50.849 -41.22 -0.665 0.364 -0.652
23.941 51.418 -41.039 -0.635 -0.015 -0.773
23.725 50.277 -41.359 -0.843 0.53 -0.088
23.865 50.776 -41.059 -0.937 0.198 -0.288
23.782 51.321 -40.827 -0.882 -0.165 -0.442
23.12 49.804 -41.041 -0.44 0.846 -0.3
22.715 49.977 -40.499 -0.17 0.731 -0.661
22.254 50.388 -40.172 0.137 0.457 -0.879
23.036 49.722 -41.071 -0.701 0.594 -0.394
22.672 49.935 -40.514 -0.459 0.452 -0.765
22.159 50.296 -40.206 -0.117 0.211 -0.97
22.424 51.318 -40.011 0.024 -0.163 -0.986
23.017 51.634 -40.216 -0.372 -0.374 -0.85
22.177 51.903 -39.823 -0.299 0.604 -0.739
22.771 52.219 -40.028 -0.695 0.393 -0.602
24.052 51.276 -41.147 -0.709 0.08 -0.701
24.074 50.602 -41.533 -0.723 0.529 -0.444
24.283 52.172 -41.308 -0.118 -0.257 -0.959
24.428 51.408 -41.332 -0.215 0.252 -0.943
24.486 50.746 -41.736 -0.254 0.694 -0.674
24.442 50.364 -42.411 -0.224 0.948 -0.224
24.865 51.435 -41.29 0.358 0.288 -0.888
24.965 50.776 -41.69 0.291 0.727 -0.622
25.112 51.51 -41.194 0.192 0.238 -0.952
25.385 50.894 -41.48 0.011 0.648 -0.761
25.311 51.562 -41.111 0.424 0.299 -0.855
25.601 50.952 -41.39 0.231 0.706 -0.669
25.728 52.006 -40.909 0.146 0.003 -0.989
26.327 51.733 -40.969 -0.254 0.185 -0.949
26.852 51.514 -41.305 -0.603 0.331 -0.725
25.846 52.204 -40.829 0.39 0.416 -0.822
26.4 51.855 -40.919 0.021 0.648 -0.761
26.959 51.695 -41.232 -0.352 0.755 -0.553
25.271 53.358 -40.741 0.587 0.59 -0.554
25.855 53.396 -40.37 0.197 0.565 -0.801
25.335 53.961 -39.796 0.032 0.818 -0.574
24.725 53.998 -39.173 -0.522 0.853 -0.008
23.354 53.152 -38.861 -0.188 0.935 0.302
22.869 53.068 -38.421 0.135 0.991 0.008
23.035 53.036 -39.223 -0.597 0.785 -0.164
22.563 52.956 -38.769 -0.282 0.838 -0.467
23.044 53.074 -38.168 0.018 0.987 -0.161
23.671 53.179 -38.406 -0.4 0.917 -0.002
23.271 52.875 -37.558 0.302 0.737 0.604
23.921 52.96 -37.733 -0.131 0.681 0.72
23.479 52.652 -37.303 0.164 0.886 0.433
23.478 52.648 -37.294 0.163 0.881 0.444
24.854 53.184 -37.382 -0.594 0.555 0.582
25.094 52.475 -36.682 0.149 0.668 0.729
25.432 52.953 -36.989 -0.077 0.348 0.934
25.748 53.534 -37.023 -0.288 -0.039 0.957
26.048 52.554 -37.049 0.474 -0.009 0.881
26.471 51.919 -37.063 0.192 0.414 0.89
26.474 51.84 -37.03 0.195 0.352 0.916
25.97 51.393 -36.472 0.531 0.65 0.544
25.301 51.235 -36.139 -0.103 0.5 0.86
24.432 51.537 -36.09 0.477 0.299 0.827
24.097 52.022 -36.305 0.149 0.773 0.616
24.435 51.068 -35.799 0.474 0.611 0.633
24.988 50.87 -35.841 0.106 0.743 0.661
24.325 50.711 -35.567 0.334 0.157 0.929
24.878 50.514 -35.609 -0.034 0.289 0.957
24.445 50.418 -35.524 0.254 0.353 0.901
24.33 50.251 -35.455 0.122 0.161 0.979
22.862 50.885 -35.041 -0.172 -0.048 0.984
22.693 50.678 -35.057 -0.059 0.09 0.994
24.379 50.121 -35.433 0.09 0.248 0.965
24.098 49.547 -35.421 -0.125 -0.19 0.974
23.31 47.552 -35.403 -0.062 -0.346 0.936
23.487 47.354 -35.439 -0.18 -0.214 0.96
22.97 46.838 -35.932 -0.232 -0.704 0.672
23.223 46.798 -35.85 -0.4 -0.677 0.617
23.626 46.161 -36.953 -0.048 -0.793 0.607
24.037 46.204 -36.977 0.281 -0.758 0.588
23.003 44.924 -38.209 -0.331 -0.815 0.477
22.616 44.708 -38.602 -0.073 -0.671 0.738
23.658 44.396 -38.944 -0.239 -0.757 0.608
23.657 44.39 -38.953 -0.239 -0.761 0.603
22.365 44.332 -39.133 -0.198 -0.859 0.473
22.557 43.92 -39.539 -0.326 -0.584 0.743
21.738 44.423 -39.522 -0.512 -0.813 0.278
21.93 44.011 -39.928 -0.64 -0.538 0.548
23.572 43.203 -40.464 0.181 -0.943 0.281
24.18 43.2 -40.426 -0.224 -0.941 0.256
23.019 43.127 -41.367 -0.096 -0.981 -0.171
22.715 43.139 -41.776 0.107 -0.989 0.102
22.316 43.3 -40.969 -0.447 -0.894 0.028
22.121 43.285 -41.44 -0.317 -0.885 0.342
21.682 43.811 -40.835 -0.764 -0.638 0.095
21.586 43.718 -41.327 -0.699 -0.576 0.423
23.822 43.42 -42.029 0.042 -0.927 -0.372
24.033 44.077 -42.595 0.247 -0.285 -0.926
23.521 44.757 -43.246 0.566 -0.604 -0.561
23.755 45.155 -43.674 0.41 -0.87 -0.275
22.737 44.285 -43.288 0.123 -0.171 -0.978
23.006 44.82 -43.483 -0.056 -0.528 -0.847
23.26 45.216 -43.902 -0.225 -0.792 -0.568
23.454 45.402 -44.472 -0.355 -0.916 -0.188
22.558 45.17 -43.439 -0.598 -0.105 -0.794
22.829 45.552 -43.86 -0.779 -0.36 -0.514
22.444 45.231 -43.37 -0.522 -0.146 -0.84
22.64 45.669 -43.705 -0.653 -0.438 -0.617
22.084 45.748 -42.864 -0.867 0.35 -0.354
22.266 46.208 -43.177 -0.988 0.043 -0.145
22.111 45.873 -42.822 -0.885 0.266 -0.382
22.247 46.459 -43.129 -0.976 -0.124 -0.177
22.095 45.929 -42.723 -0.906 0.341 -0.25
22.232 46.512 -43.034 -0.998 -0.048 -0.043
22.109 46.262 -42.522 -0.916 0.119 -0.384
22.204 46.692 -42.927 -0.979 -0.168 -0.114
22.098 46.309 -42.476 -0.926 0.159 -0.344
22.194 46.734 -42.885 -0.99 -0.124 -0.071
22.142 47.238 -44.145 -0.824 -0.296 -0.483
22.287 46.954 -44.306 -0.921 -0.107 -0.375
22.419 47.758 -44.518 -0.593 0.137 -0.793
22.618 47.575 -44.752 -0.726 0.258 -0.638
22.798 48.339 -44.446 -0.277 0.62 -0.734
23.071 48.269 -44.666 -0.459 0.667 -0.587
23.523 48.983 -43.607 -0.287 0.773 -0.565
22.961 48.881 -42.933 -0.718 0.695 -0.05
24.897 49.485 -43.686 0.003 0.509 -0.861
24.914 49.033 -44.098 -0.008 0.81 -0.586
25.521 49.43 -43.6 0.315 0.481 -0.818
25.537 48.978 -44.012 0.304 0.783 -0.543
25.832 49.768 -43.156 0.471 0.651 -0.596
26.311 49.869 -42.853 0.151 0.584 -0.798
25.523 50.171 -42.8 0.316 0.852 -0.418
26.002 50.271 -42.497 -0.003 0.785 -0.62
27.507 49.404 -42.856 -0.106 0.315 -0.943
27.483 49.659 -42.741 -0.121 0.478 -0.87
27.393 49.992 -42.599 -0.061 0.256 -0.965
27.228 50.245 -42.486 -0.168 0.42 -0.892
27.13 50.348 -42.428 -0.102 0.352 -0.931
26.681 50.843 -41.804 -0.489 0.779 -0.392
27.962 51.669 -42.305 -0.203 0.644 -0.738
28.218 51.718 -42.365 -0.373 0.611 -0.698
27.236 52.003 -40.993 -0.156 0.861 -0.484
26.749 52.333 -40.596 0.168 0.641 -0.749
27.047 51.849 -41.106 -0.411 0.653 -0.637
26.54 52.162 -40.721 -0.072 0.444 -0.893
26.829 52.399 -40.529 0.115 0.597 -0.794
27.378 52.117 -40.87 -0.251 0.785 -0.567
27.019 52.545 -40.34 0.284 0.726 -0.627
27.572 52.266 -40.677 -0.085 0.912 -0.402
27.059 52.764 -40.12 0.257 0.58 -0.773
27.153 52.984 -39.878 0.314 0.714 -0.625
26.066 53.66 -40.059 0.315 0.711 -0.629
26.338 54.138 -39.637 0.133 0.393 -0.91
27.251 53.238 -39.616 0.249 0.545 -0.801
27.655 53.445 -39.149 0.554 0.701 -0.449
27.748 53.457 -39.032 0.492 0.693 -0.527
27.447 54.116 -38.345 0.926 0.377 0.013
27.884 53.53 -38.449 0.635 0.768 0.082
28.552 53.223 -38.523 0.189 0.973 0.131
27.799 53.294 -37.9 0.545 0.523 0.655
27.717 53.249 -37.784 0.6 0.553 0.578
26.966 53.48 -37.23 0.582 -0.077 0.809
27.351 52.913 -37.361 0.325 0.301 0.897
27.842 52.444 -37.2 -0.002 0.613 0.79
26.844 52.526 -37.226 -0.057 0.009 0.998
29.211 52.34 -37.843 0.682 0.562 0.469
29.173 52.556 -37.996 0.707 0.418 0.571
29.846 52.118 -39.547 0.652 0.624 0.431
29.914 51.997 -39.496 0.707 0.527 0.471
29.019 50.53 -37.312 0.586 -0.343 0.734
29.39 50.1 -37.619 0.338 -0.056 0.939
28.592 50.134 -37.272 0.372 -0.541 0.754
28.963 49.704 -37.58 0.125 -0.254 0.959
27.415 49.756 -36.984 0.607 -0.669 0.429
27.45 49.852 -36.902 0.639 -0.581 0.503
28.075 49.997 -37.199 0.223 -0.677 0.701
28.407 50.861 -36.893 0.28 -0.178 0.943
28.286 50.813 -36.86 0.361 -0.146 0.921
28.17 50.763 -36.816 0.438 -0.113 0.892
27.62 51.426 -36.793 -0.073 0.253 0.965
27.07 51.048 -36.563 0.293 0.506 0.811
26.755 51.285 -36.695 0.007 0.722 0.692
27.049 50.937 -36.479 0.308 0.579 0.755
26.974 50.134 -35.94 0.896 0.168 0.412
27.352 50.405 -36.47 0.644 -0.012 0.765
27.943 50.671 -36.746 0.249 -0.19 0.95
27.386 49.877 -36.78 0.682 -0.597 0.422
27.284 49.591 -37.019 0.695 -0.558 0.453
27.831 49.581 -37.489 0.331 -0.551 0.766
27.283 49.59 -37.02 0.694 -0.56 0.452
27.83 49.579 -37.49 0.33 -0.553 0.765
26.83 49.516 -35.801 0.775 -0.347 0.528
26.684 49.109 -35.734 0.872 -0.075 0.483
26.446 49.763 -35.38 0.456 -0.141 0.879
26.268 49.377 -35.276 0.575 0.116 0.81
25.931 50.08 -35.244 0.027 0.124 0.992
25.708 49.722 -35.129 0.175 0.363 0.915
27.012 49.216 -36.899 0.875 -0.311 0.371
27.386 49.37 -37.334 0.626 -0.413 0.661
27.906 49.426 -37.614 0.279 -0.451 0.848
26.95 49.01 -37.031 0.799 -0.563 0.21
27.329 49.18 -37.455 0.547 -0.677 0.493
27.835 49.192 -37.764 0.209 -0.685 0.698
26.931 48.823 -37.293 0.812 -0.439 0.384
27.417 48.769 -37.878 0.488 -0.403 0.774
26.801 48.621 -37.381 0.613 -0.751 0.247
27.288 48.567 -37.967 0.288 -0.714 0.638
26.193 48.019 -36.419 0.521 -0.853 -0.006
25.984 47.754 -36.919 0.66 -0.677 0.327
25.116 47.606 -36.13 0.547 -0.755 0.363
24.648 48.052 -35.532 0.093 -0.322 0.942
24.895 46.607 -36.99 0.602 -0.379 0.703
24.355 46.215 -37.054 0.069 -0.765 0.64
25.012 46.627 -37.07 0.524 -0.392 0.756
25.14 46.758 -37.106 0.61 -0.304 0.732
25.428 46.974 -37.193 0.418 -0.448 0.79
26.017 46.471 -37.694 0.613 0.126 0.78
25.859 47.149 -37.446 0.718 -0.326 0.615
25.963 47.708 -36.974 0.649 -0.699 0.3
26.151 47.374 -37.826 0.921 -0.17 0.35
26.657 47.224 -38.514 0.584 -0.07 0.809
27.185 47.708 -38.637 0.232 -0.392 0.89
26.677 47.197 -38.532 0.607 -0.1 0.788
27.204 47.683 -38.654 0.256 -0.423 0.869
26.802 46.301 -38.387 0.524 0.497 0.691
26.169 46.135 -37.816 0.702 -0.072 0.708
26.642 45.855 -38.126 0.387 0.115 0.915
27.217 45.605 -38.193 0.004 0.282 0.959
26.425 45.359 -38.108 0.202 -0.308 0.93
25.289 45.194 -37.731 0.185 -0.625 0.758
25.486 44.729 -38.015 0.054 -0.316 0.947
25.924 44.381 -38.254 0.273 -0.49 0.828
26.484 44.256 -38.374 -0.101 -0.407 0.908
25.737 43.808 -38.7 0.179 -0.776 0.605
26.311 43.724 -38.789 -0.203 -0.72 0.664
25.619 43.455 -39.351 0.121 -0.953 0.28
26.201 43.396 -39.394 -0.267 -0.913 0.308
25.054 43.404 -39.648 -0.162 -0.978 0.131
24.694 43.278 -40.112 0.079 -0.894 0.44
25.754 43.381 -40.564 0.038 -0.991 0.13
25.767 43.38 -40.579 0.049 -0.992 0.118
25.885 43.354 -40.732 -0.03 -0.975 0.22
25.632 43.303 -41.659 0.602 -0.768 -0.22
26.156 43.456 -41.353 0.252 -0.87 -0.424
26.747 43.381 -41.159 -0.142 -0.82 -0.554
26.306 43.981 -41.768 0.406 -0.325 -0.854
26.092 44.432 -42.217 0.549 -0.626 -0.554
26.52 44.808 -42.444 0.263 -0.876 -0.404
26.023 44.457 -42.302 0.477 -0.599 -0.644
26.444 44.836 -42.538 0.196 -0.851 -0.486
25.938 44.644 -42.609 0.533 -0.723 -0.439
25.288 43.936 -42.497 0.315 -0.24 -0.918
25.555 44.651 -42.848 0.138 -0.716 -0.684
25.885 45.029 -43.52 -0.083 -0.968 -0.236
25.131 44.79 -42.925 -0.298 -0.573 -0.763
24.571 44.779 -42.838 0.076 -0.566 -0.821
24.362 45.241 -43.417 0.215 -0.874 -0.435
24.528 44.768 -42.832 -0.012 -0.59 -0.808
24.319 45.23 -43.411 0.127 -0.898 -0.422
23.933 44.891 -43.093 0.384 -0.672 -0.633
24.006 45.221 -43.588 0.335 -0.892 -0.303
23.873 44.877 -43.112 0.332 -0.684 -0.65
23.952 45.208 -43.605 0.279 -0.905 -0.321
24.784 45.414 -43.88 -0.066 -0.99 -0.126
24.487 45.557 -44.673 0.506 -0.786 -0.355
25.03 45.611 -44.379 0.143 -0.823 -0.55
25.611 45.454 -44.227 -0.244 -0.718 -0.652
24.64 46.007 -45.034 0.633 -0.411 -0.656
25.182 46.057 -44.737 0.272 -0.444 -0.854
25.794 45.992 -44.659 -0.136 -0.401 -0.906
25.199 46.635 -44.859 0.286 0.046 -0.957
24.038 46.787 -45.402 0.132 0.238 -0.962
24.056 47.141 -45.356 0.12 0.003 -0.993
23.358 46.677 -45.313 -0.435 0.146 -0.889
23.243 47.009 -45.25 -0.358 -0.075 -0.931
22.912 46.307 -44.93 -0.806 -0.161 -0.569
22.71 46.567 -44.792 -0.672 -0.335 -0.661
24.686 47.517 -45.1 0.49 0.224 -0.842
25.211 47.664 -44.89 0.14 0.126 -0.982
24.465 48.038 -44.973 0.36 0.53 -0.767
24.973 48.224 -44.753 0.021 0.406 -0.914
24.168 48.452 -44.696 0.186 0.774 -0.605
24.654 48.67 -44.456 -0.138 0.629 -0.765
25.743 47.626 -44.741 0.406 0.107 -0.907
26.199 47.266 -44.704 0.102 0.347 -0.932
27.322 47.344 -44.348 0.088 0.21 -0.974
26.785 47.197 -44.548 0.446 0.307 -0.84
27.47 46.731 -44.364 0.162 -0.097 -0.982
26.922 46.628 -44.563 0.527 -0.028 -0.849
27.499 46.124 -44.198 0.176 -0.401 -0.899
26.949 46.063 -44.409 0.543 -0.36 -0.759
27.406 45.594 -43.87 0.13 -0.666 -0.735
26.863 45.57 -44.103 0.492 -0.65 -0.579
27.203 45.204 -43.418 0.028 -0.86 -0.509
26.674 45.208 -43.683 0.381 -0.863 -0.332
26.973 44.625 -42.066 -0.039 -0.755 -0.655
27.205 44.623 -42.041 0.166 -0.756 -0.633
27.38 45.2 -43.385 0.117 -0.862 -0.493
27.881 45.124 -43.311 -0.217 -0.812 -0.542
27.594 45.646 -43.871 0.224 -0.64 -0.735
28.062 45.501 -43.721 -0.088 -0.543 -0.835
27.922 46.211 -44.1 0.388 -0.357 -0.85
28.339 45.979 -43.915 0.11 -0.202 -0.973
28.3 46.787 -44.028 0.577 -0.069 -0.814
28.659 46.465 -43.854 0.338 0.146 -0.93
28.984 47.855 -43.4 0.536 -0.228 -0.813
28.018 47.893 -43.918 0.436 0.484 -0.759
28.491 48.343 -43.592 0.12 0.184 -0.976
29.007 48.859 -43.614 -0.224 -0.16 -0.961
28.019 48.824 -43.336 -0.277 0.588 -0.76
27.912 48.892 -43.254 -0.206 0.543 -0.814
27.78 48.98 -43.148 -0.288 0.598 -0.748
29.362 49.977 -43.3 0.012 0.43 -0.903
29.322 49.749 -43.435 0.038 0.582 -0.813
30.195 49.188 -43.3 0.428 0.036 -0.903
29.97 49.136 -43.435 0.578 0.071 -0.813
29.302 47.493 -43.162 0.478 -0.05 -0.877
30.141 47.831 -42.799 0.401 -0.643 -0.652
29.63 47.243 -42.845 0.742 -0.251 -0.622
29.42 46.553 -43.144 0.882 0.209 -0.423
29.779 47.018 -42.401 0.862 -0.432 -0.265
30.562 48.063 -42.675 0.611 -0.527 -0.59
31.063 48.042 -42.342 0.277 -0.513 -0.813
30.773 48.727 -42.832 0.717 -0.195 -0.669
31.242 48.603 -42.474 0.405 -0.112 -0.907
30.789 50.401 -42.566 0.784 -0.076 -0.615
30.09 49.917 -43.166 0.375 0.4 -0.836
30.183 50.508 -42.996 0.313 0.006 -0.95
30.357 51.1 -43.07 0.197 -0.388 -0.9
29.467 50.735 -43 -0.243 0.183 -0.953
28.666 50.04 -43.136 -0.337 0.461 -0.821
28.505 50.631 -42.911 -0.23 0.067 -0.971
28.666 51.41 -42.723 -0.149 0.457 -0.877
29.374 51.801 -42.9 -0.622 0.196 -0.758
28.559 51.986 -42.24 -0.203 0.745 -0.635
29.291 52.25 -42.524 -0.691 0.57 -0.445
28.865 52.538 -40.396 -0.132 0.96 -0.248
29.154 52.582 -40.131 0.099 0.994 -0.036
29.197 52.59 -39.989 0.071 0.989 -0.13
29.744 52.223 -39.528 0.72 0.554 0.418
29.999 52.8 -41.492 -0.008 0.973 -0.232
30.061 52.763 -41.924 -0.049 0.997 0.055
30.699 52.629 -41.425 0.492 0.851 -0.184
30.705 52.606 -41.862 0.488 0.866 0.107
31.206 52.113 -41.438 0.854 0.482 -0.193
31.172 52.131 -41.873 0.877 0.471 0.097
31.507 50.813 -41.442 0.87 0.381 -0.312
31.364 51.45 -40.812 0.967 0.009 0.254
31.508 50.846 -40.831 0.871 0.412 0.266
31.877 50.347 -40.782 0.626 0.744 0.233
31.212 50.707 -40.314 0.591 0.281 0.756
30.706 50.944 -39.703 0.929 0.123 0.348
30.602 51.164 -39.603 0.826 0.342 0.448
30.609 51.272 -39.685 0.821 0.27 0.502
30.184 51.818 -39.615 0.527 0.647 0.551
30.97 50.308 -39.731 0.753 0.546 0.367
30.857 49.476 -39.496 0.618 -0.446 0.647
30.728 49.258 -39.49 0.704 -0.301 0.643
30.699 49.219 -39.478 0.671 -0.344 0.656
30.11 49.706 -38.098 0.464 -0.45 0.763
29.909 49.538 -38.044 0.598 -0.338 0.727
30.685 49.083 -39.524 0.681 -0.254 0.687
30.379 48.667 -39.522 0.449 -0.569 0.689
29.652 48.703 -38.582 0.469 -0.755 0.458
29.507 47.853 -39.1 0.566 -0.188 0.803
27.906 47.338 -38.846 0.27 -0.307 0.913
27.736 46.631 -38.84 0.384 0.164 0.909
27.685 47.39 -38.807 -0.065 -0.228 0.971
27.525 46.681 -38.803 0.042 0.244 0.969
27.963 46.689 -38.924 0.232 0.126 0.964
28.526 46.285 -39.322 0.768 -0.258 0.585
28.579 46.176 -39.425 0.733 -0.186 0.654
28.639 45.866 -39.899 0.81 -0.584 0.046
28.145 44.585 -39.015 0.776 -0.567 0.274
28.066 44.303 -39.219 0.829 -0.379 0.411
27.566 44.562 -38.439 0.294 -0.587 0.754
27.373 44.275 -38.531 0.422 -0.396 0.816
28.466 45.524 -40.021 0.926 -0.356 0.127
28.787 45.996 -40.142 0.712 -0.671 0.208
28.437 45.471 -40.329 0.899 -0.406 -0.166
28.761 45.948 -40.428 0.683 -0.723 -0.101
28.42 45.317 -41.002 0.91 -0.303 0.282
28.325 45.042 -41.194 0.82 -0.563 0.099
28.066 44.005 -40.027 0.83 -0.555 -0.064
27.981 43.836 -40.329 0.887 -0.442 0.137
27.567 43.521 -39.764 0.536 -0.839 0.09
27.564 43.431 -40.11 0.539 -0.779 0.32
26.872 43.265 -39.82 0.127 -0.99 0.057
26.982 43.216 -40.156 0.054 -0.958 0.282
28.256 44.891 -41.328 0.866 -0.463 0.189
27.755 43.959 -41.25 0.698 -0.339 -0.63
27.986 44.623 -41.741 0.544 -0.782 -0.303
28.483 44.904 -42.38 0.213 -0.969 0.123
27.502 44.637 -42.026 -0.032 -0.765 -0.643
29.026 46.035 -41.126 0.507 -0.781 0.365
29.45 46.433 -41.475 0.919 -0.394 0.027
29.5 46.523 -41.58 0.886 -0.454 0.097
29.51 46.54 -41.6 0.893 -0.441 0.083
29.678 46.727 -41.868 0.782 -0.566 0.261
30.141 47.192 -41.617 0.473 -0.876 0.094
29.753 46.893 -42.314 0.88 -0.349 -0.323
30.216 47.358 -42.063 0.571 -0.659 -0.49
30.178 47.164 -41.07 0.462 -0.861 -0.213
30.286 47.371 -40.348 0.569 -0.658 0.493
31.694 48.541 -40.269 0.728 -0.156 0.668
31.863 48.944 -40.264 0.615 -0.425 0.665
31.993 48.463 -40.838 0.942 -0.212 0.261
32.139 48.872 -40.788 0.844 -0.485 0.228
32.035 48.567 -41.476 0.971 -0.138 -0.195
32.177 48.968 -41.376 0.876 -0.405 -0.262
31.807 48.827 -42.025 0.809 0.048 -0.586
31.968 49.207 -41.881 0.702 -0.206 -0.682
31.438 50.835 -41.669 0.917 0.366 -0.161
31.123 50.427 -42.256 0.562 -0.093 -0.822
29.214 47.6 -43.225 0.537 -0.122 -0.835
29.129 47.635 -43.277 0.439 -0.082 -0.895
27.206 48.229 -38.256 0.218 -0.74 0.637
26.676 48.199 -37.892 0.572 -0.72 0.393
27.281 48.381 -38.139 0.293 -0.59 0.752
26.757 48.363 -37.765 0.642 -0.579 0.503
24.914 54.176 -38.076 -0.884 0.42 0.205
24.457 53.704 -38.295 -0.579 0.735 0.351
20.94 51.111 -35.717 -0.356 -0.1 0.929
20.683 51.126 -35.788 -0.184 -0.11 0.977
20.533 52.115 -36.125 -0.559 0.402 0.725
20.366 51.907 -36.106 -0.448 0.541 0.712
22.284 49.698 -40.512 -0.412 0.244 -0.878
21.874 52.149 -39.592 -0.104 0.672 -0.733
20.828 48.642 -37.013 -0.707 -0.294 0.643
22.525 49.295 -40.693 -0.707 0.101 -0.7
22.038 49.138 -40.392 -0.383 0.206 -0.901
21.464 49.446 -40.243 0 0 -1
21.77 46.397 -41.941 -0.707 0.101 -0.7
22.813 48.428 -42.015 -0.924 0.383 0
22.488 47.984 -41.716 -0.707 0.678 -0.199
23.521 50.922 -40.441 -0.707 0.101 -0.7
23.521 50.378 -40.689 -0.707 0.463 -0.534
23.521 50.055 -41.192 -0.707 0.678 -0.199
23.034 50.765 -40.14 -0.383 0.206 -0.901
23.034 50.209 -40.407 -0.383 0.576 -0.722
26.521 51.147 -41.31 -0.383 0.576 -0.722
25.947 51.437 -41.007 0 0.383 -0.924
25.947 50.951 -41.333 0 0.707 -0.707
26.184 52.232 -37.079 0.383 0.206 0.901
26.192 51.504 -36.74 0.383 0.576 0.722
23.912 49.263 -35.46 0 -0 1
26.959 47.983 -38.385 0.383 -0.576 0.722
26.472 47.56 -38.266 0.707 -0.294 0.643
27.014 46.739 -38.701 0.383 0.206 0.901
26.341 44.358 -41.966 0.383 -0.576 -0.722
24.684 45.316 -43.495 0 -0.924 -0.383
28.725 45.755 -41.152 0.707 -0.595 0.382
18.701 49.678 -36.878 -0.223 -0.217 0.95
18.701 49.131 -37.142 -0.223 -0.608 0.762
18.14 50.437 -37.213 -0.623 0.325 0.711
18.14 49.826 -37.126 -0.623 -0.111 0.774
18.14 49.265 -37.382 -0.623 -0.512 0.591
18.14 48.932 -37.901 -0.623 -0.75 0.22
18.14 48.932 -38.517 -0.623 -0.75 -0.22
17.752 50.286 -37.683 -0.901 0.217 0.376
17.752 49.678 -37.683 -0.901 -0.217 0.376
17.752 49.375 -38.209 -0.901 -0.434 -0
17.752 49.678 -38.735 -0.901 -0.217 -0.376
17.613 49.982 -38.209 -1 0 0
20.118 52.575 -40.598 0.623 0.325 -0.711
20.118 53.041 -40.194 0.623 0.658 -0.423
19.557 53.485 -39.602 0.223 0.975 0
19.557 52.424 -40.933 0.223 0.217 -0.95
19.557 52.971 -40.669 0.223 0.608 -0.762
19.557 53.35 -40.194 0.223 0.878 -0.423
18.933 53.485 -39.602 -0.223 0.975 0
18.933 53.35 -39.01 -0.223 0.878 0.423
18.933 52.424 -40.933 -0.223 0.217 -0.95
18.933 52.971 -40.669 -0.223 0.608 -0.762
18.933 53.35 -40.194 -0.223 0.878 -0.423
18.372 53.215 -39.602 -0.623 0.782 0
18.372 53.041 -39.01 -0.623 0.658 0.423
18.372 52.575 -38.606 -0.623 0.325 0.711
18.372 51.964 -40.685 -0.623 -0.111 -0.774
18.372 52.575 -40.598 -0.623 0.325 -0.711
18.372 53.041 -40.194 -0.623 0.658 -0.423
17.984 52.727 -39.602 -0.901 0.434 0
17.984 52.424 -39.076 -0.901 0.217 0.376
17.984 52.424 -40.128 -0.901 0.217 -0.376
17.845 52.12 -39.602 -1 0 0
21.652 52.963 -36.448 -0 0.826 0.563
21.652 52.558 -36.011 -0 0.623 0.782
21.034 52.812 -36.407 -0.309 0.751 0.584
21.034 52.351 -35.983 -0.309 0.52 0.796
20.476 52.806 -36.956 -0.588 0.747 0.31
20.304 51.11 -35.931 -0.5 -0.123 0.857
21.042 46.141 -37.49 -0.309 -0.644 0.7
21.042 45.756 -37.984 -0.309 -0.836 0.453
20.484 46.81 -37.394 -0.588 -0.31 0.747
20.484 46.285 -37.745 -0.588 -0.572 0.572
20.042 46.841 -37.871 -0.809 -0.294 0.509
20.042 46.411 -38.301 -0.809 -0.509 0.294
20.031 50.446 -41.013 0.174 -0.171 -0.97
19.405 49.868 -40.802 -0.174 -0.492 -0.853
19.405 50.446 -41.013 -0.174 -0.171 -0.97
18.818 49.652 -40.369 -0.5 -0.612 -0.612
18.818 50.157 -40.707 -0.5 -0.331 -0.8
18.339 50.175 -40.269 -0.766 -0.321 -0.557
20.655 47.064 -41.292 -0.5 0.268 -0.824
20.203 45.561 -39.584 -0.766 -0.617 0.181
20.203 45.561 -40.2 -0.766 -0.617 -0.181
20.203 45.893 -40.718 -0.766 -0.421 -0.486
20.203 46.453 -40.974 -0.766 -0.091 -0.636
20.203 47.063 -40.886 -0.766 0.267 -0.585
19.908 46.028 -39.892 -0.94 -0.342 -0
19.908 46.318 -40.396 -0.94 -0.171 -0.296
19.908 46.9 -40.396 -0.94 0.171 -0.296
24.761 52.835 -41.296 0.223 0.217 -0.95
24.761 53.382 -41.032 0.223 0.608 -0.762
24.137 52.835 -41.296 -0.223 0.217 -0.95
24.137 53.382 -41.032 -0.223 0.608 -0.762
24.137 53.761 -40.557 -0.223 0.878 -0.423
23.576 53.626 -39.965 -0.623 0.782 0
23.576 52.375 -41.048 -0.623 -0.111 -0.774
23.576 52.986 -40.961 -0.623 0.325 -0.711
23.576 53.452 -40.557 -0.623 0.658 -0.423
21.904 53.446 -37.635 -0 1 0
23.668 51.375 -35.277 0.5 0.36 0.788
23.068 51.625 -35.234 -0 0.568 0.823
23.068 51.088 -35.031 -0 0.121 0.993
22.812 50.053 -35.095 -0 -0.223 0.975
22.194 50.341 -35.149 -0.309 -0.079 0.948
23.434 48.394 -35.281 -0 0.075 0.997
22.816 48.088 -35.379 -0.309 -0.079 0.948
23.046 45.265 -37.763 -0.309 -0.644 0.7
22.144 44.761 -38.679 -0.309 -0.644 0.7
23.21 43.286 -40.157 -0 -0.901 0.434
23.21 43.11 -40.727 -0 -0.989 0.149
22.592 43.415 -40.12 -0.309 -0.836 0.453
22.592 43.212 -40.712 -0.309 -0.938 0.157
22.034 43.593 -40.406 -0.588 -0.747 0.31
22.877 43.294 -42.511 0.223 -0.878 -0.423
22.877 43.673 -42.986 0.223 -0.608 -0.762
22.253 43.159 -41.919 -0.223 -0.975 0
22.253 43.294 -42.511 -0.223 -0.878 -0.423
22.253 43.673 -42.986 -0.223 -0.608 -0.762
21.692 43.474 -42.227 -0.623 -0.75 -0.22
21.692 43.807 -42.746 -0.623 -0.512 -0.591
21.692 44.368 -43.002 -0.623 -0.111 -0.774
21.304 43.917 -41.919 -0.901 -0.434 -0
21.304 44.22 -42.445 -0.901 -0.217 -0.376
22.531 48.468 -44.128 -0.5 0.729 -0.468
22.092 48.194 -43.566 -0.866 0.5 0
22.092 47.894 -44.086 -0.866 0.25 -0.433
24.891 50.119 -43.091 -0 0.826 -0.563
24.273 49.968 -43.132 -0.309 0.751 -0.584
27.024 54.683 -38.363 0.623 0.782 0
27.024 54.509 -37.771 0.623 0.658 0.423
27.024 54.043 -37.367 0.623 0.325 0.711
27.024 54.509 -38.955 0.623 0.658 -0.423
26.463 54.953 -38.363 0.223 0.975 0
26.463 54.818 -37.771 0.223 0.878 0.423
26.463 54.439 -37.296 0.223 0.608 0.762
26.463 53.892 -37.032 0.223 0.217 0.95
26.463 54.439 -39.43 0.223 0.608 -0.762
26.463 54.818 -38.955 0.223 0.878 -0.423
25.839 54.953 -38.363 -0.223 0.975 0
25.839 54.818 -37.771 -0.223 0.878 0.423
25.839 54.439 -37.296 -0.223 0.608 0.762
25.839 53.892 -37.032 -0.223 0.217 0.95
25.839 54.818 -38.955 -0.223 0.878 -0.423
25.278 54.683 -38.363 -0.623 0.782 0
25.278 54.509 -37.771 -0.623 0.658 0.423
29.465 51.805 -37.762 0.809 0.294 0.509
29.023 51.836 -37.285 0.588 0.31 0.747
29.023 51.217 -37.162 0.588 -0 0.809
28.465 52.257 -37.188 0.309 0.52 0.796
28.465 51.684 -36.936 0.309 0.233 0.922
27.847 51.948 -36.918 -0 0.365 0.931
26.499 50.364 -35.489 0.5 0.36 0.788
25.899 50.614 -35.446 -0 0.568 0.823
26.336 48.497 -35.583 0.623 -0.512 0.591
26.336 48.164 -36.102 0.623 -0.75 0.22
25.775 48.91 -35.079 0.223 -0.217 0.95
25.775 48.363 -35.343 0.223 -0.608 0.762
24.303 46.93 -35.806 0.5 -0.567 0.654
23.703 47.185 -35.469 -0 -0.355 0.935
23.703 46.713 -35.795 -0 -0.749 0.663
25.378 44.36 -38.178 -0 -0.5 0.866
25.378 43.894 -38.55 -0 -0.733 0.68
24.76 44.072 -38.511 -0.309 -0.644 0.7
24.76 43.687 -39.005 -0.309 -0.836 0.453
24.91 43.059 -41.682 -0 -0.971 -0.239
24.91 43.326 -42.191 -0 -0.749 -0.663
23.88 45.603 -45.043 -0 -0.749 -0.663
23.88 46.075 -45.369 -0 -0.355 -0.935
23.28 45.82 -45.032 -0.5 -0.567 -0.654
24.147 47.882 -45.167 0.174 0.439 -0.882
23.557 47.882 -45.167 -0.174 0.439 -0.882
23.557 48.373 -44.796 -0.174 0.728 -0.663
23.002 47.591 -45.068 -0.5 0.268 -0.824
22.55 46.98 -44.75 -0.766 -0.091 -0.636
25.548 48.452 -44.518 0.309 0.52 -0.796
27.764 47.392 -44.244 0.309 0.233 -0.922
30.515 49.117 -43.112 0.588 0 -0.809
28.347 50.963 -42.813 -0.309 0.233 -0.922
28.347 52.295 -41.587 -0.309 0.9 -0.309
28.925 53.094 -38.681 0.5 0.866 0
28.925 52.929 -38.119 0.5 0.729 0.468
30.883 52.359 -40.575 0.623 0.658 0.423
29.698 52.803 -41.167 -0.223 0.975 0
30.592 50.546 -38.494 0.866 0.25 0.433
29.331 49.449 -37.756 0.309 -0.382 0.871
29.331 48.925 -38.099 0.309 -0.644 0.7
28.252 44.966 -38.824 0.866 -0.25 0.433
27.813 45.118 -38.315 0.5 -0.123 0.857
28.253 44.367 -39.917 0.94 -0.342 -0
27.506 43.757 -39.052 0.5 -0.701 0.509
26.951 43.939 -38.581 0.174 -0.593 0.786
26.951 43.525 -39.036 0.174 -0.837 0.518
27.517 43.369 -40.787 0.5 -0.831 -0.244
26.321 45.252 -44 0.174 -0.837 -0.518
26.321 45.666 -44.455 0.174 -0.593 -0.786
26.321 46.217 -44.729 0.174 -0.27 -0.947
26.321 46.829 -44.786 0.174 0.091 -0.981
29.446 45.654 -42.552 0.901 -0.434 -0
29.446 45.957 -43.078 0.901 -0.217 -0.376
29.058 45.211 -42.244 0.623 -0.75 0.22
29.058 45.211 -42.86 0.623 -0.75 -0.22
29.058 45.544 -43.379 0.623 -0.512 -0.591
29.058 46.105 -43.635 0.623 -0.111 -0.774
28.497 45.031 -43.144 0.223 -0.878 -0.423
28.497 45.41 -43.619 0.223 -0.608 -0.762
29.276 49.196 -43.651 -0 0.121 -0.993
31.936 48.153 -41.204 0.901 -0.434 -0
31.548 48.043 -40.377 0.623 -0.512 0.591
31.548 47.71 -40.896 0.623 -0.75 0.22
31.548 47.71 -41.512 0.623 -0.75 -0.22
31.548 48.043 -42.031 0.623 -0.512 -0.591
31.548 48.604 -42.287 0.623 -0.111 -0.774
32.326 49.454 -41.062 1 0 0
32.165 50.054 -41.062 0.866 0.5 0
32.165 49.754 -40.542 0.866 0.25 0.433
32.165 49.754 -41.582 0.866 0.25 -0.433
31.159 51.866 -42.51 0.866 0.25 -0.433
30.72 51.418 -43.019 0.5 -0.123 -0.857
30.72 51.998 -42.935 0.5 0.36 -0.788
30.72 52.44 -42.552 0.5 0.729 -0.468
30.12 51.711 -43.181 -0 0.121 -0.993
30.12 52.248 -42.978 -0 0.568 -0.823
30.12 52.629 -42.548 -0 0.885 -0.465
3 0 4 400
3 400 4 401
3 400 401 1
3 1 401 3
3 4 7 5
3 5 7 6
3 7 10 402
3 402 10 403
3 402 403 8
3 8 403 9
3 10 405 404
3 404 405 406
3 404 406 11
3 11 406 407
3 405 13 406
3 406 13 408
3 406 408 407
3 407 408 12
3 13 16 409
3 409 16 410
3 409 410 14
3 14 410 15
3 16 19 411
3 411 19 413
3 411 413 412
3 412 413 414
3 412 414 17
3 17 414 18
3 19 417 415
3 415 417 418
3 415 418 416
3 416 418 419
3 416 419 20
3 20 419 420
3 417 421 418
3 418 421 422
3 418 422 419
3 419 422 423
3 419 423 420
3 420 423 424
3 421 22 422
3 422 22 425
3 422 425 423
3 423 425 426
3 423 426 424
3 424 426 21
3 22 427 23
3 23 427 428
3 427 429 428
3 428 429 430
3 429 431 430
3 430 431 432
3 431 0 432
3 432 0 2
3 23 25 433
3 433 25 435
3 433 435 434
3 434 435 436
3 434 436 21
3 21 436 24
3 25 439 437
3 437 439 440
3 437 440 438
3 438 440 441
3 438 441 26
3 26 441 442
3 439 28 440
3 440 28 443
3 440 443 441
3 441 443 444
3 441 444 442
3 442 444 27
3 28 31 445
3 445 31 447
3 445 447 446
3 446 447 448
3 446 448 29
3 29 448 30
3 35 32 34
3 31 36 33
3 36 39 37
3 37 39 38
3 39 449 40
3 40 449 450
3 449 451 450
3 450 451 452
3 451 453 452
3 452 453 454
3 453 455 454
3 454 455 456
3 455 457 456
3 456 457 458
3 457 2 458
3 458 2 1
3 40 42 459
3 459 42 460
3 459 460 38
3 38 460 41
3 46 43 45
3 42 47 44
3 47 462 461
3 461 462 463
3 461 463 48
3 48 463 464
3 462 465 463
3 463 465 466
3 463 466 464
3 464 466 467
3 465 468 466
3 466 468 469
3 466 469 467
3 467 469 470
3 468 471 469
3 469 471 472
3 469 472 470
3 470 472 473
3 471 50 472
3 472 50 474
3 472 474 473
3 473 474 49
3 50 3 51
3 51 3 5
3 51 6 475
3 475 6 476
3 475 476 49
3 49 476 8
3 48 53 477
3 477 53 479
3 477 479 478
3 478 479 480
3 478 480 46
3 46 480 52
3 53 481 54
3 54 481 482
3 481 483 482
3 482 483 484
3 483 56 484
3 484 56 55
3 56 59 485
3 485 59 486
3 485 486 57
3 57 486 58
3 59 62 60
3 60 62 61
3 62 65 63
3 63 65 64
3 65 487 66
3 66 487 488
3 487 489 488
3 488 489 490
3 489 68 490
3 490 68 67
3 68 15 69
3 69 15 17
3 69 491 67
3 67 491 492
3 491 71 492
3 492 71 70
3 71 493 72
3 72 493 494
3 493 74 494
3 494 74 73
3 74 18 495
3 495 18 496
3 495 496 75
3 75 496 20
3 75 497 73
3 73 497 498
3 497 77 498
3 498 77 76
3 77 80 78
3 78 80 79
3 80 83 81
3 81 83 82
3 83 499 84
3 84 499 500
3 499 501 500
3 500 501 502
3 501 503 502
3 502 503 504
3 503 505 504
3 504 505 506
3 505 24 506
3 506 24 26
3 84 507 82
3 82 507 508
3 507 86 508
3 508 86 85
3 86 89 509
3 509 89 510
3 509 510 87
3 87 510 88
3 89 512 511
3 511 512 513
3 511 513 90
3 90 513 514
3 512 92 513
3 513 92 515
3 513 515 514
3 514 515 91
3 92 95 516
3 516 95 517
3 516 517 93
3 93 517 94
3 95 520 518
3 518 520 521
3 518 521 519
3 519 521 522
3 519 522 96
3 96 522 523
3 520 98 521
3 521 98 524
3 521 524 522
3 522 524 525
3 522 525 523
3 523 525 97
3 98 101 526
3 526 101 528
3 526 528 527
3 527 528 529
3 527 529 99
3 99 529 100
3 101 27 102
3 102 27 29
3 102 30 530
3 530 30 532
3 530 532 531
3 531 532 533
3 531 533 100
3 100 533 32
3 99 104 534
3 534 104 535
3 534 535 97
3 97 535 103
3 104 107 105
3 105 107 106
3 107 110 536
3 536 110 539
3 536 539 537
3 537 539 540
3 537 540 538
3 538 540 541
3 538 541 108
3 108 541 109
3 110 35 542
3 542 35 545
3 542 545 543
3 543 545 546
3 543 546 544
3 544 546 547
3 544 547 111
3 111 547 37
3 111 41 548
3 548 41 550
3 548 550 549
3 549 550 551
3 549 551 109
3 109 551 43
3 108 554 552
3 552 554 555
3 552 555 553
3 553 555 556
3 553 556 106
3 106 556 557
3 554 113 555
3 555 113 558
3 555 558 556
3 556 558 559
3 556 559 557
3 557 559 112
3 113 116 560
3 560 116 562
3 560 562 561
3 561 562 563
3 561 563 114
3 114 563 115
3 116 119 564
3 564 119 567
3 564 567 565
3 565 567 568
3 565 568 566
3 566 568 569
3 566 569 117
3 117 569 118
3 119 570 120
3 120 570 571
3 570 122 571
3 571 122 121
3 122 125 572
3 572 125 573
3 572 573 123
3 123 573 124
3 125 128 126
3 126 128 127
3 128 52 574
3 574 52 576
3 574 576 575
3 575 576 577
3 575 577 129
3 129 577 54
3 129 131 578
3 578 131 580
3 578 580 579
3 579 580 581
3 579 581 127
3 127 581 130
3 131 55 582
3 582 55 583
3 582 583 132
3 132 583 57
3 132 134 130
3 130 134 133
3 134 585 584
3 584 585 586
3 584 586 135
3 135 586 587
3 585 137 586
3 586 137 588
3 586 588 587
3 587 588 136
3 137 140 589
3 589 140 590
3 589 590 138
3 138 590 139
3 140 143 591
3 591 143 592
3 591 592 141
3 141 592 142
3 143 146 593
3 593 146 594
3 593 594 144
3 144 594 145
3 146 58 147
3 147 58 60
3 147 61 145
3 145 61 63
3 144 149 595
3 595 149 597
3 595 597 596
3 596 597 598
3 596 598 142
3 142 598 148
3 149 152 599
3 599 152 600
3 599 600 150
3 150 600 151
3 152 601 153
3 153 601 602
3 601 64 602
3 602 64 66
3 153 155 603
3 603 155 604
3 603 604 151
3 151 604 154
3 155 70 156
3 156 70 72
3 156 158 154
3 154 158 157
3 158 605 159
3 159 605 606
3 605 607 606
3 606 607 608
3 607 161 608
3 608 161 160
3 161 76 162
3 162 76 78
3 162 164 609
3 609 164 610
3 609 610 160
3 160 610 163
3 164 167 165
3 165 167 166
3 167 170 168
3 168 170 169
3 170 611 171
3 171 611 612
3 611 79 612
3 612 79 81
3 171 173 613
3 613 173 614
3 613 614 169
3 169 614 172
3 173 615 174
3 174 615 616
3 615 617 616
3 616 617 618
3 617 85 618
3 618 85 87
3 174 176 172
3 172 176 175
3 176 619 177
3 177 619 620
3 619 179 620
3 620 179 178
3 179 182 180
3 180 182 181
3 182 621 183
3 183 621 622
3 621 623 622
3 622 623 624
3 623 625 624
3 624 625 626
3 625 88 626
3 626 88 90
3 183 185 627
3 627 185 628
3 627 628 181
3 181 628 184
3 185 188 186
3 186 188 187
3 188 631 629
3 629 631 632
3 629 632 630
3 630 632 633
3 630 633 189
3 189 633 634
3 631 191 632
3 632 191 635
3 632 635 633
3 633 635 636
3 633 636 634
3 634 636 190
3 191 194 637
3 637 194 639
3 637 639 638
3 638 639 640
3 638 640 192
3 192 640 193
3 194 197 641
3 641 197 643
3 641 643 642
3 642 643 644
3 642 644 195
3 195 644 196
3 197 91 198
3 198 91 93
3 198 94 645
3 645 94 647
3 645 647 646
3 646 647 648
3 646 648 196
3 196 648 96
3 195 649 193
3 193 649 650
3 649 651 650
3 650 651 652
3 651 653 652
3 652 653 654
3 653 200 654
3 654 200 199
3 200 103 655
3 655 103 656
3 655 656 201
3 201 656 105
3 201 203 199
3 199 203 202
3 203 657 204
3 204 657 658
3 657 659 658
3 658 659 660
3 659 206 660
3 660 206 205
3 206 661 207
3 207 661 662
3 661 663 662
3 662 663 664
3 663 112 664
3 664 112 114
3 207 209 205
3 205 209 208
3 209 212 210
3 210 212 211
3 212 215 665
3 665 215 666
3 665 666 213
3 213 666 214
3 215 218 667
3 667 218 668
3 667 668 216
3 216 668 217
3 218 115 669
3 669 115 670
3 669 670 219
3 219 670 117
3 219 671 217
3 217 671 672
3 671 221 672
3 672 221 220
3 221 118 673
3 673 118 675
3 673 675 674
3 674 675 676
3 674 676 222
3 222 676 120
3 222 224 677
3 677 224 679
3 677 679 678
3 678 679 680
3 678 680 220
3 220 680 223
3 224 227 681
3 681 227 682
3 681 682 225
3 225 682 226
3 227 683 228
3 228 683 684
3 683 121 684
3 684 121 123
3 228 230 685
3 685 230 686
3 685 686 226
3 226 686 229
3 230 688 687
3 687 688 689
3 687 689 231
3 231 689 690
3 688 233 689
3 689 233 691
3 689 691 690
3 690 691 232
3 233 693 692
3 692 693 694
3 692 694 234
3 234 694 695
3 693 136 694
3 694 136 696
3 694 696 695
3 695 696 138
3 234 697 232
3 232 697 698
3 697 236 698
3 698 236 235
3 236 239 699
3 699 239 700
3 699 700 237
3 237 700 238
3 239 242 240
3 240 242 241
3 242 245 243
3 243 245 244
3 245 701 246
3 246 701 702
3 701 703 702
3 702 703 704
3 703 248 704
3 704 248 247
3 248 251 705
3 705 251 706
3 705 706 249
3 249 706 250
3 251 708 707
3 707 708 709
3 707 709 252
3 252 709 710
3 708 254 709
3 709 254 711
3 709 711 710
3 710 711 253
3 254 139 712
3 712 139 713
3 712 713 255
3 255 713 141
3 255 715 714
3 714 715 716
3 714 716 253
3 253 716 717
3 715 250 716
3 716 250 718
3 716 718 717
3 717 718 252
3 249 257 719
3 719 257 721
3 719 721 720
3 720 721 722
3 720 722 247
3 247 722 256
3 257 723 258
3 258 723 724
3 723 725 724
3 724 725 726
3 725 727 726
3 726 727 728
3 727 148 728
3 728 148 150
3 258 260 729
3 729 260 732
3 729 732 730
3 730 732 733
3 730 733 731
3 731 733 734
3 731 734 256
3 256 734 259
3 260 263 735
3 735 263 737
3 735 737 736
3 736 737 738
3 736 738 261
3 261 738 262
3 263 739 264
3 264 739 740
3 739 266 740
3 740 266 265
3 266 269 267
3 267 269 268
3 269 157 741
3 741 157 742
3 741 742 270
3 270 742 159
3 270 272 268
3 268 272 271
3 272 163 743
3 743 163 744
3 743 744 273
3 273 744 165
3 273 275 745
3 745 275 746
3 745 746 271
3 271 746 274
3 275 748 747
3 747 748 749
3 747 749 276
3 276 749 750
3 748 278 749
3 749 278 751
3 749 751 750
3 750 751 277
3 278 281 752
3 752 281 754
3 752 754 753
3 753 754 755
3 753 755 279
3 279 755 280
3 281 757 756
3 756 757 758
3 756 758 282
3 282 758 759
3 757 284 758
3 758 284 760
3 758 760 759
3 759 760 283
3 284 761 285
3 285 761 762
3 761 166 762
3 762 166 168
3 285 287 283
3 283 287 286
3 287 763 288
3 288 763 764
3 763 765 764
3 764 765 766
3 765 767 766
3 766 767 768
3 767 290 768
3 768 290 289
3 290 769 291
3 291 769 770
3 769 175 770
3 770 175 177
3 291 293 289
3 289 293 292
3 293 178 294
3 294 178 180
3 294 296 771
3 771 296 772
3 771 772 292
3 292 772 295
3 296 774 773
3 773 774 775
3 773 775 297
3 297 775 776
3 774 299 775
3 775 299 777
3 775 777 776
3 776 777 298
3 299 302 778
3 778 302 780
3 778 780 779
3 779 780 781
3 779 781 300
3 300 781 301
3 302 783 782
3 782 783 784
3 782 784 303
3 303 784 785
3 783 305 784
3 784 305 786
3 784 786 785
3 785 786 304
3 305 308 787
3 787 308 789
3 787 789 788
3 788 789 790
3 788 790 306
3 306 790 307
3 308 184 309
3 309 184 186
3 309 187 791
3 791 187 793
3 791 793 792
3 792 793 794
3 792 794 307
3 307 794 189
3 306 796 795
3 795 796 797
3 795 797 304
3 304 797 798
3 796 799 797
3 797 799 800
3 797 800 798
3 798 800 801
3 799 311 800
3 800 311 802
3 800 802 801
3 801 802 310
3 311 803 312
3 312 803 804
3 803 805 804
3 804 805 806
3 805 807 806
3 806 807 808
3 807 190 808
3 808 190 192
3 312 314 310
3 310 314 313
3 314 809 315
3 315 809 810
3 809 811 810
3 810 811 812
3 811 813 812
3 812 813 814
3 813 202 814
3 814 202 204
3 315 815 313
3 313 815 816
3 815 317 816
3 816 317 316
3 317 208 318
3 318 208 210
3 318 817 316
3 316 817 818
3 817 819 818
3 818 819 820
3 819 821 820
3 820 821 822
3 821 823 822
3 822 823 824
3 823 825 824
3 824 825 826
3 825 301 826
3 826 301 303
3 300 320 827
3 827 320 828
3 827 828 298
3 298 828 319
3 320 829 321
3 321 829 830
3 829 831 830
3 830 831 832
3 831 833 832
3 832 833 834
3 833 835 834
3 834 835 836
3 835 323 836
3 836 323 322
3 323 838 837
3 837 838 839
3 837 839 324
3 324 839 840
3 838 326 839
3 839 326 841
3 839 841 840
3 840 841 325
3 326 211 842
3 842 211 843
3 842 843 327
3 327 843 213
3 327 844 325
3 325 844 845
3 844 846 845
3 845 846 847
3 846 329 847
3 847 329 328
3 329 849 848
3 848 849 850
3 848 850 330
3 330 850 851
3 849 332 850
3 850 332 852
3 850 852 851
3 851 852 331
3 332 853 333
3 333 853 854
3 853 855 854
3 854 855 856
3 855 335 856
3 856 335 334
3 335 338 336
3 336 338 337
3 338 858 857
3 857 858 859
3 857 859 339
3 339 859 860
3 858 341 859
3 859 341 861
3 859 861 860
3 860 861 340
3 341 862 342
3 342 862 863
3 862 214 863
3 863 214 216
3 342 864 340
3 340 864 865
3 864 866 865
3 865 866 867
3 866 344 867
3 867 344 343
3 344 347 345
3 345 347 346
3 347 223 348
3 348 223 225
3 348 350 868
3 868 350 869
3 868 869 346
3 346 869 349
3 350 229 351
3 351 229 231
3 351 235 870
3 870 235 871
3 870 871 349
3 349 871 237
3 345 872 343
3 343 872 873
3 872 874 873
3 873 874 875
3 874 876 875
3 875 876 877
3 876 353 877
3 877 353 352
3 353 879 878
3 878 879 880
3 878 880 354
3 354 880 881
3 879 356 880
3 880 356 882
3 880 882 881
3 881 882 355
3 356 359 883
3 883 359 884
3 883 884 357
3 357 884 358
3 359 238 885
3 885 238 886
3 885 886 360
3 360 886 240
3 360 241 358
3 358 241 243
3 357 362 887
3 887 362 888
3 887 888 355
3 355 888 361
3 362 365 889
3 889 365 890
3 889 890 363
3 363 890 364
3 365 891 366
3 366 891 892
3 891 244 892
3 892 244 246
3 366 368 893
3 893 368 894
3 893 894 364
3 364 894 367
3 368 895 369
3 369 895 896
3 895 371 896
3 896 371 370
3 371 259 372
3 372 259 261
3 372 374 370
3 370 374 373
3 374 280 897
3 897 280 899
3 897 899 898
3 898 899 900
3 898 900 375
3 375 900 282
3 375 377 901
3 901 377 902
3 901 902 373
3 373 902 376
3 377 380 903
3 903 380 904
3 903 904 378
3 378 904 379
3 380 905 381
3 381 905 906
3 905 907 906
3 906 907 908
3 907 286 908
3 908 286 288
3 381 383 909
3 909 383 911
3 909 911 910
3 910 911 912
3 910 912 379
3 379 912 382
3 383 386 913
3 913 386 914
3 913 914 384
3 384 914 385
3 386 915 387
3 387 915 916
3 915 917 916
3 916 917 918
3 917 919 918
3 918 919 920
3 919 295 920
3 920 295 297
3 387 922 921
3 921 922 923
3 921 923 385
3 385 923 924
3 922 319 923
3 923 319 925
3 923 925 924
3 924 925 321
3 384 389 926
3 926 389 927
3 926 927 382
3 382 927 388
3 389 392 928
3 928 392 929
3 928 929 390
3 390 929 391
3 392 331 930
3 930 331 932
3 930 932 931
3 931 932 933
3 931 933 393
3 393 933 333
3 393 395 391
3 391 395 394
3 395 398 934
3 934 398 935
3 934 935 396
3 396 935 397
3 398 367 399
3 399 367 369
3 399 376 397
3 397 376 378
3 396 388 394
3 394 388 390
3 363 936 361
3 361 936 937
3 936 938 937
3 937 938 939
3 938 940 939
3 939 940 941
3 940 942 941
3 941 942 943
3 942 334 943
3 943 334 336
3 354 337 944
3 944 337 945
3 944 945 352
3 352 945 339
3 330 322 946
3 946 322 947
3 946 947 328
3 328 947 324
3 279 262 948
3 948 262 950
3 948 950 949
3 949 950 951
3 949 951 277
3 277 951 264
3 276 265 274
3 274 265 267
3 135 952 133
3 133 952 953
3 952 124 953
3 953 124 126
3 14 954 12
3 12 954 955
3 954 956 955
3 955 956 957
3 956 9 957
3 957 9 11
3 2 0 400
3 2 400 1
3 5 3 401
3 5 401 4
3 476 6 402
3 476 402 8
3 402 6 7
3 11 9 403
3 11 403 404
3 404 403 10
3 14 12 409
3 409 12 408
3 409 408 13
3 17 15 412
3 412 15 410
3 412 410 411
3 411 410 16
3 496 18 960
3 496 960 416
3 496 416 20
3 416 960 414
3 416 414 413
3 416 413 415
3 415 413 19
3 414 960 18
3 434 21 426
3 434 426 433
3 433 426 425
3 433 425 23
3 23 425 22
3 26 24 438
3 438 24 436
3 438 436 437
3 437 436 435
3 437 435 25
3 29 27 444
3 29 444 446
3 446 444 443
3 446 443 445
3 445 443 28
3 532 30 962
3 532 962 961
3 532 961 533
3 533 961 34
3 533 34 32
3 34 961 958
3 958 961 962
3 958 962 963
3 958 963 33
3 33 963 447
3 33 447 31
3 447 963 448
3 448 963 962
3 448 962 30
3 545 35 34
3 545 34 546
3 546 34 958
3 546 958 547
3 547 958 33
3 547 33 37
3 37 33 36
3 459 38 39
3 459 39 40
3 550 41 959
3 550 959 45
3 550 45 551
3 551 45 43
3 959 41 44
3 44 41 460
3 44 460 42
3 478 46 45
3 478 45 477
3 477 45 959
3 477 959 48
3 48 959 44
3 48 44 461
3 461 44 47
3 475 49 474
3 475 474 51
3 51 474 50
3 576 52 480
3 576 480 479
3 576 479 577
3 577 479 53
3 577 53 54
3 583 55 56
3 583 56 485
3 583 485 57
3 60 58 486
3 60 486 59
3 63 61 62
3 66 64 65
3 69 67 68
3 72 70 71
3 75 73 495
3 495 73 74
3 78 76 77
3 81 79 80
3 84 82 83
3 87 85 509
3 509 85 86
3 90 88 511
3 511 88 510
3 511 510 89
3 93 91 515
3 93 515 516
3 516 515 92
3 647 94 964
3 647 964 518
3 647 518 519
3 647 519 648
3 648 519 96
3 518 964 517
3 518 517 95
3 517 964 94
3 534 97 525
3 534 525 965
3 534 965 99
3 99 965 527
3 527 965 966
3 527 966 526
3 526 966 524
3 526 524 98
3 524 966 525
3 525 966 965
3 531 100 529
3 531 529 530
3 530 529 528
3 530 528 102
3 102 528 101
3 656 103 535
3 656 535 105
3 105 535 104
3 553 106 536
3 553 536 537
3 553 537 552
3 552 537 538
3 552 538 108
3 536 106 107
3 967 968 970
3 970 968 971
3 549 109 967
3 549 967 970
3 549 970 548
3 548 970 544
3 548 544 111
3 544 970 971
3 544 971 543
3 543 971 542
3 542 971 968
3 542 968 969
3 542 969 110
3 110 969 539
3 539 969 968
3 539 968 540
3 540 968 967
3 540 967 541
3 541 967 109
3 114 112 559
3 114 559 561
3 561 559 558
3 561 558 560
3 560 558 113
3 973 972 974
3 670 115 974
3 670 974 972
3 670 972 566
3 670 566 117
3 566 972 565
3 565 972 973
3 565 973 564
3 564 973 562
3 564 562 116
3 562 973 563
3 563 973 974
3 563 974 115
3 675 118 569
3 675 569 568
3 675 568 676
3 676 568 567
3 676 567 120
3 120 567 119
3 123 121 572
3 572 121 122
3 126 124 573
3 126 573 125
3 579 127 128
3 579 128 574
3 579 574 578
3 578 574 575
3 578 575 129
3 132 130 581
3 132 581 582
3 582 581 580
3 582 580 131
3 135 133 584
3 584 133 134
3 696 136 588
3 696 588 975
3 696 975 589
3 696 589 138
3 589 975 137
3 137 975 588
3 713 139 590
3 713 590 976
3 713 976 141
3 141 976 591
3 591 976 140
3 140 976 590
3 596 142 592
3 596 592 593
3 596 593 595
3 595 593 144
3 593 592 143
3 147 145 594
3 147 594 146
3 150 148 598
3 150 598 599
3 599 598 597
3 599 597 149
3 603 151 600
3 603 600 153
3 153 600 152
3 156 154 977
3 156 977 155
3 155 977 604
3 604 977 154
3 742 157 158
3 742 158 159
3 609 160 161
3 609 161 162
3 744 163 610
3 744 610 164
3 744 164 165
3 168 166 167
3 613 169 170
3 613 170 171
3 174 172 614
3 174 614 173
3 177 175 176
3 180 178 179
3 627 181 182
3 627 182 183
3 186 184 628
3 186 628 185
3 793 187 629
3 793 629 630
3 793 630 794
3 794 630 189
3 629 187 188
3 192 190 636
3 192 636 638
3 638 636 635
3 638 635 637
3 637 635 191
3 195 193 642
3 642 193 640
3 642 640 641
3 641 640 639
3 641 639 194
3 646 196 644
3 646 644 645
3 645 644 643
3 645 643 198
3 198 643 197
3 201 199 655
3 655 199 200
3 204 202 203
3 207 205 206
3 210 208 209
3 843 211 665
3 843 665 213
3 665 211 212
3 216 214 667
3 667 214 666
3 667 666 215
3 219 217 668
3 219 668 669
3 669 668 218
3 678 220 673
3 678 673 674
3 678 674 677
3 677 674 222
3 673 220 221
3 225 223 680
3 225 680 679
3 225 679 681
3 681 679 224
3 685 226 682
3 685 682 227
3 685 227 228
3 231 229 687
3 687 229 686
3 687 686 230
3 234 232 691
3 234 691 692
3 692 691 233
3 871 235 236
3 871 236 699
3 871 699 237
3 886 238 700
3 886 700 240
3 240 700 239
3 243 241 242
3 246 244 245
3 720 247 248
3 720 248 705
3 720 705 719
3 719 705 249
3 718 250 706
3 718 706 252
3 252 706 707
3 707 706 251
3 714 253 712
3 714 712 255
3 712 253 711
3 712 711 254
3 731 256 722
3 731 722 730
3 730 722 721
3 730 721 729
3 729 721 257
3 729 257 258
3 261 259 734
3 261 734 736
3 736 734 733
3 736 733 735
3 735 733 732
3 735 732 260
3 950 262 738
3 950 738 951
3 951 738 737
3 951 737 264
3 264 737 263
3 267 265 266
3 270 268 741
3 741 268 269
3 745 271 743
3 745 743 273
3 743 271 272
3 276 274 747
3 747 274 746
3 747 746 275
3 949 277 979
3 949 979 978
3 949 978 948
3 948 978 753
3 948 753 279
3 753 978 979
3 753 979 752
3 752 979 278
3 278 979 751
3 751 979 277
3 899 280 755
3 899 755 980
3 899 980 900
3 900 980 282
3 282 980 756
3 756 980 281
3 281 980 754
3 754 980 755
3 285 283 760
3 285 760 284
3 288 286 287
3 291 289 290
3 771 292 293
3 771 293 294
3 297 295 773
3 773 295 772
3 773 772 296
3 827 298 981
3 827 981 779
3 827 779 300
3 779 981 778
3 778 981 299
3 299 981 777
3 777 981 298
3 303 301 781
3 303 781 782
3 782 781 780
3 782 780 302
3 795 304 982
3 795 982 788
3 795 788 306
3 788 982 787
3 787 982 786
3 787 786 305
3 786 982 304
3 792 307 790
3 792 790 791
3 791 790 789
3 791 789 309
3 309 789 308
3 312 310 802
3 312 802 311
3 315 313 314
3 318 316 317
3 925 319 828
3 925 828 320
3 925 320 321
3 947 322 323
3 947 323 837
3 947 837 324
3 327 325 841
3 327 841 842
3 842 841 326
3 946 328 329
3 946 329 848
3 946 848 330
3 932 331 852
3 932 852 933
3 933 852 332
3 933 332 333
3 336 334 335
3 945 337 338
3 945 338 857
3 945 857 339
3 342 340 861
3 342 861 341
3 345 343 344
3 868 346 347
3 868 347 348
3 870 349 869
3 870 869 350
3 870 350 351
3 944 352 353
3 944 353 878
3 944 878 354
3 887 355 882
3 887 882 883
3 887 883 357
3 883 882 356
3 360 358 884
3 360 884 885
3 885 884 359
3 363 361 889
3 889 361 888
3 889 888 362
3 893 364 890
3 893 890 366
3 366 890 365
3 369 367 894
3 369 894 368
3 372 370 371
3 901 373 897
3 901 897 898
3 901 898 375
3 897 373 374
3 378 376 902
3 378 902 903
3 903 902 377
3 910 379 904
3 910 904 909
3 909 904 380
3 909 380 381
3 926 382 912
3 926 912 983
3 926 983 384
3 384 983 913
3 913 983 912
3 913 912 911
3 913 911 383
3 921 385 914
3 921 914 386
3 921 386 387
3 390 388 927
3 390 927 928
3 928 927 389
3 393 391 931
3 931 391 930
3 930 391 929
3 930 929 392
3 396 394 934
3 934 394 395
3 399 397 935
3 399 935 398
3 984 987 988
3 985 984 988
3 987 986 991
3 987 991 992
3 988 987 992
3 989 988 992
3 989 992 993
3 990 989 993
3 990 993 994
3 992 991 995
3 993 992 995
3 994 993 995
3 994 995 431
3 994 431 429
3 994 429 427
3 994 427 990
3 990 427 22
3 990 22 421
3 990 421 989
3 989 421 417
3 989 417 988
3 988 417 985
3 985 417 19
3 985 19 16
3 985 16 984
3 984 16 13
3 984 13 405
3 984 405 987
3 987 405 986
3 986 405 10
3 986 10 4
3 986 4 991
3 991 4 0
3 991 0 995
3 995 0 431
3 4 10 7
3 996 999 1000
3 997 996 1000
3 997 1000 1001
3 999 1004 1005
3 1000 999 1005
3 1000 1005 1006
3 1001 1000 1006
3 998 1001 1006
3 998 1006 1002
3 998 1002 1003
3 1003 1002 1007
3 1003 1007 1008
3 1004 1010 1011
3 1005 1004 1011
3 1005 1011 1012
3 1006 1005 1012
3 1007 1006 1012
3 1002 1006 1007
3 1008 1007 1013
3 1008 1013 1014
3 1009 1008 1014
3 1011 1010 1015
3 1012 1011 1015
3 1013 1012 1015
3 1007 1012 1013
3 1014 1013 1016
3 1013 1015 1016
3 1016 1015 458
3 1016 458 1
3 1016 1 1014
3 1014 1 1009
3 1009 1 3
3 1009 3 50
3 1009 50 471
3 1009 471 1008
3 1008 471 1003
3 1003 471 468
3 1003 468 998
3 998 468 465
3 998 465 462
3 998 462 997
3 998 997 1001
3 997 462 47
3 997 47 42
3 997 42 996
3 996 42 40
3 996 40 450
3 996 450 999
3 999 450 452
3 999 452 1004
3 1004 452 454
3 1004 454 1010
3 1010 454 456
3 1010 456 1015
3 1015 456 458
3 6 51 5
3 1018 1017 1019
3 1018 1019 1020
3 1018 1020 65
3 1018 65 62
3 1018 62 1017
3 1017 62 483
3 1017 483 1019
3 1019 483 1021
3 1019 1021 956
3 1019 956 1020
3 1020 956 487
3 1020 487 65
3 487 956 954
3 487 954 489
3 489 954 14
3 489 14 68
3 68 14 15
3 956 1021 49
3 956 49 9
3 9 49 8
3 49 1021 473
3 473 1021 470
3 470 1021 481
3 470 481 467
3 467 481 53
3 467 53 464
3 464 53 48
3 481 1021 483
3 483 62 59
3 483 59 56
3 957 11 407
3 957 407 1022
3 957 1022 955
3 955 1022 12
3 12 1022 407
3 18 74 17
3 17 74 69
3 69 74 493
3 69 493 491
3 491 493 71
3 1023 1025 1026
3 1024 1023 1026
3 1026 1025 1027
3 1026 1027 1028
3 1026 1028 499
3 1026 499 1024
3 1024 499 83
3 1024 83 80
3 1024 80 1023
3 1023 80 77
3 1023 77 497
3 1023 497 1025
3 1025 497 75
3 1025 75 20
3 1025 20 420
3 1025 420 1027
3 1027 420 424
3 1027 424 1028
3 1028 424 503
3 1028 503 501
3 1028 501 499
3 503 424 505
3 505 424 21
3 505 21 24
3 1030 1032 1033
3 1031 1030 1033
3 1033 1032 1034
3 1033 1034 455
3 1033 455 453
3 1033 453 1031
3 1031 453 451
3 1031 451 1029
3 1031 1029 1030
3 1030 1029 28
3 1030 28 439
3 1030 439 1032
3 1032 439 25
3 1032 25 428
3 1032 428 1034
3 1034 428 430
3 1034 430 457
3 1034 457 455
3 457 430 432
3 457 432 2
3 428 25 23
3 28 1029 31
3 31 1029 36
3 36 1029 449
3 36 449 39
3 449 1029 451
3 101 98 27
3 1035 1039 1040
3 1037 1036 1041
3 1037 1041 1042
3 1038 1037 1042
3 1039 1038 1042
3 1039 1042 1043
3 1040 1039 1043
3 1040 1043 26
3 1040 26 442
3 1040 442 1035
3 1035 442 520
3 1035 520 95
3 1035 95 92
3 1035 92 1039
3 1039 92 512
3 1039 512 1038
3 1038 512 89
3 1038 89 1037
3 1037 89 86
3 1037 86 1036
3 1036 86 507
3 1036 507 500
3 1036 500 502
3 1036 502 1041
3 1041 502 504
3 1041 504 1042
3 1042 504 506
3 1042 506 1043
3 1043 506 26
3 500 507 84
3 520 442 27
3 520 27 98
3 30 102 29
3 99 100 104
3 35 110 107
3 35 107 104
3 35 104 32
3 32 104 100
3 38 41 111
3 38 111 37
3 1044 1046 1047
3 1045 1044 1047
3 1045 1047 1048
3 1046 1050 1051
3 1047 1046 1051
3 1047 1051 1052
3 1048 1047 1052
3 1049 1048 1052
3 1049 1052 46
3 1049 46 52
3 1049 52 128
3 1049 128 125
3 1049 125 1048
3 1048 125 122
3 1048 122 1045
3 1045 122 570
3 1045 570 1044
3 1044 570 119
3 1044 119 116
3 1044 116 113
3 1044 113 554
3 1044 554 1046
3 1046 554 1050
3 1050 554 108
3 1050 108 109
3 1050 109 43
3 1050 43 1051
3 1051 43 1052
3 1052 43 46
3 55 131 484
3 131 129 1053
3 131 1053 484
3 484 1053 482
3 482 1053 54
3 54 1053 129
3 132 57 134
3 58 146 134
3 58 134 57
3 134 146 585
3 585 146 143
3 585 143 137
3 137 143 140
3 61 147 60
3 1054 1055 1056
3 1054 1056 152
3 1054 152 149
3 1054 149 144
3 1054 144 145
3 1054 145 1055
3 1055 145 63
3 1055 63 64
3 1055 64 1056
3 1056 64 601
3 1056 601 152
3 492 70 1058
3 492 1058 490
3 492 490 67
3 490 1058 488
3 488 1058 602
3 488 602 66
3 602 1058 1057
3 602 1057 153
3 153 1057 155
3 155 1057 70
3 70 1057 1058
3 498 76 607
3 498 607 494
3 498 494 73
3 494 607 605
3 494 605 1060
3 494 1060 72
3 72 1060 1059
3 72 1059 156
3 156 1059 158
3 158 1059 605
3 605 1059 1060
3 607 76 161
3 611 170 167
3 611 167 1061
3 611 1061 79
3 79 1061 78
3 78 1061 162
3 162 1061 167
3 162 167 164
3 173 171 615
3 508 85 617
3 508 617 82
3 82 617 1062
3 82 1062 81
3 81 1062 612
3 612 1062 615
3 612 615 171
3 615 1062 617
3 1063 1065 1066
3 1064 1063 1066
3 1066 1065 1067
3 1066 1067 623
3 1066 623 621
3 1066 621 1064
3 1064 621 179
3 1064 179 619
3 1064 619 1063
3 1063 619 176
3 1063 176 616
3 1063 616 1065
3 1065 616 618
3 1065 618 1067
3 1067 618 87
3 1067 87 625
3 1067 625 623
3 625 87 88
3 616 176 174
3 179 621 182
3 1068 1071 1072
3 1069 1068 1072
3 1071 1070 1073
3 1071 1073 1074
3 1072 1071 1074
3 1073 1076 1077
3 1074 1073 1077
3 1075 1074 1077
3 1075 1077 194
3 1075 194 191
3 1075 191 631
3 1075 631 1072
3 1075 1072 1074
3 1072 631 1069
3 1069 631 188
3 1069 188 185
3 1069 185 183
3 1069 183 1068
3 1068 183 622
3 1068 622 1070
3 1068 1070 1071
3 1070 622 624
3 1070 624 1073
3 1073 624 626
3 1073 626 1076
3 1076 626 90
3 1076 90 514
3 1076 514 1077
3 1077 514 194
3 194 514 91
3 194 91 197
3 94 198 93
3 1079 1078 1080
3 1079 1080 523
3 1079 523 97
3 1079 97 103
3 1079 103 1078
3 1078 103 200
3 1078 200 653
3 1078 653 651
3 1078 651 1080
3 1080 651 649
3 1080 649 96
3 1080 96 523
3 96 649 195
3 96 195 196
3 557 112 1081
3 557 1081 1082
3 557 1082 106
3 106 1082 105
3 105 1082 201
3 201 1082 203
3 203 1082 657
3 657 1082 1081
3 657 1081 659
3 659 1081 661
3 659 661 206
3 661 1081 663
3 663 1081 112
3 115 218 664
3 115 664 114
3 664 218 662
3 662 218 215
3 662 215 207
3 207 215 212
3 207 212 209
3 118 221 671
3 118 671 117
3 117 671 219
3 683 227 224
3 683 224 571
3 683 571 121
3 571 224 222
3 571 222 120
3 1084 1083 1088
3 1084 1088 1089
3 1085 1084 1089
3 1085 1089 1090
3 1086 1091 1092
3 1083 1086 1092
3 1083 1092 1087
3 1083 1087 1088
3 1088 1087 1094
3 1088 1094 1095
3 1089 1088 1095
3 1089 1095 1096
3 1090 1089 1096
3 1092 1091 1097
3 1087 1092 1097
3 1087 1097 1093
3 1087 1093 1094
3 1094 1093 1098
3 1094 1098 1099
3 1095 1094 1099
3 1093 1097 1098
3 1098 1097 124
3 1098 124 952
3 1098 952 1099
3 1099 952 135
3 1099 135 1095
3 1095 135 1096
3 1096 135 587
3 1096 587 1090
3 1090 587 136
3 1090 136 693
3 1090 693 1085
3 1085 693 233
3 1085 233 1084
3 1084 233 688
3 1084 688 1083
3 1083 688 1086
3 1086 688 230
3 1086 230 228
3 1086 228 1091
3 1091 228 684
3 1091 684 123
3 1091 123 1097
3 1097 123 124
3 127 130 953
3 127 953 126
3 953 130 133
3 1101 1103 1104
3 1102 1101 1104
3 1104 1103 1105
3 1104 1105 254
3 1104 254 708
3 1104 708 1102
3 1102 708 701
3 1102 701 245
3 1102 245 1100
3 1102 1100 1101
3 1101 1100 697
3 1101 697 1103
3 1103 697 234
3 1103 234 695
3 1103 695 1105
3 1105 695 138
3 1105 138 139
3 1105 139 254
3 697 1100 242
3 697 242 239
3 697 239 236
3 242 1100 245
3 701 708 703
3 703 708 251
3 703 251 248
3 257 249 723
3 142 148 1107
3 142 1107 141
3 141 1107 255
3 255 1107 1106
3 255 1106 715
3 715 1106 725
3 715 725 723
3 715 723 250
3 250 723 249
3 725 1106 727
3 727 1106 1107
3 727 1107 148
3 1108 1110 1111
3 1108 1111 1109
3 1108 1109 258
3 1108 258 724
3 1108 724 726
3 1108 726 1110
3 1110 726 728
3 1110 728 154
3 1110 154 157
3 1110 157 1111
3 1111 157 269
3 1111 269 1109
3 1109 269 266
3 1109 266 739
3 1109 739 263
3 1109 263 260
3 1109 260 258
3 154 728 151
3 151 728 150
3 1112 1113 1114
3 1112 1114 163
3 1112 163 272
3 1112 272 270
3 1112 270 159
3 1112 159 1113
3 1113 159 606
3 1113 606 608
3 1113 608 1114
3 1114 608 160
3 1114 160 163
3 761 284 273
3 761 273 165
3 761 165 166
3 273 284 275
3 275 284 757
3 275 757 748
3 748 757 281
3 748 281 278
3 169 172 168
3 1116 1115 1117
3 1116 1117 1118
3 1116 1118 767
3 1116 767 765
3 1116 765 763
3 1116 763 1115
3 1115 763 762
3 1115 762 168
3 1115 168 1117
3 1117 168 172
3 1117 172 1118
3 1118 172 175
3 1118 175 769
3 1118 769 767
3 767 769 290
3 762 763 287
3 762 287 285
3 178 293 291
3 178 291 620
3 620 291 770
3 620 770 177
3 296 294 774
3 181 184 1120
3 181 1120 1119
3 181 1119 180
3 180 1119 294
3 294 1119 774
3 774 1119 1120
3 774 1120 302
3 774 302 299
3 302 1120 783
3 783 1120 184
3 783 184 305
3 305 184 308
3 187 309 186
3 1122 1121 1123
3 1122 1123 805
3 1122 805 803
3 1122 803 311
3 1122 311 799
3 1122 799 1121
3 1121 799 796
3 1121 796 189
3 1121 189 634
3 1121 634 1123
3 1123 634 190
3 1123 190 807
3 1123 807 805
3 189 796 306
3 189 306 307
3 1124 1125 1126
3 1124 1126 813
3 1124 813 811
3 1124 811 809
3 1124 809 804
3 1124 804 1125
3 1125 804 806
3 1125 806 1127
3 1125 1127 654
3 1125 654 1126
3 1126 654 199
3 1126 199 202
3 1126 202 813
3 654 1127 652
3 652 1127 1128
3 652 1128 650
3 650 1128 808
3 650 808 192
3 650 192 193
3 808 1128 806
3 806 1128 1127
3 804 809 314
3 804 314 312
3 205 208 1129
3 205 1129 660
3 660 1129 658
3 658 1129 814
3 658 814 204
3 814 1129 812
3 812 1129 810
3 810 1129 815
3 810 815 315
3 815 1129 317
3 317 1129 208
3 211 326 210
3 210 326 318
3 318 326 838
3 318 838 1130
3 318 1130 817
3 817 1130 819
3 819 1130 835
3 819 835 833
3 819 833 821
3 821 833 831
3 821 831 823
3 823 831 829
3 823 829 825
3 825 829 320
3 825 320 301
3 301 320 300
3 835 1130 323
3 323 1130 838
3 862 341 844
3 862 844 327
3 862 327 213
3 862 213 214
3 844 341 858
3 844 858 846
3 846 858 1131
3 846 1131 329
3 329 1131 855
3 329 855 853
3 329 853 849
3 849 853 332
3 855 1131 335
3 335 1131 338
3 338 1131 858
3 672 220 1133
3 672 1133 866
3 672 866 864
3 672 864 1132
3 672 1132 217
3 217 1132 216
3 216 1132 863
3 863 1132 342
3 342 1132 864
3 866 1133 344
3 344 1133 347
3 347 1133 223
3 223 1133 220
3 226 229 348
3 226 348 225
3 348 229 350
3 698 235 1135
3 698 1135 232
3 232 1135 690
3 690 1135 1134
3 690 1134 231
3 231 1134 351
3 351 1134 235
3 235 1134 1135
3 238 359 1136
3 238 1136 237
3 237 1136 349
3 349 1136 874
3 349 874 1137
3 349 1137 346
3 346 1137 345
3 345 1137 872
3 872 1137 874
3 874 1136 876
3 876 1136 879
3 876 879 353
3 879 1136 359
3 879 359 356
3 241 360 240
3 891 365 362
3 891 362 1138
3 891 1138 244
3 244 1138 243
3 243 1138 358
3 358 1138 357
3 357 1138 362
3 247 256 704
3 256 259 1140
3 256 1140 1139
3 256 1139 704
3 704 1139 702
3 702 1139 892
3 702 892 246
3 892 1139 1140
3 892 1140 895
3 892 895 368
3 892 368 366
3 895 1140 371
3 371 1140 259
3 717 252 710
3 717 710 253
3 262 279 280
3 262 280 374
3 262 374 261
3 261 374 372
3 265 276 740
3 740 276 750
3 740 750 277
3 740 277 264
3 268 271 267
3 267 271 274
3 283 286 759
3 905 380 1141
3 905 1141 907
3 907 1141 1142
3 907 1142 286
3 286 1142 759
3 759 1142 375
3 759 375 282
3 375 1142 377
3 377 1142 1141
3 377 1141 380
3 1144 1145 1146
3 1144 1146 917
3 1144 917 906
3 1144 906 908
3 1144 908 1145
3 1145 908 764
3 1145 764 766
3 1145 766 1146
3 1146 766 768
3 1146 768 919
3 1146 919 917
3 919 768 289
3 919 289 295
3 295 289 292
3 764 908 288
3 906 917 915
3 906 915 1143
3 906 1143 381
3 381 1143 383
3 383 1143 386
3 386 1143 915
3 298 319 776
3 776 319 1147
3 776 1147 920
3 776 920 297
3 920 1147 918
3 918 1147 916
3 916 1147 922
3 916 922 387
3 922 1147 319
3 801 310 1150
3 801 1150 1149
3 801 1149 798
3 798 1149 1148
3 798 1148 785
3 798 785 304
3 785 1148 826
3 785 826 303
3 826 1148 824
3 824 1148 1149
3 824 1149 822
3 822 1149 1150
3 822 1150 820
3 820 1150 1151
3 820 1151 818
3 818 1151 816
3 818 816 316
3 816 1151 313
3 313 1151 310
3 310 1151 1150
3 1152 1154 1155
3 1153 1152 1155
3 1153 1155 1156
3 1153 1156 1157
3 1156 1155 1158
3 1156 1158 1159
3 1156 1159 1157
3 1157 1159 834
3 1157 834 836
3 1157 836 330
3 1157 330 851
3 1157 851 1153
3 1153 851 331
3 1153 331 1152
3 1152 331 392
3 1152 392 389
3 1152 389 1154
3 1154 389 384
3 1154 384 385
3 1154 385 924
3 1154 924 1155
3 1155 924 1158
3 1158 924 321
3 1158 321 830
3 1158 830 1159
3 1159 830 832
3 1159 832 834
3 330 836 322
3 847 328 324
3 847 324 1160
3 847 1160 845
3 845 1160 325
3 325 1160 840
3 840 1160 324
3 1161 1163 1164
3 1161 1164 1165
3 1161 1165 940
3 1161 940 938
3 1161 938 1163
3 1163 938 1162
3 1163 1162 398
3 1163 398 395
3 1163 395 1164
3 1164 395 393
3 1164 393 333
3 1164 333 1165
3 1165 333 854
3 1165 854 1166
3 1165 1166 942
3 1165 942 940
3 942 1166 334
3 334 1166 856
3 856 1166 854
3 398 1162 367
3 367 1162 364
3 364 1162 936
3 364 936 363
3 936 1162 938
3 1167 1168 1169
3 1167 1170 1168
3 1168 1170 354
3 1168 354 881
3 1168 881 1169
3 1169 881 355
3 1169 355 361
3 1169 361 937
3 1169 937 939
3 1169 939 1167
3 1167 939 941
3 1167 941 1170
3 1170 941 943
3 1170 943 336
3 1170 336 337
3 1170 337 354
3 1171 1172 1173
3 1171 1173 1174
3 1173 1172 1175
3 1173 1175 1176
3 1174 1173 1176
3 1174 1176 1177
3 1174 1177 875
3 1174 875 877
3 1174 877 1171
3 1171 877 352
3 1171 352 339
3 1171 339 1172
3 1172 339 860
3 1172 860 1175
3 1175 860 340
3 1175 340 865
3 1175 865 1176
3 1176 865 867
3 1176 867 1177
3 1177 867 343
3 1177 343 873
3 1177 873 875
3 370 373 376
3 370 376 896
3 896 376 399
3 896 399 369
3 379 382 396
3 379 396 397
3 379 397 378
3 396 382 388
3 391 394 390
