ply
format ascii 1.0
comment Generated by PyMesh
element vertex 1111
property float x
property float y
property float z
property float nx
property float ny
property float nz
element face 2219
property list uchar int vertex_indices
end_header
40.984 -28.524 5.425 -0.369 -0.492 0.789
41.754 -29.606 7.226 -0.882 0.23 -0.411
41.04 -28.212 5.727 -0.406 -0.699 0.588
41.78 -29.777 7.112 -0.864 0.107 -0.493
41.01 -28.695 5.312 -0.35 -0.614 0.708
41.884 -30.002 6.752 -0.933 0.258 -0.253
42.137 -30.423 6.232 -0.722 -0.093 -0.686
41.285 -29.152 4.747 -0.154 -0.94 0.304
41.804 -29.423 4.578 -0.5 -0.759 0.417
41.086 -27.685 2.745 -0.859 0.11 -0.5
40.678 -27.684 3.198 -0.588 0.109 -0.802
40.986 -26.658 2.297 -0.793 -0.575 -0.201
40.941 -25.713 3.357 -0.825 0.099 0.556
40.633 -26.739 4.258 -0.62 0.783 -0.045
40.717 -26.569 4.652 -0.676 0.67 -0.307
40.997 -25.636 3.419 -0.785 0.154 0.6
40.769 -26.498 4.709 -0.633 0.729 -0.26
41.067 -25.214 3.509 -0.832 -0.127 0.54
41.222 -25.058 3.714 -0.703 0.003 0.711
40.923 -26.342 4.914 -0.504 0.859 -0.089
41.646 -25.29 4.867 -0.986 0.158 -0.058
42.005 -25.494 5.808 -0.687 -0.012 0.727
41.282 -26.546 5.855 -0.205 0.689 0.695
42.184 -25.664 7.771 -0.807 0.101 -0.582
42.188 -26.803 8.207 -0.805 -0.468 -0.364
41.284 -27.432 6.195 -0.203 -0.049 0.978
42.288 -27.836 8.318 -0.872 0.221 -0.438
42.263 -28.055 8.285 -0.884 0.111 -0.454
41.265 -27.602 6.169 -0.219 -0.191 0.957
41.998 -28.943 7.707 -0.708 0.703 -0.068
42.133 -28.209 8.565 -0.949 0.034 -0.314
41.889 -29.073 7.943 -0.786 0.61 0.101
42.035 -28.119 8.797 -0.883 -0.025 -0.469
42.04 -28.657 9.432 -0.879 -0.474 0.06
41.894 -29.657 8.632 -0.782 0.193 0.593
42.14 -28.9 9.381 -0.946 -0.312 0.094
42.626 -29.564 9.803 -0.702 -0.643 0.305
42.305 -30.217 8.989 -0.488 -0.207 0.848
43.059 -30.423 10.087 -0.991 -0.07 0.115
43.169 -30.986 9.88 -0.936 -0.352 0.012
42.398 -30.693 8.814 -0.422 -0.547 0.723
43.24 -31.242 9.922 -0.983 -0.182 -0.016
43.812 -31.797 9.256 -0.507 -0.645 -0.572
43.019 -31.297 8.09 0.022 -0.978 0.205
43.904 -31.701 9.023 -0.568 -0.709 -0.417
43.929 -31.705 8.997 -0.556 -0.712 -0.43
43.04 -31.301 8.068 0.037 -0.981 0.19
44.299 -31.974 7.947 -0.802 -0.532 0.271
44.275 -31.994 7.808 -0.82 -0.547 0.172
43.016 -31.321 7.929 0.019 -0.996 0.091
43.022 -31.424 7.504 0.016 -0.927 0.374
44.388 -32.07 7.139 -0.739 -0.601 -0.306
43.126 -31.493 6.888 0.103 -0.985 -0.139
44.482 -32.123 6.387 -0.801 -0.565 0.196
44.337 -31.928 5.822 -0.882 -0.457 -0.118
43.008 -31.334 6.428 0.004 -0.853 -0.522
43.915 -31.431 5.444 -0.6 -0.788 0.134
43.448 -30.743 4.982 -0.934 -0.297 -0.196
42.578 -30.701 6.003 -0.354 -0.325 -0.877
42.371 -29.782 4.284 -0.216 -0.938 0.269
43.655 -30.84 4.56 -0.786 -0.366 -0.498
42.617 -29.896 3.784 -0.094 -0.995 0.02
43.546 -30.394 4.152 -0.713 -0.663 -0.226
43.777 -30.345 3.635 -0.598 -0.639 -0.484
42.847 -29.847 3.267 0.022 -0.971 -0.239
42.842 -29.806 3.003 0.026 -0.998 -0.063
43.496 -29.024 2.184 0.571 -0.346 -0.745
43.688 -28.841 2.215 0.442 -0.468 -0.765
44.75 -29.357 2.501 -0.266 -0.124 -0.956
44.969 -28.975 2.475 -0.083 0.194 -0.977
43.969 -28.35 2.182 0.583 -0.222 -0.782
44.123 -27.762 1.948 0.48 -0.614 -0.626
41.961 -27.265 1.778 -0.6 -0.366 -0.711
41.808 -27.853 2.012 -0.498 0.026 -0.867
41.596 -26.799 1.677 -0.357 -0.677 -0.644
43.324 -25.091 1.824 0.081 0.721 -0.688
42.747 -24.962 1.716 0.465 0.635 -0.616
42.679 -24.594 1.941 0.511 0.39 -0.766
43.4 -25.011 1.924 0.119 0.761 -0.638
42.738 -24.532 2.019 0.56 0.441 -0.701
43.703 -23.68 2.45 -0.084 -0.126 -0.988
42.231 -22.951 3.386 -0.82 0.239 -0.52
41.593 -23.964 2.748 -0.394 0.914 -0.095
41.893 -22.959 3.755 -0.594 0.244 -0.766
41.519 -24.01 4.822 -0.862 -0.507 -0.004
41.248 -24.932 3.73 -0.681 0.107 0.724
41.672 -25.165 4.883 -0.964 0.262 -0.045
41.979 -23.939 5.825 -0.533 -0.456 0.712
42.096 -25.099 5.806 -0.611 0.317 0.725
42.456 -24.606 7.68 -0.851 -0.011 -0.524
42.447 -24.672 7.699 -0.856 -0.044 -0.515
42.088 -25.15 5.821 -0.617 0.274 0.737
42.292 -25.222 7.788 -0.753 0.322 -0.574
44.923 -24.911 10.548 0.382 -0.164 0.91
44.768 -25.461 10.637 0.485 0.203 0.851
45.514 -24.792 10.458 -0.012 -0.243 0.97
45.551 -24.836 10.446 0.006 -0.265 0.964
44.804 -25.505 10.625 0.503 0.181 0.845
45.758 -25.873 10.551 -0.133 0.426 0.895
45.496 -26.581 10.684 -0.264 0.073 0.962
44.542 -26.212 10.759 0.372 -0.173 0.912
44.895 -26.692 10.658 0.136 0.147 0.98
44.778 -26.785 10.681 0.068 0.093 0.993
44.416 -26.312 10.784 0.309 -0.223 0.925
44.516 -27.345 10.895 0.243 0.466 0.851
42.583 -27.586 10.387 -0.724 0.346 0.597
42.483 -26.553 10.277 -0.657 -0.343 0.671
42.384 -27.635 10.215 -0.591 0.378 0.712
42.178 -27.616 9.974 -0.763 0.394 0.512
42.218 -26.528 9.967 -0.79 -0.331 0.516
42.066 -26.478 9.8 -0.689 -0.364 0.627
41.956 -26.667 8.632 -0.78 -0.521 -0.347
42.077 -26.771 8.465 -0.86 -0.452 -0.235
42.069 -27.805 8.805 -0.854 0.237 -0.462
42.089 -27.819 8.763 -0.838 0.225 -0.497
42.103 -26.789 8.41 -0.847 -0.462 -0.262
42.203 -27.822 8.521 -0.914 0.227 -0.336
44.923 -26.854 10.67 0.153 0.051 0.987
44.671 -27.42 10.883 0.32 0.428 0.845
45.526 -26.755 10.698 -0.249 -0.015 0.968
45.558 -26.795 10.705 -0.233 -0.035 0.972
44.704 -27.46 10.89 0.336 0.409 0.848
44.882 -27.948 11.197 0.217 0.734 0.644
43.445 -29.31 11.048 -0.809 -0.239 0.537
43.003 -29.073 10.713 -0.514 -0.398 0.76
43.436 -29.932 10.997 -0.803 0.175 0.57
43.576 -29.319 11.211 -0.716 -0.246 0.653
43.59 -29.942 11.191 -0.726 0.17 0.667
43.967 -30.005 12.214 -0.977 0.212 -0.015
44.273 -31.088 12.212 -0.722 -0.691 -0.017
43.983 -31.335 11.188 -0.529 -0.527 0.665
44.523 -31.44 12.142 -0.889 -0.457 0.029
44.666 -31.662 12.045 -0.787 -0.615 -0.04
44.152 -31.598 11.072 -0.445 -0.658 0.608
44.64 -31.79 11.451 -0.77 -0.53 0.355
44.681 -31.913 11.336 -0.75 -0.591 0.298
44.192 -31.72 10.958 -0.424 -0.719 0.55
44.036 -31.812 10.76 -0.32 -0.658 0.682
45.178 -32.434 10.429 -0.501 -0.851 -0.156
44.423 -32.218 10.055 0.003 -0.996 0.094
44.69 -32.241 10.05 -0.175 -0.98 0.097
44.306 -32.018 9.189 -0.368 -0.868 -0.334
44.124 -32.044 9.385 -0.247 -0.851 -0.464
44.617 -32.238 8.109 -0.575 -0.721 0.386
44.348 -32.028 7.977 -0.767 -0.571 0.292
43.876 -31.85 9.264 -0.453 -0.689 -0.565
43.987 -31.769 9.033 -0.527 -0.743 -0.412
45.182 -32.229 9.423 0.07 -0.974 -0.217
45.357 -32.417 8.306 -0.046 -0.848 0.527
45.67 -32.422 9.801 -0.255 -0.845 -0.469
45.891 -32.446 9.752 -0.145 -0.857 -0.494
45.543 -32.437 8.265 0.087 -0.863 0.498
46.131 -32.547 9.81 -0.305 -0.79 -0.533
47.058 -32.112 9.52 0.468 -0.427 -0.774
46.55 -31.964 7.95 0.806 -0.525 0.273
47.083 -31.886 9.379 0.451 -0.578 -0.68
47.202 -31.703 9.322 0.511 -0.486 -0.709
46.652 -31.809 7.901 0.878 -0.415 0.238
47.039 -31.829 7.247 0.62 -0.402 0.674
46.647 -32.384 7.074 0.402 -0.71 0.578
46.304 -32.301 7.748 0.63 -0.766 0.129
46.596 -32.956 6.684 0.436 -0.329 0.838
44.753 -32.816 6.092 -0.881 -0.229 0.415
44.462 -32.161 7.156 -0.686 -0.665 -0.294
44.565 -32.225 6.406 -0.755 -0.622 0.206
44.59 -32.593 5.479 -0.997 -0.069 -0.023
44.38 -31.973 5.712 -0.858 -0.482 -0.179
43.953 -31.471 5.347 -0.573 -0.817 0.064
45.29 -32.333 4.308 -0.497 0.117 -0.86
44.653 -31.211 4.176 -0.073 -0.631 -0.772
44.728 -30.833 3.697 -0.123 -0.883 -0.453
46.33 -32.046 4.231 0.246 0.322 -0.914
45.959 -30.494 3.606 0.493 -0.713 -0.498
46.346 -31.355 4.302 0.235 -0.139 -0.962
46.853 -30.982 4.497 0.516 0.068 -0.854
46.489 -30.103 3.811 0.758 -0.518 -0.396
47.38 -30.562 4.661 0.164 -0.212 -0.963
47.744 -29.367 5.116 0.424 0.642 -0.639
46.92 -28.688 4.348 0.974 0.189 -0.127
46.949 -28.555 4.579 0.954 0.101 -0.281
46.792 -28.148 4.488 0.824 0.44 -0.358
46.719 -28.165 4.23 0.873 0.451 -0.186
46.945 -26.466 3.767 0.722 -0.681 0.122
46.241 -26.515 2.806 0.135 -0.722 -0.679
45.814 -28.228 2.994 0.42 0.42 -0.804
46.141 -26.397 2.633 0.202 -0.801 -0.564
46.001 -26.383 2.574 0.132 -0.794 -0.593
45.673 -28.214 2.935 0.35 0.426 -0.834
44.878 -27.021 2.132 0.88 -0.369 -0.299
44.755 -27.171 2.023 0.777 -0.494 -0.39
45.515 -28.407 2.794 0.271 0.33 -0.904
45.448 -28.632 2.666 0.316 0.48 -0.818
44.562 -29.826 2.753 -0.423 -0.515 -0.746
44.376 -29.942 2.907 -0.299 -0.438 -0.848
43.307 -29.493 2.436 0.414 -0.737 -0.535
44.443 -27.391 1.861 0.517 -0.676 -0.525
45.135 -28.851 2.504 0.055 0.297 -0.953
44.337 -27.603 1.985 0.587 -0.535 -0.607
44.232 -25.927 1.571 0.342 0.543 -0.767
44.066 -25.721 1.611 0.452 0.406 -0.794
45.17 -24.977 1.852 -0.284 -0.091 -0.955
44.645 -24.297 2.162 -0.547 0.249 -0.8
43.541 -25.042 1.922 0.189 0.745 -0.639
43.844 -23.712 2.447 -0.013 -0.142 -0.99
44.829 -24.039 2.148 -0.455 0.378 -0.807
44.029 -23.453 2.433 0.079 -0.013 -0.997
44.937 -23.021 2.131 -0.527 -0.301 -0.795
44.633 -22.292 2.258 -0.679 0.064 -0.731
43.724 -22.724 2.561 -0.073 0.352 -0.933
44.118 -22.273 2.572 -0.336 0.052 -0.941
43.409 -21.523 3.43 -0.753 0.493 -0.436
42.961 -21.917 3.484 -0.455 0.755 -0.472
43.435 -21.225 3.625 -0.77 0.294 -0.566
43.248 -21.128 4.35 -0.926 0.375 0.039
42.721 -21.792 4.416 -0.575 0.818 -0.005
42.307 -21.979 4.625 -0.299 0.943 -0.145
43.465 -21.143 4.976 -0.745 0.362 0.56
42.543 -21.996 5.305 -0.13 0.931 0.341
43 -21.812 5.221 -0.435 0.808 0.397
43.219 -22.464 6.053 -0.326 0.482 0.813
42.727 -22.547 6.008 0.002 0.538 0.843
43.342 -22.959 7.897 -0.408 0.812 -0.416
43.237 -23.004 7.921 -0.461 0.79 -0.404
42.638 -22.585 6.028 -0.062 0.511 0.857
43.09 -22.976 8.098 -0.363 0.772 -0.522
42.594 -23.436 8.129 -0.776 0.388 -0.497
42.1 -23.085 6.062 -0.447 0.154 0.881
42.6 -23.595 7.961 -0.78 0.494 -0.384
43.926 -22.271 6.058 0.027 0.578 0.815
44.049 -22.767 7.901 -0.055 0.909 -0.414
45.019 -22.33 7.815 -0.701 0.617 -0.356
45.205 -22.236 8.952 -0.569 0.684 0.456
44.269 -22.656 9.248 0.055 0.964 0.259
44.861 -22.536 9.157 -0.339 0.885 0.32
47.356 -23.182 8.666 0.968 0.009 0.252
47.406 -23.656 8.819 0.934 0.325 0.15
47.919 -24.329 8.701 0.592 0.773 0.229
47.796 -24.597 9.24 0.489 0.549 0.678
47.248 -24.001 9.511 0.854 0.152 0.497
47.518 -24.54 9.457 0.674 0.512 0.533
46.627 -25.19 10.218 0.15 0.13 0.98
46.289 -24.7 10.33 0.375 -0.197 0.906
46.497 -25.737 10.434 0.236 0.494 0.836
47.726 -25.584 9.565 0.797 -0.103 0.596
47.68 -26.162 9.731 0.828 0.282 0.485
47.97 -25.47 9.33 0.634 -0.179 0.752
48.191 -25.743 8.914 0.819 -0.406 0.406
47.964 -26.512 9.197 0.97 0.107 0.218
48.117 -26.986 9.134 0.868 0.422 0.26
47.441 -27.672 10.058 0.386 -0.068 0.92
47.165 -27.325 10.291 0.57 -0.3 0.765
47.411 -29.074 11.003 0.406 0.867 0.29
47.298 -29.058 11.084 0.312 0.88 0.359
47.02 -27.305 10.396 0.498 -0.289 0.818
47.087 -29.021 11.244 0.453 0.855 0.252
46.231 -28.903 11.55 0.026 0.914 0.405
46.164 -27.187 10.702 0.07 -0.23 0.971
45.395 -28.279 11.195 0.583 0.497 0.642
46.068 -29.003 11.742 -0.056 0.864 0.501
45.257 -28.363 11.356 0.485 0.437 0.757
45.515 -29.125 12.348 0.313 0.945 0.097
46.485 -29.332 12.136 0.153 0.7 0.698
45.84 -29.38 12.655 0.583 0.732 0.352
46.225 -29.585 12.623 0.326 0.869 0.373
47.841 -29.876 9.918 0.765 0.199 -0.613
47.785 -30.072 9.745 0.802 0.33 -0.498
47.909 -28.543 8.88 0.72 -0.69 0.079
47.849 -28.607 8.755 0.677 -0.736 -0.01
47.714 -30.148 9.597 0.767 0.292 -0.572
47.391 -29.7 8.46 0.982 -0.007 0.186
47.367 -30.001 8.335 0.963 -0.259 0.081
47.683 -30.536 9.435 0.752 0.098 -0.652
47.318 -30.25 8.421 0.995 -0.093 0.024
47.288 -30.459 8.373 0.98 -0.197 0
47.653 -30.745 9.387 0.737 -0.007 -0.676
47.926 -30.501 7.151 0.555 -0.169 0.815
47.81 -30.861 7.091 0.471 -0.426 0.772
47.515 -31.17 9.317 0.668 -0.219 -0.711
47.15 -30.884 8.303 0.911 -0.41 -0.035
46.991 -31.17 8.28 0.832 -0.553 -0.047
47.356 -31.456 9.294 0.588 -0.362 -0.723
47.186 -31.593 7.221 0.701 -0.271 0.659
47.058 -31.058 8.247 0.866 -0.497 -0.063
47.251 -31.486 7.189 0.737 -0.212 0.642
47.732 -31.008 7.044 0.416 -0.53 0.739
47.976 -31.394 5.948 0.59 -0.806 -0.044
47.526 -31.922 5.951 0.89 -0.454 -0.046
47.374 -32.548 5.69 0.991 -0.037 0.128
47.721 -31.049 5 0.408 -0.56 -0.721
47.119 -32.203 4.742 0.809 0.209 -0.549
47.237 -31.532 4.88 0.73 -0.237 -0.641
47.317 -30.263 8.379 0.995 -0.1 0.003
47.951 -30.336 7.156 0.572 -0.051 0.818
47.366 -30.012 8.302 0.962 -0.267 0.054
47.411 -29.648 8.227 0.999 0.036 -0.008
48 -29.941 7.074 0.607 0.232 0.76
47.871 -28.55 8.502 0.693 -0.695 -0.191
47.554 -27.583 7.531 0.466 -0.004 -0.885
47.682 -28.974 6.104 0.38 0.922 0.067
47.298 -27.22 7.3 0.637 -0.247 -0.73
47.147 -27.162 7.165 0.562 -0.218 -0.798
47.555 -28.925 5.99 0.29 0.957 -0.015
46.776 -28.149 5.384 0.81 0.439 0.389
46.989 -26.846 7.013 0.482 -0.06 -0.874
46.652 -27.902 5.266 0.707 0.645 0.291
46.866 -26.018 4.87 0.564 -0.612 0.555
47.069 -26.26 4.048 0.666 -0.732 0.143
46.81 -28.09 4.626 0.838 0.488 -0.242
46.963 -26.409 3.906 0.737 -0.633 0.238
47.186 -26.44 7.159 0.581 0.143 -0.801
47.064 -25.612 5.016 0.663 -0.409 0.627
47.268 -25.843 7.173 0.527 -0.255 -0.811
47.374 -25.595 7.191 0.589 -0.109 -0.8
47.178 -25.346 5.035 0.72 -0.275 0.637
47.675 -25.48 7.344 0.388 -0.186 -0.902
47.726 -25.306 7.345 0.431 -0.041 -0.901
47.243 -25.122 5.036 0.753 -0.164 0.638
47.575 -24.67 4.931 0.532 -0.465 0.708
45.182 -23.589 2.03 -0.665 0.075 -0.743
44.85 -24.041 2.135 -0.444 0.377 -0.813
44.958 -23.023 2.118 -0.516 -0.302 -0.802
47.723 -22.637 2.368 0.606 0.551 -0.574
47.5 -22.072 2.456 0.755 0.174 -0.633
47.583 -21.583 2.554 0.7 -0.152 -0.698
45.684 -20.348 3.261 -0.656 0.73 -0.193
45.253 -20.611 3.293 -0.369 0.905 -0.214
44.511 -20.545 3.712 0.126 0.861 -0.493
44.231 -20.845 3.363 -0.106 0.611 -0.784
44.894 -20.996 2.844 -0.548 0.712 -0.439
44.361 -21.068 3.117 -0.193 0.76 -0.62
46.061 -20.371 4.349 -0.387 0.713 0.584
44.857 -20.566 4.713 0.415 0.843 0.341
45.699 -20.638 4.58 -0.146 0.891 0.43
45.688 -21.053 5.149 -0.151 0.684 0.714
44.849 -20.889 5.156 0.408 0.574 0.71
45.099 -21.121 5.26 0.241 0.729 0.64
44.15 -21.576 5.579 -0.317 0.462 0.828
44.055 -21.269 5.423 -0.254 0.257 0.932
43.758 -21.974 5.795 -0.056 0.727 0.684
44.442 -21.761 5.742 -0.145 0.353 0.924
44.073 -22.173 5.971 0.101 0.628 0.772
45.143 -22.246 7.741 -0.613 0.677 -0.408
45.184 -21.511 5.557 0.291 0.5 0.816
45.818 -22.02 7.573 -0.131 0.839 -0.528
45.78 -21.472 5.469 -0.106 0.474 0.874
47.236 -22.614 5.274 0.623 -0.097 0.776
47.048 -22.984 7.408 0.748 0.15 -0.646
47.46 -23.179 5.186 0.474 0.28 0.835
47.518 -23.552 5.234 0.503 0.093 0.859
47.098 -23.299 7.449 0.783 -0.075 -0.617
47.101 -23.795 7.378 0.781 0.255 -0.57
47.25 -23.815 7.607 0.856 0.246 -0.456
47.224 -23.316 7.642 0.873 -0.087 -0.479
47.798 -24.452 7.759 0.491 0.67 -0.557
47.141 -23.984 7.364 0.801 0.161 -0.577
47.713 -24.583 7.57 0.42 0.56 -0.714
47.558 -23.741 5.221 0.523 -0.001 0.852
47.963 -22.098 3.802 0.986 0.161 0.04
48.187 -22.664 3.714 0.837 0.538 0.099
47.974 -21.605 3.691 0.979 -0.168 0.114
47.442 -25.867 7.312 0.629 -0.269 -0.729
47.732 -25.707 7.446 0.436 -0.376 -0.818
47.374 -26.465 7.308 0.675 0.13 -0.726
47.806 -26.69 7.853 0.891 0.018 -0.454
48.068 -25.881 7.87 0.716 -0.521 -0.465
47.983 -27.136 7.999 0.773 0.315 -0.551
41.506 -28.696 5.728 -0.716 -0.377 0.587
41.839 -28.966 6.184 -0.939 -0.197 0.283
41.927 -29.288 6.714 -0.997 0.018 -0.07
41.521 -28.799 5.659 -0.691 -0.544 0.476
41.851 -29.046 6.131 -0.911 -0.38 0.161
41.943 -29.392 6.645 -0.972 -0.149 -0.182
41.645 -29.01 5.641 -0.774 -0.404 0.488
41.965 -29.489 6.169 -0.987 -0.085 0.136
41.8 -29.266 5.324 -0.497 -0.864 -0.08
42.112 -29.732 5.868 -0.705 -0.554 -0.443
41.026 -29.143 4.16 -0.339 -0.934 -0.115
41.498 -29.413 3.884 -0.653 -0.754 0.07
40.811 -28.843 3.636 -0.493 -0.72 -0.489
41.242 -29.058 3.264 -0.781 -0.576 -0.241
40.685 -28.318 3.29 -0.583 -0.344 -0.736
41.094 -28.436 2.854 -0.855 -0.266 -0.445
40.967 -27.125 2.846 -0.78 -0.264 -0.567
40.437 -27.179 3.691 -0.76 0.469 -0.45
40.76 -26.691 3.269 -0.975 0.143 -0.17
40.745 -26.153 2.789 -0.965 -0.215 0.15
40.928 -26.313 3.758 -0.817 0.499 0.289
40.238 -27.347 4.676 -0.902 0.349 0.253
40.353 -27.128 5.036 -0.979 0.204 0.013
40.374 -28.037 5.127 -0.805 -0.144 0.576
40.478 -27.764 5.452 -0.875 -0.326 0.359
41.024 -26.241 3.973 -0.88 0.451 0.146
41.067 -26.182 4.02 -0.832 0.518 0.199
41.102 -26.181 4.276 -0.855 0.518 0.028
41.208 -25.726 3.851 -0.926 0.214 0.312
41.215 -26.067 4.426 -0.698 0.676 0.236
41.321 -25.612 4.001 -0.769 0.372 0.52
41.402 -25.896 4.902 -0.823 0.562 -0.081
41.714 -26.073 5.719 -0.493 0.374 0.786
41.793 -26.59 6.25 -0.546 0.718 0.432
42.152 -26.432 6.766 -0.785 0.613 0.088
42.291 -26.103 7.307 -0.878 0.394 -0.273
41.795 -27.133 6.458 -0.543 -0.248 0.802
42.153 -26.903 6.947 -0.782 -0.401 0.476
42.293 -26.786 7.568 -0.875 -0.48 0.062
41.89 -27.582 6.471 -0.606 0.051 0.793
42.307 -27.717 6.994 -0.884 0.141 0.445
42.449 -27.808 7.656 -0.979 0.202 0.004
41.879 -27.674 6.458 -0.629 -0.143 0.765
42.298 -27.79 6.984 -0.908 -0.065 0.414
42.436 -27.926 7.638 -0.999 0.026 -0.022
41.662 -28.035 6.3 -0.484 0.098 0.87
41.942 -28.444 6.64 -0.67 0.371 0.643
42.06 -28.764 7.136 -0.749 0.584 0.313
41.522 -28.414 6.025 -0.728 -0.565 0.389
41.829 -28.752 6.417 -0.932 -0.34 0.128
41.91 -29.171 6.84 -0.986 -0.06 -0.154
42.096 -28.643 8.4 -0.924 0.324 -0.204
42.101 -29.135 8.979 -0.919 -0.156 0.361
42.815 -30.295 9.452 -0.828 -0.156 0.539
42.905 -30.759 9.281 -0.76 -0.504 0.411
42.981 -30.883 9.287 -0.81 -0.421 0.407
43.471 -31.36 8.715 -0.28 -0.936 -0.211
43.511 -31.348 8.575 -0.306 -0.945 -0.118
43.531 -31.351 8.554 -0.291 -0.947 -0.134
43.749 -31.481 7.96 -0.436 -0.861 0.262
43.728 -31.498 7.841 -0.455 -0.878 0.149
42.231 -31.104 7.803 -0.541 -0.841 0.001
42.299 -31.224 7.388 -0.587 -0.761 0.277
41.755 -30.509 7.488 -0.881 -0.416 -0.224
41.861 -30.677 7.098 -0.952 -0.305 0.036
43.728 -31.562 7.602 -0.455 -0.835 0.309
43.82 -31.623 7.058 -0.36 -0.898 -0.252
43.896 -31.604 6.63 -0.411 -0.911 0.034
43.788 -31.459 6.209 -0.516 -0.77 -0.376
43.515 -31.237 5.971 -0.333 -0.918 -0.217
43.127 -30.667 5.588 -0.72 -0.348 -0.6
42.633 -30.138 5.582 -0.391 -0.701 -0.596
42.559 -29.807 4.963 -0.342 -0.922 -0.184
42.291 -29.921 5.76 -0.824 -0.427 -0.371
42.171 -29.562 5.165 -0.745 -0.667 0.026
43.068 -30.093 4.623 -0.681 -0.731 0.043
43.257 -30.181 4.238 -0.521 -0.806 -0.283
43.128 -30.048 3.98 -0.435 -0.894 -0.111
43.346 -30.002 3.493 -0.31 -0.867 -0.389
41.968 -29.521 2.914 -0.418 -0.808 -0.416
42.158 -29.553 2.728 -0.545 -0.786 -0.292
41.96 -28.831 2.186 -0.422 -0.463 -0.779
42.152 -29.016 2.162 -0.55 -0.34 -0.763
42.832 -28.487 1.832 0.014 -0.291 -0.957
42.83 -28.748 1.886 0.016 -0.116 -0.993
44.207 -29.057 2.479 0.096 -0.324 -0.941
44.434 -28.66 2.452 0.273 -0.015 -0.962
43.452 -28.326 1.9 0.324 -0.211 -0.922
43.605 -27.738 1.667 0.222 -0.603 -0.767
42.885 -28.229 1.773 0.04 -0.162 -0.986
43.038 -27.641 1.539 -0.062 -0.554 -0.83
42.32 -28.066 1.811 -0.242 -0.081 -0.967
42.473 -27.478 1.578 -0.344 -0.473 -0.811
41.753 -27.288 1.934 -0.461 -0.351 -0.815
41.134 -27.144 2.563 -0.891 -0.251 -0.378
42.002 -26.48 1.331 -0.067 -0.449 -0.891
42.441 -26.888 1.368 -0.36 -0.177 -0.916
42.377 -25.999 1.215 0.2 -0.105 -0.974
42.885 -26.318 1.231 -0.139 0.108 -0.985
42.644 -25.456 1.353 0.391 0.283 -0.876
43.201 -25.675 1.394 0.02 0.429 -0.903
42.081 -24.922 1.532 -0.011 0.664 -0.748
42.065 -24.557 1.772 -0.001 0.42 -0.907
41.413 -25.006 1.697 -0.488 0.604 -0.63
41.451 -24.634 1.923 -0.513 0.356 -0.781
40.935 -25.19 2.162 -0.829 0.473 -0.298
41.01 -24.803 2.352 -0.88 0.215 -0.424
40.781 -25.422 2.796 -0.939 0.307 0.155
40.869 -25.017 2.936 -0.997 0.037 0.062
43.177 -24.135 2.388 0.267 0.177 -0.947
42.147 -24.058 2.207 0.068 0.836 -0.545
42.581 -23.657 2.578 -0.222 0.568 -0.792
42.944 -23.072 2.691 -0.464 0.178 -0.868
42.022 -23.562 3.123 -0.681 0.646 -0.345
41.849 -23.586 3.344 -0.565 0.662 -0.492
41.171 -24.357 3.241 -0.746 0.586 0.316
41.482 -23.928 3.773 -0.953 0.3 -0.038
41.435 -23.386 4.291 -0.921 -0.061 -0.384
41.549 -24.428 4.199 -0.882 -0.229 0.411
41.584 -25.076 4.255 -0.905 0.203 0.374
41.561 -25.186 4.242 -0.929 0.088 0.359
41.712 -24.572 4.855 -0.991 -0.133 -0.026
42.11 -24.51 5.724 -0.621 -0.076 0.78
42.528 -25.007 6.362 -0.899 0.256 0.355
42.658 -24.83 7.037 -0.986 0.138 -0.096
42.522 -25.047 6.374 -0.906 0.206 0.369
42.651 -24.875 7.05 -0.992 0.091 -0.082
42.454 -25.303 6.414 -0.861 0.377 0.342
42.527 -25.329 7.123 -0.91 0.394 -0.131
42.389 -25.568 6.404 -0.944 0.037 0.329
42.454 -25.629 7.112 -0.987 0.078 -0.143
42.059 -25.064 8.357 -0.869 0.401 -0.289
42.214 -24.515 8.269 -0.973 0.034 -0.23
42.019 -24.953 8.981 -0.889 0.457 0.023
42.174 -24.404 8.893 -0.993 0.09 0.082
42.176 -24.899 9.594 -0.811 0.484 0.329
42.331 -24.349 9.506 -0.914 0.117 0.388
42.514 -24.907 10.132 -0.642 0.479 0.598
42.669 -24.358 10.043 -0.745 0.113 0.657
42.997 -24.978 10.538 -0.401 0.444 0.801
43.151 -24.429 10.45 -0.504 0.078 0.86
43.574 -25.103 10.77 -0.112 0.381 0.918
43.729 -24.554 10.682 -0.215 0.015 0.976
44.186 -25.27 10.804 0.194 0.298 0.935
44.341 -24.721 10.716 0.091 -0.068 0.994
43.72 -26.37 10.869 -0.039 -0.252 0.967
43.82 -27.403 10.98 -0.106 0.437 0.893
43.044 -26.454 10.691 -0.377 -0.294 0.878
43.143 -27.487 10.802 -0.444 0.395 0.804
42.145 -26.501 9.881 -0.742 -0.349 0.573
41.871 -25.338 9.03 -0.963 0.264 0.047
41.838 -25.447 9.051 -0.941 0.336 0.034
41.796 -25.553 9.072 -0.913 0.407 0.02
42.021 -26.716 8.55 -0.822 -0.488 -0.292
42.115 -27.218 8.769 -0.886 -0.154 -0.438
41.952 -27.724 9.408 -0.952 0.304 0.04
42.011 -27.146 9.309 -0.991 -0.082 0.106
41.84 -26.586 9.235 -0.877 -0.455 0.155
42.213 -27.049 9.816 -0.787 0.016 0.617
42.219 -28.381 10.127 -0.729 -0.244 0.639
42.371 -28.546 10.275 -0.83 -0.134 0.541
43.911 -27.729 11.113 -0.06 0.274 0.96
44.212 -28.175 11.385 -0.261 0.571 0.778
43.284 -28.324 11.048 -0.374 -0.023 0.927
43.683 -28.678 11.33 -0.64 0.212 0.739
42.746 -29.339 10.298 -0.642 -0.531 0.552
43.179 -30.199 10.582 -0.931 0.042 0.363
43.613 -30.688 11.197 -0.714 -0.203 0.67
43.985 -30.585 12.219 -0.962 -0.272 -0.011
43.476 -31.143 10.757 -0.782 -0.43 0.45
43.479 -31.363 10.604 -0.784 -0.284 0.552
44.448 -31.992 8.754 -0.463 -0.885 -0.044
44.228 -31.819 8.646 -0.687 -0.71 -0.154
44.247 -31.818 8.513 -0.7 -0.711 -0.065
44.198 -31.763 8.482 -0.735 -0.673 -0.086
44.519 -32.03 8.646 -0.51 -0.86 0.029
45.268 -32.211 8.845 0.013 -0.986 0.168
45.55 -32.214 9.047 -0.175 -0.984 0.034
45.724 -32.233 9.008 -0.034 -0.999 0.002
45.87 -32.245 9.043 -0.131 -0.991 -0.021
46.614 -31.896 8.81 0.764 -0.571 -0.301
46.664 -31.791 8.714 0.73 -0.641 -0.237
46.758 -31.647 8.669 0.807 -0.523 -0.274
46.365 -32.541 7.139 0.59 -0.605 0.535
45.642 -32.6 7.75 0.157 -0.979 0.13
45.778 -32.806 7.141 0.066 -0.841 0.536
45.933 -33.255 6.686 -0.038 -0.542 0.839
44.952 -32.547 7.529 -0.336 -0.941 -0.028
45.167 -32.759 6.945 -0.479 -0.8 0.361
45.243 -33.202 6.465 -0.53 -0.505 0.681
44.732 -32.417 6.615 -0.867 -0.495 0.067
44.4 -31.959 5.41 -0.871 -0.491 0.023
44.156 -31.437 4.652 -0.429 -0.793 -0.432
44.578 -31.93 4.795 -0.711 -0.465 -0.528
44.792 -32.559 4.783 -0.853 -0.045 -0.52
45.018 -31.73 4.375 -0.316 -0.285 -0.905
44.1 -31.068 4.267 -0.469 -0.529 -0.707
44.072 -30.664 3.805 -0.451 -0.799 -0.399
44.999 -31.208 4.085 -0.304 -0.634 -0.711
45.198 -31.736 4.3 -0.436 -0.281 -0.855
45.972 -30.939 4.014 0.484 -0.416 -0.77
46.103 -31.486 4.234 0.397 -0.051 -0.916
46.105 -30.869 4.049 0.395 -0.463 -0.793
46.588 -30.513 4.235 0.692 -0.244 -0.679
46.857 -30.271 4.351 0.513 -0.406 -0.756
46.826 -29.369 3.914 0.927 -0.151 -0.345
47.136 -29.662 4.436 0.72 0.044 -0.693
47.665 -29.942 4.749 0.368 0.231 -0.901
47.214 -29.097 4.797 0.778 0.462 -0.426
46.537 -27.58 4.091 0.994 0.061 -0.093
46.617 -26.978 3.927 0.94 -0.34 0.016
46.44 -28.288 3.489 0.734 0.39 -0.557
46.33 -27.671 3.539 0.807 -0.022 -0.59
46.432 -27.06 3.433 0.739 -0.429 -0.519
46.729 -26.562 3.191 0.541 -0.761 -0.358
45.863 -27.626 3.17 0.387 0.019 -0.922
46.014 -27.02 3.103 0.286 -0.385 -0.877
45.799 -27.566 3.141 0.43 -0.021 -0.903
45.917 -26.911 3.012 0.352 -0.458 -0.817
45.686 -27.555 3.094 0.342 -0.013 -0.94
45.803 -26.9 2.965 0.264 -0.449 -0.854
45.096 -27.626 2.7 0.735 0.035 -0.677
44.981 -27.765 2.598 0.626 -0.098 -0.773
46.129 -29.336 2.994 0.578 -0.135 -0.805
45.926 -29.355 2.821 0.714 -0.122 -0.689
45.456 -30.244 3.06 0.242 -0.589 -0.772
45.402 -30.061 2.872 0.278 -0.711 -0.646
43.833 -29.63 2.775 0.063 -0.646 -0.761
43.352 -29.952 3.36 -0.315 -0.9 -0.301
43.935 -29.55 2.707 -0.005 -0.699 -0.715
44.096 -29.149 2.491 0.17 -0.262 -0.95
45.058 -28.157 2.64 0.575 0.164 -0.802
44.814 -27.642 2.414 0.738 -0.18 -0.65
44.825 -28.321 2.52 0.262 -0.056 -0.963
44.58 -27.806 2.293 0.425 -0.399 -0.812
44.653 -28.196 2.448 0.377 -0.139 -0.916
44.494 -28.313 2.42 0.233 -0.246 -0.941
43.634 -26.846 1.282 0.236 -0.157 -0.959
43.896 -26.802 1.314 0.061 -0.186 -0.981
44.603 -25.377 1.89 0.094 0.176 -0.98
44.125 -24.76 2.172 -0.2 0.557 -0.806
43.673 -24.443 2.362 0.101 0.346 -0.933
43.548 -24.415 2.364 0.02 0.363 -0.931
43.253 -22.278 2.912 -0.309 0.575 -0.758
43.68 -21.859 2.898 -0.593 0.295 -0.749
42.438 -22.213 3.741 -0.717 0.607 -0.343
42.067 -22.335 4.055 -0.47 0.689 -0.552
42.878 -21.662 4.497 -0.679 0.731 -0.059
43.076 -21.676 5.067 -0.486 0.717 0.499
43.02 -22.998 6.509 -0.193 0.839 0.509
43.243 -23.148 7.194 -0.342 0.938 0.053
42.953 -23.027 6.524 -0.272 0.805 0.527
43.17 -23.179 7.21 -0.416 0.906 0.07
42.845 -22.985 6.42 -0.199 0.778 0.596
43.004 -23.201 6.954 -0.305 0.921 0.241
43.09 -23.198 7.544 -0.363 0.919 -0.153
42.509 -23.296 6.441 -0.719 0.295 0.629
42.748 -23.438 6.969 -0.879 0.39 0.276
42.778 -23.487 7.563 -0.899 0.422 -0.12
42.55 -23.401 6.549 -0.746 0.365 0.556
42.731 -23.586 7.237 -0.867 0.488 0.098
42.459 -24.041 6.372 -0.853 -0.388 0.348
42.632 -24.283 7.044 -0.969 -0.227 -0.1
42.287 -23.881 8.754 -0.936 0.352 0.012
42.351 -23.658 8.746 -0.979 0.203 0.018
42.636 -23.552 9.514 -0.761 0.516 0.393
42.623 -23.402 9.337 -0.752 0.416 0.51
43.295 -22.941 9.473 -0.432 0.822 0.372
43.135 -22.927 9.306 -0.326 0.812 0.484
43.597 -22.665 8.672 -0.281 0.959 -0.028
43.37 -22.713 8.683 -0.13 0.991 -0.035
43.448 -23.056 7.227 -0.479 0.877 0.031
43.404 -22.879 6.566 -0.449 0.759 0.471
44.015 -22.902 7.23 -0.032 0.999 0.034
43.971 -22.724 6.57 -0.003 0.881 0.474
44.07 -22.592 8.579 -0.044 0.996 -0.075
45.037 -22.182 8.387 -0.689 0.723 0.053
44.397 -22.894 9.771 0.119 0.845 0.521
44.989 -22.775 9.681 -0.275 0.766 0.581
44.54 -23.278 10.195 0.19 0.653 0.733
45.131 -23.159 10.105 -0.204 0.574 0.793
44.683 -23.773 10.481 0.262 0.405 0.876
45.274 -23.654 10.39 -0.132 0.326 0.936
44.815 -24.335 10.602 0.328 0.125 0.936
45.406 -24.215 10.512 -0.066 0.045 0.997
45.35 -22.653 9.628 -0.094 0.827 0.555
45.618 -22.334 9.35 -0.273 0.614 0.74
45.968 -22.87 9.842 0.214 0.718 0.662
46.14 -22.518 9.531 0.099 0.483 0.87
46.594 -23.145 9.759 0.527 0.58 0.621
46.669 -22.75 9.461 0.477 0.317 0.82
47.106 -23.426 9.394 0.784 0.44 0.438
47.102 -22.987 9.152 0.787 0.148 0.6
46.834 -24.298 10.042 0.647 0.004 0.762
47.133 -24.816 9.951 0.448 0.35 0.823
47.164 -25.949 10.209 0.57 0.388 0.724
47.247 -25.387 10.01 0.515 0.014 0.857
47.667 -26.811 9.898 0.821 -0.043 0.569
47.866 -27.238 9.726 0.689 0.242 0.683
47.053 -27.997 10.313 0.645 0.149 0.75
47.141 -28.623 10.568 0.586 0.566 0.58
46.951 -27.983 10.387 0.544 0.163 0.823
47.051 -28.611 10.634 0.477 0.581 0.659
46.852 -27.968 10.456 0.61 0.153 0.778
46.876 -28.583 10.76 0.594 0.563 0.575
46.167 -27.873 10.701 0.069 0.227 0.971
46.191 -28.488 11.005 0.053 0.637 0.769
45.713 -27.76 10.784 0.371 0.152 0.916
45.222 -27.443 10.786 -0.009 0.397 0.918
45.323 -28.853 11.785 0.441 0.764 0.472
44.549 -28.369 11.558 -0.021 0.433 0.901
44.726 -28.858 11.955 -0.139 0.758 0.637
44.864 -29.131 12.533 -0.23 0.94 0.251
43.911 -28.732 11.503 -0.477 0.173 0.862
44.188 -29.164 11.908 -0.661 0.462 0.592
44.276 -29.465 12.482 -0.72 0.662 0.209
43.905 -29.659 11.662 -0.936 -0.019 0.353
45.646 -29.733 13.185 0.421 0.438 0.794
46.014 -29.968 13.199 0.176 0.595 0.784
45.269 -30.227 13.425 0.108 0.026 0.994
45.605 -30.505 13.46 -0.116 0.211 0.97
44.827 -30.709 13.3 -0.26 -0.375 0.89
45.125 -31.028 13.324 -0.459 -0.162 0.873
44.457 -31.029 12.849 -0.569 -0.642 0.514
44.723 -31.376 12.834 -0.746 -0.411 0.524
46.687 -29.963 12.744 0.656 0.599 0.459
47.032 -29.779 12.279 0.426 0.476 0.769
46.949 -30.511 12.795 0.843 0.207 0.496
47.342 -30.427 12.339 0.581 0.152 0.8
46.958 -31.119 12.766 0.85 -0.227 0.475
47.353 -31.147 12.305 0.587 -0.208 0.783
46.713 -31.667 12.664 0.675 -0.619 0.402
47.063 -31.796 12.184 0.441 -0.533 0.722
46.262 -32.046 12.508 0.353 -0.889 0.291
46.529 -32.245 12 0.175 -0.757 0.63
45.695 -32.18 12.33 -0.052 -0.985 0.163
45.859 -32.404 11.788 -0.161 -0.836 0.524
45.125 -32.043 12.164 -0.459 -0.887 0.045
45.184 -32.241 11.592 -0.498 -0.755 0.426
47.766 -29.801 11.527 0.793 0.465 0.394
47.827 -29.665 11.304 0.752 0.374 0.542
48.148 -30.376 10.707 0.984 0.178 -0.017
48.124 -30.112 10.666 1 0.002 0.01
47.587 -29.521 9.531 0.934 -0.037 -0.355
47.631 -28.981 9.225 0.905 -0.398 -0.151
47.532 -29.581 9.416 0.888 -0.087 -0.451
47.58 -29.036 9.118 0.857 -0.45 -0.252
47.418 -29.946 9.058 0.965 0.157 -0.212
47.393 -30.256 8.929 0.945 -0.089 -0.315
47.399 -30.393 8.965 0.941 0.003 -0.338
47.371 -30.59 8.919 0.925 -0.11 -0.364
47.339 -30.639 8.843 0.946 -0.077 -0.314
47.28 -30.554 8.214 0.985 -0.134 0.106
47.489 -30.505 7.614 0.846 -0.166 0.506
47.25 -30.912 8.798 0.845 -0.391 -0.365
47.213 -30.761 8.18 0.869 -0.492 0.047
47.412 -30.742 7.575 0.737 -0.504 0.45
47.241 -30.991 8.853 0.851 -0.339 -0.402
47.091 -31.26 8.831 0.765 -0.493 -0.415
46.968 -31.335 8.652 0.847 -0.443 -0.295
46.906 -31.385 7.896 0.888 -0.41 0.209
46.858 -31.513 8.672 0.741 -0.612 -0.276
46.798 -31.559 7.916 0.78 -0.582 0.229
46.992 -31.33 7.712 0.831 -0.447 0.332
47.054 -31.227 7.682 0.868 -0.384 0.314
47.467 -31.817 6.628 0.857 -0.396 0.33
47.924 -31.301 6.547 0.553 -0.74 0.384
47.239 -32.186 6.618 0.731 -0.601 0.325
47.12 -32.781 6.281 0.81 -0.204 0.55
47.538 -31.898 5.812 0.881 -0.47 0.047
47.315 -31.596 4.981 0.678 -0.195 -0.708
47.274 -30.935 7.582 0.722 -0.578 0.38
47.349 -30.793 7.627 0.779 -0.47 0.415
47.462 -30.445 7.685 0.864 -0.206 0.459
47.486 -30.286 7.69 0.883 -0.085 0.463
47.526 -30.147 7.654 0.855 -0.178 0.487
47.567 -29.817 7.586 0.896 0.149 0.419
47.665 -29.392 7.402 0.83 -0.134 0.542
47.619 -28.89 7.918 0.861 -0.469 0.198
48.105 -29.401 6.558 0.682 0.617 0.392
47.737 -29.026 7.052 0.928 0.367 0.062
47.691 -28.524 7.568 0.959 0.032 -0.281
47.977 -28.011 7.986 0.768 -0.31 -0.56
47.45 -28.736 6.744 0.535 0.764 -0.36
47.404 -28.234 7.26 0.566 0.43 -0.704
47.347 -28.738 6.539 0.604 0.765 -0.223
47.155 -28.319 6.92 0.732 0.486 -0.477
47.138 -27.785 7.188 0.743 0.13 -0.656
47.255 -28.703 6.456 0.49 0.809 -0.326
47.071 -28.287 6.845 0.613 0.532 -0.585
47.033 -27.745 7.094 0.638 0.17 -0.751
47.082 -28.643 5.658 0.605 0.769 0.206
47.242 -29.017 4.917 0.759 0.409 -0.507
46.547 -27.891 6.054 0.962 0.268 -0.057
46.682 -27.532 6.702 0.872 0.028 -0.489
46.459 -27.714 5.969 0.836 0.519 -0.178
46.581 -27.33 6.605 0.754 0.263 -0.602
46.46 -27.305 4.966 0.835 0.247 0.491
46.537 -26.629 4.823 0.784 -0.204 0.586
46.584 -27.453 4.461 0.989 0.064 -0.132
46.677 -26.796 4.253 0.927 -0.375 0.006
46.583 -27.523 4.395 0.99 0.11 -0.088
46.637 -26.925 4.138 0.954 -0.289 0.083
46.57 -27.564 4.297 0.972 0.051 -0.231
46.625 -26.966 4.04 0.935 -0.348 -0.06
46.571 -25.996 5.449 0.761 -0.626 0.169
46.49 -26.151 6.075 0.815 -0.523 -0.249
46.638 -26.453 6.632 0.716 -0.322 -0.619
46.707 -25.716 5.55 0.901 -0.34 0.272
46.604 -25.915 6.16 0.969 -0.207 -0.135
46.775 -26.172 6.732 0.855 -0.035 -0.517
46.81 -25.497 5.554 0.832 -0.485 0.269
46.76 -25.501 6.157 0.866 -0.483 -0.133
46.921 -25.623 6.728 0.758 -0.401 -0.514
46.892 -25.306 5.567 0.911 -0.302 0.282
46.829 -25.339 6.169 0.953 -0.28 -0.119
46.999 -25.442 6.741 0.839 -0.212 -0.501
46.905 -25.216 5.639 0.902 -0.362 0.234
46.906 -25.196 6.314 0.901 -0.375 -0.216
47.181 -25.29 6.924 0.718 -0.313 -0.622
46.941 -25.092 5.64 0.954 -0.184 0.236
46.929 -25.118 6.315 0.962 -0.167 -0.214
47.209 -25.194 6.924 0.775 -0.116 -0.621
47.482 -25.419 4.514 0.872 -0.312 0.377
47.814 -24.966 4.409 0.651 -0.614 0.447
47.557 -25.615 3.903 0.909 -0.41 0.071
47.888 -25.162 3.798 0.688 -0.712 0.141
47.458 -25.69 3.269 0.86 -0.447 -0.246
47.79 -25.237 3.164 0.639 -0.749 -0.176
47.197 -25.635 2.681 0.729 -0.42 -0.54
47.528 -25.182 2.576 0.508 -0.722 -0.47
46.801 -25.456 2.202 0.532 -0.331 -0.78
47.133 -25.004 2.097 0.311 -0.632 -0.71
46.315 -25.173 1.884 0.289 -0.189 -0.939
46.647 -24.721 1.779 0.067 -0.491 -0.869
45.79 -24.817 1.762 0.026 -0.011 -1
46.122 -24.364 1.657 -0.195 -0.313 -0.93
45.283 -24.425 1.849 -0.227 0.185 -0.956
45.615 -23.973 1.744 -0.448 -0.117 -0.886
45.437 -22.79 1.835 -0.277 -0.185 -0.943
45.661 -23.356 1.747 -0.426 0.192 -0.884
45.983 -22.558 1.726 -0.004 -0.069 -0.998
46.206 -23.123 1.638 -0.153 0.308 -0.939
46.544 -22.348 1.8 0.276 0.036 -0.96
46.767 -22.913 1.712 0.127 0.413 -0.902
47.066 -22.181 2.051 0.537 0.12 -0.835
47.289 -22.746 1.964 0.389 0.497 -0.776
46.972 -21.832 2.08 0.491 0.294 -0.82
47.137 -21.38 2.237 0.381 -0.007 -0.924
46.374 -21.5 1.987 0.191 0.46 -0.867
46.631 -21.1 2.158 0.02 0.193 -0.981
45.821 -21.141 2.193 -0.085 0.639 -0.764
46.164 -20.796 2.332 -0.313 0.41 -0.857
45.422 -20.824 2.659 -0.285 0.798 -0.531
45.827 -20.529 2.725 -0.554 0.601 -0.576
44.723 -21.578 2.424 -0.634 0.421 -0.649
44.201 -21.61 2.726 -0.287 0.442 -0.85
45.139 -20.571 3.541 -0.293 0.878 -0.379
44.674 -20.423 4.219 0.262 0.962 -0.071
45.289 -20.459 4.005 -0.147 0.986 0.072
45.862 -20.216 3.812 -0.529 0.824 0.201
45.457 -20.59 4.459 0.016 0.86 0.511
44.543 -22.526 6.442 -0.212 0.863 0.458
44.932 -22.553 7.086 -0.472 0.881 0.028
44.444 -22.592 6.5 -0.318 0.793 0.52
44.842 -22.614 7.14 -0.583 0.807 0.094
45.173 -22.393 7.157 -0.632 0.775 -0.019
45.049 -22.352 6.567 -0.55 0.747 0.374
44.792 -22.129 6.069 -0.378 0.598 0.706
45.633 -22.238 7.042 -0.008 0.985 -0.174
45.447 -22.218 6.468 0.117 0.971 0.208
45.289 -21.962 5.945 0.222 0.8 0.557
45.868 -22.223 7.007 -0.164 0.975 -0.151
45.879 -22.19 6.404 -0.171 0.953 0.251
45.848 -21.926 5.862 -0.151 0.776 0.612
46.653 -22.229 7.536 0.466 0.689 -0.555
46.466 -22.373 6.981 0.591 0.785 -0.184
46.422 -22.326 6.38 0.62 0.754 0.216
46.528 -22.096 5.832 0.549 0.601 0.581
46.769 -21.72 5.425 0.389 0.35 0.852
46.748 -22.913 6.889 0.948 0.102 -0.3
46.678 -22.817 6.297 0.995 0.038 0.094
46.85 -22.712 5.728 0.88 -0.032 0.474
46.784 -23.154 6.853 0.924 0.263 -0.276
46.77 -23.252 6.222 0.934 0.328 0.144
47.01 -23.261 5.631 0.774 0.334 0.538
46.816 -23.361 6.88 0.971 -0.034 -0.238
46.798 -23.433 6.246 0.983 0.014 0.185
47.047 -23.501 5.662 0.817 0.059 0.574
47.403 -23.93 7.782 0.754 0.322 -0.573
47.514 -23.817 8.646 0.862 0.432 0.266
47.259 -24.651 7 0.722 0.605 -0.334
47.062 -24.502 6.311 0.853 0.506 0.125
47.171 -24.173 5.667 0.781 0.287 0.555
47.264 -24.942 6.91 0.739 -0.284 -0.611
47.066 -24.68 6.256 0.871 -0.459 -0.175
47.178 -24.581 5.54 0.796 -0.524 0.302
47.119 -23.838 5.636 0.815 0.063 0.575
46.884 -23.919 6.196 0.972 0.117 0.202
46.892 -23.97 6.806 0.967 0.152 -0.204
47.089 -23.698 5.647 0.789 0.191 0.585
46.858 -23.796 6.205 0.943 0.256 0.212
46.862 -23.831 6.816 0.94 0.279 -0.195
47.845 -22.966 4.791 0.666 0.387 0.637
47.622 -22.401 4.879 0.815 0.01 0.579
48.095 -22.789 4.285 0.791 0.475 0.384
47.872 -22.223 4.373 0.94 0.098 0.326
48.108 -22.656 2.988 0.798 0.542 -0.264
47.908 -21.599 3.078 0.932 -0.163 -0.324
47.82 -21.42 4.221 0.869 -0.035 0.493
47.781 -21.879 4.429 0.895 0.271 0.354
47.475 -21.149 4.604 0.623 0.158 0.766
47.373 -21.559 4.882 0.691 0.431 0.581
47.005 -20.846 4.765 0.287 0.374 0.882
46.817 -21.2 5.074 0.413 0.61 0.676
46.501 -20.569 4.675 -0.073 0.572 0.817
46.22 -20.872 4.966 0.115 0.774 0.623
47.911 -26.493 8.012 0.821 -0.114 -0.56
48.261 -25.832 8.379 0.877 -0.48 -0.04
48.088 -26.447 8.481 0.992 -0.069 -0.108
48.192 -27.082 8.552 0.922 0.354 -0.156
48.024 -26.366 8.973 0.93 0.009 0.367
47.521 -29.052 8.379 0.926 -0.361 -0.109
47.502 -29.101 8.595 0.908 -0.407 0.096
47.679 -28.906 9.291 0.873 -0.448 -0.195
47.656 -29.375 9.656 0.888 -0.135 -0.439
47.968 -28.05 9.543 0.762 -0.338 0.552
47.725 -28.528 9.8 0.924 -0.019 0.381
47.7 -29.011 10.146 0.941 0.303 0.15
47.896 -29.422 10.528 0.81 0.577 -0.105
47.321 -28.238 10.195 0.466 0.309 0.829
47.31 -28.731 10.527 0.473 0.638 0.607
44.696 -25.494 1.87 0.032 0.254 -0.967
45.76 -25.698 1.977 0.011 -0.452 -0.892
45.157 -26.059 1.968 0.412 -0.211 -0.886
44.69 -26.489 1.668 0.724 0.075 -0.686
45.346 -26.595 2.436 0.568 -0.653 -0.501
47.683 -31.977 10.306 0.751 -0.623 -0.217
47.525 -32.183 10.24 0.857 -0.486 -0.174
47.111 -32.459 11.122 0.465 -0.864 0.191
47.08 -32.558 10.876 0.486 -0.798 0.356
46.084 -32.728 10.805 -0.048 -0.998 0.033
46.282 -32.767 10.629 -0.179 -0.972 0.15
42.035 -26.207 6.096 -0.707 0.463 0.534
42.48 -27.505 7.661 -1 0 0
42.366 -27.218 7.164 -0.924 -0.191 0.331
42.322 -28.462 7.605 -0.924 0.383 0
42.322 -28.175 7.108 -0.924 0.191 0.331
43.107 -30.297 5.261 -0.707 -0.595 -0.382
45.138 -27.134 2.649 0.707 -0.294 -0.643
44.541 -22.789 7.281 -0.383 0.924 -0
46.929 -28.507 6.267 0.707 0.678 -0.199
46.327 -26.361 5.702 0.924 -0.383 0
46.327 -26.648 6.2 0.924 -0.191 -0.331
46.327 -27.222 6.2 0.924 0.191 -0.331
46.327 -27.509 5.702 0.924 0.383 0
46.327 -26.648 5.205 0.924 -0.191 0.331
46.213 -26.935 5.702 1 -0 0
40.628 -28.886 4.629 -0.623 -0.75 0.22
40.628 -28.886 4.013 -0.623 -0.75 -0.22
40.24 -28.443 4.321 -0.901 -0.434 -0
40.24 -28.14 3.795 -0.901 -0.217 -0.376
40.24 -27.532 3.795 -0.901 0.217 -0.376
40.101 -27.836 4.321 -1 0 0
42.116 -30.644 8.629 -0.623 -0.512 0.591
42.116 -30.977 8.11 -0.623 -0.75 0.22
41.728 -30.231 8.328 -0.901 -0.217 0.376
41.589 -29.927 7.802 -1 0 0
42.403 -31.308 6.762 -0.5 -0.831 -0.244
41.628 -29.4 3.126 -0.588 -0.747 -0.31
41.628 -28.524 2.25 -0.588 -0.31 -0.747
41.784 -26.156 1.248 -0.223 -0.217 -0.95
41.784 -25.548 1.248 -0.223 0.217 -0.95
41.223 -26.008 1.496 -0.623 -0.111 -0.774
41.223 -25.397 1.583 -0.623 0.325 -0.711
40.835 -26.156 2.053 -0.901 -0.217 -0.376
40.835 -25.548 2.053 -0.901 0.217 -0.376
40.696 -25.852 2.579 -1 0 0
40.489 -27.073 5.541 -0.866 0.25 0.433
41.466 -24.187 2.299 -0.5 0.729 -0.468
41.027 -24.461 2.861 -0.866 0.5 0
43.798 -25.717 10.929 -0 0.075 0.997
43.18 -25.399 10.779 -0.309 0.233 0.922
43.18 -26.023 10.831 -0.309 -0.079 0.948
42.622 -25.247 10.43 -0.588 0.31 0.747
42.622 -25.866 10.553 -0.588 -0 0.809
42.18 -25.278 9.953 -0.809 0.294 0.509
41.894 -28.089 9.36 -1 0 0
42.855 -28.277 10.811 -0.588 -0 0.809
43.82 -32.02 10.235 -0.5 -0.831 0.244
43.82 -32.02 9.649 -0.5 -0.831 -0.244
46.591 -29.067 3.427 0.809 -0 -0.588
42.811 -29.507 2.282 -0 -0.749 -0.663
42.811 -29.035 1.956 -0 -0.355 -0.935
45.669 -29.356 2.619 0.5 -0.123 -0.857
45.069 -29.634 2.526 -0 -0.355 -0.935
43.162 -26.978 1.25 -0 -0.223 -0.975
42.695 -22.284 3.283 -0.588 0.572 -0.572
41.852 -22.205 4.828 -0.623 0.782 0
41.852 -22.379 5.42 -0.623 0.658 0.423
41.852 -22.845 5.824 -0.623 0.325 0.711
41.464 -22.693 4.828 -0.901 0.434 0
41.464 -22.996 5.354 -0.901 0.217 0.376
41.464 -23.604 5.354 -0.901 -0.217 0.376
41.325 -23.3 4.828 -1 0 0
44.159 -23.337 10.293 -0 0.623 0.782
44.159 -23.853 10.591 -0 0.365 0.931
43.541 -23.083 9.897 -0.309 0.751 0.584
43.541 -23.544 10.321 -0.309 0.52 0.796
43.541 -24.117 10.573 -0.309 0.233 0.922
42.983 -23.965 10.224 -0.588 0.31 0.747
42.541 -23.996 9.747 -0.809 0.294 0.509
46.715 -23.687 10.013 0.588 0.31 0.747
46.157 -23.266 10.11 0.309 0.52 0.796
46.157 -23.839 10.362 0.309 0.233 0.922
45.539 -23.059 10.082 -0 0.623 0.782
47.2 -26.726 10.379 0.588 -0 0.809
46.642 -26.259 10.605 0.309 0.233 0.922
46.642 -26.883 10.657 0.309 -0.079 0.948
46.024 -26.577 10.755 -0 0.075 0.997
41.692 -26.041 9.048 -1 0 0
45.14 -29.577 13.22 -0 0.568 0.823
44.54 -29.827 13.177 -0.5 0.36 0.788
44.54 -30.407 13.261 -0.5 -0.123 0.857
44.101 -29.959 12.752 -0.866 0.25 0.433
44.101 -30.559 12.752 -0.866 -0.25 0.433
46.641 -30.346 13.097 0.623 0.325 0.711
46.641 -30.957 13.184 0.623 -0.111 0.774
46.08 -30.497 13.432 0.223 0.217 0.95
46.08 -31.105 13.432 0.223 -0.217 0.95
46.08 -31.652 13.168 0.223 -0.608 0.762
45.456 -31.652 13.168 -0.223 -0.608 0.762
45.456 -32.031 12.693 -0.223 -0.878 0.423
44.895 -31.851 12.409 -0.623 -0.75 0.22
48.18 -30.731 10.74 1 0 0
48.082 -31.04 11.275 0.951 -0.155 0.268
48.082 -31.349 10.74 0.951 -0.309 -0
48.082 -31.04 10.205 0.951 -0.155 -0.268
47.798 -30.143 11.758 0.809 0.294 0.509
47.798 -30.731 11.916 0.809 -0 0.588
47.798 -31.319 11.758 0.809 -0.294 0.509
47.798 -31.749 11.328 0.809 -0.509 0.294
47.798 -31.319 9.722 0.809 -0.294 -0.509
47.356 -29.587 11.884 0.588 0.572 0.572
47.356 -31.875 11.884 0.588 -0.572 0.572
46.798 -29.23 11.908 0.309 0.751 0.584
46.798 -32.404 11.645 0.309 -0.836 0.453
45.562 -32.607 11.053 -0.309 -0.938 0.157
47.097 -32.597 10.156 0.5 -0.831 -0.244
46.497 -32.765 10.162 -0 -0.971 -0.239
47.247 -33.103 5.511 0.901 -0.434 -0
47.247 -32.8 4.985 0.901 -0.217 -0.376
46.859 -33.213 6.338 0.623 -0.512 0.591
46.859 -33.546 5.819 0.623 -0.75 0.22
46.859 -33.546 5.203 0.623 -0.75 -0.22
46.859 -33.213 4.684 0.623 -0.512 -0.591
46.859 -32.652 4.428 0.623 -0.111 -0.774
46.298 -33.726 6.103 0.223 -0.878 0.423
46.298 -33.861 5.511 0.223 -0.975 0
46.298 -33.726 4.919 0.223 -0.878 -0.423
46.298 -33.347 4.444 0.223 -0.608 -0.762
46.298 -32.8 4.18 0.223 -0.217 -0.95
45.674 -33.726 6.103 -0.223 -0.878 0.423
45.674 -33.861 5.511 -0.223 -0.975 0
45.674 -33.726 4.919 -0.223 -0.878 -0.423
45.674 -33.347 4.444 -0.223 -0.608 -0.762
45.674 -32.8 4.18 -0.223 -0.217 -0.95
45.113 -33.546 5.819 -0.623 -0.75 0.22
45.113 -33.546 5.203 -0.623 -0.75 -0.22
45.113 -33.213 4.684 -0.623 -0.512 -0.591
44.725 -33.103 5.511 -0.901 -0.434 -0
48.55 -30.265 6.01 1 0 0
48.411 -29.658 6.01 0.901 0.434 0
48.411 -29.961 6.536 0.901 0.217 0.376
48.411 -30.569 6.536 0.901 -0.217 0.376
48.411 -30.872 6.01 0.901 -0.434 -0
48.411 -30.569 5.484 0.901 -0.217 -0.376
48.411 -29.961 5.484 0.901 0.217 -0.376
48.023 -30.421 4.927 0.623 -0.111 -0.774
48.023 -29.81 5.014 0.623 0.325 -0.711
47.356 -25.813 4.349 0.809 -0.509 0.294
44.422 -26.727 1.462 0.5 -0.123 -0.857
45.991 -21.689 1.859 -0 0.365 -0.931
45.373 -21.953 1.877 -0.309 0.233 -0.922
45.373 -21.38 2.129 -0.309 0.52 -0.796
44.359 -20.515 4.862 -0 0.885 0.465
43.759 -20.539 4.304 -0.5 0.866 0
43.759 -20.704 4.866 -0.5 0.729 0.468
43.759 -20.704 3.742 -0.5 0.729 -0.468
42.926 -22.863 8.725 -0.5 0.866 0
42.487 -23.302 8.725 -0.866 0.5 0
47.262 -22.587 8.313 0.901 0.434 0
47.262 -22.89 7.787 0.901 0.217 -0.376
46.874 -22.099 8.313 0.623 0.782 0
46.874 -22.273 8.905 0.623 0.658 0.423
46.313 -21.829 8.313 0.223 0.975 0
46.313 -21.964 8.905 0.223 0.878 0.423
45.689 -21.829 8.313 -0.223 0.975 0
45.689 -21.964 8.905 -0.223 0.878 0.423
48.409 -25.256 8.427 1 0 0
48.248 -24.656 8.427 0.866 0.5 0
48.248 -24.956 8.947 0.866 0.25 0.433
48.248 -25.556 7.907 0.866 -0.25 -0.433
48.248 -24.956 7.907 0.866 0.25 -0.433
48.301 -27.577 8.77 1 0 0
48.162 -28.184 8.77 0.901 -0.434 -0
48.512 -23.739 3.516 1 0 0
48.414 -23.121 3.516 0.951 0.309 0
48.414 -23.43 4.051 0.951 0.155 0.268
48.414 -24.048 4.051 0.951 -0.155 0.268
48.414 -24.357 3.516 0.951 -0.309 -0
48.414 -24.048 2.981 0.951 -0.155 -0.268
48.414 -23.43 2.981 0.951 0.155 -0.268
48.13 -23.739 4.692 0.809 -0 0.588
48.13 -24.327 4.534 0.809 -0.294 0.509
48.13 -24.757 4.104 0.809 -0.509 0.294
48.13 -24.915 3.516 0.809 -0.588 0
48.13 -24.757 2.928 0.809 -0.509 -0.294
48.13 -24.327 2.498 0.809 -0.294 -0.509
48.13 -23.739 2.34 0.809 -0 -0.588
48.13 -23.151 2.498 0.809 0.294 -0.509
47.688 -24.883 2.372 0.588 -0.572 -0.572
47.688 -24.358 2.021 0.588 -0.31 -0.747
47.688 -23.739 1.898 0.588 0 -0.809
47.688 -23.12 2.021 0.588 0.31 -0.747
47.13 -24.503 1.774 0.309 -0.382 -0.871
47.13 -23.896 1.62 0.309 -0.079 -0.948
47.13 -23.272 1.672 0.309 0.233 -0.922
46.512 -24.184 1.566 -0 -0.223 -0.975
46.512 -23.59 1.522 -0 0.075 -0.997
47.864 -20.763 3.531 0.901 0.434 0
47.864 -21.066 4.057 0.901 0.217 0.376
47.864 -21.066 3.005 0.901 0.217 -0.376
47.476 -20.275 3.531 0.623 0.782 0
47.476 -20.449 4.123 0.623 0.658 0.423
47.476 -20.915 2.535 0.623 0.325 -0.711
47.476 -20.449 2.939 0.623 0.658 -0.423
46.915 -20.005 3.531 0.223 0.975 0
46.915 -20.14 4.123 0.223 0.878 0.423
46.915 -20.519 2.464 0.223 0.608 -0.762
46.915 -20.14 2.939 0.223 0.878 -0.423
46.291 -20.005 3.531 -0.223 0.975 0
46.291 -20.14 4.123 -0.223 0.878 0.423
46.291 -20.519 2.464 -0.223 0.608 -0.762
46.291 -20.14 2.939 -0.223 0.878 -0.423
3 0 4 366
3 366 4 369
3 366 369 367
3 367 369 370
3 367 370 368
3 368 370 371
3 368 371 1
3 1 371 3
3 4 7 372
3 372 7 374
3 372 374 373
3 373 374 375
3 373 375 5
3 5 375 6
3 7 376 8
3 8 376 377
3 376 378 377
3 377 378 379
3 378 380 379
3 379 380 381
3 380 10 381
3 381 10 9
3 10 383 382
3 382 383 384
3 382 384 11
3 11 384 385
3 383 13 384
3 384 13 386
3 384 386 385
3 385 386 12
3 13 387 14
3 14 387 388
3 387 389 388
3 388 389 390
3 389 0 390
3 390 0 2
3 14 16 391
3 391 16 392
3 391 392 12
3 12 392 15
3 16 19 393
3 393 19 395
3 393 395 394
3 394 395 396
3 394 396 17
3 17 396 18
3 19 22 397
3 397 22 398
3 397 398 20
3 20 398 21
3 22 25 399
3 399 25 402
3 399 402 400
3 400 402 403
3 400 403 401
3 401 403 404
3 401 404 23
3 23 404 24
3 25 28 405
3 405 28 408
3 405 408 406
3 406 408 409
3 406 409 407
3 407 409 410
3 407 410 26
3 26 410 27
3 28 2 411
3 411 2 414
3 411 414 412
3 412 414 415
3 412 415 413
3 413 415 416
3 413 416 29
3 29 416 1
3 29 31 27
3 27 31 30
3 31 34 417
3 417 34 418
3 417 418 32
3 32 418 33
3 34 37 35
3 35 37 36
3 37 40 419
3 419 40 420
3 419 420 38
3 38 420 39
3 40 43 421
3 421 43 422
3 421 422 41
3 41 422 42
3 43 46 423
3 423 46 424
3 423 424 44
3 44 424 45
3 46 49 425
3 425 49 426
3 425 426 47
3 47 426 48
3 49 427 50
3 50 427 428
3 427 429 428
3 428 429 430
3 429 3 430
3 430 3 5
3 50 52 431
3 431 52 432
3 431 432 48
3 48 432 51
3 52 55 433
3 433 55 434
3 433 434 53
3 53 434 54
3 55 58 435
3 435 58 436
3 435 436 56
3 56 436 57
3 58 6 437
3 437 6 439
3 437 439 438
3 438 439 440
3 438 440 59
3 59 440 8
3 59 61 441
3 441 61 442
3 441 442 57
3 57 442 60
3 61 64 443
3 443 64 444
3 443 444 62
3 62 444 63
3 64 445 65
3 65 445 446
3 445 447 446
3 446 447 448
3 447 449 448
3 448 449 450
3 449 67 450
3 450 67 66
3 67 70 451
3 451 70 452
3 451 452 68
3 68 452 69
3 70 453 71
3 71 453 454
3 453 455 454
3 454 455 456
3 455 457 456
3 456 457 458
3 457 73 458
3 458 73 72
3 73 9 459
3 459 9 460
3 459 460 74
3 74 460 11
3 74 461 72
3 72 461 462
3 461 463 462
3 462 463 464
3 463 465 464
3 464 465 466
3 465 76 466
3 466 76 75
3 76 467 77
3 77 467 468
3 467 469 468
3 468 469 470
3 469 471 470
3 470 471 472
3 471 473 472
3 472 473 474
3 473 15 474
3 474 15 17
3 77 79 75
3 75 79 78
3 79 476 475
3 475 476 477
3 475 477 80
3 80 477 478
3 476 82 477
3 477 82 479
3 477 479 478
3 478 479 81
3 82 481 480
3 480 481 482
3 480 482 83
3 83 482 483
3 481 85 482
3 482 85 484
3 482 484 483
3 483 484 84
3 85 18 485
3 485 18 486
3 485 486 86
3 86 486 20
3 86 88 487
3 487 88 488
3 487 488 84
3 84 488 87
3 88 91 489
3 489 91 491
3 489 491 490
3 490 491 492
3 490 492 89
3 89 492 90
3 91 21 493
3 493 21 495
3 493 495 494
3 494 495 496
3 494 496 92
3 92 496 23
3 92 497 90
3 90 497 498
3 497 499 498
3 498 499 500
3 499 501 500
3 500 501 502
3 501 503 502
3 502 503 504
3 503 505 504
3 504 505 506
3 505 507 506
3 506 507 508
3 507 509 508
3 508 509 510
3 509 94 510
3 510 94 93
3 94 97 95
3 95 97 96
3 97 100 98
3 98 100 99
3 100 103 101
3 101 103 102
3 103 511 104
3 104 511 512
3 511 513 512
3 512 513 514
3 513 106 514
3 514 106 105
3 106 109 107
3 107 109 108
3 109 516 515
3 515 516 517
3 515 517 110
3 110 517 518
3 516 112 517
3 517 112 519
3 517 519 518
3 518 519 111
3 112 115 113
3 113 115 114
3 115 24 116
3 116 24 26
3 116 30 114
3 114 30 32
3 113 521 520
3 520 521 522
3 520 522 111
3 111 522 523
3 521 108 522
3 522 108 524
3 522 524 523
3 523 524 110
3 107 525 105
3 105 525 526
3 525 33 526
3 526 33 35
3 104 118 102
3 102 118 117
3 118 121 119
3 119 121 120
3 121 527 122
3 122 527 528
3 527 529 528
3 528 529 530
3 529 124 530
3 530 124 123
3 124 531 125
3 125 531 532
3 531 36 532
3 532 36 38
3 125 127 123
3 123 127 126
3 127 533 128
3 128 533 534
3 533 130 534
3 534 130 129
3 130 133 131
3 131 133 132
3 133 136 134
3 134 136 135
3 136 535 137
3 137 535 536
3 535 39 536
3 536 39 41
3 137 139 135
3 135 139 138
3 139 142 140
3 140 142 141
3 142 145 537
3 537 145 538
3 537 538 143
3 143 538 144
3 145 42 146
3 146 42 44
3 146 45 539
3 539 45 540
3 539 540 144
3 144 540 47
3 143 148 541
3 541 148 542
3 541 542 141
3 141 542 147
3 148 151 543
3 543 151 544
3 543 544 149
3 149 544 150
3 151 154 545
3 545 154 546
3 545 546 152
3 152 546 153
3 154 157 547
3 547 157 548
3 547 548 155
3 155 548 156
3 157 160 158
3 158 160 159
3 160 550 549
3 549 550 551
3 549 551 161
3 161 551 552
3 550 553 551
3 551 553 554
3 551 554 552
3 552 554 555
3 553 163 554
3 554 163 556
3 554 556 555
3 555 556 162
3 163 51 164
3 164 51 53
3 164 166 162
3 162 166 165
3 166 54 167
3 167 54 56
3 167 558 557
3 557 558 559
3 557 559 165
3 165 559 560
3 558 169 559
3 559 169 561
3 559 561 560
3 560 561 168
3 169 562 170
3 170 562 563
3 562 60 563
3 563 60 62
3 170 172 564
3 564 172 566
3 564 566 565
3 565 566 567
3 565 567 168
3 168 567 171
3 172 175 568
3 568 175 569
3 568 569 173
3 173 569 174
3 175 571 570
3 570 571 572
3 570 572 176
3 176 572 573
3 571 178 572
3 572 178 574
3 572 574 573
3 573 574 177
3 178 181 179
3 179 181 180
3 181 577 575
3 575 577 578
3 575 578 576
3 576 578 579
3 576 579 182
3 182 579 580
3 577 184 578
3 578 184 581
3 578 581 579
3 579 581 582
3 579 582 580
3 580 582 183
3 184 187 583
3 583 187 585
3 583 585 584
3 584 585 586
3 584 586 185
3 185 586 186
3 187 190 587
3 587 190 588
3 587 588 188
3 188 588 189
3 190 589 191
3 191 589 590
3 589 591 590
3 590 591 592
3 591 193 592
3 592 193 192
3 193 63 593
3 593 63 594
3 593 594 194
3 194 594 65
3 194 66 595
3 595 66 596
3 595 596 192
3 192 596 68
3 191 196 597
3 597 196 599
3 597 599 598
3 598 599 600
3 598 600 189
3 189 600 195
3 196 69 601
3 601 69 602
3 601 602 197
3 197 602 71
3 197 603 195
3 195 603 604
3 603 199 604
3 604 199 198
3 199 202 605
3 605 202 606
3 605 606 200
3 200 606 201
3 202 78 607
3 607 78 608
3 607 608 203
3 203 608 80
3 203 205 201
3 201 205 204
3 205 208 206
3 206 208 207
3 208 609 209
3 209 609 610
3 609 211 610
3 610 211 210
3 211 214 212
3 212 214 213
3 214 611 215
3 215 611 612
3 611 81 612
3 612 81 83
3 215 217 613
3 613 217 614
3 613 614 213
3 213 614 216
3 217 220 218
3 218 220 219
3 220 223 615
3 615 223 617
3 615 617 616
3 616 617 618
3 616 618 221
3 221 618 222
3 223 226 619
3 619 226 622
3 619 622 620
3 620 622 623
3 620 623 621
3 621 623 624
3 621 624 224
3 224 624 225
3 226 87 625
3 625 87 627
3 625 627 626
3 626 627 628
3 626 628 227
3 227 628 89
3 227 629 225
3 225 629 630
3 629 631 630
3 630 631 632
3 631 633 632
3 632 633 634
3 633 635 634
3 634 635 636
3 635 222 636
3 636 222 224
3 221 229 637
3 637 229 639
3 637 639 638
3 638 639 640
3 638 640 219
3 219 640 228
3 229 641 230
3 230 641 642
3 641 232 642
3 642 232 231
3 232 643 233
3 233 643 644
3 643 645 644
3 644 645 646
3 645 647 646
3 646 647 648
3 647 649 648
3 648 649 650
3 649 93 650
3 650 93 95
3 233 651 231
3 231 651 652
3 651 653 652
3 652 653 654
3 653 655 654
3 654 655 656
3 655 657 656
3 656 657 658
3 657 235 658
3 658 235 234
3 235 238 236
3 236 238 237
3 238 659 239
3 239 659 660
3 659 241 660
3 660 241 240
3 241 96 242
3 242 96 98
3 242 661 240
3 240 661 662
3 661 244 662
3 662 244 243
3 244 247 245
3 245 247 246
3 247 663 248
3 248 663 664
3 663 250 664
3 664 250 249
3 250 253 665
3 665 253 667
3 665 667 666
3 666 667 668
3 666 668 251
3 251 668 252
3 253 256 669
3 669 256 671
3 669 671 670
3 670 671 672
3 670 672 254
3 254 672 255
3 256 120 673
3 673 120 674
3 673 674 257
3 257 674 122
3 257 259 255
3 255 259 258
3 259 676 675
3 675 676 677
3 675 677 260
3 260 677 678
3 676 679 677
3 677 679 680
3 677 680 678
3 678 680 681
3 679 126 680
3 680 126 682
3 680 682 681
3 681 682 128
3 260 262 258
3 258 262 261
3 262 683 263
3 263 683 684
3 683 685 684
3 684 685 686
3 685 687 686
3 686 687 688
3 687 689 688
3 688 689 690
3 689 129 690
3 690 129 131
3 263 691 261
3 261 691 692
3 691 693 692
3 692 693 694
3 693 695 694
3 694 695 696
3 695 697 696
3 696 697 698
3 697 699 698
3 698 699 700
3 699 701 700
3 700 701 702
3 701 703 702
3 702 703 704
3 703 132 704
3 704 132 134
3 254 705 252
3 252 705 706
3 705 707 706
3 706 707 708
3 707 265 708
3 708 265 264
3 265 268 709
3 709 268 711
3 709 711 710
3 710 711 712
3 710 712 266
3 266 712 267
3 268 271 713
3 713 271 714
3 713 714 269
3 269 714 270
3 271 274 715
3 715 274 716
3 715 716 272
3 272 716 273
3 274 277 717
3 717 277 720
3 717 720 718
3 718 720 721
3 718 721 719
3 719 721 722
3 719 722 275
3 275 722 276
3 277 280 723
3 723 280 724
3 723 724 278
3 278 724 279
3 280 156 725
3 725 156 727
3 725 727 726
3 726 727 728
3 726 728 281
3 281 728 158
3 281 283 729
3 729 283 730
3 729 730 279
3 279 730 282
3 283 731 284
3 284 731 732
3 731 286 732
3 732 286 285
3 286 733 287
3 287 733 734
3 733 159 734
3 734 159 161
3 287 289 735
3 735 289 736
3 735 736 285
3 285 736 288
3 289 171 290
3 290 171 173
3 290 174 288
3 288 174 176
3 284 276 737
3 737 276 738
3 737 738 282
3 282 738 278
3 275 292 739
3 739 292 740
3 739 740 273
3 273 740 291
3 292 295 741
3 741 295 742
3 741 742 293
3 293 742 294
3 295 745 743
3 743 745 746
3 743 746 744
3 744 746 747
3 744 747 296
3 296 747 748
3 745 298 746
3 746 298 749
3 746 749 747
3 747 749 750
3 747 750 748
3 748 750 297
3 298 301 751
3 751 301 754
3 751 754 752
3 752 754 755
3 752 755 753
3 753 755 756
3 753 756 299
3 299 756 300
3 301 177 757
3 757 177 758
3 757 758 302
3 302 758 179
3 302 304 759
3 759 304 761
3 759 761 760
3 760 761 762
3 760 762 300
3 300 762 303
3 304 307 763
3 763 307 765
3 763 765 764
3 764 765 766
3 764 766 305
3 305 766 306
3 307 180 767
3 767 180 769
3 767 769 768
3 768 769 770
3 768 770 308
3 308 770 182
3 308 183 306
3 306 183 185
3 305 310 771
3 771 310 774
3 771 774 772
3 772 774 775
3 772 775 773
3 773 775 776
3 773 776 303
3 303 776 309
3 310 313 777
3 777 313 780
3 777 780 778
3 778 780 781
3 778 781 779
3 779 781 782
3 779 782 311
3 311 782 312
3 313 316 783
3 783 316 786
3 783 786 784
3 784 786 787
3 784 787 785
3 785 787 788
3 785 788 314
3 314 788 315
3 316 789 317
3 317 789 790
3 789 791 790
3 790 791 792
3 791 793 792
3 792 793 794
3 793 795 794
3 794 795 796
3 795 797 796
3 796 797 798
3 797 799 798
3 798 799 800
3 799 801 800
3 800 801 802
3 801 803 802
3 802 803 804
3 803 319 804
3 804 319 318
3 319 204 320
3 320 204 206
3 320 805 318
3 318 805 806
3 805 807 806
3 806 807 808
3 807 809 808
3 808 809 810
3 809 811 810
3 810 811 812
3 811 322 812
3 812 322 321
3 322 813 323
3 323 813 814
3 813 815 814
3 814 815 816
3 815 817 816
3 816 817 818
3 817 819 818
3 818 819 820
3 819 325 820
3 820 325 324
3 325 328 326
3 326 328 327
3 328 821 329
3 329 821 822
3 821 207 822
3 822 207 209
3 329 210 327
3 327 210 212
3 326 824 823
3 823 824 825
3 823 825 324
3 324 825 826
3 824 331 825
3 825 331 827
3 825 827 826
3 826 827 330
3 331 334 332
3 332 334 333
3 334 337 335
3 335 337 336
3 337 216 338
3 338 216 218
3 338 340 336
3 336 340 339
3 340 228 828
3 828 228 830
3 828 830 829
3 829 830 831
3 829 831 341
3 341 831 230
3 341 343 832
3 832 343 835
3 832 835 833
3 833 835 836
3 833 836 834
3 834 836 837
3 834 837 339
3 339 837 342
3 343 841 838
3 838 841 842
3 838 842 839
3 839 842 843
3 839 843 840
3 840 843 844
3 840 844 344
3 344 844 845
3 841 346 842
3 842 346 846
3 842 846 843
3 843 846 847
3 843 847 844
3 844 847 848
3 844 848 845
3 845 848 345
3 346 349 849
3 849 349 852
3 849 852 850
3 850 852 853
3 850 853 851
3 851 853 854
3 851 854 347
3 347 854 348
3 349 352 350
3 350 352 351
3 352 234 855
3 855 234 856
3 855 856 353
3 353 856 236
3 353 355 351
3 351 355 354
3 355 315 857
3 857 315 860
3 857 860 858
3 858 860 861
3 858 861 859
3 859 861 862
3 859 862 356
3 356 862 317
3 356 348 863
3 863 348 866
3 863 866 864
3 864 866 867
3 864 867 865
3 865 867 868
3 865 868 354
3 354 868 350
3 347 869 345
3 345 869 870
3 869 871 870
3 870 871 872
3 871 358 872
3 872 358 357
3 358 873 359
3 359 873 874
3 873 321 874
3 874 321 323
3 359 875 357
3 357 875 876
3 875 877 876
3 876 877 878
3 877 879 878
3 878 879 880
3 879 881 880
3 880 881 882
3 881 330 882
3 882 330 332
3 344 333 342
3 342 333 335
3 314 361 312
3 312 361 360
3 361 364 362
3 362 364 363
3 364 884 883
3 883 884 885
3 883 885 365
3 365 885 886
3 884 246 885
3 885 246 887
3 885 887 886
3 886 887 248
3 365 297 363
3 363 297 299
3 362 309 360
3 360 309 311
3 296 267 888
3 888 267 889
3 888 889 294
3 294 889 269
3 293 270 291
3 291 270 272
3 266 892 890
3 890 892 893
3 890 893 891
3 891 893 894
3 891 894 264
3 264 894 895
3 892 249 893
3 893 249 896
3 893 896 894
3 894 896 897
3 894 897 895
3 895 897 251
3 245 237 243
3 243 237 239
3 200 899 898
3 898 899 900
3 898 900 198
3 198 900 901
3 899 186 900
3 900 186 902
3 900 902 901
3 901 902 188
3 155 903 153
3 153 903 904
3 903 905 904
3 904 905 906
3 905 907 906
3 906 907 908
3 907 150 908
3 908 150 152
3 149 138 147
3 147 138 140
3 119 99 117
3 117 99 101
3 2 0 366
3 2 366 414
3 414 366 367
3 414 367 415
3 415 367 368
3 415 368 416
3 416 368 1
3 5 3 371
3 5 371 373
3 373 371 370
3 373 370 372
3 372 370 369
3 372 369 4
3 439 6 375
3 439 375 440
3 440 375 374
3 440 374 8
3 8 374 7
3 460 9 382
3 460 382 11
3 382 9 10
3 391 12 386
3 391 386 13
3 391 13 14
3 17 15 394
3 394 15 392
3 394 392 393
3 393 392 16
3 486 18 396
3 486 396 397
3 486 397 20
3 397 396 395
3 397 395 19
3 495 21 909
3 495 909 400
3 495 400 496
3 496 400 401
3 496 401 23
3 400 909 399
3 399 909 398
3 399 398 22
3 398 909 21
3 26 24 910
3 26 910 407
3 407 910 406
3 406 910 911
3 406 911 405
3 405 911 403
3 405 403 402
3 405 402 25
3 403 911 404
3 404 911 910
3 404 910 24
3 29 27 912
3 29 912 413
3 413 912 913
3 413 913 412
3 412 913 409
3 412 409 408
3 412 408 411
3 411 408 28
3 409 913 410
3 410 913 912
3 410 912 27
3 32 30 417
3 417 30 31
3 35 33 418
3 35 418 34
3 38 36 419
3 419 36 37
3 41 39 421
3 421 39 420
3 421 420 40
3 44 42 422
3 44 422 423
3 423 422 43
3 540 45 424
3 540 424 425
3 540 425 47
3 425 424 46
3 431 48 426
3 431 426 50
3 50 426 49
3 53 51 433
3 433 51 432
3 433 432 52
3 56 54 434
3 56 434 435
3 435 434 55
3 441 57 914
3 441 914 438
3 441 438 59
3 438 914 437
3 437 914 436
3 437 436 58
3 436 914 57
3 62 60 442
3 62 442 443
3 443 442 61
3 594 63 444
3 594 444 64
3 594 64 65
3 596 66 67
3 596 67 451
3 596 451 68
3 602 69 452
3 602 452 70
3 602 70 71
3 74 72 459
3 459 72 73
3 77 75 76
3 608 78 79
3 608 79 475
3 608 475 80
3 83 81 480
3 480 81 479
3 480 479 82
3 487 84 484
3 487 484 485
3 487 485 86
3 485 484 85
3 627 87 488
3 627 488 489
3 627 489 628
3 628 489 490
3 628 490 89
3 489 488 88
3 92 90 494
3 494 90 492
3 494 492 493
3 493 492 491
3 493 491 91
3 95 93 94
3 98 96 97
3 101 99 100
3 104 102 103
3 107 105 106
3 524 108 109
3 524 109 515
3 524 515 110
3 520 111 519
3 520 519 112
3 520 112 113
3 116 114 115
3 119 117 118
3 674 120 121
3 674 121 122
3 125 123 124
3 682 126 127
3 682 127 128
3 131 129 130
3 134 132 133
3 137 135 136
3 140 138 139
3 541 141 537
3 541 537 143
3 537 141 142
3 539 144 538
3 539 538 146
3 146 538 145
3 149 147 543
3 543 147 542
3 543 542 148
3 152 150 545
3 545 150 544
3 545 544 151
3 155 153 546
3 155 546 547
3 547 546 154
3 727 156 548
3 727 548 728
3 728 548 157
3 728 157 158
3 161 159 549
3 549 159 160
3 164 162 556
3 164 556 163
3 557 165 166
3 557 166 167
3 565 168 561
3 565 561 564
3 564 561 169
3 564 169 170
3 173 171 567
3 173 567 566
3 173 566 568
3 568 566 172
3 176 174 570
3 570 174 569
3 570 569 175
3 758 177 574
3 758 574 179
3 179 574 178
3 769 180 181
3 769 181 575
3 769 575 770
3 770 575 576
3 770 576 182
3 185 183 584
3 584 183 582
3 584 582 583
3 583 582 581
3 583 581 184
3 902 186 586
3 902 586 915
3 902 915 188
3 188 915 587
3 587 915 585
3 587 585 187
3 585 915 586
3 598 189 588
3 598 588 597
3 597 588 190
3 597 190 191
3 595 192 193
3 595 193 593
3 595 593 194
3 197 195 600
3 197 600 601
3 601 600 599
3 601 599 196
3 898 198 199
3 898 199 605
3 898 605 200
3 203 201 607
3 607 201 606
3 607 606 202
3 206 204 205
3 209 207 208
3 212 210 211
3 613 213 214
3 613 214 215
3 218 216 614
3 218 614 217
3 638 219 615
3 638 615 616
3 638 616 637
3 637 616 221
3 615 219 220
3 224 222 621
3 621 222 618
3 621 618 620
3 620 618 617
3 620 617 619
3 619 617 223
3 227 225 624
3 227 624 626
3 626 624 623
3 626 623 625
3 625 623 622
3 625 622 226
3 830 228 640
3 830 640 639
3 830 639 916
3 830 916 831
3 831 916 230
3 230 916 229
3 229 916 639
3 233 231 232
3 856 234 235
3 856 235 236
3 239 237 238
3 242 240 241
3 245 243 244
3 887 246 247
3 887 247 248
3 896 249 665
3 896 665 666
3 896 666 897
3 897 666 251
3 665 249 250
3 254 252 670
3 670 252 668
3 670 668 669
3 669 668 667
3 669 667 253
3 257 255 672
3 257 672 673
3 673 672 671
3 673 671 256
3 260 258 675
3 675 258 259
3 263 261 262
3 891 264 709
3 891 709 710
3 891 710 890
3 890 710 266
3 709 264 265
3 889 267 712
3 889 712 713
3 889 713 269
3 713 712 711
3 713 711 268
3 272 270 714
3 272 714 715
3 715 714 271
3 739 273 718
3 739 718 719
3 739 719 275
3 718 273 717
3 717 273 716
3 717 716 274
3 738 276 722
3 738 722 721
3 738 721 278
3 278 721 720
3 278 720 723
3 723 720 277
3 729 279 726
3 729 726 281
3 726 279 725
3 725 279 724
3 725 724 280
3 737 282 730
3 737 730 283
3 737 283 284
3 735 285 286
3 735 286 287
3 290 288 736
3 290 736 289
3 293 291 740
3 293 740 741
3 741 740 292
3 888 294 744
3 888 744 296
3 744 294 743
3 743 294 742
3 743 742 295
3 299 297 753
3 753 297 750
3 753 750 752
3 752 750 749
3 752 749 751
3 751 749 298
3 760 300 756
3 760 756 755
3 760 755 759
3 759 755 917
3 759 917 302
3 302 917 757
3 757 917 301
3 301 917 754
3 754 917 755
3 918 919 923
3 919 920 923
3 920 921 923
3 922 918 923
3 773 303 762
3 773 762 919
3 773 919 772
3 772 919 918
3 772 918 771
3 771 918 922
3 771 922 764
3 771 764 305
3 764 922 763
3 763 922 923
3 763 923 921
3 763 921 304
3 304 921 761
3 761 921 920
3 761 920 762
3 762 920 919
3 308 306 766
3 308 766 768
3 768 766 765
3 768 765 767
3 767 765 307
3 311 309 776
3 311 776 779
3 779 776 775
3 779 775 778
3 778 775 774
3 778 774 777
3 777 774 310
3 314 312 785
3 785 312 782
3 785 782 784
3 784 782 781
3 784 781 783
3 783 781 780
3 783 780 313
3 860 315 788
3 860 788 787
3 860 787 861
3 861 787 786
3 861 786 862
3 862 786 316
3 862 316 317
3 320 318 319
3 323 321 322
3 823 324 325
3 823 325 326
3 329 327 328
3 332 330 827
3 332 827 331
3 335 333 334
3 338 336 337
3 834 339 340
3 834 340 828
3 834 828 833
3 833 828 829
3 833 829 832
3 832 829 341
3 344 342 840
3 840 342 837
3 840 837 839
3 839 837 836
3 839 836 838
3 838 836 835
3 838 835 343
3 347 345 851
3 851 345 848
3 851 848 850
3 850 848 847
3 850 847 849
3 849 847 846
3 849 846 346
3 866 348 854
3 866 854 867
3 867 854 853
3 867 853 868
3 868 853 852
3 868 852 350
3 350 852 349
3 353 351 855
3 855 351 352
3 865 354 857
3 865 857 858
3 865 858 864
3 864 858 859
3 864 859 863
3 863 859 356
3 857 354 355
3 359 357 358
3 362 360 361
3 365 363 883
3 883 363 364
3 925 924 926
3 925 926 927
3 927 926 929
3 928 927 929
3 928 929 387
3 928 387 383
3 928 383 10
3 928 10 927
3 927 10 380
3 927 380 378
3 927 378 925
3 925 378 376
3 925 376 924
3 924 376 7
3 924 7 4
3 924 4 389
3 924 389 926
3 926 389 929
3 929 389 387
3 389 4 0
3 383 387 13
3 931 930 932
3 931 932 429
3 931 429 427
3 931 427 43
3 931 43 40
3 931 40 930
3 930 40 37
3 930 37 932
3 932 37 34
3 932 34 933
3 932 933 429
3 429 933 3
3 3 933 1
3 1 933 31
3 1 31 29
3 31 933 34
3 43 427 49
3 43 49 46
3 6 58 934
3 6 934 430
3 6 430 5
3 430 934 428
3 428 934 50
3 50 934 52
3 52 934 55
3 55 934 58
3 9 73 936
3 9 936 381
3 381 936 379
3 379 936 935
3 379 935 377
3 377 935 61
3 377 61 59
3 377 59 8
3 61 935 445
3 61 445 64
3 445 935 447
3 447 935 936
3 447 936 457
3 447 457 449
3 449 457 455
3 449 455 453
3 449 453 67
3 67 453 70
3 457 936 73
3 938 937 939
3 938 939 940
3 939 941 942
3 940 939 942
3 942 941 943
3 942 943 473
3 942 473 471
3 942 471 940
3 940 471 469
3 940 469 938
3 938 469 467
3 938 467 465
3 938 465 463
3 938 463 937
3 937 463 461
3 937 461 74
3 937 74 939
3 939 74 941
3 941 74 11
3 941 11 385
3 941 385 943
3 943 385 473
3 473 385 12
3 473 12 15
3 465 467 76
3 2 28 390
3 390 28 944
3 390 944 388
3 388 944 19
3 388 19 16
3 388 16 14
3 19 944 22
3 22 944 25
3 25 944 28
3 18 85 17
3 17 85 481
3 17 481 474
3 474 481 946
3 474 946 472
3 472 946 945
3 472 945 470
3 470 945 468
3 468 945 476
3 468 476 77
3 77 476 79
3 476 945 82
3 82 945 946
3 82 946 481
3 21 91 86
3 21 86 20
3 86 91 88
3 947 948 949
3 948 950 951
3 949 948 951
3 949 951 513
3 949 513 511
3 949 511 947
3 947 511 103
3 947 103 100
3 947 100 509
3 947 509 507
3 947 507 948
3 948 507 505
3 948 505 950
3 950 505 503
3 950 503 952
3 950 952 951
3 951 952 109
3 951 109 106
3 951 106 513
3 109 952 516
3 516 952 501
3 516 501 499
3 516 499 497
3 516 497 23
3 516 23 112
3 112 23 24
3 112 24 115
3 23 497 92
3 501 952 503
3 509 100 94
3 94 100 97
3 27 30 116
3 27 116 26
3 525 107 108
3 525 108 953
3 525 953 33
3 33 953 32
3 32 953 113
3 32 113 114
3 113 953 521
3 521 953 108
3 531 124 526
3 531 526 36
3 36 526 35
3 526 124 954
3 526 954 105
3 105 954 514
3 514 954 529
3 514 529 527
3 514 527 512
3 512 527 104
3 104 527 121
3 104 121 118
3 529 954 124
3 535 136 133
3 535 133 130
3 535 130 533
3 535 533 532
3 535 532 38
3 535 38 39
3 532 533 125
3 125 533 127
3 42 145 956
3 42 956 41
3 41 956 955
3 41 955 536
3 536 955 137
3 137 955 139
3 139 955 956
3 139 956 142
3 142 956 145
3 45 146 44
3 48 51 163
3 48 163 553
3 48 553 143
3 48 143 144
3 48 144 47
3 143 553 148
3 148 553 550
3 148 550 151
3 151 550 160
3 151 160 154
3 154 160 157
3 54 166 164
3 54 164 53
3 57 60 167
3 57 167 56
3 167 60 558
3 558 60 562
3 558 562 169
3 63 193 563
3 63 563 62
3 563 193 170
3 170 193 591
3 170 591 172
3 172 591 589
3 172 589 175
3 175 589 957
3 175 957 571
3 571 957 178
3 178 957 577
3 178 577 181
3 577 957 184
3 184 957 589
3 184 589 190
3 184 190 187
3 66 194 959
3 66 959 450
3 450 959 448
3 448 959 958
3 448 958 446
3 446 958 65
3 65 958 194
3 194 958 959
3 69 196 960
3 69 960 961
3 69 961 68
3 68 961 192
3 192 961 592
3 592 961 960
3 592 960 590
3 590 960 191
3 191 960 196
3 466 75 199
3 466 199 603
3 466 603 464
3 464 603 962
3 464 962 462
3 462 962 458
3 462 458 72
3 458 962 456
3 456 962 454
3 454 962 603
3 454 603 197
3 454 197 71
3 199 75 202
3 202 75 78
3 611 214 211
3 611 211 963
3 611 963 81
3 81 963 478
3 478 963 609
3 478 609 208
3 478 208 80
3 80 208 205
3 80 205 203
3 609 963 211
3 965 964 967
3 965 967 968
3 966 965 968
3 968 967 970
3 969 968 970
3 969 970 84
3 969 84 87
3 969 87 226
3 969 226 966
3 969 966 968
3 966 226 223
3 966 223 965
3 965 223 217
3 965 217 964
3 964 217 215
3 964 215 612
3 964 612 967
3 967 612 83
3 967 83 483
3 967 483 970
3 970 483 84
3 217 223 220
3 971 973 974
3 972 971 974
3 972 974 975
3 975 974 976
3 975 976 506
3 975 506 508
3 975 508 972
3 972 508 510
3 972 510 649
3 972 649 647
3 972 647 971
3 971 647 645
3 971 645 643
3 971 643 973
3 973 643 232
3 973 232 633
3 973 633 631
3 973 631 976
3 973 976 974
3 976 631 977
3 976 977 504
3 976 504 506
3 504 977 502
3 502 977 631
3 502 631 629
3 502 629 500
3 500 629 498
3 498 629 227
3 498 227 89
3 498 89 90
3 633 232 635
3 635 232 641
3 635 641 229
3 635 229 221
3 635 221 222
3 649 510 93
3 978 979 980
3 978 980 659
3 978 659 238
3 978 238 657
3 978 657 655
3 978 655 979
3 979 655 653
3 979 653 981
3 979 981 648
3 979 648 980
3 980 648 650
3 980 650 241
3 980 241 659
3 241 650 95
3 241 95 96
3 648 981 646
3 646 981 651
3 646 651 644
3 644 651 233
3 651 981 653
3 657 238 235
3 982 983 984
3 984 983 985
3 984 985 256
3 984 256 253
3 984 253 982
3 982 253 250
3 982 250 663
3 982 663 244
3 982 244 661
3 982 661 983
3 983 661 242
3 983 242 98
3 983 98 985
3 985 98 99
3 985 99 120
3 985 120 256
3 120 99 119
3 244 663 247
3 102 117 101
3 523 110 986
3 523 986 111
3 111 986 518
3 518 986 110
3 123 126 530
3 530 126 679
3 530 679 528
3 528 679 676
3 528 676 122
3 122 676 259
3 122 259 257
3 989 988 990
3 989 990 991
3 989 991 689
3 989 689 687
3 989 687 685
3 989 685 988
3 988 685 987
3 988 987 678
3 988 678 681
3 988 681 990
3 990 681 128
3 990 128 991
3 991 128 534
3 991 534 129
3 991 129 689
3 678 987 260
3 260 987 262
3 262 987 683
3 683 987 685
3 993 992 994
3 993 994 995
3 996 995 997
3 996 997 998
3 996 998 699
3 996 699 697
3 996 697 993
3 996 993 995
3 993 697 695
3 993 695 693
3 993 693 992
3 992 693 691
3 992 691 684
3 992 684 994
3 994 684 686
3 994 686 995
3 995 686 688
3 995 688 997
3 997 688 690
3 997 690 999
3 997 999 998
3 998 999 703
3 998 703 701
3 998 701 699
3 703 999 132
3 132 999 131
3 131 999 690
3 684 691 263
3 1000 1001 1002
3 1000 1002 1003
3 1001 1005 1006
3 1001 1006 1007
3 1002 1001 1007
3 1007 1006 1010
3 1007 1010 905
3 1007 905 903
3 1007 903 1002
3 1002 903 1003
3 1003 903 1008
3 1003 1008 274
3 1003 274 271
3 1003 271 265
3 1003 265 707
3 1003 707 1000
3 1000 707 1001
3 1001 707 1004
3 1001 1004 1005
3 1005 1004 694
3 1005 694 696
3 1005 696 1006
3 1006 696 1010
3 1010 696 698
3 1010 698 1012
3 1010 1012 905
3 905 1012 907
3 907 1012 702
3 907 702 1013
3 907 1013 138
3 907 138 149
3 907 149 150
3 138 1013 704
3 138 704 135
3 135 704 134
3 704 1013 702
3 702 1012 700
3 700 1012 698
3 694 1004 1009
3 694 1009 692
3 692 1009 1011
3 692 1011 261
3 261 1011 258
3 258 1011 255
3 255 1011 254
3 254 1011 1009
3 254 1009 705
3 705 1009 1004
3 705 1004 707
3 265 271 268
3 274 1008 277
3 277 1008 280
3 280 1008 156
3 156 1008 903
3 156 903 155
3 141 147 140
3 908 152 1015
3 908 1015 906
3 906 1015 1014
3 906 1014 904
3 904 1014 153
3 153 1014 1015
3 153 1015 152
3 733 286 731
3 733 731 158
3 733 158 159
3 158 731 281
3 281 731 283
3 1016 1019 1020
3 1017 1016 1020
3 1017 1020 1021
3 1017 1021 1022
3 1019 1018 1023
3 1019 1023 1024
3 1020 1019 1024
3 1020 1024 1025
3 1021 1020 1025
3 1021 1025 1026
3 1021 1026 1027
3 1022 1021 1027
3 1023 1028 1029
3 1024 1023 1029
3 1024 1029 1030
3 1025 1024 1030
3 1025 1030 1031
3 1026 1025 1031
3 1026 1031 1032
3 1027 1026 1032
3 1029 1028 1033
3 1029 1033 1034
3 1030 1029 1034
3 1030 1034 1035
3 1031 1030 1035
3 1032 1031 1035
3 1034 1033 1036
3 1034 1036 1035
3 1035 1036 560
3 1035 560 168
3 1035 168 1032
3 1032 168 171
3 1032 171 1027
3 1027 171 1022
3 1022 171 289
3 1022 289 1017
3 1017 289 287
3 1017 287 1016
3 1016 287 734
3 1016 734 1018
3 1016 1018 1019
3 1018 734 161
3 1018 161 1023
3 1023 161 552
3 1023 552 1028
3 1028 552 555
3 1028 555 1033
3 1033 555 162
3 1033 162 1036
3 1036 162 165
3 1036 165 560
3 174 290 173
3 1037 1038 1039
3 1037 1039 1040
3 1037 1040 1041
3 1037 1041 1042
3 1037 1042 1043
3 1037 1043 1038
3 1043 1042 1044
3 1043 1044 1045
3 1043 1045 177
3 1043 177 1038
3 1038 177 298
3 1038 298 745
3 1038 745 1039
3 1039 745 295
3 1039 295 292
3 1039 292 1040
3 1040 292 275
3 1040 275 276
3 1040 276 732
3 1040 732 1041
3 1041 732 285
3 1041 285 1042
3 1042 285 288
3 1042 288 1044
3 1044 288 176
3 1044 176 573
3 1044 573 1045
3 1045 573 177
3 732 276 284
3 298 177 301
3 180 307 179
3 179 307 302
3 302 307 304
3 183 308 580
3 580 308 183
3 308 182 580
3 899 200 801
3 899 801 799
3 899 799 797
3 899 797 185
3 899 185 186
3 185 797 795
3 185 795 793
3 185 793 306
3 306 793 791
3 306 791 1046
3 306 1046 305
3 305 1046 310
3 310 1046 789
3 310 789 313
3 313 789 316
3 789 1046 791
3 801 200 803
3 803 200 201
3 803 201 319
3 319 201 204
3 189 195 1047
3 189 1047 901
3 189 901 188
3 901 1047 198
3 198 1047 604
3 604 1047 195
3 1048 1049 1050
3 1048 1050 817
3 1048 817 815
3 1048 815 809
3 1048 809 807
3 1048 807 1049
3 1049 807 805
3 1049 805 207
3 1049 207 821
3 1049 821 1050
3 1050 821 328
3 1050 328 819
3 1050 819 817
3 819 328 325
3 207 805 320
3 207 320 206
3 809 815 813
3 809 813 811
3 811 813 322
3 210 329 822
3 210 822 610
3 610 822 209
3 1051 1052 1053
3 1051 1053 337
3 1051 337 334
3 1051 334 331
3 1051 331 824
3 1051 824 1052
3 1052 824 326
3 1052 326 1054
3 1052 1054 213
3 1052 213 1053
3 1053 213 216
3 1053 216 337
3 213 1054 212
3 212 1054 327
3 327 1054 326
3 219 228 338
3 219 338 218
3 338 228 340
3 636 224 1055
3 636 1055 634
3 634 1055 632
3 632 1055 1056
3 632 1056 630
3 630 1056 225
3 225 1056 1055
3 225 1055 224
3 1057 1059 1060
3 1060 1059 1062
3 1059 1061 1062
3 1062 1061 1064
3 1061 1063 1064
3 1064 1063 642
3 1064 642 231
3 1064 231 652
3 1064 652 1062
3 1062 652 654
3 1062 654 1060
3 1060 654 656
3 1060 656 658
3 1060 658 1057
3 1057 658 234
3 1057 234 1058
3 1057 1058 841
3 1057 841 1059
3 1059 841 1061
3 1061 841 343
3 1061 343 1063
3 1063 343 341
3 1063 341 642
3 642 341 230
3 841 1058 346
3 346 1058 352
3 346 352 349
3 352 1058 234
3 1065 1066 1067
3 1065 1068 1069
3 1065 1069 1066
3 1066 1069 353
3 1066 353 236
3 1066 236 1067
3 1067 236 237
3 1067 237 245
3 1067 245 246
3 1067 246 1065
3 1065 246 884
3 1065 884 1068
3 1068 884 364
3 1068 364 361
3 1068 361 315
3 1068 315 1069
3 1069 315 355
3 1069 355 353
3 315 361 314
3 662 243 660
3 662 660 240
3 660 243 239
3 892 266 1071
3 892 1071 1070
3 892 1070 664
3 892 664 249
3 664 1070 248
3 248 1070 886
3 886 1070 365
3 365 1070 748
3 365 748 297
3 748 1070 1071
3 748 1071 296
3 296 1071 266
3 296 266 267
3 708 264 895
3 708 895 706
3 706 895 251
3 706 251 252
3 270 293 294
3 270 294 269
3 273 291 272
3 279 282 278
3 300 303 362
3 300 362 299
3 299 362 363
3 362 303 309
3 312 360 311
3 1072 1073 1074
3 1072 1074 1075
3 1072 1075 1076
3 1072 1076 1077
3 1072 1077 1078
3 1072 1078 1073
3 1075 1074 1079
3 1075 1079 1080
3 1075 1080 1081
3 1076 1075 1081
3 1076 1081 1082
3 1076 1082 1083
3 1077 1076 1083
3 1077 1083 1084
3 1077 1084 1085
3 1078 1077 1085
3 1078 1085 1086
3 1084 1083 1087
3 1084 1087 1088
3 1085 1084 1088
3 1085 1088 1089
3 1085 1089 1090
3 1086 1085 1090
3 1088 1091 1092
3 1089 1088 1092
3 1089 1092 1093
3 1090 1089 1093
3 1092 1091 1094
3 1092 1094 1095
3 1093 1092 1095
3 1093 1095 810
3 1093 810 812
3 1093 812 1090
3 1090 812 321
3 1090 321 1086
3 1086 321 873
3 1086 873 1078
3 1078 873 1073
3 1073 873 358
3 1073 358 1074
3 1074 358 871
3 1074 871 1079
3 1079 871 869
3 1079 869 348
3 1079 348 356
3 1079 356 1080
3 1080 356 317
3 1080 317 790
3 1080 790 1081
3 1081 790 792
3 1081 792 1082
3 1082 792 794
3 1082 794 1083
3 1083 794 796
3 1083 796 1087
3 1087 796 798
3 1087 798 1088
3 1088 798 1091
3 1091 798 800
3 1091 800 1094
3 1094 800 802
3 1094 802 1095
3 1095 802 804
3 1095 804 806
3 1095 806 808
3 1095 808 810
3 806 804 318
3 348 869 347
3 1097 1096 1100
3 1098 1101 1102
3 1096 1098 1102
3 1096 1102 1099
3 1096 1099 1100
3 1100 1099 1104
3 1102 1101 1105
3 1102 1105 1106
3 1099 1102 1106
3 1099 1106 1103
3 1099 1103 1104
3 1104 1103 1108
3 1105 1109 1110
3 1106 1105 1110
3 1103 1106 1110
3 1103 1110 1107
3 1103 1107 1108
3 1108 1107 826
3 1108 826 330
3 1108 330 881
3 1108 881 1104
3 1104 881 879
3 1104 879 1100
3 1100 879 877
3 1100 877 1097
3 1097 877 875
3 1097 875 359
3 1097 359 1096
3 1096 359 1098
3 1098 359 874
3 1098 874 323
3 1098 323 1101
3 1101 323 814
3 1101 814 1105
3 1105 814 816
3 1105 816 1109
3 1109 816 818
3 1109 818 820
3 1109 820 1110
3 1110 820 324
3 1110 324 1107
3 1107 324 826
3 333 344 882
3 333 882 332
3 882 344 880
3 880 344 845
3 880 845 878
3 878 845 345
3 878 345 870
3 878 870 876
3 876 870 872
3 876 872 357
3 336 339 335
3 335 339 342
3 351 354 350
