ply
format ascii 1.0
comment Generated by PyMesh
element vertex 729
property float x
property float y
property float z
property float nx
property float ny
property float nz
element face 1454
property list uchar int vertex_indices
end_header
35.395 48.898 54.549 -0.065 -0.825 -0.561
35.243 49.145 53.917 0.036 -0.99 -0.14
35.74 48.424 54.92 -0.296 -0.509 -0.809
35.009 51.911 54.248 -0.131 0.987 0.097
35.131 52.024 54.923 -0.212 0.911 -0.353
35.667 52.461 55.201 -0.57 0.62 -0.539
35.391 52.478 55.811 -0.767 0.633 -0.103
34.818 52.044 55.612 -0.386 0.922 0.03
35.35 52.708 56.363 -0.74 0.48 -0.471
34.84 51.748 57.498 -0.995 -0.001 0.097
34.331 51.127 56.695 -0.656 0.413 0.632
34.842 51.716 57.764 -0.997 0.02 -0.081
35.166 50.918 58.144 -0.727 -0.645 0.236
34.728 50.148 57.161 -0.435 -0.131 0.891
35.256 50.721 57.986 -0.787 -0.514 0.341
35.612 50.334 58.02 -0.609 -0.708 0.358
35.068 49.777 57.194 -0.247 -0.337 0.909
35.451 49.202 57.261 -0.502 0.047 0.864
36.334 50.046 58.229 -0.248 -0.851 0.462
36.061 48.959 57.438 -0.066 -0.126 0.99
37.087 49.645 59.388 -0.75 -0.584 -0.31
38.696 49.615 58.411 0.055 -0.599 -0.799
37.421 48.933 56.612 0.905 -0.145 0.4
38.02 49.996 57.409 0.506 -0.853 -0.131
38.129 50.191 57.075 0.597 -0.69 -0.409
37.54 49.145 56.25 0.99 0.007 0.141
38.085 50.267 56.823 0.627 -0.741 -0.241
37.917 50.713 55.983 0.543 -0.518 -0.661
37.399 49.522 55.54 0.889 0.276 -0.365
37.268 50.14 55.249 0.976 -0.136 -0.171
36.371 49.332 54.376 0.477 -0.584 -0.656
36.604 48.808 54.768 0.322 -0.235 -0.917
36.107 49.529 53.764 0.653 -0.715 -0.248
36.834 50.844 54.426 0.734 0.256 -0.629
36.517 50.867 53.809 0.946 0.24 -0.217
37.175 51.416 54.762 0.507 -0.126 -0.853
37.262 50.266 55.155 0.972 -0.066 -0.224
37.554 50.904 55.407 0.778 -0.491 -0.392
37.911 50.845 55.885 0.54 -0.452 -0.71
38.031 51.168 55.815 0.6 -0.291 -0.745
37.656 51.177 55.348 0.851 -0.297 -0.434
38.977 51.726 55.819 -0.03 -0.663 -0.748
38.852 52.251 55.491 -0.093 -0.401 -0.911
37.55 51.619 55.072 0.775 0.02 -0.632
39.099 52.683 55.14 -0.258 -0.689 -0.677
38.429 53.659 55.141 -0.736 0.008 -0.677
36.88 52.595 55.072 0.296 0.717 -0.631
37.412 53.409 55.6 -0.058 0.174 -0.983
36.848 53.628 55.773 -0.34 0.284 -0.896
36.404 52.78 55.219 -0.044 0.849 -0.527
36.791 53.878 55.848 -0.302 0.117 -0.946
36.26 53.882 56.195 -0.744 0.121 -0.657
35.827 52.785 55.596 -0.456 0.852 -0.257
36.166 53.633 56.22 -0.682 0.287 -0.673
36.054 53.597 56.327 -0.738 0.268 -0.62
35.732 52.754 55.686 -0.523 0.83 -0.193
35.754 53.035 56.215 -0.538 0.643 -0.545
35.798 53.292 58.54 -0.866 0.116 0.487
35.498 52.731 58.428 -0.666 0.491 0.561
35.988 53.346 59.13 -0.992 0.08 0.093
35.995 53.239 59.222 -0.987 0.004 0.159
35.507 52.603 58.537 -0.662 0.427 0.616
35.361 52.382 58.572 -0.565 0.575 0.592
36.362 52.569 59.698 -0.725 -0.475 0.498
35.699 51.765 59.01 -0.283 0.061 0.957
36.694 51.409 60.259 -0.946 0.298 0.125
36.604 50.557 60.017 -0.992 -0.128 0.004
35.628 51.102 58.822 -0.342 -0.492 0.801
35.851 50.958 58.859 -0.49 -0.396 0.777
36.562 52.82 60.061 -0.582 -0.296 0.758
36.931 51.706 60.688 -0.828 0.447 0.339
36.954 52.807 60.514 -0.843 -0.287 0.455
37.599 52.909 61.245 -0.52 -0.236 0.821
37.577 51.809 61.419 -0.505 0.498 0.705
38.188 52.324 61.908 -0.912 0.154 0.379
38.382 51.745 62.276 -0.815 -0.135 0.563
37.771 51.23 61.787 -0.408 0.208 0.889
38.429 51.17 62.413 -0.846 0.248 0.472
38.372 50.396 62.399 -0.874 -0.139 0.465
37.715 50.455 61.773 -0.436 -0.179 0.882
38.069 50.062 61.992 -0.672 0.083 0.736
40.375 49.656 59.531 0.685 -0.156 -0.712
40.195 50.018 59.125 0.804 -0.398 -0.442
40.853 49.959 59.751 0.366 -0.358 -0.859
40.997 50.725 59.672 0.438 0.025 -0.899
40.34 50.785 59.046 0.876 -0.014 -0.481
40.951 51.3 59.535 0.469 -0.358 -0.807
40.928 51.366 59.495 0.457 -0.325 -0.828
40.317 50.85 59.006 0.865 0.019 -0.502
40.51 51.81 57.851 0.736 -0.621 0.268
40.413 51.655 57.705 0.688 -0.699 0.196
40.22 50.695 58.86 0.817 -0.059 -0.574
40.287 51.459 57.573 0.772 -0.569 0.284
39.433 50.952 57.092 0.06 -0.991 -0.116
39.122 50.043 58.243 0.268 -0.385 -0.883
38.351 50.328 57.278 0.782 -0.575 -0.24
39.393 50.978 56.942 0.027 -0.97 -0.242
38.311 50.354 57.128 0.748 -0.554 -0.365
38.318 50.477 56.891 0.743 -0.636 -0.207
39.341 51.224 56.459 -0.017 -0.765 -0.644
38.251 50.793 56.27 0.71 -0.478 -0.517
39.196 51.352 56.274 0.079 -0.85 -0.52
41.038 51.516 59.507 0.513 -0.25 -0.821
40.62 51.96 57.863 0.791 -0.546 0.275
40.853 52.294 58.37 0.636 -0.769 -0.063
41.24 53.062 57.686 0.829 -0.386 -0.405
41.007 52.727 57.179 0.984 -0.163 -0.067
41.269 53.168 56.525 0.81 -0.457 0.369
40.486 52.7 55.473 0.158 -0.847 -0.508
40 52.126 55.826 0.481 -0.464 -0.744
40.069 52.577 55.423 0.435 -0.765 -0.475
40.314 54.823 55.621 0.014 0.923 -0.385
39.883 54.884 55.584 0.302 0.883 -0.36
39.971 55.777 56.433 0.244 0.287 -0.926
38.851 55.686 56.713 -0.689 0.211 -0.694
38.667 54.784 55.887 -0.566 0.812 -0.143
37.449 54.744 56.401 0.246 0.839 -0.485
37.207 54.104 55.842 0.045 0.306 -0.951
38.405 54.09 55.28 -0.754 0.315 -0.577
37.384 53.919 55.766 -0.073 0.429 -0.9
38.668 55.848 57.048 -0.842 0.346 -0.414
37.265 54.906 56.736 0.093 0.974 -0.206
37.458 54.95 56.915 -0.035 0.945 -0.326
38.605 55.907 57.294 -0.894 0.395 -0.209
37.377 55.026 57.231 -0.076 0.983 -0.167
38.414 55.842 57.682 -0.767 0.439 -0.468
38.198 55.725 58.559 -0.921 0.355 0.158
37.122 54.887 58.269 -0.204 0.914 0.352
37.597 55.025 59.142 -0.521 0.822 -0.23
37.275 54.822 59.35 -0.682 0.72 -0.126
36.799 54.684 58.477 -0.365 0.812 0.456
36.834 54.522 59.077 -0.388 0.92 0.055
39.08 55.944 59.469 -0.292 0.511 0.808
38.641 55.284 60.219 0.001 0.951 0.308
38.646 55.224 60.481 -0.002 0.991 0.134
38.359 54.133 61.48 -0.242 0.081 0.967
38.272 53.88 61.505 -0.184 0.25 0.951
38.861 53.295 62.168 -0.576 0.64 0.509
38.399 54.162 61.487 -0.209 0.106 0.972
38.912 53.333 62.176 -0.551 0.659 0.513
39.32 53.718 62.344 -0.823 0.402 0.401
39.543 53.305 62.858 -0.692 0.159 0.704
39.151 52.889 62.73 -0.431 0.436 0.79
39.825 53.136 63.333 -0.881 0.272 0.388
39.917 52.235 63.599 -0.835 -0.178 0.521
39.243 51.988 62.996 -0.385 -0.014 0.923
39.7 51.268 63.55 -0.69 0.466 0.553
39.697 51.265 63.548 -0.692 0.465 0.553
39.239 51.985 62.994 -0.387 -0.015 0.922
39.286 51.41 63.131 -0.418 0.368 0.831
39.449 49.421 63.15 -0.816 -0.458 0.354
39.038 49.566 62.733 -0.542 -0.554 0.632
39.668 48.903 63.304 -0.961 -0.112 0.251
39.658 48.772 63.166 -0.967 -0.189 0.17
39.027 49.426 62.585 -0.547 -0.624 0.558
38.678 49.161 62.165 -0.314 -0.447 0.838
39.681 48.627 63.087 -0.954 -0.274 0.124
38.701 49.015 62.086 -0.3 -0.533 0.791
39.691 48.34 62.875 -0.961 -0.083 0.265
41.063 48.083 61.432 0.182 -0.297 -0.937
40.34 48.708 60.361 0.664 -0.713 -0.223
41.32 48.32 61.362 0.011 -0.455 -0.891
41.418 48.438 61.312 0.068 -0.385 -0.92
40.438 48.826 60.311 0.722 -0.644 -0.253
40.921 49.066 60.59 0.4 -0.804 -0.439
41.581 48.542 61.292 0.164 -0.324 -0.932
41.096 49.178 60.569 0.488 -0.748 -0.45
41.508 49.033 60.987 0.213 -0.651 -0.728
42.24 50.833 60.891 0.58 0.249 -0.776
41.829 50.978 60.474 0.854 0.152 -0.498
42.457 51.8 60.94 0.435 -0.396 -0.809
42.455 51.804 60.937 0.434 -0.394 -0.81
41.826 50.982 60.47 0.853 0.154 -0.499
41.78 51.557 60.334 0.884 -0.23 -0.408
42.356 52.626 60.711 0.384 0.017 -0.923
41.681 52.379 60.108 0.834 0.182 -0.521
41.595 53.217 58.948 0.891 -0.377 0.252
41.325 52.776 58.601 0.666 -0.745 -0.037
41.333 51.811 59.662 0.66 -0.102 -0.744
41.149 52.59 58.524 0.783 -0.621 0.014
41.476 54.176 59.176 0.792 0.421 0.442
41.343 54.39 59.264 0.88 0.279 0.384
41.752 53.977 60.694 0.607 0.554 -0.569
40.465 54.684 61.335 -0.15 0.97 -0.193
39.958 55.15 59.953 0.188 0.659 0.729
39.554 54.957 60.427 0.458 0.788 0.412
39.484 55.014 60.391 0.422 0.816 0.394
39.888 55.208 59.916 0.153 0.687 0.71
39.792 55.716 59.614 0.217 0.348 0.912
40.824 55.625 58.204 0.954 0.283 -0.095
41.11 55.1 58.248 0.764 0.633 -0.124
40.824 55.707 57.774 0.955 0.228 0.191
40.841 55.395 57.251 0.969 -0.032 -0.245
41.132 54.698 57.574 0.775 0.433 -0.461
41.185 54.441 56.439 0.74 0.604 0.296
39.328 55.085 60.391 0.345 0.852 0.394
39.66 55.776 59.614 0.123 0.392 0.912
39.181 55.07 60.614 0.443 0.862 0.245
39.477 54.957 60.506 0.419 0.788 0.451
39.296 54.97 60.704 0.539 0.779 0.32
40.393 54.684 61.408 -0.192 0.97 -0.15
41.651 53.685 59.061 0.938 0.012 0.347
41.962 53.39 60.557 0.731 0.209 -0.65
42.428 53.227 60.857 0.42 0.317 -0.85
42.804 50.677 61.486 0.861 0.17 -0.479
43.02 51.644 61.535 0.717 -0.474 -0.511
43.026 51.123 61.802 0.713 -0.127 -0.689
40.708 51.519 64.253 -0.65 0.106 0.752
40.527 52.069 64.171 -0.53 -0.261 0.807
40.31 51.103 64.122 -0.385 0.383 0.839
41.657 50.679 64.532 -0.092 -0.389 0.917
41.331 50.199 64.423 0.125 -0.069 0.99
41.417 49.626 64.486 0.068 0.313 0.947
41.699 50.669 64.532 -0.068 -0.395 0.916
41.459 49.616 64.486 0.092 0.308 0.947
41.767 49.449 64.555 -0.113 0.419 0.901
43.043 49.217 63.216 0.95 0.225 -0.215
42.984 49.338 62.885 0.99 0.144 0.005
43.224 50.392 62.931 0.83 -0.558 -0.025
43.224 50.392 62.91 0.829 -0.557 -0.037
42.984 49.339 62.865 0.989 0.145 -0.007
43.017 49.891 62.678 0.968 -0.223 0.118
43.299 53.287 63.323 0.856 0.347 0.383
43.212 53.495 63.374 0.914 0.209 0.349
34.736 49.002 54.705 -0.431 -0.768 -0.474
34.659 49.237 54.055 -0.38 -0.924 -0.041
34.188 49.381 54.864 -0.736 -0.557 -0.385
34.174 49.572 54.196 -0.727 -0.684 0.06
33.854 49.965 54.997 -0.921 -0.233 -0.312
33.879 50.088 54.314 -0.938 -0.315 0.144
33.796 50.643 55.078 -0.953 0.144 -0.266
33.828 50.689 54.386 -0.974 0.113 0.195
34.027 51.288 55.093 -0.825 0.502 -0.259
34.032 51.26 54.398 -0.829 0.521 0.204
34.501 51.779 55.037 -0.562 0.775 -0.289
34.452 51.694 54.349 -0.529 0.832 0.169
35.152 52.292 56.014 -0.608 0.757 -0.238
34.437 51.688 56.178 -0.597 0.724 0.344
34.786 51.95 56.557 -0.83 0.549 0.092
34.951 52.335 56.956 -0.94 0.293 -0.174
34.685 51.413 57.053 -0.892 0.223 0.393
34.728 51.385 57.183 -0.921 0.241 0.307
35.047 50.599 57.556 -0.648 -0.433 0.627
35.066 50.473 57.499 -0.66 -0.349 0.665
35.392 50.118 57.531 -0.462 -0.564 0.684
34.65 49.406 56.799 -0.479 -0.543 0.689
35.081 48.873 56.912 -0.767 -0.188 0.614
34.463 49.082 56.225 -0.583 -0.723 0.37
34.915 48.586 56.403 -0.885 -0.393 0.251
34.542 48.868 55.579 -0.539 -0.842 0.012
34.986 48.396 55.832 -0.834 -0.528 -0.157
34.874 48.802 54.983 -0.355 -0.879 -0.32
35.279 48.339 55.304 -0.625 -0.57 -0.534
35.636 49.829 57.527 -0.625 -0.372 0.687
36.227 49.594 57.698 -0.177 -0.55 0.816
36.546 49.335 57.662 -0.39 -0.377 0.84
36.92 49.603 58.125 -0.639 -0.556 0.532
37.113 49.714 58.739 -0.767 -0.63 0.122
36.808 48.56 57.148 0.467 -0.412 0.783
37.019 49.082 57.478 0.327 -0.76 0.562
37.322 49.388 57.969 0.125 -0.964 0.235
37.661 49.421 58.526 -0.101 -0.985 -0.137
37.971 49.173 59.045 -0.308 -0.82 -0.482
37.406 49.319 57.14 0.915 -0.401 0.049
37.652 49.59 57.681 0.751 -0.582 -0.312
38.111 49.695 58.133 0.445 -0.652 -0.614
37.568 49.572 56.982 0.807 -0.57 0.154
37.663 49.742 56.691 0.908 -0.391 -0.153
37.661 49.775 56.546 0.909 -0.413 -0.056
37.524 50.14 55.858 0.805 -0.136 -0.577
37.112 49.174 55.032 0.684 0.027 -0.729
36.945 49.746 54.675 0.796 -0.355 -0.491
36.271 49.251 54.367 0.544 -0.53 -0.651
35.514 48.915 54.501 -0.145 -0.836 -0.529
36.486 50.146 53.742 0.925 -0.275 -0.264
36.8 50.029 54.352 0.716 -0.197 -0.67
36.73 51.132 54.371 0.804 0.063 -0.591
36.159 51.461 53.713 0.691 0.665 -0.285
36.413 51.659 54.286 0.521 0.533 -0.667
36.817 52.01 54.667 0.252 0.299 -0.921
35.599 51.849 53.876 0.291 0.942 -0.168
35.917 52.002 54.431 0.079 0.839 -0.538
36.258 52.398 54.83 -0.148 0.576 -0.804
35.394 52.058 54.76 -0.387 0.889 -0.244
38.22 51.564 55.722 0.474 -0.555 -0.683
38.121 51.98 55.463 0.394 -0.221 -0.892
37.951 52.087 55.34 0.508 -0.292 -0.81
38.504 52.467 55.364 0.139 -0.545 -0.827
37.22 52.111 54.898 0.539 0.371 -0.756
37.709 52.447 55.213 0.213 0.147 -0.966
38.263 52.827 55.237 -0.156 -0.106 -0.982
38.769 53.175 54.966 -0.493 -0.338 -0.801
37.461 52.801 55.34 -0.091 0.58 -0.81
38.014 53.181 55.365 -0.459 0.327 -0.826
37.133 52.952 55.428 0.128 0.479 -0.868
36.648 53.14 55.577 -0.207 0.609 -0.766
36.627 53.246 55.659 -0.193 0.538 -0.82
36.146 53.25 55.974 -0.669 0.542 -0.509
36.061 53.144 55.961 -0.612 0.612 -0.501
35.965 53.113 56.053 -0.678 0.591 -0.437
35.461 53.088 56.732 -0.685 0.67 -0.287
35.76 53.65 56.843 -0.885 0.295 -0.361
35.314 53.052 57.309 -0.759 0.651 0.002
35.613 53.614 57.42 -0.958 0.277 -0.073
35.326 52.929 57.892 -0.752 0.59 0.294
35.626 53.491 58.004 -0.952 0.215 0.219
35.794 52.767 58.841 -0.853 0.318 0.413
36.106 52.198 59.245 -0.554 -0.228 0.801
36.374 51.535 59.477 -0.733 0.214 0.645
36.309 50.919 59.303 -0.795 -0.37 0.48
36.382 50.812 59.356 -0.844 -0.298 0.445
36.012 50.438 58.574 -0.41 -0.655 0.635
36.526 50.347 59.102 -0.753 -0.594 0.283
36.764 50.037 59.733 -0.911 -0.388 -0.138
36.815 49.996 58.793 -0.569 -0.818 0.086
36.673 52.004 59.924 -0.932 -0.099 0.348
36.869 52.25 60.279 -0.786 0.084 0.612
37.039 52.247 60.555 -0.9 0.086 0.428
37.647 52.344 61.244 -0.552 0.141 0.822
37.451 49.995 61.438 -0.568 -0.409 0.714
37.823 49.635 61.68 -0.816 -0.168 0.552
37.366 49.567 60.987 -0.61 -0.623 0.489
37.745 49.236 61.262 -0.863 -0.403 0.306
37.471 49.22 60.475 -0.558 -0.797 0.233
37.842 48.914 60.785 -0.805 -0.592 0.026
37.753 48.996 59.961 -0.417 -0.909 -0.024
38.104 48.705 60.308 -0.651 -0.715 -0.255
38.179 48.921 59.507 -0.204 -0.946 -0.251
38.5 48.635 59.885 -0.418 -0.756 -0.503
38.699 49.003 59.165 0.056 -0.905 -0.422
38.983 48.713 59.567 -0.134 -0.711 -0.69
39.251 49.234 58.976 0.332 -0.789 -0.517
39.497 48.927 59.392 0.168 -0.585 -0.794
39.77 49.586 58.962 0.592 -0.613 -0.523
39.979 49.255 59.379 0.452 -0.392 -0.801
40.223 51.402 58.456 0.927 -0.349 -0.135
40.138 51.265 58.328 0.871 -0.439 -0.219
40.07 51.15 58.25 0.917 -0.363 -0.168
39.778 50.226 58.513 0.595 -0.293 -0.748
39.735 50.796 57.988 0.624 -0.673 -0.398
39.943 51.095 57.303 0.485 -0.873 0.059
39.24 50.657 57.783 0.189 -0.794 -0.577
38.655 50.26 57.847 0.579 -0.53 -0.62
38.315 49.918 57.982 0.309 -0.801 -0.513
38.828 50.761 57.212 0.464 -0.864 -0.197
38.792 50.783 57.081 0.427 -0.84 -0.335
38.804 50.835 56.946 0.419 -0.874 -0.244
38.749 51.091 56.442 0.377 -0.677 -0.632
40.302 51.722 56.52 0.632 -0.665 -0.397
40.201 51.512 56.651 0.7 -0.525 -0.484
40.461 51.813 58.469 0.769 -0.623 -0.144
40.609 51.655 59.05 0.67 -0.518 -0.531
40.554 51.939 58.479 0.835 -0.533 -0.136
40.702 51.782 59.06 0.737 -0.428 -0.523
40.882 52.304 57.516 0.922 -0.374 0.101
41.115 52.639 58.022 0.766 -0.597 -0.237
40.644 52.173 56.51 0.803 -0.44 -0.402
40.987 52.737 56.005 0.575 -0.816 -0.065
40.025 53.089 54.935 0.403 -0.399 -0.823
40.445 53.171 55.024 0.123 -0.454 -0.882
39.968 53.78 54.79 0.363 0.094 -0.927
40.393 53.807 54.89 0.08 0.076 -0.994
39.915 54.444 55.03 0.325 0.568 -0.756
40.344 54.418 55.111 0.039 0.585 -0.81
39.887 55.245 56.103 0.3 0.642 -0.706
39.234 54.943 55.608 -0.161 0.925 -0.343
39.334 55.296 56.123 -0.228 0.69 -0.687
39.373 55.832 56.455 -0.254 0.333 -0.908
38.851 55.16 56.361 -0.689 0.561 -0.459
38.085 54.623 56.198 -0.178 0.92 -0.35
37.867 54.044 55.692 -0.395 0.346 -0.851
37.945 53.959 55.613 -0.447 0.403 -0.799
37.969 53.523 55.472 -0.43 0.099 -0.898
37.967 54.895 56.674 -0.1 0.738 -0.668
38.462 55.227 56.784 -0.429 0.516 -0.741
37.829 55.018 56.927 -0.282 0.899 -0.334
38.323 55.35 57.037 -0.612 0.678 -0.407
36.601 54.801 57.042 -0.46 0.887 0.049
36.604 54.815 57.309 -0.462 0.877 -0.129
36.117 54.308 56.781 -0.864 0.475 -0.168
35.982 54.18 56.974 -0.774 0.56 -0.296
38.167 55.246 57.069 -0.508 0.747 -0.428
38.106 55.303 57.307 -0.562 0.798 -0.218
37.977 55.296 57.518 -0.476 0.803 -0.359
37.769 55.183 58.365 -0.635 0.717 0.288
36.101 54.129 58.47 -0.714 0.534 0.452
36.244 54.053 59.072 -0.809 0.585 0.051
36.589 54.175 59.674 -0.563 0.672 0.481
36.986 54.411 60.056 -0.827 0.515 0.226
36.489 53.548 60.036 -0.634 0.224 0.74
36.867 53.668 60.485 -0.886 0.144 0.441
38 55.269 59.768 -0.319 0.944 0.083
38.539 55.931 59.088 -0.678 0.502 0.536
37.685 54.698 60.767 -0.477 0.659 0.582
37.902 54.769 60.907 -0.622 0.611 0.489
37.873 53.418 61.45 -0.383 0.018 0.924
38.462 52.833 62.113 -0.775 0.408 0.482
38.665 53.665 61.724 -0.446 0.393 0.804
38.706 53.696 61.731 -0.414 0.417 0.809
38.755 51.876 62.698 -0.629 -0.07 0.774
38.801 51.301 62.835 -0.66 0.313 0.683
39.047 50.796 63.152 -0.537 0.061 0.841
39.459 50.651 63.569 -0.811 0.157 0.563
38.961 50.157 63.014 -0.58 -0.259 0.773
39.373 50.012 63.432 -0.854 -0.162 0.494
38.649 49.893 62.574 -0.736 -0.391 0.553
38.326 49.594 62.155 -0.521 -0.192 0.832
39.305 49.035 62.557 -0.732 -0.363 0.576
39.325 48.908 62.488 -0.717 -0.461 0.523
39.327 48.742 62.371 -0.718 -0.35 0.601
38.798 48.5 61.578 -0.243 -0.836 0.493
39.403 48.338 61.972 -0.647 -0.727 0.23
39.773 47.909 62.45 -0.893 -0.442 -0.089
39.188 48.244 61.018 -0.013 -0.987 0.163
39.71 48.136 61.533 -0.361 -0.915 -0.18
40.099 47.695 61.982 -0.621 -0.62 -0.48
39.758 48.321 60.568 0.322 -0.941 -0.102
40.157 48.197 61.18 0.056 -0.859 -0.509
40.576 47.759 61.605 -0.224 -0.567 -0.793
40.613 48.501 61.017 0.482 -0.575 -0.661
40.758 48.64 60.981 0.386 -0.668 -0.637
40.843 48.742 60.937 0.452 -0.588 -0.671
40.481 49.2 59.871 0.747 -0.424 -0.512
40.967 49.468 60.117 0.423 -0.603 -0.676
41.479 49.699 60.373 0.679 -0.488 -0.548
41.891 49.553 60.79 0.405 -0.391 -0.826
41.734 50.323 60.339 0.806 -0.176 -0.565
42.145 50.178 60.757 0.532 -0.079 -0.843
42.066 51.404 60.785 0.696 -0.132 -0.706
42.063 51.407 60.782 0.695 -0.13 -0.707
41.476 50.844 60.008 0.677 0.084 -0.731
41.43 51.419 59.871 0.708 -0.299 -0.64
41.459 52.819 59.556 0.982 -0.111 -0.153
41.191 52.381 59.212 0.755 -0.482 -0.445
41.102 52.27 59.163 0.815 -0.408 -0.412
40.835 52.003 59.024 0.648 -0.575 -0.499
41.392 53.341 57.802 0.905 -0.246 -0.347
41.514 53.36 58.039 0.824 -0.258 -0.505
41.499 54.326 58.207 0.958 0.247 -0.145
41.597 54.126 58.354 0.893 0.38 -0.243
41.362 54.08 60.002 0.867 0.486 -0.108
41 54.826 59.497 0.709 0.497 0.5
41.076 54.444 60.196 0.658 0.752 0.034
41.434 54.382 60.911 0.42 0.793 -0.442
40.517 55.092 59.738 0.467 0.629 0.621
40.673 54.665 60.397 0.363 0.914 0.181
40.985 54.629 61.134 0.156 0.938 -0.31
40.207 54.714 60.577 0.022 0.95 0.313
40.547 55.213 59.575 0.483 0.69 0.539
40.349 55.72 59.325 0.615 0.352 0.706
40.986 55.174 58.976 0.702 0.671 0.24
40.719 55.688 58.819 0.879 0.328 0.345
41.061 54.503 57.017 0.822 0.563 -0.089
41.414 53.9 57.697 0.916 0.033 -0.4
41.292 53.852 57.117 0.998 0.065 -0.013
41.404 53.82 56.534 0.923 0.086 0.376
41.149 53.169 57.108 0.889 -0.457 -0.02
40.872 54.871 56.841 0.948 0.317 0.028
40.884 54.754 55.944 0.489 0.865 -0.116
40.613 55.141 56.414 0.669 0.607 -0.429
40.54 55.707 56.756 0.718 0.229 -0.657
40.121 55.201 56.135 0.143 0.671 -0.727
40.531 56.225 57.838 0.711 0.66 0.244
40.506 56.187 58.273 0.727 0.685 -0.046
40.03 56.551 57.803 0.294 0.932 0.215
39.962 56.541 58.234 0.339 0.938 -0.073
39.448 56.603 57.676 -0.192 0.975 0.11
39.33 56.598 58.097 -0.113 0.979 -0.171
38.929 56.369 57.491 -0.624 0.78 -0.045
38.767 56.344 57.896 -0.515 0.797 -0.315
39.373 55.317 60.016 0.315 0.698 0.644
38.888 55.457 59.895 -0.164 0.836 0.524
39.814 54.674 61.041 0.194 0.976 0.095
38.827 54.753 61.265 0.149 0.598 0.787
39.363 54.465 61.581 -0.208 0.79 0.576
39.833 54.424 62.079 -0.522 0.817 0.245
38.95 53.896 61.795 -0.576 0.283 0.767
39.916 54.672 60.931 0.126 0.978 0.168
39.984 54.672 60.863 0.171 0.978 0.122
41.436 53.952 59.951 0.818 0.57 -0.074
41.595 53.509 59.848 0.976 0.129 -0.177
41.93 53.901 60.841 0.712 0.509 -0.483
42.394 53.777 61.162 0.403 0.592 -0.697
41.751 54.312 61.218 0.606 0.751 -0.261
42.201 54.218 61.568 0.307 0.813 -0.495
41.445 54.573 61.643 0.426 0.904 -0.011
41.871 54.499 62.025 0.142 0.953 -0.266
41.049 54.653 62.067 0.193 0.952 0.238
41.445 54.586 62.481 -0.071 0.997 -0.038
40.609 54.543 62.438 -0.065 0.887 0.457
40.973 54.468 62.881 -0.307 0.938 0.162
40.179 54.257 62.713 -0.318 0.719 0.618
40.51 54.159 63.176 -0.539 0.784 0.31
39.809 53.827 62.859 -0.536 0.466 0.704
40.112 53.697 63.333 -0.738 0.552 0.388
41.868 53.297 60.399 0.794 0.27 -0.545
41.587 53.463 59.75 0.981 0.16 -0.112
41.82 52.898 60.302 0.741 -0.164 -0.651
41.545 53.111 59.665 0.925 -0.307 -0.226
43.394 51.889 62.068 0.904 -0.352 -0.244
43.374 51.352 62.298 0.917 0.007 -0.398
43.526 52.126 62.709 0.97 -0.233 0.076
43.496 51.572 62.894 0.99 0.137 -0.047
43.396 52.321 63.365 0.905 -0.135 0.404
43.376 51.753 63.504 0.919 0.243 0.311
43.024 52.445 63.94 0.719 -0.073 0.692
43.03 51.869 64.038 0.715 0.311 0.626
42.464 52.481 64.351 0.438 -0.056 0.897
42.508 51.902 64.421 0.408 0.33 0.851
41.796 52.422 64.539 0.104 -0.085 0.991
41.887 51.847 64.595 0.043 0.298 0.953
41.117 52.278 64.476 -0.235 -0.157 0.959
41.257 51.713 64.536 -0.328 0.22 0.919
40.763 50.627 64.396 -0.159 0.145 0.977
41.129 51.077 64.508 -0.403 -0.155 0.902
40.693 50.073 64.387 -0.194 -0.132 0.972
40.824 49.509 64.454 -0.281 0.245 0.928
40.121 49.885 64.139 -0.48 -0.226 0.848
40.292 49.334 64.222 -0.594 0.142 0.792
39.688 49.658 63.708 -0.696 -0.339 0.633
39.89 49.123 63.822 -0.831 0.017 0.556
41.613 49.528 64.511 -0.01 0.366 0.931
41.199 48.81 64.549 -0.061 -0.166 0.984
41.376 48.794 64.568 -0.179 -0.156 0.971
41.55 48.775 64.608 -0.294 -0.143 0.945
41.346 48.044 64.213 0.026 -0.617 0.787
41.51 48.096 64.262 -0.084 -0.652 0.754
41.673 48.134 64.327 -0.192 -0.677 0.711
41.834 47.665 63.63 0.313 -0.84 0.444
41.955 47.751 63.731 0.232 -0.897 0.377
42.081 47.817 63.839 0.148 -0.941 0.304
42.441 47.845 63.064 0.67 -0.734 0.111
42.508 47.914 63.215 0.625 -0.781 0.01
42.588 47.967 63.366 0.571 -0.816 -0.09
42.892 48.502 62.771 0.936 -0.348 -0.061
42.92 48.513 62.948 0.917 -0.355 -0.179
42.966 48.517 63.121 0.886 -0.358 -0.294
43.003 49.275 63.051 0.977 0.186 -0.106
42.9 49.126 62.297 0.94 0.02 -0.341
42.926 49.662 62.067 0.922 -0.337 -0.188
42.609 48.904 61.806 0.769 -0.111 -0.63
42.613 49.422 61.539 0.766 -0.457 -0.452
42.15 48.7 61.456 0.499 -0.231 -0.835
42.119 49.203 61.163 0.519 -0.566 -0.64
43.033 50.226 62.022 0.976 -0.055 -0.211
43.239 50.704 62.3 0.838 -0.374 -0.396
43.007 49.828 63.09 0.974 -0.182 -0.132
43.108 50.559 63.753 0.761 -0.459 0.458
42.911 49.966 63.77 0.892 -0.064 0.447
42.946 49.357 63.903 0.869 0.342 0.358
42.528 50.664 64.361 0.42 -0.397 0.816
42.432 50.053 64.273 0.485 0.01 0.875
42.461 49.445 64.412 0.465 0.416 0.782
41.746 50.057 64.414 -0.099 0.013 0.995
41.709 47.824 61.82 0.24 -0.746 -0.621
41.388 47.668 61.816 0.454 -0.642 -0.618
41.711 47.482 62.52 0.241 -0.948 -0.209
41.39 47.382 62.401 0.455 -0.881 -0.13
41.325 47.423 63.195 0.013 -0.982 0.187
41.067 47.333 62.965 0.185 -0.922 0.34
40.698 47.671 63.586 -0.355 -0.836 0.418
40.542 47.54 63.293 -0.251 -0.749 0.613
40.07 48.131 63.545 -0.725 -0.566 0.393
40.017 47.925 63.258 -0.689 -0.428 0.584
37.496 50.587 55.576 0.817 -0.279 -0.504
37.501 50.466 55.667 0.82 -0.353 -0.45
43.16 53.825 62.624 0.787 0.616 0.034
43.105 53.914 62.83 0.824 0.557 -0.104
42.467 54.387 62.624 0.44 0.897 0.034
42.565 54.351 62.83 0.374 0.922 -0.104
41.911 54.411 63.323 0.162 0.909 0.383
42.133 54.369 63.374 0.014 0.937 0.349
42.05 53.873 64.022 0.232 0.64 0.732
42.241 53.951 63.917 0.104 0.588 0.802
42.744 53.311 64.022 0.578 0.359 0.732
42.781 53.514 63.917 0.554 0.224 0.802
38.95 50.714 57.519 0.383 -0.832 -0.401
34.133 51.541 55.558 -0.766 0.643 0
34.133 51.386 56.137 -0.766 0.557 0.321
34.133 50.384 56.715 -0.766 -0 0.643
34.133 49.805 56.56 -0.766 -0.321 0.557
34.133 49.382 56.137 -0.766 -0.557 0.321
34.133 49.227 55.558 -0.766 -0.643 0
33.821 51 55.558 -0.94 0.342 0
33.821 50.692 56.091 -0.94 0.171 0.296
33.821 50.076 56.091 -0.94 -0.171 0.296
33.821 49.768 55.558 -0.94 -0.342 -0
33.712 50.384 55.558 -1 0 0
36.065 49.813 53.285 0.623 -0.512 -0.591
36.065 50.374 53.029 0.623 -0.111 -0.774
36.065 50.985 53.116 0.623 0.325 -0.711
35.504 49.679 53.045 0.223 -0.608 -0.762
35.504 50.226 52.781 0.223 -0.217 -0.95
35.504 50.834 52.781 0.223 0.217 -0.95
35.504 51.381 53.045 0.223 0.608 -0.762
35.504 51.76 53.52 0.223 0.878 -0.423
34.88 49.3 53.52 -0.223 -0.878 -0.423
34.88 49.679 53.045 -0.223 -0.608 -0.762
34.88 50.226 52.781 -0.223 -0.217 -0.95
34.88 50.834 52.781 -0.223 0.217 -0.95
34.88 51.381 53.045 -0.223 0.608 -0.762
34.88 51.76 53.52 -0.223 0.878 -0.423
34.319 49.48 53.804 -0.623 -0.75 -0.22
34.319 49.813 53.285 -0.623 -0.512 -0.591
34.319 50.374 53.029 -0.623 -0.111 -0.774
34.319 50.985 53.116 -0.623 0.325 -0.711
34.319 51.451 53.52 -0.623 0.658 -0.423
33.931 50.226 53.586 -0.901 -0.217 -0.376
33.931 50.834 53.586 -0.901 0.217 -0.376
34.999 51.992 58.381 -0.866 0.25 0.433
34.999 51.392 58.381 -0.866 -0.25 0.433
37.415 48.529 56.052 0.901 -0.434 -0
37.415 48.832 55.526 0.901 -0.217 -0.376
37.027 48.086 56.36 0.623 -0.75 0.22
37.027 48.086 55.744 0.623 -0.75 -0.22
37.027 48.419 55.225 0.623 -0.512 -0.591
36.466 48.285 57.119 0.223 -0.608 0.762
36.466 47.906 56.644 0.223 -0.878 0.423
36.466 47.771 56.052 0.223 -0.975 0
36.466 47.906 55.46 0.223 -0.878 -0.423
36.466 48.285 54.985 0.223 -0.608 -0.762
35.842 48.285 57.119 -0.223 -0.608 0.762
35.842 47.906 56.644 -0.223 -0.878 0.423
35.842 47.771 56.052 -0.223 -0.975 0
35.842 47.906 55.46 -0.223 -0.878 -0.423
35.281 48.419 56.879 -0.623 -0.512 0.591
35.281 48.086 56.36 -0.623 -0.75 0.22
35.281 48.086 55.744 -0.623 -0.75 -0.22
39.205 49.525 58.61 0.309 -0.644 -0.7
37.411 50.813 61.627 -0.588 -0 0.809
36.969 51.401 61.027 -0.809 0.294 0.509
36.969 50.813 61.185 -0.809 -0 0.588
36.969 50.225 61.027 -0.809 -0.294 0.509
36.969 49.795 60.597 -0.809 -0.509 0.294
36.969 49.637 60.009 -0.809 -0.588 0
36.685 50.504 60.544 -0.951 -0.155 0.268
39.656 51.765 55.915 0.309 -0.644 -0.7
39.148 53.344 54.757 -0.223 -0.217 -0.95
39.148 53.952 54.757 -0.223 0.217 -0.95
39.148 54.499 55.021 -0.223 0.608 -0.762
36.553 54.611 56.421 -0.5 0.729 -0.468
35.911 54.236 57.566 -0.809 0.588 0
35.911 54.078 58.154 -0.809 0.509 0.294
36.116 53.538 59.526 -0.901 0.217 0.376
37.463 54.999 59.603 -0.588 0.809 0
37.463 54.876 60.222 -0.588 0.747 0.31
37.463 54 61.098 -0.588 0.31 0.747
37.463 53.381 61.221 -0.588 -0 0.809
38.837 52.635 62.645 -0.588 0.31 0.747
40.061 48.73 59.876 0.5 -0.701 -0.509
39.506 48.498 59.86 0.174 -0.837 -0.518
38.916 48.275 60.433 -0.174 -0.968 -0.181
38.361 48.73 61.606 -0.5 -0.701 0.509
38.361 48.481 61.047 -0.5 -0.847 0.18
38.361 48.481 60.435 -0.5 -0.847 -0.18
41.297 50.056 59.974 0.588 -0.31 -0.747
39.961 51.145 56.939 0.5 -0.831 -0.244
41.2 54.851 59.084 0.809 0.509 0.294
41.497 53.716 56.083 1 0 0
41.336 54.316 56.083 0.866 0.5 0
41.336 53.116 56.083 0.866 -0.5 -0
41.336 53.416 55.563 0.866 -0.25 -0.433
41.336 54.016 55.563 0.866 0.25 -0.433
40.897 53.035 55.298 0.5 -0.567 -0.654
40.897 53.568 55.054 0.5 -0.123 -0.857
40.897 54.148 55.138 0.5 0.36 -0.788
40.897 54.59 55.521 0.5 0.729 -0.468
40.278 56.307 56.983 0.5 0.729 -0.468
39.678 56.496 56.987 -0 0.885 -0.465
39.078 56.307 56.983 -0.5 0.729 -0.468
40.361 56.149 58.929 0.623 0.658 0.423
39.8 56.458 58.929 0.223 0.878 0.423
39.8 56.079 59.404 0.223 0.608 0.762
39.176 56.458 58.929 -0.223 0.878 0.423
38.615 56.323 58.337 -0.623 0.782 0
38.649 55.098 60.878 -0 0.885 0.465
41.015 54.709 61.662 0.174 0.985 0
43.587 52.592 62.557 1 0 0
43.489 53.21 62.557 0.951 0.309 0
43.489 52.901 63.092 0.951 0.155 0.268
43.489 52.283 62.022 0.951 -0.155 -0.268
43.489 52.901 62.022 0.951 0.155 -0.268
43.205 52.592 61.381 0.809 -0 -0.588
43.205 53.18 61.539 0.809 0.294 -0.509
43.205 53.61 61.969 0.809 0.509 -0.294
42.763 52.592 60.939 0.588 0 -0.809
42.763 53.211 61.062 0.588 0.31 -0.747
42.763 53.736 61.413 0.588 0.572 -0.572
42.763 54.087 61.938 0.588 0.747 -0.31
42.205 53.059 64.401 0.309 0.233 0.922
41.587 54.503 63.147 -0 0.956 0.295
41.587 53.839 64.121 -0 0.623 0.782
41.587 53.323 64.419 -0 0.365 0.931
41.587 52.741 64.551 -0 0.075 0.997
40.969 54.093 63.725 -0.309 0.751 0.584
40.969 53.632 64.149 -0.309 0.52 0.796
40.969 53.059 64.401 -0.309 0.233 0.922
40.411 53.736 63.701 -0.588 0.572 0.572
40.411 53.211 64.052 -0.588 0.31 0.747
40.411 52.592 64.175 -0.588 -0 0.809
39.905 50.336 64.061 -0.588 -0 0.809
42.899 48.802 62.372 0.94 -0.171 -0.296
42.604 48.045 62.568 0.766 -0.617 -0.181
42.604 48.377 62.05 0.766 -0.421 -0.486
42.152 47.653 62.57 0.5 -0.847 -0.18
42.152 47.902 62.011 0.5 -0.701 -0.509
42.152 48.357 61.601 0.5 -0.433 -0.75
40.452 48.939 64.34 -0.5 -0.091 0.861
40.452 48.357 64.151 -0.5 -0.433 0.75
40.844 47.274 62.27 -0 -0.971 -0.239
40.844 47.541 61.761 -0 -0.749 -0.663
40.244 47.442 62.85 -0.5 -0.831 0.244
40.244 47.442 62.264 -0.5 -0.831 -0.244
42.699 49.748 61.425 0.809 -0.294 -0.509
42.699 50.336 61.267 0.809 -0 -0.588
42.257 49.717 60.948 0.588 -0.31 -0.747
41.726 53.67 58.645 1 0 0
43.411 51.049 63.478 0.94 -0.171 0.296
43.411 50.759 62.974 0.94 -0.342 -0
43.411 51.049 62.47 0.94 -0.171 -0.296
43.116 51.184 64.056 0.766 -0.091 0.636
42.664 51.186 64.438 0.5 -0.091 0.861
42.109 51.494 64.641 0.174 0.091 0.981
42.942 48.646 63.994 0.866 -0.25 0.433
42.942 48.346 63.474 0.866 -0.5 -0
42.503 48.798 64.503 0.5 -0.123 0.857
42.503 48.265 64.259 0.5 -0.567 0.654
41.903 48.52 64.596 -0 -0.355 0.935
42.716 54.119 63.517 0.5 0.729 0.468
3 0 224 1
3 1 224 225
3 224 226 225
3 225 226 227
3 226 228 227
3 227 228 229
3 228 230 229
3 229 230 231
3 230 232 231
3 231 232 233
3 232 234 233
3 233 234 235
3 234 4 235
3 235 4 3
3 4 7 5
3 5 7 6
3 7 237 236
3 236 237 238
3 236 238 8
3 8 238 239
3 237 10 238
3 238 10 240
3 238 240 239
3 239 240 9
3 10 13 241
3 241 13 242
3 241 242 11
3 11 242 12
3 13 16 243
3 243 16 244
3 243 244 14
3 14 244 15
3 16 245 17
3 17 245 246
3 245 247 246
3 246 247 248
3 247 249 248
3 248 249 250
3 249 251 250
3 250 251 252
3 251 0 252
3 252 0 2
3 17 19 253
3 253 19 254
3 253 254 15
3 15 254 18
3 19 258 255
3 255 258 259
3 255 259 256
3 256 259 260
3 256 260 257
3 257 260 261
3 257 261 20
3 20 261 262
3 258 22 259
3 259 22 263
3 259 263 260
3 260 263 264
3 260 264 261
3 261 264 265
3 261 265 262
3 262 265 21
3 22 25 266
3 266 25 267
3 266 267 23
3 23 267 24
3 25 28 268
3 268 28 269
3 268 269 26
3 26 269 27
3 28 270 29
3 29 270 271
3 270 31 271
3 271 31 30
3 31 2 272
3 272 2 273
3 272 273 32
3 32 273 1
3 32 274 30
3 30 274 275
3 274 34 275
3 275 34 33
3 34 277 276
3 276 277 278
3 276 278 35
3 35 278 279
3 277 280 278
3 278 280 281
3 278 281 279
3 279 281 282
3 280 3 281
3 281 3 283
3 281 283 282
3 282 283 5
3 35 37 33
3 33 37 36
3 37 40 38
3 38 40 39
3 40 43 284
3 284 43 285
3 284 285 41
3 41 285 42
3 43 288 286
3 286 288 289
3 286 289 287
3 287 289 290
3 287 290 44
3 44 290 291
3 288 46 289
3 289 46 292
3 289 292 290
3 290 292 293
3 290 293 291
3 291 293 45
3 46 49 294
3 294 49 295
3 294 295 47
3 47 295 48
3 49 52 296
3 296 52 297
3 296 297 50
3 50 297 51
3 52 55 298
3 298 55 299
3 298 299 53
3 53 299 54
3 55 6 56
3 56 6 8
3 56 300 54
3 54 300 301
3 300 302 301
3 301 302 303
3 302 304 303
3 303 304 305
3 304 58 305
3 305 58 57
3 58 61 59
3 59 61 60
3 61 9 62
3 62 9 11
3 62 64 306
3 306 64 307
3 306 307 60
3 60 307 63
3 64 67 308
3 308 67 309
3 308 309 65
3 65 309 66
3 67 12 68
3 68 12 14
3 68 311 310
3 310 311 312
3 310 312 66
3 66 312 313
3 311 18 312
3 312 18 314
3 312 314 313
3 313 314 20
3 65 70 315
3 315 70 316
3 315 316 63
3 63 316 69
3 70 73 317
3 317 73 318
3 317 318 71
3 71 318 72
3 73 76 74
3 74 76 75
3 76 79 77
3 77 79 78
3 79 319 80
3 80 319 320
3 319 321 320
3 320 321 322
3 321 323 322
3 322 323 324
3 323 325 324
3 324 325 326
3 325 327 326
3 326 327 328
3 327 329 328
3 328 329 330
3 329 331 330
3 330 331 332
3 331 333 332
3 332 333 334
3 333 82 334
3 334 82 81
3 82 85 83
3 83 85 84
3 85 88 86
3 86 88 87
3 88 91 335
3 335 91 336
3 335 336 89
3 89 336 90
3 91 338 337
3 337 338 339
3 337 339 92
3 92 339 340
3 338 94 339
3 339 94 341
3 339 341 340
3 340 341 93
3 94 21 342
3 342 21 343
3 342 343 95
3 95 343 23
3 95 97 344
3 344 97 345
3 344 345 93
3 93 345 96
3 97 24 98
3 98 24 26
3 98 100 346
3 346 100 347
3 346 347 96
3 96 347 99
3 100 39 101
3 101 39 41
3 101 348 99
3 99 348 349
3 348 90 349
3 349 90 92
3 89 103 350
3 350 103 352
3 350 352 351
3 351 352 353
3 351 353 87
3 87 353 102
3 103 354 104
3 104 354 355
3 354 106 355
3 355 106 105
3 106 356 107
3 107 356 357
3 356 109 357
3 357 109 108
3 109 42 110
3 110 42 44
3 110 358 108
3 108 358 359
3 358 360 359
3 359 360 361
3 360 362 361
3 361 362 363
3 362 112 363
3 363 112 111
3 112 365 364
3 364 365 366
3 364 366 113
3 113 366 367
3 365 115 366
3 366 115 368
3 366 368 367
3 367 368 114
3 115 118 369
3 369 118 370
3 369 370 116
3 116 370 117
3 118 45 371
3 371 45 372
3 371 372 119
3 119 372 47
3 119 48 117
3 117 48 50
3 116 121 373
3 373 121 375
3 373 375 374
3 374 375 376
3 374 376 114
3 114 376 120
3 121 377 122
3 122 377 378
3 377 379 378
3 378 379 380
3 379 51 380
3 380 51 53
3 122 124 381
3 381 124 382
3 381 382 120
3 120 382 123
3 124 127 383
3 383 127 384
3 383 384 125
3 125 384 126
3 127 130 128
3 128 130 129
3 130 385 131
3 131 385 386
3 385 57 386
3 386 57 59
3 131 387 129
3 129 387 388
3 387 389 388
3 388 389 390
3 389 69 390
3 390 69 71
3 128 391 126
3 126 391 392
3 391 133 392
3 392 133 132
3 133 393 134
3 134 393 394
3 393 136 394
3 394 136 135
3 136 395 137
3 137 395 396
3 395 72 396
3 396 72 74
3 137 139 397
3 397 139 398
3 397 398 135
3 135 398 138
3 139 142 140
3 140 142 141
3 142 145 143
3 143 145 144
3 145 148 146
3 146 148 147
3 148 399 149
3 149 399 400
3 399 75 400
3 400 75 77
3 149 401 147
3 147 401 402
3 401 403 402
3 402 403 404
3 403 151 404
3 404 151 150
3 151 154 152
3 152 154 153
3 154 405 155
3 155 405 406
3 405 78 406
3 406 78 80
3 155 157 407
3 407 157 408
3 407 408 153
3 153 408 156
3 157 410 409
3 409 410 411
3 409 411 158
3 158 411 412
3 410 413 411
3 411 413 414
3 411 414 412
3 412 414 415
3 413 416 414
3 414 416 417
3 414 417 415
3 415 417 418
3 416 160 417
3 417 160 419
3 417 419 418
3 418 419 159
3 160 163 420
3 420 163 421
3 420 421 161
3 161 421 162
3 163 422 164
3 164 422 423
3 422 81 423
3 423 81 83
3 164 166 162
3 162 166 165
3 166 424 167
3 167 424 425
3 424 426 425
3 425 426 427
3 426 169 427
3 427 169 168
3 169 172 428
3 428 172 429
3 428 429 170
3 170 429 171
3 172 430 173
3 173 430 431
3 430 84 431
3 431 84 86
3 173 175 171
3 171 175 174
3 175 178 432
3 432 178 433
3 432 433 176
3 176 433 177
3 178 102 434
3 434 102 435
3 434 435 179
3 179 435 104
3 179 436 177
3 177 436 437
3 436 438 437
3 437 438 439
3 438 181 439
3 439 181 180
3 181 441 440
3 440 441 442
3 440 442 182
3 182 442 443
3 441 444 442
3 442 444 445
3 442 445 443
3 443 445 446
3 444 184 445
3 445 184 447
3 445 447 446
3 446 447 183
3 184 187 185
3 185 187 186
3 187 448 188
3 188 448 449
3 448 450 449
3 449 450 451
3 450 190 451
3 451 190 189
3 190 193 191
3 191 193 192
3 193 453 452
3 452 453 454
3 452 454 194
3 194 454 455
3 453 105 454
3 454 105 456
3 454 456 455
3 455 456 107
3 194 458 457
3 457 458 459
3 457 459 192
3 192 459 460
3 458 111 459
3 459 111 461
3 459 461 460
3 460 461 113
3 191 462 189
3 189 462 463
3 462 464 463
3 463 464 465
3 464 466 465
3 465 466 467
3 466 468 467
3 467 468 469
3 468 123 469
3 469 123 125
3 188 196 186
3 186 196 195
3 196 132 470
3 470 132 471
3 470 471 197
3 197 471 134
3 197 199 195
3 195 199 198
3 199 473 472
3 472 473 474
3 472 474 200
3 200 474 475
3 473 138 474
3 474 138 476
3 474 476 475
3 475 476 140
3 200 183 477
3 477 183 478
3 477 478 198
3 198 478 185
3 182 202 479
3 479 202 480
3 479 480 180
3 180 480 201
3 202 481 203
3 203 481 482
3 481 483 482
3 482 483 484
3 483 485 484
3 484 485 486
3 485 487 486
3 486 487 488
3 487 489 488
3 488 489 490
3 489 491 490
3 490 491 492
3 491 493 492
3 492 493 494
3 493 141 494
3 494 141 143
3 203 174 495
3 495 174 497
3 495 497 496
3 496 497 498
3 496 498 201
3 201 498 176
3 170 205 168
3 168 205 204
3 205 499 206
3 206 499 500
3 499 501 500
3 500 501 502
3 501 503 502
3 502 503 504
3 503 505 504
3 504 505 506
3 505 507 506
3 506 507 508
3 507 509 508
3 508 509 510
3 509 511 510
3 510 511 512
3 511 208 512
3 512 208 207
3 208 144 209
3 209 144 146
3 209 513 207
3 207 513 514
3 513 211 514
3 514 211 210
3 211 515 212
3 212 515 516
3 515 517 516
3 516 517 518
3 517 519 518
3 518 519 520
3 519 150 520
3 520 150 152
3 212 214 210
3 210 214 213
3 214 522 521
3 521 522 523
3 521 523 215
3 215 523 524
3 522 525 523
3 523 525 526
3 523 526 524
3 524 526 527
3 525 528 526
3 526 528 529
3 526 529 527
3 527 529 530
3 528 531 529
3 529 531 532
3 529 532 530
3 530 532 533
3 531 534 532
3 532 534 535
3 532 535 533
3 533 535 536
3 534 217 535
3 535 217 537
3 535 537 536
3 536 537 216
3 217 220 218
3 218 220 219
3 220 538 221
3 221 538 539
3 538 540 539
3 539 540 541
3 540 542 541
3 541 542 543
3 542 165 543
3 543 165 167
3 221 544 219
3 219 544 545
3 544 204 545
3 545 204 206
3 218 547 546
3 546 547 548
3 546 548 216
3 216 548 549
3 547 550 548
3 548 550 551
3 548 551 549
3 549 551 552
3 550 213 551
3 551 213 553
3 551 553 552
3 552 553 215
3 161 554 159
3 159 554 555
3 554 556 555
3 555 556 557
3 556 558 557
3 557 558 559
3 558 560 559
3 559 560 561
3 560 562 561
3 561 562 563
3 562 156 563
3 563 156 158
3 38 27 564
3 564 27 565
3 564 565 36
3 36 565 29
3 222 566 223
3 223 566 567
3 566 568 567
3 567 568 569
3 568 570 569
3 569 570 571
3 570 572 571
3 571 572 573
3 572 574 573
3 573 574 575
3 574 222 575
3 575 222 223
3 2 0 273
3 273 0 1
3 283 3 4
3 283 4 5
3 8 6 236
3 236 6 7
3 11 9 241
3 241 9 240
3 241 240 10
3 14 12 242
3 14 242 243
3 243 242 13
3 253 15 244
3 253 244 16
3 253 16 17
3 314 18 256
3 314 256 257
3 314 257 20
3 256 18 254
3 256 254 255
3 255 254 19
3 343 21 265
3 343 265 23
3 23 265 264
3 23 264 266
3 266 264 263
3 266 263 22
3 26 24 267
3 26 267 268
3 268 267 25
3 565 27 269
3 565 269 29
3 29 269 28
3 32 30 272
3 272 30 31
3 35 33 276
3 276 33 34
3 564 36 37
3 564 37 38
3 41 39 284
3 284 39 40
3 44 42 287
3 287 42 285
3 287 285 286
3 286 285 43
3 372 45 293
3 372 293 47
3 47 293 292
3 47 292 294
3 294 292 46
3 50 48 296
3 296 48 295
3 296 295 49
3 53 51 297
3 53 297 298
3 298 297 52
3 56 54 299
3 56 299 55
3 59 57 58
3 306 60 61
3 306 61 62
3 315 63 307
3 315 307 308
3 315 308 65
3 308 307 64
3 310 66 309
3 310 309 68
3 68 309 67
3 71 69 316
3 71 316 317
3 317 316 70
3 74 72 318
3 74 318 73
3 77 75 76
3 80 78 79
3 83 81 82
3 86 84 85
3 351 87 88
3 351 88 335
3 351 335 350
3 350 335 89
3 92 90 336
3 92 336 337
3 337 336 91
3 344 93 576
3 344 576 95
3 95 576 342
3 342 576 341
3 342 341 94
3 341 576 93
3 346 96 345
3 346 345 98
3 98 345 97
3 101 99 347
3 101 347 100
3 435 102 353
3 435 353 352
3 435 352 104
3 104 352 103
3 456 105 106
3 456 106 107
3 110 108 109
3 461 111 112
3 461 112 364
3 461 364 113
3 374 114 368
3 374 368 369
3 374 369 373
3 373 369 116
3 369 368 115
3 119 117 370
3 119 370 371
3 371 370 118
3 381 120 376
3 381 376 375
3 381 375 122
3 122 375 121
3 125 123 382
3 125 382 383
3 383 382 124
3 128 126 384
3 128 384 127
3 131 129 130
3 471 132 133
3 471 133 134
3 397 135 136
3 397 136 137
3 476 138 398
3 476 398 139
3 476 139 140
3 143 141 142
3 146 144 145
3 149 147 148
3 152 150 151
3 407 153 154
3 407 154 155
3 158 156 408
3 158 408 409
3 409 408 157
3 161 159 420
3 420 159 419
3 420 419 160
3 164 162 421
3 164 421 163
3 167 165 166
3 170 168 428
3 428 168 169
3 173 171 429
3 173 429 172
3 497 174 175
3 497 175 432
3 497 432 498
3 498 432 176
3 179 177 433
3 179 433 434
3 434 433 178
3 479 180 181
3 479 181 440
3 479 440 182
3 478 183 447
3 478 447 185
3 185 447 184
3 188 186 187
3 191 189 190
3 457 192 193
3 457 193 452
3 457 452 194
3 197 195 470
3 470 195 196
3 477 198 472
3 477 472 200
3 472 198 199
3 496 201 480
3 496 480 495
3 495 480 202
3 495 202 203
3 206 204 205
3 209 207 208
3 212 210 211
3 553 213 214
3 553 214 521
3 553 521 215
3 546 216 537
3 546 537 217
3 546 217 218
3 221 219 220
3 578 577 583
3 578 583 584
3 579 584 585
3 580 579 585
3 581 580 585
3 581 585 586
3 582 581 586
3 584 583 587
3 585 584 587
3 586 585 587
3 586 587 228
3 586 228 226
3 586 226 582
3 582 226 249
3 582 249 247
3 582 247 581
3 581 247 245
3 581 245 580
3 580 245 13
3 580 13 579
3 579 13 10
3 579 10 584
3 584 10 578
3 578 10 237
3 578 237 577
3 577 237 7
3 577 7 234
3 577 234 232
3 577 232 583
3 583 232 230
3 583 230 587
3 587 230 228
3 234 7 4
3 13 245 16
3 249 226 224
3 249 224 251
3 251 224 0
3 588 591 592
3 589 588 592
3 589 592 593
3 590 589 593
3 590 593 594
3 591 597 598
3 592 591 598
3 592 598 599
3 593 592 599
3 593 599 600
3 594 593 600
3 594 600 601
3 595 594 601
3 596 602 603
3 597 596 603
3 598 597 603
3 598 603 604
3 599 598 604
3 599 604 605
3 600 599 605
3 600 605 606
3 601 600 606
3 603 602 607
3 604 603 607
3 604 607 608
3 605 604 608
3 606 605 608
3 606 608 233
3 606 233 235
3 606 235 601
3 601 235 3
3 601 3 280
3 601 280 595
3 595 280 277
3 595 277 594
3 594 277 590
3 590 277 34
3 590 34 589
3 589 34 274
3 589 274 588
3 588 274 32
3 588 32 591
3 591 32 1
3 591 1 596
3 591 596 597
3 596 1 225
3 596 225 602
3 602 225 227
3 602 227 607
3 607 227 229
3 607 229 231
3 607 231 608
3 608 231 233
3 6 55 5
3 5 55 52
3 5 52 49
3 5 49 282
3 282 49 46
3 282 46 279
3 279 46 288
3 279 288 35
3 35 288 43
3 35 43 40
3 35 40 37
3 9 61 304
3 9 304 239
3 239 304 302
3 239 302 300
3 239 300 8
3 8 300 56
3 304 61 58
3 12 67 610
3 12 610 11
3 11 610 609
3 11 609 62
3 62 609 64
3 64 609 610
3 64 610 67
3 15 18 311
3 15 311 14
3 14 311 68
3 611 613 614
3 612 611 614
3 612 614 615
3 613 617 618
3 614 613 618
3 614 618 619
3 615 614 619
3 615 619 620
3 616 621 622
3 617 616 622
3 617 622 623
3 618 617 623
3 618 623 624
3 619 618 624
3 622 621 625
3 622 625 626
3 623 622 626
3 623 626 627
3 624 623 627
3 624 627 252
3 624 252 2
3 624 2 620
3 624 620 619
3 620 2 31
3 620 31 615
3 615 31 270
3 615 270 612
3 612 270 28
3 612 28 25
3 612 25 611
3 611 25 22
3 611 22 613
3 613 22 258
3 613 258 616
3 613 616 617
3 616 258 19
3 616 19 621
3 621 19 17
3 621 17 625
3 625 17 246
3 625 246 248
3 625 248 626
3 626 248 250
3 626 250 627
3 627 250 252
3 632 631 635
3 633 632 635
3 633 635 313
3 633 313 634
3 633 634 323
3 633 323 321
3 633 321 632
3 632 321 319
3 632 319 629
3 632 629 631
3 631 629 630
3 631 630 635
3 635 630 65
3 635 65 66
3 635 66 313
3 65 630 70
3 70 630 73
3 73 630 629
3 73 629 76
3 76 629 79
3 79 629 319
3 323 634 325
3 325 634 20
3 325 20 262
3 325 262 327
3 327 262 329
3 329 262 21
3 329 21 628
3 329 628 331
3 331 628 333
3 333 628 338
3 333 338 82
3 82 338 91
3 82 91 85
3 85 91 88
3 338 628 94
3 94 628 21
3 20 634 313
3 24 97 95
3 24 95 23
3 27 38 100
3 27 100 26
3 26 100 98
3 100 38 39
3 275 33 36
3 275 36 271
3 275 271 30
3 271 36 29
3 42 109 636
3 42 636 41
3 41 636 101
3 101 636 348
3 348 636 109
3 348 109 356
3 348 356 354
3 348 354 90
3 90 354 103
3 90 103 89
3 354 356 106
3 45 118 638
3 45 638 637
3 45 637 291
3 291 637 44
3 44 637 358
3 44 358 110
3 358 637 360
3 360 637 638
3 360 638 362
3 362 638 639
3 362 639 112
3 112 639 365
3 365 639 115
3 115 639 118
3 118 639 638
3 48 119 47
3 377 121 640
3 377 640 379
3 379 640 51
3 51 640 50
3 50 640 117
3 117 640 116
3 116 640 121
3 305 57 642
3 305 642 641
3 305 641 303
3 303 641 380
3 303 380 301
3 301 380 54
3 54 380 53
3 380 641 378
3 378 641 130
3 378 130 127
3 378 127 124
3 378 124 122
3 130 641 642
3 130 642 385
3 385 642 57
3 60 63 643
3 60 643 59
3 59 643 386
3 386 643 387
3 386 387 131
3 387 643 389
3 389 643 69
3 69 643 63
3 395 136 646
3 395 646 647
3 395 647 72
3 72 647 71
3 71 647 390
3 390 647 646
3 390 646 388
3 388 646 393
3 388 393 645
3 388 645 644
3 388 644 129
3 129 644 128
3 128 644 391
3 391 644 645
3 391 645 133
3 133 645 393
3 393 646 136
3 148 145 399
3 399 145 648
3 399 648 75
3 75 648 74
3 74 648 396
3 396 648 137
3 137 648 142
3 137 142 139
3 142 648 145
3 405 154 151
3 405 151 403
3 405 403 78
3 78 403 401
3 78 401 400
3 78 400 77
3 400 401 149
3 422 163 649
3 422 649 334
3 422 334 81
3 334 649 332
3 332 649 650
3 332 650 330
3 330 650 651
3 330 651 328
3 328 651 654
3 328 654 326
3 326 654 324
3 324 654 653
3 324 653 652
3 324 652 322
3 322 652 320
3 320 652 406
3 320 406 80
3 406 652 155
3 155 652 157
3 157 652 410
3 410 652 653
3 410 653 413
3 413 653 651
3 413 651 416
3 416 651 650
3 416 650 649
3 416 649 160
3 160 649 163
3 651 653 654
3 172 169 430
3 430 169 426
3 430 426 655
3 430 655 84
3 84 655 83
3 83 655 423
3 423 655 424
3 423 424 166
3 423 166 164
3 424 655 426
3 87 102 86
3 86 102 431
3 431 102 178
3 431 178 173
3 173 178 175
3 93 96 656
3 93 656 340
3 340 656 92
3 92 656 349
3 349 656 99
3 99 656 96
3 453 193 438
3 453 438 436
3 453 436 105
3 105 436 355
3 355 436 179
3 355 179 104
3 438 193 190
3 438 190 657
3 438 657 181
3 181 657 441
3 441 657 450
3 441 450 448
3 441 448 444
3 444 448 184
3 184 448 187
3 450 657 190
3 658 660 661
3 658 661 662
3 658 662 659
3 661 663 664
3 662 661 664
3 662 664 665
3 662 665 666
3 659 662 666
3 659 666 458
3 659 458 194
3 659 194 455
3 659 455 658
3 658 455 107
3 658 107 660
3 660 107 357
3 660 357 663
3 660 663 661
3 663 357 108
3 663 108 359
3 663 359 664
3 664 359 361
3 664 361 665
3 665 361 363
3 665 363 666
3 666 363 111
3 666 111 458
3 114 120 669
3 114 669 367
3 367 669 668
3 367 668 113
3 113 668 667
3 113 667 460
3 460 667 191
3 460 191 192
3 191 667 462
3 462 667 464
3 464 667 668
3 464 668 466
3 466 668 669
3 466 669 468
3 468 669 123
3 123 669 120
3 670 671 672
3 670 672 449
3 670 449 451
3 670 451 463
3 670 463 465
3 670 465 671
3 671 465 467
3 671 467 673
3 671 673 672
3 672 673 132
3 672 132 196
3 672 196 188
3 672 188 449
3 132 673 392
3 392 673 674
3 392 674 126
3 126 674 125
3 125 674 469
3 469 674 467
3 467 674 673
3 463 451 189
3 135 138 394
3 394 138 473
3 394 473 675
3 394 675 134
3 134 675 197
3 197 675 199
3 199 675 473
3 481 202 182
3 481 182 483
3 483 182 443
3 483 443 485
3 485 443 446
3 485 446 676
3 485 676 487
3 487 676 200
3 487 200 489
3 489 200 475
3 489 475 491
3 491 475 493
3 493 475 140
3 493 140 141
3 200 676 183
3 183 676 446
3 170 171 205
3 677 678 679
3 677 680 681
3 677 681 678
3 681 680 682
3 681 682 683
3 681 683 684
3 678 681 684
3 682 685 686
3 683 682 686
3 683 686 687
3 684 683 687
3 684 687 688
3 689 692 693
3 691 694 695
3 692 691 695
3 692 695 696
3 693 692 696
3 695 694 697
3 695 697 698
3 696 695 698
3 696 698 699
3 696 699 511
3 696 511 693
3 693 511 509
3 693 509 689
3 689 509 507
3 689 507 574
3 689 574 572
3 689 572 692
3 692 572 691
3 691 572 570
3 691 570 694
3 694 570 690
3 694 690 490
3 694 490 492
3 694 492 697
3 697 492 494
3 697 494 143
3 697 143 698
3 698 143 699
3 699 143 144
3 699 144 208
3 699 208 511
3 490 690 488
3 488 690 568
3 488 568 486
3 486 568 688
3 486 688 484
3 484 688 687
3 484 687 482
3 482 687 686
3 482 686 203
3 203 686 685
3 203 685 174
3 174 685 171
3 171 685 205
3 205 685 682
3 205 682 680
3 205 680 499
3 499 680 501
3 501 680 677
3 501 677 503
3 503 677 679
3 503 679 222
3 503 222 505
3 505 222 574
3 505 574 507
3 222 679 678
3 222 678 566
3 566 678 684
3 566 684 688
3 566 688 568
3 568 690 570
3 146 147 209
3 404 150 519
3 404 519 700
3 404 700 402
3 402 700 147
3 147 700 209
3 209 700 513
3 513 700 515
3 513 515 211
3 515 700 517
3 517 700 519
3 702 704 705
3 703 702 705
3 703 705 706
3 703 706 540
3 703 540 701
3 703 701 534
3 703 534 702
3 702 534 531
3 702 531 704
3 704 531 528
3 704 528 556
3 704 556 705
3 705 556 554
3 705 554 706
3 706 554 165
3 706 165 542
3 706 542 540
3 165 554 162
3 162 554 161
3 556 528 558
3 558 528 560
3 560 528 525
3 560 525 708
3 560 708 562
3 562 708 520
3 562 520 152
3 562 152 153
3 562 153 156
3 520 708 707
3 520 707 518
3 518 707 516
3 516 707 522
3 516 522 212
3 212 522 214
3 522 707 708
3 522 708 525
3 534 701 220
3 534 220 217
3 220 701 538
3 538 701 540
3 710 709 712
3 710 712 415
3 710 415 418
3 710 418 159
3 710 159 555
3 710 555 709
3 709 555 557
3 709 557 559
3 709 559 711
3 709 711 712
3 712 711 412
3 712 412 415
3 412 711 563
3 412 563 158
3 563 711 561
3 561 711 559
3 714 713 715
3 714 715 427
3 714 427 168
3 714 168 204
3 714 204 544
3 714 544 713
3 713 544 539
3 713 539 541
3 713 541 715
3 715 541 543
3 715 543 425
3 715 425 427
3 425 543 167
3 539 544 221
3 439 180 716
3 439 716 437
3 437 716 176
3 437 176 177
3 176 716 201
3 201 716 180
3 186 195 198
3 186 198 185
3 514 210 722
3 514 722 512
3 514 512 207
3 512 722 510
3 510 722 508
3 508 722 721
3 508 721 506
3 506 721 720
3 506 720 504
3 504 720 717
3 504 717 502
3 502 717 718
3 502 718 719
3 502 719 500
3 500 719 545
3 500 545 206
3 545 719 718
3 545 718 219
3 219 718 218
3 218 718 547
3 547 718 717
3 547 717 720
3 547 720 550
3 550 720 721
3 550 721 722
3 550 722 213
3 213 722 210
3 723 725 726
3 726 725 727
3 726 727 527
3 726 527 530
3 726 530 533
3 726 533 724
3 726 724 723
3 723 724 216
3 723 216 549
3 723 549 725
3 725 549 552
3 725 552 215
3 725 215 727
3 727 215 524
3 727 524 527
3 216 724 536
3 536 724 533
3 575 223 728
3 575 728 573
3 573 728 571
3 571 728 569
3 569 728 567
3 567 728 223
