ply
format ascii 1.0
comment Generated by PyMesh
element vertex 971
property float x
property float y
property float z
property float nx
property float ny
property float nz
element face 1938
property list uchar int vertex_indices
end_header
9.94 90.719 67.863 -0.343 0.182 -0.922
10.758 90.908 67.165 -0.888 0.056 -0.456
9.909 90.305 67.724 -0.322 0.458 -0.829
10.759 91.245 67.272 -0.887 0.224 -0.403
9.941 91.003 67.953 -0.342 0.385 -0.857
10.165 92.137 67.85 -0.492 -0.37 -0.788
9.81 92.476 69.528 -0.787 -0.088 0.61
9.555 91.372 69.776 -0.618 0.649 0.445
10.11 92.2 70.255 -0.987 0.096 0.126
10.455 91.417 71.001 -0.815 -0.295 0.499
9.847 90.71 70.406 -0.409 0.176 0.895
10.34 90.824 70.749 -0.738 0.1 0.667
10.612 89.262 70.249 -0.603 -0.68 0.417
10.076 89.391 69.984 -0.246 -0.766 0.594
10.034 89.083 69.677 -0.218 -0.561 0.799
11.022 88.845 69.872 -0.397 -0.889 0.228
10.353 88.759 69.383 0.049 -0.831 0.554
11.572 87.877 69.318 -0.764 -0.243 0.597
11.212 87.818 67.757 -0.944 -0.273 -0.184
10.073 88.713 68.168 -0.185 -0.87 -0.458
11.155 87.58 66.87 -0.906 -0.114 0.408
11.06 87.743 66.655 -0.953 -0.032 0.3
10 88.84 68.001 -0.246 -0.763 -0.597
10.933 88.322 66.706 -0.868 -0.418 0.266
10.87 90.027 66.246 -0.9 0.434 0.037
9.951 90.166 67.644 -0.287 0.342 -0.895
10.812 90.729 67.062 -0.861 -0.034 -0.507
10.871 90.029 66.245 -0.9 0.435 0.036
10.813 90.731 67.061 -0.861 -0.033 -0.508
10.853 90.297 65.725 -0.888 0.256 0.383
10.951 90.643 65.612 -0.83 0.46 0.316
10.918 91.104 66.939 -0.808 0.153 -0.569
11.006 91.334 66.834 -0.866 -0 -0.499
10.925 91.508 67.041 -0.934 0.145 -0.327
10.814 91.328 67.204 -0.86 0.265 -0.436
10.208 92.201 67.798 -0.456 -0.317 -0.832
11.874 92.463 67.065 -0.143 0.941 -0.306
11.157 93.156 67.823 0.335 0.479 -0.811
11.457 93.408 68.017 0.135 0.311 -0.941
10.005 92.738 69.89 -0.902 -0.168 0.397
9.82 92.539 69.547 -0.779 -0.035 0.626
10.123 92.281 70.279 -0.981 0.137 0.138
11.825 94.186 69.757 0.398 0.866 0.302
12.277 93.995 70.121 0.096 0.994 0.059
12.904 94.09 69.949 -0.322 0.931 0.174
13.106 93.911 70.589 -0.22 0.841 0.494
12.48 93.816 70.761 0.197 0.904 0.379
13.628 93.961 71.561 -0.568 0.808 -0.154
13.315 93.602 72.14 -0.792 0.552 0.259
12.109 93.393 71.447 0.012 0.692 0.721
13.267 93.527 72.892 -0.76 0.603 -0.242
13.055 93.27 73.088 -0.878 0.46 -0.133
11.887 93.124 71.652 -0.099 0.558 0.824
11.833 92.917 71.814 -0.063 0.695 0.716
11.525 91.415 71.875 -0.319 -0.557 0.767
11.491 91.192 71.731 -0.297 -0.408 0.863
12.465 90.937 73.357 -0.946 -0.237 -0.221
12.568 90.715 73.264 -0.872 -0.396 -0.287
11.613 90.93 71.621 -0.236 -0.539 0.808
11.498 90.336 71.368 -0.159 -0.144 0.977
13.003 90.24 73.135 -0.562 -0.735 -0.38
12.013 89.774 71.215 0.098 -0.425 0.9
12.121 89.547 71.123 0.026 -0.273 0.962
11.665 88.831 70.381 -0.354 -0.87 0.343
11.427 88.853 70.261 -0.195 -0.885 0.423
11.977 87.885 69.708 -0.562 -0.239 0.792
12.017 88.838 70.568 -0.061 -0.864 0.499
12.43 87.894 69.948 -0.336 -0.235 0.912
12.653 87.967 70.076 -0.485 -0.284 0.827
14.118 88.358 69.894 0.736 0.042 0.676
14.313 88.397 69.715 0.606 0.016 0.795
14.904 89.885 70.84 0.212 -0.976 0.045
15.494 90.695 69.459 0.507 -0.572 -0.645
14.903 89.206 68.334 0.901 0.421 0.105
14.981 90.63 68.481 0.849 -0.529 0.007
14.83 90.747 67.766 0.741 -0.445 -0.504
14.724 89.345 67.488 0.811 0.49 -0.318
14.539 89.685 66.652 0.935 0.263 0.239
14.655 89.166 66.415 0.993 0.004 0.121
14.84 88.826 67.251 0.87 0.231 -0.437
14.783 88.588 66.364 0.908 0.39 0.155
14.904 87.885 66.545 0.969 0.038 0.245
14.962 88.123 67.432 0.93 -0.12 -0.346
14.893 87.664 67.082 0.976 0.186 -0.113
11.616 86.881 67.504 -0.952 -0.275 0.136
11.437 87.281 67.887 -0.832 -0.542 -0.119
11.379 87.043 67 -0.794 -0.383 0.472
12.153 86.052 67.074 -0.636 -0.763 -0.117
11.956 86.151 66.536 -0.505 -0.829 0.241
12.148 85.389 65.841 -0.633 -0.321 0.705
11.978 85.47 65.702 -0.733 -0.273 0.623
11.774 86.238 66.387 -0.597 -0.785 0.166
11.756 85.987 65.848 -0.585 -0.618 0.526
10.985 87.559 65.141 -0.971 0.168 0.172
11.002 87.81 65.68 -0.982 0.001 -0.187
10.73 88.436 64.753 -0.801 -0.416 0.431
10.73 88.441 64.757 -0.801 -0.413 0.433
11.002 87.815 65.684 -0.983 0.004 -0.185
10.874 88.394 65.735 -0.898 -0.382 -0.219
10.563 89.311 64.824 -0.885 0.022 0.466
10.708 89.264 65.801 -0.981 0.053 -0.186
10.701 89.586 65.313 -0.977 -0.162 0.14
14.095 90.101 64.338 0.881 0.416 0.223
13.985 90.32 64.862 0.955 0.27 -0.126
14.24 90.054 65.316 0.785 0.448 -0.428
13.864 90.73 65.855 0.597 0.786 -0.159
13.636 90.949 65.362 0.749 0.64 0.169
13.806 91.433 66.671 0.636 0.318 -0.703
12.515 92.08 66.543 -0.009 0.641 -0.767
12.436 91.551 65.244 0.044 0.994 0.099
12.248 92.093 66.526 0.169 0.633 -0.756
12.116 92.572 67.256 -0.209 0.888 -0.411
11.938 92.476 67.08 -0.09 0.952 -0.294
11.526 93.422 68.033 0.184 0.321 -0.929
12.431 92.674 67.395 -0.052 0.939 -0.341
11.792 93.509 68.151 0.374 0.383 -0.845
12.865 93.288 68.049 -0.341 0.53 -0.776
12.997 93.926 68.7 -0.275 0.849 -0.451
11.904 94.048 68.701 0.454 0.768 -0.452
13.209 94.067 68.782 -0.416 0.756 -0.506
13.181 94.233 69.488 -0.44 0.894 0.082
11.873 94.229 69.468 0.432 0.897 0.096
12.96 94.14 69.607 -0.293 0.956 0.003
13.999 94.191 69.929 0.242 0.86 0.45
14.013 94.087 70.175 0.233 0.929 0.286
14.394 94.109 71.211 -0.021 0.914 -0.404
14.252 94.128 69.845 0.452 0.807 0.38
14.668 94.041 71.119 0.174 0.865 -0.47
14.337 94.006 70.067 0.395 0.889 0.232
14.457 93.956 70.032 0.455 0.864 0.215
14.769 93.999 71.09 0.247 0.836 -0.491
14.857 93.789 70.524 0.188 0.976 -0.113
15.942 93.115 71.235 0.731 0.638 0.242
15.686 93.429 71.691 0.901 0.429 -0.062
16.589 92.984 72.529 0.299 0.725 -0.62
16.534 93.094 72.647 0.259 0.804 -0.536
15.63 93.539 71.809 0.861 0.507 0.023
15.883 93.455 72.519 0.693 0.563 -0.45
15.379 93.961 72.714 0.413 0.844 -0.341
15.184 93.987 71.982 0.543 0.827 0.146
15.235 94.422 73.211 0.509 0.537 -0.673
13.453 94.143 73.384 -0.764 0.338 -0.549
13.402 93.708 72.155 -0.73 0.628 0.27
13.365 93.646 72.909 -0.705 0.669 -0.233
13.239 93.318 74.585 -0.917 -0.252 0.308
13.123 92.713 74.266 -0.84 0.151 0.521
12.859 92.076 74.333 -0.664 0.576 0.476
12.618 92.032 73.579 -0.836 0.545 -0.062
12.851 92.664 73.414 -0.991 0.124 0.048
11.666 92.424 72.08 -0.201 0.284 0.937
14.01 92.949 75.238 -0.366 -0.515 0.775
13.63 91.707 74.986 -0.113 0.313 0.943
13.994 92.297 75.004 -0.356 -0.08 0.931
14.058 92.256 75.023 -0.32 -0.103 0.942
13.687 91.671 75.003 -0.073 0.287 0.955
14.699 91.68 77.338 -0.748 0.281 -0.601
14.631 91.041 77.37 -0.797 -0.175 -0.579
13.618 91.032 75.035 -0.122 -0.169 0.978
14.517 90.408 75.531 -0.721 0.247 0.648
14.874 89.381 73.59 -0.466 -0.487 -0.739
13.975 90.005 73.094 0.133 -0.903 -0.408
14.202 89.941 71.719 -0.018 -0.861 0.509
13.703 90.024 71.624 -0.435 -0.791 0.43
13.433 90.095 72.992 -0.255 -0.839 -0.482
12.517 89.414 70.991 0.356 -0.384 0.852
13.911 89.853 71.4 -0.261 -0.934 0.243
12.725 89.242 70.767 0.529 -0.527 0.665
13.361 88.372 70.275 0.105 0.053 0.993
14.585 89.83 71.101 0.301 -0.954 -0.006
14.036 88.349 69.976 0.667 0.034 0.744
14.799 89.873 70.945 0.159 -0.982 0.098
14.722 89.968 71.533 0.415 -0.838 0.354
14.974 90.051 71.501 0.247 -0.893 0.376
15.438 89.41 73.389 -0.063 -0.466 -0.882
15.919 89.621 73.355 0.28 -0.316 -0.906
15.543 90.3 71.462 0.531 -0.769 0.356
16.462 90.022 73.208 -0.082 -0.584 -0.808
16.922 90.384 73.028 0.174 -0.382 -0.908
16.025 90.68 71.274 0.772 -0.579 0.262
17.612 90.362 72.995 -0.286 -0.367 -0.885
17.842 90.699 72.856 -0.122 -0.126 -0.984
16.296 91.08 71.109 0.908 -0.379 0.18
16.889 91.265 72.423 0.513 -0.503 -0.696
16.967 91.463 72.363 0.569 -0.362 -0.739
16.389 91.313 71.039 0.954 -0.262 0.144
16.47 91.382 70.793 0.9 -0.308 0.308
16.512 92.042 70.733 0.935 0.242 0.259
16.443 92.162 70.962 0.981 0.162 0.106
17.013 92.18 72.298 0.601 0.151 -0.785
18.208 92.253 74.079 0.14 0.984 -0.111
17.256 92.818 73.646 0.775 0.607 0.178
17.596 92.521 74.253 0.548 0.805 -0.227
17.403 92.67 74.425 0.441 0.888 -0.131
17.086 92.95 73.798 0.653 0.701 0.287
17.218 93.068 75.042 0.565 0.622 -0.542
16.849 93.307 75.059 0.301 0.793 -0.53
16.716 93.189 73.815 0.39 0.871 0.299
15.864 94.069 74.206 0.958 0.285 0.038
15.718 94.182 73.634 0.854 0.365 -0.371
16.571 93.302 73.243 0.286 0.952 -0.11
15.924 93.689 73.191 0.716 0.694 -0.076
15.603 93.17 76.378 -0.59 0.695 0.412
14.617 93.932 75.525 0.067 0.187 0.98
15.689 93.076 77.126 -0.647 0.758 -0.087
15.243 92.494 77.094 -0.895 0.435 -0.105
14.223 93.417 75.497 -0.214 -0.181 0.96
14.855 92.184 77.58 -0.636 0.641 -0.429
14.706 91.707 77.343 -0.743 0.301 -0.598
14.073 92.94 75.26 -0.321 -0.521 0.791
14.066 92.287 75.029 -0.316 -0.086 0.945
16.01 92.964 78.263 -0.468 0.696 0.545
15.534 92.6 78.614 -0.151 0.939 0.31
16.562 93.438 78.485 -0.836 0.38 0.396
17.564 92.319 79.189 -0.12 -0.42 0.9
16.537 91.481 79.319 0.565 0.139 0.813
17.143 91.7 79.059 0.161 -0.007 0.987
17.209 90.514 78.578 0.198 -0.665 0.72
16.595 90.432 78.893 0.607 -0.61 0.509
17.702 90.029 78.262 -0.131 -0.342 0.931
16.838 89.582 77.034 -0.748 -0.662 0.054
15.732 89.984 77.666 -0.01 -0.93 -0.367
15.618 89.351 75.826 0.066 -0.508 0.859
17.595 89.295 76.324 -0.207 -0.867 -0.454
16.375 89.064 75.116 0.606 -0.713 0.351
16.978 89.393 75.197 0.205 -0.933 0.297
17.963 89.376 76.139 0.056 -0.809 -0.586
17.394 89.485 74.989 0.436 -0.882 0.181
18.03 89.566 74.73 0.012 -0.935 0.354
18.795 91.446 76.457 0.65 0.67 -0.359
18.862 91.635 75.047 0.606 0.543 0.581
18.716 92.686 76.959 0.703 -0.158 -0.693
18.379 93.103 76.704 0.462 0.14 -0.876
18.525 92.052 74.793 0.365 0.841 0.399
17.705 92.736 75.603 0.912 0.385 -0.141
17.492 92.913 75.239 0.76 0.511 -0.402
18.311 92.229 74.428 0.213 0.967 0.139
17.712 92.494 74.648 0.613 0.79 -0.008
16.812 93.831 77.422 -0.657 0.66 -0.363
16.137 93.464 76.321 -0.208 0.905 0.371
16.292 93.408 77.061 -0.311 0.942 -0.123
18.488 90.718 78.205 0.431 0.15 0.89
18.409 91.959 78.707 0.483 -0.677 0.555
18.097 91.293 78.513 0.691 -0.233 0.684
15.302 91.984 68.674 0.877 -0.122 -0.464
15.702 91.817 69.166 0.611 -0.011 -0.792
15.157 91.578 68.233 0.974 0.149 -0.17
13.972 92.831 67.743 0.212 0.301 -0.93
14.033 92.293 67.446 0.171 0.659 -0.732
13.538 92.217 67.089 0.502 0.71 -0.494
14.056 91.237 66.857 0.761 0.22 -0.61
14.471 91.465 67.25 0.485 0.068 -0.872
14.115 90.535 66.041 0.722 0.688 -0.066
14.296 89.268 64.269 0.982 0 0.188
14.441 89.221 65.246 0.886 0.032 -0.463
14.568 88.643 65.195 0.801 0.417 -0.43
14.298 89.252 64.257 0.983 -0.008 0.182
14.571 88.626 65.184 0.802 0.409 -0.436
14.553 88.375 64.645 0.813 0.577 -0.076
14.77 86.738 65.4 0.922 -0.242 0.302
14.788 86.989 65.939 0.91 -0.41 -0.058
14.78 86.168 65.286 0.915 0.138 0.378
14.685 85.986 65.51 0.86 0.031 0.51
14.686 86.793 66.181 0.859 -0.507 0.063
14.69 86.649 66.743 0.856 -0.411 -0.312
14.644 85.866 65.575 0.836 -0.04 0.548
14.649 86.529 66.807 0.832 -0.482 -0.274
14.535 85.614 65.801 0.909 0.129 0.397
12.58 85.109 66.08 -0.72 -0.292 0.629
12.312 85.926 67.141 -0.542 -0.837 -0.078
12.308 85.263 65.908 -0.539 -0.395 0.744
14.023 86.831 63.171 0.549 -0.195 -0.813
14.086 86.255 63.213 0.507 0.189 -0.841
13.93 86.004 63.012 0.611 0.356 -0.707
12.149 85.561 63.277 -0.873 -0.014 -0.487
11.957 85.725 63.529 -0.745 -0.123 -0.655
11.734 86.261 63.511 -0.596 -0.48 -0.643
12.174 85.589 63.234 -0.852 0.01 -0.523
11.766 86.298 63.456 -0.58 -0.462 -0.671
11.695 86.719 63.055 -0.533 -0.743 -0.404
10.961 87.566 63.892 -0.965 -0.245 0.088
10.975 87.209 64.355 -0.975 -0.007 -0.221
10.721 88.085 63.967 -0.806 -0.591 0.038
14.239 88.31 63.421 0.963 0.192 -0.189
14.247 88.885 63.462 0.958 -0.191 -0.215
14.502 88.009 63.849 0.788 0.393 -0.474
13.776 87.22 62.778 0.691 -0.449 -0.567
14.004 86.836 63.157 0.539 -0.193 -0.82
13.915 86.008 63.001 0.598 0.359 -0.716
11.924 89.388 61.938 -0.204 0.06 -0.977
11.888 89.653 61.937 -0.18 -0.117 -0.977
10.106 91.569 68.006 -0.452 0.008 -0.892
9.443 91.163 68.435 -0.698 0.5 -0.513
9.674 91.708 68.423 -0.852 0.137 -0.505
9.707 92.284 68.293 -0.874 -0.247 -0.419
9.299 91.301 69.117 -0.801 0.598 -0.026
9.549 91.827 69.014 -0.968 0.247 0.043
9.574 92.411 68.921 -0.984 -0.142 0.105
9.772 91.888 69.585 -0.762 0.304 0.572
9.924 91.744 69.983 -0.863 0.401 0.307
10.221 91.07 70.625 -0.659 -0.064 0.75
9.935 89.988 70.377 -0.347 -0.34 0.874
10.444 89.969 70.714 -0.686 -0.327 0.649
9.485 89.626 69.772 -0.668 -0.598 0.442
9.489 89.299 69.481 -0.671 -0.38 0.636
9.122 89.967 69.322 -0.927 -0.355 0.12
9.156 89.613 69.067 -0.949 -0.119 0.291
9.086 90.322 68.754 -0.953 -0.101 -0.285
9.122 89.94 68.544 -0.977 0.154 -0.145
9.385 90.597 68.22 -0.739 0.095 -0.667
9.398 90.194 68.052 -0.748 0.365 -0.555
11.047 88.444 69.216 -0.414 -0.621 0.666
10.136 88.569 68.8 -0.133 -0.989 0.068
10.836 88.26 68.65 -0.599 -0.783 0.168
11.293 87.634 68.569 -0.904 -0.365 0.222
10.775 88.399 68.038 -0.653 -0.661 -0.371
10.679 88.587 67.767 -0.589 -0.786 -0.19
11.071 88.176 67.296 -0.85 -0.512 0.124
10.625 88.681 67.643 -0.663 -0.657 -0.359
11.009 88.283 67.155 -0.919 -0.392 -0.033
10.455 88.834 67.627 -0.55 -0.759 -0.347
10.783 88.652 67.171 -0.769 -0.638 -0.044
9.798 89.455 67.668 -0.415 -0.251 -0.875
10.275 89.381 67.33 -0.733 -0.202 -0.649
10.583 89.261 66.842 -0.938 -0.122 -0.324
10.673 89.112 66.278 -0.998 -0.023 0.052
10.412 90.014 67.309 -0.594 0.443 -0.671
10.735 89.965 66.817 -0.81 0.475 -0.344
10.457 90.427 67.446 -0.625 0.167 -0.763
10.413 90.573 67.529 -0.658 0.279 -0.699
11.006 90.492 66.406 -0.989 0.126 -0.071
11.097 90.813 66.3 -0.927 0.347 -0.143
10.604 91.768 67.591 -0.72 -0.028 -0.694
10.559 91.701 67.645 -0.754 -0.08 -0.652
10.671 91.867 67.506 -0.765 -0.095 -0.638
10.585 92.78 67.625 -0.141 0.166 -0.976
11.001 92.374 67.355 -0.419 0.437 -0.796
11.302 92.087 66.868 -0.62 0.628 -0.471
11.501 92.703 67.528 0.106 0.782 -0.615
10.588 93.536 68.089 -0.139 0.796 -0.589
10.839 93.821 68.306 -0.307 0.606 -0.734
10.056 93.536 68.596 -0.582 0.796 -0.167
10.261 93.821 68.857 -0.719 0.606 -0.341
9.763 93.156 69.152 -0.826 0.479 0.297
9.943 93.408 69.461 -0.946 0.311 0.091
10.44 92.873 70.744 -0.822 0.432 0.37
10.273 93.238 70.283 -0.711 0.189 0.678
11.005 93.446 70.88 -0.54 0.719 0.438
10.75 93.722 70.398 -0.37 0.535 0.76
11.674 93.854 70.654 -0.205 0.923 0.325
11.315 94.067 70.206 0.034 0.782 0.623
13.091 93.719 71.139 -0.21 0.969 0.127
12.789 93.374 71.696 -0.442 0.705 0.555
12.617 93.201 71.825 -0.327 0.82 0.469
13.03 93.249 72.34 -0.602 0.788 0.126
12.44 92.986 71.989 -0.468 0.65 0.6
12.856 93.038 72.501 -0.745 0.615 0.258
11.025 92.768 71.52 -0.53 0.38 0.758
11.162 92.641 71.711 -0.622 0.465 0.63
10.835 91.846 71.557 -0.625 -0.081 0.777
11.015 91.924 71.74 -0.744 -0.133 0.654
12.049 91.238 72.126 -0.669 -0.438 0.6
12.398 91.146 72.708 -0.902 -0.377 0.212
12.139 91.046 72.045 -0.586 -0.617 0.526
12.481 90.969 72.634 -0.814 -0.565 0.133
10.965 91.142 71.416 -0.56 -0.433 0.706
10.85 90.548 71.164 -0.484 -0.037 0.874
12.014 90.565 71.616 -0.503 -0.296 0.812
12.403 90.719 72.069 -0.762 -0.399 0.51
12.598 90.772 72.651 -0.893 -0.434 0.122
12.361 90.187 71.513 -0.134 -0.7 0.702
12.674 90.423 71.988 -0.343 -0.857 0.385
12.901 90.441 72.561 -0.494 -0.87 0.003
11.758 88.452 69.894 -0.416 -0.618 0.667
11.383 88.445 69.534 -0.638 -0.622 0.454
11.884 88.434 69.966 -0.5 -0.606 0.619
12.251 88.441 70.161 -0.216 -0.6 0.77
13.585 87.309 69.753 0.242 -0.527 0.814
13.552 87.512 69.924 0.264 -0.663 0.701
14.329 89.077 69.897 0.595 -0.437 0.674
14.542 89.613 70.301 0.454 -0.794 0.404
14.841 88.685 69.056 0.87 0.16 0.466
14.745 89.304 69.378 0.934 -0.252 0.251
14.958 89.839 69.782 0.793 -0.61 -0.019
15.433 90.174 70.181 0.476 -0.832 -0.284
14.794 89.714 68.809 0.974 0.082 -0.212
15.006 90.25 69.214 0.832 -0.275 -0.481
14.76 89.929 68.396 0.996 -0.061 0.064
14.616 90.041 67.712 0.883 0.026 -0.468
14.973 87.677 67.966 0.936 -0.343 -0.079
14.903 87.249 67.578 0.982 -0.058 0.179
14.724 87.241 68.448 0.812 -0.561 0.162
14.672 86.844 68.026 0.846 -0.297 0.443
14.252 86.878 68.807 0.576 -0.743 0.342
14.233 86.506 68.361 0.588 -0.495 0.64
13.625 86.641 68.993 0.262 -0.862 0.435
13.65 86.285 68.533 0.245 -0.625 0.741
12.934 86.563 68.978 -0.084 -0.9 0.427
13.008 86.213 68.519 -0.133 -0.667 0.733
12.278 86.657 68.763 -0.411 -0.854 0.32
12.398 86.301 68.319 -0.491 -0.616 0.615
11.754 86.908 68.381 -0.674 -0.728 0.129
11.911 86.534 67.964 -0.778 -0.479 0.407
11.588 86.546 66.766 -0.689 -0.631 0.356
11.81 86.419 67.287 -0.837 -0.546 0.008
11.325 86.675 66.199 -0.821 -0.567 0.072
11.308 86.424 65.659 -0.809 -0.399 0.431
11.058 87.219 65.954 -0.954 -0.295 -0.051
11.041 86.968 65.415 -0.943 -0.127 0.309
10.977 88.149 65.202 -0.965 -0.225 0.132
10.977 88.154 65.205 -0.966 -0.222 0.134
10.69 90.161 65.025 -0.984 0.177 -0.03
10.55 89.93 64.514 -0.891 0.331 0.311
10.918 90.697 64.75 -0.85 0.492 -0.191
10.796 90.506 64.219 -0.768 0.619 0.163
11.353 91.116 64.529 -0.593 0.738 -0.321
11.264 90.957 63.981 -0.534 0.844 0.045
11.934 91.358 64.393 -0.252 0.881 -0.401
11.888 91.217 63.835 -0.222 0.975 -0.029
12.576 91.389 64.361 0.126 0.899 -0.42
12.579 91.251 63.801 0.123 0.991 -0.046
13.187 91.204 64.439 0.485 0.79 -0.374
13.237 91.052 63.884 0.452 0.892 -0.004
13.68 90.83 64.614 0.776 0.57 -0.271
13.767 90.649 64.072 0.718 0.691 0.09
13.584 91.096 66.069 0.784 0.542 -0.302
13.105 91.379 65.259 0.437 0.893 0.108
13.092 91.494 65.973 0.446 0.816 -0.368
13.235 91.895 66.559 0.35 0.549 -0.759
12.472 91.654 65.959 0.019 0.926 -0.378
12.321 91.661 65.95 0.12 0.921 -0.372
11.515 91.323 65.263 -0.498 0.86 0.11
11.592 91.481 65.965 -0.55 0.755 -0.358
11.478 91.902 66.542 -0.474 0.474 -0.743
11.146 90.943 66.241 -0.96 0.26 -0.104
11.723 92.823 67.678 0.053 0.72 -0.692
11.667 92.812 67.664 -0.004 0.709 -0.706
11.823 92.899 67.754 -0.014 0.67 -0.742
12.085 92.984 67.87 0.179 0.732 -0.657
12.553 93.93 68.822 0.021 0.846 -0.532
12.527 94.081 69.463 -0.005 0.995 0.099
14.177 93.993 70.566 0.124 0.992 0.026
14.404 93.936 70.49 0.35 0.935 -0.05
15.326 93.796 71.317 0.644 0.691 -0.328
15.516 93.549 70.793 0.518 0.855 0.021
16.037 93.11 72.167 0.667 0.641 -0.379
15.988 93.207 72.271 0.623 0.729 -0.285
15.123 94.091 72.64 0.584 0.757 -0.292
14.561 94.214 71.927 0.098 0.989 0.107
14.573 94.292 72.592 0.09 0.938 -0.336
14.612 94.649 73.156 0.064 0.699 -0.712
13.906 94.112 71.991 -0.37 0.916 0.153
13.996 94.201 72.648 -0.43 0.857 -0.285
13.957 94.547 73.22 -0.404 0.626 -0.667
13.552 93.846 72.792 -0.83 0.536 -0.155
13.011 93.184 73.549 -0.903 0.413 0.123
13.139 93.734 73.95 -0.988 0.046 -0.145
12.667 92.519 72.82 -0.868 0.221 0.444
12.247 92.433 72.347 -0.588 0.277 0.76
12.817 92.964 72.58 -0.719 0.664 0.205
12.383 92.839 72.128 -0.43 0.747 0.507
12.151 92.156 72.414 -0.524 0.463 0.715
12.489 92.017 72.946 -0.75 0.555 0.36
12.044 91.397 72.26 -0.666 -0.544 0.511
12.378 91.227 72.786 -0.888 -0.431 0.16
13.184 92.669 74.391 -0.881 0.181 0.437
13.861 92.346 74.965 -0.267 -0.112 0.957
14.191 91.438 75.239 -0.409 0.443 0.798
14.596 91.312 75.668 -0.679 0.527 0.512
14.836 91.314 76.222 -0.839 0.525 0.142
14.872 91.444 76.81 -0.863 0.439 -0.25
14.163 91.176 75.252 -0.485 -0.265 0.834
14.59 91.255 75.671 -0.77 -0.317 0.554
14.83 91.257 76.225 -0.93 -0.319 0.185
14.844 91.182 76.823 -0.939 -0.269 -0.214
14.125 90.715 75.172 -0.46 0.042 0.887
13.39 90.476 74.749 -0.285 -0.566 0.774
13.92 90.214 74.914 -0.638 -0.391 0.664
14.289 89.853 75.245 -0.884 -0.15 0.443
13.382 90.056 74.234 -0.29 -0.867 0.405
13.912 89.834 74.448 -0.644 -0.719 0.262
14.281 89.432 74.729 -0.889 -0.451 0.075
13.597 89.883 73.628 -0.137 -0.99 -0.027
14.106 89.678 73.902 -0.477 -0.854 -0.21
14.495 89.259 74.123 -0.736 -0.574 -0.358
14.447 89.788 73.421 -0.181 -0.759 -0.626
14.078 90.145 72.397 0.065 -0.996 0.057
13.635 90.218 72.313 -0.389 -0.921 -0.029
13.196 90.322 72.429 -0.097 -0.99 -0.107
12.932 90.268 71.836 0.079 -0.954 0.289
12.691 89.946 71.325 0.24 -0.739 0.63
12.971 90.397 72.504 -0.541 -0.84 0.041
12.787 90.317 71.884 -0.418 -0.787 0.454
12.485 90.015 71.393 -0.216 -0.585 0.781
13.119 89.85 71.165 -0.045 -0.675 0.736
13.288 89.711 70.982 0.154 -0.839 0.521
13.001 88.839 70.411 0.345 -0.258 0.902
12.372 88.479 70.234 -0.297 -0.625 0.722
13.569 89.028 70.38 -0.034 -0.384 0.923
13.767 89.56 70.784 -0.165 -0.739 0.653
14.012 89.013 70.184 0.683 -0.409 0.605
14.21 89.545 70.588 0.552 -0.764 0.336
14.104 89.039 70.107 0.622 -0.426 0.657
14.378 89.587 70.455 0.439 -0.792 0.424
14.168 89.046 70.043 0.703 -0.417 0.576
14.451 89.596 70.383 0.514 -0.783 0.349
15.077 90.178 72.226 0.178 -0.978 -0.107
15.246 89.946 72.911 0.066 -0.823 -0.564
15.465 90.348 72.199 0.583 -0.801 -0.136
15.601 90.101 72.886 0.492 -0.637 -0.594
15.736 90.514 72.121 0.402 -0.912 -0.083
16.068 90.413 72.751 0.181 -0.845 -0.504
16.1 90.801 71.979 0.722 -0.66 -0.208
16.424 90.694 72.612 0.506 -0.588 -0.63
16.21 90.935 71.87 0.649 -0.749 -0.136
16.592 90.962 72.425 0.394 -0.767 -0.506
17.093 90.758 72.827 0.06 -0.631 -0.774
16.369 91.169 71.774 0.859 -0.439 -0.263
16.702 91.125 72.358 0.637 -0.41 -0.653
17.229 90.957 72.745 0.286 -0.298 -0.911
16.44 91.267 71.821 0.812 -0.504 -0.295
16.515 91.455 71.764 0.87 -0.357 -0.34
16.424 91.349 70.914 0.931 -0.286 0.227
16.063 90.703 70.295 0.791 -0.568 -0.227
16.136 90.808 70.256 0.743 -0.638 -0.201
16.217 90.907 70.215 0.689 -0.704 -0.174
15.787 91.124 69.414 0.653 -0.357 -0.668
15.891 91.182 69.476 0.584 -0.395 -0.709
16.002 91.235 69.529 0.51 -0.43 -0.745
15.851 92.134 69.323 0.685 0.148 -0.714
15.947 92.076 69.395 0.62 0.187 -0.762
16.051 92.02 69.458 0.551 0.224 -0.804
16.188 92.667 70.119 0.853 0.415 -0.316
16.246 92.548 70.1 0.815 0.494 -0.303
16.314 92.435 70.077 0.77 0.57 -0.288
16.472 92.101 70.847 0.962 0.203 0.183
16.558 92.138 71.703 0.904 0.179 -0.388
16.155 92.903 71.922 0.588 0.779 -0.216
16.535 92.053 71.594 0.92 0.235 -0.315
16.502 91.521 71.641 0.879 -0.401 -0.258
17.339 91.024 72.752 0.213 -0.342 -0.915
17.247 91.929 72.502 0.769 -0.029 -0.639
17.663 91.624 72.824 0.491 0.174 -0.853
18.2 91.363 72.935 0.133 0.348 -0.928
17.385 92.515 72.963 0.867 0.39 -0.31
17.788 92.154 73.241 0.599 0.63 -0.495
18.338 91.949 73.396 0.232 0.767 -0.598
17.671 92.429 73.858 0.498 0.866 0.037
17.06 92.909 74.439 0.671 0.728 -0.141
16.731 93.121 74.454 0.38 0.916 -0.128
16.182 93.536 73.984 0.746 0.64 0.186
16.053 93.636 73.477 0.631 0.729 -0.266
16.208 93.561 74.69 0.728 0.623 -0.285
15.59 94.339 74.764 0.762 0.478 0.436
15.981 93.785 75.154 0.502 0.847 0.176
16.576 93.577 75.616 0.106 0.986 -0.132
15.126 94.288 75.255 0.431 0.441 0.787
15.595 93.743 75.563 0.119 0.805 0.582
16.112 93.526 76.107 -0.226 0.949 0.219
15.171 93.447 75.787 -0.302 0.51 0.805
15.113 93.406 75.793 -0.263 0.537 0.801
15.504 93.094 76.378 -0.524 0.746 0.412
14.844 93.056 75.774 -0.629 0.06 0.775
15.217 92.719 76.357 -0.877 0.285 0.386
14.74 92.944 75.71 -0.559 0.135 0.818
15.057 92.52 76.215 -0.771 0.418 0.481
15.099 92.245 76.892 -0.799 0.601 0.03
14.686 92.772 75.624 -0.73 -0.409 0.548
15.038 92.458 76.184 -0.964 -0.2 0.175
15.045 92.072 76.806 -0.969 0.057 -0.24
14.65 92.07 75.387 -0.706 0.059 0.706
14.991 91.874 75.988 -0.933 0.19 0.306
15.011 91.743 76.694 -0.947 0.277 -0.165
14.646 92.056 75.384 -0.712 0.031 0.701
14.989 91.866 75.986 -0.941 0.158 0.3
15.008 91.73 76.691 -0.954 0.248 -0.17
15.127 92.538 78.083 -0.442 0.894 -0.069
15.55 92.894 77.662 -0.724 0.657 0.211
16.134 92.904 78.488 -0.551 0.736 0.394
15.972 92.161 79.249 0.162 0.625 0.763
16.517 92.52 79.044 -0.202 0.386 0.9
17 93 79.12 -0.523 0.066 0.85
17.012 91.924 79.105 0.248 -0.157 0.956
16.646 90.926 79.19 0.643 -0.257 0.722
17.266 91.073 78.913 0.229 -0.355 0.906
17.107 90.314 78.451 0.266 -0.532 0.804
16.136 89.958 78.39 0.278 -0.949 0.15
16.705 89.899 78.011 -0.101 -0.91 0.403
17.242 89.555 77.759 -0.459 -0.68 0.571
16.351 89.922 77.377 -0.423 -0.889 -0.175
15.684 90.082 76.974 0.022 -0.995 0.094
15.643 89.855 76.313 0.049 -0.844 0.534
14.944 90.291 77.609 -0.573 -0.711 -0.408
15.131 90.297 76.934 -0.698 -0.715 0.042
15.09 90.07 76.273 -0.671 -0.564 0.483
14.83 89.658 75.769 -0.497 -0.289 0.818
14.911 90.823 76.767 -0.984 -0.03 -0.176
14.871 90.596 76.105 -0.957 0.122 0.265
16.115 89.601 76.081 -0.266 -0.674 0.689
16.545 89.682 76.507 -0.553 -0.729 0.405
16.71 89.375 75.522 0.383 -0.92 0.081
17.141 89.456 75.948 0.096 -0.974 -0.203
16.44 89.02 74.43 0.653 -0.745 -0.138
17.051 89.344 74.423 0.246 -0.96 -0.133
16.275 89.222 73.792 0.535 -0.601 -0.594
16.864 89.572 73.701 0.142 -0.834 -0.534
17.287 89.489 75.773 -0.001 -0.996 -0.087
17.639 89.567 75.596 0.272 -0.936 -0.224
17.15 89.412 74.224 0.301 -0.922 -0.243
17.814 89.501 74.053 -0.142 -0.981 -0.129
16.978 89.74 73.509 0.205 -0.74 -0.641
17.662 89.791 73.42 -0.251 -0.774 -0.581
17.99 89.649 75.458 0.039 -0.991 -0.132
18.693 89.785 74.79 0.486 -0.779 0.397
18.556 89.836 75.51 0.577 -0.813 -0.082
18.627 89.595 76.2 0.53 -0.652 -0.542
19.126 90.328 74.884 0.795 -0.391 0.464
18.926 90.3 75.59 0.928 -0.372 -0.007
19.06 90.138 76.293 0.839 -0.264 -0.476
19.189 91.019 74.98 0.84 0.103 0.533
18.98 90.89 75.672 0.979 0.189 0.071
19.123 90.829 76.389 0.884 0.23 -0.407
18.7 91.417 75.729 0.714 0.689 0.126
18.494 91.776 75.511 0.851 0.449 0.272
18.337 92.028 76.042 0.956 0.282 -0.082
18.415 92.349 76.553 0.904 0.068 -0.423
18.28 92.041 75.349 0.528 0.849 0.028
18.166 92.239 75.913 0.604 0.717 -0.348
18.201 92.614 76.391 0.581 0.467 -0.667
18.002 92.286 75.175 0.714 0.685 0.144
17.816 92.44 74.856 0.544 0.826 -0.147
17.92 92.873 76.244 0.768 0.294 -0.569
17.292 93.291 75.671 0.617 0.782 -0.093
17.559 93.358 76.303 0.438 0.737 -0.514
17.966 93.659 76.772 0.167 0.537 -0.827
16.709 93.562 75.938 0.201 0.975 0.098
17.051 93.594 76.536 -0.027 0.953 -0.301
17.384 93.929 77.039 -0.249 0.73 -0.637
16.551 93.509 76.87 -0.484 0.875 0.004
16.036 93.269 77.665 -0.454 0.865 0.213
16.584 93.708 77.956 -0.82 0.572 0.019
18.636 92.021 76.801 0.756 0.286 -0.588
19.009 92.457 77.573 0.912 -0.322 -0.255
18.892 91.82 77.338 0.99 0.103 -0.098
19.088 91.216 77.071 0.859 0.505 0.08
18.894 92.184 78.228 0.83 -0.516 0.213
18.791 91.582 77.909 0.898 -0.115 0.425
18.973 90.943 77.725 0.777 0.311 0.547
18.368 91.385 78.328 0.511 -0.294 0.808
15.122 89.916 72.931 0.148 -0.803 -0.577
14.861 90.118 72.256 0.322 -0.938 -0.128
14.782 89.898 73.052 -0.404 -0.832 -0.38
14.538 90.102 72.372 -0.242 -0.968 0.073
15.305 93.529 70.071 0.412 0.846 -0.339
14.905 93.697 69.579 0.679 0.734 -0.011
15.617 93.073 69.662 0.568 0.618 -0.544
15.217 93.241 69.17 0.835 0.506 -0.216
15.755 92.478 69.348 0.637 0.32 -0.701
15.355 92.645 68.856 0.904 0.209 -0.373
15.339 91.69 68.755 0.853 0.074 -0.517
15.161 90.725 69.007 0.729 -0.592 -0.343
14.755 92.093 67.755 0.687 0.517 -0.511
14.826 92.594 68.108 0.639 0.183 -0.747
14.137 90.902 66.767 0.708 0.444 -0.55
14.468 90.24 67.243 0.982 -0.106 -0.155
12.994 92.518 67.168 0.23 0.861 -0.454
13.428 93.132 67.822 -0.06 0.452 -0.89
14.796 93.701 69.082 0.625 0.736 -0.26
14.609 93.891 69.079 0.75 0.609 -0.258
14.007 93.654 68.277 0.23 0.713 -0.662
13.995 93.855 68.453 0.238 0.579 -0.78
14.637 89.215 65.815 0.983 0.028 -0.179
14.764 88.636 65.765 0.899 0.414 -0.145
14.321 88.93 64.747 0.965 0.226 -0.131
14.324 88.914 64.736 0.966 0.217 -0.137
14.838 88.109 65.416 0.936 0.151 -0.32
14.82 87.858 64.877 0.947 0.318 0.04
14.913 87.544 65.677 0.973 -0.132 -0.189
14.896 87.293 65.138 0.985 0.035 0.17
14.888 87.328 66.339 0.96 -0.24 0.142
14.878 87.147 66.89 0.967 -0.118 -0.225
14.52 86.355 66.107 0.97 -0.215 0.112
14.483 86.249 66.164 0.943 -0.295 0.155
14.431 86.104 66.293 0.978 -0.198 0.069
14.315 86.036 67.25 0.636 -0.772 -0.014
14.164 85.709 66.647 0.736 -0.554 0.388
14.255 85.201 66.171 0.676 -0.215 0.705
13.684 85.723 67.486 0.265 -0.956 0.125
13.66 85.459 66.835 0.281 -0.78 0.558
13.727 84.939 66.369 0.236 -0.434 0.87
12.944 85.682 67.445 -0.171 -0.98 0.101
13.068 85.426 66.803 -0.253 -0.81 0.529
13.108 84.905 66.335 -0.28 -0.462 0.842
12.563 85.621 66.56 -0.709 -0.634 0.31
12.416 85.715 66.459 -0.611 -0.696 0.377
12.275 85.826 66.4 -0.717 -0.612 0.332
12.431 84.668 65.454 -0.467 -0.745 0.477
12.683 84.611 65.7 -0.634 -0.707 0.313
12.947 84.303 65.033 -0.163 -0.96 0.23
13.114 84.305 65.348 -0.275 -0.961 0.019
13.668 84.3 64.799 0.261 -0.961 0.092
13.718 84.303 65.152 0.228 -0.963 -0.144
14.335 84.661 64.835 0.653 -0.749 0.113
14.275 84.605 65.183 0.693 -0.711 -0.119
14.705 85.255 65.129 0.871 -0.399 0.286
14.585 85.102 65.429 0.951 -0.297 0.086
14.891 86.262 64.713 0.98 0.193 0.041
14.889 86.839 64.784 0.981 -0.192 -0.007
14.801 86.311 64.131 0.927 0.222 -0.301
14.792 86.891 64.158 0.933 -0.165 -0.32
14.521 86.308 63.61 0.763 0.22 -0.608
14.491 86.889 63.598 0.783 -0.167 -0.6
14.444 85.546 63.524 0.718 -0.228 -0.658
14.23 85.411 63.273 0.861 -0.138 -0.49
14.228 84.799 63.873 0.591 -0.668 -0.453
14.049 84.786 63.565 0.71 -0.659 -0.247
13.537 84.354 64.1 0.184 -0.93 -0.319
13.471 84.414 63.755 0.228 -0.97 -0.089
12.687 84.415 64.102 -0.316 -0.894 -0.318
12.759 84.465 63.756 -0.365 -0.927 -0.088
12.065 84.954 63.877 -0.682 -0.577 -0.451
12.24 84.916 63.568 -0.798 -0.551 -0.244
11.673 85.599 64.032 -0.912 -0.197 -0.359
11.428 86.126 64.052 -0.749 -0.548 -0.372
11.579 85.508 64.609 -0.968 -0.25 -0.02
11.326 86.028 64.672 -0.8 -0.597 -0.062
11.684 85.463 65.189 -0.906 -0.277 0.321
11.44 85.98 65.296 -0.743 -0.621 0.25
11.238 86.663 63.881 -0.844 -0.28 -0.458
11.205 87.059 63.451 -0.822 -0.544 -0.171
10.771 88.176 63.283 -0.78 -0.546 -0.304
11.007 87.65 63.256 -0.938 -0.196 -0.286
11.069 88.31 62.673 -0.632 -0.479 -0.609
11.284 87.775 62.689 -0.775 -0.123 -0.62
11.571 88.467 62.225 -0.38 -0.4 -0.834
11.751 87.921 62.272 -0.501 -0.036 -0.865
12.206 88.627 62.002 -0.063 -0.321 -0.945
12.342 88.07 62.064 -0.153 0.051 -0.987
12.883 88.765 62.036 0.276 -0.251 -0.928
12.971 88.198 62.097 0.217 0.127 -0.968
13.505 88.862 62.324 0.587 -0.203 -0.784
13.549 88.288 62.364 0.557 0.18 -0.811
13.983 88.904 62.823 0.825 -0.182 -0.535
13.993 88.328 62.828 0.818 0.203 -0.538
14.389 87.399 63.445 0.731 0.089 -0.676
14.134 87.743 63.045 0.901 -0.141 -0.41
13.75 86.621 62.984 0.708 -0.049 -0.705
13.328 85.848 62.699 0.11 0.226 -0.968
13.173 86.463 62.687 0.213 -0.184 -0.96
13.075 87.029 62.417 0.278 -0.561 -0.78
12.674 85.691 62.787 -0.436 0.095 -0.895
12.529 86.308 62.773 -0.339 -0.317 -0.886
12.293 86.841 62.521 -0.182 -0.672 -0.718
12.037 86.208 63.213 -0.761 -0.403 -0.509
11.09 89.686 62.381 -0.621 0.209 -0.755
11.239 89.886 62.282 -0.72 0.076 -0.689
11.09 90.508 62.933 -0.621 0.62 -0.479
11.239 90.525 62.711 -0.72 0.609 -0.331
11.924 91.032 63.042 -0.204 0.882 -0.425
11.888 90.932 62.796 -0.18 0.948 -0.261
12.757 90.733 62.599 0.213 0.733 -0.647
12.536 90.7 62.451 0.36 0.755 -0.548
12.757 89.911 62.047 0.213 0.322 -0.923
12.536 90.06 62.022 0.36 0.222 -0.906
14.152 91.794 75.085 -0.383 0.206 0.901
9.547 90.308 70.236 -0.623 -0.111 0.774
9.159 90.768 69.679 -0.901 0.217 0.376
9.159 90.16 69.679 -0.901 -0.217 0.376
9.159 90.768 68.627 -0.901 0.217 -0.376
9.02 90.464 69.153 -1 0 0
10.155 93.013 67.851 -0.5 0.36 -0.788
9.716 92.881 68.276 -0.866 0.25 -0.433
11.467 93.509 71.172 -0.309 0.751 0.584
10.467 92.596 71.022 -0.809 0.294 0.509
10.467 92.008 71.18 -0.809 -0 0.588
11.199 89.859 71.157 -0.309 -0.382 0.871
9.695 88.759 69.011 -0.5 -0.831 0.244
9.695 88.759 68.425 -0.5 -0.831 -0.244
9.256 89.156 68.718 -0.866 -0.5 -0
9.256 89.456 68.198 -0.866 -0.25 -0.433
15.101 88.364 68.124 1 0 0
15.003 88.055 68.659 0.951 -0.155 0.268
14.719 87.776 69.142 0.809 -0.294 0.509
14.277 87.22 69.268 0.588 -0.572 0.572
13.101 86.898 69.484 -0 -0.733 0.68
12.483 87.076 69.523 -0.309 -0.644 0.7
11.925 87.22 69.268 -0.588 -0.572 0.572
11.483 87.346 68.712 -0.809 -0.509 0.294
11.06 90.954 65.075 -0.766 0.643 0
11.58 94.203 68.742 0.223 0.878 -0.423
10.956 94.338 69.334 -0.223 0.975 0
10.956 94.203 69.926 -0.223 0.878 0.423
10.956 94.203 68.742 -0.223 0.878 -0.423
10.395 94.068 69.334 -0.623 0.782 0
10.395 93.894 69.926 -0.623 0.658 0.423
11.308 92.515 71.9 -0.5 0.36 0.788
12.916 91.113 74.749 -0.623 -0.111 0.774
12.916 90.552 74.493 -0.623 -0.512 0.591
12.916 90.219 73.974 -0.623 -0.75 0.22
12.528 91.573 74.192 -0.901 0.217 0.376
12.528 90.965 74.192 -0.901 -0.217 0.376
12.528 90.662 73.666 -0.901 -0.434 -0
13.235 87.882 70.205 -0 -0.355 0.935
16.099 93.014 70.75 0.809 0.588 0
15.657 90.22 70.75 0.588 -0.809 0
15.054 91.066 67.945 0.901 -0.217 -0.376
14.666 91.825 67.475 0.623 0.325 -0.711
14.967 87.808 66.055 1 0 0
14.831 86.767 67.273 0.94 -0.342 -0
14.536 86.3 67.581 0.766 -0.617 0.181
14.084 86.157 68.138 0.5 -0.701 0.509
13.529 85.925 68.154 0.174 -0.837 0.518
12.939 85.925 68.154 -0.174 -0.837 0.518
12.384 85.908 67.579 -0.5 -0.847 0.18
11.932 86.3 67.581 -0.766 -0.617 0.181
14.924 85.934 64.643 1 0 0
14.821 85.353 64.643 0.94 -0.342 -0
14.821 85.643 64.139 0.94 -0.171 -0.296
14.526 84.886 64.335 0.766 -0.617 -0.181
14.074 84.494 64.337 0.5 -0.847 -0.18
12.374 84.494 64.949 -0.5 -0.847 0.18
11.922 84.886 64.951 -0.766 -0.617 0.181
11.922 84.886 64.335 -0.766 -0.617 -0.181
11.024 86.604 64.797 -0.951 -0.309 -0
14.234 89.886 63.892 0.951 0.309 0
14.234 89.577 63.357 0.951 0.155 -0.268
13.95 89.268 62.716 0.809 -0 -0.588
13.95 89.856 62.874 0.809 0.294 -0.509
13.95 90.286 63.304 0.809 0.509 -0.294
13.508 89.268 62.274 0.588 0 -0.809
13.508 89.887 62.397 0.588 0.31 -0.747
13.508 90.412 62.748 0.588 0.572 -0.572
13.508 90.763 63.273 0.588 0.747 -0.31
12.95 89.111 61.996 0.309 -0.079 -0.948
12.95 91.067 63.274 0.309 0.9 -0.309
12.332 91.179 63.302 -0 0.956 -0.295
10.714 90.444 63.892 -0.809 0.588 0
10.714 88.68 62.874 -0.809 -0.294 -0.509
10.714 89.268 62.716 -0.809 -0 -0.588
10.714 89.856 62.874 -0.809 0.294 -0.509
10.714 90.286 63.304 -0.809 0.509 -0.294
10.43 89.886 63.892 -0.951 0.309 0
10.43 88.959 64.427 -0.951 -0.155 0.268
10.43 88.65 63.892 -0.951 -0.309 -0
10.43 88.959 63.357 -0.951 -0.155 -0.268
10.43 89.577 63.357 -0.951 0.155 -0.268
10.332 89.268 63.892 -1 -0 -0
15.165 92.816 68.584 0.809 0.294 -0.509
14.165 93.268 68.01 0.309 0.52 -0.796
14.309 94.199 69.389 0.5 0.866 0
13.709 94.36 69.389 -0 1 0
13.709 94.223 68.831 -0 0.885 -0.465
17.044 93.064 73.397 0.623 0.782 0
17.044 92.89 72.805 0.623 0.658 -0.423
15.396 94.765 74.153 0.623 0.782 0
15.396 94.591 73.561 0.623 0.658 -0.423
14.835 95.035 74.153 0.223 0.975 0
14.835 94.9 74.745 0.223 0.878 0.423
14.835 94.521 75.22 0.223 0.608 0.762
14.835 94.9 73.561 0.223 0.878 -0.423
14.211 95.035 74.153 -0.223 0.975 0
14.211 94.9 74.745 -0.223 0.878 0.423
14.211 94.521 75.22 -0.223 0.608 0.762
14.211 94.9 73.561 -0.223 0.878 -0.423
13.65 94.765 74.153 -0.623 0.782 0
13.65 94.591 74.745 -0.623 0.658 0.423
13.65 94.125 75.149 -0.623 0.325 0.711
13.65 93.514 75.236 -0.623 -0.111 0.774
13.65 94.591 73.561 -0.623 0.658 -0.423
13.262 94.277 74.153 -0.901 0.434 0
13.262 93.974 74.679 -0.901 0.217 0.376
16.058 91.59 79.511 0.223 0.217 0.95
16.058 90.982 79.511 0.223 -0.217 0.95
16.058 90.435 79.247 0.223 -0.608 0.762
15.434 92.137 79.247 -0.223 0.608 0.762
15.434 91.59 79.511 -0.223 0.217 0.95
15.434 90.982 79.511 -0.223 -0.217 0.95
15.434 90.435 79.247 -0.223 -0.608 0.762
15.434 90.056 78.772 -0.223 -0.878 0.423
15.434 89.921 78.18 -0.223 -0.975 0
14.873 92.207 78.772 -0.623 0.658 0.423
14.873 91.741 79.176 -0.623 0.325 0.711
14.873 91.13 79.263 -0.623 -0.111 0.774
14.873 90.569 79.007 -0.623 -0.512 0.591
14.873 90.236 78.488 -0.623 -0.75 0.22
14.485 91.893 78.18 -0.901 0.434 0
14.485 91.59 78.706 -0.901 0.217 0.376
14.485 90.982 78.706 -0.901 -0.217 0.376
14.485 90.679 78.18 -0.901 -0.434 -0
14.346 91.286 78.18 -1 0 0
15.838 88.833 75.216 0.223 -0.878 0.423
15.838 88.698 74.624 0.223 -0.975 0
15.838 88.833 74.032 0.223 -0.878 -0.423
15.838 89.212 73.557 0.223 -0.608 -0.762
15.214 88.833 75.216 -0.223 -0.878 0.423
15.214 88.698 74.624 -0.223 -0.975 0
15.214 88.833 74.032 -0.223 -0.878 -0.423
14.653 89.346 75.451 -0.623 -0.512 0.591
14.653 89.013 74.932 -0.623 -0.75 0.22
14.653 89.013 74.316 -0.623 -0.75 -0.22
19.413 90.875 74.234 1 0 0
19.274 91.482 74.234 0.901 0.434 0
19.274 90.268 74.234 0.901 -0.434 -0
19.274 90.571 73.708 0.901 -0.217 -0.376
19.274 91.179 73.708 0.901 0.217 -0.376
18.886 91.97 74.234 0.623 0.782 0
18.886 89.825 73.926 0.623 -0.75 -0.22
18.886 90.158 73.407 0.623 -0.512 -0.591
18.886 90.719 73.151 0.623 -0.111 -0.774
18.886 91.33 73.238 0.623 0.325 -0.711
18.886 91.796 73.642 0.623 0.658 -0.423
18.325 89.51 74.234 0.223 -0.975 0
18.325 89.645 73.642 0.223 -0.878 -0.423
18.325 90.024 73.167 0.223 -0.608 -0.762
18.325 90.571 72.903 0.223 -0.217 -0.95
16.429 91.451 69.903 0.866 -0.25 -0.433
16.429 92.051 69.903 0.866 0.25 -0.433
19.132 92.907 77.93 1 0 0
18.993 93.514 77.93 0.901 0.434 0
18.993 93.211 78.456 0.901 0.217 0.376
18.993 92.603 78.456 0.901 -0.217 0.376
18.993 93.211 77.404 0.901 0.217 -0.376
18.605 94.002 77.93 0.623 0.782 0
18.605 93.828 78.522 0.623 0.658 0.423
18.605 93.362 78.926 0.623 0.325 0.711
18.605 92.751 79.013 0.623 -0.111 0.774
18.605 93.362 76.934 0.623 0.325 -0.711
18.605 93.828 77.338 0.623 0.658 -0.423
18.044 94.272 77.93 0.223 0.975 0
18.044 94.137 78.522 0.223 0.878 0.423
18.044 93.758 78.997 0.223 0.608 0.762
18.044 93.211 79.261 0.223 0.217 0.95
18.044 92.603 79.261 0.223 -0.217 0.95
18.044 94.137 77.338 0.223 0.878 -0.423
17.42 94.272 77.93 -0.223 0.975 0
17.42 94.137 78.522 -0.223 0.878 0.423
17.42 93.758 78.997 -0.223 0.608 0.762
17.42 93.211 79.261 -0.223 0.217 0.95
17.42 94.137 77.338 -0.223 0.878 -0.423
16.859 94.002 77.93 -0.623 0.782 0
16.859 93.828 78.522 -0.623 0.658 0.423
19.285 90.508 76.959 1 0 0
19.146 90.204 77.485 0.901 -0.217 0.376
19.146 89.901 76.959 0.901 -0.434 -0
18.758 90.352 78.042 0.623 -0.111 0.774
18.758 89.791 77.786 0.623 -0.512 0.591
18.758 89.458 77.267 0.623 -0.75 0.22
18.758 89.458 76.651 0.623 -0.75 -0.22
18.197 89.657 78.026 0.223 -0.608 0.762
18.197 89.278 77.551 0.223 -0.878 0.423
18.197 89.143 76.959 0.223 -0.975 0
17.573 89.278 77.551 -0.223 -0.878 0.423
17.573 89.143 76.959 -0.223 -0.975 0
14.926 87.222 64.797 1 0 0
14.828 87.531 64.262 0.951 0.155 -0.268
14.044 84.462 65.618 0.5 -0.831 0.244
13.444 84.561 66.121 -0 -0.749 0.663
13.444 84.294 65.612 -0 -0.971 0.239
13.797 84.896 63.076 0.5 -0.567 -0.654
13.797 85.429 62.832 0.5 -0.123 -0.857
13.197 84.679 63.065 -0 -0.749 -0.663
13.197 85.151 62.739 -0 -0.355 -0.935
12.597 84.896 63.076 -0.5 -0.567 -0.654
13.904 87.827 62.66 0.766 -0.091 -0.636
13.452 87.829 62.278 0.5 -0.091 -0.861
12.897 87.525 62.132 0.174 -0.27 -0.947
12.307 87.525 62.132 -0.174 -0.27 -0.947
11.752 87.247 62.467 -0.5 -0.433 -0.75
11.3 87.267 62.916 -0.766 -0.421 -0.486
12.104 90.476 62.121 -0 0.568 -0.823
11.504 90.226 62.164 -0.5 0.36 -0.788
11.504 90.668 62.547 -0.5 0.729 -0.468
3 0 4 1
3 1 4 3
3 4 291 290
3 290 291 292
3 290 292 5
3 5 292 293
3 291 294 292
3 292 294 295
3 292 295 293
3 293 295 296
3 294 7 295
3 295 7 297
3 295 297 296
3 296 297 6
3 7 10 298
3 298 10 299
3 298 299 8
3 8 299 9
3 10 300 11
3 11 300 301
3 300 13 301
3 301 13 12
3 13 302 14
3 14 302 303
3 302 304 303
3 303 304 305
3 304 306 305
3 305 306 307
3 306 308 307
3 307 308 309
3 308 0 309
3 309 0 2
3 14 16 12
3 12 16 15
3 16 311 310
3 310 311 312
3 310 312 17
3 17 312 313
3 311 19 312
3 312 19 314
3 312 314 313
3 313 314 18
3 19 22 315
3 315 22 317
3 315 317 316
3 316 317 318
3 316 318 20
3 20 318 21
3 22 321 319
3 319 321 322
3 319 322 320
3 320 322 323
3 320 323 23
3 23 323 324
3 321 25 322
3 322 25 325
3 322 325 323
3 323 325 326
3 323 326 324
3 324 326 24
3 25 2 327
3 327 2 328
3 327 328 26
3 26 328 1
3 26 28 24
3 24 28 27
3 28 31 329
3 329 31 330
3 329 330 29
3 29 330 30
3 31 34 32
3 32 34 33
3 34 3 331
3 331 3 332
3 331 332 35
3 35 332 5
3 35 334 333
3 333 334 335
3 333 335 33
3 33 335 336
3 334 37 335
3 335 37 337
3 335 337 336
3 336 337 36
3 37 338 38
3 38 338 339
3 338 340 339
3 339 340 341
3 340 342 341
3 341 342 343
3 342 40 343
3 343 40 39
3 40 6 41
3 41 6 8
3 41 344 39
3 39 344 345
3 344 346 345
3 345 346 347
3 346 348 347
3 347 348 349
3 348 43 349
3 349 43 42
3 43 46 44
3 44 46 45
3 46 49 350
3 350 49 351
3 350 351 47
3 47 351 48
3 49 52 352
3 352 52 354
3 352 354 353
3 353 354 355
3 353 355 50
3 50 355 51
3 52 356 53
3 53 356 357
3 356 358 357
3 357 358 359
3 358 55 359
3 359 55 54
3 55 58 360
3 360 58 362
3 360 362 361
3 361 362 363
3 361 363 56
3 56 363 57
3 58 364 59
3 59 364 365
3 364 9 365
3 365 9 11
3 59 61 366
3 366 61 369
3 366 369 367
3 367 369 370
3 367 370 368
3 368 370 371
3 368 371 57
3 57 371 60
3 61 64 62
3 62 64 63
3 64 15 372
3 372 15 373
3 372 373 65
3 65 373 17
3 65 67 374
3 374 67 375
3 374 375 63
3 63 375 66
3 67 376 68
3 68 376 377
3 376 70 377
3 377 70 69
3 70 380 378
3 378 380 381
3 378 381 379
3 379 381 382
3 379 382 71
3 71 382 383
3 380 73 381
3 381 73 384
3 381 384 382
3 382 384 385
3 382 385 383
3 383 385 72
3 73 76 386
3 386 76 387
3 386 387 74
3 74 387 75
3 76 79 77
3 77 79 78
3 79 82 80
3 80 82 81
3 82 388 83
3 83 388 389
3 388 390 389
3 389 390 391
3 390 392 391
3 391 392 393
3 392 394 393
3 393 394 395
3 394 396 395
3 395 396 397
3 396 398 397
3 397 398 399
3 398 400 399
3 399 400 401
3 400 85 401
3 401 85 84
3 85 18 86
3 86 18 20
3 86 402 84
3 84 402 403
3 402 88 403
3 403 88 87
3 88 91 89
3 89 91 90
3 91 404 92
3 92 404 405
3 404 406 405
3 405 406 407
3 406 94 407
3 407 94 93
3 94 97 408
3 408 97 409
3 408 409 95
3 95 409 96
3 97 21 98
3 98 21 23
3 98 100 96
3 96 100 99
3 100 27 101
3 101 27 29
3 101 410 99
3 99 410 411
3 410 412 411
3 411 412 413
3 412 414 413
3 413 414 415
3 414 416 415
3 415 416 417
3 416 418 417
3 417 418 419
3 418 420 419
3 419 420 421
3 420 422 421
3 421 422 423
3 422 103 423
3 423 103 102
3 103 106 104
3 104 106 105
3 106 425 424
3 424 425 426
3 424 426 107
3 107 426 427
3 425 109 426
3 426 109 428
3 426 428 427
3 427 428 108
3 109 430 429
3 429 430 431
3 429 431 110
3 110 431 432
3 430 30 431
3 431 30 433
3 431 433 432
3 432 433 32
3 110 112 108
3 108 112 111
3 112 36 434
3 434 36 435
3 434 435 113
3 113 435 38
3 113 115 436
3 436 115 437
3 436 437 111
3 111 437 114
3 115 118 116
3 116 118 117
3 118 121 438
3 438 121 439
3 438 439 119
3 119 439 120
3 121 42 122
3 122 42 44
3 122 124 120
3 120 124 123
3 124 45 125
3 125 45 47
3 125 127 440
3 440 127 441
3 440 441 123
3 123 441 126
3 127 130 128
3 128 130 129
3 130 442 131
3 131 442 443
3 442 133 443
3 443 133 132
3 133 136 444
3 444 136 445
3 444 445 134
3 134 445 135
3 136 139 137
3 137 139 138
3 139 447 446
3 446 447 448
3 446 448 140
3 140 448 449
3 447 450 448
3 448 450 451
3 448 451 449
3 449 451 452
3 450 142 451
3 451 142 453
3 451 453 452
3 452 453 141
3 142 48 143
3 143 48 50
3 143 454 141
3 141 454 455
3 454 145 455
3 455 145 144
3 145 148 146
3 146 148 147
3 148 51 456
3 456 51 458
3 456 458 457
3 457 458 459
3 457 459 149
3 149 459 53
3 149 54 460
3 460 54 462
3 460 462 461
3 461 462 463
3 461 463 147
3 147 463 56
3 146 151 464
3 464 151 465
3 464 465 144
3 144 465 150
3 151 154 152
3 152 154 153
3 154 157 466
3 466 157 470
3 466 470 467
3 467 470 471
3 467 471 468
3 468 471 472
3 468 472 469
3 469 472 473
3 469 473 155
3 155 473 156
3 157 475 474
3 474 475 476
3 474 476 158
3 158 476 477
3 475 478 476
3 476 478 479
3 476 479 477
3 477 479 480
3 478 481 479
3 479 481 482
3 479 482 480
3 480 482 483
3 481 160 482
3 482 160 484
3 482 484 483
3 483 484 159
3 160 163 485
3 485 163 486
3 485 486 161
3 161 486 162
3 163 60 487
3 487 60 490
3 487 490 488
3 488 490 491
3 488 491 489
3 489 491 492
3 489 492 164
3 164 492 62
3 164 166 493
3 493 166 494
3 493 494 162
3 162 494 165
3 166 66 495
3 495 66 496
3 495 496 167
3 167 496 68
3 167 169 497
3 497 169 499
3 497 499 498
3 498 499 500
3 498 500 165
3 165 500 168
3 169 69 501
3 501 69 503
3 501 503 502
3 502 503 504
3 502 504 170
3 170 504 71
3 170 172 168
3 168 172 171
3 172 175 505
3 505 175 507
3 505 507 506
3 506 507 508
3 506 508 173
3 173 508 174
3 175 178 509
3 509 178 511
3 509 511 510
3 510 511 512
3 510 512 176
3 176 512 177
3 178 181 513
3 513 181 516
3 513 516 514
3 514 516 517
3 514 517 515
3 515 517 518
3 515 518 179
3 179 518 180
3 181 184 519
3 519 184 520
3 519 520 182
3 182 520 183
3 184 522 521
3 521 522 523
3 521 523 185
3 185 523 524
3 522 525 523
3 523 525 526
3 523 526 524
3 524 526 527
3 525 528 526
3 526 528 529
3 526 529 527
3 527 529 530
3 528 531 529
3 529 531 532
3 529 532 530
3 530 532 533
3 531 187 532
3 532 187 534
3 532 534 533
3 533 534 186
3 187 132 535
3 535 132 536
3 535 536 188
3 188 536 134
3 188 183 537
3 537 183 538
3 537 538 186
3 186 538 185
3 182 540 539
3 539 540 541
3 539 541 180
3 180 541 542
3 540 543 541
3 541 543 544
3 541 544 542
3 542 544 545
3 543 190 544
3 544 190 546
3 544 546 545
3 545 546 189
3 190 193 191
3 191 193 192
3 193 196 547
3 547 196 548
3 547 548 194
3 194 548 195
3 196 199 549
3 549 199 550
3 549 550 197
3 197 550 198
3 199 135 200
3 200 135 137
3 200 138 198
3 198 138 140
3 197 552 551
3 551 552 553
3 551 553 195
3 195 553 554
3 552 555 553
3 553 555 556
3 553 556 554
3 554 556 557
3 555 202 556
3 556 202 558
3 556 558 557
3 557 558 201
3 202 205 559
3 559 205 561
3 559 561 560
3 560 561 562
3 560 562 203
3 203 562 204
3 205 208 563
3 563 208 566
3 563 566 564
3 564 566 567
3 564 567 565
3 565 567 568
3 565 568 206
3 206 568 207
3 208 150 209
3 209 150 152
3 209 153 569
3 569 153 572
3 569 572 570
3 570 572 573
3 570 573 571
3 571 573 574
3 571 574 207
3 207 574 155
3 206 575 204
3 204 575 576
3 575 211 576
3 576 211 210
3 211 578 577
3 577 578 579
3 577 579 212
3 212 579 580
3 578 214 579
3 579 214 581
3 579 581 580
3 580 581 213
3 214 582 215
3 215 582 583
3 582 217 583
3 583 217 216
3 217 585 584
3 584 585 586
3 584 586 218
3 218 586 587
3 585 220 586
3 586 220 588
3 586 588 587
3 587 588 219
3 220 591 589
3 589 591 592
3 589 592 590
3 590 592 593
3 590 593 221
3 221 593 594
3 591 156 592
3 592 156 595
3 592 595 593
3 593 595 596
3 593 596 594
3 594 596 158
3 221 223 597
3 597 223 599
3 597 599 598
3 598 599 600
3 598 600 219
3 219 600 222
3 223 601 224
3 224 601 602
3 601 603 602
3 602 603 604
3 603 174 604
3 604 174 176
3 224 226 605
3 605 226 606
3 605 606 222
3 222 606 225
3 226 607 227
3 227 607 608
3 607 609 608
3 608 609 610
3 609 177 610
3 610 177 179
3 227 612 611
3 611 612 613
3 611 613 225
3 225 613 614
3 612 615 613
3 613 615 616
3 613 616 614
3 614 616 617
3 615 618 616
3 616 618 619
3 616 619 617
3 617 619 620
3 618 229 619
3 619 229 621
3 619 621 620
3 620 621 228
3 229 232 622
3 622 232 625
3 622 625 623
3 623 625 626
3 623 626 624
3 624 626 627
3 624 627 230
3 230 627 231
3 232 235 628
3 628 235 629
3 628 629 233
3 233 629 234
3 235 189 236
3 236 189 191
3 236 192 234
3 234 192 194
3 233 631 630
3 630 631 632
3 630 632 231
3 231 632 633
3 631 634 632
3 632 634 635
3 632 635 633
3 633 635 636
3 634 238 635
3 635 238 637
3 635 637 636
3 636 637 237
3 238 201 239
3 239 201 203
3 239 638 237
3 237 638 639
3 638 210 639
3 639 210 212
3 230 641 640
3 640 641 642
3 640 642 228
3 228 642 643
3 641 644 642
3 642 644 645
3 642 645 643
3 643 645 646
3 644 241 645
3 645 241 647
3 645 647 646
3 646 647 240
3 241 213 242
3 242 213 215
3 242 216 240
3 240 216 218
3 173 159 648
3 648 159 650
3 648 650 649
3 649 650 651
3 649 651 171
3 171 651 161
3 131 652 129
3 129 652 653
3 652 654 653
3 653 654 655
3 654 656 655
3 655 656 657
3 656 244 657
3 657 244 243
3 244 72 658
3 658 72 659
3 658 659 245
3 245 659 74
3 245 660 243
3 243 660 661
3 660 247 661
3 661 247 246
3 247 250 248
3 248 250 249
3 250 75 662
3 662 75 663
3 662 663 251
3 251 663 77
3 251 105 249
3 249 105 107
3 248 664 246
3 246 664 665
3 664 114 665
3 665 114 116
3 128 666 126
3 126 666 667
3 666 668 667
3 667 668 669
3 668 117 669
3 669 117 119
3 104 253 102
3 102 253 252
3 253 670 254
3 254 670 671
3 670 78 671
3 671 78 80
3 254 256 672
3 672 256 673
3 672 673 252
3 252 673 255
3 256 674 257
3 257 674 675
3 674 676 675
3 675 676 677
3 676 259 677
3 677 259 258
3 259 262 260
3 260 262 261
3 262 678 263
3 263 678 679
3 678 81 679
3 679 81 83
3 263 265 680
3 680 265 681
3 680 681 261
3 261 681 264
3 265 683 682
3 682 683 684
3 682 684 266
3 266 684 685
3 683 686 684
3 684 686 687
3 684 687 685
3 685 687 688
3 686 689 687
3 687 689 690
3 687 690 688
3 688 690 691
3 689 268 690
3 690 268 692
3 690 692 691
3 691 692 267
3 268 87 693
3 693 87 694
3 693 694 269
3 269 694 89
3 269 695 267
3 267 695 696
3 695 697 696
3 696 697 698
3 697 699 698
3 698 699 700
3 699 701 700
3 700 701 702
3 701 703 702
3 702 703 704
3 703 264 704
3 704 264 266
3 260 705 258
3 258 705 706
3 705 707 706
3 706 707 708
3 707 709 708
3 708 709 710
3 709 271 710
3 710 271 270
3 271 711 272
3 272 711 712
3 711 713 712
3 712 713 714
3 713 715 714
3 714 715 716
3 715 717 716
3 716 717 718
3 717 719 718
3 718 719 720
3 719 274 720
3 720 274 273
3 274 721 275
3 275 721 722
3 721 723 722
3 722 723 724
3 723 725 724
3 724 725 726
3 725 90 726
3 726 90 92
3 275 277 273
3 273 277 276
3 277 727 278
3 278 727 728
3 727 280 728
3 728 280 279
3 280 93 281
3 281 93 95
3 281 729 279
3 279 729 730
3 729 731 730
3 730 731 732
3 731 733 732
3 732 733 734
3 733 735 734
3 734 735 736
3 735 737 736
3 736 737 738
3 737 739 738
3 738 739 740
3 739 741 740
3 740 741 742
3 741 283 742
3 742 283 282
3 283 255 284
3 284 255 257
3 284 743 282
3 282 743 744
3 743 286 744
3 744 286 285
3 286 270 287
3 287 270 272
3 287 746 745
3 745 746 747
3 745 747 285
3 285 747 748
3 746 749 747
3 747 749 750
3 747 750 748
3 748 750 751
3 749 276 750
3 750 276 752
3 750 752 751
3 751 752 278
3 288 753 289
3 289 753 754
3 753 755 754
3 754 755 756
3 755 757 756
3 756 757 758
3 757 759 758
3 758 759 760
3 759 761 760
3 760 761 762
3 761 288 762
3 762 288 289
3 2 0 328
3 328 0 1
3 332 3 4
3 332 4 290
3 332 290 5
3 8 6 297
3 8 297 298
3 298 297 7
3 11 9 299
3 11 299 10
3 14 12 13
3 373 15 310
3 373 310 17
3 310 15 16
3 20 18 316
3 316 18 314
3 316 314 315
3 315 314 19
3 23 21 318
3 23 318 320
3 320 318 317
3 320 317 319
3 319 317 22
3 26 24 326
3 26 326 327
3 327 326 325
3 327 325 25
3 29 27 329
3 329 27 28
3 433 30 330
3 433 330 32
3 32 330 31
3 333 33 34
3 333 34 331
3 333 331 35
3 435 36 337
3 435 337 37
3 435 37 38
3 41 39 40
3 44 42 43
3 47 45 350
3 350 45 46
3 50 48 353
3 353 48 351
3 353 351 352
3 352 351 49
3 458 51 355
3 458 355 459
3 459 355 354
3 459 354 53
3 53 354 52
3 462 54 360
3 462 360 361
3 462 361 463
3 463 361 56
3 360 54 55
3 368 57 363
3 368 363 367
3 367 363 362
3 367 362 366
3 366 362 58
3 366 58 59
3 490 60 371
3 490 371 370
3 490 370 491
3 491 370 369
3 491 369 492
3 492 369 61
3 492 61 62
3 374 63 372
3 374 372 65
3 372 63 64
3 496 66 375
3 496 375 68
3 68 375 67
3 503 69 70
3 503 70 378
3 503 378 504
3 504 378 379
3 504 379 71
3 659 72 385
3 659 385 74
3 74 385 386
3 386 385 384
3 386 384 73
3 663 75 387
3 663 387 76
3 663 76 77
3 80 78 79
3 83 81 82
3 86 84 85
3 694 87 88
3 694 88 89
3 92 90 91
3 95 93 408
3 408 93 94
3 98 96 409
3 98 409 97
3 101 99 100
3 104 102 103
3 107 105 424
3 424 105 106
3 110 108 428
3 110 428 429
3 429 428 109
3 436 111 434
3 436 434 113
3 434 111 112
3 116 114 437
3 116 437 115
3 119 117 438
3 438 117 118
3 122 120 439
3 122 439 121
3 440 123 124
3 440 124 125
3 128 126 441
3 128 441 127
3 131 129 130
3 536 132 133
3 536 133 444
3 536 444 134
3 137 135 445
3 137 445 136
3 140 138 446
3 446 138 139
3 143 141 453
3 143 453 142
3 464 144 145
3 464 145 146
3 461 147 148
3 461 148 456
3 461 456 460
3 460 456 457
3 460 457 149
3 152 150 465
3 152 465 151
3 572 153 763
3 572 763 466
3 572 466 467
3 572 467 573
3 573 467 468
3 573 468 574
3 574 468 469
3 574 469 155
3 466 763 154
3 154 763 153
3 595 156 473
3 595 473 472
3 595 472 596
3 596 472 471
3 596 471 158
3 158 471 474
3 474 471 470
3 474 470 157
3 650 159 484
3 650 484 160
3 650 160 651
3 651 160 485
3 651 485 161
3 493 162 488
3 493 488 489
3 493 489 164
3 488 162 486
3 488 486 487
3 487 486 163
3 498 165 494
3 498 494 497
3 497 494 166
3 497 166 495
3 497 495 167
3 170 168 502
3 502 168 500
3 502 500 501
3 501 500 499
3 501 499 169
3 649 171 172
3 649 172 505
3 649 505 648
3 648 505 506
3 648 506 173
3 176 174 508
3 176 508 510
3 510 508 507
3 510 507 509
3 509 507 175
3 179 177 515
3 515 177 512
3 515 512 514
3 514 512 511
3 514 511 513
3 513 511 178
3 539 180 518
3 539 518 182
3 182 518 517
3 182 517 519
3 519 517 516
3 519 516 181
3 538 183 520
3 538 520 184
3 538 184 521
3 538 521 185
3 537 186 534
3 537 534 187
3 537 187 535
3 537 535 188
3 191 189 546
3 191 546 190
3 194 192 547
3 547 192 193
3 551 195 548
3 551 548 549
3 551 549 197
3 549 548 196
3 200 198 550
3 200 550 199
3 203 201 560
3 560 201 558
3 560 558 559
3 559 558 202
3 206 204 565
3 565 204 562
3 565 562 564
3 564 562 561
3 564 561 563
3 563 561 205
3 571 207 568
3 571 568 570
3 570 568 567
3 570 567 569
3 569 567 566
3 569 566 209
3 209 566 208
3 212 210 577
3 577 210 211
3 215 213 581
3 215 581 214
3 218 216 584
3 584 216 217
3 598 219 588
3 598 588 589
3 598 589 590
3 598 590 597
3 597 590 221
3 589 588 220
3 605 222 600
3 605 600 599
3 605 599 224
3 224 599 223
3 611 225 606
3 611 606 226
3 611 226 227
3 640 228 623
3 640 623 624
3 640 624 230
3 623 228 621
3 623 621 622
3 622 621 229
3 630 231 627
3 630 627 626
3 630 626 233
3 233 626 628
3 628 626 625
3 628 625 232
3 236 234 629
3 236 629 235
3 239 237 637
3 239 637 238
3 242 240 647
3 242 647 241
3 245 243 658
3 658 243 244
3 248 246 247
3 251 249 662
3 662 249 250
3 672 252 253
3 672 253 254
3 257 255 673
3 257 673 256
3 260 258 259
3 680 261 262
3 680 262 263
3 266 264 681
3 266 681 682
3 682 681 265
3 269 267 693
3 693 267 692
3 693 692 268
3 272 270 271
3 275 273 274
3 752 276 277
3 752 277 278
3 281 279 280
3 284 282 283
3 745 285 286
3 745 286 287
3 764 765 766
3 766 765 768
3 766 768 304
3 766 304 302
3 766 302 764
3 764 302 300
3 764 300 10
3 764 10 765
3 765 10 7
3 765 7 294
3 765 294 768
3 768 294 767
3 768 767 306
3 768 306 304
3 306 767 308
3 308 767 291
3 308 291 4
3 308 4 0
3 291 767 294
3 300 302 13
3 28 26 31
3 3 34 31
3 3 31 1
3 1 31 26
3 6 40 296
3 296 40 342
3 296 342 770
3 296 770 293
3 293 770 35
3 293 35 5
3 35 770 769
3 35 769 334
3 334 769 338
3 334 338 37
3 338 769 340
3 340 769 770
3 340 770 342
3 364 58 55
3 364 55 358
3 364 358 9
3 9 358 773
3 9 773 8
3 8 773 41
3 41 773 772
3 41 772 344
3 344 772 356
3 344 356 346
3 346 356 771
3 346 771 348
3 348 771 49
3 348 49 46
3 348 46 43
3 49 771 52
3 52 771 356
3 356 772 773
3 356 773 358
3 12 15 64
3 12 64 774
3 12 774 301
3 301 774 365
3 301 365 11
3 365 774 59
3 59 774 61
3 61 774 64
3 776 775 777
3 776 777 778
3 776 778 22
3 776 22 19
3 776 19 311
3 776 311 775
3 775 311 16
3 775 16 14
3 775 14 303
3 775 303 777
3 777 303 305
3 777 305 307
3 777 307 778
3 778 307 309
3 778 309 321
3 778 321 22
3 321 309 25
3 25 309 2
3 18 85 313
3 313 85 786
3 313 786 17
3 17 786 785
3 17 785 65
3 65 785 784
3 65 784 67
3 67 784 376
3 376 784 783
3 376 783 394
3 376 394 782
3 376 782 70
3 70 782 781
3 70 781 380
3 380 781 780
3 380 780 779
3 380 779 73
3 73 779 79
3 73 79 76
3 79 779 82
3 82 779 388
3 388 779 780
3 388 780 390
3 390 780 781
3 390 781 782
3 390 782 392
3 392 782 394
3 394 783 396
3 396 783 784
3 396 784 398
3 398 784 785
3 398 785 400
3 400 785 786
3 400 786 85
3 97 94 21
3 21 94 406
3 21 406 20
3 20 406 86
3 86 406 404
3 86 404 402
3 402 404 91
3 402 91 88
3 24 27 324
3 27 100 324
3 324 100 98
3 324 98 23
3 430 109 416
3 430 416 414
3 430 414 787
3 430 787 30
3 30 787 412
3 30 412 410
3 30 410 29
3 29 410 101
3 412 787 414
3 416 109 418
3 418 109 425
3 418 425 420
3 420 425 422
3 422 425 106
3 422 106 103
3 336 36 432
3 336 432 32
3 336 32 33
3 432 36 110
3 110 36 112
3 790 789 792
3 790 792 793
3 789 791 792
3 792 791 341
3 792 341 343
3 792 343 793
3 793 343 345
3 793 345 347
3 793 347 790
3 790 347 349
3 790 349 42
3 790 42 789
3 789 42 121
3 789 121 788
3 789 788 791
3 791 788 339
3 791 339 341
3 339 788 113
3 339 113 38
3 113 788 115
3 115 788 118
3 118 788 121
3 345 343 39
3 45 124 44
3 44 124 122
3 48 142 47
3 47 142 450
3 47 450 125
3 125 450 447
3 125 447 127
3 127 447 130
3 130 447 139
3 130 139 442
3 442 139 136
3 442 136 133
3 51 148 454
3 51 454 143
3 51 143 50
3 454 148 145
3 54 149 359
3 359 149 794
3 359 794 357
3 357 794 53
3 53 794 149
3 795 798 799
3 796 795 799
3 797 796 799
3 797 799 800
3 797 800 60
3 797 60 481
3 797 481 478
3 797 478 796
3 796 478 475
3 796 475 795
3 795 475 157
3 795 157 151
3 795 151 146
3 795 146 798
3 798 146 147
3 798 147 56
3 798 56 799
3 799 56 800
3 800 56 57
3 800 57 60
3 151 157 154
3 481 60 163
3 481 163 160
3 63 66 62
3 62 66 164
3 164 66 166
3 69 169 377
3 377 169 801
3 377 801 68
3 68 801 167
3 167 801 169
3 72 244 525
3 72 525 522
3 72 522 383
3 383 522 803
3 383 803 71
3 71 803 175
3 71 175 172
3 71 172 170
3 175 803 178
3 178 803 522
3 178 522 181
3 181 522 184
3 525 244 528
3 528 244 656
3 528 656 531
3 531 656 654
3 531 654 802
3 531 802 187
3 187 802 132
3 132 802 443
3 443 802 652
3 443 652 131
3 652 802 654
3 75 250 804
3 75 804 74
3 74 804 245
3 245 804 805
3 245 805 660
3 660 805 247
3 247 805 250
3 250 805 804
3 670 253 104
3 670 104 77
3 670 77 78
3 77 104 251
3 251 104 105
3 678 262 259
3 678 259 676
3 678 676 806
3 678 806 81
3 81 806 80
3 80 806 671
3 671 806 674
3 671 674 256
3 671 256 254
3 674 806 676
3 403 87 813
3 403 813 84
3 84 813 401
3 401 813 399
3 399 813 812
3 399 812 811
3 399 811 397
3 397 811 810
3 397 810 395
3 395 810 809
3 395 809 393
3 393 809 808
3 393 808 391
3 391 808 807
3 391 807 389
3 389 807 679
3 389 679 83
3 679 807 263
3 263 807 265
3 265 807 808
3 265 808 683
3 683 808 809
3 683 809 686
3 686 809 810
3 686 810 689
3 689 810 811
3 689 811 812
3 689 812 268
3 268 812 87
3 87 812 813
3 814 815 816
3 816 815 817
3 819 820 821
3 819 821 717
3 819 717 697
3 819 697 695
3 819 695 820
3 820 695 90
3 820 90 725
3 820 725 723
3 820 723 821
3 821 723 721
3 821 721 719
3 821 719 717
3 719 721 274
3 90 695 89
3 89 695 269
3 697 717 715
3 697 715 699
3 699 715 818
3 699 818 701
3 701 818 817
3 701 817 815
3 701 815 703
3 703 815 814
3 703 814 260
3 703 260 261
3 703 261 264
3 260 814 705
3 705 814 707
3 707 814 816
3 707 816 709
3 709 816 711
3 709 711 271
3 711 816 817
3 711 817 713
3 713 817 818
3 713 818 715
3 93 280 822
3 93 822 407
3 407 822 405
3 405 822 726
3 405 726 92
3 726 822 724
3 724 822 722
3 722 822 727
3 722 727 275
3 275 727 277
3 727 822 280
3 95 96 281
3 824 825 826
3 824 826 827
3 823 824 827
3 825 828 829
3 826 825 829
3 826 829 830
3 827 826 830
3 827 830 831
3 837 836 843
3 837 843 844
3 838 837 844
3 839 838 844
3 840 839 844
3 835 839 840
3 842 841 845
3 843 842 845
3 844 843 845
3 840 844 845
3 845 841 411
3 845 411 840
3 840 411 413
3 840 413 835
3 835 413 415
3 835 415 839
3 839 415 755
3 839 755 838
3 838 755 753
3 838 753 837
3 837 753 733
3 837 733 731
3 837 731 836
3 836 731 729
3 836 729 843
3 843 729 842
3 842 729 281
3 842 281 96
3 842 96 841
3 841 96 99
3 841 99 411
3 733 753 288
3 733 288 735
3 735 288 832
3 735 832 737
3 737 832 739
3 739 832 828
3 739 828 825
3 739 825 741
3 741 825 824
3 741 824 283
3 283 824 255
3 255 824 823
3 255 823 252
3 252 823 102
3 102 823 423
3 423 823 827
3 423 827 831
3 423 831 421
3 421 831 833
3 421 833 419
3 419 833 834
3 419 834 417
3 417 834 757
3 417 757 415
3 415 757 755
3 757 834 759
3 759 834 833
3 759 833 831
3 759 831 830
3 759 830 761
3 761 830 829
3 761 829 828
3 761 828 832
3 761 832 288
3 108 111 114
3 108 114 664
3 108 664 427
3 427 664 248
3 427 248 107
3 107 248 249
3 666 128 129
3 666 129 653
3 666 653 655
3 666 655 846
3 666 846 847
3 666 847 668
3 668 847 665
3 668 665 116
3 668 116 117
3 665 847 246
3 246 847 661
3 661 847 846
3 661 846 243
3 243 846 657
3 657 846 655
3 848 850 849
3 848 849 123
3 848 123 126
3 848 126 667
3 848 667 850
3 850 667 669
3 850 669 119
3 850 119 120
3 850 120 849
3 849 120 123
3 135 199 852
3 135 852 134
3 134 852 188
3 188 852 543
3 188 543 540
3 188 540 183
3 183 540 182
3 543 852 851
3 543 851 190
3 190 851 193
3 193 851 196
3 196 851 199
3 199 851 852
3 138 200 137
3 853 854 858
3 853 858 855
3 853 855 856
3 856 855 860
3 856 860 861
3 857 856 861
3 855 858 862
3 855 862 859
3 855 859 860
3 860 859 863
3 860 863 864
3 861 860 864
3 861 864 865
3 863 862 867
3 859 862 863
3 864 863 868
3 864 868 869
3 865 864 869
3 866 865 869
3 863 867 868
3 868 867 141
3 868 141 455
3 868 455 869
3 869 455 144
3 869 144 866
3 866 144 150
3 866 150 205
3 866 205 865
3 865 205 202
3 865 202 861
3 861 202 857
3 857 202 555
3 857 555 856
3 856 555 552
3 856 552 853
3 853 552 197
3 853 197 198
3 853 198 854
3 854 198 140
3 854 140 858
3 858 140 449
3 858 449 862
3 862 449 452
3 862 452 867
3 867 452 141
3 205 150 208
3 153 209 152
3 870 874 875
3 871 870 875
3 871 875 876
3 872 871 876
3 872 876 877
3 873 879 880
3 874 873 880
3 874 880 881
3 875 874 881
3 875 881 882
3 876 875 882
3 877 876 882
3 877 882 883
3 878 877 883
3 879 884 885
3 880 879 885
3 881 880 885
3 881 885 886
3 882 881 886
3 883 882 886
3 883 886 887
3 885 884 888
3 886 885 888
3 887 886 888
3 887 888 156
3 887 156 591
3 887 591 883
3 883 591 878
3 878 591 220
3 878 220 585
3 878 585 877
3 877 585 872
3 872 585 217
3 872 217 582
3 872 582 871
3 871 582 214
3 871 214 870
3 870 214 578
3 870 578 874
3 874 578 873
3 873 578 211
3 873 211 879
3 879 211 575
3 879 575 884
3 884 575 206
3 884 206 207
3 884 207 155
3 884 155 888
3 888 155 156
3 889 893 894
3 890 889 894
3 890 894 895
3 891 890 895
3 893 896 897
3 894 893 897
3 894 897 898
3 895 894 898
3 895 898 159
3 895 159 173
3 895 173 892
3 895 892 891
3 891 892 603
3 891 603 601
3 891 601 890
3 890 601 223
3 890 223 889
3 889 223 221
3 889 221 893
3 893 221 896
3 896 221 594
3 896 594 477
3 896 477 480
3 896 480 897
3 897 480 898
3 898 480 483
3 898 483 159
3 477 594 158
3 603 892 174
3 174 892 173
3 162 165 161
3 161 165 168
3 161 168 171
3 607 226 602
3 607 602 604
3 607 604 609
3 609 604 176
3 609 176 177
3 602 226 224
3 899 901 902
3 899 902 903
3 899 903 900
3 902 901 905
3 902 905 906
3 902 906 907
3 903 902 907
3 903 907 908
3 903 908 909
3 900 903 909
3 900 909 904
3 905 910 911
3 906 905 911
3 906 911 912
3 906 912 913
3 907 906 913
3 907 913 542
3 907 542 908
3 908 542 545
3 908 545 909
3 909 545 189
3 909 189 904
3 904 189 235
3 904 235 232
3 904 232 229
3 904 229 900
3 900 229 618
3 900 618 899
3 899 618 615
3 899 615 901
3 901 615 612
3 901 612 905
3 905 612 910
3 910 612 227
3 910 227 608
3 910 608 911
3 911 608 610
3 911 610 912
3 912 610 179
3 912 179 913
3 913 179 180
3 913 180 542
3 186 185 914
3 186 914 915
3 186 915 533
3 533 915 530
3 530 915 914
3 530 914 527
3 527 914 524
3 524 914 185
3 192 236 191
3 557 201 238
3 557 238 634
3 557 634 554
3 554 634 631
3 554 631 195
3 195 631 194
3 194 631 234
3 234 631 233
3 576 210 638
3 576 638 203
3 576 203 204
3 203 638 239
3 916 917 918
3 916 918 919
3 916 920 917
3 918 917 922
3 918 922 923
3 918 923 924
3 919 918 924
3 920 925 926
3 917 920 926
3 917 926 921
3 917 921 922
3 922 921 928
3 922 928 929
3 923 922 929
3 923 929 930
3 924 923 930
3 924 930 931
3 921 926 932
3 921 932 927
3 921 927 928
3 928 927 934
3 928 934 935
3 929 928 935
3 929 935 936
3 930 929 936
3 927 932 937
3 927 937 933
3 927 933 934
3 934 933 938
3 934 938 939
3 935 934 939
3 933 937 938
3 938 937 237
3 938 237 639
3 938 639 939
3 939 639 212
3 939 212 580
3 939 580 935
3 935 580 936
3 936 580 213
3 936 213 931
3 936 931 930
3 931 213 241
3 931 241 924
3 924 241 919
3 919 241 644
3 919 644 916
3 916 644 641
3 916 641 920
3 920 641 230
3 920 230 925
3 925 230 231
3 925 231 633
3 925 633 926
3 926 633 932
3 932 633 636
3 932 636 937
3 937 636 237
3 216 242 583
3 583 242 215
3 940 941 942
3 941 943 944
3 941 944 945
3 942 941 945
3 942 945 946
3 944 947 948
3 945 944 948
3 945 948 949
3 946 945 949
3 948 947 950
3 948 950 951
3 949 948 951
3 949 951 222
3 949 222 225
3 949 225 946
3 946 225 614
3 946 614 617
3 946 617 942
3 942 617 940
3 940 617 620
3 940 620 643
3 940 643 646
3 940 646 941
3 941 646 943
3 943 646 240
3 943 240 218
3 943 218 947
3 943 947 944
3 947 218 587
3 947 587 950
3 950 587 219
3 950 219 951
3 951 219 222
3 643 620 228
3 710 270 743
3 710 743 953
3 710 953 708
3 708 953 952
3 708 952 706
3 706 952 677
3 706 677 258
3 677 952 675
3 675 952 953
3 675 953 257
3 257 953 284
3 284 953 743
3 743 270 286
3 954 955 956
3 954 956 700
3 954 700 702
3 954 702 704
3 954 704 685
3 954 685 688
3 954 688 955
3 955 688 691
3 955 691 696
3 955 696 956
3 956 696 698
3 956 698 700
3 696 691 267
3 685 704 266
3 287 272 746
3 957 959 960
3 958 957 960
3 960 959 961
3 960 961 749
3 960 749 746
3 960 746 958
3 958 746 272
3 958 272 712
3 958 712 957
3 957 712 714
3 957 714 716
3 957 716 959
3 959 716 718
3 959 718 961
3 961 718 720
3 961 720 273
3 961 273 276
3 961 276 749
3 742 282 744
3 742 744 962
3 742 962 740
3 740 962 963
3 740 963 738
3 738 963 964
3 738 964 736
3 736 964 965
3 736 965 734
3 734 965 966
3 734 966 732
3 732 966 967
3 732 967 730
3 730 967 728
3 730 728 279
3 728 967 278
3 278 967 966
3 278 966 751
3 751 966 965
3 751 965 964
3 751 964 748
3 748 964 963
3 748 963 285
3 285 963 962
3 285 962 744
3 968 969 970
3 968 970 758
3 968 758 760
3 968 760 762
3 968 762 289
3 968 289 969
3 969 289 754
3 969 754 756
3 969 756 970
3 970 756 758
