ply
format ascii 1.0
comment Generated by PyMesh
element vertex 1102
property float x
property float y
property float z
property float nx
property float ny
property float nz
element face 2200
property list uchar int vertex_indices
end_header
-2.89 28.924 96.946 -0.859 -0.498 0.12
-2.761 28.48 96.74 -0.945 -0.202 0.257
-2.783 27.656 96.95 -0.931 0.347 0.117
-1.512 30.688 95.644 -0.321 0.901 -0.291
-1.835 30.789 96.02 -0.105 0.834 -0.541
-1.055 30.872 95.277 -0.625 0.779 -0.046
-0.602 31.088 95.836 -0.399 0.887 0.233
-1.453 30.971 96.492 0.168 0.964 -0.204
-0.089 32.226 97.174 -0.741 0.128 -0.659
-0.209 32.268 97.333 -0.802 0.149 -0.579
-1.555 31.006 96.627 0.095 0.99 -0.108
-0.593 31.822 97.529 -0.546 0.446 -0.709
-1.257 31.643 98.305 -0.877 0.356 -0.321
-2.115 30.855 97.283 -0.305 0.881 0.361
-1.526 31.616 98.739 -0.698 0.374 -0.611
-1.345 29.943 99.541 -0.569 -0.821 -0.038
-1.935 29.182 98.084 -0.176 -0.314 0.933
-0.734 28.878 99.208 -0.977 -0.111 0.184
-0.732 28.843 99.196 -0.975 -0.141 0.174
-1.932 29.143 98.071 -0.174 -0.341 0.924
-1.627 28.74 98.072 -0.378 -0.073 0.923
-2.007 28.502 97.827 -0.568 -0.192 0.8
-2.254 28.942 97.864 -0.404 -0.485 0.775
-2.197 27.672 97.795 -0.442 0.361 0.821
-1.517 28.34 98.039 -0.323 -0.272 0.906
-1.815 27.547 97.96 -0.125 0.256 0.959
-0.647 28.532 99.17 -0.904 -0.4 0.152
-0.25 28.048 99.181 -0.573 -0.803 0.161
-1.419 27.063 97.971 0.206 -0.147 0.967
-1.076 27.161 97.957 -0.023 -0.212 0.977
-1.014 26.593 97.72 0.014 -0.546 0.837
-1.367 26.588 97.773 0.249 -0.543 0.802
-0.7 26.113 97.545 -0.196 -0.226 0.954
-1.347 25.636 97.071 -0.519 -0.465 0.718
-1.87 26.217 97.404 -0.17 -0.852 0.495
-1.304 25.156 96.911 -0.547 -0.145 0.824
-1.82 25.192 96.294 -0.916 -0.119 0.384
-2.345 26.25 96.836 -0.566 -0.824 0.022
-1.958 25.679 96.341 -0.824 -0.443 0.352
-2.277 26.208 95.668 -0.984 -0.178 0.016
-2.593 26.662 96.313 -0.773 -0.481 -0.414
-2.48 26.682 95.975 -0.849 -0.494 -0.189
-2.726 27.701 96.234 -0.994 0.105 -0.036
-2.8 27.515 96.53 -0.945 0.23 -0.233
-2.783 28.299 96.2 -0.956 -0.293 -0.013
-2.168 27.571 95.028 -0.666 0.029 -0.746
-2.183 28.159 94.902 -0.656 -0.363 -0.662
-1.942 27.165 94.649 -0.817 0.3 -0.493
-1.369 27.425 94.174 -0.53 0.43 -0.731
-1.61 28.419 94.427 -0.369 -0.233 -0.9
-0.844 28.215 93.776 -0.88 -0.097 -0.466
-0.842 28.266 93.763 -0.879 -0.072 -0.472
-1.608 28.469 94.414 -0.368 -0.208 -0.906
-1.15 28.653 94.047 -0.673 -0.33 -0.662
0.695 29.822 93.308 -0.11 0.706 -0.7
0.387 30.209 93.592 0.095 0.448 -0.889
1.959 31.285 92.468 -0.953 -0.269 -0.14
1.987 31.95 93.077 -0.933 0.206 0.295
0.42 30.997 94.313 0.112 0.841 -0.529
0.475 31.126 94.497 0.075 0.755 -0.651
-0.034 31.33 95.458 -0.349 0.925 0.15
-0.234 31.259 95.549 -0.215 0.972 0.089
0.279 32.397 96.887 -0.557 0.214 -0.802
0.603 31.399 95.221 0.181 0.982 -0.048
1.097 32.485 96.581 -0.148 0.258 -0.955
1.604 32.339 96.347 -0.486 0.355 -0.798
1.636 32.42 96.366 -0.47 0.396 -0.789
1.129 32.566 96.6 -0.132 0.298 -0.945
1.738 34.201 95.617 -0.538 -0.791 -0.289
1.26 35.132 96.664 -0.88 -0.126 0.458
0.564 33.669 97.84 -0.415 0.849 -0.326
0.616 33.789 98.031 -0.45 0.77 -0.453
1.576 33.98 98.717 0.35 0.929 0.119
1.797 33.915 98.722 0.202 0.973 0.115
2.303 35.34 97.409 -0.135 0.022 0.991
2.608 35.245 97.416 0.083 -0.045 0.996
2.158 33.803 98.73 0.382 0.916 0.119
3.289 35.109 97.518 -0.372 0.045 0.927
3.582 34.94 97.607 -0.209 -0.048 0.977
2.465 33.626 98.823 0.536 0.828 0.166
2.972 33.479 98.588 0.198 0.926 0.323
2.874 31.112 99.852 0.148 -0.258 0.955
2.367 31.259 100.087 0.486 -0.356 0.798
1.983 30.813 100.283 0.742 -0.059 0.668
0.006 32.455 100.145 -0.246 0.763 0.598
0.39 32.901 99.949 -0.502 0.465 0.729
-0.459 32.303 100.293 0.064 0.864 0.499
-1.035 32.381 99.34 -0.348 0.92 -0.181
-0.293 32.993 98.821 -0.843 0.511 0.165
-0.677 32.547 99.016 -0.587 0.809 0.034
-0.34 29.696 100.28 -0.419 -0.617 0.666
-0.751 29.972 100.408 -0.145 -0.801 0.581
-0.187 28.905 100.007 -0.521 -0.089 0.849
0.148 29.685 100.474 -0.175 -0.622 0.763
0.193 28.896 100.157 -0.204 -0.096 0.974
0.389 29.173 100.269 -0.335 -0.281 0.899
1.117 28.447 99.931 0.094 -0.707 0.701
0.802 28.289 99.874 0.304 -0.602 0.738
1.644 28.196 99.78 -0.258 -0.54 0.801
1.379 27.648 99.037 -0.39 -0.814 0.43
0.596 27.863 99.296 0.132 -0.957 0.257
1.656 27.301 98.82 -0.575 -0.583 0.574
1.484 27.246 98.513 -0.698 -0.622 0.355
0.438 27.812 99.014 -0 -1 0.022
0.118 26.421 97.585 0.213 -0.072 0.974
-0.179 26.451 97.629 0.065 -0.057 0.996
0.207 27.836 99.048 -0.193 -0.98 0.05
-0.53 26.908 97.798 0.298 -0.361 0.883
2.444 26.749 97.72 -0.012 -0.977 -0.211
1.254 25.832 96.646 0.781 -0.366 0.505
2.046 25.628 95.994 0.253 -0.23 0.94
1.739 25.039 95.806 0.1 -0.524 0.846
0.947 25.244 96.458 0.628 -0.661 0.411
1.653 24.808 95.701 0.158 -0.371 0.915
1.587 24.737 95.679 0.103 -0.43 0.897
0.863 25.152 96.43 0.586 -0.707 0.397
0.563 24.747 96.369 0.786 -0.437 0.437
0.9 24.196 94.537 -0.47 -0.881 -0.055
-0.184 24.159 95.128 0.253 -0.857 -0.449
0.772 24.251 94.309 -0.384 -0.918 0.097
0.769 24.252 94.307 -0.385 -0.918 0.096
-0.186 24.16 95.126 0.252 -0.857 -0.45
0.831 23.687 93.363 -0.426 -0.541 0.725
0.641 23.713 93.246 -0.562 -0.522 0.641
-0.376 24.187 95.009 0.115 -0.837 -0.534
0.362 24.154 93.549 -0.377 -0.816 0.439
-0.679 25.021 93.111 -0.898 -0.382 0.22
-1.256 24.919 94.639 -0.513 -0.314 -0.799
-1.29 25.355 94.381 -0.49 -0.605 -0.627
-0.78 25.242 93.004 -0.948 -0.271 0.167
-1.391 25.577 94.275 -0.541 -0.494 -0.681
-0.886 25.419 92.833 -0.877 -0.389 0.281
-0.73 26.678 92.584 -0.747 0.66 0.073
-1.19 27.196 93.955 -0.441 0.315 -0.841
-0.665 27.987 93.557 -0.79 -0.212 -0.575
-0.687 26.728 92.513 -0.712 0.702 0.014
-0.611 28.051 93.465 -0.763 -0.18 -0.621
-0.525 26.926 92.593 -0.82 0.57 -0.039
-0.165 27.25 92.21 -0.641 0.732 -0.23
-0.251 28.375 93.083 -0.583 -0.018 -0.812
0.209 27.666 91.874 -0.89 0.455 -0.006
0.362 27.912 91.787 -0.814 0.579 -0.049
-0.099 28.622 92.996 -0.507 0.106 -0.855
0.497 28.141 91.753 -0.904 0.427 -0.027
1.296 28.794 91.761 -0.239 0.971 -0.02
0.928 29.462 93.006 0.007 0.526 -0.851
2.156 30.981 92.213 -0.812 -0.487 -0.322
1.36 28.797 91.622 -0.185 0.973 -0.136
2.226 30.984 92.062 -0.762 -0.485 -0.43
2.485 30.342 91.943 -0.935 -0.057 -0.35
3.811 31.359 91.065 -0.198 0.508 -0.838
3.4 31.884 91.285 0.076 0.158 -0.984
4.313 31.152 90.628 -0.533 0.646 -0.547
4.99 31.607 91.064 -0.049 0.971 -0.235
4.077 32.338 91.721 0.56 0.483 -0.673
4.577 31.872 91.558 0.227 0.794 -0.565
4.93 32.065 92.394 0.423 0.901 -0.1
4.389 32.509 92.461 0.783 0.605 -0.144
5.7 33.293 93.733 -0.09 0.082 -0.993
5.605 33.407 93.761 -0.169 0.177 -0.97
4.287 32.633 92.491 0.71 0.693 -0.123
4.965 34.533 93.473 0.258 -0.573 -0.778
3.501 34.866 93.838 -0.788 -0.335 -0.517
2.823 32.967 92.856 -0.336 0.932 0.138
3.064 34.666 94.329 -0.496 -0.201 -0.845
2.822 34.498 94.557 -0.631 -0.294 -0.718
2.609 32.818 93.057 -0.489 0.826 0.282
2.194 34.704 94.795 -0.213 -0.432 -0.877
2.953 33.208 94.087 -0.974 0.227 -0.023
2.832 33.763 94.598 -0.877 -0.216 -0.43
2.055 34.16 95.353 -0.312 -0.821 -0.478
2.469 32.273 93.615 -0.589 0.437 0.68
2.755 32.005 94.808 -0.78 0.616 -0.114
2.668 31.876 94.801 -0.853 0.508 -0.12
2.374 32.133 93.608 -0.657 0.337 0.675
0.831 31.295 94.986 0.372 0.896 -0.244
2.671 31.895 94.89 -0.85 0.524 -0.046
0.834 31.314 95.075 0.374 0.912 -0.169
1.902 32.23 96.159 -0.338 0.301 -0.892
2.72 31.97 94.9 -0.809 0.587 -0.038
1.965 32.326 96.171 -0.306 0.349 -0.886
2.016 34.122 95.453 -0.34 -0.848 -0.407
2.928 35.159 94.379 -0.572 0.073 -0.817
2.288 35.289 94.637 -0.145 -0.014 -0.989
3.381 35.303 93.882 -0.874 -0.023 -0.486
3.604 36.253 94.221 -0.715 0.656 -0.243
2.511 36.24 94.976 0.014 0.665 -0.747
3.18 36.232 94.762 -0.432 0.67 -0.604
5.799 35.703 95.192 0.854 0.263 0.45
5.661 35.611 95.858 0.946 0.325 0.005
6.42 34.751 95.848 0.44 0.898 0.012
5.049 33.684 97.622 -0.246 0.364 0.898
4.352 34.593 97.551 0.219 -0.241 0.945
3.779 33.115 98.529 0.601 0.744 0.293
5.45 33.101 97.818 -0.045 0.073 0.996
4.18 32.533 98.725 0.802 0.452 0.391
5.228 32.14 98.273 0.103 0.714 0.692
5.191 31.432 98.669 0.077 0.209 0.975
4.136 31.695 99.193 0.78 0.034 0.625
4.877 30.982 98.914 0.286 0.509 0.812
4.268 30.208 99.275 -0.019 0.122 0.992
3.527 30.921 99.555 0.475 -0.354 0.806
3.349 29.913 99.655 0.594 0.318 0.739
2.704 30.056 99.938 0.272 0.39 0.88
2.882 31.064 99.837 0.153 -0.282 0.947
1.991 30.764 100.268 0.747 -0.083 0.66
2.218 29.461 100.169 0.029 0.092 0.995
1.506 30.169 100.499 0.504 -0.38 0.775
1.651 29.623 100.292 0.408 -0.016 0.913
4.539 29.118 99.087 0.117 -0.423 0.899
3.62 28.824 99.468 0.73 -0.227 0.645
4.685 28.912 98.998 0.02 -0.286 0.958
4.645 28.432 98.721 -0.014 -0.686 0.727
3.567 28.206 99.112 0.704 -0.536 0.467
3.505 27.772 98.883 0.746 -0.246 0.619
4.771 28.06 97.86 0.091 -0.996 0.01
3.642 27.368 97.948 0.844 -0.535 -0.048
4.649 28.022 97.625 0.172 -0.971 0.167
4.632 28.007 97.541 0.163 -0.979 0.125
3.627 27.355 97.877 0.833 -0.544 -0.099
5.097 27.56 96.652 -0.147 -0.681 0.718
4.795 27.359 96.256 -0.362 -0.824 0.435
3.325 27.154 97.481 0.617 -0.688 -0.382
4.262 27.553 96.458 -0.007 -0.954 0.3
4.119 27.521 96.318 -0.078 -0.97 0.23
3.205 27.127 97.363 0.531 -0.707 -0.467
3.403 26.354 95.318 0.399 -0.192 0.897
3.361 26.318 95.328 0.369 -0.218 0.903
3.163 27.091 97.372 0.501 -0.733 -0.46
2.897 26.033 95.582 0.679 -0.028 0.734
3.635 25.576 94.551 0.565 -0.748 0.349
3.221 25.154 94.663 0.841 -0.467 0.274
3.962 25.419 94.05 0.346 -0.644 0.682
3.545 24.819 93.286 0.138 -0.944 0.3
2.804 24.554 93.898 0.632 -0.767 -0.108
2.55 23.942 93.018 0.801 -0.359 0.478
1.862 23.601 93.378 0.31 -0.602 0.736
1.99 24.151 94.324 0.225 -0.969 0.105
1.848 24.117 94.549 0.32 -0.946 -0.045
0.835 23.685 93.364 -0.424 -0.542 0.726
0.902 24.195 94.536 -0.468 -0.882 -0.056
0.774 24.25 94.308 -0.383 -0.919 0.097
3.57 24.807 93.232 0.151 -0.95 0.273
2.571 23.931 92.973 0.816 -0.366 0.446
2.848 23.962 92.635 0.632 -0.387 0.671
1.452 24.161 90.848 -0.531 -0.221 -0.818
1.055 24.147 91.032 -0.266 -0.212 -0.94
1.148 25.221 89.889 -0.328 -0.928 -0.179
0.905 25.326 89.965 -0.531 -0.84 -0.115
0.791 24.262 91.114 -0.455 -0.13 -0.881
0.541 24.803 91.026 -0.288 -0.491 -0.822
0.377 26.618 90.154 -0.971 0.237 0.042
-0.138 26.464 91.269 -0.627 0.339 -0.701
0.236 26.88 90.932 -0.877 0.062 -0.477
1.753 27.412 89.62 0.176 0.899 -0.402
2.005 27.901 90.247 0.008 0.573 -0.82
2.139 27.493 89.811 -0.081 0.845 -0.529
2.709 27.477 89.928 0.327 0.834 -0.445
2.681 27.882 90.385 0.346 0.564 -0.75
3.605 28.368 90.658 -0.271 0.24 -0.932
3.281 28.809 90.973 -0.433 0.46 -0.775
2.357 28.323 90.7 0.183 0.784 -0.593
3.33 29.929 91.067 -0.466 -0.286 -0.837
2.896 30.134 91.339 -0.707 -0.172 -0.686
1.902 28.539 90.985 -0.044 0.892 -0.45
1.695 28.628 91.129 0.094 0.832 -0.546
3.386 28.809 90.919 -0.38 0.46 -0.802
3.43 29.929 91.015 -0.41 -0.286 -0.866
3.976 29.887 90.584 -0.774 -0.258 -0.579
4.058 28.392 90.589 -0.044 0.252 -0.967
4.544 29.534 90.306 -0.368 -0.51 -0.777
4.293 28.281 90.525 -0.201 0.325 -0.924
5.594 28.05 91.092 0.882 0.132 -0.452
5.956 29.283 90.921 0.641 -0.689 -0.338
5.73 28.094 91.318 0.791 0.103 -0.602
6.006 28.617 92.634 0.93 0.364 0.055
6.189 29.724 92.033 0.807 -0.374 0.456
6.202 29.839 93.314 0.799 -0.451 -0.398
6.017 31.258 93.189 0.667 0.563 -0.487
6.005 31.143 91.907 0.676 0.64 0.367
5.723 31.349 92.51 0.864 0.503 -0.035
5.935 31.387 93.244 0.609 0.655 -0.448
5.63 31.494 92.573 0.812 0.584 -0
6.27 32.828 93.879 0.385 -0.305 -0.871
6.097 31.295 93.37 0.724 0.59 -0.358
6.419 32.743 93.995 0.509 -0.376 -0.774
6.479 32.512 94.116 0.469 -0.222 -0.855
6.563 34.129 94.569 0.511 0.587 -0.628
6.484 34.001 94.348 0.564 0.672 -0.48
5.92 35.177 94.111 0.94 -0.113 -0.322
6.247 31.158 93.509 0.832 0.492 -0.258
6.657 32.349 94.281 0.559 -0.303 -0.772
6.643 31.709 94.342 0.568 0.124 -0.813
7.218 31.757 94.978 0.856 0.148 -0.495
7.232 32.398 94.917 0.846 -0.279 -0.454
7.333 31.531 95.062 0.779 0.299 -0.551
7.524 31.587 95.692 0.938 0.346 -0.027
7.478 32.47 95.726 0.969 -0.242 -0.049
7.463 31.829 95.788 0.979 0.185 -0.091
6.413 32.033 97.657 0.454 0.287 0.844
6.428 32.674 97.595 0.444 -0.141 0.885
6.054 31.779 98.085 0.693 0.456 0.558
6.679 30.782 97.44 0.586 -0.339 0.736
6.278 30.721 97.903 0.853 -0.299 0.428
6.164 30.141 98.007 0.929 0.088 0.358
6.746 30.067 96.692 0.62 -0.697 0.361
6.231 29.426 97.258 0.963 -0.269 -0.016
6.448 28.759 96.413 0.818 0.176 0.547
6.012 28.06 96.765 0.507 -0.323 0.799
5.715 28.599 97.675 0.705 -0.683 0.193
5.6 28.508 97.899 0.782 -0.622 0.043
5.186 27.582 96.687 -0.083 -0.665 0.743
4.84 28.068 97.827 0.148 -0.989 -0.018
4.738 28.033 97.582 0.216 -0.965 0.146
6.935 30.098 96.289 0.715 -0.681 0.16
6.608 28.785 96.073 0.933 0.194 0.304
6.777 28.904 95.687 0.82 0.114 0.561
6.2 27.671 94.745 0.34 -0.913 -0.224
5.982 27.445 95.049 0.485 -0.763 -0.427
5.695 27.157 93.712 0.677 -0.571 0.465
5.514 27.033 93.775 0.526 -0.675 0.518
5.785 27.31 95.118 0.345 -0.859 -0.378
5.379 26.821 93.683 0.616 -0.533 0.58
5.214 26.735 93.761 0.534 -0.576 0.619
5.646 27.237 95.184 0.246 -0.911 -0.33
4.838 26.229 93.83 0.784 -0.239 0.572
4.39 26.09 94.223 0.56 -0.309 0.769
5.267 27.12 95.516 -0.025 -0.995 -0.093
3.996 26.142 94.697 0.823 -0.344 0.453
3.459 26.344 95.29 0.439 -0.199 0.876
4.73 27.322 96.109 -0.409 -0.851 0.33
4.185 27.509 96.284 -0.045 -0.976 0.213
5.428 26.372 92.279 0.641 -0.758 -0.122
5.052 25.865 92.349 0.891 -0.421 -0.168
4.952 25.636 92.255 0.958 -0.268 -0.105
4.017 24.808 92.653 0.179 -0.957 0.227
3.85 24.801 92.862 0.29 -0.953 0.088
3.065 23.958 92.347 0.813 -0.391 0.431
4.034 25.217 91.465 0.192 -0.616 -0.764
3.082 24.367 91.159 0.827 -0.05 -0.56
3.252 25.336 90.439 0.714 -0.696 -0.08
1.991 25.09 89.916 -0.186 -0.871 -0.454
1.921 24.141 90.677 -0.14 -0.239 -0.961
1.617 25.2 89.717 0.063 -0.945 -0.321
4.212 25.471 91.363 0.341 -0.405 -0.849
3.445 25.612 90.328 0.852 -0.498 -0.159
4.1 25.654 91.202 0.416 -0.526 -0.742
4.266 26.265 91.01 0.499 -0.221 -0.838
3.586 26.128 90.166 0.953 -0.13 -0.275
4.643 26.771 90.94 0.248 -0.559 -0.792
4.621 26.934 90.83 0.237 -0.477 -0.846
3.567 26.266 90.073 0.939 -0.031 -0.342
4.731 27.148 90.712 0.163 -0.619 -0.768
4.212 28.05 90.489 -0.269 0.132 -0.954
3.004 27.246 89.83 0.537 0.668 -0.515
3.954 28.094 90.543 -0.096 0.103 -0.99
4.762 25.974 91.576 0.747 -0.367 -0.555
5.139 26.48 91.506 0.496 -0.704 -0.508
4.727 25.72 91.653 0.77 -0.197 -0.606
6.083 27.863 93.171 1 0.017 0.014
6.11 27.888 92.906 0.982 0 0.191
6.588 28.377 94.205 0.663 -0.325 -0.675
6.517 28.901 94.066 0.603 0.112 -0.79
6.018 28.563 92.728 0.936 0.338 0.103
6.212 29.794 93.394 0.807 -0.483 -0.341
6.745 29.292 94.506 0.794 0.437 -0.423
6.46 30.218 93.871 0.984 -0.18 0
7.082 30.628 94.901 0.569 -0.453 -0.686
7.084 31.023 94.75 0.571 -0.125 -0.812
6.462 30.647 93.708 0.985 0.126 -0.117
6.897 31.103 94.577 0.695 -0.178 -0.696
6.843 28.955 95.564 0.875 0.157 0.458
7.18 30.291 95.958 0.65 -0.734 0.195
7.02 30.163 96.13 0.757 -0.649 0.081
-2.981 29.192 96.454 -0.923 -0.307 -0.231
-2.868 28.798 96.158 -0.998 -0.044 -0.034
-2.889 29.589 96.06 -0.858 -0.023 -0.513
-2.76 29.268 95.691 -0.944 0.191 -0.267
-2.633 30.042 95.835 -0.675 0.301 -0.674
-2.456 29.804 95.425 -0.793 0.46 -0.4
-2.259 30.468 95.821 -0.408 0.605 -0.684
-2.013 30.308 95.408 -0.571 0.712 -0.409
-0.892 31.134 96.898 -0.206 0.856 -0.475
-0.4 31.587 97.144 -0.534 0.554 -0.639
-0.971 31.162 97.002 -0.294 0.886 -0.358
-0.486 31.616 97.257 -0.617 0.583 -0.528
-1.017 31.233 97.181 -0.263 0.838 -0.477
-1.537 31.093 97.789 -0.691 0.723 0.023
-1.771 30.91 97.792 -0.534 0.845 0.021
-1.563 31.179 98.306 -0.673 0.666 -0.322
-2.459 30.367 97.677 -0.551 0.533 0.642
-2.04 30.528 98.1 -0.83 0.426 0.36
-1.832 30.797 98.615 -0.969 0.246 0.017
-1.87 31.128 99.134 -0.944 0.025 -0.329
-2.39 29.725 97.985 -0.501 0.074 0.862
-1.986 30.026 98.341 -0.771 -0.127 0.625
-1.778 30.295 98.855 -0.909 -0.306 0.282
-1.8 30.486 99.441 -0.895 -0.433 -0.109
-1.63 29.601 98.419 -0.379 -0.593 0.71
-1.422 29.87 98.933 -0.518 -0.773 0.367
-1.389 29.141 98.297 -0.54 -0.287 0.791
-0.967 29.035 98.692 -0.822 -0.215 0.528
-1.387 29.111 98.287 -0.538 -0.32 0.78
-0.965 29.006 98.682 -0.819 -0.25 0.516
-2.159 28.317 97.705 -0.467 -0.069 0.882
-2.683 28.933 97.482 -0.711 -0.492 0.503
-2.522 28.309 97.382 -0.819 -0.076 0.569
-2.592 27.664 97.444 -0.772 0.354 0.528
-2.697 28.301 96.929 -0.988 -0.083 0.131
-1.226 27.892 98.115 -0.518 0.026 0.855
-0.805 28.246 98.55 -0.798 -0.21 0.565
-0.968 27.577 98.122 -0.095 -0.49 0.867
-0.547 27.931 98.557 -0.375 -0.726 0.577
-1.528 25.768 97.049 -0.398 -0.553 0.732
-1.961 25.799 96.532 -0.822 -0.523 0.225
-2.615 28.242 95.488 -0.872 -0.322 -0.369
-2.57 27.648 95.573 -0.902 0.074 -0.425
-1.817 29.12 94.479 -0.473 0.118 -0.873
-1.359 29.304 94.113 -0.778 -0.005 -0.629
-1.872 29.758 94.73 -0.5 0.436 -0.748
-1.414 29.942 94.363 -0.805 0.314 -0.503
-1.766 30.303 95.135 -0.447 0.709 -0.545
-1.308 30.486 94.768 -0.752 0.586 -0.301
-0.91 29.084 93.72 -0.553 -0.115 -0.825
-0.602 28.697 93.436 -0.758 0.143 -0.636
-0.551 29.512 93.525 -0.373 0.099 -0.922
-0.243 29.125 93.241 -0.579 0.357 -0.733
-0.105 29.899 93.481 -0.151 0.293 -0.944
0.203 29.512 93.197 -0.356 0.551 -0.755
0.972 30.406 93.611 -0.295 0.317 -0.902
1.482 30.683 93.4 -0.635 0.132 -0.761
1.831 30.993 92.996 -0.867 -0.075 -0.492
0.994 30.934 94.094 -0.271 0.883 -0.383
1.499 31.096 93.779 -0.608 0.775 -0.173
1.85 31.455 93.419 -0.842 0.536 0.067
0.065 31.419 96.104 -0.415 0.865 -0.28
0.248 31.824 96.58 -0.537 0.596 -0.598
-0.239 31.278 96.341 -0.642 0.76 -0.104
-0.056 31.683 96.817 -0.763 0.49 -0.421
0.331 31.861 96.536 -0.592 0.571 -0.568
0.22 31.482 96.029 -0.518 0.824 -0.23
0.932 31.926 96.312 -0.038 0.631 -0.775
0.757 31.54 95.829 0.079 0.888 -0.453
1.476 33.201 96.567 -0.364 -0.125 -0.923
1.697 33.791 96.212 -0.51 -0.518 -0.686
0.55 33.116 97.086 -0.422 0.573 -0.702
1.071 33.585 96.907 -0.77 0.26 -0.583
1.324 34.145 96.524 -0.938 -0.113 -0.328
1.249 34.665 96.027 -0.888 -0.46 0.004
1.081 33.972 97.434 -0.76 0.648 -0.055
1.333 34.501 97.009 -0.928 0.295 0.228
0.592 33.725 97.937 -0.434 0.812 -0.39
0.456 33.498 99.377 -0.469 0.764 0.443
0.496 33.573 99.3 -0.496 0.713 0.495
0.532 33.655 99.226 -0.52 0.659 0.544
1.685 33.943 98.719 0.276 0.954 0.117
1.944 34.144 98.051 0.104 0.82 0.563
2.126 34.659 97.576 -0.018 0.477 0.879
2.196 34.065 98.057 0.357 0.741 0.568
2.359 34.587 97.582 0.249 0.394 0.885
2.514 33.958 98.063 0.145 0.813 0.564
2.928 34.435 97.62 -0.131 0.495 0.859
2.731 33.832 98.129 0.358 0.69 0.629
3.14 34.313 97.685 0.086 0.37 0.925
2.631 33.235 99.424 0.618 0.633 0.466
3.138 33.089 99.189 0.28 0.73 0.623
2.67 32.654 99.871 0.638 0.342 0.69
3.177 32.507 99.636 0.3 0.44 0.847
2.577 31.962 100.103 0.592 -0.004 0.806
3.084 31.816 99.868 0.254 0.094 0.963
1.964 31.74 100.394 0.285 -0.115 0.952
1.58 31.294 100.59 0.541 0.182 0.821
1.457 32.213 100.475 0.031 0.121 0.992
1.073 31.767 100.671 0.287 0.419 0.862
0.909 32.617 100.32 -0.243 0.323 0.915
0.525 32.171 100.516 0.013 0.621 0.784
0.01 33.076 99.419 -0.692 0.553 0.464
-0.78 32.451 99.845 -0.166 0.97 0.179
-0.395 32.73 98.02 -0.895 0.38 -0.235
-0.779 32.284 98.216 -0.639 0.677 -0.366
-1.007 32.192 98.571 -0.753 0.631 -0.189
-1.315 32.08 98.964 -0.548 0.705 -0.45
-0.275 31.927 100.685 0.195 0.595 0.779
0.223 32.01 100.609 -0.138 0.54 0.83
-0.213 31.406 100.917 0.239 0.223 0.945
0.296 31.393 100.883 -0.101 0.232 0.968
-0.285 30.837 100.945 0.188 -0.183 0.965
0.212 30.72 100.916 -0.143 -0.105 0.984
-0.476 30.328 100.764 0.051 -0.547 0.836
-0.014 30.117 100.702 -0.256 -0.406 0.877
-0.417 29.508 100.095 -0.368 -0.491 0.79
-0.919 29.484 99.363 -0.853 -0.515 0.08
1.162 27.707 98.991 -0.245 -0.853 0.46
1.018 27.66 98.733 -0.386 -0.898 0.209
0.286 27.619 98.325 0.101 -0.871 0.481
0.17 27.115 97.808 0.179 -0.535 0.826
0.114 27.637 98.35 -0.13 -0.847 0.515
-0.026 27.136 97.837 -0.037 -0.513 0.858
-0.047 27.733 98.506 -0.023 -0.911 0.411
-0.307 27.406 98.065 0.15 -0.693 0.705
-0.43 27.91 98.617 -0.454 -0.712 0.537
-0.721 27.598 98.186 -0.259 -0.503 0.824
0.644 26.81 97.646 -0.138 -0.332 0.933
1.131 27.104 97.977 -0.462 -0.528 0.713
0.688 25.922 97.246 0.499 -0.321 0.805
1.074 26.435 97.391 0.241 -0.663 0.708
1.529 26.756 97.741 -0.062 -0.878 0.475
1.966 26.825 98.227 -0.354 -0.923 0.151
1.5 26.367 96.939 0.618 -0.723 0.309
1.924 26.694 97.322 0.335 -0.941 0.054
1.254 25.087 96.002 0.424 -0.556 0.715
1.185 25.011 95.978 0.371 -0.613 0.698
0.303 25.323 97.079 0.306 -0.621 0.722
0.09 24.892 96.918 0.449 -0.333 0.829
-0.518 25.503 97.318 -0.105 -0.531 0.841
-0.604 25.044 97.12 -0.047 -0.225 0.973
1.01 24.806 95.927 0.488 -0.476 0.732
0.232 24.193 95.846 0.55 -0.833 0.064
0.728 24.333 95.481 0.219 -0.926 0.307
1.283 24.227 95.198 -0.151 -0.855 0.496
0.374 24.304 94.87 -0.119 -0.954 -0.276
0.304 24.341 94.746 -0.072 -0.978 -0.194
0.302 24.342 94.744 -0.073 -0.978 -0.195
0.183 24.374 94.495 0.006 -1 -0.029
0.554 24.202 93.851 -0.241 -0.884 0.399
0.063 24.391 94.421 -0.178 -0.974 -0.142
0.434 24.219 93.778 -0.425 -0.859 0.287
0.031 24.41 94.293 -0.156 -0.986 -0.057
-0.891 24.434 94.767 -0.252 -0.661 -0.707
-0.434 24.633 94.075 -0.557 -0.793 -0.245
-0.247 24.447 93.263 -0.682 -0.669 0.296
-0.763 25.071 93.959 -0.842 -0.415 -0.345
-1.715 25.049 95.065 -0.841 -0.221 -0.494
-1.833 25.509 94.886 -0.762 -0.528 -0.375
-1.919 25.148 95.663 -0.986 -0.151 -0.067
-2.074 25.626 95.594 -0.883 -0.47 -0.021
-0.837 25.293 93.789 -0.793 -0.564 -0.233
-0.927 25.491 93.694 -0.85 -0.437 -0.294
-0.964 25.606 93.603 -0.825 -0.514 -0.233
-1.545 26.409 94.071 -0.618 -0.078 -0.782
-1.079 26.229 93.451 -0.929 0.042 -0.369
-1.006 26.067 92.675 -0.977 0.15 0.149
-0.814 26.817 93.364 -0.691 0.568 -0.446
-0.477 27.268 93.143 -0.916 0.267 -0.299
-0.437 27.315 93.076 -0.879 0.311 -0.362
-0.406 27.448 93.096 -0.9 0.222 -0.375
-0.083 27.739 92.753 -0.695 0.406 -0.593
0.143 27.972 92.569 -0.846 0.251 -0.47
0.279 28.191 92.492 -0.759 0.393 -0.52
0.352 28.324 92.47 -0.808 0.305 -0.505
1.137 28.965 92.478 -0.133 0.857 -0.498
1.534 29.933 93.069 -0.398 0.212 -0.893
1.983 30.488 92.779 -0.697 -0.158 -0.7
1.382 30.169 93.267 -0.568 0.475 -0.672
1.844 30.703 92.96 -0.876 0.118 -0.468
2.348 30.322 92.237 -0.94 -0.048 -0.338
2.244 29.648 92.155 -0.871 0.401 -0.284
1.867 29.101 91.985 -0.62 0.766 -0.17
2.379 30.323 92.17 -0.864 -0.044 -0.502
2.26 29.649 92.121 -0.785 0.405 -0.469
1.895 29.102 91.924 -0.542 0.77 -0.338
2.505 31.218 91.595 -0.563 -0.317 -0.763
2.8 30.607 91.415 -0.76 0.09 -0.644
2.921 31.537 91.319 -0.266 -0.089 -0.96
3.27 30.967 91.104 -0.499 0.291 -0.817
3.897 31.447 91.092 -0.255 0.449 -0.856
4.489 31.844 91.473 0.286 0.813 -0.508
4.654 32.607 93.12 0.607 0.539 -0.584
5.127 32.889 93.579 0.292 0.351 -0.89
4.588 32.687 93.139 0.509 0.657 -0.555
5.064 32.966 93.597 0.192 0.471 -0.861
4.169 33.028 92.965 0.789 0.43 -0.439
4.258 33.537 93.324 0.729 0.091 -0.679
4.54 34.07 93.504 0.541 -0.265 -0.798
3.512 33 92.315 0.156 0.956 -0.248
3.704 33.249 92.86 0.028 0.791 -0.612
3.904 33.705 93.244 -0.105 0.486 -0.868
4.076 34.29 93.399 -0.22 0.096 -0.971
4.19 34.9 93.297 -0.296 -0.311 -0.903
3.291 33.228 93.184 -0.648 0.757 -0.081
3.589 33.69 93.491 -0.846 0.45 -0.286
3.663 34.27 93.722 -0.896 0.063 -0.44
3.118 33.138 93.392 -0.532 0.818 -0.22
3.27 33.53 93.869 -0.633 0.556 -0.538
3.251 34.071 94.201 -0.621 0.195 -0.759
2.98 33.043 93.521 -0.737 0.676 -0.028
3.154 33.45 93.978 -0.852 0.405 -0.332
3.098 33.965 94.345 -0.815 0.061 -0.577
2.566 34.249 94.798 -0.46 -0.128 -0.878
2.514 34.047 95.004 -0.619 -0.746 -0.245
2.856 32.926 93.58 -0.654 0.754 -0.066
2.805 32.725 93.786 -0.813 0.136 0.567
2.716 32.059 94.169 -0.753 0.579 0.312
2.635 31.941 94.162 -0.831 0.465 0.305
2.103 31.605 93.801 -0.476 0.689 0.546
1.708 31.255 94.136 -0.213 0.922 0.323
1.259 31.146 94.555 0.087 0.995 0.043
1.881 31.499 93.496 -0.862 0.506 0.016
1.55 31.18 93.919 -0.642 0.719 -0.266
1.053 31.048 94.273 -0.31 0.807 -0.502
1.518 31.194 95.001 -0.086 0.963 -0.254
2.178 31.402 94.934 -0.526 0.824 -0.21
1.52 31.206 95.06 -0.083 0.984 -0.159
2.18 31.415 94.993 -0.523 0.845 -0.115
1.173 31.416 95.595 0.148 0.844 -0.516
1.551 31.74 95.979 -0.104 0.628 -0.772
0.975 31.488 95.72 -0.067 0.922 -0.38
1.33 31.821 96.118 -0.303 0.701 -0.646
2.429 31.964 95.637 -0.689 0.479 -0.544
2.477 32.036 95.646 -0.647 0.543 -0.536
2.114 33.004 96.206 -0.405 -0.103 -0.909
2.132 33.648 95.948 -0.417 -0.532 -0.737
1.876 33.072 96.346 -0.63 -0.039 -0.776
1.912 33.711 96.077 -0.654 -0.465 -0.597
2.547 33.727 95.474 -0.694 -0.585 -0.421
2.875 33.161 95.372 -0.912 -0.208 -0.353
2.937 32.535 95.167 -0.953 0.21 -0.217
2.566 33.746 95.424 -0.653 -0.545 -0.525
2.887 33.173 95.342 -0.867 -0.163 -0.47
2.954 32.552 95.122 -0.912 0.251 -0.324
2.923 35.299 94.387 -0.568 -0.021 -0.823
3.118 36.132 94.684 -0.391 0.736 -0.552
2.648 36.611 95.53 0.111 0.93 -0.351
3.334 36.651 95.388 -0.346 0.902 -0.256
2.74 36.675 96.201 0.177 0.976 0.128
3.438 36.724 96.146 -0.289 0.943 0.165
2.764 36.419 96.831 0.195 0.793 0.578
3.466 36.434 96.858 -0.273 0.782 0.56
2.717 35.901 97.271 0.161 0.423 0.892
3.412 35.85 97.354 -0.303 0.457 0.836
3.767 36.68 95.163 -0.106 0.919 -0.381
4.123 36.65 94.577 -0.344 0.939 0.01
4.514 36.712 95.546 0.309 0.936 -0.168
4.784 36.678 94.915 0.129 0.959 0.252
5.211 36.319 95.802 0.696 0.718 -0.026
5.401 36.329 95.142 0.569 0.71 0.414
5.955 35.106 95.852 0.75 0.662 0.009
5.561 35.528 96.496 0.891 0.278 0.359
5.86 35.026 96.463 0.692 0.613 0.382
6.316 34.664 96.516 0.388 0.854 0.346
5.279 35.307 97.039 0.734 0.155 0.661
5.59 34.814 96.982 0.527 0.484 0.699
6.02 34.432 97.085 0.24 0.738 0.63
4.856 34.979 97.408 0.499 -0.027 0.866
5.184 34.5 97.336 0.28 0.292 0.914
5.577 34.089 97.472 0.018 0.567 0.824
4.702 34.131 97.472 -0.014 0.067 0.998
4.018 34.025 97.639 0.442 0.137 0.887
3.813 33.499 97.988 0.578 0.488 0.654
3.388 34.31 97.685 -0.079 0.372 0.925
3.171 33.789 98.035 0.066 0.719 0.692
4.144 33.152 98.076 0.358 0.719 0.596
4.589 33.351 97.757 0.061 0.586 0.808
4.491 32.647 98.245 0.594 0.376 0.711
4.937 32.847 97.927 0.297 0.243 0.923
4.641 32.255 98.424 0.494 0.637 0.592
4.605 31.547 98.82 0.468 0.132 0.874
0.832 29.905 100.633 0.167 -0.512 0.842
1.024 29.377 100.417 0.039 -0.16 0.986
1.423 28.98 100.232 0.274 -0.394 0.877
1.974 28.77 100.104 -0.093 -0.254 0.963
3.519 29.363 99.642 0.68 0.043 0.732
4.439 29.658 99.262 0.067 -0.153 0.986
4.105 28.901 99.13 0.407 -0.278 0.87
4.062 28.397 98.839 0.374 -0.663 0.648
2.877 27.971 99.512 0.358 -0.653 0.667
2.921 27.573 99.221 0.329 -0.388 0.861
2.071 27.765 99.485 -0.044 -0.756 0.653
2.241 27.4 99.198 -0.157 -0.512 0.844
4.012 28.182 98.686 0.408 -0.52 0.751
4.126 27.846 97.907 0.521 -0.853 -0.021
4.07 27.807 97.778 0.558 -0.827 0.065
4.056 27.794 97.707 0.548 -0.837 0.014
3.96 27.668 97.36 0.611 -0.752 0.246
4.487 27.741 96.92 0.26 -0.801 0.539
3.745 27.524 97.078 0.337 -0.935 -0.113
4.272 27.598 96.638 -0.014 -0.984 0.18
3.729 27.527 96.978 0.348 -0.936 -0.047
3.614 27.501 96.865 0.258 -0.957 -0.135
3.009 27.184 96.787 0.662 -0.745 -0.082
2.978 27.055 96.19 0.682 -0.66 0.315
3.117 26.763 95.672 0.59 -0.464 0.661
2.983 27.161 96.793 0.622 -0.78 -0.073
2.957 27.037 96.195 0.639 -0.697 0.325
3.091 26.74 95.678 0.55 -0.499 0.67
2.767 26.956 96.732 0.765 -0.643 -0.033
2.67 26.569 96.078 0.83 -0.385 0.403
2.254 26.711 96.98 0.115 -0.952 0.282
2.109 26.302 96.35 0.212 -0.68 0.702
3.099 25.504 95.222 0.78 -0.292 0.553
3.532 25.872 95.023 0.491 -0.537 0.686
3.053 24.795 94.305 0.757 -0.647 0.095
3.794 25.06 93.692 0.263 -0.823 0.503
2.381 24.598 95.15 0.421 -0.745 0.518
2.152 24.466 95.191 0.573 -0.656 0.49
1.805 23.982 93.909 0.348 -0.856 0.382
0.939 24.053 93.897 -0.493 -0.787 0.37
2.963 24.498 93.081 0.526 -0.73 0.436
2.983 24.488 93.038 0.542 -0.738 0.403
2.321 23.415 92.671 0.638 -0.735 0.231
2.618 23.488 92.357 0.44 -0.783 0.44
1.952 23.153 92.208 0.374 -0.922 -0.1
2.277 23.246 91.931 0.157 -0.984 0.084
1.555 23.21 91.699 0.09 -0.882 -0.463
1.912 23.298 91.463 -0.148 -0.941 -0.306
1.229 23.571 91.272 -0.142 -0.623 -0.769
1.612 23.631 91.069 -0.398 -0.663 -0.634
1.179 24.833 90.606 -0.349 -0.669 -0.657
0.977 24.92 90.67 -0.578 -0.569 -0.584
0.357 24.06 91.533 -0.765 -0.274 -0.582
0.026 24.564 91.522 -0.545 -0.611 -0.575
0.17 23.877 92.113 -0.899 -0.405 -0.168
-0.195 24.347 92.208 -0.655 -0.719 -0.231
0.272 23.752 92.729 -0.826 -0.494 0.272
-0.074 24.2 92.937 -0.595 -0.793 0.133
0.783 25.162 90.565 -0.449 -0.73 -0.514
0.081 25.25 91.046 -0.518 -0.268 -0.813
0.413 25.522 90.58 -0.739 -0.449 -0.502
0.548 25.674 89.98 -0.829 -0.55 -0.102
-0.16 25.838 91.131 -0.638 0.026 -0.77
0.22 25.995 90.649 -0.89 -0.078 -0.448
0.361 26.131 90.047 -0.984 -0.169 -0.047
0.237 26.499 90.76 -0.877 0.316 -0.362
-0.233 26.899 91.702 -0.674 0.557 -0.485
0.142 27.315 91.365 -0.924 0.28 -0.26
0.594 27.538 90.687 -0.698 0.391 -0.599
0.655 27.13 89.963 -0.739 0.663 -0.117
1.241 27.911 90.436 -0.375 0.578 -0.725
1.158 27.421 89.768 -0.32 0.905 -0.279
2.725 28.74 91.101 -0.062 0.506 -0.86
3.074 29.315 91.232 -0.295 0.123 -0.948
2.369 28.908 91.324 -0.356 0.645 -0.676
2.725 29.48 91.45 -0.593 0.264 -0.76
0.906 28.055 90.82 -0.542 0.65 -0.533
0.921 28.252 91.001 -0.551 0.519 -0.653
2.206 28.975 91.45 -0.247 0.601 -0.76
2.637 29.516 91.525 -0.534 0.24 -0.81
1.951 29.103 91.825 -0.579 0.769 -0.272
2.355 29.658 91.94 -0.848 0.399 -0.349
3.359 29.358 91.115 -0.485 0.094 -0.87
3.455 29.359 91.065 -0.426 0.094 -0.9
3.481 30.685 90.928 -0.382 0.134 -0.915
4.021 30.556 90.507 -0.742 0.22 -0.634
3.771 29.332 90.86 -0.637 0.112 -0.762
4.333 28.983 90.584 -0.228 -0.143 -0.963
4.465 28.923 90.554 -0.316 -0.102 -0.943
5.354 29.359 90.354 0.211 -0.635 -0.743
5.145 28.776 90.595 0.35 -0.246 -0.904
5.04 28.12 90.57 0.421 0.191 -0.887
5.651 28.712 91.071 0.844 -0.309 -0.438
5.731 28.734 91.193 0.791 -0.324 -0.519
6.206 29.449 91.471 0.819 -0.571 0.055
5.978 28.899 91.737 0.971 -0.204 -0.123
6.026 28.291 91.969 0.939 0.201 -0.277
5.962 29.171 92.293 0.959 -0.005 0.283
6.067 29.848 92.669 0.889 -0.456 0.032
6.319 30.462 91.965 0.9 0.153 0.408
6.182 30.501 92.609 0.992 0.127 -0.021
6.331 30.577 93.247 0.892 0.077 -0.446
5.903 31.104 92.558 0.743 0.666 -0.067
5.562 31.55 91.505 0.359 0.93 0.079
5.222 31.808 92.056 0.586 0.758 -0.288
5.574 31.86 93.18 0.849 0.34 -0.405
5.805 32.341 93.651 0.695 0.019 -0.719
5.104 32.244 93.06 0.307 0.781 -0.544
5.381 32.686 93.542 0.122 0.486 -0.865
5.965 32.059 93.744 0.589 0.207 -0.781
6.087 31.99 93.84 0.731 0.127 -0.671
6.801 33.328 94.264 0.827 0.112 -0.55
6.97 33.264 94.461 0.715 0.154 -0.682
6.073 34.541 94.299 0.838 0.312 -0.447
6.133 33.727 93.899 0.271 0.444 -0.854
5.755 34.293 93.893 0.523 0.067 -0.85
5.538 34.88 93.623 0.667 -0.325 -0.67
5.277 34.004 93.767 0.05 -0.221 -0.974
6.119 34.613 94.42 0.807 0.264 -0.528
5.993 35.489 94.643 0.992 0.11 0.058
6.191 34.919 94.942 0.86 0.49 -0.142
6.65 34.497 95.199 0.555 0.771 -0.313
6 35.13 95.481 0.719 0.646 0.257
6.155 31.863 93.878 0.686 0.211 -0.697
6.297 31.733 94.01 0.799 0.108 -0.592
7.387 32.544 96.472 0.924 -0.205 0.324
7.373 31.903 96.534 0.933 0.222 0.282
7.019 32.616 97.128 0.739 -0.17 0.651
7.004 31.975 97.19 0.749 0.257 0.61
6.273 31.266 98.032 0.85 0.09 0.52
6.673 31.427 97.593 0.583 -0.017 0.812
5.83 31.011 98.482 0.533 -0.092 0.841
5.633 30.484 98.692 0.664 0.26 0.701
5.634 29.314 98.636 0.665 -0.325 0.673
5.537 29.065 98.647 0.729 -0.159 0.666
5.702 28.36 97.265 0.713 -0.523 0.466
5.008 27.958 97.198 0.036 -0.915 0.401
6.463 29.461 96.468 0.808 -0.293 0.511
6.618 29.487 96.137 0.926 -0.274 0.261
6.643 28.169 95.853 0.958 -0.246 0.147
6.81 28.337 95.485 0.847 -0.358 0.392
6.415 27.681 95.48 0.795 -0.595 -0.119
6.6 27.888 95.142 0.672 -0.733 0.106
5.725 27.431 94.377 0.657 -0.754 0.021
5.564 27.321 94.433 0.492 -0.867 0.079
5.457 27.247 94.374 0.564 -0.817 0.119
5.329 27.18 94.435 0.457 -0.873 0.169
5.195 27.126 94.704 0.546 -0.837 -0.01
4.907 26.767 94.221 0.739 -0.598 0.312
4.886 27.03 94.975 0.23 -0.936 0.267
4.572 26.663 94.514 0.438 -0.691 0.575
4.724 27.027 95.192 0.337 -0.933 0.123
4.273 26.68 94.902 0.638 -0.702 0.316
4.315 27.181 95.644 -0.132 -0.757 0.64
3.864 26.834 95.353 0.169 -0.526 0.834
3.894 27.297 95.808 0.149 -0.835 0.53
3.639 26.887 95.458 0.319 -0.561 0.764
3.842 27.307 95.835 0.106 -0.827 0.552
3.59 26.896 95.483 0.274 -0.553 0.786
5.07 25.959 93.129 0.901 -0.374 0.222
5.447 26.466 93.06 0.65 -0.711 0.268
4.655 25.307 93.029 0.693 -0.7 0.171
4.644 25.201 92.783 0.701 -0.63 0.335
3.373 24.483 92.564 0.608 -0.74 0.286
3.149 24.487 92.862 0.431 -0.737 0.52
3.458 24.496 92.445 0.552 -0.75 0.366
3.212 24.024 91.707 0.936 -0.336 -0.103
3.584 24.553 91.894 0.688 -0.689 -0.228
4.165 24.874 92.013 0.301 -0.903 -0.307
3.472 24.848 91.423 0.567 -0.37 -0.736
3.058 24.905 90.844 0.843 -0.408 -0.35
2.582 24.148 90.772 0.411 -0.232 -0.881
2.594 24.701 90.485 0.404 -0.601 -0.69
2.709 25.098 90.02 0.327 -0.866 -0.38
1.979 24.694 90.396 -0.179 -0.607 -0.774
1.778 24.799 90.337 -0.044 -0.678 -0.734
1.394 24.816 90.477 -0.492 -0.658 -0.571
1.933 25.601 89.238 0.326 -0.611 -0.721
2.334 25.525 89.395 0.059 -0.561 -0.826
2.083 26.254 89.035 0.451 -0.067 -0.89
2.497 26.235 89.175 0.175 -0.054 -0.983
2.016 26.936 89.179 0.395 0.502 -0.77
2.424 26.975 89.331 0.123 0.475 -0.871
3.569 25.384 91.021 0.503 -0.727 -0.468
3.731 25.615 90.928 0.661 -0.501 -0.559
3.984 26.524 90.668 0.687 -0.394 -0.611
3.966 26.655 90.58 0.673 -0.291 -0.68
4 26.795 90.543 0.651 -0.384 -0.655
3.572 27.539 90.358 0.158 0.472 -0.867
3.431 27.586 90.35 0.252 0.441 -0.861
3.151 27.806 90.443 0.032 0.614 -0.788
5.392 27.338 91.001 0.714 -0.461 -0.527
5.47 27.179 91.202 0.662 -0.355 -0.661
6.168 28.168 93.608 0.943 -0.186 -0.277
6.098 28.683 93.473 0.882 0.258 -0.394
5.941 29.193 93.085 0.987 -0.082 -0.135
5.931 29.237 93.008 0.98 -0.049 -0.194
6.276 29.371 93.801 0.764 -0.201 -0.613
6.491 29.739 94.216 0.963 0.14 -0.229
6.65 30.472 94.44 0.857 -0.35 -0.378
6.652 30.834 94.301 0.859 0.001 -0.512
6.772 29.962 94.819 0.776 -0.009 -0.631
6.853 29.683 95.693 0.868 -0.329 0.372
7.476 30.987 96.22 0.897 -0.154 0.414
7.401 31.058 96.467 0.947 -0.201 0.249
6.786 29.603 95.799 0.913 -0.275 0.302
6.719 29.552 95.924 0.858 -0.317 0.403
6.208 28.144 93.738 0.916 -0.17 -0.364
5.87 27.528 94.21 0.56 -0.818 0.132
-0.384 26.65 91.67 -0.75 0.432 -0.501
-0.578 26.514 91.795 -0.621 0.523 -0.584
-0.436 25.712 91.412 -0.776 -0.036 -0.63
-0.619 25.785 91.595 -0.655 -0.084 -0.751
-0.631 25.02 92.068 -0.873 -0.382 -0.301
-0.77 25.246 92.105 -0.781 -0.533 -0.326
2.02 34.683 97.566 0.053 0.461 0.886
1.757 34.191 98.039 0.229 0.789 0.57
1.666 35.416 97.148 -0.59 0.076 0.804
1.621 34.73 97.402 -0.56 0.533 0.634
1.376 34.236 97.883 -0.396 0.863 0.314
0.99 34.049 98.476 -0.139 0.987 -0.082
1.367 34.553 97.098 -0.951 0.26 0.169
1.133 34.066 97.593 -0.795 0.585 -0.161
-2.229 26.648 95.083 -0.96 0.041 -0.277
-2.435 27.09 95.431 -0.823 -0.254 -0.509
-0.953 28.507 98.493 -0.699 -0.383 0.603
-1.037 28.814 98.519 -0.771 -0.122 0.625
2.95 33.485 94.357 -0.971 0.006 -0.238
-1.138 29.604 98.91 -0.707 -0.595 0.382
1.852 26.531 96.802 0.383 -0.832 0.401
1.998 29.556 92.532 -0.707 0.463 -0.534
1.512 29.386 92.814 -0.383 0.576 -0.722
1.512 29.002 92.331 -0.383 0.832 -0.401
4.778 33.365 93.657 0.383 0.206 -0.901
3.086 32.928 94.636 -1 0 0
2.972 32.354 94.636 -0.924 0.383 0
2.972 32.641 94.139 -0.924 0.191 0.331
2.449 31.621 94.321 -0.707 0.678 0.199
1.963 31.253 94.62 -0.383 0.924 -0
1.969 31.818 95.905 -0.383 0.576 -0.722
1.969 31.433 95.423 -0.383 0.832 -0.401
1.395 31.296 95.396 0 0.924 -0.383
2.567 33.29 95.808 -0.707 -0.294 -0.643
2.567 32.699 95.893 -0.707 0.101 -0.7
3.427 27.315 96.062 0.383 -0.832 0.401
-2.561 30.716 96.778 -0.623 0.782 0
-2.561 30.542 96.186 -0.623 0.658 -0.423
-2.949 30.228 96.778 -0.901 0.434 0
-2.949 29.925 97.304 -0.901 0.217 0.376
-2.949 29.317 97.304 -0.901 -0.217 0.376
-2.949 29.925 96.252 -0.901 0.217 -0.376
-3.088 29.621 96.778 -1 0 0
-2.047 28.885 94.608 -0.588 0 -0.809
-2.489 28.885 95.05 -0.809 -0 -0.588
-0.422 30.354 93.778 -0.309 0.52 -0.796
-0.422 30.815 94.202 -0.309 0.751 -0.584
-0.98 29.933 93.875 -0.588 0.31 -0.747
-0.98 30.458 94.226 -0.588 0.572 -0.572
-0.98 30.809 94.751 -0.588 0.747 -0.31
2.012 33.471 99.659 0.309 0.751 0.584
2.012 33.01 100.083 0.309 0.52 0.796
2.012 32.437 100.335 0.309 0.233 0.922
1.394 33.217 100.055 -0 0.623 0.782
1.394 32.701 100.353 -0 0.365 0.931
-0.224 32.988 97.903 -0.809 0.509 -0.294
-0.86 31.944 100.661 -0.223 0.608 0.762
-0.86 31.397 100.925 -0.223 0.217 0.95
-0.86 30.789 100.925 -0.223 -0.217 0.95
-1.421 32.188 99.594 -0.623 0.782 0
-1.421 32.014 100.186 -0.623 0.658 0.423
-1.421 31.548 100.59 -0.623 0.325 0.711
-1.421 30.937 100.677 -0.623 -0.111 0.774
-1.421 30.376 100.421 -0.623 -0.512 0.591
-1.809 31.7 99.594 -0.901 0.434 0
-1.809 31.397 100.12 -0.901 0.217 0.376
-1.809 30.789 100.12 -0.901 -0.217 0.376
-1.948 31.093 99.594 -1 0 0
0.438 28.114 99.784 -0 -0.749 0.663
-0.162 28.331 99.773 -0.5 -0.567 0.654
-1.666 26.813 97.932 -0 -0.355 0.935
-2.266 27.091 97.839 -0.5 -0.123 0.857
-2.266 26.558 97.595 -0.5 -0.567 0.654
-2.705 26.939 97.33 -0.866 -0.25 0.433
-2.705 26.639 96.81 -0.866 -0.5 -0
-2.866 27.239 96.81 -1 0 0
-0.226 24.508 96.824 0.223 -0.608 0.762
-0.226 24.129 96.349 0.223 -0.878 0.423
-0.226 23.994 95.757 0.223 -0.975 0
-0.85 24.508 96.824 -0.223 -0.608 0.762
-0.85 24.129 96.349 -0.223 -0.878 0.423
-0.85 23.994 95.757 -0.223 -0.975 0
-0.85 24.129 95.165 -0.223 -0.878 -0.423
-1.411 24.642 96.584 -0.623 -0.512 0.591
-1.411 24.309 96.065 -0.623 -0.75 0.22
-1.411 24.309 95.449 -0.623 -0.75 -0.22
-1.411 24.642 94.93 -0.623 -0.512 -0.591
-1.799 24.752 95.757 -0.901 -0.434 -0
-1.927 25.977 94.618 -0.809 -0.294 -0.509
-1.927 26.565 94.46 -0.809 -0 -0.588
3.605 32.513 91.596 0.223 0.608 -0.762
2.981 31.966 91.332 -0.223 0.217 -0.95
2.981 32.513 91.596 -0.223 0.608 -0.762
2.981 32.892 92.071 -0.223 0.878 -0.423
2.42 32.757 92.663 -0.623 0.782 0
2.42 32.117 91.667 -0.623 0.325 -0.711
2.42 32.583 92.071 -0.623 0.658 -0.423
2.032 32.269 92.663 -0.901 0.434 0
2.032 31.966 92.137 -0.901 0.217 -0.376
2.18 36.674 96.022 -0.223 0.975 0
2.18 36.539 96.614 -0.223 0.878 0.423
2.18 36.16 97.089 -0.223 0.608 0.762
2.18 36.539 95.43 -0.223 0.878 -0.423
1.619 36.404 96.022 -0.623 0.782 0
1.619 36.23 96.614 -0.623 0.658 0.423
1.619 35.764 97.018 -0.623 0.325 0.711
1.619 34.592 95.195 -0.623 -0.512 -0.591
1.619 35.153 94.939 -0.623 -0.111 -0.774
1.619 35.764 95.026 -0.623 0.325 -0.711
1.619 36.23 95.43 -0.623 0.658 -0.423
1.231 35.916 96.022 -0.901 0.434 0
1.231 35.613 96.548 -0.901 0.217 0.376
1.231 35.005 95.496 -0.901 -0.217 -0.376
1.231 35.613 95.496 -0.901 0.217 -0.376
1.092 35.309 96.022 -1 0 0
0.556 33.904 98.574 -0.5 0.866 0
5.337 36.029 96.428 0.766 0.557 0.321
4.858 36.467 96.446 0.5 0.8 0.331
4.858 36.129 96.951 0.5 0.612 0.612
4.858 35.624 97.289 0.5 0.331 0.8
4.271 36.8 95.849 0.174 0.985 0
4.271 36.693 96.455 0.174 0.925 0.337
4.271 36.385 96.988 0.174 0.754 0.633
4.271 35.913 97.384 0.174 0.492 0.853
4.271 35.335 97.595 0.174 0.171 0.97
3.753 32.772 99.087 0.588 0.572 0.572
3.753 32.247 99.438 0.588 0.31 0.747
3.753 31.628 99.561 0.588 -0 0.809
1.116 30.773 100.844 0.309 -0.079 0.948
0.498 30.485 100.898 -0 -0.223 0.975
3.336 28.658 99.673 0.588 -0.31 0.747
2.778 29.12 100.074 0.309 -0.079 0.948
2.778 28.513 99.92 0.309 -0.382 0.871
2.16 28.277 99.91 -0 -0.5 0.866
3.334 27.4 98.843 0.623 -0.512 0.591
3.334 27.067 98.324 0.623 -0.75 0.22
2.773 27.266 99.083 0.223 -0.608 0.762
2.773 26.887 98.608 0.223 -0.878 0.423
2.773 26.752 98.016 0.223 -0.975 0
2.149 26.887 98.608 -0.223 -0.878 0.423
2.715 25.469 95.61 0.588 -0.31 0.747
2.715 24.944 95.259 0.588 -0.572 0.572
2.715 24.593 94.734 0.588 -0.747 0.31
1.74 23.214 92.94 0.223 -0.878 0.423
1.116 23.214 92.94 -0.223 -0.878 0.423
1.116 23.079 92.348 -0.223 -0.975 0
1.116 23.214 91.756 -0.223 -0.878 -0.423
0.555 23.394 92.656 -0.623 -0.75 0.22
0.555 23.394 92.04 -0.623 -0.75 -0.22
0.555 23.727 91.521 -0.623 -0.512 -0.591
-0.502 24.609 92.671 -0.809 -0.588 0
-0.872 25.586 91.976 -0.866 -0.25 -0.433
-0.872 26.186 91.976 -0.866 0.25 -0.433
0.982 28.503 91.223 -0.5 0.729 -0.468
6.459 30.248 91.394 1 0 0
6.32 30.855 91.394 0.901 0.434 0
6.32 29.944 90.868 0.901 -0.217 -0.376
6.32 30.552 90.868 0.901 0.217 -0.376
5.932 31.343 91.394 0.623 0.782 0
5.932 30.092 90.311 0.623 -0.111 -0.774
5.932 30.703 90.398 0.623 0.325 -0.711
5.932 31.169 90.802 0.623 0.658 -0.423
5.371 29.944 90.063 0.223 -0.217 -0.95
5.371 30.552 90.063 0.223 0.217 -0.95
5.371 31.099 90.327 0.223 0.608 -0.762
5.371 31.478 90.802 0.223 0.878 -0.423
4.747 29.944 90.063 -0.223 -0.217 -0.95
4.747 30.552 90.063 -0.223 0.217 -0.95
4.747 31.099 90.327 -0.223 0.608 -0.762
4.186 30.092 90.311 -0.623 -0.111 -0.774
5.865 35.942 94.562 0.901 0.434 0
5.865 35.639 94.036 0.901 0.217 -0.376
5.477 36.43 94.562 0.623 0.782 0
5.477 35.179 93.479 0.623 -0.111 -0.774
5.477 35.79 93.566 0.623 0.325 -0.711
5.477 36.256 93.97 0.623 0.658 -0.423
4.916 36.7 94.562 0.223 0.975 0
4.916 35.031 93.231 0.223 -0.217 -0.95
4.916 35.639 93.231 0.223 0.217 -0.95
4.916 36.186 93.495 0.223 0.608 -0.762
4.916 36.565 93.97 0.223 0.878 -0.423
4.292 35.639 93.231 -0.223 0.217 -0.95
4.292 36.186 93.495 -0.223 0.608 -0.762
4.292 36.565 93.97 -0.223 0.878 -0.423
3.731 35.79 93.566 -0.623 0.325 -0.711
7.54 32.955 95.825 1 0 0
7.442 33.573 95.825 0.951 0.309 0
7.442 33.264 96.36 0.951 0.155 0.268
7.442 33.264 95.29 0.951 0.155 -0.268
7.158 34.131 95.825 0.809 0.588 0
7.158 33.973 96.413 0.809 0.509 0.294
7.158 33.543 96.843 0.809 0.294 0.509
7.158 32.955 97.001 0.809 -0 0.588
7.158 33.973 95.237 0.809 0.509 -0.294
6.716 34.45 96.444 0.588 0.747 0.31
6.716 34.099 96.969 0.588 0.572 0.572
6.716 33.574 97.32 0.588 0.31 0.747
6.158 33.995 97.417 0.309 0.52 0.796
6.158 33.422 97.669 0.309 0.233 0.922
5.481 29.964 98.908 0.588 -0 0.809
4.923 30.431 99.134 0.309 0.233 0.922
4.923 29.807 99.186 0.309 -0.079 0.948
5.262 28.574 98.633 0.5 -0.567 0.654
6.175 27.796 96.474 0.623 -0.512 0.591
6.175 27.463 95.955 0.623 -0.75 0.22
5.614 27.283 96.239 0.223 -0.878 0.423
4.887 25.689 93.274 0.809 -0.509 0.294
4.445 25.563 93.83 0.588 -0.572 0.572
2.689 23.43 91.537 0.5 -0.831 -0.244
2.689 23.746 91.045 0.5 -0.567 -0.654
2.089 23.529 91.034 -0 -0.749 -0.663
1.542 25.908 88.981 -0 -0.355 -0.935
1.542 26.479 88.912 -0 0.121 -0.993
1.542 27.016 89.115 -0 0.568 -0.823
0.942 25.653 89.318 -0.5 -0.567 -0.654
0.942 26.186 89.074 -0.5 -0.123 -0.857
0.942 26.766 89.158 -0.5 0.36 -0.788
0.942 27.208 89.541 -0.5 0.729 -0.468
0.503 26.034 89.583 -0.866 -0.25 -0.433
0.503 26.634 89.583 -0.866 0.25 -0.433
3.125 25.593 89.724 0.623 -0.512 -0.591
3.125 26.154 89.468 0.623 -0.111 -0.774
5.135 27.743 90.605 0.5 -0.123 -0.857
6.147 27.888 92.523 1 0 0
6.049 27.27 92.523 0.951 -0.309 -0
6.049 27.579 91.988 0.951 -0.155 -0.268
5.765 26.712 92.523 0.809 -0.588 0
5.765 26.87 91.935 0.809 -0.509 -0.294
5.323 26.744 91.379 0.588 -0.572 -0.572
7.599 31.172 95.724 1 0 0
7.438 30.872 95.204 0.866 -0.25 -0.433
7.124 31.46 97.145 0.809 -0 0.588
7.124 30.872 96.987 0.809 -0.294 0.509
6.832 28.167 95.014 0.866 -0.5 -0
6.832 28.467 94.494 0.866 -0.25 -0.433
4.403 25.276 91.596 0.5 -0.567 -0.654
3 0 374 1
3 1 374 375
3 374 376 375
3 375 376 377
3 376 378 377
3 377 378 379
3 378 380 379
3 379 380 381
3 380 4 381
3 381 4 3
3 4 7 5
3 5 7 6
3 7 10 382
3 382 10 384
3 382 384 383
3 383 384 385
3 383 385 8
3 8 385 9
3 10 13 386
3 386 13 387
3 386 387 11
3 11 387 12
3 13 390 388
3 388 390 391
3 388 391 389
3 389 391 392
3 389 392 14
3 14 392 393
3 390 394 391
3 391 394 395
3 391 395 392
3 392 395 396
3 392 396 393
3 393 396 397
3 394 16 395
3 395 16 398
3 395 398 396
3 396 398 399
3 396 399 397
3 397 399 15
3 16 19 400
3 400 19 402
3 400 402 401
3 401 402 403
3 401 403 17
3 17 403 18
3 19 22 20
3 20 22 21
3 22 405 404
3 404 405 406
3 404 406 23
3 23 406 407
3 405 0 406
3 406 0 408
3 406 408 407
3 407 408 2
3 23 25 21
3 21 25 24
3 25 28 409
3 409 28 411
3 409 411 410
3 410 411 412
3 410 412 26
3 26 412 27
3 28 31 29
3 29 31 30
3 31 34 32
3 32 34 33
3 34 37 413
3 413 37 414
3 413 414 35
3 35 414 36
3 37 40 38
3 38 40 39
3 40 43 41
3 41 43 42
3 43 2 44
3 44 2 1
3 44 415 42
3 42 415 416
3 415 46 416
3 416 46 45
3 46 49 47
3 47 49 48
3 49 52 50
3 50 52 51
3 52 417 53
3 53 417 418
3 417 419 418
3 418 419 420
3 419 421 420
3 420 421 422
3 421 3 422
3 422 3 5
3 53 423 51
3 51 423 424
3 423 425 424
3 424 425 426
3 425 427 426
3 426 427 428
3 427 55 428
3 428 55 54
3 55 58 429
3 429 58 432
3 429 432 430
3 430 432 433
3 430 433 431
3 431 433 434
3 431 434 56
3 56 434 57
3 58 61 59
3 59 61 60
3 61 6 435
3 435 6 437
3 435 437 436
3 436 437 438
3 436 438 62
3 62 438 8
3 62 64 439
3 439 64 441
3 439 441 440
3 440 441 442
3 440 442 60
3 60 442 63
3 64 67 65
3 65 67 66
3 67 445 443
3 443 445 446
3 443 446 444
3 444 446 447
3 444 447 68
3 68 447 448
3 445 70 446
3 446 70 449
3 446 449 447
3 447 449 450
3 447 450 448
3 448 450 69
3 70 452 451
3 451 452 453
3 451 453 71
3 71 453 454
3 452 73 453
3 453 73 455
3 453 455 454
3 454 455 72
3 73 76 456
3 456 76 458
3 456 458 457
3 457 458 459
3 457 459 74
3 74 459 75
3 76 79 460
3 460 79 462
3 460 462 461
3 461 462 463
3 461 463 77
3 77 463 78
3 79 464 80
3 80 464 465
3 464 466 465
3 465 466 467
3 466 468 467
3 467 468 469
3 468 82 469
3 469 82 81
3 82 470 83
3 83 470 471
3 470 472 471
3 471 472 473
3 472 474 473
3 473 474 475
3 474 85 475
3 475 85 84
3 85 476 86
3 86 476 477
3 476 88 477
3 477 88 87
3 88 478 89
3 89 478 479
3 478 9 479
3 479 9 11
3 89 480 87
3 87 480 481
3 480 12 481
3 481 12 14
3 86 482 84
3 84 482 483
3 482 484 483
3 483 484 485
3 484 486 485
3 485 486 487
3 486 488 487
3 487 488 489
3 488 91 489
3 489 91 90
3 91 15 490
3 490 15 491
3 490 491 92
3 92 491 17
3 92 94 90
3 90 94 93
3 94 97 95
3 95 97 96
3 97 100 98
3 98 100 99
3 100 103 492
3 492 103 493
3 492 493 101
3 101 493 102
3 103 106 494
3 494 106 496
3 494 496 495
3 495 496 497
3 495 497 104
3 104 497 105
3 106 27 498
3 498 27 500
3 498 500 499
3 499 500 501
3 499 501 107
3 107 501 29
3 107 30 105
3 105 30 32
3 104 504 502
3 502 504 505
3 502 505 503
3 503 505 506
3 503 506 102
3 102 506 507
3 504 109 505
3 505 109 508
3 505 508 506
3 506 508 509
3 506 509 507
3 507 509 108
3 109 112 110
3 110 112 111
3 112 115 510
3 510 115 511
3 510 511 113
3 113 511 114
3 115 512 116
3 116 512 513
3 512 514 513
3 513 514 515
3 514 33 515
3 515 33 35
3 116 517 516
3 516 517 518
3 516 518 114
3 114 518 519
3 517 118 518
3 518 118 520
3 518 520 519
3 519 520 117
3 118 121 521
3 521 121 522
3 521 522 119
3 119 522 120
3 121 124 523
3 523 124 525
3 523 525 524
3 524 525 526
3 524 526 122
3 122 526 123
3 124 528 527
3 527 528 529
3 527 529 125
3 125 529 530
3 528 127 529
3 529 127 531
3 529 531 530
3 530 531 126
3 127 532 128
3 128 532 533
3 532 534 533
3 533 534 535
3 534 36 535
3 535 36 38
3 128 130 536
3 536 130 537
3 536 537 126
3 126 537 129
3 130 539 538
3 538 539 540
3 538 540 131
3 131 540 541
3 539 133 540
3 540 133 542
3 540 542 541
3 541 542 132
3 133 48 134
3 134 48 50
3 134 136 543
3 543 136 544
3 543 544 132
3 132 544 135
3 136 139 545
3 545 139 546
3 545 546 137
3 137 546 138
3 139 142 547
3 547 142 548
3 547 548 140
3 140 548 141
3 142 145 549
3 549 145 550
3 549 550 143
3 143 550 144
3 145 54 551
3 551 54 553
3 551 553 552
3 552 553 554
3 552 554 146
3 146 554 56
3 146 148 555
3 555 148 558
3 555 558 556
3 556 558 559
3 556 559 557
3 557 559 560
3 557 560 144
3 144 560 147
3 148 561 149
3 149 561 562
3 561 563 562
3 562 563 564
3 563 151 564
3 564 151 150
3 151 154 565
3 565 154 566
3 565 566 152
3 152 566 153
3 154 157 155
3 155 157 156
3 157 160 567
3 567 160 569
3 567 569 568
3 568 569 570
3 568 570 158
3 158 570 159
3 160 574 571
3 571 574 575
3 571 575 572
3 572 575 576
3 572 576 573
3 573 576 577
3 573 577 161
3 161 577 578
3 574 163 575
3 575 163 579
3 575 579 576
3 576 579 580
3 576 580 577
3 577 580 581
3 577 581 578
3 578 581 162
3 163 166 582
3 582 166 585
3 582 585 583
3 583 585 586
3 583 586 584
3 584 586 587
3 584 587 164
3 164 587 165
3 167 588 170
3 170 588 589
3 589 588 169
3 166 171 590
3 590 171 591
3 590 591 168
3 171 174 592
3 592 174 593
3 592 593 172
3 172 593 173
3 174 57 594
3 594 57 597
3 594 597 595
3 595 597 598
3 595 598 596
3 596 598 599
3 596 599 175
3 175 599 59
3 175 177 600
3 600 177 602
3 600 602 601
3 601 602 603
3 601 603 173
3 173 603 176
3 177 63 604
3 604 63 606
3 604 606 605
3 605 606 607
3 605 607 178
3 178 607 65
3 178 180 608
3 608 180 609
3 608 609 176
3 176 609 179
3 180 66 610
3 610 66 612
3 610 612 611
3 611 612 613
3 611 613 181
3 181 613 68
3 181 170 614
3 614 170 617
3 614 617 615
3 615 617 618
3 615 618 616
3 616 618 619
3 616 619 179
3 179 619 172
3 167 183 165
3 165 183 182
3 183 186 620
3 620 186 621
3 620 621 184
3 184 621 185
3 186 622 187
3 187 622 623
3 622 624 623
3 623 624 625
3 624 626 625
3 625 626 627
3 626 628 627
3 627 628 629
3 628 75 629
3 629 75 77
3 187 630 185
3 185 630 631
3 630 632 631
3 631 632 633
3 632 634 633
3 633 634 635
3 634 189 635
3 635 189 188
3 189 637 636
3 636 637 638
3 636 638 190
3 190 638 639
3 637 640 638
3 638 640 641
3 638 641 639
3 639 641 642
3 640 643 641
3 641 643 644
3 641 644 642
3 642 644 645
3 643 192 644
3 644 192 646
3 644 646 645
3 645 646 191
3 192 78 647
3 647 78 649
3 647 649 648
3 648 649 650
3 648 650 193
3 193 650 80
3 193 195 651
3 651 195 653
3 651 653 652
3 652 653 654
3 652 654 191
3 191 654 194
3 195 198 655
3 655 198 656
3 655 656 196
3 196 656 197
3 198 201 199
3 199 201 200
3 201 204 202
3 202 204 203
3 204 81 205
3 205 81 83
3 205 207 203
3 203 207 206
3 207 657 208
3 208 657 658
3 657 93 658
3 658 93 95
3 208 659 206
3 206 659 660
3 659 96 660
3 660 96 98
3 202 661 200
3 200 661 662
3 661 210 662
3 662 210 209
3 210 213 663
3 663 213 664
3 663 664 211
3 211 664 212
3 213 665 214
3 214 665 666
3 665 667 666
3 666 667 668
3 667 99 668
3 668 99 101
3 214 216 669
3 669 216 670
3 669 670 212
3 212 670 215
3 216 219 671
3 671 219 672
3 671 672 217
3 217 672 218
3 219 222 673
3 673 222 675
3 673 675 674
3 674 675 676
3 674 676 220
3 220 676 221
3 222 225 677
3 677 225 678
3 677 678 223
3 223 678 224
3 225 228 679
3 679 228 682
3 679 682 680
3 680 682 683
3 680 683 681
3 681 683 684
3 681 684 226
3 226 684 227
3 228 108 685
3 685 108 687
3 685 687 686
3 686 687 688
3 686 688 229
3 229 688 110
3 229 689 227
3 227 689 690
3 689 231 690
3 690 231 230
3 231 691 232
3 232 691 692
3 691 234 692
3 692 234 233
3 234 237 235
3 235 237 236
3 237 693 238
3 238 693 694
3 693 111 694
3 694 111 113
3 238 240 695
3 695 240 696
3 695 696 236
3 236 696 239
3 240 117 241
3 241 117 119
3 241 120 239
3 239 120 122
3 235 243 697
3 697 243 698
3 697 698 233
3 233 698 242
3 243 699 244
3 244 699 700
3 699 701 700
3 700 701 702
3 701 703 702
3 702 703 704
3 703 705 704
3 704 705 706
3 705 246 706
3 706 246 245
3 246 249 707
3 707 249 708
3 707 708 247
3 247 708 248
3 249 709 250
3 250 709 710
3 709 711 710
3 710 711 712
3 711 713 712
3 712 713 714
3 713 123 714
3 714 123 125
3 250 716 715
3 715 716 717
3 715 717 248
3 248 717 718
3 716 719 717
3 717 719 720
3 717 720 718
3 718 720 721
3 719 252 720
3 720 252 722
3 720 722 721
3 721 722 251
3 252 723 253
3 253 723 724
3 723 138 724
3 724 138 140
3 253 725 251
3 251 725 726
3 725 727 726
3 726 727 728
3 727 255 728
3 728 255 254
3 255 258 256
3 256 258 257
3 258 261 259
3 259 261 260
3 261 264 729
3 729 264 731
3 729 731 730
3 730 731 732
3 730 732 262
3 262 732 263
3 264 733 265
3 265 733 734
3 733 141 734
3 734 141 143
3 265 147 735
3 735 147 737
3 735 737 736
3 736 737 738
3 736 738 263
3 263 738 149
3 262 267 739
3 739 267 740
3 739 740 260
3 260 740 266
3 267 741 268
3 268 741 742
3 741 150 742
3 742 150 152
3 268 270 743
3 743 270 744
3 743 744 266
3 266 744 269
3 270 746 745
3 745 746 747
3 745 747 271
3 271 747 748
3 746 273 747
3 747 273 749
3 747 749 748
3 748 749 272
3 273 751 750
3 750 751 752
3 750 752 274
3 274 752 753
3 751 276 752
3 752 276 754
3 752 754 753
3 753 754 275
3 276 756 755
3 755 756 757
3 755 757 277
3 277 757 758
3 756 279 757
3 757 279 759
3 757 759 758
3 758 759 278
3 279 760 280
3 280 760 761
3 760 153 761
3 761 153 155
3 280 282 278
3 278 282 281
3 282 156 762
3 762 156 764
3 762 764 763
3 763 764 765
3 763 765 283
3 283 765 158
3 283 285 766
3 766 285 767
3 766 767 281
3 281 767 284
3 285 768 286
3 286 768 769
3 768 288 769
3 769 288 287
3 288 771 770
3 770 771 772
3 770 772 289
3 289 772 773
3 771 159 772
3 772 159 774
3 772 774 773
3 773 774 161
3 289 776 775
3 775 776 777
3 775 777 287
3 287 777 778
3 776 188 777
3 777 188 779
3 777 779 778
3 778 779 190
3 286 291 780
3 780 291 781
3 780 781 284
3 284 781 290
3 291 294 292
3 292 294 293
3 294 297 295
3 295 297 296
3 297 782 298
3 298 782 783
3 782 784 783
3 783 784 785
3 784 300 785
3 785 300 299
3 300 194 301
3 301 194 196
3 301 786 299
3 299 786 787
3 786 303 787
3 787 303 302
3 303 788 304
3 304 788 789
3 788 197 789
3 789 197 199
3 304 306 302
3 302 306 305
3 306 309 307
3 307 309 308
3 309 790 310
3 310 790 791
3 790 209 791
3 791 209 211
3 310 312 792
3 792 312 793
3 792 793 308
3 308 793 311
3 312 215 313
3 313 215 217
3 313 218 311
3 311 218 220
3 307 315 794
3 794 315 795
3 794 795 305
3 305 795 314
3 315 796 316
3 316 796 797
3 796 798 797
3 797 798 799
3 798 318 799
3 799 318 317
3 318 321 800
3 800 321 801
3 800 801 319
3 319 801 320
3 321 324 802
3 802 324 803
3 802 803 322
3 322 803 323
3 324 327 804
3 804 327 806
3 804 806 805
3 805 806 807
3 805 807 325
3 325 807 326
3 327 330 808
3 808 330 810
3 808 810 809
3 809 810 811
3 809 811 328
3 328 811 329
3 330 221 331
3 331 221 223
3 331 224 812
3 812 224 814
3 812 814 813
3 813 814 815
3 813 815 329
3 329 815 226
3 328 230 326
3 326 230 232
3 325 816 323
3 323 816 817
3 816 333 817
3 817 333 332
3 333 818 334
3 334 818 819
3 818 336 819
3 819 336 335
3 336 242 820
3 820 242 821
3 820 821 337
3 337 821 244
3 337 823 822
3 822 823 824
3 822 824 335
3 335 824 825
3 823 339 824
3 824 339 826
3 824 826 825
3 825 826 338
3 339 828 827
3 827 828 829
3 827 829 340
3 340 829 830
3 828 342 829
3 829 342 831
3 829 831 830
3 830 831 341
3 342 245 832
3 832 245 833
3 832 833 343
3 343 833 247
3 343 834 341
3 341 834 835
3 834 836 835
3 835 836 837
3 836 838 837
3 837 838 839
3 838 254 839
3 839 254 256
3 340 345 840
3 840 345 841
3 840 841 338
3 338 841 344
3 345 348 346
3 346 348 347
3 348 351 842
3 842 351 843
3 842 843 349
3 349 843 350
3 351 354 844
3 844 354 845
3 844 845 352
3 352 845 353
3 354 257 846
3 846 257 847
3 846 847 355
3 355 847 259
3 355 269 353
3 353 269 271
3 352 848 350
3 350 848 849
3 848 272 849
3 849 272 274
3 349 357 347
3 347 357 356
3 357 332 358
3 358 332 334
3 358 344 356
3 356 344 346
3 322 360 320
3 320 360 359
3 360 363 850
3 850 363 851
3 850 851 361
3 361 851 362
3 363 275 852
3 852 275 853
3 852 853 364
3 364 853 277
3 364 366 854
3 854 366 855
3 854 855 362
3 362 855 365
3 366 369 856
3 856 369 857
3 856 857 367
3 367 857 368
3 369 290 370
3 370 290 292
3 370 293 368
3 368 293 295
3 367 372 858
3 858 372 859
3 858 859 365
3 365 859 371
3 372 860 373
3 373 860 861
3 860 296 861
3 861 296 298
3 373 314 862
3 862 314 863
3 862 863 371
3 371 863 316
3 361 317 864
3 864 317 865
3 864 865 359
3 359 865 319
3 184 162 182
3 182 162 164
3 137 866 135
3 135 866 867
3 866 868 867
3 867 868 869
3 868 870 869
3 869 870 871
3 870 129 871
3 871 129 131
3 74 874 872
3 872 874 875
3 872 875 873
3 873 875 876
3 873 876 72
3 72 876 877
3 874 69 875
3 875 69 878
3 875 878 876
3 876 878 879
3 876 879 877
3 877 879 71
3 47 880 45
3 45 880 881
3 880 39 881
3 881 39 41
3 26 18 882
3 882 18 883
3 882 883 24
3 24 883 20
3 408 0 1
3 408 1 2
3 5 3 4
3 437 6 382
3 437 382 383
3 437 383 438
3 438 383 8
3 382 6 7
3 11 9 385
3 11 385 386
3 386 385 384
3 386 384 10
3 14 12 389
3 389 12 387
3 389 387 388
3 388 387 13
3 491 15 885
3 491 885 401
3 491 401 17
3 401 885 400
3 400 885 398
3 400 398 16
3 398 885 399
3 399 885 15
3 883 18 403
3 883 403 402
3 883 402 20
3 20 402 19
3 23 21 404
3 404 21 22
3 882 24 409
3 882 409 410
3 882 410 26
3 409 24 25
3 500 27 412
3 500 412 501
3 501 412 411
3 501 411 29
3 29 411 28
3 32 30 31
3 35 33 413
3 413 33 34
3 38 36 414
3 38 414 37
3 41 39 40
3 44 42 43
3 47 45 46
3 50 48 49
3 53 51 52
3 553 54 429
3 553 429 430
3 553 430 554
3 554 430 431
3 554 431 56
3 429 54 55
3 597 57 434
3 597 434 433
3 597 433 598
3 598 433 432
3 598 432 599
3 599 432 58
3 599 58 59
3 440 60 435
3 440 435 436
3 440 436 439
3 439 436 62
3 435 60 61
3 606 63 442
3 606 442 607
3 607 442 441
3 607 441 65
3 65 441 64
3 612 66 443
3 612 443 444
3 612 444 613
3 613 444 68
3 443 66 67
3 878 69 450
3 878 450 449
3 878 449 879
3 879 449 70
3 879 70 451
3 879 451 71
3 873 72 455
3 873 455 73
3 873 73 456
3 873 456 872
3 872 456 457
3 872 457 74
3 77 75 461
3 461 75 459
3 461 459 460
3 460 459 458
3 460 458 76
3 649 78 463
3 649 463 650
3 650 463 462
3 650 462 80
3 80 462 79
3 83 81 82
3 86 84 85
3 89 87 88
3 92 90 490
3 490 90 91
3 95 93 94
3 98 96 97
3 101 99 492
3 492 99 100
3 503 102 493
3 503 493 494
3 503 494 495
3 503 495 502
3 502 495 104
3 494 493 103
3 107 105 497
3 107 497 499
3 499 497 496
3 499 496 498
3 498 496 106
3 687 108 509
3 687 509 886
3 687 886 688
3 688 886 508
3 688 508 109
3 688 109 110
3 508 886 509
3 113 111 510
3 510 111 112
3 516 114 511
3 516 511 115
3 516 115 116
3 119 117 521
3 521 117 520
3 521 520 118
3 122 120 524
3 524 120 523
3 523 120 522
3 523 522 121
3 125 123 526
3 125 526 527
3 527 526 525
3 527 525 124
3 536 126 531
3 536 531 128
3 128 531 127
3 131 129 538
3 538 129 537
3 538 537 130
3 543 132 542
3 543 542 133
3 543 133 134
3 137 135 544
3 137 544 545
3 545 544 136
3 140 138 547
3 547 138 546
3 547 546 139
3 143 141 548
3 143 548 549
3 549 548 142
3 888 887 889
3 557 144 889
3 557 889 887
3 557 887 556
3 556 887 555
3 555 887 552
3 555 552 146
3 552 887 551
3 551 887 888
3 551 888 145
3 145 888 550
3 550 888 889
3 550 889 144
3 737 147 560
3 737 560 559
3 737 559 738
3 738 559 558
3 738 558 149
3 149 558 148
3 152 150 565
3 565 150 151
3 155 153 566
3 155 566 154
3 764 156 567
3 764 567 568
3 764 568 765
3 765 568 158
3 567 156 157
3 774 159 890
3 774 890 573
3 774 573 161
3 573 890 572
3 572 890 569
3 572 569 571
3 571 569 160
3 569 890 570
3 570 890 159
3 164 162 584
3 584 162 581
3 584 581 583
3 583 581 580
3 583 580 582
3 582 580 579
3 582 579 163
3 167 165 588
3 588 165 169
3 169 165 587
3 169 587 884
3 884 587 586
3 884 586 168
3 168 586 585
3 168 585 590
3 590 585 166
3 892 891 893
3 617 170 589
3 617 589 169
3 617 169 618
3 618 169 891
3 618 891 619
3 619 891 892
3 619 892 172
3 172 892 592
3 592 892 893
3 592 893 591
3 592 591 171
3 591 893 168
3 168 893 891
3 168 891 884
3 884 891 169
3 601 173 894
3 601 894 895
3 601 895 600
3 600 895 596
3 600 596 175
3 596 895 595
3 595 895 894
3 595 894 594
3 594 894 593
3 594 593 174
3 593 894 173
3 608 176 603
3 608 603 897
3 608 897 896
3 608 896 178
3 178 896 605
3 605 896 897
3 605 897 898
3 605 898 604
3 604 898 177
3 177 898 602
3 602 898 897
3 602 897 603
3 616 179 609
3 616 609 900
3 616 900 615
3 615 900 899
3 615 899 614
3 614 899 611
3 614 611 181
3 611 899 610
3 610 899 900
3 610 900 180
3 180 900 609
3 184 182 620
3 620 182 183
3 187 185 621
3 187 621 186
3 779 188 189
3 779 189 636
3 779 636 190
3 652 191 646
3 652 646 647
3 652 647 648
3 652 648 651
3 651 648 193
3 647 646 192
3 196 194 654
3 196 654 655
3 655 654 653
3 655 653 195
3 199 197 656
3 199 656 198
3 202 200 201
3 205 203 204
3 208 206 207
3 211 209 663
3 663 209 210
3 669 212 664
3 669 664 213
3 669 213 214
3 217 215 670
3 217 670 671
3 671 670 216
3 220 218 674
3 674 218 673
3 673 218 672
3 673 672 219
3 223 221 676
3 223 676 677
3 677 676 675
3 677 675 222
3 814 224 901
3 814 901 815
3 815 901 681
3 815 681 226
3 681 901 680
3 680 901 679
3 679 901 678
3 679 678 225
3 678 901 224
3 229 227 684
3 229 684 686
3 686 684 683
3 686 683 685
3 685 683 682
3 685 682 228
3 232 230 231
3 697 233 234
3 697 234 235
3 695 236 237
3 695 237 238
3 241 239 696
3 241 696 240
3 821 242 698
3 821 698 244
3 244 698 243
3 833 245 707
3 833 707 247
3 707 245 246
3 715 248 708
3 715 708 250
3 250 708 249
3 253 251 722
3 253 722 252
3 256 254 255
3 847 257 258
3 847 258 259
3 739 260 730
3 739 730 262
3 730 260 729
3 729 260 261
3 736 263 732
3 736 732 731
3 736 731 735
3 735 731 264
3 735 264 265
3 743 266 740
3 743 740 267
3 743 267 268
3 271 269 745
3 745 269 744
3 745 744 270
3 274 272 749
3 274 749 750
3 750 749 273
3 853 275 754
3 853 754 755
3 853 755 277
3 755 754 276
3 280 278 759
3 280 759 279
3 766 281 762
3 766 762 763
3 766 763 283
3 762 281 282
3 780 284 767
3 780 767 286
3 286 767 285
3 775 287 770
3 775 770 289
3 770 287 288
3 292 290 781
3 292 781 291
3 295 293 294
3 298 296 297
3 301 299 300
3 304 302 303
3 794 305 306
3 794 306 307
3 792 308 309
3 792 309 310
3 313 311 793
3 313 793 312
3 863 314 795
3 863 795 316
3 316 795 315
3 865 317 800
3 865 800 319
3 800 317 318
3 322 320 802
3 802 320 801
3 802 801 321
3 325 323 805
3 805 323 803
3 805 803 804
3 804 803 324
3 328 326 807
3 328 807 809
3 809 807 806
3 809 806 808
3 808 806 327
3 813 329 811
3 813 811 812
3 812 811 810
3 812 810 331
3 331 810 330
3 334 332 333
3 822 335 336
3 822 336 820
3 822 820 337
3 840 338 826
3 840 826 827
3 840 827 340
3 827 826 339
3 343 341 832
3 832 341 831
3 832 831 342
3 346 344 841
3 346 841 345
3 349 347 842
3 842 347 348
3 352 350 844
3 844 350 843
3 844 843 351
3 355 353 845
3 355 845 846
3 846 845 354
3 358 356 357
3 864 359 850
3 864 850 361
3 850 359 360
3 854 362 851
3 854 851 852
3 854 852 364
3 852 851 363
3 858 365 855
3 858 855 856
3 858 856 367
3 856 855 366
3 370 368 857
3 370 857 369
3 862 371 859
3 862 859 373
3 373 859 372
3 904 903 907
3 902 903 904
3 905 904 908
3 906 905 908
3 904 907 908
3 908 907 376
3 908 376 374
3 908 374 0
3 908 0 906
3 906 0 405
3 906 405 394
3 906 394 905
3 905 394 390
3 905 390 904
3 904 390 902
3 902 390 13
3 902 13 10
3 902 10 4
3 902 4 903
3 903 4 380
3 903 380 378
3 903 378 907
3 907 378 376
3 4 10 7
3 394 405 22
3 394 22 16
3 16 22 19
3 417 52 909
3 417 909 419
3 419 909 910
3 419 910 379
3 419 379 381
3 419 381 421
3 421 381 3
3 379 910 377
3 377 910 415
3 377 415 375
3 375 415 44
3 375 44 1
3 415 910 46
3 46 910 909
3 46 909 49
3 49 909 52
3 911 913 914
3 912 911 914
3 912 914 915
3 912 915 61
3 912 61 58
3 912 58 911
3 911 58 55
3 911 55 427
3 911 427 425
3 911 425 913
3 913 425 423
3 913 423 418
3 913 418 420
3 913 420 914
3 914 420 422
3 914 422 915
3 915 422 5
3 915 5 61
3 61 5 6
3 418 423 53
3 917 916 919
3 917 919 920
3 918 917 920
3 918 920 472
3 918 472 470
3 918 470 468
3 918 468 466
3 918 466 917
3 917 466 464
3 917 464 916
3 916 464 79
3 916 79 76
3 916 76 73
3 916 73 452
3 916 452 919
3 919 452 85
3 919 85 474
3 919 474 920
3 920 474 472
3 85 452 476
3 476 452 88
3 88 452 70
3 88 70 921
3 88 921 478
3 478 921 9
3 9 921 445
3 9 445 62
3 9 62 8
3 62 445 67
3 62 67 64
3 445 921 70
3 468 470 82
3 480 89 479
3 480 479 12
3 12 479 11
3 922 926 927
3 923 922 927
3 923 927 928
3 924 923 928
3 924 928 929
3 926 925 930
3 926 930 931
3 927 926 931
3 928 927 931
3 928 931 932
3 929 928 932
3 931 930 933
3 932 931 933
3 932 933 397
3 932 397 929
3 929 397 15
3 929 15 91
3 929 91 488
3 929 488 924
3 924 488 486
3 924 486 923
3 923 486 484
3 923 484 482
3 923 482 922
3 922 482 86
3 922 86 477
3 922 477 926
3 926 477 925
3 925 477 87
3 925 87 481
3 925 481 930
3 930 481 14
3 930 14 393
3 930 393 933
3 933 393 397
3 18 26 935
3 18 935 92
3 18 92 17
3 92 935 94
3 94 935 934
3 94 934 97
3 97 934 100
3 100 934 106
3 100 106 103
3 106 934 27
3 27 934 935
3 27 935 26
3 21 24 20
3 936 937 938
3 938 937 939
3 940 939 941
3 940 941 40
3 940 40 37
3 940 37 938
3 940 938 939
3 938 37 34
3 938 34 936
3 936 34 31
3 936 31 28
3 936 28 25
3 936 25 937
3 937 25 23
3 937 23 407
3 937 407 939
3 939 407 2
3 939 2 941
3 941 2 43
3 941 43 40
3 30 107 29
3 512 115 112
3 512 112 504
3 512 504 104
3 512 104 514
3 514 104 105
3 514 105 32
3 514 32 33
3 504 112 109
3 121 118 124
3 942 945 946
3 943 942 946
3 943 946 947
3 944 943 947
3 944 947 948
3 946 945 949
3 946 949 950
3 947 946 950
3 947 950 951
3 948 947 951
3 948 951 952
3 951 950 953
3 951 953 532
3 951 532 952
3 952 532 127
3 952 127 528
3 952 528 948
3 948 528 124
3 948 124 118
3 948 118 944
3 944 118 517
3 944 517 943
3 943 517 116
3 943 116 942
3 942 116 513
3 942 513 515
3 942 515 945
3 945 515 35
3 945 35 949
3 949 35 36
3 949 36 953
3 949 953 950
3 953 36 534
3 953 534 532
3 880 47 955
3 880 955 954
3 880 954 39
3 39 954 535
3 39 535 38
3 535 954 533
3 533 954 130
3 533 130 128
3 130 954 539
3 539 954 955
3 539 955 48
3 539 48 133
3 48 955 47
3 416 45 881
3 416 881 42
3 42 881 41
3 428 54 145
3 428 145 142
3 428 142 426
3 426 142 424
3 424 142 139
3 424 139 136
3 424 136 51
3 51 136 134
3 51 134 50
3 956 958 959
3 958 957 961
3 958 961 962
3 959 958 962
3 960 959 962
3 962 961 964
3 963 962 964
3 960 962 963
3 963 964 56
3 963 56 57
3 963 57 166
3 963 166 960
3 960 166 163
3 960 163 959
3 959 163 574
3 959 574 956
3 956 574 154
3 956 154 151
3 956 151 958
3 958 151 957
3 957 151 563
3 957 563 961
3 961 563 561
3 961 561 964
3 964 561 148
3 964 148 56
3 56 148 146
3 154 574 160
3 154 160 157
3 166 57 171
3 171 57 174
3 60 63 59
3 59 63 175
3 175 63 177
3 66 180 178
3 66 178 65
3 966 965 969
3 966 969 970
3 967 966 970
3 967 970 971
3 969 968 975
3 965 968 969
3 970 969 976
3 970 976 977
3 971 970 977
3 973 972 978
3 973 978 979
3 974 973 979
3 975 974 979
3 976 975 979
3 969 975 976
3 977 976 980
3 979 978 980
3 976 979 980
3 980 978 448
3 980 448 69
3 980 69 977
3 977 69 874
3 977 874 971
3 971 874 74
3 971 74 967
3 967 74 628
3 967 628 626
3 967 626 966
3 966 626 624
3 966 624 965
3 965 624 622
3 965 622 968
3 968 622 186
3 968 186 975
3 975 186 974
3 974 186 183
3 974 183 973
3 973 183 167
3 973 167 972
3 972 167 170
3 972 170 68
3 972 68 448
3 972 448 978
3 68 170 181
3 628 74 75
3 877 71 981
3 877 981 454
3 877 454 72
3 454 981 71
3 982 983 984
3 983 987 988
3 984 983 988
3 984 988 989
3 985 984 989
3 985 989 990
3 985 990 643
3 985 643 640
3 985 640 984
3 984 640 982
3 982 640 637
3 982 637 189
3 982 189 634
3 982 634 983
3 983 634 632
3 983 632 986
3 983 986 987
3 987 986 625
3 987 625 627
3 987 627 988
3 988 627 629
3 988 629 989
3 989 629 990
3 990 629 78
3 990 78 192
3 990 192 643
3 78 629 77
3 625 986 623
3 623 986 630
3 623 630 187
3 630 986 632
3 81 204 201
3 81 201 469
3 469 201 993
3 469 993 992
3 469 992 467
3 467 992 991
3 467 991 465
3 465 991 193
3 465 193 80
3 193 991 195
3 195 991 992
3 195 992 198
3 198 992 993
3 198 993 201
3 489 90 93
3 489 93 657
3 489 657 995
3 489 995 487
3 487 995 994
3 487 994 485
3 485 994 473
3 485 473 483
3 483 473 475
3 483 475 84
3 473 994 471
3 471 994 83
3 83 994 207
3 83 207 205
3 207 994 657
3 657 994 995
3 659 208 658
3 659 658 95
3 659 95 96
3 996 997 998
3 996 998 665
3 996 665 213
3 996 213 210
3 996 210 661
3 996 661 997
3 997 661 202
3 997 202 203
3 997 203 206
3 997 206 660
3 997 660 998
3 998 660 999
3 998 999 665
3 665 999 667
3 667 999 98
3 667 98 99
3 98 999 660
3 1000 1002 1003
3 1001 1000 1003
3 1001 1003 1004
3 1003 1002 1005
3 1003 1005 1004
3 1004 1005 507
3 1004 507 108
3 1004 108 228
3 1004 228 222
3 1004 222 1001
3 1001 222 219
3 1001 219 216
3 1001 216 1000
3 1000 216 214
3 1000 214 666
3 1000 666 1002
3 1002 666 668
3 1002 668 1005
3 1005 668 101
3 1005 101 102
3 1005 102 507
3 222 228 225
3 693 237 1008
3 693 1008 1007
3 693 1007 111
3 111 1007 1006
3 111 1006 110
3 110 1006 229
3 229 1006 689
3 689 1006 1007
3 689 1007 231
3 231 1007 1008
3 231 1008 691
3 691 1008 234
3 234 1008 237
3 117 240 519
3 519 240 238
3 519 238 694
3 519 694 114
3 114 694 113
3 119 120 241
3 239 122 236
3 1009 1010 1011
3 1011 1010 1013
3 1011 1013 1014
3 1012 1011 1014
3 1012 1014 1015
3 1012 1015 705
3 1012 705 703
3 1012 703 1011
3 1011 703 701
3 1011 701 1009
3 1009 701 699
3 1009 699 236
3 1009 236 1010
3 1010 236 122
3 1010 122 123
3 1010 123 1013
3 1013 123 713
3 1013 713 711
3 1013 711 1014
3 1014 711 1015
3 1015 711 709
3 1015 709 249
3 1015 249 246
3 1015 246 705
3 236 699 235
3 235 699 243
3 126 129 1016
3 126 1016 530
3 530 1016 714
3 530 714 125
3 714 1016 712
3 712 1016 870
3 712 870 710
3 710 870 868
3 710 868 716
3 710 716 250
3 716 868 719
3 719 868 252
3 252 868 866
3 252 866 723
3 723 866 137
3 723 137 138
3 870 1016 129
3 132 135 1018
3 132 1018 541
3 541 1018 1017
3 541 1017 131
3 131 1017 871
3 871 1017 869
3 869 1017 1018
3 869 1018 867
3 867 1018 135
3 733 264 727
3 733 727 725
3 733 725 141
3 141 725 724
3 141 724 140
3 724 725 253
3 727 264 255
3 255 264 261
3 255 261 258
3 144 147 1019
3 144 1019 143
3 143 1019 734
3 734 1019 265
3 265 1019 147
3 741 267 262
3 741 262 263
3 741 263 562
3 741 562 564
3 741 564 150
3 562 263 149
3 1020 1022 1023
3 1020 1023 1021
3 1023 1022 1025
3 1023 1025 1026
3 1023 1026 1027
3 1021 1023 1027
3 1021 1027 1024
3 1025 1028 1029
3 1026 1025 1029
3 1026 1029 1030
3 1027 1026 1030
3 1027 1030 1031
3 1024 1027 1031
3 1028 1032 1033
3 1029 1028 1033
3 1029 1033 1034
3 1030 1029 1034
3 1033 1032 1035
3 1033 1035 742
3 1033 742 1034
3 1034 742 152
3 1034 152 153
3 1034 153 1031
3 1034 1031 1030
3 1031 153 760
3 1031 760 1024
3 1024 760 279
3 1024 279 1021
3 1021 279 756
3 1021 756 1020
3 1020 756 276
3 1020 276 751
3 1020 751 1022
3 1022 751 273
3 1022 273 1025
3 1025 273 746
3 1025 746 1028
3 1028 746 1032
3 1032 746 270
3 1032 270 1035
3 1035 270 268
3 1035 268 742
3 156 282 761
3 156 761 155
3 761 282 280
3 771 288 768
3 771 768 283
3 771 283 158
3 771 158 159
3 283 768 285
3 1037 1039 1040
3 1037 1040 1041
3 1036 1037 1041
3 1036 1041 1038
3 1039 1043 1044
3 1040 1039 1044
3 1040 1044 1045
3 1041 1040 1045
3 1041 1045 1046
3 1038 1041 1046
3 1038 1046 1042
3 1044 1043 1047
3 1044 1047 1048
3 1045 1044 1048
3 1045 1048 1049
3 1046 1045 1049
3 1042 1046 1049
3 1048 1047 1050
3 1048 1050 185
3 1048 185 1049
3 1049 185 631
3 1049 631 1042
3 1042 631 633
3 1042 633 635
3 1042 635 1038
3 1038 635 1036
3 1036 635 188
3 1036 188 776
3 1036 776 1037
3 1037 776 289
3 1037 289 1039
3 1039 289 773
3 1039 773 1043
3 1043 773 161
3 1043 161 578
3 1043 578 1047
3 1047 578 1050
3 1050 578 184
3 1050 184 185
3 184 578 162
3 165 182 164
3 173 176 179
3 173 179 172
3 1051 1052 1053
3 1051 1054 1052
3 1053 1052 1056
3 1053 1056 1057
3 1053 1057 1058
3 1052 1054 1059
3 1052 1059 1055
3 1052 1055 1056
3 1056 1055 1060
3 1056 1060 1061
3 1057 1056 1061
3 1057 1061 1062
3 1058 1057 1062
3 1062 1061 1063
3 1062 1063 1064
3 1062 1064 300
3 1062 300 1058
3 1058 300 784
3 1058 784 782
3 1058 782 1053
3 1053 782 1051
3 1051 782 297
3 1051 297 1054
3 1054 297 294
3 1054 294 769
3 1054 769 1059
3 1059 769 287
3 1059 287 778
3 1059 778 1055
3 1055 778 190
3 1055 190 1060
3 1060 190 639
3 1060 639 1061
3 1061 639 642
3 1061 642 1063
3 1063 642 645
3 1063 645 1064
3 1064 645 194
3 1064 194 300
3 194 645 191
3 769 294 291
3 769 291 286
3 788 303 786
3 788 786 301
3 788 301 197
3 197 301 196
3 1065 1066 1067
3 1065 1067 790
3 1065 790 304
3 1065 304 789
3 1065 789 1066
3 1066 789 199
3 1066 199 200
3 1066 200 1067
3 1067 200 662
3 1067 662 209
3 1067 209 790
3 304 790 306
3 306 790 309
3 212 215 1068
3 212 1068 211
3 211 1068 791
3 791 1068 310
3 310 1068 312
3 312 1068 215
3 218 313 217
3 1070 1069 1071
3 1070 1071 327
3 1070 327 324
3 1070 324 321
3 1070 321 318
3 1070 318 798
3 1070 798 796
3 1070 796 1069
3 1069 796 307
3 1069 307 308
3 1069 308 311
3 1069 311 1071
3 1071 311 220
3 1071 220 221
3 1071 221 330
3 1071 330 327
3 307 796 315
3 224 331 223
3 690 230 328
3 690 328 329
3 690 329 227
3 227 329 226
3 233 242 692
3 692 242 336
3 692 336 818
3 692 818 1073
3 692 1073 232
3 232 1073 326
3 326 1073 325
3 325 1073 1072
3 325 1072 816
3 816 1072 818
3 816 818 333
3 818 1072 1073
3 1075 1074 1076
3 1075 1076 828
3 1075 828 339
3 1075 339 823
3 1075 823 1074
3 1074 823 337
3 1074 337 700
3 1074 700 702
3 1074 702 704
3 1074 704 1076
3 1076 704 706
3 1076 706 342
3 1076 342 828
3 342 706 245
3 700 337 244
3 1077 1080 1081
3 1078 1077 1081
3 1078 1081 1082
3 1079 1078 1082
3 1079 1082 1083
3 1081 1080 1084
3 1081 1084 1085
3 1082 1081 1085
3 1083 1082 1085
3 1083 1085 726
3 1083 726 728
3 1083 728 1079
3 1079 728 254
3 1079 254 838
3 1079 838 1078
3 1078 838 836
3 1078 836 1077
3 1077 836 834
3 1077 834 1080
3 1080 834 343
3 1080 343 247
3 1080 247 248
3 1080 248 718
3 1080 718 1084
3 1084 718 721
3 1084 721 1085
3 1085 721 251
3 1085 251 726
3 257 354 839
3 257 839 256
3 839 354 1087
3 839 1087 837
3 837 1087 835
3 835 1087 1086
3 835 1086 830
3 835 830 341
3 830 1086 340
3 340 1086 345
3 345 1086 348
3 348 1086 351
3 351 1086 1087
3 351 1087 354
3 260 266 259
3 259 266 269
3 259 269 355
3 848 352 1088
3 848 1088 272
3 272 1088 748
3 748 1088 353
3 748 353 271
3 353 1088 352
3 1089 1090 1091
3 1090 1092 1093
3 1091 1090 1093
3 1091 1093 849
3 1091 849 274
3 1091 274 753
3 1091 753 1089
3 1089 753 275
3 1089 275 363
3 1089 363 360
3 1089 360 1090
3 1090 360 322
3 1090 322 817
3 1090 817 1092
3 1092 817 332
3 1092 332 1093
3 1093 332 357
3 1093 357 1094
3 1093 1094 849
3 849 1094 349
3 849 349 350
3 349 1094 357
3 817 322 323
3 278 281 284
3 278 284 290
3 278 290 758
3 758 290 369
3 758 369 366
3 758 366 277
3 277 366 364
3 293 370 292
3 860 372 1095
3 860 1095 296
3 296 1095 295
3 295 1095 1096
3 295 1096 368
3 368 1096 367
3 367 1096 372
3 372 1096 1095
3 787 302 1097
3 787 1097 785
3 787 785 299
3 785 1097 783
3 783 1097 861
3 783 861 298
3 861 1097 1098
3 861 1098 314
3 861 314 373
3 314 1098 305
3 305 1098 302
3 302 1098 1097
3 317 361 1099
3 317 1099 799
3 799 1099 797
3 797 1099 371
3 797 371 316
3 371 1099 1100
3 371 1100 365
3 365 1100 362
3 362 1100 361
3 361 1100 1099
3 320 359 319
3 825 338 1101
3 825 1101 334
3 825 334 819
3 825 819 335
3 334 1101 358
3 358 1101 344
3 344 1101 338
3 347 356 346
