ply
format ascii 1.0
comment Generated by PyMesh
element vertex 570
property float x
property float y
property float z
property float nx
property float ny
property float nz
element face 1136
property list uchar int vertex_indices
end_header
-52.847 -61.954 -16.446 -0.44 0.426 0.79
-52.702 -62.279 -16.081 -0.537 0.642 0.547
-52.237 -62.087 -15.061 -0.847 0.515 -0.133
-51.212 -61.649 -16.771 0.208 0.957 0.202
-51.588 -61.422 -17.029 0.459 0.806 0.374
-50.852 -61.501 -15.702 -0.032 0.859 -0.511
-50.635 -61.844 -16.925 0.496 0.859 0.125
-50.316 -61.683 -15.846 0.283 0.752 -0.595
-50.349 -61.942 -16.395 0.305 0.925 -0.229
-49.353 -62.602 -16.044 0.802 0.594 -0.053
-49.391 -62.297 -15.52 0.827 0.391 -0.403
-48.988 -62.553 -15.209 0.559 0.562 -0.61
-52.085 -63.859 -13.777 -0.99 -0.091 0.106
-52.271 -63.511 -14.188 -0.867 -0.323 0.38
-52.451 -63.908 -14.612 -0.746 -0.058 0.663
-52.65 -62.914 -15.329 -0.846 0.438 0.304
-52.455 -62.587 -14.855 -0.975 0.22 -0.012
-52.936 -62.817 -15.859 -0.655 0.373 0.657
-52.545 -64.997 -15.77 -0.793 -0.603 0.084
-52.831 -64.899 -16.3 -0.602 -0.668 0.437
-52.522 -65.878 -16.528 -0.808 -0.016 0.589
-52.842 -65.822 -17.203 -0.968 0.013 0.251
-53.151 -64.843 -16.975 -0.762 -0.64 0.099
-53.005 -65.272 -17.382 -0.859 -0.354 0.37
-50.125 -64.054 -18.713 0.835 0.363 -0.413
-50.053 -63.532 -18.407 0.787 0.015 -0.617
-49.744 -64.511 -18.635 0.581 0.668 -0.465
-49.401 -64.557 -17.973 0.752 0.645 -0.134
-49.71 -63.578 -17.746 0.958 -0.007 -0.286
-49.424 -63.676 -17.216 0.767 0.058 -0.639
-49.395 -64.563 -17.966 0.756 0.642 -0.13
-49.417 -63.682 -17.208 0.77 0.055 -0.635
-49.155 -64.204 -17.118 0.596 0.403 -0.695
-48.767 -63.826 -16.055 0.789 0.592 -0.164
-49.029 -63.304 -16.145 0.964 0.244 -0.104
-48.664 -63.255 -15.31 0.721 0.211 -0.66
-48.584 -64.077 -15.889 0.881 0.466 -0.08
-48.481 -63.506 -15.143 0.812 0.086 -0.577
-47.436 -64.3 -14.839 0.116 0.615 -0.78
-47.483 -63.592 -12.826 0.093 0.97 0.227
-48.527 -62.797 -13.13 0.789 0.44 0.429
-48.297 -63.097 -11.837 0.635 0.64 -0.433
-50.501 -63.519 -11.151 -0.939 0.339 0.057
-51.136 -63.297 -12.318 -0.516 0.19 0.835
-50.779 -63.973 -10.849 -0.754 0.641 -0.144
-51.085 -65.332 -11.401 -0.907 -0.039 -0.419
-51.442 -64.656 -12.869 -0.669 -0.489 0.56
-51.067 -65.895 -12.338 -0.919 0.337 0.206
-51.139 -66.201 -12.924 -0.97 0.119 -0.213
-51.527 -65.017 -13.563 -0.711 -0.67 0.213
-51.63 -65.588 -14.308 -0.642 -0.29 0.71
-51.97 -65.18 -14.574 -0.812 -0.086 0.577
-51.867 -64.609 -13.829 -0.881 -0.466 0.08
-52.233 -64.658 -14.664 -0.637 -0.434 0.637
-52.278 -65.524 -15.674 -0.966 -0.258 0.027
-52.54 -65.002 -15.764 -0.791 -0.606 0.087
-52.518 -65.883 -16.521 -0.806 -0.018 0.592
-51.816 -66.339 -15.46 -0.735 -0.665 0.134
-52.056 -66.698 -16.307 -0.575 -0.425 0.699
-51.682 -66.744 -15.868 -0.824 -0.395 0.406
-50.856 -67.672 -16.501 -0.339 -0.94 0.034
-51.168 -67.696 -16.988 -0.131 -0.924 0.358
-51.165 -68.011 -17.481 -0.133 -0.714 0.687
-52.595 -66.524 -18.925 -0.974 0.161 -0.162
-52.706 -66.096 -18.541 -0.9 -0.125 -0.418
-52.879 -65.527 -18.625 -0.785 -0.504 -0.361
-50.566 -65.665 -19.862 0.22 0.666 -0.713
-50.849 -64.668 -19.562 0.409 0.002 -0.912
-50.523 -65.172 -19.548 0.192 0.337 -0.922
-49.328 -67.233 -18.33 0.948 -0.256 0.188
-49.192 -66.859 -17.901 0.857 -0.506 -0.098
-49.019 -66.893 -17.35 0.742 -0.483 -0.465
-48.803 -65.529 -17.199 0.869 0.32 -0.376
-48.959 -65.391 -17.738 0.973 0.228 -0.017
-48.719 -65.032 -16.891 0.813 -0.011 -0.581
-48.588 -65.949 -16.644 0.996 0.073 -0.05
-48.487 -65.484 -16.294 0.929 -0.237 -0.283
-47.34 -65.707 -15.245 0.164 -0.088 -0.982
-48.583 -66.115 -16.62 0.999 -0.025 -0.036
-47.334 -65.886 -15.22 0.167 -0.178 -0.97
-47.922 -66.075 -15.433 0.559 -0.052 -0.828
-47.834 -67.392 -14.506 0.602 -0.71 -0.364
-47.247 -67.203 -14.293 0.211 -0.836 -0.506
-46.949 -68.044 -13.611 0.012 -0.276 -0.961
-45.806 -67.373 -12.996 0.828 0.203 -0.522
-45.894 -66.409 -13.565 0.887 -0.439 -0.142
-45.82 -66.758 -13.02 0.838 -0.207 -0.505
-46.878 -64.528 -11.448 0.309 0.909 0.281
-46.952 -64.179 -11.992 0.358 0.676 0.644
-47.848 -63.593 -11.132 0.956 0.285 0.071
-46.88 -64.572 -11.32 0.308 0.887 0.345
-47.85 -63.63 -11.024 0.954 0.259 0.148
-47.641 -64.105 -10.699 0.815 0.575 -0.069
-47.198 -66.746 -10.073 0.149 -0.2 0.968
-47.959 -66.279 -9.453 0.656 -0.512 0.555
-47.808 -66.777 -9.838 0.556 -0.179 0.812
-50.919 -66.475 -11.443 -1 -0.028 0.009
-51.07 -65.976 -11.058 -0.899 -0.36 -0.248
-51.054 -66.439 -12.048 -0.909 -0.051 0.413
-49.699 -67.996 -12.414 -0.389 -0.789 -0.476
-50.023 -67.724 -12.869 -0.173 -0.97 -0.173
-49.75 -67.804 -13.406 -0.355 -0.916 0.185
-50.937 -66.601 -13.759 -0.949 -0.315 0.009
-51.027 -66.708 -13.167 -0.89 -0.244 -0.386
-51.497 -66.189 -14.595 -0.576 -0.59 0.566
-50.665 -67.068 -14.172 -0.813 -0.548 -0.198
-51.225 -66.655 -15.008 -0.439 -0.823 0.36
-51.133 -67.038 -15.448 -0.501 -0.568 0.653
-48.99 -68.14 -12.479 -0.035 -0.86 -0.508
-49.041 -67.948 -13.471 -0.001 -0.988 0.153
-47.969 -68.514 -12.736 -0.716 -0.611 -0.337
-47.988 -67.872 -10.452 0.466 -0.726 0.505
-47.122 -68.287 -11.024 -0.111 -0.449 0.886
-47.377 -67.84 -10.687 0.059 -0.748 0.662
-52.763 -62.128 -16.278 -0.496 0.542 0.678
-53.29 -62.303 -16.672 -0.757 0.177 0.628
-53.241 -62.504 -16.522 -0.79 0.311 0.528
-53.227 -62.692 -16.349 -0.8 0.436 0.413
-53.557 -62.627 -17.113 -0.948 -0.054 0.314
-53.529 -62.853 -16.997 -0.967 0.096 0.236
-53.543 -63.075 -16.87 -0.958 0.244 0.152
-53.591 -62.857 -17.675 -0.972 -0.218 -0.088
-53.565 -63.101 -17.602 -0.989 -0.056 -0.136
-53.582 -63.347 -17.536 -0.978 0.108 -0.181
-53.384 -62.945 -18.24 -0.824 -0.281 -0.492
-53.342 -63.195 -18.211 -0.852 -0.114 -0.511
-53.337 -63.451 -18.205 -0.855 0.056 -0.515
-52.98 -62.872 -18.69 -0.536 -0.229 -0.813
-52.907 -63.117 -18.695 -0.585 -0.066 -0.809
-52.86 -63.365 -18.736 -0.616 0.099 -0.781
-52.465 -62.654 -18.928 -0.168 -0.074 -0.983
-52.352 -62.882 -18.953 -0.243 0.078 -0.967
-52.25 -63.107 -19.019 -0.311 0.228 -0.923
-51.946 -62.337 -18.906 0.203 0.153 -0.967
-51.793 -62.541 -18.929 0.101 0.289 -0.952
-51.636 -62.731 -18.993 -0.004 0.416 -0.909
-51.534 -61.987 -18.628 0.497 0.403 -0.768
-51.349 -62.164 -18.629 0.374 0.52 -0.768
-51.148 -62.317 -18.664 0.24 0.623 -0.745
-51.314 -61.679 -18.152 0.654 0.623 -0.429
-51.112 -61.831 -18.116 0.52 0.725 -0.452
-50.887 -61.952 -18.1 0.37 0.805 -0.463
-51.334 -61.476 -17.579 0.64 0.768 -0.019
-51.133 -61.613 -17.499 0.507 0.859 -0.073
-50.91 -61.712 -17.422 0.358 0.925 -0.124
-51.407 -61.555 -16.906 0.338 0.895 0.292
-51.271 -61.661 -16.349 0.247 0.966 -0.08
-52.281 -61.465 -16.67 -0.036 0.776 0.63
-51.885 -61.699 -16.031 -0.3 0.932 0.204
-51.614 -61.548 -15.307 -0.481 0.832 -0.279
-52.388 -62.133 -15.832 -0.747 0.545 0.381
-51.042 -61.685 -16.218 0.095 0.981 -0.167
-50.523 -61.861 -16.357 0.421 0.871 -0.254
-49.793 -61.929 -15.737 0.59 0.608 -0.531
-49.787 -62.206 -16.279 0.586 0.792 -0.17
-49.494 -61.904 -15.102 0.767 0.623 -0.158
-49.099 -62.13 -14.76 0.503 0.773 -0.385
-49.755 -61.631 -14.657 0.613 0.783 0.104
-49.379 -61.836 -14.282 0.363 0.92 -0.146
-50.142 -61.511 -14.238 0.385 0.854 0.35
-49.796 -61.707 -13.831 0.155 0.985 0.079
-50.611 -61.558 -13.894 0.11 0.826 0.553
-50.3 -61.758 -13.461 -0.097 0.96 0.264
-51.105 -61.766 -13.666 -0.181 0.704 0.687
-50.832 -61.982 -13.215 -0.363 0.848 0.387
-51.567 -62.111 -13.58 -0.453 0.5 0.738
-51.329 -62.353 -13.123 -0.612 0.662 0.433
-51.942 -62.553 -13.646 -0.674 0.241 0.699
-51.732 -62.828 -13.194 -0.814 0.424 0.397
-52.186 -63.038 -13.857 -0.817 -0.045 0.575
-51.995 -63.351 -13.421 -0.945 0.163 0.284
-52.462 -63.055 -14.502 -0.979 -0.055 0.195
-52.657 -63.418 -14.95 -0.849 0.187 0.494
-52.597 -62.738 -15.396 -0.881 0.321 0.349
-52.386 -62.253 -15.596 -0.748 0.625 0.223
-53.148 -63.532 -15.876 -0.761 0.015 0.649
-52.862 -63.63 -15.347 -0.952 0.08 0.296
-53.112 -64.262 -16.031 -0.742 -0.349 0.572
-52.825 -64.36 -15.501 -0.934 -0.284 0.219
-53.372 -64.501 -17.45 -0.872 -0.469 -0.138
-53.211 -64.954 -17.823 -0.98 -0.167 0.111
-53.383 -64.124 -17.95 -0.878 -0.281 -0.388
-53.221 -64.604 -18.288 -0.986 0.039 -0.163
-53.183 -63.757 -18.416 -0.778 -0.097 -0.621
-53.035 -64.263 -18.721 -0.876 0.24 -0.417
-52.795 -63.444 -18.793 -0.584 0.06 -0.81
-52.674 -63.971 -19.072 -0.664 0.412 -0.624
-52.265 -63.219 -19.038 -0.319 0.172 -0.932
-52.181 -63.763 -19.299 -0.374 0.534 -0.758
-51.654 -63.111 -19.122 -0.014 0.226 -0.974
-51.614 -63.662 -19.377 -0.041 0.594 -0.804
-51.035 -63.131 -19.035 0.296 0.216 -0.93
-51.038 -63.681 -19.296 0.298 0.583 -0.756
-50.479 -63.277 -18.787 0.574 0.143 -0.806
-50.522 -63.816 -19.066 0.602 0.503 -0.62
-49.797 -62.859 -17.566 0.915 0.352 -0.196
-49.51 -62.957 -17.037 0.724 0.417 -0.549
-50.121 -62.252 -17.279 0.753 0.656 -0.052
-49.834 -62.349 -16.749 0.562 0.721 -0.406
-49.509 -64.161 -17.545 0.824 0.381 -0.419
-49.503 -64.167 -17.538 0.828 0.378 -0.415
-49.146 -63.461 -16.716 0.906 0.165 -0.389
-48.883 -63.983 -16.626 0.731 0.513 -0.449
-48.041 -63.966 -14.87 0.519 0.392 -0.759
-48.298 -63.047 -14.57 0.903 0.315 -0.291
-47.875 -63.548 -14.348 0.621 0.649 -0.439
-47.254 -63.841 -14.266 0.207 0.845 -0.493
-48.315 -62.795 -13.856 0.895 0.441 0.066
-47.89 -63.319 -13.698 0.612 0.79 -0.039
-47.27 -63.59 -13.553 0.199 0.971 -0.136
-48.084 -63.321 -13.037 0.493 0.789 0.367
-48.54 -63.044 -12.483 0.797 0.604 -0.002
-49.158 -62.32 -12.865 0.473 0.678 0.562
-49.059 -62.651 -12.265 0.407 0.899 0.162
-48.83 -62.694 -11.613 0.255 0.928 -0.273
-49.944 -62.251 -12.596 0.08 0.713 0.697
-49.706 -62.594 -12.043 -0.078 0.941 0.328
-49.494 -62.636 -11.385 -0.22 0.969 -0.11
-50.67 -62.61 -12.395 -0.282 0.534 0.797
-50.304 -62.889 -11.878 -0.526 0.72 0.452
-50.107 -62.939 -11.216 -0.658 0.753 0.011
-50.688 -63.455 -11.814 -0.814 0.296 0.5
-50.768 -63.759 -11.687 -0.761 0.498 0.415
-51.459 -63.958 -12.544 -0.677 -0.141 0.722
-51.042 -64.322 -11.879 -0.955 0.102 0.279
-51.102 -64.634 -11.075 -0.915 0.31 -0.257
-51.028 -64.915 -12.156 -0.945 -0.317 0.084
-51.099 -65.261 -12.679 -0.897 -0.086 0.433
-51.168 -65.555 -13.244 -0.95 -0.312 -0
-52.466 -64.864 -15.181 -0.754 -0.537 0.378
-52.204 -65.386 -15.091 -0.929 -0.189 0.318
-52.427 -65.403 -16.186 -0.866 -0.338 0.368
-52.432 -65.398 -16.192 -0.869 -0.335 0.365
-51.717 -67.314 -16.613 -0.405 -0.733 0.546
-51.367 -67.316 -16.153 -0.639 -0.731 0.239
-51.881 -67.504 -17.155 -0.487 -0.829 0.275
-51.828 -67.833 -17.636 -0.523 -0.609 0.596
-52.43 -67.127 -17.514 -0.762 -0.64 0.096
-52.339 -67.483 -17.97 -0.823 -0.403 0.4
-52.722 -66.63 -18.004 -0.908 -0.391 -0.149
-52.61 -67.02 -18.426 -0.983 -0.131 0.132
-52.891 -66.023 -17.871 -0.993 -0.088 -0.083
-53.051 -65.459 -18.003 -0.886 -0.464 0.005
-52.607 -65.28 -19.19 -0.625 -0.359 -0.693
-52.324 -66.277 -19.489 -0.814 0.306 -0.494
-52.116 -65.025 -19.573 -0.336 -0.209 -0.919
-51.832 -66.022 -19.872 -0.525 0.456 -0.719
-51.492 -64.808 -19.705 0.031 -0.081 -0.996
-51.209 -65.805 -20.004 -0.158 0.584 -0.797
-50.403 -64.338 -19.226 0.672 0.196 -0.714
-50.043 -64.817 -19.186 0.432 0.515 -0.741
-49.836 -65.408 -19.336 0.535 0.22 -0.816
-49.927 -65.884 -19.665 0.596 0.537 -0.597
-49.335 -65.817 -18.943 0.785 0.015 -0.619
-49.462 -66.264 -19.299 0.87 0.313 -0.382
-49.108 -66.33 -18.435 0.899 -0.241 -0.365
-49.25 -66.741 -18.827 0.994 0.033 -0.104
-48.937 -66.138 -17.898 0.985 -0.146 -0.096
-48.782 -66.223 -17.347 0.882 -0.089 -0.464
-48.056 -65.553 -15.605 0.642 -0.191 -0.743
-48.423 -64.739 -16.206 0.962 0.135 -0.239
-48 -64.906 -15.528 0.68 0.246 -0.691
-47.275 -64.963 -15.157 0.196 0.284 -0.938
-48.14 -64.329 -15.252 0.585 0.635 -0.505
-47.962 -65.782 -15.497 0.579 -0.038 -0.814
-48.408 -65.868 -15.997 0.877 0.019 -0.481
-47.958 -65.921 -15.478 0.583 -0.154 -0.798
-48.404 -66.003 -15.978 0.88 -0.1 -0.464
-47.215 -66.632 -14.887 0.226 -0.55 -0.804
-47.803 -66.821 -15.1 0.618 -0.424 -0.662
-47.111 -67.558 -13.865 0.12 -0.6 -0.791
-46.434 -66.856 -14.128 0.617 -0.663 -0.424
-46.414 -67.261 -13.724 0.604 -0.393 -0.693
-46.262 -67.751 -13.472 0.503 -0.066 -0.862
-45.951 -66.878 -13.241 0.925 -0.127 -0.358
-45.697 -65.869 -13.245 0.985 -0.169 0.018
-45.623 -66.217 -12.7 0.936 0.064 -0.345
-45.719 -65.316 -12.887 0.975 0.108 0.196
-45.645 -65.665 -12.343 0.925 0.34 -0.167
-45.957 -64.814 -12.534 0.856 0.359 0.373
-45.883 -65.163 -11.989 0.806 0.591 0.01
-46.384 -64.42 -12.223 0.642 0.555 0.528
-46.31 -64.769 -11.679 0.593 0.788 0.166
-47.523 -63.976 -11.629 0.739 0.541 0.402
-47.958 -63.495 -12.312 0.409 0.905 -0.116
-47.483 -64.174 -11.323 0.713 0.673 0.198
-47.485 -64.21 -11.219 0.711 0.646 0.278
-48.129 -63.366 -10.561 0.755 0.448 0.479
-47.971 -63.792 -10.151 0.65 0.732 0.206
-48.61 -63.171 -10.255 0.412 0.587 0.697
-48.54 -63.561 -9.789 0.365 0.847 0.387
-49.199 -63.085 -10.166 -0.009 0.649 0.761
-49.238 -63.459 -9.683 0.017 0.898 0.439
-49.782 -63.122 -10.311 -0.426 0.622 0.657
-49.928 -63.503 -9.855 -0.328 0.876 0.353
-50.246 -63.277 -10.662 -0.757 0.511 0.406
-50.477 -63.686 -10.271 -0.603 0.784 0.146
-47.457 -64.508 -10.171 0.907 0.373 0.196
-46.697 -64.975 -10.791 0.4 0.685 0.609
-47.453 -65.057 -9.752 0.909 0.099 0.405
-46.692 -65.524 -10.373 0.402 0.411 0.819
-47.628 -65.675 -9.502 0.821 -0.21 0.53
-46.867 -66.142 -10.122 0.314 0.101 0.944
-48.48 -66.57 -9.279 0.396 -0.657 0.641
-48.329 -67.069 -9.665 0.295 -0.325 0.898
-49.071 -66.762 -9.262 0.1 -0.753 0.65
-48.921 -67.26 -9.648 -0 -0.421 0.907
-49.672 -66.834 -9.402 -0.201 -0.79 0.58
-49.522 -67.333 -9.788 -0.301 -0.457 0.837
-50.222 -66.781 -9.686 -0.476 -0.763 0.438
-50.072 -67.28 -10.072 -0.576 -0.43 0.695
-50.666 -66.606 -10.085 -0.698 -0.676 0.238
-50.516 -67.105 -10.471 -0.798 -0.343 0.496
-50.959 -66.328 -10.558 -0.844 -0.537 0.002
-50.808 -66.827 -10.944 -0.944 -0.204 0.259
-50.907 -67.074 -12.186 -0.804 -0.505 0.314
-50.744 -67.226 -11.606 -0.912 -0.403 -0.072
-50.533 -67.539 -12.483 -0.537 -0.837 0.102
-50.303 -67.776 -11.958 -0.691 -0.679 -0.248
-50.632 -67.356 -13.134 -0.608 -0.706 -0.363
-50.47 -67.368 -13.721 -0.715 -0.698 0.028
-51.065 -66.336 -13.905 -0.864 -0.491 0.106
-51.167 -65.871 -13.683 -0.951 -0.101 0.293
-50.779 -66.951 -14.852 -0.737 -0.626 0.256
-50.682 -67.442 -15.635 -0.236 -0.805 0.544
-50.358 -67.329 -15.026 -0.452 -0.881 0.138
-50.18 -67.503 -14.373 -0.571 -0.765 -0.298
-50.125 -67.622 -15.877 0.092 -0.911 0.401
-49.837 -67.497 -15.253 -0.101 -0.995 -0.015
-49.581 -67.696 -14.633 -0.271 -0.862 -0.428
-49.552 -67.549 -16.136 0.429 -0.868 0.249
-49.301 -67.429 -15.494 0.261 -0.949 -0.178
-48.965 -67.618 -14.911 0.037 -0.823 -0.567
-49.055 -67.235 -16.369 0.721 -0.683 0.112
-48.836 -67.135 -15.713 0.576 -0.75 -0.326
-48.429 -67.279 -15.162 0.305 -0.654 -0.693
-48.713 -66.73 -16.54 0.922 -0.386 0.011
-48.517 -66.663 -15.872 0.791 -0.431 -0.434
-48.062 -66.736 -15.346 0.488 -0.382 -0.785
-48.395 -66.088 -15.948 0.874 -0.043 -0.485
-48.433 -68.07 -13.085 -0.407 -0.907 -0.104
-48.481 -67.858 -14.139 0.279 -0.943 -0.181
-47.978 -67.996 -13.627 -0.056 -0.851 -0.522
-47.495 -68.437 -13.301 -0.378 -0.557 -0.74
-47.454 -67.619 -13.924 0.349 -0.559 -0.752
-48.436 -68.241 -12.558 -0.405 -0.793 -0.455
-47.841 -68.736 -12.083 -0.625 -0.77 0.13
-48.306 -68.466 -11.895 -0.315 -0.949 0.004
-48.839 -68.402 -11.706 0.04 -0.992 -0.122
-47.532 -68.653 -11.459 -0.405 -0.711 0.576
-47.992 -68.383 -11.261 -0.098 -0.891 0.443
-48.474 -68.305 -10.967 0.223 -0.943 0.247
-47.575 -68.011 -10.819 0.191 -0.634 0.75
-46.522 -68.051 -10.997 0.317 -0.28 0.906
-46.668 -67.56 -10.654 0.414 -0.607 0.678
-45.997 -67.787 -11.263 0.692 -0.092 0.716
-46.046 -67.248 -10.969 0.725 -0.451 0.52
-45.663 -67.555 -11.763 0.931 0.074 0.358
-45.651 -66.973 -11.562 0.923 -0.314 0.224
-45.594 -67.406 -12.387 0.98 0.18 -0.087
-45.569 -66.797 -12.3 0.963 -0.226 -0.145
-47.252 -67.346 -10.296 0.122 -0.5 0.857
-47.863 -67.378 -10.061 0.529 -0.479 0.701
-49.302 -67.352 -17.102 0.576 -0.753 -0.319
-49.611 -67.692 -18.082 0.782 -0.526 0.334
-49.746 -67.659 -16.856 0.315 -0.933 -0.174
-50.055 -67.999 -17.836 0.521 -0.707 0.479
-50.29 -67.771 -16.646 -0.005 -0.999 -0.051
-50.599 -68.11 -17.626 0.201 -0.772 0.602
-50.945 -65.39 -12.03 -1 0 0
-51.918 -61.186 -17.552 0.223 0.975 0
-51.918 -61.7 -18.619 0.223 0.608 -0.762
-51.918 -61.321 -18.144 0.223 0.878 -0.423
-52.542 -61.186 -17.552 -0.223 0.975 0
-52.542 -61.321 -16.96 -0.223 0.878 0.423
-52.542 -62.247 -18.883 -0.223 0.217 -0.95
-52.542 -61.7 -18.619 -0.223 0.608 -0.762
-52.542 -61.321 -18.144 -0.223 0.878 -0.423
-53.103 -61.456 -17.552 -0.623 0.782 0
-53.103 -61.63 -16.96 -0.623 0.658 0.423
-53.103 -62.096 -18.548 -0.623 0.325 -0.711
-53.103 -61.63 -18.144 -0.623 0.658 -0.423
-53.491 -61.944 -17.552 -0.901 0.434 0
-53.491 -62.247 -18.078 -0.901 0.217 -0.376
-50.009 -62.975 -18.192 0.809 0.294 -0.509
-50.009 -62.545 -17.762 0.809 0.509 -0.294
-50.451 -62.944 -18.669 0.588 0.31 -0.747
-50.451 -62.419 -18.318 0.588 0.572 -0.572
-50.451 -62.068 -17.793 0.588 0.747 -0.31
-53.245 -62.975 -16.156 -0.809 0.294 0.509
-53.245 -64.581 -16.586 -0.809 -0.509 0.294
-53.529 -63.872 -16.639 -0.951 -0.155 0.268
-53.529 -64.181 -17.174 -0.951 -0.309 -0
-53.529 -63.872 -17.709 -0.951 -0.155 -0.268
-49.947 -61.49 -14.834 0.5 0.866 0
-49.947 -61.617 -15.433 0.5 0.791 -0.352
-50.502 -61.288 -14.834 0.174 0.985 0
-50.502 -61.401 -15.439 0.174 0.918 -0.356
-51.092 -61.288 -14.834 -0.174 0.985 0
-51.092 -61.401 -14.229 -0.174 0.918 0.356
-51.647 -61.49 -14.834 -0.5 0.866 0
-51.647 -61.617 -14.235 -0.5 0.791 0.352
-52.099 -62.043 -14.243 -0.766 0.541 0.348
-52.394 -62.671 -14.33 -0.94 0.171 0.296
-49.34 -62.773 -16.526 0.809 0.509 -0.294
-48.487 -62.501 -13.989 0.809 0.588 0
-48.487 -62.659 -14.577 0.809 0.509 -0.294
-48.929 -62.059 -13.989 0.588 0.809 0
-48.929 -62.182 -13.37 0.588 0.747 0.31
-49.487 -61.878 -13.371 0.309 0.9 0.309
-50.105 -62.025 -12.862 -0 0.826 0.563
-50.723 -62.176 -12.821 -0.309 0.751 0.584
-51.723 -63.677 -12.813 -0.809 -0 0.588
-51.723 -64.265 -12.971 -0.809 -0.294 0.509
-52.007 -63.986 -13.454 -0.951 -0.155 0.268
-52.576 -64.379 -14.92 -0.809 -0.294 0.509
-52.524 -66.435 -16.687 -0.809 -0.294 0.509
-52.524 -66.865 -17.117 -0.809 -0.509 0.294
-52.808 -66.156 -17.17 -0.951 -0.155 0.268
-52.808 -66.465 -17.705 -0.951 -0.309 -0
-51.25 -63.925 -19.51 0.174 0.439 -0.882
-51.84 -64.517 -19.678 -0.174 0.091 -0.981
-52.395 -64.216 -19.411 -0.5 0.268 -0.824
-52.847 -64.827 -19.093 -0.766 -0.091 -0.636
-53.142 -64.962 -18.515 -0.94 -0.171 -0.296
-49.004 -65.538 -18.24 0.951 0.155 -0.268
-49.288 -65.259 -18.723 0.809 0.294 -0.509
-49.288 -64.829 -18.293 0.809 0.509 -0.294
-48.728 -64.421 -16.746 0.809 0.294 -0.509
-45.766 -64.913 -13.28 0.951 0.309 0
-45.766 -65.84 -13.815 0.951 -0.155 -0.268
-45.766 -65.222 -13.815 0.951 0.155 -0.268
-46.05 -64.355 -13.28 0.809 0.588 0
-46.05 -66.119 -14.298 0.809 -0.294 -0.509
-46.05 -65.531 -14.456 0.809 -0 -0.588
-46.05 -64.943 -14.298 0.809 0.294 -0.509
-46.05 -64.513 -13.868 0.809 0.509 -0.294
-46.492 -63.913 -13.28 0.588 0.809 0
-46.492 -64.036 -12.661 0.588 0.747 0.31
-46.492 -66.675 -14.424 0.588 -0.572 -0.572
-46.492 -66.15 -14.775 0.588 -0.31 -0.747
-46.492 -65.531 -14.898 0.588 0 -0.809
-46.492 -64.912 -14.775 0.588 0.31 -0.747
-46.492 -64.387 -14.424 0.588 0.572 -0.572
-46.492 -64.036 -13.899 0.588 0.747 -0.31
-48.313 -62.898 -11.231 0.623 0.782 0
-48.874 -62.628 -11.231 0.223 0.975 0
-48.874 -62.763 -10.639 0.223 0.878 0.423
-49.498 -62.763 -10.639 -0.223 0.878 0.423
-47.653 -64.237 -9.974 0.809 0.509 0.294
-47.653 -64.667 -9.544 0.809 0.294 0.509
-48.095 -64.111 -9.418 0.588 0.572 0.572
-48.095 -64.636 -9.067 0.588 0.31 0.747
-48.095 -65.255 -8.944 0.588 -0 0.809
-48.095 -65.874 -9.067 0.588 -0.31 0.747
-48.653 -63.754 -9.394 0.309 0.751 0.584
-48.653 -64.215 -8.97 0.309 0.52 0.796
-48.653 -64.788 -8.718 0.309 0.233 0.922
-48.653 -65.412 -8.666 0.309 -0.079 0.948
-48.653 -66.019 -8.82 0.309 -0.382 0.871
-49.271 -64.008 -8.998 -0 0.623 0.782
-49.271 -64.524 -8.7 -0 0.365 0.931
-49.271 -65.106 -8.568 -0 0.075 0.997
-49.271 -65.7 -8.612 -0 -0.223 0.975
-49.271 -66.255 -8.83 -0 -0.5 0.866
-49.889 -63.754 -9.394 -0.309 0.751 0.584
-49.889 -64.215 -8.97 -0.309 0.52 0.796
-49.889 -64.788 -8.718 -0.309 0.233 0.922
-49.889 -65.412 -8.666 -0.309 -0.079 0.948
-49.889 -66.019 -8.82 -0.309 -0.382 0.871
-49.889 -66.543 -9.163 -0.309 -0.644 0.7
-50.447 -64.111 -9.418 -0.588 0.572 0.572
-50.447 -64.636 -9.067 -0.588 0.31 0.747
-50.447 -65.255 -8.944 -0.588 -0 0.809
-50.447 -65.874 -9.067 -0.588 -0.31 0.747
-50.447 -66.399 -9.418 -0.588 -0.572 0.572
-50.889 -64.237 -9.974 -0.809 0.509 0.294
-50.889 -64.667 -9.544 -0.809 0.294 0.509
-50.889 -65.255 -9.386 -0.809 -0 0.588
-50.889 -65.843 -9.544 -0.809 -0.294 0.509
-50.889 -66.273 -9.974 -0.809 -0.509 0.294
-51.173 -64.637 -10.562 -0.951 0.309 0
-51.173 -64.946 -10.027 -0.951 0.155 0.268
-51.173 -65.564 -10.027 -0.951 -0.155 0.268
-51.173 -65.873 -10.562 -0.951 -0.309 -0
-51.271 -65.255 -10.562 -1 -0 -0
-51.042 -66.974 -12.626 -0.901 -0.434 -0
-51.964 -65.597 -14.71 -0.809 -0.294 0.509
-51.964 -66.027 -15.14 -0.809 -0.509 0.294
-48.684 -66.364 -17.063 0.94 -0.171 -0.296
-48.979 -67.121 -16.867 0.766 -0.617 -0.181
-49.343 -67.378 -18.65 0.94 -0.342 -0
-49.343 -67.088 -19.154 0.94 -0.171 -0.296
-49.638 -67.845 -18.958 0.766 -0.617 -0.181
-49.638 -67.513 -19.476 0.766 -0.421 -0.486
-49.638 -66.953 -19.732 0.766 -0.091 -0.636
-49.638 -66.343 -19.644 0.766 0.267 -0.585
-50.09 -68.237 -18.344 0.5 -0.847 0.18
-50.09 -68.237 -18.956 0.5 -0.847 -0.18
-50.09 -67.988 -19.515 0.5 -0.701 -0.509
-50.09 -67.533 -19.925 0.5 -0.433 -0.75
-50.09 -66.951 -20.114 0.5 -0.091 -0.861
-50.09 -66.342 -20.05 0.5 0.268 -0.824
-50.645 -68.443 -18.342 0.174 -0.968 0.181
-50.645 -68.443 -18.958 0.174 -0.968 -0.181
-50.645 -68.22 -19.531 0.174 -0.837 -0.518
-50.645 -67.806 -19.986 0.174 -0.593 -0.786
-50.645 -67.255 -20.26 0.174 -0.27 -0.947
-50.645 -66.643 -20.317 0.174 0.091 -0.981
-50.645 -66.051 -20.149 0.174 0.439 -0.882
-51.235 -68.22 -17.769 -0.174 -0.837 0.518
-51.235 -68.443 -18.342 -0.174 -0.968 0.181
-51.235 -68.443 -18.958 -0.174 -0.968 -0.181
-51.235 -68.22 -19.531 -0.174 -0.837 -0.518
-51.235 -67.806 -19.986 -0.174 -0.593 -0.786
-51.235 -67.255 -20.26 -0.174 -0.27 -0.947
-51.235 -66.643 -20.317 -0.174 0.091 -0.981
-51.79 -68.237 -18.344 -0.5 -0.847 0.18
-51.79 -68.237 -18.956 -0.5 -0.847 -0.18
-51.79 -67.988 -19.515 -0.5 -0.701 -0.509
-51.79 -67.533 -19.925 -0.5 -0.433 -0.75
-51.79 -66.951 -20.114 -0.5 -0.091 -0.861
-51.79 -66.342 -20.05 -0.5 0.268 -0.824
-52.242 -67.845 -18.342 -0.766 -0.617 0.181
-52.242 -67.845 -18.958 -0.766 -0.617 -0.181
-52.242 -67.513 -19.476 -0.766 -0.421 -0.486
-52.242 -66.953 -19.732 -0.766 -0.091 -0.636
-52.537 -67.378 -18.65 -0.94 -0.342 -0
-52.537 -67.088 -19.154 -0.94 -0.171 -0.296
-48.421 -67.645 -14.682 0.309 -0.836 -0.453
-49.039 -67.95 -14.075 -0 -0.989 -0.149
-49.657 -67.848 -14.09 -0.309 -0.938 -0.157
-45.705 -67.962 -11.739 0.901 -0.217 0.376
-45.705 -68.265 -12.265 0.901 -0.434 -0
-45.705 -67.962 -12.791 0.901 -0.217 -0.376
-46.093 -68.375 -11.438 0.623 -0.512 0.591
-46.093 -68.708 -11.957 0.623 -0.75 0.22
-46.093 -68.708 -12.573 0.623 -0.75 -0.22
-46.093 -68.375 -13.092 0.623 -0.512 -0.591
-46.654 -68.509 -11.198 0.223 -0.608 0.762
-46.654 -68.888 -11.673 0.223 -0.878 0.423
-46.654 -69.023 -12.265 0.223 -0.975 0
-46.654 -68.888 -12.857 0.223 -0.878 -0.423
-46.654 -68.509 -13.332 0.223 -0.608 -0.762
-47.278 -68.888 -11.673 -0.223 -0.878 0.423
-47.278 -69.023 -12.265 -0.223 -0.975 0
-47.278 -68.888 -12.857 -0.223 -0.878 -0.423
-45.496 -66.345 -12.01 1 0 0
-45.594 -65.727 -12.01 0.951 0.309 0
-45.594 -66.036 -11.475 0.951 0.155 0.268
-45.594 -66.654 -11.475 0.951 -0.155 0.268
-45.878 -65.327 -11.422 0.809 0.509 0.294
-45.878 -65.757 -10.992 0.809 0.294 0.509
-45.878 -66.345 -10.834 0.809 -0 0.588
-46.32 -65.201 -10.866 0.588 0.572 0.572
-46.32 -65.726 -10.515 0.588 0.31 0.747
-46.32 -66.345 -10.392 0.588 -0 0.809
-46.32 -66.964 -10.515 0.588 -0.31 0.747
-46.878 -67.109 -10.268 0.309 -0.382 0.871
-48.302 -67.707 -10.063 0.309 -0.644 0.7
-48.92 -67.885 -10.102 -0 -0.733 0.68
-48.92 -68.221 -10.594 -0 -0.901 0.434
-49.538 -67.707 -10.063 -0.309 -0.644 0.7
-49.538 -68.092 -10.557 -0.309 -0.836 0.453
-49.538 -68.295 -11.149 -0.309 -0.938 0.157
-49.538 -68.295 -11.775 -0.309 -0.938 -0.157
-50.096 -67.563 -10.318 -0.588 -0.572 0.572
-50.096 -67.914 -10.843 -0.588 -0.747 0.31
-50.096 -68.037 -11.462 -0.588 -0.809 0
-50.538 -67.437 -10.874 -0.809 -0.509 0.294
3 0 115 114
3 114 115 116
3 114 116 1
3 1 116 117
3 115 118 116
3 116 118 119
3 116 119 117
3 117 119 120
3 118 121 119
3 119 121 122
3 119 122 120
3 120 122 123
3 121 124 122
3 122 124 125
3 122 125 123
3 123 125 126
3 124 127 125
3 125 127 128
3 125 128 126
3 126 128 129
3 127 130 128
3 128 130 131
3 128 131 129
3 129 131 132
3 130 133 131
3 131 133 134
3 131 134 132
3 132 134 135
3 133 136 134
3 134 136 137
3 134 137 135
3 135 137 138
3 136 139 137
3 137 139 140
3 137 140 138
3 138 140 141
3 139 142 140
3 140 142 143
3 140 143 141
3 141 143 144
3 142 4 143
3 143 4 145
3 143 145 144
3 144 145 3
3 4 147 146
3 146 147 148
3 146 148 5
3 5 148 149
3 147 0 148
3 148 0 150
3 148 150 149
3 149 150 2
3 5 7 151
3 151 7 152
3 151 152 3
3 3 152 6
3 7 153 8
3 8 153 154
3 153 10 154
3 154 10 9
3 10 155 11
3 11 155 156
3 155 157 156
3 156 157 158
3 157 159 158
3 158 159 160
3 159 161 160
3 160 161 162
3 161 163 162
3 162 163 164
3 163 165 164
3 164 165 166
3 165 167 166
3 166 167 168
3 167 169 168
3 168 169 170
3 169 13 170
3 170 13 12
3 13 171 14
3 14 171 172
3 171 16 172
3 172 16 15
3 16 2 173
3 173 2 174
3 173 174 17
3 17 174 1
3 17 175 15
3 15 175 176
3 175 177 176
3 176 177 178
3 177 19 178
3 178 19 18
3 19 22 20
3 20 22 21
3 22 179 23
3 23 179 180
3 179 181 180
3 180 181 182
3 181 183 182
3 182 183 184
3 183 185 184
3 184 185 186
3 185 187 186
3 186 187 188
3 187 189 188
3 188 189 190
3 189 191 190
3 190 191 192
3 191 193 192
3 192 193 194
3 193 25 194
3 194 25 24
3 25 28 26
3 26 28 27
3 28 195 29
3 29 195 196
3 195 197 196
3 196 197 198
3 197 6 198
3 198 6 8
3 29 31 199
3 199 31 200
3 199 200 27
3 27 200 30
3 31 201 32
3 32 201 202
3 201 34 202
3 202 34 33
3 34 9 35
3 35 9 11
3 35 37 33
3 33 37 36
3 37 204 203
3 203 204 205
3 203 205 38
3 38 205 206
3 204 207 205
3 205 207 208
3 205 208 206
3 206 208 209
3 207 40 208
3 208 40 210
3 208 210 209
3 209 210 39
3 40 212 211
3 211 212 213
3 211 213 41
3 41 213 214
3 212 215 213
3 213 215 216
3 213 216 214
3 214 216 217
3 215 218 216
3 216 218 219
3 216 219 217
3 217 219 220
3 218 43 219
3 219 43 221
3 219 221 220
3 220 221 42
3 43 223 222
3 222 223 224
3 222 224 44
3 44 224 225
3 223 46 224
3 224 46 226
3 224 226 225
3 225 226 45
3 46 49 227
3 227 49 228
3 227 228 47
3 47 228 48
3 49 52 50
3 50 52 51
3 52 12 53
3 53 12 14
3 53 229 51
3 51 229 230
3 229 55 230
3 230 55 54
3 55 18 231
3 231 18 232
3 231 232 56
3 56 232 20
3 56 58 54
3 54 58 57
3 58 233 59
3 59 233 234
3 233 61 234
3 234 61 60
3 61 235 62
3 62 235 236
3 235 237 236
3 236 237 238
3 237 239 238
3 238 239 240
3 239 64 240
3 240 64 63
3 64 241 65
3 65 241 242
3 241 21 242
3 242 21 23
3 65 243 63
3 63 243 244
3 243 245 244
3 244 245 246
3 245 247 246
3 246 247 248
3 247 67 248
3 248 67 66
3 67 249 68
3 68 249 250
3 249 24 250
3 250 24 26
3 68 251 66
3 66 251 252
3 251 253 252
3 252 253 254
3 253 255 254
3 254 255 256
3 255 70 256
3 256 70 69
3 70 257 71
3 71 257 258
3 257 73 258
3 258 73 72
3 73 30 74
3 74 30 32
3 74 76 72
3 72 76 75
3 76 260 259
3 259 260 261
3 259 261 77
3 77 261 262
3 260 36 261
3 261 36 263
3 261 263 262
3 262 263 38
3 77 79 264
3 264 79 266
3 264 266 265
3 265 266 267
3 265 267 75
3 75 267 78
3 79 268 80
3 80 268 269
3 268 82 269
3 269 82 81
3 82 271 270
3 270 271 272
3 270 272 83
3 83 272 273
3 271 85 272
3 272 85 274
3 272 274 273
3 273 274 84
3 85 275 86
3 86 275 276
3 275 277 276
3 276 277 278
3 277 279 278
3 278 279 280
3 279 281 280
3 280 281 282
3 281 88 282
3 282 88 87
3 88 39 283
3 283 39 284
3 283 284 89
3 89 284 41
3 89 91 285
3 285 91 286
3 285 286 87
3 87 286 90
3 91 287 92
3 92 287 288
3 287 289 288
3 288 289 290
3 289 291 290
3 290 291 292
3 291 293 292
3 292 293 294
3 293 295 294
3 294 295 296
3 295 42 296
3 296 42 44
3 92 297 90
3 90 297 298
3 297 299 298
3 298 299 300
3 299 301 300
3 300 301 302
3 301 94 302
3 302 94 93
3 94 303 95
3 95 303 304
3 303 305 304
3 304 305 306
3 305 307 306
3 306 307 308
3 307 309 308
3 308 309 310
3 309 311 310
3 310 311 312
3 311 313 312
3 312 313 314
3 313 97 314
3 314 97 96
3 97 45 98
3 98 45 47
3 98 315 96
3 96 315 316
3 315 317 316
3 316 317 318
3 317 100 318
3 318 100 99
3 100 319 101
3 101 319 320
3 319 103 320
3 320 103 102
3 103 48 321
3 321 48 322
3 321 322 104
3 104 322 50
3 104 106 102
3 102 106 105
3 106 57 107
3 107 57 59
3 107 324 323
3 323 324 325
3 323 325 105
3 105 325 326
3 324 327 325
3 325 327 328
3 325 328 326
3 326 328 329
3 327 330 328
3 328 330 331
3 328 331 329
3 329 331 332
3 330 333 331
3 331 333 334
3 331 334 332
3 332 334 335
3 333 336 334
3 334 336 337
3 334 337 335
3 335 337 338
3 336 78 337
3 337 78 339
3 337 339 338
3 338 339 80
3 101 109 99
3 99 109 108
3 109 341 340
3 340 341 342
3 340 342 110
3 110 342 343
3 341 81 342
3 342 81 344
3 342 344 343
3 343 344 83
3 110 346 345
3 345 346 347
3 345 347 108
3 108 347 348
3 346 349 347
3 347 349 350
3 347 350 348
3 348 350 351
3 349 112 350
3 350 112 352
3 350 352 351
3 351 352 111
3 112 353 113
3 113 353 354
3 353 355 354
3 354 355 356
3 355 357 356
3 356 357 358
3 357 359 358
3 358 359 360
3 359 84 360
3 360 84 86
3 113 361 111
3 111 361 362
3 361 93 362
3 362 93 95
3 71 363 69
3 69 363 364
3 363 365 364
3 364 365 366
3 365 367 366
3 366 367 368
3 367 60 368
3 368 60 62
3 150 0 114
3 150 114 1
3 150 1 174
3 150 174 2
3 151 3 146
3 151 146 5
3 146 3 145
3 146 145 4
3 8 6 152
3 8 152 7
3 11 9 10
3 14 12 13
3 17 15 173
3 173 15 16
3 232 18 19
3 232 19 20
3 23 21 22
3 26 24 25
3 199 27 28
3 199 28 29
3 32 30 200
3 32 200 31
3 35 33 34
3 263 36 37
3 263 37 203
3 263 203 38
3 284 39 210
3 284 210 211
3 284 211 41
3 211 210 40
3 44 42 222
3 222 42 221
3 222 221 43
3 47 45 369
3 47 369 227
3 227 369 226
3 227 226 46
3 226 369 45
3 322 48 228
3 322 228 49
3 322 49 50
3 53 51 52
3 56 54 231
3 231 54 55
3 59 57 58
3 62 60 61
3 65 63 64
3 68 66 67
3 71 69 70
3 74 72 73
3 265 75 76
3 265 76 259
3 265 259 264
3 264 259 77
3 339 78 267
3 339 267 266
3 339 266 80
3 80 266 79
3 344 81 82
3 344 82 270
3 344 270 83
3 86 84 274
3 86 274 85
3 285 87 88
3 285 88 283
3 285 283 89
3 92 90 286
3 92 286 91
3 95 93 94
3 98 96 97
3 101 99 100
3 104 102 321
3 321 102 103
3 323 105 106
3 323 106 107
3 345 108 340
3 345 340 110
3 340 108 109
3 113 111 352
3 113 352 112
3 371 376 377
3 372 371 377
3 370 372 377
3 370 377 373
3 370 373 374
3 374 373 378
3 374 378 379
3 376 375 380
3 376 380 381
3 377 376 381
3 378 377 381
3 373 377 378
3 379 378 382
3 381 380 383
3 382 381 383
3 378 381 382
3 382 383 121
3 382 121 118
3 382 118 115
3 382 115 379
3 379 115 0
3 379 0 374
3 374 0 147
3 374 147 4
3 374 4 370
3 370 4 142
3 370 142 372
3 372 142 139
3 372 139 371
3 371 139 136
3 371 136 133
3 371 133 375
3 371 375 376
3 375 133 130
3 375 130 127
3 375 127 380
3 380 127 124
3 380 124 383
3 383 124 121
3 384 386 387
3 385 384 387
3 385 387 388
3 390 391 392
3 390 392 22
3 390 22 19
3 390 19 177
3 390 177 391
3 391 177 175
3 391 175 389
3 391 389 120
3 391 120 123
3 391 123 392
3 392 123 393
3 392 393 179
3 392 179 22
3 179 393 181
3 181 393 126
3 181 126 183
3 183 126 129
3 183 129 185
3 185 129 132
3 185 132 187
3 187 132 189
3 189 132 135
3 189 135 191
3 191 135 138
3 191 138 386
3 191 386 193
3 193 386 25
3 25 386 384
3 25 384 28
3 28 384 195
3 195 384 385
3 195 385 197
3 197 385 388
3 197 388 6
3 6 388 144
3 6 144 3
3 144 388 141
3 141 388 387
3 141 387 138
3 138 387 386
3 126 393 123
3 120 389 117
3 117 389 17
3 117 17 1
3 17 389 175
3 394 395 397
3 394 397 396
3 396 398 399
3 399 398 400
3 399 400 401
3 399 401 163
3 399 163 161
3 399 161 396
3 396 161 159
3 396 159 394
3 394 159 157
3 394 157 155
3 394 155 395
3 395 155 153
3 395 153 7
3 395 7 397
3 397 7 5
3 397 5 398
3 397 398 396
3 398 5 149
3 398 149 400
3 400 149 2
3 400 2 402
3 400 402 401
3 401 402 165
3 401 165 163
3 165 402 167
3 167 402 403
3 167 403 169
3 169 403 171
3 169 171 13
3 171 403 16
3 16 403 402
3 16 402 2
3 153 155 10
3 31 29 201
3 9 34 404
3 9 404 154
3 154 404 198
3 154 198 8
3 198 404 196
3 196 404 201
3 196 201 29
3 201 404 34
3 405 407 408
3 408 407 409
3 413 412 414
3 413 414 52
3 413 52 49
3 413 49 46
3 413 46 223
3 413 223 412
3 412 223 43
3 412 43 168
3 412 168 170
3 412 170 414
3 414 170 12
3 414 12 52
3 168 43 166
3 166 43 218
3 166 218 411
3 166 411 164
3 164 411 410
3 164 410 162
3 162 410 409
3 162 409 160
3 160 409 158
3 158 409 407
3 158 407 156
3 156 407 406
3 156 406 11
3 11 406 35
3 35 406 204
3 35 204 37
3 204 406 207
3 207 406 405
3 207 405 40
3 40 405 408
3 40 408 212
3 212 408 409
3 212 409 215
3 215 409 410
3 215 410 411
3 215 411 218
3 405 406 407
3 18 55 178
3 178 55 229
3 178 229 415
3 178 415 176
3 176 415 14
3 176 14 172
3 176 172 15
3 14 415 53
3 53 415 229
3 56 20 58
3 417 416 418
3 417 418 419
3 417 419 237
3 417 237 235
3 417 235 233
3 417 233 58
3 417 58 416
3 416 58 20
3 416 20 418
3 418 20 21
3 418 21 241
3 418 241 419
3 419 241 239
3 419 239 237
3 239 241 64
3 233 235 61
3 249 67 420
3 249 420 192
3 249 192 194
3 249 194 24
3 192 420 190
3 190 420 421
3 190 421 188
3 188 421 422
3 188 422 186
3 186 422 423
3 186 423 184
3 184 423 424
3 184 424 182
3 182 424 180
3 180 424 242
3 180 242 23
3 242 424 65
3 65 424 423
3 65 423 243
3 243 423 245
3 245 423 422
3 245 422 421
3 245 421 247
3 247 421 420
3 247 420 67
3 27 30 26
3 425 426 427
3 425 427 73
3 425 73 257
3 425 257 255
3 425 255 253
3 425 253 426
3 426 253 251
3 426 251 250
3 426 250 26
3 426 26 427
3 427 26 30
3 427 30 73
3 250 251 68
3 255 257 70
3 33 36 202
3 202 36 428
3 202 428 32
3 32 428 74
3 74 428 260
3 74 260 76
3 260 428 36
3 430 433 434
3 431 430 434
3 431 434 435
3 431 435 436
3 429 431 436
3 429 436 432
3 433 439 440
3 434 433 440
3 434 440 441
3 434 441 442
3 435 434 442
3 435 442 443
3 436 435 443
3 436 443 444
3 432 436 444
3 432 444 437
3 432 437 438
3 438 437 39
3 438 39 88
3 438 88 281
3 438 281 279
3 438 279 432
3 432 279 429
3 429 279 277
3 429 277 431
3 431 277 275
3 431 275 430
3 430 275 85
3 430 85 433
3 433 85 271
3 433 271 439
3 439 271 82
3 439 82 268
3 439 268 440
3 440 268 79
3 440 79 441
3 441 79 77
3 441 77 262
3 441 262 442
3 442 262 38
3 442 38 443
3 443 38 206
3 443 206 444
3 444 206 209
3 444 209 437
3 437 209 39
3 445 446 447
3 447 446 448
3 447 448 291
3 447 291 289
3 447 289 287
3 447 287 445
3 445 287 89
3 445 89 41
3 445 41 214
3 445 214 446
3 446 214 217
3 446 217 448
3 448 217 220
3 448 220 295
3 448 295 293
3 448 293 291
3 295 220 42
3 89 287 91
3 450 449 451
3 450 451 452
3 451 455 456
3 452 451 456
3 452 456 457
3 453 452 457
3 453 457 458
3 454 453 458
3 454 458 459
3 456 455 460
3 456 460 461
3 457 456 461
3 457 461 462
3 458 457 462
3 458 462 463
3 459 458 463
3 459 463 464
3 460 465 466
3 461 460 466
3 461 466 467
3 462 461 467
3 462 467 468
3 463 462 468
3 463 468 469
3 464 463 469
3 464 469 470
3 466 465 471
3 466 471 472
3 467 466 472
3 467 472 473
3 468 467 473
3 468 473 474
3 469 468 474
3 470 469 474
3 470 474 475
3 471 476 477
3 472 471 477
3 472 477 478
3 473 472 478
3 474 473 478
3 474 478 479
3 475 474 479
3 475 479 480
3 476 481 482
3 477 476 482
3 478 477 482
3 478 482 483
3 479 478 483
3 480 479 483
3 480 483 484
3 482 481 485
3 483 482 485
3 484 483 485
3 484 485 97
3 484 97 313
3 484 313 480
3 480 313 311
3 480 311 475
3 475 311 309
3 475 309 470
3 470 309 307
3 470 307 305
3 470 305 464
3 464 305 459
3 459 305 303
3 459 303 454
3 454 303 94
3 454 94 301
3 454 301 453
3 453 301 299
3 453 299 450
3 453 450 452
3 450 299 297
3 450 297 449
3 449 297 92
3 449 92 288
3 449 288 451
3 451 288 290
3 451 290 455
3 455 290 292
3 455 292 460
3 460 292 465
3 465 292 294
3 465 294 471
3 471 294 296
3 471 296 476
3 476 296 44
3 476 44 481
3 481 44 225
3 481 225 485
3 485 225 45
3 485 45 97
3 48 103 486
3 48 486 98
3 48 98 47
3 98 486 315
3 315 486 317
3 317 486 319
3 317 319 100
3 319 486 103
3 230 54 488
3 230 488 487
3 230 487 51
3 51 487 50
3 50 487 104
3 104 487 488
3 104 488 57
3 104 57 106
3 57 488 54
3 363 71 490
3 363 490 333
3 363 333 365
3 365 333 330
3 365 330 367
3 367 330 327
3 367 327 60
3 60 327 324
3 60 324 234
3 234 324 107
3 234 107 59
3 333 490 336
3 336 490 489
3 336 489 78
3 78 489 75
3 75 489 258
3 75 258 72
3 258 489 71
3 71 489 490
3 492 491 493
3 492 493 494
3 492 494 495
3 493 497 498
3 493 498 499
3 494 493 499
3 494 499 500
3 495 494 500
3 495 500 501
3 495 501 502
3 496 495 502
3 497 503 504
3 498 497 504
3 498 504 505
3 499 498 505
3 499 505 506
3 500 499 506
3 500 506 507
3 501 500 507
3 501 507 508
3 502 501 508
3 502 508 509
3 503 510 511
3 503 511 512
3 504 503 512
3 504 512 513
3 505 504 513
3 505 513 514
3 506 505 514
3 506 514 515
3 507 506 515
3 507 515 516
3 508 507 516
3 511 510 517
3 511 517 518
3 512 511 518
3 513 512 518
3 513 518 519
3 514 513 519
3 514 519 520
3 515 514 520
3 515 520 521
3 516 515 521
3 516 521 522
3 517 523 524
3 518 517 524
3 519 518 524
3 519 524 525
3 520 519 525
3 520 525 526
3 521 520 526
3 522 521 526
3 524 523 527
3 524 527 528
3 525 524 528
3 526 525 528
3 526 528 244
3 526 244 522
3 522 244 246
3 522 246 248
3 522 248 516
3 516 248 509
3 516 509 508
3 509 248 66
3 509 66 502
3 502 66 252
3 502 252 496
3 496 252 254
3 496 254 495
3 495 254 492
3 492 254 256
3 492 256 491
3 491 256 69
3 491 69 364
3 491 364 493
3 493 364 497
3 497 364 366
3 497 366 368
3 497 368 503
3 503 368 510
3 510 368 62
3 510 62 236
3 510 236 517
3 517 236 523
3 523 236 238
3 523 238 527
3 527 238 240
3 527 240 528
3 528 240 63
3 528 63 244
3 341 109 530
3 341 530 529
3 341 529 81
3 81 529 335
3 81 335 269
3 269 335 338
3 269 338 80
3 335 529 332
3 332 529 530
3 332 530 329
3 329 530 531
3 329 531 326
3 326 531 320
3 326 320 105
3 105 320 102
3 320 531 101
3 101 531 109
3 109 531 530
3 532 535 536
3 533 532 536
3 533 536 537
3 534 533 537
3 534 537 538
3 535 539 540
3 536 535 540
3 536 540 541
3 537 536 541
3 537 541 542
3 538 537 542
3 538 542 543
3 540 539 544
3 540 544 545
3 541 540 545
3 541 545 546
3 542 541 546
3 542 546 543
3 543 546 343
3 543 343 83
3 543 83 273
3 543 273 538
3 538 273 534
3 534 273 84
3 534 84 359
3 534 359 533
3 533 359 532
3 532 359 357
3 532 357 355
3 532 355 535
3 535 355 353
3 535 353 539
3 539 353 112
3 539 112 544
3 544 112 349
3 544 349 346
3 544 346 545
3 545 346 110
3 545 110 546
3 546 110 343
3 547 548 549
3 547 549 550
3 549 548 551
3 549 551 552
3 549 552 553
3 550 549 553
3 552 551 554
3 552 554 555
3 553 552 555
3 553 555 556
3 553 556 557
3 553 557 356
3 553 356 550
3 550 356 358
3 550 358 547
3 547 358 360
3 547 360 276
3 547 276 278
3 547 278 548
3 548 278 280
3 548 280 551
3 551 280 282
3 551 282 554
3 554 282 298
3 554 298 300
3 554 300 555
3 555 300 302
3 555 302 556
3 556 302 558
3 556 558 557
3 557 558 354
3 557 354 356
3 354 558 361
3 354 361 113
3 361 558 93
3 93 558 302
3 298 282 90
3 90 282 87
3 276 360 86
3 560 562 563
3 561 560 563
3 561 563 564
3 563 562 566
3 563 566 567
3 564 563 567
3 564 567 568
3 565 564 568
3 567 566 569
3 567 569 568
3 568 569 316
3 568 316 318
3 568 318 565
3 565 318 99
3 565 99 108
3 565 108 348
3 565 348 564
3 564 348 351
3 564 351 561
3 561 351 111
3 561 111 559
3 561 559 560
3 560 559 306
3 560 306 308
3 560 308 562
3 562 308 310
3 562 310 566
3 566 310 312
3 566 312 569
3 569 312 314
3 569 314 316
3 316 314 96
3 306 559 304
3 304 559 362
3 304 362 95
3 362 559 111
