ply
format ascii 1.0
comment Generated by PyMesh
element vertex 900
property float x
property float y
property float z
property float nx
property float ny
property float nz
element face 1796
property list uchar int vertex_indices
end_header
159.984 87.681 199.769 -0.543 -0.815 0.202
160.137 87.327 199.325 -0.646 -0.579 0.498
160.477 86.856 199.455 -0.872 -0.265 0.411
162.249 89.279 197.517 0.597 0.569 -0.566
162.255 89.781 197.824 0.593 0.235 -0.77
162.748 88.956 197.51 0.264 0.785 -0.561
163.286 89.02 198.187 0.533 0.817 -0.223
162.793 89.845 198.501 0.861 0.267 -0.432
163.572 89.548 199.078 0.342 0.465 -0.817
163.422 90.206 199.619 0.267 0.794 -0.546
162.643 90.503 199.042 0.787 0.596 -0.161
162.909 90.493 199.572 0.609 0.603 -0.515
160.81 88.554 201.409 -0.625 -0.537 0.566
160.385 88.418 201.019 -0.342 -0.446 0.827
161.164 88.121 201.595 -0.862 -0.248 0.442
161.307 87.441 201.052 -0.79 -0.589 0.17
160.528 87.738 200.475 -0.271 -0.787 0.555
161.022 86.913 200.161 -0.6 -0.237 0.764
161.31 87.438 201.053 -0.789 -0.59 0.171
161.024 86.911 200.162 -0.599 -0.238 0.765
161.415 86.951 200.654 -0.86 -0.265 0.437
161.962 85.947 200.302 -0.587 -0.767 0.26
161.57 85.907 199.809 -0.325 -0.74 0.589
162.192 85.208 199.77 -0.74 -0.274 0.615
161.919 85.001 199.143 -0.876 -0.377 0.301
161.298 85.7 199.182 -0.461 -0.843 0.275
161.168 85.056 198.35 -0.375 -0.414 0.829
160.322 85.814 197.895 -0.798 -0.035 0.602
160.452 86.458 198.727 -0.884 -0.464 0.047
160.15 85.902 197.711 -0.683 -0.093 0.725
160.09 86.025 197.658 -0.732 0.009 0.681
160.376 86.616 198.659 -0.923 -0.386 0.014
160.043 87.103 198.585 -0.701 -0.71 0.063
160.093 86.792 196.581 -0.73 0.648 -0.217
160.047 88.021 197.297 -0.699 -0.171 -0.694
160.25 86.958 196.442 -0.834 0.537 -0.124
160.334 87.055 196.344 -0.792 0.585 -0.173
160.125 88.11 197.206 -0.653 -0.118 -0.748
160.282 87.354 195.294 -0.758 0.386 0.527
160.559 87.827 195.121 -0.56 0.724 0.403
160.429 88.631 197.016 -0.474 0.188 -0.86
160.869 87.956 195.627 -0.767 0.638 0.065
162.052 88.635 195.718 -0.176 0.978 0.111
161.529 89.263 197.1 0.173 0.56 -0.81
162.301 88.696 195.793 -0.342 0.938 0.061
162.891 88.691 196.11 0.15 0.934 0.326
162.234 89.257 197.48 0.588 0.556 -0.587
162.732 88.932 197.47 0.256 0.773 -0.581
163.661 88.122 196.204 0.791 0.459 0.404
163.722 88.201 197.591 0.751 0.407 -0.521
163.8 87.897 196.247 0.699 0.609 0.375
163.906 87.732 196.29 0.752 0.527 0.397
163.828 88.036 197.634 0.804 0.324 -0.499
164.45 87.337 197.595 0.389 0.79 -0.473
164.514 87.386 197.745 0.421 0.815 -0.398
163.892 88.085 197.784 0.836 0.349 -0.424
164.284 88.125 198.276 0.575 0.322 -0.752
163.681 89.058 198.679 0.273 0.789 -0.551
163.289 89.018 198.187 0.534 0.816 -0.223
163.575 89.546 199.078 0.344 0.464 -0.817
164.941 88.331 199.903 0.903 0.425 0.061
164.835 88.819 200.301 0.974 0.1 -0.205
165.056 88.902 200.836 0.826 0.045 -0.562
163.661 90.503 201.516 0.005 0.987 -0.162
163.334 90.541 201.033 0.223 0.961 0.161
162.827 90.804 200.886 0.561 0.786 0.258
163.651 90.505 201.53 -0 0.988 -0.153
162.817 90.806 200.9 0.556 0.788 0.267
163.561 90.599 201.863 0.06 0.925 -0.375
162.423 89.542 202.861 -0.888 0.044 0.457
161.457 89.541 202.094 -0.244 0.044 0.969
161.861 89.183 202.331 -0.513 0.283 0.81
162.425 89.535 202.864 -0.887 0.038 0.46
161.863 89.174 202.336 -0.513 0.278 0.812
162.293 89.232 202.728 -0.799 0.239 0.551
163.321 87.264 202.378 -0.195 -0.918 0.345
162.969 87.057 201.959 0.04 -0.78 0.624
163.075 86.57 201.56 -0.03 -0.456 0.89
163.691 87.209 202.319 0.023 -0.95 0.31
163.473 86.511 201.497 0.169 -0.485 0.858
163.856 86.096 201.323 -0.087 -0.208 0.974
163.001 85.454 200.612 -0.59 -0.586 0.556
162.553 85.821 200.733 -0.291 -0.83 0.476
162.783 85.082 200.201 -0.444 -0.337 0.83
165.09 87.417 198.786 0.639 0.569 -0.519
165.029 87.192 198.236 0.679 0.718 -0.152
164.799 87.931 198.768 0.832 0.225 -0.507
165.315 87.469 200.03 0.771 0.599 0.213
165.042 87.988 200.106 0.954 0.254 0.163
165.15 88.582 201.025 0.881 -0.143 -0.45
165.317 87.466 200.033 0.772 0.598 0.215
165.152 88.58 201.029 0.882 -0.144 -0.448
165.27 88.325 201.249 0.803 0.026 -0.595
164.056 87.179 202.329 -0.209 -0.929 0.305
163.7 87.21 202.32 0.028 -0.95 0.311
163.865 86.097 201.324 -0.082 -0.208 0.975
164.081 87.542 196.16 0.839 0.431 0.332
164.624 87.146 197.465 0.477 0.695 -0.538
164.542 87.161 195.911 0.531 0.686 0.498
164.786 86.944 195.896 0.653 0.578 0.49
164.868 86.93 197.45 0.598 0.587 -0.546
164.98 86.76 195.903 0.523 0.7 0.486
165.376 85.834 195.94 0.853 -0.072 0.516
165.377 85.739 197.497 0.853 -0.009 -0.522
166.861 84.251 196.896 -0.136 0.983 -0.121
166.144 82.779 198.127 -0.649 -0.068 0.758
164.528 83.997 198.954 0.428 -0.88 0.207
165.568 82.518 197.826 -0.265 0.106 0.958
164.818 82.29 197.417 -0.682 -0.021 0.731
163.742 83.757 198.526 0.035 -0.999 -0.008
163.813 82.685 197.076 -0.012 -0.284 0.959
163.168 82.771 196.98 -0.335 -0.241 0.911
163.096 83.844 198.43 -0.287 -0.956 -0.056
162.431 83.497 197.34 0.156 -0.725 0.671
161.79 83.861 197.566 -0.302 -0.465 0.832
162.337 84.274 198.697 -0.667 -0.741 0.078
161.586 84.329 197.904 -0.166 -0.778 0.606
160.948 83.987 196.109 -0.903 -0.375 -0.208
160.589 84.479 196.18 -0.664 -0.702 -0.255
161.003 83.855 195.516 -0.94 -0.286 0.187
160.901 84.151 195.174 -0.99 -0.138 0.016
160.488 84.776 195.838 -0.715 -0.554 -0.426
160.238 85.144 194.83 -0.548 -0.799 0.246
159.871 85.781 195.069 -0.854 -0.269 0.445
160.016 85.595 196.145 -0.951 -0.145 -0.273
159.911 85.731 196.35 -0.881 -0.236 -0.409
159.938 86.558 195.097 -0.798 0.379 0.468
159.979 86.509 196.378 -0.825 0.412 -0.386
160.087 86.965 195.156 -0.897 0.108 0.428
160.176 87.171 195.243 -0.834 0.255 0.49
160.061 86.698 196.457 -0.757 0.57 -0.32
160.208 86.838 196.284 -0.855 0.477 -0.204
160.839 86.047 193.338 -0.048 -0.047 -0.998
161.065 86.409 193.246 -0.199 -0.289 -0.937
162.037 86.227 192.6 -0.846 -0.167 -0.506
162.699 87.565 193.056 -0.294 0.948 -0.125
161.785 87.863 193.742 0.316 0.749 -0.582
162.321 87.998 193.994 -0.041 0.659 -0.751
163.517 87.531 193.292 0.388 0.919 0.071
163.372 87.953 194.298 0.485 0.637 -0.599
163.902 87.424 193.472 0.132 0.99 -0.049
163.955 87.417 193.51 0.17 0.985 -0.022
163.435 87.945 194.343 0.516 0.633 -0.577
163.897 87.564 194.094 0.208 0.887 -0.411
165 85.512 193.345 0.916 -0.376 -0.139
165.134 85.308 193.899 0.827 -0.24 -0.509
166.504 83.655 193.885 -0.087 0.862 -0.499
166.781 83.832 194.731 0.111 0.988 0.105
165.461 85.517 194.9 0.991 -0.136 -0.008
165.506 85.651 195.128 0.961 -0.224 -0.16
166.786 83.824 194.782 0.115 0.983 0.141
165.511 85.644 195.175 0.966 -0.23 -0.121
166.544 83.949 195.497 0.277 0.9 -0.335
166.564 84.029 195.82 0.288 0.945 -0.156
165.527 85.709 195.439 0.979 -0.176 0.099
165.929 84.417 195.811 0.712 0.686 -0.15
165.912 84.454 195.956 0.7 0.713 -0.046
165.512 85.743 195.572 0.967 -0.147 0.21
167.008 84.153 196.497 -0.031 0.913 -0.407
165.933 84.427 195.898 0.715 0.694 -0.088
167.03 84.126 196.439 -0.016 0.894 -0.448
166.569 84.04 195.919 0.291 0.951 -0.101
166.957 83.811 195.644 0.506 0.824 -0.254
167.373 83.924 196.196 0.229 0.749 -0.622
167.152 83.703 194.912 0.376 0.896 0.234
167.287 83.64 194.899 0.473 0.852 0.225
167.508 83.861 196.183 0.326 0.704 -0.631
168.425 83.796 194.338 -0.285 0.748 0.599
169.304 82.883 194.807 0.343 0.096 0.934
168.387 82.949 196.652 0.954 0.053 -0.296
168.935 82.401 195.171 0.589 0.417 0.692
168.95 82.302 195.214 0.597 0.362 0.716
168.401 82.86 196.69 0.963 -0.01 -0.269
169.113 81.735 195.593 0.488 0.74 0.463
168.198 80.462 196.304 -0.165 -0.17 0.972
167.486 81.587 197.402 0.31 -0.92 0.24
167.085 81.171 197.007 0.578 -0.643 0.503
166.949 81.175 197.147 0.502 -0.641 0.581
167.366 81.59 197.526 0.224 -0.918 0.328
166.543 80.606 197.15 0.772 -0.261 0.579
165.788 81.027 197.699 0.233 0.04 0.972
166.61 82.011 198.075 -0.316 -0.617 0.721
166.095 81.651 197.768 0.028 -0.376 0.926
164.623 81.465 197.345 -0.6 0.353 0.718
164.779 82.146 197.367 -0.704 -0.101 0.703
163.773 82.534 197.024 -0.033 -0.36 0.932
164.212 80.979 196.969 -0.893 0.005 0.45
163.286 81.958 196.579 -0.276 -0.648 0.71
163.143 81.803 196.415 -0.18 -0.544 0.819
163.307 81.283 195.184 -0.043 -0.977 -0.207
163.497 81.29 194.996 -0.17 -0.982 -0.082
164.39 80.414 195.631 -0.766 -0.398 -0.505
165.058 80.59 195.054 -0.289 -0.272 -0.918
164.287 81.499 194.312 0.225 -0.878 -0.423
165.997 80.548 193.194 -0.915 -0.244 0.322
165.888 80.987 192.609 -0.993 0.07 -0.097
164.158 82.019 193.619 0.16 -0.617 -0.77
164.269 82.205 193.462 0.087 -0.741 -0.665
163.928 83.405 193.125 -0.198 0.258 -0.946
163.72 83.562 193.186 -0.059 0.154 -0.986
163.676 84.954 192.655 -0.03 -0.774 -0.632
163.548 84.956 192.668 -0.121 -0.773 -0.623
163.569 83.564 193.202 -0.135 0.155 -0.979
163.159 84.067 193.194 0.139 -0.18 -0.974
162.605 83.618 193.334 -0.138 -0.405 -0.904
163.015 83.115 193.341 -0.411 -0.07 -0.909
162.349 83.69 193.315 0.033 -0.453 -0.891
161.856 83.295 193.788 -0.378 -0.782 -0.497
162.382 82.608 193.95 -0.728 -0.323 -0.605
161.972 83.11 193.943 -0.455 -0.658 -0.6
161.784 82.987 195.99 -0.549 -0.72 0.424
162.194 82.484 195.997 -0.822 -0.385 0.419
161.608 83.254 196.51 -0.432 -0.899 0.078
161.153 84.035 194.13 -0.963 -0.165 -0.212
161.068 84.062 194.382 -0.907 -0.182 -0.38
160.368 85.074 194.214 -0.44 -0.857 -0.268
161.761 84.557 193.367 -0.456 0.27 -0.848
160.976 85.596 193.45 0.067 -0.423 -0.904
162.174 85.776 192.713 -0.732 -0.543 -0.412
162.294 84.279 193.185 -0.013 0.038 -0.999
162.707 85.499 192.531 -0.288 -0.775 -0.563
163.021 85.217 192.645 -0.497 -0.587 -0.639
162.332 84.249 193.184 0.019 0.014 -1
163.062 85.184 192.644 -0.468 -0.61 -0.64
162.584 84.337 193.166 -0.149 -0.045 -0.988
164.847 83.617 193.422 0.568 0.435 -0.698
164.674 85.185 192.977 0.683 -0.609 -0.402
164.901 83.835 193.568 0.532 0.29 -0.796
165.008 83.9 193.671 0.585 0.323 -0.744
164.764 85.239 193.065 0.748 -0.57 -0.34
166.268 83.383 193.605 -0.255 0.668 -0.7
164.963 83.797 193.597 0.563 0.271 -0.781
166.23 83.296 193.542 -0.282 0.605 -0.744
164.895 83.588 193.445 0.608 0.411 -0.679
164.794 83.099 193.238 0.524 0.004 -0.852
166.12 82.765 193.317 -0.361 0.226 -0.905
166.458 81.959 192.366 -0.586 0.764 -0.27
166.558 82.022 192.347 -0.514 0.809 -0.283
166.22 82.829 193.299 -0.289 0.272 -0.918
166.736 82.515 192.833 -0.633 0.481 -0.607
167.205 83.072 193.048 -0.372 0.79 -0.487
166.636 83.322 193.49 0.008 0.624 -0.781
167.773 83.477 192.929 -0.751 0.52 -0.407
167.517 82.556 192.411 -0.199 0.503 -0.841
168.049 83.02 192.365 -0.553 0.194 -0.81
167.25 82.058 191.974 -0.02 0.835 -0.55
168.471 81.022 192.024 0.852 0.095 -0.514
169.271 81.984 192.415 0.319 -0.546 -0.774
168.898 81.386 192.468 0.568 -0.147 -0.81
169.641 81.301 193.905 0.981 -0.194 -0.011
169.929 81.91 193.687 0.789 -0.599 0.134
169.724 80.85 194.435 0.925 0.107 -0.364
169.213 81.71 195.514 0.56 0.721 0.407
169.417 82.77 194.767 0.424 0.015 0.906
169.063 82.273 195.125 0.66 0.346 0.667
168.711 80.163 193.35 0.464 -0.826 -0.32
168.901 79.843 193.943 0.337 -0.612 -0.715
168.306 79.94 192.805 0.734 -0.678 0.044
166.776 79.903 193.602 -0.359 -0.704 0.613
167.371 79.806 194.74 -0.755 -0.639 -0.146
166.982 80.121 194.251 -0.496 -0.849 0.181
166.982 80.122 194.251 -0.496 -0.849 0.181
167.371 79.806 194.74 -0.756 -0.639 -0.145
165.837 79.946 195.462 0.268 -0.732 -0.626
166.618 80.549 197.007 0.826 -0.302 0.477
168.152 80.408 196.285 -0.198 -0.208 0.958
167.033 81.11 196.985 0.549 -0.676 0.491
166.982 80.122 194.251 -0.496 -0.849 0.181
165.836 79.946 195.462 0.267 -0.732 -0.627
166.776 79.904 193.602 -0.359 -0.704 0.613
160.429 91.189 199.114 -0.32 0.939 -0.126
160.171 91.123 199.092 -0.148 0.983 -0.111
159.556 88.005 199.324 -0.757 -0.653 -0.021
159.739 87.628 198.911 -0.88 -0.402 0.255
159.363 88.432 198.807 -0.854 -0.44 -0.279
159.56 88.025 198.43 -0.985 -0.168 -0.028
159.432 88.899 198.293 -0.819 -0.206 -0.536
159.625 88.459 197.953 -0.947 0.087 -0.309
159.755 89.338 197.858 -0.657 0.013 -0.753
159.925 88.867 197.548 -0.771 0.327 -0.547
160.284 89.686 197.565 -0.393 0.187 -0.9
160.416 89.191 197.275 -0.482 0.517 -0.707
160.941 89.891 197.455 -0.064 0.29 -0.955
161.027 89.382 197.174 -0.122 0.63 -0.767
161.632 89.924 197.546 0.281 0.307 -0.909
161.67 89.413 197.258 0.256 0.648 -0.717
162.194 90.964 199.309 0.562 0.827 -0.028
162.492 90.921 199.82 0.364 0.855 -0.369
161.652 91.199 199.677 0.291 0.944 0.156
161.988 91.139 200.163 0.067 0.984 -0.167
161.095 91.173 200.094 0.013 0.931 0.365
161.47 91.115 200.55 -0.237 0.97 0.061
160.604 90.891 200.499 -0.233 0.79 0.567
161.013 90.853 200.927 -0.506 0.815 0.282
160.25 90.393 200.834 -0.41 0.541 0.734
160.684 90.39 201.238 -0.699 0.543 0.465
160.085 89.752 201.049 -0.492 0.22 0.842
160.531 89.794 201.438 -0.79 0.192 0.583
160.132 89.06 201.114 -0.469 -0.125 0.874
160.575 89.151 201.498 -0.764 -0.186 0.618
161.237 86.358 200.037 -0.492 -0.514 0.702
161.629 86.398 200.529 -0.753 -0.541 0.374
160.802 86.028 199.005 -0.71 -0.679 0.187
160.672 85.384 198.173 -0.623 -0.25 0.741
160.408 86.218 198.166 -0.855 -0.304 0.421
160.346 86.346 198.111 -0.902 -0.205 0.379
160.213 86.635 198.046 -0.814 -0.398 0.423
159.791 87.582 197.955 -0.849 -0.429 -0.308
160.014 87.012 197.55 -0.998 -0.049 -0.038
159.879 86.425 197.131 -0.908 0.342 0.241
160.216 87.358 197.032 -0.812 0.271 -0.518
160.293 87.455 196.947 -0.863 0.206 -0.461
160.366 87.538 196.862 -0.813 0.263 -0.519
160.527 87.803 196.653 -0.921 0.087 -0.379
160.585 87.528 195.958 -0.959 0.27 0.084
160.729 88.147 196.527 -0.673 0.511 -0.535
160.776 87.855 195.838 -0.705 0.705 -0.075
160.82 88.179 196.431 -0.734 0.489 -0.47
160.925 89.052 196.979 -0.182 0.436 -0.881
161.258 88.551 196.399 -0.404 0.77 -0.494
161.402 88.408 195.588 -0.5 0.865 0.046
161.791 88.737 196.506 -0.002 0.91 -0.414
161.939 88.768 196.552 -0.101 0.89 -0.445
162.459 88.763 196.832 0.438 0.885 -0.155
162.773 88.647 196.815 0.229 0.963 -0.144
163.543 88.078 196.908 0.87 0.489 -0.066
163.624 87.953 196.932 0.816 0.572 -0.082
163.72 87.804 196.972 0.876 0.479 -0.057
163.645 88.607 197.937 0.712 0.61 -0.347
164.037 88.647 198.43 0.451 0.583 -0.676
164.147 89.422 199.381 0.629 0.402 -0.665
164.253 88.935 198.982 0.559 0.727 -0.399
164.583 89.17 199.805 0.848 0.276 -0.453
164.689 88.683 199.406 0.777 0.601 -0.187
164.662 89.446 200.303 0.887 0.414 -0.204
164.896 89.485 200.838 0.732 0.388 -0.561
164.323 89.984 200.44 0.718 0.683 -0.136
164.581 89.985 200.965 0.546 0.682 -0.486
163.861 90.365 200.694 0.487 0.874 -0.009
164.151 90.339 201.201 0.293 0.891 -0.347
163.477 90.486 200.306 0.295 0.934 -0.203
162.96 90.752 200.21 0.639 0.756 -0.139
163.144 90.578 201.389 0.338 0.939 -0.059
162.186 90.805 201.448 0.184 0.787 0.589
162.623 90.577 201.841 -0.108 0.939 0.327
163.032 90.599 202.32 -0.381 0.925 0.007
161.671 90.326 201.9 -0.119 0.505 0.855
162.198 90.182 202.214 -0.471 0.601 0.645
162.601 90.198 202.699 -0.74 0.591 0.322
162.023 89.535 202.374 -0.621 0.048 0.782
161.068 89.007 201.872 -0.473 -0.27 0.838
161.442 88.609 202.093 -0.723 -0.005 0.691
161.889 88.526 202.441 -0.499 -0.046 0.865
162.317 88.63 202.826 -0.785 -0.115 0.609
162.104 87.907 202.408 -0.392 -0.356 0.848
162.517 88.054 202.795 -0.667 -0.454 0.59
162.48 87.395 202.24 -0.204 -0.612 0.764
162.867 87.578 202.639 -0.462 -0.734 0.499
162.318 87.043 201.804 -0.285 -0.788 0.546
162.424 86.556 201.405 -0.355 -0.463 0.812
161.743 87.175 201.489 -0.573 -0.722 0.389
161.849 86.688 201.091 -0.643 -0.397 0.655
162.962 86.11 201.227 -0.087 -0.685 0.723
163.381 85.723 201.072 -0.366 -0.427 0.826
163.318 84.762 200.24 -0.177 -0.497 0.85
163.499 85.157 200.649 -0.297 -0.76 0.577
163.917 84.606 200.159 0.123 -0.575 0.809
164.055 85.012 200.573 0.03 -0.846 0.533
164.51 84.633 199.967 0.419 -0.562 0.713
164.607 85.037 200.395 0.355 -0.831 0.428
165.029 84.838 199.687 0.679 -0.459 0.573
165.089 85.228 200.135 0.638 -0.719 0.275
165.412 85.198 199.352 0.871 -0.279 0.405
165.446 85.563 199.823 0.848 -0.522 0.092
165.616 85.672 199 0.972 -0.042 0.229
165.635 86.003 199.495 0.96 -0.263 -0.101
165.616 86.203 198.672 0.972 0.224 0.066
165.635 86.497 199.191 0.96 0.028 -0.28
165.412 86.73 198.408 0.871 0.487 -0.067
165.446 86.987 198.945 0.848 0.316 -0.425
165.019 88.045 199.416 0.942 0.282 -0.183
165.294 87.522 199.388 0.759 0.63 -0.164
165.04 87.973 200.555 0.955 0.264 -0.137
165.041 87.97 200.558 0.956 0.262 -0.135
165.202 88.453 201.144 0.849 -0.06 -0.525
165.337 89.013 201.663 0.991 0.111 -0.075
165.37 88.848 201.723 0.969 0.221 -0.115
165.425 88.687 201.78 0.932 0.328 -0.153
165.201 89.096 202.438 0.911 0.16 0.38
165.246 88.924 202.429 0.88 0.275 0.387
165.311 88.757 202.428 0.837 0.386 0.387
164.797 88.796 203.048 0.673 -0.017 0.739
164.878 88.65 202.984 0.619 0.08 0.781
164.973 88.506 202.938 0.556 0.177 0.812
164.284 88.231 203.253 0.372 -0.349 0.86
164.411 88.135 203.172 0.287 -0.285 0.914
164.544 88.033 203.11 0.198 -0.217 0.956
163.863 87.623 202.974 0.124 -0.707 0.696
164.027 87.581 202.917 0.015 -0.679 0.734
164.192 87.524 202.876 -0.095 -0.642 0.761
163.879 87.205 202.321 -0.091 -0.946 0.31
163.789 86.788 201.672 -0.031 -0.669 0.743
163.781 86.788 201.671 -0.037 -0.669 0.742
163.993 86.767 201.681 -0.167 -0.655 0.737
164.582 86.1 201.227 0.34 -0.206 0.918
164.547 86.77 201.606 0.363 -0.652 0.665
164.655 87.182 202.248 0.291 -0.927 0.237
165.16 86.398 200.912 0.68 -0.031 0.732
164.993 87 201.363 0.792 -0.432 0.432
165.139 87.431 201.984 0.694 -0.719 0.018
165.432 86.902 200.471 0.84 0.266 0.473
165.203 87.389 201.022 0.993 -0.058 0.105
165.366 87.853 201.615 0.884 -0.368 -0.29
165.114 87.825 200.684 0.907 0.359 -0.219
162.858 88.929 203.291 -0.467 0.061 0.882
162.897 89.281 203.335 -0.493 -0.173 0.853
163.688 88.982 203.483 0.021 0.092 0.996
163.592 89.325 203.496 0.086 -0.137 0.987
164.402 89.366 203.217 0.441 0.318 0.839
164.189 89.646 203.274 0.584 0.131 0.801
164.674 89.905 202.614 0.601 0.636 0.484
164.416 90.098 202.769 0.773 0.507 0.381
164.379 90.354 201.951 0.427 0.899 0.094
164.169 90.473 202.214 0.567 0.82 -0.082
164.052 87.39 196.951 0.654 0.755 -0.044
164.208 87.22 196.835 0.754 0.646 -0.118
164.455 86.978 196.693 0.589 0.808 -0.024
164.667 86.789 196.68 0.732 0.681 -0.032
164.78 86.68 196.684 0.657 0.753 -0.035
165.158 85.797 196.719 0.999 -0.047 -0.003
165.532 85.152 197.524 0.749 0.383 -0.54
165.872 84.659 197.418 0.523 0.711 -0.47
166.34 84.342 197.197 0.21 0.923 -0.322
165.651 85.661 198.278 0.99 -0.047 -0.131
165.72 85.099 198.058 0.945 0.328 0.015
166.021 84.617 197.842 0.744 0.649 0.16
166.505 84.295 197.665 0.421 0.863 0.278
167.093 84.186 197.556 0.029 0.936 0.35
165.544 85.189 198.954 0.936 -0.284 0.207
165.646 84.776 198.52 0.868 -0.008 0.496
165.962 84.361 198.208 0.657 0.268 0.704
166.44 84.012 198.07 0.339 0.501 0.796
167.002 83.787 198.127 -0.036 0.651 0.758
165.103 84.536 199.22 0.716 -0.61 0.339
165.345 84.33 198.701 0.555 -0.473 0.685
165.723 84.007 198.352 0.302 -0.258 0.918
166.176 83.621 198.228 0 -0 1
166.629 83.235 198.351 -0.302 0.257 0.918
164.952 83.961 198.52 0.146 -0.856 0.496
165.412 83.715 198.208 -0.161 -0.692 0.704
165.832 83.298 198.069 -0.441 -0.414 0.796
164.812 83.744 198.272 0.239 -0.711 0.661
165.193 83.202 197.859 -0.015 -0.35 0.937
164.263 83.577 197.973 -0.312 -0.879 0.361
164.657 83.039 197.567 -0.575 -0.521 0.632
163.761 83.626 197.899 0.023 -0.912 0.41
163.787 83.245 197.385 0.006 -0.658 0.753
163.223 83.698 197.819 -0.372 -0.859 0.351
163.249 83.317 197.305 -0.389 -0.605 0.694
162.775 83.814 197.832 -0.073 -0.937 0.343
162.146 84.171 198.053 -0.54 -0.672 0.507
161.008 84.292 197.49 -0.455 -0.796 0.4
161.302 83.83 197.216 -0.651 -0.487 0.582
160.653 84.346 196.876 -0.632 -0.769 0.093
161.002 83.875 196.697 -0.865 -0.455 0.212
160.105 85.145 197.101 -0.906 -0.369 0.205
159.981 85.382 197.094 -0.823 -0.527 0.21
160.029 85.796 195.706 -0.96 -0.279 0.02
160.088 86.47 195.731 -0.898 0.438 0.045
160.177 86.694 195.764 -0.957 0.289 0.023
160.251 86.866 195.836 -0.884 0.458 0.095
159.966 87.061 194.518 -0.984 0.177 -0.028
159.827 86.647 194.509 -0.891 0.453 -0.022
160.126 86.98 193.886 -0.869 0.119 -0.48
159.974 86.572 193.927 -0.768 0.391 -0.507
160.527 86.743 193.422 -0.583 -0.051 -0.811
160.343 86.353 193.5 -0.461 0.209 -0.863
161.62 86.348 193.018 -0.568 -0.248 -0.785
161.154 87.016 193.185 -0.135 0.145 -0.98
161.696 86.872 192.965 -0.497 0.241 -0.834
162.118 86.786 192.544 -0.778 0.298 -0.553
161.415 87.545 193.365 0.052 0.522 -0.851
161.922 87.328 193.121 -0.286 0.666 -0.689
162.359 87.272 192.71 -0.577 0.703 -0.415
162.241 87.602 193.446 0.012 0.923 -0.385
161.413 88.168 194.206 0.05 0.967 -0.251
161.88 88.358 194.544 -0.262 0.84 -0.476
160.968 88.155 194.706 -0.268 0.958 0.106
161.354 88.343 195.135 -0.525 0.832 -0.18
163.601 87.595 193.922 0.332 0.876 -0.349
163.655 87.588 193.961 0.37 0.872 -0.322
163.793 87.999 194.924 0.695 0.66 -0.286
164.254 87.617 194.676 0.387 0.914 -0.12
164.017 87.859 195.556 0.807 0.59 0.03
164.479 87.477 195.307 0.499 0.844 0.196
164.577 87.28 194.16 0.549 0.746 -0.378
164.53 87.178 193.565 0.581 0.814 0.018
165.069 86.727 194.144 0.794 0.469 -0.386
164.945 86.71 193.552 0.877 0.48 0.009
165.268 86.02 194.051 0.894 0.116 -0.433
165.113 86.113 193.473 0.997 0.054 -0.048
165.27 84.781 194.137 0.736 0.111 -0.668
165.579 84.28 194.219 0.53 0.445 -0.722
166.013 83.884 194.13 0.241 0.709 -0.663
165.499 84.928 194.838 0.966 0.258 0.034
165.764 84.398 194.784 0.789 0.61 0.07
166.215 84.013 194.746 0.488 0.867 0.095
165.286 86.648 194.912 0.903 0.429 -0.002
165.369 86.53 195.137 0.848 0.508 -0.152
165.486 85.021 195.054 0.975 0.195 -0.111
165.727 84.445 194.951 0.814 0.58 -0.042
166.186 84.023 194.836 0.508 0.861 0.035
165.489 85.018 195.081 0.981 0.188 -0.058
165.729 84.442 194.971 0.82 0.572 0.016
166.189 84.019 194.865 0.514 0.854 0.086
165.554 84.948 195.383 0.937 0.234 -0.259
165.927 84.335 195.5 0.688 0.643 -0.337
165.566 84.995 195.574 0.954 0.3 0.009
165.941 84.388 195.712 0.704 0.705 -0.083
165.561 85.013 195.63 0.957 0.289 -0.029
165.547 85.043 195.748 0.943 0.32 0.093
165.517 85.123 195.846 0.964 0.266 0.027
165.816 84.585 196.128 0.764 0.625 -0.161
166.35 84.238 196.361 0.408 0.857 -0.316
165.455 85.165 196.013 0.801 0.374 0.467
165.778 84.61 196.23 0.585 0.744 0.322
166.281 84.284 196.546 0.25 0.962 0.112
166.409 84.18 196.261 0.368 0.896 -0.25
166.428 84.156 196.209 0.385 0.874 -0.295
167.21 83.673 195.587 0.337 0.916 -0.216
167.33 83.618 195.576 0.445 0.867 -0.226
167.79 83.478 195.604 0.138 0.96 -0.244
168.123 83.454 194.933 -0.084 0.976 0.203
168.106 83.594 196.49 0.753 0.514 -0.412
168.174 83.306 195.801 0.707 0.706 0.047
168.508 83.283 195.13 0.485 0.721 0.495
169.022 83.529 194.645 0.142 0.557 0.818
168.356 82.891 195.906 0.975 0.091 0.202
168.689 82.867 195.235 0.753 0.107 0.649
168.356 82.707 196.118 0.975 0.213 0.061
168.548 82.515 195.597 0.847 0.342 0.408
168.367 82.631 196.15 0.986 0.142 0.091
168.56 82.435 195.632 0.857 0.273 0.437
168.417 82.388 196.306 0.953 0.304 -0.012
168.668 81.992 195.919 0.785 0.569 0.246
168.232 82.159 197.3 0.843 -0.512 0.167
168.283 81.835 196.787 0.808 -0.296 0.509
168.535 81.438 196.4 0.641 -0.031 0.767
168.944 81.034 196.202 0.368 0.238 0.899
167.695 81.384 196.868 0.171 -0.785 0.596
167.946 80.987 196.48 0.003 -0.52 0.854
166.867 81.201 197.258 0.557 -0.658 0.507
166.206 81.57 197.739 -0.046 -0.322 0.945
165.402 81.943 197.738 -0.357 -0.214 0.909
165.174 81.285 197.673 -0.205 0.225 0.953
164.32 82.368 197.098 -0.397 -0.249 0.883
164.357 82.506 197.146 -0.375 -0.165 0.912
164.26 82 197.022 -0.358 -0.004 0.934
163.864 81.532 196.66 -0.661 -0.363 0.656
163.216 81.884 196.493 -0.229 -0.598 0.768
162.443 82.363 196.281 -0.697 -0.446 0.561
162.469 82.242 196.229 -0.715 -0.365 0.596
162.487 82.117 196.184 -0.727 -0.282 0.626
162.128 82.237 195.361 -0.855 -0.509 0.101
162.19 82.131 195.414 -0.897 -0.438 0.065
162.242 82.019 195.467 -0.931 -0.364 0.029
162.651 81.705 194.723 -0.594 -0.775 -0.218
162.653 81.66 194.849 -0.595 -0.745 -0.302
162.648 81.606 194.971 -0.592 -0.709 -0.384
163.403 81.292 195.091 -0.107 -0.984 -0.145
164.036 80.988 195.371 -0.53 -0.781 -0.332
164.679 81.158 194.815 -0.036 -0.65 -0.759
164.87 81.604 194.089 -0.163 -0.948 -0.275
165.409 81.456 193.792 -0.523 -0.849 -0.077
165.808 81.082 193.476 -0.789 -0.6 0.134
164.786 81.942 193.638 -0.258 -0.566 -0.783
165.345 81.714 193.448 -0.63 -0.414 -0.656
165.735 81.376 193.083 -0.891 -0.189 -0.413
163.531 82.64 193.281 -0.154 -0.307 -0.939
163.781 82.688 193.199 -0.32 -0.339 -0.885
163.708 84.329 193.106 -0.051 -0.357 -0.933
163.588 84.331 193.118 -0.147 -0.356 -0.923
162.12 82.404 194.588 -0.859 -0.425 -0.286
161.711 82.906 194.581 -0.586 -0.76 -0.281
162.055 82.36 195.303 -0.892 -0.447 0.072
161.645 82.863 195.295 -0.619 -0.782 0.077
162.639 82.495 196.569 -0.599 -0.379 0.705
161.985 83.264 196.992 -0.163 -0.892 0.422
160.818 84.645 194.346 -0.74 -0.571 -0.356
160.684 84.717 194.983 -0.845 -0.515 0.144
160.877 84.64 194.212 -0.779 -0.567 -0.266
161.401 85.089 193.554 -0.216 -0.085 -0.973
161.642 85.784 193.215 -0.377 -0.548 -0.747
161.528 86.159 193.121 -0.507 -0.122 -0.853
162.093 85.195 193.173 -0.678 -0.156 -0.719
162.532 84.967 193.023 -0.171 -0.42 -0.891
163.086 85.834 192.165 0.029 -0.495 -0.868
163.433 85.581 192.248 -0.203 -0.327 -0.923
163.433 86.345 192.072 0.317 -0.069 -0.946
163.81 86.136 192.147 0.066 0.07 -0.995
163.652 86.893 192.277 0.5 0.388 -0.775
164.047 86.731 192.369 0.236 0.495 -0.836
163.683 87.328 192.725 0.526 0.75 -0.402
164.081 87.204 192.855 0.26 0.833 -0.489
162.7 84.793 193.051 -0.283 -0.304 -0.91
162.734 84.766 193.05 -0.249 -0.331 -0.91
163.835 84.254 193.119 -0.136 -0.308 -0.942
164.578 84.426 193.359 0.747 -0.104 -0.657
164.649 84.546 193.409 0.7 -0.184 -0.69
164.734 84.598 193.492 0.768 -0.143 -0.624
164.893 84.795 193.602 0.662 -0.274 -0.698
165.245 84.258 193.906 0.427 0.084 -0.9
165.74 83.749 193.906 0.097 0.423 -0.901
164.993 84.91 193.721 0.92 0.026 -0.39
165.296 84.316 193.966 0.719 0.421 -0.553
165.84 83.864 194.025 0.356 0.723 -0.593
165.608 83.55 193.771 0.185 0.556 -0.81
165.571 83.465 193.71 0.157 0.492 -0.856
165.532 83.347 193.626 0.183 0.571 -0.8
165.442 82.911 193.441 0.092 0.129 -0.987
166.366 82.282 192.937 -0.524 0.549 -0.651
166.454 82.338 192.921 -0.445 0.599 -0.666
167.263 83.309 193.303 -0.411 0.632 -0.657
166.907 83.752 194.159 0.201 0.931 -0.304
167.504 83.691 193.897 -0.197 0.972 -0.129
168.044 83.907 193.598 -0.557 0.827 0.07
167.841 83.592 194.554 0.104 0.884 0.456
167.697 82.453 192.284 -0.319 0.572 -0.756
168.722 82.562 192.115 -0.073 -0.133 -0.988
168.29 82.05 192.064 0.215 0.208 -0.954
167.922 81.6 191.725 0.46 0.508 -0.728
168.773 81.541 192.327 0.651 -0.251 -0.716
169.724 81.812 192.979 0.643 -0.67 -0.372
169.41 81.19 193.105 0.853 -0.255 -0.456
169.682 81.421 194.08 0.953 -0.274 -0.128
169.893 82.36 194.315 0.763 -0.278 0.583
169.651 81.817 194.633 0.925 0.084 0.371
169.688 81.3 195.063 0.9 0.428 0.085
169.233 82.178 195.03 0.547 0.409 0.73
169.445 80.296 194.07 0.726 -0.289 -0.624
169.325 80.675 193.493 0.806 -0.541 -0.24
168.517 79.995 193.428 0.593 -0.714 -0.372
168.409 79.531 194.174 -0.014 -0.835 -0.55
168.082 79.72 193.632 0.204 -0.96 -0.189
167.814 79.629 193.036 0.383 -0.9 0.208
167.854 79.518 194.463 -0.411 -0.844 -0.344
167.59 79.708 193.888 -0.235 -0.971 0.04
167.258 79.615 193.325 -0.014 -0.91 0.415
167.163 79.963 194.134 -0.617 -0.743 0.259
166.943 80.046 195.084 -0.47 -0.799 -0.374
166.403 80.096 195.338 -0.11 -0.832 -0.544
167.642 79.617 195.352 -0.562 -0.774 0.292
167.159 79.896 195.572 -0.241 -0.96 0.146
166.619 79.945 195.826 0.12 -0.993 -0.024
166.107 79.757 196.074 0.461 -0.867 -0.189
167.938 79.845 195.938 -0.351 -0.61 0.71
167.395 80.078 196.038 0.011 -0.765 0.643
166.855 80.127 196.292 0.371 -0.798 0.474
166.403 79.986 196.66 0.672 -0.704 0.229
167.566 80.526 196.315 0.193 -0.287 0.938
167.026 80.576 196.569 0.554 -0.32 0.769
167.552 80.861 196.468 0.203 -0.51 0.836
167.594 80.91 196.486 0.238 -0.469 0.851
166.239 80.219 195.13 -0.001 -0.914 -0.405
166.642 80.281 194.705 -0.269 -0.955 -0.121
166.239 80.219 195.13 -0.001 -0.914 -0.405
166.641 80.281 194.704 -0.27 -0.955 -0.122
166.158 80.304 194.874 0.053 -0.971 -0.235
166.501 80.288 194.197 -0.176 -0.96 0.217
165.667 80.71 194.617 -0.695 -0.352 -0.627
166.01 80.695 193.939 -0.923 -0.341 -0.175
168.545 80.426 192.371 0.905 -0.331 -0.266
168.981 80.712 192.859 0.615 -0.521 -0.592
166.096 82.018 192.856 -0.344 0.724 -0.597
165.648 82.259 193.197 -0.046 0.564 -0.824
165.188 82.64 193.332 0.261 0.31 -0.914
165.756 81.439 193.001 -0.905 -0.231 -0.358
165.398 81.833 193.303 -0.666 -0.493 -0.56
164.873 82.103 193.466 -0.316 -0.673 -0.668
163.936 80.998 195.485 -0.463 -0.787 -0.408
164.141 80.506 196.359 -0.943 -0.332 0.014
163.737 81.072 196.067 -0.674 -0.709 0.209
163.078 81.368 195.854 -0.234 -0.906 0.351
163.794 81.449 196.555 -0.614 -0.308 0.726
163.699 88.182 195.249 0.648 0.751 -0.124
163.583 88.343 195.428 0.726 0.644 -0.243
162.774 88.572 194.969 0.185 0.947 -0.263
162.863 88.647 195.21 0.126 0.897 -0.424
160.196 90.736 198.267 -0.437 0.712 -0.549
159.99 90.771 198.433 -0.299 0.689 -0.66
159.544 89.993 198.267 -0.763 0.341 -0.549
159.483 90.193 198.433 -0.722 0.208 -0.66
159.125 89.703 199.114 -0.973 0.196 -0.126
159.157 89.968 199.092 -0.994 0.02 -0.111
159.358 90.156 199.961 -0.856 0.423 0.298
159.338 90.32 199.751 -0.842 0.313 0.438
160.01 90.899 199.961 -0.53 0.794 0.298
159.845 90.898 199.751 -0.42 0.795 0.438
165.596 84.709 197.013 0.707 0.678 -0.199
165.27 85.439 197.211 0.924 0.191 -0.331
165.27 85.152 196.714 0.924 0.383 0
165.744 82.985 197.913 -0.383 -0.206 0.901
164.369 83.122 197.431 -0.383 -0.576 0.722
165.685 81.075 194.25 -0.707 -0.595 -0.382
165.199 81.431 194.278 -0.383 -0.832 -0.401
165.199 81.046 194.76 -0.383 -0.576 -0.722
161.651 85.27 193.446 -0.383 -0.206 -0.901
162.246 90.455 198.221 0.588 0.572 -0.572
162.246 90.806 198.746 0.588 0.747 -0.31
161.688 90.351 197.773 0.309 0.52 -0.796
161.688 90.812 198.197 0.309 0.751 -0.584
161.688 91.11 198.747 0.309 0.9 -0.309
161.07 91.311 199.365 -0 1 0
161.07 90.558 197.801 -0 0.623 -0.782
161.07 90.963 198.238 -0 0.826 -0.563
161.07 91.222 198.775 -0 0.956 -0.295
160.452 90.351 197.773 -0.309 0.52 -0.796
159.894 90.455 200.509 -0.588 0.572 0.572
159.894 88.692 200.86 -0.588 -0.31 0.747
159.894 88.167 200.509 -0.588 -0.572 0.572
159.894 89.93 197.87 -0.588 0.31 -0.747
159.452 89.899 200.383 -0.809 0.294 0.509
159.452 89.311 200.541 -0.809 -0 0.588
159.452 88.723 200.383 -0.809 -0.294 0.509
159.452 88.293 199.953 -0.809 -0.509 0.294
159.168 89.002 199.9 -0.951 -0.155 0.268
159.168 88.693 199.365 -0.951 -0.309 -0
159.168 89.002 198.83 -0.951 -0.155 -0.268
159.07 89.311 199.365 -1 -0 -0
159.638 88.02 197.974 -0.94 -0.171 -0.296
164.064 89.762 199.567 0.588 0.572 -0.572
164.064 90.113 200.092 0.588 0.747 -0.31
162.168 91.141 200.447 0.174 0.985 0
162.168 91.028 201.052 0.174 0.918 0.356
161.578 91.028 201.052 -0.174 0.918 0.356
161.578 90.704 201.575 -0.174 0.728 0.663
161.023 90.452 201.541 -0.5 0.579 0.644
161.023 89.922 201.847 -0.5 0.268 0.824
161.712 87.999 202.206 -0.588 -0.31 0.747
161.712 87.474 201.855 -0.588 -0.572 0.572
161.045 86.243 199.776 -0.588 -0.572 0.572
160.603 86.369 199.22 -0.809 -0.509 0.294
162.517 86.193 201.18 -0.309 -0.644 0.7
161.959 86.337 200.925 -0.588 -0.572 0.572
165.289 86.774 197.953 0.809 0.509 -0.294
164.289 84.083 199.446 0.309 -0.836 0.453
163.671 84.29 199.901 -0 -0.733 0.68
163.671 83.954 199.409 -0 -0.901 0.434
163.053 84.468 199.94 -0.309 -0.644 0.7
163.053 84.083 199.446 -0.309 -0.836 0.453
163.053 83.88 198.854 -0.309 -0.938 0.157
162.495 84.612 199.685 -0.588 -0.572 0.572
162.495 84.261 199.16 -0.588 -0.747 0.31
160.742 84.74 197.835 -0.588 -0.572 0.572
160.3 84.708 196.691 -0.809 -0.588 0
159.769 86.014 196.841 -1 0 0
161.031 87.665 193.49 -0.223 0.608 -0.762
161.031 88.044 193.965 -0.223 0.878 -0.423
160.47 87.909 194.557 -0.623 0.782 0
160.47 87.269 193.561 -0.623 0.325 -0.711
160.47 87.735 193.965 -0.623 0.658 -0.423
160.082 87.421 194.557 -0.901 0.434 0
163.312 88.61 195.719 0.5 0.866 0
164.311 88.625 198.637 0.588 0.572 -0.572
165.249 89.406 201.791 0.94 0.342 0
164.954 89.918 201.791 0.766 0.643 0
164.954 89.744 202.382 0.766 0.541 0.348
164.954 89.744 201.2 0.766 0.541 -0.348
163.947 88.367 203.401 0.174 -0.27 0.947
163.357 88.367 203.401 -0.174 -0.27 0.947
163.357 87.816 203.127 -0.174 -0.593 0.786
162.802 88.089 203.066 -0.5 -0.433 0.75
164.089 90.363 202.874 0.5 0.729 0.468
163.489 90.552 202.87 -0 0.885 0.465
163.489 90.171 203.3 -0 0.568 0.823
163.489 89.634 203.503 -0 0.121 0.993
162.889 90.363 202.874 -0.5 0.729 0.468
162.889 89.921 203.257 -0.5 0.36 0.788
165.704 86.45 199.667 1 0 0
165.601 87.031 199.667 0.94 0.342 0
165.601 86.741 200.171 0.94 0.171 0.296
165.601 86.159 200.171 0.94 -0.171 0.296
165.306 85.734 200.493 0.766 -0.421 0.486
164.854 85.714 200.942 0.5 -0.433 0.75
164.299 85.441 201.003 0.174 -0.593 0.786
163.709 85.441 201.003 -0.174 -0.593 0.786
165.506 88.294 201.963 1 0 0
165.345 87.994 202.483 0.866 -0.25 0.433
164.906 87.613 202.748 0.5 -0.567 0.654
165.382 86.098 194.381 0.951 0.155 -0.268
164.656 87.407 194.916 0.588 0.809 0
168.313 83.482 197.066 0.901 0.434 0
168.313 83.179 197.592 0.901 0.217 0.376
168.313 82.571 197.592 0.901 -0.217 0.376
167.925 83.97 197.066 0.623 0.782 0
167.925 83.796 197.658 0.623 0.658 0.423
167.925 83.33 198.062 0.623 0.325 0.711
167.925 82.719 198.149 0.623 -0.111 0.774
167.925 82.158 197.893 0.623 -0.512 0.591
167.364 84.24 197.066 0.223 0.975 0
167.364 83.726 198.133 0.223 0.608 0.762
167.364 83.179 198.397 0.223 0.217 0.95
167.364 82.571 198.397 0.223 -0.217 0.95
167.364 82.024 198.133 0.223 -0.608 0.762
166.74 82.571 198.397 -0.223 -0.217 0.95
163.22 81.581 194.254 -0.309 -0.836 -0.453
163.22 81.966 193.76 -0.309 -0.644 -0.7
163.22 82.49 193.417 -0.309 -0.382 -0.871
162.662 82.11 194.015 -0.588 -0.572 -0.572
161.34 83.462 196.709 -0.623 -0.75 0.22
161.264 83.251 195.142 -0.809 -0.588 0
160.296 85.955 193.506 -0.5 -0.123 -0.857
159.857 85.503 194.535 -0.866 -0.5 -0
159.857 85.803 194.015 -0.866 -0.25 -0.433
159.696 86.103 194.535 -1 0 0
163.052 86.573 192.016 -0 0.121 -0.993
163.052 87.11 192.219 -0 0.568 -0.823
163.052 87.491 192.649 -0 0.885 -0.465
162.452 86.28 192.178 -0.5 -0.123 -0.857
162.452 86.86 192.262 -0.5 0.36 -0.788
164.978 85.734 193.014 0.901 -0.217 -0.376
164.978 86.342 193.014 0.901 0.217 -0.376
164.59 85.882 192.457 0.623 -0.111 -0.774
164.59 86.493 192.544 0.623 0.325 -0.711
164.59 86.959 192.948 0.623 0.658 -0.423
164.029 85.734 192.209 0.223 -0.217 -0.95
170.224 82.749 193.499 1 0 0
170.085 83.356 193.499 0.901 0.434 0
170.085 83.053 194.025 0.901 0.217 0.376
170.085 82.142 193.499 0.901 -0.434 -0
170.085 82.445 192.973 0.901 -0.217 -0.376
170.085 83.053 192.973 0.901 0.217 -0.376
169.697 83.844 193.499 0.623 0.782 0
169.697 83.67 194.091 0.623 0.658 0.423
169.697 83.204 194.495 0.623 0.325 0.711
169.697 82.593 192.416 0.623 -0.111 -0.774
169.697 83.204 192.503 0.623 0.325 -0.711
169.697 83.67 192.907 0.623 0.658 -0.423
169.136 84.114 193.499 0.223 0.975 0
169.136 83.979 194.091 0.223 0.878 0.423
169.136 83.053 192.168 0.223 0.217 -0.95
169.136 83.6 192.432 0.223 0.608 -0.762
169.136 83.979 192.907 0.223 0.878 -0.423
168.512 84.114 193.499 -0.223 0.975 0
168.512 83.6 192.432 -0.223 0.608 -0.762
168.512 83.979 192.907 -0.223 0.878 -0.423
169.829 80.7 194.944 1 0 0
169.69 81.004 195.47 0.901 0.217 0.376
169.69 80.396 195.47 0.901 -0.217 0.376
169.69 80.093 194.944 0.901 -0.434 -0
169.302 80.544 196.027 0.623 -0.111 0.774
169.302 79.983 195.771 0.623 -0.512 0.591
169.302 79.65 195.252 0.623 -0.75 0.22
169.302 79.65 194.636 0.623 -0.75 -0.22
168.741 79.849 196.011 0.223 -0.608 0.762
168.741 79.47 195.536 0.223 -0.878 0.423
168.741 79.335 194.944 0.223 -0.975 0
168.741 79.47 194.352 0.223 -0.878 -0.423
168.117 79.47 195.536 -0.223 -0.878 0.423
168.117 79.335 194.944 -0.223 -0.975 0
165.774 80.12 197.406 0.223 -0.608 0.762
165.774 79.741 196.931 0.223 -0.878 0.423
165.774 79.606 196.339 0.223 -0.975 0
165.15 80.667 197.67 -0.223 -0.217 0.95
165.15 80.12 197.406 -0.223 -0.608 0.762
165.15 79.741 196.931 -0.223 -0.878 0.423
165.15 79.606 196.339 -0.223 -0.975 0
165.15 79.741 195.747 -0.223 -0.878 -0.423
164.589 80.815 197.422 -0.623 -0.111 0.774
164.589 80.254 197.166 -0.623 -0.512 0.591
164.589 79.921 196.647 -0.623 -0.75 0.22
164.589 79.921 196.031 -0.623 -0.75 -0.22
162.759 81.775 196.217 -0.5 -0.567 0.654
162.759 81.459 195.725 -0.5 -0.831 0.244
168.151 79.839 192.436 0.623 -0.75 -0.22
168.151 80.172 191.917 0.623 -0.512 -0.591
168.151 80.733 191.661 0.623 -0.111 -0.774
167.59 79.524 192.744 0.223 -0.975 0
167.59 79.659 192.152 0.223 -0.878 -0.423
167.59 80.038 191.677 0.223 -0.608 -0.762
167.59 80.585 191.413 0.223 -0.217 -0.95
167.59 81.193 191.413 0.223 0.217 -0.95
166.966 79.524 192.744 -0.223 -0.975 0
166.966 79.659 192.152 -0.223 -0.878 -0.423
166.966 80.038 191.677 -0.223 -0.608 -0.762
166.966 80.585 191.413 -0.223 -0.217 -0.95
166.966 81.193 191.413 -0.223 0.217 -0.95
166.966 81.74 191.677 -0.223 0.608 -0.762
166.405 79.839 193.052 -0.623 -0.75 0.22
166.405 79.839 192.436 -0.623 -0.75 -0.22
166.405 80.172 191.917 -0.623 -0.512 -0.591
166.405 80.733 191.661 -0.623 -0.111 -0.774
166.405 81.344 191.748 -0.623 0.325 -0.711
166.017 80.282 192.744 -0.901 -0.434 -0
166.017 80.585 192.218 -0.901 -0.217 -0.376
161.709 83.552 193.599 -0.5 -0.567 -0.654
161.709 84.085 193.355 -0.5 -0.123 -0.857
159.749 90.983 199.225 -0.5 0.866 0
159.749 90.818 198.663 -0.5 0.729 -0.468
159.31 90.544 199.225 -0.866 0.5 0
3 0 272 1
3 1 272 273
3 272 274 273
3 273 274 275
3 274 276 275
3 275 276 277
3 276 278 277
3 277 278 279
3 278 280 279
3 279 280 281
3 280 282 281
3 281 282 283
3 282 284 283
3 283 284 285
3 284 4 285
3 285 4 3
3 4 7 5
3 5 7 6
3 7 10 8
3 8 10 9
3 10 286 11
3 11 286 287
3 286 288 287
3 287 288 289
3 288 290 289
3 289 290 291
3 290 292 291
3 291 292 293
3 292 294 293
3 293 294 295
3 294 296 295
3 295 296 297
3 296 298 297
3 297 298 299
3 298 13 299
3 299 13 12
3 13 16 14
3 14 16 15
3 16 0 17
3 17 0 2
3 17 19 15
3 15 19 18
3 19 300 20
3 20 300 301
3 300 22 301
3 301 22 21
3 22 25 23
3 23 25 24
3 25 302 26
3 26 302 303
3 302 28 303
3 303 28 27
3 28 31 304
3 304 31 305
3 304 305 29
3 29 305 30
3 31 2 32
3 32 2 1
3 32 307 306
3 306 307 308
3 306 308 30
3 30 308 309
3 307 34 308
3 308 34 310
3 308 310 309
3 309 310 33
3 34 37 311
3 311 37 312
3 311 312 35
3 35 312 36
3 37 40 313
3 313 40 315
3 313 315 314
3 314 315 316
3 314 316 38
3 38 316 39
3 40 318 317
3 317 318 319
3 317 319 41
3 41 319 320
3 318 43 319
3 319 43 321
3 319 321 320
3 320 321 42
3 43 46 322
3 322 46 323
3 322 323 44
3 44 323 45
3 46 3 47
3 47 3 5
3 47 49 324
3 324 49 325
3 324 325 45
3 45 325 48
3 49 52 326
3 326 52 327
3 326 327 50
3 50 327 51
3 52 55 53
3 53 55 54
3 55 328 56
3 56 328 329
3 328 58 329
3 329 58 57
3 58 6 59
3 59 6 8
3 59 330 57
3 57 330 331
3 330 332 331
3 331 332 333
3 332 61 333
3 333 61 60
3 61 334 62
3 62 334 335
3 334 336 335
3 335 336 337
3 336 338 337
3 337 338 339
3 338 64 339
3 339 64 63
3 64 340 65
3 65 340 341
3 340 9 341
3 341 9 11
3 65 67 63
3 63 67 66
3 67 343 342
3 342 343 344
3 342 344 68
3 68 344 345
3 343 346 344
3 344 346 347
3 344 347 345
3 345 347 348
3 346 70 347
3 347 70 349
3 347 349 348
3 348 349 69
3 70 350 71
3 71 350 351
3 350 12 351
3 351 12 14
3 71 73 69
3 69 73 72
3 73 352 74
3 74 352 353
3 352 354 353
3 353 354 355
3 354 356 355
3 355 356 357
3 356 76 357
3 357 76 75
3 76 358 77
3 77 358 359
3 358 360 359
3 359 360 361
3 360 18 361
3 361 18 20
3 77 79 75
3 75 79 78
3 79 362 80
3 80 362 363
3 362 82 363
3 363 82 81
3 82 21 83
3 83 21 23
3 83 364 81
3 81 364 365
3 364 366 365
3 365 366 367
3 366 368 367
3 367 368 369
3 368 370 369
3 369 370 371
3 370 372 371
3 371 372 373
3 372 374 373
3 373 374 375
3 374 376 375
3 375 376 377
3 376 378 377
3 377 378 379
3 378 85 379
3 379 85 84
3 85 54 86
3 86 54 56
3 86 380 84
3 84 380 381
3 380 88 381
3 381 88 87
3 88 60 89
3 89 60 62
3 89 91 382
3 382 91 383
3 382 383 87
3 87 383 90
3 91 385 384
3 384 385 386
3 384 386 92
3 92 386 387
3 385 388 386
3 386 388 389
3 386 389 387
3 387 389 390
3 388 391 389
3 389 391 392
3 389 392 390
3 390 392 393
3 391 394 392
3 392 394 395
3 392 395 393
3 393 395 396
3 394 397 395
3 395 397 398
3 395 398 396
3 396 398 399
3 397 94 398
3 398 94 400
3 398 400 399
3 399 400 93
3 94 78 401
3 401 78 402
3 401 402 95
3 95 402 80
3 95 404 403
3 403 404 405
3 403 405 93
3 93 405 406
3 404 407 405
3 405 407 408
3 405 408 406
3 406 408 409
3 407 410 408
3 408 410 411
3 408 411 409
3 409 411 412
3 410 90 411
3 411 90 413
3 411 413 412
3 412 413 92
3 74 414 72
3 72 414 415
3 414 416 415
3 415 416 417
3 416 418 417
3 417 418 419
3 418 420 419
3 419 420 421
3 420 422 421
3 421 422 423
3 422 66 423
3 423 66 68
3 53 97 424
3 424 97 425
3 424 425 51
3 51 425 96
3 97 100 426
3 426 100 427
3 426 427 98
3 98 427 99
3 100 103 428
3 428 103 429
3 428 429 101
3 101 429 102
3 103 433 430
3 430 433 434
3 430 434 431
3 431 434 435
3 431 435 432
3 432 435 436
3 432 436 104
3 104 436 437
3 433 438 434
3 434 438 439
3 434 439 435
3 435 439 440
3 435 440 436
3 436 440 441
3 436 441 437
3 437 441 442
3 438 443 439
3 439 443 444
3 439 444 440
3 440 444 445
3 440 445 441
3 441 445 446
3 441 446 442
3 442 446 447
3 443 106 444
3 444 106 448
3 444 448 445
3 445 448 449
3 445 449 446
3 446 449 450
3 446 450 447
3 447 450 105
3 106 109 451
3 451 109 453
3 451 453 452
3 452 453 454
3 452 454 107
3 107 454 108
3 109 112 455
3 455 112 457
3 455 457 456
3 456 457 458
3 456 458 110
3 110 458 111
3 112 115 459
3 459 115 460
3 459 460 113
3 113 460 114
3 115 24 116
3 116 24 26
3 116 461 114
3 114 461 462
3 461 463 462
3 462 463 464
3 463 118 464
3 464 118 117
3 118 121 119
3 119 121 120
3 121 124 122
3 122 124 123
3 124 465 125
3 125 465 466
3 465 27 466
3 466 27 29
3 125 127 467
3 467 127 468
3 467 468 123
3 123 468 126
3 127 130 469
3 469 130 470
3 469 470 128
3 128 470 129
3 130 33 131
3 131 33 35
3 131 36 129
3 129 36 38
3 128 471 126
3 126 471 472
3 471 473 472
3 472 473 474
3 473 475 474
3 474 475 476
3 475 133 476
3 476 133 132
3 133 478 477
3 477 478 479
3 477 479 134
3 134 479 480
3 478 481 479
3 479 481 482
3 479 482 480
3 480 482 483
3 481 136 482
3 482 136 484
3 482 484 483
3 483 484 135
3 136 485 137
3 137 485 486
3 485 487 486
3 486 487 488
3 487 39 488
3 488 39 41
3 137 139 135
3 135 139 138
3 139 142 489
3 489 142 490
3 489 490 140
3 140 490 141
3 142 491 143
3 143 491 492
3 491 493 492
3 492 493 494
3 493 96 494
3 494 96 98
3 143 495 141
3 141 495 496
3 495 497 496
3 496 497 498
3 497 499 498
3 498 499 500
3 499 145 500
3 500 145 144
3 145 148 501
3 501 148 504
3 501 504 502
3 502 504 505
3 502 505 503
3 503 505 506
3 503 506 146
3 146 506 147
3 148 507 149
3 149 507 508
3 507 99 508
3 508 99 101
3 149 151 509
3 509 151 512
3 509 512 510
3 510 512 513
3 510 513 511
3 511 513 514
3 511 514 147
3 147 514 150
3 151 154 515
3 515 154 517
3 515 517 516
3 516 517 518
3 516 518 152
3 152 518 153
3 154 157 519
3 519 157 520
3 519 520 155
3 155 520 156
3 157 102 521
3 521 102 524
3 521 524 522
3 522 524 525
3 522 525 523
3 523 525 526
3 523 526 158
3 158 526 104
3 158 160 527
3 527 160 528
3 527 528 156
3 156 528 159
3 160 163 161
3 161 163 162
3 163 166 529
3 529 166 530
3 529 530 164
3 164 530 165
3 166 533 531
3 531 533 534
3 531 534 532
3 532 534 535
3 532 535 167
3 167 535 536
3 533 169 534
3 534 169 537
3 534 537 535
3 535 537 538
3 535 538 536
3 536 538 168
3 169 172 539
3 539 172 541
3 539 541 540
3 540 541 542
3 540 542 170
3 170 542 171
3 172 545 543
3 543 545 546
3 543 546 544
3 544 546 547
3 544 547 173
3 173 547 548
3 545 175 546
3 546 175 549
3 546 549 547
3 547 549 550
3 547 550 548
3 548 550 174
3 175 178 176
3 176 178 177
3 178 181 551
3 551 181 552
3 551 552 179
3 179 552 180
3 181 105 182
3 182 105 107
3 182 553 180
3 180 553 554
3 553 184 554
3 554 184 183
3 184 108 555
3 555 108 556
3 555 556 185
3 185 556 110
3 185 187 557
3 557 187 558
3 557 558 183
3 183 558 186
3 187 560 559
3 559 560 561
3 559 561 188
3 188 561 562
3 560 563 561
3 561 563 564
3 561 564 562
3 562 564 565
3 563 566 564
3 564 566 567
3 564 567 565
3 565 567 568
3 566 190 567
3 567 190 569
3 567 569 568
3 568 569 189
3 190 193 570
3 570 193 571
3 570 571 191
3 191 571 192
3 193 196 572
3 572 196 575
3 572 575 573
3 573 575 576
3 573 576 574
3 574 576 577
3 574 577 194
3 194 577 195
3 196 578 197
3 197 578 579
3 578 199 579
3 579 199 198
3 199 202 580
3 580 202 581
3 580 581 200
3 200 581 201
3 202 205 203
3 203 205 204
3 205 208 206
3 206 208 207
3 208 582 209
3 209 582 583
3 582 584 583
3 583 584 585
3 584 211 585
3 585 211 210
3 211 586 212
3 212 586 587
3 586 111 587
3 587 111 113
3 212 117 210
3 210 117 119
3 209 214 207
3 207 214 213
3 214 120 588
3 588 120 589
3 588 589 215
3 215 589 122
3 215 217 590
3 590 217 591
3 590 591 213
3 213 591 216
3 217 132 592
3 592 132 593
3 592 593 218
3 218 593 134
3 218 220 594
3 594 220 595
3 594 595 216
3 216 595 219
3 220 596 221
3 221 596 597
3 596 598 597
3 597 598 599
3 598 600 599
3 599 600 601
3 600 602 601
3 601 602 603
3 602 138 603
3 603 138 140
3 221 223 604
3 604 223 605
3 604 605 219
3 219 605 222
3 223 201 224
3 224 201 203
3 224 204 222
3 222 204 206
3 200 226 606
3 606 226 607
3 606 607 198
3 198 607 225
3 226 229 608
3 608 229 609
3 608 609 227
3 227 609 228
3 229 144 610
3 610 144 613
3 610 613 611
3 611 613 614
3 611 614 612
3 612 614 615
3 612 615 230
3 230 615 146
3 230 232 616
3 616 232 617
3 616 617 228
3 228 617 231
3 232 235 618
3 618 235 619
3 618 619 233
3 233 619 234
3 235 238 620
3 620 238 621
3 620 621 236
3 236 621 237
3 238 241 239
3 239 241 240
3 241 623 622
3 622 623 624
3 622 624 242
3 242 624 625
3 623 165 624
3 624 165 626
3 624 626 625
3 625 626 167
3 242 244 240
3 240 244 243
3 244 628 627
3 627 628 629
3 627 629 245
3 245 629 630
3 628 247 629
3 629 247 631
3 629 631 630
3 630 631 246
3 247 632 248
3 248 632 633
3 632 250 633
3 633 250 249
3 250 635 634
3 634 635 636
3 634 636 251
3 251 636 637
3 635 253 636
3 636 253 638
3 636 638 637
3 637 638 252
3 253 168 254
3 254 168 170
3 254 171 252
3 252 171 173
3 251 639 249
3 249 639 640
3 639 256 640
3 640 256 255
3 256 642 641
3 641 642 643
3 641 643 257
3 257 643 644
3 642 645 643
3 643 645 646
3 643 646 644
3 644 646 647
3 645 259 646
3 646 259 648
3 646 648 647
3 647 648 258
3 259 262 260
3 260 262 261
3 262 651 649
3 649 651 652
3 649 652 650
3 650 652 653
3 650 653 263
3 263 653 654
3 651 655 652
3 652 655 656
3 652 656 653
3 653 656 657
3 653 657 654
3 654 657 658
3 655 265 656
3 656 265 659
3 656 659 657
3 657 659 660
3 657 660 658
3 658 660 264
3 265 174 661
3 661 174 662
3 661 662 266
3 266 662 176
3 266 177 264
3 264 177 179
3 263 268 663
3 663 268 665
3 663 665 664
3 664 665 666
3 664 666 261
3 261 666 267
3 268 192 667
3 667 192 669
3 667 669 668
3 668 669 670
3 668 670 269
3 269 670 194
3 269 258 267
3 267 258 260
3 257 671 255
3 255 671 672
3 671 246 672
3 672 246 248
3 245 237 243
3 243 237 239
3 236 195 673
3 673 195 676
3 673 676 674
3 674 676 677
3 674 677 675
3 675 677 678
3 675 678 234
3 234 678 197
3 233 225 231
3 231 225 227
3 191 680 679
3 679 680 681
3 679 681 189
3 189 681 682
3 680 186 681
3 681 186 683
3 681 683 682
3 682 683 188
3 164 150 162
3 162 150 152
3 161 153 159
3 159 153 155
3 50 684 48
3 48 684 685
3 684 686 685
3 685 686 687
3 686 42 687
3 687 42 44
3 270 688 271
3 271 688 689
3 688 690 689
3 689 690 691
3 690 692 691
3 691 692 693
3 692 694 693
3 693 694 695
3 694 696 695
3 695 696 697
3 696 270 697
3 697 270 271
3 2 0 1
3 5 3 4
3 8 6 7
3 11 9 10
3 14 12 13
3 17 15 16
3 20 18 19
3 23 21 22
3 26 24 25
3 29 27 304
3 304 27 28
3 306 30 305
3 306 305 31
3 306 31 32
3 35 33 310
3 35 310 311
3 311 310 34
3 38 36 314
3 314 36 313
3 313 36 312
3 313 312 37
3 41 39 316
3 41 316 317
3 317 316 315
3 317 315 40
3 44 42 322
3 322 42 321
3 322 321 43
3 324 45 323
3 324 323 47
3 47 323 46
3 50 48 325
3 50 325 326
3 326 325 49
3 424 51 327
3 424 327 52
3 424 52 53
3 56 54 55
3 59 57 58
3 62 60 61
3 65 63 64
3 68 66 342
3 342 66 67
3 71 69 349
3 71 349 70
3 74 72 73
3 77 75 76
3 402 78 79
3 402 79 80
3 83 81 82
3 86 84 85
3 382 87 88
3 382 88 89
3 413 90 383
3 413 383 384
3 413 384 92
3 384 383 91
3 403 93 400
3 403 400 401
3 403 401 95
3 401 400 94
3 98 96 426
3 426 96 425
3 426 425 97
3 101 99 428
3 428 99 427
3 428 427 100
3 699 698 700
3 524 102 429
3 524 429 700
3 524 700 525
3 525 700 698
3 525 698 526
3 526 698 432
3 526 432 104
3 432 698 431
3 431 698 430
3 430 698 699
3 430 699 103
3 103 699 429
3 429 699 700
3 107 105 701
3 107 701 452
3 452 701 450
3 452 450 449
3 452 449 451
3 451 449 448
3 451 448 106
3 450 701 105
3 556 108 454
3 556 454 702
3 556 702 110
3 110 702 456
3 456 702 453
3 456 453 455
3 455 453 109
3 453 702 454
3 113 111 458
3 113 458 459
3 459 458 457
3 459 457 112
3 116 114 460
3 116 460 115
3 119 117 118
3 589 120 121
3 589 121 122
3 467 123 124
3 467 124 125
3 128 126 469
3 469 126 468
3 469 468 127
3 131 129 470
3 131 470 130
3 593 132 133
3 593 133 477
3 593 477 134
3 137 135 484
3 137 484 136
3 140 138 489
3 489 138 139
3 143 141 490
3 143 490 142
3 613 144 145
3 613 145 501
3 613 501 614
3 614 501 502
3 614 502 615
3 615 502 503
3 615 503 146
3 511 147 506
3 511 506 505
3 511 505 510
3 510 505 504
3 510 504 509
3 509 504 148
3 509 148 149
3 152 150 514
3 152 514 516
3 516 514 513
3 516 513 515
3 515 513 512
3 515 512 151
3 155 153 518
3 155 518 517
3 155 517 519
3 519 517 154
3 527 156 523
3 527 523 158
3 523 156 522
3 522 156 520
3 522 520 521
3 521 520 157
3 161 159 528
3 161 528 160
3 164 162 529
3 529 162 163
3 626 165 532
3 626 532 167
3 532 165 531
3 531 165 530
3 531 530 166
3 170 168 538
3 170 538 540
3 540 538 537
3 540 537 539
3 539 537 169
3 173 171 544
3 544 171 542
3 544 542 543
3 543 542 541
3 543 541 172
3 662 174 550
3 662 550 549
3 662 549 176
3 176 549 175
3 179 177 551
3 551 177 178
3 182 180 552
3 182 552 181
3 557 183 184
3 557 184 555
3 557 555 185
3 683 186 558
3 683 558 187
3 683 187 559
3 683 559 188
3 679 189 569
3 679 569 190
3 679 190 570
3 679 570 191
3 704 703 705
3 669 192 705
3 669 705 703
3 669 703 670
3 670 703 574
3 670 574 194
3 574 703 573
3 573 703 704
3 573 704 572
3 572 704 571
3 572 571 193
3 571 704 705
3 571 705 192
3 676 195 577
3 676 577 677
3 677 577 576
3 677 576 678
3 678 576 575
3 678 575 197
3 197 575 196
3 606 198 199
3 606 199 580
3 606 580 200
3 203 201 581
3 203 581 202
3 206 204 205
3 209 207 208
3 212 210 211
3 590 213 214
3 590 214 588
3 590 588 215
3 594 216 706
3 594 706 592
3 594 592 218
3 592 706 217
3 217 706 591
3 591 706 216
3 604 219 595
3 604 595 221
3 221 595 220
3 224 222 605
3 224 605 223
3 227 225 607
3 227 607 608
3 608 607 226
3 616 228 612
3 616 612 230
3 612 228 611
3 611 228 609
3 611 609 610
3 610 609 229
3 233 231 618
3 618 231 617
3 618 617 232
3 675 234 619
3 675 619 674
3 674 619 235
3 674 235 620
3 674 620 673
3 673 620 236
3 239 237 621
3 239 621 238
3 242 240 622
3 622 240 241
3 245 243 627
3 627 243 244
3 248 246 631
3 248 631 247
3 251 249 634
3 634 249 250
3 254 252 638
3 254 638 253
3 257 255 641
3 641 255 256
3 260 258 648
3 260 648 259
3 664 261 649
3 664 649 650
3 664 650 663
3 663 650 263
3 649 261 262
3 266 264 660
3 266 660 661
3 661 660 659
3 661 659 265
3 269 267 668
3 668 267 666
3 668 666 667
3 667 666 665
3 667 665 268
3 707 709 710
3 708 707 710
3 708 710 711
3 710 709 713
3 710 713 714
3 711 710 714
3 711 714 715
3 718 722 723
3 719 718 723
3 719 723 724
3 723 722 725
3 724 723 725
3 724 725 726
3 726 725 728
3 727 726 728
3 727 728 692
3 727 692 690
3 727 690 276
3 727 276 274
3 727 274 726
3 726 274 272
3 726 272 724
3 724 272 0
3 724 0 719
3 719 0 16
3 719 16 13
3 719 13 718
3 718 13 298
3 718 298 722
3 722 298 296
3 722 296 721
3 722 721 725
3 725 721 694
3 725 694 728
3 728 694 692
3 694 721 717
3 694 717 696
3 696 717 292
3 696 292 290
3 696 290 270
3 270 290 712
3 270 712 715
3 270 715 688
3 688 715 714
3 688 714 713
3 688 713 716
3 688 716 720
3 688 720 690
3 690 720 278
3 690 278 276
3 278 720 280
3 280 720 716
3 280 716 282
3 282 716 713
3 282 713 284
3 284 713 709
3 284 709 4
3 4 709 707
3 4 707 7
3 7 707 10
3 10 707 708
3 10 708 286
3 286 708 711
3 286 711 288
3 288 711 712
3 288 712 290
3 712 711 715
3 292 717 294
3 294 717 296
3 296 717 721
3 3 46 285
3 285 46 43
3 285 43 283
3 283 43 318
3 283 318 281
3 281 318 40
3 281 40 279
3 279 40 37
3 279 37 34
3 279 34 277
3 277 34 729
3 277 729 275
3 275 729 307
3 275 307 273
3 273 307 32
3 273 32 1
3 307 729 34
3 6 58 5
3 328 55 49
3 328 49 47
3 328 47 5
3 328 5 58
3 49 55 52
3 59 8 330
3 340 64 338
3 340 338 731
3 340 731 9
3 9 731 730
3 9 730 8
3 8 730 330
3 330 730 332
3 332 730 334
3 332 334 61
3 334 730 731
3 334 731 336
3 336 731 338
3 67 65 343
3 733 732 734
3 733 734 343
3 733 343 65
3 733 65 732
3 732 65 341
3 732 341 287
3 732 287 289
3 732 289 291
3 732 291 734
3 734 291 293
3 734 293 735
3 734 735 343
3 343 735 346
3 346 735 736
3 346 736 737
3 346 737 70
3 70 737 350
3 350 737 299
3 350 299 12
3 299 737 297
3 297 737 736
3 297 736 295
3 295 736 293
3 293 736 735
3 287 341 11
3 73 71 352
3 15 18 14
3 358 76 356
3 358 356 739
3 358 739 360
3 360 739 18
3 18 739 14
3 14 739 738
3 14 738 351
3 351 738 352
3 351 352 71
3 352 738 354
3 354 738 739
3 354 739 356
3 19 17 300
3 2 31 741
3 2 741 740
3 2 740 17
3 17 740 300
3 300 740 22
3 22 740 25
3 25 740 302
3 302 740 741
3 302 741 28
3 28 741 31
3 21 82 743
3 21 743 301
3 301 743 361
3 301 361 20
3 361 743 359
3 359 743 742
3 359 742 362
3 359 362 77
3 77 362 79
3 362 742 82
3 82 742 743
3 745 746 747
3 746 748 749
3 747 746 749
3 747 749 750
3 749 748 751
3 749 751 752
3 750 749 752
3 750 752 115
3 750 115 112
3 750 112 109
3 750 109 747
3 747 109 106
3 747 106 745
3 745 106 443
3 745 443 368
3 745 368 366
3 745 366 746
3 746 366 364
3 746 364 748
3 748 364 83
3 748 83 751
3 751 83 23
3 751 23 24
3 751 24 752
3 752 24 115
3 368 443 370
3 370 443 372
3 372 443 438
3 372 438 374
3 374 438 433
3 374 433 376
3 376 433 744
3 376 744 378
3 378 744 85
3 85 744 100
3 85 100 54
3 54 100 97
3 54 97 53
3 100 744 103
3 103 744 433
3 465 124 754
3 465 754 463
3 465 463 753
3 465 753 303
3 465 303 27
3 303 753 26
3 26 753 116
3 116 753 461
3 461 753 463
3 463 754 118
3 118 754 121
3 121 754 124
3 309 33 127
3 309 127 755
3 309 755 30
3 30 755 466
3 30 466 29
3 466 755 125
3 125 755 127
3 127 33 130
3 36 131 35
3 756 759 760
3 757 756 760
3 758 757 760
3 758 760 761
3 761 760 473
3 761 473 471
3 761 471 128
3 761 128 129
3 761 129 38
3 761 38 39
3 761 39 758
3 758 39 487
3 758 487 757
3 757 487 485
3 757 485 136
3 757 136 756
3 756 136 481
3 756 481 478
3 756 478 759
3 759 478 475
3 759 475 473
3 759 473 760
3 475 478 133
3 684 50 493
3 684 493 491
3 684 491 686
3 686 491 142
3 686 142 139
3 686 139 137
3 686 137 486
3 686 486 42
3 42 486 488
3 42 488 320
3 320 488 41
3 493 50 96
3 96 50 51
3 45 48 762
3 45 762 687
3 45 687 44
3 687 762 685
3 685 762 48
3 333 60 380
3 333 380 86
3 333 86 763
3 333 763 331
3 331 763 329
3 331 329 57
3 329 763 56
3 56 763 86
3 380 60 88
3 91 89 385
3 78 94 75
3 63 66 339
3 764 767 765
3 764 765 766
3 768 769 770
3 770 769 771
3 770 771 357
3 770 357 75
3 770 75 397
3 770 397 768
3 768 397 394
3 768 394 391
3 768 391 418
3 768 418 416
3 768 416 769
3 769 416 414
3 769 414 771
3 771 414 353
3 771 353 355
3 771 355 357
3 353 414 74
3 418 391 388
3 418 388 766
3 418 766 420
3 420 766 422
3 422 766 765
3 422 765 339
3 422 339 66
3 339 765 337
3 337 765 767
3 337 767 335
3 335 767 385
3 335 385 62
3 62 385 89
3 385 767 764
3 385 764 388
3 388 764 766
3 397 75 94
3 69 72 348
3 772 773 774
3 774 773 776
3 774 776 777
3 775 774 777
3 775 777 415
3 775 415 417
3 775 417 419
3 775 419 774
3 774 419 772
3 772 419 421
3 772 421 423
3 772 423 773
3 773 423 68
3 773 68 345
3 773 345 776
3 776 345 348
3 776 348 777
3 777 348 72
3 777 72 415
3 95 80 404
3 87 90 381
3 778 779 780
3 778 780 781
3 778 781 375
3 778 375 377
3 778 377 779
3 779 377 379
3 779 379 381
3 779 381 90
3 779 90 780
3 780 90 410
3 780 410 781
3 781 410 407
3 781 407 782
3 781 782 373
3 781 373 375
3 373 782 371
3 371 782 783
3 371 783 369
3 369 783 784
3 369 784 367
3 367 784 785
3 367 785 365
3 365 785 363
3 365 363 81
3 363 785 80
3 80 785 784
3 80 784 404
3 404 784 783
3 404 783 407
3 407 783 782
3 381 379 84
3 412 92 786
3 412 786 787
3 412 787 409
3 409 787 788
3 409 788 406
3 406 788 399
3 406 399 93
3 399 788 396
3 396 788 393
3 393 788 787
3 393 787 390
3 390 787 786
3 390 786 387
3 387 786 92
3 507 148 789
3 507 789 497
3 507 497 790
3 507 790 99
3 99 790 494
3 99 494 98
3 494 790 492
3 492 790 495
3 492 495 143
3 495 790 497
3 497 789 499
3 499 789 145
3 145 789 148
3 102 157 508
3 102 508 101
3 508 157 154
3 508 154 149
3 149 154 151
3 792 791 795
3 792 795 796
3 792 796 797
3 793 792 797
3 793 797 798
3 791 794 795
3 796 795 800
3 796 800 801
3 797 796 801
3 797 801 802
3 798 797 802
3 798 802 803
3 802 801 804
3 802 804 803
3 803 804 181
3 803 181 178
3 803 178 798
3 798 178 175
3 798 175 545
3 798 545 793
3 793 545 172
3 793 172 792
3 792 172 791
3 791 172 169
3 791 169 533
3 791 533 794
3 794 533 166
3 794 166 799
3 794 799 795
3 795 799 437
3 795 437 800
3 800 437 442
3 800 442 801
3 801 442 447
3 801 447 804
3 804 447 105
3 804 105 181
3 437 799 104
3 104 799 158
3 158 799 160
3 160 799 163
3 163 799 166
3 108 184 553
3 108 553 107
3 107 553 182
3 806 805 808
3 806 808 807
3 806 807 578
3 806 578 196
3 806 196 805
3 805 196 193
3 805 193 190
3 805 190 566
3 805 566 808
3 808 566 582
3 808 582 208
3 808 208 807
3 807 208 205
3 807 205 578
3 578 205 202
3 578 202 199
3 582 566 563
3 582 563 584
3 584 563 211
3 211 563 560
3 211 560 586
3 586 560 187
3 586 187 111
3 111 187 185
3 111 185 110
3 464 117 809
3 464 809 462
3 462 809 587
3 462 587 114
3 114 587 113
3 587 809 212
3 212 809 117
3 120 214 810
3 120 810 119
3 119 810 210
3 210 810 585
3 585 810 583
3 583 810 214
3 583 214 209
3 813 812 814
3 813 814 474
3 813 474 811
3 813 811 215
3 813 215 812
3 812 215 122
3 812 122 123
3 812 123 814
3 814 123 126
3 814 126 472
3 814 472 474
3 215 811 217
3 217 811 132
3 132 811 476
3 476 811 474
3 815 818 819
3 816 815 819
3 816 819 483
3 816 483 817
3 816 817 602
3 816 602 600
3 816 600 815
3 815 600 598
3 815 598 596
3 815 596 818
3 818 596 220
3 818 220 218
3 818 218 134
3 818 134 480
3 818 480 819
3 819 480 483
3 602 817 138
3 138 817 135
3 135 817 483
3 821 820 822
3 821 822 823
3 821 823 824
3 821 824 498
3 821 498 500
3 821 500 820
3 820 500 144
3 820 144 229
3 820 229 226
3 820 226 822
3 822 226 825
3 822 825 599
3 822 599 823
3 823 599 601
3 823 601 824
3 824 601 603
3 824 603 496
3 824 496 498
3 496 603 141
3 141 603 140
3 599 825 597
3 597 825 200
3 597 200 201
3 597 201 223
3 597 223 221
3 200 825 226
3 147 150 164
3 147 164 623
3 147 623 146
3 146 623 241
3 146 241 230
3 230 241 232
3 232 241 238
3 232 238 235
3 623 164 165
3 153 161 162
3 153 162 152
3 156 159 155
3 826 827 828
3 826 829 830
3 826 830 831
3 826 831 827
3 828 827 833
3 828 833 834
3 831 830 835
3 831 835 836
3 831 836 837
3 827 831 837
3 827 837 832
3 827 832 833
3 833 832 839
3 836 835 840
3 836 840 841
3 837 836 841
3 837 841 842
3 832 837 842
3 832 842 838
3 832 838 839
3 841 840 844
3 841 844 845
3 842 841 845
3 838 842 845
3 838 845 843
3 838 843 839
3 839 843 167
3 839 167 536
3 839 536 833
3 833 536 834
3 834 536 168
3 834 168 253
3 834 253 635
3 834 635 828
3 828 635 826
3 826 635 829
3 829 635 250
3 829 250 632
3 829 632 830
3 830 632 835
3 835 632 247
3 835 247 628
3 835 628 840
3 840 628 844
3 844 628 244
3 844 244 242
3 844 242 845
3 845 242 625
3 845 625 843
3 843 625 167
3 171 254 170
3 262 259 651
3 846 847 848
3 846 848 849
3 848 847 850
3 848 850 851
3 848 851 852
3 849 848 852
3 849 852 853
3 851 854 855
3 852 851 855
3 852 855 856
3 853 852 856
3 853 856 857
3 855 854 858
3 855 858 859
3 856 855 859
3 856 859 857
3 857 859 642
3 857 642 256
3 857 256 853
3 853 256 639
3 853 639 849
3 849 639 251
3 849 251 846
3 846 251 637
3 846 637 847
3 847 637 252
3 847 252 548
3 847 548 850
3 850 548 174
3 850 174 854
3 850 854 851
3 854 174 265
3 854 265 655
3 854 655 858
3 858 655 651
3 858 651 859
3 859 651 259
3 859 259 645
3 859 645 642
3 548 252 173
3 177 266 176
3 268 263 192
3 860 864 865
3 861 860 865
3 861 865 866
3 862 861 866
3 862 866 867
3 863 868 869
3 864 863 869
3 865 864 869
3 865 869 870
3 866 865 870
3 866 870 871
3 867 866 871
3 867 871 191
3 867 191 192
3 867 192 263
3 867 263 862
3 862 263 654
3 862 654 658
3 862 658 861
3 861 658 860
3 860 658 179
3 860 179 180
3 860 180 863
3 860 863 864
3 863 180 554
3 863 554 868
3 868 554 183
3 868 183 186
3 868 186 869
3 869 186 680
3 869 680 870
3 870 680 871
3 871 680 191
3 179 658 264
3 682 188 872
3 682 872 873
3 682 873 189
3 189 873 568
3 568 873 565
3 565 873 562
3 562 873 872
3 562 872 188
3 258 269 647
3 874 877 878
3 875 874 878
3 875 878 879
3 875 879 880
3 876 875 880
3 876 880 881
3 877 882 883
3 878 877 883
3 878 883 884
3 879 878 884
3 879 884 885
3 880 879 885
3 880 885 886
3 881 880 886
3 881 886 887
3 882 888 889
3 883 882 889
3 883 889 890
3 884 883 890
3 885 884 890
3 885 890 891
3 886 885 891
3 886 891 892
3 887 886 892
3 889 888 893
3 889 893 894
3 890 889 894
3 891 890 894
3 891 894 892
3 892 894 195
3 892 195 236
3 892 236 887
3 887 236 237
3 887 237 245
3 887 245 630
3 887 630 881
3 881 630 876
3 876 630 246
3 876 246 671
3 876 671 875
3 875 671 874
3 874 671 257
3 874 257 644
3 874 644 877
3 877 644 647
3 877 647 882
3 882 647 888
3 888 647 269
3 888 269 194
3 888 194 893
3 893 194 195
3 893 195 894
3 198 225 234
3 198 234 579
3 579 234 197
3 234 225 233
3 204 224 203
3 207 213 895
3 207 895 206
3 206 895 896
3 206 896 219
3 206 219 222
3 219 896 216
3 216 896 213
3 213 896 895
3 228 231 227
3 240 243 239
3 640 255 672
3 640 672 633
3 640 633 249
3 633 672 248
3 260 261 267
3 897 898 899
3 899 898 691
3 899 691 693
3 899 693 695
3 899 695 697
3 899 697 897
3 897 697 271
3 897 271 898
3 898 271 689
3 898 689 691
