ply
format ascii 1.0
comment Generated by PyMesh
element vertex 743
property float x
property float y
property float z
property float nx
property float ny
property float nz
element face 1482
property list uchar int vertex_indices
end_header
-19.252 15.641 10.685 -0.567 -0.798 -0.203
-18.622 14.521 10.613 -0.986 -0.052 -0.155
-18.898 15.117 10.97 -0.802 -0.449 -0.393
-17.256 15.35 9.653 -0.01 0.541 -0.841
-17.885 16.47 9.725 0.409 -0.206 -0.889
-17.354 16.054 9.885 0.055 0.071 -0.996
-17.32 16.1 9.892 0.075 0.097 -0.992
-17.855 16.511 9.73 0.431 -0.177 -0.885
-15.906 16.173 9.145 -0.868 0.049 -0.495
-15.854 16.506 9.143 -0.841 0.216 -0.496
-17.81 16.793 9.728 0.463 0.024 -0.886
-15.954 17.321 9.21 -0.775 -0.328 -0.541
-15.921 18.41 10.248 -0.748 0.579 0.324
-17.775 17.976 10.856 0.488 0.869 -0.081
-16.526 17.939 11.166 -0.345 0.894 -0.287
-16.694 17.898 11.839 -0.465 0.864 0.193
-17.943 17.934 11.529 0.368 0.839 0.4
-17.42 17.708 11.924 0.019 0.99 0.137
-18.59 16.922 12.656 -0.631 0.554 0.543
-18.979 17.238 12.177 -0.372 0.342 0.863
-18.578 16.614 13.279 -0.639 0.759 0.128
-19.06 15.782 12.982 -0.983 0.164 -0.083
-19.46 16.407 11.881 -0.716 -0.252 0.651
-19.134 15.982 12.321 -0.933 0.032 0.357
-18.497 14.474 12.73 -0.581 -0.77 -0.264
-18.498 14.503 12.036 -0.58 -0.79 0.199
-18.268 13.978 11.557 -0.733 -0.44 0.518
-17.005 14.328 13.083 0.485 -0.875 -0.011
-16.776 13.832 11.91 0.332 -0.544 0.771
-15.614 14.131 12.315 -0.443 -0.744 0.501
-15.366 13.864 11.837 -0.235 -0.966 0.103
-16.506 13.541 11.391 0.525 -0.751 0.4
-14.327 12.863 11.656 -0.928 -0.299 0.224
-14.145 13.132 10.163 -0.837 -0.164 -0.523
-16.352 13.769 10.13 0.635 -0.589 -0.501
-14.873 14.253 9.703 -0.351 -0.911 -0.216
-14.908 14.287 9.624 -0.368 -0.894 -0.255
-16.381 13.798 10.064 0.614 -0.568 -0.548
-14.959 14.354 9.37 -0.334 -0.939 -0.086
-15.562 15.347 8.829 -0.836 -0.11 -0.537
-17.036 14.877 9.476 0.146 0.203 -0.968
-15.683 15.565 8.928 -0.756 -0.255 -0.603
-15.906 16.128 9.141 -0.868 0.027 -0.497
-17.225 15.353 9.656 0.011 0.543 -0.84
-17.32 16.058 9.888 0.075 0.074 -0.994
-14.453 15.202 8.31 0.088 -0.232 -0.969
-14.257 15.378 8.261 -0.043 -0.349 -0.936
-13.192 14.544 7.794 -0.753 0.207 -0.625
-12.983 14.859 7.707 -0.649 0.365 -0.668
-14.048 15.693 8.175 0.061 -0.191 -0.98
-12.683 15.177 7.465 -0.849 0.152 -0.506
-12.234 16.009 7.606 -0.528 0.746 -0.405
-13.517 16.677 8.342 0.327 0.301 -0.896
-13.689 17.254 8.338 0.441 -0.084 -0.893
-15.345 17.216 8.662 -0.741 -0.111 -0.662
-15.477 16.632 8.726 -0.653 0.279 -0.704
-15.661 17.419 8.886 -0.531 -0.246 -0.811
-14.083 18.544 10.32 0.16 0.838 0.522
-14.5 18.642 10.412 0.437 0.772 0.461
-13.89 18.515 11.876 0.03 0.857 -0.515
-14.642 18.397 12.179 -0.597 0.759 -0.262
-15.252 18.524 10.716 -0.19 0.674 0.714
-15.799 18.062 11.673 0.175 0.982 0.075
-14.81 18.281 12.664 -0.737 0.661 0.142
-15.981 17.936 12.2 0.044 0.891 0.451
-15.003 18.097 12.685 -0.608 0.784 0.128
-15.234 17.669 13.21 -0.723 0.57 0.39
-16.176 17.574 12.643 -0.095 0.633 0.768
-15.261 17.461 13.823 -0.705 0.709 -0.018
-15.411 17.292 13.92 -0.781 0.624 0.03
-16.303 17.432 12.725 -0.186 0.531 0.827
-15.521 17.183 14.137 -0.708 0.697 -0.115
-15.562 17.142 14.153 -0.741 0.663 -0.102
-16.348 17.387 12.742 -0.218 0.5 0.839
-17.029 17.131 12.944 0.236 0.67 0.704
-15.571 17.133 14.165 -0.75 0.655 -0.092
-17.04 17.12 12.959 0.23 0.664 0.712
-17.207 16.79 13.547 0.341 0.884 0.32
-15.651 16.253 14.963 -0.816 -0.078 0.573
-17.293 15.834 14.414 0.279 0.201 0.939
-15.683 15.254 16.051 -0.794 0.588 -0.153
-15.678 13.923 15.575 -0.791 -0.363 -0.493
-17.289 14.503 13.938 0.282 -0.749 0.599
-15.394 13.591 15.037 -0.981 -0.141 -0.134
-15.016 13.431 14.211 -0.771 -0.23 -0.593
-16.955 14.362 13.206 0.521 -0.85 0.076
-14.936 13.88 13.618 -0.825 -0.529 -0.198
-14.93 13.882 13.589 -0.82 -0.528 -0.219
-16.948 14.363 13.177 0.525 -0.849 0.055
-15.562 14.164 12.401 -0.399 -0.716 0.572
-14.634 13.644 13.369 -0.61 -0.698 -0.377
-15.29 13.946 12.198 -0.172 -0.899 0.404
-14.575 12.487 13.94 -0.649 0.074 -0.757
-14.544 12.469 13.912 -0.627 0.062 -0.777
-15.261 13.93 12.173 -0.149 -0.912 0.383
-14.193 12.947 12.087 -0.861 -0.257 0.44
-14.407 12.09 13.848 -0.528 -0.209 -0.823
-14.03 12.498 12.011 -0.779 -0.481 0.402
-13.873 11.953 11.935 -0.884 -0.118 0.452
-13.626 12.331 9.74 -0.761 0.071 -0.645
-13.784 12.876 9.816 -0.656 -0.292 -0.696
-13.361 12.162 9.213 -0.938 0.184 -0.294
-13.352 12.18 9.198 -0.934 0.193 -0.302
-13.775 12.894 9.801 -0.652 -0.283 -0.704
-13.438 13.18 8.873 -0.876 -0.474 -0.085
-13.552 13.423 8.907 -0.933 -0.353 -0.068
-13.889 13.137 9.835 -0.709 -0.162 -0.687
-14.733 14.331 9.176 -0.146 -0.958 -0.248
-14.872 14.329 9.341 -0.262 -0.959 -0.11
-14.068 13.135 10.047 -0.798 -0.163 -0.58
-14.796 14.256 9.587 -0.313 -0.91 -0.273
-13.008 11.989 8.521 -0.762 0.098 -0.64
-13.095 12.99 8.196 -0.704 -0.57 -0.424
-12.824 12.454 8.183 -0.885 -0.212 -0.415
-11.896 12.818 7.288 -0.339 0.002 -0.941
-12.096 13.381 7.234 -0.205 -0.374 -0.905
-11.595 12.701 7.135 -0.539 0.08 -0.839
-10.98 13.061 7.031 -0.026 0.379 -0.925
-11.305 13.844 7.1 0.19 -0.143 -0.971
-11.265 14.32 6.952 0.164 -0.46 -0.873
-10.313 13.211 7.322 0.529 0.505 -0.682
-10.541 14.483 7.269 0.681 -0.343 -0.647
-10.448 14.037 7.475 0.619 -0.046 -0.784
-10.513 15.748 9.104 0.586 0.809 0.031
-10.596 15.928 8.645 0.642 0.689 0.337
-11.038 16.637 9.563 0.937 0.217 -0.276
-12.217 16.956 8.844 -0.046 0.482 -0.875
-11.877 16.275 7.864 -0.273 0.936 -0.221
-13.331 17.52 8.596 0.697 0.106 -0.709
-12.055 17.523 9.556 0.089 0.955 -0.282
-13.156 18.136 9.369 0.822 0.547 -0.157
-12.256 17.612 9.709 0.223 0.896 -0.384
-12.574 17.81 10.63 0.064 0.995 0.076
-13.424 18.304 10.147 0.631 0.666 0.398
-13.04 18.114 11.467 0.374 0.792 -0.482
-13.632 18.364 11.649 0.078 0.917 -0.391
-13.925 18.514 10.301 0.273 0.817 0.508
-13.743 18.488 11.858 0.152 0.834 -0.53
-13.684 18.234 13.469 0.052 0.853 0.52
-13.783 18.388 13.274 0.119 0.751 0.65
-13.71 18.027 14.082 0.07 0.991 0.111
-14.554 17.91 14.006 -0.352 0.933 0.073
-14.44 18.297 13.215 -0.428 0.675 0.601
-14.528 18.118 13.393 -0.37 0.794 0.482
-11.974 17.004 13.126 0.907 0.238 0.348
-12.001 16.797 13.739 0.925 0.376 -0.06
-11.601 16.721 12.718 0.658 0.427 0.62
-11.548 15.602 12.709 0.696 -0.372 0.614
-11.938 15.473 13.728 0.956 -0.286 -0.065
-11.347 14.366 12.592 0.562 0.452 0.692
-11.446 14.098 12.802 0.513 0.318 0.797
-12.036 15.205 13.938 0.907 -0.42 0.04
-12.018 14.243 14.58 0.895 0.221 -0.388
-12.14 14.831 15.509 0.827 0.548 0.128
-12.164 15.82 14.911 0.843 -0.112 0.526
-12.132 16.081 14.961 0.822 -0.286 0.493
-12.62 16.353 15.459 0.415 -0.059 0.908
-12.792 16.17 15.551 0.529 0.063 0.846
-12.739 15.165 16.12 0.494 0.733 0.467
-13.073 15.234 16.28 0.308 0.772 0.556
-13.142 16.243 15.719 0.354 0.1 0.93
-13.625 15.378 16.675 0.676 0.676 0.293
-15.077 15.72 16.469 -0.361 0.921 0.146
-14.86 16.649 15.476 -0.505 0.302 0.808
-15.093 16.682 15.347 -0.35 0.28 0.894
-14.387 12.757 16.496 -0.422 -0.604 0.676
-14.788 13.185 16.866 -0.155 -0.89 0.429
-14.32 12.126 16.211 -0.466 -0.184 0.865
-14.972 12.28 15.496 -0.932 -0.074 0.355
-15.44 13.339 16.151 -0.62 -0.78 -0.082
-15.124 12.931 15.688 -0.831 -0.508 0.227
-14.701 12.545 14.07 -0.738 0.115 -0.664
-14.817 13.23 14.076 -0.661 -0.342 -0.668
-14.76 13.702 13.499 -0.699 -0.656 -0.284
-12.115 13.031 14.742 0.841 -0.452 -0.298
-12.309 12.368 14.66 0.97 -0.011 -0.243
-11.39 12.282 12.896 0.357 0.047 0.933
-11.733 11.348 12.806 0.186 -0.42 0.888
-12.599 11.579 14.584 0.763 -0.574 -0.297
-11.898 11.186 12.784 0.295 -0.312 0.903
-13.093 10.974 12.325 -0.701 -0.489 0.52
-13.897 11.349 14.085 -0.164 -0.739 -0.654
-13.27 11.075 12.215 -0.582 -0.556 0.593
-12.022 13.309 14.667 0.892 -0.298 -0.34
-11.293 12.573 12.817 0.406 0.193 0.893
-11.451 13.119 12.893 0.511 -0.171 0.843
-10.479 13.63 11.243 0.996 0.084 0.017
-10.322 13.084 11.166 0.891 0.448 0.068
-10.056 12.915 10.64 0.714 0.561 0.419
-10.921 10.324 11.035 0.282 -0.735 0.617
-11.186 10.493 11.561 0.459 -0.848 0.266
-10.813 9.963 10.695 0.211 -0.494 0.843
-11.87 9.729 10.236 -0.544 -0.661 0.516
-12.438 10.216 11.018 -0.166 -0.986 -0.006
-12.172 10.047 10.492 -0.343 -0.873 0.345
-11.098 10.519 8.121 0.007 -0.097 -0.995
-11.258 10.983 7.988 0.114 -0.406 -0.907
-11.01 11.614 7.468 -0.052 -0.827 -0.56
-11.518 11.839 7.414 -0.475 -0.639 -0.605
-11.91 11.272 7.919 -0.213 -0.261 -0.942
-11.803 11.788 7.623 -0.284 -0.604 -0.744
-10.092 10.743 8.555 0.726 0.063 -0.685
-10.084 11.82 7.868 0.72 -0.655 -0.227
-10.067 11.247 8.502 0.709 -0.274 -0.65
-9.714 11.772 8.873 0.885 -0.011 -0.465
-9.809 12.228 8.156 0.949 -0.315 0.013
-9.761 12.252 8.51 0.917 -0.331 -0.223
-9.848 13.283 8.178 0.866 0.276 -0.418
-9.882 13.091 7.879 0.888 0.404 -0.219
-9.894 13.882 8.19 0.896 -0.124 -0.426
-9.773 13.148 9.508 0.91 0.196 0.365
-9.812 13.736 9.622 0.937 -0.197 0.289
-9.726 12.735 9.947 0.879 0.471 0.072
-10.057 12.927 10.625 0.714 0.567 0.412
-10.143 13.928 10.3 0.771 -0.101 0.628
-10.48 13.642 11.228 0.996 0.09 0.01
-10.73 14.428 11.38 0.871 0.484 0.086
-10.393 14.715 10.452 0.646 0.293 0.705
-10.828 15.439 11.067 0.936 -0.19 0.295
-10.913 16.438 9.829 0.894 0.309 -0.324
-10.478 15.713 9.215 0.604 0.792 0.086
-11.011 16.61 9.649 0.959 0.194 -0.204
-10.923 14.554 11.845 0.775 0.546 0.318
-11.021 15.565 11.532 0.84 -0.128 0.527
-11.189 15.761 12.078 0.952 -0.258 0.163
-11.82 17.334 11.813 0.502 0.865 -0.026
-11.767 17.426 11.218 0.467 0.803 0.37
-12.233 17.73 12.055 0.777 0.6 -0.188
-18.812 15.149 10.678 -0.86 -0.47 -0.198
-18.992 15.826 10.073 -0.382 -0.667 -0.64
-18.583 15.313 10.136 -0.655 -0.324 -0.683
-18.363 14.706 10.001 -0.801 0.08 -0.593
-18.487 16.133 9.717 -0.02 -0.447 -0.894
-18.135 15.584 9.821 -0.255 -0.082 -0.963
-17.857 15.012 9.646 -0.44 0.299 -0.847
-17.602 15.883 9.828 0.221 0.185 -0.958
-17.126 16.436 9.889 -0.055 -0.126 -0.99
-16.417 16.313 9.676 -0.527 -0.044 -0.849
-17.093 16.642 9.887 -0.015 0.125 -0.992
-16.382 16.538 9.674 -0.489 0.195 -0.85
-17.147 17.03 9.885 0.021 -0.134 -0.991
-16.476 17.221 9.698 -0.426 -0.261 -0.866
-17.957 17.653 10.015 0.358 0.639 -0.681
-17.24 17.581 10.069 -0.119 0.687 -0.717
-16.566 17.747 9.874 -0.569 0.576 -0.587
-16.089 18.113 9.474 -0.887 0.332 -0.32
-17.124 17.787 10.607 0.054 0.995 0.085
-16.455 17.944 10.387 -0.392 0.89 0.232
-17.162 17.816 11.04 0.079 0.976 -0.204
-17.311 17.779 11.636 -0.054 0.943 0.329
-18.457 17.712 11.995 0.001 0.681 0.733
-18 17.457 12.45 -0.303 0.851 0.429
-18.691 16.831 12.642 -0.564 0.614 0.553
-19.113 16.102 12.382 -0.947 -0.049 0.317
-19.499 15.899 11.338 -0.744 -0.615 0.263
-19.178 15.408 11.708 -0.958 -0.287 0.017
-19.023 15.164 12.125 -0.872 -0.423 0.248
-18.961 15.058 12.808 -0.912 -0.353 -0.208
-18.828 14.772 11.53 -0.764 -0.641 -0.082
-18.56 14.216 11.109 -0.942 -0.27 0.199
-18.275 14.324 12.123 -0.728 -0.671 0.141
-17.568 13.664 11.826 -0.233 -0.664 0.711
-17.657 14.047 12.361 -0.174 -0.919 0.355
-17.797 14.16 12.999 -0.08 -0.994 -0.071
-16.957 14.195 12.435 0.453 -0.786 0.421
-16.187 14.081 12.014 -0.061 -0.71 0.701
-15.958 13.836 11.575 0.16 -0.947 0.277
-15.894 13.712 11.259 0.117 -0.865 0.488
-15.249 13.639 11.264 -0.313 -0.816 0.485
-14.692 13.338 11.405 -0.684 -0.615 0.391
-16.48 13.424 10.713 0.543 -0.835 -0.085
-15.878 13.636 10.825 0.141 -0.977 -0.159
-15.235 13.575 10.892 -0.287 -0.936 -0.204
-14.673 13.25 10.902 -0.662 -0.72 -0.211
-14.297 12.724 10.853 -0.912 -0.369 -0.178
-15.796 13.857 10.452 0.264 -0.648 -0.715
-15.165 13.764 10.572 -0.157 -0.585 -0.795
-14.578 13.506 10.47 -0.548 -0.413 -0.727
-15.652 14.22 10.016 0.168 -0.889 -0.425
-15.679 14.246 9.956 0.146 -0.867 -0.476
-15.958 14.184 9.926 0.332 -0.826 -0.456
-15.459 14.38 9.682 -0.001 -0.956 -0.293
-16.761 14.2 9.576 0.343 -0.281 -0.896
-16.251 14.495 9.549 0.003 -0.477 -0.879
-15.741 14.679 9.319 -0.337 -0.6 -0.725
-15.309 14.724 8.921 -0.626 -0.63 -0.46
-16.463 15.017 9.472 -0.235 0.11 -0.966
-15.945 15.182 9.245 -0.581 -0 -0.814
-16.274 15.228 9.421 -0.361 -0.031 -0.932
-16.446 15.661 9.585 -0.508 0.338 -0.792
-16.505 16.079 9.718 -0.469 0.059 -0.881
-16.505 16.117 9.721 -0.469 0.086 -0.879
-13.642 14.975 8.189 -0.453 -0.08 -0.888
-13.455 15.258 8.111 -0.334 0.099 -0.937
-13.254 15.441 8.03 -0.468 -0.023 -0.883
-12.847 16.194 8.159 -0.12 0.622 -0.774
-14.199 16.541 8.189 -0.014 0.233 -0.972
-14.265 17.139 8.209 0.03 -0.166 -0.986
-14.898 16.525 8.326 -0.363 0.225 -0.904
-14.855 17.125 8.325 -0.392 -0.175 -0.903
-15.447 17.961 8.763 -0.352 0.205 -0.913
-15.113 17.805 8.529 -0.575 0.31 -0.757
-15.151 18.453 8.921 -0.106 0.615 -0.781
-14.792 18.339 8.701 -0.346 0.691 -0.634
-14.848 18.773 9.321 0.147 0.882 -0.448
-14.461 18.686 9.135 -0.11 0.939 -0.324
-14.611 18.842 9.863 0.344 0.939 0.003
-14.204 18.761 9.723 0.073 0.993 0.096
-14.257 18.359 11.151 0.276 0.961 -0.032
-14.841 18.268 11.387 -0.464 0.845 0.266
-15.524 18.181 11.141 -0.008 0.903 0.43
-16.15 18.075 10.704 -0.596 0.803 0.02
-15.185 18.085 11.942 -0.234 0.967 -0.104
-15.338 17.979 12.383 -0.385 0.862 0.329
-15.626 17.363 13.146 -0.462 0.774 0.433
-15.746 17.229 13.223 -0.558 0.667 0.494
-15.783 17.13 13.329 -0.533 0.732 0.424
-15.816 17.097 13.341 -0.572 0.693 0.439
-16.46 16.876 13.216 -0.143 0.84 0.523
-15.935 16.88 13.648 -0.493 0.838 0.235
-16.468 16.868 13.226 -0.152 0.832 0.534
-15.942 16.873 13.657 -0.502 0.829 0.246
-17.851 17.227 12.856 -0.221 0.723 0.654
-17.924 16.884 13.455 -0.172 0.952 0.255
-16.613 16.652 13.709 -0.055 0.976 0.211
-16.034 16.774 13.928 -0.441 0.895 0.065
-17.34 16.446 14.12 0.246 0.639 0.729
-16.711 16.4 14.131 -0.174 0.67 0.722
-16.128 16.531 14.334 -0.563 0.583 0.586
-15.694 16.817 14.692 -0.852 0.392 0.348
-16.677 15.949 14.347 -0.132 0.124 0.983
-16.095 16.097 14.541 -0.52 0.026 0.854
-16.757 15.431 14.503 -0.078 0.47 0.879
-16.245 15.171 14.861 -0.42 0.643 0.641
-15.861 15.108 15.415 -0.676 0.685 0.272
-17.563 15.083 14.412 0.087 -0.335 0.938
-16.893 15.053 14.503 -0.36 -0.315 0.878
-16.333 14.927 14.861 -0.733 -0.231 0.639
-15.996 14.73 15.414 -0.958 -0.1 0.27
-15.953 14.503 16.05 -0.987 0.051 -0.154
-16.755 14.761 14.264 -0.073 -0.921 0.382
-16.243 14.738 14.706 -0.414 -0.906 0.087
-15.858 14.438 15.175 -0.671 -0.706 -0.226
-16.624 14.613 14.018 -0.161 -0.823 0.545
-16.009 14.471 14.266 -0.571 -0.728 0.38
-15.568 14.105 14.631 -0.864 -0.484 0.137
-16.438 14.534 13.61 0.176 -0.965 -0.193
-15.866 14.411 13.955 -0.205 -0.883 -0.423
-15.358 14.016 14.17 -0.544 -0.62 -0.566
-16.232 14.584 13.37 0.039 -0.999 -0.033
-15.493 14.408 13.521 -0.453 -0.881 -0.133
-16.228 14.585 13.352 0.045 -0.997 -0.062
-15.489 14.409 13.503 -0.447 -0.88 -0.162
-16.272 14.478 12.703 0.075 -0.926 0.371
-16.316 14.451 12.632 0.025 -0.957 0.289
-15.131 14.14 12.962 -0.686 -0.7 0.199
-14.889 13.945 12.781 -0.44 -0.898 0.015
-14.84 13.916 12.709 -0.473 -0.879 0.063
-14.536 13.615 13.24 -0.675 -0.678 -0.291
-14.441 13.103 13.68 -0.738 -0.337 -0.584
-14.827 13.909 12.698 -0.438 -0.898 0.033
-14.528 13.61 13.233 -0.637 -0.699 -0.324
-14.427 13.095 13.668 -0.705 -0.355 -0.614
-14.619 13.564 12.042 -0.577 -0.668 0.47
-14.721 13.5 11.712 -0.665 -0.723 0.187
-14.009 12.833 12.74 -0.984 -0.181 0.005
-14.135 12.662 13.394 -0.9 -0.066 -0.432
-13.89 12.505 12.684 -0.873 -0.486 -0.047
-14.025 12.359 13.343 -0.783 -0.388 -0.486
-14.221 12.522 11.449 -0.875 -0.47 0.121
-14.064 11.976 11.373 -0.979 -0.106 0.171
-14.242 12.598 10.86 -0.885 -0.431 -0.174
-14.085 12.053 10.784 -0.99 -0.068 -0.123
-14.092 12.72 10.299 -0.81 -0.37 -0.455
-13.935 12.174 10.223 -0.915 -0.007 -0.404
-14.194 13.888 9.634 -0.506 -0.662 -0.553
-14.324 13.886 9.789 -0.627 -0.664 -0.408
-14.321 13.803 9.903 -0.629 -0.608 -0.484
-14.39 13.8 10.007 -0.673 -0.61 -0.418
-14.015 14.032 9.079 -0.625 -0.759 -0.183
-14.665 14.655 8.608 -0.09 -0.687 -0.721
-13.949 14.347 8.529 -0.567 -0.481 -0.668
-13.465 13.841 8.176 -0.89 -0.144 -0.433
-13.743 14.876 8.241 -0.385 -0.014 -0.923
-12.694 13.171 7.606 -0.504 -0.479 -0.719
-12.452 12.622 7.634 -0.666 -0.113 -0.737
-12.03 13.986 7.078 -0.172 -0.071 -0.982
-11.878 14.44 6.933 -0.274 -0.374 -0.886
-12.635 14.352 7.297 -0.474 0.111 -0.873
-12.389 14.749 7.118 -0.638 -0.153 -0.754
-11.134 13.697 7.138 0.076 -0.045 -0.996
-10.526 13.834 7.403 0.671 0.089 -0.736
-10.221 14.779 7.623 0.91 -0.132 -0.394
-10.069 14.387 7.894 0.808 0.129 -0.574
-10.118 15.166 8.017 0.983 0.144 -0.112
-9.948 14.845 8.361 0.869 0.358 -0.341
-10.251 15.573 8.38 0.888 0.435 0.147
-10.105 15.327 8.79 0.791 0.599 -0.127
-10.934 16.216 9.1 0.867 0.497 0.034
-11.107 16.309 8.135 0.277 0.96 -0.028
-11.369 16.539 8.665 0.451 0.807 -0.382
-11.509 16.987 9.093 0.544 0.508 -0.667
-12.024 16.511 8.435 -0.175 0.779 -0.602
-12.444 16.416 8.325 0.105 0.842 -0.529
-12.972 16.868 8.591 0.457 0.541 -0.706
-12.676 16.243 8.158 -0.234 0.59 -0.773
-13.205 16.695 8.423 0.119 0.289 -0.95
-12.825 17.192 8.844 0.359 0.325 -0.875
-12.677 17.712 9.497 0.503 0.829 -0.242
-13.328 18.069 10.815 0.567 0.823 -0.047
-13.812 18.273 10.963 0.198 0.978 0.066
-13.889 18.287 11.082 0.249 0.968 -0.013
-14.011 18.31 11.097 0.111 0.994 0.004
-13.296 18.504 12.584 0.525 0.848 0.075
-13.056 18.384 12.582 0.366 0.928 0.076
-12.987 17.838 14.049 0.431 0.897 0.095
-12.961 18.046 13.437 0.414 0.759 0.503
-12.388 17.407 13.929 0.731 0.682 0.035
-12.362 17.615 13.317 0.713 0.543 0.443
-11.853 16.14 13.811 0.999 0.048 -0.024
-11.476 16.166 12.778 0.747 0.031 0.664
-11.959 15.091 13.272 0.971 -0.031 0.239
-11.752 14.701 12.872 0.832 0.229 0.505
-12.044 14.86 13.453 0.912 -0.19 0.363
-11.836 14.471 13.053 0.774 0.07 0.63
-12.14 14.737 14.281 0.976 -0.107 -0.189
-12.005 15.525 14.429 0.923 -0.259 0.285
-12.111 15.029 14.729 0.994 0.071 0.085
-11.988 14.549 15.049 0.911 0.391 -0.128
-12.257 15.298 15.169 0.905 0.236 0.354
-12.153 15.952 14.933 0.836 -0.2 0.512
-11.892 16.358 14.121 0.979 0.157 0.131
-11.912 16.428 14.233 0.992 0.11 0.056
-11.921 16.499 14.346 0.998 0.063 -0.019
-12.273 17.267 13.99 0.789 0.611 0.065
-12.249 17.233 14.117 0.773 0.634 -0.02
-12.217 17.206 14.244 0.751 0.652 -0.104
-12.921 17.628 14.651 0.464 0.792 0.396
-12.823 17.553 14.702 0.399 0.843 0.362
-12.721 17.487 14.758 0.331 0.886 0.324
-13.182 17.077 15.436 0.334 0.517 0.788
-13.054 17.065 15.397 0.249 0.525 0.814
-12.924 17.059 15.369 0.162 0.529 0.833
-12.709 16.262 15.5 0.474 0.002 0.881
-12.829 15.618 15.753 0.554 0.432 0.712
-13.149 15.684 15.906 0.359 0.472 0.805
-13.48 15.737 16.082 0.58 0.437 0.688
-13.971 16.668 15.755 -0.061 0.312 0.948
-14.159 16.085 16.112 0.065 0.701 0.711
-14.325 15.737 16.705 0.176 0.933 0.315
-14.887 16.069 15.883 -0.488 0.688 0.537
-14.9 17.453 14.814 -0.525 0.705 0.477
-15.123 17.308 14.833 -0.376 0.802 0.465
-15.005 16.067 15.792 -0.409 0.69 0.597
-15.487 15.696 15.46 -0.925 0.293 0.241
-13.519 14.913 17.053 0.752 0.344 0.563
-12.953 14.709 16.707 0.375 0.48 0.793
-13.617 14.36 17.287 0.681 -0.051 0.73
-13.064 14.084 16.972 0.313 0.133 0.94
-13.901 13.823 17.334 0.478 -0.434 0.763
-13.386 13.478 17.024 0.135 -0.204 0.97
-14.318 13.406 17.184 0.181 -0.732 0.656
-13.856 13.006 16.855 -0.127 -0.466 0.876
-14.5 12.749 16.426 -0.346 -0.599 0.722
-15.071 12.883 15.8 -0.866 -0.476 0.152
-15.204 13.095 14.84 -0.876 -0.417 -0.244
-15.043 12.425 14.746 -0.983 0.03 -0.181
-14.614 13.167 13.861 -0.796 -0.3 -0.525
-14.503 13.116 13.746 -0.697 -0.345 -0.628
-13.704 12.08 16.366 -0.027 -0.217 0.976
-13.691 12.705 16.671 -0.035 -0.633 0.773
-13.081 12.088 16.237 0.419 -0.211 0.883
-12.987 12.714 16.524 0.356 -0.628 0.692
-12.579 12.148 15.85 0.777 -0.168 0.607
-12.42 12.782 16.087 0.671 -0.59 0.449
-12.303 12.249 15.285 0.974 -0.096 0.203
-12.108 12.896 15.449 0.844 -0.527 0.094
-12.312 12.333 13.942 0.972 0.013 0.235
-11.98 12.301 13.305 0.751 0.034 0.66
-12.534 11.727 13.884 0.72 -0.673 0.17
-12.222 11.644 13.242 0.511 -0.618 0.598
-12.604 11.645 13.877 0.766 -0.619 0.174
-12.351 11.504 13.229 0.598 -0.524 0.607
-13.229 11.191 14.411 0.313 -0.851 -0.421
-13.016 11.392 13.764 0.171 -0.985 0.01
-12.745 11.261 13.12 -0.01 -0.898 0.439
-12.478 10.829 12.625 -0.188 -0.61 0.77
-13.452 11.495 13.551 -0.461 -0.836 -0.298
-13.163 11.36 12.917 -0.654 -0.746 0.125
-13.53 11.551 13.501 -0.409 -0.873 -0.265
-13.303 11.452 12.826 -0.56 -0.808 0.185
-13.921 12.119 13.319 -0.852 -0.229 -0.471
-13.728 12.07 12.629 -0.981 -0.196 -0.01
-12.069 10.338 11.79 0.018 -0.925 0.38
-12.159 10.401 11.994 0.078 -0.967 0.244
-11.948 12.631 13.307 0.729 -0.185 0.658
-12.214 12.905 13.983 0.906 -0.368 0.208
-11.88 12.835 13.252 0.797 0.018 0.604
-12.147 13.105 13.929 0.975 -0.162 0.152
-10.78 12.779 12.406 0.663 0.295 0.688
-10.937 13.324 12.483 0.768 -0.068 0.637
-10.442 12.956 11.833 0.832 0.384 0.401
-10.599 13.502 11.909 0.936 0.02 0.35
-10.175 12.546 11.413 0.965 0.179 0.192
-9.909 12.377 10.887 0.788 0.292 0.542
-10.198 11.962 11.589 0.953 -0.113 0.279
-9.932 11.793 11.063 0.776 -0 0.63
-10.389 11.389 11.676 0.858 -0.399 0.323
-10.123 11.22 11.15 0.681 -0.287 0.674
-10.73 10.883 11.667 0.688 -0.652 0.318
-10.464 10.714 11.14 0.511 -0.54 0.669
-11.831 10.24 11.392 0.137 -0.974 0.181
-11.358 9.75 10.552 -0.179 -0.647 0.742
-12.929 10.393 10.713 -0.412 -0.897 -0.158
-12.663 10.225 10.187 -0.589 -0.785 0.192
-13.325 10.732 10.405 -0.61 -0.728 -0.313
-13.059 10.563 9.879 -0.787 -0.616 0.038
-13.587 11.199 10.123 -0.741 -0.495 -0.454
-13.322 11.03 9.596 -0.918 -0.382 -0.103
-13.691 11.749 9.894 -0.793 -0.219 -0.568
-13.425 11.58 9.367 -0.97 -0.107 -0.217
-12.52 10.085 9.888 -0.517 -0.855 0.043
-12.164 9.761 9.726 -0.754 -0.639 0.151
-12.587 10.234 9.21 -0.551 -0.78 -0.296
-12.221 9.887 9.153 -0.795 -0.549 -0.258
-12.362 10.465 8.592 -0.438 -0.665 -0.605
-12.031 10.082 8.631 -0.659 -0.409 -0.631
-11.887 10.732 8.156 -0.201 -0.531 -0.823
-11.63 10.308 8.262 -0.373 -0.248 -0.894
-12.554 11.563 8.128 -0.535 -0.115 -0.837
-12.402 12.058 7.817 -0.636 -0.445 -0.63
-11.05 11.14 7.917 -0.025 -0.51 -0.86
-10.493 11.649 7.578 0.379 -0.798 -0.469
-10.577 11.172 8.018 0.435 -0.479 -0.762
-10.536 10.557 8.24 0.408 -0.07 -0.91
-10.202 11.328 8.284 0.799 -0.328 -0.504
-9.711 13.849 8.902 0.988 -0.14 -0.07
-9.678 13.253 8.839 0.966 0.257 -0.029
-10.274 15.277 9.873 0.706 0.574 0.415
-10.709 16.002 10.488 0.996 0.091 0.005
-10.837 16.103 9.439 0.844 0.533 -0.064
-10.866 16.131 9.348 0.822 0.554 -0.132
-11.376 17.282 9.953 0.655 0.754 0.049
-11.383 17.302 10.22 0.659 0.741 -0.129
-10.968 16.27 11.369 0.866 0.225 0.446
-11.145 16.357 11.94 0.984 0.167 0.065
-11.235 16.935 11.257 0.733 0.557 0.39
-11.37 16.919 11.846 0.823 0.568 -0.002
-12.135 17.686 10.919 0.283 0.933 0.221
-12.6 17.99 11.756 0.594 0.731 -0.337
-12.041 17.478 12.65 0.873 0.474 0.11
-11.657 17.12 12.315 0.618 0.712 0.333
-11.187 15.136 11.925 0.951 0.159 0.265
-11.543 14.978 12.551 0.693 0.044 0.719
-9.573 12.241 9.423 0.956 0.223 -0.19
-9.63 12.688 9.021 0.994 -0.075 0.078
-9.704 11.216 9.099 0.89 -0.289 -0.352
-9.785 10.717 9.059 0.945 0.044 -0.325
-9.62 11.072 9.778 0.933 -0.361 -0.012
-9.714 10.595 9.633 0.995 -0.043 0.085
-9.831 10.844 10.404 0.827 -0.475 0.301
-9.893 10.402 10.161 0.868 -0.18 0.462
-10.295 10.577 10.853 0.595 -0.609 0.525
-10.285 10.177 10.541 0.588 -0.342 0.733
-11.895 13.267 13.37 0.807 -0.27 0.525
-12.1 13.335 14.003 0.943 -0.315 0.103
-11.892 14.044 13.298 0.81 0.354 0.467
-12.096 14.096 13.932 0.947 0.32 0.044
-12.763 15.697 15.662 0.51 0.379 0.772
-12.288 15.432 15.177 0.926 0.147 0.349
-15.814 15.441 15.02 -0.707 0.463 0.534
-14.098 13.136 12.747 -0.924 -0.383 0
-14.423 13.623 12.747 -0.707 -0.707 0
-13.891 13.786 9.378 -0.707 -0.595 -0.382
-13.052 17.917 10.744 0.383 0.924 -0
-12.176 14.576 13.998 1 -0 0
-18.146 18.124 10.969 0.223 0.975 0
-18.77 18.124 10.969 -0.223 0.975 0
-18.77 17.989 11.561 -0.223 0.878 0.423
-18.77 16.455 9.638 -0.223 -0.217 -0.95
-18.77 17.063 9.638 -0.223 0.217 -0.95
-18.77 17.61 9.902 -0.223 0.608 -0.762
-18.77 17.989 10.377 -0.223 0.878 -0.423
-19.331 17.854 10.969 -0.623 0.782 0
-19.331 17.68 11.561 -0.623 0.658 0.423
-19.331 16.042 10.142 -0.623 -0.512 -0.591
-19.331 16.603 9.886 -0.623 -0.111 -0.774
-19.331 17.214 9.973 -0.623 0.325 -0.711
-19.331 17.68 10.377 -0.623 0.658 -0.423
-19.719 17.366 10.969 -0.901 0.434 0
-19.719 17.063 11.495 -0.901 0.217 0.376
-19.719 16.455 11.495 -0.901 -0.217 0.376
-19.719 16.152 10.969 -0.901 -0.434 -0
-19.719 16.455 10.443 -0.901 -0.217 -0.376
-19.719 17.063 10.443 -0.901 0.217 -0.376
-19.858 16.759 10.969 -1 0 0
-16.929 13.363 11.423 0.223 -0.878 0.423
-16.929 13.228 10.831 0.223 -0.975 0
-16.929 13.363 10.239 0.223 -0.878 -0.423
-16.929 13.742 9.764 0.223 -0.608 -0.762
-17.553 13.363 11.423 -0.223 -0.878 0.423
-17.553 13.228 10.831 -0.223 -0.975 0
-17.553 13.363 10.239 -0.223 -0.878 -0.423
-17.553 13.742 9.764 -0.223 -0.608 -0.762
-17.553 14.289 9.5 -0.223 -0.217 -0.95
-18.114 13.543 11.139 -0.623 -0.75 0.22
-18.114 13.543 10.523 -0.623 -0.75 -0.22
-18.114 13.876 10.004 -0.623 -0.512 -0.591
-18.114 14.437 9.748 -0.623 -0.111 -0.774
-18.502 13.986 10.831 -0.901 -0.434 -0
-15.024 18.915 9.859 -0 1 0
-15.624 18.754 9.859 -0.5 0.866 0
-15.624 18.589 9.297 -0.5 0.729 -0.468
-17.996 16.403 14.166 -0.223 0.608 0.762
-17.996 15.856 14.43 -0.223 0.217 0.95
-17.996 15.248 14.43 -0.223 -0.217 0.95
-17.996 14.701 14.166 -0.223 -0.608 0.762
-17.996 14.322 13.691 -0.223 -0.878 0.423
-18.557 16.473 13.691 -0.623 0.658 0.423
-18.557 16.007 14.095 -0.623 0.325 0.711
-18.557 15.396 14.182 -0.623 -0.111 0.774
-18.557 14.835 13.926 -0.623 -0.512 0.591
-18.557 14.502 13.407 -0.623 -0.75 0.22
-18.945 15.856 13.625 -0.901 0.217 0.376
-18.945 15.248 13.625 -0.901 -0.217 0.376
-12.862 13.51 7.548 -0.588 -0.31 -0.747
-12.862 14.129 7.425 -0.588 0 -0.809
-13.304 13.541 8.025 -0.809 -0.294 -0.509
-10.234 15.268 7.648 0.901 0.217 -0.376
-10.622 14.808 7.091 0.623 -0.111 -0.774
-10.622 15.419 7.178 0.623 0.325 -0.711
-10.622 15.885 7.582 0.623 0.658 -0.423
-11.183 14.66 6.843 0.223 -0.217 -0.95
-11.183 15.268 6.843 0.223 0.217 -0.95
-11.183 15.815 7.107 0.223 0.608 -0.762
-11.183 16.194 7.582 0.223 0.878 -0.423
-11.807 15.268 6.843 -0.223 0.217 -0.95
-11.807 15.815 7.107 -0.223 0.608 -0.762
-12.368 15.419 7.178 -0.623 0.325 -0.711
-13.434 18.292 8.997 0.623 0.658 -0.423
-13.995 17.675 8.258 0.223 0.217 -0.95
-13.995 18.222 8.522 0.223 0.608 -0.762
-13.995 18.601 8.997 0.223 0.878 -0.423
-14.619 17.675 8.258 -0.223 0.217 -0.95
-13.926 18.687 12.494 -0 1 0
-13.232 17.843 14.477 0.309 0.9 0.309
-13.85 17.955 14.449 -0 0.956 0.295
-13.85 17.696 14.986 -0 0.826 0.563
-13.85 17.291 15.423 -0 0.623 0.782
-14.468 17.843 14.477 -0.309 0.9 0.309
-14.468 17.545 15.027 -0.309 0.751 0.584
-14.468 17.084 15.451 -0.309 0.52 0.796
-14.259 15.282 17.332 0.223 0.608 0.762
-14.259 14.735 17.596 0.223 0.217 0.95
-14.259 14.127 17.596 0.223 -0.217 0.95
-14.883 15.282 17.332 -0.223 0.608 0.762
-14.883 14.735 17.596 -0.223 0.217 0.95
-14.883 14.127 17.596 -0.223 -0.217 0.95
-14.883 13.58 17.332 -0.223 -0.608 0.762
-15.444 15.352 16.857 -0.623 0.658 0.423
-15.444 14.886 17.261 -0.623 0.325 0.711
-15.444 14.275 17.348 -0.623 -0.111 0.774
-15.444 13.714 17.092 -0.623 -0.512 0.591
-15.832 14.735 16.791 -0.901 0.217 0.376
-15.832 14.127 16.791 -0.901 -0.217 0.376
-15.832 13.824 16.265 -0.901 -0.434 -0
-12.406 11.776 15 0.901 -0.434 -0
-12.794 11.666 15.827 0.623 -0.512 0.591
-12.794 11.333 15.308 0.623 -0.75 0.22
-13.355 11.532 16.067 0.223 -0.608 0.762
-13.355 11.153 15.592 0.223 -0.878 0.423
-13.355 11.018 15 0.223 -0.975 0
-13.979 11.532 16.067 -0.223 -0.608 0.762
-13.979 11.153 15.592 -0.223 -0.878 0.423
-13.979 11.018 15 -0.223 -0.975 0
-14.54 11.666 15.827 -0.623 -0.512 0.591
-14.54 11.333 15.308 -0.623 -0.75 0.22
-14.54 11.333 14.692 -0.623 -0.75 -0.22
-14.54 11.666 14.173 -0.623 -0.512 -0.591
-14.928 11.776 15 -0.901 -0.434 -0
-14.928 12.079 14.474 -0.901 -0.217 -0.376
-10.487 12.188 12.206 0.809 -0 0.588
-10.487 11.6 12.048 0.809 -0.294 0.509
-10.929 12.188 12.648 0.588 -0 0.809
-10.929 11.569 12.525 0.588 -0.31 0.747
-10.929 11.044 12.174 0.588 -0.572 0.572
-12.723 10.312 11.343 -0.309 -0.938 0.157
-13.281 10.57 11.03 -0.588 -0.809 0
-13.723 11.17 11.618 -0.809 -0.509 0.294
-13.723 11.012 11.03 -0.809 -0.588 0
-13.723 11.17 10.442 -0.809 -0.509 -0.294
-14.007 11.57 11.03 -0.951 -0.309 -0
-12.661 10.65 8.658 -0.588 -0.572 -0.572
-12.661 11.175 8.307 -0.588 -0.31 -0.747
-13.103 10.776 9.214 -0.809 -0.509 -0.294
-13.103 11.206 8.784 -0.809 -0.294 -0.509
-9.909 12.306 7.621 0.866 -0.25 -0.433
-10.348 11.925 7.356 0.5 -0.567 -0.654
-10.348 12.458 7.112 0.5 -0.123 -0.857
-10.948 12.18 7.019 -0 -0.355 -0.935
-9.784 14.747 9.043 0.951 0.309 0
-9.784 14.438 9.578 0.951 0.155 0.268
-9.784 14.438 8.508 0.951 0.155 -0.268
-10.068 15.147 9.631 0.809 0.509 0.294
-10.068 14.717 10.061 0.809 0.294 0.509
-11.562 17.251 9.332 0.5 0.729 -0.468
-10.799 16.438 10.477 0.951 0.309 0
-10.799 16.129 11.012 0.951 0.155 0.268
-12.083 17.722 10.477 0.309 0.951 0
-12.612 18.147 12.43 0.588 0.809 0
-12.612 18.024 13.049 0.588 0.747 0.31
-11.261 16.427 12.375 0.901 0.217 0.376
-10.854 14.049 12.226 0.809 0.294 0.509
-11.828 13.845 15.279 1 0 0
-11.937 14.153 15.812 0.94 0.171 0.296
-11.937 13.537 15.812 0.94 -0.171 0.296
-12.249 14.424 16.281 0.766 0.321 0.557
-12.249 13.845 16.436 0.766 -0 0.643
-12.249 13.266 16.281 0.766 -0.321 0.557
-12.728 13.845 16.838 0.5 -0 0.866
-12.728 13.248 16.719 0.5 -0.331 0.8
-12.079 16.724 14.889 0.866 0.25 0.433
-12.518 17.298 14.931 0.5 0.729 0.468
-12.518 16.856 15.314 0.5 0.36 0.788
-9.485 11.794 9.802 1 0 0
-9.583 12.103 10.337 0.951 0.155 0.268
-9.583 11.485 10.337 0.951 -0.155 0.268
-9.867 11.206 10.82 0.809 -0.294 0.509
-9.847 10.048 9.514 0.901 -0.434 -0
-9.847 10.351 8.988 0.901 -0.217 -0.376
-10.235 9.938 10.341 0.623 -0.512 0.591
-10.235 9.605 9.822 0.623 -0.75 0.22
-10.235 9.605 9.206 0.623 -0.75 -0.22
-10.235 9.938 8.687 0.623 -0.512 -0.591
-10.796 9.425 10.106 0.223 -0.878 0.423
-10.796 9.29 9.514 0.223 -0.975 0
-10.796 9.425 8.922 0.223 -0.878 -0.423
-10.796 9.804 8.447 0.223 -0.608 -0.762
-11.42 9.425 10.106 -0.223 -0.878 0.423
-11.42 9.29 9.514 -0.223 -0.975 0
-11.42 9.425 8.922 -0.223 -0.878 -0.423
-11.42 9.804 8.447 -0.223 -0.608 -0.762
-11.981 9.605 9.206 -0.623 -0.75 -0.22
3 0 229 228
3 228 229 230
3 228 230 1
3 1 230 231
3 229 232 230
3 230 232 233
3 230 233 231
3 231 233 234
3 232 4 233
3 233 4 235
3 233 235 234
3 234 235 3
3 4 7 5
3 5 7 6
3 7 10 236
3 236 10 238
3 236 238 237
3 237 238 239
3 237 239 8
3 8 239 9
3 10 242 240
3 240 242 243
3 240 243 241
3 241 243 244
3 241 244 11
3 11 244 245
3 242 13 243
3 243 13 246
3 243 246 244
3 244 246 247
3 244 247 245
3 245 247 12
3 13 16 248
3 248 16 249
3 248 249 14
3 14 249 15
3 16 250 17
3 17 250 251
3 250 19 251
3 251 19 18
3 19 22 252
3 252 22 253
3 252 253 20
3 20 253 21
3 22 254 23
3 23 254 255
3 254 0 255
3 255 0 2
3 23 256 21
3 21 256 257
3 256 25 257
3 257 25 24
3 25 258 26
3 26 258 259
3 258 2 259
3 259 2 1
3 26 261 260
3 260 261 262
3 260 262 24
3 24 262 263
3 261 28 262
3 262 28 264
3 262 264 263
3 263 264 27
3 28 31 265
3 265 31 266
3 265 266 29
3 29 266 30
3 31 270 267
3 267 270 271
3 267 271 268
3 268 271 272
3 268 272 269
3 269 272 273
3 269 273 32
3 32 273 274
3 270 34 271
3 271 34 275
3 271 275 272
3 272 275 276
3 272 276 273
3 273 276 277
3 273 277 274
3 274 277 33
3 34 37 278
3 278 37 279
3 278 279 35
3 35 279 36
3 37 282 280
3 280 282 283
3 280 283 281
3 281 283 284
3 281 284 38
3 38 284 285
3 282 40 283
3 283 40 286
3 283 286 284
3 284 286 287
3 284 287 285
3 285 287 39
3 40 43 288
3 288 43 289
3 288 289 41
3 41 289 42
3 43 3 44
3 44 3 5
3 44 6 290
3 290 6 291
3 290 291 42
3 42 291 8
3 41 46 39
3 39 46 45
3 46 49 292
3 292 49 293
3 292 293 47
3 47 293 48
3 49 52 294
3 294 52 295
3 294 295 50
3 50 295 51
3 52 296 53
3 53 296 297
3 296 298 297
3 297 298 299
3 298 55 299
3 299 55 54
3 55 9 56
3 56 9 11
3 56 300 54
3 54 300 301
3 300 302 301
3 301 302 303
3 302 304 303
3 303 304 305
3 304 306 305
3 305 306 307
3 306 58 307
3 307 58 57
3 58 61 308
3 308 61 309
3 308 309 59
3 59 309 60
3 61 12 310
3 310 12 311
3 310 311 62
3 62 311 14
3 62 64 312
3 312 64 313
3 312 313 60
3 60 313 63
3 64 67 65
3 65 67 66
3 67 70 314
3 314 70 315
3 314 315 68
3 68 315 69
3 70 73 316
3 316 73 317
3 316 317 71
3 71 317 72
3 73 15 74
3 74 15 17
3 74 76 318
3 318 76 320
3 318 320 319
3 319 320 321
3 319 321 72
3 72 321 75
3 76 322 77
3 77 322 323
3 322 18 323
3 323 18 20
3 77 326 324
3 324 326 327
3 324 327 325
3 325 327 328
3 325 328 75
3 75 328 329
3 326 79 327
3 327 79 330
3 327 330 328
3 328 330 331
3 328 331 329
3 329 331 78
3 79 335 332
3 332 335 336
3 332 336 333
3 333 336 337
3 333 337 334
3 334 337 338
3 334 338 80
3 80 338 339
3 335 82 336
3 336 82 340
3 336 340 337
3 337 340 341
3 337 341 338
3 338 341 342
3 338 342 339
3 339 342 81
3 82 85 343
3 343 85 346
3 343 346 344
3 344 346 347
3 344 347 345
3 345 347 348
3 345 348 83
3 83 348 84
3 85 88 349
3 349 88 351
3 349 351 350
3 350 351 352
3 350 352 86
3 86 352 87
3 88 27 353
3 353 27 354
3 353 354 89
3 89 354 29
3 89 91 355
3 355 91 356
3 355 356 87
3 87 356 90
3 91 94 357
3 357 94 360
3 357 360 358
3 358 360 361
3 358 361 359
3 359 361 362
3 359 362 92
3 92 362 93
3 94 30 363
3 363 30 364
3 363 364 95
3 95 364 32
3 95 97 365
3 365 97 367
3 365 367 366
3 366 367 368
3 366 368 93
3 93 368 96
3 97 369 98
3 98 369 370
3 369 371 370
3 370 371 372
3 371 373 372
3 372 373 374
3 373 100 374
3 374 100 99
3 100 103 101
3 101 103 102
3 103 106 104
3 104 106 105
3 106 109 375
3 375 109 376
3 375 376 107
3 107 376 108
3 109 33 377
3 377 33 378
3 377 378 110
3 110 378 35
3 110 36 108
3 108 36 38
3 107 380 379
3 379 380 381
3 379 381 105
3 105 381 382
3 380 45 381
3 381 45 383
3 381 383 382
3 382 383 47
3 104 112 102
3 102 112 111
3 112 384 113
3 113 384 385
3 384 115 385
3 385 115 114
3 115 118 116
3 116 118 117
3 118 386 119
3 119 386 387
3 386 388 387
3 387 388 389
3 388 48 389
3 389 48 50
3 119 121 390
3 390 121 391
3 390 391 117
3 117 391 120
3 121 392 122
3 122 392 393
3 392 394 393
3 393 394 395
3 394 396 395
3 395 396 397
3 396 124 397
3 397 124 123
3 124 399 398
3 398 399 400
3 398 400 125
3 125 400 401
3 399 127 400
3 400 127 402
3 400 402 401
3 401 402 126
3 127 51 403
3 403 51 405
3 403 405 404
3 404 405 406
3 404 406 128
3 128 406 53
3 128 130 407
3 407 130 408
3 407 408 126
3 126 408 129
3 130 133 131
3 131 133 132
3 133 136 409
3 409 136 410
3 409 410 134
3 134 410 135
3 136 57 411
3 411 57 412
3 411 412 137
3 137 412 59
3 137 413 135
3 135 413 414
3 413 139 414
3 414 139 138
3 139 142 140
3 140 142 141
3 142 63 143
3 143 63 65
3 143 66 141
3 141 66 68
3 140 415 138
3 138 415 416
3 415 417 416
3 416 417 418
3 417 145 418
3 418 145 144
3 145 419 146
3 146 419 420
3 419 148 420
3 420 148 147
3 148 151 421
3 421 151 423
3 421 423 422
3 422 423 424
3 422 424 149
3 149 424 150
3 151 426 425
3 425 426 427
3 425 427 152
3 152 427 428
3 426 154 427
3 427 154 429
3 427 429 428
3 428 429 153
3 154 431 430
3 430 431 432
3 430 432 155
3 155 432 433
3 431 434 432
3 432 434 435
3 432 435 433
3 433 435 436
3 434 437 435
3 435 437 438
3 435 438 436
3 436 438 439
3 437 440 438
3 438 440 441
3 438 441 439
3 439 441 442
3 440 157 441
3 441 157 443
3 441 443 442
3 442 443 156
3 157 160 444
3 444 160 445
3 444 445 158
3 158 445 159
3 160 447 446
3 446 447 448
3 446 448 161
3 161 448 449
3 447 163 448
3 448 163 450
3 448 450 449
3 449 450 162
3 163 451 164
3 164 451 452
3 451 69 452
3 452 69 71
3 164 78 453
3 453 78 454
3 453 454 162
3 162 454 80
3 161 455 159
3 159 455 456
3 455 457 456
3 456 457 458
3 457 459 458
3 458 459 460
3 459 461 460
3 460 461 462
3 461 166 462
3 462 166 165
3 166 169 463
3 463 169 464
3 463 464 167
3 167 464 168
3 169 81 170
3 170 81 83
3 170 465 168
3 168 465 466
3 465 172 466
3 466 172 171
3 172 84 173
3 173 84 86
3 173 90 467
3 467 90 468
3 467 468 171
3 171 468 92
3 167 469 165
3 165 469 470
3 469 471 470
3 470 471 472
3 471 473 472
3 472 473 474
3 473 475 474
3 474 475 476
3 475 175 476
3 476 175 174
3 175 178 477
3 477 178 479
3 477 479 478
3 478 479 480
3 478 480 176
3 176 480 177
3 178 483 481
3 481 483 484
3 481 484 482
3 482 484 485
3 482 485 179
3 179 485 486
3 483 181 484
3 484 181 487
3 484 487 485
3 485 487 488
3 485 488 486
3 486 488 180
3 181 96 489
3 489 96 491
3 489 491 490
3 490 491 492
3 490 492 182
3 182 492 98
3 182 493 180
3 180 493 494
3 493 177 494
3 494 177 179
3 176 184 495
3 495 184 497
3 495 497 496
3 496 497 498
3 496 498 174
3 174 498 183
3 184 499 185
3 185 499 500
3 499 501 500
3 500 501 502
3 501 187 502
3 502 187 186
3 187 503 188
3 188 503 504
3 503 505 504
3 504 505 506
3 505 507 506
3 506 507 508
3 507 509 508
3 508 509 510
3 509 190 510
3 510 190 189
3 190 511 191
3 191 511 512
3 511 193 512
3 512 193 192
3 193 513 194
3 194 513 514
3 513 515 514
3 514 515 516
3 515 517 516
3 516 517 518
3 517 519 518
3 518 519 520
3 519 99 520
3 520 99 101
3 194 521 192
3 192 521 522
3 521 523 522
3 522 523 524
3 523 525 524
3 524 525 526
3 525 527 526
3 526 527 528
3 527 196 528
3 528 196 195
3 196 199 197
3 197 199 198
3 199 529 200
3 200 529 530
3 529 111 530
3 530 111 113
3 200 114 198
3 198 114 116
3 197 532 531
3 531 532 533
3 531 533 195
3 195 533 534
3 532 202 533
3 533 202 535
3 533 535 534
3 534 535 201
3 202 205 203
3 203 205 204
3 205 208 206
3 206 208 207
3 208 120 209
3 209 120 122
3 209 536 207
3 207 536 537
3 536 211 537
3 537 211 210
3 211 214 212
3 212 214 213
3 214 217 215
3 215 217 216
3 217 538 218
3 218 538 539
3 538 220 539
3 539 220 219
3 220 123 540
3 540 123 541
3 540 541 221
3 221 541 125
3 221 542 219
3 219 542 543
3 542 129 543
3 543 129 131
3 218 223 216
3 216 223 222
3 223 544 224
3 224 544 545
3 544 546 545
3 545 546 547
3 546 226 547
3 547 226 225
3 226 548 227
3 227 548 549
3 548 132 549
3 549 132 134
3 227 550 225
3 225 550 551
3 550 144 551
3 551 144 146
3 224 147 552
3 552 147 553
3 552 553 222
3 222 553 149
3 215 186 213
3 213 186 188
3 212 554 210
3 210 554 555
3 554 204 555
3 555 204 206
3 203 556 201
3 201 556 557
3 556 558 557
3 557 558 559
3 558 560 559
3 559 560 561
3 560 562 561
3 561 562 563
3 562 189 563
3 563 189 191
3 185 150 564
3 564 150 566
3 564 566 565
3 565 566 567
3 565 567 183
3 183 567 152
3 158 153 568
3 568 153 569
3 568 569 156
3 156 569 155
3 2 0 228
3 2 228 1
3 5 3 235
3 5 235 4
3 291 6 236
3 291 236 237
3 291 237 8
3 236 6 7
3 11 9 239
3 11 239 241
3 241 239 238
3 241 238 240
3 240 238 10
3 311 12 247
3 311 247 14
3 14 247 246
3 14 246 248
3 248 246 13
3 17 15 249
3 17 249 16
3 20 18 252
3 252 18 19
3 23 21 253
3 23 253 22
3 260 24 25
3 260 25 26
3 354 27 264
3 354 264 265
3 354 265 29
3 265 264 28
3 364 30 268
3 364 268 269
3 364 269 32
3 268 30 267
3 267 30 266
3 267 266 31
3 378 33 277
3 378 277 276
3 378 276 35
3 35 276 278
3 278 276 275
3 278 275 34
3 38 36 281
3 281 36 279
3 281 279 280
3 280 279 37
3 41 39 287
3 41 287 288
3 288 287 286
3 288 286 40
3 290 42 289
3 290 289 44
3 44 289 43
3 383 45 46
3 383 46 292
3 383 292 47
3 50 48 294
3 294 48 293
3 294 293 49
3 405 51 295
3 405 295 406
3 406 295 52
3 406 52 53
3 56 54 55
3 412 57 308
3 412 308 59
3 308 57 58
3 312 60 309
3 312 309 310
3 312 310 62
3 310 309 61
3 65 63 313
3 65 313 64
3 68 66 314
3 314 66 67
3 71 69 316
3 316 69 315
3 316 315 70
3 319 72 317
3 319 317 318
3 318 317 73
3 318 73 74
3 325 75 321
3 325 321 324
3 324 321 320
3 324 320 77
3 77 320 76
3 454 78 570
3 454 570 334
3 454 334 80
3 334 570 333
3 333 570 331
3 333 331 332
3 332 331 330
3 332 330 79
3 331 570 78
3 83 81 345
3 345 81 342
3 345 342 344
3 344 342 341
3 344 341 343
3 343 341 340
3 343 340 82
3 86 84 348
3 86 348 350
3 350 348 347
3 350 347 349
3 349 347 346
3 349 346 85
3 355 87 352
3 355 352 89
3 89 352 353
3 353 352 351
3 353 351 88
3 468 90 359
3 468 359 92
3 359 90 358
3 358 90 356
3 358 356 357
3 357 356 91
3 366 93 362
3 366 362 571
3 366 571 365
3 365 571 95
3 95 571 363
3 363 571 572
3 363 572 360
3 363 360 94
3 360 572 361
3 361 572 571
3 361 571 362
3 491 96 368
3 491 368 367
3 491 367 492
3 492 367 97
3 492 97 98
3 101 99 100
3 104 102 103
3 379 105 573
3 379 573 375
3 379 375 107
3 375 573 106
3 106 573 105
3 110 108 376
3 110 376 377
3 377 376 109
3 113 111 112
3 116 114 115
3 390 117 118
3 390 118 119
3 122 120 391
3 122 391 121
3 541 123 398
3 541 398 125
3 398 123 124
3 407 126 404
3 407 404 128
3 404 126 403
3 403 126 402
3 403 402 127
3 131 129 408
3 131 408 130
3 134 132 574
3 134 574 409
3 409 574 133
3 133 574 132
3 137 135 411
3 411 135 410
3 411 410 136
3 140 138 139
3 143 141 142
3 146 144 145
3 553 147 421
3 553 421 422
3 553 422 149
3 421 147 148
3 566 150 424
3 566 424 423
3 566 423 567
3 567 423 575
3 567 575 152
3 152 575 425
3 425 575 151
3 151 575 423
3 569 153 429
3 569 429 154
3 569 154 430
3 569 430 155
3 568 156 443
3 568 443 157
3 568 157 444
3 568 444 158
3 161 159 446
3 446 159 445
3 446 445 160
3 453 162 450
3 453 450 163
3 453 163 164
3 167 165 463
3 463 165 166
3 170 168 464
3 170 464 169
3 467 171 172
3 467 172 173
3 496 174 175
3 496 175 477
3 496 477 495
3 495 477 478
3 495 478 176
3 179 177 480
3 179 480 482
3 482 480 479
3 482 479 481
3 481 479 178
3 182 180 490
3 490 180 488
3 490 488 489
3 489 488 487
3 489 487 181
3 565 183 498
3 565 498 564
3 564 498 497
3 564 497 185
3 185 497 184
3 188 186 187
3 191 189 190
3 194 192 193
3 531 195 196
3 531 196 197
3 200 198 199
3 203 201 535
3 203 535 202
3 206 204 205
3 209 207 208
3 212 210 211
3 215 213 214
3 218 216 217
3 221 219 540
3 540 219 220
3 552 222 223
3 552 223 224
3 227 225 226
3 576 582 577
3 576 577 578
3 578 577 583
3 578 583 584
3 579 585 586
3 580 579 586
3 580 586 587
3 581 580 587
3 581 587 588
3 582 581 588
3 583 582 588
3 577 582 583
3 584 583 589
3 584 589 590
3 586 585 593
3 586 593 594
3 587 586 594
3 588 587 594
3 589 588 594
3 583 588 589
3 590 589 595
3 591 590 595
3 592 591 595
3 593 592 595
3 594 593 595
3 589 594 595
3 593 585 592
3 592 585 0
3 592 0 254
3 592 254 591
3 591 254 22
3 591 22 590
3 590 22 19
3 590 19 584
3 584 19 578
3 578 19 250
3 578 250 16
3 578 16 576
3 576 16 13
3 576 13 242
3 576 242 582
3 582 242 581
3 581 242 580
3 580 242 10
3 580 10 579
3 579 10 4
3 579 4 232
3 579 232 229
3 579 229 585
3 585 229 0
3 4 10 7
3 596 600 601
3 597 596 601
3 597 601 602
3 598 597 602
3 598 602 603
3 599 598 603
3 599 603 604
3 601 600 605
3 601 605 606
3 602 601 606
3 602 606 607
3 603 602 607
3 604 603 607
3 604 607 608
3 606 605 609
3 606 609 607
3 607 609 1
3 607 1 231
3 607 231 608
3 608 231 234
3 608 234 604
3 604 234 40
3 604 40 282
3 604 282 599
3 599 282 37
3 599 37 598
3 598 37 34
3 598 34 270
3 598 270 597
3 597 270 31
3 597 31 596
3 596 31 28
3 596 28 261
3 596 261 600
3 600 261 605
3 605 261 26
3 605 26 609
3 609 26 259
3 609 259 1
3 40 234 3
3 40 3 43
3 6 44 5
3 9 55 8
3 8 55 42
3 42 55 41
3 41 55 298
3 41 298 46
3 46 298 49
3 49 298 296
3 49 296 52
3 12 61 611
3 12 611 245
3 245 611 612
3 245 612 300
3 245 300 56
3 245 56 11
3 300 612 302
3 302 612 304
3 304 612 610
3 304 610 306
3 306 610 58
3 58 610 61
3 61 610 611
3 611 610 612
3 15 73 70
3 15 70 67
3 15 67 64
3 15 64 62
3 15 62 14
3 322 76 74
3 322 74 251
3 322 251 18
3 251 74 17
3 613 618 619
3 614 613 619
3 614 619 620
3 615 614 620
3 615 620 621
3 616 615 621
3 617 616 621
3 617 621 622
3 619 618 623
3 620 619 623
3 620 623 624
3 621 620 624
3 622 621 624
3 622 624 257
3 622 257 24
3 622 24 263
3 622 263 617
3 617 263 82
3 617 82 616
3 616 82 335
3 616 335 615
3 615 335 79
3 615 79 614
3 614 79 613
3 613 79 326
3 613 326 323
3 613 323 618
3 618 323 20
3 618 20 623
3 623 20 21
3 623 21 624
3 624 21 257
3 323 326 77
3 82 263 85
3 85 263 27
3 85 27 88
3 258 25 256
3 258 256 255
3 258 255 2
3 255 256 23
3 30 94 91
3 30 91 29
3 29 91 89
3 33 109 373
3 33 373 274
3 274 373 371
3 274 371 369
3 274 369 32
3 32 369 97
3 32 97 95
3 373 109 100
3 100 109 106
3 100 106 103
3 36 110 35
3 39 45 380
3 39 380 285
3 285 380 107
3 285 107 38
3 38 107 108
3 386 118 115
3 386 115 625
3 386 625 626
3 386 626 388
3 388 626 47
3 388 47 48
3 47 626 382
3 382 626 627
3 382 627 105
3 105 627 104
3 104 627 112
3 112 627 384
3 384 627 625
3 384 625 115
3 625 627 626
3 628 629 630
3 628 630 631
3 629 632 633
3 630 629 633
3 630 633 634
3 631 630 634
3 631 634 635
3 633 632 636
3 633 636 637
3 634 633 637
3 637 636 638
3 637 638 51
3 637 51 127
3 637 127 635
3 637 635 634
3 635 127 399
3 635 399 631
3 631 399 124
3 631 124 396
3 631 396 628
3 628 396 394
3 628 394 392
3 628 392 629
3 629 392 121
3 629 121 632
3 632 121 119
3 632 119 387
3 632 387 636
3 636 387 389
3 636 389 638
3 638 389 50
3 638 50 51
3 639 641 642
3 639 642 307
3 639 307 130
3 639 130 128
3 639 128 641
3 641 128 640
3 641 640 643
3 641 643 303
3 641 303 642
3 642 303 305
3 642 305 307
3 303 643 301
3 301 643 299
3 301 299 54
3 299 643 297
3 297 643 640
3 297 640 53
3 53 640 128
3 130 307 133
3 133 307 136
3 136 307 57
3 60 63 644
3 60 644 59
3 59 644 137
3 137 644 413
3 413 644 139
3 139 644 142
3 142 644 63
3 66 143 65
3 645 646 647
3 647 646 649
3 647 649 650
3 648 647 650
3 648 650 651
3 648 651 447
3 648 447 440
3 648 440 647
3 647 440 437
3 647 437 645
3 645 437 415
3 645 415 140
3 645 140 646
3 646 140 141
3 646 141 649
3 649 141 451
3 649 451 650
3 650 451 651
3 651 451 163
3 651 163 447
3 451 141 68
3 451 68 69
3 415 437 417
3 417 437 434
3 417 434 145
3 145 434 431
3 145 431 419
3 419 431 426
3 419 426 148
3 148 426 151
3 426 431 154
3 440 447 160
3 440 160 157
3 72 75 71
3 329 78 164
3 329 164 452
3 329 452 75
3 75 452 71
3 652 655 656
3 653 652 656
3 653 656 657
3 654 653 657
3 654 657 658
3 655 659 660
3 656 655 660
3 656 660 661
3 657 656 661
3 657 661 662
3 658 657 662
3 660 659 663
3 661 660 663
3 661 663 664
3 662 661 664
3 662 664 665
3 662 665 169
3 662 169 166
3 662 166 658
3 658 166 461
3 658 461 654
3 654 461 459
3 654 459 457
3 654 457 653
3 653 457 455
3 653 455 652
3 652 455 161
3 652 161 449
3 652 449 655
3 655 449 162
3 655 162 659
3 659 162 80
3 659 80 663
3 663 80 339
3 663 339 664
3 664 339 665
3 665 339 81
3 665 81 169
3 84 172 465
3 84 465 83
3 83 465 170
3 87 90 173
3 87 173 86
3 667 669 670
3 668 667 670
3 668 670 671
3 669 672 673
3 670 669 673
3 670 673 674
3 671 670 674
3 673 672 675
3 673 675 676
3 674 673 676
3 674 676 677
3 677 676 679
3 677 679 680
3 678 677 680
3 678 680 96
3 678 96 181
3 678 181 677
3 677 181 674
3 674 181 483
3 674 483 671
3 671 483 668
3 668 483 178
3 668 178 666
3 668 666 667
3 667 666 473
3 667 473 471
3 667 471 669
3 669 471 469
3 669 469 672
3 672 469 167
3 672 167 675
3 675 167 168
3 675 168 679
3 675 679 676
3 679 168 466
3 679 466 680
3 680 466 171
3 680 171 96
3 96 171 92
3 96 92 93
3 473 666 475
3 475 666 175
3 175 666 178
3 681 683 684
3 682 681 684
3 682 684 685
3 689 688 691
3 690 689 691
3 690 691 372
3 690 372 374
3 690 374 519
3 690 519 517
3 690 517 515
3 690 515 689
3 689 515 687
3 689 687 688
3 688 687 182
3 688 182 98
3 688 98 370
3 688 370 691
3 691 370 372
3 182 687 686
3 182 686 493
3 493 686 193
3 493 193 511
3 493 511 190
3 493 190 685
3 493 685 177
3 177 685 684
3 177 684 176
3 176 684 683
3 176 683 184
3 184 683 499
3 499 683 681
3 499 681 501
3 501 681 503
3 501 503 187
3 503 681 505
3 505 681 682
3 505 682 507
3 507 682 685
3 507 685 509
3 509 685 190
3 193 686 513
3 513 686 687
3 513 687 515
3 519 374 99
3 692 694 695
3 693 692 695
3 693 695 111
3 693 111 529
3 693 529 199
3 693 199 527
3 693 527 525
3 693 525 692
3 692 525 523
3 692 523 694
3 694 523 516
3 694 516 518
3 694 518 695
3 695 518 520
3 695 520 111
3 111 520 101
3 111 101 102
3 516 523 521
3 516 521 514
3 514 521 194
3 527 199 196
3 114 200 530
3 114 530 385
3 385 530 113
3 696 697 698
3 698 697 699
3 698 699 117
3 698 117 120
3 698 120 696
3 696 120 208
3 696 208 205
3 696 205 202
3 696 202 697
3 697 202 532
3 697 532 197
3 697 197 699
3 699 197 198
3 699 198 116
3 699 116 117
3 701 700 703
3 701 703 704
3 701 704 214
3 701 214 211
3 701 211 536
3 701 536 700
3 700 536 702
3 700 702 395
3 700 395 397
3 700 397 703
3 703 397 220
3 703 220 538
3 703 538 704
3 704 538 217
3 704 217 214
3 220 397 123
3 395 702 393
3 393 702 209
3 393 209 122
3 209 702 536
3 126 129 705
3 126 705 401
3 401 705 125
3 125 705 542
3 125 542 221
3 542 705 129
3 548 226 708
3 548 708 132
3 132 708 131
3 131 708 543
3 543 708 226
3 543 226 546
3 543 546 706
3 543 706 219
3 219 706 539
3 539 706 707
3 539 707 218
3 218 707 223
3 223 707 544
3 544 707 546
3 546 707 706
3 414 138 416
3 414 416 710
3 414 710 709
3 414 709 549
3 414 549 134
3 414 134 135
3 549 709 227
3 227 709 550
3 550 709 710
3 550 710 418
3 550 418 144
3 418 710 416
3 147 224 420
3 420 224 711
3 420 711 146
3 146 711 551
3 551 711 547
3 551 547 225
3 547 711 545
3 545 711 224
3 150 185 500
3 150 500 712
3 150 712 149
3 149 712 222
3 222 712 216
3 216 712 502
3 216 502 186
3 216 186 215
3 502 712 500
3 713 714 715
3 714 716 717
3 715 714 717
3 715 717 718
3 717 719 720
3 718 717 720
3 718 720 474
3 718 474 476
3 718 476 715
3 715 476 713
3 713 476 183
3 713 183 152
3 713 152 428
3 713 428 714
3 714 428 153
3 714 153 716
3 716 153 158
3 716 158 456
3 716 456 719
3 716 719 717
3 719 456 458
3 719 458 460
3 719 460 720
3 720 460 472
3 720 472 474
3 472 460 470
3 470 460 462
3 470 462 165
3 456 158 159
3 183 476 174
3 721 722 723
3 721 723 156
3 721 156 155
3 721 155 433
3 721 433 436
3 721 436 722
3 722 436 439
3 722 439 442
3 722 442 723
3 723 442 156
3 494 179 486
3 494 486 180
3 724 725 726
3 724 726 558
3 724 558 556
3 724 556 204
3 724 204 554
3 724 554 725
3 725 554 212
3 725 212 188
3 725 188 504
3 725 504 506
3 725 506 726
3 726 506 727
3 726 727 560
3 726 560 558
3 560 727 562
3 562 727 508
3 562 508 510
3 562 510 189
3 508 727 506
3 188 212 213
3 204 556 203
3 728 731 732
3 729 728 732
3 729 732 733
3 731 730 734
3 731 734 735
3 732 731 735
3 732 735 736
3 733 732 736
3 733 736 737
3 734 738 739
3 735 734 739
3 735 739 740
3 736 735 740
3 736 740 741
3 737 736 741
3 740 739 742
3 740 742 526
3 740 526 741
3 741 526 528
3 741 528 195
3 741 195 737
3 737 195 534
3 737 534 733
3 733 534 201
3 733 201 729
3 729 201 557
3 729 557 559
3 729 559 728
3 728 559 561
3 728 561 730
3 728 730 731
3 730 561 563
3 730 563 191
3 730 191 734
3 734 191 512
3 734 512 738
3 738 512 192
3 738 192 522
3 738 522 739
3 739 522 742
3 742 522 524
3 742 524 526
3 537 210 555
3 537 555 207
3 207 555 206
