ply
format ascii 1.0
comment Generated by PyMesh
element vertex 758
property float x
property float y
property float z
property float nx
property float ny
property float nz
element face 1512
property list uchar int vertex_indices
end_header
27.015 80.328 -46.063 0.083 -0.121 -0.989
27.936 81.08 -46.683 -0.531 -0.622 -0.576
27.672 80.066 -46.146 -0.355 0.054 -0.933
27.525 81.565 -46.654 -0.736 -0.38 -0.561
26.669 80.738 -46.038 -0.165 0.172 -0.971
27.409 81.801 -46.703 -0.658 -0.537 -0.528
27.017 82.608 -45.941 -0.985 0.136 0.108
26.243 81.615 -45.209 -0.469 0.798 -0.38
27.022 82.602 -45.673 -0.988 0.139 -0.07
27.89 82.447 -43.871 -0.553 0.062 0.831
26.977 81.484 -43.687 0.056 0.704 0.708
28.037 82.641 -43.759 -0.651 -0.068 0.756
28.081 82.602 -43.726 -0.614 -0.1 0.783
27.025 81.441 -43.651 0.09 0.674 0.733
28.007 81.238 -42.797 -0.564 0.809 0.164
27.503 79.876 -42.543 -0.924 -0.164 0.346
26.521 80.079 -43.397 -0.27 -0.299 0.915
27.114 79.784 -43.134 -0.665 -0.103 0.74
26.932 78.819 -44.33 -0.766 -0.639 0.076
26.36 79.225 -44.455 -0.385 -0.909 0.159
27.177 78.226 -44.634 -0.929 -0.243 0.278
27.637 78.864 -46.102 -0.601 0.213 -0.77
26.82 79.863 -45.923 -0.056 -0.454 -0.889
27.451 79.54 -45.989 -0.477 -0.238 -0.846
28.384 79.046 -46.335 -0.067 0.343 -0.937
28.295 79.746 -46.252 -0.008 -0.124 -0.992
28.795 80.262 -46.518 -0.341 -0.468 -0.815
28.682 80.373 -46.523 -0.422 -0.389 -0.818
28.167 79.871 -46.258 -0.079 -0.055 -0.995
28.455 80.875 -46.8 -0.271 -0.724 -0.634
28.83 80.394 -46.597 -0.316 -0.374 -0.872
28.63 80.9 -46.888 -0.183 -0.712 -0.678
29.329 80.962 -47.743 -0.649 -0.753 -0.108
28.831 81.793 -48.09 -0.898 -0.338 -0.281
28.132 81.731 -47.235 -0.432 -0.296 -0.851
28.696 82.168 -48.553 -0.809 -0.588 0.028
28.562 82.396 -48.54 -0.905 -0.425 0.037
27.973 82.001 -47.219 -0.512 -0.161 -0.844
27.757 82.14 -47.143 -0.368 -0.254 -0.894
28.566 83.519 -48.294 -0.901 0.377 0.213
27.761 83.174 -46.917 -0.365 0.607 -0.706
27.978 83.33 -46.928 -0.509 0.503 -0.698
28.668 83.687 -48.23 -0.828 0.497 0.259
28.099 83.528 -46.852 -0.449 0.602 -0.66
28.601 83.828 -47.132 -0.784 0.402 -0.474
28.657 84.284 -46.544 -0.756 0.63 -0.18
28.155 83.984 -46.264 -0.421 0.83 -0.366
28.808 84.504 -46.54 -0.857 0.483 -0.182
29.082 84.714 -45.823 -0.628 0.658 0.416
28.507 84.254 -45.342 -0.245 0.965 0.095
29.009 84.554 -45.622 -0.579 0.765 0.282
30.298 83.643 -44.288 0.065 0.31 0.949
29.796 83.343 -44.008 0.399 0.51 0.762
30.882 83.49 -44.142 -0.324 0.412 0.851
31.113 82.527 -44.007 -0.16 -0.276 0.948
30.069 82.204 -43.848 0.536 -0.06 0.842
31.754 81.489 -43.626 -0.587 0.417 0.694
31.748 81.475 -43.623 -0.59 0.41 0.695
30.063 82.19 -43.845 0.533 -0.067 0.843
29.794 81.063 -42.811 0.713 0.684 0.154
29.262 81.353 -42.597 0.333 0.892 0.307
29.433 82.534 -43.591 0.218 0.105 0.97
29.237 82.708 -43.542 0.349 -0.012 0.937
31.787 79.254 -44.157 -0.571 -0.7 0.428
29.826 79.187 -43.262 0.736 -0.656 -0.168
29.739 79.006 -43.947 0.794 -0.535 0.288
29.737 79.003 -43.946 0.793 -0.537 0.289
29.824 79.184 -43.261 0.734 -0.658 -0.167
29.66 78.388 -44.294 0.844 -0.127 0.521
28.21 78.006 -43.768 -0.191 -0.4 0.896
28.375 78.802 -42.736 -0.301 -0.931 0.208
28.099 78.571 -43.352 -0.117 -0.777 0.619
29.739 79.005 -43.949 0.794 -0.536 0.287
29.662 78.39 -44.297 0.846 -0.126 0.519
31.786 79.253 -44.16 -0.571 -0.701 0.427
31.607 79.643 -46.124 -0.66 -0.506 -0.555
29.51 78.72 -45.956 0.737 0.11 -0.667
30.58 80.34 -47.317 0.025 -0.97 0.241
29.847 80.534 -47.683 -0.586 -0.808 -0.064
28.715 78.931 -46.354 0.169 0.261 -0.95
29.126 80.148 -46.537 -0.105 -0.55 -0.828
29.711 80.655 -47.729 -0.699 -0.708 -0.103
28.978 80.278 -46.587 -0.21 -0.457 -0.864
29.505 80.825 -47.731 -0.561 -0.821 -0.102
31.228 80.543 -47.845 0.565 -0.801 -0.199
31.455 80.682 -47.88 0.414 -0.893 -0.176
32.441 79.905 -46.803 -0.244 -0.375 -0.894
32.627 80.023 -46.888 -0.151 -0.316 -0.937
31.641 80.8 -47.965 0.507 -0.834 -0.219
32.259 81.013 -47.997 0.095 -0.976 -0.197
31.926 81.794 -49.218 -0.072 -0.586 -0.807
31.308 81.581 -49.185 0.34 -0.444 -0.829
30.861 81.893 -49.815 0.638 -0.652 -0.409
29.289 81.788 -49.362 -0.672 -0.74 -0.031
29.286 81.445 -48.602 -0.67 -0.511 -0.538
29.081 81.875 -48.986 -0.534 -0.797 -0.282
30.167 83.737 -49.88 0.06 0.884 -0.463
30.035 83.991 -49.549 0.148 0.715 -0.684
30.893 84.816 -49.239 -0.424 0.165 -0.891
30.305 85.104 -48.154 -0.914 0.405 0.013
29.396 84.304 -48.371 -0.309 0.938 0.158
29.435 84.719 -47.127 -0.334 0.662 -0.671
29.104 84.536 -47.051 -0.61 0.509 -0.607
29.037 84.105 -48.288 -0.565 0.796 0.217
29.037 84.324 -47.201 -0.565 0.65 -0.508
31.097 85.445 -47.355 -0.254 0.688 0.679
30.227 85.059 -46.328 0.326 0.945 -0.005
30.481 84.997 -46.271 0.157 0.987 -0.043
31.449 85.345 -47.216 0.039 0.605 0.795
30.933 84.869 -46.093 0.383 0.923 0.046
31.935 84.817 -46.071 -0.285 0.958 0.032
31.89 84.406 -44.97 -0.308 0.752 0.582
30.888 84.458 -44.992 0.36 0.717 0.597
31.38 84.178 -44.737 0.032 0.904 0.427
32.443 83.06 -44.142 -0.031 0.079 0.996
31.848 83.041 -44.037 0.366 0.092 0.926
32.624 82.097 -43.662 -0.152 0.721 0.676
33.582 83.114 -44.463 0.538 0.106 0.836
33.763 82.151 -43.982 0.417 0.748 0.516
34.475 82.502 -44.492 -0.057 0.514 0.856
34.873 81.984 -44.29 0.142 0.256 0.956
34.162 81.634 -43.781 0.617 0.489 0.617
35.017 81.464 -44.051 0.047 0.603 0.797
34.985 80.766 -43.711 0.031 0.254 0.967
34.13 80.936 -43.441 0.601 0.141 0.787
34.485 80.494 -43.495 0.364 0.435 0.823
33.298 78.894 -46.247 -0.334 -0.506 -0.795
32.853 79.216 -46.401 -0.037 -0.72 -0.693
33.708 79.045 -46.671 -0.607 -0.606 -0.513
33.695 79.69 -47.117 -0.614 -0.284 -0.737
32.84 79.86 -46.847 -0.044 -0.398 -0.917
33.552 80.21 -47.357 -0.518 -0.631 -0.577
33.424 80.388 -47.413 -0.582 -0.543 -0.605
32.712 80.037 -46.904 -0.108 -0.309 -0.945
32.345 81.027 -48.013 0.137 -0.969 -0.205
33.711 80.557 -47.749 -0.439 -0.458 -0.773
32.631 81.196 -48.349 0.281 -0.884 -0.373
32.804 81.299 -48.526 0.166 -0.953 -0.254
33.475 82.586 -49.035 0.725 0.12 -0.679
33.494 82.852 -49.003 0.712 -0.057 -0.7
34.926 82.537 -48.616 -0.243 0.153 -0.958
35.033 83.37 -48.253 -0.18 0.643 -0.744
33.609 83.747 -48.613 0.769 0.391 -0.505
33.423 84.316 -48.697 0.893 0.013 -0.449
31.993 84.162 -49.45 -0.128 -0.097 -0.987
31.917 83.566 -49.504 -0.077 0.3 -0.951
30.853 83.272 -50.038 0.632 0.497 -0.595
31.81 84.373 -49.418 -0.259 0.053 -0.964
30.684 83.466 -50.009 0.491 0.658 -0.571
31.41 84.545 -49.368 0.007 -0.062 -0.998
31.865 85.246 -47.085 -0.22 0.677 0.702
31.461 85.349 -47.22 0.049 0.609 0.792
31.951 84.822 -46.076 -0.277 0.96 0.03
32.603 85.291 -47.18 0.308 0.709 0.634
32.825 84.875 -46.189 0.16 0.987 -0.027
33.073 84.862 -46.087 -0.005 0.995 -0.095
33.993 84.001 -45.27 0.761 0.278 0.586
34.008 83.768 -45.139 0.751 0.433 0.498
34.901 83.156 -45.168 0.156 0.841 0.517
34.073 84.073 -45.437 0.828 0.339 0.446
35.004 83.249 -45.383 0.208 0.888 0.41
35.327 83.501 -45.809 -0.008 0.72 0.694
35.89 83.145 -45.634 0.324 0.511 0.796
35.61 82.867 -45.195 0.511 0.697 0.504
36.448 82.995 -45.625 -0.048 0.611 0.79
36.766 82.157 -45.255 0.111 0.192 0.975
35.928 82.028 -44.825 0.67 0.278 0.689
36.071 81.507 -44.586 0.574 0.625 0.529
36.781 82.142 -45.254 0.118 0.185 0.976
36.086 81.493 -44.585 0.582 0.617 0.53
36.642 81.263 -44.692 0.211 0.771 0.601
36.01 79.379 -43.936 -0.105 -0.172 0.98
35.454 79.608 -43.828 0.265 -0.325 0.908
34.921 79.418 -43.605 0.621 -0.198 0.759
35.911 78.795 -44.15 -0.155 -0.463 0.873
34.829 78.876 -43.804 0.567 -0.517 0.642
36.21 78.386 -44.214 -0.354 -0.191 0.916
35.686 77.696 -45.425 -0.728 -0.683 0.051
34.253 78.116 -45.136 0.228 -0.963 -0.142
35.291 77.979 -45.583 -0.465 -0.872 0.156
35.06 78.109 -46.129 -0.58 -0.806 -0.117
34.039 78.238 -45.644 0.102 -0.892 -0.441
34.505 78.339 -46.022 -0.209 -0.959 -0.189
35.354 79.549 -47.689 -0.433 -0.086 -0.897
34.798 79.779 -47.582 -0.063 -0.24 -0.969
34.655 80.3 -47.821 0.033 -0.587 -0.809
35.356 79.551 -47.691 -0.432 -0.085 -0.898
34.657 80.302 -47.823 0.034 -0.586 -0.81
35.495 80.43 -48.252 -0.525 -0.671 -0.524
35.209 81.201 -48.58 -0.668 -0.286 -0.687
34.371 81.072 -48.15 -0.109 -0.2 -0.974
33.317 81.699 -48.839 0.593 -0.619 -0.515
35.379 81.82 -48.83 -0.583 0.024 -0.812
33.449 82.181 -49.033 0.704 -0.217 -0.677
34.896 82.053 -48.614 -0.261 -0.132 -0.956
35.728 82.646 -48.809 -0.408 0.437 -0.802
35.221 82.821 -48.594 -0.07 0.32 -0.945
36.275 83.248 -49.061 -0.773 0.035 -0.634
36.903 84.104 -47.563 -0.249 0.749 0.615
35.972 83.844 -46.804 0.372 0.922 0.109
36.536 83.747 -46.883 -0.004 0.987 0.161
36.912 84.104 -47.558 -0.242 0.748 0.618
36.547 83.746 -46.877 0.002 0.986 0.164
36.958 83.924 -47.254 -0.273 0.868 0.415
38.674 82.143 -46.85 0.736 -0.179 0.652
38.392 81.831 -46.443 0.924 0.029 0.381
38.465 81.263 -46.259 0.876 0.408 0.259
37.597 81.346 -45.32 0.365 0.457 0.811
37.459 81.921 -45.433 0.457 0.074 0.886
37.32 81.042 -44.871 0.55 0.66 0.512
38.348 80.282 -45.737 0.807 -0.169 0.566
38.127 79.897 -45.32 0.954 0.088 0.288
38.568 80.191 -46.003 0.66 -0.109 0.743
38.585 79.683 -46.281 0.674 -0.533 0.511
38.15 79.243 -45.677 0.965 -0.239 0.109
38.102 78.764 -45.505 0.997 0.08 -0.006
38.249 79.234 -47.075 0.394 -0.907 -0.15
37.736 78.277 -46.366 0.736 -0.269 -0.622
37.717 78.666 -46.697 0.748 -0.528 -0.401
37.922 79.316 -47.533 0.121 -0.838 -0.532
37.297 78.772 -47.287 0.538 -0.475 -0.696
37.575 79.236 -47.566 0.352 -0.785 -0.51
36.429 79.762 -48.091 -0.322 -0.476 -0.819
36.063 79.337 -47.851 -0.078 -0.193 -0.978
36.202 80.216 -48.413 -0.171 -0.779 -0.604
37.649 80.152 -48.203 0.396 -0.246 -0.885
37.515 80.636 -48.534 0.485 -0.568 -0.664
37.858 81.033 -48.794 0.257 -0.832 -0.491
36.202 82.893 -49.056 -0.717 0.262 -0.646
35.734 82.638 -48.816 -0.405 0.432 -0.806
36.279 83.242 -49.067 -0.769 0.03 -0.639
37.711 80.157 -48.175 0.433 -0.243 -0.868
37.921 81.037 -48.766 0.293 -0.83 -0.474
38.036 80.086 -48.043 0.216 -0.196 -0.956
38.055 80.091 -48.039 0.233 -0.192 -0.953
37.944 81.043 -48.761 0.307 -0.826 -0.472
38.294 81.092 -48.71 0.074 -0.859 -0.506
38.941 81.972 -47.166 0.613 -0.126 0.78
38.717 82.095 -46.916 0.762 -0.208 0.613
38.702 80.972 -46.496 0.772 0.541 0.333
38.694 80.976 -46.483 0.765 0.545 0.343
38.707 82.101 -46.902 0.756 -0.204 0.622
38.498 81.22 -46.311 0.895 0.383 0.228
33.807 84.44 -46.532 0.607 0.644 -0.466
35.009 83.94 -47.117 -0.195 0.978 -0.076
33.401 84.833 -47.663 0.878 0.382 0.289
27.515 80.77 -46.235 -0.25 -0.416 -0.874
27.176 81.17 -46.21 -0.503 -0.116 -0.856
27.128 81.309 -46.209 -0.471 -0.209 -0.857
26.302 81.203 -45.73 -0.426 0.503 -0.752
26.834 81.681 -45.963 -0.781 0.185 -0.597
27.072 82.228 -46.42 -0.939 -0.18 -0.292
26.787 82.011 -45.546 -0.831 0.534 -0.155
26.761 82.026 -45.401 -0.814 0.524 -0.252
26.335 81.779 -44.633 -0.403 0.915 0.032
26.851 82.186 -44.839 -0.747 0.643 0.169
27.13 82.796 -44.991 -0.933 0.236 0.271
26.597 81.732 -44.089 -0.216 0.881 0.421
27.107 82.14 -44.307 -0.555 0.609 0.566
27.441 82.741 -44.347 -0.778 0.208 0.593
27.478 81.898 -43.915 -0.278 0.428 0.86
27.584 81.979 -43.914 -0.349 0.374 0.859
27.622 81.947 -43.887 -0.307 0.337 0.89
27.556 81.214 -43.3 -0.264 0.825 0.499
26.637 80.844 -43.347 -0.187 0.247 0.951
27.214 80.689 -43.033 -0.572 0.351 0.741
27.618 80.641 -42.493 -0.841 0.383 0.381
27.113 80.017 -43.076 -0.664 -0.257 0.702
26.377 79.527 -43.815 -0.373 -0.694 0.616
26.951 79.16 -43.607 -0.755 -0.449 0.477
26.877 78.821 -44.581 -0.729 -0.64 0.243
26.361 79.382 -45.331 -0.384 -0.797 -0.466
26.878 78.959 -45.353 -0.729 -0.515 -0.452
27.178 78.383 -45.51 -0.929 -0.131 -0.348
27.283 79.383 -45.875 -0.365 -0.134 -0.921
28.334 80.424 -46.422 -0.191 -0.423 -0.886
27.862 80.61 -46.316 -0.481 -0.309 -0.82
29.027 81.014 -47.271 -0.448 -0.788 -0.423
28.557 81.798 -47.598 -0.716 -0.341 -0.609
28.558 82.052 -47.799 -0.716 -0.51 -0.476
28.431 82.267 -47.786 -0.818 -0.338 -0.466
28.343 82.366 -47.718 -0.758 -0.404 -0.511
28.346 83.205 -47.535 -0.755 0.587 -0.294
27.332 83.252 -46.263 -0.722 0.673 -0.161
27.426 83.431 -46.087 -0.785 0.553 -0.278
28.436 83.323 -47.555 -0.814 0.508 -0.28
28.532 83.48 -47.495 -0.737 0.634 -0.232
28.898 84.159 -44.743 -0.049 0.918 0.395
29.4 84.459 -45.023 -0.384 0.718 0.581
29.348 83.841 -44.277 0.176 0.759 0.628
29.85 84.141 -44.557 -0.159 0.559 0.814
30.621 81.91 -44.049 0.168 0.136 0.976
31.221 81.656 -43.97 -0.231 0.306 0.924
30.616 81.899 -44.047 0.165 0.127 0.978
31.215 81.644 -43.968 -0.235 0.297 0.925
29.771 81.549 -43.454 0.728 0.361 0.583
29.278 81.817 -43.256 0.322 0.582 0.747
29.558 83.485 -44.003 0.28 0.58 0.765
29.334 83.448 -43.862 0.43 0.605 0.67
28.7 83.938 -44.388 -0.149 0.807 0.572
28.666 83.8 -44.161 -0.126 0.898 0.421
27.815 83.387 -44.318 -0.591 0.532 0.607
27.979 83.372 -44.107 -0.7 0.542 0.466
29.148 81.9 -43.254 0.408 0.527 0.745
28.626 82.751 -43.482 -0.16 0.024 0.987
28.657 81.934 -43.206 -0.18 0.568 0.803
28.598 81.4 -42.532 -0.141 0.925 0.354
28.219 81.815 -43.402 -0.705 0.425 0.567
30.21 80.891 -43.203 0.435 0.799 0.415
30.73 80.91 -43.496 0.088 0.787 0.611
31.272 81.115 -43.644 -0.273 0.65 0.709
30.046 80.399 -42.47 0.893 0.21 0.398
30.393 80.41 -42.956 0.662 0.202 0.722
30.898 80.469 -43.27 0.325 0.163 0.932
31.48 80.567 -43.362 -0.063 0.097 0.993
32.047 80.688 -43.219 -0.441 0.017 0.898
30.06 79.632 -42.654 0.903 -0.338 0.266
30.403 79.854 -43.089 0.674 -0.486 0.556
30.907 79.961 -43.392 0.338 -0.557 0.758
31.491 79.935 -43.515 -0.051 -0.54 0.84
32.063 79.781 -43.437 -0.433 -0.437 0.788
30.234 79.532 -43.53 0.464 -0.886 0.01
30.752 79.666 -43.795 0.119 -0.975 0.187
31.299 79.568 -44.016 -0.245 -0.91 0.334
29.609 78.852 -43.807 0.878 -0.436 0.197
29.209 78.779 -42.851 0.295 -0.947 0.126
29.068 78.496 -43.446 0.39 -0.758 0.523
29.045 77.983 -43.883 0.405 -0.416 0.814
28.334 78.516 -43.345 -0.274 -0.74 0.614
27.806 79.221 -42.583 -0.707 -0.632 0.317
27.456 79.044 -43.179 -0.474 -0.514 0.715
27.386 78.625 -43.704 -0.513 -0.746 0.423
27.579 78.054 -44.08 -0.642 -0.366 0.674
30.054 78.837 -44.556 0.584 -0.424 0.692
30.61 79.165 -44.622 0.214 -0.643 0.735
31.226 79.313 -44.481 -0.197 -0.742 0.641
29.789 78.122 -45.231 0.937 -0.317 -0.149
30.135 78.666 -45.155 0.706 -0.68 -0.2
30.68 79.019 -45.134 0.343 -0.915 -0.213
31.32 79.115 -45.173 -0.084 -0.979 -0.187
31.937 78.936 -45.265 -0.495 -0.86 -0.126
29.957 79.048 -45.619 0.44 -0.109 -0.891
30.527 79.346 -45.532 0.06 -0.308 -0.95
31.113 79.558 -45.711 -0.331 -0.449 -0.83
29.481 79.379 -46.109 0.757 -0.33 -0.565
29.684 79.937 -46.435 0.622 -0.702 -0.347
30.077 80.281 -46.867 0.36 -0.931 -0.059
29.111 79.477 -46.294 -0.095 -0.103 -0.99
29.478 79.992 -46.538 -0.34 -0.447 -0.828
29.742 80.37 -47.034 -0.515 -0.699 -0.497
28.915 79.563 -46.3 0.036 -0.161 -0.986
28.623 79.664 -46.283 -0.226 -0.07 -0.972
29.555 80.476 -47.021 -0.391 -0.769 -0.505
29.435 80.582 -47.062 -0.515 -0.659 -0.548
29.314 80.671 -47.069 -0.434 -0.719 -0.543
29.17 80.783 -47.078 -0.543 -0.634 -0.551
30.42 80.828 -48.652 -0.103 -0.82 -0.563
30.423 80.657 -48.446 -0.105 -0.706 -0.7
31.922 80.482 -47.182 0.102 -0.76 -0.642
32.081 80.583 -47.254 0.213 -0.689 -0.693
31.51 81.075 -48.658 0.441 -0.697 -0.566
32.128 81.288 -48.691 0.029 -0.839 -0.544
30.676 81.168 -49.046 0.025 -0.65 -0.759
30.37 81.572 -49.707 0.229 -0.92 -0.319
29.94 81.119 -48.834 -0.343 -0.675 -0.653
29.797 81.534 -49.542 -0.248 -0.952 -0.181
28.778 82.455 -49.347 -0.75 -0.383 -0.539
29.009 82.323 -49.694 -0.905 -0.294 -0.308
28.878 83.149 -49.609 -0.678 0.113 -0.726
29.102 82.961 -49.935 -0.827 0.238 -0.509
29.35 83.725 -49.684 -0.342 0.524 -0.78
29.536 83.491 -50.004 -0.466 0.679 -0.567
30.484 84.34 -49.28 -0.151 0.482 -0.863
29.597 84.289 -49.062 -0.165 0.927 -0.336
30.11 84.594 -48.865 -0.507 0.724 -0.468
30.49 85.091 -48.79 -0.76 0.393 -0.517
29.939 84.607 -48.275 -0.67 0.736 0.094
29.469 84.377 -47.706 -0.357 0.889 -0.285
29.169 84.211 -47.637 -0.653 0.725 -0.217
29.102 84.132 -47.728 -0.608 0.778 -0.156
28.727 83.706 -47.669 -0.867 0.484 -0.116
29.992 84.807 -47.576 -0.706 0.603 -0.372
29.76 85.052 -46.727 -0.063 0.939 -0.337
30.264 85.086 -47.241 -0.4 0.917 0.006
30.63 85.438 -47.753 -0.643 0.682 0.347
30.655 85.092 -46.907 0.041 0.924 0.381
29.77 84.979 -45.752 -0.055 0.878 0.475
29.893 84.894 -45.53 -0.137 0.935 0.328
30.797 85.077 -46.868 -0.054 0.933 0.355
31.155 84.976 -46.727 0.235 0.852 0.469
30.915 84.752 -45.509 0.373 0.864 0.338
31.917 84.699 -45.488 -0.295 0.899 0.324
31.705 83.727 -44.256 0.263 0.582 0.77
32.274 83.872 -44.402 -0.116 0.485 0.867
32.219 82.505 -43.976 0.118 0.449 0.886
31.492 81.997 -43.946 -0.413 0.078 0.908
33.214 82.169 -43.739 0.143 0.757 0.637
33.034 83.132 -44.22 0.264 0.115 0.958
33.718 80.541 -43.18 0.395 -0.057 0.917
34.102 80.127 -43.253 0.139 0.219 0.966
33.282 80.094 -43.127 0.177 -0.281 0.943
33.696 79.711 -43.204 -0.1 -0.025 0.995
32.872 79.647 -43.288 -0.028 -0.504 0.863
33.316 79.295 -43.353 -0.324 -0.27 0.907
32.538 79.252 -43.643 -0.195 -0.702 0.685
33.005 78.928 -43.684 -0.506 -0.486 0.713
32.319 78.957 -44.151 -0.305 -0.849 0.431
32.801 78.654 -44.156 -0.626 -0.647 0.435
32.24 78.795 -44.752 -0.344 -0.93 0.131
32.728 78.504 -44.715 -0.669 -0.735 0.106
32.311 78.787 -45.376 -0.308 -0.934 -0.181
32.794 78.496 -45.294 -0.63 -0.74 -0.235
32.524 78.933 -45.947 -0.202 -0.861 -0.467
32.992 78.632 -45.826 -0.514 -0.66 -0.548
32.525 80.688 -47.318 0.017 -0.743 -0.669
32.45 80.676 -47.304 -0.033 -0.751 -0.659
32.927 80.853 -47.635 -0.251 -0.853 -0.457
33.186 81.006 -47.938 -0.089 -0.758 -0.646
32.202 81.683 -49.133 0.066 -0.641 -0.765
32.47 81.678 -49.136 -0.113 -0.637 -0.763
32.646 82.536 -49.47 0.288 -0.215 -0.933
32.815 82.34 -49.398 0.175 -0.085 -0.981
34.154 82.683 -48.612 0.272 0.056 -0.961
34.251 83.435 -48.284 0.341 0.599 -0.724
33.194 83.598 -49.131 0.562 0.317 -0.764
33.072 84.19 -49.135 0.643 -0.077 -0.762
32.594 83.534 -49.447 0.262 0.285 -0.922
32.566 84.135 -49.402 0.281 -0.116 -0.953
31.345 83.362 -49.66 0.304 0.437 -0.847
32.114 82.646 -49.577 0.022 -0.16 -0.987
31.505 82.62 -49.719 0.429 -0.142 -0.892
31.007 82.556 -50.094 0.76 -0.1 -0.642
31.353 81.932 -49.429 0.31 -0.678 -0.666
31.359 83.666 -49.541 0.295 0.234 -0.926
31.217 83.828 -49.517 0.136 0.417 -0.899
30.994 83.942 -49.521 0.285 0.341 -0.896
30.569 84.165 -49.415 -0.208 0.599 -0.773
31.626 85.101 -49.246 0.187 0.402 -0.897
32.044 84.976 -49.286 -0.092 0.485 -0.87
31.758 85.542 -48.849 0.296 0.77 -0.566
32.186 85.456 -48.855 0.01 0.827 -0.562
31.771 85.756 -48.279 0.307 0.947 -0.091
32.201 85.688 -48.236 0.021 0.993 -0.12
31.663 85.685 -47.685 0.217 0.888 0.404
32.084 85.611 -47.59 -0.063 0.938 0.341
31.727 84.944 -46.722 -0.128 0.879 0.46
31.714 84.94 -46.718 -0.138 0.876 0.463
33.013 84.49 -45.031 0.253 0.794 0.552
33.218 84.562 -45.186 0.116 0.746 0.656
34.379 83.495 -45.301 0.504 0.615 0.606
34.462 83.57 -45.474 0.569 0.674 0.471
35.436 82.049 -44.485 0.423 0.288 0.859
35.579 81.529 -44.246 0.328 0.635 0.699
36.375 81.78 -45.016 0.372 0.443 0.816
36.389 81.767 -45.015 0.38 0.435 0.816
35.961 80.956 -44.084 0.519 0.349 0.78
36.517 80.726 -44.191 0.149 0.502 0.852
35.74 80.296 -43.819 0.408 0.019 0.913
36.296 80.066 -43.926 0.038 0.172 0.984
35.278 80.202 -43.677 0.178 -0.028 0.984
34.758 79.969 -43.464 0.525 0.127 0.842
35.434 79.421 -43.876 0.278 -0.2 0.939
35.345 78.895 -44.069 0.223 -0.53 0.818
35.494 78.716 -44.196 0.123 -0.41 0.904
34.488 78.279 -44.323 0.366 -0.868 0.336
35.219 78.235 -44.615 -0.122 -0.839 0.531
35.9 77.844 -44.686 -0.576 -0.578 0.578
35.03 78.104 -45.27 -0.291 -0.955 -0.053
34.786 78.159 -45.36 -0.128 -0.992 0.008
34.579 78.277 -45.853 -0.258 -0.918 -0.302
33.656 78.491 -46.013 -0.123 -0.743 -0.658
34.094 78.611 -46.419 -0.415 -0.823 -0.387
34.489 78.626 -46.716 -0.217 -0.816 -0.536
35.045 78.396 -46.823 -0.588 -0.663 -0.464
34.592 79.131 -47.263 -0.166 -0.564 -0.809
35.148 78.901 -47.37 -0.536 -0.41 -0.738
34.217 79.69 -47.427 -0.353 -0.284 -0.892
34.074 80.211 -47.667 -0.257 -0.631 -0.732
33.796 81.467 -48.347 0.274 -0.464 -0.842
33.284 81.067 -48.036 -0.155 -0.799 -0.581
33.938 81.737 -48.495 0.179 -0.644 -0.744
34.62 81.557 -48.401 -0.275 -0.524 -0.806
34.04 82.108 -48.644 0.31 -0.168 -0.936
34.735 81.978 -48.571 -0.154 -0.081 -0.985
34.12 82.159 -48.63 0.256 -0.202 -0.945
34.144 82.529 -48.632 0.279 0.158 -0.947
35.809 83.009 -48.714 -0.462 0.195 -0.865
35.192 83.516 -48.143 -0.087 0.729 -0.679
35.785 83.583 -48.341 -0.482 0.684 -0.547
36.251 83.83 -48.683 -0.793 0.52 -0.319
35.476 83.903 -47.466 0.08 0.956 -0.281
36.019 83.902 -47.782 -0.282 0.957 -0.07
36.488 84.153 -48.117 -0.595 0.789 0.153
36.429 83.854 -47.235 0.067 0.916 0.396
35.99 83.605 -46.149 0.382 0.781 0.494
36.555 83.489 -46.178 0.006 0.858 0.513
37.105 83.526 -46.424 0.281 0.877 0.391
37.477 83.72 -46.832 0.033 0.748 0.663
37.658 83.079 -46.18 0.557 0.653 0.513
37.992 83.304 -46.605 0.335 0.503 0.796
38.113 82.48 -46.186 0.785 0.354 0.509
38.414 82.747 -46.611 0.584 0.176 0.793
38.015 81.941 -45.861 0.736 0.084 0.672
38.114 81.365 -45.718 0.67 0.468 0.577
37.822 80.493 -44.978 0.801 0.385 0.458
38.064 80.836 -45.42 0.64 0.157 0.752
37.933 79.433 -44.903 0.856 -0.144 0.496
37.918 78.925 -44.851 0.866 0.194 0.461
37.376 79.408 -44.293 0.578 -0.157 0.801
37.448 78.904 -44.335 0.53 0.179 0.829
36.633 79.174 -44.017 0.207 -0.274 0.939
36.82 78.706 -44.102 0.082 0.038 0.996
38.207 79.261 -45.934 0.927 -0.251 0.28
37.9 78.851 -46.657 0.626 -0.652 -0.428
37.171 77.932 -46.602 0.332 -0.515 -0.79
37.049 78.258 -46.976 0.414 -0.732 -0.541
36.526 77.681 -46.488 -0.129 -0.694 -0.708
36.284 77.961 -46.841 0.032 -0.881 -0.473
35.98 77.595 -46.055 -0.519 -0.756 -0.399
35.638 77.858 -46.328 -0.291 -0.932 -0.217
36.682 78.948 -47.68 0.231 -0.387 -0.893
37.004 79.4 -47.932 0.016 -0.688 -0.725
36.863 80.375 -48.599 0.16 -0.699 -0.697
37.043 79.909 -48.264 0.04 -0.389 -0.921
36.951 80.898 -48.957 0.203 -0.438 -0.876
37.334 81.276 -49.187 -0.052 -0.69 -0.722
36.408 81.376 -49.16 -0.068 -0.198 -0.978
36.829 81.72 -49.376 -0.349 -0.428 -0.834
35.978 81.991 -49.111 -0.283 0.109 -0.953
36.43 82.292 -49.33 -0.584 -0.092 -0.807
36.88 83.241 -49.455 -0.269 0.029 -0.963
36.92 82.892 -49.521 -0.295 0.261 -0.919
37.561 83.455 -49.418 0.299 0.208 -0.931
37.734 83.149 -49.476 0.183 0.412 -0.892
38.01 83.787 -48.971 0.673 0.484 -0.559
38.271 83.545 -48.942 0.499 0.645 -0.578
38.021 84.083 -48.32 0.682 0.731 -0.017
38.284 83.899 -48.164 0.507 0.853 -0.121
37.589 84.208 -47.764 0.322 0.835 0.447
37.768 84.048 -47.499 0.203 0.941 0.27
37.943 80.632 -48.306 0.278 -0.56 -0.781
37.963 80.637 -48.303 0.294 -0.556 -0.778
38.117 81.077 -48.73 0.192 -0.849 -0.493
38.101 81.661 -49.304 0.4 -0.463 -0.791
38.26 81.64 -49.225 0.294 -0.449 -0.844
38.425 81.609 -49.164 0.184 -0.428 -0.885
38.417 82.436 -49.337 0.585 -0.007 -0.811
38.548 82.346 -49.255 0.498 0.053 -0.866
38.689 82.258 -49.192 0.404 0.112 -0.908
38.752 83.027 -48.846 0.782 0.34 -0.522
38.853 82.884 -48.808 0.715 0.435 -0.548
38.969 82.751 -48.781 0.637 0.524 -0.566
38.958 83.172 -48.048 0.903 0.426 -0.052
39.041 83.017 -48.08 0.848 0.529 -0.031
39.142 82.873 -48.113 0.781 0.625 -0.009
38.944 82.808 -47.293 0.896 0.212 0.391
39.029 82.685 -47.392 0.839 0.293 0.457
39.131 82.568 -47.482 0.771 0.371 0.517
38.822 82.035 -47.049 0.693 -0.168 0.702
38.605 81.511 -46.771 0.837 0.182 0.516
38.596 81.515 -46.758 0.83 0.186 0.527
38.722 81.442 -46.911 0.759 0.228 0.61
38.945 80.54 -47.053 0.974 0.182 -0.132
38.936 81.062 -47.402 0.981 -0.166 0.101
39.184 81.541 -47.724 0.816 -0.485 0.315
38.69 80.193 -47.662 0.762 -0.107 -0.639
38.711 80.757 -47.937 0.748 -0.483 -0.455
38.928 81.194 -48.332 0.603 -0.774 -0.192
38.152 80.667 -48.269 0.168 -0.576 -0.8
34.616 83.679 -45.74 0.467 0.602 0.648
35.281 83.884 -46.435 -0.035 0.945 0.325
34.579 83.979 -46.233 0.433 0.881 0.19
34.034 84.393 -45.962 0.796 0.605 0.009
34.366 84.023 -46.769 0.234 0.922 -0.308
34.357 83.954 -47.335 0.24 0.968 0.07
33.78 84.275 -47.531 0.625 0.755 0.2
34.374 83.542 -48.157 0.259 0.528 -0.809
33.797 83.881 -48.316 0.644 0.302 -0.703
33.489 84.557 -47.084 0.819 0.566 -0.097
32.815 84.945 -46.675 0.167 0.94 0.297
32.001 80.284 -46.979 0.05 -0.628 -0.777
31.573 80.509 -47.347 0.335 -0.778 -0.531
31.368 80.086 -46.464 -0.501 -0.801 -0.328
31.006 80.331 -46.885 -0.259 -0.965 -0.048
31.079 79.488 -44.274 -0.099 -0.858 0.504
30.333 79.398 -44.198 0.398 -0.798 0.453
31.079 79.489 -44.272 -0.099 -0.857 0.505
30.334 79.399 -44.196 0.398 -0.797 0.454
27.735 81.588 -43.635 -0.383 0.576 0.722
30.288 81.226 -43.663 0.383 0.576 0.722
30.616 80.27 -46.382 0 -0.924 -0.383
30.616 79.945 -45.895 0 -0.707 -0.707
30.042 80.133 -46.355 0.383 -0.832 -0.401
30.042 79.748 -45.872 0.383 -0.576 -0.722
26.587 80.194 -46.009 -0.223 -0.217 -0.95
26.026 81.593 -44.678 -0.623 0.782 0
26.026 81.419 -44.086 -0.623 0.658 0.423
26.026 80.953 -43.682 -0.623 0.325 0.711
26.026 80.342 -43.595 -0.623 -0.111 0.774
26.026 79.781 -43.851 -0.623 -0.512 0.591
26.026 79.448 -44.37 -0.623 -0.75 0.22
26.026 79.781 -45.505 -0.623 -0.512 -0.591
26.026 80.342 -45.761 -0.623 -0.111 -0.774
26.026 80.953 -45.674 -0.623 0.325 -0.711
25.638 81.105 -44.678 -0.901 0.434 0
25.638 80.802 -44.152 -0.901 0.217 0.376
25.638 80.194 -44.152 -0.901 -0.217 0.376
25.638 79.891 -44.678 -0.901 -0.434 -0
25.638 80.194 -45.204 -0.901 -0.217 -0.376
25.638 80.802 -45.204 -0.901 0.217 -0.376
25.499 80.498 -44.678 -1 0 0
27.16 82.745 -46.59 -0.866 0.25 -0.433
28.379 84.123 -44.914 -0.309 0.9 0.309
27.821 83.942 -45.532 -0.588 0.809 0
27.821 83.819 -44.913 -0.588 0.747 0.31
27.821 83.819 -46.151 -0.588 0.747 -0.31
27.379 83.5 -45.532 -0.809 0.588 0
27.379 83.342 -44.944 -0.809 0.509 0.294
28.818 83.404 -43.678 -0 0.568 0.823
28.218 83.154 -43.721 -0.5 0.36 0.788
29.669 80.56 -42.031 0.623 0.325 0.711
29.669 79.949 -41.944 0.623 -0.111 0.774
29.669 79.388 -42.2 0.623 -0.512 0.591
29.669 79.055 -42.719 0.623 -0.75 0.22
29.108 80.956 -41.96 0.223 0.608 0.762
29.108 80.409 -41.696 0.223 0.217 0.95
29.108 79.801 -41.696 0.223 -0.217 0.95
29.108 79.254 -41.96 0.223 -0.608 0.762
29.108 78.875 -42.435 0.223 -0.878 0.423
28.484 80.956 -41.96 -0.223 0.608 0.762
28.484 80.409 -41.696 -0.223 0.217 0.95
28.484 79.801 -41.696 -0.223 -0.217 0.95
28.484 79.254 -41.96 -0.223 -0.608 0.762
27.923 80.56 -42.031 -0.623 0.325 0.711
27.923 79.949 -41.944 -0.623 -0.111 0.774
27.923 79.388 -42.2 -0.623 -0.512 0.591
29.351 77.516 -44.715 0.623 -0.75 0.22
29.351 77.516 -45.331 0.623 -0.75 -0.22
29.351 77.849 -45.85 0.623 -0.512 -0.591
28.79 77.336 -44.431 0.223 -0.878 0.423
28.79 77.201 -45.023 0.223 -0.975 0
28.79 77.336 -45.615 0.223 -0.878 -0.423
28.79 77.715 -46.09 0.223 -0.608 -0.762
28.79 78.262 -46.354 0.223 -0.217 -0.95
28.166 77.715 -43.956 -0.223 -0.608 0.762
28.166 77.336 -44.431 -0.223 -0.878 0.423
28.166 77.201 -45.023 -0.223 -0.975 0
28.166 77.336 -45.615 -0.223 -0.878 -0.423
28.166 77.715 -46.09 -0.223 -0.608 -0.762
28.166 78.262 -46.354 -0.223 -0.217 -0.95
27.605 77.516 -44.715 -0.623 -0.75 0.22
27.605 77.516 -45.331 -0.623 -0.75 -0.22
27.605 77.849 -45.85 -0.623 -0.512 -0.591
27.605 78.41 -46.106 -0.623 -0.111 -0.774
28.955 83.912 -49.184 -0.623 0.658 -0.423
28.567 82.687 -49.118 -0.901 -0.217 -0.376
28.567 83.295 -49.118 -0.901 0.217 -0.376
29.236 84.964 -46.322 -0.5 0.866 0
30.168 84.676 -45.058 -0 0.826 0.563
30.168 84.271 -44.621 -0 0.623 0.782
33.546 81.695 -43.422 0.309 0.52 0.796
33.546 81.122 -43.17 0.309 0.233 0.922
32.928 81.902 -43.45 -0 0.623 0.782
32.928 81.386 -43.152 -0 0.365 0.931
32.928 80.804 -43.02 -0 0.075 0.997
32.928 80.21 -43.064 -0 -0.223 0.975
32.31 81.122 -43.17 -0.309 0.233 0.922
32.31 79.367 -46.413 -0.309 -0.644 -0.7
30.55 80.339 -47.893 -0 -0.971 -0.239
30.695 82.528 -50.353 0.5 -0.123 -0.857
30.095 81.778 -50.12 -0 -0.749 -0.663
30.095 82.25 -50.446 -0 -0.355 -0.935
30.095 82.821 -50.515 -0 0.121 -0.993
30.095 83.358 -50.312 -0 0.568 -0.823
29.495 81.995 -50.109 -0.5 -0.567 -0.654
29.495 82.528 -50.353 -0.5 -0.123 -0.857
29.495 83.108 -50.269 -0.5 0.36 -0.788
31.402 85.819 -48.17 -0 1 0
31.402 85.682 -48.728 -0 0.885 -0.465
30.802 85.658 -48.17 -0.5 0.866 0
30.802 85.493 -48.732 -0.5 0.729 -0.468
33.124 83.941 -44.543 0.309 0.52 0.796
32.506 84.553 -45.008 -0 0.826 0.563
32.506 84.148 -44.571 -0 0.623 0.782
35.207 82.513 -44.611 0.309 0.52 0.796
35.541 80.725 -43.8 0.309 0.233 0.922
34.161 79.296 -43.285 0.174 -0.27 0.947
34.161 78.745 -43.559 0.174 -0.593 0.786
34.161 78.331 -44.014 0.174 -0.837 0.518
33.571 78.745 -43.559 -0.174 -0.593 0.786
33.571 78.331 -44.014 -0.174 -0.837 0.518
33.571 78.108 -44.587 -0.174 -0.968 0.181
33.571 78.108 -45.203 -0.174 -0.968 -0.181
33.016 78.314 -44.589 -0.5 -0.847 0.18
33.016 78.314 -45.201 -0.5 -0.847 -0.18
35.635 83.838 -46.383 0.174 0.918 0.356
33.045 85.393 -48.068 0.623 0.782 0
33.045 84.753 -49.064 0.623 0.325 -0.711
33.045 85.219 -48.66 0.623 0.658 -0.423
32.484 85.528 -47.476 0.223 0.878 0.423
32.484 84.602 -49.399 0.223 0.217 -0.95
32.484 85.149 -49.135 0.223 0.608 -0.762
33.679 84.706 -45.973 0.5 0.866 0
33.679 84.541 -45.411 0.5 0.729 0.468
37.72 82.392 -45.71 0.588 0.31 0.747
37.162 83.274 -46.037 0.309 0.751 0.584
37.162 82.813 -45.613 0.309 0.52 0.796
37.396 80.341 -44.4 0.588 0.31 0.747
36.838 80.189 -44.051 0.309 0.233 0.922
37.967 78.349 -44.97 0.901 -0.217 0.376
37.967 78.046 -45.496 0.901 -0.434 -0
37.579 78.497 -44.413 0.623 -0.111 0.774
37.579 77.936 -44.669 0.623 -0.512 0.591
37.579 77.603 -45.188 0.623 -0.75 0.22
37.579 77.603 -45.804 0.623 -0.75 -0.22
37.018 78.349 -44.165 0.223 -0.217 0.95
37.018 77.802 -44.429 0.223 -0.608 0.762
37.018 77.423 -44.904 0.223 -0.878 0.423
37.018 77.288 -45.496 0.223 -0.975 0
37.018 77.423 -46.088 0.223 -0.878 -0.423
36.394 77.802 -44.429 -0.223 -0.608 0.762
36.394 77.423 -44.904 -0.223 -0.878 0.423
36.394 77.288 -45.496 -0.223 -0.975 0
36.394 77.423 -46.088 -0.223 -0.878 -0.423
36.838 78.434 -47.294 0.309 -0.644 -0.7
36.22 78.256 -47.255 -0 -0.733 -0.68
36.22 78.722 -47.627 -0 -0.5 -0.866
35.602 78.049 -46.8 -0.309 -0.836 -0.453
35.602 78.434 -47.294 -0.309 -0.644 -0.7
35.602 78.958 -47.637 -0.309 -0.382 -0.871
36.544 80.773 -48.937 -0 -0.5 -0.866
35.926 81.009 -48.947 -0.309 -0.382 -0.871
37.802 84.08 -48.862 0.5 0.729 -0.468
37.202 84.406 -48.3 -0 1 0
37.202 83.888 -49.288 -0 0.568 -0.823
37.202 84.269 -48.858 -0 0.885 -0.465
36.602 83.638 -49.245 -0.5 0.36 -0.788
36.602 84.08 -48.862 -0.5 0.729 -0.468
38.724 83.541 -47.959 0.766 0.643 0
38.724 83.367 -47.368 0.766 0.541 0.348
38.724 82.902 -46.965 0.766 0.267 0.585
38.272 83.793 -47.36 0.5 0.791 0.352
38.272 83.433 -46.865 0.5 0.579 0.644
38.272 82.903 -49.359 0.5 0.268 -0.824
37.717 81.439 -49.295 0.174 -0.593 -0.786
37.717 81.99 -49.569 0.174 -0.27 -0.947
37.717 82.602 -49.626 0.174 0.091 -0.981
37.127 81.99 -49.569 -0.174 -0.27 -0.947
37.127 82.602 -49.626 -0.174 0.091 -0.981
38.278 81.024 -45.705 0.766 0.267 0.585
38.815 80.022 -46.375 0.866 -0.25 0.433
38.815 79.722 -46.895 0.866 -0.5 -0
38.376 79.641 -47.68 0.5 -0.567 -0.654
37.271 79.561 -48.035 0.174 -0.593 -0.786
39.405 82.123 -48.102 1 0 0
39.244 81.823 -48.622 0.866 -0.25 -0.433
39.244 82.423 -48.622 0.866 0.25 -0.433
38.805 81.442 -48.887 0.5 -0.567 -0.654
3 0 4 246
3 246 4 247
3 246 247 1
3 1 247 3
3 4 249 248
3 248 249 250
3 248 250 5
3 5 250 251
3 249 7 250
3 250 7 252
3 250 252 251
3 251 252 6
3 7 254 253
3 253 254 255
3 253 255 8
3 8 255 256
3 254 257 255
3 255 257 258
3 255 258 256
3 256 258 259
3 257 10 258
3 258 10 260
3 258 260 259
3 259 260 9
3 10 13 261
3 261 13 262
3 261 262 11
3 11 262 12
3 13 264 263
3 263 264 265
3 263 265 14
3 14 265 266
3 264 16 265
3 265 16 267
3 265 267 266
3 266 267 15
3 16 268 17
3 17 268 269
3 268 19 269
3 269 19 18
3 19 271 270
3 270 271 272
3 270 272 20
3 20 272 273
3 271 22 272
3 272 22 274
3 272 274 273
3 273 274 21
3 22 0 23
3 23 0 2
3 23 25 21
3 21 25 24
3 25 28 26
3 26 28 27
3 28 2 275
3 275 2 276
3 275 276 29
3 29 276 1
3 29 31 27
3 27 31 30
3 31 34 277
3 277 34 278
3 277 278 32
3 32 278 33
3 34 37 279
3 279 37 280
3 279 280 35
3 35 280 36
3 37 3 38
3 38 3 5
3 38 40 281
3 281 40 282
3 281 282 36
3 36 282 39
3 40 283 41
3 41 283 284
3 283 6 284
3 284 6 8
3 41 43 285
3 285 43 286
3 285 286 39
3 39 286 42
3 43 46 44
3 44 46 45
3 46 49 47
3 47 49 48
3 49 287 50
3 50 287 288
3 287 289 288
3 288 289 290
3 289 52 290
3 290 52 51
3 52 55 53
3 53 55 54
3 55 58 291
3 291 58 293
3 291 293 292
3 292 293 294
3 292 294 56
3 56 294 57
3 58 61 295
3 295 61 296
3 295 296 59
3 59 296 60
3 61 297 62
3 62 297 298
3 297 299 298
3 298 299 300
3 299 301 300
3 300 301 302
3 301 9 302
3 302 9 11
3 62 304 303
3 303 304 305
3 303 305 60
3 60 305 306
3 304 12 305
3 305 12 307
3 305 307 306
3 306 307 14
3 59 311 308
3 308 311 312
3 308 312 309
3 309 312 313
3 309 313 310
3 310 313 314
3 310 314 57
3 57 314 315
3 311 316 312
3 312 316 317
3 312 317 313
3 313 317 318
3 313 318 314
3 314 318 319
3 314 319 315
3 315 319 320
3 316 64 317
3 317 64 321
3 317 321 318
3 318 321 322
3 318 322 319
3 319 322 323
3 319 323 320
3 320 323 63
3 64 67 65
3 65 67 66
3 67 325 324
3 324 325 326
3 324 326 68
3 68 326 327
3 325 70 326
3 326 70 328
3 326 328 327
3 327 328 69
3 70 329 71
3 71 329 330
3 329 15 330
3 330 15 17
3 71 331 69
3 69 331 332
3 331 18 332
3 332 18 20
3 68 73 66
3 66 73 72
3 73 336 333
3 333 336 337
3 333 337 334
3 334 337 338
3 334 338 335
3 335 338 339
3 335 339 74
3 74 339 340
3 336 76 337
3 337 76 341
3 337 341 338
3 338 341 342
3 338 342 339
3 339 342 343
3 339 343 340
3 340 343 75
3 76 79 344
3 344 79 347
3 344 347 345
3 345 347 348
3 345 348 346
3 346 348 349
3 346 349 77
3 77 349 78
3 79 24 350
3 350 24 351
3 350 351 80
3 80 351 26
3 80 82 352
3 352 82 353
3 352 353 78
3 78 353 81
3 82 30 354
3 354 30 355
3 354 355 83
3 83 355 32
3 83 356 81
3 81 356 357
3 356 85 357
3 357 85 84
3 85 88 358
3 358 88 359
3 358 359 86
3 86 359 87
3 88 360 89
3 89 360 361
3 360 91 361
3 361 91 90
3 91 362 92
3 92 362 363
3 362 364 363
3 363 364 365
3 364 94 365
3 365 94 93
3 94 33 95
3 95 33 35
3 95 366 93
3 93 366 367
3 366 368 367
3 367 368 369
3 368 370 369
3 369 370 371
3 370 97 371
3 371 97 96
3 97 373 372
3 372 373 374
3 372 374 98
3 98 374 375
3 373 100 374
3 374 100 376
3 374 376 375
3 375 376 99
3 100 103 377
3 377 103 378
3 377 378 101
3 101 378 102
3 103 42 379
3 379 42 380
3 379 380 104
3 104 380 44
3 104 45 102
3 102 45 47
3 101 382 381
3 381 382 383
3 381 383 99
3 99 383 384
3 382 106 383
3 383 106 385
3 383 385 384
3 384 385 105
3 106 386 107
3 107 386 387
3 386 48 387
3 387 48 50
3 107 109 388
3 388 109 389
3 388 389 105
3 105 389 108
3 109 390 110
3 110 390 391
3 390 112 391
3 391 112 111
3 112 51 113
3 113 51 53
3 113 392 111
3 111 392 393
3 392 115 393
3 393 115 114
3 115 54 394
3 394 54 395
3 394 395 116
3 116 395 56
3 116 396 114
3 114 396 397
3 396 118 397
3 397 118 117
3 118 121 119
3 119 121 120
3 121 124 122
3 122 124 123
3 124 398 125
3 125 398 399
3 398 400 399
3 399 400 401
3 400 402 401
3 401 402 403
3 402 404 403
3 403 404 405
3 404 406 405
3 405 406 407
3 406 408 407
3 407 408 409
3 408 410 409
3 409 410 411
3 410 412 411
3 411 412 413
3 412 127 413
3 413 127 126
3 127 130 128
3 128 130 129
3 130 133 131
3 131 133 132
3 133 87 414
3 414 87 415
3 414 415 134
3 134 415 89
3 134 136 416
3 416 136 417
3 416 417 132
3 132 417 135
3 136 418 137
3 137 418 419
3 418 420 419
3 419 420 421
3 420 139 421
3 421 139 138
3 139 142 422
3 422 142 423
3 422 423 140
3 140 423 141
3 142 424 143
3 143 424 425
3 424 426 425
3 425 426 427
3 426 145 427
3 427 145 144
3 145 429 428
3 428 429 430
3 428 430 146
3 146 430 431
3 429 90 430
3 430 90 432
3 430 432 431
3 431 432 92
3 146 148 433
3 433 148 434
3 433 434 144
3 144 434 147
3 148 96 435
3 435 96 436
3 435 436 149
3 149 436 98
3 149 437 147
3 147 437 438
3 437 439 438
3 438 439 440
3 439 441 440
3 440 441 442
3 441 443 442
3 442 443 444
3 443 151 444
3 444 151 150
3 151 108 445
3 445 108 446
3 445 446 152
3 152 446 110
3 152 154 150
3 150 154 153
3 154 447 155
3 155 447 448
3 447 157 448
3 448 157 156
3 157 117 158
3 158 117 119
3 158 160 449
3 449 160 450
3 449 450 156
3 156 450 159
3 160 163 161
3 161 163 162
3 163 166 164
3 164 166 165
3 166 451 167
3 167 451 452
3 451 120 452
3 452 120 122
3 167 169 453
3 453 169 454
3 453 454 165
3 165 454 168
3 169 455 170
3 170 455 456
3 455 457 456
3 456 457 458
3 457 172 458
3 458 172 171
3 172 459 173
3 173 459 460
3 459 123 460
3 460 123 125
3 173 175 461
3 461 175 462
3 461 462 171
3 171 462 174
3 175 464 463
3 463 464 465
3 463 465 176
3 176 465 466
3 464 178 465
3 465 178 467
3 465 467 466
3 466 467 177
3 178 181 468
3 468 181 469
3 468 469 179
3 179 469 180
3 181 470 182
3 182 470 471
3 470 126 471
3 471 126 128
3 182 472 180
3 180 472 473
3 472 474 473
3 473 474 475
3 474 184 475
3 475 184 183
3 184 476 185
3 185 476 477
3 476 129 477
3 477 129 131
3 185 187 183
3 183 187 186
3 187 190 188
3 188 190 189
3 190 135 478
3 478 135 479
3 478 479 191
3 191 479 137
3 191 193 480
3 480 193 482
3 480 482 481
3 481 482 483
3 481 483 189
3 189 483 192
3 193 138 484
3 484 138 485
3 484 485 194
3 194 485 140
3 194 196 192
3 192 196 195
3 196 487 486
3 486 487 488
3 486 488 197
3 197 488 489
3 487 490 488
3 488 490 491
3 488 491 489
3 489 491 492
3 490 199 491
3 491 199 493
3 491 493 492
3 492 493 198
3 199 494 200
3 200 494 495
3 494 162 495
3 495 162 164
3 200 202 198
3 198 202 201
3 202 496 203
3 203 496 497
3 496 498 497
3 497 498 499
3 498 500 499
3 499 500 501
3 500 205 501
3 501 205 204
3 205 502 206
3 206 502 503
3 502 208 503
3 503 208 207
3 208 168 209
3 209 168 170
3 209 504 207
3 207 504 505
3 504 211 505
3 505 211 210
3 211 214 212
3 212 214 213
3 214 506 215
3 215 506 507
3 506 508 507
3 507 508 509
3 508 510 509
3 509 510 511
3 510 174 511
3 511 174 176
3 215 217 512
3 512 217 513
3 512 513 213
3 213 513 216
3 217 514 218
3 218 514 515
3 514 516 515
3 515 516 517
3 516 518 517
3 517 518 519
3 518 177 519
3 519 177 179
3 218 220 216
3 216 220 219
3 220 520 221
3 221 520 521
3 520 223 521
3 521 223 222
3 223 186 224
3 224 186 188
3 224 522 222
3 222 522 523
3 522 226 523
3 523 226 225
3 226 524 227
3 227 524 525
3 524 526 525
3 525 526 527
3 526 528 527
3 527 528 529
3 528 229 529
3 529 229 228
3 229 195 230
3 230 195 197
3 230 530 228
3 228 530 531
3 530 532 531
3 531 532 533
3 532 534 533
3 533 534 535
3 534 536 535
3 535 536 537
3 536 538 537
3 537 538 539
3 538 201 539
3 539 201 203
3 227 232 225
3 225 232 231
3 232 235 540
3 540 235 541
3 540 541 233
3 233 541 234
3 235 543 542
3 542 543 544
3 542 544 236
3 236 544 545
3 543 546 544
3 544 546 547
3 544 547 545
3 545 547 548
3 546 549 547
3 547 549 550
3 547 550 548
3 548 550 551
3 549 552 550
3 550 552 553
3 550 553 551
3 551 553 554
3 552 555 553
3 553 555 556
3 553 556 554
3 554 556 557
3 555 238 556
3 556 238 558
3 556 558 557
3 557 558 237
3 238 241 559
3 559 241 560
3 559 560 239
3 239 560 240
3 241 204 242
3 242 204 206
3 242 210 240
3 240 210 212
3 239 562 561
3 561 562 563
3 561 563 237
3 237 563 564
3 562 565 563
3 563 565 566
3 563 566 564
3 564 566 567
3 565 234 566
3 566 234 568
3 566 568 567
3 567 568 236
3 233 219 231
3 231 219 221
3 161 570 569
3 569 570 571
3 569 571 159
3 159 571 572
3 570 244 571
3 571 244 573
3 571 573 572
3 572 573 243
3 244 141 574
3 574 141 576
3 574 576 575
3 575 576 577
3 575 577 245
3 245 577 143
3 245 153 578
3 578 153 579
3 578 579 243
3 243 579 155
3 86 75 580
3 580 75 582
3 580 582 581
3 581 582 583
3 581 583 84
3 84 583 77
3 74 63 584
3 584 63 586
3 584 586 585
3 585 586 587
3 585 587 72
3 72 587 65
3 2 0 246
3 2 246 276
3 276 246 1
3 5 3 248
3 248 3 247
3 248 247 4
3 8 6 252
3 8 252 253
3 253 252 7
3 11 9 261
3 261 9 260
3 261 260 10
3 307 12 262
3 307 262 588
3 307 588 263
3 307 263 14
3 263 588 13
3 13 588 262
3 17 15 267
3 17 267 16
3 20 18 270
3 270 18 19
3 23 21 274
3 23 274 22
3 351 24 25
3 351 25 26
3 29 27 275
3 275 27 28
3 355 30 31
3 355 31 277
3 355 277 32
3 35 33 279
3 279 33 278
3 279 278 34
3 281 36 280
3 281 280 37
3 281 37 38
3 285 39 282
3 285 282 41
3 41 282 40
3 380 42 286
3 380 286 44
3 44 286 43
3 47 45 46
3 50 48 49
3 53 51 52
3 395 54 292
3 395 292 56
3 292 54 291
3 291 54 55
3 310 57 294
3 310 294 309
3 309 294 589
3 309 589 308
3 308 589 295
3 308 295 59
3 295 589 58
3 58 589 293
3 293 589 294
3 303 60 296
3 303 296 61
3 303 61 62
3 586 63 323
3 586 323 322
3 586 322 587
3 587 322 321
3 587 321 65
3 65 321 64
3 68 66 324
3 324 66 67
3 71 69 328
3 71 328 70
3 585 72 333
3 585 333 334
3 585 334 584
3 584 334 335
3 584 335 74
3 333 72 73
3 590 591 592
3 592 591 593
3 582 75 343
3 582 343 591
3 582 591 590
3 582 590 583
3 583 590 346
3 583 346 77
3 346 590 592
3 346 592 345
3 345 592 593
3 345 593 344
3 344 593 341
3 344 341 76
3 341 593 342
3 342 593 591
3 342 591 343
3 352 78 349
3 352 349 348
3 352 348 80
3 80 348 347
3 80 347 350
3 350 347 79
3 83 81 353
3 83 353 354
3 354 353 82
3 581 84 85
3 581 85 358
3 581 358 580
3 580 358 86
3 415 87 359
3 415 359 89
3 89 359 88
3 432 90 91
3 432 91 92
3 95 93 94
3 436 96 97
3 436 97 372
3 436 372 98
3 381 99 376
3 381 376 377
3 381 377 101
3 377 376 100
3 104 102 378
3 104 378 379
3 379 378 103
3 388 105 385
3 388 385 107
3 107 385 106
3 446 108 389
3 446 389 109
3 446 109 110
3 113 111 112
3 116 114 394
3 394 114 115
3 119 117 118
3 122 120 121
3 125 123 124
3 128 126 127
3 131 129 130
3 416 132 414
3 416 414 134
3 414 132 133
3 479 135 417
3 479 417 136
3 479 136 137
3 485 138 422
3 485 422 140
3 422 138 139
3 576 141 423
3 576 423 577
3 577 423 142
3 577 142 143
3 433 144 145
3 433 145 428
3 433 428 146
3 149 147 434
3 149 434 435
3 435 434 148
3 152 150 445
3 445 150 151
3 579 153 154
3 579 154 155
3 449 156 157
3 449 157 158
3 569 159 450
3 569 450 160
3 569 160 161
3 164 162 163
3 453 165 166
3 453 166 167
3 170 168 454
3 170 454 169
3 461 171 172
3 461 172 173
3 176 174 463
3 463 174 462
3 463 462 175
3 179 177 467
3 179 467 468
3 468 467 178
3 182 180 469
3 182 469 181
3 185 183 184
3 188 186 187
3 481 189 190
3 481 190 478
3 481 478 480
3 480 478 191
3 194 192 483
3 194 483 484
3 484 483 482
3 484 482 193
3 197 195 486
3 486 195 196
3 200 198 493
3 200 493 199
3 203 201 202
3 206 204 205
3 209 207 208
3 212 210 211
3 512 213 214
3 512 214 215
3 218 216 513
3 218 513 217
3 221 219 220
3 224 222 223
3 227 225 226
3 230 228 229
3 233 231 540
3 540 231 232
3 568 234 541
3 568 541 542
3 568 542 236
3 542 541 235
3 561 237 558
3 561 558 559
3 561 559 239
3 559 558 238
3 242 240 560
3 242 560 241
3 578 243 575
3 578 575 245
3 575 243 573
3 575 573 574
3 574 573 244
3 594 601 602
3 596 595 604
3 596 604 605
3 597 596 605
3 598 597 605
3 598 605 606
3 599 598 606
3 600 599 606
3 600 606 607
3 602 601 608
3 602 608 609
3 603 602 609
3 605 604 610
3 606 605 610
3 607 606 610
3 608 607 610
3 609 608 610
3 604 609 610
3 609 604 7
3 609 7 603
3 603 7 249
3 603 249 4
3 603 4 602
3 602 4 594
3 594 4 0
3 594 0 22
3 594 22 601
3 601 22 271
3 601 271 607
3 601 607 608
3 607 271 600
3 600 271 19
3 600 19 268
3 600 268 599
3 599 268 16
3 599 16 598
3 598 16 264
3 598 264 597
3 597 264 10
3 597 10 596
3 596 10 257
3 596 257 254
3 596 254 595
3 595 254 7
3 595 7 604
3 10 264 13
3 3 37 34
3 3 34 1
3 1 34 29
3 29 34 31
3 283 40 611
3 283 611 6
3 6 611 251
3 251 611 38
3 251 38 5
3 38 611 40
3 58 55 61
3 612 613 614
3 614 613 616
3 614 616 617
3 613 615 616
3 616 615 284
3 616 284 8
3 616 8 256
3 616 256 617
3 617 256 259
3 617 259 301
3 617 301 614
3 614 301 299
3 614 299 612
3 612 299 287
3 612 287 49
3 612 49 613
3 613 49 46
3 613 46 615
3 615 46 43
3 615 43 41
3 615 41 284
3 287 299 289
3 289 299 297
3 289 297 52
3 52 297 61
3 52 61 55
3 301 259 9
3 304 62 618
3 304 618 619
3 304 619 12
3 12 619 11
3 11 619 302
3 302 619 300
3 300 619 618
3 300 618 298
3 298 618 62
3 67 64 325
3 620 624 625
3 621 620 625
3 621 625 626
3 622 621 626
3 622 626 627
3 622 627 628
3 623 622 628
3 624 629 630
3 625 624 630
3 625 630 631
3 626 625 631
3 626 631 632
3 627 626 632
3 630 629 633
3 630 633 634
3 631 630 634
3 631 634 635
3 632 631 635
3 632 635 70
3 632 70 628
3 632 628 627
3 628 70 325
3 628 325 623
3 623 325 64
3 623 64 316
3 623 316 622
3 622 316 621
3 621 316 311
3 621 311 620
3 620 311 59
3 620 59 60
3 620 60 624
3 624 60 306
3 624 306 629
3 629 306 14
3 629 14 633
3 633 14 266
3 633 266 15
3 633 15 634
3 634 15 635
3 635 15 329
3 635 329 70
3 331 71 330
3 331 330 269
3 331 269 18
3 269 330 17
3 73 68 336
3 636 639 640
3 637 636 640
3 637 640 641
3 638 637 641
3 638 641 642
3 638 642 643
3 639 645 646
3 640 639 646
3 640 646 647
3 641 640 647
3 641 647 648
3 642 641 648
3 642 648 649
3 643 642 649
3 646 645 650
3 646 650 651
3 647 646 651
3 647 651 652
3 648 647 652
3 649 648 652
3 649 652 653
3 649 653 21
3 649 21 24
3 649 24 79
3 649 79 643
3 643 79 76
3 643 76 638
3 638 76 336
3 638 336 637
3 637 336 636
3 636 336 68
3 636 68 327
3 636 327 639
3 639 327 644
3 639 644 645
3 645 644 650
3 650 644 332
3 650 332 20
3 650 20 651
3 651 20 273
3 651 273 652
3 652 273 653
3 653 273 21
3 332 644 69
3 69 644 327
3 2 28 23
3 23 28 25
3 27 30 26
3 26 30 82
3 26 82 80
3 33 94 32
3 32 94 83
3 83 94 364
3 83 364 356
3 356 364 362
3 356 362 360
3 356 360 85
3 85 360 88
3 360 362 91
3 36 39 656
3 36 656 655
3 36 655 35
3 35 655 366
3 35 366 95
3 366 655 368
3 368 655 656
3 368 656 654
3 368 654 370
3 370 654 373
3 370 373 97
3 373 654 100
3 100 654 103
3 103 654 42
3 42 654 39
3 39 654 656
3 45 104 44
3 386 106 382
3 386 382 657
3 386 657 48
3 48 657 47
3 47 657 102
3 102 657 101
3 101 657 382
3 51 112 659
3 51 659 290
3 290 659 658
3 290 658 288
3 288 658 387
3 288 387 50
3 387 658 390
3 387 390 107
3 107 390 109
3 390 658 112
3 112 658 659
3 54 115 53
3 53 115 392
3 53 392 113
3 56 57 116
3 63 74 320
3 660 662 663
3 661 660 663
3 661 663 664
3 664 663 666
3 664 666 315
3 664 315 665
3 664 665 400
3 664 400 398
3 664 398 661
3 661 398 124
3 661 124 660
3 660 124 121
3 660 121 118
3 660 118 396
3 660 396 662
3 662 396 116
3 662 116 666
3 662 666 663
3 666 116 57
3 666 57 315
3 400 665 402
3 402 665 320
3 402 320 404
3 404 320 74
3 404 74 406
3 406 74 408
3 408 74 340
3 408 340 410
3 410 340 412
3 412 340 75
3 412 75 667
3 412 667 127
3 127 667 130
3 130 667 86
3 130 86 87
3 130 87 133
3 86 667 75
3 320 665 315
3 65 66 72
3 78 81 357
3 78 357 668
3 78 668 77
3 77 668 84
3 84 668 357
3 429 145 426
3 429 426 420
3 429 420 90
3 90 420 418
3 90 418 361
3 361 418 136
3 361 136 134
3 361 134 89
3 420 426 424
3 420 424 139
3 139 424 142
3 669 671 672
3 671 670 674
3 671 674 675
3 672 671 675
3 672 675 676
3 673 672 676
3 673 676 371
3 673 371 96
3 673 96 148
3 673 148 146
3 673 146 672
3 672 146 669
3 669 146 431
3 669 431 92
3 669 92 670
3 669 670 671
3 670 92 363
3 670 363 365
3 670 365 674
3 674 365 93
3 674 93 367
3 674 367 675
3 675 367 369
3 675 369 676
3 676 369 371
3 108 151 105
3 679 678 680
3 677 678 679
3 679 680 99
3 679 99 384
3 679 384 105
3 679 105 677
3 677 105 443
3 677 443 441
3 677 441 678
3 678 441 439
3 678 439 437
3 678 437 680
3 680 437 98
3 680 98 375
3 680 375 99
3 98 437 149
3 443 105 151
3 393 114 397
3 393 397 681
3 393 681 683
3 393 683 111
3 111 683 682
3 111 682 391
3 391 682 154
3 391 154 152
3 391 152 110
3 154 682 447
3 447 682 683
3 447 683 681
3 447 681 157
3 157 681 117
3 117 681 397
3 451 166 684
3 451 684 120
3 120 684 119
3 119 684 158
3 158 684 163
3 158 163 160
3 163 684 166
3 459 172 457
3 459 457 685
3 459 685 123
3 123 685 122
3 122 685 452
3 452 685 455
3 452 455 169
3 452 169 167
3 455 685 457
3 687 686 689
3 687 689 690
3 688 687 690
3 691 690 693
3 691 693 694
3 692 691 694
3 692 694 413
3 692 413 470
3 692 470 181
3 692 181 178
3 692 178 691
3 691 178 464
3 691 464 688
3 691 688 690
3 688 464 175
3 688 175 687
3 687 175 686
3 686 175 173
3 686 173 460
3 686 460 399
3 686 399 401
3 686 401 403
3 686 403 689
3 689 403 405
3 689 405 690
3 690 405 407
3 690 407 693
3 693 407 409
3 693 409 694
3 694 409 411
3 694 411 413
3 399 460 125
3 470 413 126
3 476 184 474
3 476 474 129
3 129 474 128
3 128 474 472
3 128 472 471
3 471 472 182
3 187 185 190
3 132 135 131
3 131 135 477
3 477 135 190
3 477 190 185
3 138 193 421
3 421 193 191
3 421 191 419
3 419 191 137
3 141 244 487
3 141 487 196
3 141 196 140
3 140 196 194
3 487 244 490
3 490 244 199
3 199 244 570
3 199 570 695
3 199 695 494
3 494 695 161
3 494 161 162
3 161 695 570
3 697 700 701
3 698 697 701
3 698 701 440
3 698 440 442
3 698 442 696
3 698 696 245
3 698 245 143
3 698 143 697
3 697 143 425
3 697 425 700
3 700 425 427
3 700 427 144
3 700 144 147
3 700 147 438
3 700 438 701
3 701 438 440
3 245 696 153
3 153 696 699
3 153 699 150
3 150 699 444
3 444 699 442
3 442 699 696
3 156 159 703
3 156 703 448
3 448 703 155
3 155 703 702
3 155 702 243
3 243 702 572
3 572 702 703
3 572 703 159
3 202 200 496
3 165 168 706
3 165 706 164
3 164 706 705
3 164 705 495
3 495 705 496
3 495 496 200
3 496 705 498
3 498 705 706
3 498 706 704
3 498 704 500
3 500 704 502
3 500 502 205
3 502 704 208
3 208 704 706
3 208 706 168
3 171 174 510
3 171 510 458
3 458 510 708
3 458 708 456
3 456 708 707
3 456 707 209
3 456 209 170
3 209 707 504
3 504 707 506
3 504 506 211
3 211 506 214
3 506 707 508
3 508 707 708
3 508 708 510
3 709 711 712
3 709 712 713
3 710 709 713
3 710 713 714
3 712 711 715
3 712 715 716
3 712 716 717
3 713 712 717
3 713 717 718
3 714 713 718
3 714 718 719
3 716 715 720
3 716 720 721
3 717 716 721
3 717 721 722
3 718 717 722
3 718 722 723
3 719 718 723
3 719 723 516
3 719 516 514
3 719 514 714
3 714 514 217
3 714 217 710
3 710 217 215
3 710 215 709
3 709 215 507
3 709 507 711
3 711 507 509
3 711 509 715
3 715 509 511
3 715 511 176
3 715 176 720
3 720 176 466
3 720 466 721
3 721 466 177
3 721 177 722
3 722 177 518
3 722 518 723
3 723 518 516
3 183 186 475
3 724 725 726
3 725 727 728
3 726 725 728
3 726 728 729
3 726 729 223
3 726 223 520
3 726 520 724
3 724 520 220
3 724 220 515
3 724 515 517
3 724 517 725
3 725 517 727
3 727 517 519
3 727 519 180
3 727 180 473
3 727 473 728
3 728 473 475
3 728 475 729
3 729 475 186
3 729 186 223
3 180 519 179
3 515 220 218
3 195 229 192
3 189 192 731
3 189 731 188
3 188 731 224
3 224 731 730
3 224 730 522
3 522 730 524
3 522 524 226
3 524 730 526
3 526 730 731
3 526 731 528
3 528 731 192
3 528 192 229
3 230 197 530
3 198 201 492
3 732 734 735
3 734 736 737
3 735 734 737
3 735 737 733
3 735 733 732
3 732 733 536
3 732 536 534
3 732 534 734
3 734 534 532
3 734 532 530
3 734 530 736
3 736 530 197
3 736 197 489
3 736 489 737
3 737 489 492
3 737 492 733
3 733 492 201
3 733 201 538
3 733 538 536
3 739 738 741
3 739 741 742
3 740 739 742
3 745 744 747
3 745 747 748
3 746 745 748
3 746 748 533
3 746 533 743
3 746 743 546
3 746 546 745
3 745 546 543
3 745 543 744
3 744 543 235
3 744 235 227
3 744 227 525
3 744 525 747
3 747 525 527
3 747 527 529
3 747 529 748
3 748 529 531
3 748 531 533
3 531 529 228
3 227 235 232
3 546 743 549
3 549 743 535
3 549 535 738
3 549 738 552
3 552 738 739
3 552 739 555
3 555 739 740
3 555 740 204
3 555 204 238
3 238 204 241
3 204 740 501
3 501 740 742
3 501 742 499
3 499 742 497
3 497 742 741
3 497 741 539
3 497 539 203
3 539 741 537
3 537 741 738
3 537 738 535
3 535 743 533
3 505 210 749
3 505 749 503
3 505 503 207
3 503 749 206
3 206 749 242
3 242 749 210
3 239 240 562
3 233 234 219
3 213 216 751
3 213 751 750
3 213 750 212
3 212 750 240
3 240 750 562
3 562 750 751
3 562 751 565
3 565 751 752
3 565 752 234
3 234 752 219
3 219 752 216
3 216 752 751
3 523 225 753
3 523 753 521
3 523 521 222
3 521 753 221
3 221 753 231
3 231 753 225
3 754 755 756
3 754 756 554
3 754 554 557
3 754 557 237
3 754 237 564
3 754 564 755
3 755 564 567
3 755 567 757
3 755 757 548
3 755 548 756
3 756 548 551
3 756 551 554
3 548 757 545
3 545 757 236
3 236 757 567
