ply
format ascii 1.0
comment Generated by PyMesh
element vertex 1137
property float x
property float y
property float z
property float nx
property float ny
property float nz
element face 2270
property list uchar int vertex_indices
end_header
14.815 47.109 86.72 -0.387 -0.073 -0.919
15.352 46.763 84.369 -0.745 0.158 0.648
15.183 46.875 86.496 -0.632 0.084 -0.77
15.626 47.382 84.356 -0.609 0.468 0.641
15.046 47.632 86.709 -0.222 0.301 -0.927
15.868 48.806 84.688 -0.77 -0.481 0.42
15.801 49.194 84.894 -0.803 -0.287 0.523
14.99 47.96 86.883 -0.262 0.535 -0.803
15.749 48.923 86.626 -0.768 -0.106 -0.632
15.509 49.353 87.392 -0.968 0.253 0.006
14.729 48.428 87.714 -0.448 0.869 -0.209
15.012 49.364 88.498 -0.636 0.246 -0.732
15.083 48.276 89.953 -0.576 -0.661 0.481
14.807 47.246 89.294 -0.392 0.025 0.92
15.174 47.037 89.544 -0.637 0.165 0.753
14.736 46.046 88.834 -0.856 -0.33 0.399
14.437 46.41 88.695 -0.656 -0.572 0.491
14.752 45.202 88.769 -0.866 0.233 0.442
14.729 45.09 87.704 -0.885 0.14 -0.445
14.413 46.288 87.539 -0.674 -0.659 -0.334
14.707 45.903 87.466 -0.87 -0.402 -0.286
15.045 44.928 87.298 -0.622 0.005 -0.783
15.113 45.695 86.943 -0.667 -0.506 -0.547
15.246 45.133 87.086 -0.755 -0.132 -0.642
15.37 45.127 86.956 -0.682 -0.135 -0.718
15.247 45.689 86.803 -0.6 -0.509 -0.617
15.432 45.031 84.849 -0.724 -0.071 0.686
15.35 45.87 84.558 -0.765 0.349 0.541
15.164 46.528 86.513 -0.641 -0.09 -0.762
15.334 46.416 84.386 -0.755 -0.015 0.656
18.234 45.148 82.005 0.677 -0.012 -0.736
18.218 45.695 81.832 0.688 -0.376 -0.621
18.731 44.938 82.295 0.346 0.128 -0.929
18.751 44.959 82.306 0.356 0.138 -0.924
18.239 45.715 81.843 0.698 -0.366 -0.616
19.174 45.924 82.209 0.074 -0.505 -0.86
19.169 46.155 82.093 0.071 -0.39 -0.918
18.233 45.946 81.726 0.695 -0.25 -0.674
20.222 46.712 80.489 -0.631 -0.761 0.151
19.803 47.286 80.124 -0.93 -0.351 -0.11
17.738 46.625 81.294 0.447 0.089 -0.89
18.107 47.601 81.163 0.201 -0.562 -0.802
16.807 48.085 81.099 -0.449 -0.32 -0.834
16.438 47.108 81.231 -0.203 0.331 -0.922
16.577 48.213 81.146 -0.295 -0.405 -0.865
16.139 48.317 81.367 -0.66 -0.318 -0.681
15.875 47.243 81.515 -0.484 0.398 -0.779
15.667 47.232 81.616 -0.345 0.405 -0.847
15.251 47.611 82.59 -0.692 0.721 -0.035
15.34 47.73 82.768 -0.752 0.642 -0.153
15.709 48.707 82.637 -0.998 -0.009 -0.066
15.706 48.734 82.828 -1 0.004 0.03
15.337 47.757 82.959 -0.753 0.655 -0.057
15.578 49.181 83.292 -0.914 -0.294 -0.279
15.706 48.784 82.78 -1 0.029 0.006
15.578 49.231 83.243 -0.914 -0.269 -0.303
15.338 49.766 83.09 -0.754 -0.625 -0.2
15.554 50.78 84.481 -0.6 0.099 0.794
15.834 50.432 84.891 -0.786 0.332 0.521
15.667 51.187 84.596 -0.675 -0.172 0.718
16.1 51.454 84.873 -0.314 0.051 0.948
16.391 50.775 85.246 -0.508 0.504 0.699
17.001 51.204 86.804 -0.915 0.218 -0.34
16.973 51.126 86.837 -0.929 0.179 -0.324
16.362 50.697 85.279 -0.522 0.465 0.715
16.412 50.316 86.979 -0.555 0.719 -0.418
16.238 50.141 86.944 -0.642 0.631 -0.435
16.189 50.522 85.245 -0.609 0.377 0.698
16.05 49.956 86.898 -0.516 0.755 -0.405
16.073 50.146 87.272 -0.724 0.634 -0.271
15.922 49.96 87.154 -0.623 0.758 -0.192
15.789 51.347 88.108 -0.535 -0.167 -0.828
15.547 51.11 88.419 -0.737 -0.364 -0.569
15.679 49.722 87.465 -0.826 0.56 0.067
15.182 49.733 88.571 -0.494 0.553 -0.671
15.295 51.228 88.886 -0.947 -0.266 -0.18
14.93 49.851 89.038 -0.704 0.652 -0.282
15.114 50.216 89.196 -0.827 0.409 -0.387
16.081 48.524 90.557 -0.136 -0.799 0.585
15.821 48.294 90.291 0.038 -0.646 0.762
16.122 47.06 89.978 -0.163 0.177 0.971
16.22 48.522 90.574 -0.036 -0.801 0.598
16.286 47.058 89.999 -0.08 0.175 0.981
16.767 48.282 90.489 -0.401 -0.641 0.655
17.649 47.974 90.392 0.04 -0.794 0.606
17.168 46.75 89.902 0.36 0.022 0.933
18.192 46.763 89.881 -0.322 0.013 0.947
18.194 46.514 89.869 -0.321 -0.111 0.941
17.17 46.502 89.89 0.362 -0.103 0.927
17.703 45.613 89.973 0.007 0.49 0.872
17.006 45.2 90.021 -0.341 0.284 0.896
16.474 46.089 89.939 0.014 -0.309 0.951
16.511 45.5 89.871 -0.011 0.084 0.996
15.292 45.37 89.343 -0.728 0.008 0.686
15.163 45.95 89.371 -0.642 -0.379 0.667
15.084 45.126 89.186 -0.589 0.17 0.79
15.858 44.422 89.427 -0.395 -0.55 0.736
15.557 44.333 89.257 -0.195 -0.491 0.849
16.304 44.041 89.544 -0.693 -0.296 0.658
16.228 43.557 89.07 -0.731 -0.538 0.42
15.498 43.957 88.888 -0.244 -0.804 0.542
16.416 43.094 89.005 -0.856 -0.229 0.464
16.392 42.973 87.835 -0.873 -0.315 -0.372
15.476 43.846 87.811 -0.263 -0.897 -0.356
16.199 43.415 87.685 -0.745 -0.609 -0.272
16.253 43.787 87.123 -0.718 -0.423 -0.553
15.518 44.135 87.374 -0.228 -0.656 -0.72
15.811 44.186 87.177 -0.423 -0.689 -0.588
16.329 43.895 86.962 -0.68 -0.369 -0.633
15.881 44.287 87.027 -0.382 -0.63 -0.677
15.982 44.126 84.925 -0.449 -0.523 0.725
16.413 43.795 86.936 -0.638 -0.419 -0.646
16.067 44.026 84.899 -0.407 -0.573 0.712
16.563 43.816 85.19 -0.738 -0.433 0.518
16.657 43.336 84.682 -0.691 -0.673 0.264
16.161 43.546 84.391 -0.36 -0.813 0.457
16.959 42.953 84.819 -0.892 -0.418 0.172
17.405 42.657 83.844 -0.574 -0.629 -0.524
16.688 43.196 83.237 -0.096 -0.988 -0.12
17.185 42.986 83.527 -0.427 -0.848 -0.313
19.581 43.273 84.637 0.981 -0.19 0.042
19.761 43.714 84.466 0.861 -0.484 0.156
20.325 44.3 84.718 0.485 -0.874 -0.012
20.418 44.509 84.204 0.562 -0.7 -0.44
19.88 43.983 83.805 0.921 -0.35 -0.174
20.217 44.471 83.911 0.696 -0.675 -0.245
19.756 45.155 82.86 0.425 -0.273 -0.863
19.385 44.718 82.675 0.673 0.018 -0.74
19.808 45.683 82.578 0.391 -0.625 -0.675
20.645 45.448 83.812 0.948 -0.1 -0.303
20.764 45.999 83.603 0.869 -0.467 -0.163
20.776 45.326 84.122 0.861 -0.019 -0.509
20.902 45.646 84.639 0.966 0.247 -0.077
20.926 46.41 84.269 0.95 -0.262 0.17
21.127 46.862 84.329 0.816 -0.564 0.129
21.16 46.893 84.083 0.839 -0.542 -0.046
20.965 46.446 83.978 0.97 -0.244 0.024
22.638 47.191 83.03 -0.146 -0.741 0.656
22.276 46.948 82.096 -0.405 -0.914 -0.011
20.536 46.158 82.872 0.755 -0.388 -0.528
21.377 46.715 81.148 0.195 -0.759 0.621
22.618 46.885 81.788 -0.161 -0.959 -0.231
21.719 46.652 80.84 0.438 -0.804 0.401
22.246 46.921 81.203 0.087 -0.983 0.159
20.951 49.37 79.7 -0.633 0.377 -0.676
20.572 48.82 79.509 -0.381 0.744 -0.549
20.704 50.006 80.01 -0.468 -0.047 -0.882
20.404 49.947 80.228 -0.682 -0.089 -0.726
20.273 48.761 79.728 -0.594 0.702 -0.393
19.375 50.054 80.62 0.005 -0.16 -0.987
19.183 49.887 80.663 -0.091 -0.243 -0.966
20.111 48.62 79.764 -0.71 0.601 -0.367
18.956 49.311 80.697 0.061 0.141 -0.988
18.634 48.667 80.774 -0.169 -0.319 -0.933
19.789 47.976 79.842 -0.94 0.142 -0.311
18.091 48.419 80.83 0.193 -0.153 -0.969
18.388 49.484 80.819 -0.345 0.264 -0.901
17.799 49.385 80.882 0.047 0.33 -0.943
18.511 50.092 80.808 -0.427 -0.141 -0.893
17.818 50.853 81.42 -0.773 0.24 -0.587
17.107 50.146 81.494 -0.299 0.711 -0.637
16.522 50.917 82.003 0.091 0.197 -0.976
15.933 50.497 82.056 -0.33 -0.103 -0.939
16.41 49.65 81.557 -0.648 0.462 -0.606
16.267 49.43 81.501 -0.553 0.609 -0.569
15.36 49.858 82.844 -0.739 -0.559 -0.376
15.74 48.841 82.227 -0.992 0.118 0.035
15.732 48.893 82.489 -0.987 0.084 -0.14
15.722 48.705 82.51 -0.992 -0.01 -0.129
15.732 48.695 82.243 -0.999 -0.003 0.049
15.26 47.61 82.492 -0.684 0.72 -0.117
17.966 51.53 81.753 -0.699 0.578 -0.42
16.647 51.489 82.285 0.181 0.606 -0.775
18.139 51.708 81.653 -0.815 0.46 -0.353
18.18 51.852 81.796 -0.781 0.58 -0.234
16.691 51.645 82.441 0.212 0.717 -0.664
16.714 51.983 82.717 0.197 0.492 -0.848
18.4 52.118 82.108 -0.597 0.802 0.026
16.934 52.25 83.029 0.38 0.714 -0.588
18.066 52.558 83.311 -0.374 0.508 -0.776
17.616 52.84 84.554 -0.696 0.709 0.112
16.519 52.509 84.174 0.035 0.93 0.366
17.865 53.724 85.462 -0.862 0.12 -0.493
17.718 53.2 86.087 -0.966 -0.253 -0.046
16.384 52.027 84.749 -0.077 0.529 0.845
17.453 52.051 86.522 -0.79 0.513 -0.336
17.303 51.808 86.616 -0.915 0.311 -0.258
16.234 51.785 84.843 -0.202 0.326 0.923
17.174 51.629 86.766 -0.828 0.43 -0.359
17.304 51.82 86.63 -0.914 0.321 -0.246
17.174 51.645 86.785 -0.828 0.438 -0.349
16.563 52.097 87.606 -0.421 0.137 -0.897
16.375 51.683 87.719 -0.555 -0.159 -0.817
16.952 51.155 86.918 -0.94 0.193 -0.283
16.391 50.345 87.06 -0.566 0.733 -0.377
16.304 51.655 87.776 -0.605 -0.18 -0.775
16.307 50.311 87.128 -0.607 0.716 -0.343
15.971 51.475 87.996 -0.383 -0.06 -0.922
16.897 52.101 90.225 -0.182 0.139 0.973
16.517 51.886 90.25 0.072 0.282 0.957
17.299 51.72 90.482 -0.45 0.393 0.802
17.181 51.358 90.547 -0.508 0.213 0.835
16.426 51.605 90.301 -0.004 0.048 0.999
16.342 50.625 90.732 0.051 0.701 0.711
17.303 51.238 90.64 -0.447 0.153 0.881
16.445 50.524 90.811 0.125 0.629 0.767
17.034 50.651 90.77 -0.268 0.544 0.795
19.749 49.882 89.579 0.775 -0.525 0.351
19.479 49.295 89.708 0.955 -0.134 0.265
20.647 49.96 88.909 0.176 -0.577 0.797
20.649 49.802 88.781 0.178 -0.656 0.734
19.482 49.138 89.581 0.956 -0.213 0.201
20.025 47.926 89.07 0.594 0.595 0.541
19.872 47.726 89.383 0.518 0.495 0.698
19.329 48.938 89.893 0.88 -0.313 0.357
19.225 48.81 90.105 0.949 -0.228 0.216
18.023 48.096 90.524 -0.052 -0.824 0.565
17.784 48.018 90.431 0.107 -0.772 0.626
18.327 46.807 89.921 -0.255 0.035 0.966
20.822 49.725 88.652 0.264 -0.695 0.669
20.197 47.849 88.941 0.681 0.556 0.477
21.009 49.612 88.497 0.14 -0.619 0.773
21.157 49.515 88.367 0.263 -0.7 0.664
20.388 47.724 88.773 0.776 0.494 0.393
20.483 47.773 88.568 0.712 0.461 0.529
20.594 47.441 87.255 0.804 0.185 -0.565
20.53 47.298 87.085 0.847 0.281 -0.451
20.861 47.684 85.239 0.626 0.023 0.779
20.849 47.085 85.093 0.617 -0.404 0.675
20.515 46.589 86.912 0.84 -0.074 -0.538
20.646 45.851 85.342 0.753 0.418 0.509
20.668 45.648 85.435 0.771 0.249 0.586
20.544 46.328 87.031 0.854 -0.204 -0.478
20.57 45.755 87.09 0.837 0.178 -0.518
18.222 45.94 89.928 -0.337 0.271 0.902
18.196 46.513 89.87 -0.32 -0.111 0.941
17.704 45.612 89.973 0.008 0.49 0.872
19.556 43.706 88.959 0.33 -0.847 0.417
19.039 43.377 89.004 0.675 -0.628 0.387
18.791 42.942 88.949 0.841 -0.337 0.424
19.528 43.568 87.626 0.316 -0.915 -0.249
18.767 42.826 87.823 0.824 -0.42 -0.381
19.011 43.24 87.671 0.661 -0.696 -0.279
18.8 43.22 87.352 0.555 -0.707 -0.438
18.589 42.809 87.554 0.696 -0.432 -0.573
18.896 42.873 85.6 0.491 -0.475 0.73
17.186 42.95 85.334 -0.73 -0.42 0.54
16.879 42.886 87.288 -0.525 -0.377 -0.763
16.776 43.312 87.037 -0.456 -0.661 -0.596
17.056 43.131 85.261 -0.823 -0.291 0.488
16.622 43.525 86.951 -0.534 -0.554 -0.639
16.772 43.546 85.205 -0.634 -0.568 0.525
18.921 43.336 87.335 0.616 -0.648 -0.447
18.998 42.971 85.585 0.565 -0.405 0.719
19.438 43.665 87.29 0.271 -0.867 -0.418
19.911 44.139 86.949 0.508 -0.63 -0.588
19.398 43.372 85.297 0.85 -0.119 0.514
20.156 44.391 85.326 0.344 -0.798 0.495
20.559 47.584 87.268 0.775 0.304 -0.554
20.823 47.839 85.253 0.599 0.134 0.79
21.11 49.358 86.813 0.408 -0.878 -0.25
21.412 49.814 86.285 0.559 -0.65 -0.514
21.079 48.224 84.807 0.781 0.409 0.471
21.675 49.323 84.216 0.384 -0.323 0.865
21.86 49.106 83.99 0.537 -0.504 0.676
21.279 47.989 84.561 0.924 0.241 0.295
22.758 48.287 83.508 -0.061 0.042 0.997
22.167 49.519 83.883 0.793 -0.16 0.588
23.091 48.736 83.393 0.177 0.363 0.915
22.293 49.746 83.815 0.709 -0.311 0.633
22.858 50.561 82.372 0.991 0.097 -0.089
23.568 49.424 82.173 0.518 0.854 0.044
23.32 49.79 81.638 0.683 0.61 0.401
22.619 50.968 81.775 0.872 0.301 -0.387
23.092 50.179 81.069 0.556 0.827 0.084
22.598 50.722 81.221 0.885 0.465 -0.017
20.398 51.338 80.867 -0.239 0.485 -0.841
20.722 51.034 80.453 -0.455 0.688 -0.565
19.75 51.341 80.886 0.193 0.483 -0.854
20.407 51.698 81.131 -0.234 0.665 -0.709
19.76 51.701 81.15 0.197 0.663 -0.722
19.534 51.84 81.184 0.348 0.57 -0.744
20.432 52.197 81.875 -0.222 0.915 -0.337
19.553 52.229 81.762 0.364 0.894 -0.262
19.784 52.2 81.894 0.21 0.913 -0.35
19.778 52.206 81.906 0.207 0.916 -0.344
19.549 52.233 81.772 0.36 0.898 -0.255
20.39 53.387 82.846 -0.201 0.128 -0.971
19.677 53.495 83.264 -0.711 0.205 -0.673
18.892 52.332 82.156 -0.188 0.98 0.066
18.6 52.791 83.363 0.007 0.674 -0.739
19.609 53.616 83.391 -0.759 0.291 -0.582
18.532 52.912 83.49 -0.041 0.761 -0.648
19.051 53.403 83.739 -0.387 0.433 -0.814
18.33 53.564 84.619 -0.788 0.523 -0.325
17.894 53.055 84.269 -0.497 0.863 -0.091
18.142 53.938 85.177 -0.663 0.274 -0.697
19.499 54.333 84.699 -0.138 0.95 -0.28
19.178 54.618 85.248 0.076 0.76 -0.646
20.006 54.439 84.241 -0.476 0.879 0.025
20.931 54.314 85.024 0.185 0.79 0.585
20.103 54.494 86.031 0.737 0.67 -0.087
20.544 54.192 85.584 0.442 0.872 0.211
20.762 53.57 86.351 0.563 0.526 0.637
20.295 53.943 86.71 0.874 0.277 0.398
21.044 52.968 87.31 0.375 0.927 -0.002
20.864 53.011 87.59 0.285 0.949 0.138
20.143 53.979 86.946 0.766 0.303 0.567
20.868 52.996 87.858 0.282 0.958 -0.04
20.106 52.87 88.368 -0.353 0.853 0.385
19.315 53.842 87.5 0.175 0.205 0.963
18.986 52.771 88.916 0.394 0.919 0.019
18.438 52.918 88.883 0.12 0.993 0.002
18.853 53.967 87.472 -0.156 0.294 0.943
17.86 53.114 88.874 0.506 0.863 0.009
16.713 52.402 87.629 -0.314 0.355 -0.881
17.705 53.255 86.227 -0.975 -0.214 0.054
17.442 52.101 86.651 -0.799 0.555 -0.229
20.462 52.522 88.895 -0.056 0.564 0.824
19.443 52.324 89.594 0.623 0.696 0.358
19.533 52.174 89.797 0.563 0.796 0.223
19.892 50.851 90.014 0.862 -0.307 0.404
19.905 50.623 89.874 0.853 -0.155 0.498
20.803 50.701 89.204 0.254 -0.207 0.945
19.87 51.7 89.96 0.843 0.401 0.359
20.774 51.792 89.133 0.24 0.339 0.91
20.798 52.048 89.058 0.224 0.168 0.96
21.411 53.003 85.778 0.924 0.211 0.319
21.725 52.374 86.709 0.715 0.63 -0.302
21.648 52.367 86.102 0.766 0.635 0.103
21.704 50.703 85.665 0.806 -0.554 -0.209
21.79 50.404 86.193 0.748 -0.355 -0.561
22.039 50.084 84.15 0.582 -0.142 0.801
21.957 49.909 84.168 0.541 -0.229 0.809
21.708 50.23 86.21 0.707 -0.442 -0.552
21.905 49.647 84.157 0.575 -0.054 0.816
21.832 51.656 85.366 0.897 0.126 -0.423
22.191 51.212 83.796 0.658 0.423 0.623
21.882 52.55 84.459 0.864 -0.47 0.181
22 52.789 84.064 0.949 -0.299 -0.101
22.331 51.495 83.328 0.728 0.564 0.39
22.195 51.725 83.312 0.819 0.411 0.4
21.666 52.24 82.364 0.379 0.84 -0.389
21.652 52.157 82.11 0.388 0.895 -0.22
21.426 53.349 83.035 0.539 0.1 -0.837
20.396 53.386 82.845 -0.197 0.127 -0.972
20.432 52.201 81.885 -0.222 0.917 -0.332
19.785 52.204 81.904 0.21 0.915 -0.345
21.675 52.342 86.034 0.785 0.617 0.055
21.725 53.237 85.128 0.752 0.021 0.659
21.442 52.975 85.702 0.941 0.195 0.276
20.59 47.586 87.315 0.801 0.306 -0.515
21.15 49.361 86.874 0.428 -0.877 -0.22
21.263 49.329 87.114 0.352 -0.855 -0.38
15.378 47 86.312 -0.762 0 -0.647
15.689 46.891 85.69 -0.97 0.073 -0.233
15.68 46.805 84.991 -0.964 0.13 0.233
15.499 47.275 86.306 -0.524 0.539 -0.659
15.78 47.096 85.686 -0.711 0.659 -0.245
15.825 47.135 84.984 -0.742 0.633 0.222
15.646 47.964 86.486 -0.622 0.08 -0.779
16.031 48.323 85.993 -0.879 -0.16 -0.45
16.111 48.627 85.343 -0.932 -0.362 -0.017
15.619 48.123 86.57 -0.681 0.427 -0.595
16.012 48.433 86.051 -0.943 0.22 -0.249
16.078 48.82 85.446 -0.987 -0.038 0.155
15.447 48.409 86.862 -0.566 0.236 -0.79
15.226 48.806 87.568 -0.779 0.617 -0.112
14.952 48.812 88.177 -0.596 0.614 -0.518
14.319 48.116 88.264 -0.741 0.646 0.184
14.604 48.547 88.644 -0.931 0.359 -0.07
14.634 49.076 89.004 -0.951 0.006 -0.31
14.349 47.665 88.867 -0.719 0.324 0.614
14.629 48.164 89.155 -0.907 -0.009 0.422
14.661 48.661 89.559 -0.928 -0.34 0.153
15.018 47.809 89.518 -0.533 -0.35 0.771
14.592 46.77 89.094 -0.545 -0.315 0.777
14.92 46.473 89.307 -0.764 -0.117 0.635
14.709 45.831 88.662 -0.838 -0.187 0.514
14.281 46.322 88.123 -0.768 -0.635 0.083
14.576 45.757 88.176 -0.965 -0.258 0.047
14.608 45.121 88.242 -0.986 0.166 0.003
14.688 45.728 87.68 -0.857 -0.286 -0.428
14.574 46.605 87.016 -0.559 -0.432 -0.708
14.898 46.278 86.847 -0.775 -0.214 -0.595
15.641 45.626 86.164 -0.863 -0.468 -0.191
15.709 45.387 85.453 -0.908 -0.308 0.284
15.579 46.253 85.947 -0.918 0.093 -0.385
15.647 46.013 85.236 -0.963 0.253 0.09
15.611 46.522 85.869 -0.939 -0.086 -0.333
15.673 46.481 85.089 -0.981 -0.059 0.187
15.624 46.771 85.857 -0.926 0.153 -0.344
15.686 46.73 85.077 -0.968 0.18 0.176
15.009 46.236 83.844 -0.917 -0.106 0.385
15.025 45.689 84.017 -0.927 0.259 0.27
14.891 46.038 83.229 -0.976 -0.204 0.078
14.907 45.492 83.401 -0.986 0.16 -0.037
14.993 45.846 82.61 -0.925 -0.3 -0.232
15.009 45.3 82.782 -0.936 0.064 -0.347
15.303 45.68 82.055 -0.77 -0.383 -0.51
15.318 45.134 82.227 -0.781 -0.019 -0.625
15.786 45.559 81.627 -0.529 -0.444 -0.724
15.802 45.013 81.799 -0.539 -0.08 -0.838
16.389 45.497 81.374 -0.227 -0.475 -0.85
16.405 44.95 81.546 -0.238 -0.111 -0.965
17.044 45.5 81.324 0.1 -0.473 -0.875
17.059 44.954 81.496 0.09 -0.109 -0.99
17.677 45.569 81.483 0.417 -0.439 -0.796
17.693 45.022 81.655 0.406 -0.075 -0.911
18.64 46.533 81.674 0.424 -0.642 -0.639
19.191 46.901 81.403 0.056 -0.887 -0.459
19.762 46.965 80.976 -0.324 -0.93 -0.174
18.388 46.878 81.454 0.014 -0.08 -0.997
19.043 47.104 81.274 -0.423 -0.23 -0.877
19.554 47.251 80.794 -0.763 -0.328 -0.557
17.088 46.849 81.13 0.122 0.201 -0.972
17.457 47.825 80.999 -0.124 -0.45 -0.884
16.536 47.665 81.292 -0.268 -0.04 -0.963
16.074 47.775 81.526 -0.616 0.043 -0.787
14.986 46.231 82.364 -0.929 -0.108 -0.355
14.975 46.445 82.276 -0.922 -0.251 -0.296
15.645 48.428 83.163 -0.959 0.208 -0.193
15.323 47.588 83.695 -0.76 0.571 0.311
15.633 48.278 83.816 -0.967 0.111 0.23
15.564 49.011 84.028 -0.921 -0.378 0.089
15.902 48.096 84.403 -0.793 -0.008 0.61
15.435 49.443 83.933 -0.986 -0.162 0.042
15.217 49.945 83.672 -0.84 -0.497 0.216
15.527 49.873 84.523 -0.94 0.053 0.337
15.295 50.309 84.171 -0.785 -0.237 0.572
16.799 50.807 85.697 -0.78 0.482 0.398
17.014 50.958 86.247 -0.924 0.381 0.032
16.775 50.741 85.725 -0.797 0.436 0.418
16.99 50.892 86.275 -0.941 0.335 0.051
16.542 50.394 85.784 -0.642 0.667 0.379
16.559 50.26 86.384 -0.654 0.757 -0.022
16.395 50.246 85.755 -0.746 0.561 0.358
16.412 50.111 86.355 -0.758 0.651 -0.042
16.318 50.164 85.734 -0.695 0.616 0.372
16.269 49.964 86.319 -0.662 0.749 -0.018
15.81 49.919 85.043 -0.799 0.076 0.597
16.033 49.711 85.583 -0.948 0.214 0.237
16.014 49.559 86.183 -0.935 0.316 -0.163
15.755 49.487 86.742 -0.762 0.364 -0.535
16.027 49.167 85.471 -0.953 -0.269 0.138
16.008 49.071 86.083 -0.941 -0.205 -0.27
16.041 50.327 87.605 -0.702 0.513 -0.493
15.994 50.815 87.941 -0.671 0.188 -0.717
15.854 50.145 87.844 -0.942 0.279 -0.186
15.808 50.633 88.18 -0.911 -0.046 -0.41
15.523 49.65 88.06 -0.721 0.609 -0.33
15.373 49.324 87.996 -0.877 0.272 -0.396
15.492 50.402 88.623 -0.701 0.107 -0.705
15.283 50.5 89.01 -0.94 0.22 -0.263
14.747 49.622 89.653 -0.857 0.461 0.231
14.915 49.967 89.864 -0.969 0.231 0.091
14.877 49.189 90.163 -0.748 0.1 0.656
15.057 49.496 90.418 -0.867 -0.105 0.486
15.279 48.692 90.402 -0.414 -0.314 0.855
15.493 48.957 90.677 -0.556 -0.49 0.671
15.981 47.716 89.99 -0.069 -0.261 0.963
15.23 47.698 89.645 -0.674 -0.276 0.686
16.14 47.874 90.064 -0.175 -0.366 0.914
16.268 47.872 90.08 -0.069 -0.367 0.928
16.574 47.716 90.083 -0.272 -0.263 0.926
17.369 47.439 89.995 0.226 -0.437 0.871
15.76 46.03 89.789 -0.344 -0.339 0.876
15.847 45.444 89.731 -0.402 0.051 0.914
16.042 43.605 88.869 -0.607 -0.57 0.554
15.398 43.795 88.362 -0.327 -0.939 0.103
15.95 43.456 88.386 -0.695 -0.713 0.088
16.307 42.918 88.434 -0.933 -0.354 0.056
16.021 43.503 87.879 -0.626 -0.668 -0.402
16.137 44.547 86.347 -0.553 -0.803 -0.223
16.174 44.488 85.579 -0.577 -0.764 0.289
15.769 45.152 86.296 -0.948 -0.152 -0.279
15.792 45.117 85.526 -0.964 -0.128 0.235
16.382 44.282 85.549 -0.716 -0.626 0.309
16.508 44.198 86.291 -0.8 -0.57 -0.186
16.445 44.207 85.53 -0.659 -0.694 0.291
16.571 44.123 86.272 -0.743 -0.638 -0.204
16.324 43.278 83.796 -0.278 -0.947 0.16
17.098 42.726 84.317 -0.793 -0.58 -0.187
17.03 43.318 82.74 0.075 -0.927 -0.368
17.527 43.108 83.031 -0.256 -0.787 -0.562
17.39 43.61 82.336 0.255 -0.781 -0.57
17.887 43.4 82.626 -0.076 -0.641 -0.764
17.733 44.043 82.063 0.426 -0.565 -0.707
18.23 43.833 82.353 0.095 -0.425 -0.9
18.024 44.573 81.949 0.572 -0.3 -0.764
18.52 44.363 82.239 0.241 -0.16 -0.957
17.798 42.949 83.185 -0.121 -0.866 -0.485
17.923 42.626 83.554 -0.204 -0.651 -0.731
18.494 43.029 83.124 0.228 -0.826 -0.515
18.511 42.694 83.503 0.216 -0.603 -0.768
19.133 43.21 83.356 0.547 -0.736 -0.399
19.051 42.847 83.699 0.602 -0.494 -0.628
19.586 43.455 83.836 0.773 -0.614 -0.159
19.433 43.053 84.105 0.875 -0.346 -0.338
19.72 44.273 83.151 0.841 -0.204 -0.501
20.069 44.741 83.303 0.609 -0.516 -0.603
20.395 45.813 82.997 0.685 -0.56 -0.466
20.303 45.276 83.249 0.746 -0.202 -0.634
21.292 46.929 83.506 0.752 -0.566 0.339
21.9 47.2 83.162 0.346 -0.746 0.568
21.002 46.735 82.76 0.444 -0.772 -0.454
21.635 47.022 82.478 0.023 -0.964 -0.266
20.59 46.595 82.3 0.719 -0.679 -0.147
20.894 46.796 81.677 0.517 -0.813 0.268
19.878 45.907 82.439 0.426 -0.513 -0.745
20.129 46.419 81.997 0.259 -0.855 -0.45
20.469 46.634 81.398 0.032 -0.998 -0.051
20.821 46.503 80.782 -0.203 -0.911 0.36
19.631 46.593 81.754 -0.237 -0.681 -0.692
20.012 46.794 81.175 -0.491 -0.816 -0.306
21.845 46.976 81.569 -0.117 -0.933 0.34
22.144 46.921 81.299 0.155 -0.983 0.095
22.036 46.733 80.234 0.665 -0.746 -0.032
22.605 47.013 80.519 0.286 -0.932 -0.221
22.121 47.062 79.634 0.726 -0.512 -0.46
22.701 47.383 79.841 0.339 -0.726 -0.598
21.953 47.557 79.186 0.606 -0.158 -0.78
22.511 47.943 79.335 0.234 -0.416 -0.879
21.572 48.099 78.998 0.334 0.229 -0.914
22.081 48.555 79.122 -0.005 -0.075 -0.997
21.072 48.557 79.115 -0.024 0.556 -0.831
21.515 49.073 79.255 -0.319 0.212 -0.924
20.707 49.356 79.876 -0.47 0.387 -0.793
20.443 49.304 80.069 -0.707 0.34 -0.62
20.083 49.086 80.248 -0.467 0.485 -0.739
19.764 49.545 80.565 -0.255 0.179 -0.95
19.947 48.968 80.279 -0.6 0.369 -0.71
19.617 49.418 80.598 -0.38 0.069 -0.922
19.628 48.858 80.427 -0.387 0.443 -0.809
19.373 48.348 80.489 -0.662 -0.106 -0.742
19.42 48.12 80.454 -0.694 0.046 -0.719
18.806 48.28 80.811 -0.284 -0.061 -0.957
19.431 47.598 80.667 -0.681 -0.56 -0.472
18.817 47.712 81.043 -0.272 -0.636 -0.722
17.414 49.797 81.105 -0.146 0.536 -0.832
18.125 50.503 81.03 -0.62 0.065 -0.782
16.866 49.035 80.979 -0.419 0.155 -0.895
16.623 48.951 81.052 -0.257 0.21 -0.943
16.166 49.926 81.892 -0.485 0.278 -0.829
15.89 49.148 81.791 -0.868 0.374 -0.327
15.818 49.666 82.159 -0.82 0.029 -0.572
15.522 50.191 82.371 -0.623 -0.321 -0.714
15.68 49.382 82.561 -0.952 -0.242 -0.187
15.613 48.103 82.372 -0.919 0.392 -0.037
15.973 47.769 81.598 -0.549 0.048 -0.834
15.603 48.11 82.518 -0.912 0.387 -0.134
15.593 48.111 82.62 -0.92 0.388 -0.055
17.24 50.84 81.871 -0.387 0.248 -0.888
17.36 51.389 82.141 -0.295 0.673 -0.679
17.485 51.444 82.132 -0.378 0.636 -0.673
17.518 51.561 82.248 -0.339 0.774 -0.535
16.036 51.685 82.508 -0.256 0.746 -0.615
16.11 52.02 82.78 -0.306 0.522 -0.796
15.486 51.576 82.858 -0.648 0.668 -0.366
15.605 51.919 83.101 -0.727 0.439 -0.528
15.185 51.347 83.398 -0.863 0.504 0.02
15.327 51.708 83.599 -0.958 0.263 -0.113
15.21 51.056 83.991 -0.846 0.297 0.443
15.35 51.441 84.144 -0.939 0.04 0.341
17.276 51.779 82.582 -0.178 0.628 -0.758
17.794 51.733 82.257 -0.523 0.659 -0.541
17.441 51.979 82.816 0.042 0.894 -0.446
17.958 51.933 82.491 -0.303 0.925 -0.229
17.499 52.319 83.265 0.003 0.667 -0.745
16.703 52.557 83.553 0.189 0.97 -0.152
17.285 52.606 83.752 -0.199 0.938 -0.285
17.816 52.893 83.88 -0.553 0.747 -0.369
17.113 52.561 84.331 -0.361 0.895 0.261
17.048 52.499 84.5 -0.317 0.937 0.148
17.495 52.731 84.865 -0.616 0.782 -0.095
17.784 53.163 85.205 -0.808 0.494 -0.321
16.97 52.218 84.836 -0.467 0.401 0.788
17.434 52.513 85.125 -0.777 0.205 0.595
17.699 52.86 85.567 -0.954 -0.026 0.3
16.944 51.771 85.184 -0.45 0.699 0.555
17.333 51.78 85.83 -0.709 0.694 0.125
16.857 51.631 85.239 -0.617 0.429 0.66
17.246 51.639 85.884 -0.876 0.423 0.23
16.696 51.568 85.148 -0.51 0.471 0.72
17.038 51.462 85.622 -0.737 0.541 0.404
17.206 51.484 86.191 -0.85 0.527 0.025
16.6 51.333 85.169 -0.648 0.132 0.75
16.948 51.242 85.642 -0.88 0.192 0.435
17.089 51.197 86.217 -0.974 0.222 0.052
16.942 51.838 87.269 -0.673 0.31 -0.672
16.751 51.417 87.383 -0.805 0.018 -0.592
16.511 50.948 87.526 -0.646 0.331 -0.688
16.445 50.921 87.58 -0.699 0.309 -0.645
16.252 50.818 87.707 -0.571 0.378 -0.729
16.075 50.693 87.816 -0.725 0.269 -0.634
15.765 52.053 88.241 -0.555 0.421 -0.717
16.081 52.282 88.043 -0.765 0.269 -0.585
15.734 52.462 88.759 -0.581 0.762 -0.286
16.047 52.726 88.605 -0.789 0.586 -0.183
15.887 52.577 89.391 -0.453 0.858 0.241
16.213 52.851 89.292 -0.671 0.675 0.307
16.178 52.363 89.944 -0.211 0.68 0.702
16.529 52.619 89.893 -0.445 0.509 0.736
15.754 51.592 90.092 -0.564 0.037 0.825
15.613 50.611 90.505 -0.47 0.691 0.549
15.324 51.448 89.553 -0.923 -0.082 0.376
15.145 50.455 89.921 -0.804 0.58 0.131
16.789 50.937 90.548 -0.247 0.493 0.834
16.894 50.834 90.628 -0.174 0.422 0.89
16.527 49.834 91.1 0.183 0.136 0.974
17.13 49.835 91.111 -0.219 0.136 0.966
16.443 49.091 91.012 0.123 -0.394 0.911
17.031 48.956 91.007 -0.269 -0.304 0.914
17.635 50.422 90.984 0.033 0.43 0.902
17.904 51.009 90.855 -0.147 0.038 0.988
18.25 50.137 90.97 0.34 0.287 0.895
18.519 50.724 90.841 0.161 -0.105 0.981
18.804 49.829 90.729 0.618 0.133 0.775
19.074 50.416 90.6 0.438 -0.258 0.861
19.231 49.537 90.291 0.831 -0.013 0.556
19.501 50.124 90.162 0.651 -0.404 0.642
19.917 49.719 89.172 0.663 -0.417 0.622
19.919 49.582 89.061 0.664 -0.509 0.547
19.595 48.493 89.25 0.881 0.217 0.421
19.458 48.313 89.531 0.794 0.104 0.599
19.272 48.876 89.998 0.918 -0.271 0.288
18.82 49.566 90.739 0.626 0.001 0.78
18.821 49.432 90.746 0.625 0.091 0.775
18.83 49.299 90.763 0.62 0.179 0.764
17.857 48.993 91.074 0.144 -0.285 0.948
17.968 48.925 91.043 0.07 -0.239 0.968
18.08 48.854 91.024 -0.005 -0.192 0.981
17.903 48.062 90.474 0.028 -0.801 0.598
18.07 47.488 90.014 -0.084 -0.418 0.904
17.949 47.448 89.978 -0.16 -0.443 0.882
18.208 47.536 90.057 -0.175 -0.451 0.875
19.271 47.124 89.901 0.217 0.194 0.957
18.931 47.779 90.042 0.444 -0.243 0.862
18.758 48.342 90.508 0.56 -0.618 0.552
19.391 48.239 89.646 0.839 0.153 0.522
20.05 48.539 88.69 0.578 0.186 0.795
20.275 49.217 88.585 0.427 -0.265 0.864
20.183 48.479 88.59 0.69 0.136 0.711
20.409 49.157 88.486 0.54 -0.316 0.78
20.273 48.426 88.52 0.63 0.171 0.757
20.566 49.063 88.36 0.435 -0.253 0.864
20.401 48.342 88.407 0.767 0.082 0.637
20.679 48.989 88.26 0.582 -0.349 0.735
20.344 47.361 86.428 0.971 0.239 -0.013
20.463 47.5 85.766 0.892 0.146 0.428
20.333 46.843 86.301 0.961 -0.243 -0.131
20.453 47.021 85.649 0.881 -0.362 0.304
20.317 46.298 86.409 0.972 0.12 -0.202
20.363 46.038 85.854 0.941 0.294 0.167
20.339 46.101 86.499 0.991 -0.053 -0.123
20.383 45.861 85.935 0.962 0.107 0.252
20.782 46.403 87.666 0.973 -0.166 -0.161
20.807 45.83 87.724 0.956 0.216 -0.2
20.786 46.473 88.344 0.975 -0.131 0.178
20.812 45.9 88.402 0.958 0.251 0.139
20.558 46.529 88.983 0.861 -0.104 0.498
20.584 45.956 89.042 0.844 0.278 0.459
20.124 46.563 89.508 0.644 -0.087 0.76
20.15 45.99 89.567 0.627 0.295 0.721
19.537 46.572 89.854 0.35 -0.082 0.933
19.563 45.999 89.913 0.333 0.3 0.894
18.867 46.555 89.98 0.016 -0.091 0.996
18.893 45.982 90.038 -0.002 0.291 0.957
18.032 45.119 90.139 0.171 0.243 0.955
18.549 45.447 90.094 -0.174 0.024 0.985
18.359 44.599 90.113 0.335 -0.017 0.942
18.877 44.927 90.068 -0.01 -0.236 0.972
18.655 44.104 89.898 0.483 -0.265 0.835
19.172 44.432 89.854 0.138 -0.483 0.864
18.889 43.683 89.516 0.6 -0.475 0.644
19.406 44.011 89.472 0.255 -0.694 0.673
18.622 43.46 89.554 0.466 -0.586 0.662
18.438 43.012 89.414 0.589 -0.287 0.756
18.005 43.531 89.868 0.158 -0.551 0.819
17.917 43.071 89.679 0.217 -0.245 0.945
17.312 43.575 89.884 -0.189 -0.529 0.827
17.331 43.109 89.693 -0.202 -0.218 0.955
16.677 43.585 89.599 -0.506 -0.524 0.685
16.796 43.117 89.452 -0.585 -0.212 0.783
18.881 42.819 88.391 0.905 -0.425 0.025
19.663 43.56 88.298 0.383 -0.92 0.087
18.426 43.028 86.895 0.804 -0.579 -0.133
18.537 43.051 86.19 0.731 -0.594 0.336
18.047 42.433 87.456 0.309 -0.701 -0.643
18.055 42.77 86.828 0.305 -0.926 -0.223
18.165 42.793 86.123 0.231 -0.941 0.246
18.354 42.497 85.502 0.105 -0.744 0.66
17.389 42.462 87.354 -0.16 -0.68 -0.716
17.603 42.791 86.757 -0.303 -0.898 -0.318
17.714 42.814 86.053 -0.377 -0.914 0.152
17.697 42.527 85.4 -0.365 -0.722 0.587
17.253 43.081 86.712 -0.774 -0.507 -0.379
17.363 43.105 86.007 -0.848 -0.523 0.09
17.102 43.371 86.496 -0.674 -0.701 -0.236
17.248 43.243 85.893 -0.771 -0.615 0.167
16.983 43.536 86.43 -0.775 -0.561 -0.292
17.137 43.396 85.831 -0.877 -0.468 0.108
16.85 43.705 86.404 -0.686 -0.674 -0.274
16.903 43.712 85.787 -0.721 -0.679 0.137
16.674 43.933 86.392 -0.812 -0.511 -0.283
16.727 43.941 85.774 -0.847 -0.516 0.128
18.694 43.178 86.118 0.626 -0.678 0.384
18.66 43.301 86.739 0.649 -0.76 -0.03
18.781 43.261 86.105 0.71 -0.598 0.372
18.753 43.39 86.725 0.728 -0.684 -0.041
18.98 43.438 86.075 0.577 -0.716 0.393
19.137 43.686 86.684 0.472 -0.881 -0.014
19.302 43.762 85.842 0.913 -0.378 0.15
19.486 44.036 86.433 0.791 -0.561 -0.244
19.684 43.953 85.233 0.659 -0.506 0.556
19.839 43.869 84.675 0.809 -0.587 0.017
19.963 44.5 85.865 0.473 -0.871 0.135
19.877 44.412 86.435 0.53 -0.812 -0.245
20.621 44.93 85.434 0.732 -0.349 0.585
20.38 44.982 85.962 0.893 -0.385 0.233
20.34 44.948 86.543 0.92 -0.361 -0.154
20.509 44.831 87.088 0.807 -0.284 -0.518
20.422 45.626 85.963 0.936 0.264 0.234
20.387 45.663 86.544 0.959 0.239 -0.153
20.64 46.467 85.125 0.757 0.008 0.654
20.875 46.279 84.48 0.984 -0.175 0.029
20.427 47.556 85.829 0.916 0.109 0.386
20.33 47.468 86.561 0.981 0.168 -0.102
20.403 47.651 85.837 0.879 0.26 0.4
20.307 47.558 86.569 0.943 0.322 -0.088
20.627 48.377 85.468 0.729 -0.224 0.646
20.613 48.859 85.844 0.739 -0.546 0.396
20.784 49.205 86.319 0.625 -0.776 0.079
20.807 48.648 85.155 0.963 0.127 0.239
20.775 49.103 85.561 0.984 -0.177 -0.032
20.989 49.515 85.96 0.841 -0.451 -0.298
21.266 48.765 84.384 0.657 0.049 0.753
21.43 48.573 84.183 0.824 -0.148 0.547
21.603 48.035 83.994 0.709 0.211 0.673
22.129 48.141 83.619 0.358 0.14 0.923
21.324 47.374 84.45 0.956 -0.198 0.215
21.636 47.575 83.91 0.748 -0.332 0.575
22.162 47.681 83.536 0.397 -0.403 0.825
22.802 47.673 83.396 -0.029 -0.397 0.917
21.514 47.215 83.637 0.604 -0.756 0.252
22.04 47.321 83.262 0.253 -0.827 0.502
22.269 48.735 83.61 0.265 -0.256 0.93
22.548 49.111 83.513 0.539 0.113 0.835
22.612 49.236 83.464 0.496 0.029 0.868
23.478 49.192 82.904 0.454 0.688 0.566
22.988 49.68 82.988 0.78 0.363 0.51
22.751 50.286 83.237 0.938 -0.041 0.344
23.076 49.906 82.277 0.846 0.533 -0.025
23.927 49.059 81.806 0.774 0.594 -0.219
23.726 49.378 81.223 0.909 0.381 0.17
24.071 48.523 81.507 0.877 0.21 -0.432
23.888 48.771 80.885 0.999 0.045 -0.018
23.97 47.924 81.339 0.805 -0.217 -0.552
23.774 48.095 80.695 0.935 -0.331 -0.123
23.645 47.384 81.334 0.573 -0.603 -0.555
23.406 47.484 80.69 0.731 -0.67 -0.126
23.161 47.012 81.495 0.227 -0.868 -0.441
22.86 47.065 80.872 0.428 -0.903 -0.025
22.983 50.13 81.985 0.908 0.383 0.169
22.765 50.502 81.441 0.774 0.611 -0.164
22.836 50.22 80.328 0.414 0.849 -0.327
22.372 50.758 80.565 0.724 0.49 -0.486
22.3 50.067 79.776 0.117 0.764 -0.634
21.898 50.623 80.076 0.385 0.394 -0.835
21.615 49.758 79.548 -0.264 0.593 -0.761
21.292 50.35 79.875 -0.048 0.199 -0.979
22.098 51.215 80.923 0.528 0.817 -0.23
22.027 51.553 81.423 0.576 0.593 -0.563
21.4 51.332 80.638 0.029 0.901 -0.434
21.2 51.69 81.085 0.163 0.662 -0.732
20.251 51.121 80.751 -0.141 0.63 -0.764
20.5 50.53 80.239 -0.613 0.328 -0.719
20.026 50.608 80.532 -0.297 0.276 -0.914
19.488 50.744 80.632 0.061 0.185 -0.981
19.928 50.014 80.522 -0.364 -0.134 -0.922
18.714 51.198 80.892 -0.325 0.412 -0.851
18.721 51.449 80.983 -0.33 0.244 -0.912
19.794 52.439 82.318 0.196 0.761 -0.619
20.093 52.848 82.699 -0.003 0.488 -0.873
19.291 52.514 82.613 -0.454 0.858 -0.238
19.57 52.926 83.005 -0.64 0.584 -0.5
18.761 52.42 82.817 -0.101 0.922 -0.375
18.316 52.226 82.774 -0.541 0.73 -0.418
19.195 53.072 83.428 -0.39 0.487 -0.782
19.135 53.179 83.54 -0.443 0.583 -0.681
18.112 53.405 84.787 -0.643 0.629 -0.436
17.866 53.215 85.039 -0.863 0.46 -0.211
18.615 54.359 85.101 -0.326 0.574 -0.751
18.863 54.04 84.533 -0.492 0.787 -0.373
19.626 54.39 84.797 -0.222 0.912 -0.345
19.666 54.711 85.633 0.425 0.826 -0.371
20.055 54.472 85.136 0.166 0.985 -0.039
20.494 54.531 84.627 -0.127 0.945 0.3
20.439 54.28 85.485 0.513 0.813 0.277
20.554 53.344 86.973 0.702 0.676 0.223
20.406 53.379 87.203 0.59 0.703 0.396
20.379 53.335 87.338 0.608 0.732 0.306
19.732 53.228 87.771 -0.103 0.614 0.782
19.114 53.308 87.793 0.309 0.561 0.768
18.997 52.928 88.295 0.387 0.814 0.433
18.725 53.413 87.769 -0.071 0.663 0.745
18.578 53.041 88.27 0.027 0.911 0.411
18.465 53.462 87.732 0.103 0.63 0.77
18.109 53.157 88.235 0.34 0.834 0.435
18.239 54.116 87.128 -0.594 0.401 0.697
18.026 53.569 87.486 -0.452 0.765 0.459
17.67 53.263 87.989 -0.215 0.969 0.124
17.246 53.263 88.53 0.067 0.969 -0.237
17.79 53.837 86.641 -0.915 0.202 0.349
17.704 53.37 87.138 -0.858 0.513 0.018
17.349 53.064 87.64 -0.621 0.717 -0.317
16.797 52.984 88.043 -0.253 0.77 -0.585
17.644 52.954 86.842 -0.934 -0.013 -0.356
17.288 52.648 87.344 -0.697 0.191 -0.691
17.709 52.652 86.452 -0.977 0.188 -0.097
17.719 52.606 86.334 -0.967 0.143 -0.211
17.162 52.183 87.224 -0.613 0.501 -0.611
17.035 51.924 87.205 -0.735 0.252 -0.629
17.723 52.977 89.56 0.408 0.765 0.498
18.276 52.757 89.695 0.039 0.912 0.408
17.37 52.606 90.055 0.156 0.5 0.852
17.858 52.318 90.281 -0.17 0.692 0.701
19.543 52.687 88.612 0.023 0.975 0.222
19.91 52.329 89.156 0.312 0.693 0.65
18.802 52.209 90.295 0.302 0.638 0.708
19.035 52.084 90.342 0.147 0.721 0.677
18.701 51.379 90.761 0.252 0.223 0.942
18.956 51.439 90.705 0.082 0.183 0.98
19.235 50.612 90.558 0.519 -0.161 0.84
19.371 50.842 90.546 0.428 -0.314 0.848
20.289 50.683 89.454 0.597 -0.195 0.778
20.142 49.986 89.176 0.513 -0.594 0.619
20.267 50.813 89.512 0.612 -0.281 0.739
20.244 51.693 89.455 0.594 0.405 0.695
21.674 52.209 88.26 0.69 0.548 0.473
21.498 52.373 88.378 0.808 0.439 0.394
20.24 51.824 89.392 0.596 0.318 0.737
19.953 52.228 89.253 0.283 0.76 0.585
20.843 53.176 86.79 0.509 0.789 0.345
21.463 52.635 86.242 0.89 0.456 0.009
22.059 51.735 86.607 0.882 0.31 -0.354
21.931 51.827 86.015 0.968 0.249 0.041
22.082 51.031 86.422 0.894 -0.042 -0.446
21.951 51.232 85.859 0.982 -0.176 -0.071
21.526 50.43 85.482 0.924 -0.373 -0.087
21.617 50.314 84.738 0.863 -0.295 0.409
21.465 50.301 85.495 0.869 -0.49 -0.075
21.556 50.184 84.75 0.808 -0.412 0.421
21.406 50.186 85.485 0.908 -0.413 -0.069
21.478 49.972 84.732 0.86 -0.271 0.433
21.228 49.935 85.531 0.682 -0.731 -0.011
21.324 49.755 84.771 0.618 -0.611 0.495
21.742 50.379 84.562 0.78 -0.338 0.527
21.625 50.596 85.094 0.858 -0.483 0.172
22.238 50.636 83.988 0.681 0.134 0.719
21.901 50.821 84.431 0.906 0.011 0.424
21.773 51.008 84.972 0.992 -0.114 0.063
21.872 51.169 85.528 0.926 -0.221 -0.307
21.864 51.282 84.278 0.876 0.376 0.302
21.738 51.438 84.829 0.96 0.272 -0.066
21.852 51.887 84.03 0.884 -0.027 0.467
21.963 52.11 83.661 0.974 0.154 0.167
22.259 51.607 83.317 0.777 0.489 0.397
21.657 52.193 82.239 0.385 0.871 -0.306
21.427 52.632 82.7 0.538 0.578 -0.613
21.064 52.245 81.887 0.095 0.939 -0.331
20.963 52.702 82.525 0.162 0.634 -0.756
20.93 53.423 82.847 0.184 0.153 -0.971
20.464 52.667 82.523 -0.243 0.606 -0.757
20.088 52.645 82.563 0.007 0.62 -0.784
20.083 52.647 82.565 0.003 0.622 -0.783
21.468 52.714 82.803 0.511 0.523 -0.682
21.88 53.149 83.5 0.863 -0.042 -0.504
21.847 52.548 83.192 0.884 0.359 -0.299
22.084 52.056 82.792 0.726 0.686 -0.032
21.948 52.248 83.662 0.984 0.062 0.167
21.719 52.13 84.931 0.973 -0.19 -0.134
21.58 52.74 85.525 0.849 0.352 0.394
21.415 53.852 85.202 0.531 0.46 0.712
21.092 53.67 85.785 0.747 0.582 0.323
19.703 54.121 83.774 -0.692 0.652 -0.308
19.157 53.974 84.172 -0.328 0.751 -0.573
20.699 48.902 87.118 0.682 -0.574 -0.454
20.502 48.267 87.281 0.813 -0.151 -0.562
20.727 48.904 87.161 0.709 -0.572 -0.412
20.527 48.268 87.319 0.843 -0.149 -0.517
22.017 50.102 87.22 0.861 -0.506 -0.047
21.938 49.906 87.383 0.914 -0.375 -0.156
21.805 50.338 88.369 0.756 -0.388 0.528
21.773 50.089 88.277 0.777 -0.222 0.589
20.831 48.872 87.346 0.64 -0.551 -0.535
20.59 48.249 87.418 0.801 -0.136 -0.584
21.442 49.336 87.773 0.5 -0.849 0.169
20.953 48.877 87.799 0.826 -0.543 0.151
20.713 48.254 87.871 0.986 -0.128 0.103
20.768 47.594 87.974 0.949 0.312 0.034
20.757 49 88.208 0.529 -0.357 0.77
20.517 48.377 88.28 0.69 0.058 0.722
16.625 44.582 89.921 -0.532 -0.026 0.846
16.156 44.925 89.778 -0.22 -0.254 0.942
16.213 48.084 85.317 -1 0 0
16.099 47.797 85.814 -0.924 0.191 -0.331
16.099 47.51 85.317 -0.924 0.383 0
16.099 47.797 84.82 -0.924 0.191 0.331
16.099 48.371 84.82 -0.924 -0.191 0.331
18.409 47.333 81.345 0 -0.383 -0.924
21.669 47.076 82.079 0 -1 0
21.095 46.962 82.079 0.383 -0.924 0
17.655 52.246 86.018 -0.924 0.383 0
17.33 52.126 85.216 -0.707 0.463 0.534
19.855 49.259 88.917 0.707 -0.294 0.643
20.275 46.478 86.105 1 -0 0
19.612 44.255 86.067 0.707 -0.707 0
20.336 48.615 86.438 0.924 -0.383 0
20.336 48.328 86.935 0.924 -0.191 -0.331
20.336 48.328 85.941 0.924 -0.191 0.331
20.222 48.041 86.438 1 -0 0
21.19 49.279 84.549 0.707 -0.294 0.643
20.865 49.125 85.016 0.924 -0.191 0.331
21.678 51.846 84.731 1 -0 0
14.483 47.055 86.924 -0.623 -0.111 -0.774
14.483 47.666 87.011 -0.623 0.325 -0.711
14.095 47.818 88.007 -0.901 0.434 0
14.095 47.515 88.533 -0.901 0.217 0.376
14.095 46.907 88.533 -0.901 -0.217 0.376
14.095 46.604 88.007 -0.901 -0.434 -0
14.095 46.907 87.481 -0.901 -0.217 -0.376
14.095 47.515 87.481 -0.901 0.217 -0.376
13.956 47.211 88.007 -1 0 0
17.461 46.29 81.178 0.309 -0.079 -0.948
16.843 46.002 81.124 -0 -0.223 -0.975
16.843 46.596 81.08 -0 0.075 -0.997
16.225 46.29 81.178 -0.309 -0.079 -0.948
14.941 46.756 83.609 -0.951 0.155 0.268
15.829 46.55 89.933 -0.309 -0.079 0.948
15.191 44.241 89.023 -0.5 -0.567 0.654
14.752 44.622 88.758 -0.866 -0.25 0.433
14.752 44.322 88.238 -0.866 -0.5 -0
14.752 44.622 87.718 -0.866 -0.25 -0.433
17.498 44.408 81.734 0.309 -0.382 -0.871
16.88 43.706 82.116 -0 -0.733 -0.68
16.88 44.172 81.744 -0 -0.5 -0.866
16.262 43.296 83.163 -0.309 -0.938 -0.157
16.262 43.499 82.571 -0.309 -0.836 -0.453
16.262 43.884 82.077 -0.309 -0.644 -0.7
16.262 44.408 81.734 -0.309 -0.382 -0.871
15.704 44.028 84.62 -0.588 -0.572 0.572
15.704 43.677 84.095 -0.588 -0.747 0.31
15.704 43.554 83.476 -0.588 -0.809 0
15.704 43.677 82.857 -0.588 -0.747 -0.31
15.704 44.028 82.332 -0.588 -0.572 -0.572
15.704 44.553 81.981 -0.588 -0.31 -0.747
15.262 44.584 84.494 -0.809 -0.294 0.509
15.262 44.154 84.064 -0.809 -0.509 0.294
15.262 43.996 83.476 -0.809 -0.588 0
15.262 44.154 82.888 -0.809 -0.509 -0.294
15.262 44.584 82.458 -0.809 -0.294 -0.509
14.978 44.863 84.011 -0.951 -0.155 0.268
14.978 44.554 83.476 -0.951 -0.309 -0
14.978 44.863 82.941 -0.951 -0.155 -0.268
14.88 45.172 83.476 -1 -0 -0
19.215 43.538 83.01 0.588 -0.572 -0.572
19.215 44.063 82.659 0.588 -0.31 -0.747
18.657 43.394 82.755 0.309 -0.644 -0.7
18.657 43.918 82.412 0.309 -0.382 -0.871
21.417 46.413 80.278 0.223 -0.975 0
21.417 46.548 79.686 0.223 -0.878 -0.423
21.417 46.927 79.211 0.223 -0.608 -0.762
21.417 47.474 78.947 0.223 -0.217 -0.95
20.793 46.413 80.278 -0.223 -0.975 0
20.793 46.548 79.686 -0.223 -0.878 -0.423
20.793 46.927 79.211 -0.223 -0.608 -0.762
20.793 47.474 78.947 -0.223 -0.217 -0.95
20.793 48.082 78.947 -0.223 0.217 -0.95
20.232 46.728 79.97 -0.623 -0.75 -0.22
20.232 47.061 79.451 -0.623 -0.512 -0.591
20.232 47.622 79.195 -0.623 -0.111 -0.774
20.232 48.233 79.282 -0.623 0.325 -0.711
17.705 48.28 80.818 -0 -0.223 -0.975
15.042 47.046 82.112 -0.866 0.25 -0.433
15.521 51.096 82.374 -0.623 0.325 -0.711
15.133 50.337 82.844 -0.901 -0.217 -0.376
15.133 50.945 82.844 -0.901 0.217 -0.376
14.994 50.641 83.37 -1 0 0
16.477 52.456 83.177 -0 0.885 -0.465
15.877 52.432 83.735 -0.5 0.866 0
15.877 52.267 84.297 -0.5 0.729 0.468
15.877 51.825 84.68 -0.5 0.36 0.788
15.877 52.267 83.173 -0.5 0.729 -0.468
15.438 51.993 83.735 -0.866 0.5 0
15.831 51.979 90.047 -0.5 0.36 0.788
15.392 52.147 89.102 -0.866 0.5 0
15.392 51.847 89.622 -0.866 0.25 0.433
15.392 51.847 88.582 -0.866 0.25 -0.433
15.959 49.947 91.068 -0.223 0.217 0.95
15.959 49.339 91.068 -0.223 -0.217 0.95
15.398 50.098 90.733 -0.623 0.325 0.711
15.398 49.487 90.82 -0.623 -0.111 0.774
17.569 49.712 91.173 -0 0.075 0.997
18.307 43.869 89.971 0.309 -0.382 0.871
17.689 44.782 90.223 -0 0.075 0.997
17.689 44.188 90.179 -0 -0.223 0.975
17.071 44.476 90.125 -0.309 -0.079 0.948
18.487 42.697 89.183 0.623 -0.512 0.591
18.487 42.364 88.664 0.623 -0.75 0.22
18.487 42.364 88.048 0.623 -0.75 -0.22
17.926 42.563 89.423 0.223 -0.608 0.762
17.926 42.184 88.948 0.223 -0.878 0.423
17.926 42.049 88.356 0.223 -0.975 0
17.926 42.184 87.764 0.223 -0.878 -0.423
17.302 42.563 89.423 -0.223 -0.608 0.762
17.302 42.184 88.948 -0.223 -0.878 0.423
17.302 42.049 88.356 -0.223 -0.975 0
17.302 42.184 87.764 -0.223 -0.878 -0.423
16.741 42.697 89.183 -0.623 -0.512 0.591
16.741 42.364 88.664 -0.623 -0.75 0.22
16.741 42.364 88.048 -0.623 -0.75 -0.22
19.469 42.931 84.578 0.901 -0.434 -0
19.081 42.488 84.886 0.623 -0.75 0.22
19.081 42.488 84.27 0.623 -0.75 -0.22
18.52 42.308 85.17 0.223 -0.878 0.423
18.52 42.173 84.578 0.223 -0.975 0
18.52 42.308 83.986 0.223 -0.878 -0.423
17.896 42.173 84.578 -0.223 -0.975 0
17.896 42.308 83.986 -0.223 -0.878 -0.423
17.335 42.488 84.886 -0.623 -0.75 0.22
20.782 44.749 84.732 0.866 -0.5 -0
24.243 48.228 82.112 1 0 0
24.104 48.835 82.112 0.901 0.434 0
24.104 48.532 82.638 0.901 0.217 0.376
24.104 47.924 82.638 0.901 -0.217 0.376
24.104 47.621 82.112 0.901 -0.434 -0
23.716 48.683 83.108 0.623 0.325 0.711
23.716 48.072 83.195 0.623 -0.111 0.774
23.716 47.511 82.939 0.623 -0.512 0.591
23.716 47.178 82.42 0.623 -0.75 0.22
23.716 47.178 81.804 0.623 -0.75 -0.22
23.155 47.924 83.443 0.223 -0.217 0.95
23.155 47.377 83.179 0.223 -0.608 0.762
23.155 46.998 82.704 0.223 -0.878 0.423
23.155 46.863 82.112 0.223 -0.975 0
23.781 48.383 80.384 0.94 -0.171 -0.296
23.781 48.999 80.384 0.94 0.171 -0.296
23.469 49.848 80.917 0.766 0.643 0
23.469 47.689 80.338 0.766 -0.557 -0.321
23.469 48.112 79.915 0.766 -0.321 -0.557
23.469 48.691 79.76 0.766 -0 -0.643
23.469 49.27 79.915 0.766 0.321 -0.557
23.469 49.693 80.338 0.766 0.557 -0.321
22.99 47.251 80.32 0.5 -0.8 -0.331
22.99 47.589 79.815 0.5 -0.612 -0.612
22.99 48.094 79.477 0.5 -0.331 -0.8
22.99 48.691 79.358 0.5 0 -0.866
22.99 49.288 79.477 0.5 0.331 -0.8
22.99 49.793 79.815 0.5 0.612 -0.612
22.403 48.999 79.171 0.174 0.171 -0.97
22.403 49.577 79.382 0.174 0.492 -0.853
21.671 50.922 80.178 0.223 0.608 -0.762
21.047 50.922 80.178 -0.223 0.608 -0.762
18.747 50.841 80.75 -0.309 0.233 -0.922
19.117 51.838 81.089 -0 0.568 -0.823
19.117 52.219 81.519 -0 0.885 -0.465
18.517 52.03 81.515 -0.5 0.729 -0.468
19.944 54.476 86.744 0.623 0.658 0.423
19.383 54.92 86.152 0.223 0.975 0
19.383 54.785 86.744 0.223 0.878 0.423
19.383 54.406 87.219 0.223 0.608 0.762
18.759 54.92 86.152 -0.223 0.975 0
18.759 54.785 86.744 -0.223 0.878 0.423
18.759 54.406 87.219 -0.223 0.608 0.762
18.759 54.785 85.56 -0.223 0.878 -0.423
18.198 54.65 86.152 -0.623 0.782 0
18.198 54.476 86.744 -0.623 0.658 0.423
18.198 54.476 85.56 -0.623 0.658 -0.423
17.81 54.162 86.152 -0.901 0.434 0
17.464 53.136 89.454 0.223 0.878 0.423
16.84 53.271 88.862 -0.223 0.975 0
16.84 53.136 89.454 -0.223 0.878 0.423
16.84 52.757 89.929 -0.223 0.608 0.762
16.279 52.827 88.27 -0.623 0.658 -0.423
18.816 52.732 89.496 0.309 0.9 0.309
18.198 52.18 90.442 -0 0.623 0.782
18.198 51.664 90.74 -0 0.365 0.931
22.294 51.114 87.314 1 0 0
22.196 51.732 87.314 0.951 0.309 0
22.196 51.423 87.849 0.951 0.155 0.268
22.196 50.805 87.849 0.951 -0.155 0.268
22.196 50.805 86.779 0.951 -0.155 -0.268
21.912 52.29 87.314 0.809 0.588 0
21.912 52.132 87.902 0.809 0.509 0.294
21.912 51.702 88.332 0.809 0.294 0.509
21.912 51.114 88.49 0.809 -0 0.588
21.47 51.114 88.932 0.588 -0 0.809
18.686 48.936 90.875 0.5 -0.123 0.857
20.896 45.399 88.125 1 0 0
20.798 45.09 88.66 0.951 -0.155 0.268
20.798 44.781 88.125 0.951 -0.309 -0
20.798 45.09 87.59 0.951 -0.155 -0.268
20.514 45.399 89.301 0.809 -0 0.588
20.514 44.811 89.143 0.809 -0.294 0.509
20.514 44.381 88.713 0.809 -0.509 0.294
20.514 44.223 88.125 0.809 -0.588 0
20.514 44.381 87.537 0.809 -0.509 -0.294
20.072 45.399 89.743 0.588 -0 0.809
20.072 44.78 89.62 0.588 -0.31 0.747
20.072 44.255 89.269 0.588 -0.572 0.572
20.072 43.904 88.744 0.588 -0.747 0.31
20.072 43.781 88.125 0.588 -0.809 0
20.072 43.904 87.506 0.588 -0.747 -0.31
19.514 45.242 90.021 0.309 -0.079 0.948
19.514 44.635 89.867 0.309 -0.382 0.871
18.896 45.548 90.119 -0 0.075 0.997
22.777 50.985 82.549 0.951 0.309 0
22.493 50.955 83.567 0.809 0.294 0.509
22.493 50.367 83.725 0.809 -0 0.588
22.493 51.385 81.961 0.809 0.509 -0.294
20.875 52.019 81.422 -0 0.826 -0.563
22.072 53.208 84.206 1 0 0
21.933 53.815 84.206 0.901 0.434 0
21.933 53.512 84.732 0.901 0.217 0.376
21.933 53.512 83.68 0.901 0.217 -0.376
21.545 54.303 84.206 0.623 0.782 0
21.545 54.129 84.798 0.623 0.658 0.423
21.545 53.663 83.21 0.623 0.325 -0.711
21.545 54.129 83.614 0.623 0.658 -0.423
20.984 54.573 84.206 0.223 0.975 0
20.984 54.059 83.139 0.223 0.608 -0.762
20.984 54.438 83.614 0.223 0.878 -0.423
20.36 54.059 83.139 -0.223 0.608 -0.762
20.36 54.438 83.614 -0.223 0.878 -0.423
21.129 52.72 88.468 0.5 0.729 0.468
19.458 51.651 90.474 0.5 0.36 0.788
3 0 4 354
3 354 4 357
3 354 357 355
3 355 357 358
3 355 358 356
3 356 358 359
3 356 359 1
3 1 359 3
3 4 7 360
3 360 7 363
3 360 363 361
3 361 363 364
3 361 364 362
3 362 364 365
3 362 365 5
3 5 365 6
3 7 10 366
3 366 10 367
3 366 367 8
3 8 367 9
3 10 369 368
3 368 369 370
3 368 370 11
3 11 370 371
3 369 372 370
3 370 372 373
3 370 373 371
3 371 373 374
3 372 13 373
3 373 13 375
3 373 375 374
3 374 375 12
3 13 376 14
3 14 376 377
3 376 16 377
3 377 16 15
3 16 379 378
3 378 379 380
3 378 380 17
3 17 380 381
3 379 19 380
3 380 19 382
3 380 382 381
3 381 382 18
3 19 383 20
3 20 383 384
3 383 0 384
3 384 0 2
3 20 22 18
3 18 22 21
3 22 25 23
3 23 25 24
3 25 28 385
3 385 28 387
3 385 387 386
3 386 387 388
3 386 388 26
3 26 388 27
3 28 2 389
3 389 2 391
3 389 391 390
3 390 391 392
3 390 392 29
3 29 392 1
3 29 393 27
3 27 393 394
3 393 395 394
3 394 395 396
3 395 397 396
3 396 397 398
3 397 399 398
3 398 399 400
3 399 401 400
3 400 401 402
3 401 403 402
3 402 403 404
3 403 405 404
3 404 405 406
3 405 407 406
3 406 407 408
3 407 31 408
3 408 31 30
3 31 34 32
3 32 34 33
3 34 37 35
3 35 37 36
3 37 40 409
3 409 40 412
3 409 412 410
3 410 412 413
3 410 413 411
3 411 413 414
3 411 414 38
3 38 414 39
3 40 415 41
3 41 415 416
3 415 43 416
3 416 43 42
3 43 46 417
3 417 46 418
3 417 418 44
3 44 418 45
3 46 419 47
3 47 419 420
3 419 49 420
3 420 49 48
3 49 52 50
3 50 52 51
3 52 422 421
3 421 422 423
3 421 423 53
3 53 423 424
3 422 3 423
3 423 3 425
3 423 425 424
3 424 425 5
3 53 55 51
3 51 55 54
3 55 426 56
3 56 426 427
3 426 428 427
3 427 428 429
3 428 58 429
3 429 58 57
3 58 61 59
3 59 61 60
3 61 64 430
3 430 64 432
3 430 432 431
3 431 432 433
3 431 433 62
3 62 433 63
3 64 67 434
3 434 67 436
3 434 436 435
3 435 436 437
3 435 437 65
3 65 437 66
3 67 440 438
3 438 440 441
3 438 441 439
3 439 441 442
3 439 442 68
3 68 442 443
3 440 6 441
3 441 6 444
3 441 444 442
3 442 444 445
3 442 445 443
3 443 445 8
3 68 70 66
3 66 70 69
3 70 73 446
3 446 73 448
3 446 448 447
3 447 448 449
3 447 449 71
3 71 449 72
3 73 9 450
3 450 9 451
3 450 451 74
3 74 451 11
3 74 76 452
3 452 76 453
3 452 453 72
3 72 453 75
3 76 454 77
3 77 454 455
3 454 456 455
3 455 456 457
3 456 458 457
3 457 458 459
3 458 79 459
3 459 79 78
3 79 12 460
3 460 12 461
3 460 461 80
3 80 461 14
3 80 82 462
3 462 82 463
3 462 463 78
3 78 463 81
3 82 85 464
3 464 85 465
3 464 465 83
3 83 465 84
3 85 88 86
3 86 88 87
3 88 91 89
3 89 91 90
3 91 466 92
3 92 466 467
3 466 94 467
3 467 94 93
3 94 15 95
3 95 15 17
3 95 97 93
3 93 97 96
3 97 100 98
3 98 100 99
3 100 469 468
3 468 469 470
3 468 470 101
3 101 470 471
3 469 103 470
3 470 103 472
3 470 472 471
3 471 472 102
3 103 106 104
3 104 106 105
3 106 21 107
3 107 21 23
3 107 109 105
3 105 109 108
3 109 24 473
3 473 24 475
3 473 475 474
3 474 475 476
3 474 476 110
3 110 476 26
3 110 112 477
3 477 112 479
3 477 479 478
3 478 479 480
3 478 480 108
3 108 480 111
3 112 115 113
3 113 115 114
3 115 481 116
3 116 481 482
3 481 118 482
3 482 118 117
3 118 483 119
3 119 483 484
3 483 485 484
3 484 485 486
3 485 487 486
3 486 487 488
3 487 489 488
3 488 489 490
3 489 30 490
3 490 30 32
3 119 491 117
3 117 491 492
3 491 493 492
3 492 493 494
3 493 495 494
3 494 495 496
3 495 497 496
3 496 497 498
3 497 121 498
3 498 121 120
3 121 124 122
3 122 124 123
3 124 499 125
3 125 499 500
3 499 127 500
3 500 127 126
3 127 33 128
3 128 33 35
3 128 501 126
3 126 501 502
3 501 130 502
3 502 130 129
3 130 133 131
3 131 133 132
3 133 136 134
3 134 136 135
3 136 139 503
3 503 139 505
3 503 505 504
3 504 505 506
3 504 506 137
3 137 506 138
3 139 509 507
3 507 509 510
3 507 510 508
3 508 510 511
3 508 511 140
3 140 511 512
3 509 36 510
3 510 36 513
3 510 513 511
3 511 513 514
3 511 514 512
3 512 514 38
3 140 142 515
3 515 142 516
3 515 516 138
3 138 516 141
3 142 517 143
3 143 517 518
3 517 519 518
3 518 519 520
3 519 521 520
3 520 521 522
3 521 523 522
3 522 523 524
3 523 525 524
3 524 525 526
3 525 145 526
3 526 145 144
3 145 148 527
3 527 148 528
3 527 528 146
3 146 528 147
3 148 151 529
3 529 151 531
3 529 531 530
3 530 531 532
3 530 532 149
3 149 532 150
3 151 154 533
3 533 154 534
3 533 534 152
3 152 534 153
3 154 39 535
3 535 39 537
3 535 537 536
3 536 537 538
3 536 538 155
3 155 538 41
3 155 157 153
3 153 157 156
3 157 539 158
3 158 539 540
3 539 160 540
3 540 160 159
3 160 163 161
3 161 163 162
3 163 541 164
3 164 541 542
3 541 42 542
3 542 42 44
3 164 544 543
3 543 544 545
3 543 545 162
3 162 545 546
3 544 166 545
3 545 166 547
3 545 547 546
3 546 547 165
3 166 169 167
3 167 169 168
3 169 45 548
3 548 45 549
3 548 549 170
3 170 549 47
3 170 48 550
3 550 48 551
3 550 551 168
3 168 551 50
3 167 54 165
3 165 54 56
3 161 172 552
3 552 172 553
3 552 553 159
3 159 553 171
3 172 175 554
3 554 175 555
3 554 555 173
3 173 555 174
3 175 556 176
3 176 556 557
3 556 558 557
3 557 558 559
3 558 560 559
3 559 560 561
3 560 562 561
3 561 562 563
3 562 57 563
3 563 57 59
3 176 178 564
3 564 178 566
3 564 566 565
3 565 566 567
3 565 567 174
3 174 567 177
3 178 569 568
3 568 569 570
3 568 570 179
3 179 570 571
3 569 181 570
3 570 181 572
3 570 572 571
3 571 572 180
3 181 184 573
3 573 184 576
3 573 576 574
3 574 576 577
3 574 577 575
3 575 577 578
3 575 578 182
3 182 578 183
3 184 187 579
3 579 187 581
3 579 581 580
3 580 581 582
3 580 582 185
3 185 582 186
3 187 60 583
3 583 60 586
3 583 586 584
3 584 586 587
3 584 587 585
3 585 587 588
3 585 588 188
3 188 588 62
3 188 190 186
3 186 190 189
3 190 193 589
3 589 193 590
3 589 590 191
3 191 590 192
3 193 63 194
3 194 63 65
3 194 196 591
3 591 196 592
3 591 592 192
3 192 592 195
3 196 69 593
3 593 69 594
3 593 594 197
3 197 594 71
3 197 595 195
3 195 595 596
3 595 597 596
3 596 597 598
3 597 599 598
3 598 599 600
3 599 601 600
3 600 601 602
3 601 199 602
3 602 199 198
3 199 202 200
3 200 202 201
3 202 603 203
3 203 603 604
3 603 605 604
3 604 605 606
3 605 75 606
3 606 75 77
3 203 205 607
3 607 205 608
3 607 608 201
3 201 608 204
3 205 609 206
3 206 609 610
3 609 611 610
3 610 611 612
3 611 81 612
3 612 81 83
3 206 613 204
3 204 613 614
3 613 615 614
3 614 615 616
3 615 617 616
3 616 617 618
3 617 619 618
3 618 619 620
3 619 208 620
3 620 208 207
3 208 211 621
3 621 211 622
3 621 622 209
3 209 622 210
3 211 214 623
3 623 214 624
3 623 624 212
3 212 624 213
3 214 626 625
3 625 626 627
3 625 627 215
3 215 627 628
3 626 629 627
3 627 629 630
3 627 630 628
3 628 630 631
3 629 217 630
3 630 217 632
3 630 632 631
3 631 632 216
3 217 84 633
3 633 84 634
3 633 634 218
3 218 634 86
3 218 636 635
3 635 636 637
3 635 637 216
3 216 637 638
3 636 213 637
3 637 213 639
3 637 639 638
3 638 639 215
3 212 220 640
3 640 220 642
3 640 642 641
3 641 642 643
3 641 643 210
3 210 643 219
3 220 223 644
3 644 223 646
3 644 646 645
3 645 646 647
3 645 647 221
3 221 647 222
3 223 226 224
3 224 226 225
3 226 229 648
3 648 229 650
3 648 650 649
3 649 650 651
3 649 651 227
3 227 651 228
3 229 232 652
3 652 232 654
3 652 654 653
3 653 654 655
3 653 655 230
3 230 655 231
3 232 656 233
3 233 656 657
3 656 658 657
3 657 658 659
3 658 660 659
3 659 660 661
3 660 662 661
3 661 662 663
3 662 664 663
3 663 664 665
3 664 666 665
3 665 666 667
3 666 235 667
3 667 235 234
3 235 87 236
3 236 87 89
3 236 668 234
3 234 668 669
3 668 670 669
3 669 670 671
3 670 672 671
3 671 672 673
3 672 674 673
3 673 674 675
3 674 238 675
3 675 238 237
3 238 676 239
3 239 676 677
3 676 678 677
3 677 678 679
3 678 680 679
3 679 680 681
3 680 682 681
3 681 682 683
3 682 99 683
3 683 99 101
3 239 684 237
3 237 684 685
3 684 241 685
3 685 241 240
3 241 244 242
3 242 244 243
3 244 688 686
3 686 688 689
3 686 689 687
3 687 689 690
3 687 690 245
3 245 690 691
3 688 692 689
3 689 692 693
3 689 693 690
3 690 693 694
3 690 694 691
3 691 694 695
3 692 247 693
3 693 247 696
3 693 696 694
3 694 696 697
3 694 697 695
3 695 697 246
3 247 102 248
3 248 102 104
3 248 250 698
3 698 250 700
3 698 700 699
3 699 700 701
3 699 701 246
3 246 701 249
3 250 111 702
3 702 111 704
3 702 704 703
3 703 704 705
3 703 705 251
3 251 705 113
3 251 114 249
3 249 114 116
3 245 253 706
3 706 253 708
3 706 708 707
3 707 708 709
3 707 709 243
3 243 709 252
3 253 256 710
3 710 256 712
3 710 712 711
3 711 712 713
3 711 713 254
3 254 713 255
3 256 120 714
3 714 120 715
3 714 715 257
3 257 715 122
3 257 718 716
3 716 718 719
3 716 719 717
3 717 719 720
3 717 720 255
3 255 720 721
3 718 231 719
3 719 231 722
3 719 722 720
3 720 722 723
3 720 723 721
3 721 723 233
3 254 240 252
3 252 240 242
3 230 132 724
3 724 132 725
3 724 725 228
3 228 725 134
3 227 259 726
3 726 259 728
3 726 728 727
3 727 728 729
3 727 729 225
3 225 729 258
3 259 262 730
3 730 262 733
3 730 733 731
3 731 733 734
3 731 734 732
3 732 734 735
3 732 735 260
3 260 735 261
3 262 265 736
3 736 265 737
3 736 737 263
3 263 737 264
3 265 740 738
3 738 740 741
3 738 741 739
3 739 741 742
3 739 742 266
3 266 742 743
3 740 135 741
3 741 135 744
3 741 744 742
3 742 744 745
3 742 745 743
3 743 745 137
3 266 268 746
3 746 268 747
3 746 747 264
3 264 747 267
3 268 749 748
3 748 749 750
3 748 750 269
3 269 750 751
3 749 271 750
3 750 271 752
3 750 752 751
3 751 752 270
3 271 753 272
3 272 753 754
3 753 755 754
3 754 755 756
3 755 757 756
3 756 757 758
3 757 759 758
3 758 759 760
3 759 761 760
3 760 761 762
3 761 141 762
3 762 141 143
3 272 274 763
3 763 274 764
3 763 764 270
3 270 764 273
3 274 765 275
3 275 765 766
3 765 767 766
3 766 767 768
3 767 769 768
3 768 769 770
3 769 144 770
3 770 144 146
3 275 771 273
3 273 771 772
3 771 773 772
3 772 773 774
3 773 277 774
3 774 277 276
3 277 776 775
3 775 776 777
3 775 777 278
3 278 777 778
3 776 147 777
3 777 147 779
3 777 779 778
3 778 779 149
3 278 280 276
3 276 280 279
3 280 780 281
3 281 780 781
3 780 171 781
3 781 171 173
3 281 283 279
3 279 283 282
3 283 286 284
3 284 286 285
3 286 289 782
3 782 289 784
3 782 784 783
3 783 784 785
3 783 785 287
3 287 785 288
3 289 177 786
3 786 177 787
3 786 787 290
3 290 787 179
3 290 292 788
3 788 292 789
3 788 789 288
3 288 789 291
3 292 295 293
3 293 295 294
3 295 180 790
3 790 180 791
3 790 791 296
3 296 791 182
3 296 792 294
3 294 792 793
3 792 298 793
3 793 298 297
3 298 795 794
3 794 795 796
3 794 796 299
3 299 796 797
3 795 301 796
3 796 301 798
3 796 798 797
3 797 798 300
3 301 304 302
3 302 304 303
3 304 307 799
3 799 307 800
3 799 800 305
3 305 800 306
3 307 310 801
3 801 310 802
3 801 802 308
3 308 802 309
3 310 313 803
3 803 313 805
3 803 805 804
3 804 805 806
3 804 806 311
3 311 806 312
3 313 809 807
3 807 809 810
3 807 810 808
3 808 810 811
3 808 811 314
3 314 811 812
3 809 813 810
3 810 813 814
3 810 814 811
3 811 814 815
3 811 815 812
3 812 815 816
3 813 316 814
3 814 316 817
3 814 817 815
3 815 817 818
3 815 818 816
3 816 818 315
3 316 183 819
3 819 183 820
3 819 820 317
3 317 820 185
3 317 189 821
3 821 189 822
3 821 822 315
3 315 822 191
3 314 823 312
3 312 823 824
3 823 825 824
3 824 825 826
3 825 198 826
3 826 198 200
3 311 319 827
3 827 319 828
3 827 828 309
3 309 828 318
3 319 829 320
3 320 829 830
3 829 831 830
3 830 831 832
3 831 833 832
3 832 833 834
3 833 322 834
3 834 322 321
3 322 207 835
3 835 207 836
3 835 836 323
3 323 836 209
3 323 325 837
3 837 325 838
3 837 838 321
3 321 838 324
3 325 839 326
3 326 839 840
3 839 306 840
3 840 306 308
3 326 318 841
3 841 318 842
3 841 842 324
3 324 842 320
3 305 328 843
3 843 328 844
3 843 844 303
3 303 844 327
3 328 845 329
3 329 845 846
3 845 847 846
3 846 847 848
3 847 331 848
3 848 331 330
3 331 334 849
3 849 334 851
3 849 851 850
3 850 851 852
3 850 852 332
3 332 852 333
3 334 261 853
3 853 261 855
3 853 855 854
3 854 855 856
3 854 856 335
3 335 856 263
3 335 267 333
3 333 267 269
3 332 859 857
3 857 859 860
3 857 860 858
3 858 860 861
3 858 861 330
3 330 861 862
3 859 337 860
3 860 337 863
3 860 863 861
3 861 863 864
3 861 864 862
3 862 864 336
3 337 340 865
3 865 340 866
3 865 866 338
3 338 866 339
3 340 343 867
3 867 343 868
3 867 868 341
3 341 868 342
3 343 870 869
3 869 870 871
3 869 871 344
3 344 871 872
3 870 346 871
3 871 346 873
3 871 873 872
3 872 873 345
3 346 282 347
3 347 282 284
3 347 285 874
3 874 285 875
3 874 875 345
3 345 875 287
3 344 877 876
3 876 877 878
3 876 878 342
3 342 878 879
3 877 339 878
3 878 339 880
3 878 880 879
3 879 880 341
3 338 349 881
3 881 349 882
3 881 882 336
3 336 882 348
3 349 883 350
3 350 883 884
3 883 300 884
3 884 300 302
3 350 327 348
3 348 327 329
3 299 885 297
3 297 885 886
3 885 291 886
3 886 291 293
3 260 352 887
3 887 352 889
3 887 889 888
3 888 889 890
3 888 890 258
3 258 890 351
3 352 891 353
3 353 891 892
3 891 893 892
3 892 893 894
3 893 219 894
3 894 219 221
3 353 897 895
3 895 897 898
3 895 898 896
3 896 898 899
3 896 899 351
3 351 899 900
3 897 222 898
3 898 222 901
3 898 901 899
3 899 901 902
3 899 902 900
3 900 902 224
3 158 150 156
3 156 150 152
3 131 123 129
3 129 123 125
3 98 903 96
3 96 903 904
3 903 90 904
3 904 90 92
3 2 0 354
3 2 354 391
3 391 354 355
3 391 355 392
3 392 355 356
3 392 356 1
3 906 905 907
3 907 905 908
3 908 905 909
3 425 3 908
3 425 908 909
3 425 909 5
3 5 909 362
3 362 909 905
3 362 905 361
3 361 905 906
3 361 906 360
3 360 906 357
3 360 357 4
3 357 906 358
3 358 906 907
3 358 907 359
3 359 907 908
3 359 908 3
3 444 6 365
3 444 365 445
3 445 365 364
3 445 364 8
3 8 364 363
3 8 363 366
3 366 363 7
3 451 9 367
3 451 367 368
3 451 368 11
3 368 367 10
3 461 12 375
3 461 375 13
3 461 13 14
3 17 15 378
3 378 15 16
3 20 18 382
3 20 382 19
3 23 21 22
3 475 24 25
3 475 25 385
3 475 385 476
3 476 385 386
3 476 386 26
3 29 27 390
3 390 27 388
3 390 388 389
3 389 388 387
3 389 387 28
3 32 30 31
3 35 33 34
3 513 36 409
3 513 409 410
3 513 410 514
3 514 410 411
3 514 411 38
3 409 36 37
3 537 39 414
3 537 414 413
3 537 413 538
3 538 413 910
3 538 910 41
3 41 910 40
3 40 910 412
3 412 910 413
3 44 42 417
3 417 42 43
3 549 45 418
3 549 418 46
3 549 46 47
3 551 48 49
3 551 49 50
3 53 51 421
3 421 51 52
3 56 54 55
3 59 57 58
3 586 60 61
3 586 61 430
3 586 430 587
3 587 430 431
3 587 431 588
3 588 431 62
3 65 63 435
3 435 63 433
3 435 433 434
3 434 433 432
3 434 432 64
3 68 66 439
3 439 66 437
3 439 437 438
3 438 437 436
3 438 436 67
3 594 69 446
3 594 446 447
3 594 447 71
3 446 69 70
3 452 72 449
3 452 449 448
3 452 448 450
3 452 450 74
3 450 448 73
3 77 75 453
3 77 453 76
3 462 78 79
3 462 79 460
3 462 460 80
3 83 81 463
3 83 463 464
3 464 463 82
3 634 84 465
3 634 465 85
3 634 85 86
3 89 87 88
3 92 90 91
3 95 93 94
3 98 96 97
3 101 99 468
3 468 99 100
3 104 102 472
3 104 472 103
3 107 105 106
3 478 108 473
3 478 473 474
3 478 474 477
3 477 474 110
3 473 108 109
3 704 111 480
3 704 480 705
3 705 480 479
3 705 479 113
3 113 479 112
3 116 114 115
3 119 117 118
3 715 120 121
3 715 121 122
3 125 123 124
3 128 126 127
3 131 129 130
3 725 132 133
3 725 133 134
3 744 135 503
3 744 503 504
3 744 504 745
3 745 504 137
3 503 135 136
3 515 138 911
3 515 911 912
3 515 912 508
3 515 508 140
3 508 912 507
3 507 912 505
3 507 505 139
3 505 912 506
3 506 912 911
3 506 911 138
3 143 141 516
3 143 516 142
3 146 144 527
3 527 144 145
3 779 147 530
3 779 530 149
3 530 147 528
3 530 528 529
3 529 528 148
3 152 150 532
3 152 532 533
3 533 532 531
3 533 531 151
3 155 153 536
3 536 153 534
3 536 534 535
3 535 534 154
3 158 156 157
3 552 159 160
3 552 160 161
3 543 162 163
3 543 163 164
3 167 165 547
3 167 547 166
3 550 168 548
3 550 548 170
3 548 168 169
3 173 171 554
3 554 171 553
3 554 553 172
3 565 174 555
3 565 555 564
3 564 555 175
3 564 175 176
3 787 177 567
3 787 567 566
3 787 566 568
3 787 568 179
3 568 566 178
3 791 180 574
3 791 574 575
3 791 575 182
3 574 180 573
3 573 180 572
3 573 572 181
3 820 183 578
3 820 578 913
3 820 913 185
3 185 913 580
3 580 913 914
3 580 914 579
3 579 914 576
3 579 576 184
3 576 914 577
3 577 914 913
3 577 913 578
3 188 186 585
3 585 186 582
3 585 582 584
3 584 582 581
3 584 581 583
3 583 581 187
3 822 189 190
3 822 190 589
3 822 589 191
3 591 192 590
3 591 590 193
3 591 193 194
3 197 195 592
3 197 592 593
3 593 592 196
3 200 198 199
3 607 201 202
3 607 202 203
3 206 204 608
3 206 608 205
3 836 207 621
3 836 621 209
3 621 207 208
3 641 210 622
3 641 622 915
3 641 915 640
3 640 915 623
3 640 623 212
3 623 915 211
3 211 915 622
3 639 213 624
3 639 624 214
3 639 214 625
3 639 625 215
3 635 216 632
3 635 632 217
3 635 217 633
3 635 633 218
3 221 219 643
3 221 643 645
3 645 643 642
3 645 642 644
3 644 642 220
3 901 222 647
3 901 647 902
3 902 647 646
3 902 646 224
3 224 646 223
3 727 225 226
3 727 226 648
3 727 648 726
3 726 648 649
3 726 649 227
3 724 228 651
3 724 651 916
3 724 916 653
3 724 653 230
3 653 916 652
3 652 916 650
3 652 650 229
3 650 916 651
3 722 231 655
3 722 655 723
3 723 655 654
3 723 654 233
3 233 654 232
3 236 234 235
3 239 237 238
3 242 240 241
3 707 243 686
3 707 686 687
3 707 687 706
3 706 687 245
3 686 243 244
3 699 246 697
3 699 697 698
3 698 697 696
3 698 696 248
3 248 696 247
3 251 249 701
3 251 701 703
3 703 701 700
3 703 700 702
3 702 700 250
3 254 252 711
3 711 252 709
3 711 709 710
3 710 709 708
3 710 708 253
3 717 255 713
3 717 713 917
3 717 917 716
3 716 917 714
3 716 714 257
3 714 917 712
3 714 712 256
3 712 917 713
3 918 919 921
3 920 918 921
3 888 258 919
3 888 919 887
3 887 919 918
3 887 918 732
3 887 732 260
3 732 918 731
3 731 918 920
3 731 920 730
3 730 920 728
3 730 728 259
3 728 920 921
3 728 921 729
3 729 921 919
3 729 919 258
3 855 261 735
3 855 735 734
3 855 734 923
3 855 923 856
3 856 923 922
3 856 922 263
3 263 922 736
3 736 922 923
3 736 923 733
3 736 733 262
3 733 923 734
3 746 264 737
3 746 737 739
3 746 739 266
3 739 737 738
3 738 737 265
3 269 267 748
3 748 267 747
3 748 747 268
3 763 270 752
3 763 752 272
3 272 752 271
3 275 273 764
3 275 764 274
3 278 276 775
3 775 276 277
3 281 279 280
3 284 282 283
3 875 285 782
3 875 782 783
3 875 783 287
3 782 285 286
3 788 288 785
3 788 785 786
3 788 786 290
3 786 785 784
3 786 784 289
3 293 291 789
3 293 789 292
3 296 294 790
3 790 294 295
3 299 297 794
3 794 297 298
3 302 300 798
3 302 798 301
3 843 303 799
3 843 799 305
3 799 303 304
3 308 306 801
3 801 306 800
3 801 800 307
3 827 309 802
3 827 802 804
3 827 804 311
3 804 802 803
3 803 802 310
3 314 312 808
3 808 312 806
3 808 806 807
3 807 806 805
3 807 805 313
3 821 315 818
3 821 818 317
3 317 818 817
3 317 817 819
3 819 817 316
3 842 318 828
3 842 828 319
3 842 319 320
3 837 321 322
3 837 322 835
3 837 835 323
3 841 324 838
3 841 838 325
3 841 325 326
3 329 327 844
3 329 844 328
3 858 330 849
3 858 849 850
3 858 850 857
3 857 850 332
3 849 330 331
3 335 333 854
3 854 333 852
3 854 852 853
3 853 852 851
3 853 851 334
3 881 336 924
3 881 924 338
3 338 924 865
3 865 924 863
3 865 863 337
3 863 924 864
3 864 924 336
3 880 339 866
3 880 866 341
3 341 866 867
3 867 866 340
3 876 342 869
3 876 869 344
3 869 342 868
3 869 868 343
3 874 345 873
3 874 873 346
3 874 346 347
3 350 348 882
3 350 882 349
3 896 351 890
3 896 890 895
3 895 890 889
3 895 889 353
3 353 889 352
3 925 931 932
3 926 925 932
3 928 927 933
3 929 928 933
3 930 929 933
3 931 930 933
3 932 931 933
3 927 932 933
3 932 927 10
3 932 10 926
3 926 10 7
3 926 7 4
3 926 4 0
3 926 0 925
3 925 0 383
3 925 383 931
3 931 383 19
3 931 19 930
3 930 19 379
3 930 379 929
3 929 379 16
3 929 16 376
3 929 376 372
3 929 372 928
3 928 372 369
3 928 369 927
3 927 369 10
3 372 376 13
3 934 935 936
3 936 935 937
3 936 937 43
3 936 43 415
3 936 415 934
3 934 415 40
3 934 40 37
3 934 37 407
3 934 407 405
3 934 405 935
3 935 405 403
3 935 403 937
3 937 403 401
3 937 401 399
3 937 399 46
3 937 46 43
3 46 399 419
3 419 399 397
3 419 397 395
3 419 395 938
3 419 938 49
3 49 938 52
3 52 938 422
3 422 938 1
3 422 1 3
3 1 938 393
3 1 393 29
3 393 938 395
3 407 37 31
3 31 37 34
3 440 67 58
3 440 58 428
3 440 428 6
3 6 428 426
3 6 426 424
3 6 424 5
3 424 426 53
3 53 426 55
3 58 67 61
3 61 67 64
3 9 73 443
3 9 443 8
3 443 73 70
3 443 70 68
3 12 79 458
3 12 458 456
3 12 456 374
3 374 456 454
3 374 454 371
3 371 454 76
3 371 76 11
3 11 76 74
3 15 94 377
3 377 94 466
3 377 466 939
3 377 939 14
3 14 939 80
3 80 939 82
3 82 939 91
3 82 91 85
3 85 91 88
3 91 939 466
3 18 21 943
3 18 943 381
3 381 943 942
3 381 942 941
3 381 941 17
3 17 941 95
3 95 941 940
3 95 940 97
3 97 940 100
3 100 940 469
3 469 940 942
3 469 942 103
3 103 942 943
3 103 943 106
3 106 943 21
3 942 940 941
3 2 28 384
3 384 28 25
3 384 25 22
3 384 22 20
3 24 109 107
3 24 107 23
3 945 948 949
3 946 945 949
3 946 949 950
3 947 953 954
3 948 947 954
3 948 954 955
3 949 948 955
3 949 955 956
3 950 949 956
3 951 957 958
3 952 951 958
3 952 958 959
3 953 952 959
3 954 953 959
3 954 959 960
3 955 954 960
3 955 960 961
3 956 955 961
3 958 957 962
3 958 962 963
3 959 958 963
3 960 959 963
3 960 963 964
3 961 960 964
3 963 962 965
3 964 963 965
3 964 965 398
3 964 398 961
3 961 398 400
3 961 400 956
3 956 400 402
3 956 402 950
3 950 402 404
3 950 404 946
3 946 404 406
3 946 406 944
3 946 944 487
3 946 487 945
3 945 487 485
3 945 485 483
3 945 483 948
3 948 483 118
3 948 118 947
3 947 118 481
3 947 481 953
3 953 481 952
3 952 481 115
3 952 115 951
3 951 115 112
3 951 112 110
3 951 110 957
3 957 110 26
3 957 26 962
3 962 26 394
3 962 394 965
3 965 394 396
3 965 396 398
3 394 26 27
3 487 944 489
3 489 944 408
3 489 408 30
3 408 944 406
3 967 966 968
3 967 968 969
3 967 969 490
3 967 490 127
3 967 127 499
3 967 499 966
3 966 499 497
3 966 497 495
3 966 495 968
3 968 495 493
3 968 493 486
3 968 486 488
3 968 488 969
3 969 488 490
3 486 493 491
3 486 491 484
3 484 491 119
3 497 499 124
3 497 124 121
3 127 490 32
3 127 32 33
3 509 139 501
3 509 501 128
3 509 128 35
3 509 35 36
3 501 139 130
3 130 139 136
3 130 136 133
3 970 974 975
3 971 970 975
3 971 975 976
3 972 971 976
3 972 976 977
3 973 972 977
3 973 977 978
3 975 974 979
3 975 979 980
3 976 975 980
3 977 976 980
3 977 980 981
3 978 977 981
3 978 981 982
3 978 982 525
3 978 525 523
3 978 523 973
3 973 523 521
3 973 521 972
3 972 521 519
3 972 519 971
3 971 519 517
3 971 517 970
3 970 517 142
3 970 142 512
3 970 512 974
3 974 512 38
3 974 38 979
3 979 38 39
3 979 39 980
3 980 39 981
3 981 39 154
3 981 154 982
3 982 154 151
3 982 151 148
3 982 148 145
3 982 145 525
3 512 142 140
3 541 163 539
3 541 539 157
3 541 157 983
3 541 983 42
3 42 983 416
3 416 983 41
3 41 983 155
3 155 983 157
3 539 163 160
3 45 169 544
3 45 544 542
3 45 542 44
3 542 544 164
3 544 169 166
3 48 170 984
3 48 984 420
3 420 984 47
3 47 984 170
3 51 54 50
3 50 54 167
3 50 167 168
3 987 986 988
3 987 988 560
3 987 560 558
3 987 558 985
3 987 985 546
3 987 546 986
3 986 546 165
3 986 165 56
3 986 56 427
3 986 427 988
3 988 427 429
3 988 429 562
3 988 562 560
3 562 429 57
3 546 985 162
3 162 985 161
3 161 985 556
3 161 556 172
3 172 556 175
3 556 985 558
3 990 989 993
3 991 990 994
3 990 993 994
3 994 993 559
3 994 559 561
3 994 561 563
3 994 563 991
3 991 563 992
3 991 992 184
3 991 184 181
3 991 181 990
3 990 181 569
3 990 569 989
3 989 569 178
3 989 178 176
3 989 176 557
3 989 557 993
3 993 557 559
3 184 992 187
3 187 992 60
3 60 992 59
3 59 992 563
3 63 193 62
3 62 193 190
3 62 190 188
3 66 69 196
3 66 196 65
3 65 196 194
3 72 75 998
3 72 998 71
3 71 998 595
3 71 595 197
3 595 998 597
3 597 998 996
3 597 996 599
3 599 996 997
3 599 997 995
3 599 995 601
3 601 995 199
3 199 995 202
3 202 995 603
3 603 995 997
3 603 997 605
3 605 997 996
3 605 996 75
3 75 996 998
3 999 1001 1002
3 1000 999 1002
3 1000 1002 459
3 1000 459 78
3 1000 78 611
3 1000 611 609
3 1000 609 999
3 999 609 205
3 999 205 203
3 999 203 604
3 999 604 1001
3 1001 604 606
3 1001 606 455
3 1001 455 457
3 1001 457 1002
3 1002 457 459
3 455 606 77
3 611 78 81
3 84 217 612
3 84 612 83
3 612 217 629
3 612 629 1003
3 612 1003 610
3 610 1003 613
3 610 613 206
3 613 1003 615
3 615 1003 629
3 615 629 626
3 615 626 617
3 617 626 619
3 619 626 214
3 619 214 208
3 208 214 211
3 87 235 86
3 656 232 229
3 656 229 226
3 656 226 658
3 658 226 223
3 658 223 660
3 660 223 662
3 662 223 213
3 662 213 636
3 662 636 664
3 664 636 666
3 666 636 218
3 666 218 235
3 235 218 86
3 213 223 220
3 213 220 212
3 236 89 668
3 1006 1005 1007
3 1006 1007 680
3 1006 680 678
3 1006 678 1004
3 1006 1004 670
3 1006 670 1005
3 1005 670 668
3 1005 668 89
3 1005 89 90
3 1005 90 1007
3 1007 90 903
3 1007 903 682
3 1007 682 680
3 682 903 98
3 682 98 99
3 670 1004 672
3 672 1004 676
3 672 676 674
3 674 676 238
3 676 1004 678
3 93 96 904
3 93 904 467
3 467 904 92
3 1008 1011 1012
3 1009 1008 1012
3 1009 1012 1013
3 1010 1009 1013
3 1010 1013 1014
3 1011 1015 1016
3 1012 1011 1016
3 1012 1016 1017
3 1013 1012 1017
3 1013 1017 1018
3 1014 1013 1018
3 1016 1015 1019
3 1016 1019 1020
3 1017 1016 1020
3 1017 1020 1021
3 1018 1017 1021
3 1018 1021 247
3 1018 247 692
3 1018 692 1014
3 1014 692 688
3 1014 688 1010
3 1010 688 244
3 1010 244 241
3 1010 241 684
3 1010 684 1009
3 1009 684 239
3 1009 239 1008
3 1008 239 677
3 1008 677 1011
3 1011 677 679
3 1011 679 1015
3 1015 679 681
3 1015 681 683
3 1015 683 1019
3 1019 683 101
3 1019 101 1020
3 1020 101 471
3 1020 471 1021
3 1021 471 102
3 1021 102 247
3 105 108 111
3 105 111 250
3 105 250 104
3 104 250 248
3 114 251 113
3 1022 1023 1024
3 1023 1025 1026
3 1024 1023 1026
3 1024 1026 1027
3 1026 1025 1028
3 1026 1028 1029
3 1027 1026 1029
3 1027 1029 492
3 1027 492 494
3 1027 494 496
3 1027 496 1024
3 1024 496 498
3 1024 498 1022
3 1022 498 120
3 1022 120 256
3 1022 256 1023
3 1023 256 253
3 1023 253 245
3 1023 245 1025
3 1025 245 691
3 1025 691 695
3 1025 695 1028
3 1028 695 1030
3 1028 1030 482
3 1028 482 1029
3 1029 482 117
3 1029 117 492
3 482 1030 116
3 116 1030 246
3 116 246 249
3 246 1030 695
3 123 131 1031
3 123 1031 122
3 122 1031 257
3 257 1031 718
3 718 1031 132
3 718 132 231
3 231 132 230
3 132 1031 131
3 502 129 500
3 502 500 126
3 500 129 125
3 740 265 227
3 740 227 228
3 740 228 134
3 740 134 135
3 227 265 262
3 227 262 259
3 1032 1033 1034
3 1032 1034 1035
3 1032 1035 1036
3 1034 1037 1038
3 1035 1034 1038
3 1035 1038 1039
3 1035 1039 1040
3 1036 1035 1040
3 1036 1040 1041
3 1039 1038 1042
3 1039 1042 1043
3 1039 1043 1044
3 1040 1039 1044
3 1040 1044 1045
3 1041 1040 1045
3 1041 1045 761
3 1041 761 759
3 1041 759 757
3 1041 757 1036
3 1036 757 1032
3 1032 757 755
3 1032 755 1033
3 1033 755 753
3 1033 753 271
3 1033 271 749
3 1033 749 1034
3 1034 749 1037
3 1037 749 268
3 1037 268 1038
3 1038 268 1042
3 1042 268 266
3 1042 266 743
3 1042 743 1043
3 1043 743 137
3 1043 137 1044
3 1044 137 138
3 1044 138 1045
3 1045 138 141
3 1045 141 761
3 1046 1049 1050
3 1046 1050 1051
3 1047 1046 1051
3 1047 1051 1052
3 1047 1052 1053
3 1049 1054 1055
3 1050 1049 1055
3 1050 1055 1056
3 1051 1050 1056
3 1051 1056 1057
3 1051 1057 1058
3 1052 1051 1058
3 1052 1058 1059
3 1053 1052 1059
3 1058 1057 1060
3 1058 1060 1061
3 1059 1058 1061
3 1059 1061 767
3 1059 767 765
3 1059 765 1053
3 1053 765 1048
3 1053 1048 754
3 1053 754 1047
3 1047 754 756
3 1047 756 1046
3 1046 756 758
3 1046 758 1049
3 1049 758 760
3 1049 760 1054
3 1054 760 762
3 1054 762 518
3 1054 518 520
3 1054 520 1055
3 1055 520 522
3 1055 522 1056
3 1056 522 1057
3 1057 522 524
3 1057 524 1060
3 1060 524 526
3 1060 526 1061
3 1061 526 769
3 1061 769 767
3 769 526 144
3 518 762 143
3 754 1048 272
3 272 1048 274
3 274 1048 765
3 776 277 1063
3 776 1063 770
3 776 770 146
3 776 146 147
3 770 1063 1062
3 770 1062 768
3 768 1062 766
3 766 1062 771
3 766 771 275
3 771 1062 773
3 773 1062 1063
3 773 1063 277
3 150 158 1064
3 150 1064 149
3 149 1064 778
3 778 1064 780
3 778 780 278
3 278 780 280
3 780 1064 540
3 780 540 159
3 780 159 171
3 540 1064 158
3 153 156 152
3 286 283 289
3 1066 1065 1067
3 1066 1067 289
3 1066 289 283
3 1066 283 281
3 1066 281 1065
3 1065 281 781
3 1065 781 1067
3 1067 781 173
3 1067 173 174
3 1067 174 177
3 1067 177 289
3 180 295 571
3 571 295 292
3 571 292 179
3 179 292 290
3 1068 1070 1071
3 1070 1069 1073
3 1070 1073 1074
3 1071 1070 1074
3 1069 1075 1072
3 1069 1072 1073
3 1073 1072 1076
3 1073 1076 1077
3 1074 1073 1077
3 1076 1075 1078
3 1072 1075 1076
3 1077 1076 1079
3 1076 1078 1079
3 1079 1078 182
3 1079 182 183
3 1079 183 316
3 1079 316 813
3 1079 813 1077
3 1077 813 809
3 1077 809 1074
3 1074 809 313
3 1074 313 1071
3 1071 313 310
3 1071 310 307
3 1071 307 1068
3 1068 307 304
3 1068 304 301
3 1068 301 1069
3 1068 1069 1070
3 1069 301 795
3 1069 795 1075
3 1075 795 298
3 1075 298 792
3 1075 792 1078
3 1078 792 296
3 1078 296 182
3 186 189 185
3 189 317 185
3 1080 1082 1083
3 1080 1083 825
3 1080 825 823
3 1080 823 314
3 1080 314 812
3 1080 812 1081
3 1080 1081 1082
3 1082 1081 600
3 1082 600 602
3 1082 602 1083
3 1083 602 198
3 1083 198 825
3 600 1081 598
3 598 1081 1084
3 598 1084 596
3 596 1084 315
3 596 315 191
3 596 191 192
3 596 192 195
3 315 1084 816
3 816 1084 1081
3 816 1081 812
3 201 204 200
3 200 204 1087
3 200 1087 826
3 826 1087 1086
3 826 1086 824
3 824 1086 829
3 824 829 1085
3 824 1085 312
3 312 1085 311
3 311 1085 319
3 319 1085 829
3 829 1086 1087
3 829 1087 831
3 831 1087 614
3 831 614 616
3 831 616 833
3 833 616 618
3 833 618 620
3 833 620 322
3 322 620 207
3 614 1087 204
3 1088 1089 1090
3 1088 1090 1091
3 1090 1089 1094
3 1090 1094 1095
3 1090 1095 1096
3 1091 1090 1096
3 1089 1093 1094
3 1094 1093 305
3 1094 305 839
3 1094 839 1095
3 1095 839 325
3 1095 325 1097
3 1095 1097 1096
3 1096 1097 893
3 1096 893 1091
3 1091 893 891
3 1091 891 1088
3 1088 891 1092
3 1088 1092 845
3 1088 845 1089
3 1089 845 1093
3 1093 845 328
3 1093 328 305
3 845 1092 847
3 847 1092 331
3 331 1092 891
3 331 891 334
3 334 891 261
3 261 891 352
3 261 352 260
3 893 1097 323
3 893 323 209
3 893 209 219
3 219 209 210
3 323 1097 325
3 839 305 306
3 638 215 1098
3 638 1098 631
3 638 631 216
3 631 1098 628
3 628 1098 215
3 897 353 892
3 897 892 894
3 897 894 222
3 222 894 221
3 225 258 351
3 225 351 900
3 900 224 225
3 1099 1100 1101
3 1099 1101 1102
3 1100 1103 1104
3 1100 1104 1105
3 1101 1100 1105
3 1101 1105 1106
3 1101 1106 1107
3 1102 1101 1107
3 1103 1108 1109
3 1104 1103 1109
3 1104 1109 1110
3 1105 1104 1110
3 1105 1110 1111
3 1106 1105 1111
3 1106 1111 1112
3 1106 1112 1113
3 1107 1106 1113
3 1109 1108 1114
3 1109 1114 1115
3 1109 1115 1110
3 1110 1115 675
3 1110 675 237
3 1110 237 1111
3 1111 237 685
3 1111 685 1112
3 1112 685 240
3 1112 240 1113
3 1113 240 254
3 1113 254 255
3 1113 255 1107
3 1107 255 721
3 1107 721 1102
3 1102 721 233
3 1102 233 657
3 1102 657 1099
3 1099 657 659
3 1099 659 1100
3 1100 659 661
3 1100 661 1103
3 1103 661 663
3 1103 663 1108
3 1108 663 665
3 1108 665 1114
3 1114 665 1116
3 1114 1116 671
3 1114 671 1115
3 1115 671 673
3 1115 673 675
3 671 1116 669
3 669 1116 667
3 669 667 234
3 667 1116 665
3 243 252 242
3 264 267 335
3 264 335 263
3 282 346 279
3 270 273 1117
3 270 1117 751
3 751 1117 1118
3 751 1118 1119
3 751 1119 269
3 269 1119 332
3 269 332 333
3 332 1119 859
3 859 1119 1118
3 859 1118 337
3 337 1118 340
3 340 1118 1117
3 340 1117 1120
3 340 1120 343
3 343 1120 772
3 343 772 774
3 343 774 870
3 870 774 1121
3 870 1121 346
3 346 1121 279
3 279 1121 774
3 279 774 276
3 772 1120 273
3 273 1120 1117
3 284 285 347
3 345 287 872
3 1122 1123 1124
3 1122 1125 1123
3 1124 1123 1127
3 1125 1128 1129
3 1123 1125 1129
3 1123 1129 1126
3 1123 1126 1127
3 1129 1128 1131
3 1129 1131 1132
3 1126 1129 1132
3 1126 1132 1130
3 1131 1133 1134
3 1132 1131 1134
3 1130 1132 1134
3 1130 1134 299
3 1130 299 797
3 1130 797 300
3 1130 300 1127
3 1130 1127 1126
3 1127 300 883
3 1127 883 1124
3 1124 883 349
3 1124 349 338
3 1124 338 1122
3 1122 338 339
3 1122 339 877
3 1122 877 1125
3 1125 877 1128
3 1128 877 344
3 1128 344 872
3 1128 872 1131
3 1131 872 1133
3 1133 872 287
3 1133 287 288
3 1133 288 291
3 1133 291 885
3 1133 885 1134
3 1134 885 299
3 793 297 886
3 793 886 294
3 294 886 293
3 303 327 884
3 303 884 302
3 884 327 350
3 309 318 1135
3 309 1135 308
3 308 1135 840
3 840 1135 326
3 326 1135 318
3 321 324 1136
3 321 1136 834
3 834 1136 832
3 832 1136 830
3 830 1136 320
3 320 1136 324
3 862 336 848
3 862 848 330
3 848 336 846
3 846 336 348
3 846 348 329
3 879 341 342
