ply
format ascii 1.0
comment Generated by PyMesh
element vertex 781
property float x
property float y
property float z
property float nx
property float ny
property float nz
element face 1558
property list uchar int vertex_indices
end_header
21.704 41.962 67.025 -0.084 -0.179 -0.98
21.92 42.225 66.915 -0.228 -0.354 -0.907
22.643 41.07 66.406 -0.71 0.416 -0.568
21.994 41.296 69.128 -0.184 -0.9 0.395
21.766 41.185 68.876 -0.032 -0.826 0.562
22.718 40.141 68.619 -0.667 -0.131 0.734
22.115 41.325 69.232 -0.113 -0.883 0.456
22.839 40.171 68.723 -0.596 -0.113 0.795
22.955 40.679 69.038 -0.673 -0.452 0.585
24.034 40.186 69.273 -0.133 -0.699 0.703
23.842 39.712 68.941 -0.005 -0.383 0.924
24.317 39.392 68.93 -0.322 -0.17 0.931
23.539 38.552 67.834 -0.711 -0.589 0.383
23.118 38.931 67.922 -0.431 -0.842 0.324
22.912 37.273 67.03 -0.293 0.263 0.919
22.902 38.131 65.212 -0.3 0.875 -0.379
23.108 39.875 65.922 -0.437 -0.287 -0.852
23.527 39.567 65.682 -0.717 -0.082 -0.692
24.2 40.806 65.562 -0.381 0.537 -0.752
23.733 41.027 65.81 -0.069 0.39 -0.918
23.917 41.6 65.905 -0.192 0.008 -0.981
22.868 41.752 66.483 -0.717 0.084 -0.692
22.758 41.167 66.348 -0.643 0.473 -0.602
22.034 42.322 66.857 -0.161 -0.297 -0.941
22.967 41.94 66.421 -0.667 0.178 -0.723
22.126 42.497 66.799 -0.106 -0.193 -0.975
22.684 42.427 66.635 -0.478 -0.146 -0.866
22.931 44.51 67.827 -0.354 0.895 -0.27
22.356 44.434 67.907 0.029 0.946 -0.323
23.338 44.869 68.056 -0.626 0.656 -0.422
23.331 44.877 68.079 -0.63 0.66 -0.409
22.349 44.442 67.93 0.025 0.95 -0.31
22.146 44.577 68.191 0.16 0.861 -0.483
22.206 43.858 69.902 0.21 0.262 0.942
22.421 43.583 69.975 0.067 0.445 0.893
23.403 44.018 70.124 -0.588 0.155 0.794
23.409 44.001 70.132 -0.584 0.145 0.799
22.427 43.566 69.983 0.071 0.435 0.898
23.007 43.576 70.06 -0.316 0.428 0.846
22.778 41.256 69.423 -0.431 -0.732 0.528
22.214 41.409 69.391 -0.055 -0.834 0.549
23.061 40.769 69.209 -0.62 -0.407 0.671
24.448 41.96 70.032 0.404 -0.379 0.833
24.731 41.474 69.818 0.215 -0.055 0.975
25.322 41.501 69.809 -0.179 -0.073 0.981
25.365 40.42 69.395 -0.158 -0.613 0.774
24.774 40.393 69.404 0.236 -0.595 0.768
25.057 39.599 69.06 0.048 -0.066 0.997
25.498 40.376 69.38 -0.092 -0.635 0.767
25.189 39.555 69.046 0.114 -0.088 0.99
26.656 39.48 69.776 -0.864 -0.038 0.503
26.656 39.453 69.774 -0.864 -0.061 0.501
25.189 39.519 69.043 0.114 -0.106 0.988
26.52 39.337 69.574 -0.773 0.016 0.634
26.499 38.817 69.448 -0.784 -0.244 0.571
25.168 38.999 68.917 0.104 -0.366 0.925
26.376 38.203 69.264 -0.701 0.165 0.693
26.229 37.926 69.141 -0.775 0.027 0.632
25.021 38.723 68.793 0.03 -0.504 0.863
26.077 37.755 69 -0.674 0.141 0.725
25.783 37.158 68.328 -0.919 -0.357 0.165
24.642 37.955 67.929 -0.159 -0.888 0.431
25.112 36.814 67.268 -0.473 -0.127 0.872
25.033 36.808 67.221 -0.529 -0.132 0.838
24.549 37.948 67.873 -0.206 -0.892 0.403
23.765 36.763 67.063 0.316 -0.102 0.943
25.038 36.716 67.206 -0.525 -0.197 0.828
23.77 36.671 67.049 0.32 -0.167 0.933
24.405 36.411 66.955 -0.103 0.006 0.995
24.068 35.776 66.771 -0.291 -0.346 0.892
23.472 36.109 66.885 0.107 -0.569 0.816
24.166 35.03 66.725 -0.356 0.151 0.922
23.305 34.715 65.112 -0.97 -0.073 -0.23
22.611 35.795 65.271 -0.508 -0.793 -0.337
23.096 35.421 64.947 -0.831 -0.544 -0.121
23.24 36.809 64.048 -0.751 0.228 -0.62
22.739 37.024 64.476 -0.416 0.085 -0.905
23.556 36.887 63.436 -0.961 0.176 -0.212
23.982 37.694 63.665 -0.657 0.752 -0.048
23.165 37.831 64.705 -0.112 0.661 -0.742
23.722 37.721 64.307 -0.483 0.735 -0.477
23.911 37.941 64.532 -0.378 0.857 -0.352
23.333 38.025 64.903 0.008 0.8 -0.6
24.038 39.442 65.317 -0.462 -0.144 -0.875
24.114 37.973 64.435 -0.265 0.875 -0.406
24.249 39.476 65.215 -0.356 -0.127 -0.926
24.329 37.918 63.778 -0.409 0.912 0.032
25.266 37.992 63.692 0.26 0.965 -0.029
25.358 39.565 65.114 0.199 -0.083 -0.977
26.284 38.366 64.488 -0.419 0.716 -0.559
26.393 38.44 64.508 -0.364 0.753 -0.549
25.467 39.638 65.134 0.253 -0.046 -0.966
26.747 39.411 64.875 -0.6 0.105 -0.793
26.908 40.003 65.01 -0.485 0.529 -0.697
25.658 40.34 65.294 0.349 0.305 -0.886
26.752 40.494 65.319 -0.38 0.202 -0.903
26.676 40.995 65.548 -0.418 0.452 -0.788
25.583 40.841 65.524 0.311 0.555 -0.772
25.891 41.662 65.858 0.105 0.008 -0.994
25.246 41.884 65.909 -0.218 0.118 -0.969
24.937 41.063 65.575 -0.012 0.666 -0.746
24.654 41.857 65.918 0.177 0.136 -0.975
25.205 42.935 66.393 -0.238 0.644 -0.727
24.613 42.908 66.402 0.156 0.662 -0.733
24.33 43.394 66.615 0.345 0.338 -0.876
25.21 42.943 66.398 -0.235 0.648 -0.725
24.336 43.402 66.621 0.348 0.341 -0.873
25.234 43.809 66.759 -0.251 0.07 -0.965
24.873 44.495 67.086 -0.432 0.413 -0.802
23.975 44.087 66.947 0.167 0.684 -0.71
24.308 44.476 67.238 -0.055 0.425 -0.904
24.995 43.081 70.452 -0.371 -0.294 0.881
24.422 43.162 70.368 0.012 -0.348 0.937
24.097 42.674 70.314 0.228 -0.023 0.973
25.354 42.383 70.173 -0.191 -0.643 0.742
24.456 41.975 70.035 0.408 -0.372 0.834
25.331 41.516 69.812 -0.175 -0.066 0.982
26.298 42.382 70.114 0.281 -0.644 0.712
26.275 41.515 69.752 0.297 -0.066 0.953
26.604 41.999 69.804 0.077 -0.388 0.918
26.724 41.924 69.755 0.148 -0.432 0.889
26.404 41.435 69.7 0.361 -0.106 0.926
27.36 40.304 70.025 -0.276 0.648 0.71
27.118 42.06 69.697 0.38 -0.352 0.855
27.69 40.418 69.976 -0.002 0.743 0.669
27.85 40.578 69.834 -0.108 0.636 0.764
28.12 42.517 68.634 0.97 -0.083 0.23
28.929 41.069 68.69 0.431 0.882 0.192
29.517 40.924 68.678 0.039 0.979 0.2
29.81 38.926 69.601 0.248 -0.448 0.859
29.275 38.704 69.782 0.604 -0.301 0.738
30.478 37.066 70.022 -0.198 0.791 0.578
30.184 36.857 70.121 -0.408 0.642 0.649
28.927 38.456 69.9 0.43 -0.425 0.797
29.055 37.339 69.771 0.344 0.32 0.883
28.402 37.213 69.887 -0.122 0.23 0.965
28.154 38.308 70.037 0.044 -0.499 0.865
28.03 37.693 69.853 0.126 -0.089 0.988
27.854 35.711 68.309 -0.513 -0.843 -0.161
27.382 35.915 67.986 -0.198 -0.979 0.054
27.1 35.513 67.012 -0.011 -0.711 0.703
26.321 35.863 67.093 -0.4 -0.536 0.744
26.603 36.265 68.066 -0.588 -0.804 0.095
25.749 36.059 67.091 -0.018 -0.666 0.745
25.61 36.187 67.181 -0.117 -0.575 0.81
26.438 36.417 68.173 -0.67 -0.728 0.148
26.241 36.581 68.248 -0.538 -0.837 0.098
26.306 35.821 67.054 -0.407 -0.557 0.724
25.736 36.023 67.057 -0.027 -0.692 0.721
25.162 34.899 66.74 0.356 0.058 0.933
24.787 35.072 66.805 0.088 0.181 0.979
25.361 36.196 67.122 -0.295 -0.568 0.768
24.77 35.823 66.861 0.099 -0.32 0.942
26.969 35.105 66.399 -0.076 -0.915 0.397
25.721 34.294 66.187 0.755 -0.374 0.538
27.195 35.013 66.29 -0.227 -0.853 0.469
27.336 34.931 65.279 -0.11 -0.921 -0.373
25.875 34.206 65.089 0.865 -0.437 -0.246
27.15 35 65.1 0.015 -0.967 -0.253
26.824 35.444 64.307 -0.149 -0.746 -0.65
25.599 34.58 64.42 0.668 -0.17 -0.725
25.722 35.523 63.54 0.586 -0.799 -0.138
24.137 35.538 63.334 -0.546 -0.788 -0.285
24.014 34.595 64.214 -0.464 -0.159 -0.871
23.896 35.285 63.933 -0.386 -0.619 -0.684
27.215 36.317 63.706 0.047 -0.309 -0.95
26.053 36.261 63.032 0.822 -0.271 -0.501
27.218 36.563 63.601 0.045 -0.473 -0.88
26.804 37.964 63.872 -0.3 0.694 -0.655
25.603 37.782 63.326 0.501 0.815 -0.291
26.683 38.118 64.054 -0.219 0.591 -0.776
28.162 35.235 65.165 0.578 -0.668 -0.468
28.211 35.391 64.953 0.545 -0.772 -0.327
29.508 34.968 65.68 -0.319 -0.49 -0.811
30.097 36.095 65.494 0.101 0.315 -0.944
28.908 36.725 64.733 0.894 -0.105 -0.436
29.272 37.145 65.059 0.651 -0.385 -0.654
28.01 38.662 64.512 0.02 0.373 -0.927
27.646 38.242 64.186 0.263 0.653 -0.71
27.806 39.243 64.602 0.156 -0.014 -0.988
29.119 39.223 65.383 0.575 0.654 -0.492
28.743 39.717 65.339 0.826 0.324 -0.462
28.923 40.156 65.708 0.705 0.032 -0.708
29.452 39.141 65.821 0.741 0.613 -0.273
29.256 40.073 66.145 0.872 -0.009 -0.489
30.178 39.518 66.756 0.257 0.361 -0.896
30.262 40.015 67.182 0.327 0.775 -0.541
29.364 40.712 66.694 0.926 0.31 -0.215
30.086 40.337 67.42 0.445 0.56 -0.699
30.01 40.601 67.647 0.39 0.748 -0.536
29.274 41.024 66.964 0.881 0.466 -0.08
29.169 41.269 66.942 0.951 0.303 -0.065
28.05 41.903 66.352 0.018 0.831 -0.556
27.835 41.839 66.206 0.161 0.874 -0.459
27.324 42.919 66.795 0.501 0.153 -0.852
27.061 42.871 66.662 0.346 0.124 -0.93
27.551 41.786 66.063 0.02 0.848 -0.53
26.766 42.453 66.373 0.543 0.403 -0.737
26.497 43.307 66.672 0.015 0.381 -0.924
26.16 42.923 66.383 0.24 0.638 -0.732
26.184 43.789 66.744 0.224 0.06 -0.973
28.755 41.622 67.652 0.605 0.597 0.526
28.167 42.584 68.348 0.997 -0.044 0.062
28.741 41.478 67.877 0.614 0.693 0.376
28.73 41.433 67.969 0.609 0.671 0.422
28.157 42.543 68.434 0.991 -0.068 0.112
29.55 40.947 68.497 0.062 0.996 0.07
28.809 41.431 67.847 0.649 0.67 0.361
29.617 40.944 68.393 0.11 0.994 -0.003
28.808 41.586 67.628 0.65 0.566 0.507
30.924 39.642 67.964 0.879 0.464 0.111
30.804 39.932 68.268 0.958 0.271 -0.093
31.475 39.071 67.893 0.511 0.845 0.158
30.986 38.199 69.018 0.161 0.222 0.962
30.315 39.06 69.394 0.609 -0.352 0.711
30.983 37.201 69.815 0.163 0.888 0.431
32.009 37.294 67.887 0.892 -0.424 0.154
32.007 36.296 68.684 0.894 0.241 -0.377
31.85 36.585 68.077 0.998 0.049 0.027
31.268 35.191 67.788 0.675 -0.726 -0.134
31.491 35.062 68.428 0.526 -0.64 -0.56
31.077 34.905 67.188 0.802 -0.535 0.266
30.126 34.481 67.559 0.122 -0.838 0.532
30.539 34.638 68.799 -0.154 -0.943 -0.295
30.192 34.711 68.208 0.077 -0.992 0.099
29.176 35.346 69.1 -0.487 -0.639 0.595
29.64 35.2 69.589 -0.796 -0.542 0.269
28.512 35.682 69.238 -0.044 -0.863 0.502
28.757 35.25 67.95 -0.72 -0.693 -0.044
28.141 35.597 68.22 -0.309 -0.924 -0.225
28.856 34.957 67.331 -0.785 -0.498 0.368
28.825 34.978 67.291 -0.807 -0.483 0.34
28.11 35.618 68.181 -0.33 -0.909 -0.253
27.403 35.403 66.86 0.141 -0.766 0.627
28.833 34.912 67.203 -0.802 -0.53 0.277
27.412 35.325 66.756 0.146 -0.805 0.575
27.54 35.184 66.568 0.06 -0.711 0.701
31.434 36.487 66.874 0.767 -0.005 -0.642
31.224 36.053 66.379 0.907 0.285 -0.311
31.641 37.208 66.822 0.629 -0.486 -0.607
30.989 37.638 66.314 0.164 -0.179 -0.97
30.573 36.482 65.87 0.441 0.592 -0.675
29.929 37.541 65.578 0.87 -0.114 -0.48
29.531 37.222 65.249 0.538 -0.379 -0.753
30.14 36.137 65.514 0.132 0.345 -0.929
29.323 37.195 65.083 0.677 -0.36 -0.642
29.847 38.129 65.597 0.802 0.377 -0.464
29.73 38.36 65.53 0.88 0.223 -0.419
30.9 38.277 66.335 0.1 0.278 -0.955
30.797 38.743 66.564 0.027 0.611 -0.791
29.608 38.912 65.801 0.82 0.498 -0.283
30.299 39.34 66.74 0.359 0.213 -0.909
27.399 44.626 69.254 0.832 0.479 0.282
27.292 44.828 69.291 0.903 0.344 0.257
21.814 42.096 66.98 -0.157 -0.268 -0.951
21.175 42.306 67.188 -0.525 0.108 -0.844
21.237 42.471 67.158 -0.566 -0.002 -0.824
21.287 42.636 67.11 -0.6 -0.112 -0.792
20.759 42.436 67.673 -0.871 0.217 -0.44
20.784 42.613 67.686 -0.888 0.099 -0.449
20.791 42.792 67.689 -0.892 -0.02 -0.451
20.615 42.303 68.294 -0.991 0.105 0.078
20.627 42.467 68.363 -0.999 -0.004 0.032
20.618 42.632 68.432 -0.993 -0.114 -0.015
20.798 41.956 68.815 -0.839 -0.183 0.512
20.826 42.09 68.931 -0.858 -0.272 0.435
20.836 42.218 69.055 -0.865 -0.358 0.352
21.237 41.529 69.037 -0.473 -0.539 0.697
21.305 41.625 69.173 -0.518 -0.603 0.607
21.362 41.708 69.321 -0.556 -0.658 0.508
21.881 41.249 68.997 -0.109 -0.869 0.482
22.315 40.762 68.612 -0.398 -0.545 0.738
21.441 41.046 68.377 -0.303 -0.942 0.147
22.01 40.633 68.145 -0.682 -0.666 0.302
22.329 39.976 68.023 -0.895 -0.228 0.383
21.308 41.163 67.792 -0.414 -0.844 -0.34
21.885 40.742 67.596 -0.799 -0.564 -0.21
22.17 40.115 67.324 -0.989 -0.146 -0.028
21.405 41.501 67.293 -0.333 -0.562 -0.757
21.976 41.059 67.128 -0.714 -0.268 -0.647
22.286 40.52 66.726 -0.921 0.092 -0.379
22.256 41.491 66.876 -0.452 0.135 -0.882
22.447 40.829 68.752 -0.486 -0.589 0.645
22.553 40.855 68.843 -0.405 -0.569 0.715
23.31 39.917 68.92 -0.318 -0.262 0.911
23.462 40.406 69.25 -0.42 -0.589 0.691
23.445 39.204 68.547 -0.239 -0.682 0.692
23.89 38.846 68.505 -0.536 -0.443 0.719
23.191 38.51 67.397 -0.479 -0.561 0.675
23.117 37.917 67.077 -0.43 -0.166 0.887
22.536 39.286 67.359 -0.774 -0.634 -0.007
22.764 38.77 66.984 -0.926 -0.29 0.243
22.709 38.165 66.683 -0.889 0.113 0.443
22.382 37.595 66.518 -0.671 0.493 0.554
22.532 39.663 66.559 -0.776 -0.412 -0.478
22.761 39.046 66.398 -0.929 -0.001 -0.37
22.706 38.429 66.123 -0.893 0.41 -0.187
22.379 37.938 65.791 -0.674 0.738 0.034
23.183 39.201 65.931 -0.488 0.161 -0.858
23.11 38.578 65.677 -0.439 0.577 -0.689
23.388 40.456 65.738 -0.272 0.055 -0.961
23.829 40.192 65.484 -0.566 0.23 -0.791
23.21 41.141 66.002 -0.377 0.458 -0.805
23.354 41.723 66.112 -0.474 0.07 -0.878
22.482 41.726 66.768 -0.46 0.101 -0.882
22.382 41.641 66.819 -0.536 0.036 -0.843
22.174 43.104 66.785 -0.078 0.164 -0.983
22.735 43.08 66.62 -0.452 0.18 -0.873
22.233 43.676 66.987 -0.043 0.5 -0.865
22.799 43.695 66.837 -0.42 0.488 -0.765
22.297 44.139 67.377 -0.006 0.772 -0.635
22.867 44.193 67.257 -0.386 0.737 -0.555
22.247 44.5 68.065 0.093 0.912 -0.399
21.578 44.163 67.701 -0.429 0.786 -0.445
21.544 44.245 67.856 -0.406 0.731 -0.548
21.501 44.343 67.999 -0.377 0.666 -0.643
20.926 43.709 68.006 -0.812 0.519 -0.265
20.949 43.831 68.134 -0.828 0.437 -0.35
20.955 43.963 68.254 -0.832 0.35 -0.431
20.69 43.286 68.707 -0.951 0.271 0.147
20.734 43.446 68.772 -0.981 0.164 0.103
20.758 43.61 68.84 -0.997 0.055 0.058
20.977 43.088 69.483 -0.782 0.154 0.604
20.996 43.266 69.48 -0.795 0.036 0.606
20.998 43.444 69.49 -0.796 -0.083 0.599
21.658 43.205 69.982 -0.382 0.223 0.897
21.616 43.372 69.935 -0.354 0.111 0.928
21.568 43.542 69.907 -0.322 -0.002 0.947
22.312 43.716 69.928 0.139 0.356 0.924
22.391 42.979 70.148 0.049 0.09 0.995
22.969 42.945 70.237 -0.336 0.113 0.935
22.339 42.373 70.095 0.019 -0.266 0.964
22.912 42.293 70.181 -0.364 -0.213 0.907
22.277 41.826 69.832 -0.018 -0.588 0.809
22.846 41.705 69.897 -0.397 -0.507 0.765
23.579 40.898 69.602 -0.361 -0.343 0.867
23.296 41.384 69.816 -0.172 -0.667 0.725
24.157 41.142 69.813 -0.072 -0.221 0.973
23.874 41.629 70.027 0.117 -0.545 0.83
24.755 40.902 69.693 0.227 -0.341 0.912
25.347 40.929 69.684 -0.167 -0.359 0.918
26.032 39.536 69.194 -0.448 -0.075 0.891
26.032 39.51 69.191 -0.448 -0.1 0.889
25.925 39.438 69.137 -0.376 -0.051 0.925
25.906 38.973 69.024 -0.388 -0.348 0.853
25.84 38.624 68.906 -0.344 -0.115 0.932
25.71 38.379 68.797 -0.429 -0.274 0.861
25.618 38.278 68.728 -0.367 -0.207 0.907
25.327 37.689 68.065 -0.616 -0.711 0.34
24.939 37.484 67.471 -0.357 -0.574 0.737
24.863 37.478 67.425 -0.416 -0.578 0.702
24.141 37.499 67.274 0.066 -0.592 0.803
23.37 37.96 67.243 -0.599 -0.195 0.777
24.416 36.804 67.001 -0.118 -0.129 0.985
24.421 36.722 66.988 -0.113 -0.201 0.973
23.839 35.603 66.664 -0.138 -0.231 0.963
22.948 35.822 66.548 -0.267 -0.773 0.575
23.376 35.35 66.366 -0.553 -0.458 0.696
23.642 34.743 66.388 -0.73 -0.054 0.681
22.63 35.706 65.951 -0.494 -0.856 0.149
23.095 35.247 65.839 -0.804 -0.55 0.224
23.324 34.627 65.791 -0.957 -0.137 0.255
23.078 35.325 65.238 -0.819 -0.48 -0.314
22.569 36.32 64.718 -0.538 -0.418 -0.732
23.048 36.014 64.323 -0.857 -0.214 -0.468
23.267 36.933 64.053 -0.768 0.145 -0.623
23.64 37.64 64.253 -0.429 0.789 -0.441
23.751 38.639 65.323 -0.271 0.391 -0.88
23.362 38.734 65.602 -0.607 0.473 -0.639
24.116 38.855 65.236 -0.514 0.247 -0.822
24.071 38.326 64.96 -0.484 0.599 -0.637
24.293 38.884 65.151 -0.385 0.268 -0.883
24.246 38.355 64.876 -0.353 0.621 -0.7
24.485 38.767 65.005 -0.513 0.346 -0.786
24.514 38.196 64.479 -0.532 0.726 -0.435
25.203 38.824 64.94 0.302 0.411 -0.86
25.169 38.248 64.419 0.325 0.794 -0.513
25.853 38.874 65.024 -0.131 0.378 -0.917
25.946 38.937 65.042 -0.066 0.422 -0.904
26.137 39.519 65.156 -0.193 0.033 -0.981
26.295 40.1 65.288 -0.076 0.465 -0.882
26.207 40.389 65.408 -0.017 0.272 -0.962
26.135 40.861 65.624 -0.058 0.542 -0.839
24.631 42.419 66.081 0.165 0.417 -0.894
25.222 42.446 66.072 -0.229 0.399 -0.888
24.034 42.658 66.202 -0.133 0.537 -0.833
23.751 43.144 66.416 0.055 0.213 -0.976
23.464 42.323 66.209 -0.419 0.369 -0.83
23.18 42.809 66.423 -0.23 0.045 -0.972
23.397 44.381 67.281 -0.121 0.831 -0.543
23.772 44.749 67.549 -0.371 0.586 -0.721
24.365 44.998 67.616 -0.022 0.732 -0.681
24.934 45.055 67.492 -0.401 0.693 -0.599
24.421 45.34 68.161 0.011 0.933 -0.36
24.995 45.423 68.079 -0.371 0.877 -0.305
24.469 45.453 68.796 0.039 0.999 0.013
25.045 45.545 68.762 -0.345 0.938 0.036
24.5 45.32 69.428 0.058 0.921 0.385
25.079 45.402 69.442 -0.328 0.867 0.376
24.511 44.961 69.966 0.064 0.71 0.701
25.091 45.016 70.02 -0.323 0.674 0.665
24.5 44.429 70.331 0.058 0.397 0.916
25.079 44.443 70.413 -0.328 0.387 0.862
24.469 43.798 70.472 0.039 0.026 0.999
25.045 43.765 70.565 -0.345 0.048 0.937
23.871 43.564 70.378 -0.312 -0.112 0.943
23.504 43.106 70.324 -0.068 0.193 0.979
26.872 40.805 69.667 0.049 0.314 0.948
25.866 40.928 69.704 0.093 -0.359 0.929
26.468 40.424 69.67 -0.308 -0.023 0.951
26.942 39.909 70.028 -0.625 0.32 0.713
26.191 40.009 69.427 -0.554 -0.39 0.736
27.175 40.793 69.687 -0.153 0.321 0.935
26.949 41.367 69.592 -0.003 -0.061 0.998
27.446 40.887 69.648 0.161 0.43 0.888
27.244 41.468 69.549 0.296 0.043 0.954
28.023 39.62 70.323 0.276 0.078 0.958
28.278 39.552 70.28 0.106 0.123 0.987
27.349 38.991 70.191 -0.286 -0.446 0.848
27.411 38.743 70.11 -0.328 -0.281 0.902
27.443 41.277 69.522 0.163 0.17 0.972
28.533 40.895 69.428 0.233 0.794 0.561
27.994 41.533 69.194 0.592 0.369 0.717
27.752 42.355 69.319 0.753 -0.179 0.633
28.314 41.673 68.599 0.84 0.479 0.253
28.94 40.75 69.38 0.436 0.722 0.537
29.526 40.654 69.261 0.045 0.786 0.616
29.014 40.157 69.849 0.473 0.425 0.771
29.589 40.153 69.657 0.09 0.428 0.899
29.134 39.421 69.993 0.534 0.057 0.844
29.691 39.531 69.779 0.163 -0.016 0.987
29.559 38.063 69.537 0.415 0.127 0.901
29.996 37.468 69.624 0.124 0.523 0.843
29.322 37.894 69.618 0.166 -0.05 0.985
29.778 37.313 69.698 -0.138 0.337 0.931
28.944 37.904 69.735 0.418 -0.057 0.907
28.283 37.777 69.852 -0.042 -0.145 0.989
27.536 38.435 70.026 -0.266 -0.435 0.86
27.412 37.821 69.843 -0.183 -0.026 0.983
26.964 38.611 69.823 -0.551 -0.347 0.758
26.84 37.997 69.639 -0.469 0.062 0.881
27.483 37.163 69.724 -0.147 -0.355 0.923
27.94 36.765 69.777 -0.452 -0.09 0.887
27.153 36.609 69.297 -0.312 -0.631 0.71
27.662 36.298 69.417 -0.651 -0.424 0.63
27.117 36.159 68.67 -0.331 -0.857 0.396
27.631 35.917 68.887 -0.673 -0.695 0.251
26.227 36.286 67.508 -0.337 -0.817 0.467
26.09 36.412 67.597 -0.438 -0.724 0.533
26.553 36.902 69.125 -0.613 -0.485 0.624
26.329 36.959 68.988 -0.464 -0.523 0.715
25.979 36.501 67.64 -0.364 -0.783 0.504
25.562 37.026 67.713 -0.772 -0.269 0.575
25.422 35.513 66.762 0.182 -0.352 0.918
25.091 35.666 66.82 -0.115 -0.215 0.97
25.74 35.418 66.704 -0.03 -0.288 0.957
26.266 34.85 66.184 0.392 -0.745 0.54
26.381 34.833 66.091 0.316 -0.733 0.602
26.495 34.767 65.275 0.451 -0.812 -0.37
26.41 34.767 65.153 0.508 -0.812 -0.289
26.151 35.119 64.523 0.3 -0.529 -0.794
25.558 35.13 64.05 0.695 -0.537 -0.478
24.831 34.392 64.111 0.12 -0.304 -0.945
24.88 34.965 63.777 0.087 -0.686 -0.723
24.954 35.335 63.231 0.037 -0.933 -0.359
24.158 35.144 63.869 -0.56 -0.525 -0.641
23.563 34.638 64.589 -0.787 -0.128 -0.604
23.386 35.333 64.356 -0.669 -0.592 -0.449
23.357 35.96 63.93 -0.686 -0.244 -0.686
23.659 36.136 63.332 -0.888 -0.361 -0.287
26.234 35.621 63.993 0.245 -0.864 -0.441
26.557 36.341 63.498 0.486 -0.325 -0.811
26.56 36.477 63.437 0.484 -0.415 -0.77
25.925 37.105 62.897 0.731 0.331 -0.597
26.454 37.178 63.325 0.378 0.282 -0.882
27.101 37.34 63.477 -0.053 0.174 -0.983
26.186 37.742 63.681 0.112 0.842 -0.527
26.118 37.825 63.785 0.158 0.787 -0.597
25.789 38.03 64.142 -0.089 0.94 -0.329
27.817 38.036 64.088 0.348 0.551 -0.759
27.686 37.901 63.898 0.435 0.641 -0.632
28.133 36.964 63.881 0.506 0.015 -0.862
27.932 37.067 63.737 0.64 -0.054 -0.766
28.831 35.337 65.459 0.132 -0.736 -0.664
28.613 36 64.657 0.746 -0.468 -0.474
29.146 35.815 65.227 0.39 -0.344 -0.854
29.847 35.482 65.43 -0.077 -0.123 -0.989
29.378 36.384 65.286 0.58 0.122 -0.805
28.638 37.26 64.344 0.759 0.163 -0.631
29.002 37.68 64.67 0.516 -0.117 -0.848
28.198 37.789 64.153 0.539 0.427 -0.726
28.562 38.209 64.48 0.296 0.147 -0.944
26.99 38.368 64.217 -0.065 0.716 -0.695
27.252 39.35 64.628 -0.239 0.062 -0.969
28.375 39.474 64.847 0.563 0.15 -0.813
28.683 38.935 64.802 0.357 0.51 -0.783
28.235 40.074 65.046 0.463 0.579 -0.671
28.322 40.578 65.361 0.405 0.244 -0.881
27.567 40.178 64.926 -0.014 0.654 -0.757
27.531 40.701 65.22 0.01 0.305 -0.952
29.634 39.77 66.552 0.62 0.193 -0.76
29.721 40.284 66.993 0.688 0.596 -0.415
28.735 41.248 66.044 0.611 0.578 -0.54
28.75 41.443 66.226 0.602 0.448 -0.661
27.522 42.289 66.615 0.37 0.573 -0.731
27.274 42.244 66.49 0.204 0.542 -0.815
27.122 41.447 65.706 -0.195 0.678 -0.709
26.337 42.113 66.016 0.328 0.233 -0.915
26.753 44.083 67.019 0.509 0.207 -0.836
27.027 43.581 66.927 0.326 0.542 -0.774
27.24 44.227 67.496 0.752 0.279 -0.597
27.48 43.714 67.37 0.593 0.621 -0.513
27.574 44.199 68.107 0.919 0.265 -0.291
27.79 43.689 67.939 0.775 0.606 -0.179
27.706 44.005 68.764 0.985 0.168 0.037
27.913 43.508 68.549 0.847 0.499 0.18
27.617 43.672 69.369 0.941 0.002 0.34
27.83 43.198 69.112 0.799 0.317 0.511
27.32 43.249 69.837 0.792 -0.21 0.573
27.554 42.805 69.546 0.636 0.086 0.767
26.858 42.797 70.097 0.561 -0.436 0.704
27.124 42.385 69.789 0.384 -0.161 0.909
27.642 42.327 66.695 0.289 0.548 -0.785
27.966 42.994 67.505 0.879 0.197 -0.434
28.161 42.387 67.268 0.749 0.602 -0.277
28.586 41.966 66.946 0.465 0.883 -0.062
28.323 42.056 67.949 0.893 0.308 0.328
28.314 41.974 68.074 0.899 0.362 0.245
28.304 41.936 68.155 0.893 0.336 0.298
28.311 41.783 68.404 0.889 0.438 0.132
28.82 41.199 68.427 0.549 0.827 0.117
28.287 41.767 68.53 0.858 0.417 0.299
28.798 41.184 68.546 0.518 0.806 0.288
29.152 41.14 67.971 0.421 0.863 0.279
29.482 40.851 67.343 0.742 0.582 -0.333
30.535 40.243 67.819 0.766 0.493 -0.413
30.676 39.928 67.55 0.672 0.702 -0.234
31.048 39.432 68.077 0.796 0.605 0.035
30.74 39.576 68.971 0.912 0.016 0.409
30.989 39.107 68.716 0.746 0.329 0.579
31.411 38.715 68.596 0.465 0.59 0.66
30.602 38.638 69.101 0.417 -0.07 0.906
30.348 38.342 69.261 0.587 0.127 0.8
30.59 37.669 69.413 0.425 0.576 0.698
30.011 38.252 69.399 0.113 0.001 0.994
30.253 37.579 69.551 -0.048 0.45 0.892
30.959 37.612 69.307 0.179 0.613 0.769
31.57 37.028 69.6 0.582 0.765 0.277
31.479 37.459 69.117 0.642 0.477 0.6
31.572 38.027 68.804 0.58 0.099 0.809
31.943 36.698 69.187 0.849 0.528 -0.018
31.811 37.166 68.75 0.937 0.216 0.274
31.946 37.696 68.391 0.847 -0.137 0.513
31.867 36.809 68.303 0.987 -0.101 -0.124
31.889 35.641 68.455 0.81 -0.226 -0.541
31.718 35.845 67.819 0.925 -0.362 -0.117
31.172 35.083 67.833 0.739 -0.654 -0.164
30.335 34.71 68.159 -0.018 -0.991 0.132
29.997 34.781 69.186 -0.541 -0.841 -0.018
29.58 34.873 68.645 -0.263 -0.902 0.342
29.142 35.552 69.353 -0.464 -0.776 0.426
29.689 35.663 70.07 -0.761 -0.211 0.613
29.185 35.963 69.78 -0.426 -0.41 0.806
28.56 36.146 69.72 -0.009 -0.532 0.846
29.889 36.272 70.266 -0.619 0.224 0.753
29.363 36.504 69.954 -0.268 0.07 0.961
28.76 36.755 69.916 0.134 -0.097 0.986
29.624 37.022 69.825 -0.035 0.531 0.846
28.59 35.396 67.764 -0.608 -0.79 0.08
28.563 35.414 67.729 -0.632 -0.773 0.048
27.779 35.709 67.476 -0.11 -0.97 0.217
27.539 35.796 67.597 -0.303 -0.9 0.314
28.197 35.347 66.955 -0.389 -0.728 0.564
28.205 35.285 66.873 -0.383 -0.779 0.497
28.268 35.184 66.778 -0.425 -0.711 0.56
27.814 34.894 65.839 0.289 -0.953 0.093
28.505 34.932 66.146 -0.172 -0.979 -0.112
29.131 34.597 66.411 -0.589 -0.755 -0.288
28.806 35.228 65.563 0.148 -0.664 -0.733
29.422 34.584 67.544 -0.381 -0.764 0.521
29.398 34.828 68.191 -0.364 -0.927 0.09
31.34 35.455 66.784 0.99 -0.142 -0.022
31.565 35.813 67.332 0.84 -0.38 -0.387
31.305 36.647 66.677 0.853 -0.112 -0.51
30.731 37.026 66.229 0.336 0.229 -0.914
30.148 36.974 65.814 0.724 0.264 -0.637
29.783 36.682 65.513 0.37 -0.019 -0.929
29.651 36.667 65.454 0.458 -0.009 -0.889
29.61 36.627 65.434 0.426 -0.04 -0.904
30.215 38.268 66.072 0.557 0.284 -0.78
30.117 38.714 66.292 0.481 0.63 -0.61
29.867 39.073 66.359 0.647 0.391 -0.655
29.741 39.258 66.375 0.549 0.535 -0.642
30.766 39.621 67.241 0.748 0.447 -0.492
31.304 39.048 67.108 0.389 0.829 -0.403
30.3 38.15 66.081 0.5 0.363 -0.786
30.375 37.613 66.064 0.573 -0.162 -0.803
31.925 37.193 67.325 0.832 -0.497 -0.248
31.754 36.47 67.442 0.945 -0.015 -0.326
22.831 43.908 69.888 -0.207 0.228 0.951
23.342 44.729 69.677 -0.623 0.573 0.531
22.782 44.495 69.519 -0.25 0.729 0.637
22.155 44.453 69.528 0.168 0.757 0.631
23.315 45.055 68.902 -0.639 0.765 0.075
22.759 44.764 68.878 -0.269 0.959 0.091
22.133 44.726 68.879 0.149 0.985 0.09
22.773 44.617 68.199 -0.257 0.833 -0.489
27.152 45.071 68.519 0.708 0.701 -0.085
27.099 45.174 68.72 0.743 0.633 -0.219
26.397 45.549 68.519 0.33 0.94 -0.085
26.512 45.546 68.72 0.253 0.942 -0.219
25.889 45.582 69.254 0.076 0.956 0.282
26.117 45.571 69.291 -0.076 0.963 0.257
26.136 45.137 69.988 0.2 0.734 0.649
26.309 45.225 69.862 0.085 0.675 0.733
26.891 44.659 69.988 0.578 0.495 0.649
26.897 44.854 69.862 0.574 0.366 0.733
25.656 38.379 64.71 0 0.707 -0.707
20.766 41.576 68.201 -0.866 -0.5 -0
20.766 41.876 67.681 -0.866 -0.25 -0.433
22.012 42.98 70.124 -0.174 0.091 0.981
22.012 42.368 70.067 -0.174 -0.27 0.947
21.457 42.672 69.921 -0.5 -0.091 0.861
21.457 42.09 69.732 -0.5 -0.433 0.75
21.457 43.281 67.057 -0.5 0.268 -0.824
21.457 43.811 67.363 -0.5 0.579 -0.644
21.005 42.67 69.539 -0.766 -0.091 0.636
21.005 43.28 67.463 -0.766 0.267 -0.585
20.71 43.117 67.953 -0.94 0.171 -0.296
23.001 39.627 68.646 -0.5 -0.433 0.75
23.001 40.818 65.971 -0.5 0.268 -0.824
22.549 39.647 68.197 -0.766 -0.421 0.486
22.549 40.207 66.289 -0.766 -0.091 -0.636
24.301 40.584 69.6 -0 -0.5 0.866
24.343 38.443 68.466 -0.309 -0.644 0.7
23.01 36.601 67.074 -0.223 -0.217 0.95
22.449 36.749 66.826 -0.623 -0.111 0.774
22.449 36.188 66.57 -0.623 -0.512 0.591
22.449 37.36 64.747 -0.623 0.325 -0.711
22.449 37.826 65.151 -0.623 0.658 -0.423
22.061 37.512 65.743 -0.901 0.434 0
22.061 37.209 66.269 -0.901 0.217 0.376
22.061 36.601 66.269 -0.901 -0.217 0.376
22.061 36.298 65.743 -0.901 -0.434 -0
22.061 36.601 65.217 -0.901 -0.217 -0.376
22.061 37.209 65.217 -0.901 0.217 -0.376
21.922 36.905 65.743 -1 0 0
24.961 40.462 65.205 -0 0.365 -0.931
24.343 40.198 65.223 -0.309 0.233 -0.922
24.301 42.315 66.006 -0 0.365 -0.931
23.683 42.051 66.024 -0.309 0.233 -0.922
23.64 43.45 66.505 -0 0.365 -0.931
23.64 43.966 66.803 -0 0.623 -0.782
24.107 45.428 68.774 -0.174 0.985 0
24.107 45.315 69.379 -0.174 0.918 0.356
24.107 44.991 69.902 -0.174 0.728 0.663
24.107 44.5 70.273 -0.174 0.439 0.882
24.107 43.908 70.441 -0.174 0.091 0.981
24.107 45.315 68.169 -0.174 0.918 -0.356
21.354 44.583 68.771 -0.5 0.866 0
21.354 44.418 69.333 -0.5 0.729 0.468
21.354 43.976 69.716 -0.5 0.36 0.788
20.915 44.144 68.771 -0.866 0.5 0
20.915 43.844 69.291 -0.866 0.25 0.433
23.64 42.274 70.317 -0 -0.223 0.975
27.692 39.671 70.364 -0 0.121 0.993
27.092 39.378 70.202 -0.5 -0.123 0.857
28.685 40.346 69.898 0.309 0.52 0.796
28.685 39.773 70.15 0.309 0.233 0.922
28.685 39.149 70.202 0.309 -0.079 0.948
25.537 33.768 65.742 0.623 -0.75 0.22
25.537 33.768 65.126 0.623 -0.75 -0.22
25.537 34.101 64.607 0.623 -0.512 -0.591
24.976 34.514 66.765 0.223 -0.217 0.95
24.976 33.967 66.501 0.223 -0.608 0.762
24.976 33.588 66.026 0.223 -0.878 0.423
24.976 33.453 65.434 0.223 -0.975 0
24.976 33.588 64.842 0.223 -0.878 -0.423
24.976 33.967 64.367 0.223 -0.608 -0.762
24.352 34.514 66.765 -0.223 -0.217 0.95
24.352 33.967 66.501 -0.223 -0.608 0.762
24.352 33.588 66.026 -0.223 -0.878 0.423
24.352 33.453 65.434 -0.223 -0.975 0
24.352 33.588 64.842 -0.223 -0.878 -0.423
24.352 33.967 64.367 -0.223 -0.608 -0.762
23.791 34.101 66.261 -0.623 -0.512 0.591
23.791 33.768 65.742 -0.623 -0.75 0.22
23.791 33.768 65.126 -0.623 -0.75 -0.22
23.791 34.101 64.607 -0.623 -0.512 -0.591
23.403 34.211 65.434 -0.901 -0.434 -0
25.775 35.924 62.906 0.623 -0.512 -0.591
25.775 36.485 62.65 0.623 -0.111 -0.774
25.214 35.79 62.666 0.223 -0.608 -0.762
25.214 36.337 62.402 0.223 -0.217 -0.95
25.214 36.945 62.402 0.223 0.217 -0.95
25.214 37.492 62.666 0.223 0.608 -0.762
25.214 37.871 63.141 0.223 0.878 -0.423
24.59 35.79 62.666 -0.223 -0.608 -0.762
24.59 36.337 62.402 -0.223 -0.217 -0.95
24.59 36.945 62.402 -0.223 0.217 -0.95
24.59 37.492 62.666 -0.223 0.608 -0.762
24.59 37.871 63.141 -0.223 0.878 -0.423
24.029 35.924 62.906 -0.623 -0.512 -0.591
24.029 36.485 62.65 -0.623 -0.111 -0.774
24.029 37.096 62.737 -0.623 0.325 -0.711
24.029 37.562 63.141 -0.623 0.658 -0.423
28.297 36.316 64.111 0.588 -0.31 -0.747
27.739 35.647 64.207 0.309 -0.644 -0.7
29.13 40.679 66.106 0.809 0.294 -0.509
28.13 41.131 65.532 0.309 0.52 -0.796
27.512 41.338 65.56 -0 0.623 -0.782
25.681 42.378 65.985 -0 0.365 -0.931
27.354 43.669 69.866 0.809 -0 0.588
27.354 44.687 68.102 0.809 0.509 -0.294
26.912 44.288 70.185 0.588 0.31 0.747
26.912 43.669 70.308 0.588 -0 0.809
26.912 44.813 67.546 0.588 0.572 -0.572
26.354 44.136 70.534 0.309 0.233 0.922
26.354 43.512 70.586 0.309 -0.079 0.948
26.354 42.905 70.432 0.309 -0.382 0.871
26.354 44.709 67.098 0.309 0.52 -0.796
26.354 45.17 67.522 0.309 0.751 -0.584
26.354 45.468 68.072 0.309 0.9 -0.309
25.736 44.916 70.254 -0 0.623 0.782
25.736 44.4 70.552 -0 0.365 0.931
25.736 43.818 70.684 -0 0.075 0.997
25.736 43.224 70.64 -0 -0.223 0.975
25.736 42.669 70.422 -0 -0.5 0.866
25.736 44.4 66.828 -0 0.365 -0.931
25.736 44.916 67.126 -0 0.623 -0.782
25.736 45.321 67.563 -0 0.826 -0.563
25.736 45.58 68.1 -0 0.956 -0.295
28.069 43.24 68.243 0.94 0.342 0
28.069 42.95 68.747 0.94 0.171 0.296
30.336 40.648 68.398 0.623 0.782 0
30.336 40.474 68.99 0.623 0.658 0.423
30.336 40.008 69.394 0.623 0.325 0.711
32.155 35.958 69.212 1 0 0
32.016 36.262 69.738 0.901 0.217 0.376
32.016 35.654 69.738 0.901 -0.217 0.376
32.016 35.351 69.212 0.901 -0.434 -0
31.628 36.413 70.208 0.623 0.325 0.711
31.628 35.802 70.295 0.623 -0.111 0.774
31.628 35.241 70.039 0.623 -0.512 0.591
31.628 34.908 69.52 0.623 -0.75 0.22
31.628 34.908 68.904 0.623 -0.75 -0.22
31.067 36.809 70.279 0.223 0.608 0.762
31.067 36.262 70.543 0.223 0.217 0.95
31.067 35.654 70.543 0.223 -0.217 0.95
31.067 35.107 70.279 0.223 -0.608 0.762
31.067 34.728 69.804 0.223 -0.878 0.423
31.067 34.593 69.212 0.223 -0.975 0
30.443 36.262 70.543 -0.223 0.217 0.95
30.443 35.654 70.543 -0.223 -0.217 0.95
30.443 35.107 70.279 -0.223 -0.608 0.762
30.443 34.728 69.804 -0.223 -0.878 0.423
29.882 35.241 70.039 -0.623 -0.512 0.591
28.261 36.587 69.866 -0.223 -0.217 0.95
31.216 35.35 66.289 0.901 -0.217 -0.376
30.828 34.604 66.507 0.623 -0.75 -0.22
30.828 34.937 65.988 0.623 -0.512 -0.591
30.828 35.498 65.732 0.623 -0.111 -0.774
30.267 34.289 66.815 0.223 -0.975 0
30.267 34.424 66.223 0.223 -0.878 -0.423
30.267 34.803 65.748 0.223 -0.608 -0.762
30.267 35.35 65.484 0.223 -0.217 -0.95
29.643 34.289 66.815 -0.223 -0.975 0
29.643 34.424 66.223 -0.223 -0.878 -0.423
29.145 38.534 64.872 0.588 0.31 -0.747
28.628 41.78 66.458 0.5 0.729 -0.468
32.16 37.888 67.672 1 0 0
32.021 38.495 67.672 0.901 0.434 0
32.021 38.192 68.198 0.901 0.217 0.376
32.021 37.584 67.146 0.901 -0.217 -0.376
32.021 38.192 67.146 0.901 0.217 -0.376
31.633 38.343 68.668 0.623 0.325 0.711
31.633 37.732 66.589 0.623 -0.111 -0.774
31.633 38.343 66.676 0.623 0.325 -0.711
31.633 38.809 67.08 0.623 0.658 -0.423
26.808 45.454 68.983 0.5 0.866 0
26.808 45.289 69.545 0.5 0.729 0.468
3 0 255 254
3 254 255 256
3 254 256 1
3 1 256 257
3 255 258 256
3 256 258 259
3 256 259 257
3 257 259 260
3 258 261 259
3 259 261 262
3 259 262 260
3 260 262 263
3 261 264 262
3 262 264 265
3 262 265 263
3 263 265 266
3 264 267 265
3 265 267 268
3 265 268 266
3 266 268 269
3 267 4 268
3 268 4 270
3 268 270 269
3 269 270 3
3 4 272 271
3 271 272 273
3 271 273 5
3 5 273 274
3 272 275 273
3 273 275 276
3 273 276 274
3 274 276 277
3 275 278 276
3 276 278 279
3 276 279 277
3 277 279 280
3 278 0 279
3 279 0 281
3 279 281 280
3 280 281 2
3 5 7 282
3 282 7 283
3 282 283 3
3 3 283 6
3 7 284 8
3 8 284 285
3 284 10 285
3 285 10 9
3 10 286 11
3 11 286 287
3 286 13 287
3 287 13 12
3 13 290 288
3 288 290 291
3 288 291 289
3 289 291 292
3 289 292 14
3 14 292 293
3 290 294 291
3 291 294 295
3 291 295 292
3 292 295 296
3 292 296 293
3 293 296 297
3 294 16 295
3 295 16 298
3 295 298 296
3 296 298 299
3 296 299 297
3 297 299 15
3 16 300 17
3 17 300 301
3 300 19 301
3 301 19 18
3 19 302 20
3 20 302 303
3 302 22 303
3 303 22 21
3 22 2 304
3 304 2 305
3 304 305 23
3 23 305 1
3 23 25 21
3 21 25 24
3 25 306 26
3 26 306 307
3 306 308 307
3 307 308 309
3 308 310 309
3 309 310 311
3 310 28 311
3 311 28 27
3 28 31 29
3 29 31 30
3 31 313 312
3 312 313 314
3 312 314 32
3 32 314 315
3 313 316 314
3 314 316 317
3 314 317 315
3 315 317 318
3 316 319 317
3 317 319 320
3 317 320 318
3 318 320 321
3 319 322 320
3 320 322 323
3 320 323 321
3 321 323 324
3 322 325 323
3 323 325 326
3 323 326 324
3 324 326 327
3 325 34 326
3 326 34 328
3 326 328 327
3 327 328 33
3 34 37 35
3 35 37 36
3 37 329 38
3 38 329 330
3 329 331 330
3 330 331 332
3 331 333 332
3 332 333 334
3 333 40 334
3 334 40 39
3 40 6 41
3 41 6 8
3 41 335 39
3 39 335 336
3 335 337 336
3 336 337 338
3 337 43 338
3 338 43 42
3 43 339 44
3 44 339 340
3 339 46 340
3 340 46 45
3 46 9 47
3 47 9 11
3 47 49 45
3 45 49 48
3 49 52 341
3 341 52 342
3 341 342 50
3 50 342 51
3 52 55 343
3 343 55 344
3 343 344 53
3 53 344 54
3 55 58 345
3 345 58 346
3 345 346 56
3 56 346 57
3 58 61 347
3 347 61 348
3 347 348 59
3 59 348 60
3 61 64 349
3 349 64 350
3 349 350 62
3 62 350 63
3 64 12 351
3 351 12 352
3 351 352 65
3 65 352 14
3 65 67 353
3 353 67 354
3 353 354 63
3 63 354 66
3 67 70 68
3 68 70 69
3 70 356 355
3 355 356 357
3 355 357 71
3 71 357 358
3 356 359 357
3 357 359 360
3 357 360 358
3 358 360 361
3 359 73 360
3 360 73 362
3 360 362 361
3 361 362 72
3 73 363 74
3 74 363 364
3 363 76 364
3 364 76 75
3 76 79 365
3 365 79 366
3 365 366 77
3 77 366 78
3 79 82 80
3 80 82 81
3 82 15 367
3 367 15 368
3 367 368 83
3 83 368 17
3 83 85 369
3 369 85 371
3 369 371 370
3 370 371 372
3 370 372 81
3 81 372 84
3 85 88 373
3 373 88 375
3 373 375 374
3 374 375 376
3 374 376 86
3 86 376 87
3 88 91 377
3 377 91 378
3 377 378 89
3 89 378 90
3 91 94 379
3 379 94 380
3 379 380 92
3 92 380 93
3 94 97 381
3 381 97 382
3 381 382 95
3 95 382 96
3 97 100 98
3 98 100 99
3 100 18 101
3 101 18 20
3 101 383 99
3 99 383 384
3 383 103 384
3 384 103 102
3 103 385 104
3 104 385 386
3 385 387 386
3 386 387 388
3 387 24 388
3 388 24 26
3 104 106 102
3 102 106 105
3 106 109 107
3 107 109 108
3 109 389 110
3 110 389 390
3 389 27 390
3 390 27 29
3 110 391 108
3 108 391 392
3 391 393 392
3 392 393 394
3 393 395 394
3 394 395 396
3 395 397 396
3 396 397 398
3 397 399 398
3 398 399 400
3 399 401 400
3 400 401 402
3 401 403 402
3 402 403 404
3 403 112 404
3 404 112 111
3 112 405 113
3 113 405 406
3 405 36 406
3 406 36 38
3 113 115 111
3 111 115 114
3 115 42 116
3 116 42 44
3 116 118 114
3 114 118 117
3 118 121 119
3 119 121 120
3 121 408 407
3 407 408 409
3 407 409 122
3 122 409 410
3 408 48 409
3 409 48 411
3 409 411 410
3 410 411 50
3 122 124 412
3 412 124 414
3 412 414 413
3 413 414 415
3 413 415 120
3 120 415 123
3 124 416 125
3 125 416 417
3 416 418 417
3 417 418 419
3 418 51 419
3 419 51 53
3 125 421 420
3 420 421 422
3 420 422 123
3 123 422 423
3 421 127 422
3 422 127 424
3 422 424 423
3 423 424 126
3 127 425 128
3 128 425 426
3 425 427 426
3 426 427 428
3 427 429 428
3 428 429 430
3 429 130 430
3 430 130 129
3 130 133 431
3 431 133 433
3 431 433 432
3 432 433 434
3 432 434 131
3 131 434 132
3 133 136 435
3 435 136 436
3 435 436 134
3 134 436 135
3 136 437 137
3 137 437 438
3 437 439 438
3 438 439 440
3 439 54 440
3 440 54 56
3 137 441 135
3 135 441 442
3 441 443 442
3 442 443 444
3 443 445 444
3 444 445 446
3 445 139 446
3 446 139 138
3 139 142 140
3 140 142 141
3 142 145 447
3 447 145 448
3 447 448 143
3 143 448 144
3 145 449 146
3 146 449 450
3 449 57 450
3 450 57 59
3 146 60 451
3 451 60 452
3 451 452 144
3 144 452 62
3 143 148 141
3 141 148 147
3 148 151 453
3 453 151 454
3 453 454 149
3 149 454 150
3 151 66 152
3 152 66 68
3 152 69 150
3 150 69 71
3 149 154 455
3 455 154 456
3 455 456 147
3 147 456 153
3 154 157 457
3 457 157 458
3 457 458 155
3 155 458 156
3 157 160 459
3 459 160 460
3 459 460 158
3 158 460 159
3 160 462 461
3 461 462 463
3 461 463 161
3 161 463 464
3 462 163 463
3 463 163 465
3 463 465 464
3 464 465 162
3 163 466 164
3 164 466 467
3 466 72 467
3 467 72 74
3 164 468 162
3 162 468 469
3 468 75 469
3 469 75 77
3 161 166 470
3 470 166 471
3 470 471 159
3 159 471 165
3 166 473 472
3 472 473 474
3 472 474 167
3 167 474 475
3 473 169 474
3 474 169 476
3 474 476 475
3 475 476 168
3 169 87 477
3 477 87 478
3 477 478 170
3 170 478 89
3 170 479 168
3 168 479 480
3 479 481 480
3 480 481 482
3 481 165 482
3 482 165 167
3 158 172 156
3 156 172 171
3 172 484 483
3 483 484 485
3 483 485 173
3 173 485 486
3 484 175 485
3 485 175 487
3 485 487 486
3 486 487 174
3 175 488 176
3 176 488 489
3 488 490 489
3 489 490 491
3 490 178 491
3 491 178 177
3 178 492 179
3 179 492 493
3 492 90 493
3 493 90 92
3 179 494 177
3 177 494 495
3 494 181 495
3 495 181 180
3 181 496 182
3 182 496 497
3 496 498 497
3 497 498 499
3 498 93 499
3 499 93 95
3 182 184 180
3 180 184 183
3 184 187 500
3 500 187 501
3 500 501 185
3 185 501 186
3 187 190 188
3 188 190 189
3 190 502 191
3 191 502 503
3 502 193 503
3 503 193 192
3 193 196 504
3 504 196 505
3 504 505 194
3 194 505 195
3 196 506 197
3 197 506 507
3 506 96 507
3 507 96 98
3 197 199 195
3 195 199 198
3 199 105 200
3 200 105 107
3 200 508 198
3 198 508 509
3 508 510 509
3 509 510 511
3 510 512 511
3 511 512 513
3 512 514 513
3 513 514 515
3 514 516 515
3 515 516 517
3 516 518 517
3 517 518 519
3 518 520 519
3 519 520 521
3 520 117 521
3 521 117 119
3 194 523 522
3 522 523 524
3 522 524 192
3 192 524 525
3 523 202 524
3 524 202 526
3 524 526 525
3 525 526 201
3 202 205 527
3 527 205 528
3 527 528 203
3 203 528 204
3 205 126 529
3 529 126 531
3 529 531 530
3 530 531 532
3 530 532 206
3 206 532 128
3 206 208 204
3 204 208 207
3 208 189 533
3 533 189 534
3 533 534 209
3 209 534 191
3 209 201 207
3 207 201 203
3 188 535 186
3 186 535 536
3 535 211 536
3 536 211 210
3 211 538 537
3 537 538 539
3 537 539 212
3 212 539 540
3 538 214 539
3 539 214 541
3 539 541 540
3 540 541 213
3 214 129 542
3 542 129 544
3 542 544 543
3 543 544 545
3 543 545 215
3 215 545 131
3 215 547 546
3 546 547 548
3 546 548 213
3 213 548 549
3 547 550 548
3 548 550 551
3 548 551 549
3 549 551 552
3 550 217 551
3 551 217 553
3 551 553 552
3 552 553 216
3 217 554 218
3 218 554 555
3 554 220 555
3 555 220 219
3 220 223 556
3 556 223 557
3 556 557 221
3 221 557 222
3 223 558 224
3 224 558 559
3 558 226 559
3 559 226 225
3 226 561 560
3 560 561 562
3 560 562 227
3 227 562 563
3 561 564 562
3 562 564 565
3 562 565 563
3 563 565 566
3 564 132 565
3 565 132 567
3 565 567 566
3 566 567 134
3 227 229 225
3 225 229 228
3 229 232 568
3 568 232 569
3 568 569 230
3 230 569 231
3 232 138 570
3 570 138 571
3 570 571 233
3 233 571 140
3 233 235 572
3 572 235 573
3 572 573 231
3 231 573 234
3 235 153 236
3 236 153 155
3 236 575 574
3 574 575 576
3 574 576 234
3 234 576 577
3 575 171 576
3 576 171 578
3 576 578 577
3 577 578 173
3 230 579 228
3 228 579 580
3 579 222 580
3 580 222 224
3 221 581 219
3 219 581 582
3 581 238 582
3 582 238 237
3 238 241 583
3 583 241 584
3 583 584 239
3 239 584 240
3 241 244 585
3 585 244 586
3 585 586 242
3 242 586 243
3 244 174 587
3 587 174 588
3 587 588 245
3 245 588 176
3 245 247 243
3 243 247 246
3 247 250 589
3 589 250 590
3 589 590 248
3 248 590 249
3 250 183 591
3 591 183 592
3 591 592 251
3 251 592 185
3 251 593 249
3 249 593 594
3 593 210 594
3 594 210 212
3 248 240 595
3 595 240 596
3 595 596 246
3 246 596 242
3 239 597 237
3 237 597 598
3 597 216 598
3 598 216 218
3 86 78 84
3 84 78 80
3 35 600 599
3 599 600 601
3 599 601 33
3 33 601 602
3 600 603 601
3 601 603 604
3 601 604 602
3 602 604 605
3 603 30 604
3 604 30 606
3 604 606 605
3 605 606 32
3 252 607 253
3 253 607 608
3 607 609 608
3 608 609 610
3 609 611 610
3 610 611 612
3 611 613 612
3 612 613 614
3 613 615 614
3 614 615 616
3 615 252 616
3 616 252 253
3 281 0 254
3 281 254 305
3 281 305 2
3 305 254 1
3 282 3 270
3 282 270 271
3 282 271 5
3 271 270 4
3 8 6 283
3 8 283 7
3 11 9 10
3 352 12 288
3 352 288 289
3 352 289 14
3 288 12 13
3 368 15 299
3 368 299 298
3 368 298 17
3 17 298 16
3 20 18 19
3 23 21 304
3 304 21 22
3 26 24 25
3 29 27 28
3 606 30 31
3 606 31 312
3 606 312 32
3 599 33 328
3 599 328 34
3 599 34 35
3 38 36 37
3 41 39 40
3 44 42 43
3 47 45 46
3 411 48 341
3 411 341 50
3 341 48 49
3 53 51 342
3 53 342 343
3 343 342 52
3 56 54 345
3 345 54 344
3 345 344 55
3 59 57 346
3 59 346 347
3 347 346 58
3 452 60 348
3 452 348 349
3 452 349 62
3 349 348 61
3 353 63 350
3 353 350 351
3 353 351 65
3 351 350 64
3 68 66 354
3 68 354 67
3 71 69 355
3 355 69 70
3 74 72 362
3 74 362 73
3 77 75 365
3 365 75 76
3 80 78 366
3 80 366 79
3 370 81 82
3 370 82 367
3 370 367 369
3 369 367 83
3 86 84 374
3 374 84 372
3 374 372 373
3 373 372 371
3 373 371 85
3 478 87 376
3 478 376 617
3 478 617 89
3 89 617 377
3 377 617 375
3 377 375 88
3 375 617 376
3 92 90 378
3 92 378 379
3 379 378 91
3 95 93 380
3 95 380 381
3 381 380 94
3 98 96 382
3 98 382 97
3 101 99 100
3 104 102 103
3 107 105 106
3 110 108 109
3 113 111 112
3 116 114 115
3 119 117 118
3 413 120 121
3 413 121 407
3 413 407 412
3 412 407 122
3 420 123 415
3 420 415 414
3 420 414 125
3 125 414 124
3 531 126 424
3 531 424 532
3 532 424 127
3 532 127 128
3 544 129 431
3 544 431 432
3 544 432 545
3 545 432 131
3 431 129 130
3 567 132 434
3 567 434 134
3 134 434 433
3 134 433 435
3 435 433 133
3 137 135 436
3 137 436 136
3 571 138 139
3 571 139 140
3 143 141 447
3 447 141 142
3 451 144 448
3 451 448 146
3 146 448 145
3 455 147 148
3 455 148 453
3 455 453 149
3 152 150 454
3 152 454 151
3 155 153 457
3 457 153 456
3 457 456 154
3 158 156 458
3 158 458 459
3 459 458 157
3 470 159 460
3 470 460 461
3 470 461 161
3 461 460 160
3 164 162 465
3 164 465 163
3 167 165 471
3 167 471 472
3 472 471 166
3 170 168 477
3 477 168 476
3 477 476 169
3 578 171 483
3 578 483 173
3 483 171 172
3 588 174 487
3 588 487 176
3 176 487 175
3 179 177 178
3 182 180 181
3 592 183 184
3 592 184 500
3 592 500 185
3 188 186 501
3 188 501 187
3 534 189 190
3 534 190 191
3 522 192 504
3 522 504 194
3 504 192 193
3 197 195 505
3 197 505 196
3 200 198 199
3 203 201 527
3 527 201 526
3 527 526 202
3 206 204 530
3 530 204 529
3 529 204 528
3 529 528 205
3 209 207 533
3 533 207 208
3 212 210 537
3 537 210 211
3 546 213 543
3 546 543 215
3 543 213 542
3 542 213 541
3 542 541 214
3 218 216 553
3 218 553 217
3 221 219 556
3 556 219 220
3 224 222 557
3 224 557 223
3 227 225 560
3 560 225 226
3 230 228 568
3 568 228 229
3 572 231 569
3 572 569 570
3 572 570 233
3 570 569 232
3 574 234 573
3 574 573 236
3 236 573 235
3 239 237 583
3 583 237 238
3 596 240 584
3 596 584 585
3 596 585 242
3 585 584 241
3 245 243 587
3 587 243 586
3 587 586 244
3 595 246 589
3 595 589 248
3 589 246 247
3 251 249 590
3 251 590 591
3 591 590 250
3 272 4 267
3 272 267 618
3 272 618 275
3 275 618 619
3 275 619 278
3 278 619 255
3 278 255 0
3 255 619 258
3 258 619 261
3 261 619 618
3 261 618 264
3 264 618 267
3 621 620 622
3 621 622 623
3 623 622 626
3 625 624 627
3 625 627 316
3 625 316 313
3 625 313 310
3 625 310 308
3 625 308 624
3 624 308 306
3 624 306 257
3 624 257 627
3 627 257 260
3 627 260 628
3 627 628 316
3 316 628 319
3 319 628 263
3 319 263 266
3 319 266 626
3 319 626 322
3 322 626 622
3 322 622 325
3 325 622 620
3 325 620 37
3 325 37 34
3 37 620 329
3 329 620 331
3 331 620 621
3 331 621 333
3 333 621 623
3 333 623 269
3 333 269 40
3 40 269 6
3 6 269 3
3 269 623 266
3 266 623 626
3 263 628 260
3 257 306 25
3 257 25 23
3 257 23 1
3 310 313 28
3 28 313 31
3 2 22 630
3 2 630 632
3 2 632 280
3 280 632 294
3 280 294 277
3 277 294 290
3 277 290 274
3 274 290 631
3 274 631 5
3 5 631 629
3 5 629 7
3 7 629 284
3 284 629 286
3 284 286 10
3 286 629 13
3 13 629 631
3 13 631 290
3 294 632 16
3 16 632 630
3 16 630 300
3 300 630 302
3 300 302 19
3 302 630 22
3 9 46 633
3 9 633 335
3 9 335 285
3 285 335 41
3 285 41 8
3 335 633 337
3 337 633 339
3 337 339 43
3 339 633 46
3 12 64 634
3 12 634 287
3 287 634 11
3 11 634 58
3 11 58 55
3 11 55 47
3 47 55 52
3 47 52 49
3 58 634 61
3 61 634 64
3 635 636 637
3 636 641 642
3 637 636 642
3 639 638 645
3 640 639 645
3 641 640 646
3 642 641 646
3 643 642 646
3 644 643 646
3 645 644 646
3 640 645 646
3 639 640 297
3 639 297 15
3 639 15 79
3 639 79 638
3 638 79 76
3 638 76 644
3 638 644 645
3 644 76 363
3 644 363 73
3 644 73 643
3 643 73 359
3 643 359 637
3 643 637 642
3 637 359 356
3 637 356 635
3 635 356 70
3 635 70 67
3 635 67 65
3 635 65 14
3 635 14 636
3 636 14 293
3 636 293 641
3 641 293 640
3 640 293 297
3 79 15 82
3 18 100 647
3 18 647 648
3 18 648 301
3 301 648 83
3 301 83 17
3 83 648 85
3 85 648 88
3 88 648 647
3 88 647 91
3 91 647 94
3 94 647 97
3 97 647 100
3 21 24 303
3 303 24 387
3 303 387 650
3 303 650 20
3 20 650 649
3 20 649 101
3 101 649 383
3 383 649 385
3 383 385 103
3 385 649 650
3 385 650 387
3 106 104 109
3 389 109 652
3 389 652 311
3 389 311 27
3 311 652 309
3 309 652 651
3 309 651 307
3 307 651 388
3 307 388 26
3 388 651 386
3 386 651 104
3 104 651 652
3 104 652 109
3 600 35 656
3 600 656 655
3 600 655 654
3 600 654 603
3 603 654 653
3 603 653 658
3 603 658 30
3 30 658 29
3 29 658 390
3 390 658 391
3 390 391 110
3 391 658 393
3 393 658 653
3 393 653 395
3 395 653 654
3 395 654 397
3 397 654 655
3 397 655 399
3 399 655 656
3 399 656 401
3 401 656 657
3 401 657 403
3 403 657 405
3 403 405 112
3 405 657 36
3 36 657 656
3 36 656 35
3 660 659 662
3 660 662 663
3 661 660 663
3 661 663 324
3 661 324 327
3 661 327 33
3 661 33 602
3 661 602 660
3 660 602 605
3 660 605 659
3 659 605 32
3 659 32 315
3 659 315 318
3 659 318 662
3 662 318 321
3 662 321 663
3 663 321 324
3 338 42 664
3 338 664 336
3 336 664 334
3 336 334 39
3 334 664 332
3 332 664 330
3 330 664 406
3 330 406 38
3 406 664 113
3 113 664 115
3 115 664 42
3 45 48 340
3 340 48 408
3 340 408 44
3 44 408 116
3 116 408 118
3 118 408 121
3 416 124 665
3 416 665 418
3 418 665 666
3 418 666 51
3 51 666 50
3 50 666 410
3 410 666 665
3 410 665 122
3 122 665 124
3 437 136 419
3 437 419 439
3 439 419 53
3 439 53 54
3 419 136 417
3 417 136 669
3 417 669 668
3 417 668 667
3 417 667 125
3 125 667 421
3 421 667 425
3 421 425 127
3 425 667 427
3 427 667 668
3 427 668 429
3 429 668 669
3 429 669 130
3 130 669 133
3 133 669 136
3 449 145 445
3 449 445 443
3 449 443 441
3 449 441 440
3 449 440 57
3 57 440 56
3 440 441 438
3 438 441 137
3 445 145 142
3 445 142 139
3 60 146 450
3 60 450 59
3 63 66 62
3 62 66 151
3 62 151 144
3 144 151 148
3 144 148 143
3 69 152 68
3 670 675 676
3 671 670 676
3 671 676 677
3 672 671 677
3 672 677 678
3 673 679 680
3 674 673 680
3 674 680 681
3 675 674 681
3 675 681 682
3 676 675 682
3 676 682 683
3 677 676 683
3 677 683 684
3 678 677 684
3 680 679 685
3 681 680 685
3 681 685 686
3 682 681 686
3 682 686 687
3 683 682 687
3 683 687 688
3 684 683 688
3 687 686 689
3 687 689 688
3 688 689 72
3 688 72 466
3 688 466 163
3 688 163 684
3 684 163 462
3 684 462 678
3 678 462 160
3 678 160 672
3 672 160 157
3 672 157 671
3 671 157 670
3 670 157 154
3 670 154 674
3 670 674 675
3 674 154 673
3 673 154 149
3 673 149 150
3 673 150 679
3 679 150 71
3 679 71 358
3 679 358 685
3 685 358 361
3 685 361 689
3 685 689 686
3 689 361 72
3 468 164 467
3 468 467 364
3 468 364 75
3 364 467 74
3 690 692 693
3 691 690 693
3 691 693 694
3 692 697 698
3 693 692 698
3 693 698 699
3 694 693 699
3 694 699 700
3 695 694 700
3 695 700 701
3 696 695 701
3 698 697 702
3 698 702 703
3 699 698 703
3 699 703 704
3 700 699 704
3 700 704 705
3 701 700 705
3 701 705 78
3 701 78 86
3 701 86 87
3 701 87 696
3 696 87 169
3 696 169 695
3 695 169 473
3 695 473 694
3 694 473 691
3 691 473 166
3 691 166 690
3 690 166 161
3 690 161 692
3 692 161 464
3 692 464 697
3 697 464 162
3 697 162 702
3 702 162 469
3 702 469 703
3 703 469 77
3 703 77 704
3 704 77 705
3 705 77 78
3 81 84 80
3 492 178 170
3 492 170 90
3 90 170 89
3 170 178 479
3 479 178 490
3 479 490 481
3 481 490 488
3 481 488 706
3 481 706 165
3 165 706 707
3 165 707 159
3 159 707 158
3 158 707 172
3 172 707 484
3 484 707 706
3 484 706 175
3 175 706 488
3 496 181 494
3 496 494 179
3 496 179 498
3 498 179 493
3 498 493 93
3 93 493 92
3 506 196 710
3 506 710 96
3 96 710 499
3 96 499 95
3 499 710 709
3 499 709 497
3 497 709 502
3 497 502 708
3 497 708 182
3 182 708 184
3 184 708 187
3 187 708 502
3 187 502 190
3 502 709 193
3 193 709 710
3 193 710 196
3 102 105 384
3 384 105 711
3 384 711 99
3 99 711 98
3 98 711 507
3 507 711 199
3 507 199 197
3 199 711 105
3 712 714 715
3 715 714 717
3 715 717 718
3 716 720 721
3 717 724 725
3 718 717 725
3 718 725 726
3 719 718 726
3 719 726 727
3 720 728 729
3 721 720 729
3 721 729 730
3 722 721 730
3 722 730 731
3 722 731 609
3 722 609 607
3 722 607 716
3 722 716 721
3 716 607 713
3 716 713 510
3 716 510 508
3 716 508 720
3 720 508 200
3 720 200 728
3 728 200 107
3 728 107 108
3 728 108 729
3 729 108 392
3 729 392 730
3 730 392 394
3 730 394 731
3 731 394 396
3 731 396 611
3 731 611 609
3 611 396 398
3 611 398 613
3 613 398 400
3 613 400 723
3 613 723 717
3 613 717 615
3 615 717 714
3 615 714 252
3 252 714 712
3 252 712 516
3 252 516 514
3 252 514 713
3 252 713 607
3 713 514 512
3 713 512 510
3 516 712 518
3 518 712 715
3 518 715 520
3 520 715 719
3 520 719 117
3 117 719 727
3 117 727 114
3 114 727 111
3 111 727 726
3 111 726 404
3 404 726 725
3 404 725 724
3 404 724 402
3 402 724 723
3 402 723 400
3 723 724 717
3 719 715 718
3 120 123 521
3 120 521 119
3 521 123 423
3 521 423 519
3 519 423 517
3 517 423 733
3 517 733 515
3 515 733 732
3 515 732 513
3 513 732 523
3 513 523 511
3 511 523 194
3 511 194 509
3 509 194 195
3 509 195 198
3 523 732 202
3 202 732 733
3 202 733 205
3 205 733 126
3 126 733 423
3 129 214 430
3 430 214 736
3 430 736 428
3 428 736 426
3 426 736 735
3 426 735 128
3 128 735 734
3 128 734 208
3 128 208 206
3 208 734 189
3 189 734 535
3 189 535 188
3 535 734 211
3 211 734 735
3 211 735 538
3 538 735 736
3 538 736 214
3 737 738 739
3 737 739 740
3 738 741 742
3 739 738 742
3 739 742 743
3 739 743 744
3 740 739 744
3 740 744 745
3 741 746 747
3 742 741 747
3 742 747 748
3 743 742 748
3 743 748 749
3 743 749 750
3 744 743 750
3 744 750 751
3 745 744 751
3 747 746 752
3 747 752 753
3 748 747 753
3 748 753 754
3 749 748 754
3 749 754 755
3 750 749 755
3 754 753 756
3 755 754 756
3 755 756 226
3 755 226 558
3 755 558 223
3 755 223 751
3 755 751 750
3 751 223 220
3 751 220 745
3 745 220 554
3 745 554 740
3 740 554 737
3 737 554 217
3 737 217 550
3 737 550 738
3 738 550 547
3 738 547 741
3 741 547 746
3 746 547 215
3 746 215 131
3 746 131 132
3 746 132 752
3 752 132 564
3 752 564 753
3 753 564 561
3 753 561 756
3 756 561 226
3 446 138 227
3 446 227 444
3 444 227 563
3 444 563 757
3 444 757 442
3 442 757 135
3 135 757 566
3 135 566 134
3 566 757 563
3 227 138 229
3 229 138 232
3 141 147 140
3 140 147 153
3 140 153 235
3 140 235 233
3 156 171 575
3 156 575 155
3 155 575 236
3 482 167 475
3 482 475 480
3 480 475 168
3 758 759 760
3 758 760 761
3 759 762 763
3 760 759 763
3 760 763 764
3 760 764 765
3 761 760 765
3 762 766 767
3 763 762 767
3 763 767 764
3 764 767 173
3 764 173 765
3 765 173 486
3 765 486 174
3 765 174 244
3 765 244 761
3 761 244 241
3 761 241 238
3 761 238 758
3 758 238 581
3 758 581 759
3 759 581 221
3 759 221 762
3 762 221 222
3 762 222 766
3 766 222 579
3 766 579 234
3 766 234 577
3 766 577 767
3 767 577 173
3 234 579 230
3 234 230 231
3 495 180 768
3 495 768 491
3 495 491 177
3 491 768 489
3 489 768 247
3 489 247 245
3 489 245 176
3 247 768 250
3 250 768 180
3 250 180 183
3 536 210 593
3 536 593 186
3 186 593 185
3 185 593 251
3 525 201 209
3 525 209 191
3 525 191 769
3 525 769 192
3 192 769 503
3 503 769 191
3 204 207 203
3 770 771 772
3 770 773 774
3 770 774 771
3 774 773 776
3 774 776 777
3 774 777 778
3 771 774 778
3 771 778 212
3 771 212 772
3 772 212 540
3 772 540 775
3 772 775 552
3 772 552 770
3 770 552 216
3 770 216 773
3 773 216 597
3 773 597 239
3 773 239 776
3 776 239 240
3 776 240 248
3 776 248 777
3 777 248 249
3 777 249 778
3 778 249 594
3 778 594 212
3 552 775 549
3 549 775 213
3 213 775 540
3 582 237 598
3 582 598 555
3 582 555 219
3 555 598 218
3 225 228 580
3 225 580 559
3 559 580 224
3 243 246 242
3 616 253 780
3 616 780 614
3 614 780 612
3 612 780 779
3 612 779 610
3 610 779 608
3 608 779 253
3 253 779 780
