ply
format ascii 1.0
comment Generated by PyMesh
element vertex 64
property float x
property float y
property float z
property float nx
property float ny
property float nz
element face 124
property list uchar int vertex_indices
end_header
10.29 -58.352 12.903 1 0 0
10.151 -57.745 12.903 0.901 0.434 0
10.151 -58.048 13.429 0.901 0.217 0.376
10.151 -58.656 13.429 0.901 -0.217 0.376
10.151 -58.959 12.903 0.901 -0.434 -0
10.151 -58.656 12.377 0.901 -0.217 -0.376
10.151 -58.048 12.377 0.901 0.217 -0.376
9.763 -57.257 12.903 0.623 0.782 0
9.763 -57.431 13.495 0.623 0.658 0.423
9.763 -57.897 13.899 0.623 0.325 0.711
9.763 -58.508 13.986 0.623 -0.111 0.774
9.763 -59.069 13.73 0.623 -0.512 0.591
9.763 -59.402 13.211 0.623 -0.75 0.22
9.763 -59.402 12.595 0.623 -0.75 -0.22
9.763 -59.069 12.076 0.623 -0.512 -0.591
9.763 -58.508 11.82 0.623 -0.111 -0.774
9.763 -57.897 11.907 0.623 0.325 -0.711
9.763 -57.431 12.311 0.623 0.658 -0.423
9.202 -56.987 12.903 0.223 0.975 0
9.202 -57.122 13.495 0.223 0.878 0.423
9.202 -57.501 13.97 0.223 0.608 0.762
9.202 -58.048 14.234 0.223 0.217 0.95
9.202 -58.656 14.234 0.223 -0.217 0.95
9.202 -59.203 13.97 0.223 -0.608 0.762
9.202 -59.582 13.495 0.223 -0.878 0.423
9.202 -59.717 12.903 0.223 -0.975 0
9.202 -59.582 12.311 0.223 -0.878 -0.423
9.202 -59.203 11.836 0.223 -0.608 -0.762
9.202 -58.656 11.572 0.223 -0.217 -0.95
9.202 -58.048 11.572 0.223 0.217 -0.95
9.202 -57.501 11.836 0.223 0.608 -0.762
9.202 -57.122 12.311 0.223 0.878 -0.423
8.578 -56.987 12.903 -0.223 0.975 0
8.578 -57.122 13.495 -0.223 0.878 0.423
8.578 -57.501 13.97 -0.223 0.608 0.762
8.578 -58.048 14.234 -0.223 0.217 0.95
8.578 -58.656 14.234 -0.223 -0.217 0.95
8.578 -59.203 13.97 -0.223 -0.608 0.762
8.578 -59.582 13.495 -0.223 -0.878 0.423
8.578 -59.717 12.903 -0.223 -0.975 0
8.578 -59.582 12.311 -0.223 -0.878 -0.423
8.578 -59.203 11.836 -0.223 -0.608 -0.762
8.578 -58.656 11.572 -0.223 -0.217 -0.95
8.578 -58.048 11.572 -0.223 0.217 -0.95
8.578 -57.501 11.836 -0.223 0.608 -0.762
8.578 -57.122 12.311 -0.223 0.878 -0.423
8.017 -57.257 12.903 -0.623 0.782 0
8.017 -57.431 13.495 -0.623 0.658 0.423
8.017 -57.897 13.899 -0.623 0.325 0.711
8.017 -58.508 13.986 -0.623 -0.111 0.774
8.017 -59.069 13.73 -0.623 -0.512 0.591
8.017 -59.402 13.211 -0.623 -0.75 0.22
8.017 -59.402 12.595 -0.623 -0.75 -0.22
8.017 -59.069 12.076 -0.623 -0.512 -0.591
8.017 -58.508 11.82 -0.623 -0.111 -0.774
8.017 -57.897 11.907 -0.623 0.325 -0.711
8.017 -57.431 12.311 -0.623 0.658 -0.423
7.629 -57.745 12.903 -0.901 0.434 0
7.629 -58.048 13.429 -0.901 0.217 0.376
7.629 -58.656 13.429 -0.901 -0.217 0.376
7.629 -58.959 12.903 -0.901 -0.434 -0
7.629 -58.656 12.377 -0.901 -0.217 -0.376
7.629 -58.048 12.377 -0.901 0.217 -0.376
7.49 -58.352 12.903 -1 0 0
3 0 1 2
3 0 2 3
3 0 3 4
3 0 4 5
3 0 5 6
3 0 6 1
3 2 1 8
3 2 8 9
3 2 9 10
3 3 2 10
3 3 10 11
3 3 11 12
3 4 3 12
3 4 12 13
3 5 4 13
3 5 13 14
3 5 14 15
3 6 5 15
3 6 15 16
3 6 16 17
3 1 6 17
3 1 17 7
3 1 7 8
3 8 7 19
3 8 19 20
3 9 8 20
3 9 20 21
3 10 9 21
3 10 21 22
3 11 10 22
3 11 22 23
3 11 23 24
3 12 11 24
3 12 24 25
3 13 12 25
3 13 25 26
3 14 13 26
3 14 26 27
3 14 27 28
3 15 14 28
3 15 28 29
3 16 15 29
3 16 29 30
3 17 16 30
3 17 30 31
3 7 17 31
3 7 31 18
3 7 18 19
3 19 18 33
3 19 33 34
3 20 19 34
3 20 34 35
3 21 20 35
3 21 35 36
3 22 21 36
3 22 36 37
3 23 22 37
3 23 37 38
3 24 23 38
3 24 38 39
3 25 24 39
3 25 39 40
3 26 25 40
3 26 40 41
3 27 26 41
3 27 41 42
3 28 27 42
3 28 42 43
3 29 28 43
3 29 43 44
3 30 29 44
3 30 44 45
3 31 30 45
3 18 31 45
3 18 45 32
3 18 32 33
3 33 32 46
3 33 46 47
3 34 33 47
3 34 47 48
3 35 34 48
3 35 48 49
3 36 35 49
3 36 49 50
3 37 36 50
3 38 37 50
3 38 50 51
3 39 38 51
3 39 51 52
3 40 39 52
3 40 52 53
3 41 40 53
3 42 41 53
3 42 53 54
3 43 42 54
3 43 54 55
3 44 43 55
3 44 55 56
3 45 44 56
3 46 45 56
3 32 45 46
3 47 46 57
3 47 57 58
3 48 47 58
3 49 48 58
3 49 58 59
3 50 49 59
3 51 50 59
3 51 59 60
3 52 51 60
3 52 60 61
3 53 52 61
3 54 53 61
3 54 61 62
3 55 54 62
3 56 55 62
3 57 56 62
3 46 56 57
3 58 57 63
3 59 58 63
3 60 59 63
3 61 60 63
3 62 61 63
3 57 62 63
