ply
format ascii 1.0
comment Generated by PyMesh
element vertex 728
property float x
property float y
property float z
property float nx
property float ny
property float nz
element face 1452
property list uchar int vertex_indices
end_header
-36.068 22.652 -32.374 -0.863 0.498 -0.085
-35.871 23.432 -32.657 -0.994 -0.022 0.103
-35.973 22.855 -32.653 -0.926 0.363 0.1
-35.869 23.439 -32.638 -0.993 -0.019 0.113
-36.067 22.657 -32.36 -0.862 0.502 -0.073
-35.952 23.888 -32.263 -0.938 -0.319 -0.138
-34.464 23.311 -30.753 -0.063 -0.658 0.75
-34.822 22.174 -31.097 0.176 0.1 0.979
-34.268 22.818 -31.014 -0.193 -0.329 0.924
-34.267 22.817 -31.014 -0.193 -0.33 0.924
-34.821 22.173 -31.097 0.177 0.099 0.979
-34.482 22.283 -31.126 -0.049 0.026 0.998
-32.531 22.045 -32.508 0.676 -0.716 0.177
-32.868 21.565 -32.514 0.9 -0.396 0.181
-32.085 22.203 -32.885 0.378 -0.821 0.428
-32.102 22.106 -33.082 0.37 -0.869 0.329
-32.884 21.476 -32.698 0.891 -0.448 0.073
-31.829 21.894 -33.578 0.188 -0.728 0.66
-31.889 21.777 -33.705 0.153 -0.797 0.585
-32.943 21.358 -32.826 0.856 -0.517 -0.002
-33.012 21.163 -33.117 0.902 -0.387 0.193
-34.381 21.681 -34.512 -0.24 0.044 -0.97
-34.58 21.978 -34.493 -0.107 -0.153 -0.982
-33.525 22.396 -35.373 -0.81 -0.432 -0.396
-33.608 22.589 -35.381 -0.859 -0.319 -0.4
-34.663 22.171 -34.501 -0.156 -0.04 -0.987
-34.016 22.854 -35.021 -0.587 -0.495 -0.64
-34.145 22.993 -34.996 -0.652 -0.425 -0.628
-34.783 22.3 -34.478 -0.227 0.037 -0.973
-34.591 22.835 -34.62 -0.355 -0.32 -0.878
-34.399 24.818 -34.532 -0.779 0.487 -0.395
-34.845 24.66 -34.156 -0.481 0.592 -0.646
-34.824 25.597 -33.823 -0.495 -0.032 -0.868
-35.439 25.408 -33.252 -0.802 -0.127 -0.583
-35.459 24.471 -33.585 -0.789 0.498 -0.361
-35.572 24.848 -33.144 -0.714 0.246 -0.656
-32.948 24.464 -30.751 0.443 -0.599 0.667
-33.256 23.971 -30.819 0.648 -0.27 0.712
-32.969 23.528 -31.084 0.457 0.026 0.889
-32.327 24.634 -31.266 0.753 -0.514 0.41
-32.348 23.697 -31.599 0.767 0.11 0.632
-31.902 23.855 -31.975 0.47 0.005 0.883
-32.317 24.645 -31.272 0.759 -0.509 0.407
-31.891 23.865 -31.981 0.475 0.011 0.88
-31.703 24.428 -31.956 0.349 -0.364 0.863
-30.899 24.195 -32.777 0.751 -0.481 0.453
-31.088 23.632 -32.802 0.876 -0.106 0.47
-30.431 23.704 -33.426 0.438 -0.154 0.886
-30.572 22.963 -33.66 0.367 -0.524 0.769
-31.23 22.892 -33.036 0.806 -0.476 0.353
-31.018 22.624 -33.535 0.665 -0.298 0.685
-33.055 23.92 -36.165 -0.874 -0.045 -0.484
-33.326 23.514 -35.864 -0.693 0.225 -0.685
-33.712 23.849 -35.541 -0.436 0.002 -0.9
-33.001 24.681 -36.022 -0.847 0.335 -0.413
-33.659 24.609 -35.398 -0.409 0.383 -0.829
-33.47 25.172 -35.373 -0.535 0.008 -0.845
-34.209 25.381 -34.507 -0.904 0.113 -0.412
-34.398 24.819 -34.532 -0.778 0.487 -0.396
-34.823 25.598 -33.823 -0.495 -0.032 -0.868
-33.871 26.254 -34.48 -0.735 0.549 -0.399
-34.485 26.471 -33.796 -0.325 0.404 -0.855
-33.983 26.63 -34.043 -0.66 0.298 -0.69
-31.681 25.759 -31.702 0.694 -0.214 0.687
-32.009 25.534 -31.277 0.912 -0.064 0.404
-31.395 25.317 -31.962 0.503 0.08 0.861
-31.355 26.24 -32.09 0.886 0.069 0.459
-31.044 25.834 -32.379 0.678 0.339 0.652
-30.225 26.566 -32.872 0.132 -0.149 0.98
-30.037 26.3 -32.988 0.289 -0.37 0.883
-30.803 25.493 -32.529 0.799 0.168 0.577
-30.038 26.045 -33.068 0.289 -0.2 0.936
-29.813 25.306 -33.506 0.402 -0.569 0.717
-30.577 24.754 -32.967 0.912 -0.201 0.358
-30.109 24.263 -33.616 0.599 0.126 0.791
-29.758 25.294 -33.547 0.43 -0.575 0.696
-30.053 24.252 -33.657 0.627 0.12 0.77
-28.75 24.941 -33.866 -0.242 -0.339 0.909
-28.331 24.153 -35.74 0.057 -0.901 -0.429
-29.557 23.32 -35.876 0.875 -0.346 -0.339
-29.607 23.36 -36.098 0.908 -0.372 -0.191
-30.58 23.483 -37.018 0.098 -0.27 -0.958
-30.808 23.478 -37.059 0.25 -0.267 -0.931
-31.165 24.363 -38.707 0.487 -0.857 0.168
-32.905 25.095 -38.153 -0.755 -0.334 0.564
-32.867 24.344 -36.403 -0.78 0.167 -0.603
-33.348 25.63 -38.144 -0.46 -0.691 0.558
-33.412 26.058 -37.815 -0.496 -0.453 0.741
-32.935 24.792 -36.058 -0.814 0.39 -0.43
-33.404 25.283 -35.409 -0.501 0.063 -0.863
-33.388 26.832 -37.572 -0.482 -0.023 0.876
-33.378 26.094 -35.155 -0.489 0.469 -0.736
-32.67 27.1 -35.976 -0.961 -0.202 -0.188
-32.705 27.521 -35.532 -0.987 0.1 0.129
-33.421 26.593 -34.629 -0.51 0.719 -0.473
-33.564 26.945 -34.182 -0.414 0.484 -0.771
-31.86 28.249 -34.753 -0.383 0.619 0.686
-32.634 27.746 -33.324 0.134 0.954 -0.267
-31.655 28.006 -34.245 -0.519 0.781 0.347
-30.851 27.72 -33.418 -0.117 0.638 0.761
-31.887 27.48 -32.555 0.573 0.798 0.186
-30.669 27.603 -33.26 -0.238 0.716 0.656
-30.318 27.921 -33.625 0.149 0.739 0.657
-30.255 27.76 -33.422 0.107 0.846 0.522
-29.24 28.666 -33.818 -0.569 0.242 0.786
-28.431 27.779 -33.63 0.009 -0.392 0.92
-29.51 26.942 -33.249 0.728 0.165 0.666
-28.016 27.64 -33.624 -0.268 -0.299 0.916
-27.985 27.561 -33.644 -0.241 -0.365 0.899
-29.478 26.864 -33.269 0.754 0.1 0.649
-28.089 26.403 -33.641 -0.172 0.407 0.897
-28.175 26.083 -33.566 -0.243 0.14 0.96
-29.564 26.544 -33.194 0.682 -0.167 0.712
-29.43 26.358 -33.332 0.593 -0.043 0.804
-28.266 25.587 -33.629 -0.319 -0.274 0.907
-29.547 25.72 -33.413 0.535 -0.362 0.763
-28.572 25.3 -33.753 -0.115 -0.082 0.99
-27.039 25.925 -35.57 0.704 0.008 -0.71
-27.239 25.667 -35.862 0.837 0.18 -0.516
-27.267 26.672 -36.388 0.856 -0.49 -0.165
-27.274 26.664 -36.403 0.852 -0.494 -0.172
-27.245 25.661 -35.874 0.833 0.175 -0.525
-27.445 26.043 -36.293 0.966 -0.079 -0.246
-28.749 24.387 -36.359 0.314 -0.907 -0.279
-28.346 24.262 -35.93 0.046 -0.824 -0.565
-29.622 23.46 -36.273 0.896 -0.289 -0.336
-29.031 24.558 -36.885 0.173 -0.822 -0.542
-29.841 23.592 -36.682 0.713 -0.179 -0.678
-29.178 24.636 -37.095 0.271 -0.874 -0.402
-29.604 24.786 -37.4 -0.084 -0.749 -0.657
-30.267 23.742 -36.987 0.358 -0.054 -0.932
-30.825 24.645 -38.673 0.73 -0.656 0.192
-29.27 25.484 -37.772 0.194 -0.167 -0.967
-30.463 25.404 -39.077 0.989 -0.114 -0.097
-29.616 26.498 -38.727 0.425 -0.843 -0.33
-29.921 26.974 -39.385 0.171 -0.446 -0.878
-30.794 25.921 -39.792 0.752 0.256 -0.607
-30.963 26.564 -39.996 0.865 -0.172 -0.471
-31.282 26.346 -40.343 0.688 -0.294 -0.664
-31.076 25.728 -40.099 0.551 0.118 -0.826
-31.422 26.732 -40.902 0.782 -0.551 -0.291
-32.236 26.281 -41.115 0.201 -0.874 -0.443
-31.89 25.277 -40.312 -0.031 -0.204 -0.978
-32.201 25.836 -40.583 0.177 -0.577 -0.797
-33.064 28.689 -39.989 -0.391 0.847 0.361
-33.137 28.557 -39.312 -0.343 0.935 -0.091
-32.807 28.933 -38.752 -0.562 0.684 -0.464
-33.052 27.601 -37.233 -0.737 -0.267 0.621
-33.413 27.052 -37.596 -0.496 0.099 0.862
-32.692 27.295 -35.997 -0.977 -0.062 -0.203
-32.854 28.446 -37.081 -0.596 0.337 0.729
-32.494 28.139 -35.845 -0.836 0.541 -0.094
-32.292 28.636 -36.169 -0.97 0.21 0.121
-31.5 28.794 -34.88 -0.574 0.289 0.766
-31.825 28.273 -34.756 -0.358 0.636 0.684
-31.614 28.034 -34.249 -0.498 0.795 0.346
-30.403 28.913 -34.538 -0.026 0.349 0.937
-30.517 28.154 -33.907 0.05 0.855 0.516
-29.408 28.863 -34.056 -0.689 0.382 0.616
-30.043 29.651 -35.054 0.154 0.718 0.679
-29.104 29.486 -34.492 -0.472 0.827 0.304
-30.133 29.85 -35.208 0.214 0.585 0.782
-29.66 30.045 -35.827 0.608 0.748 0.267
-28.59 29.698 -35.164 -0.105 0.979 -0.175
-29.435 29.902 -35.849 0.458 0.843 0.281
-29.286 29.866 -36.037 0.533 0.825 0.188
-28.464 29.668 -35.322 -0.015 0.957 -0.289
-28.698 29.625 -35.885 0.141 0.986 0.086
-27.423 28.908 -36.06 0.778 0.628 -0.001
-27.387 29.063 -35.47 0.754 0.525 -0.394
-27.055 28.822 -35.318 0.533 0.686 -0.496
-27.048 27.14 -35.961 0.966 -0.256 0.049
-26.764 27.447 -35.241 0.776 -0.46 -0.431
-26.868 26.289 -35.238 0.846 0.312 -0.433
-29.111 29.619 -37.113 0.621 0.701 -0.35
-28.522 29.377 -36.961 0.228 0.863 -0.451
-29.237 29.613 -37.748 0.705 0.705 0.073
-28.829 28.915 -38.327 0.909 0.357 -0.216
-28.114 28.68 -37.54 0.432 0.514 -0.741
-27.915 28.505 -37.577 0.299 0.63 -0.717
-27.992 27.384 -37.825 0.235 -0.304 -0.923
-28.214 27.238 -37.859 0.382 -0.207 -0.9
-29.021 27.251 -38.722 0.921 -0.216 -0.325
-29.161 26.86 -38.626 0.804 -0.541 -0.246
-28.394 26.735 -37.737 0.292 -0.458 -0.839
-28.565 26.114 -37.627 0.406 -0.044 -0.913
-29.411 26.612 -38.681 0.596 -0.748 -0.292
-28.886 25.795 -37.697 0.246 -0.204 -0.948
-29.065 25.598 -37.726 0.365 -0.073 -0.928
-27.986 27.445 -37.842 0.24 -0.253 -0.937
-29.015 27.313 -38.738 0.926 -0.165 -0.339
-28.92 27.553 -38.668 0.863 -0.325 -0.386
-30.097 27.223 -39.55 0.275 -0.49 -0.827
-29.93 27.056 -39.424 0.164 -0.378 -0.911
-30.973 26.664 -40.044 0.859 -0.117 -0.498
-30.138 27.366 -39.639 0.254 -0.418 -0.872
-31.013 26.8 -40.129 0.837 -0.041 -0.545
-31.185 27.134 -40.713 0.952 -0.264 -0.156
-31.9 29.383 -38.913 -0.626 0.59 -0.509
-32.673 28.838 -40.1 -0.111 0.953 0.282
-32.415 29.082 -38.862 -0.282 0.791 -0.543
-32.15 29.302 -37.166 -0.751 0.55 0.365
-32.627 29.014 -37.386 -0.433 0.742 0.511
-32.023 29.308 -36.53 -0.836 0.546 -0.059
-31.061 30.092 -37.39 -0.207 0.945 0.253
-30.934 30.098 -36.754 -0.291 0.941 -0.171
-30.826 30.198 -36.531 -0.363 0.875 -0.32
-30.431 30.154 -37.516 0.108 0.976 0.19
-30.337 30.246 -36.629 0.045 0.915 -0.402
-30.305 30.16 -36.88 0.024 0.972 -0.234
-34.538 27.469 -31.598 -0.352 0.904 0.244
-34.585 27.412 -31.379 -0.321 0.942 0.098
-30.18 29.293 -39.505 0.234 0.545 -0.805
-30.138 29.52 -39.369 0.206 0.394 -0.896
-35.877 23.259 -32.296 -0.988 0.101 -0.116
-35.95 22.555 -31.682 -0.764 0.417 0.492
-35.762 23.158 -31.629 -0.89 0.015 0.456
-35.813 23.766 -31.453 -0.856 -0.391 0.339
-35.48 22.372 -31.204 -0.372 0.265 0.89
-35.299 22.979 -31.159 -0.493 -0.14 0.859
-35.25 23.548 -30.882 -0.525 -0.519 0.675
-34.651 22.784 -31.053 0.062 -0.306 0.95
-34.758 21.478 -31.256 0.23 -0.48 0.847
-34.406 21.452 -31.316 -0.005 -0.462 0.887
-35.014 20.992 -31.714 0.016 -0.885 0.465
-34.713 20.871 -31.863 -0.185 -0.804 0.565
-35.473 20.938 -32.261 -0.367 -0.93 0.009
-35.261 20.806 -32.517 -0.508 -0.842 0.18
-35.923 21.341 -32.645 -0.742 -0.595 -0.311
-35.799 21.287 -32.976 -0.824 -0.559 -0.09
-36.157 22.015 -32.69 -0.937 -0.032 -0.348
-36.079 22.094 -33.029 -0.989 -0.085 -0.121
-33.924 22.048 -31.202 0.279 -0.112 0.954
-33.667 22.564 -31.096 0.108 -0.456 0.883
-33.429 21.832 -31.487 0.57 -0.239 0.786
-33.134 22.332 -31.403 0.374 -0.572 0.73
-33.061 21.664 -31.944 0.787 -0.338 0.517
-32.739 22.151 -31.895 0.572 -0.662 0.484
-32.469 21.807 -33.215 0.614 -0.67 0.418
-32.521 21.705 -33.326 0.574 -0.748 0.332
-32.987 21.266 -32.972 0.885 -0.456 0.096
-33.451 20.856 -32.536 0.557 -0.813 0.169
-33.45 20.808 -32.708 0.557 -0.781 0.284
-33.437 20.743 -32.874 0.548 -0.738 0.395
-34.161 20.568 -32.612 0.139 -0.982 0.124
-34.097 20.545 -32.778 0.097 -0.967 0.234
-34.031 20.502 -32.938 0.053 -0.938 0.341
-34.81 20.601 -33.027 -0.242 -0.963 -0.12
-34.688 20.576 -33.156 -0.323 -0.946 -0.034
-34.574 20.53 -33.285 -0.4 -0.915 0.052
-35.155 20.944 -33.625 -0.445 -0.761 -0.471
-35.003 20.888 -33.7 -0.547 -0.724 -0.421
-34.862 20.816 -33.785 -0.64 -0.676 -0.364
-35.067 21.468 -34.183 -0.394 -0.453 -0.8
-34.923 21.365 -34.209 -0.49 -0.385 -0.782
-34.789 21.255 -34.252 -0.579 -0.311 -0.753
-34.479 21.83 -34.492 -0.175 -0.055 -0.983
-33.957 22.248 -34.789 -0.522 -0.333 -0.785
-34.03 22.417 -34.796 -0.578 -0.204 -0.79
-35.298 22.523 -34.237 -0.53 0.167 -0.832
-35.145 23.075 -34.361 -0.632 -0.201 -0.749
-35.699 22.703 -33.813 -0.765 0.274 -0.582
-35.577 23.269 -33.905 -0.847 -0.103 -0.521
-35.934 22.819 -33.261 -0.904 0.342 -0.258
-35.829 23.394 -33.312 -0.974 -0.041 -0.224
-34.818 23.453 -34.63 -0.468 -0.011 -0.884
-34.372 23.611 -35.006 -0.766 -0.117 -0.633
-34.906 24.085 -34.469 -0.512 0.305 -0.803
-34.46 24.243 -34.846 -0.809 0.199 -0.552
-35.8 23.946 -33.18 -0.959 0.235 -0.158
-35.888 24.361 -32.766 -0.9 -0.041 -0.434
-35.861 24.998 -32.584 -0.884 0.334 -0.326
-35.75 25.568 -32.65 -0.958 -0.047 -0.282
-35.935 25.059 -31.944 -0.928 0.37 0.05
-35.83 25.634 -31.962 -0.998 -0.014 0.062
-35.783 25.023 -31.315 -0.838 0.349 0.42
-35.666 25.596 -31.286 -0.916 -0.033 0.4
-35.425 24.895 -30.79 -0.628 0.274 0.729
-35.282 25.458 -30.721 -0.724 -0.102 0.682
-34.916 24.694 -30.445 -0.328 0.155 0.932
-34.733 25.242 -30.35 -0.45 -0.21 0.868
-34.328 24.45 -30.329 0.018 0.011 1
-34.101 24.979 -30.225 -0.133 -0.342 0.93
-33.746 24.196 -30.46 0.36 -0.138 0.923
-33.475 24.706 -30.366 0.179 -0.478 0.86
-33.812 23.565 -30.671 0.321 -0.509 0.799
-33.567 23.09 -30.926 0.157 -0.193 0.969
-32.263 23.067 -31.762 0.81 -0.204 0.55
-31.817 23.225 -32.139 0.512 -0.31 0.801
-32.326 22.495 -32.077 0.778 -0.49 0.393
-31.88 22.653 -32.453 0.48 -0.596 0.644
-32.188 24.275 -31.699 0.661 -0.275 0.698
-32.179 24.285 -31.704 0.666 -0.269 0.695
-31.431 23.726 -32.328 0.705 -0.059 0.707
-31.242 24.289 -32.303 0.579 -0.434 0.69
-31.623 22.447 -32.99 0.609 -0.698 0.376
-31.384 22.211 -33.492 0.45 -0.541 0.711
-30.888 22.256 -33.967 0.741 -0.515 0.431
-30.432 22.567 -34.125 0.437 -0.722 0.536
-30.91 21.986 -34.483 0.728 -0.674 0.128
-30.456 22.276 -34.68 0.425 -0.867 0.259
-31.082 21.846 -35.022 0.627 -0.756 -0.189
-30.641 22.126 -35.259 0.333 -0.942 -0.031
-31.384 21.853 -35.52 0.449 -0.752 -0.482
-30.966 22.133 -35.795 0.171 -0.939 -0.299
-31.78 22.005 -35.92 0.217 -0.662 -0.717
-31.392 22.297 -36.225 -0.042 -0.857 -0.514
-32.223 22.286 -36.173 -0.044 -0.497 -0.867
-31.868 22.599 -36.498 -0.281 -0.706 -0.65
-32.662 22.661 -36.251 -0.302 -0.276 -0.912
-32.34 23.003 -36.581 -0.517 -0.504 -0.692
-33.044 23.087 -36.144 -0.527 -0.026 -0.849
-32.752 23.461 -36.466 -0.722 -0.275 -0.634
-33.54 23.048 -35.672 -0.819 -0.049 -0.572
-33.942 23.347 -35.335 -0.551 -0.248 -0.797
-34.09 24.737 -35.023 -0.624 0.447 -0.641
-33.901 25.299 -34.998 -0.75 0.072 -0.658
-34.534 25.181 -34.101 -0.688 0.246 -0.683
-34.534 25.18 -34.101 -0.688 0.246 -0.683
-34.437 27.043 -33.401 -0.302 0.691 -0.657
-33.939 27.162 -33.676 -0.634 0.611 -0.474
-34.216 27.456 -32.884 -0.191 0.897 -0.399
-33.733 27.546 -33.196 -0.513 0.837 -0.191
-33.853 27.648 -32.321 -0.01 0.993 -0.118
-33.396 27.724 -32.673 -0.314 0.942 0.117
-33.401 27.593 -31.793 0.217 0.965 0.146
-32.975 27.673 -32.182 -0.067 0.912 0.405
-32.926 27.297 -31.378 0.454 0.818 0.354
-32.533 27.398 -31.796 0.193 0.75 0.633
-32.496 26.805 -31.135 0.669 0.571 0.476
-32.134 26.94 -31.57 0.427 0.481 0.766
-32.175 26.187 -31.1 0.829 0.262 0.493
-31.836 26.366 -31.537 0.603 0.143 0.785
-30.69 26.187 -32.738 0.442 0.104 0.891
-30.495 25.91 -32.859 0.594 -0.11 0.797
-29.446 24.621 -33.953 0.222 -0.126 0.967
-29.772 23.683 -33.958 0.768 -0.164 0.619
-29.221 24.168 -34.193 0.401 -0.487 0.776
-28.512 24.46 -34.12 -0.072 -0.682 0.728
-29.572 23.294 -34.508 0.868 -0.359 0.345
-29.062 23.858 -34.63 0.527 -0.735 0.427
-28.343 24.131 -34.585 0.048 -0.917 0.396
-29.495 23.164 -35.194 0.906 -0.424 0.002
-29.001 23.754 -35.177 0.576 -0.817 -0.009
-28.278 24.022 -35.164 0.095 -0.995 -0.018
-29.05 23.879 -35.72 0.537 -0.718 -0.443
-31.066 23.982 -37.439 0.422 -0.602 -0.678
-31.194 24.299 -38.029 0.507 -0.814 -0.284
-31.686 23.273 -37.017 -0.19 -0.369 -0.91
-31.712 23.831 -37.408 -0.173 -0.741 -0.649
-31.791 24.16 -38 -0.12 -0.96 -0.254
-31.907 24.191 -38.672 -0.043 -0.98 0.193
-32.485 23.609 -36.763 -0.589 -0.201 -0.783
-32.298 24.078 -37.221 -0.713 -0.513 -0.477
-32.333 24.388 -37.828 -0.69 -0.72 -0.073
-32.582 24.474 -38.457 -0.525 -0.778 0.347
-32.579 24.618 -36.957 -0.972 -0.016 -0.234
-32.593 24.887 -37.583 -0.963 -0.195 0.184
-32.643 24.776 -36.786 -0.93 -0.122 -0.348
-32.657 25.178 -37.257 -0.921 -0.389 -0.034
-32.906 25.48 -37.737 -0.755 -0.59 0.287
-32.691 25.096 -36.539 -0.976 0.188 -0.109
-32.697 25.448 -37.049 -0.972 -0.047 0.23
-32.952 25.788 -37.5 -0.802 -0.273 0.531
-32.936 25.633 -35.869 -0.813 -0.17 -0.557
-32.768 25.921 -36.533 -0.925 -0.362 -0.113
-32.941 26.075 -37.24 -0.81 -0.465 0.358
-32.923 26.042 -35.74 -0.792 0.503 -0.345
-32.76 26.177 -36.453 -0.901 0.413 0.13
-32.929 26.463 -37.118 -0.789 0.222 0.573
-32.861 26.567 -35.462 -0.833 0.153 -0.531
-32.895 26.965 -35.042 -0.86 0.47 -0.198
-33.087 27.049 -34.528 -0.732 0.415 -0.54
-32.785 27.252 -35.004 -0.934 0.279 -0.224
-33.249 27.522 -33.756 -0.228 0.823 -0.52
-32.836 27.507 -34.19 -0.503 0.833 -0.231
-32.544 27.691 -34.679 -0.698 0.71 0.095
-32.418 28.045 -35.145 -0.782 0.474 0.406
-32.348 27.685 -33.847 -0.057 0.995 0.082
-32.075 27.862 -34.35 -0.239 0.877 0.417
-32.109 27.715 -33.792 -0.217 0.975 0.045
-32.251 27.709 -32.915 0.359 0.933 -0.026
-31.752 27.681 -33.41 0.025 0.952 0.304
-31.244 27.967 -33.805 -0.313 0.761 0.568
-31.411 27.466 -33.074 0.256 0.807 0.532
-31.311 27.39 -32.992 0.19 0.858 0.477
-31.562 26.95 -32.151 0.764 0.486 0.424
-31.055 26.971 -32.673 0.426 0.472 0.772
-30.397 27.16 -32.922 -0.012 0.346 0.938
-30.892 26.411 -32.625 0.577 -0.045 0.816
-29.701 28.103 -33.752 -0.262 0.617 0.742
-29.045 27.384 -33.6 0.418 -0.129 0.899
-29.09 27.187 -33.592 0.448 0.002 0.894
-28.565 27.432 -33.724 0.098 -0.161 0.982
-29.066 27.127 -33.607 0.479 -0.076 0.874
-28.54 27.372 -33.739 0.129 -0.239 0.962
-28.852 26.574 -33.638 0.337 0.293 0.895
-28.921 26.317 -33.577 0.254 -0.015 0.967
-28.832 26.212 -33.596 0.194 0.054 0.979
-28.925 25.706 -33.66 0.12 -0.353 0.928
-29.084 25.535 -33.685 0.226 -0.239 0.944
-29.265 25.17 -33.8 0.101 -0.492 0.865
-28.056 24.876 -33.897 0.253 -0.385 0.887
-27.791 25.196 -33.761 0.077 -0.599 0.797
-27.547 24.688 -34.311 0.617 -0.52 0.591
-27.323 25.023 -34.143 0.467 -0.743 0.479
-27.186 24.787 -34.882 0.875 -0.448 0.183
-26.99 25.115 -34.669 0.744 -0.667 0.041
-27.073 25.147 -35.452 0.956 -0.192 -0.223
-26.886 25.446 -35.193 0.831 -0.391 -0.396
-27.355 26.188 -36.084 0.915 -0.167 -0.368
-27.361 26.182 -36.096 0.91 -0.172 -0.377
-27.485 25.134 -36.15 0.662 -0.201 -0.722
-27.728 25.42 -36.62 0.824 -0.391 -0.409
-27.881 24.631 -36.171 0.379 -0.56 -0.737
-28.198 24.824 -36.644 0.59 -0.689 -0.421
-29.102 24 -35.989 0.55 -0.649 -0.526
-29.09 23.916 -35.842 0.563 -0.743 -0.362
-29.28 24.018 -36.267 0.669 -0.661 -0.34
-29.506 24.154 -36.688 0.49 -0.553 -0.674
-29.591 24.201 -36.799 0.546 -0.585 -0.6
-29.958 24.33 -37.062 0.152 -0.446 -0.882
-30.689 24.19 -37.36 0.64 -0.352 -0.683
-30.89 24.515 -37.969 0.774 -0.569 -0.278
-30.898 24.016 -37.381 0.309 -0.626 -0.716
-31.109 24.334 -37.991 0.45 -0.838 -0.31
-30.533 24.913 -38.188 0.536 -0.834 -0.131
-30.1 24.963 -37.738 0.247 -0.867 -0.432
-30.265 25.474 -38.487 0.857 -0.16 -0.49
-29.843 25.503 -38.025 0.576 -0.179 -0.798
-30.185 26.049 -38.858 0.803 -0.544 -0.242
-30.452 26.467 -39.436 0.525 -0.108 -0.844
-31.365 26.268 -40.403 0.744 -0.242 -0.623
-32.078 25.873 -40.59 0.095 -0.602 -0.793
-32.493 25.008 -40.053 -0.461 -0.397 -0.794
-32.883 25.532 -40.291 -0.202 -0.746 -0.635
-32.925 24.872 -39.507 -0.77 -0.494 -0.404
-33.371 25.378 -39.674 -0.473 -0.831 -0.292
-33.075 24.904 -38.814 -0.877 -0.471 0.091
-33.541 25.414 -38.891 -0.567 -0.811 0.143
-32.968 25.866 -40.571 -0.249 -0.56 -0.79
-32.915 26.308 -41.103 -0.284 -0.854 -0.435
-33.629 26.22 -40.406 -0.616 -0.363 -0.699
-33.5 26.621 -40.958 -0.702 -0.631 -0.331
-34.028 26.814 -40.129 -0.838 -0.033 -0.545
-33.853 27.147 -40.713 -0.954 -0.255 -0.156
-34.071 27.508 -39.805 -0.862 0.352 -0.365
-33.891 27.761 -40.425 -0.982 0.184 0.049
-33.749 28.139 -39.509 -0.683 0.703 -0.2
-33.606 28.319 -40.164 -0.778 0.582 0.236
-33.636 28.219 -38.717 -0.62 0.747 0.24
-33.249 28.633 -38.225 -0.878 0.47 -0.088
-33.738 27.664 -38.084 -0.677 0.439 0.591
-33.34 28.143 -37.665 -0.943 0.12 0.312
-32.947 27.125 -37.184 -0.807 0.051 0.588
-32.692 27.211 -36.618 -0.978 -0.006 0.211
-32.927 26.954 -37.165 -0.79 -0.105 0.605
-32.673 27.049 -36.601 -0.959 -0.168 0.228
-32.725 27.476 -36.651 -0.955 -0.183 0.233
-32.551 28.218 -36.517 -0.797 0.489 0.354
-32.245 28.336 -35.264 -0.658 0.682 0.321
-31.997 28.869 -35.481 -0.823 0.326 0.465
-31.092 28.152 -34.013 -0.237 0.854 0.463
-30.978 28.911 -34.644 -0.313 0.348 0.884
-29.907 28.402 -34.079 -0.356 0.689 0.631
-29.743 28.21 -33.846 -0.234 0.546 0.804
-29.865 28.847 -34.386 -0.385 0.393 0.835
-29.555 29.481 -34.829 -0.171 0.831 0.529
-29.597 29.551 -34.94 -0.143 0.784 0.603
-29.167 29.728 -35.503 0.279 0.959 0.051
-29.033 29.696 -35.512 0.19 0.98 0.057
-28.905 29.666 -35.674 0.279 0.959 -0.055
-27.876 29.476 -35.485 0.405 0.82 -0.405
-28.001 29.397 -36.078 0.489 0.872 -0.01
-27.438 29.302 -34.869 0.718 0.696 0.035
-27.103 29.042 -34.764 0.494 0.869 -0.034
-27.624 29.246 -34.249 0.585 0.656 0.478
-27.274 28.99 -34.194 0.351 0.826 0.441
-27.898 28.909 -33.767 0.389 0.415 0.822
-27.526 28.68 -33.75 0.141 0.568 0.811
-28.192 28.376 -33.542 0.179 0.034 0.983
-27.796 28.189 -33.542 -0.084 0.158 0.984
-26.818 28.4 -35.437 0.731 0.334 -0.595
-27.117 28.366 -36.213 0.931 0.357 -0.077
-26.714 27.913 -35.409 0.817 -0.072 -0.572
-26.985 27.74 -36.178 0.997 0.044 -0.06
-26.919 26.877 -35.184 0.88 -0.08 -0.469
-26.676 27.441 -34.423 0.849 -0.465 0.25
-26.841 26.872 -34.453 0.959 -0.086 0.271
-26.78 26.283 -34.42 0.919 0.307 0.248
-27.175 27.487 -33.77 0.433 -0.426 0.794
-27.287 26.914 -33.87 0.508 -0.044 0.86
-27.279 26.33 -33.767 0.503 0.346 0.792
-28.011 26.979 -33.757 -0.224 0.023 0.974
-27.066 26.711 -35.576 0.978 0.03 -0.208
-27.246 26.327 -35.927 0.842 -0.26 -0.473
-28.577 29.575 -36.435 0.201 0.961 -0.188
-29.165 29.816 -36.586 0.593 0.8 -0.087
-27.377 28.623 -36.76 0.801 0.485 -0.351
-27.342 28.461 -36.97 0.777 0.593 -0.211
-27.039 27.626 -36.545 0.97 -0.013 -0.244
-27.079 27.685 -36.803 0.996 -0.053 -0.072
-27.499 26.865 -37.149 0.74 -0.394 -0.545
-27.436 27.094 -37.273 0.698 -0.546 -0.463
-28.704 27.272 -38.209 0.709 -0.23 -0.667
-28.85 26.864 -38.11 0.596 -0.544 -0.59
-27.896 26.656 -37.412 0.542 -0.498 -0.677
-28.066 26.035 -37.302 0.655 -0.084 -0.751
-27.51 26.632 -36.953 0.734 -0.51 -0.448
-27.681 26.01 -36.843 0.848 -0.096 -0.521
-28.978 26.543 -38.016 0.682 -0.33 -0.653
-29.229 26.294 -38.071 0.474 -0.536 -0.698
-29.338 26.19 -38.076 0.547 -0.467 -0.694
-29.508 26.097 -38.115 0.352 -0.575 -0.738
-28.615 27.366 -38.157 0.649 -0.292 -0.702
-28.609 27.418 -38.171 0.656 -0.235 -0.718
-30.532 26.899 -39.623 0.565 -0.274 -0.778
-30.524 26.818 -39.584 0.572 -0.342 -0.746
-30.605 26.981 -39.715 0.614 -0.328 -0.718
-30.643 27.111 -39.796 0.591 -0.249 -0.767
-30.805 27.331 -40.053 0.699 -0.395 -0.596
-31.18 27.691 -40.865 0.955 0.134 -0.265
-30.801 27.853 -40.196 0.702 0.026 -0.711
-30.133 28.025 -39.82 0.257 -0.089 -0.962
-31.381 28.233 -40.866 0.811 0.521 -0.266
-30.989 28.359 -40.197 0.55 0.436 -0.712
-30.371 28.666 -39.821 0.138 0.232 -0.963
-31.748 28.653 -40.715 0.55 0.82 -0.158
-31.332 28.752 -40.056 0.273 0.754 -0.598
-30.805 29.163 -39.642 -0.079 0.48 -0.874
-32.208 28.869 -40.442 0.221 0.975 0.037
-31.764 28.955 -39.8 -0.076 0.917 -0.391
-31.35 29.418 -39.318 -0.352 0.608 -0.712
-32.198 28.926 -39.479 -0.427 0.894 -0.132
-32.512 28.82 -39.46 -0.218 0.965 -0.145
-32.859 28.688 -39.362 -0.528 0.848 -0.057
-32.558 29.267 -38.12 -0.384 0.923 -0.012
-32.069 29.602 -38.034 -0.711 0.7 -0.069
-31.549 29.803 -36.629 -0.599 0.794 -0.109
-31.675 29.797 -37.265 -0.514 0.798 0.315
-31.408 29.857 -35.974 -0.528 0.821 0.219
-31.194 30.01 -35.924 -0.67 0.719 0.186
-30.981 29.643 -35.16 -0.314 0.714 0.626
-30.862 29.844 -35.291 -0.394 0.58 0.713
-29.661 29.996 -37.007 0.345 0.89 -0.297
-29.788 29.99 -37.642 0.43 0.894 0.126
-28.536 27.542 -38.155 0.607 -0.318 -0.728
-28.795 28.266 -38.647 0.926 0.032 -0.376
-28.435 28.115 -38.138 0.687 0.133 -0.715
-27.888 28 -37.825 0.322 0.209 -0.923
-28.463 28.636 -37.882 0.665 0.543 -0.513
-33.849 22.077 -34.806 -0.595 -0.22 -0.773
-33.054 21.833 -35.32 -0.533 -0.763 -0.365
-33.476 21.632 -34.765 -0.251 -0.63 -0.735
-33.987 21.21 -34.468 0.089 -0.348 -0.933
-32.525 21.491 -34.939 -0.222 -0.965 -0.141
-33.058 21.362 -34.464 0.134 -0.879 -0.458
-33.544 20.924 -34.149 0.458 -0.587 -0.668
-32.094 21.47 -34.342 0.032 -0.977 0.21
-32.718 21.345 -33.992 0.447 -0.894 -0.023
-33.184 20.906 -33.65 0.758 -0.601 -0.251
-32.555 21.588 -33.489 0.597 -0.671 0.44
-35.249 26.941 -31.485 -0.708 0.639 0.301
-35.138 27 -31.29 -0.782 0.599 0.171
-35.249 26.324 -30.838 -0.708 0.331 0.624
-35.138 26.521 -30.787 -0.782 0.2 0.591
-34.538 26.236 -30.304 -0.352 0.287 0.891
-34.585 26.453 -30.372 -0.321 0.143 0.936
-33.827 26.765 -30.418 0.004 0.551 0.834
-34.032 26.864 -30.461 0.14 0.486 0.863
-33.827 27.381 -31.064 0.004 0.86 0.511
-34.032 27.343 -30.964 0.14 0.885 0.444
-31.005 29.713 -39.156 -0.179 0.755 -0.63
-30.781 29.846 -39.097 -0.329 0.666 -0.669
-31.005 30.135 -38.261 -0.179 0.967 -0.183
-30.781 30.175 -38.401 -0.329 0.94 -0.089
-30.18 30.138 -37.715 0.234 0.968 0.09
-30.138 30.177 -37.976 0.206 0.942 0.265
-29.354 29.718 -38.064 0.647 0.758 -0.084
-29.496 29.851 -38.248 0.742 0.67 0.038
-29.354 29.296 -38.959 0.647 0.547 -0.532
-29.496 29.522 -38.944 0.742 0.396 -0.542
-28.347 27.013 -33.795 0 -0 1
-30.303 24.526 -37.302 0.383 -0.576 -0.722
-35.033 21.628 -31.15 -0 -0.355 0.935
-35.633 21.906 -31.243 -0.5 -0.123 0.857
-35.633 21.373 -31.487 -0.5 -0.567 0.654
-35.633 21.057 -31.979 -0.5 -0.831 0.244
-36.072 21.754 -31.752 -0.866 -0.25 0.433
-36.072 21.454 -32.272 -0.866 -0.5 -0
-36.233 22.054 -32.272 -1 0 0
-35.5 24.064 -33.881 -0.809 0.294 -0.509
-34.063 23.972 -30.419 0.174 -0.27 0.947
-34.653 23.972 -30.419 -0.174 -0.27 0.947
-35.208 24.276 -30.565 -0.5 -0.091 0.861
-35.66 24.274 -30.947 -0.766 -0.091 0.636
-35.955 24.721 -31.525 -0.94 0.171 0.296
-35.955 24.139 -31.525 -0.94 -0.171 0.296
-36.058 24.43 -32.029 -1 0 0
-32.706 22.857 -31.368 0.588 -0.31 0.747
-33.548 21.502 -31.548 0.5 -0.433 0.75
-33.548 21.047 -31.958 0.5 -0.701 0.509
-34.103 21.229 -31.487 0.174 -0.593 0.786
-34.103 20.815 -31.942 0.174 -0.837 0.518
-34.693 20.592 -32.515 -0.174 -0.968 0.181
-35.248 22.084 -34.287 -0.5 -0.091 -0.861
-35.7 21.522 -33.649 -0.766 -0.421 -0.486
-35.7 22.082 -33.905 -0.766 -0.091 -0.636
-31.298 21.94 -33.835 0.5 -0.701 0.509
-31.298 21.691 -34.394 0.5 -0.847 0.18
-31.853 21.485 -35.008 0.174 -0.968 -0.181
-31.853 21.708 -35.581 0.174 -0.837 -0.518
-32.443 21.708 -35.581 -0.174 -0.837 -0.518
-32.443 22.122 -36.036 -0.174 -0.593 -0.786
-32.998 22.395 -35.975 -0.5 -0.433 -0.75
-33.494 20.631 -33.641 0.5 -0.831 -0.244
-34.094 20.463 -33.635 -0 -0.971 -0.239
-34.094 20.73 -34.144 -0 -0.749 -0.663
-32.216 25.662 -30.91 0.809 -0 0.588
-32.658 26.281 -30.591 0.588 0.31 0.747
-32.658 25.662 -30.468 0.588 -0 0.809
-32.658 25.043 -30.591 0.588 -0.31 0.747
-33.216 27.163 -30.918 0.309 0.751 0.584
-33.216 26.702 -30.494 0.309 0.52 0.796
-33.216 26.129 -30.242 0.309 0.233 0.922
-33.216 25.505 -30.19 0.309 -0.079 0.948
-33.834 25.811 -30.092 -0 0.075 0.997
-33.834 25.217 -30.136 -0 -0.223 0.975
-34.452 27.564 -32.086 -0.309 0.951 0
-34.452 25.505 -30.19 -0.309 -0.079 0.948
-35.01 27.28 -32.086 -0.588 0.809 0
-35.01 26.281 -33.581 -0.588 0.31 -0.747
-35.01 26.806 -33.23 -0.588 0.572 -0.572
-35.01 27.157 -32.705 -0.588 0.747 -0.31
-35.452 26.838 -32.086 -0.809 0.588 0
-35.452 26.25 -33.104 -0.809 0.294 -0.509
-35.452 26.68 -32.674 -0.809 0.509 -0.294
-35.736 26.28 -32.086 -0.951 0.309 0
-35.736 25.971 -31.551 -0.951 0.155 0.268
-35.736 25.971 -32.621 -0.951 0.155 -0.268
-29.689 22.835 -35.197 0.809 -0.588 0
-30.131 23.392 -33.702 0.588 -0.31 0.747
-30.131 22.867 -34.053 0.588 -0.572 0.572
-30.131 22.516 -34.578 0.588 -0.747 0.31
-30.131 22.393 -35.197 0.588 -0.809 0
-30.131 22.516 -35.816 0.588 -0.747 -0.31
-30.689 22.338 -36.102 0.309 -0.836 -0.453
-31.307 22.545 -36.557 -0 -0.733 -0.68
-32.566 27.684 -32.266 0.174 0.918 0.356
-33.156 27.797 -32.871 -0.174 0.985 0
-27.538 24.365 -34.831 0.623 -0.75 0.22
-27.538 24.365 -35.447 0.623 -0.75 -0.22
-27.538 24.698 -35.966 0.623 -0.512 -0.591
-30.097 23.126 -36.654 0.5 -0.567 -0.654
-30.974 24.513 -39.25 0.623 -0.75 -0.22
-30.974 24.846 -39.769 0.623 -0.512 -0.591
-30.974 25.407 -40.025 0.623 -0.111 -0.774
-31.535 24.333 -39.534 0.223 -0.878 -0.423
-31.535 24.712 -40.009 0.223 -0.608 -0.762
-32.159 24.333 -39.534 -0.223 -0.878 -0.423
-32.159 24.712 -40.009 -0.223 -0.608 -0.762
-32.72 24.513 -39.25 -0.623 -0.75 -0.22
-33.42 25.772 -40.25 -0.5 -0.612 -0.612
-33.899 28.031 -39.148 -0.766 0.643 0
-33.899 26.874 -37.991 -0.766 -0 0.643
-33.899 26.295 -38.146 -0.766 -0.321 0.557
-33.899 25.872 -38.569 -0.766 -0.557 0.321
-33.899 25.717 -39.148 -0.766 -0.643 0
-33.899 25.872 -39.727 -0.766 -0.557 -0.321
-34.211 27.49 -39.148 -0.94 0.342 0
-34.211 27.182 -38.615 -0.94 0.171 0.296
-34.211 26.566 -38.615 -0.94 -0.171 0.296
-34.211 26.258 -39.148 -0.94 -0.342 -0
-34.211 26.566 -39.681 -0.94 -0.171 -0.296
-34.32 26.874 -39.148 -1 0 0
-28.131 29.693 -34.918 0.223 0.975 0
-28.131 29.558 -34.326 0.223 0.878 0.423
-28.131 29.179 -33.851 0.223 0.608 0.762
-28.755 29.558 -34.326 -0.223 0.878 0.423
-28.755 29.179 -33.851 -0.223 0.608 0.762
-26.495 27.999 -34.723 1 0 0
-26.656 28.599 -34.723 0.866 0.5 0
-26.656 28.299 -34.203 0.866 0.25 0.433
-27.095 28.431 -33.778 0.5 0.36 0.788
-27.095 27.851 -33.694 0.5 -0.123 0.857
-26.683 25.915 -34.718 1 0 0
-26.844 25.615 -34.198 0.866 -0.25 0.433
-27.283 25.767 -33.689 0.5 -0.123 0.857
-27.803 29.147 -36.677 0.588 0.747 -0.31
-28.201 25.583 -37.296 0.588 -0.31 -0.747
-31.644 26.787 -41.321 0.623 -0.512 -0.591
-31.644 27.348 -41.577 0.623 -0.111 -0.774
-31.644 27.959 -41.49 0.623 0.325 -0.711
-32.205 26.653 -41.561 0.223 -0.608 -0.762
-32.205 27.2 -41.825 0.223 -0.217 -0.95
-32.205 27.808 -41.825 0.223 0.217 -0.95
-32.205 28.355 -41.561 0.223 0.608 -0.762
-32.205 28.734 -41.086 0.223 0.878 -0.423
-32.829 28.869 -40.494 -0.223 0.975 0
-32.829 26.653 -41.561 -0.223 -0.608 -0.762
-32.829 27.2 -41.825 -0.223 -0.217 -0.95
-32.829 27.808 -41.825 -0.223 0.217 -0.95
-32.829 28.355 -41.561 -0.223 0.608 -0.762
-32.829 28.734 -41.086 -0.223 0.878 -0.423
-33.39 28.599 -40.494 -0.623 0.782 0
-33.39 26.787 -41.321 -0.623 -0.512 -0.591
-33.39 27.348 -41.577 -0.623 -0.111 -0.774
-33.39 27.959 -41.49 -0.623 0.325 -0.711
-33.39 28.425 -41.086 -0.623 0.658 -0.423
-33.778 27.808 -41.02 -0.901 0.217 -0.376
-32.893 29.07 -38.102 -0.623 0.782 0
-30.97 29.256 -34.82 -0.309 0.52 0.796
-31.528 29.36 -35.268 -0.588 0.572 0.572
-31.97 29.234 -35.824 -0.809 0.509 0.294
-30.39 30.348 -36.147 -0 1 0
-30.39 30.211 -35.589 -0 0.885 0.465
-29.029 28.202 -39.071 0.809 -0 -0.588
-29.029 28.79 -38.913 0.809 0.294 -0.509
-29.471 28.202 -39.513 0.588 0 -0.809
-29.471 28.821 -39.39 0.588 0.31 -0.747
-31.265 30.104 -37.895 -0.309 0.951 0
-31.823 29.82 -37.895 -0.588 0.809 0
-27.235 27.449 -37.237 0.866 -0.25 -0.433
-27.235 28.049 -37.237 0.866 0.25 -0.433
-34.8 27.155 -30.934 -0.5 0.729 0.468
-34.8 26.713 -30.551 -0.5 0.36 0.788
-29.786 29.921 -38.856 0.5 0.729 -0.468
-30.386 30.11 -38.852 -0 0.885 -0.465
3 0 4 1
3 1 4 3
3 4 215 214
3 214 215 216
3 214 216 5
3 5 216 217
3 215 218 216
3 216 218 219
3 216 219 217
3 217 219 220
3 218 7 219
3 219 7 221
3 219 221 220
3 220 221 6
3 7 10 8
3 8 10 9
3 10 222 11
3 11 222 223
3 222 224 223
3 223 224 225
3 224 226 225
3 225 226 227
3 226 228 227
3 227 228 229
3 228 230 229
3 229 230 231
3 230 0 231
3 231 0 2
3 11 232 9
3 9 232 233
3 232 234 233
3 233 234 235
3 234 236 235
3 235 236 237
3 236 13 237
3 237 13 12
3 13 16 14
3 14 16 15
3 16 19 238
3 238 19 239
3 238 239 17
3 17 239 18
3 19 241 240
3 240 241 242
3 240 242 20
3 20 242 243
3 241 244 242
3 242 244 245
3 242 245 243
3 243 245 246
3 244 247 245
3 245 247 248
3 245 248 246
3 246 248 249
3 247 250 248
3 248 250 251
3 248 251 249
3 249 251 252
3 250 253 251
3 251 253 254
3 251 254 252
3 252 254 255
3 253 22 254
3 254 22 256
3 254 256 255
3 255 256 21
3 22 25 257
3 257 25 258
3 257 258 23
3 23 258 24
3 25 28 26
3 26 28 27
3 28 259 29
3 29 259 260
3 259 261 260
3 260 261 262
3 261 263 262
3 262 263 264
3 263 2 264
3 264 2 1
3 29 265 27
3 27 265 266
3 265 267 266
3 266 267 268
3 267 31 268
3 268 31 30
3 31 34 32
3 32 34 33
3 34 269 35
3 35 269 270
3 269 3 270
3 270 3 5
3 35 271 33
3 33 271 272
3 271 273 272
3 272 273 274
3 273 275 274
3 274 275 276
3 275 277 276
3 276 277 278
3 277 279 278
3 278 279 280
3 279 281 280
3 280 281 282
3 281 283 282
3 282 283 284
3 283 37 284
3 284 37 36
3 37 285 38
3 38 285 286
3 285 6 286
3 286 6 8
3 38 40 36
3 36 40 39
3 40 287 41
3 41 287 288
3 287 289 288
3 288 289 290
3 289 12 290
3 290 12 14
3 41 43 291
3 291 43 292
3 291 292 39
3 39 292 42
3 43 293 44
3 44 293 294
3 293 46 294
3 294 46 45
3 46 49 47
3 47 49 48
3 49 295 50
3 50 295 296
3 295 15 296
3 296 15 17
3 50 297 48
3 48 297 298
3 297 299 298
3 298 299 300
3 299 301 300
3 300 301 302
3 301 303 302
3 302 303 304
3 303 305 304
3 304 305 306
3 305 307 306
3 306 307 308
3 307 309 308
3 308 309 310
3 309 311 310
3 310 311 312
3 311 52 312
3 312 52 51
3 52 313 53
3 53 313 314
3 313 24 314
3 314 24 26
3 53 55 51
3 51 55 54
3 55 315 56
3 56 315 316
3 315 58 316
3 316 58 57
3 58 30 317
3 317 30 318
3 317 318 59
3 59 318 32
3 59 61 57
3 57 61 60
3 61 319 62
3 62 319 320
3 319 321 320
3 320 321 322
3 321 323 322
3 322 323 324
3 323 325 324
3 324 325 326
3 325 327 326
3 326 327 328
3 327 329 328
3 328 329 330
3 329 331 330
3 330 331 332
3 331 64 332
3 332 64 63
3 64 42 65
3 65 42 44
3 65 67 63
3 63 67 66
3 67 70 333
3 333 70 334
3 333 334 68
3 68 334 69
3 70 73 71
3 71 73 72
3 73 45 74
3 74 45 47
3 74 76 72
3 72 76 75
3 76 336 335
3 335 336 337
3 335 337 77
3 77 337 338
3 336 339 337
3 337 339 340
3 337 340 338
3 338 340 341
3 339 342 340
3 340 342 343
3 340 343 341
3 341 343 344
3 342 79 343
3 343 79 345
3 343 345 344
3 344 345 78
3 79 82 80
3 80 82 81
3 82 348 346
3 346 348 349
3 346 349 347
3 347 349 350
3 347 350 83
3 83 350 351
3 348 352 349
3 349 352 353
3 349 353 350
3 350 353 354
3 350 354 351
3 351 354 355
3 352 85 353
3 353 85 356
3 353 356 354
3 354 356 357
3 354 357 355
3 355 357 84
3 85 88 358
3 358 88 361
3 358 361 359
3 359 361 362
3 359 362 360
3 360 362 363
3 360 363 86
3 86 363 87
3 88 54 89
3 89 54 56
3 89 91 364
3 364 91 367
3 364 367 365
3 365 367 368
3 365 368 366
3 366 368 369
3 366 369 87
3 87 369 90
3 91 94 370
3 370 94 371
3 370 371 92
3 92 371 93
3 94 60 95
3 95 60 62
3 95 374 372
3 372 374 375
3 372 375 373
3 373 375 376
3 373 376 93
3 93 376 377
3 374 97 375
3 375 97 378
3 375 378 376
3 376 378 379
3 376 379 377
3 377 379 96
3 97 381 380
3 380 381 382
3 380 382 98
3 98 382 383
3 381 100 382
3 382 100 384
3 382 384 383
3 383 384 99
3 100 386 385
3 385 386 387
3 385 387 101
3 101 387 388
3 386 66 387
3 387 66 389
3 387 389 388
3 388 389 68
3 101 103 99
3 99 103 102
3 103 106 390
3 390 106 391
3 390 391 104
3 104 391 105
3 106 109 392
3 392 109 394
3 392 394 393
3 393 394 395
3 393 395 107
3 107 395 108
3 109 112 396
3 396 112 397
3 396 397 110
3 110 397 111
3 112 69 113
3 113 69 71
3 113 115 398
3 398 115 399
3 398 399 111
3 111 399 114
3 115 75 400
3 400 75 401
3 400 401 116
3 116 401 77
3 116 402 114
3 114 402 403
3 402 404 403
3 403 404 405
3 404 406 405
3 405 406 407
3 406 408 407
3 407 408 409
3 408 118 409
3 409 118 117
3 118 121 410
3 410 121 411
3 410 411 119
3 119 411 120
3 121 412 122
3 122 412 413
3 412 414 413
3 413 414 415
3 414 124 415
3 415 124 123
3 124 78 416
3 416 78 417
3 416 417 125
3 125 417 80
3 125 127 418
3 418 127 419
3 418 419 123
3 123 419 126
3 127 130 420
3 420 130 421
3 420 421 128
3 128 421 129
3 130 81 422
3 422 81 424
3 422 424 423
3 423 424 425
3 423 425 131
3 131 425 83
3 131 133 426
3 426 133 428
3 426 428 427
3 427 428 429
3 427 429 129
3 129 429 132
3 133 136 430
3 430 136 431
3 430 431 134
3 134 431 135
3 136 139 137
3 137 139 138
3 139 142 432
3 432 142 433
3 432 433 140
3 140 433 141
3 142 434 143
3 143 434 435
3 434 436 435
3 435 436 437
3 436 438 437
3 437 438 439
3 438 84 439
3 439 84 86
3 143 440 141
3 141 440 441
3 440 442 441
3 441 442 443
3 442 444 443
3 443 444 445
3 444 446 445
3 445 446 447
3 446 448 447
3 447 448 449
3 448 145 449
3 449 145 144
3 145 450 146
3 146 450 451
3 450 452 451
3 451 452 453
3 452 148 453
3 453 148 147
3 148 90 454
3 454 90 456
3 454 456 455
3 455 456 457
3 455 457 149
3 149 457 92
3 149 151 458
3 458 151 459
3 458 459 147
3 147 459 150
3 151 460 152
3 152 460 461
3 460 154 461
3 461 154 153
3 154 96 155
3 155 96 98
3 155 462 153
3 153 462 463
3 462 157 463
3 463 157 156
3 157 102 464
3 464 102 465
3 464 465 158
3 158 465 104
3 158 160 466
3 466 160 467
3 466 467 156
3 156 467 159
3 160 163 468
3 468 163 469
3 468 469 161
3 161 469 162
3 163 166 470
3 470 166 471
3 470 471 164
3 164 471 165
3 166 472 167
3 167 472 473
3 472 169 473
3 473 169 168
3 169 474 170
3 170 474 475
3 474 476 475
3 475 476 477
3 476 478 477
3 477 478 479
3 478 480 479
3 479 480 481
3 480 105 481
3 481 105 107
3 170 482 168
3 168 482 483
3 482 484 483
3 483 484 485
3 484 172 485
3 485 172 171
3 172 487 486
3 486 487 488
3 486 488 173
3 173 488 489
3 487 490 488
3 488 490 491
3 488 491 489
3 489 491 492
3 490 108 491
3 491 108 493
3 491 493 492
3 492 493 110
3 173 117 494
3 494 117 495
3 494 495 171
3 171 495 119
3 167 496 165
3 165 496 497
3 496 175 497
3 497 175 174
3 175 178 176
3 176 178 177
3 178 498 179
3 179 498 499
3 498 500 499
3 499 500 501
3 500 502 501
3 501 502 503
3 502 181 503
3 503 181 180
3 181 184 504
3 504 184 505
3 504 505 182
3 182 505 183
3 184 506 185
3 185 506 507
3 506 508 507
3 507 508 509
3 508 120 509
3 509 120 122
3 185 187 510
3 510 187 511
3 510 511 183
3 183 511 186
3 187 126 188
3 188 126 128
3 188 132 512
3 512 132 513
3 512 513 186
3 186 513 134
3 182 190 514
3 514 190 515
3 514 515 180
3 180 515 189
3 190 193 191
3 191 193 192
3 193 135 516
3 516 135 517
3 516 517 194
3 194 517 137
3 194 196 518
3 518 196 519
3 518 519 192
3 192 519 195
3 196 138 197
3 197 138 140
3 197 521 520
3 520 521 522
3 520 522 195
3 195 522 523
3 521 524 522
3 522 524 525
3 522 525 523
3 523 525 526
3 524 527 525
3 525 527 528
3 525 528 526
3 526 528 529
3 527 530 528
3 528 530 531
3 528 531 529
3 529 531 532
3 530 199 531
3 531 199 533
3 531 533 532
3 532 533 198
3 199 144 534
3 534 144 535
3 534 535 200
3 200 535 146
3 200 536 198
3 198 536 537
3 536 202 537
3 537 202 201
3 202 150 203
3 203 150 152
3 203 538 201
3 201 538 539
3 538 205 539
3 539 205 204
3 205 540 206
3 206 540 541
3 540 542 541
3 541 542 543
3 542 159 543
3 543 159 161
3 206 208 204
3 204 208 207
3 208 162 209
3 209 162 164
3 209 544 207
3 207 544 545
3 544 174 545
3 545 174 176
3 191 547 546
3 546 547 548
3 546 548 189
3 189 548 549
3 547 177 548
3 548 177 550
3 548 550 549
3 549 550 179
3 23 552 551
3 551 552 553
3 551 553 21
3 21 553 554
3 552 555 553
3 553 555 556
3 553 556 554
3 554 556 557
3 555 558 556
3 556 558 559
3 556 559 557
3 557 559 560
3 558 18 559
3 559 18 561
3 559 561 560
3 560 561 20
3 210 562 211
3 211 562 563
3 562 564 563
3 563 564 565
3 564 566 565
3 565 566 567
3 566 568 567
3 567 568 569
3 568 570 569
3 569 570 571
3 570 210 571
3 571 210 211
3 212 572 213
3 213 572 573
3 572 574 573
3 573 574 575
3 574 576 575
3 575 576 577
3 576 578 577
3 577 578 579
3 578 580 579
3 579 580 581
3 580 212 581
3 581 212 213
3 2 0 1
3 5 3 214
3 214 3 4
3 8 6 221
3 8 221 7
3 11 9 10
3 14 12 13
3 17 15 238
3 238 15 16
3 561 18 239
3 561 239 240
3 561 240 20
3 240 239 19
3 551 21 256
3 551 256 257
3 551 257 23
3 257 256 22
3 26 24 258
3 26 258 25
3 29 27 28
3 318 30 31
3 318 31 32
3 35 33 34
3 38 36 37
3 291 39 40
3 291 40 41
3 44 42 292
3 44 292 43
3 47 45 46
3 50 48 49
3 53 51 52
3 56 54 55
3 59 57 317
3 317 57 58
3 62 60 61
3 65 63 64
3 389 66 67
3 389 67 333
3 389 333 68
3 71 69 334
3 71 334 70
3 74 72 73
3 401 75 335
3 401 335 77
3 335 75 76
3 417 78 345
3 417 345 79
3 417 79 80
3 424 81 82
3 424 82 346
3 424 346 425
3 425 346 347
3 425 347 83
3 86 84 360
3 360 84 357
3 360 357 359
3 359 357 356
3 359 356 358
3 358 356 85
3 366 87 363
3 366 363 362
3 366 362 365
3 365 362 361
3 365 361 364
3 364 361 88
3 364 88 89
3 456 90 369
3 456 369 457
3 457 369 368
3 457 368 92
3 92 368 370
3 370 368 367
3 370 367 91
3 373 93 371
3 373 371 372
3 372 371 94
3 372 94 95
3 98 96 379
3 98 379 380
3 380 379 378
3 380 378 97
3 101 99 385
3 385 99 384
3 385 384 100
3 465 102 390
3 465 390 104
3 390 102 103
3 107 105 393
3 393 105 391
3 393 391 392
3 392 391 106
3 493 108 582
3 493 582 110
3 110 582 396
3 396 582 394
3 396 394 109
3 394 582 395
3 395 582 108
3 398 111 397
3 398 397 113
3 113 397 112
3 116 114 399
3 116 399 400
3 400 399 115
3 495 117 410
3 495 410 119
3 410 117 118
3 122 120 411
3 122 411 121
3 418 123 416
3 418 416 125
3 416 123 124
3 128 126 420
3 420 126 419
3 420 419 127
3 427 129 583
3 427 583 423
3 427 423 426
3 426 423 131
3 423 583 422
3 422 583 130
3 130 583 421
3 421 583 129
3 513 132 429
3 513 429 428
3 513 428 430
3 513 430 134
3 430 428 133
3 517 135 431
3 517 431 137
3 137 431 136
3 140 138 432
3 432 138 139
3 143 141 433
3 143 433 142
3 535 144 145
3 535 145 146
3 458 147 454
3 458 454 455
3 458 455 149
3 454 147 148
3 152 150 459
3 152 459 151
3 155 153 154
3 466 156 464
3 466 464 158
3 464 156 157
3 161 159 468
3 468 159 467
3 468 467 160
3 164 162 469
3 164 469 470
3 470 469 163
3 167 165 471
3 167 471 166
3 170 168 169
3 494 171 486
3 494 486 173
3 486 171 172
3 176 174 175
3 550 177 178
3 550 178 179
3 514 180 181
3 514 181 504
3 514 504 182
3 510 183 505
3 510 505 184
3 510 184 185
3 512 186 511
3 512 511 187
3 512 187 188
3 546 189 515
3 546 515 191
3 191 515 190
3 518 192 516
3 518 516 194
3 516 192 193
3 520 195 519
3 520 519 196
3 520 196 197
3 200 198 533
3 200 533 534
3 534 533 199
3 203 201 202
3 206 204 205
3 209 207 208
3 4 0 215
3 10 7 222
3 584 585 586
3 586 585 588
3 587 586 588
3 587 588 589
3 589 588 590
3 589 590 230
3 589 230 228
3 589 228 587
3 587 228 226
3 587 226 224
3 587 224 586
3 586 224 584
3 584 224 222
3 584 222 7
3 584 7 585
3 585 7 218
3 585 218 215
3 585 215 588
3 588 215 590
3 590 215 0
3 590 0 230
3 269 34 591
3 269 591 264
3 269 264 1
3 269 1 3
3 264 591 262
3 262 591 260
3 260 591 267
3 260 267 265
3 260 265 29
3 267 591 31
3 31 591 34
3 595 596 597
3 597 596 598
3 597 598 5
3 597 5 217
3 597 217 595
3 595 217 220
3 595 220 594
3 595 594 277
3 595 277 275
3 595 275 596
3 596 275 273
3 596 273 598
3 598 273 271
3 598 271 270
3 598 270 5
3 270 271 35
3 277 594 279
3 279 594 593
3 279 593 281
3 281 593 592
3 281 592 283
3 283 592 285
3 283 285 37
3 285 592 6
3 6 592 593
3 6 593 220
3 220 593 594
3 8 9 286
3 237 12 289
3 237 289 599
3 237 599 235
3 235 599 286
3 235 286 233
3 233 286 9
3 286 599 38
3 38 599 40
3 40 599 287
3 287 599 289
3 601 600 602
3 601 602 603
3 601 603 241
3 601 241 13
3 601 13 236
3 601 236 600
3 600 236 234
3 600 234 232
3 600 232 602
3 602 232 223
3 602 223 225
3 602 225 603
3 603 225 604
3 603 604 244
3 603 244 241
3 244 604 247
3 247 604 227
3 247 227 250
3 250 227 229
3 250 229 606
3 250 606 253
3 253 606 607
3 253 607 605
3 253 605 22
3 22 605 25
3 25 605 28
3 28 605 259
3 259 605 607
3 259 607 261
3 261 607 263
3 263 607 231
3 263 231 2
3 231 607 606
3 231 606 229
3 227 604 225
3 223 232 11
3 13 241 16
3 16 241 19
3 295 49 290
3 295 290 14
3 295 14 15
3 290 49 288
3 288 49 293
3 288 293 41
3 41 293 43
3 293 49 46
3 611 610 612
3 611 612 305
3 611 305 303
3 611 303 610
3 610 303 301
3 610 301 609
3 610 609 558
3 610 558 555
3 610 555 612
3 612 555 552
3 612 552 614
3 612 614 613
3 612 613 305
3 305 613 307
3 307 613 309
3 309 613 614
3 309 614 311
3 311 614 313
3 311 313 52
3 313 614 24
3 24 614 23
3 23 614 552
3 558 609 18
3 18 609 608
3 18 608 17
3 17 608 296
3 296 608 297
3 296 297 50
3 297 608 299
3 299 608 609
3 299 609 301
3 615 616 617
3 615 617 557
3 615 557 560
3 615 560 243
3 615 243 246
3 615 246 616
3 616 246 249
3 616 249 252
3 616 252 617
3 617 252 255
3 617 255 554
3 617 554 557
3 554 255 21
3 243 560 20
3 30 58 268
3 268 58 315
3 268 315 53
3 268 53 266
3 266 53 314
3 266 314 27
3 27 314 26
3 53 315 55
3 59 32 61
3 618 619 620
3 618 620 621
3 619 623 624
3 620 619 624
3 620 624 625
3 621 620 625
3 625 624 626
3 625 626 627
3 627 626 629
3 632 631 635
3 632 635 636
3 633 632 636
3 634 633 636
3 630 633 634
3 636 635 639
3 637 636 639
3 634 636 637
3 637 639 274
3 637 274 638
3 637 638 562
3 637 562 634
3 634 562 630
3 630 562 210
3 630 210 628
3 630 628 633
3 633 628 321
3 633 321 319
3 633 319 632
3 632 319 61
3 632 61 631
3 631 61 32
3 631 32 33
3 631 33 635
3 635 33 639
3 639 33 272
3 639 272 274
3 321 628 323
3 323 628 325
3 325 628 210
3 325 210 570
3 325 570 327
3 327 570 622
3 327 622 329
3 329 622 623
3 329 623 619
3 329 619 331
3 331 619 618
3 331 618 64
3 64 618 42
3 42 618 621
3 42 621 39
3 39 621 36
3 36 621 284
3 284 621 625
3 284 625 627
3 284 627 282
3 282 627 629
3 282 629 280
3 280 629 566
3 280 566 278
3 278 566 564
3 278 564 276
3 276 564 638
3 276 638 274
3 638 564 562
3 566 629 626
3 566 626 568
3 568 626 624
3 568 624 623
3 568 623 622
3 568 622 570
3 45 73 294
3 294 73 70
3 294 70 65
3 294 65 44
3 65 70 67
3 640 643 644
3 640 644 645
3 640 645 79
3 640 79 342
3 640 342 339
3 640 339 643
3 643 339 642
3 643 642 298
3 643 298 300
3 643 300 644
3 644 300 302
3 644 302 645
3 645 302 646
3 645 646 82
3 645 82 79
3 82 646 647
3 82 647 348
3 348 647 308
3 348 308 310
3 348 310 352
3 352 310 312
3 352 312 85
3 85 312 51
3 85 51 54
3 85 54 88
3 308 647 306
3 306 647 646
3 306 646 304
3 304 646 302
3 298 642 48
3 48 642 641
3 48 641 47
3 47 641 76
3 47 76 74
3 76 641 336
3 336 641 642
3 336 642 339
3 57 60 316
3 316 60 91
3 316 91 89
3 316 89 56
3 91 60 94
3 63 66 332
3 332 66 386
3 332 386 330
3 330 386 328
3 328 386 100
3 328 100 648
3 328 648 326
3 326 648 649
3 326 649 324
3 324 649 322
3 322 649 374
3 322 374 320
3 320 374 95
3 320 95 62
3 374 649 97
3 97 649 381
3 381 649 648
3 381 648 100
3 69 112 68
3 68 112 106
3 68 106 388
3 388 106 103
3 388 103 101
3 106 112 109
3 72 75 115
3 72 115 71
3 71 115 113
3 121 118 412
3 78 124 414
3 78 414 651
3 78 651 344
3 344 651 650
3 344 650 341
3 341 650 404
3 341 404 338
3 338 404 402
3 338 402 77
3 77 402 116
3 404 650 406
3 406 650 651
3 406 651 408
3 408 651 652
3 408 652 412
3 408 412 118
3 412 652 414
3 414 652 651
3 81 130 653
3 653 130 127
3 653 127 125
3 653 125 80
3 80 81 653
3 655 654 657
3 655 657 658
3 657 659 660
3 658 657 660
3 658 660 142
3 658 142 656
3 658 656 655
3 655 656 133
3 655 133 654
3 654 133 131
3 654 131 83
3 654 83 657
3 657 83 351
3 657 351 659
3 659 351 661
3 659 661 660
3 660 661 436
3 660 436 434
3 660 434 142
3 436 661 438
3 438 661 355
3 438 355 84
3 355 661 351
3 133 656 136
3 136 656 139
3 139 656 142
3 664 670 671
3 665 664 671
3 666 665 671
3 666 671 672
3 667 666 672
3 668 667 672
3 668 672 673
3 670 669 674
3 671 670 674
3 672 671 674
3 673 672 674
3 673 674 446
3 673 446 444
3 673 444 442
3 673 442 668
3 668 442 662
3 668 662 437
3 668 437 667
3 667 437 439
3 667 439 666
3 666 439 86
3 666 86 665
3 665 86 87
3 665 87 90
3 665 90 664
3 664 90 148
3 664 148 452
3 664 452 670
3 670 452 450
3 670 450 663
3 670 663 669
3 669 663 446
3 669 446 674
3 446 663 448
3 448 663 450
3 448 450 145
3 437 662 435
3 435 662 440
3 435 440 143
3 440 662 442
3 377 96 460
3 377 460 151
3 377 151 93
3 93 151 149
3 93 149 92
3 460 96 154
3 99 102 157
3 99 157 383
3 383 157 462
3 383 462 155
3 383 155 98
3 676 675 678
3 676 678 679
3 677 676 679
3 677 679 480
3 677 480 478
3 677 478 476
3 677 476 676
3 676 476 474
3 676 474 675
3 675 474 472
3 675 472 166
3 675 166 163
3 675 163 678
3 678 163 160
3 678 160 679
3 679 160 158
3 679 158 104
3 679 104 480
3 480 104 105
3 472 474 169
3 680 681 682
3 682 683 684
3 682 684 487
3 682 487 680
3 680 487 172
3 680 172 484
3 680 484 482
3 680 482 681
3 681 482 170
3 681 170 475
3 681 475 477
3 681 477 682
3 682 477 683
3 683 477 479
3 683 479 481
3 683 481 684
3 684 481 107
3 684 107 108
3 684 108 490
3 684 490 487
3 111 114 687
3 111 687 492
3 111 492 110
3 492 687 686
3 492 686 489
3 489 686 685
3 489 685 173
3 173 685 409
3 173 409 117
3 409 685 407
3 407 685 686
3 407 686 405
3 405 686 687
3 405 687 403
3 403 687 114
3 506 184 181
3 506 181 502
3 506 502 508
3 508 502 120
3 120 502 500
3 120 500 119
3 119 500 171
3 171 500 485
3 485 500 483
3 483 500 498
3 483 498 168
3 168 498 688
3 168 688 473
3 473 688 496
3 473 496 167
3 496 688 175
3 175 688 178
3 178 688 498
3 123 126 415
3 415 126 689
3 415 689 413
3 413 689 509
3 413 509 122
3 509 689 507
3 507 689 185
3 185 689 187
3 187 689 126
3 129 132 128
3 128 132 188
3 135 193 182
3 135 182 183
3 135 183 186
3 135 186 134
3 182 193 190
3 138 196 194
3 138 194 137
3 690 693 694
3 691 690 694
3 691 694 695
3 692 691 695
3 692 695 696
3 693 699 700
3 694 693 700
3 694 700 701
3 695 694 701
3 695 701 702
3 696 695 702
3 696 702 703
3 697 696 703
3 700 699 705
3 700 705 706
3 701 700 706
3 701 706 707
3 702 701 707
3 702 707 708
3 703 702 708
3 704 703 708
3 698 703 704
3 707 706 709
3 708 707 709
3 708 709 704
3 704 709 449
3 704 449 144
3 704 144 698
3 698 144 199
3 698 199 530
3 698 530 697
3 698 697 703
3 697 530 527
3 697 527 692
3 697 692 696
3 692 527 524
3 692 524 521
3 692 521 691
3 691 521 197
3 691 197 690
3 690 197 140
3 690 140 141
3 690 141 693
3 693 141 699
3 699 141 441
3 699 441 705
3 705 441 443
3 705 443 445
3 705 445 706
3 706 445 709
3 709 445 447
3 709 447 449
3 147 150 453
3 453 150 202
3 453 202 451
3 451 202 710
3 451 710 146
3 146 710 536
3 146 536 200
3 536 710 202
3 463 156 711
3 463 711 153
3 153 711 712
3 153 712 461
3 461 712 713
3 461 713 152
3 152 713 203
3 203 713 540
3 203 540 538
3 538 540 205
3 540 713 712
3 540 712 542
3 542 712 711
3 542 711 159
3 159 711 156
3 162 208 714
3 162 714 715
3 162 715 161
3 161 715 543
3 543 715 541
3 541 715 714
3 541 714 206
3 206 714 208
3 497 174 544
3 497 544 165
3 165 544 164
3 164 544 209
3 716 718 719
3 717 716 719
3 717 719 580
3 717 580 177
3 717 177 547
3 717 547 716
3 716 547 191
3 716 191 718
3 718 191 192
3 718 192 195
3 718 195 523
3 718 523 526
3 718 526 719
3 719 526 212
3 719 212 580
3 212 526 529
3 212 529 572
3 572 529 532
3 572 532 198
3 572 198 574
3 574 198 721
3 574 721 720
3 574 720 207
3 574 207 576
3 576 207 545
3 576 545 578
3 578 545 176
3 578 176 177
3 578 177 580
3 207 720 204
3 204 720 539
3 539 720 721
3 539 721 201
3 201 721 537
3 537 721 198
3 180 189 503
3 503 189 722
3 503 722 501
3 501 722 723
3 501 723 499
3 499 723 179
3 179 723 549
3 549 723 722
3 549 722 189
3 571 211 724
3 571 724 569
3 569 724 725
3 569 725 567
3 567 725 565
3 565 725 724
3 565 724 563
3 563 724 211
3 581 213 726
3 581 726 579
3 579 726 577
3 577 726 727
3 577 727 575
3 575 727 573
3 573 727 213
3 213 727 726
