ply
format ascii 1.0
comment Generated by PyMesh
element vertex 909
property float x
property float y
property float z
property float nx
property float ny
property float nz
element face 1814
property list uchar int vertex_indices
end_header
130.937 111.67 203.398 -0.579 -0.245 -0.777
131.052 111.926 203.177 -0.656 -0.416 -0.63
131.434 110.714 202.424 -0.911 0.392 -0.128
132.314 111.15 205.066 0.086 -0.872 0.481
131.992 111.021 204.979 0.3 -0.786 0.54
132.696 109.938 204.313 -0.169 -0.064 0.984
132.362 111.16 205.075 0.115 -0.866 0.486
132.745 109.948 204.321 -0.14 -0.058 0.988
132.967 110.463 204.5 -0.288 -0.401 0.869
134.127 109.962 204.162 0.291 -0.652 0.7
133.823 109.483 204.007 0.494 -0.332 0.804
134.23 109.128 203.757 0.223 -0.096 0.97
132.317 110.294 200.869 -0.734 0.487 -0.474
132.044 110.566 201.322 -0.552 0.305 -0.776
132.214 111.128 201.274 -0.665 -0.069 -0.744
131.572 111.309 202.429 -0.986 0.022 -0.166
131.448 110.735 202.396 -0.903 0.405 -0.144
131.065 111.947 203.15 -0.648 -0.403 -0.646
131.662 111.646 202.202 -0.941 0.191 -0.279
131.149 112.261 202.939 -0.599 -0.219 -0.77
131.538 112.187 202.508 -0.859 -0.17 -0.483
132.318 114.286 203.318 -0.469 0.88 -0.078
131.873 114.212 203.692 -0.173 0.929 -0.327
131.83 114.363 204.012 -0.144 0.828 -0.541
132.803 113.763 205.465 0.667 0.328 0.669
133.036 113.495 205.428 0.511 0.507 0.694
133.568 113.514 205.186 0.156 0.494 0.856
133.174 111.179 204.95 -0.041 -0.674 0.738
132.669 111.323 205.209 0.295 -0.77 0.565
133.297 110.638 204.644 -0.123 -0.313 0.942
134.848 111.834 204.467 0.796 -0.346 0.496
134.972 111.293 204.161 0.714 0.014 0.7
135.493 111.293 203.816 0.366 0.014 0.93
135.31 110.177 203.541 0.275 -0.544 0.793
134.789 110.177 203.887 0.622 -0.544 0.563
134.892 109.344 203.482 0.554 0.012 0.833
135.439 110.119 203.448 0.339 -0.573 0.746
135.02 109.286 203.389 0.618 -0.017 0.786
136.482 109.299 203.166 -0.356 -0.026 0.934
136.481 109.071 203.145 -0.357 -0.14 0.924
135.019 109.057 203.368 0.618 -0.131 0.775
136.461 108.423 203.192 -0.343 0.292 0.893
136.327 108.112 203.209 -0.411 0.136 0.902
134.885 108.747 203.385 0.55 -0.287 0.784
136.217 107.868 203.223 -0.338 0.299 0.892
135.762 107.09 202.875 -0.717 -0.349 0.603
134.299 107.746 202.938 0.258 -0.787 0.561
134.818 106.253 202.318 -0.088 0.208 0.974
134.798 106.246 202.317 -0.103 0.203 0.974
134.275 107.738 202.937 0.246 -0.791 0.56
133.884 105.575 202.93 0.506 0.651 0.565
132.401 105.674 201.555 -0.553 0.722 -0.417
132.52 107.855 201.31 -0.632 -0.732 -0.253
132.711 107.67 201.278 -0.759 -0.609 -0.232
133.061 107.771 200.701 -0.467 -0.524 -0.712
132.971 107.986 200.569 -0.407 -0.667 -0.624
133.18 105.895 200.26 -0.546 0.726 -0.418
133.276 105.916 200.181 -0.492 0.738 -0.462
133.072 108.008 200.486 -0.356 -0.656 -0.665
133.979 106.649 199.669 -0.961 0.25 -0.12
134.234 107.055 199.276 -0.834 0.453 -0.316
133.326 108.414 200.094 -0.229 -0.453 -0.862
134.342 108.127 199.299 -0.906 -0.262 -0.332
134.448 108.885 199.089 -0.83 0.279 -0.482
133.452 109.311 199.845 -0.166 -0.005 -0.986
134.378 109.462 199.284 -0.783 -0.106 -0.612
134.376 110.459 199.55 -0.785 0.393 -0.48
133.45 110.308 200.11 -0.167 0.494 -0.853
133.868 111.141 200.169 -0.446 -0.062 -0.893
133.335 111.381 200.557 -0.713 0.059 -0.699
132.917 110.548 200.498 -0.434 0.614 -0.659
132.814 111.382 200.903 -0.365 0.058 -0.929
133.571 112.488 200.913 -0.595 0.612 -0.521
133.05 112.489 201.258 -0.247 0.612 -0.751
133.763 113.447 201.167 -0.722 -0.027 -0.691
133.758 113.451 201.173 -0.725 -0.025 -0.688
133.045 112.493 201.263 -0.25 0.614 -0.749
132.921 113.034 201.57 -0.167 0.253 -0.953
133.59 114.19 201.596 -0.809 0.344 -0.476
132.754 113.773 201.993 -0.251 0.623 -0.741
133.187 114.172 202.025 -0.54 0.356 -0.762
132.81 114.666 203.275 -0.762 0.647 -0.027
132.348 114.303 203.337 -0.454 0.888 -0.069
131.853 114.376 204.027 -0.125 0.84 -0.529
133.949 113.984 204.962 -0.092 0.246 0.965
132.807 113.806 205.438 0.67 0.364 0.647
133.573 113.57 205.152 0.159 0.522 0.838
134.991 113.093 204.693 0.521 -0.279 0.807
134.694 112.611 204.862 0.719 0.042 0.694
135.531 113.029 204.465 0.161 -0.236 0.958
135.707 112.29 204.061 0.25 -0.605 0.756
134.871 111.873 204.457 0.807 -0.327 0.491
135.516 111.331 203.806 0.377 0.034 0.925
136.404 112.277 203.584 0.598 -0.612 0.518
136.213 111.319 203.33 0.726 0.027 0.687
137.264 110.494 203.136 0.025 0.577 0.816
136.789 109.707 203.267 -0.372 -0.078 0.925
135.601 110.307 203.498 0.42 -0.478 0.771
136.644 109.488 203.216 -0.275 0.068 0.959
137.742 110.76 202.671 0.422 0.799 0.429
137.869 110.841 202.45 0.337 0.744 0.576
137.048 112.157 202.644 0.885 -0.133 0.447
137.222 112.45 201.621 0.987 0.039 -0.155
138.056 111.156 201.35 0.431 0.902 0.026
138.519 111.082 200.963 0.122 0.951 0.284
139.371 109.628 201.512 0.731 -0.088 0.677
139.065 109.434 202.001 0.935 0.041 0.351
139.477 108.37 202.477 0.66 0.75 0.034
138.366 108.065 203.428 -0.266 0.496 0.827
137.636 109.042 203.224 0.221 -0.155 0.963
137.616 108.394 203.27 0.234 0.277 0.932
138.281 106.482 202.985 -0.336 -0.823 0.458
137.508 106.359 202.701 0.18 -0.741 0.647
138.111 106.28 202.637 -0.223 -0.688 0.69
138.069 105.998 202.201 -0.253 -0.89 0.379
137.458 106.024 202.185 0.155 -0.908 0.39
136.513 104.121 202.015 0.785 0.361 0.503
135.81 104.4 202.399 0.283 0.561 0.778
136.626 106.355 202.64 -0.261 -0.742 0.617
136.45 106.501 202.78 -0.144 -0.84 0.524
135.752 104.417 202.407 0.242 0.573 0.783
136.397 106.516 202.787 -0.188 -0.827 0.53
135.227 104.963 202.414 0.592 0.208 0.779
134.763 105.3 202.552 0.334 0.396 0.856
136.019 106.791 202.9 -0.503 -0.598 0.623
135.097 105.929 202.345 0.111 -0.023 0.994
134.679 105.348 202.559 0.287 0.422 0.86
135.023 105.972 202.352 0.058 0.007 0.998
134.109 105.3 202.964 0.667 0.455 0.59
134.778 104.518 202.702 0.342 -0.039 0.939
134.197 104.565 203.09 0.73 -0.07 0.68
135.687 103.144 203.508 -0.264 0.877 0.401
134.893 102.338 203.6 -0.831 0.301 0.467
133.403 103.759 203.182 0.163 -0.646 0.746
134.437 102.433 203.077 -0.527 0.238 0.816
134.298 102.332 203.005 -0.604 0.182 0.776
133.279 103.669 203.118 0.075 -0.71 0.7
133.689 102.061 202.802 -0.198 0.362 0.911
132.732 102.131 201.207 -0.882 0.411 -0.228
132.322 103.739 201.523 -0.609 -0.66 -0.439
132.53 103.518 200.234 -0.748 -0.513 0.421
132.366 104.854 199.979 -0.865 0.441 0.239
132.158 105.075 201.269 -0.727 0.294 -0.621
132.474 105.094 200.644 -0.938 0.281 -0.204
132.795 105.752 200.881 -0.759 0.647 -0.073
132.442 105.657 201.479 -0.524 0.71 -0.471
132.748 107.654 201.208 -0.728 -0.622 -0.29
133.074 105.536 199.501 -0.359 0.928 -0.103
133.274 105.864 200.104 -0.493 0.709 -0.505
133.978 106.594 199.588 -0.962 0.222 -0.161
133.318 105.333 198.814 -0.185 0.783 -0.594
134.267 106.355 198.774 -0.817 0.102 -0.567
134.385 106.275 198.548 -0.896 0.156 -0.416
135.24 105.287 198.181 -0.183 -0.668 -0.721
135.366 105.084 198.303 -0.268 -0.533 -0.803
134.247 104.26 198.416 0.479 0.017 -0.878
134.664 103.678 198.964 0.777 -0.4 -0.487
135.86 104.395 198.951 -0.02 -0.878 -0.479
136.06 102.203 199.43 -0.154 0.583 -0.797
136.773 102.28 199.591 0.356 0.639 -0.682
136.704 104.486 199.143 0.402 -0.832 -0.383
136.892 104.462 199.331 0.276 -0.815 -0.509
137.751 105.287 199.923 0.992 -0.127 -0.016
137.808 105.548 199.904 0.954 -0.301 -0.003
138.817 106.207 200.815 0.281 -0.74 -0.61
138.839 106.293 200.73 0.297 -0.679 -0.671
137.835 105.65 199.803 0.967 -0.25 -0.053
138.13 106.223 199.855 0.77 -0.632 -0.087
137.911 106.414 198.979 0.661 -0.537 -0.525
137.616 105.841 198.928 0.858 -0.155 -0.491
138.034 106.626 198.871 0.579 -0.678 -0.453
137.69 106.842 198.435 0.292 -0.498 -0.817
137.174 106.119 198.367 0.636 -0.016 -0.771
137.469 106.692 198.418 0.44 -0.398 -0.805
135.542 107.692 198.338 -0.524 0.103 -0.846
135.247 107.119 198.286 -0.327 0.485 -0.811
135.198 108.181 198.463 -0.295 -0.223 -0.929
136.388 108.511 198.323 -0.101 0.512 -0.853
135.913 108.873 198.451 0.216 0.271 -0.938
136.112 109.448 198.529 0.083 -0.112 -0.99
137.403 108.73 198.69 0.407 0.622 -0.67
137.127 109.667 198.896 0.591 -0.003 -0.807
138.187 109.708 199.175 -0.115 -0.031 -0.993
138.154 110.528 199.416 -0.138 0.555 -0.82
137.089 110.637 199.181 0.572 0.482 -0.664
136.918 110.84 199.146 0.686 0.346 -0.64
135.481 111.283 199.343 -0.512 0.715 -0.475
135.241 111.206 199.435 -0.352 0.767 -0.537
134.733 111.888 200.055 -0.014 0.312 -0.95
135.621 111.395 199.389 -0.395 0.808 -0.437
134.914 112.031 200.114 0.076 0.384 -0.92
135.27 112.502 200.21 -0.161 0.07 -0.984
134.713 112.909 200.497 -0.489 0.31 -0.816
134.315 112.47 200.423 -0.223 0.603 -0.766
134.506 113.428 200.677 -0.351 -0.036 -0.936
136.651 111.945 203.098 0.651 -0.258 0.714
136.591 112.391 203.474 0.691 -0.555 0.463
137.41 110.582 203.051 0.145 0.651 0.745
136.844 111.352 199.774 0.624 0.773 -0.117
136.732 112.451 200.67 0.699 0.04 -0.714
136.994 111.295 199.989 0.524 0.811 -0.26
137.048 111.275 200.043 0.552 0.801 -0.233
136.783 112.433 200.721 0.729 0.029 -0.684
138.12 111.067 200.145 -0.163 0.94 -0.3
137.052 111.233 199.926 0.554 0.78 -0.292
138.123 111.031 200.045 -0.16 0.915 -0.371
136.889 111.304 199.725 0.662 0.733 -0.158
137.51 108.648 198.686 0.46 0.581 -0.672
138.277 109.639 199.171 -0.051 -0.08 -0.995
138.506 109.27 199.125 -0.204 0.166 -0.965
139.635 109.122 201.092 0.738 0.043 0.674
139.503 109.479 201.307 0.825 -0.194 0.53
139.599 108.233 202.288 0.762 0.636 -0.124
139.767 108.815 200.868 0.847 -0.212 0.487
139.73 107.927 202.064 0.871 0.38 -0.31
139.685 107.849 201.635 0.901 0.432 -0.025
139.296 108.106 199.823 0.455 -0.803 -0.384
139.174 107.078 200.5 0.537 -0.118 -0.835
138.513 107.2 199.34 0.978 -0.199 -0.062
138.451 106.993 199.352 0.927 -0.371 -0.052
139.108 106.854 200.513 0.489 -0.279 -0.826
138.448 106.887 199.597 0.929 -0.3 -0.216
138.693 109.02 199.085 -0.047 -0.042 -0.998
137.909 108.114 198.603 0.475 0.563 -0.677
137.751 108.327 198.634 0.581 0.42 -0.697
137.353 104.953 200.701 0.66 -0.405 0.633
138.384 105.845 201.66 -0.028 -1 -0.007
137.296 105.119 200.904 0.698 -0.516 0.497
137.186 105.131 201.055 0.642 -0.509 0.573
138.291 105.855 201.788 -0.095 -0.992 0.084
136.734 103.978 201.601 0.943 0.259 0.208
137.226 105.055 200.931 0.663 -0.547 0.511
136.769 103.914 201.497 0.968 0.213 0.134
137.299 104.904 200.722 0.615 -0.447 0.65
137.314 104.576 200.297 0.627 -0.72 0.296
136.786 103.557 201.036 0.98 -0.041 -0.196
137.231 102.404 200.64 0.683 0.727 0.067
137.246 102.375 200.743 0.694 0.706 0.141
136.801 103.528 201.138 0.991 -0.062 -0.123
136.968 102.785 201.251 0.879 0.433 -0.198
136.928 102.898 201.856 0.857 0.496 0.138
136.766 103.628 201.674 0.966 0.009 0.26
137.098 102.749 202.52 0.744 0.595 -0.304
135.741 103.168 203.488 -0.226 0.894 0.387
135.408 104.046 202.642 -0.004 0.308 0.951
134.839 104.545 202.679 0.376 -0.024 0.926
137.16 102.292 201.7 0.986 0.159 0.051
137.303 102.213 202.381 0.89 0.212 -0.403
137.416 101.939 201.14 0.815 0.395 0.424
136.65 100.358 201.419 0.268 -0.734 0.624
136.538 100.632 202.661 0.343 -0.917 -0.204
136.295 100.506 202.016 0.505 -0.833 0.226
134.807 100.767 202.78 -0.321 -0.688 0.651
135.221 100.863 203.337 -0.597 -0.752 0.28
134.14 100.677 202.603 0.124 -0.627 0.769
133.751 101.854 202.877 -0.155 0.214 0.965
134.832 102.041 203.611 -0.875 0.089 0.475
134.367 102.098 203.09 -0.566 0.052 0.823
135.047 100.318 201.079 -0.188 -0.937 -0.294
134.352 100.279 201.098 0.275 -0.911 -0.306
135.546 100.192 200.591 -0.521 -0.853 0.032
135.222 101.386 199.623 -0.752 0 -0.659
134.028 101.474 200.131 0.044 -0.058 -0.997
134.681 101.668 199.986 -0.391 -0.187 -0.901
134.651 101.763 199.982 -0.408 -0.135 -0.903
134.002 101.558 200.127 0.025 0.002 -1
133.8 102.945 199.154 0.159 -0.923 -0.351
134.721 101.79 199.949 -0.369 -0.119 -0.922
133.862 102.969 199.124 0.204 -0.906 -0.372
135.258 101.495 199.59 -0.727 0.078 -0.683
137.027 114.321 202.409 0.909 0.41 -0.07
136.938 114.574 202.397 0.968 0.242 -0.062
131.001 111.802 203.295 -0.622 -0.333 -0.709
130.559 112.022 203.796 -0.894 0.048 -0.446
130.59 112.185 203.729 -0.914 -0.061 -0.401
130.601 112.347 203.653 -0.921 -0.169 -0.35
130.455 112.183 204.419 -0.981 0.182 0.073
130.476 112.36 204.407 -0.995 0.064 0.081
130.476 112.539 204.397 -0.995 -0.055 0.088
130.664 112.091 205.029 -0.806 0.105 0.582
130.704 112.26 205.072 -0.833 -0.007 0.553
130.726 112.429 205.127 -0.848 -0.12 0.517
131.107 111.782 205.394 -0.438 -0.152 0.886
131.186 111.924 205.47 -0.491 -0.246 0.836
131.255 112.06 205.563 -0.537 -0.337 0.774
131.614 111.374 205.375 -0.015 -0.493 0.87
131.739 111.479 205.449 -0.098 -0.563 0.821
131.861 111.571 205.54 -0.18 -0.624 0.76
132.151 111.095 205.017 0.195 -0.835 0.514
132.33 110.571 204.482 0.075 -0.486 0.871
131.454 110.851 204.741 -0.148 -0.928 0.342
131.828 110.412 204.261 -0.397 -0.635 0.662
132.053 109.735 204.029 -0.547 -0.184 0.817
131.026 110.929 204.31 -0.505 -0.863 -0.017
131.429 110.485 203.859 -0.773 -0.567 0.284
131.541 109.828 203.514 -0.848 -0.129 0.514
130.835 111.232 203.814 -0.664 -0.611 -0.431
131.25 110.768 203.396 -0.941 -0.301 -0.152
131.312 110.19 202.921 -0.983 0.084 0.164
131.346 111.176 203.008 -0.852 0.084 -0.517
132.514 110.649 204.526 -0.047 -0.538 0.842
132.556 110.658 204.533 -0.015 -0.531 0.847
133.306 109.694 204.272 0.19 -0.207 0.96
133.571 110.19 204.447 0.014 -0.538 0.843
133.413 109.075 203.968 0.253 -0.572 0.781
133.789 108.69 203.715 0.002 -0.315 0.949
132.951 108.783 203.777 -0.019 -0.744 0.668
133.292 108.375 203.51 -0.246 -0.472 0.846
132.49 108.639 203.456 -0.29 -0.828 0.48
132.796 108.221 203.165 -0.494 -0.55 0.674
132.085 108.661 203.043 -0.528 -0.815 0.236
132.36 108.244 202.72 -0.712 -0.538 0.452
131.782 108.845 202.585 -0.707 -0.707 -0.033
132.034 108.443 202.228 -0.875 -0.439 0.205
131.616 109.172 202.136 -0.804 -0.515 -0.297
131.856 108.794 201.745 -0.964 -0.263 -0.036
131.607 109.602 201.748 -0.81 -0.262 -0.525
131.846 109.256 201.327 -0.969 -0.032 -0.245
131.755 110.085 201.466 -0.722 0.022 -0.691
132.006 109.776 201.024 -0.889 0.228 -0.397
131.656 110.698 201.802 -0.781 0.383 -0.494
131.796 111.269 201.79 -0.874 0.002 -0.486
131.43 111.341 202.861 -0.891 0.001 -0.454
131.418 111.323 202.885 -0.9 -0.014 -0.435
131.171 112.858 202.889 -0.586 0.132 -0.8
131.563 112.829 202.454 -0.847 0.151 -0.51
131.314 113.427 203.011 -0.502 0.467 -0.728
131.716 113.442 202.586 -0.77 0.457 -0.445
131.558 113.898 203.29 -0.358 0.744 -0.564
131.978 113.949 202.886 -0.639 0.711 -0.294
131.102 113.916 203.914 -0.626 0.754 -0.197
131.185 114.115 204.198 -0.681 0.622 -0.386
130.721 113.477 204.541 -0.851 0.497 0.173
130.866 113.748 204.723 -0.947 0.316 0.051
130.904 113.099 205.286 -0.743 0.274 0.611
131.019 113.432 205.347 -0.82 0.053 0.571
131.568 112.955 205.806 -0.352 0.189 0.916
131.575 113.311 205.781 -0.357 -0.048 0.933
132.407 113.11 205.862 0.141 0.281 0.949
132.277 113.441 205.828 0.228 0.06 0.972
133.12 112.934 205.623 0.561 0.177 0.809
133.659 112.912 205.396 0.201 0.192 0.96
133.081 112.337 205.65 0.538 -0.174 0.825
133.617 112.269 205.425 0.18 -0.129 0.975
132.924 111.777 205.506 0.445 -0.504 0.74
133.448 111.666 205.27 0.096 -0.43 0.898
133.927 110.772 204.661 0.191 -0.246 0.95
133.803 111.313 204.967 0.274 -0.607 0.746
134.506 110.999 204.494 0.481 -0.133 0.867
134.382 111.54 204.8 0.563 -0.494 0.663
134.927 110.71 204.095 0.692 -0.277 0.667
135.449 110.71 203.749 0.344 -0.277 0.897
135.722 109.297 203.085 0.151 -0.025 0.988
135.721 109.095 203.066 0.15 -0.156 0.976
135.704 108.719 203.057 0.162 0.094 0.982
135.587 108.45 203.072 0.082 -0.089 0.993
135.522 108.306 203.073 0.126 0.007 0.992
135.094 107.574 202.747 -0.272 -0.673 0.688
134.444 107.344 202.52 0.162 -0.519 0.839
134.626 106.819 202.302 0.04 -0.169 0.985
134.424 107.338 202.52 0.146 -0.524 0.839
134.608 106.813 202.301 0.023 -0.174 0.984
133.99 107.283 202.643 0.435 -0.488 0.757
133.815 106.705 202.537 0.552 -0.103 0.827
133.777 106.103 202.638 0.578 0.299 0.76
133.499 107.854 203.147 -0.142 -0.733 0.665
133.465 107.361 202.785 -0.12 -0.405 0.907
133.4 106.767 202.649 -0.077 -0.009 0.997
133.317 106.171 202.763 -0.021 0.388 0.921
133.228 105.672 203.107 0.038 0.721 0.692
132.758 107.928 202.823 -0.513 -0.696 0.503
132.963 107.412 202.565 -0.649 -0.352 0.675
133.005 106.807 202.476 -0.677 0.051 0.734
132.878 106.215 202.57 -0.592 0.446 0.671
132.603 105.735 202.833 -0.409 0.766 0.496
132.377 107.929 202.106 -0.704 -0.696 0.144
132.704 107.412 202.079 -0.922 -0.351 0.162
132.801 106.807 202.093 -0.987 0.052 0.153
132.652 106.216 202.145 -0.887 0.446 0.118
132.28 105.736 202.227 -0.639 0.766 0.064
132.802 107.362 201.54 -0.819 -0.404 -0.407
132.878 106.768 201.668 -0.87 -0.008 -0.492
132.737 106.172 201.674 -0.776 0.39 -0.496
133.299 107.307 200.758 -0.625 -0.215 -0.75
133.376 106.542 200.645 -0.676 0.295 -0.675
133.37 107.322 200.7 -0.555 -0.199 -0.808
133.445 106.557 200.588 -0.605 0.311 -0.733
133.592 107.64 200.359 -0.703 -0.411 -0.58
133.915 107.157 200.068 -0.918 -0.089 -0.386
133.803 107.976 200.034 -0.546 -0.161 -0.822
134.125 107.493 199.744 -0.761 0.161 -0.628
133.931 108.331 199.799 -0.632 -0.398 -0.665
134.035 109.074 199.592 -0.555 0.153 -0.818
132.884 111.968 201.009 -0.33 0.352 -0.876
133.406 111.968 200.663 -0.678 0.352 -0.646
133.472 112.928 201.311 -0.529 0.319 -0.787
133.468 112.932 201.316 -0.532 0.321 -0.784
132.456 112.271 201.418 -0.544 0.503 -0.671
132.332 112.812 201.724 -0.462 0.142 -0.875
131.977 111.978 201.743 -0.783 0.357 -0.509
131.854 112.519 202.049 -0.701 -0.004 -0.713
132.433 114.124 202.596 -0.411 0.798 -0.44
132.889 114.499 202.586 -0.716 0.548 -0.433
132.398 114.41 203.693 -0.488 0.818 -0.306
132.191 114.552 204.584 0.157 0.985 -0.065
132.73 114.581 204.239 -0.202 0.965 0.164
133.214 114.875 203.94 -0.525 0.77 0.364
132.549 114.337 205.113 0.455 0.807 0.376
133.082 114.371 204.759 0.1 0.785 0.612
133.642 114.619 204.573 -0.273 0.619 0.736
133.335 113.849 205.079 0.318 0.335 0.887
134.169 113.085 205.164 0.457 0.279 0.845
134.504 113.533 204.973 0.234 -0.02 0.972
136.671 110.852 203.098 0.42 0.339 0.842
136.191 110.057 203.23 0.027 -0.312 0.95
136.109 109.935 203.2 0.081 -0.23 0.97
135.962 109.763 203.154 -0.01 -0.336 0.942
137.629 109.333 203.25 0.217 -0.01 0.976
137.555 109.587 203.293 0.267 -0.179 0.947
138.247 110.015 202.864 0.526 0.332 0.783
138.036 110.117 202.993 0.667 0.263 0.697
137.301 111.42 202.415 0.716 0.358 0.599
138.055 111.043 201.929 0.431 0.846 0.315
137.456 111.588 201.983 0.83 0.482 0.28
137.221 112.345 202.159 0.987 -0.022 0.162
137.457 111.682 201.502 0.831 0.551 -0.075
138.494 110.775 201.832 0.65 0.711 0.267
138.889 110.761 201.37 0.387 0.721 0.575
138.856 110.156 202.066 0.831 0.402 0.384
139.195 110.238 201.567 0.605 0.348 0.716
139.154 108.844 202.21 0.876 0.434 0.211
138.715 109.512 202.587 0.761 0.08 0.644
138.873 108.907 202.682 0.655 0.483 0.581
139.205 108.431 202.933 0.434 0.8 0.414
138.204 109.371 203.024 0.505 0.01 0.863
138.462 108.794 203.034 0.333 0.395 0.856
138.808 108.321 203.273 0.103 0.709 0.697
138.004 108.528 203.195 -0.025 0.187 0.982
137.052 109.063 203.272 -0.071 -0.145 0.987
137.033 108.415 203.318 -0.058 0.287 0.956
137.364 107.675 203.387 0.108 -0.083 0.991
138.17 107.506 203.519 -0.429 0.03 0.903
137.325 106.934 203.18 0.088 -0.453 0.887
138.139 106.93 203.358 -0.455 -0.45 0.768
136.896 105.574 201.882 0.53 -0.608 0.592
136.55 104.876 201.819 0.76 -0.143 0.634
136.361 105.787 202.174 -0.085 -0.363 0.928
136.062 105.07 202.086 0.115 0.114 0.987
137.026 107.206 203.299 -0.061 -0.317 0.947
136.761 107.163 203.293 0.115 -0.288 0.951
136.267 106.102 202.338 -0.022 -0.573 0.819
136.079 105.554 202.107 0.104 -0.208 0.973
135.917 104.952 202.129 0.212 0.193 0.958
136.237 106.111 202.342 -0.081 -0.557 0.827
136.055 105.561 202.11 0.04 -0.19 0.981
135.884 104.962 202.133 0.154 0.209 0.966
135.934 106.156 202.381 0.12 -0.587 0.801
135.513 105.596 202.246 0.401 -0.213 0.891
135.655 106.359 202.464 -0.261 -0.31 0.914
135.202 105.821 202.338 0.041 0.048 0.998
135.595 106.419 202.47 -0.221 -0.35 0.91
135.366 106.685 202.448 -0.454 -0.08 0.888
134.508 105.598 202.53 0.401 0.256 0.88
134.308 105.842 202.499 0.223 0.473 0.852
134.546 103.899 202.935 0.497 0.374 0.783
135.09 103.38 203.088 0.134 0.719 0.681
134.054 103.399 202.992 -0.271 -0.406 0.872
134.598 102.88 203.145 -0.634 -0.061 0.771
133.788 103.385 202.932 -0.095 -0.397 0.913
134.152 102.919 202.895 -0.337 -0.086 0.938
133.683 103.309 202.877 -0.194 -0.47 0.861
134.041 102.838 202.837 -0.433 -0.156 0.888
133.43 103.196 202.791 -0.025 -0.395 0.918
133.574 102.631 202.68 -0.121 -0.018 0.992
132.643 103.565 202.824 -0.38 -0.785 0.49
132.92 103.113 202.555 -0.565 -0.483 0.669
133.064 102.547 202.444 -0.661 -0.106 0.743
133.052 101.957 202.508 -0.653 0.287 0.7
132.278 103.591 202.216 -0.641 -0.766 0.056
132.627 103.134 202.069 -0.874 -0.461 0.154
132.771 102.569 201.957 -0.97 -0.084 0.228
132.687 101.984 201.9 -0.914 0.306 0.266
132.663 103.252 201.514 -0.837 -0.336 -0.433
132.807 102.687 201.403 -0.933 0.041 -0.359
132.543 103.729 200.88 -0.756 -0.654 -0.01
132.041 104.377 201.369 -0.81 -0.204 -0.549
132.296 104.289 200.745 -0.98 -0.146 -0.133
132.249 104.157 200.08 -0.949 -0.057 0.31
132.398 104.901 200.657 -0.887 0.409 -0.213
132.841 106.272 201.576 -0.79 0.3 -0.535
132.952 106.996 201.477 -0.864 -0.183 -0.47
132.816 106.282 201.623 -0.829 0.316 -0.462
132.928 107.006 201.522 -0.904 -0.167 -0.395
133.065 107.039 201.177 -0.939 -0.212 -0.27
133.082 106.357 201.06 -0.951 0.244 -0.191
133.305 107.129 200.789 -0.629 -0.096 -0.771
133.348 106.455 200.631 -0.658 0.353 -0.666
133.714 106.173 199.886 -0.786 0.503 -0.359
133.716 106.223 199.96 -0.785 0.534 -0.314
133.654 105.953 199.57 -0.746 0.649 -0.149
133.89 105.758 198.907 -0.566 0.5 -0.656
134.331 106.314 198.664 -0.86 0.13 -0.494
134.896 107.004 198.406 -0.503 0.427 -0.752
134.888 106.889 198.337 -0.497 0.504 -0.706
134.874 106.78 198.261 -0.488 0.577 -0.655
135.734 106.715 197.998 -0.083 0.282 -0.956
135.631 106.633 197.976 -0.014 0.337 -0.941
135.526 106.555 197.943 0.055 0.389 -0.92
135.966 105.767 197.947 0.033 -0.191 -0.981
135.836 105.794 197.931 0.12 -0.209 -0.971
135.707 105.818 197.904 0.206 -0.225 -0.952
135.304 105.189 198.247 -0.226 -0.603 -0.765
134.786 104.722 198.523 0.119 -0.291 -0.949
135.189 104.16 199.051 0.427 -0.721 -0.545
135.955 103.984 199.422 -0.083 -0.604 -0.793
136.027 103.412 199.682 -0.132 -0.223 -0.966
136.064 102.781 199.685 -0.157 0.198 -0.968
136.504 104.044 199.547 0.535 -0.537 -0.653
136.447 103.458 199.777 0.573 -0.146 -0.806
136.542 102.833 199.793 0.51 0.27 -0.817
137.427 105.155 199.083 0.763 -0.497 -0.413
137.454 104.982 199.285 0.745 -0.382 -0.548
138.167 106.001 200.432 0.715 -0.603 -0.355
138.187 106.081 200.352 0.731 -0.538 -0.419
136.569 106.459 198.049 0.334 0.155 -0.93
136.864 107.032 198.101 0.137 -0.227 -0.964
135.892 106.81 198.021 -0.004 0.33 -0.944
136.188 107.383 198.073 -0.201 -0.052 -0.978
134.629 107.066 198.667 -0.636 0.458 -0.621
134.677 108.137 198.784 -0.667 -0.255 -0.7
135.097 109.026 198.575 -0.367 0.38 -0.849
135.146 109.629 198.676 -0.399 -0.022 -0.916
136.642 109.581 198.637 0.348 -0.046 -0.936
136.918 108.644 198.431 0.164 0.578 -0.799
135.936 110.464 198.672 -0.004 0.395 -0.919
136.021 110.706 198.75 -0.061 0.234 -0.97
134.768 110.868 199.42 -0.589 0.598 -0.544
134.26 111.55 200.04 -0.25 0.143 -0.958
135.143 111.516 199.796 -0.287 0.56 -0.777
135.289 111.632 199.844 -0.174 0.65 -0.74
135.115 113.682 200.559 -0.046 0.09 -0.995
135.279 113.145 200.388 -0.156 0.448 -0.88
135.764 113.82 200.654 0.278 0.159 -0.947
135.882 113.274 200.476 0.199 0.524 -0.828
136.365 113.825 200.95 0.578 0.162 -0.799
136.441 113.278 200.751 0.528 0.526 -0.667
136.838 113.695 201.406 0.815 0.097 -0.571
136.881 113.158 201.175 0.786 0.456 -0.417
137.119 113.449 201.962 0.956 -0.026 -0.293
137.142 112.929 201.692 0.94 0.321 -0.113
137.171 113.12 202.543 0.982 -0.191 -0.003
137.191 112.622 202.232 0.969 0.141 0.205
136.987 112.75 203.071 0.889 -0.375 0.261
137.019 112.279 202.722 0.868 -0.061 0.493
136.653 111.792 203.052 0.65 -0.155 0.744
136.95 111.136 202.899 0.452 0.282 0.846
136.531 111.717 203.125 0.514 -0.238 0.824
136.842 111.071 202.962 0.306 0.193 0.932
136.928 111.213 202.887 0.466 0.23 0.854
137.227 111.373 202.545 0.765 0.39 0.513
135.502 111.859 199.945 -0.316 0.498 -0.807
136.056 112.648 200.285 0.301 0.156 -0.941
136.121 111.974 200.003 0.258 0.605 -0.753
136.278 111.517 199.452 0.153 0.91 -0.385
136.653 111.819 200.306 0.751 0.461 -0.472
136.75 111.794 200.42 0.687 0.478 -0.547
136.797 111.777 200.467 0.719 0.466 -0.515
137.082 111.778 200.759 0.529 0.466 -0.71
137.565 111.285 200.55 0.207 0.795 -0.571
137.387 111.79 201.382 0.878 0.479 0.005
137.855 111.296 201.144 0.565 0.808 0.163
137.465 111.032 199.929 0.278 0.914 -0.294
137.491 110.609 199.402 0.304 0.5 -0.811
137.769 109.167 199.08 0.163 0.33 -0.93
137.857 109.099 199.077 0.229 0.28 -0.932
138.98 109.985 199.338 0.452 0.167 -0.876
139.153 109.589 199.279 0.336 0.432 -0.837
139.539 110.08 199.906 0.85 0.235 -0.471
139.667 109.675 199.801 0.764 0.505 -0.401
139.738 109.886 200.658 0.993 0.097 0.066
139.851 109.497 200.494 0.918 0.356 0.176
139.339 108.797 201.743 0.935 0.26 0.24
139.238 108.91 201.899 0.82 0.39 0.419
139.446 108.6 201.627 0.864 0.392 0.317
139.552 108.352 201.445 0.99 0.097 0.102
139.844 107.238 202.228 0.966 -0.194 -0.173
139.808 107.101 201.814 0.989 -0.102 0.103
139.552 106.643 202.503 0.723 -0.689 0.056
139.491 106.455 202.113 0.763 -0.564 0.316
138.96 106.357 202.79 0.229 -0.928 0.295
138.848 106.144 202.425 0.304 -0.786 0.539
139.598 108.316 201.218 0.96 0.121 0.254
139.654 107.386 201.019 0.88 0.102 -0.465
139.572 107.922 200.693 0.935 -0.255 -0.247
139.738 108.39 200.3 0.824 -0.567 0.014
139.163 107.66 200.251 0.544 -0.506 -0.669
138.71 107.167 200 0.847 -0.178 -0.502
138.654 106.981 200.01 0.792 -0.363 -0.491
138.694 106.905 200.117 0.765 -0.312 -0.563
138.421 106.336 200.338 0.576 -0.708 -0.409
138.788 107.734 199.618 0.794 -0.556 -0.247
138.357 107.619 198.806 0.848 0.15 -0.508
138.654 108.097 199.155 0.65 -0.168 -0.741
139.141 108.525 199.288 0.326 -0.454 -0.829
138.267 108.525 198.98 0.237 0.289 -0.928
137.58 107.552 198.245 0.2 0.094 -0.975
137.327 107.605 198.174 0.369 0.059 -0.928
138.182 108.645 198.988 0.293 0.208 -0.933
137.989 108.903 199.029 0.141 0.411 -0.901
138.3 106.026 200.61 0.626 -0.619 -0.474
137.925 105.703 200.297 0.876 -0.404 -0.265
137.964 105.745 201.265 0.252 -0.933 0.257
137.602 105.432 200.928 0.494 -0.724 0.481
137.761 105.661 201.224 0.388 -0.877 0.284
137.673 105.671 201.344 0.317 -0.869 0.38
137.61 105.738 201.63 0.359 -0.914 0.189
137.05 105.316 201.535 0.732 -0.632 0.252
136.735 104.682 201.525 0.943 -0.21 0.259
137.516 105.799 201.807 0.116 -0.758 0.642
137.001 105.347 201.627 0.46 -0.457 0.762
136.64 104.743 201.702 0.7 -0.054 0.712
136.817 104.577 201.257 0.888 -0.14 0.438
136.85 104.515 201.156 0.914 -0.187 0.361
136.888 104.43 201.037 0.888 -0.131 0.44
136.902 104.137 200.657 0.902 -0.427 0.056
136.872 102.925 200.848 0.922 0.381 -0.071
136.886 102.899 200.939 0.934 0.357 0.01
136.8 103.142 202.1 0.943 0.333 -0.025
136.497 103.962 202.126 0.774 0.248 0.583
136.562 103.439 202.503 0.731 0.596 0.332
136.83 103.083 202.972 0.552 0.834 0.019
136.006 104.113 202.477 0.423 0.356 0.833
136.124 103.574 202.815 0.344 0.716 0.608
136.338 103.235 203.323 0.201 0.942 0.269
135.592 103.514 202.962 -0.127 0.663 0.738
135.103 103.949 202.71 0.2 0.373 0.906
135.424 103.459 202.998 -0.014 0.7 0.714
135.057 103.929 202.727 0.156 0.354 0.922
135.381 103.44 203.014 -0.06 0.68 0.731
137.225 102.028 201.759 0.942 0.335 0.012
137.349 101.581 202.525 0.923 -0.239 -0.301
137.266 101.467 201.887 0.979 -0.164 0.125
137.462 101.307 201.284 0.848 -0.057 0.527
137.07 101.003 202.627 0.723 -0.652 -0.228
137.018 100.955 201.977 0.758 -0.619 0.206
137.182 100.729 201.386 0.648 -0.469 0.6
136.546 100.625 202.007 0.338 -0.912 0.232
135.844 100.534 203.003 -0.152 -0.987 0.041
135.51 100.394 202.402 0.07 -0.895 0.441
134.721 100.888 202.881 -0.264 -0.768 0.584
134.943 101.393 203.613 -0.796 -0.374 0.476
134.476 101.352 203.123 -0.485 -0.347 0.803
133.862 101.206 202.879 -0.075 -0.249 0.965
134.379 101.922 203.122 -0.573 0.169 0.802
134.313 100.256 201.919 0.247 -0.928 0.28
135.002 100.292 202.007 -0.213 -0.952 0.221
134.969 100.38 200.867 -0.136 -0.979 -0.152
134.097 100.699 200.427 0.093 -0.611 -0.786
134.744 100.751 200.274 -0.338 -0.646 -0.684
135.291 100.612 199.919 -0.703 -0.553 -0.448
134.683 101.435 200.013 -0.393 -0.032 -0.919
133.91 102.139 200.006 0.086 -0.386 -0.919
133.839 102.628 199.663 0.133 -0.711 -0.69
133.086 101.646 200.443 -0.629 0.065 -0.774
133.182 102.209 200.257 -0.693 -0.311 -0.65
133.111 102.698 199.914 -0.646 -0.636 -0.422
132.884 103.033 199.469 -0.495 -0.86 -0.126
132.9 102.595 200.865 -0.995 0.102 0
132.829 103.083 200.522 -0.947 -0.224 0.229
134.11 102.706 199.594 -0.047 -0.764 -0.644
134.409 102.291 199.885 -0.247 -0.487 -0.838
134.163 102.727 199.568 0.003 -0.744 -0.668
134.465 102.313 199.858 -0.198 -0.468 -0.861
134.441 102.714 199.545 -0.182 -0.736 -0.652
134.949 102.177 199.714 -0.521 -0.377 -0.766
134.947 103.161 199.443 0.588 -0.056 -0.807
135.456 102.624 199.613 0.249 0.303 -0.92
136.069 100.108 201.078 -0.147 -0.913 0.38
135.637 100.223 201.63 0.14 -0.99 0.012
136.908 102.896 200.468 0.898 0.4 0.183
136.81 103.488 200.34 0.964 0.005 0.267
136.953 104.081 200.28 0.868 -0.39 0.307
136.635 102.822 199.843 0.448 0.278 -0.85
136.61 103.433 199.882 0.465 -0.13 -0.876
136.7 104.012 199.701 0.404 -0.516 -0.756
134.712 104.843 198.468 0.168 -0.372 -0.913
133.693 104.809 198.373 0.083 0.409 -0.909
134.268 105.284 198.434 -0.3 0.093 -0.95
134.73 105.792 198.141 -0.608 -0.246 -0.755
133.966 105.704 198.788 -0.617 0.536 -0.576
135.595 113.72 204.499 0.194 0.11 0.975
135.052 113.736 204.724 0.556 0.099 0.825
135.508 114.386 204.317 0.15 0.443 0.884
134.97 114.355 204.555 0.508 0.463 0.726
135.281 114.929 203.947 0.037 0.714 0.699
134.76 114.86 204.211 0.384 0.761 0.523
134.948 115.272 203.442 -0.13 0.885 0.446
134.449 115.178 203.741 0.202 0.948 0.247
134.556 115.363 202.874 -0.326 0.931 0.163
134.085 115.263 203.213 -0.012 0.998 -0.063
134.162 115.191 202.327 -0.523 0.845 -0.111
133.719 115.103 202.705 -0.227 0.904 -0.362
133.824 114.78 201.88 -0.692 0.64 -0.335
133.405 114.721 202.289 -0.412 0.679 -0.607
136.585 114.556 201.554 0.689 0.528 -0.497
136.595 114.757 201.732 0.682 0.394 -0.616
135.784 115.138 201.554 0.288 0.818 -0.497
135.971 115.209 201.732 0.163 0.771 -0.616
135.423 115.484 202.409 0.108 0.992 -0.07
135.691 115.479 202.397 -0.071 0.996 -0.062
135.865 115.249 203.264 0.328 0.874 0.358
136.034 115.296 203.062 0.215 0.843 0.493
136.666 114.668 203.264 0.729 0.583 0.358
136.658 114.844 203.062 0.735 0.466 0.493
134.069 106.243 202.427 0.383 0.206 0.901
132.794 103.322 200.865 -0.924 -0.383 0
135.256 103.942 199.317 0.383 -0.576 -0.722
135.256 103.386 199.584 0.383 -0.206 -0.901
137.44 109.354 199.037 0.383 0.206 -0.901
131.032 111.284 205.116 -0.5 -0.567 0.654
130.593 111.665 204.851 -0.866 -0.25 0.433
130.593 111.365 204.331 -0.866 -0.5 -0
130.593 111.665 203.811 -0.866 -0.25 -0.433
132.462 112.787 205.915 0.174 0.091 0.981
132.462 112.175 205.858 0.174 -0.27 0.947
132.462 111.624 205.584 0.174 -0.593 0.786
131.872 112.175 205.858 -0.174 -0.27 0.947
131.317 112.479 205.712 -0.5 -0.091 0.861
130.865 112.477 203.166 -0.766 -0.091 -0.636
130.865 113.087 203.254 -0.766 0.267 -0.585
130.865 113.552 203.657 -0.766 0.541 -0.348
130.57 113.214 204.248 -0.94 0.342 0
130.57 112.924 204.752 -0.94 0.171 0.296
130.57 112.924 203.744 -0.94 0.171 -0.296
132.688 109.038 203.977 -0.174 -0.593 0.786
132.133 109.311 203.916 -0.5 -0.433 0.75
132.133 108.856 203.506 -0.5 -0.701 0.509
131.681 109.331 203.467 -0.766 -0.421 0.486
131.681 108.999 202.949 -0.766 -0.617 0.181
131.386 109.466 202.641 -0.94 -0.342 -0
131.386 109.756 202.137 -0.94 -0.171 -0.296
131.386 110.338 202.137 -0.94 0.171 -0.296
134.162 110.501 204.503 0.309 -0.382 0.871
134.402 108.556 203.559 0.309 -0.382 0.871
132.608 108.701 200.322 -0.588 -0.31 -0.747
132.608 109.32 200.199 -0.588 0 -0.809
132.608 109.939 200.322 -0.588 0.31 -0.747
132.166 108.302 201.229 -0.809 -0.509 -0.294
132.166 108.732 200.799 -0.809 -0.294 -0.509
132.166 109.32 200.641 -0.809 -0 -0.588
132.368 111.884 201.266 -0.588 0.31 -0.747
132.08 113.146 201.98 -0.588 0.31 -0.747
132.08 113.671 202.331 -0.588 0.572 -0.572
132.003 114.432 205.22 -0 0.885 0.465
132.003 114.051 205.65 -0 0.568 0.823
131.403 114.408 204.662 -0.5 0.866 0
131.403 114.243 205.224 -0.5 0.729 0.468
131.403 113.801 205.607 -0.5 0.36 0.788
134.432 111.908 204.97 0.588 -0.31 0.747
133.874 111.763 205.217 0.309 -0.382 0.871
133.487 104.967 203.469 0.223 0.217 0.95
133.487 104.359 203.469 0.223 -0.217 0.95
132.863 104.967 203.469 -0.223 0.217 0.95
132.863 104.359 203.469 -0.223 -0.217 0.95
132.302 105.118 203.134 -0.623 0.325 0.711
132.302 104.507 203.221 -0.623 -0.111 0.774
132.302 103.946 202.965 -0.623 -0.512 0.591
131.914 105.27 202.138 -0.901 0.434 0
131.914 104.967 202.664 -0.901 0.217 0.376
131.914 104.359 202.664 -0.901 -0.217 0.376
131.914 104.056 202.138 -0.901 -0.434 -0
131.914 104.967 201.612 -0.901 0.217 -0.376
131.775 104.663 202.138 -1 0 0
137.077 105.531 198.414 0.588 -0.31 -0.747
136.519 104.862 198.51 0.309 -0.644 -0.7
136.519 105.386 198.167 0.309 -0.382 -0.871
136.519 105.993 198.013 0.309 -0.079 -0.948
135.327 110.14 198.665 -0.309 0.233 -0.922
134.769 110.292 199.014 -0.588 0.31 -0.747
137.208 113.501 202.549 1 0 0
137.11 113.81 203.084 0.951 0.155 0.268
137.11 113.192 203.084 0.951 -0.155 0.268
137.11 113.81 202.014 0.951 0.155 -0.268
136.826 114.089 203.567 0.809 0.294 0.509
136.826 113.501 203.725 0.809 -0 0.588
136.826 112.913 203.567 0.809 -0.294 0.509
136.826 114.089 201.531 0.809 0.294 -0.509
136.384 114.645 203.693 0.588 0.572 0.572
136.384 114.12 204.044 0.588 0.31 0.747
136.384 113.501 204.167 0.588 -0 0.809
136.384 112.882 204.044 0.588 -0.31 0.747
135.826 115.002 203.717 0.309 0.751 0.584
135.826 114.541 204.141 0.309 0.52 0.796
135.826 114.541 200.957 0.309 0.52 -0.796
135.208 115.412 203.139 -0 0.956 0.295
135.208 114.232 200.687 -0 0.365 -0.931
135.208 114.748 200.985 -0 0.623 -0.782
135.208 115.153 201.422 -0 0.826 -0.563
134.59 113.968 200.705 -0.309 0.233 -0.922
134.59 114.541 200.957 -0.309 0.52 -0.796
134.59 115.002 201.381 -0.309 0.751 -0.584
134.59 115.3 201.931 -0.309 0.9 -0.309
134.032 114.12 201.054 -0.588 0.31 -0.747
134.032 114.645 201.405 -0.588 0.572 -0.572
134.401 114.804 204.449 0.174 0.728 0.663
134.401 114.313 204.82 0.174 0.439 0.882
133.811 115.128 203.926 -0.174 0.918 0.356
133.256 115.039 203.321 -0.5 0.866 0
133.256 114.912 202.722 -0.5 0.791 -0.352
136.846 112.837 200.89 0.766 0.267 -0.585
139.609 110.358 200.565 0.901 0.434 0
139.609 110.055 201.091 0.901 0.217 0.376
139.221 110.846 200.565 0.623 0.782 0
139.221 110.672 201.157 0.623 0.658 0.423
139.221 110.672 199.973 0.623 0.658 -0.423
138.66 110.602 199.498 0.223 0.608 -0.762
138.66 110.981 199.973 0.223 0.878 -0.423
139.724 107.77 202.956 0.866 0.25 0.433
139.724 107.17 202.956 0.866 -0.25 0.433
139.285 107.902 203.381 0.5 0.36 0.788
139.285 107.322 203.465 0.5 -0.123 0.857
139.285 106.789 203.221 0.5 -0.567 0.654
138.685 107.615 203.627 -0 0.121 0.993
138.685 107.044 203.558 -0 -0.355 0.935
138.685 106.572 203.232 -0 -0.749 0.663
139.684 106.94 201.144 0.901 -0.217 -0.376
139.296 106.194 201.362 0.623 -0.75 -0.22
139.296 106.527 200.843 0.623 -0.512 -0.591
137.457 101.916 202.946 1 0 0
137.318 102.523 202.946 0.901 0.434 0
137.318 102.22 203.472 0.901 0.217 0.376
137.318 101.612 203.472 0.901 -0.217 0.376
137.318 101.309 202.946 0.901 -0.434 -0
136.93 102.837 203.538 0.623 0.658 0.423
136.93 102.371 203.942 0.623 0.325 0.711
136.93 101.76 204.029 0.623 -0.111 0.774
136.93 101.199 203.773 0.623 -0.512 0.591
136.93 100.866 203.254 0.623 -0.75 0.22
136.369 102.767 204.013 0.223 0.608 0.762
136.369 102.22 204.277 0.223 0.217 0.95
136.369 101.612 204.277 0.223 -0.217 0.95
136.369 101.065 204.013 0.223 -0.608 0.762
136.369 100.686 203.538 0.223 -0.878 0.423
135.745 102.767 204.013 -0.223 0.608 0.762
135.745 102.22 204.277 -0.223 0.217 0.95
135.745 101.612 204.277 -0.223 -0.217 0.95
135.745 101.065 204.013 -0.223 -0.608 0.762
135.745 100.686 203.538 -0.223 -0.878 0.423
135.184 101.76 204.029 -0.623 -0.111 0.774
133.655 100.704 202.594 -0.223 -0.608 0.762
133.655 100.325 202.119 -0.223 -0.878 0.423
133.655 100.19 201.527 -0.223 -0.975 0
133.655 100.325 200.935 -0.223 -0.878 -0.423
133.655 100.704 200.46 -0.223 -0.608 -0.762
133.094 101.399 202.61 -0.623 -0.111 0.774
133.094 100.838 202.354 -0.623 -0.512 0.591
133.094 100.505 201.835 -0.623 -0.75 0.22
133.094 100.505 201.219 -0.623 -0.75 -0.22
133.094 100.838 200.7 -0.623 -0.512 -0.591
132.706 101.251 202.053 -0.901 -0.217 0.376
132.706 100.948 201.527 -0.901 -0.434 -0
132.706 101.251 201.001 -0.901 -0.217 -0.376
132.567 101.555 201.527 -1 0 0
133.889 103.386 198.578 0.223 -0.608 -0.762
133.889 103.933 198.314 0.223 -0.217 -0.95
133.265 103.386 198.578 -0.223 -0.608 -0.762
133.265 103.933 198.314 -0.223 -0.217 -0.95
133.265 104.541 198.314 -0.223 0.217 -0.95
132.704 103.52 198.818 -0.623 -0.512 -0.591
132.704 104.081 198.562 -0.623 -0.111 -0.774
132.704 104.692 198.649 -0.623 0.325 -0.711
132.704 105.158 199.053 -0.623 0.658 -0.423
132.316 104.844 199.645 -0.901 0.434 0
132.316 103.63 199.645 -0.901 -0.434 -0
132.316 103.933 199.119 -0.901 -0.217 -0.376
132.316 104.541 199.119 -0.901 0.217 -0.376
132.177 104.237 199.645 -1 0 0
134.86 106.52 198.102 -0.5 0.36 -0.788
137.675 101.386 200.546 1 0 0
137.536 101.993 200.546 0.901 0.434 0
137.536 100.779 200.546 0.901 -0.434 -0
137.536 101.082 200.02 0.901 -0.217 -0.376
137.536 101.69 200.02 0.901 0.217 -0.376
137.148 100.336 200.854 0.623 -0.75 0.22
137.148 100.336 200.238 0.623 -0.75 -0.22
137.148 100.669 199.719 0.623 -0.512 -0.591
137.148 101.23 199.463 0.623 -0.111 -0.774
137.148 101.841 199.55 0.623 0.325 -0.711
136.587 100.021 200.546 0.223 -0.975 0
136.587 100.156 199.954 0.223 -0.878 -0.423
136.587 100.535 199.479 0.223 -0.608 -0.762
136.587 101.082 199.215 0.223 -0.217 -0.95
136.587 101.69 199.215 0.223 0.217 -0.95
135.963 100.021 200.546 -0.223 -0.975 0
135.963 100.156 199.954 -0.223 -0.878 -0.423
135.963 100.535 199.479 -0.223 -0.608 -0.762
135.963 101.082 199.215 -0.223 -0.217 -0.95
137.6 104.84 199.942 0.866 -0.5 -0
137.939 107.291 198.386 0.5 -0.123 -0.857
136.59 107.636 198.035 -0 0.075 -0.997
136.59 108.218 198.167 -0 0.365 -0.931
136.095 111.107 198.926 -0 0.568 -0.823
139.95 109.07 200.283 1 0 0
139.789 108.77 199.763 0.866 -0.25 -0.433
139.789 109.37 199.763 0.866 0.25 -0.433
139.35 108.922 199.254 0.5 -0.123 -0.857
136.815 114.884 202.471 0.866 0.5 0
136.376 115.323 202.471 0.5 0.866 0
136.376 115.158 201.909 0.5 0.729 -0.468
3 0 273 272
3 272 273 274
3 272 274 1
3 1 274 275
3 273 276 274
3 274 276 277
3 274 277 275
3 275 277 278
3 276 279 277
3 277 279 280
3 277 280 278
3 278 280 281
3 279 282 280
3 280 282 283
3 280 283 281
3 281 283 284
3 282 285 283
3 283 285 286
3 283 286 284
3 284 286 287
3 285 4 286
3 286 4 288
3 286 288 287
3 287 288 3
3 4 290 289
3 289 290 291
3 289 291 5
3 5 291 292
3 290 293 291
3 291 293 294
3 291 294 292
3 292 294 295
3 293 296 294
3 294 296 297
3 294 297 295
3 295 297 298
3 296 0 297
3 297 0 299
3 297 299 298
3 298 299 2
3 5 7 300
3 300 7 301
3 300 301 3
3 3 301 6
3 7 302 8
3 8 302 303
3 302 10 303
3 303 10 9
3 10 304 11
3 11 304 305
3 304 306 305
3 305 306 307
3 306 308 307
3 307 308 309
3 308 310 309
3 309 310 311
3 310 312 311
3 311 312 313
3 312 314 313
3 313 314 315
3 314 316 315
3 315 316 317
3 316 318 317
3 317 318 319
3 318 13 319
3 319 13 12
3 13 320 14
3 14 320 321
3 320 16 321
3 321 16 15
3 16 2 322
3 322 2 323
3 322 323 17
3 17 323 1
3 17 19 15
3 15 19 18
3 19 324 20
3 20 324 325
3 324 326 325
3 325 326 327
3 326 328 327
3 327 328 329
3 328 22 329
3 329 22 21
3 22 330 23
3 23 330 331
3 330 332 331
3 331 332 333
3 332 334 333
3 333 334 335
3 334 336 335
3 335 336 337
3 336 338 337
3 337 338 339
3 338 25 339
3 339 25 24
3 25 340 26
3 26 340 341
3 340 342 341
3 341 342 343
3 342 344 343
3 343 344 345
3 344 28 345
3 345 28 27
3 28 6 29
3 29 6 8
3 29 346 27
3 27 346 347
3 346 348 347
3 347 348 349
3 348 31 349
3 349 31 30
3 31 350 32
3 32 350 351
3 350 34 351
3 351 34 33
3 34 9 35
3 35 9 11
3 35 37 33
3 33 37 36
3 37 40 352
3 352 40 353
3 352 353 38
3 38 353 39
3 40 43 354
3 354 43 355
3 354 355 41
3 41 355 42
3 43 46 356
3 356 46 357
3 356 357 44
3 44 357 45
3 46 49 358
3 358 49 360
3 358 360 359
3 359 360 361
3 359 361 47
3 47 361 48
3 49 365 362
3 362 365 366
3 362 366 363
3 363 366 367
3 363 367 364
3 364 367 368
3 364 368 50
3 50 368 369
3 365 370 366
3 366 370 371
3 366 371 367
3 367 371 372
3 367 372 368
3 368 372 373
3 368 373 369
3 369 373 374
3 370 375 371
3 371 375 376
3 371 376 372
3 372 376 377
3 372 377 373
3 373 377 378
3 373 378 374
3 374 378 379
3 375 52 376
3 376 52 380
3 376 380 377
3 377 380 381
3 377 381 378
3 378 381 382
3 378 382 379
3 379 382 51
3 52 55 53
3 53 55 54
3 55 58 383
3 383 58 385
3 383 385 384
3 384 385 386
3 384 386 56
3 56 386 57
3 58 61 387
3 387 61 389
3 387 389 388
3 388 389 390
3 388 390 59
3 59 390 60
3 61 64 391
3 391 64 392
3 391 392 62
3 62 392 63
3 64 67 65
3 65 67 66
3 67 70 68
3 68 70 69
3 70 12 71
3 71 12 14
3 71 393 69
3 69 393 394
3 393 73 394
3 394 73 72
3 73 76 395
3 395 76 396
3 395 396 74
3 74 396 75
3 76 397 77
3 77 397 398
3 397 399 398
3 398 399 400
3 399 18 400
3 400 18 20
3 77 79 75
3 75 79 78
3 79 401 80
3 80 401 402
3 401 82 402
3 402 82 81
3 82 21 83
3 83 21 23
3 83 404 403
3 403 404 405
3 403 405 81
3 81 405 406
3 404 407 405
3 405 407 408
3 405 408 406
3 406 408 409
3 407 85 408
3 408 85 410
3 408 410 409
3 409 410 84
3 85 24 86
3 86 24 26
3 86 411 84
3 84 411 412
3 411 88 412
3 412 88 87
3 88 91 89
3 89 91 90
3 91 30 92
3 92 30 32
3 92 94 90
3 90 94 93
3 94 97 413
3 413 97 414
3 413 414 95
3 95 414 96
3 97 36 415
3 415 36 416
3 415 416 98
3 98 416 38
3 98 417 96
3 96 417 418
3 417 419 418
3 418 419 420
3 419 100 420
3 420 100 99
3 100 422 421
3 421 422 423
3 421 423 101
3 101 423 424
3 422 103 423
3 423 103 425
3 423 425 424
3 424 425 102
3 103 426 104
3 104 426 427
3 426 428 427
3 427 428 429
3 428 106 429
3 429 106 105
3 106 431 430
3 430 431 432
3 430 432 107
3 107 432 433
3 431 434 432
3 432 434 435
3 432 435 433
3 433 435 436
3 434 109 435
3 435 109 437
3 435 437 436
3 436 437 108
3 109 438 110
3 110 438 439
3 438 39 439
3 439 39 41
3 110 440 108
3 108 440 441
3 440 442 441
3 441 442 443
3 442 112 443
3 443 112 111
3 112 115 113
3 113 115 114
3 115 118 444
3 444 118 446
3 444 446 445
3 445 446 447
3 445 447 116
3 116 447 117
3 118 448 119
3 119 448 449
3 448 42 449
3 449 42 44
3 119 121 450
3 450 121 453
3 450 453 451
3 451 453 454
3 451 454 452
3 452 454 455
3 452 455 117
3 117 455 120
3 121 124 456
3 456 124 458
3 456 458 457
3 457 458 459
3 457 459 122
3 122 459 123
3 124 45 460
3 460 45 461
3 460 461 125
3 125 461 47
3 125 127 123
3 123 127 126
3 127 48 462
3 462 48 463
3 462 463 128
3 128 463 50
3 128 130 126
3 126 130 129
3 130 133 464
3 464 133 466
3 464 466 465
3 465 466 467
3 465 467 131
3 131 467 132
3 133 136 468
3 468 136 470
3 468 470 469
3 469 470 471
3 469 471 134
3 134 471 135
3 136 474 472
3 472 474 475
3 472 475 473
3 473 475 476
3 473 476 137
3 137 476 477
3 474 478 475
3 475 478 479
3 475 479 476
3 476 479 480
3 476 480 477
3 477 480 481
3 478 139 479
3 479 139 482
3 479 482 480
3 480 482 483
3 480 483 481
3 481 483 138
3 139 485 484
3 484 485 486
3 484 486 140
3 140 486 487
3 485 142 486
3 486 142 488
3 486 488 487
3 487 488 141
3 142 145 143
3 143 145 144
3 145 51 489
3 489 51 491
3 489 491 490
3 490 491 492
3 490 492 146
3 146 492 53
3 146 54 493
3 493 54 495
3 493 495 494
3 494 495 496
3 494 496 144
3 144 496 56
3 143 148 141
3 141 148 147
3 148 57 497
3 497 57 498
3 497 498 149
3 149 498 59
3 149 151 499
3 499 151 500
3 499 500 147
3 147 500 150
3 151 502 501
3 501 502 503
3 501 503 152
3 152 503 504
3 502 505 503
3 503 505 506
3 503 506 504
3 504 506 507
3 505 508 506
3 506 508 509
3 506 509 507
3 507 509 510
3 508 154 509
3 509 154 511
3 509 511 510
3 510 511 153
3 154 157 512
3 512 157 513
3 512 513 155
3 155 513 156
3 157 160 514
3 514 160 517
3 514 517 515
3 515 517 518
3 515 518 516
3 516 518 519
3 516 519 158
3 158 519 159
3 160 520 161
3 161 520 521
3 520 163 521
3 521 163 162
3 163 166 522
3 522 166 523
3 522 523 164
3 164 523 165
3 166 169 167
3 167 169 168
3 169 172 170
3 170 172 171
3 172 524 173
3 173 524 525
3 524 526 525
3 525 526 527
3 526 175 527
3 527 175 174
3 175 528 176
3 176 528 529
3 528 60 529
3 529 60 62
3 176 178 174
3 174 178 177
3 178 530 179
3 179 530 531
3 530 63 531
3 531 63 65
3 179 532 177
3 177 532 533
3 532 181 533
3 533 181 180
3 181 184 182
3 182 184 183
3 184 534 185
3 185 534 535
3 534 187 535
3 535 187 186
3 187 536 188
3 188 536 537
3 536 66 537
3 537 66 68
3 188 190 538
3 538 190 539
3 538 539 186
3 186 539 189
3 190 193 191
3 191 193 192
3 193 72 194
3 194 72 74
3 194 540 192
3 192 540 541
3 540 542 541
3 541 542 543
3 542 544 543
3 543 544 545
3 544 546 545
3 545 546 547
3 546 548 547
3 547 548 549
3 548 550 549
3 549 550 551
3 550 552 551
3 551 552 553
3 552 196 553
3 553 196 195
3 196 93 554
3 554 93 556
3 554 556 555
3 555 556 557
3 555 557 197
3 197 557 95
3 197 99 558
3 558 99 559
3 558 559 195
3 195 559 101
3 191 561 560
3 560 561 562
3 560 562 189
3 189 562 563
3 561 199 562
3 562 199 564
3 562 564 563
3 563 564 198
3 199 202 565
3 565 202 566
3 565 566 200
3 200 566 201
3 202 102 567
3 567 102 569
3 567 569 568
3 568 569 570
3 568 570 203
3 203 570 104
3 203 205 201
3 201 205 204
3 205 183 571
3 571 183 572
3 571 572 206
3 206 572 185
3 206 198 204
3 204 198 200
3 182 208 573
3 573 208 574
3 573 574 180
3 180 574 207
3 208 575 209
3 209 575 576
3 575 577 576
3 576 577 578
3 577 579 578
3 578 579 580
3 579 211 580
3 580 211 210
3 211 105 581
3 581 105 582
3 581 582 212
3 212 582 107
3 212 214 583
3 583 214 584
3 583 584 210
3 210 584 213
3 214 585 215
3 215 585 586
3 585 587 586
3 586 587 588
3 587 589 588
3 588 589 590
3 589 111 590
3 590 111 113
3 215 592 591
3 591 592 593
3 591 593 213
3 213 593 594
3 592 217 593
3 593 217 595
3 593 595 594
3 594 595 216
3 217 220 596
3 596 220 597
3 596 597 218
3 218 597 219
3 220 165 598
3 598 165 599
3 598 599 221
3 221 599 167
3 221 168 219
3 219 168 170
3 218 601 600
3 600 601 602
3 600 602 216
3 216 602 603
3 601 223 602
3 602 223 604
3 602 604 603
3 603 604 222
3 223 605 224
3 224 605 606
3 605 171 606
3 606 171 173
3 224 207 607
3 607 207 608
3 607 608 222
3 222 608 209
3 164 226 609
3 609 226 611
3 609 611 610
3 610 611 612
3 610 612 162
3 162 612 225
3 226 229 613
3 613 229 614
3 613 614 227
3 227 614 228
3 229 114 615
3 615 114 618
3 615 618 616
3 616 618 619
3 616 619 617
3 617 619 620
3 617 620 230
3 230 620 116
3 230 232 621
3 621 232 622
3 621 622 228
3 228 622 231
3 232 235 623
3 623 235 624
3 623 624 233
3 233 624 234
3 235 238 625
3 625 238 626
3 625 626 236
3 236 626 237
3 238 241 239
3 239 241 240
3 241 628 627
3 627 628 629
3 627 629 242
3 242 629 630
3 628 631 629
3 629 631 632
3 629 632 630
3 630 632 633
3 631 244 632
3 632 244 634
3 632 634 633
3 633 634 243
3 244 120 245
3 245 120 122
3 245 129 635
3 635 129 637
3 635 637 636
3 636 637 638
3 636 638 243
3 243 638 131
3 242 247 240
3 240 247 246
3 247 640 639
3 639 640 641
3 639 641 248
3 248 641 642
3 640 643 641
3 641 643 644
3 641 644 642
3 642 644 645
3 643 250 644
3 644 250 646
3 644 646 645
3 645 646 249
3 250 647 251
3 251 647 648
3 647 253 648
3 648 253 252
3 253 650 649
3 649 650 651
3 649 651 254
3 254 651 652
3 650 256 651
3 651 256 653
3 651 653 652
3 652 653 255
3 256 132 257
3 257 132 134
3 257 135 255
3 255 135 137
3 254 654 252
3 252 654 655
3 654 259 655
3 655 259 258
3 259 657 656
3 656 657 658
3 656 658 260
3 260 658 659
3 657 262 658
3 658 262 660
3 658 660 659
3 659 660 261
3 262 265 263
3 263 265 264
3 265 663 661
3 661 663 664
3 661 664 662
3 662 664 665
3 662 665 266
3 266 665 666
3 663 138 664
3 664 138 667
3 664 667 665
3 665 667 668
3 665 668 666
3 666 668 140
3 266 268 669
3 669 268 671
3 669 671 670
3 670 671 672
3 670 672 264
3 264 672 267
3 268 156 673
3 673 156 675
3 673 675 674
3 674 675 676
3 674 676 269
3 269 676 158
3 269 261 267
3 267 261 263
3 260 677 258
3 258 677 678
3 677 249 678
3 678 249 251
3 248 237 246
3 246 237 239
3 236 159 679
3 679 159 682
3 679 682 680
3 680 682 683
3 680 683 681
3 681 683 684
3 681 684 234
3 234 684 161
3 233 225 231
3 231 225 227
3 155 686 685
3 685 686 687
3 685 687 153
3 153 687 688
3 686 150 687
3 687 150 689
3 687 689 688
3 688 689 152
3 89 690 87
3 87 690 691
3 690 692 691
3 691 692 693
3 692 694 693
3 693 694 695
3 694 696 695
3 695 696 697
3 696 698 697
3 697 698 699
3 698 700 699
3 699 700 701
3 700 702 701
3 701 702 703
3 702 78 703
3 703 78 80
3 270 704 271
3 271 704 705
3 704 706 705
3 705 706 707
3 706 708 707
3 707 708 709
3 708 710 709
3 709 710 711
3 710 712 711
3 711 712 713
3 712 270 713
3 713 270 271
3 299 0 272
3 299 272 323
3 299 323 2
3 323 272 1
3 300 3 288
3 300 288 289
3 300 289 5
3 289 288 4
3 8 6 301
3 8 301 7
3 11 9 10
3 14 12 13
3 17 15 322
3 322 15 16
3 20 18 19
3 23 21 22
3 26 24 25
3 29 27 28
3 32 30 31
3 35 33 34
3 416 36 352
3 416 352 38
3 352 36 37
3 41 39 354
3 354 39 353
3 354 353 40
3 44 42 356
3 356 42 355
3 356 355 43
3 461 45 357
3 461 357 359
3 461 359 47
3 359 357 358
3 358 357 46
3 463 48 714
3 463 714 364
3 463 364 50
3 364 714 363
3 363 714 361
3 363 361 362
3 362 361 360
3 362 360 49
3 361 714 48
3 491 51 382
3 491 382 381
3 491 381 492
3 492 381 380
3 492 380 53
3 53 380 52
3 495 54 383
3 495 383 384
3 495 384 496
3 496 384 56
3 383 54 55
3 498 57 386
3 498 386 388
3 498 388 59
3 388 386 385
3 388 385 387
3 387 385 58
3 62 60 390
3 62 390 391
3 391 390 389
3 391 389 61
3 65 63 392
3 65 392 64
3 68 66 67
3 71 69 70
3 74 72 395
3 395 72 73
3 77 75 396
3 77 396 76
3 80 78 79
3 403 81 82
3 403 82 83
3 86 84 410
3 86 410 85
3 89 87 88
3 92 90 91
3 556 93 94
3 556 94 557
3 557 94 413
3 557 413 95
3 98 96 415
3 415 96 414
3 415 414 97
3 559 99 421
3 559 421 101
3 421 99 100
3 569 102 425
3 569 425 570
3 570 425 103
3 570 103 104
3 582 105 106
3 582 106 430
3 582 430 107
3 110 108 437
3 110 437 109
3 113 111 112
3 618 114 115
3 618 115 444
3 618 444 619
3 619 444 445
3 619 445 620
3 620 445 116
3 452 117 447
3 452 447 451
3 451 447 446
3 451 446 450
3 450 446 118
3 450 118 119
3 122 120 455
3 122 455 457
3 457 455 454
3 457 454 456
3 456 454 453
3 456 453 121
3 125 123 459
3 125 459 458
3 125 458 460
3 460 458 124
3 128 126 462
3 462 126 127
3 637 129 464
3 637 464 465
3 637 465 638
3 638 465 131
3 464 129 130
3 134 132 467
3 134 467 469
3 469 467 466
3 469 466 468
3 468 466 133
3 137 135 473
3 473 135 471
3 473 471 472
3 472 471 470
3 472 470 136
3 667 138 483
3 667 483 715
3 667 715 668
3 668 715 140
3 140 715 484
3 484 715 482
3 484 482 139
3 482 715 483
3 143 141 488
3 143 488 142
3 494 144 489
3 494 489 490
3 494 490 493
3 493 490 146
3 489 144 145
3 499 147 148
3 499 148 497
3 499 497 149
3 689 150 500
3 689 500 151
3 689 151 501
3 689 501 152
3 685 153 511
3 685 511 154
3 685 154 512
3 685 512 155
3 675 156 716
3 675 716 717
3 675 717 676
3 676 717 515
3 676 515 516
3 676 516 158
3 515 717 514
3 514 717 716
3 514 716 157
3 157 716 513
3 513 716 156
3 682 159 519
3 682 519 683
3 683 519 518
3 683 518 684
3 684 518 517
3 684 517 161
3 161 517 160
3 610 162 163
3 610 163 522
3 610 522 609
3 609 522 164
3 599 165 523
3 599 523 167
3 167 523 166
3 170 168 169
3 173 171 172
3 176 174 175
3 179 177 178
3 573 180 718
3 573 718 182
3 182 718 181
3 181 718 180
3 572 183 184
3 572 184 185
3 538 186 187
3 538 187 188
3 560 189 539
3 560 539 190
3 560 190 191
3 194 192 193
3 558 195 554
3 558 554 555
3 558 555 197
3 554 195 196
3 200 198 564
3 200 564 565
3 565 564 199
3 203 201 568
3 568 201 567
3 567 201 566
3 567 566 202
3 206 204 571
3 571 204 205
3 608 207 574
3 608 574 209
3 209 574 208
3 583 210 581
3 583 581 212
3 581 210 211
3 591 213 584
3 591 584 215
3 215 584 214
3 600 216 595
3 600 595 596
3 600 596 218
3 596 595 217
3 221 219 597
3 221 597 598
3 598 597 220
3 607 222 604
3 607 604 224
3 224 604 223
3 227 225 612
3 227 612 613
3 613 612 611
3 613 611 226
3 621 228 617
3 621 617 230
3 617 228 616
3 616 228 614
3 616 614 615
3 615 614 229
3 233 231 623
3 623 231 622
3 623 622 232
3 681 234 624
3 681 624 680
3 680 624 235
3 680 235 625
3 680 625 679
3 679 625 236
3 239 237 626
3 239 626 238
3 242 240 627
3 627 240 241
3 636 243 634
3 636 634 244
3 636 244 635
3 635 244 245
3 248 246 639
3 639 246 247
3 251 249 646
3 251 646 250
3 254 252 649
3 649 252 253
3 257 255 653
3 257 653 256
3 260 258 656
3 656 258 259
3 263 261 660
3 263 660 262
3 670 264 661
3 670 661 662
3 670 662 669
3 669 662 266
3 661 264 265
3 269 267 674
3 674 267 672
3 674 672 673
3 673 672 671
3 673 671 268
3 290 4 285
3 290 285 719
3 290 719 293
3 293 719 721
3 293 721 296
3 296 721 722
3 296 722 0
3 0 722 273
3 273 722 276
3 276 722 721
3 276 721 720
3 276 720 279
3 279 720 282
3 282 720 719
3 282 719 285
3 719 720 721
3 724 723 726
3 729 728 733
3 730 729 733
3 731 730 733
3 731 733 278
3 731 278 732
3 731 732 332
3 731 332 730
3 730 332 330
3 730 330 328
3 730 328 326
3 730 326 729
3 729 326 324
3 729 324 728
3 728 324 19
3 728 19 17
3 728 17 1
3 728 1 275
3 728 275 733
3 733 275 278
3 328 330 22
3 332 732 334
3 334 732 281
3 334 281 727
3 334 727 336
3 336 727 726
3 336 726 723
3 336 723 338
3 338 723 340
3 338 340 25
3 340 723 342
3 342 723 724
3 342 724 344
3 344 724 725
3 344 725 28
3 28 725 6
3 6 725 3
3 3 725 287
3 287 725 726
3 287 726 284
3 284 726 727
3 284 727 281
3 726 725 724
3 281 732 278
3 734 735 736
3 736 735 737
3 736 737 738
3 736 738 310
3 736 310 308
3 736 308 734
3 734 308 306
3 734 306 304
3 734 304 302
3 734 302 7
3 734 7 5
3 734 5 735
3 735 5 292
3 735 292 737
3 737 292 295
3 737 295 739
3 737 739 738
3 738 739 312
3 738 312 310
3 312 739 314
3 314 739 740
3 314 740 316
3 316 740 318
3 318 740 741
3 318 741 320
3 318 320 13
3 320 741 16
3 16 741 2
3 2 741 298
3 298 741 740
3 298 740 739
3 298 739 295
3 302 304 10
3 9 34 742
3 9 742 303
3 303 742 346
3 303 346 29
3 303 29 8
3 346 742 348
3 348 742 350
3 348 350 31
3 350 742 34
3 744 748 749
3 745 744 749
3 746 745 749
3 746 749 319
3 746 319 12
3 746 12 70
3 746 70 67
3 746 67 64
3 746 64 745
3 745 64 744
3 744 64 61
3 744 61 58
3 744 58 55
3 744 55 748
3 748 55 747
3 748 747 315
3 748 315 317
3 748 317 749
3 749 317 319
3 315 747 313
3 313 747 375
3 313 375 311
3 311 375 370
3 311 370 309
3 309 370 365
3 309 365 307
3 307 365 305
3 305 365 743
3 305 743 11
3 11 743 43
3 11 43 35
3 35 43 40
3 35 40 37
3 43 743 46
3 46 743 49
3 49 743 365
3 375 747 52
3 52 747 55
3 76 73 397
3 15 18 321
3 321 18 399
3 321 399 750
3 321 750 14
3 14 750 71
3 71 750 393
3 393 750 397
3 393 397 73
3 397 750 399
3 21 82 401
3 21 401 329
3 329 401 752
3 329 752 327
3 327 752 751
3 327 751 325
3 325 751 400
3 325 400 20
3 400 751 398
3 398 751 77
3 77 751 79
3 79 751 752
3 79 752 401
3 753 755 756
3 754 753 756
3 754 756 757
3 754 757 337
3 754 337 339
3 754 339 24
3 754 24 85
3 754 85 407
3 754 407 753
3 753 407 404
3 753 404 755
3 755 404 83
3 755 83 23
3 755 23 331
3 755 331 333
3 755 333 756
3 756 333 335
3 756 335 757
3 757 335 337
3 349 30 758
3 349 758 759
3 349 759 347
3 347 759 345
3 347 345 27
3 345 759 343
3 343 759 758
3 343 758 88
3 343 88 411
3 343 411 341
3 341 411 26
3 26 411 86
3 88 758 91
3 91 758 30
3 33 36 97
3 33 97 351
3 351 97 94
3 351 94 32
3 32 94 92
3 438 109 417
3 438 417 98
3 438 98 38
3 438 38 39
3 417 109 434
3 417 434 419
3 419 434 431
3 419 431 428
3 419 428 100
3 100 428 426
3 100 426 422
3 422 426 103
3 428 431 106
3 448 118 442
3 448 442 440
3 448 440 42
3 42 440 439
3 42 439 41
3 439 440 110
3 442 118 112
3 112 118 115
3 45 124 449
3 45 449 44
3 449 124 121
3 449 121 119
3 47 48 125
3 48 127 125
3 760 762 763
3 761 760 763
3 762 764 765
3 763 762 765
3 763 765 766
3 765 764 768
3 765 768 769
3 766 765 769
3 768 767 772
3 769 768 772
3 770 769 772
3 767 771 772
3 772 771 485
3 772 485 770
3 770 485 139
3 770 139 478
3 770 478 766
3 770 766 769
3 766 478 474
3 766 474 763
3 763 474 136
3 763 136 133
3 763 133 761
3 761 133 130
3 761 130 760
3 760 130 128
3 760 128 50
3 760 50 369
3 760 369 762
3 762 369 374
3 762 374 764
3 764 374 768
3 768 374 379
3 768 379 767
3 767 379 51
3 767 51 771
3 771 51 142
3 771 142 485
3 142 51 145
3 54 146 53
3 57 148 56
3 56 148 143
3 56 143 144
3 773 774 775
3 773 775 776
3 773 776 172
3 773 172 169
3 773 169 520
3 773 520 774
3 774 520 160
3 774 160 157
3 774 157 154
3 774 154 775
3 775 154 508
3 775 508 776
3 776 508 524
3 776 524 172
3 524 508 505
3 524 505 526
3 526 505 175
3 175 505 502
3 175 502 528
3 528 502 151
3 528 151 60
3 60 151 149
3 60 149 59
3 520 169 166
3 520 166 163
3 530 178 176
3 530 176 529
3 530 529 63
3 63 529 62
3 536 187 778
3 536 778 66
3 66 778 65
3 65 778 531
3 531 778 777
3 531 777 179
3 179 777 534
3 179 534 532
3 532 534 184
3 532 184 181
3 534 777 187
3 187 777 778
3 394 72 193
3 394 193 537
3 394 537 68
3 394 68 69
3 537 193 188
3 188 193 190
3 74 75 194
3 779 780 781
3 780 783 784
3 781 780 784
3 781 784 785
3 783 787 788
3 784 783 788
3 784 788 789
3 784 789 790
3 785 784 790
3 787 791 792
3 788 787 792
3 793 795 796
3 795 798 799
3 796 795 799
3 796 799 800
3 797 796 800
3 797 800 801
3 799 798 802
3 799 802 803
3 800 799 803
3 800 803 702
3 800 702 801
3 801 702 700
3 801 700 698
3 801 698 708
3 801 708 797
3 797 708 706
3 797 706 796
3 796 706 793
3 793 706 704
3 793 704 544
3 793 544 542
3 793 542 795
3 795 542 540
3 795 540 798
3 798 540 194
3 798 194 802
3 802 194 75
3 802 75 78
3 802 78 803
3 803 78 702
3 544 704 786
3 544 786 546
3 546 786 782
3 546 782 548
3 548 782 779
3 548 779 550
3 550 779 781
3 550 781 552
3 552 781 785
3 552 785 196
3 196 785 790
3 196 790 93
3 93 790 90
3 90 790 89
3 89 790 789
3 89 789 690
3 690 789 788
3 690 788 792
3 690 792 692
3 692 792 694
3 694 792 791
3 694 791 696
3 696 791 794
3 696 794 698
3 698 794 708
3 708 794 710
3 710 794 791
3 710 791 787
3 710 787 712
3 712 787 783
3 712 783 780
3 712 780 270
3 270 780 779
3 270 779 782
3 270 782 786
3 270 786 704
3 409 84 805
3 409 805 804
3 409 804 806
3 409 806 406
3 406 806 807
3 406 807 81
3 81 807 808
3 81 808 402
3 402 808 703
3 402 703 80
3 703 808 701
3 701 808 807
3 701 807 699
3 699 807 806
3 699 806 697
3 697 806 804
3 697 804 695
3 695 804 693
3 693 804 805
3 693 805 691
3 691 805 412
3 691 412 87
3 412 805 84
3 420 99 197
3 420 197 95
3 420 95 418
3 418 95 96
3 102 202 809
3 102 809 549
3 102 549 551
3 102 551 424
3 424 551 553
3 424 553 101
3 101 553 195
3 549 809 547
3 547 809 545
3 545 809 199
3 545 199 561
3 545 561 543
3 543 561 541
3 541 561 191
3 541 191 192
3 199 809 202
3 811 810 813
3 810 814 812
3 810 812 813
3 814 815 816
3 812 814 816
3 812 816 104
3 812 104 813
3 813 104 427
3 813 427 429
3 813 429 811
3 811 429 105
3 811 105 211
3 811 211 579
3 811 579 810
3 810 579 577
3 810 577 814
3 814 577 575
3 814 575 815
3 815 575 183
3 815 183 205
3 815 205 816
3 816 205 203
3 816 203 104
3 183 575 182
3 182 575 208
3 817 819 820
3 818 817 820
3 818 820 821
3 820 819 822
3 820 822 823
3 821 820 823
3 821 823 824
3 821 824 589
3 821 589 587
3 821 587 818
3 818 587 585
3 818 585 817
3 817 585 214
3 817 214 212
3 817 212 107
3 817 107 433
3 817 433 819
3 819 433 436
3 819 436 822
3 822 436 108
3 822 108 441
3 822 441 823
3 823 441 443
3 823 443 824
3 824 443 111
3 824 111 589
3 825 826 827
3 825 827 217
3 825 217 592
3 825 592 586
3 825 586 588
3 825 588 826
3 826 588 590
3 826 590 226
3 826 226 164
3 826 164 827
3 827 164 165
3 827 165 220
3 827 220 217
3 226 590 229
3 229 590 114
3 114 590 113
3 586 592 215
3 117 120 631
3 117 631 116
3 116 631 628
3 116 628 230
3 230 628 241
3 230 241 232
3 232 241 238
3 232 238 235
3 631 120 244
3 123 126 129
3 123 129 245
3 123 245 122
3 828 829 830
3 828 830 831
3 828 831 832
3 830 829 833
3 830 833 834
3 830 834 835
3 831 830 835
3 831 835 836
3 831 836 837
3 832 831 837
3 834 833 838
3 834 838 839
3 835 834 839
3 835 839 840
3 836 835 840
3 836 840 841
3 836 841 842
3 837 836 842
3 838 843 844
3 839 838 844
3 839 844 845
3 840 839 845
3 840 845 846
3 841 840 846
3 841 846 847
3 842 841 847
3 845 844 848
3 845 848 846
3 846 848 650
3 846 650 253
3 846 253 847
3 847 253 647
3 847 647 842
3 842 647 250
3 842 250 837
3 837 250 643
3 837 643 832
3 832 643 640
3 832 640 828
3 828 640 247
3 828 247 829
3 829 247 242
3 829 242 630
3 829 630 833
3 833 630 633
3 833 633 838
3 838 633 243
3 838 243 843
3 843 243 131
3 843 131 132
3 843 132 844
3 844 132 848
3 848 132 256
3 848 256 650
3 135 257 134
3 850 849 855
3 850 855 856
3 851 850 856
3 851 856 857
3 852 851 857
3 852 857 858
3 853 852 858
3 855 854 859
3 856 855 859
3 856 859 860
3 857 856 860
3 857 860 861
3 858 857 861
3 860 859 862
3 861 860 862
3 861 862 138
3 861 138 663
3 861 663 858
3 858 663 853
3 853 663 262
3 853 262 657
3 853 657 852
3 852 657 259
3 852 259 851
3 851 259 654
3 851 654 850
3 850 654 254
3 850 254 849
3 849 254 652
3 849 652 854
3 849 854 855
3 854 652 255
3 854 255 477
3 854 477 859
3 859 477 481
3 859 481 862
3 862 481 138
3 477 255 137
3 262 663 265
3 863 865 866
3 864 863 866
3 864 866 867
3 866 865 868
3 866 868 869
3 867 866 869
3 867 869 870
3 869 868 874
3 869 874 875
3 870 869 875
3 871 870 875
3 872 871 875
3 874 873 876
3 875 874 876
3 872 875 876
3 876 873 487
3 876 487 141
3 876 141 872
3 872 141 147
3 872 147 871
3 871 147 150
3 871 150 870
3 870 150 867
3 867 150 686
3 867 686 864
3 864 686 155
3 864 155 156
3 864 156 863
3 863 156 268
3 863 268 266
3 863 266 865
3 865 266 666
3 865 666 868
3 868 666 873
3 868 873 874
3 873 666 140
3 873 140 487
3 688 152 877
3 688 877 510
3 688 510 153
3 510 877 507
3 507 877 504
3 504 877 152
3 878 880 881
3 878 881 882
3 878 882 879
3 880 883 884
3 881 880 884
3 881 884 885
3 881 885 886
3 882 881 886
3 882 886 887
3 884 883 888
3 884 888 889
3 885 884 889
3 885 889 890
3 885 890 891
3 886 885 891
3 886 891 892
3 887 886 892
3 888 893 894
3 889 888 894
3 889 894 895
3 890 889 895
3 890 895 896
3 891 890 896
3 891 896 892
3 892 896 158
3 892 158 159
3 892 159 887
3 887 159 236
3 887 236 882
3 882 236 879
3 879 236 237
3 879 237 248
3 879 248 878
3 878 248 642
3 878 642 880
3 880 642 645
3 880 645 883
3 883 645 249
3 883 249 888
3 888 249 677
3 888 677 893
3 893 677 260
3 893 260 894
3 894 260 659
3 894 659 895
3 895 659 896
3 896 659 261
3 896 261 269
3 896 269 158
3 162 225 897
3 162 897 521
3 521 897 161
3 161 897 234
3 234 897 225
3 234 225 233
3 168 221 167
3 605 223 898
3 605 898 171
3 171 898 170
3 170 898 601
3 170 601 219
3 219 601 218
3 601 898 223
3 174 177 900
3 174 900 527
3 527 900 899
3 527 899 525
3 525 899 606
3 525 606 173
3 606 899 900
3 606 900 533
3 606 533 224
3 224 533 207
3 207 533 180
3 533 900 177
3 186 189 901
3 186 901 535
3 535 901 185
3 185 901 563
3 185 563 206
3 206 563 198
3 563 901 189
3 201 204 200
3 902 903 904
3 904 903 905
3 904 905 576
3 904 576 578
3 904 578 580
3 904 580 902
3 902 580 213
3 902 213 594
3 902 594 903
3 903 594 216
3 903 216 603
3 903 603 905
3 905 603 222
3 905 222 576
3 576 222 209
3 213 580 210
3 228 231 227
3 240 246 239
3 655 258 678
3 655 678 648
3 655 648 252
3 648 678 251
3 264 267 263
3 906 908 907
3 906 907 713
3 906 713 271
3 906 271 705
3 906 705 908
3 908 705 707
3 908 707 709
3 908 709 907
3 907 709 711
3 907 711 713
