ply
format ascii 1.0
comment Generated by PyMesh
element vertex 646
property float x
property float y
property float z
property float nx
property float ny
property float nz
element face 1288
property list uchar int vertex_indices
end_header
55.628 67.144 48.976 -0.807 -0.453 -0.379
55.781 65.892 48.663 -0.908 0.382 -0.17
55.771 66.666 49.023 -0.902 -0.134 -0.41
56.185 66.062 48.11 -0.571 0.524 -0.632
56.068 67.329 48.375 -0.493 -0.321 -0.809
56.291 66.885 48.311 -0.642 -0.025 -0.766
57.86 68.572 48.732 0.143 0.819 -0.556
57.393 68.754 48.73 0.454 0.697 -0.555
58.347 69.459 49.333 -0.182 0.227 -0.957
57.646 69.844 50.077 -0.766 0.548 -0.337
56.632 69.172 49.538 -0.09 0.996 0.022
57.479 69.775 50.274 -0.654 0.594 -0.468
57.439 69.769 50.324 -0.674 0.591 -0.443
56.599 69.167 49.581 -0.114 0.992 0.053
57.003 70.468 51.033 -0.383 0.125 -0.915
56.628 70.339 51.252 -0.651 0.033 -0.759
56.224 69.038 49.8 -0.381 0.9 0.209
56.602 69.757 51.088 -0.633 0.421 -0.649
55.987 68.628 51.771 -0.941 -0.143 -0.308
55.705 68.085 50.377 -0.752 0.219 0.621
55.943 68.416 51.927 -0.911 -0.002 -0.412
55.949 68.161 51.983 -0.906 -0.214 -0.366
55.712 67.808 50.437 -0.747 0.021 0.664
55.87 67.452 50.752 -0.853 0.259 0.454
56.636 67.304 52.62 -0.333 -0.928 0.165
56.753 66.35 51.571 -0.411 -0.292 0.864
56.879 67.199 52.661 -0.495 -0.858 0.137
57.179 67.069 52.728 -0.345 -0.923 0.17
57.053 66.22 51.638 -0.261 -0.357 0.897
57.891 65.918 52.156 -0.82 -0.156 0.551
57.879 65.612 51.998 -0.826 -0.309 0.472
57.041 65.914 51.479 -0.267 -0.51 0.818
57.391 64.916 51.428 -0.5 0.155 0.852
56.811 64.738 50.943 -0.79 0.066 0.609
56.461 65.735 50.994 -0.557 -0.599 0.575
56.512 65.209 50.705 -0.591 -0.249 0.767
55.83 65.611 49.614 -0.992 -0.012 0.125
55.728 66.168 49.819 -0.924 -0.383 -0.012
55.747 65.505 49.283 -0.937 0.059 0.346
56.194 64.576 49.557 -0.778 -0.621 0.092
56.051 64.638 49.236 -0.683 -0.663 0.306
56.469 64.056 49.708 -0.961 -0.275 -0.008
56.697 63.79 49.046 -0.848 -0.408 -0.339
56.229 64.431 48.721 -0.535 -0.836 -0.122
56.87 63.333 48.909 -0.963 -0.104 -0.248
57.482 63.588 48.071 -0.527 0.078 -0.846
56.791 64.666 47.95 -0.067 -0.64 -0.765
57.42 64.092 48.054 -0.486 -0.257 -0.835
57.867 64.644 47.796 -0.263 0.019 -0.965
57.139 65.096 47.748 0.223 -0.282 -0.933
57.494 65.122 47.779 -0.014 -0.3 -0.954
57.133 66.16 47.831 -0.226 0.31 -0.923
56.837 65.963 47.792 -0.029 0.441 -0.897
57.129 66.758 47.902 -0.223 -0.088 -0.971
58.459 66.029 48.043 0.554 0.233 -0.799
58.555 66.617 48.13 0.49 -0.159 -0.857
58.905 65.619 48.079 0.257 0.507 -0.823
59.488 65.799 48.552 0.548 0.597 -0.586
59.138 66.797 48.603 0.781 -0.068 -0.62
59.975 66.495 49.121 0.223 0.133 -0.966
60.064 67.25 49.418 0.267 0.51 -0.818
59.226 67.552 48.9 0.826 0.309 -0.472
59.746 68.26 49.485 0.479 -0.163 -0.862
58.875 69.075 49.272 0.043 0.244 -0.969
58.355 68.367 48.687 0.39 0.717 -0.578
58.731 69.3 49.298 0.139 0.095 -0.986
58.933 70.372 50.32 0.072 0.893 -0.445
58.777 70.308 50.113 0.176 0.935 -0.307
58.573 71.162 50.968 0.312 0.366 -0.877
57.703 70.968 50.955 -0.413 0.204 -0.888
57.907 70.114 50.1 -0.549 0.773 -0.318
57.319 70.767 51.015 -0.157 0.338 -0.928
57.055 70.515 51.019 -0.346 0.159 -0.925
57.664 69.882 50.104 -0.751 0.58 -0.315
57.502 69.825 50.308 -0.643 0.619 -0.451
58.162 71.572 52.867 -0.03 0.707 0.706
57.818 71.423 53.093 0.199 0.807 0.556
58.022 71.177 54.274 0.063 0.971 -0.232
56.78 70.24 54.382 -0.972 0.19 -0.141
56.469 70.405 53.21 -0.764 0.08 0.64
56.414 69.835 53.406 -0.727 0.46 0.509
56.888 69.486 54.76 -0.882 -0.438 0.174
56.552 68.866 53.892 -0.658 -0.025 0.753
57.035 69.093 54.884 -0.98 -0.176 0.091
57.054 69.009 54.895 -0.967 -0.237 0.099
56.574 68.766 53.905 -0.647 -0.075 0.759
56.966 68.65 54.415 -0.908 0.003 0.419
57.729 66.949 53.442 -0.527 -0.847 -0.068
57.337 67.065 52.932 -0.265 -0.925 0.272
58.049 65.915 52.36 -0.74 -0.158 0.654
57.889 66.854 53.58 -0.446 -0.895 0.002
58.21 65.82 52.498 -0.66 -0.205 0.723
58.072 66.737 53.737 -0.568 -0.817 -0.103
58.942 66.552 54.076 0.157 -0.971 0.18
59.329 65.582 52.934 -0.101 -0.324 0.941
60.669 65.07 54.51 -0.994 0.017 -0.11
60.717 64.774 54.379 -0.96 -0.195 -0.203
59.386 65.231 52.779 -0.072 -0.5 0.863
59.351 64.691 52.591 -0.049 -0.14 0.989
57.857 65.056 51.819 -0.797 0.042 0.603
57.891 65.595 52.008 -0.819 -0.317 0.477
57.404 64.899 51.439 -0.494 0.147 0.857
59.338 62.996 50.903 -0.056 -0.988 0.145
58.885 62.839 50.523 0.246 -0.883 0.399
58.719 62.531 50.156 0.357 -0.677 0.643
60.213 63.358 49.712 0.382 -0.807 -0.451
59.458 62.836 49.15 0.885 -0.459 -0.076
59.76 63.201 49.331 0.684 -0.703 -0.197
59.974 65.93 48.937 0.262 0.479 -0.838
59.52 65.773 48.557 0.564 0.583 -0.584
60.008 66.469 49.126 0.239 0.119 -0.964
61.367 65.39 50.227 0.959 0.209 -0.193
61.402 65.929 50.415 0.936 -0.15 -0.319
63.111 65.675 51.406 -0.204 0.019 -0.979
63.088 66.554 51.753 -0.22 0.647 -0.73
61.374 66.97 50.827 0.922 0.37 -0.113
62.149 67.923 51.969 0.406 -0.266 -0.874
62.07 68.075 51.896 0.366 -0.19 -0.911
61.295 67.121 50.754 0.883 0.446 -0.149
61.326 68.282 51.108 0.863 -0.328 -0.385
60.862 68.539 50.479 0.532 -0.144 -0.835
60.747 67.426 50.009 0.608 0.598 -0.522
60.429 68.436 50.077 0.82 -0.076 -0.567
60.512 69.944 51.049 0.281 0.859 -0.427
60.014 70.099 50.752 0.613 0.756 -0.229
60.594 70.313 51.544 0.227 0.614 -0.756
60.266 70.565 51.716 0.062 0.74 -0.67
59.686 70.351 50.925 0.449 0.882 -0.142
59.159 71.146 51.438 0.801 0.352 -0.485
60.237 70.983 52.432 0.048 0.949 -0.312
59.136 71.471 51.995 0.782 0.623 -0.021
60.279 71.086 52.675 0.019 0.88 -0.475
59.748 71.071 53.559 -0.423 0.867 0.262
58.605 71.456 52.879 0.339 0.611 0.716
58.465 71.061 54.286 0.432 0.874 -0.222
60.069 70.826 54.124 -0.156 0.663 0.732
58.786 70.816 54.85 0.7 0.67 0.248
59.097 70.537 54.981 0.493 0.855 0.16
60.078 70.819 54.131 -0.149 0.658 0.738
59.106 70.53 54.99 0.499 0.85 0.166
59.978 70.64 54.303 -0.082 0.777 0.624
60.325 70.165 54.729 0.092 0.54 0.836
59.4 70.13 55.349 0.709 0.564 0.423
60.838 69.895 55.013 -0.25 0.72 0.647
60.845 69.606 55.278 -0.246 0.576 0.78
59.405 69.885 55.573 0.713 0.389 0.583
60.93 69.432 55.463 -0.303 0.691 0.656
60.642 68.289 55.634 -0.542 -0.261 0.799
59.094 68.644 55.759 0.49 -0.497 0.716
59.38 68.217 55.437 0.299 -0.213 0.93
60.644 68.272 55.63 -0.541 -0.276 0.795
59.383 68.194 55.431 0.3 -0.225 0.927
60.478 68.113 55.491 -0.43 -0.171 0.887
60.438 67.203 54.993 -0.45 -0.626 0.637
59.343 67.284 54.932 0.28 -0.68 0.678
60.951 65.635 55.284 -0.792 0.42 0.443
60.895 65.569 55.237 -0.832 0.373 0.41
59.276 67.207 54.877 0.247 -0.719 0.65
59.15 67.011 54.746 0.331 -0.588 0.738
61.143 67.481 55.454 -0.097 -0.487 0.868
61.547 65.869 55.673 -0.366 0.587 0.722
61.749 66.506 55.481 -0.501 0.163 0.85
61.866 66.487 55.547 -0.436 0.153 0.887
61.65 65.853 55.732 -0.293 0.576 0.764
62.343 66.849 55.902 -0.755 -0.088 0.65
63.951 65.797 55.515 0.394 -0.84 0.373
63.258 64.801 55.345 0.856 -0.176 0.487
63.682 65.298 55.109 0.573 -0.508 0.644
63.669 64.749 54.199 0.566 -0.813 0.138
63.246 64.314 54.539 0.847 -0.523 -0.089
63.937 64.626 53.563 0.387 -0.731 0.562
62.688 64.451 52.623 -0.506 -0.856 -0.11
61.997 64.14 53.599 -0.045 -0.648 -0.76
60.9 63.819 51.583 0.686 -0.434 0.584
60.495 63.712 51.815 0.348 -0.523 0.778
61.557 64.023 53.851 -0.36 -0.731 -0.58
60.346 63.803 51.967 0.448 -0.584 0.677
61.237 64.034 50.844 0.967 -0.255 -0.032
61.299 64.218 50.718 0.925 -0.377 0.052
63.054 64.685 51.82 -0.245 -0.688 -0.683
64.424 65.94 54.107 0.985 -0.151 0.086
64.605 65.68 53.481 0.864 0.022 0.504
64.607 66.365 54.627 0.862 -0.434 -0.261
64.443 67.249 54.1 0.745 0.197 -0.637
64.441 66.564 52.953 0.746 0.654 0.127
64.238 66.939 53.51 0.882 0.404 -0.245
63.617 67.334 52.927 0.536 0.623 -0.569
63.891 66.914 52.437 0.353 0.904 -0.242
63.099 68.349 52.778 0.881 -0.053 -0.47
63.629 67.344 52.949 0.543 0.629 -0.557
63.112 68.359 52.801 0.887 -0.048 -0.458
63.168 68.619 52.83 0.85 -0.222 -0.477
63.254 69.153 53.779 0.923 0.223 0.314
63.224 69.045 54.022 0.943 0.295 0.152
63.998 68.187 54.634 0.427 0.867 -0.256
63.161 68.06 55.841 -0.171 0.776 0.607
62.233 68.895 55.451 0.448 0.22 0.867
62.009 68.879 55.598 0.597 0.23 0.769
62.391 67.088 55.956 -0.72 0.082 0.689
61.301 67.984 55.704 0.007 -0.516 0.857
61.322 67.744 55.587 -0.007 -0.356 0.935
62.316 66.913 55.876 -0.775 -0.043 0.631
61.232 67.537 55.492 -0.052 -0.459 0.887
61.834 66.559 55.517 -0.454 0.193 0.87
63.321 68.727 53.213 0.979 -0.132 -0.157
64.071 67.724 54.02 0.479 0.537 -0.695
63.818 67.476 53.42 0.648 0.702 -0.295
60.794 70.551 54.249 0.327 0.733 0.596
61.307 70.281 54.533 -0.015 0.913 0.407
60.713 70.75 54.089 0.381 0.6 0.703
61.13 70.834 53.415 0.728 0.67 0.142
61.843 70.389 53.667 0.253 0.967 -0.026
61.33 70.659 53.383 0.595 0.787 0.164
61.602 69.446 51.739 0.73 0.181 -0.659
62.114 69.176 52.022 0.389 0.361 -0.848
61.363 69.212 51.214 0.889 0.337 -0.309
55.845 66.524 48.865 -0.952 -0.04 -0.305
56.214 66.679 48.361 -0.59 0.112 -0.799
56.611 67.751 48.115 -0.105 -0.019 -0.994
56.934 67.384 48.004 -0.32 0.225 -0.92
57.104 68.281 48.247 0.247 0.359 -0.9
57.518 68.012 48.16 -0.029 0.539 -0.842
57.847 69.026 49.163 0.152 0.516 -0.843
56.974 69.079 49.038 0.155 0.929 -0.335
57.498 69.297 49.419 -0.195 0.784 -0.589
57.961 69.758 49.616 -0.503 0.477 -0.721
57.213 69.374 49.835 -0.477 0.861 -0.175
57.114 69.349 49.941 -0.411 0.878 -0.246
57.081 69.344 49.983 -0.435 0.874 -0.215
56.839 69.333 50.237 -0.274 0.881 -0.385
56.985 69.803 50.761 -0.371 0.568 -0.734
56.584 69.246 50.387 -0.621 0.762 -0.182
56.729 69.715 50.911 -0.718 0.449 -0.531
56.535 69.239 50.497 -0.589 0.767 -0.255
55.835 68.643 50.106 -0.66 0.618 0.428
56.171 68.869 50.783 -0.884 0.467 -0.023
56.141 69.289 51.451 -0.864 0.187 -0.468
56.05 68.347 51.036 -0.982 0.044 0.182
56.052 68.221 51.123 -0.984 0.129 0.124
56.058 68.011 51.169 -0.978 -0.114 0.176
55.506 67.451 50.041 -0.894 -0.234 0.382
55.626 67.029 50.284 -0.974 0.047 0.22
55.476 67.215 49.522 -0.915 -0.402 0.011
55.591 66.749 49.67 -0.992 -0.092 -0.087
56.089 67.802 51.358 -0.998 0.025 0.05
56.112 66.767 51.197 -0.732 -0.084 0.676
56.275 67.273 51.702 -0.841 -0.421 0.34
56.137 67.628 52.328 -0.749 -0.658 -0.078
56.77 66.951 51.991 -0.423 -0.693 0.584
56.903 66.884 52.02 -0.511 -0.649 0.564
57.174 66.767 52.08 -0.341 -0.722 0.602
55.965 65.932 50.48 -0.805 -0.501 0.318
56.051 65.392 50.228 -0.862 -0.141 0.486
56.67 63.958 48.845 -0.829 -0.52 -0.205
57.184 64.172 48.139 -0.328 -0.311 -0.892
57.869 66.734 47.876 0.147 -0.1 -0.984
57.821 66.137 47.807 0.179 0.297 -0.938
58.84 67.991 48.711 0.632 0.528 -0.566
59.36 68.699 49.297 0.286 0.056 -0.957
58.509 68.78 49.095 0.287 0.441 -0.85
58.106 68.947 49.131 -0.021 0.569 -0.822
59.101 69.846 49.634 0.446 0.55 -0.706
59.349 69.778 49.705 0.281 0.596 -0.753
58.64 70.642 50.625 0.268 0.713 -0.648
57.874 70.471 50.614 -0.527 0.535 -0.66
57.668 70.354 50.654 -0.389 0.613 -0.687
57.445 70.141 50.658 -0.605 0.408 -0.684
57.155 71.283 51.402 -0.274 0.707 -0.652
57.551 71.443 51.311 -0.539 0.6 -0.591
57.2 71.609 51.98 -0.242 0.94 -0.239
57.593 71.744 51.843 -0.504 0.851 -0.148
57.442 71.661 52.598 -0.069 0.977 0.203
57.816 71.791 52.412 -0.319 0.89 0.326
57.901 71.173 53.66 0.144 0.974 0.178
57.216 71.335 53.191 -0.231 0.745 0.626
57.387 71.098 53.744 -0.345 0.903 0.258
57.468 71.096 54.365 -0.399 0.904 -0.156
56.725 70.965 53.234 -0.581 0.48 0.657
56.968 70.782 53.781 -0.743 0.602 0.292
57.016 70.756 54.404 -0.775 0.62 -0.123
56.749 70.303 53.761 -0.951 0.148 0.273
56.162 70.298 52.565 -0.984 0.003 0.179
56.05 69.708 52.642 -0.909 0.396 0.128
56.22 70.273 51.845 -0.942 -0.014 -0.335
56.119 69.679 51.79 -0.875 0.382 -0.298
56.696 70 53.873 -0.915 0.35 0.198
56.809 69.203 54.272 -0.83 -0.249 0.499
56.89 68.992 54.338 -0.884 -0.108 0.455
56.91 68.906 54.349 -0.87 -0.168 0.463
56.628 68.06 53.703 -0.62 -0.427 0.658
57.02 67.944 54.213 -0.881 -0.35 0.318
56.895 67.465 53.362 -0.487 -0.725 0.488
57.287 67.349 53.872 -0.748 -0.647 0.148
57.804 66.609 52.544 -0.577 -0.621 0.531
57.663 66.612 52.362 -0.668 -0.619 0.414
58.044 66.555 52.829 -0.737 -0.584 0.341
58.185 66.471 52.951 -0.643 -0.64 0.421
58.295 66.407 53.04 -0.717 -0.596 0.362
59.128 66.229 53.364 0.033 -0.756 0.654
60.058 65.505 53.202 -0.587 -0.273 0.762
60.549 65.318 53.779 -0.914 -0.148 0.377
60.095 65.279 53.102 -0.545 -0.532 0.648
60.582 65.112 53.688 -0.87 -0.421 0.257
58.809 65.305 52.673 -0.361 -0.463 0.81
58.774 64.765 52.484 -0.338 -0.103 0.936
58.295 65.43 52.407 -0.618 -0.4 0.677
58.261 64.891 52.219 -0.595 -0.041 0.803
57.54 64.327 51.513 -0.426 -0.139 0.894
57.993 64.484 51.893 -0.729 -0.244 0.64
57.781 63.79 51.446 -0.305 -0.408 0.86
58.235 63.947 51.826 -0.608 -0.513 0.607
58.107 63.337 51.245 -0.143 -0.634 0.76
58.56 63.494 51.625 -0.445 -0.739 0.506
58.486 63.01 50.927 0.047 -0.798 0.601
58.94 63.167 51.308 -0.255 -0.902 0.347
58.219 62.868 50.7 -0.086 -0.869 0.487
58.157 62.555 50.306 -0.044 -0.66 0.75
57.554 63.013 50.597 -0.419 -0.796 0.436
57.594 62.677 50.219 -0.446 -0.573 0.688
57.016 63.246 50.234 -0.688 -0.68 0.255
57.14 62.875 49.912 -0.771 -0.432 0.469
56.711 63.523 49.682 -0.84 -0.541 -0.022
56.882 63.108 49.446 -0.955 -0.265 0.136
59.188 62.567 49.691 0.692 -0.651 0.311
59.894 63.039 50.352 0.222 -0.966 -0.13
59.395 63.067 48.617 0.84 -0.294 -0.456
59.685 63.475 48.701 0.647 -0.566 -0.512
59.091 63.298 48.175 0.623 -0.129 -0.772
59.325 63.748 48.178 0.466 -0.429 -0.774
58.604 63.483 47.91 0.275 0.003 -0.961
58.749 63.967 47.864 0.179 -0.32 -0.931
58.031 63.587 47.873 -0.134 0.077 -0.988
58.07 64.089 47.82 -0.161 -0.258 -0.953
59.942 63.612 48.945 0.775 -0.497 -0.39
60.396 63.769 49.325 0.473 -0.602 -0.644
60.01 64.123 48.653 0.809 -0.241 -0.536
60.463 64.28 49.034 0.507 -0.346 -0.79
59.957 64.688 48.483 0.783 0.041 -0.621
60.411 64.845 48.864 0.48 -0.063 -0.875
59.789 65.256 48.45 0.699 0.325 -0.638
60.243 65.412 48.83 0.396 0.22 -0.891
60.629 66.338 49.386 0.55 0.054 -0.834
60.595 65.799 49.197 0.573 0.414 -0.708
61.113 66.151 49.834 0.792 -0.04 -0.61
61.079 65.612 49.645 0.815 0.32 -0.484
61.784 65.877 51.022 0.681 -0.116 -0.723
62.401 65.786 51.379 0.27 -0.055 -0.961
61.765 66.61 51.312 0.662 0.61 -0.436
62.383 66.46 51.646 0.25 0.71 -0.659
61.444 67.265 51.333 0.876 0.173 -0.45
61.716 67.6 51.734 0.695 -0.05 -0.718
61.375 67.395 51.27 0.829 0.263 -0.493
61.648 67.73 51.671 0.648 0.039 -0.761
61.188 67.693 50.968 0.954 0.064 -0.292
60.725 67.951 50.339 0.623 0.248 -0.742
60.291 69.388 50.161 0.751 0.4 -0.524
60.746 69.343 50.55 0.448 0.43 -0.784
59.644 70.768 51.669 0.477 0.604 -0.638
59.621 71.102 52.24 0.459 0.869 -0.184
59.631 71.135 52.382 0.452 0.847 -0.279
59.184 71.122 53.126 -0.048 0.833 0.551
58.45 71.095 53.528 0.442 0.851 0.283
58.088 71.19 53.519 0.019 0.962 0.272
59.105 70.872 53.918 0.005 1 0.023
59.367 70.673 54.378 0.312 0.765 0.563
58.442 70.738 55.368 0.414 0.605 0.68
58.724 70.453 55.545 0.226 0.795 0.563
57.946 70.485 55.655 -0 0.394 0.919
58.184 70.178 55.856 -0.159 0.599 0.785
57.433 70.126 55.631 -0.428 0.095 0.899
57.627 69.788 55.83 -0.557 0.32 0.766
57.044 69.759 55.302 -0.751 -0.211 0.625
57.205 69.39 55.473 -0.859 0.036 0.512
59.554 70.55 54.475 0.188 0.847 0.498
59.562 70.544 54.482 0.196 0.841 0.504
59.518 70.491 54.601 0.225 0.877 0.425
59.816 70.084 54.966 0.432 0.595 0.678
60.066 69.865 55.058 0.265 0.741 0.617
60.071 69.635 55.268 0.269 0.557 0.786
60.112 69.513 55.351 0.242 0.638 0.731
59.262 69.291 55.865 0.611 -0.035 0.791
60.003 69.061 55.572 0.117 0.118 0.986
60.797 68.885 55.732 -0.413 0.235 0.88
59.875 68.569 55.492 -0.031 -0.448 0.894
58.509 68.353 55.745 0.073 -0.705 0.705
58.689 67.873 55.42 -0.046 -0.385 0.922
57.883 68.323 55.564 -0.374 -0.727 0.576
57.948 67.837 55.206 -0.417 -0.403 0.814
57.358 68.559 55.257 -0.749 -0.558 0.357
57.326 68.117 54.843 -0.728 -0.263 0.633
60.031 68.291 55.399 -0.134 -0.262 0.956
60.032 68.273 55.394 -0.133 -0.277 0.952
59.868 67.001 54.646 -0.07 -0.491 0.868
60.373 66.574 54.614 -0.406 -0.206 0.89
60.759 66.087 54.841 -0.664 0.118 0.739
59.827 66.954 54.613 -0.121 -0.55 0.826
60.344 66.541 54.59 -0.465 -0.274 0.842
60.724 66.047 54.812 -0.718 0.055 0.694
58.042 67.209 54.758 -0.37 -0.717 0.59
58.191 67.013 54.653 -0.469 -0.587 0.66
59.699 66.757 54.491 -0.035 -0.419 0.907
60.238 66.383 54.498 -0.394 -0.169 0.903
60.664 65.96 54.763 -0.678 0.113 0.726
59.593 66.523 54.15 -0.277 -0.952 0.13
60.165 66.222 54.262 -0.658 -0.751 0.055
60.548 65.704 54.39 -0.913 -0.406 -0.03
60.954 66.172 55.042 -0.794 0.062 0.605
60.774 66.723 54.939 -0.674 -0.305 0.673
61.48 66.378 55.385 -0.321 0.248 0.914
61.338 66.945 55.308 -0.226 -0.129 0.965
62.072 66.316 55.716 -0.574 0.267 0.774
62.188 65.433 56.003 0.091 0.275 0.957
62.554 65.939 55.959 -0.153 -0.062 0.986
62.881 66.429 56.173 -0.371 -0.389 0.844
62.79 65.039 55.858 0.521 -0.006 0.853
63.095 65.585 55.829 0.318 -0.37 0.873
63.483 66.035 56.028 0.059 -0.67 0.74
63.515 65.372 55.368 0.684 -0.557 0.471
63.502 64.562 54.016 0.677 -0.688 0.26
62.686 63.966 54.031 0.447 -0.772 -0.451
63 64.25 53.562 0.238 -0.961 -0.138
63.377 64.277 53.055 -0.013 -0.98 0.2
62.383 64.405 53.174 -0.302 -0.825 -0.477
61.548 64.412 53.204 0.254 -0.83 -0.497
61.172 64.446 52.667 0.505 -0.852 -0.139
60.942 64.235 52.089 0.658 -0.711 0.246
61.323 64.352 53.333 -0.204 -0.951 -0.234
61.031 64.408 52.748 -0.009 -0.988 0.156
60.736 64.18 52.207 0.188 -0.836 0.516
61.258 64.347 53.398 -0.161 -0.947 -0.278
60.917 64.419 52.872 0.067 -0.995 0.073
60.594 64.227 52.364 0.282 -0.867 0.412
61.029 64.228 54.187 -0.736 -0.585 -0.34
60.905 64.484 53.624 -0.653 -0.756 0.036
60.606 64.54 53.07 -0.454 -0.793 0.405
60.187 64.384 52.623 -0.175 -0.69 0.703
59.721 64.045 52.364 0.136 -0.464 0.876
60.695 64.85 53.752 -0.945 -0.246 0.215
60.422 64.862 53.182 -0.763 -0.254 0.594
59.946 64.805 52.771 -0.446 -0.216 0.869
60.256 63.142 50.621 0.403 -0.915 0.004
60.425 63.197 50.768 0.29 -0.952 -0.095
61.668 64.66 51.241 0.679 -0.671 -0.297
62.31 64.831 51.644 0.251 -0.786 -0.566
61.712 65.418 50.923 0.729 0.191 -0.657
62.35 65.522 51.355 0.303 0.121 -0.945
62.461 64.768 51.773 0.15 -0.744 -0.651
61.905 64.673 51.569 0.521 -0.68 -0.516
61.474 64.415 51.242 0.808 -0.508 -0.298
62.236 64.624 52.269 -0.204 -0.971 0.126
61.734 64.563 51.945 0.13 -0.931 0.342
61.264 64.28 51.703 0.443 -0.742 0.503
64.372 65.096 53.613 0.697 -0.395 0.598
64.161 65.28 54.256 0.839 -0.518 0.169
64.455 66.059 54.033 0.964 -0.23 0.136
64.311 66.832 53.571 0.833 0.475 -0.285
63.466 67.263 52.645 0.637 0.671 -0.381
63.188 67.768 52.765 0.822 0.334 -0.461
62.758 66.946 52.042 -0 0.385 -0.923
62.428 67.427 52.118 0.22 0.065 -0.973
63.27 67.806 52.917 0.767 0.309 -0.562
63.282 67.815 52.938 0.774 0.314 -0.549
62.509 69.065 52.216 0.586 0.305 -0.751
62.698 69.168 52.375 0.46 0.236 -0.856
62.25 69.969 52.783 0.456 0.757 -0.468
62.497 69.871 52.815 0.292 0.822 -0.489
62.654 69.958 53.803 0.658 0.751 0.043
62.811 69.863 53.609 0.554 0.815 0.172
63.497 68.519 54.336 0.761 0.646 -0.058
62.829 69.19 54.829 0.746 0.367 0.556
63.169 68.639 55.007 0.519 0.734 0.437
63.664 68.309 55.316 0.189 0.954 0.231
62.674 68.394 55.524 0.154 0.553 0.819
62.541 68.365 55.577 0.242 0.573 0.783
61.92 67.581 55.67 -0.406 -0.247 0.88
61.917 67.439 55.636 -0.404 -0.152 0.902
61.843 67.267 55.557 -0.459 -0.279 0.843
61.565 67.065 55.396 -0.274 -0.144 0.951
61.483 67.013 55.361 -0.323 -0.175 0.93
63.472 68.546 54.2 0.777 0.628 0.033
63.53 68.179 53.713 0.84 0.233 -0.491
63.42 68.049 53.358 0.913 0.32 -0.254
63.27 67.944 52.984 0.782 0.228 -0.58
64.378 65.975 55.077 0.699 -0.713 0.061
64.165 65.5 54.615 0.841 -0.396 0.369
62.086 70.175 53.024 0.374 0.86 -0.347
61.573 70.445 52.74 0.716 0.68 -0.158
62.181 69.751 52.45 0.422 0.648 -0.634
61.668 70.021 52.166 0.763 0.468 -0.445
61.019 69.668 51.109 0.643 0.662 -0.385
61.194 69.985 51.614 0.527 0.45 -0.721
58.431 65.125 47.794 0.02 0.26 -0.966
58.018 65.569 47.778 0.295 -0.037 -0.955
56.529 64.325 50.396 -0.931 -0.141 0.336
56.25 64.825 50.197 -0.745 -0.475 0.468
56.471 67.934 53.43 -0.698 -0.49 0.521
56.32 67.876 53.218 -0.597 -0.452 0.663
55.938 68.789 52.898 -0.965 -0.063 0.255
55.905 68.541 52.804 -0.942 0.102 0.318
60.239 65.987 53.772 -0.707 -0.595 0.382
59.752 65.959 53.262 -0.383 -0.576 0.722
59.752 66.344 53.744 -0.383 -0.832 0.401
62.184 67.216 52.009 0.383 0.206 -0.901
61.929 64.668 52.458 0 -1 0
61.929 64.553 53.032 0 -0.924 -0.383
56.446 68.082 48.176 -0.223 0.217 -0.95
56.446 68.629 48.44 -0.223 0.608 -0.762
56.446 69.008 48.915 -0.223 0.878 -0.423
55.885 68.873 49.507 -0.623 0.782 0
55.885 68.233 48.511 -0.623 0.325 -0.711
55.885 68.699 48.915 -0.623 0.658 -0.423
55.497 68.385 49.507 -0.901 0.434 0
55.497 68.082 50.033 -0.901 0.217 0.376
55.497 67.474 48.981 -0.901 -0.217 -0.376
55.497 68.082 48.981 -0.901 0.217 -0.376
55.358 67.778 49.507 -1 0 0
56.271 64.753 48.083 -0.5 -0.567 -0.654
56.271 65.286 47.839 -0.5 -0.123 -0.857
55.832 64.834 48.868 -0.866 -0.5 -0
55.832 65.134 48.348 -0.866 -0.25 -0.433
58.751 67.553 48.349 0.588 0.31 -0.747
58.193 67.401 48 0.309 0.233 -0.922
58.193 67.974 48.252 0.309 0.52 -0.796
57.575 67.083 47.85 -0 0.075 -0.997
58.565 69.868 49.493 -0 0.568 -0.823
56.666 71.388 52.314 -0.623 0.782 0
56.666 71.214 52.906 -0.623 0.658 0.423
56.666 70.748 51.318 -0.623 0.325 -0.711
56.666 71.214 51.722 -0.623 0.658 -0.423
56.278 70.9 52.314 -0.901 0.434 0
56.278 70.597 51.788 -0.901 0.217 -0.376
56.25 68.915 53.563 -0.809 -0 0.588
55.966 69.224 52.922 -0.951 0.155 0.268
55.957 66.346 50.862 -0.809 -0.294 0.509
55.673 66.625 50.379 -0.951 -0.155 0.268
57.774 63.318 51.124 -0.309 -0.644 0.7
57.216 63.987 51.22 -0.588 -0.31 0.747
57.216 63.462 50.869 -0.588 -0.572 0.572
56.774 64.018 50.743 -0.809 -0.294 0.509
56.774 63.588 50.313 -0.809 -0.509 0.294
59.092 62.429 48.948 0.623 -0.75 -0.22
59.092 62.762 48.429 0.623 -0.512 -0.591
58.531 62.249 49.848 0.223 -0.878 0.423
58.531 62.114 49.256 0.223 -0.975 0
58.531 62.249 48.664 0.223 -0.878 -0.423
58.531 62.628 48.189 0.223 -0.608 -0.762
58.531 63.175 47.925 0.223 -0.217 -0.95
57.907 62.249 49.848 -0.223 -0.878 0.423
57.907 62.114 49.256 -0.223 -0.975 0
57.907 62.249 48.664 -0.223 -0.878 -0.423
57.907 62.628 48.189 -0.223 -0.608 -0.762
57.907 63.175 47.925 -0.223 -0.217 -0.95
57.346 62.429 49.564 -0.623 -0.75 0.22
57.346 62.429 48.948 -0.623 -0.75 -0.22
57.346 62.762 48.429 -0.623 -0.512 -0.591
56.958 62.872 49.256 -0.901 -0.434 -0
59.568 64.606 48.107 0.588 0 -0.809
59.01 64.449 47.829 0.309 -0.079 -0.948
59.01 65.073 47.881 0.309 0.233 -0.922
57.812 65.786 47.734 0.174 0.091 -0.981
61.148 66.818 50.035 0.809 0.294 -0.509
60.706 66.849 49.558 0.588 0.31 -0.747
59.964 69.206 49.715 0.588 0.31 -0.747
59.964 69.731 50.066 0.588 0.572 -0.572
58.798 71.762 52.02 0.5 0.866 0
58.798 71.597 51.458 0.5 0.729 -0.468
58.198 71.923 52.02 -0 1 0
58.198 71.786 51.462 -0 0.885 -0.465
57.946 71.075 55.11 -0 0.885 0.465
57.346 70.886 55.114 -0.5 0.729 0.468
57.346 70.444 55.497 -0.5 0.36 0.788
56.907 70.312 55.072 -0.866 0.25 0.433
58.719 69.644 56.088 0.223 0.217 0.95
58.719 69.036 56.088 0.223 -0.217 0.95
58.095 69.644 56.088 -0.223 0.217 0.95
58.095 69.036 56.088 -0.223 -0.217 0.95
57.534 69.184 55.84 -0.623 -0.111 0.774
57.606 67.5 54.721 -0.588 -0.572 0.572
62.933 64.33 55.49 0.623 -0.512 0.591
62.933 63.997 54.971 0.623 -0.75 0.22
62.372 64.743 55.994 0.223 -0.217 0.95
62.372 64.196 55.73 0.223 -0.608 0.762
62.372 63.817 55.255 0.223 -0.878 0.423
62.372 63.682 54.663 0.223 -0.975 0
61.748 65.351 55.994 -0.223 0.217 0.95
61.748 64.743 55.994 -0.223 -0.217 0.95
61.748 64.196 55.73 -0.223 -0.608 0.762
61.748 63.817 55.255 -0.223 -0.878 0.423
61.748 63.682 54.663 -0.223 -0.975 0
61.187 64.891 55.746 -0.623 -0.111 0.774
61.187 64.33 55.49 -0.623 -0.512 0.591
61.187 63.997 54.971 -0.623 -0.75 0.22
60.799 64.743 55.189 -0.901 -0.217 0.376
60.799 64.44 54.663 -0.901 -0.434 -0
61.068 64.384 49.595 0.809 -0.294 -0.509
61.068 64.972 49.437 0.809 -0 -0.588
59.45 63.506 51.973 -0 -0.733 0.68
59.45 63.17 51.481 -0 -0.901 0.434
58.832 64.208 52.355 -0.309 -0.382 0.871
58.832 63.684 52.012 -0.309 -0.644 0.7
64.796 65.649 52.776 1 0 0
64.657 65.042 52.776 0.901 -0.434 -0
64.657 65.345 52.25 0.901 -0.217 -0.376
64.657 65.953 52.25 0.901 0.217 -0.376
64.269 64.599 53.084 0.623 -0.75 0.22
64.269 64.599 52.468 0.623 -0.75 -0.22
64.269 64.932 51.949 0.623 -0.512 -0.591
64.269 65.493 51.693 0.623 -0.111 -0.774
64.269 66.104 51.78 0.623 0.325 -0.711
64.269 66.57 52.184 0.623 0.658 -0.423
63.708 64.284 52.776 0.223 -0.975 0
63.708 64.419 52.184 0.223 -0.878 -0.423
63.708 64.798 51.709 0.223 -0.608 -0.762
63.708 65.345 51.445 0.223 -0.217 -0.95
63.708 65.953 51.445 0.223 0.217 -0.95
63.708 66.5 51.709 0.223 0.608 -0.762
62.513 69.95 54.337 0.588 0.747 0.31
62.513 69.599 54.862 0.588 0.572 0.572
61.955 70.254 54.336 0.309 0.9 0.309
61.955 69.956 54.886 0.309 0.751 0.584
61.317 70.229 51.912 0.588 0.572 -0.572
61.317 70.58 52.437 0.588 0.747 -0.31
60.759 70.586 51.888 0.309 0.751 -0.584
60.856 71.069 53.245 0.5 0.866 0
60.256 71.093 53.803 -0 0.885 0.465
61.293 69.285 55.664 -0 0.568 0.823
61.293 68.748 55.867 -0 0.121 0.993
64.8 66.973 54.992 1 0 0
64.661 67.58 54.992 0.901 0.434 0
64.661 67.277 55.518 0.901 0.217 0.376
64.661 66.669 55.518 0.901 -0.217 0.376
64.661 67.277 54.466 0.901 0.217 -0.376
64.273 68.068 54.992 0.623 0.782 0
64.273 67.894 55.584 0.623 0.658 0.423
64.273 67.428 55.988 0.623 0.325 0.711
64.273 66.817 56.075 0.623 -0.111 0.774
64.273 66.256 55.819 0.623 -0.512 0.591
63.712 67.824 56.059 0.223 0.608 0.762
63.712 67.277 56.323 0.223 0.217 0.95
63.712 66.669 56.323 0.223 -0.217 0.95
63.088 67.277 56.323 -0.223 0.217 0.95
63.088 66.669 56.323 -0.223 -0.217 0.95
60.677 63.343 51.175 0.5 -0.831 0.244
63.186 69.485 53.402 0.866 0.5 0
63.186 69.185 52.882 0.866 0.25 -0.433
62.747 69.759 52.84 0.5 0.729 -0.468
3 0 4 216
3 216 4 217
3 216 217 1
3 1 217 3
3 4 218 5
3 5 218 219
3 218 220 219
3 219 220 221
3 220 7 221
3 221 7 6
3 7 223 222
3 222 223 224
3 222 224 8
3 8 224 225
3 223 10 224
3 224 10 226
3 224 226 225
3 225 226 9
3 10 13 227
3 227 13 228
3 227 228 11
3 11 228 12
3 13 16 229
3 229 16 231
3 229 231 230
3 230 231 232
3 230 232 14
3 14 232 15
3 16 234 233
3 233 234 235
3 233 235 17
3 17 235 236
3 234 19 235
3 235 19 237
3 235 237 236
3 236 237 18
3 19 22 238
3 238 22 239
3 238 239 20
3 20 239 21
3 22 240 23
3 23 240 241
3 240 242 241
3 241 242 243
3 242 0 243
3 243 0 2
3 23 245 244
3 244 245 246
3 244 246 21
3 21 246 247
3 245 25 246
3 246 25 248
3 246 248 247
3 247 248 24
3 25 28 249
3 249 28 250
3 249 250 26
3 26 250 27
3 28 31 29
3 29 31 30
3 31 34 32
3 32 34 33
3 34 251 35
3 35 251 252
3 251 37 252
3 252 37 36
3 37 2 38
3 38 2 1
3 38 40 36
3 36 40 39
3 40 43 41
3 41 43 42
3 43 46 253
3 253 46 254
3 253 254 44
3 44 254 45
3 46 49 47
3 47 49 48
3 49 52 50
3 50 52 51
3 52 3 53
3 53 3 5
3 53 255 51
3 51 255 256
3 255 55 256
3 256 55 54
3 55 58 56
3 56 58 57
3 58 61 59
3 59 61 60
3 61 257 62
3 62 257 258
3 257 64 258
3 258 64 63
3 64 6 259
3 259 6 260
3 259 260 65
3 65 260 8
3 65 261 63
3 63 261 262
3 261 67 262
3 262 67 66
3 67 70 263
3 263 70 264
3 263 264 68
3 68 264 69
3 70 73 265
3 265 73 266
3 265 266 71
3 71 266 72
3 73 9 74
3 74 9 11
3 74 12 72
3 72 12 14
3 71 267 69
3 69 267 268
3 267 269 268
3 268 269 270
3 269 271 270
3 270 271 272
3 271 76 272
3 272 76 75
3 76 274 273
3 273 274 275
3 273 275 77
3 77 275 276
3 274 277 275
3 275 277 278
3 275 278 276
3 276 278 279
3 277 79 278
3 278 79 280
3 278 280 279
3 279 280 78
3 79 281 80
3 80 281 282
3 281 283 282
3 282 283 284
3 283 15 284
3 284 15 17
3 80 82 285
3 285 82 286
3 285 286 78
3 78 286 81
3 82 85 287
3 287 85 288
3 287 288 83
3 83 288 84
3 85 289 86
3 86 289 290
3 289 291 290
3 290 291 292
3 291 88 292
3 292 88 87
3 88 27 293
3 293 27 294
3 293 294 89
3 89 294 29
3 89 91 295
3 295 91 296
3 295 296 87
3 87 296 90
3 91 94 297
3 297 94 298
3 297 298 92
3 92 298 93
3 94 97 299
3 299 97 301
3 299 301 300
3 300 301 302
3 300 302 95
3 95 302 96
3 97 303 98
3 98 303 304
3 303 305 304
3 304 305 306
3 305 100 306
3 306 100 99
3 100 30 101
3 101 30 32
3 101 307 99
3 99 307 308
3 307 309 308
3 308 309 310
3 309 311 310
3 310 311 312
3 311 313 312
3 312 313 314
3 313 103 314
3 314 103 102
3 103 315 104
3 104 315 316
3 315 317 316
3 316 317 318
3 317 319 318
3 318 319 320
3 319 321 320
3 320 321 322
3 321 42 322
3 322 42 44
3 104 323 102
3 102 323 324
3 323 106 324
3 324 106 105
3 106 325 107
3 107 325 326
3 325 327 326
3 326 327 328
3 327 329 328
3 328 329 330
3 329 331 330
3 330 331 332
3 331 45 332
3 332 45 47
3 107 333 105
3 105 333 334
3 333 335 334
3 334 335 336
3 335 337 336
3 336 337 338
3 337 339 338
3 338 339 340
3 339 109 340
3 340 109 108
3 109 57 110
3 110 57 59
3 110 341 108
3 108 341 342
3 341 343 342
3 342 343 344
3 343 112 344
3 344 112 111
3 112 115 345
3 345 115 347
3 345 347 346
3 346 347 348
3 346 348 113
3 113 348 114
3 115 118 349
3 349 118 351
3 349 351 350
3 350 351 352
3 350 352 116
3 116 352 117
3 118 121 353
3 353 121 354
3 353 354 119
3 119 354 120
3 121 60 122
3 122 60 62
3 122 355 120
3 120 355 356
3 355 124 356
3 356 124 123
3 124 127 125
3 125 127 126
3 127 66 128
3 128 66 68
3 128 130 357
3 357 130 358
3 357 358 126
3 126 358 129
3 130 133 359
3 359 133 360
3 359 360 131
3 131 360 132
3 133 75 361
3 361 75 362
3 361 362 134
3 134 362 77
3 134 136 363
3 363 136 364
3 363 364 132
3 132 364 135
3 136 365 137
3 137 365 366
3 365 367 366
3 366 367 368
3 367 369 368
3 368 369 370
3 369 371 370
3 370 371 372
3 371 81 372
3 372 81 83
3 137 139 373
3 373 139 374
3 373 374 135
3 135 374 138
3 139 142 375
3 375 142 376
3 375 376 140
3 140 376 141
3 142 145 377
3 377 145 378
3 377 378 143
3 143 378 144
3 145 380 379
3 379 380 381
3 379 381 146
3 146 381 382
3 380 148 381
3 381 148 383
3 381 383 382
3 382 383 147
3 148 384 149
3 149 384 385
3 384 386 385
3 385 386 387
3 386 388 387
3 387 388 389
3 388 84 389
3 389 84 86
3 149 151 390
3 390 151 391
3 390 391 147
3 147 391 150
3 151 154 152
3 152 154 153
3 154 157 392
3 392 157 395
3 392 395 393
3 393 395 396
3 393 396 394
3 394 396 397
3 394 397 155
3 155 397 156
3 157 398 158
3 158 398 399
3 398 90 399
3 399 90 92
3 158 93 400
3 400 93 403
3 400 403 401
3 401 403 404
3 401 404 402
3 402 404 405
3 402 405 156
3 156 405 95
3 155 160 406
3 406 160 408
3 406 408 407
3 407 408 409
3 407 409 153
3 153 409 159
3 160 163 161
3 161 163 162
3 163 411 410
3 410 411 412
3 410 412 164
3 164 412 413
3 411 414 412
3 412 414 415
3 412 415 413
3 413 415 416
3 414 166 415
3 415 166 417
3 415 417 416
3 416 417 165
3 166 169 167
3 167 169 168
3 169 419 418
3 418 419 420
3 418 420 170
3 170 420 421
3 419 172 420
3 420 172 422
3 420 422 421
3 421 422 171
3 172 175 423
3 423 175 426
3 423 426 424
3 424 426 427
3 424 427 425
3 425 427 428
3 425 428 173
3 173 428 174
3 175 432 429
3 429 432 433
3 429 433 430
3 430 433 434
3 430 434 431
3 431 434 435
3 431 435 176
3 176 435 436
3 432 96 433
3 433 96 437
3 433 437 434
3 434 437 438
3 434 438 435
3 435 438 439
3 435 439 436
3 436 439 98
3 176 440 174
3 174 440 441
3 440 178 441
3 441 178 177
3 178 111 442
3 442 111 444
3 442 444 443
3 443 444 445
3 443 445 179
3 179 445 113
3 179 171 446
3 446 171 449
3 446 449 447
3 447 449 450
3 447 450 448
3 448 450 451
3 448 451 177
3 177 451 173
3 170 452 168
3 168 452 453
3 452 181 453
3 453 181 180
3 181 184 454
3 454 184 455
3 454 455 182
3 182 455 183
3 184 187 185
3 185 187 186
3 187 114 456
3 456 114 458
3 456 458 457
3 457 458 459
3 457 459 188
3 188 459 116
3 188 190 460
3 460 190 461
3 460 461 186
3 186 461 189
3 190 462 191
3 191 462 463
3 462 464 463
3 463 464 465
3 464 466 465
3 465 466 467
3 466 193 467
3 467 193 192
3 193 469 468
3 468 469 470
3 468 470 194
3 194 470 471
3 469 196 470
3 470 196 472
3 470 472 471
3 471 472 195
3 196 144 197
3 197 144 146
3 197 199 473
3 473 199 474
3 473 474 195
3 195 474 198
3 199 150 200
3 200 150 152
3 200 202 475
3 475 202 476
3 475 476 198
3 198 476 201
3 202 159 477
3 477 159 478
3 477 478 203
3 203 478 161
3 203 162 201
3 201 162 164
3 194 205 479
3 479 205 480
3 479 480 192
3 192 480 204
3 205 183 206
3 206 183 185
3 206 189 481
3 481 189 482
3 481 482 204
3 204 482 191
3 182 483 180
3 180 483 484
3 483 165 484
3 484 165 167
3 143 208 141
3 141 208 207
3 208 211 209
3 209 211 210
3 211 485 212
3 212 485 486
3 485 487 486
3 486 487 488
3 487 214 488
3 488 214 213
3 214 117 215
3 215 117 119
3 215 489 213
3 213 489 490
3 489 123 490
3 490 123 125
3 212 129 210
3 210 129 131
3 209 138 207
3 207 138 140
3 56 491 54
3 54 491 492
3 491 48 492
3 492 48 50
3 41 493 39
3 39 493 494
3 493 33 494
3 494 33 35
3 26 495 24
3 24 495 496
3 495 497 496
3 496 497 498
3 497 18 498
3 498 18 20
3 2 0 216
3 2 216 1
3 5 3 217
3 5 217 4
3 260 6 222
3 260 222 8
3 222 6 7
3 11 9 226
3 11 226 227
3 227 226 10
3 14 12 230
3 230 12 229
3 229 12 228
3 229 228 13
3 17 15 232
3 17 232 233
3 233 232 231
3 233 231 16
3 20 18 238
3 238 18 237
3 238 237 19
3 244 21 239
3 244 239 23
3 23 239 22
3 26 24 248
3 26 248 249
3 249 248 25
3 294 27 250
3 294 250 28
3 294 28 29
3 32 30 31
3 35 33 34
3 38 36 37
3 41 39 40
3 44 42 253
3 253 42 43
3 47 45 254
3 47 254 46
3 50 48 49
3 53 51 52
3 56 54 55
3 59 57 58
3 62 60 61
3 65 63 259
3 259 63 64
3 68 66 263
3 263 66 67
3 71 69 265
3 265 69 264
3 265 264 70
3 74 72 266
3 74 266 73
3 362 75 76
3 362 76 273
3 362 273 77
3 285 78 280
3 285 280 80
3 80 280 79
3 83 81 287
3 287 81 286
3 287 286 82
3 86 84 288
3 86 288 85
3 295 87 88
3 295 88 293
3 295 293 89
3 92 90 297
3 297 90 296
3 297 296 91
3 500 499 501
3 403 93 501
3 403 501 404
3 404 501 499
3 404 499 405
3 405 499 300
3 405 300 95
3 300 499 299
3 299 499 500
3 299 500 94
3 94 500 298
3 298 500 501
3 298 501 93
3 437 96 302
3 437 302 438
3 438 302 301
3 438 301 439
3 439 301 97
3 439 97 98
3 101 99 100
3 104 102 103
3 107 105 106
3 110 108 109
3 444 111 112
3 444 112 345
3 444 345 445
3 445 345 346
3 445 346 113
3 458 114 348
3 458 348 502
3 458 502 459
3 459 502 116
3 116 502 350
3 350 502 349
3 349 502 347
3 349 347 115
3 347 502 348
3 119 117 352
3 119 352 353
3 353 352 351
3 353 351 118
3 122 120 354
3 122 354 121
3 125 123 124
3 357 126 127
3 357 127 128
3 131 129 359
3 359 129 358
3 359 358 130
3 363 132 360
3 363 360 361
3 363 361 134
3 361 360 133
3 373 135 364
3 373 364 137
3 137 364 136
3 140 138 374
3 140 374 375
3 375 374 139
3 143 141 377
3 377 141 376
3 377 376 142
3 146 144 379
3 379 144 378
3 379 378 145
3 390 147 383
3 390 383 149
3 149 383 148
3 152 150 391
3 152 391 151
3 407 153 393
3 407 393 394
3 407 394 406
3 406 394 155
3 393 153 392
3 392 153 154
3 402 156 397
3 402 397 401
3 401 397 396
3 401 396 400
3 400 396 395
3 400 395 158
3 158 395 157
3 478 159 409
3 478 409 161
3 161 409 408
3 161 408 160
3 164 162 410
3 410 162 163
3 167 165 417
3 167 417 166
3 170 168 418
3 418 168 169
3 449 171 503
3 449 503 450
3 450 503 424
3 450 424 425
3 450 425 451
3 451 425 173
3 424 503 504
3 424 504 423
3 423 504 172
3 172 504 422
3 422 504 171
3 171 504 503
3 176 174 428
3 176 428 431
3 431 428 427
3 431 427 430
3 430 427 426
3 430 426 429
3 429 426 175
3 448 177 178
3 448 178 442
3 448 442 447
3 447 442 443
3 447 443 446
3 446 443 179
3 182 180 454
3 454 180 181
3 185 183 455
3 185 455 184
3 460 186 457
3 460 457 188
3 457 186 456
3 456 186 187
3 482 189 461
3 482 461 190
3 482 190 191
3 479 192 193
3 479 193 468
3 479 468 194
3 473 195 472
3 473 472 196
3 473 196 197
3 475 198 474
3 475 474 200
3 200 474 199
3 203 201 476
3 203 476 477
3 477 476 202
3 481 204 480
3 481 480 206
3 206 480 205
3 209 207 208
3 212 210 211
3 215 213 214
3 506 505 509
3 506 509 510
3 507 506 510
3 508 507 510
3 510 509 514
3 511 510 514
3 508 510 511
3 512 511 515
3 514 513 515
3 511 514 515
3 515 513 242
3 515 242 240
3 515 240 512
3 512 240 22
3 512 22 19
3 512 19 234
3 512 234 511
3 511 234 508
3 508 234 16
3 508 16 13
3 508 13 507
3 507 13 10
3 507 10 223
3 507 223 506
3 506 223 7
3 506 7 220
3 506 220 505
3 505 220 218
3 505 218 4
3 505 4 509
3 509 4 513
3 509 513 514
3 513 4 0
3 513 0 242
3 517 516 519
3 517 519 3
3 517 3 52
3 517 52 49
3 517 49 46
3 517 46 516
3 516 46 43
3 516 43 519
3 519 43 518
3 519 518 38
3 519 38 1
3 519 1 3
3 38 518 40
3 40 518 43
3 520 521 522
3 520 522 257
3 520 257 61
3 520 61 58
3 520 58 55
3 520 55 521
3 521 55 255
3 521 255 523
3 521 523 221
3 521 221 522
3 522 221 6
3 522 6 64
3 522 64 257
3 221 523 219
3 219 523 53
3 219 53 5
3 53 523 255
3 9 73 70
3 9 70 225
3 225 70 524
3 225 524 8
3 8 524 65
3 65 524 261
3 261 524 67
3 67 524 70
3 12 74 11
3 526 525 529
3 528 527 530
3 529 528 530
3 525 528 529
3 529 530 283
3 529 283 281
3 529 281 79
3 529 79 526
3 526 79 277
3 526 277 274
3 526 274 271
3 526 271 525
3 525 271 269
3 525 269 528
3 528 269 267
3 528 267 527
3 527 267 71
3 527 71 72
3 527 72 14
3 527 14 15
3 527 15 530
3 530 15 283
3 271 274 76
3 495 26 291
3 495 291 289
3 495 289 531
3 495 531 497
3 497 531 532
3 497 532 18
3 18 532 282
3 18 282 284
3 18 284 236
3 236 284 17
3 282 532 80
3 80 532 531
3 80 531 82
3 82 531 85
3 85 531 289
3 291 26 88
3 88 26 27
3 247 24 496
3 247 496 498
3 247 498 21
3 21 498 20
3 2 37 243
3 243 37 534
3 243 534 241
3 241 534 23
3 23 534 245
3 245 534 533
3 245 533 25
3 25 533 34
3 25 34 31
3 25 31 28
3 34 533 251
3 251 533 534
3 251 534 37
3 30 100 29
3 29 100 89
3 89 100 305
3 89 305 91
3 91 305 303
3 91 303 94
3 94 303 97
3 537 536 538
3 537 538 539
3 537 539 319
3 537 319 317
3 537 317 535
3 537 535 309
3 537 309 536
3 536 309 307
3 536 307 33
3 536 33 538
3 538 33 493
3 538 493 539
3 539 493 41
3 539 41 321
3 539 321 319
3 321 41 42
3 33 307 101
3 33 101 32
3 309 535 311
3 311 535 315
3 311 315 313
3 313 315 103
3 315 535 317
3 36 39 494
3 36 494 252
3 252 494 35
3 540 543 544
3 541 540 544
3 541 544 545
3 541 545 546
3 542 547 548
3 543 542 548
3 543 548 549
3 544 543 549
3 544 549 550
3 545 544 550
3 545 550 551
3 546 545 551
3 548 547 552
3 548 552 553
3 549 548 553
3 549 553 554
3 550 549 554
3 551 550 554
3 553 552 555
3 553 555 554
3 554 555 44
3 554 44 45
3 554 45 551
3 551 45 331
3 551 331 546
3 546 331 329
3 546 329 327
3 546 327 541
3 541 327 325
3 541 325 540
3 540 325 106
3 540 106 323
3 540 323 543
3 543 323 542
3 542 323 104
3 542 104 316
3 542 316 547
3 547 316 318
3 547 318 552
3 552 318 320
3 552 320 555
3 555 320 322
3 555 322 44
3 556 557 558
3 556 558 339
3 556 339 337
3 556 337 335
3 556 335 328
3 556 328 557
3 557 328 330
3 557 330 332
3 557 332 48
3 557 48 491
3 557 491 558
3 558 491 56
3 558 56 339
3 339 56 109
3 109 56 57
3 48 332 47
3 328 335 326
3 326 335 333
3 326 333 107
3 256 54 559
3 256 559 51
3 51 559 50
3 50 559 492
3 492 559 54
3 60 121 561
3 60 561 110
3 60 110 59
3 110 561 341
3 341 561 343
3 343 561 560
3 343 560 112
3 112 560 115
3 115 560 118
3 118 560 121
3 121 560 561
3 262 66 563
3 262 563 562
3 262 562 258
3 262 258 63
3 258 562 62
3 62 562 122
3 122 562 355
3 355 562 563
3 355 563 124
3 124 563 66
3 124 66 127
3 564 565 567
3 564 567 566
3 564 566 133
3 564 133 130
3 564 130 565
3 565 130 128
3 565 128 68
3 565 68 567
3 567 68 268
3 567 268 270
3 567 270 566
3 566 270 272
3 566 272 75
3 566 75 133
3 268 68 69
3 570 569 571
3 570 571 371
3 570 371 369
3 570 369 367
3 570 367 569
3 569 367 568
3 569 568 276
3 569 276 279
3 569 279 571
3 571 279 78
3 571 78 81
3 571 81 371
3 276 568 77
3 77 568 134
3 134 568 136
3 136 568 365
3 365 568 367
3 139 137 142
3 572 574 575
3 573 572 575
3 575 574 576
3 575 576 386
3 575 386 384
3 575 384 573
3 573 384 148
3 573 148 380
3 573 380 572
3 572 380 145
3 572 145 366
3 572 366 368
3 572 368 574
3 574 368 370
3 574 370 576
3 576 370 372
3 576 372 388
3 576 388 386
3 388 372 84
3 84 372 83
3 366 145 142
3 366 142 137
3 87 90 292
3 292 90 398
3 292 398 577
3 292 577 290
3 290 577 389
3 290 389 86
3 389 577 387
3 387 577 398
3 387 398 385
3 385 398 157
3 385 157 154
3 385 154 151
3 385 151 149
3 93 158 399
3 93 399 92
3 578 580 581
3 578 581 582
3 579 578 582
3 579 582 583
3 580 585 586
3 581 580 586
3 581 586 587
3 582 581 587
3 582 587 588
3 583 582 588
3 585 584 589
3 585 589 590
3 586 585 590
3 587 586 590
3 587 590 591
3 588 587 591
3 590 589 592
3 591 590 592
3 591 592 593
3 591 593 432
3 591 432 588
3 588 432 175
3 588 175 583
3 583 175 172
3 583 172 419
3 583 419 579
3 579 419 169
3 579 169 166
3 579 166 578
3 578 166 414
3 578 414 580
3 580 414 411
3 580 411 585
3 585 411 584
3 584 411 163
3 584 163 160
3 584 160 589
3 589 160 155
3 589 155 156
3 589 156 592
3 592 156 95
3 592 95 593
3 593 95 96
3 593 96 432
3 314 102 597
3 314 597 596
3 314 596 599
3 314 599 312
3 312 599 310
3 310 599 598
3 310 598 308
3 308 598 306
3 308 306 99
3 306 598 304
3 304 598 98
3 98 598 436
3 436 598 599
3 436 599 596
3 436 596 176
3 176 596 597
3 176 597 440
3 440 597 102
3 440 102 324
3 440 324 105
3 440 105 178
3 178 105 594
3 178 594 111
3 111 594 595
3 111 595 344
3 344 595 342
3 342 595 338
3 342 338 340
3 342 340 108
3 338 595 336
3 336 595 594
3 336 594 334
3 334 594 105
3 600 601 602
3 600 602 603
3 601 604 605
3 602 601 605
3 602 605 606
3 602 606 607
3 603 602 607
3 603 607 608
3 603 608 609
3 605 604 610
3 605 610 611
3 606 605 611
3 606 611 612
3 606 612 613
3 607 606 613
3 607 613 614
3 608 607 614
3 608 614 615
3 609 608 615
3 609 615 187
3 609 187 184
3 609 184 603
3 603 184 600
3 600 184 181
3 600 181 601
3 601 181 452
3 601 452 604
3 604 452 170
3 604 170 610
3 610 170 421
3 610 421 171
3 610 171 611
3 611 171 179
3 611 179 612
3 612 179 613
3 613 179 113
3 613 113 614
3 614 113 114
3 614 114 615
3 615 114 187
3 616 618 619
3 617 616 619
3 617 619 196
3 617 196 469
3 617 469 616
3 616 469 193
3 616 193 466
3 616 466 618
3 618 466 211
3 618 211 208
3 618 208 619
3 619 208 143
3 619 143 144
3 619 144 196
3 211 466 485
3 485 466 464
3 485 464 487
3 487 464 462
3 487 462 214
3 214 462 117
3 117 462 116
3 116 462 188
3 188 462 190
3 356 123 489
3 356 489 215
3 356 215 120
3 120 215 119
3 621 620 622
3 621 622 129
3 621 129 212
3 621 212 486
3 621 486 488
3 621 488 620
3 620 488 490
3 620 490 622
3 622 490 125
3 622 125 126
3 622 126 129
3 490 488 213
3 135 138 132
3 132 138 624
3 132 624 131
3 131 624 623
3 131 623 210
3 210 623 209
3 209 623 624
3 209 624 138
3 141 207 140
3 147 150 382
3 150 199 626
3 150 626 382
3 382 626 625
3 382 625 146
3 146 625 197
3 197 625 626
3 197 626 199
3 153 159 152
3 152 159 200
3 200 159 202
3 162 203 161
3 627 628 629
3 627 629 630
3 627 631 628
3 629 628 633
3 629 633 634
3 629 634 635
3 630 629 635
3 630 635 636
3 628 632 633
3 634 633 637
3 634 637 638
3 635 634 638
3 635 638 639
3 636 635 639
3 638 637 640
3 638 640 641
3 639 638 641
3 639 641 416
3 639 416 636
3 636 416 165
3 636 165 483
3 636 483 630
3 630 483 182
3 630 182 627
3 627 182 631
3 631 182 183
3 631 183 205
3 631 205 194
3 631 194 632
3 631 632 628
3 632 194 471
3 632 471 633
3 633 471 637
3 637 471 195
3 637 195 640
3 640 195 198
3 640 198 641
3 641 198 164
3 641 164 413
3 641 413 416
3 164 198 201
3 453 180 484
3 453 484 167
3 453 167 168
3 441 177 642
3 441 642 174
3 174 642 173
3 173 642 177
3 186 189 185
3 185 189 206
3 643 644 645
3 643 645 467
3 643 467 192
3 643 192 204
3 643 204 644
3 644 204 191
3 644 191 463
3 644 463 645
3 645 463 465
3 645 465 467
