ply
format ascii 1.0
comment Generated by PyMesh
element vertex 1269
property float x
property float y
property float z
property float nx
property float ny
property float nz
element face 2534
property list uchar int vertex_indices
end_header
-13.237 18.938 129.018 -0.866 -0.092 0.492
-13.198 18.388 129.217 -0.892 0.275 0.359
-13.11 18.336 129.8 -0.95 0.31 -0.029
-10.235 17.339 127.928 0.851 -0.342 -0.399
-10.051 17.811 127.631 0.728 -0.656 -0.201
-9.923 17.208 128.413 0.643 -0.254 -0.723
-9.505 17.819 128.815 0.852 0.051 -0.521
-9.633 18.422 128.033 0.937 -0.35 0
-9.175 18.784 128.784 0.632 -0.592 -0.5
-9.102 19.606 128.342 0.669 -0.181 -0.721
-9.559 19.243 127.592 0.973 0.061 -0.221
-9.413 19.741 127.859 0.876 -0.271 -0.399
-12.372 20.791 129.154 -0.865 0.347 0.363
-12.742 20.373 128.985 -0.618 0.626 0.476
-12.285 20.736 129.736 -0.923 0.384 -0.025
-12.397 19.932 130.192 -0.979 -0.018 0.203
-12.854 19.569 129.441 -0.674 0.224 0.704
-12.727 18.967 130.223 -0.759 0.625 0.183
-12.396 19.932 130.197 -0.978 -0.018 0.206
-12.726 18.967 130.228 -0.758 0.625 0.185
-12.442 19.426 130.504 -0.948 0.319 0.001
-11.876 18.243 131.892 -0.665 -0.273 0.695
-12.161 17.783 131.616 -0.476 0.033 0.879
-12.178 17.218 131.757 -0.464 0.41 0.785
-12.977 16.425 129.825 -0.934 -0.056 -0.352
-13.02 16.931 129.538 -0.906 -0.393 -0.16
-13.114 17.082 128.974 -0.843 -0.493 0.216
-12.97 16.408 129.811 -0.931 -0.066 -0.36
-13.108 17.064 128.959 -0.839 -0.503 0.208
-12.939 16.081 129.672 -0.951 0.152 -0.267
-11.319 15.504 128.965 0.399 -0.328 -0.856
-11.171 16.375 128.115 0.3 -0.909 -0.289
-11.033 15.719 128.966 0.209 -0.471 -0.857
-11.008 15.726 128.968 0.223 -0.467 -0.856
-11.146 16.383 128.117 0.315 -0.904 -0.288
-10.903 16.179 128.616 0.153 -0.769 -0.621
-9.745 16.13 130.223 0.966 -0.229 -0.118
-9.545 16.613 129.966 0.832 -0.552 0.054
-8.08 16.35 131.42 -0.144 -0.376 -0.915
-7.861 16.799 131.287 -0.014 -0.112 -0.994
-9.308 17.096 129.823 0.95 -0.31 -0.018
-9.024 17.556 130.099 0.761 -0.617 -0.202
-9.218 18.278 129.097 0.664 -0.256 -0.703
-9.502 17.819 128.821 0.853 0.051 -0.519
-9.172 18.783 128.789 0.633 -0.592 -0.498
-8.643 18.709 129.891 0.951 -0.04 -0.306
-8.597 19.214 129.584 0.921 -0.377 -0.101
-6.672 18.435 130.814 -0.363 0.143 -0.921
-6.594 18.664 130.842 -0.307 0.306 -0.901
-8.505 19.485 129.617 0.967 -0.241 -0.084
-8.107 19.564 130.464 0.701 -0.294 -0.649
-8.055 19.995 130.4 0.727 -0.078 -0.682
-8.453 19.916 129.552 0.993 -0.026 -0.117
-8.274 20.329 129.953 0.873 -0.301 -0.384
-8.278 20.365 129.918 0.871 -0.279 -0.404
-8.457 19.955 129.514 0.991 -0.006 -0.135
-8.025 20.925 129.736 0.702 -0.653 -0.283
-8.58 21.412 128.687 0.425 -0.409 -0.807
-9.013 20.442 128.466 0.713 0.237 -0.66
-9.33 20.518 127.974 0.925 0.187 -0.332
-9.08 22.077 128.339 0.175 -0.077 -0.982
-9.795 21.136 127.65 0.651 0.55 -0.522
-9.317 22.176 128.265 0.333 -0.143 -0.932
-10.666 22.728 128.756 -0.791 0.317 -0.523
-11.407 21.796 128.237 -0.297 0.938 -0.177
-10.815 22.787 128.97 -0.692 0.278 -0.666
-11.138 22.679 129.364 -0.854 0.224 -0.469
-11.708 21.696 128.603 -0.474 0.88 0.038
-11.432 23.079 129.787 -0.659 -0.042 -0.751
-11.694 22.856 130.102 -0.79 -0.153 -0.594
-11.952 21.489 128.895 -0.618 0.758 0.21
-11.87 22.976 130.264 -0.672 -0.233 -0.702
-11.969 22.803 130.464 -0.755 -0.378 -0.536
-12.071 21.282 129.134 -0.687 0.636 0.351
-11.961 21.264 129.714 -0.761 0.648 -0.036
-12.047 22.581 130.979 -0.82 -0.563 -0.106
-12.06 20.979 130.376 -0.811 0.505 0.296
-11.922 22.348 131.021 -0.903 -0.408 -0.134
-11.684 21.998 131.713 -0.785 -0.583 0.212
-11.823 20.629 131.068 -0.692 0.33 0.642
-11.425 20.707 131.916 -0.958 0.278 0.077
-11.467 20.516 131.954 -0.979 0.182 0.095
-11.866 20.437 131.106 -0.713 0.234 0.661
-11.911 19.931 131.413 -0.683 0.571 0.456
-11.365 19.95 132.482 -0.928 -0.101 0.359
-11.809 19.366 131.941 -0.632 0.288 0.72
-11.444 19.385 132.425 -0.876 0.275 0.397
-11.344 18.278 132.492 -0.817 -0.377 0.437
-11.702 18.174 132.014 -0.578 -0.308 0.756
-12.016 17.154 131.87 -0.369 0.373 0.851
-11.242 18.172 132.573 -0.757 -0.439 0.484
-11.914 17.048 131.951 -0.309 0.311 0.899
-11.665 16.879 132.142 -0.475 0.423 0.771
-11.508 15.413 131.809 -0.345 -0.798 0.494
-11.727 15.296 131.553 -0.199 -0.72 0.665
-10.708 14.863 132.856 -0.879 -0.431 -0.204
-9.192 15.183 132.011 0.384 -0.164 -0.909
-9.915 15.679 130.542 0.866 -0.495 0.07
-8.25 15.899 131.739 -0.244 -0.641 -0.728
-8.762 14.744 132.61 0.743 -0.53 -0.409
-7.736 15.374 132.456 0.059 -0.95 -0.306
-8.528 14.785 132.877 0.587 -0.558 -0.587
-8.502 14.776 132.913 0.602 -0.563 -0.566
-7.71 15.364 132.492 0.074 -0.956 -0.285
-8.015 15.097 132.911 0.277 -0.777 -0.565
-6.964 15.492 133.761 0.803 -0.579 -0.14
-6.733 15.732 133.282 0.649 -0.739 0.18
-6.226 16.035 133.352 0.311 -0.941 0.133
-7.28 17.412 131.2 -0.216 -0.252 -0.943
-7.713 17.013 131.281 0.072 0.014 -0.997
-8.865 17.786 130.092 0.841 -0.501 -0.205
-7.213 17.557 131.153 -0.183 -0.18 -0.967
-8.798 17.931 130.045 0.874 -0.429 -0.228
-6.803 17.777 130.944 -0.456 -0.327 -0.828
-4.898 17.597 132.777 0.975 -0.16 -0.155
-4.847 17.811 132.316 0.941 -0.303 0.152
-4.175 18.376 133.361 0.493 -0.679 -0.544
-4.231 19.292 132.944 0.446 0.084 -0.891
-4.908 18.806 131.864 0.897 0.408 -0.171
-4.404 19.472 132.848 0.561 -0.036 -0.827
-4.48 19.601 132.799 0.522 0.028 -0.852
-4.973 18.915 131.822 0.851 0.486 -0.201
-4.247 20.638 132.499 0.367 -0.663 -0.652
-4.481 20.832 132.253 0.2 -0.524 -0.828
-5.206 19.11 131.576 0.684 0.625 -0.376
-4.918 20.417 132.264 0.492 -0.247 -0.835
-5.903 20.734 131.942 -0.001 -0.088 -0.996
-6.038 19.378 131.304 0.09 0.816 -0.571
-7.019 21.605 130.44 0.744 -0.669 0.005
-7.01 20.156 131.357 0.559 0.148 -0.816
-7.214 20.62 131.178 0.702 -0.177 -0.69
-7.318 21.378 130.194 0.53 -0.831 -0.17
-6.337 19.151 131.058 -0.124 0.654 -0.746
-7.803 20.14 130.721 0.853 -0.006 -0.521
-7.428 21.356 130.035 0.451 -0.846 -0.284
-7.934 20.115 130.533 0.788 -0.019 -0.615
-7.899 21.006 129.906 0.765 -0.613 -0.198
-7.997 20.931 129.795 0.717 -0.65 -0.253
-8.031 20.04 130.421 0.739 -0.056 -0.671
-8.251 20.371 129.973 0.886 -0.276 -0.372
-7.579 22.404 129.124 0.344 -0.098 -0.934
-8.078 22.245 128.829 0.676 0.007 -0.737
-7.45 22.996 128.97 0.258 -0.493 -0.831
-8.347 23.801 128.677 -0.191 -0.09 -0.977
-8.974 23.051 128.536 0.228 0.41 -0.883
-9.266 24.388 128.363 0.422 -0.481 -0.768
-9.406 24.354 128.32 0.306 -0.509 -0.805
-9.155 23.008 128.48 0.138 0.388 -0.911
-9.375 22.899 128.374 0.285 0.46 -0.841
-10.612 24.342 128.695 -0.699 -0.519 -0.492
-10.581 22.888 128.749 -0.72 0.451 -0.528
-10.704 22.992 128.962 -0.637 0.381 -0.67
-10.744 24.392 128.873 -0.809 -0.478 -0.343
-10.874 23.057 129.191 -0.722 0.413 -0.555
-11.167 23.456 129.615 -0.526 0.146 -0.838
-10.901 24.626 129.056 -0.94 -0.283 -0.191
-11.37 23.757 129.85 -0.627 0.297 -0.72
-11.086 24.764 129.428 -0.817 -0.375 -0.438
-11.295 25.008 129.815 -0.966 -0.2 -0.162
-11.617 24.045 130.308 -0.751 0.441 -0.491
-11.81 23.901 130.424 -0.623 0.538 -0.569
-11.336 25.193 130.125 -0.996 -0.068 0.059
-11.848 24.072 130.71 -0.655 0.68 -0.331
-11.667 24.265 130.675 -0.776 0.551 -0.308
-11.271 25.391 130.471 -0.949 0.074 0.306
-11.589 24.499 131.084 -0.737 0.668 -0.103
-11.263 25.057 130.984 -0.954 0.296 -0.036
-10.261 24.799 132.807 -0.454 0.167 0.875
-10.588 24.241 132.907 -0.236 0.539 0.808
-9.884 23.993 134.236 -0.706 0.704 -0.077
-10.18 22.454 134.275 -0.917 -0.395 -0.049
-10.939 22.419 132.954 -0.412 -0.372 0.832
-10.71 22.411 133.092 -0.565 -0.366 0.74
-10.696 22.351 133.071 -0.553 -0.417 0.721
-10.921 22.342 132.926 -0.403 -0.411 0.818
-10.662 21.051 133.129 -0.576 0.45 0.683
-10.682 22.352 133.082 -0.541 -0.416 0.731
-10.643 21.053 133.143 -0.567 0.45 0.69
-10.15 22.39 134.264 -0.896 -0.441 -0.057
-9.425 21.781 134.765 -0.378 -0.876 0.3
-9.785 20.332 133.736 -0.138 0.09 0.986
-8.872 19.474 135.304 -0.747 0.662 -0.059
-8.988 19.328 135.292 -0.805 0.59 -0.065
-9.902 20.187 133.724 -0.196 0.017 0.98
-9.407 18.938 135.249 -0.526 0.85 -0.036
-9.967 18.366 134.963 -0.806 0.563 -0.18
-10.462 19.614 133.437 -0.476 -0.269 0.837
-10.604 19.073 133.314 -0.382 0.091 0.92
-10.167 17.94 134.852 -0.907 0.351 -0.235
-10.79 18.678 133.211 -0.491 -0.141 0.859
-10.26 17.688 134.303 -0.845 0.519 0.131
-10.427 17.391 134.11 -0.928 0.37 0.035
-10.945 18.402 133.032 -0.583 -0.304 0.754
-10.744 16.909 134.028 -0.717 0.692 0.09
-10.955 16.625 133.645 -0.84 0.525 -0.135
-11.156 18.118 132.649 -0.706 -0.471 0.529
-11.592 16.834 132.206 -0.415 0.385 0.824
-10.866 14.943 133.189 -0.788 -0.464 -0.404
-11.518 15.427 131.824 -0.353 -0.787 0.506
-10.718 14.876 132.871 -0.887 -0.42 -0.192
-10.405 17.296 134.508 -0.917 0.323 0.233
-10.724 16.821 134.397 -0.705 0.64 0.307
-10.312 17.548 135.057 -0.979 0.155 -0.133
-10.352 17.239 135.411 -0.999 0 0.044
-10.761 16.533 134.726 -0.726 0.471 0.501
-10.83 16.27 134.958 -0.68 0.646 0.346
-9.517 14.821 135.402 0.414 -0.561 0.716
-9.191 14.801 135.257 0.197 -0.548 0.813
-8.663 15.376 135.982 -0.155 -0.931 0.33
-8.261 15.287 135.749 0.046 -0.976 0.213
-8.817 14.719 135.04 0.417 -0.597 0.686
-8.354 15.035 135.2 0.108 -0.808 0.579
-6.733 16.084 135.125 0.811 -0.577 -0.098
-6.826 15.832 134.576 0.872 -0.409 0.268
-6.315 16.474 135.168 0.532 -0.837 -0.127
-6.292 16.496 135.124 0.543 -0.826 -0.149
-6.803 15.854 134.532 0.884 -0.398 0.246
-6.065 16.397 134.123 0.392 -0.76 0.519
-5.721 17.052 135.199 0.829 -0.548 -0.112
-5.493 16.953 134.197 0.677 -0.482 0.556
-5.478 17.299 134.708 0.667 -0.713 0.215
-5.461 17.313 134.698 0.678 -0.705 0.21
-5.475 16.967 134.187 0.687 -0.475 0.551
-4.908 17.665 134.794 0.309 -0.94 0.146
-4.393 17.998 133.932 0.566 -0.773 -0.286
-4.96 17.3 133.324 0.944 -0.308 0.119
-4.223 18.145 133.787 0.452 -0.872 -0.189
-3.717 19.791 133.684 0.904 0.123 -0.409
-3.697 19.539 133.594 0.891 0.29 -0.35
-3.602 20.798 133.247 0.828 -0.549 -0.118
-4.088 20.637 132.609 0.481 -0.663 -0.573
-4.144 19.391 133.007 0.518 0.167 -0.839
-4.292 19.6 132.929 0.617 0.028 -0.787
-3.693 20.326 134.692 0.916 0.39 0.095
-3.583 21.25 134.099 0.842 -0.226 0.49
-3.689 21.002 135.44 0.913 -0.06 -0.404
-3.73 21.676 135.534 0.892 0.277 -0.356
-3.617 21.82 134.178 0.817 0.181 0.547
-3.693 21.872 135.713 0.868 0.146 -0.475
-3.741 22.044 135.705 0.827 0.289 -0.482
-3.669 22.006 134.17 0.78 0.314 0.542
-3.782 22.427 134.205 0.854 0.033 0.518
-4.238 22.739 132.587 0.474 0.293 -0.83
-4.165 22.344 132.412 0.425 0.556 -0.714
-4.908 23.763 131.293 0.92 -0.39 0.032
-5.161 23.42 131.015 0.709 -0.676 -0.199
-4.44 21.971 132.111 0.229 0.29 -0.929
-5.295 23.213 131.121 0.799 -0.538 -0.269
-5.921 22.66 131.024 0.485 -0.815 -0.318
-4.97 21.504 132.029 -0.149 -0.044 -0.988
-5.497 21.212 131.999 0.202 0.151 -0.968
-6.053 22.6 130.993 0.419 -0.844 -0.333
-5.628 21.152 131.967 0.136 0.121 -0.983
-6.787 21.958 130.461 0.909 -0.416 0.021
-6.01 22.91 130.51 0.441 -0.689 -0.575
-6.751 22.22 130.053 0.935 -0.229 -0.27
-6.47 22.779 130.069 0.748 -0.602 -0.281
-6.118 25.055 129.981 0.387 0.383 -0.839
-6.578 24.924 129.541 0.693 0.471 -0.545
-6.74 24.973 129.334 0.802 0.438 -0.407
-7.918 24.437 128.643 -0.18 -0.009 -0.984
-8.092 24.235 128.652 -0.064 0.126 -0.99
-9.069 24.725 128.344 0.587 -0.2 -0.784
-7.816 25.515 129.285 -0.095 0.889 -0.448
-8.967 25.802 128.986 0.672 0.697 -0.249
-8.984 26.041 129.352 0.684 0.538 -0.493
-7.811 25.524 129.304 -0.09 0.897 -0.433
-8.979 26.052 129.372 0.688 0.545 -0.478
-7.954 25.632 129.502 0.005 0.825 -0.565
-7.947 25.905 130.082 0.009 0.961 -0.275
-8.973 26.282 129.862 0.692 0.71 -0.128
-8.543 26.111 130.264 0.406 0.824 -0.396
-7.796 25.971 130.501 0.084 0.994 -0.065
-8.392 26.177 130.683 0.481 0.857 -0.186
-7.337 26.102 130.942 -0.222 0.907 -0.359
-7.437 26.193 131.377 -0.272 0.952 -0.141
-8.492 26.268 131.119 0.431 0.902 0.031
-7.371 26.273 131.624 -0.316 0.898 -0.305
-7.61 26.174 132.305 -0.515 0.816 0.262
-8.799 26.141 131.995 0.277 0.838 0.469
-8.922 26.081 132.225 0.359 0.878 0.316
-9.933 25.151 132.889 -0.483 0.103 0.869
-10.099 24.945 132.849 -0.373 0.24 0.896
-9.747 24.116 134.271 -0.608 0.792 -0.052
-9.824 25.227 132.931 -0.393 0.167 0.904
-9.629 24.2 134.317 -0.523 0.852 -0.019
-8.923 25.323 134.354 -0.994 0.103 -0.044
-8.703 25.158 135.182 -0.837 -0.015 0.547
-9.409 24.034 135.145 -0.366 0.734 0.572
-8.889 24.492 135.171 -0.713 0.429 0.555
-8.261 23.516 135.836 -0.364 -0.113 0.924
-8.853 23.17 135.734 0.031 0.117 0.993
-7.641 22.42 137.406 -0.777 0.617 -0.122
-7.819 22.155 137.411 -0.867 0.484 -0.119
-9.004 22.946 135.739 -0.077 -0.043 0.996
-8.666 21.725 138.073 -0.303 0.771 -0.56
-8.603 21.997 136.137 -0.778 0.098 0.621
-8.478 21.567 136.9 -0.884 0.466 -0.031
-9.094 20.885 137.67 -0.54 0.305 -0.784
-9.383 22.203 135.382 -0.348 -0.574 0.741
-8.597 20.944 137.111 -0.872 0.266 -0.411
-8.589 20.872 137.055 -0.866 0.214 -0.451
-9.375 22.132 135.326 -0.342 -0.625 0.701
-8.512 21.284 135.787 -0.917 -0.06 0.394
-8.55 20.975 135.317 -0.948 -0.318 0.003
-9.415 21.795 134.816 -0.371 -0.865 0.337
-8.86 19.491 135.364 -0.741 0.671 -0.029
-8.497 20.987 135.671 -0.904 -0.308 0.297
-8.792 19.507 135.819 -0.707 0.679 0.198
-9.591 20.024 137.506 -0.174 0.334 -0.926
-9.758 19.826 137.492 -0.293 0.192 -0.937
-8.989 19.272 135.802 -0.805 0.562 0.19
-9.407 18.882 135.759 -0.526 0.822 0.218
-10.178 18.621 138.174 -0.593 -0.668 -0.449
-9.904 17.456 136.567 -0.775 0.108 0.622
-9.846 17.275 136.699 -0.814 0.229 0.534
-9.943 16.593 136.41 -0.894 -0.339 0.294
-10.028 16.58 136.196 -0.837 -0.33 0.437
-10.578 15.757 135.568 -0.47 0.219 0.855
-9.513 16.118 136.558 -0.535 -0.735 0.416
-10.148 15.282 135.715 -0.112 -0.177 0.978
-9.475 15.969 136.385 -0.561 -0.635 0.531
-8.87 16.865 137.25 -0 -0.112 0.994
-8.649 16.929 137.276 -0.148 -0.155 0.977
-9.118 18.176 138.773 0.165 -0.986 -0.021
-8.636 18.351 138.794 0.508 -0.861 -0.006
-8.08 17.137 137.3 0.137 -0.051 0.989
-7.986 18.549 138.92 0.075 -0.993 -0.09
-7.863 18.565 138.899 0.144 -0.984 -0.102
-7.95 17.153 137.279 0.202 -0.043 0.978
-7.532 17.543 137.322 -0.077 -0.303 0.95
-6.978 18.968 138.838 0.635 -0.76 -0.136
-6.605 17.965 137.257 0.387 -0.092 0.918
-6.051 19.267 138.212 0.017 -0.96 0.281
-5.526 19.281 137.889 0.28 -0.953 0.119
-6.08 17.979 136.934 0.649 -0.085 0.756
-5.168 18.833 136.935 0.041 -0.654 0.756
-4.774 18.487 136.285 0.323 -0.901 0.291
-5.614 17.57 136.165 0.882 -0.289 0.371
-4.819 18.169 135.771 0.353 -0.688 0.634
-4.914 17.667 134.819 0.306 -0.939 0.158
-5.708 17.069 135.213 0.835 -0.54 -0.104
-5.467 17.315 134.722 0.674 -0.704 0.223
-3.826 19.734 135.894 1 -0.01 0.012
-3.697 19.644 135.309 0.914 0.05 0.403
-3.693 20.321 136.056 0.911 -0.401 -0.095
-4.365 19.349 136.906 0.615 -0.285 0.735
-4.331 19.864 137.254 0.592 -0.629 0.503
-4.575 19.891 137.855 0.755 -0.647 0.102
-4.275 22.002 137.882 0.906 0.408 0.116
-4.03 21.975 137.281 0.742 0.426 0.517
-3.926 22.105 137.071 0.673 0.34 0.657
-4.774 22.695 137.648 0.656 0.755 -0.001
-4.314 22.644 136.889 0.35 0.789 0.505
-4.529 22.668 137.047 0.493 0.773 0.4
-4.676 22.93 136.068 0.42 0.903 -0.089
-4.428 22.847 136.128 0.255 0.958 -0.129
-5.324 23.626 135.505 0.852 0.439 0.286
-5.229 23.538 135.264 0.919 0.377 0.114
-4.341 22.766 135.906 0.327 0.891 -0.314
-4.382 23.15 134.406 0.354 0.636 0.686
-5.572 23.964 134.704 0.675 0.681 -0.286
-4.697 23.542 133.891 0.092 0.962 0.256
-5.944 24.41 134.228 0.923 0.383 0.031
-5.949 24.424 134.174 0.92 0.391 0.001
-4.701 23.553 133.846 0.088 0.972 0.219
-5.564 24.701 133.097 0.664 0.206 0.719
-4.905 24.147 131.834 0.994 -0.071 0.087
-4.188 23.122 132.864 0.516 0.612 -0.599
-4.857 24.146 131.57 0.962 -0.071 0.263
-5.989 24.51 134.182 0.899 0.439 0.006
-5.606 24.791 133.106 0.643 0.251 0.723
-6.136 25.174 134.307 0.997 -0.004 -0.078
-6.602 26.091 133.903 0.664 0.651 -0.366
-6.157 25.877 132.627 0.368 0.794 0.484
-6.376 26.028 132.596 0.514 0.694 0.505
-7.943 26.244 133.605 -0.294 0.761 -0.579
-7.611 26.168 132.322 -0.516 0.811 0.277
-8.922 26.075 132.242 0.359 0.873 0.33
-5.984 24.485 134.332 0.901 0.425 0.089
-6.132 25.151 134.44 1 -0.02 0.017
-5.607 24.03 134.796 0.649 0.728 -0.22
-6.873 23.867 136.152 -0.255 0.612 0.749
-7.399 24.989 135.797 0.095 -0.136 0.986
-7.415 24.301 135.865 0.106 0.323 0.941
-7.093 23.622 136.223 -0.412 0.437 0.8
-7.664 24.024 135.945 -0.032 0.169 0.985
-7.015 22.952 137.52 -0.464 0.883 -0.065
-7.039 23.65 136.234 -0.374 0.457 0.807
-6.951 22.985 137.533 -0.433 0.9 -0.058
-6.796 23.099 137.719 -0.536 0.824 -0.182
-6.97 22.979 138.063 -0.682 0.724 0.104
-7.175 22.831 137.976 -0.545 0.823 0.163
-8.111 22.808 139.029 0.079 0.838 -0.54
-8.632 22.29 138.617 -0.293 0.468 -0.834
-7.792 22.217 137.488 -0.853 0.516 -0.081
-8.639 21.785 138.146 -0.288 0.804 -0.52
-9.575 21.766 139.448 -0.966 0.094 -0.24
-9.704 21.193 139.085 -0.88 0.476 0.002
-10.157 20.691 138.941 -0.578 0.81 0.098
-9.631 20.32 137.664 -0.202 0.545 -0.814
-9.11 20.774 137.643 -0.549 0.243 -0.8
-8.611 20.845 137.087 -0.882 0.195 -0.429
-9.609 20.182 137.578 -0.186 0.447 -0.875
-8.589 20.707 137.001 -0.866 0.097 -0.49
-8.512 21.133 135.737 -0.917 -0.187 0.352
-9.479 21.308 140.308 -0.898 -0.234 0.373
-10.061 20.233 139.8 -0.509 0.483 0.712
-9.596 20.676 140.056 -0.82 0.188 0.541
-6.997 21.434 140.433 0.875 -0.144 0.463
-6.792 20.817 140.197 0.738 0.267 0.62
-5.857 21.204 139.637 0.115 0.009 0.993
-5.673 20.511 139.487 0.206 -0.337 0.918
-6.617 20.156 140.054 0.836 -0.101 0.54
-5.433 20.412 139.423 0.046 -0.272 0.961
-5.467 19.791 139.006 0.018 -0.789 0.614
-6.659 19.394 139.543 0.812 -0.524 0.256
-5.717 19.713 138.951 0.184 -0.737 0.651
-7.204 22.575 139.986 0.727 0.671 0.143
-6.102 22.555 139.108 -0.008 0.685 0.729
-6.135 22.764 138.944 0.014 0.545 0.838
-5.771 23.203 137.62 0.317 0.911 -0.265
-5.634 23.119 137.406 0.226 0.966 -0.122
-5.926 23.763 136.127 0.421 0.537 0.731
-5.797 23.72 136.074 0.513 0.506 0.693
-5.481 23.068 137.344 0.302 0.941 -0.153
-5.236 23.041 136.742 0.139 0.959 0.248
-6.864 25.372 129.706 0.55 0.695 -0.463
-6.404 25.503 130.147 0.244 0.607 -0.756
-6.963 25.322 129.463 0.616 0.728 -0.3
-11.338 19.301 126.048 0.084 0.09 -0.992
-11.566 19.313 126.012 0.236 0.082 -0.968
-13.419 18.671 128.4 -0.957 -0.226 0.184
-13.367 18.139 128.643 -0.991 0.129 0.022
-13.339 18.363 127.78 -0.917 -0.379 -0.126
-13.293 17.853 128.067 -0.948 -0.039 -0.317
-13.008 18.061 127.247 -0.751 -0.531 -0.393
-12.985 17.572 127.571 -0.766 -0.205 -0.609
-12.474 17.807 126.878 -0.484 -0.658 -0.577
-12.488 17.336 127.228 -0.474 -0.344 -0.81
-11.815 17.638 126.728 -0.154 -0.742 -0.653
-11.875 17.179 127.088 -0.114 -0.436 -0.893
-11.126 17.58 126.817 0.19 -0.771 -0.608
-11.235 17.125 127.171 0.263 -0.468 -0.844
-10.508 17.64 127.133 0.499 -0.741 -0.45
-10.661 17.181 127.465 0.601 -0.435 -0.671
-9.785 19.588 127.126 0.86 0.233 -0.453
-9.623 20.061 127.427 0.752 -0.083 -0.654
-10.168 19.954 126.801 0.669 0.416 -0.616
-9.979 20.401 127.125 0.543 0.118 -0.831
-10.663 20.3 126.654 0.422 0.589 -0.689
-10.439 20.723 126.988 0.272 0.307 -0.912
-11.212 20.585 126.702 0.147 0.732 -0.666
-10.95 20.988 127.032 -0.028 0.463 -0.886
-11.754 20.778 126.939 -0.124 0.828 -0.547
-11.453 21.167 127.252 -0.324 0.568 -0.756
-12.224 20.854 127.337 -0.359 0.866 -0.348
-11.891 21.238 127.623 -0.582 0.61 -0.538
-12.569 20.806 127.852 -0.532 0.842 -0.09
-12.211 21.194 128.102 -0.77 0.584 -0.257
-12.749 20.64 128.423 -0.621 0.759 0.195
-12.378 21.039 128.633 -0.868 0.493 0.056
-12.725 18.626 130.795 -0.758 0.454 0.468
-12.44 19.085 131.071 -0.947 0.148 0.284
-12.529 18.215 131.276 -0.66 0.249 0.709
-12.245 18.675 131.552 -0.849 -0.057 0.525
-12.67 17.674 131.223 -0.731 -0.021 0.683
-12.651 17.116 131.392 -0.743 0.351 0.57
-13.007 17.478 130.7 -0.899 -0.12 0.421
-12.965 16.933 130.906 -0.927 0.243 0.284
-13.129 17.219 130.113 -0.96 -0.249 0.128
-13.078 16.693 130.36 -0.994 0.102 -0.037
-13.201 17.616 129.717 -0.996 -0.051 -0.07
-13.283 17.718 129.14 -0.942 -0.119 0.314
-12.895 16.598 129.32 -0.981 -0.192 -0.033
-12.745 16.62 128.341 -0.625 -0.765 -0.156
-12.595 16.23 128.809 -0.725 -0.505 -0.468
-12.635 15.709 129.155 -0.698 -0.158 -0.698
-12.009 16.358 128.021 -0.193 -0.919 -0.344
-11.987 16.014 128.545 -0.207 -0.69 -0.694
-12.02 15.49 128.887 -0.186 -0.34 -0.922
-11.295 16.028 128.622 0.383 -0.678 -0.628
-10.603 16.768 127.974 0.635 -0.678 -0.372
-10.319 16.594 128.463 0.445 -0.561 -0.698
-10.281 16.223 128.905 0.464 -0.747 -0.476
-10.431 15.767 129.237 0.563 -0.443 -0.698
-9.806 16.375 129.377 0.701 -0.671 -0.24
-9.989 15.908 129.676 0.823 -0.36 -0.439
-9.256 16.768 130.649 0.64 -0.655 -0.402
-8.723 16.672 131.179 0.284 -0.591 -0.755
-9.089 17.11 130.548 0.804 -0.32 -0.501
-8.561 17.002 131.081 0.453 -0.247 -0.857
-9.316 17.426 129.282 0.947 -0.145 -0.288
-9.032 17.886 129.558 0.757 -0.452 -0.472
-8.385 19.131 130.24 0.779 -0.322 -0.538
-7.921 18.945 130.723 0.47 -0.197 -0.86
-7.306 18.695 130.929 0.06 -0.031 -0.998
-8.334 19.28 130.258 0.853 -0.105 -0.512
-7.888 19.041 130.735 0.555 0.055 -0.83
-7.264 18.82 130.944 0.139 0.202 -0.969
-8.643 20.172 128.929 0.898 0.102 -0.428
-8.211 21.142 129.15 0.61 -0.545 -0.576
-9.08 20.986 128.436 0.758 -0.125 -0.64
-9.514 21.563 128.134 0.464 0.266 -0.845
-9.637 21.623 128.076 0.546 0.226 -0.807
-10.653 21.618 127.632 0.147 0.833 -0.533
-10.334 22.014 128.062 -0.066 0.569 -0.82
-10.035 22.578 128.249 -0.265 0.193 -0.945
-10.948 22.159 128.554 -0.604 0.696 -0.388
-11.019 22.179 128.682 -0.556 0.683 -0.474
-11.3 22.086 129.023 -0.746 0.62 -0.242
-11.419 21.993 129.111 -0.667 0.682 -0.3
-11.32 22.485 129.532 -0.733 0.353 -0.581
-11.62 21.823 129.352 -0.839 0.536 -0.094
-11.528 22.309 129.781 -0.9 0.211 -0.381
-11.623 21.84 129.447 -0.837 0.524 -0.158
-11.593 22.379 129.943 -0.857 0.165 -0.488
-11.7 21.706 129.602 -0.935 0.353 0.039
-11.663 22.257 130.083 -0.959 -0.014 -0.282
-11.744 21.723 130.039 -0.905 0.342 -0.253
-11.747 22.265 130.304 -0.903 -0.02 -0.429
-11.82 21.506 130.544 -0.971 0.154 0.184
-11.815 22.07 130.757 -0.974 -0.222 0.042
-11.785 21.652 130.679 -0.994 0.057 0.094
-11.577 21.344 131.289 -0.857 -0.146 0.495
-12.21 20.21 130.683 -0.885 0.121 0.449
-12.256 19.705 130.99 -0.855 0.458 0.244
-11.847 18.764 132.021 -0.65 -0.012 0.76
-11.478 18.826 132.499 -0.896 -0.054 0.441
-11.553 17.716 132.044 -0.677 -0.002 0.736
-11.464 17.624 132.114 -0.609 -0.073 0.79
-12.176 16.107 131.872 -0.464 -0.243 0.852
-11.884 16.092 132.076 -0.658 -0.233 0.716
-11.241 15.322 131.909 -0.523 -0.737 0.428
-10.882 15.169 132.368 -0.763 -0.635 0.122
-11.18 14.955 131.053 0.122 -0.921 0.371
-10.825 15.062 131.528 -0.115 -0.992 0.054
-10.497 14.929 132.016 -0.333 -0.903 -0.271
-10.25 14.577 132.438 -0.498 -0.669 -0.552
-10.48 15.103 130.663 0.534 -0.833 0.141
-10.291 15.175 131.231 0.409 -0.881 -0.237
-10.004 15.033 131.741 0.217 -0.787 -0.578
-9.664 14.701 132.111 -0.009 -0.566 -0.825
-9.862 15.613 131.139 0.83 -0.451 -0.327
-9.607 15.439 131.656 0.66 -0.335 -0.672
-9.541 16.033 131.087 0.617 -0.731 -0.293
-8.936 16.113 131.523 0.213 -0.784 -0.583
-9.421 16.351 130.862 0.75 -0.377 -0.544
-8.816 16.431 131.297 0.346 -0.43 -0.834
-8.731 15.597 131.99 0.077 -0.44 -0.895
-8.305 15.162 132.583 0.438 -0.809 -0.391
-7.172 15.427 132.882 0.391 -0.919 -0.055
-7.436 15.164 133.332 0.567 -0.744 -0.355
-6.694 15.759 132.704 0.672 -0.723 -0.16
-6.184 16.064 132.73 0.332 -0.926 -0.178
-6.791 15.927 132.157 0.615 -0.625 -0.482
-6.288 16.245 132.142 0.28 -0.836 -0.472
-7.012 16.216 131.706 0.485 -0.455 -0.747
-6.526 16.556 131.657 0.161 -0.681 -0.715
-7.332 16.593 131.402 0.297 -0.233 -0.926
-6.87 16.96 131.33 -0.011 -0.478 -0.878
-8.242 17.346 131.106 0.425 -0.208 -0.881
-8.652 17.621 130.683 0.698 -0.392 -0.599
-8.365 17.169 131.111 0.322 -0.359 -0.876
-8.778 17.438 130.689 0.597 -0.538 -0.595
-8.493 17.829 130.694 0.592 -0.53 -0.606
-7.922 17.695 131.093 0.212 -0.441 -0.872
-8.44 17.943 130.658 0.635 -0.437 -0.636
-7.87 17.808 131.057 0.255 -0.347 -0.902
-8.452 18.091 130.523 0.643 -0.536 -0.546
-7.947 18.118 130.864 0.306 -0.554 -0.774
-7.365 18.008 131.013 -0.082 -0.48 -0.873
-8.347 18.62 130.418 0.754 0.019 -0.657
-7.863 18.536 130.781 0.431 0.075 -0.899
-7.272 18.471 130.921 0.037 0.119 -0.992
-6.428 17.337 131.062 -0.189 -0.642 -0.743
-6.77 17.035 131.293 0.039 -0.441 -0.897
-5.953 17.097 131.316 0.151 -0.813 -0.562
-6.207 16.751 131.593 0.321 -0.583 -0.747
-5.469 17.105 131.655 0.496 -0.807 -0.32
-5.635 16.761 131.994 0.606 -0.578 -0.546
-5.075 17.36 132.012 0.778 -0.625 -0.065
-5.168 17.063 132.416 0.84 -0.427 -0.335
-4.643 18.184 132.875 0.805 -0.551 -0.22
-4.694 19.003 132.502 0.754 0.276 -0.596
-4.774 19.109 132.437 0.807 0.206 -0.553
-4.838 19.216 132.395 0.761 0.284 -0.583
-5.012 19.505 132.228 0.877 0.092 -0.472
-4.75 20.127 132.472 0.702 -0.322 -0.635
-5.171 19.638 132.06 0.661 0.273 -0.699
-4.909 20.259 132.305 0.486 -0.142 -0.862
-5.199 19.719 132.062 0.68 0.218 -0.7
-5.981 19.971 131.806 0.051 0.421 -0.906
-7.237 21.163 130.844 0.889 -0.374 -0.265
-7.34 21.085 130.76 0.545 -0.635 -0.547
-6.586 19.684 131.418 0.455 0.612 -0.647
-6.689 19.606 131.334 0.11 0.351 -0.93
-6.931 19.362 131.16 0.272 0.513 -0.814
-7.452 19.713 131.04 0.619 0.279 -0.734
-7.148 18.952 130.977 0.062 0.114 -0.992
-7.685 19.272 130.844 0.42 -0.099 -0.902
-7.703 20.845 130.529 0.787 -0.476 -0.393
-7.809 20.825 130.376 0.705 -0.492 -0.511
-7.94 21.484 129.196 0.745 -0.374 -0.553
-7.463 21.76 129.435 0.427 -0.558 -0.712
-8.497 22.643 128.581 0.466 0.206 -0.86
-7.87 23.394 128.723 0.048 -0.294 -0.955
-9.182 23.726 128.605 0.366 -0.04 -0.93
-9.322 23.692 128.562 0.25 -0.068 -0.966
-9.454 23.632 128.524 0.338 -0.028 -0.941
-10.04 22.885 128.36 -0.27 0.448 -0.852
-10 23.62 128.513 -0.296 -0.042 -0.954
-10.072 24.339 128.306 -0.249 -0.522 -0.816
-10.443 23.622 128.832 -0.811 -0.039 -0.584
-10.532 23.68 128.938 -0.752 -0.078 -0.654
-10.664 23.73 129.117 -0.862 -0.036 -0.506
-10.852 23.95 129.335 -0.736 -0.183 -0.651
-11.014 24.19 129.524 -0.865 0.008 -0.502
-11.142 24.265 129.708 -0.779 -0.042 -0.625
-11.354 24.512 130.1 -0.927 0.13 -0.353
-11.406 24.423 130.187 -0.892 0.189 -0.41
-11.44 24.576 130.442 -0.927 0.344 -0.153
-12.018 23.873 131.489 -0.796 0.515 0.319
-11.885 24.01 131.677 -0.885 0.423 0.193
-12.125 23.071 131.634 -0.885 -0.154 0.439
-12.022 22.979 131.863 -0.954 -0.092 0.287
-11.396 24.7 130.414 -0.956 0.261 -0.134
-11.33 24.901 130.765 -0.91 0.4 0.11
-11.459 24.552 131.804 -0.672 0.695 0.257
-11.133 25.11 131.703 -0.889 0.323 0.324
-11.109 24.462 132.441 -0.497 0.65 0.576
-10.782 25.02 132.341 -0.714 0.278 0.642
-10.122 23.967 133.483 -0.547 0.722 0.424
-10.951 23.704 133.024 -0.418 0.271 0.867
-10.409 23.543 133.576 -0.779 0.378 0.5
-10.191 23.54 134.335 -0.925 0.38 -0.006
-11.075 23.058 133.041 -0.48 -0.053 0.876
-10.507 23.033 133.589 -0.859 -0.036 0.51
-10.296 22.993 134.349 -1 -0.01 0.004
-10.399 22.529 133.52 -0.772 -0.445 0.454
-10.706 21.693 132.897 -0.546 0.022 0.837
-11.435 22.157 132.406 -0.66 -0.503 0.558
-11.175 21.524 132.422 -0.833 -0.081 0.548
-11.175 20.867 132.609 -0.833 0.357 0.423
-11.403 21.379 131.79 -0.972 -0.17 0.161
-10.586 21.698 132.984 -0.627 0.018 0.779
-10.571 21.699 132.995 -0.615 0.019 0.788
-10.236 21.482 133.397 -0.838 0.164 0.521
-10.061 21.957 133.795 -0.955 -0.153 0.255
-9.582 20.932 133.849 -0.273 -0.31 0.911
-9.454 21.447 134.215 -0.359 -0.653 0.667
-9.291 19.886 134.024 -0.467 0.388 0.794
-8.96 19.575 134.591 -0.688 0.595 0.416
-9.381 19.773 134.015 -0.544 0.293 0.787
-9.05 19.463 134.581 -0.764 0.5 0.409
-9.572 19.582 133.985 -0.416 0.42 0.806
-9.392 19.129 134.538 -0.536 0.722 0.438
-9.999 19.146 133.767 -0.785 0.043 0.618
-9.819 18.693 134.32 -0.905 0.345 0.249
-11.001 19.812 133.052 -0.745 -0.17 0.645
-11.105 19.258 132.955 -0.676 0.2 0.709
-10.168 18.718 133.698 -0.673 0.328 0.663
-9.94 18.465 134.289 -0.825 0.497 0.27
-10.317 18.4 133.616 -0.807 0.044 0.589
-10.094 18.136 134.204 -0.955 0.22 0.198
-10.352 18.134 133.629 -0.783 0.221 0.581
-10.49 17.888 133.469 -0.886 0.039 0.462
-10.663 17.855 133.212 -0.771 0.061 0.634
-10.591 17.325 133.565 -0.819 0.414 0.398
-10.832 17.627 132.904 -0.922 -0.144 0.358
-10.76 17.097 133.258 -0.97 0.21 0.123
-11.259 17.484 132.288 -0.638 -0.048 0.769
-11.327 17.527 132.229 -0.701 -0.009 0.714
-11.105 16.607 132.833 -0.74 0.536 0.406
-11.797 16.082 132.146 -0.586 -0.241 0.774
-11.288 15.937 132.78 -0.925 -0.144 0.351
-11.199 15.726 133.573 -0.984 -0.004 -0.178
-11.039 15.353 132.493 -0.673 -0.737 0.06
-10.99 15.276 132.315 -0.705 -0.686 0.179
-10.982 15.264 132.303 -0.696 -0.699 0.165
-10.338 14.397 133.027 -0.571 -0.819 -0.062
-10.412 14.371 133.375 -0.521 -0.801 -0.294
-9.744 14.186 133.026 -0.076 -0.995 -0.062
-9.702 14.118 133.374 -0.104 -0.95 -0.295
-9.148 14.317 132.868 0.421 -0.886 -0.194
-8.989 14.275 133.186 0.316 -0.858 -0.405
-11.152 16.04 134.264 -0.957 0.181 0.229
-11.158 15.858 134.571 -0.953 0.302 0.024
-11.168 15.308 133.991 -0.966 -0.25 0.069
-11.171 15.245 134.343 -0.964 -0.208 -0.166
-10.802 14.618 134.013 -0.751 -0.656 0.081
-10.865 14.668 134.361 -0.709 -0.689 -0.151
-10.195 14.235 134.32 -0.394 -0.881 0.262
-10.357 14.348 134.618 -0.286 -0.956 0.063
-9.579 14.305 134.796 -0.031 -0.84 0.542
-9.842 14.406 135.016 0.144 -0.907 0.395
-8.549 14.525 134.565 0.575 -0.711 0.406
-8.065 14.827 134.688 0.253 -0.912 0.323
-8.398 14.468 134.008 0.664 -0.744 0.078
-7.903 14.766 134.089 0.334 -0.942 0.024
-8.382 14.555 133.435 0.673 -0.693 -0.259
-7.885 14.86 133.473 0.342 -0.896 -0.284
-7.746 15.134 135.052 0.412 -0.758 0.505
-7.654 15.386 135.601 0.35 -0.926 0.139
-7.219 15.41 134.836 0.676 -0.621 0.398
-7.126 15.662 135.385 0.614 -0.789 0.032
-4.69 17.805 133.561 0.763 -0.645 -0.038
-4.639 18.045 133.118 0.802 -0.459 -0.382
-3.649 18.796 134.207 0.931 -0.329 0.16
-3.656 18.835 134.471 0.935 -0.355 -0.016
-3.793 20.19 133.46 0.955 -0.144 -0.26
-4.2 20.056 132.926 0.555 -0.276 -0.785
-3.799 21.153 134.761 0.986 -0.161 0.049
-3.832 21.706 134.839 0.96 0.257 0.107
-3.863 21.806 134.937 0.981 0.191 0.042
-3.903 21.95 134.93 0.936 0.351 0.035
-3.494 22.15 133.527 0.905 0.417 0.082
-3.62 22.559 133.613 0.989 0.144 0.025
-3.676 22.274 132.882 0.775 0.506 -0.379
-3.787 22.674 133.019 0.85 0.239 -0.47
-4.687 22.764 132.198 0.773 0.276 -0.571
-4.954 23.274 131.795 0.951 -0.064 -0.303
-4.869 22.517 131.998 0.515 -0.074 -0.854
-5.128 23.037 131.604 0.688 -0.421 -0.591
-4.887 22.413 131.991 0.527 -0.005 -0.85
-5.19 22.854 131.64 0.729 -0.299 -0.615
-5.333 22.02 131.923 0.093 -0.388 -0.917
-5.67 22.43 131.566 0.318 -0.662 -0.679
-5.747 21.789 131.896 0.369 -0.234 -0.899
-5.898 22.302 131.551 0.47 -0.576 -0.669
-5.857 21.739 131.87 0.289 -0.27 -0.918
-6.008 22.252 131.525 0.389 -0.613 -0.688
-6.259 21.483 131.73 0.557 -0.099 -0.825
-6.681 21.776 131.182 0.838 -0.295 -0.459
-6.444 21.201 131.712 0.36 -0.399 -0.843
-6.85 21.518 131.166 0.631 -0.61 -0.479
-6.497 22.351 130.745 0.715 -0.679 -0.168
-6.459 22.618 130.33 0.741 -0.494 -0.455
-7.05 22.318 129.488 0.721 -0.159 -0.674
-6.824 22.895 129.4 0.57 -0.544 -0.616
-6.315 23.255 129.766 0.825 -0.364 -0.433
-5.856 23.387 130.206 0.518 -0.451 -0.727
-6.282 23.805 129.566 0.842 -0.089 -0.533
-5.822 23.936 130.007 0.535 -0.176 -0.826
-6.372 24.378 129.489 0.796 0.198 -0.571
-5.912 24.51 129.929 0.49 0.11 -0.865
-6.968 24.028 128.899 0.498 0.023 -0.867
-7.044 24.277 128.834 0.549 -0.143 -0.824
-8.612 24.484 128.605 0.283 -0.04 -0.958
-8.82 24.129 128.625 0.125 -0.309 -0.943
-8.522 24.596 128.619 0.223 -0.115 -0.968
-8.952 25.355 128.501 0.684 0.325 -0.653
-8.42 25.151 128.758 0.329 0.461 -0.824
-7.802 25.068 128.8 -0.083 0.516 -0.852
-8.432 25.545 129.186 0.316 0.869 -0.382
-9.621 26.026 128.745 0.127 0.884 -0.45
-9.695 26.284 129.09 0.176 0.712 -0.68
-10.324 25.835 128.669 -0.459 0.725 -0.513
-10.459 26.077 129.008 -0.369 0.564 -0.739
-10.812 25.302 128.788 -0.866 0.28 -0.414
-10.989 25.498 129.137 -0.748 0.15 -0.647
-8.447 25.664 129.394 0.326 0.789 -0.52
-8.442 25.673 129.411 0.331 0.798 -0.504
-8.507 25.763 129.497 0.373 0.738 -0.562
-8.5 25.997 129.995 0.378 0.9 -0.217
-9.369 26.539 130.301 0.409 0.894 0.185
-9.012 26.416 130.783 0.171 0.976 -0.136
-9.921 26.556 130.635 0.015 0.906 0.423
-9.665 26.436 131.178 -0.155 0.986 0.061
-10.504 26.33 130.789 -0.402 0.744 0.534
-10.356 26.168 131.361 -0.501 0.852 0.153
-10.99 25.91 130.73 -0.749 0.445 0.492
-10.931 25.671 131.291 -0.788 0.604 0.118
-7.94 26.14 131.391 0.063 0.987 -0.15
-8.187 26.038 132.097 -0.13 0.907 0.401
-10.093 26.007 132.091 -0.37 0.772 0.518
-9.928 25.977 132.3 -0.48 0.792 0.378
-9.849 24.533 133.193 -0.539 0.515 0.667
-9.726 24.242 133.693 -0.622 0.709 0.333
-9.979 24.417 133.16 -0.642 0.422 0.64
-9.846 24.134 133.662 -0.731 0.611 0.305
-9.643 24.316 133.701 -0.677 0.659 0.328
-9.709 24.682 133.213 -0.633 0.416 0.653
-9.554 24.379 133.736 -0.573 0.732 0.368
-9.623 24.742 133.247 -0.527 0.491 0.694
-9.145 24.679 134.341 -0.846 0.532 -0.035
-8.952 24.534 135.067 -0.671 0.401 0.624
-9.151 23.666 135.552 -0.182 0.471 0.863
-8.598 24.076 135.631 -0.551 0.198 0.811
-8.383 22.809 135.888 -0.282 0.358 0.89
-7.984 22.537 136.264 -0.548 0.539 0.639
-7.722 22.4 136.8 -0.723 0.63 0.282
-8.489 22.652 135.891 -0.42 0.153 0.894
-8.08 22.395 136.267 -0.693 0.324 0.644
-7.843 22.22 136.803 -0.851 0.441 0.286
-8.522 21.533 137.51 -0.398 0.898 -0.185
-8.684 21.215 137.357 -0.813 0.084 -0.575
-8.779 22.44 135.84 -0.227 0.294 0.929
-8.924 22.157 135.704 -0.654 -0.543 0.527
-8.843 22.012 135.672 -0.708 -0.447 0.548
-8.498 21.698 136.113 -0.938 -0.237 0.254
-8.41 21.319 136.624 -0.996 0.016 -0.087
-8.839 21.971 135.64 -0.7 -0.518 0.492
-8.494 21.668 136.09 -0.929 -0.316 0.192
-8.406 21.278 136.592 -0.988 -0.056 -0.143
-8.841 21.764 135.467 -0.698 -0.38 0.607
-8.875 21.481 135.039 -0.731 -0.656 0.188
-8.858 21.366 134.815 -0.742 -0.579 0.337
-8.546 20.747 134.926 -0.95 -0.166 0.263
-8.547 20.072 135.123 -0.95 0.283 0.132
-8.864 21.359 134.788 -0.752 -0.594 0.285
-8.55 20.741 134.906 -0.961 -0.182 0.206
-8.553 20.063 135.091 -0.959 0.27 0.083
-8.503 20.191 135.344 -0.979 0.204 -0.015
-8.452 20.203 135.686 -0.933 0.215 0.287
-8.867 19.465 136.509 -0.657 0.707 -0.262
-9.154 19.65 137.115 -0.465 0.583 -0.666
-9.009 19.295 136.497 -0.791 0.547 -0.273
-9.285 19.494 137.104 -0.607 0.414 -0.678
-9.332 18.953 136.476 -0.576 0.775 -0.26
-9.459 19.294 137.102 -0.492 0.547 -0.677
-9.943 18.208 136.055 -0.794 0.485 0.366
-9.706 18.481 136.683 -0.952 0.302 -0.052
-9.803 18.86 137.292 -0.887 0.05 -0.459
-10.21 19.257 137.742 -0.616 -0.215 -0.758
-9.68 17.956 137.041 -0.925 -0.225 0.307
-9.779 18.377 137.621 -0.859 -0.506 -0.081
-10.218 16.176 135.798 -0.71 -0.06 0.702
-10.482 16.713 135.159 -0.912 0.351 0.212
-10.139 16.186 135.887 -0.763 -0.067 0.643
-9.773 15.782 136.012 -0.362 -0.51 0.78
-9.768 15.678 135.952 -0.365 -0.441 0.82
-9.107 15.196 135.624 0.141 -0.811 0.568
-8.803 17.588 137.536 -0.045 -0.594 0.803
-8.972 18.038 138.077 0.067 -0.894 0.443
-8.405 17.733 137.553 0.354 -0.449 0.821
-8.606 18.172 138.093 0.488 -0.741 0.461
-8.109 17.711 137.454 0.157 -0.434 0.887
-8.102 18.183 137.817 0.152 -0.749 0.645
-8.059 18.478 138.333 0.123 -0.946 0.301
-8.013 17.723 137.438 0.244 -0.423 0.872
-8.019 18.194 137.803 0.248 -0.737 0.629
-7.966 18.49 138.317 0.212 -0.934 0.286
-7.557 16.752 137.091 0.398 -0.243 0.884
-7.139 17.142 137.134 0.119 -0.503 0.856
-7.212 16.42 136.744 0.571 -0.41 0.711
-6.793 16.81 136.787 0.292 -0.67 0.683
-6.944 16.185 136.272 0.705 -0.527 0.475
-6.526 16.575 136.314 0.426 -0.787 0.446
-6.78 16.07 135.715 0.787 -0.585 0.196
-6.361 16.46 135.758 0.508 -0.845 0.168
-7.651 18.124 137.661 0.003 -0.69 0.723
-7.769 18.49 138.226 0.082 -0.934 0.347
-6.925 18.455 137.611 0.6 -0.418 0.682
-7.059 18.814 138.177 0.689 -0.657 0.305
-6.484 18.538 137.395 0.306 -0.473 0.826
-6.289 18.996 137.731 0.176 -0.779 0.602
-6.034 18.55 137.118 0.618 -0.465 0.634
-5.839 19.008 137.454 0.488 -0.771 0.409
-5.676 18.461 136.821 0.38 -0.406 0.831
-5.284 18.118 136.175 0.663 -0.654 0.365
-4.241 18.474 135.6 0.642 -0.535 0.548
-4.285 18.745 136.14 0.672 -0.716 0.188
-3.843 18.996 135.436 0.841 -0.274 0.467
-3.95 19.187 136.002 0.912 -0.401 0.089
-3.866 20.101 136.736 0.824 -0.511 0.244
-3.973 19.549 136.468 0.895 -0.142 0.422
-3.976 20.512 137.369 0.769 -0.306 0.561
-4.221 20.539 137.97 0.933 -0.324 0.16
-3.871 21.252 137.378 0.822 0.064 0.566
-4.116 21.279 137.98 0.985 0.046 0.165
-3.552 21.371 136.541 0.981 0.124 0.147
-3.555 21.635 136.496 0.983 -0.052 0.178
-4.974 23.113 135.803 0.618 0.781 0.088
-4.895 23.04 135.603 0.697 0.708 -0.112
-4.447 22.766 135.109 0.398 0.891 0.217
-3.973 22.195 134.951 0.982 0.188 0.022
-4.904 23.266 134.773 0.703 0.558 0.441
-5.194 23.626 134.3 0.423 0.906 -0.016
-5.45 23.804 134.023 0.593 0.787 0.168
-5.454 23.815 133.982 0.59 0.797 0.129
-5.239 23.961 133.339 0.447 0.7 0.557
-4.331 23.465 133.358 0.397 0.899 -0.187
-4.893 23.879 132.883 0.772 0.623 0.13
-5.088 24.589 132.47 0.902 0.15 0.405
-4.759 23.558 132.421 0.897 0.321 -0.304
-4.642 23.365 132.5 0.819 0.45 -0.357
-4.879 23.728 132.042 0.977 0.208 -0.051
-4.679 23.085 132.297 0.768 0.062 -0.638
-4.916 23.448 131.839 0.926 -0.18 -0.332
-5.02 24.891 131.109 0.826 0.55 -0.121
-5.114 25.105 131.242 0.889 0.408 -0.209
-5.394 24.68 130.329 0.515 0.374 -0.771
-5.594 24.833 130.238 0.649 0.272 -0.711
-5.478 23.795 130.272 0.445 -0.364 -0.818
-5.703 23.695 130.165 0.595 -0.297 -0.747
-5.86 24.524 133.588 0.861 0.325 0.391
-5.898 24.606 133.596 0.838 0.375 0.396
-6.023 24.96 133.647 0.921 0.139 0.363
-5.757 25.401 132.874 0.568 0.556 0.607
-6.147 25.459 133.456 0.828 0.517 0.219
-6.264 25.689 134.111 0.906 0.364 -0.218
-6.475 25.85 133.254 0.58 0.812 0.066
-6.377 26.221 131.619 0.258 0.966 -0.02
-6.547 26.295 131.812 0.371 0.917 -0.148
-6.591 25.943 133.237 0.657 0.75 0.077
-6.972 26.297 132.465 0.017 0.918 0.396
-7.13 26.186 133.119 0.122 0.992 -0.04
-7.25 26.384 133.761 0.202 0.86 -0.468
-7.707 26.07 132.99 -0.451 0.876 -0.169
-8.253 25.979 132.23 -0.087 0.937 0.338
-8.253 25.984 132.216 -0.087 0.943 0.322
-8.614 25.902 132.719 0.153 0.988 0.012
-8.27 25.962 133.198 -0.076 0.949 -0.307
-9.518 25.878 132.676 -0.138 0.709 0.692
-9.093 25.744 133.067 -0.421 0.798 0.43
-8.767 25.797 133.56 -0.639 0.763 0.102
-8.591 26.03 134.077 -0.756 0.608 -0.242
-9.339 25.221 133.273 -0.716 0.171 0.677
-9.023 25.254 133.773 -0.927 0.149 0.343
-6.002 24.534 134.634 0.913 0.392 -0.113
-6.311 25.275 135.094 0.872 0.069 0.484
-6.16 24.643 135.213 0.772 0.49 0.405
-5.785 24.154 135.45 0.522 0.816 0.247
-6.779 25.215 135.596 0.538 0.026 0.843
-6.575 24.59 135.657 0.401 0.443 0.802
-6.254 24.094 135.952 0.187 0.773 0.606
-7.123 24.39 135.835 -0.088 0.263 0.961
-8.139 25.047 135.67 -0.434 -0.094 0.896
-8.252 24.367 135.722 -0.359 0.36 0.861
-7.342 23.439 136.235 -0.246 0.559 0.792
-7.107 23.051 136.805 -0.403 0.817 0.412
-7.799 23.05 136.152 -0.672 0.197 0.714
-7.575 22.653 136.72 -0.821 0.461 0.336
-6.959 23.144 136.792 -0.502 0.756 0.421
-6.908 23.17 136.802 -0.462 0.776 0.429
-7.597 22.654 138.54 -0.264 0.941 -0.214
-8.098 22.156 138.144 -0.649 0.557 -0.518
-8.144 21.918 137.855 -0.618 0.715 -0.326
-8.169 21.861 137.785 -0.634 0.68 -0.368
-9.315 21.546 138.489 -0.663 0.672 -0.329
-9.23 22.079 138.921 -0.72 0.317 -0.617
-9.501 21.163 138.273 -0.766 0.459 -0.449
-9.977 20.665 138.222 -0.449 0.791 -0.415
-9.034 20.524 137.475 -0.6 0.41 -0.687
-9.015 20.402 137.398 -0.582 0.301 -0.755
-8.394 20.928 136.381 -0.996 -0.05 -0.077
-8.394 21.065 136.426 -0.996 0.086 -0.032
-8.389 20.835 136.321 -0.999 0.012 -0.037
-8.562 20.54 136.893 -0.884 0.208 -0.419
-8.997 20.307 137.342 -0.594 0.363 -0.718
-8.381 20.764 136.289 -0.98 -0.159 -0.115
-8.557 20.494 136.873 -0.863 0.021 -0.504
-8.989 20.23 137.307 -0.576 0.197 -0.794
-9.733 21.151 139.207 -0.86 0.504 -0.079
-9.649 20.749 139.961 -0.784 0.139 0.605
-9.812 19.729 140.113 -0.331 0.123 0.935
-9.314 20.106 140.41 -0.663 -0.128 0.738
-9.473 19.183 140.146 -0.089 -0.267 0.96
-8.931 19.489 140.448 -0.45 -0.471 0.759
-9.115 18.711 139.894 0.166 -0.604 0.779
-8.527 18.956 140.163 -0.226 -0.767 0.6
-8.815 18.413 139.409 0.381 -0.817 0.433
-8.188 18.619 139.615 -0.037 -0.954 0.296
-9.168 20.446 140.542 -0.582 0.06 0.811
-9.1 21.105 140.738 -0.627 -0.379 0.681
-8.553 20.338 140.829 -0.24 0.001 0.971
-8.556 21.009 140.992 -0.239 -0.447 0.862
-7.868 20.373 140.864 0.14 0.02 0.99
-7.949 21.04 141.023 0.195 -0.425 0.884
-7.242 20.543 140.639 0.489 0.115 0.865
-7.395 21.191 140.824 0.591 -0.317 0.742
-6.378 20.993 139.816 0.462 0.15 0.874
-6.211 20.361 139.679 0.565 -0.237 0.79
-6.107 20.318 139.6 0.495 -0.209 0.843
-6.14 19.714 139.194 0.466 -0.737 0.489
-6.251 19.633 139.19 0.54 -0.683 0.491
-6.556 19.226 138.516 0.354 -0.932 0.079
-5.068 19.56 138.214 0.509 -0.813 0.282
-4.962 19.672 138.433 0.439 -0.888 0.137
-4.366 20.239 138.029 0.86 -0.474 0.189
-4.416 20.2 138.288 0.894 -0.448 0.016
-4.321 21.063 138.582 0.883 -0.061 0.466
-4.381 20.842 138.719 0.923 0.086 0.375
-4.978 21.2 139.315 0.554 0.007 0.832
-4.892 20.948 139.289 0.497 0.175 0.85
-6.526 21.332 139.89 0.56 -0.076 0.825
-5.853 21.947 139.485 0.117 0.38 0.917
-6.522 21.936 139.766 0.563 0.388 0.73
-6.994 22.061 140.305 0.877 0.304 0.371
-6.725 22.43 139.46 0.407 0.768 0.494
-5.249 22.829 138.424 0.418 0.822 0.387
-5.472 22.977 138.412 0.567 0.723 0.395
-5.851 23.277 136.701 0.371 0.861 0.349
-5.728 23.236 136.65 0.467 0.828 0.309
-5.554 23.297 136.355 0.351 0.788 0.506
-5.072 23.202 135.776 0.684 0.722 0.106
-5.95 23.284 136.81 0.437 0.856 0.276
-6.793 23.199 136.891 -0.538 0.757 0.37
-6.756 22.527 139.35 0.428 0.703 0.567
-6.554 23.06 138.551 -0.335 0.792 0.511
-7.114 22.78 139.014 0.039 0.979 0.202
-7.659 22.897 139.559 0.402 0.901 -0.162
-7.47 22.711 138.597 -0.348 0.903 -0.252
-4.549 19.674 137.332 0.738 -0.502 0.451
-5.366 19.149 137.361 0.173 -0.865 0.471
-9.077 18.017 138.059 0.138 -0.88 0.455
-8.988 17.542 137.507 0.078 -0.563 0.823
-9.782 18.242 138.596 -0.31 -0.939 -0.148
-9.494 18.058 137.948 -0.503 -0.816 0.284
-9.385 17.581 137.401 -0.575 -0.498 0.648
-9.482 16.926 137.087 -0.51 -0.062 0.858
-9.741 18.295 137.684 -0.884 -0.451 -0.122
-9.621 17.808 137.149 -0.964 -0.126 0.234
-6.848 25.91 130.489 0.022 0.811 -0.585
-7.308 25.779 130.049 0.328 0.898 -0.292
-10.298 22.441 133.618 -0.797 -0.475 0.373
-10.324 22.495 133.627 -0.822 -0.422 0.383
-10.823 15.161 129.573 0.332 -0.8 -0.5
-11.142 15.037 129.473 0.546 -0.717 -0.433
-11.116 14.846 130.307 0.16 -0.985 -0.068
-11.387 14.774 130.087 0.341 -0.937 0.078
-11.779 14.918 130.834 -0.23 -0.943 0.242
-11.943 14.834 130.528 -0.121 -0.887 0.446
-12.511 15.343 130.915 -0.661 -0.692 0.29
-12.555 15.19 130.596 -0.632 -0.59 0.503
-12.979 15.928 130.513 -0.936 -0.348 0.053
-12.946 15.68 130.26 -0.958 -0.182 0.222
-11.781 18.532 126.142 -0.137 -0.295 -0.946
-11.91 18.715 126.085 -0.051 -0.417 -0.908
-12.609 18.532 126.473 -0.552 -0.295 -0.78
-12.555 18.715 126.342 -0.588 -0.417 -0.693
-12.995 19.301 126.71 -0.744 0.09 -0.662
-12.855 19.313 126.527 -0.838 0.082 -0.54
-12.552 20.07 126.616 -0.523 0.474 -0.708
-12.51 19.911 126.454 -0.551 0.58 -0.6
-11.724 20.07 126.285 -0.109 0.474 -0.874
-11.866 19.911 126.196 -0.014 0.58 -0.815
-7.128 20.388 131.287 0.642 -0.015 -0.767
-8.462 21.755 136.491 -0.898 0.305 0.319
-9.19 15.801 131.731 0.383 -0.576 -0.722
-6.478 20.293 131.799 0.383 0.206 -0.901
-6.964 21.042 131.412 0.707 -0.294 -0.643
-7.584 20.572 130.904 0.707 -0.294 -0.643
-8.606 20.18 134.718 -0.924 0.191 0.331
-8.931 20.316 134.165 -0.707 0.101 0.7
-8.931 20.908 134.25 -0.707 -0.294 0.643
-6.485 22.226 131.066 0.707 -0.595 -0.382
-9.353 24.783 133.486 -0.707 0.463 0.534
-8.059 21.863 136.934 -0.707 0.678 0.199
-8.466 20.238 136.613 -0.924 0.191 -0.331
-8.466 19.951 136.116 -0.924 0.383 0
-8.792 19.831 136.918 -0.707 0.463 -0.534
-6.599 19.076 138.033 0.383 -0.832 0.401
-4.911 23.085 135.136 0.707 0.678 0.199
-9.888 18.534 127.015 0.809 -0.294 -0.509
-9.888 19.122 126.857 0.809 -0 -0.588
-10.33 17.978 126.889 0.588 -0.572 -0.572
-10.33 18.503 126.538 0.588 -0.31 -0.747
-10.33 19.122 126.415 0.588 0 -0.809
-10.33 19.741 126.538 0.588 0.31 -0.747
-10.888 17.834 126.634 0.309 -0.644 -0.7
-10.888 18.358 126.291 0.309 -0.382 -0.871
-10.888 18.965 126.137 0.309 -0.079 -0.948
-10.888 19.589 126.189 0.309 0.233 -0.922
-11.506 18.122 126.301 -0 -0.5 -0.866
-11.506 20.369 126.469 -0 0.623 -0.782
-12.124 20.623 126.865 -0.309 0.751 -0.584
-12.682 20.617 127.414 -0.588 0.747 -0.31
-13.124 20.298 128.033 -0.809 0.588 0
-13.124 20.14 128.621 -0.809 0.509 0.294
-13.124 19.71 129.051 -0.809 0.294 0.509
-13.124 18.534 127.015 -0.809 -0.294 -0.509
-13.124 19.71 127.015 -0.809 0.294 -0.509
-13.124 20.14 127.445 -0.809 0.509 -0.294
-13.408 19.74 128.033 -0.951 0.309 0
-13.408 19.431 128.568 -0.951 0.155 0.268
-13.408 18.813 127.498 -0.951 -0.155 -0.268
-13.408 19.431 127.498 -0.951 0.155 -0.268
-13.506 19.122 128.033 -1 -0 -0
-11.387 16.497 127.725 0.174 -0.837 -0.518
-11.977 16.497 127.725 -0.174 -0.837 -0.518
-11.977 16.911 127.27 -0.174 -0.593 -0.786
-12.532 16.729 127.741 -0.5 -0.701 -0.509
-12.984 17.204 127.78 -0.766 -0.421 -0.486
-13.279 17.339 128.606 -0.94 -0.342 -0
-9.591 16.699 129.27 0.809 -0.509 -0.294
-9.591 17.129 128.84 0.809 -0.294 -0.509
-10.033 16.573 128.714 0.588 -0.572 -0.572
-8.537 19.659 129.25 0.951 -0.155 -0.268
-8.821 19.38 128.767 0.809 -0.294 -0.509
-11.197 21.438 127.41 -0.174 0.728 -0.663
-11.752 21.546 127.939 -0.5 0.791 -0.352
-13.111 18.026 130.393 -0.951 0.155 0.268
-12.164 19.377 131.52 -0.809 0.294 0.509
-10.086 15.472 130.115 0.766 -0.617 -0.181
-10.538 15.08 130.117 0.5 -0.847 -0.18
-12.238 15.329 131.288 -0.5 -0.701 0.509
-12.69 16.364 131.505 -0.766 -0.091 0.636
-12.69 15.804 131.249 -0.766 -0.421 0.486
-12.985 16.229 130.927 -0.94 -0.171 0.296
-11.797 14.733 129.706 -0 -0.971 -0.239
-11.797 15 129.197 -0 -0.749 -0.663
-12.397 14.901 130.286 -0.5 -0.831 0.244
-12.397 14.901 129.7 -0.5 -0.831 -0.244
-12.397 15.217 129.208 -0.5 -0.567 -0.654
-12.836 15.298 129.993 -0.866 -0.5 -0
-6.986 15.549 132.67 0.5 -0.847 -0.18
-7.541 15.566 132.095 0.174 -0.837 -0.518
-7.541 15.98 131.64 0.174 -0.593 -0.786
-4.903 17.931 131.577 0.901 -0.217 -0.376
-4.903 18.539 131.577 0.901 0.217 -0.376
-5.291 17.518 131.276 0.623 -0.512 -0.591
-5.291 18.079 131.02 0.623 -0.111 -0.774
-5.291 18.69 131.107 0.623 0.325 -0.711
-5.852 17.384 131.036 0.223 -0.608 -0.762
-5.852 17.931 130.772 0.223 -0.217 -0.95
-5.852 18.539 130.772 0.223 0.217 -0.95
-5.852 19.086 131.036 0.223 0.608 -0.762
-8.254 21.612 128.807 0.588 -0.31 -0.747
-12.102 23.856 131.107 -0.866 0.5 0
-12.102 23.556 130.587 -0.866 0.25 -0.433
-12.263 23.256 131.107 -1 0 0
-11.291 23.782 132.785 -0.588 0.31 0.747
-11.733 23.751 132.308 -0.809 0.294 0.509
-11.733 23.163 132.466 -0.809 -0 0.588
-11.733 22.575 132.308 -0.809 -0.294 0.509
-10.686 20.152 133.381 -0.588 -0 0.809
-11.257 18.762 132.832 -0.766 -0.091 0.636
-8.676 14.293 134.181 0.5 -0.847 0.18
-8.676 14.293 133.569 0.5 -0.847 -0.18
-9.231 14.087 134.183 0.174 -0.968 0.181
-9.821 14.087 134.183 -0.174 -0.968 0.181
-7.394 15.033 134.041 0.588 -0.809 0
-5.23 16.741 133.086 0.809 -0.588 0
-5.672 16.422 133.705 0.588 -0.747 0.31
-5.672 16.299 133.086 0.588 -0.809 0
-5.672 16.422 132.467 0.588 -0.747 -0.31
-3.727 18.891 133.494 0.866 -0.25 -0.433
-3.361 21.566 133.412 1 0 0
-3.5 21.262 132.886 0.901 -0.217 -0.376
-3.5 21.87 132.886 0.901 0.217 -0.376
-3.888 21.41 132.329 0.623 -0.111 -0.774
-3.888 22.021 132.416 0.623 0.325 -0.711
-7.187 21.824 129.605 0.623 -0.512 -0.591
-6.789 23.363 129.137 0.588 -0.31 -0.747
-9.773 25.11 128.094 -0 0.121 -0.993
-9.773 25.647 128.297 -0 0.568 -0.823
-10.373 24.817 128.256 -0.5 -0.123 -0.857
-10.373 25.397 128.34 -0.5 0.36 -0.788
-9.63 26.653 130.042 0.223 0.975 0
-9.63 26.518 129.45 0.223 0.878 -0.423
-10.254 26.653 130.042 -0.223 0.975 0
-10.254 26.518 129.45 -0.223 0.878 -0.423
-10.815 26.383 130.042 -0.623 0.782 0
-10.815 26.209 129.45 -0.623 0.658 -0.423
-11.203 25.895 130.042 -0.901 0.434 0
-11.203 25.592 129.516 -0.901 0.217 -0.376
-10.972 25.482 131.644 -0.809 0.509 0.294
-9.769 23.462 135.34 -0.623 0.325 0.711
-9.769 22.851 135.427 -0.623 -0.111 0.774
-9.769 22.29 135.171 -0.623 -0.512 0.591
-10.157 23.311 134.87 -0.901 0.217 0.376
-10.157 22.703 134.87 -0.901 -0.217 0.376
-10.256 17.857 135.322 -0.951 0.309 0
-10.256 17.548 135.857 -0.951 0.155 0.268
-10.014 14.597 135.338 -0 -0.749 0.663
-10.614 14.814 135.327 -0.5 -0.567 0.654
-10.614 14.498 134.835 -0.5 -0.831 0.244
-11.053 15.795 135.062 -0.866 0.25 0.433
-11.053 15.195 135.062 -0.866 -0.25 0.433
-7.178 15.744 135.941 0.588 -0.747 0.31
-7.736 16.475 137.064 0.309 -0.382 0.871
-7.736 15.951 136.721 0.309 -0.644 0.7
-7.736 15.566 136.227 0.309 -0.836 0.453
-8.354 15.773 136.682 -0 -0.733 0.68
-8.354 15.437 136.19 -0 -0.901 0.434
-6.202 17.53 136.917 0.588 -0.31 0.747
-6.202 17.005 136.566 0.588 -0.572 0.572
-6.76 17.385 137.164 0.309 -0.382 0.871
-3.623 19.236 135.038 0.951 -0.155 0.268
-3.907 18.527 135.091 0.809 -0.509 0.294
-4.349 18.05 135.122 0.588 -0.747 0.31
-3.613 20.814 136.782 0.951 -0.155 0.268
-3.695 22.297 136.283 0.866 0.5 0
-4.134 22.736 136.283 0.5 0.866 0
-3.768 22.987 133.583 0.866 0.5 0
-4.973 23.931 130.734 0.866 -0.25 -0.433
-4.973 24.531 130.734 0.866 0.25 -0.433
-5.274 25.465 131.659 0.809 0.588 0
-5.274 25.307 132.247 0.809 0.509 0.294
-5.716 25.907 131.659 0.588 0.809 0
-5.716 25.784 132.278 0.588 0.747 0.31
-5.716 25.433 130.515 0.588 0.572 -0.572
-5.716 25.784 131.04 0.588 0.747 -0.31
-6.274 25.79 130.491 0.309 0.751 -0.584
-6.274 26.088 131.041 0.309 0.9 -0.309
-7.102 24.88 128.878 0.5 0.36 -0.788
-6.992 26.395 131.99 -0 1 0
-6.659 26.274 134.416 0.623 0.782 0
-6.659 26.1 135.008 0.623 0.658 0.423
-6.659 25.634 135.412 0.623 0.325 0.711
-7.22 26.544 134.416 0.223 0.975 0
-7.22 26.409 135.008 0.223 0.878 0.423
-7.22 26.03 135.483 0.223 0.608 0.762
-7.22 25.483 135.747 0.223 0.217 0.95
-7.844 26.544 134.416 -0.223 0.975 0
-7.844 26.409 135.008 -0.223 0.878 0.423
-7.844 26.03 135.483 -0.223 0.608 0.762
-7.844 25.483 135.747 -0.223 0.217 0.95
-8.405 26.274 134.416 -0.623 0.782 0
-8.405 26.1 135.008 -0.623 0.658 0.423
-8.405 25.634 135.412 -0.623 0.325 0.711
-9.66 18.706 139.87 -0.223 -0.608 0.762
-9.66 18.327 139.395 -0.223 -0.878 0.423
-10.221 19.401 139.886 -0.623 -0.111 0.774
-10.221 18.84 139.63 -0.623 -0.512 0.591
-10.221 18.507 139.111 -0.623 -0.75 0.22
-10.221 20.012 137.807 -0.623 0.325 -0.711
-10.609 20.164 138.803 -0.901 0.434 0
-10.609 19.861 139.329 -0.901 0.217 0.376
-10.609 19.253 139.329 -0.901 -0.217 0.376
-10.609 18.95 138.803 -0.901 -0.434 -0
-10.609 19.253 138.277 -0.901 -0.217 -0.376
-10.609 19.861 138.277 -0.901 0.217 -0.376
-10.748 19.557 138.803 -1 0 0
-9.47 16.319 136.843 -0.5 -0.567 0.654
-7.221 19.74 140.522 0.5 -0.331 0.8
-7.221 19.235 140.184 0.5 -0.612 0.612
-7.221 18.897 139.679 0.5 -0.8 0.331
-7.808 20.029 140.828 0.174 -0.171 0.97
-7.808 19.451 140.617 0.174 -0.492 0.853
-7.808 18.979 140.221 0.174 -0.754 0.633
-7.808 18.671 139.688 0.174 -0.925 0.337
-8.434 19.451 140.617 -0.174 -0.492 0.853
-4.468 22.204 138.238 0.809 0.509 0.294
-4.468 21.774 138.668 0.809 0.294 0.509
-4.91 22.681 138.269 0.588 0.747 0.31
-4.91 22.33 138.794 0.588 0.572 0.572
-4.91 21.805 139.145 0.588 0.31 0.747
-5.468 22.226 139.242 0.309 0.52 0.796
-5.468 21.653 139.494 0.309 0.233 0.922
-4.353 19.031 136.704 0.623 -0.512 0.591
-6.152 23.173 138.496 -0 0.885 0.465
-7.349 22.556 140.377 0.623 0.658 0.423
-7.349 22.09 140.781 0.623 0.325 0.711
-7.91 23 139.785 0.223 0.975 0
-7.91 22.865 140.377 0.223 0.878 0.423
-7.91 22.486 140.852 0.223 0.608 0.762
-7.91 21.939 141.116 0.223 0.217 0.95
-8.534 23 139.785 -0.223 0.975 0
-8.534 22.865 140.377 -0.223 0.878 0.423
-8.534 22.486 140.852 -0.223 0.608 0.762
-8.534 21.939 141.116 -0.223 0.217 0.95
-8.534 21.331 141.116 -0.223 -0.217 0.95
-8.534 22.865 139.193 -0.223 0.878 -0.423
-9.095 22.73 139.785 -0.623 0.782 0
-9.095 22.556 140.377 -0.623 0.658 0.423
-9.095 22.09 140.781 -0.623 0.325 0.711
-9.095 21.479 140.868 -0.623 -0.111 0.774
-9.095 22.556 139.193 -0.623 0.658 -0.423
-9.483 22.242 139.785 -0.901 0.434 0
-9.483 21.939 140.311 -0.901 0.217 0.376
-4.45 20.438 138.789 0.866 -0.25 0.433
-4.889 20.59 139.298 0.5 -0.123 0.857
-4.889 20.057 139.054 0.5 -0.567 0.654
-11.849 19.36 125.983 -0 0.121 -0.993
-12.449 19.067 126.145 -0.5 -0.123 -0.857
-12.449 19.647 126.229 -0.5 0.36 -0.788
3 0 432 1
3 1 432 433
3 432 434 433
3 433 434 435
3 434 436 435
3 435 436 437
3 436 438 437
3 437 438 439
3 438 440 439
3 439 440 441
3 440 442 441
3 441 442 443
3 442 444 443
3 443 444 445
3 444 4 445
3 445 4 3
3 4 7 5
3 5 7 6
3 7 10 8
3 8 10 9
3 10 446 11
3 11 446 447
3 446 448 447
3 447 448 449
3 448 450 449
3 449 450 451
3 450 452 451
3 451 452 453
3 452 454 453
3 453 454 455
3 454 456 455
3 455 456 457
3 456 458 457
3 457 458 459
3 458 460 459
3 459 460 461
3 460 13 461
3 461 13 12
3 13 16 14
3 14 16 15
3 16 0 17
3 17 0 2
3 17 19 15
3 15 19 18
3 19 462 20
3 20 462 463
3 462 464 463
3 463 464 465
3 464 22 465
3 465 22 21
3 22 466 23
3 23 466 467
3 466 468 467
3 467 468 469
3 468 470 469
3 469 470 471
3 470 25 471
3 471 25 24
3 25 472 26
3 26 472 473
3 472 2 473
3 473 2 1
3 26 28 24
3 24 28 27
3 28 475 474
3 474 475 476
3 474 476 29
3 29 476 477
3 475 478 476
3 476 478 479
3 476 479 477
3 477 479 480
3 478 31 479
3 479 31 481
3 479 481 480
3 480 481 30
3 31 34 32
3 32 34 33
3 34 482 35
3 35 482 483
3 482 3 483
3 483 3 5
3 35 484 33
3 33 484 485
3 484 486 485
3 485 486 487
3 486 37 487
3 487 37 36
3 37 40 488
3 488 40 490
3 488 490 489
3 489 490 491
3 489 491 38
3 38 491 39
3 40 492 41
3 41 492 493
3 492 43 493
3 493 43 42
3 43 6 44
3 44 6 8
3 44 46 42
3 42 46 45
3 46 49 494
3 494 49 497
3 494 497 495
3 495 497 498
3 495 498 496
3 496 498 499
3 496 499 47
3 47 499 48
3 49 52 50
3 50 52 51
3 52 55 53
3 53 55 54
3 55 500 56
3 56 500 501
3 500 58 501
3 501 58 57
3 58 9 59
3 59 9 11
3 59 61 502
3 502 61 503
3 502 503 57
3 57 503 60
3 61 505 504
3 504 505 506
3 504 506 62
3 62 506 507
3 505 64 506
3 506 64 508
3 506 508 507
3 507 508 63
3 64 67 509
3 509 67 510
3 509 510 65
3 65 510 66
3 67 70 511
3 511 70 513
3 511 513 512
3 512 513 514
3 512 514 68
3 68 514 69
3 70 73 515
3 515 73 517
3 515 517 516
3 516 517 518
3 516 518 71
3 71 518 72
3 73 12 74
3 74 12 14
3 74 76 519
3 519 76 521
3 519 521 520
3 520 521 522
3 520 522 72
3 72 522 75
3 76 79 523
3 523 79 524
3 523 524 77
3 77 524 78
3 79 82 80
3 80 82 81
3 82 525 83
3 83 525 526
3 525 18 526
3 526 18 20
3 83 85 81
3 81 85 84
3 85 527 86
3 86 527 528
3 527 88 528
3 528 88 87
3 88 21 89
3 89 21 23
3 89 91 529
3 529 91 530
3 529 530 87
3 87 530 90
3 91 531 92
3 92 531 532
3 531 94 532
3 532 94 93
3 94 535 533
3 533 535 536
3 533 536 534
3 534 536 537
3 534 537 95
3 95 537 538
3 535 539 536
3 536 539 540
3 536 540 537
3 537 540 541
3 537 541 538
3 538 541 542
3 539 97 540
3 540 97 543
3 540 543 541
3 541 543 544
3 541 544 542
3 542 544 96
3 97 36 545
3 545 36 547
3 545 547 546
3 546 547 548
3 546 548 98
3 98 548 38
3 98 100 549
3 549 100 550
3 549 550 96
3 96 550 99
3 100 103 101
3 101 103 102
3 103 551 104
3 104 551 552
3 551 106 552
3 552 106 105
3 106 553 107
3 107 553 554
3 553 555 554
3 554 555 556
3 555 557 556
3 556 557 558
3 557 559 558
3 558 559 560
3 559 109 560
3 560 109 108
3 109 39 561
3 561 39 563
3 561 563 562
3 562 563 564
3 562 564 110
3 110 564 41
3 110 112 565
3 565 112 567
3 565 567 566
3 566 567 568
3 566 568 108
3 108 568 111
3 112 45 569
3 569 45 572
3 569 572 570
3 570 572 573
3 570 573 571
3 571 573 574
3 571 574 113
3 113 574 47
3 113 575 111
3 111 575 576
3 575 577 576
3 576 577 578
3 577 579 578
3 578 579 580
3 579 581 580
3 580 581 582
3 581 115 582
3 582 115 114
3 115 118 583
3 583 118 584
3 583 584 116
3 116 584 117
3 118 121 585
3 585 121 586
3 585 586 119
3 119 586 120
3 121 124 587
3 587 124 589
3 587 589 588
3 588 589 590
3 588 590 122
3 122 590 123
3 124 127 591
3 591 127 592
3 591 592 125
3 125 592 126
3 128 593 131
3 131 593 594
3 594 593 130
3 127 132 595
3 595 132 596
3 595 596 129
3 132 48 597
3 597 48 599
3 597 599 598
3 598 599 600
3 598 600 133
3 133 600 50
3 133 135 601
3 601 135 602
3 601 602 131
3 131 602 134
3 135 138 136
3 136 138 137
3 138 51 139
3 139 51 53
3 139 54 137
3 137 54 56
3 136 603 134
3 134 603 604
3 603 141 604
3 604 141 140
3 141 605 142
3 142 605 606
3 605 144 606
3 606 144 143
3 144 147 607
3 607 147 608
3 607 608 145
3 145 608 146
3 147 60 148
3 148 60 62
3 148 610 609
3 609 610 611
3 609 611 146
3 146 611 612
3 610 150 611
3 611 150 613
3 611 613 612
3 612 613 149
3 150 63 151
3 151 63 65
3 151 153 614
3 614 153 615
3 614 615 149
3 149 615 152
3 153 66 154
3 154 66 68
3 154 156 616
3 616 156 617
3 616 617 152
3 152 617 155
3 156 159 618
3 618 159 619
3 618 619 157
3 157 619 158
3 159 69 160
3 160 69 71
3 160 162 620
3 620 162 621
3 620 621 158
3 158 621 161
3 162 622 163
3 163 622 623
3 622 624 623
3 623 624 625
3 624 75 625
3 625 75 77
3 163 165 626
3 626 165 627
3 626 627 161
3 161 627 164
3 165 628 166
3 166 628 629
3 628 630 629
3 629 630 631
3 630 168 631
3 631 168 167
3 168 633 632
3 632 633 634
3 632 634 169
3 169 634 635
3 633 636 634
3 634 636 637
3 634 637 635
3 635 637 638
3 636 171 637
3 637 171 639
3 637 639 638
3 638 639 170
3 171 174 172
3 172 174 173
3 174 641 640
3 640 641 642
3 640 642 175
3 175 642 643
3 641 78 642
3 642 78 644
3 642 644 643
3 643 644 80
3 175 177 645
3 645 177 646
3 645 646 173
3 173 646 176
3 177 180 647
3 647 180 649
3 647 649 648
3 648 649 650
3 648 650 178
3 178 650 179
3 180 183 651
3 651 183 653
3 651 653 652
3 652 653 654
3 652 654 181
3 181 654 182
3 183 186 655
3 655 186 657
3 655 657 656
3 656 657 658
3 656 658 184
3 184 658 185
3 186 659 187
3 187 659 660
3 659 84 660
3 660 84 86
3 187 189 661
3 661 189 663
3 661 663 662
3 662 663 664
3 662 664 185
3 185 664 188
3 189 192 665
3 665 192 666
3 665 666 190
3 190 666 191
3 192 195 667
3 667 195 669
3 667 669 668
3 668 669 670
3 668 670 193
3 193 670 194
3 195 90 671
3 671 90 672
3 671 672 196
3 196 672 92
3 196 674 673
3 673 674 675
3 673 675 194
3 194 675 676
3 674 198 675
3 675 198 677
3 675 677 676
3 676 677 197
3 198 93 678
3 678 93 679
3 678 679 199
3 199 679 95
3 199 680 197
3 197 680 681
3 680 682 681
3 681 682 683
3 682 684 683
3 683 684 685
3 684 99 685
3 685 99 101
3 193 201 191
3 191 201 200
3 201 204 202
3 202 204 203
3 204 686 205
3 205 686 687
3 686 688 687
3 687 688 689
3 688 690 689
3 689 690 691
3 690 692 691
3 691 692 693
3 692 694 693
3 693 694 695
3 694 207 695
3 695 207 206
3 207 210 208
3 208 210 209
3 210 696 211
3 211 696 697
3 696 698 697
3 697 698 699
3 698 700 699
3 699 700 701
3 700 102 701
3 701 102 104
3 211 702 209
3 209 702 703
3 702 704 703
3 703 704 705
3 704 213 705
3 705 213 212
3 213 216 214
3 214 216 215
3 216 105 217
3 217 105 107
3 217 219 215
3 215 219 218
3 219 222 220
3 220 222 221
3 222 225 223
3 223 225 224
3 225 114 706
3 706 114 707
3 706 707 226
3 226 707 116
3 226 708 224
3 224 708 709
3 708 228 709
3 709 228 227
3 228 231 710
3 710 231 711
3 710 711 229
3 229 711 230
3 231 117 232
3 232 117 119
3 232 120 230
3 230 120 122
3 229 234 227
3 227 234 233
3 234 237 712
3 712 237 713
3 712 713 235
3 235 713 236
3 237 240 714
3 714 240 715
3 714 715 238
3 238 715 239
3 240 716 241
3 241 716 717
3 716 718 717
3 717 718 719
3 718 243 719
3 719 243 242
3 243 246 720
3 720 246 722
3 720 722 721
3 721 722 723
3 721 723 244
3 244 723 245
3 246 249 724
3 724 249 726
3 724 726 725
3 725 726 727
3 725 727 247
3 247 727 248
3 249 123 250
3 250 123 125
3 250 252 728
3 728 252 730
3 728 730 729
3 729 730 731
3 729 731 248
3 248 731 251
3 252 126 732
3 732 126 734
3 732 734 733
3 733 734 735
3 733 735 253
3 253 735 128
3 253 255 736
3 736 255 737
3 736 737 251
3 251 737 254
3 255 738 256
3 256 738 739
3 738 140 739
3 739 140 142
3 256 740 254
3 254 740 741
3 740 742 741
3 741 742 743
3 742 744 743
3 743 744 745
3 744 258 745
3 745 258 257
3 258 746 259
3 259 746 747
3 746 261 747
3 747 261 260
3 261 143 748
3 748 143 749
3 748 749 262
3 262 749 145
3 262 751 750
3 750 751 752
3 750 752 260
3 260 752 753
3 751 264 752
3 752 264 754
3 752 754 753
3 753 754 263
3 264 755 265
3 265 755 756
3 755 757 756
3 756 757 758
3 757 759 758
3 758 759 760
3 759 155 760
3 760 155 157
3 265 267 761
3 761 267 762
3 761 762 263
3 263 762 266
3 267 270 763
3 763 270 764
3 763 764 268
3 268 764 269
3 270 765 271
3 271 765 766
3 765 767 766
3 766 767 768
3 767 769 768
3 768 769 770
3 769 771 770
3 770 771 772
3 771 164 772
3 772 164 166
3 271 273 269
3 269 273 272
3 273 276 274
3 274 276 275
3 276 279 773
3 773 279 774
3 773 774 277
3 277 774 278
3 279 775 280
3 280 775 776
3 775 282 776
3 776 282 281
3 282 167 777
3 777 167 779
3 777 779 778
3 778 779 780
3 778 780 283
3 283 780 169
3 283 285 781
3 781 285 783
3 781 783 782
3 782 783 784
3 782 784 281
3 281 784 284
3 285 288 785
3 785 288 786
3 785 786 286
3 286 786 287
3 288 787 289
3 289 787 788
3 787 291 788
3 788 291 290
3 291 294 789
3 789 294 792
3 789 792 790
3 790 792 793
3 790 793 791
3 791 793 794
3 791 794 292
3 292 794 293
3 295 795 298
3 298 795 796
3 796 795 297
3 294 299 797
3 797 299 798
3 797 798 296
3 299 302 799
3 799 302 802
3 799 802 800
3 800 802 803
3 800 803 801
3 801 803 804
3 801 804 300
3 300 804 301
3 302 305 805
3 805 305 806
3 805 806 303
3 303 806 304
3 305 179 807
3 807 179 810
3 807 810 808
3 808 810 811
3 808 811 809
3 809 811 812
3 809 812 306
3 306 812 181
3 306 308 813
3 813 308 814
3 813 814 304
3 304 814 307
3 308 311 815
3 815 311 817
3 815 817 816
3 816 817 818
3 816 818 309
3 309 818 310
3 311 182 312
3 312 182 184
3 312 821 819
3 819 821 822
3 819 822 820
3 820 822 823
3 820 823 310
3 310 823 824
3 821 314 822
3 822 314 825
3 822 825 823
3 823 825 826
3 823 826 824
3 824 826 313
3 314 317 315
3 315 317 316
3 317 203 827
3 827 203 828
3 827 828 318
3 318 828 205
3 318 320 829
3 829 320 830
3 829 830 316
3 316 830 319
3 320 206 831
3 831 206 832
3 831 832 321
3 321 832 208
3 321 323 319
3 319 323 322
3 323 326 833
3 833 326 835
3 833 835 834
3 834 835 836
3 834 836 324
3 324 836 325
3 326 329 837
3 837 329 840
3 837 840 838
3 838 840 841
3 838 841 839
3 839 841 842
3 839 842 327
3 327 842 328
3 329 843 330
3 330 843 844
3 843 845 844
3 844 845 846
3 845 847 846
3 846 847 848
3 847 849 848
3 848 849 850
3 849 212 850
3 850 212 214
3 330 332 851
3 851 332 853
3 851 853 852
3 852 853 854
3 852 854 328
3 328 854 331
3 332 335 855
3 855 335 857
3 855 857 856
3 856 857 858
3 856 858 333
3 333 858 334
3 335 338 859
3 859 338 860
3 859 860 336
3 336 860 337
3 338 341 339
3 339 341 340
3 341 218 342
3 342 218 220
3 342 221 340
3 340 221 223
3 339 861 337
3 337 861 862
3 861 863 862
3 862 863 864
3 863 344 864
3 864 344 343
3 344 233 345
3 345 233 235
3 345 865 343
3 343 865 866
3 865 347 866
3 866 347 346
3 347 867 348
3 348 867 868
3 867 869 868
3 868 869 870
3 869 350 870
3 870 350 349
3 350 871 351
3 351 871 872
3 871 236 872
3 872 236 238
3 351 353 349
3 349 353 352
3 353 356 354
3 354 356 355
3 356 359 873
3 873 359 874
3 873 874 357
3 357 874 358
3 359 239 875
3 875 239 876
3 875 876 360
3 360 876 241
3 360 362 877
3 877 362 878
3 877 878 358
3 358 878 361
3 362 365 879
3 879 365 880
3 879 880 363
3 363 880 364
3 365 882 881
3 881 882 883
3 881 883 366
3 366 883 884
3 882 368 883
3 883 368 885
3 883 885 884
3 884 885 367
3 368 242 886
3 886 242 888
3 886 888 887
3 887 888 889
3 887 889 369
3 369 889 244
3 369 890 367
3 367 890 891
3 890 892 891
3 891 892 893
3 892 894 893
3 893 894 895
3 894 245 895
3 895 245 247
3 366 371 896
3 896 371 897
3 896 897 364
3 364 897 370
3 371 899 898
3 898 899 900
3 898 900 372
3 372 900 901
3 899 374 900
3 900 374 902
3 900 902 901
3 901 902 373
3 374 903 375
3 375 903 904
3 903 275 904
3 904 275 277
3 375 906 905
3 905 906 907
3 905 907 373
3 373 907 908
3 906 377 907
3 907 377 909
3 907 909 908
3 908 909 376
3 377 278 910
3 910 278 911
3 910 911 378
3 378 911 280
3 378 914 912
3 912 914 915
3 912 915 913
3 913 915 916
3 913 916 376
3 376 916 917
3 914 284 915
3 915 284 918
3 915 918 916
3 916 918 919
3 916 919 917
3 917 919 286
3 372 380 370
3 370 380 379
3 380 921 920
3 920 921 922
3 920 922 381
3 381 922 923
3 921 924 922
3 922 924 925
3 922 925 923
3 923 925 926
3 924 383 925
3 925 383 927
3 925 927 926
3 926 927 382
3 383 928 384
3 384 928 929
3 928 287 929
3 929 287 289
3 384 386 382
3 382 386 385
3 386 290 930
3 930 290 932
3 930 932 931
3 931 932 933
3 931 933 387
3 387 933 292
3 387 389 934
3 934 389 935
3 934 935 385
3 385 935 388
3 389 392 390
3 390 392 391
3 392 395 936
3 936 395 937
3 936 937 393
3 393 937 394
3 395 293 938
3 938 293 939
3 938 939 396
3 396 939 295
3 396 940 394
3 394 940 941
3 940 398 941
3 941 398 397
3 398 942 399
3 399 942 943
3 942 401 943
3 943 401 400
3 401 298 402
3 402 298 300
3 402 404 944
3 944 404 945
3 944 945 400
3 400 945 403
3 404 301 946
3 946 301 947
3 946 947 405
3 405 947 303
3 405 307 948
3 948 307 951
3 948 951 949
3 949 951 952
3 949 952 950
3 950 952 953
3 950 953 403
3 403 953 309
3 399 407 954
3 954 407 955
3 954 955 397
3 397 955 406
3 407 956 408
3 408 956 957
3 956 958 957
3 957 958 959
3 958 960 959
3 959 960 961
3 960 962 961
3 961 962 963
3 962 325 963
3 963 325 327
3 408 964 406
3 406 964 965
3 964 966 965
3 965 966 967
3 966 968 967
3 967 968 969
3 968 970 969
3 969 970 971
3 970 410 971
3 971 410 409
3 410 413 972
3 972 413 973
3 972 973 411
3 411 973 412
3 413 416 974
3 974 416 975
3 974 975 414
3 414 975 415
3 416 331 976
3 976 331 977
3 976 977 417
3 417 977 333
3 417 978 415
3 415 978 979
3 978 980 979
3 979 980 981
3 980 982 981
3 981 982 983
3 982 984 983
3 983 984 985
3 984 412 985
3 985 412 414
3 411 987 986
3 986 987 988
3 986 988 409
3 409 988 989
3 987 419 988
3 988 419 990
3 988 990 989
3 989 990 418
3 419 991 420
3 420 991 992
3 991 422 992
3 992 422 421
3 422 425 993
3 993 425 994
3 993 994 423
3 423 994 424
3 425 352 426
3 426 352 354
3 426 355 995
3 995 355 996
3 995 996 424
3 424 996 357
3 423 388 997
3 997 388 998
3 997 998 421
3 421 998 390
3 420 1000 999
3 999 1000 1001
3 999 1001 418
3 418 1001 1002
3 1000 391 1001
3 1001 391 1003
3 1001 1003 1002
3 1002 1003 393
3 381 361 379
3 379 361 363
3 348 334 1004
3 1004 334 1005
3 1004 1005 346
3 346 1005 336
3 324 1008 1006
3 1006 1008 1009
3 1006 1009 1007
3 1007 1009 1010
3 1007 1010 322
3 322 1010 1011
3 1008 313 1009
3 1009 313 1012
3 1009 1012 1010
3 1010 1012 1013
3 1010 1013 1011
3 1011 1013 315
3 274 1014 272
3 272 1014 1015
3 1014 428 1015
3 1015 428 427
3 428 257 429
3 429 257 259
3 429 266 427
3 427 266 268
3 202 188 200
3 200 188 190
3 178 170 1016
3 1016 170 1017
3 1016 1017 176
3 176 1017 172
3 32 1018 30
3 30 1018 1019
3 1018 1020 1019
3 1019 1020 1021
3 1020 1022 1021
3 1021 1022 1023
3 1022 1024 1023
3 1023 1024 1025
3 1024 1026 1025
3 1025 1026 1027
3 1026 27 1027
3 1027 27 29
3 430 1028 431
3 431 1028 1029
3 1028 1030 1029
3 1029 1030 1031
3 1030 1032 1031
3 1031 1032 1033
3 1032 1034 1033
3 1033 1034 1035
3 1034 1036 1035
3 1035 1036 1037
3 1036 430 1037
3 1037 430 431
3 2 0 1
3 5 3 4
3 8 6 7
3 11 9 10
3 14 12 13
3 17 15 16
3 20 18 19
3 23 21 22
3 26 24 25
3 29 27 474
3 474 27 28
3 32 30 481
3 32 481 31
3 35 33 34
3 547 36 488
3 547 488 489
3 547 489 548
3 548 489 38
3 488 36 37
3 563 39 491
3 563 491 564
3 564 491 490
3 564 490 41
3 41 490 40
3 44 42 43
3 572 45 494
3 572 494 495
3 572 495 573
3 573 495 496
3 573 496 574
3 574 496 47
3 494 45 46
3 599 48 499
3 599 499 600
3 600 499 498
3 600 498 50
3 50 498 497
3 50 497 49
3 53 51 52
3 56 54 55
3 502 57 58
3 502 58 59
3 62 60 503
3 62 503 504
3 504 503 61
3 65 63 509
3 509 63 508
3 509 508 64
3 68 66 512
3 512 66 510
3 512 510 511
3 511 510 67
3 71 69 516
3 516 69 514
3 516 514 515
3 515 514 513
3 515 513 70
3 520 72 518
3 520 518 519
3 519 518 517
3 519 517 74
3 74 517 73
3 77 75 522
3 77 522 523
3 523 522 521
3 523 521 76
3 644 78 524
3 644 524 80
3 80 524 79
3 83 81 82
3 86 84 85
3 529 87 88
3 529 88 89
3 672 90 530
3 672 530 92
3 92 530 91
3 679 93 533
3 679 533 534
3 679 534 95
3 533 93 94
3 549 96 1040
3 549 1040 546
3 549 546 98
3 546 1040 545
3 545 1040 544
3 545 544 543
3 545 543 97
3 544 1040 96
3 101 99 550
3 101 550 100
3 104 102 103
3 107 105 106
3 566 108 109
3 566 109 561
3 566 561 565
3 565 561 562
3 565 562 110
3 113 111 571
3 571 111 568
3 571 568 570
3 570 568 567
3 570 567 569
3 569 567 112
3 707 114 583
3 707 583 116
3 583 114 115
3 119 117 584
3 119 584 585
3 585 584 118
3 122 120 588
3 588 120 587
3 587 120 586
3 587 586 121
3 125 123 590
3 125 590 591
3 591 590 589
3 591 589 124
3 734 126 1041
3 734 1041 1042
3 734 1042 735
3 735 1042 593
3 735 593 128
3 593 1042 130
3 130 1042 1038
3 1038 1042 1041
3 1038 1041 129
3 129 1041 595
3 595 1041 592
3 595 592 127
3 592 1041 126
3 601 131 594
3 601 594 1043
3 601 1043 133
3 133 1043 598
3 598 1043 1038
3 598 1038 129
3 598 129 597
3 597 129 596
3 597 596 132
3 1038 1043 130
3 130 1043 594
3 136 134 602
3 136 602 135
3 139 137 138
3 142 140 141
3 749 143 607
3 749 607 145
3 607 143 144
3 609 146 608
3 609 608 147
3 609 147 148
3 614 149 613
3 614 613 151
3 151 613 150
3 616 152 615
3 616 615 154
3 154 615 153
3 157 155 617
3 157 617 618
3 618 617 156
3 620 158 619
3 620 619 159
3 620 159 160
3 626 161 621
3 626 621 163
3 163 621 162
3 166 164 627
3 166 627 165
3 779 167 168
3 779 168 632
3 779 632 780
3 780 632 169
3 1017 170 639
3 1017 639 172
3 172 639 171
3 645 173 640
3 645 640 175
3 640 173 174
3 1016 176 646
3 1016 646 648
3 1016 648 178
3 648 646 647
3 647 646 177
3 810 179 650
3 810 650 1046
3 810 1046 811
3 811 1046 1044
3 811 1044 812
3 812 1044 652
3 812 652 181
3 652 1044 1045
3 652 1045 651
3 651 1045 180
3 180 1045 649
3 649 1045 1046
3 649 1046 650
3 1046 1045 1044
3 184 182 656
3 656 182 654
3 656 654 655
3 655 654 653
3 655 653 183
3 662 185 658
3 662 658 661
3 661 658 657
3 661 657 187
3 187 657 186
3 190 188 664
3 190 664 665
3 665 664 663
3 665 663 189
3 193 191 668
3 668 191 666
3 668 666 667
3 667 666 192
3 673 194 670
3 673 670 669
3 673 669 671
3 673 671 196
3 671 669 195
3 199 197 677
3 199 677 678
3 678 677 198
3 202 200 201
3 828 203 204
3 828 204 205
3 832 206 207
3 832 207 208
3 211 209 210
3 214 212 213
3 217 215 216
3 220 218 219
3 223 221 222
3 226 224 706
3 706 224 225
3 229 227 710
3 710 227 228
3 232 230 711
3 232 711 231
3 235 233 712
3 712 233 234
3 238 236 714
3 714 236 713
3 714 713 237
3 876 239 715
3 876 715 240
3 876 240 241
3 888 242 720
3 888 720 721
3 888 721 889
3 889 721 244
3 720 242 243
3 247 245 723
3 247 723 725
3 725 723 722
3 725 722 724
3 724 722 246
3 729 248 727
3 729 727 728
3 728 727 726
3 728 726 250
3 250 726 249
3 736 251 1047
3 736 1047 253
3 253 1047 733
3 733 1047 731
3 733 731 732
3 732 731 730
3 732 730 252
3 731 1047 251
3 256 254 737
3 256 737 255
3 259 257 258
3 750 260 261
3 750 261 748
3 750 748 262
3 761 263 754
3 761 754 264
3 761 264 265
3 268 266 762
3 268 762 763
3 763 762 267
3 271 269 764
3 271 764 270
3 274 272 273
3 277 275 773
3 773 275 276
3 911 278 774
3 911 774 279
3 911 279 280
3 782 281 282
3 782 282 777
3 782 777 781
3 781 777 778
3 781 778 283
3 918 284 784
3 918 784 1048
3 918 1048 919
3 919 1048 785
3 919 785 286
3 785 1048 783
3 785 783 285
3 783 1048 784
3 289 287 786
3 289 786 288
3 932 290 789
3 932 789 790
3 932 790 933
3 933 790 791
3 933 791 292
3 789 290 291
3 939 293 1049
3 939 1049 795
3 939 795 295
3 795 1049 297
3 297 1049 1039
3 1039 1049 794
3 1039 794 793
3 1039 793 296
3 296 793 792
3 296 792 797
3 797 792 294
3 794 1049 293
3 300 298 796
3 300 796 297
3 300 297 801
3 801 297 1039
3 801 1039 800
3 800 1039 296
3 800 296 799
3 799 296 798
3 799 798 299
3 947 301 804
3 947 804 803
3 947 803 303
3 303 803 805
3 805 803 802
3 805 802 302
3 813 304 808
3 813 808 809
3 813 809 306
3 808 304 807
3 807 304 806
3 807 806 305
3 951 307 814
3 951 814 1051
3 951 1051 1050
3 951 1050 952
3 952 1050 1052
3 952 1052 953
3 953 1052 816
3 953 816 309
3 816 1052 815
3 815 1052 1051
3 815 1051 308
3 308 1051 814
3 1051 1052 1050
3 820 310 818
3 820 818 817
3 820 817 819
3 819 817 311
3 819 311 312
3 1012 313 826
3 1012 826 825
3 1012 825 1013
3 1013 825 314
3 1013 314 315
3 829 316 317
3 829 317 827
3 829 827 318
3 321 319 830
3 321 830 831
3 831 830 320
3 1007 322 323
3 1007 323 833
3 1007 833 1006
3 1006 833 834
3 1006 834 324
3 327 325 839
3 839 325 836
3 839 836 838
3 838 836 835
3 838 835 837
3 837 835 326
3 852 328 842
3 852 842 841
3 852 841 851
3 851 841 840
3 851 840 330
3 330 840 329
3 977 331 854
3 977 854 1053
3 977 1053 333
3 333 1053 856
3 856 1053 853
3 856 853 855
3 855 853 332
3 853 1053 854
3 1005 334 858
3 1005 858 336
3 336 858 859
3 859 858 857
3 859 857 335
3 339 337 860
3 339 860 338
3 342 340 341
3 345 343 344
3 1004 346 347
3 1004 347 348
3 351 349 350
3 354 352 353
3 996 355 873
3 996 873 357
3 873 355 356
3 877 358 1054
3 877 1054 875
3 877 875 360
3 875 1054 874
3 875 874 359
3 874 1054 358
3 363 361 879
3 879 361 878
3 879 878 362
3 896 364 880
3 896 880 881
3 896 881 366
3 881 880 365
3 369 367 887
3 887 367 885
3 887 885 886
3 886 885 368
3 372 370 898
3 898 370 897
3 898 897 371
3 905 373 902
3 905 902 375
3 375 902 374
3 913 376 909
3 913 909 912
3 912 909 910
3 912 910 378
3 910 909 377
3 381 379 920
3 920 379 380
3 384 382 927
3 384 927 383
3 934 385 930
3 934 930 931
3 934 931 387
3 930 385 386
3 998 388 935
3 998 935 389
3 998 389 390
3 1003 391 392
3 1003 392 936
3 1003 936 393
3 396 394 937
3 396 937 938
3 938 937 395
3 954 397 398
3 954 398 399
3 944 400 401
3 944 401 402
3 950 403 945
3 950 945 404
3 950 404 949
3 949 404 946
3 949 946 948
3 948 946 405
3 408 406 955
3 408 955 407
3 986 409 410
3 986 410 972
3 986 972 411
3 414 412 974
3 974 412 973
3 974 973 413
3 417 415 975
3 417 975 976
3 976 975 416
3 999 418 990
3 999 990 419
3 999 419 420
3 997 421 422
3 997 422 993
3 997 993 423
3 995 424 994
3 995 994 426
3 426 994 425
3 429 427 428
3 1055 1057 1058
3 1056 1055 1058
3 1056 1058 1059
3 1056 1059 1060
3 1058 1057 1061
3 1058 1061 1062
3 1058 1062 1063
3 1059 1058 1063
3 1059 1063 1064
3 1060 1059 1064
3 1062 1061 1065
3 1069 1068 1074
3 1070 1069 1075
3 1070 1075 1076
3 1071 1070 1076
3 1074 1073 1078
3 1075 1074 1078
3 1069 1074 1075
3 1076 1075 1079
3 1078 1077 1079
3 1075 1078 1079
3 1079 1077 434
3 1079 434 432
3 1079 432 1076
3 1076 432 0
3 1076 0 1071
3 1071 0 16
3 1071 16 13
3 1071 13 1070
3 1070 13 460
3 1070 460 1069
3 1069 460 458
3 1069 458 1068
3 1068 458 456
3 1068 456 1067
3 1068 1067 1034
3 1068 1034 1074
3 1074 1034 1073
3 1073 1034 1032
3 1073 1032 1078
3 1078 1032 1077
3 1077 1032 1072
3 1077 1072 434
3 434 1072 436
3 436 1072 1030
3 436 1030 438
3 438 1030 1028
3 438 1028 440
3 440 1028 1065
3 440 1065 442
3 442 1065 1061
3 442 1061 444
3 444 1061 1057
3 444 1057 4
3 4 1057 1055
3 4 1055 7
3 7 1055 10
3 10 1055 1056
3 10 1056 446
3 446 1056 1060
3 446 1060 448
3 448 1060 450
3 450 1060 1064
3 450 1064 1066
3 450 1066 452
3 452 1066 454
3 454 1066 1067
3 454 1067 456
3 1067 1066 1036
3 1067 1036 1034
3 1036 1066 1064
3 1036 1064 430
3 430 1064 1063
3 430 1063 1028
3 1028 1063 1062
3 1028 1062 1065
3 1030 1072 1032
3 1080 1081 1082
3 1082 1081 1083
3 1082 1083 439
3 1082 439 441
3 1082 441 443
3 1082 443 1080
3 1080 443 445
3 1080 445 482
3 1080 482 34
3 1080 34 31
3 1080 31 478
3 1080 478 1081
3 1081 478 1083
3 1083 478 475
3 1083 475 1084
3 1083 1084 439
3 439 1084 437
3 437 1084 435
3 435 1084 1085
3 435 1085 433
3 433 1085 473
3 433 473 1
3 473 1085 26
3 26 1085 28
3 28 1085 475
3 475 1085 1084
3 482 445 3
3 6 43 5
3 1087 1086 1088
3 1087 1088 5
3 1087 5 43
3 1087 43 492
3 1087 492 1086
3 1086 492 40
3 1086 40 37
3 1086 37 486
3 1086 486 1088
3 1088 486 484
3 1088 484 483
3 1088 483 5
3 483 484 35
3 44 8 46
3 9 58 500
3 9 500 1090
3 9 1090 8
3 8 1090 46
3 46 1090 1089
3 46 1089 49
3 49 1089 52
3 52 1089 55
3 55 1089 500
3 500 1089 1090
3 12 73 461
3 461 73 70
3 461 70 459
3 459 70 67
3 459 67 1092
3 459 1092 457
3 457 1092 1091
3 457 1091 455
3 455 1091 453
3 453 1091 505
3 453 505 451
3 451 505 61
3 451 61 449
3 449 61 59
3 449 59 447
3 447 59 11
3 505 1091 64
3 64 1091 1092
3 64 1092 67
3 15 18 14
3 525 82 79
3 525 79 76
3 525 76 14
3 525 14 18
3 14 76 74
3 19 17 462
3 472 25 470
3 472 470 1093
3 472 1093 2
3 2 1093 17
3 17 1093 462
3 462 1093 464
3 464 1093 466
3 464 466 22
3 466 1093 468
3 468 1093 470
3 21 88 527
3 21 527 465
3 465 527 1094
3 465 1094 463
3 463 1094 526
3 463 526 20
3 526 1094 83
3 83 1094 85
3 85 1094 527
3 1099 1098 1100
3 1099 1100 1026
3 1099 1026 1024
3 1099 1024 1097
3 1099 1097 531
3 1099 531 1098
3 1098 531 91
3 1098 91 23
3 1098 23 467
3 1098 467 469
3 1098 469 1100
3 1100 469 471
3 1100 471 1026
3 1026 471 24
3 1026 24 27
3 23 91 89
3 531 1097 94
3 94 1097 1022
3 94 1022 535
3 535 1022 1020
3 535 1020 539
3 539 1020 1096
3 539 1096 1095
3 539 1095 97
3 97 1095 36
3 36 1095 487
3 487 1095 485
3 485 1095 1018
3 485 1018 33
3 33 1018 32
3 1018 1095 1096
3 1018 1096 1020
3 1022 1097 1024
3 1102 1101 1104
3 1102 1104 1105
3 1104 1103 1106
3 1104 1106 1105
3 1105 1106 477
3 1105 477 480
3 1105 480 1102
3 1102 480 30
3 1102 30 1019
3 1102 1019 1101
3 1101 1019 1021
3 1101 1021 1023
3 1101 1023 1103
3 1101 1103 1104
3 1103 1023 1025
3 1103 1025 1106
3 1106 1025 1027
3 1106 1027 29
3 1106 29 477
3 39 109 559
3 39 559 38
3 38 559 1109
3 38 1109 98
3 98 1109 1108
3 98 1108 100
3 100 1108 103
3 103 1108 1107
3 103 1107 551
3 551 1107 106
3 106 1107 553
3 553 1107 555
3 555 1107 1108
3 555 1108 1109
3 555 1109 557
3 557 1109 559
3 42 45 493
3 493 45 112
3 493 112 110
3 493 110 41
3 1110 1112 1113
3 1111 1110 1113
3 1111 1113 1114
3 1112 1115 1116
3 1113 1112 1116
3 1113 1116 1117
3 1114 1113 1117
3 1114 1117 1118
3 1114 1118 124
3 1114 124 1111
3 1111 124 121
3 1111 121 118
3 1111 118 115
3 1111 115 1110
3 1110 115 581
3 1110 581 1112
3 1112 581 579
3 1112 579 577
3 1112 577 1115
3 1115 577 575
3 1115 575 1116
3 1116 575 113
3 1116 113 47
3 1116 47 1117
3 1117 47 48
3 1117 48 132
3 1117 132 1118
3 1118 132 127
3 1118 127 124
3 51 138 135
3 51 135 50
3 50 135 133
3 54 139 53
3 57 60 1119
3 57 1119 501
3 501 1119 603
3 501 603 56
3 56 603 136
3 56 136 137
3 603 1119 141
3 141 1119 60
3 141 60 605
3 605 60 147
3 605 147 144
3 63 150 507
3 507 150 610
3 507 610 148
3 507 148 62
3 66 153 65
3 65 153 151
3 69 159 156
3 69 156 68
3 68 156 154
3 1120 1121 1122
3 1122 1121 72
3 1122 72 75
3 1122 75 624
3 1122 624 622
3 1122 622 1120
3 1120 622 162
3 1120 162 1121
3 1121 162 160
3 1121 160 71
3 1121 71 72
3 1123 1124 1125
3 1123 1125 636
3 1123 636 633
3 1123 633 168
3 1123 168 630
3 1123 630 1124
3 1124 630 628
3 1124 628 623
3 1124 623 625
3 1124 625 1125
3 1125 625 1126
3 1125 1126 636
3 636 1126 171
3 171 1126 641
3 171 641 174
3 641 1126 78
3 78 1126 625
3 78 625 77
3 623 628 165
3 623 165 163
3 81 84 643
3 81 643 80
3 643 84 659
3 643 659 1127
3 643 1127 175
3 175 1127 177
3 177 1127 180
3 180 1127 183
3 183 1127 186
3 186 1127 659
3 87 90 1128
3 87 1128 528
3 528 1128 660
3 528 660 86
3 660 1128 189
3 660 189 187
3 189 1128 192
3 192 1128 90
3 192 90 195
3 93 198 532
3 674 196 532
3 674 532 198
3 532 196 92
3 199 95 680
3 96 99 542
3 542 99 684
3 542 684 682
3 542 682 538
3 538 682 680
3 538 680 95
3 696 210 694
3 696 694 1131
3 696 1131 1129
3 696 1129 698
3 698 1129 1130
3 698 1130 700
3 700 1130 685
3 700 685 102
3 102 685 101
3 685 1130 1131
3 685 1131 683
3 683 1131 1132
3 683 1132 681
3 681 1132 692
3 681 692 690
3 681 690 197
3 197 690 688
3 197 688 676
3 676 688 686
3 676 686 194
3 194 686 193
3 193 686 201
3 201 686 204
3 692 1132 694
3 694 1132 1131
3 1131 1130 1129
3 694 210 207
3 105 216 213
3 105 213 704
3 105 704 1133
3 105 1133 552
3 552 1133 701
3 552 701 104
3 701 1133 699
3 699 1133 697
3 697 1133 702
3 697 702 211
3 702 1133 704
3 1134 1135 1136
3 1134 1136 1137
3 1134 1137 582
3 1134 582 225
3 1134 225 222
3 1134 222 1135
3 1135 222 219
3 1135 219 217
3 1135 217 107
3 1135 107 1136
3 1136 107 554
3 1136 554 1137
3 1137 554 556
3 1137 556 580
3 1137 580 582
3 580 556 578
3 578 556 558
3 578 558 576
3 576 558 560
3 576 560 108
3 576 108 111
3 225 582 114
3 117 231 1138
3 117 1138 116
3 116 1138 226
3 226 1138 708
3 708 1138 228
3 228 1138 231
3 120 232 119
3 1139 1140 1141
3 1141 1140 1142
3 1141 1142 1143
3 1141 1143 718
3 1141 718 716
3 1141 716 1139
3 1139 716 237
3 1139 237 234
3 1139 234 229
3 1139 229 1140
3 1140 229 230
3 1140 230 1142
3 1142 230 122
3 1142 122 123
3 1142 123 249
3 1142 249 246
3 1142 246 1143
3 1143 246 243
3 1143 243 718
3 237 716 240
3 126 252 125
3 125 252 250
3 131 134 1144
3 131 1144 128
3 128 1144 255
3 128 255 253
3 255 1144 738
3 738 1144 604
3 738 604 140
3 604 1144 134
3 143 261 606
3 606 261 746
3 606 746 142
3 142 746 1145
3 142 1145 739
3 739 1145 740
3 739 740 256
3 740 1145 742
3 742 1145 746
3 742 746 744
3 744 746 258
3 1146 1148 1149
3 1147 1146 1149
3 1147 1149 757
3 1147 757 755
3 1147 755 751
3 1147 751 1146
3 1146 751 262
3 1146 262 146
3 1146 146 612
3 1146 612 1148
3 1148 612 149
3 1148 149 152
3 1148 152 759
3 1148 759 1149
3 1149 759 757
3 759 152 155
3 146 262 145
3 751 755 264
3 1150 1151 1153
3 1150 1153 1152
3 1154 1153 1155
3 1152 1153 1154
3 1156 1155 1157
3 1154 1155 1156
3 1156 1157 161
3 1156 161 164
3 1156 164 771
3 1156 771 1154
3 1154 771 769
3 1154 769 1152
3 1152 769 767
3 1152 767 1150
3 1150 767 765
3 1150 765 270
3 1150 270 1151
3 1151 270 267
3 1151 267 265
3 1151 265 756
3 1151 756 1153
3 1153 756 758
3 1153 758 1155
3 1155 758 760
3 1155 760 1157
3 1157 760 157
3 1157 157 158
3 1157 158 161
3 167 282 631
3 631 282 775
3 631 775 1158
3 631 1158 629
3 629 1158 166
3 166 1158 772
3 772 1158 770
3 770 1158 775
3 770 775 768
3 768 775 279
3 768 279 766
3 766 279 276
3 766 276 273
3 766 273 271
3 1160 1159 1162
3 1160 1162 1163
3 1161 1160 1163
3 1161 1163 178
3 1161 178 179
3 1161 179 305
3 1161 305 302
3 1161 302 299
3 1161 299 1160
3 1160 299 294
3 1160 294 1159
3 1159 294 787
3 1159 787 288
3 1159 288 1162
3 1162 288 169
3 1162 169 635
3 1162 635 638
3 1162 638 1163
3 1163 638 170
3 1163 170 178
3 169 288 283
3 283 288 285
3 787 294 291
3 173 176 172
3 182 311 306
3 182 306 181
3 306 311 308
3 185 188 1164
3 185 1164 821
3 185 821 312
3 185 312 184
3 821 1164 1165
3 821 1165 314
3 314 1165 317
3 317 1165 203
3 203 1165 1164
3 203 1164 202
3 202 1164 188
3 191 200 190
3 1166 1167 1168
3 1168 1167 1170
3 1168 1170 691
3 1168 691 693
3 1168 693 695
3 1168 695 1166
3 1166 695 206
3 1166 206 320
3 1166 320 1167
3 1167 320 318
3 1167 318 1170
3 1170 318 1169
3 1170 1169 687
3 1170 687 689
3 1170 689 691
3 687 1169 205
3 205 1169 318
3 1174 1173 1175
3 1174 1175 1176
3 1174 1176 209
3 1174 209 703
3 1174 703 1171
3 1174 1171 1173
3 1173 1171 847
3 1173 847 845
3 1173 845 1172
3 1173 1172 1175
3 1175 1172 323
3 1175 323 321
3 1175 321 208
3 1175 208 1176
3 1176 208 209
3 323 1172 326
3 326 1172 329
3 329 1172 843
3 843 1172 845
3 847 1171 849
3 849 1171 705
3 849 705 212
3 705 1171 703
3 215 218 214
3 214 218 850
3 850 218 341
3 850 341 338
3 850 338 1178
3 850 1178 848
3 848 1178 846
3 846 1178 1179
3 846 1179 844
3 844 1179 330
3 330 1179 332
3 332 1179 1177
3 332 1177 335
3 335 1177 338
3 338 1177 1178
3 1178 1177 1179
3 221 342 220
3 709 227 1180
3 709 1180 1181
3 709 1181 224
3 224 1181 1182
3 224 1182 223
3 223 1182 340
3 340 1182 339
3 339 1182 861
3 861 1182 1181
3 861 1181 863
3 863 1181 1180
3 863 1180 344
3 344 1180 233
3 233 1180 227
3 871 350 869
3 871 869 1183
3 871 1183 345
3 871 345 235
3 871 235 236
3 345 1183 865
3 865 1183 867
3 865 867 347
3 867 1183 869
3 239 359 1184
3 239 1184 238
3 238 1184 872
3 872 1184 351
3 351 1184 353
3 353 1184 1185
3 353 1185 356
3 356 1185 359
3 359 1185 1184
3 242 368 719
3 719 368 1186
3 719 1186 717
3 717 1186 241
3 241 1186 360
3 360 1186 882
3 360 882 362
3 362 882 365
3 882 1186 368
3 890 369 1188
3 890 1188 892
3 892 1188 1187
3 892 1187 894
3 894 1187 245
3 245 1187 244
3 244 1187 369
3 369 1187 1188
3 1190 1189 1192
3 1189 1194 1191
3 1189 1191 1192
3 1194 1193 1195
3 1194 1195 1196
3 1191 1194 1196
3 1191 1196 903
3 1191 903 1192
3 1192 903 374
3 1192 374 899
3 1192 899 1190
3 1190 899 371
3 1190 371 884
3 1190 884 891
3 1190 891 1189
3 1189 891 1194
3 1194 891 1193
3 1193 891 893
3 1193 893 257
3 1193 257 428
3 1193 428 1195
3 1195 428 1014
3 1195 1014 1196
3 1196 1014 274
3 1196 274 903
3 903 274 275
3 257 893 745
3 745 893 743
3 743 893 895
3 743 895 741
3 741 895 247
3 741 247 254
3 254 247 248
3 254 248 251
3 891 884 367
3 884 371 366
3 263 266 753
3 753 266 1197
3 753 1197 260
3 260 1197 747
3 747 1197 259
3 259 1197 429
3 429 1197 266
3 269 272 1015
3 269 1015 268
3 268 1015 427
3 278 377 277
3 906 375 904
3 906 904 1198
3 906 1198 377
3 377 1198 277
3 277 1198 904
3 378 280 914
3 281 284 776
3 776 284 914
3 776 914 280
3 1200 1199 1203
3 1200 1203 1204
3 1201 1200 1204
3 1201 1204 1205
3 1199 1202 1203
3 1203 1202 1207
3 1203 1207 1208
3 1204 1203 1208
3 1204 1208 1209
3 1205 1204 1209
3 1202 1206 1207
3 1207 1206 1210
3 1207 1210 1211
3 1208 1207 1211
3 1208 1211 1212
3 1209 1208 1212
3 1209 1212 928
3 1209 928 383
3 1209 383 1205
3 1205 383 924
3 1205 924 1201
3 1201 924 921
3 1201 921 1200
3 1200 921 901
3 1200 901 1199
3 1199 901 373
3 1199 373 908
3 1199 908 1202
3 1202 908 1206
3 1206 908 376
3 1206 376 1210
3 1210 376 917
3 1210 917 1211
3 1211 917 286
3 1211 286 287
3 1211 287 1212
3 1212 287 928
3 901 921 380
3 901 380 372
3 290 386 929
3 290 929 788
3 788 929 289
3 929 386 384
3 293 395 292
3 292 395 392
3 292 392 387
3 387 392 389
3 298 401 942
3 298 942 295
3 295 942 940
3 295 940 396
3 940 942 398
3 301 404 402
3 301 402 300
3 304 307 405
3 304 405 303
3 1214 1213 1216
3 1214 1216 1217
3 1215 1220 1221
3 1216 1215 1221
3 1217 1216 1221
3 1217 1221 1222
3 1220 1219 1225
3 1221 1220 1225
3 1222 1221 1225
3 1223 1222 1225
3 1224 1223 1225
3 1219 1224 1225
3 1224 1219 943
3 1224 943 1218
3 1224 1218 824
3 1224 824 1223
3 1223 824 313
3 1223 313 1222
3 1222 313 1217
3 1217 313 1008
3 1217 1008 1214
3 1214 1008 324
3 1214 324 962
3 1214 962 960
3 1214 960 1213
3 1213 960 958
3 1213 958 1215
3 1213 1215 1216
3 1215 958 956
3 1215 956 407
3 1215 407 1220
3 1220 407 399
3 1220 399 1219
3 1219 399 943
3 962 324 325
3 824 1218 310
3 310 1218 403
3 310 403 309
3 403 1218 400
3 400 1218 943
3 316 319 1226
3 316 1226 1011
3 316 1011 315
3 1011 1226 322
3 322 1226 319
3 1227 1230 1231
3 1228 1227 1231
3 1228 1231 1232
3 1229 1228 1232
3 1229 1232 1233
3 1231 1230 1234
3 1231 1234 1232
3 1232 1234 961
3 1232 961 963
3 1232 963 1233
3 1233 963 327
3 1233 327 328
3 1233 328 1229
3 1229 328 331
3 1229 331 416
3 1229 416 1228
3 1228 416 413
3 1228 413 1227
3 1227 413 970
3 1227 970 1230
3 1230 970 968
3 1230 968 966
3 1230 966 1234
3 1234 966 959
3 1234 959 961
3 959 966 957
3 957 966 964
3 957 964 408
3 970 413 410
3 1235 1237 1238
3 1236 1235 1238
3 1236 1238 1239
3 1239 1238 1240
3 1239 1240 1241
3 1239 1241 984
3 1239 984 1236
3 1236 984 982
3 1236 982 870
3 1236 870 349
3 1236 349 1235
3 1235 349 352
3 1235 352 1237
3 1237 352 991
3 1237 991 1238
3 1238 991 1240
3 1240 991 419
3 1240 419 987
3 1240 987 1241
3 1241 987 411
3 1241 411 984
3 984 411 412
3 991 352 425
3 991 425 422
3 870 982 868
3 868 982 980
3 868 980 348
3 348 980 978
3 348 978 334
3 334 978 333
3 333 978 417
3 864 343 866
3 864 866 1242
3 864 1242 862
3 862 1242 337
3 337 1242 336
3 336 1242 346
3 346 1242 866
3 355 426 354
3 358 361 381
3 358 381 357
3 357 381 923
3 357 923 424
3 424 923 926
3 424 926 423
3 423 926 382
3 423 382 388
3 388 382 385
3 364 370 363
3 363 370 379
3 1000 420 1243
3 1000 1243 390
3 1000 390 391
3 390 1243 421
3 421 1243 992
3 992 1243 420
3 1244 1247 1248
3 1245 1244 1248
3 1245 1248 1249
3 1247 1246 1251
3 1247 1251 1252
3 1248 1247 1252
3 1248 1252 1253
3 1249 1248 1253
3 1249 1253 1254
3 1246 1255 1250
3 1246 1250 1251
3 1251 1250 1256
3 1251 1256 1257
3 1252 1251 1257
3 1252 1257 1258
3 1253 1252 1258
3 1253 1258 1259
3 1254 1253 1259
3 1256 1255 1260
3 1250 1255 1256
3 1257 1256 1261
3 1257 1261 1262
3 1258 1257 1262
3 1259 1258 1262
3 1256 1260 1261
3 1261 1260 941
3 1261 941 397
3 1261 397 1262
3 1262 397 406
3 1262 406 1259
3 1259 406 965
3 1259 965 1254
3 1254 965 967
3 1254 967 969
3 1254 969 1249
3 1249 969 971
3 1249 971 1245
3 1245 971 409
3 1245 409 989
3 1245 989 1244
3 1244 989 418
3 1244 418 1247
3 1247 418 1246
3 1246 418 1002
3 1246 1002 393
3 1246 393 1255
3 1255 393 394
3 1255 394 1260
3 1260 394 941
3 1263 1264 1265
3 1263 1265 981
3 1263 981 983
3 1263 983 1264
3 1264 983 985
3 1264 985 414
3 1264 414 1265
3 1265 414 415
3 1265 415 979
3 1265 979 981
3 1266 1267 1268
3 1266 1268 1037
3 1266 1037 431
3 1266 431 1029
3 1266 1029 1267
3 1267 1029 1031
3 1267 1031 1033
3 1267 1033 1268
3 1268 1033 1035
3 1268 1035 1037
