ply
format ascii 1.0
comment Generated by PyMesh
element vertex 1189
property float x
property float y
property float z
property float nx
property float ny
property float nz
element face 2374
property list uchar int vertex_indices
end_header
-66.037 202.813 96.884 -0.451 0.082 -0.889
-65.623 203.796 96.119 -0.727 -0.573 -0.379
-65.752 202.583 96.646 -0.641 0.236 -0.73
-65.926 204.244 96.531 -0.979 -0.199 -0.035
-66.34 203.262 97.296 -0.703 0.456 -0.545
-65.945 204.172 96.788 -0.967 -0.151 -0.207
-65.903 204.586 97.845 -0.945 0.056 0.321
-66.307 203.584 98.118 -0.676 0.724 0.14
-65.922 204.531 98.851 -0.932 0.092 -0.349
-66.017 203.95 99.53 -0.98 -0.199 -0.01
-66.381 203.131 98.645 -0.737 0.347 0.58
-66.013 203.796 99.749 -0.983 -0.096 -0.156
-65.461 202.903 100.103 -0.523 -0.841 0.139
-65.829 202.238 98.999 -0.278 -0.398 0.875
-64.805 201.613 99.893 -0.96 0.019 0.279
-64.812 201.304 99.685 -0.966 -0.238 0.105
-65.836 201.929 98.791 -0.283 -0.655 0.701
-65.533 201.623 98.718 -0.485 -0.45 0.75
-63.722 200.684 98.775 -0.057 -0.755 -0.653
-64.349 200.949 97.73 0.361 -0.932 0.044
-63.755 201.049 97.724 -0.035 -0.998 0.048
-64.971 202.766 96.124 -0.643 -0.139 -0.753
-65.376 202.4 96.377 -0.373 0.105 -0.922
-65.111 203.378 95.941 -0.55 -0.548 -0.631
-65.353 203.5 96.083 -0.67 -0.487 -0.56
-65.58 202.502 96.497 -0.519 0.178 -0.836
-65.466 203.721 95.982 -0.595 -0.635 -0.493
-65.142 203.549 95.835 -0.565 -0.463 -0.683
-65.301 203.76 95.789 -0.459 -0.603 -0.653
-64.61 203.44 94.726 -0.919 -0.39 0.056
-64.687 204.242 94.462 -0.974 0.184 -0.133
-65.372 204.498 95.546 -0.517 0.013 -0.856
-65.438 205.799 93.939 -0.473 -0.854 0.215
-65.474 205.825 93.962 -0.494 -0.839 0.229
-65.402 204.52 95.565 -0.542 0.031 -0.84
-65.727 205.978 94.163 -0.325 -0.941 0.095
-66.034 206.605 94.886 -0.582 -0.418 0.698
-65.709 205.147 96.288 -0.798 0.554 -0.237
-65.666 205.333 96.477 -0.827 0.43 -0.363
-65.753 207.091 95.174 -0.348 -0.014 0.937
-65.305 205.958 96.847 -0.647 0.742 -0.178
-65.085 207.749 95.968 -0.793 -0.452 0.408
-64.999 207.853 96.2 -0.742 -0.39 0.545
-65.212 206.071 97.097 -0.6 0.798 -0.053
-64.951 207.87 97.753 -0.774 -0.401 -0.49
-64.955 207.868 97.761 -0.776 -0.403 -0.486
-65.216 206.068 97.105 -0.602 0.797 -0.049
-65.388 207.891 98.182 -0.488 -0.418 -0.766
-65.565 207.725 98.444 -0.614 -0.536 -0.579
-65.426 205.872 97.415 -0.707 0.699 0.107
-65.358 206.027 97.998 -0.752 0.596 -0.282
-65.705 205.254 98.379 -0.999 0.044 -0.009
-65.835 204.958 97.866 -0.912 0.242 0.332
-65.855 204.903 98.873 -0.899 0.278 -0.339
-65.511 205.812 98.744 -0.86 0.443 0.252
-65.625 205.564 99.305 -0.784 0.608 -0.122
-65.717 207.511 99.191 -0.723 -0.689 -0.046
-65.724 207.516 99.283 -0.728 -0.686 0.02
-65.633 205.57 99.414 -0.788 0.612 -0.068
-65.619 207.323 99.66 -0.798 -0.557 -0.232
-65.613 207.277 100.098 -0.793 -0.595 0.133
-65.626 205.512 99.977 -0.784 0.582 0.213
-65.402 205.875 100.464 -0.934 0.34 -0.111
-65.371 204.716 101.316 -0.918 -0.24 0.314
-65.595 204.352 100.828 -0.769 0.003 0.639
-65.684 204.109 100.759 -0.71 0.164 0.685
-64.79 203.95 101.62 -0.628 -0.623 0.467
-65.232 203.514 100.996 -0.333 -0.332 0.883
-65.014 203.586 101.133 -0.478 -0.38 0.791
-64.856 202.915 100.695 -0.4 -0.716 0.572
-65.11 202.992 100.656 -0.23 -0.767 0.599
-64.454 201.702 100.446 -0.668 0.093 0.739
-64.681 202.941 100.828 -0.312 -0.703 0.639
-64.318 201.722 100.549 -0.554 0.11 0.825
-64.063 202.007 100.76 -0.725 -0.081 0.684
-62.552 201.098 98.984 0.354 -0.73 -0.584
-62.928 200.884 98.914 0.604 -0.588 -0.538
-62.734 201.306 97.902 0.475 -0.869 0.137
-62.354 201.225 98.98 0.496 -0.64 -0.587
-62.499 201.457 97.897 0.593 -0.794 0.134
-62.25 201.565 98.489 0.427 -0.866 -0.26
-61.466 203.05 97.887 0.819 -0.123 -0.561
-61.715 202.942 97.296 0.985 -0.051 -0.167
-61.232 203.679 96.273 0.663 -0.543 0.515
-61.357 203.342 95.972 0.601 -0.711 0.364
-61.839 202.605 96.994 0.923 -0.22 -0.317
-61.919 202.432 96.807 0.976 -0.104 -0.192
-63.126 201.906 96.03 -0.03 -0.543 -0.839
-63.39 201.929 95.996 0.147 -0.558 -0.817
-63.249 202.588 94.707 0.053 -0.998 0.042
-64.534 203.295 94.774 -0.865 -0.493 0.09
-64.912 202.765 96.075 -0.614 -0.14 -0.777
-65.052 203.378 95.892 -0.52 -0.548 -0.655
-62.702 202.002 96.046 0.323 -0.462 -0.826
-62.789 202.693 94.725 0.382 -0.923 0.055
-62.363 202.79 94.994 0.098 -0.987 -0.124
-63.017 204.725 93.296 -0.229 -0.02 -0.973
-63.341 204.328 93.291 -0.013 0.245 -0.969
-64.033 205.928 92.363 0.449 -0.822 -0.351
-64.845 205.755 92.635 -0.227 -0.966 -0.124
-64.222 204.14 93.586 -0.642 0.111 -0.758
-64.927 205.687 92.976 -0.173 -0.92 -0.351
-64.514 207.661 91.847 0.048 0.623 -0.781
-64.532 207.965 92.034 0.06 0.42 -0.905
-63.408 208.154 91.667 -0.69 0.295 -0.661
-63.408 208.164 91.672 -0.69 0.303 -0.657
-64.532 207.978 92.039 0.06 0.427 -0.902
-63.558 208.412 91.88 -0.59 0.138 -0.796
-63.584 208.482 91.914 -0.605 0.179 -0.776
-64.558 208.047 92.073 0.045 0.468 -0.882
-64.126 208.428 92.168 -0.243 0.215 -0.946
-65.464 208.699 94.485 -0.912 0.35 0.213
-65.802 208.299 94.227 -0.687 0.617 0.385
-66.001 208.048 94.385 -0.554 0.784 0.28
-65.461 208.695 94.501 -0.911 0.348 0.221
-65.999 208.044 94.397 -0.553 0.781 0.29
-65.379 208.889 95.039 -0.966 0.219 -0.138
-64.545 209.781 94.112 -0.453 0.891 0.026
-64.527 209.899 94.677 -0.465 0.813 -0.351
-64.119 210.316 94.772 -0.736 0.535 -0.414
-64.335 210.313 95.498 -0.844 0.534 -0.051
-64.728 209.896 95.352 -0.583 0.811 0.046
-64.856 210.554 96.597 -0.497 0.373 -0.784
-65.25 209.492 97.252 -0.825 -0.513 -0.237
-65.198 208.626 96.136 -0.86 0.064 0.507
-65.154 209.254 97.33 -0.889 -0.354 -0.29
-65.139 209.193 97.362 -0.881 -0.385 -0.274
-65.184 208.569 96.165 -0.851 0.031 0.524
-65.553 208.543 98.143 -0.605 0.048 -0.794
-65.393 207.911 98.175 -0.492 -0.404 -0.772
-65.009 207.873 96.2 -0.748 -0.379 0.545
-64.962 207.891 97.753 -0.779 -0.391 -0.49
-65.183 209.27 97.404 -0.903 -0.346 -0.253
-65.59 208.609 98.178 -0.632 0.095 -0.769
-65.272 209.504 97.309 -0.844 -0.502 -0.19
-65.409 210.143 97.88 -0.958 0.03 0.286
-65.738 209.303 98.799 -0.738 0.591 -0.326
-65.359 210.092 98.138 -0.991 0.065 0.114
-64.989 210.505 98.961 -0.806 0.271 0.525
-65.426 209.652 99.494 -0.515 0.84 0.17
-64.72 210.716 99.906 -0.986 0.131 -0.105
-64.723 210.49 100.431 -0.987 0.018 0.158
-65.428 209.462 99.937 -0.517 0.704 0.487
-64.704 210.506 100.698 -1 0.008 -0.02
-64.593 210.155 101.091 -0.907 -0.285 0.309
-65.308 209.08 100.365 -0.431 0.431 0.793
-65.236 208.762 100.657 -0.478 0.643 0.598
-64.167 209.839 101.474 -0.553 -0.549 0.627
-64.811 208.446 101.039 -0.124 0.38 0.917
-63.761 208.598 101.674 -0.824 0.279 0.494
-63.749 208.02 101.771 -0.815 -0.134 0.563
-64.8 207.914 101.129 -0.115 -0.064 0.991
-64.532 206.744 101.666 -0.293 0.716 0.633
-65.343 206.14 100.753 -0.969 0.213 -0.127
-65.61 207.31 100.216 -0.79 -0.567 0.231
-65.398 205.918 100.616 -0.932 0.361 -0.036
-64.429 206.671 101.778 -0.207 0.655 0.727
-64.223 206.6 101.933 -0.345 0.702 0.623
-63.637 207.94 101.892 -0.735 -0.191 0.65
-63.514 207.892 102.001 -0.647 -0.226 0.728
-64.078 206.543 102.062 -0.272 0.673 0.687
-63.09 207.047 102.876 -0.93 0.337 0.145
-62.65 205.741 103.395 -0.616 -0.596 0.516
-63.557 204.997 102.677 -0.011 -0.099 0.995
-63.489 204.737 102.676 -0.056 0.074 0.996
-63.76 203.584 101.92 -0.281 -0.887 0.366
-63.904 203.515 101.705 -0.185 -0.841 0.509
-63.595 202.184 101.089 -0.391 0.046 0.919
-63.741 202.182 101.017 -0.495 0.044 0.868
-64.076 203.512 101.619 -0.271 -0.842 0.466
-64.301 203.148 101.132 -0.122 -0.6 0.791
-62.737 203.754 101.892 0.571 -0.746 0.343
-62.484 202.369 101.059 0.403 0.178 0.898
-62.589 203.732 101.669 0.473 -0.732 0.491
-62.222 203.867 101.403 0.656 -0.664 0.358
-62.174 202.482 100.834 0.624 0.259 0.737
-62.037 203.053 100.684 0.533 -0.122 0.837
-61.724 204.386 100.944 0.905 -0.405 0.128
-61.539 203.572 100.225 0.782 0.138 0.608
-61.36 204.822 100.721 0.663 -0.696 0.277
-61.233 204.893 100.509 0.754 -0.645 0.125
-61.388 203.656 99.973 0.857 0.18 0.482
-61.255 203.737 99.756 0.769 0.126 0.627
-61.163 203.414 98.385 0.845 -0.143 -0.515
-61.27 203.241 98.211 0.917 -0.028 -0.399
-60.81 204.378 97.46 0.61 -0.786 0.102
-60.978 204.251 97.165 0.526 -0.849 -0.046
-61.438 203.114 97.916 0.833 -0.091 -0.546
-61.205 203.743 96.302 0.677 -0.511 0.53
-60.867 204.331 97.089 0.581 -0.809 -0.084
-61.094 203.823 96.226 0.733 -0.471 0.491
-60.286 204.409 96.26 0.194 -0.862 0.469
-60.111 204.217 95.418 0.282 -0.958 0.047
-60.918 203.63 95.384 0.82 -0.567 0.07
-60.521 203.961 95.092 0.556 -0.788 0.265
-62.208 205.187 93.117 -0.436 -0.067 -0.897
-62.733 204.948 93.259 -0.087 0.092 -0.992
-63.812 206.101 92.334 0.633 -0.677 -0.375
-62.157 205.253 93.09 -0.407 -0.028 -0.913
-63.77 206.157 92.311 0.668 -0.631 -0.394
-62.663 206.649 92.132 -0.069 -0.959 -0.274
-61.113 205.655 93.017 0.207 0.208 -0.956
-61.79 206.985 92.071 0.658 -0.679 -0.325
-60.051 206.218 92.857 -0.501 -0.167 -0.849
-59.971 206.34 92.798 -0.434 -0.066 -0.899
-61.709 207.107 92.012 0.725 -0.577 -0.375
-60.964 207.392 92.349 0.228 -0.767 -0.599
-60.968 207.701 92.033 0.226 -0.612 -0.757
-61.713 207.348 91.766 0.723 -0.377 -0.579
-60.558 207.943 91.844 -0.047 -0.774 -0.631
-61 208.783 91.447 -0.363 -0.174 -0.915
-62.12 208.12 91.4 0.383 0.267 -0.884
-61.491 208.695 91.563 -0.036 -0.116 -0.993
-62.06 209.177 91.67 -0.32 0.126 -0.939
-62.563 208.496 91.483 0.015 0.58 -0.815
-62.548 208.809 91.654 0.005 0.371 -0.929
-62.85 209.975 92.623 -0.715 0.524 -0.462
-63.282 209.55 92.541 -0.427 0.807 -0.407
-63.801 209.578 92.843 -0.081 0.789 -0.609
-62.838 210.312 93.286 -0.709 0.693 -0.131
-63.789 209.915 93.505 -0.075 0.958 -0.277
-62.879 210.554 93.843 -0.682 0.531 -0.503
-62.887 210.558 93.858 -0.686 0.533 -0.496
-63.797 209.918 93.52 -0.079 0.96 -0.27
-63.372 210.453 94.18 -0.362 0.603 -0.71
-62.459 211.251 94.728 -0.472 0.88 -0.06
-62.944 211.146 95.051 -0.149 0.95 -0.275
-62.33 211.69 95.517 -0.558 0.587 -0.586
-62.721 211.668 96.057 -0.753 0.576 -0.317
-63.335 211.124 95.59 -0.344 0.939 -0.006
-63.647 211.431 96.579 -0.136 0.734 -0.665
-64.562 210.747 96.503 -0.593 0.392 -0.703
-64.25 210.439 95.514 -0.801 0.597 -0.044
-64.79 210.652 96.609 -0.441 0.455 -0.774
-62.344 212.146 96.939 -0.565 0.815 0.125
-63.271 211.909 97.462 0.052 0.973 -0.224
-63.073 212.145 97.985 -0.079 0.816 -0.573
-64.138 211.741 98.967 -0.84 0.527 0.129
-64.531 211.431 98.625 -0.578 0.734 0.357
-64.262 211.641 99.57 -0.757 0.594 -0.273
-63.313 212.327 99.077 -0.251 0.946 0.207
-63.286 212.335 99.699 -0.269 0.94 -0.208
-62.837 212.678 100.008 -0.568 0.712 -0.414
-63.379 211.782 101.789 -0.839 0.264 0.477
-63.827 211.439 101.48 -0.54 0.493 0.683
-64.008 211.244 101.514 -0.42 0.623 0.661
-63.036 210.891 102.281 -0.667 -0.182 0.723
-63.74 210.551 101.896 -0.197 0.045 0.979
-63.484 210.548 101.972 -0.368 0.047 0.929
-63.72 209.789 101.731 -0.486 -0.332 0.808
-63.924 209.961 101.709 -0.35 -0.447 0.823
-63.497 208.731 101.929 -0.635 0.373 0.676
-63.057 209.943 102.024 -0.154 -0.255 0.954
-62.936 208.861 102.176 -0.235 0.466 0.853
-62.608 210.287 102.333 -0.453 -0.484 0.748
-62.385 210.224 102.408 -0.342 -0.516 0.786
-62.748 208.808 102.239 -0.1 0.428 0.898
-62.166 210.26 102.557 -0.488 -0.539 0.686
-61.937 210.16 102.602 -0.297 -0.623 0.724
-62.499 208.699 102.288 0.078 0.351 0.933
-62.075 207.855 103.163 -0.205 0.914 0.35
-61.175 210.108 102.531 0.339 -0.666 0.665
-61.247 207.798 103.086 0.387 0.874 0.295
-61.115 208.126 102.487 0.298 0.655 0.694
-60.358 207.45 102.384 0.719 0.28 0.636
-60.577 207.2 102.994 0.865 0.446 0.229
-59.815 207.58 101.967 0.357 0.193 0.914
-59.659 206.668 101.746 0.468 -0.458 0.756
-60.421 206.288 102.772 0.976 -0.205 0.071
-60.182 206.42 102.133 0.817 -0.293 0.497
-61.094 205.318 101.761 0.31 -0.905 0.291
-61.228 205.313 102.443 0.4 -0.902 -0.164
-61.874 204.49 101.55 0.83 -0.353 0.431
-62.353 204.355 102.065 0.59 -0.42 0.689
-61.633 205.199 102.878 0.11 -0.983 0.147
-62.553 204.238 102.2 0.724 -0.342 0.599
-60.945 205.294 101.329 0.393 -0.918 0.05
-61.718 204.465 101.097 0.908 -0.366 0.205
-61.355 204.889 100.851 0.666 -0.648 0.369
-60.579 205.628 100.646 0.596 -0.733 -0.329
-61.032 205.184 100.247 0.897 -0.437 -0.062
-60.011 205.967 100.43 0.217 -0.959 -0.185
-60.025 206.051 100.146 0.207 -0.899 -0.387
-61.045 205.268 99.963 0.888 -0.377 -0.265
-60.706 205.238 98.576 0.661 -0.356 0.66
-60.726 205.195 98.572 0.651 -0.378 0.658
-61.062 205.232 99.96 0.875 -0.403 -0.267
-61.098 204.049 99.25 0.899 0.386 0.206
-59.924 206.115 100.071 0.279 -0.853 -0.441
-60.587 205.313 98.487 0.721 -0.319 0.615
-60.122 205.543 98.24 0.411 -0.472 0.78
-60.376 204.578 96.861 0.284 -0.955 0.091
-60.841 204.348 97.108 0.594 -0.801 -0.074
-60.261 204.426 96.28 0.207 -0.853 0.478
-59.049 205.857 96.791 0.947 -0.315 0.055
-58.934 205.705 96.209 0.871 -0.214 0.443
-58.556 205.971 95.851 0.619 -0.391 0.681
-59.253 205.125 93.997 0.209 -0.888 -0.409
-59.684 204.796 94.214 0.496 -0.669 -0.554
-60.124 204.5 93.973 0.789 -0.471 -0.393
-59.265 205.143 93.954 0.202 -0.878 -0.434
-60.136 204.517 93.931 0.783 -0.461 -0.418
-59.233 205.267 93.621 0.181 -0.96 -0.212
-58.648 207.355 93.489 0.565 0.423 -0.708
-58.717 207.117 93.232 0.611 0.582 -0.537
-59.193 208.526 92.582 0.928 -0.358 -0.104
-60.373 207.815 92.037 0.085 -0.866 -0.493
-59.804 206.462 92.73 -0.295 0.036 -0.955
-60.749 207.549 92.262 0.336 -0.688 -0.643
-58.618 207.903 94.143 0.582 0.746 -0.324
-59.166 209.024 93.176 0.947 -0.002 0.32
-58.486 207.995 94.461 0.494 0.684 -0.536
-58.573 208.157 94.639 0.422 0.819 -0.388
-59.26 209.2 93.369 0.88 0.124 0.458
-59.196 209.813 94.755 0.838 -0.284 -0.466
-59.939 211.03 94.173 0.401 0.431 -0.808
-59.934 210.306 92.841 0.398 0.914 0.081
-60.23 210.498 93.213 0.595 0.786 -0.168
-60.441 211.301 94.188 0.106 0.591 -0.799
-60.77 210.79 93.228 0.325 0.932 -0.16
-60.811 211.033 93.786 0.352 0.77 -0.531
-61.308 211.688 94.853 -0.404 0.819 -0.408
-61.743 211.448 94.502 -0.114 0.978 -0.174
-61.614 211.887 95.291 -0.2 0.686 -0.7
-59.3 209.542 96.306 0.777 -0.444 0.447
-59.454 209.579 96.853 0.88 -0.468 0.082
-58.659 207.931 95.937 0.35 0.63 0.693
-58.71 207.859 96.019 0.307 0.571 0.761
-59.52 209.487 96.959 0.847 -0.514 0.134
-59.437 207.8 97.153 0.792 0.61 0.005
-59.72 207.819 97.803 0.557 0.626 0.546
-59.883 209.511 97.794 0.666 -0.502 0.552
-59.624 208.008 99.691 0.493 0.499 -0.712
-59.626 208.144 99.801 0.492 0.597 -0.634
-59.885 209.672 97.924 0.664 -0.422 0.617
-60.329 208.937 99.255 0.96 0.069 -0.27
-60.328 208.943 99.259 0.961 0.075 -0.267
-59.884 209.681 97.929 0.665 -0.417 0.62
-58.447 210.392 99.379 -0.293 -0.891 -0.347
-58.538 212.359 98.774 -0.358 0.514 -0.779
-59.992 212.009 97.213 0.611 0.747 0.261
-59.138 212.613 99.011 0.042 0.345 -0.938
-60.132 212.859 99.417 -0.51 0.482 -0.712
-61.033 212.267 97.637 0.091 0.876 0.474
-61.242 212.584 99.414 0.23 0.665 -0.711
-61.754 212.595 99.352 -0.026 0.67 -0.742
-61.545 212.278 97.575 -0.165 0.881 0.443
-62.398 212.257 98.522 0.403 0.895 -0.189
-60.246 213.462 100.584 -0.574 0.816 -0.064
-61.362 213.216 100.637 0.17 0.98 -0.099
-61.601 213.291 100.731 0.329 0.93 -0.162
-61.563 213.255 101.218 0.361 0.9 0.244
-61.314 213.17 101.263 0.194 0.957 0.214
-60.2 213.418 101.181 -0.548 0.792 0.268
-60.089 213.15 101.764 -0.486 0.643 0.591
-61.197 212.889 101.873 0.253 0.817 0.518
-59.966 212.906 102.4 -0.568 0.806 0.167
-60.14 211.778 103.175 -0.693 -0 0.721
-61.403 211.554 102.791 0.149 0.149 0.977
-61.402 211.294 102.855 0.149 0.322 0.935
-59.583 210.517 102.611 -0.295 -0.901 0.318
-60.89 210.133 102.335 0.576 -0.645 0.502
-60.744 210.061 102.123 0.479 -0.597 0.643
-60.75 210.054 102.121 0.476 -0.6 0.643
-60.894 210.128 102.334 0.572 -0.65 0.501
-60.771 208.15 102.245 0.49 0.669 0.56
-60.735 210.053 102.109 0.483 -0.601 0.637
-60.756 208.15 102.234 0.498 0.668 0.553
-59.576 210.51 102.599 -0.29 -0.906 0.31
-60.531 209.13 101.657 0.432 -0.02 0.902
-60.089 209.99 101.823 0.136 -0.597 0.791
-59.456 210.46 102.541 -0.204 -0.942 0.268
-60.621 208.093 102.168 0.573 0.636 0.516
-60.048 208.148 101.776 0.191 0.599 0.777
-58.744 210.454 102.006 0.304 -0.946 -0.114
-59.336 208.142 101.242 0.699 0.595 0.396
-58.708 210.379 101.319 0.281 -0.896 0.344
-58.521 210.337 100.844 0.384 -0.92 0.08
-59.171 208.105 100.821 0.817 0.568 0.095
-57.992 210.344 100.396 0.032 -0.925 0.379
-58.446 210.39 99.382 -0.292 -0.892 -0.345
-59.625 208.151 99.808 0.493 0.601 -0.629
-60.327 208.942 99.262 0.961 0.074 -0.265
-57.999 210.842 101.366 0.674 -0.639 0.37
-57.531 210.792 100.858 0.362 -0.605 0.709
-58.117 210.863 102.048 0.752 -0.653 -0.084
-57.771 211.739 102.165 1 -0.028 -0
-57.185 211.667 100.975 0.609 0.02 0.793
-57.608 211.831 101.498 0.891 -0.09 0.444
-59.413 207.142 97.842 0.813 0.062 0.58
-59.291 207.273 99.734 0.731 -0.026 -0.681
-59.373 206.914 97.841 0.786 0.214 0.58
-59.265 207.48 97.247 0.936 0.343 0.083
-59.183 207.349 97.075 0.881 0.431 0.197
-58.538 207.539 96.112 0.451 0.304 0.839
-58.367 206.73 95.963 0.594 -0.37 0.715
-58.962 206.309 96.883 0.991 -0.089 0.101
-58.475 206.391 95.937 0.666 -0.144 0.732
-65.731 203.346 96.607 -0.655 -0.273 -0.705
-65.992 203.732 96.962 -0.936 0.143 -0.323
-66.046 203.7 97.086 -0.899 0.164 -0.405
-66.011 204.039 97.955 -0.873 0.42 0.248
-65.992 203.995 98.5 -0.886 0.449 -0.116
-66.068 203.529 99.044 -0.946 0.082 0.314
-66.045 203.442 99.16 -0.961 0.14 0.237
-65.574 202.68 99.462 -0.448 -0.692 0.566
-65.175 201.969 99.314 -0.714 -0.218 0.665
-65.18 201.72 99.145 -0.72 -0.515 0.465
-66.174 201.778 98.27 -0.565 -0.781 0.266
-65.9 201.458 98.151 -0.747 -0.568 0.345
-66.342 201.912 97.667 -0.705 -0.669 -0.236
-66.083 201.604 97.497 -0.878 -0.464 -0.122
-66.291 202.294 97.156 -0.663 -0.351 -0.661
-66.028 202.018 96.942 -0.839 -0.168 -0.519
-65.064 201.515 99.137 -0.797 -0.378 0.47
-65.302 201.15 98.405 -0.32 -0.788 0.527
-64.867 201.113 98.872 -0.609 -0.763 0.215
-64.599 200.869 99.397 -0.788 -0.601 -0.135
-64.871 200.905 98.046 -0.012 -0.963 0.27
-64.502 200.905 98.567 -0.259 -0.963 -0.077
-64.203 200.644 99.066 -0.458 -0.789 -0.41
-64.058 200.942 98.298 0.167 -0.927 -0.335
-64.436 201.046 97.095 0.298 -0.862 -0.409
-63.858 201.164 96.973 -0.087 -0.941 -0.328
-64.676 201.376 96.592 0.127 -0.627 -0.769
-64.142 201.554 96.377 -0.229 -0.745 -0.626
-65.015 201.864 96.333 -0.115 -0.278 -0.954
-64.543 202.132 96.071 -0.43 -0.457 -0.779
-65.427 203.151 96.355 -0.621 -0.255 -0.741
-65.569 203.218 96.478 -0.763 -0.188 -0.618
-64.841 203.682 95.308 -0.765 -0.551 -0.332
-64.905 204.354 95.086 -0.828 0.109 -0.549
-65.143 205.124 95.197 -0.67 -0.405 -0.623
-65.167 205.597 94.612 -0.654 -0.72 -0.233
-65.163 205.139 95.21 -0.701 -0.381 -0.602
-65.189 205.614 94.626 -0.684 -0.698 -0.214
-65.293 205.207 95.301 -0.615 -0.427 -0.663
-65.411 205.736 94.792 -0.536 -0.78 -0.324
-65.475 205.578 95.729 -0.954 0.266 0.136
-65.593 206.108 95.22 -0.876 -0.087 0.475
-65.427 205.735 95.886 -0.986 0.162 0.031
-65.561 206.198 95.307 -0.897 -0.147 0.417
-65.196 206.134 96.123 -0.719 0.624 0.305
-65.359 206.546 95.514 -0.61 0.349 0.711
-64.905 206.463 96.513 -0.913 0.405 0.045
-64.826 207.11 96.196 -0.966 -0.027 0.256
-64.836 206.546 96.698 -0.85 0.481 0.213
-64.759 207.191 96.374 -0.902 0.051 0.429
-64.848 206.566 97.418 -0.843 0.468 -0.267
-64.754 207.212 97.653 -0.905 0.037 -0.424
-64.851 206.564 97.424 -0.845 0.466 -0.261
-64.758 207.21 97.66 -0.908 0.036 -0.418
-64.97 206.541 97.671 -0.766 0.482 -0.426
-65.033 207.209 98.065 -0.724 0.037 -0.689
-65.106 206.415 97.872 -0.92 0.338 -0.197
-65.157 207.093 98.248 -0.886 -0.115 -0.449
-65.338 206.204 99.304 -0.976 0.182 -0.121
-65.371 206.904 99.263 -0.954 -0.285 -0.094
-65.343 206.209 99.382 -0.981 0.186 -0.047
-65.376 206.909 99.335 -0.96 -0.281 -0.015
-65.378 206.128 99.541 -0.959 0.24 -0.153
-65.373 206.748 99.628 -0.962 -0.173 -0.211
-65.372 206.084 99.961 -0.954 0.201 0.224
-65.368 206.709 100.004 -0.957 -0.216 0.195
-65.739 204.958 100.443 -0.841 0.305 0.446
-65.515 205.322 100.93 -0.991 0.063 0.121
-64.684 202.42 100.405 -0.514 -0.386 0.766
-64.971 202.347 99.953 -0.849 -0.471 0.239
-64.567 202.36 100.462 -0.592 -0.346 0.728
-64.428 202.38 100.568 -0.481 -0.329 0.813
-63.949 201.245 100.67 -0.246 -0.288 0.925
-63.661 201.489 100.891 -0.438 -0.451 0.778
-63.522 200.841 100.487 0.109 -0.624 0.774
-63.198 201.051 100.693 -0.107 -0.764 0.637
-63.151 200.617 100.051 0.419 -0.81 0.41
-62.794 200.808 100.219 0.181 -0.937 0.298
-62.933 200.633 99.475 0.6 -0.797 -0.07
-62.558 200.825 99.594 0.35 -0.925 -0.149
-62.893 201.179 98.431 0.581 -0.785 -0.216
-63.733 200.967 98.285 -0.05 -0.944 -0.326
-62.691 201.295 98.469 0.447 -0.862 -0.241
-62.489 201.424 98.465 0.586 -0.772 -0.244
-62.086 201.842 97.653 0.799 -0.601 0.012
-61.837 201.95 98.245 0.633 -0.673 -0.382
-61.816 202.354 97.446 0.934 -0.345 -0.092
-61.567 202.462 98.037 0.768 -0.417 -0.486
-61.621 203.364 96.753 0.923 -0.333 0.195
-61.735 203.058 96.479 0.853 -0.521 0.026
-62.24 201.69 97.346 0.722 -0.677 -0.141
-62.231 201.72 97.08 0.716 -0.697 0.036
-63.076 201.326 96.808 0.304 -0.86 -0.411
-62.881 201.437 96.661 0.174 -0.934 -0.313
-63.341 202.426 95.435 0.114 -0.889 -0.443
-64.275 202.13 95.952 -0.295 -0.458 -0.839
-64.052 202.587 95.399 -0.444 -0.763 -0.47
-63.996 202.758 94.67 -0.481 -0.877 0.016
-64.564 203.098 95.499 -0.846 -0.362 -0.393
-64.692 203.412 95.374 -0.76 -0.571 -0.31
-64.768 203.556 95.326 -0.814 -0.467 -0.344
-63.19 202.424 95.46 0.013 -0.888 -0.46
-62.826 202.507 95.474 0.406 -0.798 -0.444
-62.568 202.919 94.144 0.54 -0.761 -0.36
-62.101 203.058 94.307 0.229 -0.854 -0.468
-62.602 203.341 93.636 0.515 -0.46 -0.723
-62.142 203.556 93.705 0.209 -0.604 -0.769
-62.883 203.852 93.326 0.315 -0.095 -0.944
-62.474 204.162 93.338 0.042 -0.301 -0.953
-63.657 204.965 93.282 0.198 -0.18 -0.963
-63.907 205.542 92.947 0.365 -0.564 -0.741
-64.232 204.843 93.474 -0.636 -0.358 -0.684
-64.456 205.425 93.132 -0.487 -0.746 -0.455
-64.313 204.775 93.575 -0.582 -0.312 -0.751
-64.563 205.323 93.359 -0.415 -0.678 -0.606
-64.687 204.856 94.28 -0.974 -0.226 -0.011
-64.953 205.409 94.094 -0.796 -0.595 0.112
-65.622 206.164 92.718 -0.581 -0.64 -0.503
-65.426 206.154 92.419 -0.712 -0.633 -0.304
-65.794 206.953 92.367 -0.683 -0.175 -0.71
-65.57 206.815 92.125 -0.832 -0.083 -0.549
-65.361 207.671 92.094 -0.427 0.247 -0.87
-65.207 207.415 91.898 -0.53 0.417 -0.739
-63.927 208.011 91.957 -0.344 0.39 -0.854
-63.927 208.021 91.962 -0.344 0.398 -0.85
-65.021 208.438 92.419 -0.228 0.698 -0.679
-64.624 208.848 92.54 -0.492 0.425 -0.76
-65.424 208.624 92.956 -0.465 0.808 -0.363
-65.057 209.049 93.118 -0.709 0.525 -0.471
-65.7 208.575 93.595 -0.627 0.779 0.013
-65.354 208.996 93.805 -0.858 0.498 -0.127
-66.202 207.906 93.518 -0.922 0.385 -0.032
-66.336 207.719 93.791 -0.833 0.51 -0.215
-66.274 207.078 93.161 -0.965 -0.102 -0.242
-66.396 207.026 93.493 -0.883 -0.067 -0.464
-65.981 206.241 93.34 -0.793 -0.594 -0.137
-66.151 206.326 93.642 -0.679 -0.651 -0.339
-65.58 208.394 94.707 -0.832 0.548 0.083
-66.011 207.623 94.897 -0.562 0.43 0.706
-65.591 207.979 95.2 -0.842 0.193 0.504
-65.393 208.385 95.636 -0.974 -0.077 0.213
-65.337 207.453 95.474 -0.625 -0.255 0.737
-65.066 209.473 94.815 -0.782 0.562 -0.27
-65.124 209.324 94.26 -0.743 0.662 0.1
-64.684 210.107 96.048 -0.612 0.671 -0.418
-65.196 209.298 95.664 -0.858 0.46 0.229
-65.053 209.635 96.295 -0.953 0.236 -0.191
-65.248 210.054 96.858 -0.823 -0.044 -0.566
-65.055 209.104 96.667 -0.955 -0.254 0.153
-65.019 208.967 96.713 -0.979 -0.162 0.122
-65.005 208.913 96.741 -0.97 -0.198 0.14
-64.965 208.543 96.859 -0.997 0.048 0.062
-65.099 208.533 97.574 -0.908 0.055 -0.415
-64.845 208.066 96.883 -0.857 -0.507 0.09
-64.984 208.079 97.597 -0.764 -0.516 -0.386
-64.792 207.98 96.97 -0.893 -0.45 0.032
-64.783 207.962 96.97 -0.886 -0.463 0.032
-65.312 209.089 97.821 -0.817 -0.226 -0.531
-65.438 209.673 98.343 -0.939 0.344 -0.022
-64.94 210.098 99.694 -0.839 0.543 0.037
-64.942 209.912 100.127 -0.841 0.404 0.361
-64.895 209.904 100.265 -0.872 0.409 0.269
-64.8 209.601 100.604 -0.769 0.084 0.633
-65.817 208.645 100.089 -0.794 0.121 0.596
-65.705 208.362 100.403 -0.869 0.309 0.386
-65.971 208.064 99.686 -0.905 -0.294 0.308
-65.847 207.827 100.032 -0.988 -0.137 0.078
-64.727 209.41 100.751 -0.818 0.211 0.535
-64.397 209.165 101.048 -0.399 -0.1 0.911
-64.217 208.474 101.253 -0.52 0.361 0.774
-64.207 207.982 101.336 -0.51 -0.109 0.853
-64.632 207.274 101.26 -0.227 0.363 0.904
-65.393 207.638 100.822 -0.609 -0.294 0.736
-65.142 207.037 100.997 -0.777 0.107 0.62
-65.126 206.468 101.36 -0.788 0.486 0.378
-65.328 206.755 100.476 -0.979 -0.197 0.058
-65.316 206.636 100.395 -0.987 -0.118 0.112
-65.319 206.604 100.279 -0.989 -0.146 0.012
-65.101 205.835 101.753 -0.783 0.319 0.533
-65.112 206.075 101.638 -0.776 0.159 0.61
-63.812 207.215 101.774 -0.618 0.293 0.729
-63.696 207.169 101.877 -0.527 0.256 0.811
-63.471 206.7 102.391 -0.676 0.569 0.468
-64.014 205.772 102.541 -0.24 0.288 0.927
-63.419 206.069 102.783 -0.637 0.09 0.766
-63.036 206.396 103.281 -0.892 -0.128 0.434
-63.044 205.434 102.894 -0.353 -0.391 0.85
-64.299 204.311 102.309 -0.383 -0.442 0.811
-64.067 204.204 102.39 -0.537 -0.371 0.757
-63.683 202.941 101.232 -0.332 -0.459 0.824
-63.82 202.939 101.164 -0.442 -0.46 0.77
-63.985 202.698 100.977 -0.332 -0.299 0.894
-64.311 202.52 100.716 -0.559 -0.422 0.713
-63.58 203.006 101.318 -0.401 -0.502 0.766
-62.751 203.143 101.296 0.581 -0.339 0.74
-62.638 203.115 101.204 0.505 -0.32 0.802
-62.346 203.222 100.992 0.739 -0.234 0.632
-61.781 202.203 100.392 0.905 0.059 0.422
-61.572 202.723 100.161 0.765 -0.287 0.576
-61.676 201.846 99.855 0.98 -0.196 0.038
-61.448 202.3 99.525 0.828 -0.498 0.258
-61.883 201.493 99.345 0.832 -0.448 -0.326
-61.692 201.882 98.921 0.705 -0.707 -0.044
-61.581 204.248 100.393 0.81 -0.313 0.496
-61.457 204.317 100.186 0.903 -0.261 0.34
-61.156 202.898 99.234 0.973 -0.2 0.112
-61.074 203.147 99.18 0.919 -0.366 0.148
-61.199 203.895 97.867 0.87 -0.464 -0.169
-61.35 203.781 97.603 0.774 -0.536 -0.337
-61.594 203.41 97.397 0.936 -0.289 -0.2
-61.511 203.632 96.827 0.881 -0.437 0.18
-61.617 203.356 97.372 0.92 -0.327 -0.218
-61.535 203.578 96.802 0.865 -0.475 0.163
-61.172 203.418 94.732 0.693 -0.674 -0.255
-60.757 203.764 94.486 0.417 -0.904 -0.092
-61.543 203.472 94.105 0.508 -0.647 -0.569
-61.102 203.814 93.903 0.214 -0.875 -0.435
-61.973 203.783 93.602 0.293 -0.491 -0.821
-61.502 204.104 93.436 -0.021 -0.704 -0.71
-62.391 204.303 93.304 0.084 -0.231 -0.969
-61.891 204.587 93.159 -0.25 -0.42 -0.872
-63.176 205.422 93.199 0.209 -0.224 -0.952
-63.56 205.832 92.87 0.465 -0.497 -0.733
-63.382 205.259 93.226 0.015 -0.376 -0.927
-63.744 205.687 92.894 0.256 -0.661 -0.705
-63.345 205.98 92.875 0.322 -0.596 -0.736
-62.765 205.649 93.158 -0.065 -0.375 -0.925
-63.315 206.019 92.859 0.365 -0.539 -0.759
-62.732 205.692 93.14 -0.024 -0.321 -0.947
-63.26 206.517 92.269 0.328 -0.871 -0.366
-64.008 206.508 91.805 0.47 -0.338 -0.816
-63.47 206.826 91.824 0.11 -0.55 -0.828
-62.902 207.001 91.626 -0.268 -0.666 -0.696
-64.291 207.079 91.629 0.234 0.138 -0.962
-63.718 207.329 91.669 -0.147 -0.029 -0.989
-63.184 207.571 91.45 -0.503 -0.191 -0.843
-63.915 207.842 91.86 -0.352 0.502 -0.79
-62.425 206.354 92.629 -0.229 -0.762 -0.606
-62.246 205.86 92.968 -0.348 -0.433 -0.832
-61.708 206.63 92.579 0.604 -0.442 -0.664
-61.469 206.159 92.913 0.444 -0.128 -0.887
-61.275 206.951 92.612 0.315 -0.656 -0.686
-60.644 206.672 92.898 -0.106 -0.47 -0.876
-61.228 207.022 92.577 0.405 -0.521 -0.752
-60.596 206.743 92.863 -0.017 -0.335 -0.942
-61.191 207.74 91.905 0.375 -0.639 -0.672
-61.562 208.444 91.572 0.011 0.051 -0.999
-62.947 209.273 91.993 -0.23 0.644 -0.73
-62.49 209.676 92.034 -0.535 0.375 -0.757
-63.503 209.082 92.149 -0.557 0.532 -0.638
-64.039 209.074 92.421 -0.2 0.537 -0.819
-63.286 210.14 93.724 -0.41 0.808 -0.423
-63.293 210.143 93.737 -0.415 0.81 -0.415
-63.199 210.873 94.577 -0.276 0.813 -0.512
-62.714 210.978 94.255 -0.6 0.743 -0.297
-64.428 210.469 96.121 -0.682 0.577 -0.449
-64.497 210.367 96.109 -0.736 0.498 -0.458
-65.102 210.959 97.468 -0.702 0.71 -0.058
-64.964 211.141 97.608 -0.794 0.589 -0.151
-64.073 211.838 97.926 -0.349 0.937 0.008
-63.751 212.085 98.377 -0.563 0.773 -0.293
-64.829 211.006 98.804 -0.727 0.522 0.447
-64.56 211.217 99.749 -0.906 0.381 -0.183
-63.637 212.234 100.321 -0.444 0.89 0.103
-63.189 212.577 100.63 -0.743 0.661 -0.103
-63.826 211.921 100.943 -0.539 0.733 0.414
-63.378 212.264 101.252 -0.838 0.505 0.208
-64.426 211.345 100.741 -0.839 0.445 0.313
-64.473 211.171 100.938 -0.807 0.561 0.181
-63.626 209.352 101.691 -0.549 -0.041 0.835
-63.847 209.241 101.478 -0.767 -0.15 0.624
-62.696 209.576 102.077 -0.395 -0.01 0.919
-62.518 209.526 102.137 -0.253 -0.05 0.966
-62.377 209.549 102.183 -0.347 -0.066 0.936
-62.188 209.466 102.22 -0.129 -0.16 0.979
-62.277 208.175 102.623 -0.07 0.7 0.71
-63.111 208.38 102.277 -0.359 0.123 0.925
-62.819 207.893 102.613 -0.555 0.448 0.701
-62.687 207.535 103.152 -0.642 0.686 0.342
-63.176 207.461 102.368 -0.873 0.062 0.483
-61.867 208.262 102.66 -0.343 0.642 0.685
-61.766 208.868 102.368 -0.411 0.239 0.88
-61.791 209.547 102.347 -0.394 -0.214 0.894
-61.487 208.236 102.625 0.546 0.582 0.602
-61.558 208.854 102.349 0.594 0.17 0.786
-61.446 209.523 102.315 0.52 -0.276 0.809
-60.303 207.334 102.381 0.682 0.357 0.638
-60.167 206.536 102.187 0.806 -0.37 0.461
-60.698 205.7 102.594 0.779 -0.625 -0.057
-60.495 205.755 101.931 0.643 -0.662 0.385
-61.666 205.019 101.971 0.692 -0.706 0.15
-62.059 204.909 102.393 0.394 -0.79 0.47
-62.189 204.87 102.454 0.481 -0.764 0.43
-62.123 205.362 103.286 -0.24 -0.866 0.438
-62.576 204.999 102.776 0.063 -0.625 0.778
-63.004 204.388 102.575 0.348 -0.217 0.912
-62.993 205.299 102.862 -0.387 -0.301 0.871
-61.555 204.983 101.61 0.618 -0.682 0.391
-61.413 204.96 101.197 0.705 -0.696 0.138
-60.613 205.69 100.358 0.618 -0.774 -0.137
-60.625 205.764 100.108 0.607 -0.707 -0.362
-61.035 205.328 99.229 0.881 -0.417 0.225
-61.051 205.294 99.226 0.868 -0.444 0.222
-61.248 204.642 99.611 0.999 -0.009 -0.034
-61.388 204.364 100.061 0.857 -0.292 0.424
-61.059 204.621 98.829 0.874 0.005 0.487
-61 203.722 98.815 0.981 0.113 -0.157
-60.961 204.293 98.393 0.955 -0.268 0.125
-60.6 204.773 98.013 0.715 -0.588 0.378
-61.124 203.984 97.962 0.82 -0.524 -0.233
-60.655 205.74 99.028 0.627 -0.691 0.359
-60.411 206.031 99.589 0.465 -0.885 -0.016
-60.567 205.796 98.962 0.707 -0.641 0.299
-60.33 206.083 99.529 0.549 -0.832 -0.079
-60.573 204.872 98.103 0.728 -0.539 0.423
-60.108 205.102 97.856 0.418 -0.692 0.588
-60.66 204.541 97.629 0.685 -0.705 0.187
-60.195 204.771 97.383 0.375 -0.858 0.351
-59.69 204.706 96.32 0.493 -0.713 0.498
-59.805 204.858 96.901 0.569 -0.815 0.111
-59.231 205.148 96.295 0.722 -0.492 0.486
-59.346 205.3 96.877 0.799 -0.594 0.099
-58.953 205.234 95.8 0.861 -0.45 0.239
-58.574 205.532 95.471 0.608 -0.649 0.458
-59.098 204.903 95.291 0.788 -0.615 -0.016
-58.709 205.225 94.998 0.529 -0.83 0.179
-59.352 204.751 94.741 0.662 -0.691 -0.291
-58.944 205.083 94.487 0.39 -0.913 -0.121
-59.793 204.413 94.808 0.441 -0.86 -0.257
-60.226 204.144 94.525 0.73 -0.68 -0.069
-59.752 204.992 93.82 0.527 -0.777 -0.345
-60.614 204.898 93.227 0.501 -0.237 -0.832
-60.148 205.307 93.238 0.191 -0.51 -0.839
-59.633 205.585 93.033 -0.152 -0.695 -0.702
-60.562 205.934 93.063 -0.16 0.022 -0.987
-58.531 205.682 93.647 0.766 -0.614 -0.191
-58.425 205.64 93.985 0.696 -0.586 -0.416
-58.316 206.453 93.485 0.945 0.028 -0.326
-58.169 206.561 93.792 0.847 -0.044 -0.53
-59.173 207.79 92.998 0.915 0.133 -0.381
-59.134 206.745 92.765 0.263 0.272 -0.926
-59.513 207.487 92.618 0.516 -0.222 -0.827
-59.646 208.122 92.076 0.605 -0.646 -0.466
-60.059 207.256 92.589 -0.125 -0.493 -0.861
-60.281 207.083 92.686 0.024 -0.378 -0.926
-60.443 206.965 92.751 -0.119 -0.483 -0.868
-59.117 207.932 93.143 0.878 0.039 -0.478
-59.094 208.365 93.66 0.899 0.437 -0.002
-59.179 208.582 93.626 0.956 0.293 0.021
-58.938 208.217 94.081 0.795 0.536 -0.283
-59.248 208.711 93.768 0.872 0.45 0.192
-59.004 208.342 94.218 0.71 0.696 -0.107
-59.433 209.526 94.063 0.996 -0.093 -0.004
-59.412 209.849 93.07 0.771 0.587 0.244
-59.568 210.102 93.798 0.876 0.419 -0.24
-59.364 210.527 94.426 0.739 0.136 -0.659
-60.032 210.507 93.594 0.463 0.779 -0.422
-60.399 210.363 92.321 0.066 0.955 -0.29
-60.78 210.566 92.598 0.32 0.82 -0.475
-60.798 210.06 91.833 -0.218 0.738 -0.639
-61.251 210.206 92.02 0.084 0.64 -0.764
-61.018 209.479 91.512 -0.376 0.323 -0.869
-61.513 209.519 91.64 -0.046 0.296 -0.954
-60.144 210.69 93.752 0.538 0.658 -0.527
-60.632 210.954 93.766 0.233 0.823 -0.518
-61.502 210.881 93.135 -0.041 0.978 -0.206
-61.543 211.124 93.693 -0.014 0.816 -0.578
-62.226 210.714 93.155 -0.403 0.894 -0.196
-62.267 210.956 93.713 -0.376 0.732 -0.568
-61.295 211.322 94.073 0.11 0.915 -0.388
-60.891 211.57 94.455 -0.159 0.75 -0.642
-61.039 212.142 95.54 0.088 0.814 -0.575
-60.773 211.925 95.085 -0.089 0.958 -0.272
-60.436 212.155 95.85 0.389 0.82 -0.42
-60.213 211.937 95.374 0.24 0.965 -0.102
-59.89 211.924 96.178 0.662 0.705 -0.256
-59.705 211.722 95.678 0.539 0.839 0.077
-59.475 211.481 96.478 0.869 0.483 -0.106
-59.32 211.31 95.957 0.765 0.597 0.241
-59.249 210.886 96.71 0.983 0.185 0.01
-59.109 210.757 96.172 0.889 0.271 0.368
-59.241 210.221 96.841 0.986 -0.147 0.075
-59.102 210.139 96.294 0.893 -0.092 0.44
-59.501 209.014 96.373 0.911 -0.092 0.402
-59.212 208.416 96.04 0.718 0.307 0.624
-59.543 208.955 96.441 0.863 -0.159 0.48
-59.249 208.364 96.1 0.667 0.235 0.707
-59.726 208.927 97.002 0.984 -0.141 0.106
-59.697 208.333 97.07 0.965 0.255 0.06
-60.004 208.945 97.641 0.746 -0.125 0.654
-59.946 208.349 97.644 0.708 0.272 0.652
-60.28 209.182 98.273 0.93 -0.283 0.233
-60.37 208.761 98.828 0.991 -0.002 -0.137
-60.135 208.339 99.338 0.833 0.279 -0.477
-60.281 209.269 98.342 0.929 -0.153 0.339
-60.371 208.815 98.871 0.989 0.15 -0.014
-60.136 208.411 99.396 0.832 0.419 -0.364
-60.323 209.351 98.544 0.957 -0.208 0.204
-60.323 209.358 98.547 0.957 -0.202 0.208
-59.647 210.164 98.194 0.507 -0.739 0.444
-59.289 210.47 98.564 0.268 -0.943 0.197
-58.867 210.55 98.981 -0.014 -0.997 -0.082
-59.398 209.982 97.336 0.908 -0.266 0.323
-59.31 210.373 97.782 0.85 -0.527 0.026
-59.018 210.638 98.234 0.655 -0.703 -0.276
-58.57 210.734 98.619 0.356 -0.767 -0.533
-58.036 210.646 98.878 0.001 -0.709 -0.705
-59.235 210.679 96.926 0.99 0.082 0.118
-59.197 210.857 97.497 0.964 -0.036 -0.263
-58.928 211.025 98.006 0.785 -0.149 -0.602
-58.471 211.159 98.37 0.48 -0.238 -0.844
-57.899 211.235 98.532 0.099 -0.289 -0.952
-59.466 211.469 96.878 0.874 0.477 0.094
-59.357 211.405 97.464 0.801 0.52 -0.297
-59.056 211.465 97.979 0.601 0.479 -0.64
-58.612 211.64 98.34 0.304 0.363 -0.881
-58.094 211.902 98.491 -0.041 0.188 -0.981
-59.722 211.78 97.696 0.431 0.9 -0.061
-59.349 211.766 98.165 0.183 0.909 -0.374
-58.932 211.97 98.544 -0.095 0.774 -0.627
-59.888 211.92 97.958 0.542 0.806 -0.236
-59.577 212.14 98.613 0.335 0.66 -0.673
-60.639 212.106 98.264 -0.172 0.983 0.056
-60.31 212.322 98.912 -0.391 0.84 -0.376
-61.155 212.107 98.251 0.172 0.983 0.065
-61.229 212.219 98.882 0.221 0.908 -0.356
-61.58 212.115 98.199 -0.142 0.989 0.027
-61.654 212.228 98.83 -0.093 0.914 -0.394
-61.99 212.128 98.029 0.131 0.981 0.14
-62.658 212.018 97.497 -0.356 0.901 -0.247
-60.67 212.651 99.503 -0.152 0.62 -0.77
-61.34 213.017 99.962 0.181 0.881 -0.437
-60.759 213.047 100.003 -0.206 0.861 -0.465
-60.225 213.272 99.939 -0.562 0.711 -0.422
-60.779 213.229 100.62 -0.218 0.972 -0.088
-61.483 213.248 100.685 0.251 0.959 -0.131
-62.191 213.012 100.014 -0.245 0.878 -0.411
-62.217 213.067 100.134 -0.227 0.841 -0.49
-62.246 213.132 100.247 -0.208 0.798 -0.566
-63.064 212.684 100.514 -0.681 0.714 -0.161
-62.99 212.777 100.576 -0.73 0.653 -0.202
-62.924 212.878 100.635 -0.774 0.585 -0.242
-62.983 212.607 101.565 -0.64 0.676 0.364
-62.918 212.709 101.507 -0.684 0.608 0.403
-62.862 212.818 101.453 -0.721 0.535 0.439
-62.041 212.868 101.968 -0.17 0.807 0.566
-62.085 212.94 101.864 -0.141 0.759 0.636
-62.129 213.021 101.767 -0.111 0.705 0.7
-61.44 213.207 101.239 0.278 0.933 0.229
-60.735 213.187 101.193 -0.192 0.946 0.26
-60.628 212.93 101.75 -0.127 0.79 0.6
-60.553 212.754 102.076 -0.176 0.907 0.383
-61.407 212.344 102.487 0.147 0.545 0.826
-60.727 212.305 102.583 -0.306 0.571 0.762
-60.143 212.446 102.919 -0.695 0.477 0.538
-60.724 211.652 102.833 -0.304 0.083 0.949
-62.282 211.133 102.746 -0.29 -0.061 0.955
-62.086 210.966 102.82 -0.421 0.05 0.906
-60.719 211.505 102.856 -0.307 0.182 0.934
-61.149 210.614 102.814 0.36 -0.244 0.901
-60.494 210.901 102.819 -0.077 -0.436 0.897
-59.865 211.039 103.131 -0.497 -0.528 0.689
-60.263 210.473 102.394 0.159 -0.872 0.462
-61.089 209.491 102.072 0.702 -0.225 0.675
-61.044 208.778 102.04 0.672 0.25 0.697
-61.296 209.477 102.217 0.419 -0.245 0.874
-61.274 208.762 102.201 0.405 0.231 0.885
-60.953 208.748 101.969 0.612 0.27 0.744
-60.946 209.43 101.925 0.607 -0.184 0.773
-60.942 208.747 101.96 0.621 0.27 0.736
-60.935 209.429 101.916 0.616 -0.185 0.766
-60.697 208.596 101.851 0.458 0.37 0.808
-60.644 208.574 101.826 0.589 0.315 0.744
-59.914 208.802 101.471 0.102 0.164 0.981
-59.744 209.514 101.517 -0.012 -0.311 0.95
-59.578 210.115 101.905 -0.123 -0.712 0.692
-59.66 208.8 101.28 0.916 0.157 0.37
-59.656 209.513 101.451 0.913 -0.319 0.256
-59.324 210.113 101.714 0.691 -0.718 0.081
-59.511 208.739 101.021 0.816 0.198 0.543
-59.45 209.392 100.957 0.775 -0.238 0.585
-59.164 209.977 101.064 0.584 -0.627 0.515
-59.412 208.716 100.77 0.978 0.161 0.13
-59.371 209.374 100.756 0.95 -0.278 0.139
-59.053 209.951 100.782 0.739 -0.663 0.121
-59.346 208.622 100.547 0.934 0.223 0.278
-59.289 209.196 100.343 0.896 -0.159 0.414
-59.008 209.729 100.241 0.709 -0.515 0.482
-58.551 210.135 100.26 0.404 -0.785 0.47
-59.52 208.64 100.159 0.423 0.275 -0.863
-59.31 209.198 100.296 0.283 -0.097 -0.954
-59.029 209.731 100.194 0.096 -0.453 -0.887
-58.724 210.152 99.872 -0.107 -0.733 -0.672
-60.074 208.501 99.595 0.792 0.368 -0.487
-60.075 208.496 99.589 0.791 0.363 -0.493
-60.147 209.552 99.504 0.841 -0.333 -0.426
-59.707 210.058 99.614 0.548 -0.671 -0.5
-59.099 210.359 99.571 0.142 -0.871 -0.471
-60.147 209.552 99.503 0.84 -0.331 -0.429
-59.708 210.059 99.614 0.547 -0.669 -0.503
-59.099 210.359 99.569 0.142 -0.869 -0.474
-57.92 210.936 101.399 0.621 -0.702 0.348
-57.617 211.703 101.502 0.897 -0.005 0.442
-57.167 212.324 100.722 0.621 0.489 0.612
-57.589 212.574 101.212 0.902 0.323 0.285
-57.361 212.805 100.244 0.483 0.833 0.271
-57.808 213.117 100.673 0.781 0.625 -0.015
-57.718 212.987 99.664 0.228 0.963 -0.143
-58.211 213.323 100.017 0.557 0.739 -0.379
-58.146 212.825 99.129 -0.078 0.847 -0.526
-58.695 213.139 99.412 0.288 0.637 -0.715
-57.741 212.502 101.6 0.818 0.283 0.501
-57.888 212.333 102.255 0.916 0.396 0.064
-58.15 213.052 101.692 0.591 0.589 0.552
-58.25 212.819 102.337 0.657 0.744 0.122
-58.758 213.375 101.757 0.253 0.768 0.588
-58.788 213.105 102.395 0.273 0.948 0.163
-59.448 213.41 101.783 -0.131 0.788 0.602
-59.399 213.136 102.417 -0.163 0.97 0.179
-60.173 210.414 102.271 0.108 -0.842 0.529
-60.18 210.421 102.282 0.103 -0.837 0.537
-60.864 213.178 101.152 -0.106 0.952 0.288
-60.9 213.213 100.679 -0.137 0.982 -0.127
-59.859 207.729 99.117 0.649 0.685 -0.33
-59.893 207.661 98.441 0.672 0.731 0.121
-59.63 207.224 99.146 0.957 0.007 -0.29
-59.673 207.177 98.47 0.986 0.038 0.161
-59.625 207.12 99.147 0.954 0.077 -0.291
-59.654 206.991 98.468 0.973 0.162 0.162
-59.416 206.587 99.894 0.642 -0.516 -0.567
-59.724 206.575 99.275 0.848 -0.508 -0.154
-59.761 206.401 98.606 0.873 -0.392 0.292
-59.52 206.102 98.031 0.712 -0.193 0.675
-60.127 206.2 99.415 0.415 -0.91 -0.004
-60.198 205.995 98.758 0.462 -0.773 0.434
-58.947 207.396 96.526 0.723 0.399 0.563
-58.767 206.55 96.37 0.861 -0.249 0.443
-58.045 206.432 95.33 0.919 -0.119 0.375
-58.007 206.765 95.455 0.894 -0.341 0.292
-57.915 206.793 94.692 0.996 0.093 -0.001
-57.898 207.067 94.921 0.984 -0.089 -0.154
-58.132 207.348 94.244 0.869 0.419 -0.264
-58.079 207.531 94.546 0.833 0.297 -0.466
-59.026 207.451 96.597 0.776 0.362 0.516
-59.172 207.724 96.517 0.616 0.661 0.429
-59.046 208.421 95.875 0.607 0.303 0.734
-59.272 208.992 96.005 0.759 -0.077 0.647
-58.405 208.143 95.319 0.562 0.808 0.179
-58.838 208.596 95.369 0.85 0.507 0.145
-59.047 209.181 95.458 0.989 0.116 0.086
-58.996 209.796 95.568 0.956 -0.294 0.013
-58.975 208.607 94.813 0.69 0.519 -0.504
-59.195 209.193 94.854 0.837 0.129 -0.531
-59.749 206.122 101.169 0.404 -0.848 0.343
-60.283 205.803 101.481 0.76 -0.635 0.135
-63.924 207.252 101.675 -0.544 0.268 0.795
-64.012 207.315 101.579 -0.64 0.336 0.691
-62.571 202.528 95.607 0.236 -0.813 -0.533
-61.714 202.959 95.394 0.422 -0.903 0.075
-62.062 202.66 95.92 0.654 -0.704 -0.276
-62.197 202.133 96.357 0.744 -0.353 -0.567
-61.781 202.961 96.374 0.884 -0.457 0.097
-65.4 207.001 99.014 -0.934 -0.35 0.072
-65.327 206.4 98.856 -0.983 0.051 0.177
-65.282 207.167 98.436 -0.803 -0.164 -0.574
-65.209 206.566 98.278 -0.851 0.237 -0.468
-60.335 209.587 101.666 0.301 -0.327 0.896
-64.762 204.804 94.76 -0.924 -0.191 -0.331
-65.214 206.92 95.53 -0.707 0.101 0.7
-64.612 207.268 97.017 -1 0 0
-64.726 206.694 97.017 -0.924 0.383 0
-62.768 206.271 92.781 0 -0.707 -0.707
-60.775 205.764 99.566 0.707 -0.707 0
-61.135 204.915 99.062 0.924 -0.191 0.331
-59.325 209.099 94.554 0.924 0.191 -0.331
-59.31 208.021 96.359 0.707 0.463 0.534
-59.635 208.429 96.663 0.924 0.191 0.331
-60.27 208.183 98.622 0.924 0.383 0
-60.27 208.47 98.125 0.924 0.191 0.331
-59.461 210.441 98.859 0.383 -0.924 0
-59.948 210.116 98.859 0.707 -0.707 0
-60.273 209.629 98.859 0.924 -0.383 0
-60.897 212.195 98.922 0 0.924 -0.383
-60.335 208.739 101.591 0.383 0.206 0.901
-59.459 209.917 99.948 0.383 -0.576 -0.722
-59.946 209.493 99.829 0.707 -0.294 -0.643
-59.946 208.902 99.914 0.707 0.101 -0.7
-66.535 202.415 98.47 -0.866 -0.25 0.433
-66.535 202.115 97.95 -0.866 -0.5 -0
-66.535 202.415 97.43 -0.866 -0.25 -0.433
-66.535 203.015 97.43 -0.866 0.25 -0.433
-66.696 202.715 97.95 -1 0 0
-65.914 205.092 97.202 -0.951 0.309 0
-65.959 204.965 99.55 -0.951 0.309 0
-65.433 203.231 100.722 -0.5 -0.567 0.654
-65.872 203.612 100.457 -0.866 -0.25 0.433
-63.653 200.425 99.846 -0 -0.971 0.239
-63.653 200.425 99.272 -0 -0.971 -0.239
-64.253 200.909 100.344 -0.5 -0.567 0.654
-64.253 200.593 99.852 -0.5 -0.831 0.244
-65.166 200.888 97.668 -0.223 -0.975 0
-65.166 201.023 97.076 -0.223 -0.878 -0.423
-65.166 201.402 96.601 -0.223 -0.608 -0.762
-65.727 201.203 97.976 -0.623 -0.75 0.22
-65.727 201.203 97.36 -0.623 -0.75 -0.22
-65.727 201.536 96.841 -0.623 -0.512 -0.591
-63.066 201.169 97.316 0.309 -0.938 -0.157
-63.011 202.755 94.056 0.223 -0.878 -0.423
-63.011 203.134 93.581 0.223 -0.608 -0.762
-63.635 202.755 94.056 -0.223 -0.878 -0.423
-63.635 203.134 93.581 -0.223 -0.608 -0.762
-63.635 203.681 93.317 -0.223 -0.217 -0.95
-64.196 202.935 94.34 -0.623 -0.75 -0.22
-64.196 203.268 93.821 -0.623 -0.512 -0.591
-64.584 203.681 94.122 -0.901 -0.217 -0.376
-65.484 208.236 92.479 -0.5 0.579 -0.644
-65.936 208.344 93.573 -0.766 0.643 0
-65.936 207.705 92.579 -0.766 0.267 -0.585
-65.936 208.17 92.982 -0.766 0.541 -0.348
-66.375 207.407 94.569 -0.866 0.25 0.433
-66.375 206.807 94.569 -0.866 -0.25 0.433
-66.375 206.507 94.049 -0.866 -0.5 -0
-66.536 207.107 94.049 -1 0 0
-65.966 209.083 99.255 -0.901 0.434 0
-65.966 208.78 99.781 -0.901 0.217 0.376
-65.966 208.172 98.729 -0.901 -0.217 -0.376
-65.966 208.78 98.729 -0.901 0.217 -0.376
-66.105 208.476 99.255 -1 0 0
-64.71 205.196 102.305 -0.588 -0 0.809
-64.71 204.577 102.182 -0.588 -0.31 0.747
-65.152 205.196 101.863 -0.809 -0 0.588
-62.175 201.964 100.885 0.623 -0.111 0.774
-62.175 201.403 100.629 0.623 -0.512 0.591
-62.175 201.07 100.11 0.623 -0.75 0.22
-62.175 201.07 99.494 0.623 -0.75 -0.22
-62.736 201.816 101.133 0.223 -0.217 0.95
-62.736 201.269 100.869 0.223 -0.608 0.762
-63.36 201.816 101.133 -0.223 -0.217 0.95
-61.485 202.279 98.421 0.809 -0.509 -0.294
-61.383 203.147 95.243 0.588 -0.809 0
-64.572 206.016 91.988 -0 -0.749 -0.663
-64.572 206.488 91.662 -0 -0.355 -0.935
-65.172 206.233 91.999 -0.5 -0.567 -0.654
-65.172 206.766 91.755 -0.5 -0.123 -0.857
-61.98 207.119 91.676 0.5 -0.567 -0.654
-62.58 207.374 91.339 -0 -0.355 -0.935
-62.58 207.945 91.27 -0 0.121 -0.993
-64.257 209.5 92.892 -0.309 0.751 -0.584
-64.257 209.798 93.442 -0.309 0.9 -0.309
-64.815 209.494 93.441 -0.588 0.747 -0.31
-63.823 210.741 94.982 -0.588 0.747 -0.31
-65.299 210.407 97.017 -0.866 0.25 -0.433
-63.994 211.762 97.292 -0.309 0.9 -0.309
-64.552 211.581 97.91 -0.588 0.809 0
-64.552 211.458 97.291 -0.588 0.747 -0.31
-64.994 210.981 98.498 -0.809 0.509 0.294
-63.924 212.072 100.115 -0.588 0.809 0
-64.366 211.63 100.115 -0.809 0.588 0
-64.104 210.349 101.75 -0.5 -0.123 0.857
-64.543 210.797 101.241 -0.866 0.25 0.433
-60.527 206.271 103.199 0.901 -0.217 0.376
-60.915 207.03 103.669 0.623 0.325 0.711
-60.915 206.419 103.756 0.623 -0.111 0.774
-60.915 205.858 103.5 0.623 -0.512 0.591
-60.915 205.525 102.981 0.623 -0.75 0.22
-61.476 207.426 103.74 0.223 0.608 0.762
-61.476 206.879 104.004 0.223 0.217 0.95
-61.476 206.271 104.004 0.223 -0.217 0.95
-61.476 205.724 103.74 0.223 -0.608 0.762
-61.476 205.345 103.265 0.223 -0.878 0.423
-62.1 207.426 103.74 -0.223 0.608 0.762
-62.1 206.879 104.004 -0.223 0.217 0.95
-62.1 206.271 104.004 -0.223 -0.217 0.95
-62.1 205.724 103.74 -0.223 -0.608 0.762
-62.661 207.03 103.669 -0.623 0.325 0.711
-62.661 206.419 103.756 -0.623 -0.111 0.774
-63.422 204.223 102.603 -0 -0.355 0.935
-59.499 204.638 95.942 0.588 -0.747 0.31
-59.499 204.515 95.323 0.588 -0.809 0
-60.616 204.11 93.777 0.5 -0.701 -0.509
-61.171 204.292 93.306 0.174 -0.593 -0.786
-61.171 204.843 93.032 0.174 -0.27 -0.947
-58.85 205.738 93.091 0.5 -0.567 -0.654
-58.85 206.271 92.847 0.5 -0.123 -0.857
-59.45 205.993 92.754 -0 -0.355 -0.935
-59.231 209.634 92.728 0.901 0.434 0
-59.231 208.723 92.202 0.901 -0.217 -0.376
-59.231 209.331 92.202 0.901 0.217 -0.376
-59.619 208.871 91.645 0.623 -0.111 -0.774
-59.619 209.482 91.732 0.623 0.325 -0.711
-59.619 209.948 92.136 0.623 0.658 -0.423
-60.18 208.176 91.661 0.223 -0.608 -0.762
-60.18 208.723 91.397 0.223 -0.217 -0.95
-60.18 209.331 91.397 0.223 0.217 -0.95
-60.18 209.878 91.661 0.223 0.608 -0.762
-60.18 210.257 92.136 0.223 0.878 -0.423
-61.42 210.578 92.421 -0 0.826 -0.563
-62.038 209.966 91.956 -0.309 0.52 -0.796
-62.038 210.427 92.38 -0.309 0.751 -0.584
-62.133 211.291 94.231 -0.309 0.9 -0.309
-60.038 212.133 96.69 0.588 0.809 0
-60.596 212.417 96.69 0.309 0.951 0
-61.214 212.515 96.69 -0 1 0
-61.214 212.426 97.28 -0 0.956 0.295
-61.214 212.426 96.1 -0 0.956 -0.295
-61.832 212.417 96.69 -0.309 0.951 0
-61.832 212.314 96.072 -0.309 0.9 -0.309
-62.39 212.01 96.071 -0.588 0.747 -0.31
-61.702 212.907 99.709 -0 0.826 -0.563
-62.32 212.295 102.428 -0.309 0.52 0.796
-62.32 211.722 102.68 -0.309 0.233 0.922
-62.878 211.874 102.331 -0.588 0.31 0.747
-62.878 211.255 102.454 -0.588 -0 0.809
-61.581 210.481 102.855 -0 -0.355 0.935
-58.915 207.309 100.688 1 0 0
-59.054 207.613 101.214 0.901 0.217 0.376
-59.054 207.005 101.214 0.901 -0.217 0.376
-59.054 206.702 100.688 0.901 -0.434 -0
-59.054 207.005 100.162 0.901 -0.217 -0.376
-59.054 207.613 100.162 0.901 0.217 -0.376
-59.442 207.764 101.684 0.623 0.325 0.711
-59.442 206.259 100.996 0.623 -0.75 0.22
-59.442 206.259 100.38 0.623 -0.75 -0.22
-59.042 206.178 97.215 0.951 -0.155 0.268
-59.326 205.899 97.698 0.809 -0.294 0.509
-59.326 205.469 97.268 0.809 -0.509 0.294
-59.768 205.343 97.824 0.588 -0.572 0.572
-59.768 204.992 97.299 0.588 -0.747 0.31
-58.011 206.054 94.693 0.94 -0.342 -0
-58.011 206.344 94.189 0.94 -0.171 -0.296
-58.306 205.919 95.519 0.766 -0.421 0.486
-58.306 205.587 95.001 0.766 -0.617 0.181
-58.306 205.587 94.385 0.766 -0.617 -0.181
-58.04 207.774 95.105 0.866 0.5 0
-58.04 207.474 95.625 0.866 0.25 0.433
-58.921 210.296 95.547 1 0 0
-59.024 210.877 95.547 0.94 0.342 0
-59.024 210.587 95.043 0.94 0.171 -0.296
-59.319 211.389 95.547 0.766 0.643 0
-59.319 211.215 94.956 0.766 0.541 -0.348
-59.771 211.281 94.453 0.5 0.579 -0.644
-59.771 211.641 94.948 0.5 0.791 -0.352
-60.326 211.533 94.419 0.174 0.728 -0.663
-60.326 211.857 94.942 0.174 0.918 -0.356
-56.637 211.639 99.865 1 0 0
-56.776 212.246 99.865 0.901 0.434 0
-56.776 211.943 100.391 0.901 0.217 0.376
-56.776 211.335 100.391 0.901 -0.217 0.376
-56.776 211.032 99.865 0.901 -0.434 -0
-56.776 211.335 99.339 0.901 -0.217 -0.376
-56.776 211.943 99.339 0.901 0.217 -0.376
-57.164 212.734 99.865 0.623 0.782 0
-57.164 210.589 100.173 0.623 -0.75 0.22
-57.164 210.589 99.557 0.623 -0.75 -0.22
-57.164 210.922 99.038 0.623 -0.512 -0.591
-57.164 211.483 98.782 0.623 -0.111 -0.774
-57.164 212.094 98.869 0.623 0.325 -0.711
-57.164 212.56 99.273 0.623 0.658 -0.423
-57.725 210.409 99.273 0.223 -0.878 -0.423
-57.725 211.943 98.534 0.223 0.217 -0.95
-57.725 212.49 98.798 0.223 0.608 -0.762
-57.834 212.994 101.278 0.766 0.557 0.321
-58.313 213.551 100.699 0.5 0.866 0
-58.313 213.432 101.296 0.5 0.8 0.331
-58.9 213.765 100.699 0.174 0.985 0
-58.9 213.658 101.305 0.174 0.925 0.337
-58.9 213.658 100.093 0.174 0.925 -0.337
-59.526 213.765 100.699 -0.174 0.985 0
-59.526 213.658 101.305 -0.174 0.925 0.337
-59.526 213.35 99.56 -0.174 0.754 -0.633
-59.526 213.658 100.093 -0.174 0.925 -0.337
-61.996 213.375 100.926 -0 1 0
-62.596 213.214 100.926 -0.5 0.866 0
-57.909 212.082 102.692 0.901 0.217 0.376
-57.909 211.474 102.692 0.901 -0.217 0.376
-58.297 212.699 102.758 0.623 0.658 0.423
-58.297 212.233 103.162 0.623 0.325 0.711
-58.297 211.622 103.249 0.623 -0.111 0.774
-58.297 211.061 102.993 0.623 -0.512 0.591
-58.297 210.728 102.474 0.623 -0.75 0.22
-58.858 213.008 102.758 0.223 0.878 0.423
-58.858 212.629 103.233 0.223 0.608 0.762
-58.858 212.082 103.497 0.223 0.217 0.95
-58.858 211.474 103.497 0.223 -0.217 0.95
-58.858 210.927 103.233 0.223 -0.608 0.762
-58.858 210.548 102.758 0.223 -0.878 0.423
-59.482 213.008 102.758 -0.223 0.878 0.423
-59.482 212.629 103.233 -0.223 0.608 0.762
-59.482 212.082 103.497 -0.223 0.217 0.95
-59.482 211.474 103.497 -0.223 -0.217 0.95
-59.482 210.927 103.233 -0.223 -0.608 0.762
3 0 4 398
3 398 4 399
3 398 399 1
3 1 399 3
3 4 7 400
3 400 7 401
3 400 401 5
3 5 401 6
3 7 10 402
3 402 10 403
3 402 403 8
3 8 403 9
3 10 13 404
3 404 13 405
3 404 405 11
3 11 405 12
3 13 16 406
3 406 16 407
3 406 407 14
3 14 407 15
3 16 408 17
3 17 408 409
3 408 410 409
3 409 410 411
3 410 412 411
3 411 412 413
3 412 0 413
3 413 0 2
3 17 415 414
3 414 415 416
3 414 416 15
3 15 416 417
3 415 418 416
3 416 418 419
3 416 419 417
3 417 419 420
3 418 19 419
3 419 19 421
3 419 421 420
3 420 421 18
3 19 422 20
3 20 422 423
3 422 424 423
3 423 424 425
3 424 426 425
3 425 426 427
3 426 22 427
3 427 22 21
3 22 25 23
3 23 25 24
3 25 2 428
3 428 2 429
3 428 429 26
3 26 429 1
3 26 28 24
3 24 28 27
3 28 31 430
3 430 31 431
3 430 431 29
3 29 431 30
3 31 34 432
3 432 34 434
3 432 434 433
3 433 434 435
3 433 435 32
3 32 435 33
3 34 37 436
3 436 37 438
3 436 438 437
3 437 438 439
3 437 439 35
3 35 439 36
3 37 3 38
3 38 3 5
3 38 40 440
3 440 40 442
3 440 442 441
3 441 442 443
3 441 443 36
3 36 443 39
3 40 43 444
3 444 43 446
3 444 446 445
3 445 446 447
3 445 447 41
3 41 447 42
3 43 46 448
3 448 46 450
3 448 450 449
3 449 450 451
3 449 451 44
3 44 451 45
3 46 49 452
3 452 49 454
3 452 454 453
3 453 454 455
3 453 455 47
3 47 455 48
3 49 52 50
3 50 52 51
3 52 6 53
3 53 6 8
3 53 55 51
3 51 55 54
3 55 58 456
3 456 58 458
3 456 458 457
3 457 458 459
3 457 459 56
3 56 459 57
3 58 61 460
3 460 61 462
3 460 462 461
3 461 462 463
3 461 463 59
3 59 463 60
3 61 464 62
3 62 464 465
3 464 64 465
3 465 64 63
3 64 9 65
3 65 9 11
3 65 67 63
3 63 67 66
3 67 70 68
3 68 70 69
3 70 12 466
3 466 12 467
3 466 467 71
3 71 467 14
3 71 73 468
3 468 73 469
3 468 469 69
3 69 469 72
3 73 470 74
3 74 470 471
3 470 472 471
3 471 472 473
3 472 474 473
3 473 474 475
3 474 476 475
3 475 476 477
3 476 76 477
3 477 76 75
3 76 18 478
3 478 18 479
3 478 479 77
3 77 479 20
3 77 79 480
3 480 79 481
3 480 481 75
3 75 481 78
3 79 482 80
3 80 482 483
3 482 484 483
3 483 484 485
3 484 82 485
3 485 82 81
3 82 85 486
3 486 85 487
3 486 487 83
3 83 487 84
3 85 488 86
3 86 488 489
3 488 490 489
3 489 490 491
3 490 88 491
3 491 88 87
3 88 493 492
3 492 493 494
3 492 494 89
3 89 494 495
3 493 91 494
3 494 91 496
3 494 496 495
3 495 496 90
3 91 21 92
3 92 21 23
3 92 27 497
3 497 27 498
3 497 498 90
3 90 498 29
3 89 94 499
3 499 94 500
3 499 500 87
3 87 500 93
3 94 501 95
3 95 501 502
3 501 503 502
3 502 503 504
3 503 505 504
3 504 505 506
3 505 97 506
3 506 97 96
3 97 100 507
3 507 100 509
3 507 509 508
3 508 509 510
3 508 510 98
3 98 510 99
3 100 30 511
3 511 30 513
3 511 513 512
3 512 513 514
3 512 514 101
3 101 514 32
3 101 515 99
3 99 515 516
3 515 517 516
3 516 517 518
3 517 519 518
3 518 519 520
3 519 103 520
3 520 103 102
3 103 106 521
3 521 106 522
3 521 522 104
3 104 522 105
3 106 109 107
3 107 109 108
3 109 523 110
3 110 523 524
3 523 525 524
3 524 525 526
3 525 527 526
3 526 527 528
3 527 112 528
3 528 112 111
3 112 529 113
3 113 529 530
3 529 531 530
3 530 531 532
3 531 533 532
3 532 533 534
3 533 33 534
3 534 33 35
3 113 115 111
3 111 115 114
3 115 536 535
3 535 536 537
3 535 537 116
3 116 537 538
3 536 39 537
3 537 39 539
3 537 539 538
3 538 539 41
3 116 540 114
3 114 540 541
3 540 118 541
3 541 118 117
3 118 121 119
3 119 121 120
3 121 543 542
3 542 543 544
3 542 544 122
3 122 544 545
3 543 124 544
3 544 124 546
3 544 546 545
3 545 546 123
3 124 127 547
3 547 127 548
3 547 548 125
3 125 548 126
3 127 130 549
3 549 130 551
3 549 551 550
3 550 551 552
3 550 552 128
3 128 552 129
3 130 42 553
3 553 42 554
3 553 554 131
3 131 554 44
3 131 45 129
3 129 45 47
3 128 133 126
3 126 133 132
3 133 136 555
3 555 136 556
3 555 556 134
3 134 556 135
3 136 139 137
3 137 139 138
3 139 142 557
3 557 142 558
3 557 558 140
3 140 558 141
3 142 145 559
3 559 145 560
3 559 560 143
3 143 560 144
3 145 561 146
3 146 561 562
3 561 563 562
3 562 563 564
3 563 57 564
3 564 57 59
3 146 148 565
3 565 148 566
3 565 566 144
3 144 566 147
3 148 151 567
3 567 151 568
3 567 568 149
3 149 568 150
3 151 570 569
3 569 570 571
3 569 571 152
3 152 571 572
3 570 154 571
3 571 154 573
3 571 573 572
3 572 573 153
3 154 60 574
3 574 60 575
3 574 575 155
3 155 575 62
3 155 576 153
3 153 576 577
3 576 157 577
3 577 157 156
3 157 160 578
3 578 160 579
3 578 579 158
3 158 579 159
3 160 581 580
3 580 581 582
3 580 582 161
3 161 582 583
3 581 163 582
3 582 163 584
3 582 584 583
3 583 584 162
3 163 585 164
3 164 585 586
3 585 166 586
3 586 166 165
3 166 169 587
3 587 169 588
3 587 588 167
3 167 588 168
3 169 66 170
3 170 66 68
3 170 72 589
3 589 72 590
3 589 590 168
3 168 590 74
3 167 172 591
3 591 172 592
3 591 592 165
3 165 592 171
3 172 175 593
3 593 175 594
3 593 594 173
3 173 594 174
3 175 595 176
3 176 595 596
3 595 597 596
3 596 597 598
3 597 599 598
3 598 599 600
3 599 78 600
3 600 78 80
3 176 178 174
3 174 178 177
3 178 181 601
3 601 181 602
3 601 602 179
3 179 602 180
3 181 603 182
3 182 603 604
3 603 184 604
3 604 184 183
3 184 187 605
3 605 187 606
3 605 606 185
3 185 606 186
3 187 81 607
3 607 81 609
3 607 609 608
3 608 609 610
3 608 610 188
3 188 610 83
3 188 190 186
3 186 190 189
3 190 193 191
3 191 193 192
3 193 611 194
3 194 611 612
3 611 613 612
3 612 613 614
3 613 615 614
3 614 615 616
3 615 617 616
3 616 617 618
3 617 196 618
3 618 196 195
3 196 96 619
3 619 96 621
3 619 621 620
3 620 621 622
3 620 622 197
3 197 622 98
3 197 199 623
3 623 199 625
3 623 625 624
3 624 625 626
3 624 626 195
3 195 626 198
3 199 628 627
3 627 628 629
3 627 629 200
3 200 629 630
3 628 631 629
3 629 631 632
3 629 632 630
3 630 632 633
3 631 102 632
3 632 102 634
3 632 634 633
3 633 634 104
3 200 202 635
3 635 202 637
3 635 637 636
3 636 637 638
3 636 638 198
3 198 638 201
3 202 205 639
3 639 205 641
3 639 641 640
3 640 641 642
3 640 642 203
3 203 642 204
3 205 208 206
3 206 208 207
3 208 211 643
3 643 211 644
3 643 644 209
3 209 644 210
3 211 214 212
3 212 214 213
3 214 105 215
3 215 105 107
3 215 645 213
3 213 645 646
3 645 217 646
3 646 217 216
3 217 647 218
3 218 647 648
3 647 108 648
3 648 108 110
3 218 220 216
3 216 220 219
3 220 223 649
3 649 223 650
3 649 650 221
3 221 650 222
3 223 117 224
3 224 117 119
3 224 651 222
3 222 651 652
3 651 226 652
3 652 226 225
3 226 229 227
3 227 229 228
3 229 232 230
3 230 232 231
3 232 120 653
3 653 120 654
3 653 654 233
3 233 654 122
3 233 655 231
3 231 655 656
3 655 135 656
3 656 135 137
3 230 235 228
3 228 235 234
3 235 657 236
3 236 657 658
3 657 238 658
3 658 238 237
3 238 659 239
3 239 659 660
3 659 138 660
3 660 138 140
3 239 241 237
3 237 241 240
3 241 661 242
3 242 661 662
3 661 663 662
3 662 663 664
3 663 244 664
3 664 244 243
3 244 665 245
3 245 665 666
3 665 141 666
3 666 141 143
3 245 247 243
3 243 247 246
3 247 250 248
3 248 250 249
3 250 147 667
3 667 147 668
3 667 668 251
3 251 668 149
3 251 253 249
3 249 253 252
3 253 256 669
3 669 256 670
3 669 670 254
3 254 670 255
3 256 259 671
3 671 259 672
3 671 672 257
3 257 672 258
3 259 674 673
3 673 674 675
3 673 675 260
3 260 675 676
3 674 159 675
3 675 159 677
3 675 677 676
3 676 677 161
3 260 262 678
3 678 262 681
3 678 681 679
3 679 681 682
3 679 682 680
3 680 682 683
3 680 683 258
3 258 683 261
3 262 265 263
3 263 265 264
3 265 268 684
3 684 268 685
3 684 685 266
3 266 685 267
3 268 686 269
3 269 686 687
3 686 271 687
3 687 271 270
3 271 274 688
3 688 274 689
3 688 689 272
3 272 689 273
3 274 691 690
3 690 691 692
3 690 692 275
3 275 692 693
3 691 162 692
3 692 162 694
3 692 694 693
3 693 694 164
3 275 171 273
3 273 171 173
3 272 277 695
3 695 277 696
3 695 696 270
3 270 696 276
3 277 177 278
3 278 177 179
3 278 280 276
3 276 280 279
3 280 283 697
3 697 283 698
3 697 698 281
3 281 698 282
3 283 286 699
3 699 286 700
3 699 700 284
3 284 700 285
3 286 180 701
3 701 180 702
3 701 702 287
3 287 702 182
3 287 704 703
3 703 704 705
3 703 705 285
3 285 705 706
3 704 183 705
3 705 183 707
3 705 707 706
3 706 707 185
3 284 289 708
3 708 289 710
3 708 710 709
3 709 710 711
3 709 711 282
3 282 711 288
3 289 712 290
3 290 712 713
3 712 714 713
3 713 714 715
3 714 292 715
3 715 292 291
3 292 189 293
3 293 189 191
3 293 716 291
3 291 716 717
3 716 718 717
3 717 718 719
3 718 295 719
3 719 295 294
3 295 720 296
3 296 720 721
3 720 722 721
3 721 722 723
3 722 724 723
3 723 724 725
3 724 298 725
3 725 298 297
3 298 726 299
3 299 726 727
3 726 192 727
3 727 192 194
3 299 301 297
3 297 301 300
3 301 729 728
3 728 729 730
3 728 730 302
3 302 730 731
3 729 201 730
3 730 201 732
3 730 732 731
3 731 732 203
3 302 733 300
3 300 733 734
3 733 735 734
3 734 735 736
3 735 304 736
3 736 304 303
3 304 738 737
3 737 738 739
3 737 739 305
3 305 739 740
3 738 307 739
3 739 307 741
3 739 741 740
3 740 741 306
3 307 204 742
3 742 204 743
3 742 743 308
3 308 743 206
3 308 207 306
3 306 207 209
3 305 310 744
3 744 310 745
3 744 745 303
3 303 745 309
3 310 313 746
3 746 313 748
3 746 748 747
3 747 748 749
3 747 749 311
3 311 749 312
3 313 751 750
3 750 751 752
3 750 752 314
3 314 752 753
3 751 316 752
3 752 316 754
3 752 754 753
3 753 754 315
3 316 755 317
3 317 755 756
3 755 757 756
3 756 757 758
3 757 759 758
3 758 759 760
3 759 210 760
3 760 210 212
3 317 319 761
3 761 319 762
3 761 762 315
3 315 762 318
3 319 763 320
3 320 763 764
3 763 765 764
3 764 765 766
3 765 219 766
3 766 219 221
3 320 767 318
3 318 767 768
3 767 322 768
3 768 322 321
3 322 225 323
3 323 225 227
3 323 769 321
3 321 769 770
3 769 771 770
3 770 771 772
3 771 773 772
3 772 773 774
3 773 775 774
3 774 775 776
3 775 777 776
3 776 777 778
3 777 779 778
3 778 779 780
3 779 325 780
3 780 325 324
3 325 328 781
3 781 328 783
3 781 783 782
3 782 783 784
3 782 784 326
3 326 784 327
3 328 331 785
3 785 331 787
3 785 787 786
3 786 787 788
3 786 788 329
3 329 788 330
3 331 334 789
3 789 334 792
3 789 792 790
3 790 792 793
3 790 793 791
3 791 793 794
3 791 794 332
3 332 794 333
3 334 337 795
3 795 337 796
3 795 796 335
3 335 796 336
3 337 800 797
3 797 800 801
3 797 801 798
3 798 801 802
3 798 802 799
3 799 802 803
3 799 803 338
3 338 803 804
3 800 805 801
3 801 805 806
3 801 806 802
3 802 806 807
3 802 807 803
3 803 807 808
3 803 808 804
3 804 808 809
3 805 810 806
3 806 810 811
3 806 811 807
3 807 811 812
3 807 812 808
3 808 812 813
3 808 813 809
3 809 813 814
3 810 340 811
3 811 340 815
3 811 815 812
3 812 815 816
3 812 816 813
3 813 816 817
3 813 817 814
3 814 817 339
3 340 343 818
3 818 343 820
3 818 820 819
3 819 820 821
3 819 821 341
3 341 821 342
3 343 346 822
3 822 346 824
3 822 824 823
3 823 824 825
3 823 825 344
3 344 825 345
3 346 234 826
3 826 234 827
3 826 827 347
3 347 827 236
3 347 240 345
3 345 240 242
3 344 829 828
3 828 829 830
3 828 830 342
3 342 830 831
3 829 349 830
3 830 349 832
3 830 832 831
3 831 832 348
3 349 834 833
3 833 834 835
3 833 835 350
3 350 835 836
3 834 837 835
3 835 837 838
3 835 838 836
3 836 838 839
3 837 840 838
3 838 840 841
3 838 841 839
3 839 841 842
3 840 843 841
3 841 843 844
3 841 844 842
3 842 844 845
3 843 352 844
3 844 352 846
3 844 846 845
3 845 846 351
3 352 355 847
3 847 355 848
3 847 848 353
3 353 848 354
3 355 850 849
3 849 850 851
3 849 851 356
3 356 851 852
3 850 358 851
3 851 358 853
3 851 853 852
3 852 853 357
3 358 854 359
3 359 854 855
3 854 255 855
3 855 255 257
3 359 857 856
3 856 857 858
3 856 858 357
3 357 858 859
3 857 361 858
3 858 361 860
3 858 860 859
3 859 860 360
3 361 364 362
3 362 364 363
3 364 261 861
3 861 261 863
3 861 863 862
3 862 863 864
3 862 864 365
3 365 864 263
3 365 367 865
3 865 367 867
3 865 867 866
3 866 867 868
3 866 868 363
3 363 868 366
3 371 368 370
3 367 372 869
3 869 372 870
3 869 870 369
3 372 264 373
3 373 264 266
3 373 375 871
3 871 375 874
3 871 874 872
3 872 874 875
3 872 875 873
3 873 875 876
3 873 876 371
3 371 876 374
3 375 378 877
3 877 378 880
3 877 880 878
3 878 880 881
3 878 881 879
3 879 881 882
3 879 882 376
3 376 882 377
3 378 381 883
3 883 381 887
3 883 887 884
3 884 887 888
3 884 888 885
3 885 888 889
3 885 889 886
3 886 889 890
3 886 890 379
3 379 890 380
3 381 333 891
3 891 333 892
3 891 892 382
3 382 892 335
3 382 336 893
3 893 336 896
3 893 896 894
3 894 896 897
3 894 897 895
3 895 897 898
3 895 898 380
3 380 898 338
3 379 384 377
3 377 384 383
3 384 387 899
3 899 387 900
3 899 900 385
3 385 900 386
3 387 901 388
3 388 901 902
3 901 903 902
3 902 903 904
3 903 905 904
3 904 905 906
3 905 907 906
3 906 907 908
3 907 339 908
3 908 339 341
3 388 909 386
3 386 909 910
3 909 911 910
3 910 911 912
3 911 913 912
3 912 913 914
3 913 915 914
3 914 915 916
3 915 354 916
3 916 354 356
3 385 374 383
3 383 374 376
3 368 360 917
3 917 360 918
3 917 918 366
3 366 918 362
3 353 348 919
3 919 348 920
3 919 920 351
3 351 920 350
3 332 390 921
3 921 390 923
3 921 923 922
3 922 923 924
3 922 924 330
3 330 924 389
3 390 927 925
3 925 927 928
3 925 928 926
3 926 928 929
3 926 929 391
3 391 929 930
3 927 288 928
3 928 288 931
3 928 931 929
3 929 931 932
3 929 932 930
3 930 932 290
3 391 393 389
3 389 393 392
3 393 396 933
3 933 396 934
3 933 934 394
3 394 934 395
3 396 294 397
3 397 294 296
3 397 935 395
3 395 935 936
3 935 937 936
3 936 937 938
3 937 939 938
3 938 939 940
3 939 309 940
3 940 309 311
3 394 327 941
3 941 327 942
3 941 942 392
3 392 942 329
3 326 945 943
3 943 945 946
3 943 946 944
3 944 946 947
3 944 947 324
3 324 947 948
3 945 312 946
3 946 312 949
3 946 949 947
3 947 949 950
3 947 950 948
3 948 950 314
3 281 951 279
3 279 951 952
3 951 267 952
3 952 267 269
3 254 246 252
3 252 246 248
3 158 150 953
3 953 150 954
3 953 954 156
3 156 954 152
3 134 123 132
3 132 123 125
3 95 956 955
3 955 956 957
3 955 957 93
3 93 957 958
3 956 84 957
3 957 84 959
3 957 959 958
3 958 959 86
3 56 48 960
3 960 48 962
3 960 962 961
3 961 962 963
3 961 963 54
3 54 963 50
3 2 0 429
3 429 0 398
3 429 398 1
3 5 3 399
3 5 399 400
3 400 399 4
3 8 6 402
3 402 6 401
3 402 401 7
3 11 9 404
3 404 9 403
3 404 403 10
3 467 12 405
3 467 405 406
3 467 406 14
3 406 405 13
3 414 15 407
3 414 407 17
3 17 407 16
3 479 18 421
3 479 421 20
3 20 421 19
3 23 21 22
3 26 24 428
3 428 24 25
3 498 27 430
3 498 430 29
3 430 27 28
3 513 30 965
3 513 965 433
3 513 433 514
3 514 433 32
3 433 965 432
3 432 965 431
3 432 431 31
3 431 965 30
3 35 33 435
3 35 435 437
3 437 435 434
3 437 434 436
3 436 434 34
3 441 36 439
3 441 439 438
3 441 438 440
3 440 438 37
3 440 37 38
3 539 39 966
3 539 966 445
3 539 445 41
3 445 966 442
3 445 442 444
3 444 442 40
3 442 966 443
3 443 966 39
3 554 42 447
3 554 447 967
3 554 967 44
3 44 967 449
3 449 967 968
3 449 968 448
3 448 968 43
3 43 968 446
3 446 968 447
3 447 968 967
3 47 45 453
3 453 45 451
3 453 451 452
3 452 451 450
3 452 450 46
3 962 48 455
3 962 455 963
3 963 455 454
3 963 454 50
3 50 454 49
3 53 51 52
3 961 54 456
3 961 456 457
3 961 457 960
3 960 457 56
3 456 54 55
3 59 57 459
3 59 459 461
3 461 459 458
3 461 458 460
3 460 458 58
3 575 60 463
3 575 463 462
3 575 462 62
3 62 462 61
3 65 63 64
3 68 66 67
3 468 69 466
3 468 466 71
3 466 69 70
3 590 72 469
3 590 469 74
3 74 469 73
3 480 75 76
3 480 76 478
3 480 478 77
3 80 78 481
3 80 481 79
3 609 81 82
3 609 82 486
3 609 486 610
3 610 486 83
3 959 84 487
3 959 487 85
3 959 85 86
3 499 87 88
3 499 88 492
3 499 492 89
3 497 90 496
3 497 496 92
3 92 496 91
3 955 93 500
3 955 500 95
3 95 500 94
3 621 96 507
3 621 507 508
3 621 508 622
3 622 508 98
3 507 96 97
3 101 99 510
3 101 510 512
3 512 510 509
3 512 509 511
3 511 509 100
3 634 102 103
3 634 103 521
3 634 521 104
3 107 105 522
3 107 522 106
3 110 108 109
3 113 111 112
3 116 114 535
3 535 114 115
3 119 117 118
3 654 120 542
3 654 542 122
3 542 120 121
3 125 123 546
3 125 546 547
3 547 546 124
3 128 126 550
3 550 126 549
3 549 126 548
3 549 548 127
3 131 129 552
3 131 552 553
3 553 552 551
3 553 551 130
3 134 132 555
3 555 132 133
3 137 135 556
3 137 556 136
3 140 138 557
3 557 138 139
3 143 141 559
3 559 141 558
3 559 558 142
3 565 144 560
3 565 560 145
3 565 145 146
3 668 147 566
3 668 566 567
3 668 567 149
3 567 566 148
3 954 150 568
3 954 568 569
3 954 569 152
3 569 568 151
3 155 153 574
3 574 153 573
3 574 573 154
3 953 156 157
3 953 157 578
3 953 578 158
3 677 159 579
3 677 579 580
3 677 580 161
3 580 579 160
3 694 162 584
3 694 584 163
3 694 163 164
3 591 165 166
3 591 166 587
3 591 587 167
3 589 168 588
3 589 588 170
3 170 588 169
3 173 171 592
3 173 592 593
3 593 592 172
3 176 174 594
3 176 594 175
3 179 177 601
3 601 177 178
3 702 180 602
3 702 602 181
3 702 181 182
3 707 183 605
3 707 605 185
3 605 183 184
3 188 186 608
3 608 186 606
3 608 606 607
3 607 606 187
3 191 189 190
3 194 192 193
3 624 195 196
3 624 196 619
3 624 619 623
3 623 619 620
3 623 620 197
3 636 198 626
3 636 626 969
3 636 969 635
3 635 969 200
3 200 969 627
3 627 969 625
3 627 625 199
3 625 969 626
3 732 201 638
3 732 638 640
3 732 640 203
3 640 638 639
3 639 638 637
3 639 637 202
3 743 204 642
3 743 642 641
3 743 641 206
3 206 641 205
3 209 207 643
3 643 207 208
3 212 210 644
3 212 644 211
3 215 213 214
3 218 216 217
3 221 219 649
3 649 219 220
3 224 222 650
3 224 650 223
3 227 225 226
3 230 228 229
3 233 231 653
3 653 231 232
3 827 234 235
3 827 235 236
3 239 237 238
3 242 240 241
3 245 243 244
3 248 246 247
3 251 249 667
3 667 249 250
3 254 252 669
3 669 252 253
3 257 255 671
3 671 255 670
3 671 670 256
3 680 258 672
3 680 672 679
3 679 672 259
3 679 259 678
3 678 259 673
3 678 673 260
3 863 261 683
3 863 683 682
3 863 682 864
3 864 682 681
3 864 681 263
3 263 681 262
3 266 264 684
3 684 264 265
3 269 267 685
3 269 685 268
3 695 270 688
3 695 688 272
3 688 270 271
3 275 273 690
3 690 273 689
3 690 689 274
3 278 276 696
3 278 696 277
3 281 279 697
3 697 279 280
3 709 282 698
3 709 698 970
3 709 970 708
3 708 970 699
3 708 699 284
3 699 970 283
3 283 970 698
3 703 285 971
3 703 971 701
3 703 701 287
3 701 971 700
3 701 700 286
3 700 971 285
3 931 288 711
3 931 711 710
3 931 710 932
3 932 710 289
3 932 289 290
3 293 291 292
3 296 294 295
3 299 297 298
3 302 300 728
3 728 300 301
3 744 303 737
3 744 737 305
3 737 303 304
3 308 306 741
3 308 741 742
3 742 741 307
3 311 309 747
3 747 309 745
3 747 745 746
3 746 745 310
3 949 312 749
3 949 749 972
3 949 972 950
3 950 972 314
3 314 972 750
3 750 972 748
3 750 748 313
3 748 972 749
3 761 315 754
3 761 754 317
3 317 754 316
3 320 318 762
3 320 762 319
3 323 321 322
3 944 324 781
3 944 781 782
3 944 782 943
3 943 782 326
3 781 324 325
3 942 327 973
3 942 973 329
3 329 973 974
3 329 974 786
3 786 974 785
3 785 974 783
3 785 783 328
3 783 974 784
3 784 974 973
3 784 973 327
3 922 330 976
3 922 976 975
3 922 975 921
3 921 975 791
3 921 791 332
3 791 975 790
3 790 975 976
3 790 976 789
3 789 976 787
3 789 787 331
3 787 976 788
3 788 976 330
3 892 333 794
3 892 794 335
3 335 794 793
3 335 793 795
3 795 793 792
3 795 792 334
3 896 336 979
3 896 979 978
3 896 978 897
3 897 978 977
3 897 977 898
3 898 977 799
3 898 799 338
3 799 977 798
3 798 977 797
3 797 977 978
3 797 978 337
3 337 978 979
3 337 979 796
3 796 979 336
3 341 339 817
3 341 817 819
3 819 817 816
3 819 816 818
3 818 816 815
3 818 815 340
3 828 342 821
3 828 821 980
3 828 980 344
3 344 980 823
3 823 980 822
3 822 980 820
3 822 820 343
3 820 980 821
3 347 345 825
3 347 825 826
3 826 825 824
3 826 824 346
3 920 348 832
3 920 832 349
3 920 349 833
3 920 833 350
3 919 351 846
3 919 846 352
3 919 352 847
3 919 847 353
3 356 354 849
3 849 354 848
3 849 848 355
3 856 357 853
3 856 853 358
3 856 358 359
3 918 360 860
3 918 860 362
3 362 860 361
3 866 363 861
3 866 861 862
3 866 862 865
3 865 862 365
3 861 363 364
3 917 366 370
3 917 370 368
3 370 366 964
3 964 366 868
3 964 868 369
3 369 868 867
3 369 867 869
3 869 867 367
3 873 371 370
3 873 370 872
3 872 370 964
3 872 964 871
3 871 964 369
3 871 369 981
3 871 981 373
3 373 981 870
3 373 870 372
3 870 981 369
3 376 374 876
3 376 876 879
3 879 876 875
3 879 875 878
3 878 875 874
3 878 874 877
3 877 874 375
3 379 377 886
3 886 377 882
3 886 882 885
3 885 882 881
3 885 881 884
3 884 881 880
3 884 880 883
3 883 880 378
3 895 380 890
3 895 890 982
3 895 982 894
3 894 982 983
3 894 983 893
3 893 983 984
3 893 984 382
3 382 984 891
3 891 984 887
3 891 887 381
3 887 984 888
3 888 984 983
3 888 983 982
3 888 982 889
3 889 982 890
3 385 383 899
3 899 383 384
3 388 386 900
3 388 900 387
3 391 389 926
3 926 389 924
3 926 924 925
3 925 924 923
3 925 923 390
3 941 392 393
3 941 393 933
3 941 933 394
3 397 395 934
3 397 934 396
3 986 985 989
3 987 986 989
3 988 987 989
3 988 989 7
3 988 7 4
3 988 4 0
3 988 0 412
3 988 412 987
3 987 412 410
3 987 410 986
3 986 410 408
3 986 408 985
3 985 408 16
3 985 16 13
3 985 13 10
3 985 10 989
3 989 10 7
3 3 37 34
3 3 34 1
3 1 34 26
3 26 34 28
3 28 34 31
3 46 43 49
3 6 52 990
3 6 990 5
3 5 990 38
3 38 990 40
3 40 990 49
3 40 49 43
3 49 990 52
3 9 64 464
3 9 464 991
3 9 991 8
3 8 991 53
3 53 991 55
3 55 991 58
3 58 991 61
3 61 991 464
3 12 70 992
3 12 992 993
3 12 993 11
3 11 993 65
3 65 993 67
3 67 993 992
3 67 992 70
3 420 18 995
3 420 995 997
3 420 997 417
3 417 997 15
3 15 997 996
3 15 996 14
3 14 996 71
3 71 996 470
3 71 470 73
3 470 996 472
3 472 996 994
3 472 994 474
3 474 994 476
3 476 994 995
3 476 995 76
3 76 995 18
3 995 994 997
3 997 994 996
3 998 1001 1002
3 999 998 1002
3 999 1002 1003
3 1000 999 1003
3 1000 1003 426
3 1000 426 424
3 1000 424 999
3 999 424 422
3 999 422 998
3 998 422 19
3 998 19 418
3 998 418 415
3 998 415 1001
3 1001 415 409
3 1001 409 411
3 1001 411 1002
3 1002 411 1003
3 1003 411 413
3 1003 413 25
3 1003 25 22
3 1003 22 426
3 25 413 2
3 409 415 17
3 21 91 427
3 427 91 493
3 427 493 425
3 425 493 88
3 425 88 490
3 425 490 423
3 423 490 1004
3 423 1004 20
3 20 1004 77
3 77 1004 79
3 79 1004 488
3 79 488 482
3 482 488 484
3 484 488 85
3 484 85 82
3 488 1004 490
3 24 27 23
3 23 27 92
3 1005 1007 1008
3 1006 1005 1008
3 1006 1008 1009
3 1007 1010 1011
3 1008 1007 1011
3 1009 1008 1011
3 1011 1010 1012
3 1011 1012 100
3 1011 100 1009
3 1009 100 97
3 1009 97 505
3 1009 505 1006
3 1006 505 503
3 1006 503 501
3 1006 501 1005
3 1005 501 94
3 1005 94 89
3 1005 89 1007
3 1007 89 495
3 1007 495 1010
3 1010 495 90
3 1010 90 29
3 1010 29 1012
3 1012 29 30
3 1012 30 100
3 106 103 109
3 1013 1015 1016
3 1013 1016 525
3 1013 525 523
3 1013 523 519
3 1013 519 1015
3 1015 519 517
3 1015 517 531
3 1015 531 529
3 1015 529 1016
3 1016 529 1014
3 1016 1014 527
3 1016 527 525
3 527 1014 112
3 112 1014 529
3 531 517 515
3 531 515 533
3 533 515 101
3 533 101 32
3 533 32 33
3 519 523 109
3 519 109 103
3 115 113 536
3 1018 1017 1020
3 1019 1018 1020
3 1019 1020 532
3 1019 532 534
3 1019 534 35
3 1019 35 36
3 1019 36 1018
3 1018 36 39
3 1018 39 1017
3 1017 39 536
3 1017 536 113
3 1017 113 530
3 1017 530 1020
3 1020 530 532
3 42 130 41
3 41 130 538
3 538 130 127
3 538 127 124
3 538 124 543
3 538 543 116
3 116 543 540
3 540 543 121
3 540 121 118
3 44 45 131
3 129 47 128
3 1022 1021 1025
3 1024 1023 1025
3 1021 1024 1025
3 1025 1023 563
3 1025 563 1022
3 1022 563 561
3 1022 561 142
3 1022 142 1021
3 1021 142 139
3 1021 139 136
3 1021 136 1024
3 1024 136 133
3 1024 133 1023
3 1023 133 128
3 1023 128 47
3 1023 47 48
3 1023 48 56
3 1023 56 563
3 563 56 57
3 142 561 145
3 51 54 50
3 60 154 564
3 60 564 59
3 564 154 570
3 564 570 562
3 562 570 146
3 146 570 148
3 148 570 151
3 1027 1026 1028
3 1027 1028 63
3 1027 63 66
3 1027 66 585
3 1027 585 1026
3 1026 585 163
3 1026 163 581
3 1026 581 576
3 1026 576 1028
3 1028 576 465
3 1028 465 63
3 465 576 155
3 465 155 62
3 576 581 157
3 157 581 160
3 585 66 169
3 585 169 166
3 69 72 68
3 68 72 170
3 1030 1029 1033
3 1030 1033 1034
3 1030 1034 475
3 1030 475 1031
3 1030 1031 597
3 1030 597 595
3 1030 595 1029
3 1029 595 175
3 1029 175 172
3 1029 172 1033
3 1033 172 167
3 1033 167 1035
3 1033 1035 1034
3 1034 1035 473
3 1034 473 475
3 473 1035 471
3 471 1035 168
3 471 168 74
3 168 1035 167
3 597 1031 599
3 599 1031 1032
3 599 1032 78
3 78 1032 75
3 75 1032 477
3 477 1032 1031
3 477 1031 475
3 81 187 184
3 81 184 485
3 485 184 1036
3 485 1036 483
3 483 1036 600
3 483 600 80
3 600 1036 598
3 598 1036 603
3 598 603 596
3 596 603 181
3 596 181 178
3 596 178 176
3 603 1036 184
3 956 95 502
3 956 502 1037
3 956 1037 84
3 84 1037 193
3 84 193 190
3 84 190 83
3 83 190 188
3 193 1037 611
3 611 1037 502
3 611 502 613
3 613 502 504
3 613 504 615
3 615 504 506
3 615 506 617
3 617 506 96
3 617 96 196
3 87 93 491
3 491 93 958
3 491 958 489
3 489 958 86
3 1039 1038 1040
3 1039 1040 1041
3 1039 1041 631
3 1039 631 628
3 1039 628 1038
3 1038 628 98
3 1038 98 99
3 1038 99 1040
3 1040 99 516
3 1040 516 518
3 1040 518 1041
3 1041 518 520
3 1041 520 631
3 631 520 102
3 98 628 197
3 197 628 199
3 104 105 633
3 105 214 1044
3 105 1044 633
3 633 1044 1043
3 633 1043 630
3 630 1043 1042
3 630 1042 200
3 200 1042 202
3 202 1042 205
3 205 1042 208
3 208 1042 211
3 211 1042 1043
3 211 1043 1044
3 211 1044 214
3 647 217 645
3 647 645 108
3 108 645 215
3 108 215 107
3 1046 1045 1047
3 1046 1047 117
3 1046 117 223
3 1046 223 220
3 1046 220 218
3 1046 218 1045
3 1045 218 648
3 1045 648 524
3 1045 524 526
3 1045 526 1047
3 1047 526 528
3 1047 528 541
3 1047 541 117
3 541 528 111
3 541 111 114
3 524 648 110
3 120 232 119
3 119 232 1048
3 119 1048 224
3 224 1048 651
3 651 1048 226
3 226 1048 229
3 229 1048 232
3 123 134 545
3 545 134 135
3 545 135 1049
3 545 1049 122
3 122 1049 233
3 233 1049 655
3 655 1049 135
3 126 132 125
3 1051 1050 1052
3 1051 1052 656
3 1051 656 1053
3 1051 1053 238
3 1051 238 657
3 1051 657 1050
3 1050 657 235
3 1050 235 230
3 1050 230 1052
3 1052 230 231
3 1052 231 656
3 238 1053 659
3 659 1053 138
3 138 1053 137
3 137 1053 656
3 665 244 663
3 665 663 1055
3 665 1055 660
3 665 660 140
3 665 140 141
3 660 1055 239
3 239 1055 1054
3 239 1054 241
3 241 1054 661
3 661 1054 663
3 663 1054 1055
3 144 147 1056
3 144 1056 1057
3 144 1057 143
3 143 1057 666
3 666 1057 245
3 245 1057 1056
3 245 1056 247
3 247 1056 250
3 250 1056 147
3 150 158 251
3 150 251 149
3 251 158 159
3 251 159 674
3 251 674 253
3 253 674 256
3 256 674 259
3 577 156 152
3 577 152 572
3 577 572 153
3 1058 1060 1061
3 1058 1061 1062
3 1059 1063 1064
3 1060 1059 1064
3 1060 1064 1065
3 1061 1060 1065
3 1061 1065 1066
3 1061 1066 1067
3 1062 1061 1067
3 1063 1068 1069
3 1064 1063 1069
3 1064 1069 1070
3 1065 1064 1070
3 1065 1070 1071
3 1066 1065 1071
3 1069 1068 1072
3 1069 1072 1073
3 1070 1069 1073
3 1070 1073 1071
3 1071 1073 162
3 1071 162 691
3 1071 691 1066
3 1066 691 1067
3 1067 691 274
3 1067 274 1062
3 1062 274 271
3 1062 271 686
3 1062 686 1058
3 1058 686 268
3 1058 268 265
3 1058 265 1059
3 1058 1059 1060
3 1059 265 262
3 1059 262 1063
3 1063 262 260
3 1063 260 1068
3 1068 260 676
3 1068 676 1072
3 1072 676 161
3 1072 161 583
3 1072 583 1073
3 1073 583 162
3 165 171 1074
3 165 1074 586
3 586 1074 164
3 164 1074 693
3 693 1074 171
3 693 171 275
3 174 177 277
3 174 277 272
3 174 272 273
3 174 273 173
3 180 286 280
3 180 280 278
3 180 278 179
3 280 286 283
3 704 287 604
3 704 604 183
3 604 287 182
3 186 189 292
3 186 292 185
3 185 292 714
3 185 714 706
3 706 714 712
3 706 712 285
3 285 712 289
3 285 289 284
3 726 298 724
3 726 724 1076
3 726 1076 192
3 192 1076 1075
3 192 1075 293
3 192 293 191
3 293 1075 716
3 716 1075 718
3 718 1075 720
3 718 720 295
3 720 1075 722
3 722 1075 1076
3 722 1076 724
3 195 198 618
3 618 198 1079
3 618 1079 1078
3 618 1078 616
3 616 1078 614
3 614 1078 1077
3 614 1077 612
3 612 1077 727
3 612 727 194
3 727 1077 299
3 299 1077 301
3 301 1077 729
3 729 1077 1078
3 729 1078 1079
3 729 1079 201
3 201 1079 198
3 1081 1080 1082
3 1081 1082 738
3 1081 738 304
3 1081 304 735
3 1081 735 1080
3 1080 735 733
3 1080 733 302
3 1080 302 731
3 1080 731 1082
3 1082 731 203
3 1082 203 204
3 1082 204 307
3 1082 307 738
3 207 308 206
3 1085 1084 1086
3 1085 1086 1087
3 1085 1087 1088
3 1083 1085 1088
3 1086 1090 1091
3 1087 1086 1091
3 1087 1091 1092
3 1088 1087 1092
3 1088 1092 1093
3 1088 1093 316
3 1088 316 751
3 1088 751 1083
3 1083 751 313
3 1083 313 310
3 1083 310 1085
3 1085 310 305
3 1085 305 1084
3 1084 305 740
3 1084 740 1086
3 1086 740 1089
3 1086 1089 1090
3 1090 1089 210
3 1090 210 1091
3 1091 210 759
3 1091 759 1092
3 1092 759 757
3 1092 757 1093
3 1093 757 755
3 1093 755 316
3 210 1089 209
3 209 1089 306
3 306 1089 740
3 646 216 1096
3 646 1096 1095
3 646 1095 213
3 213 1095 760
3 213 760 212
3 760 1095 758
3 758 1095 1096
3 758 1096 1094
3 758 1094 756
3 756 1094 763
3 756 763 319
3 756 319 317
3 763 1094 1096
3 763 1096 765
3 765 1096 216
3 765 216 219
3 652 225 1097
3 652 1097 766
3 652 766 221
3 652 221 222
3 766 1097 764
3 764 1097 767
3 764 767 320
3 767 1097 322
3 322 1097 225
3 337 334 800
3 1099 1102 1100
3 1099 1100 1101
3 1101 1100 1103
3 1103 1102 1104
3 1100 1102 1103
3 1103 1104 1105
3 1103 1105 234
3 1103 234 346
3 1103 346 1101
3 1101 346 343
3 1101 343 1099
3 1099 343 340
3 1099 340 1098
3 1099 1098 771
3 1099 771 1102
3 1102 771 769
3 1102 769 1104
3 1104 769 323
3 1104 323 227
3 1104 227 1105
3 1105 227 228
3 1105 228 234
3 771 1098 773
3 773 1098 775
3 775 1098 810
3 775 810 777
3 777 810 805
3 777 805 779
3 779 805 800
3 779 800 325
3 325 800 328
3 328 800 331
3 331 800 334
3 810 1098 340
3 237 240 658
3 658 240 236
3 236 240 347
3 1108 1107 1109
3 1108 1109 1110
3 1108 1110 854
3 1108 854 358
3 1108 358 850
3 1108 850 1107
3 1107 850 843
3 1107 843 840
3 1107 840 1109
3 1109 840 243
3 1109 243 1110
3 1110 243 246
3 1110 246 854
3 854 246 254
3 854 254 255
3 243 840 664
3 664 840 662
3 662 840 837
3 662 837 242
3 242 837 834
3 242 834 345
3 345 834 1106
3 345 1106 344
3 344 1106 829
3 829 1106 834
3 829 834 349
3 843 850 355
3 843 355 352
3 249 252 248
3 364 361 261
3 258 261 1111
3 258 1111 257
3 257 1111 855
3 855 1111 359
3 359 1111 857
3 857 1111 261
3 857 261 361
3 264 372 365
3 264 365 263
3 365 372 367
3 333 381 332
3 1112 1113 1114
3 1112 1114 1115
3 1112 1115 1116
3 1112 1116 1117
3 1115 1114 1119
3 1115 1119 1120
3 1116 1115 1120
3 1116 1120 927
3 1116 927 390
3 1116 390 1117
3 1117 390 332
3 1117 332 381
3 1117 381 378
3 1117 378 1112
3 1112 378 1113
3 1113 378 375
3 1113 375 1118
3 1113 1118 1114
3 1114 1118 267
3 1114 267 1119
3 1119 267 951
3 1119 951 281
3 1119 281 1120
3 1120 281 288
3 1120 288 927
3 288 281 282
3 267 1118 266
3 266 1118 373
3 373 1118 375
3 270 276 687
3 687 276 952
3 687 952 269
3 952 276 279
3 1121 1122 1123
3 1123 1122 1124
3 1123 1124 1125
3 1123 1125 719
3 1123 719 294
3 1123 294 1121
3 1121 294 396
3 1121 396 393
3 1121 393 391
3 1121 391 1122
3 1122 391 930
3 1122 930 1124
3 1124 930 290
3 1124 290 713
3 1124 713 1125
3 1125 713 715
3 1125 715 717
3 1125 717 719
3 717 715 291
3 1126 1129 1130
3 1127 1126 1130
3 1127 1130 734
3 1127 734 736
3 1127 736 939
3 1127 939 937
3 1127 937 1126
3 1126 937 935
3 1126 935 1128
3 1126 1128 1129
3 1129 1128 721
3 1129 721 723
3 1129 723 1130
3 1130 723 725
3 1130 725 734
3 734 725 297
3 734 297 300
3 721 1128 296
3 296 1128 397
3 397 1128 935
3 939 736 303
3 939 303 309
3 945 326 1132
3 945 1132 1131
3 945 1131 312
3 312 1131 311
3 311 1131 940
3 940 1131 938
3 938 1131 1132
3 938 1132 936
3 936 1132 395
3 395 1132 394
3 394 1132 326
3 394 326 327
3 1133 1135 1134
3 1134 1135 1137
3 1134 1137 1136
3 1137 1138 1139
3 1136 1137 1139
3 1139 1138 1140
3 1139 1140 1141
3 1139 1141 772
3 1139 772 774
3 1139 774 1136
3 1136 774 776
3 1136 776 1134
3 1134 776 778
3 1134 778 1133
3 1133 778 780
3 1133 780 948
3 1133 948 314
3 1133 314 1135
3 1135 314 753
3 1135 753 1137
3 1137 753 1138
3 1138 753 315
3 1138 315 1140
3 1140 315 318
3 1140 318 768
3 1140 768 1141
3 1141 768 770
3 1141 770 772
3 770 768 321
3 948 780 324
3 330 389 392
3 330 392 329
3 335 336 382
3 380 338 379
3 1142 1143 1144
3 1142 1144 1145
3 1142 1145 1146
3 1142 1146 1147
3 1142 1147 1148
3 1142 1148 1143
3 1146 1145 1150
3 1146 1150 1151
3 1147 1146 1151
3 1147 1151 1152
3 1147 1152 1153
3 1148 1147 1153
3 1148 1153 1154
3 1148 1154 1155
3 1143 1148 1155
3 1143 1155 1149
3 1152 1151 1156
3 1154 1153 1157
3 1154 1157 1158
3 1155 1154 1158
3 1155 1158 905
3 1155 905 1149
3 1149 905 903
3 1149 903 1143
3 1143 903 901
3 1143 901 1144
3 1144 901 387
3 1144 387 1145
3 1145 387 384
3 1145 384 1150
3 1150 384 379
3 1150 379 1156
3 1150 1156 1151
3 1156 379 338
3 1156 338 804
3 1156 804 1152
3 1152 804 809
3 1152 809 1153
3 1153 809 1157
3 1157 809 814
3 1157 814 1158
3 1158 814 339
3 1158 339 907
3 1158 907 905
3 1161 1160 1163
3 1160 1164 1162
3 1160 1162 1163
3 1163 1162 1166
3 1162 1164 1168
3 1162 1168 1165
3 1162 1165 1166
3 1166 1165 353
3 1166 353 354
3 1166 354 915
3 1166 915 1163
3 1163 915 913
3 1163 913 1161
3 1161 913 911
3 1161 911 1159
3 1161 1159 904
3 1161 904 1160
3 1160 904 906
3 1160 906 1164
3 1164 906 908
3 1164 908 1167
3 1164 1167 1168
3 1168 1167 831
3 1168 831 348
3 1168 348 1165
3 1165 348 353
3 831 1167 342
3 342 1167 341
3 341 1167 908
3 904 1159 902
3 902 1159 909
3 902 909 388
3 909 1159 911
3 351 350 1169
3 351 1169 845
3 845 1169 1170
3 845 1170 842
3 842 1170 839
3 839 1170 836
3 836 1170 1169
3 836 1169 350
3 360 368 859
3 1171 1173 1174
3 1171 1174 1175
3 1172 1171 1175
3 1172 1175 1176
3 1172 1176 1177
3 1173 1178 1179
3 1174 1173 1179
3 1174 1179 1180
3 1175 1174 1180
3 1175 1180 1181
3 1176 1175 1181
3 1176 1181 1182
3 1176 1182 1183
3 1177 1176 1183
3 1178 1184 1185
3 1179 1178 1185
3 1179 1185 1186
3 1180 1179 1186
3 1180 1186 1187
3 1181 1180 1187
3 1181 1187 1188
3 1182 1181 1188
3 1182 1188 1183
3 1183 1188 368
3 1183 368 371
3 1183 371 374
3 1183 374 1177
3 1177 374 385
3 1177 385 1172
3 1172 385 386
3 1172 386 1171
3 1171 386 910
3 1171 910 1173
3 1173 910 912
3 1173 912 914
3 1173 914 1178
3 1178 914 916
3 1178 916 1184
3 1184 916 356
3 1184 356 852
3 1184 852 1185
3 1185 852 1186
3 1186 852 357
3 1186 357 1187
3 1187 357 859
3 1187 859 1188
3 1188 859 368
3 362 363 366
3 377 383 376
